<svg xmlns="http://www.w3.org/2000/svg" xmlns:xlink="http://www.w3.org/1999/xlink" width="1270pt" height="409pt" viewBox="0.00 0.00 1270.39 408.60">
<g id="graph0" class="graph" transform="scale(1 1) rotate(0) translate(4 404.6)">
<title>main</title>
<polygon fill="white" stroke="none" points="-4,4 -4,-404.6 1266.39,-404.6 1266.39,4 -4,4"/>
<g id="clust1" class="cluster">
<title>clusterLegend</title>
<polygon fill="none" stroke="black" points="8,-138 8,-392.6 554,-392.6 554,-138 8,-138"/>
<text text-anchor="middle" x="281" y="-376" font-family="Times,serif" font-size="14.00">Legend</text>
</g>
<!-- legendNode0 -->
<g id="node1" class="node">
<title>legendNode0</title>
<polygon fill="none" stroke="black" points="294.36,-323.85 297.25,-323.95 300.11,-324.1 302.92,-324.29 305.69,-324.54 308.39,-324.83 311.01,-325.16 313.55,-325.55 316,-325.98 318.34,-326.45 320.57,-326.96 322.68,-327.51 324.66,-328.11 326.51,-328.74 328.22,-329.41 329.79,-330.11 331.21,-330.84 332.48,-331.6 333.6,-332.39 334.57,-333.21 335.38,-334.05 336.03,-334.91 336.53,-335.79 336.88,-336.69 337.08,-337.6 337.14,-338.52 337.05,-339.45 336.82,-340.39 336.46,-341.33 335.97,-342.27 335.35,-343.21 334.62,-344.15 333.77,-345.08 332.82,-346 331.77,-346.91 330.62,-347.81 329.39,-348.69 328.07,-349.55 326.69,-350.39 325.23,-351.21 323.71,-352 322.14,-352.76 320.51,-353.49 318.84,-354.19 317.13,-354.86 315.38,-355.49 313.6,-356.09 311.8,-356.64 309.97,-357.15 308.12,-357.62 306.25,-358.05 304.37,-358.44 302.47,-358.77 300.57,-359.06 298.66,-359.31 296.74,-359.5 294.82,-359.65 292.89,-359.75 290.96,-359.8 289.04,-359.8 287.11,-359.75 285.18,-359.65 283.26,-359.5 281.34,-359.31 279.43,-359.06 277.53,-358.77 275.63,-358.44 273.75,-358.05 271.88,-357.62 270.03,-357.15 268.2,-356.64 266.4,-356.09 264.62,-355.49 262.87,-354.86 261.16,-354.19 259.49,-353.49 257.86,-352.76 256.29,-352 254.77,-351.21 253.31,-350.39 251.93,-349.55 250.61,-348.69 249.38,-347.81 248.23,-346.91 247.18,-346 246.23,-345.08 245.38,-344.15 244.65,-343.21 244.03,-342.27 243.54,-341.33 243.18,-340.39 242.95,-339.45 242.86,-338.52 242.92,-337.6 243.12,-336.69 243.47,-335.79 243.97,-334.91 244.62,-334.05 245.43,-333.21 246.4,-332.39 247.52,-331.6 248.79,-330.84 250.21,-330.11 251.78,-329.41 253.49,-328.74 255.34,-328.11 257.32,-327.51 259.43,-326.96 261.66,-326.45 264,-325.98 266.45,-325.55 268.99,-325.16 271.61,-324.83 274.31,-324.54 277.08,-324.29 279.89,-324.1 282.75,-323.95 285.64,-323.85 288.54,-323.8 291.46,-323.8 294.36,-323.85"/>
<text text-anchor="middle" x="290" y="-338.2" font-family="Times,serif" font-size="12.00">Executable</text>
</g>
<!-- legendNode1 -->
<g id="node2" class="node">
<title>legendNode1</title>
<polygon fill="none" stroke="black" points="129.9,-253.34 129.9,-268.26 96.57,-278.8 49.43,-278.8 16.1,-268.26 16.1,-253.34 49.43,-242.8 96.57,-242.8 129.9,-253.34"/>
<text text-anchor="middle" x="73" y="-257.2" font-family="Times,serif" font-size="12.00">Static Library</text>
</g>
<!-- legendNode0&#45;&gt;legendNode1 -->
<g id="edge1" class="edge">
<title>legendNode0-&gt;legendNode1</title>
<path fill="none" stroke="black" d="M253.93,-328.11C223.3,-317.29 178.19,-301.23 139,-286.8 132.51,-284.41 125.67,-281.86 118.96,-279.34"/>
<polygon fill="black" stroke="black" points="120.59,-276.21 109.99,-275.95 118.11,-282.76 120.59,-276.21"/>
</g>
<!-- legendNode2 -->
<g id="node3" class="node">
<title>legendNode2</title>
<polygon fill="none" stroke="black" points="274.05,-253.34 274.05,-268.26 238.29,-278.8 187.71,-278.8 151.95,-268.26 151.95,-253.34 187.71,-242.8 238.29,-242.8 274.05,-253.34"/>
<polygon fill="none" stroke="black" points="278.05,-250.35 278.05,-271.25 238.86,-282.8 187.14,-282.8 147.95,-271.25 147.95,-250.35 187.14,-238.8 238.86,-238.8 278.05,-250.35"/>
<text text-anchor="middle" x="213" y="-257.2" font-family="Times,serif" font-size="12.00">Shared Library</text>
</g>
<!-- legendNode0&#45;&gt;legendNode2 -->
<g id="edge2" class="edge">
<title>legendNode0-&gt;legendNode2</title>
<path fill="none" stroke="black" d="M274.05,-324.43C264.69,-314.83 252.59,-302.41 241.63,-291.17"/>
<polygon fill="black" stroke="black" points="244.45,-289.05 234.96,-284.33 239.44,-293.94 244.45,-289.05"/>
</g>
<!-- legendNode3 -->
<g id="node4" class="node">
<title>legendNode3</title>
<polygon fill="none" stroke="black" points="431.82,-253.34 431.82,-268.26 394.43,-278.8 341.57,-278.8 304.18,-268.26 304.18,-253.34 341.57,-242.8 394.43,-242.8 431.82,-253.34"/>
<polygon fill="none" stroke="black" points="435.82,-250.32 435.82,-271.28 394.99,-282.8 341.01,-282.8 300.18,-271.28 300.18,-250.32 341.01,-238.8 394.99,-238.8 435.82,-250.32"/>
<polygon fill="none" stroke="black" points="439.82,-247.29 439.82,-274.31 395.54,-286.8 340.46,-286.8 296.18,-274.31 296.18,-247.29 340.46,-234.8 395.54,-234.8 439.82,-247.29"/>
<text text-anchor="middle" x="368" y="-257.2" font-family="Times,serif" font-size="12.00">Module Library</text>
</g>
<!-- legendNode0&#45;&gt;legendNode3 -->
<!-- legendNode7 -->
<g id="node8" class="node">
<title>legendNode7</title>
<polygon fill="none" stroke="black" points="545.83,-278.8 458.17,-278.8 458.17,-242.8 545.83,-242.8 545.83,-278.8"/>
<text text-anchor="middle" x="502" y="-257.2" font-family="Times,serif" font-size="12.00">Custom Target</text>
</g>
<!-- legendNode0&#45;&gt;legendNode7 -->
<!-- legendNode4 -->
<g id="node5" class="node">
<title>legendNode4</title>
<polygon fill="none" stroke="black" points="170.06,-169.56 93,-182 15.94,-169.56 45.37,-149.44 140.63,-149.44 170.06,-169.56"/>
<text text-anchor="middle" x="93" y="-160.4" font-family="Times,serif" font-size="12.00">Interface Library</text>
</g>
<!-- legendNode1&#45;&gt;legendNode4 -->
<g id="edge4" class="edge">
<title>legendNode1-&gt;legendNode4</title>
<path fill="none" stroke="black" stroke-dasharray="5,2" d="M76.67,-242.41C79.61,-228.48 83.79,-208.66 87.18,-192.57"/>
<polygon fill="black" stroke="black" points="90.54,-193.63 89.18,-183.12 83.69,-192.18 90.54,-193.63"/>
<text text-anchor="middle" x="110.25" y="-204.2" font-family="Times,serif" font-size="14.00">Interface</text>
</g>
<!-- legendNode5 -->
<g id="node6" class="node">
<title>legendNode5</title>
<polygon fill="none" stroke="black" points="316.14,-164 284.07,-182 219.93,-182 187.86,-164 219.93,-146 284.07,-146 316.14,-164"/>
<text text-anchor="middle" x="252" y="-160.4" font-family="Times,serif" font-size="12.00">Object Library</text>
</g>
<!-- legendNode2&#45;&gt;legendNode5 -->
<g id="edge5" class="edge">
<title>legendNode2-&gt;legendNode5</title>
<path fill="none" stroke="black" stroke-dasharray="1,5" d="M221.66,-238.76C227.2,-225.29 234.46,-207.64 240.48,-192.99"/>
<polygon fill="black" stroke="black" points="243.66,-194.47 244.23,-183.89 237.19,-191.8 243.66,-194.47"/>
<text text-anchor="middle" x="256.97" y="-204.2" font-family="Times,serif" font-size="14.00">Private</text>
</g>
<!-- legendNode6 -->
<g id="node7" class="node">
<title>legendNode6</title>
<polygon fill="none" stroke="black" points="479.53,-159.99 465.17,-175.22 407,-182 348.83,-175.22 334.47,-159.99 374.72,-147.78 439.28,-147.78 479.53,-159.99"/>
<text text-anchor="middle" x="407" y="-160.4" font-family="Times,serif" font-size="12.00">Unknown Library</text>
</g>
<!-- legendNode3&#45;&gt;legendNode6 -->
<g id="edge6" class="edge">
<title>legendNode3-&gt;legendNode6</title>
<path fill="none" stroke="black" d="M378.45,-234.4C383.85,-221.28 390.43,-205.29 395.91,-191.96"/>
<polygon fill="black" stroke="black" points="399.06,-193.49 399.63,-182.91 392.59,-190.83 399.06,-193.49"/>
</g>
<!-- node0 -->
<g id="node9" class="node">
<title>node0</title>
<polygon fill="none" stroke="black" points="792.08,-10.54 792.08,-25.46 761.57,-36 718.43,-36 687.92,-25.46 687.92,-10.54 718.43,0 761.57,0 792.08,-10.54"/>
<text text-anchor="middle" x="740" y="-14.4" font-family="Times,serif" font-size="12.00">BH1750_lib</text>
</g>
<!-- node142 -->
<g id="node10" class="node">
<title>node142</title>
<polygon fill="none" stroke="black" points="918.39,-10.54 918.39,-25.46 886.53,-36 841.47,-36 809.61,-25.46 809.61,-10.54 841.47,0 886.53,0 918.39,-10.54"/>
<text text-anchor="middle" x="864" y="-14.4" font-family="Times,serif" font-size="12.00">BME280_lib</text>
</g>
<!-- node143 -->
<g id="node11" class="node">
<title>node143</title>
<polygon fill="none" stroke="black" points="851.78,-253.34 851.78,-268.26 822.62,-278.8 781.38,-278.8 752.22,-268.26 752.22,-253.34 781.38,-242.8 822.62,-242.8 851.78,-253.34"/>
<text text-anchor="middle" x="802" y="-257.2" font-family="Times,serif" font-size="12.00">Comms_lib</text>
</g>
<!-- node144 -->
<g id="node12" class="node">
<title>node144</title>
<polygon fill="none" stroke="black" points="723.83,-156.54 723.83,-171.46 688.2,-182 637.8,-182 602.17,-171.46 602.17,-156.54 637.8,-146 688.2,-146 723.83,-156.54"/>
<text text-anchor="middle" x="663" y="-160.4" font-family="Times,serif" font-size="12.00">LoRa_pico_lib</text>
</g>
<!-- node143&#45;&gt;node144 -->
<g id="edge9" class="edge">
<title>node143-&gt;node144</title>
<path fill="none" stroke="black" d="M778.11,-243.5C756.04,-228.45 722.99,-205.92 697.96,-188.85"/>
<polygon fill="black" stroke="black" points="699.95,-185.96 689.71,-183.22 696,-191.75 699.95,-185.96"/>
</g>
<!-- node150 -->
<g id="node14" class="node">
<title>node150</title>
<polygon fill="none" stroke="black" points="861.91,-156.54 861.91,-171.46 826.82,-182 777.18,-182 742.09,-171.46 742.09,-156.54 777.18,-146 826.82,-146 861.91,-156.54"/>
<text text-anchor="middle" x="802" y="-160.4" font-family="Times,serif" font-size="12.00">commands_lib</text>
</g>
<!-- node143&#45;&gt;node150 -->
<g id="edge14" class="edge">
<title>node143-&gt;node150</title>
<path fill="none" stroke="black" d="M802,-242.41C802,-228.78 802,-209.53 802,-193.63"/>
<polygon fill="black" stroke="black" points="805.5,-193.79 802,-183.79 798.5,-193.79 805.5,-193.79"/>
</g>
<!-- node145 -->
<g id="node13" class="node">
<title>node145</title>
<polygon fill="none" stroke="black" points="598.31,-83.54 598.31,-98.46 569.42,-109 528.58,-109 499.69,-98.46 499.69,-83.54 528.58,-73 569.42,-73 598.31,-83.54"/>
<text text-anchor="middle" x="549" y="-87.4" font-family="Times,serif" font-size="12.00">LoRa_print</text>
</g>
<!-- node144&#45;&gt;node145 -->
<g id="edge8" class="edge">
<title>node144-&gt;node145</title>
<path fill="none" stroke="black" d="M635.98,-146.17C620.35,-136.44 600.52,-124.08 583.73,-113.63"/>
<polygon fill="black" stroke="black" points="585.88,-110.85 575.55,-108.53 582.18,-116.79 585.88,-110.85"/>
</g>
<!-- node151 -->
<g id="node15" class="node">
<title>node151</title>
<polygon fill="none" stroke="black" points="858.85,-96.56 802,-109 745.15,-96.56 766.87,-76.44 837.13,-76.44 858.85,-96.56"/>
<text text-anchor="middle" x="802" y="-87.4" font-family="Times,serif" font-size="12.00">Sensors_lib</text>
</g>
<!-- node150&#45;&gt;node151 -->
<g id="edge12" class="edge">
<title>node150-&gt;node151</title>
<path fill="none" stroke="black" d="M802,-145.81C802,-138.23 802,-129.1 802,-120.54"/>
<polygon fill="black" stroke="black" points="805.5,-120.54 802,-110.54 798.5,-120.54 805.5,-120.54"/>
</g>
<!-- node168 -->
<g id="node16" class="node">
<title>node168</title>
<polygon fill="none" stroke="black" points="1086.92,-83.54 1086.92,-98.46 1058.85,-109 1019.15,-109 991.08,-98.46 991.08,-83.54 1019.15,-73 1058.85,-73 1086.92,-83.54"/>
<text text-anchor="middle" x="1039" y="-87.4" font-family="Times,serif" font-size="12.00">storage_lib</text>
</g>
<!-- node150&#45;&gt;node168 -->
<g id="edge13" class="edge">
<title>node150-&gt;node168</title>
<path fill="none" stroke="black" d="M843.55,-150.55C884.83,-138.19 948.06,-119.25 991.35,-106.28"/>
<polygon fill="black" stroke="black" points="992.15,-109.69 1000.72,-103.47 990.14,-102.98 992.15,-109.69"/>
</g>
<!-- node151&#45;&gt;node0 -->
<g id="edge10" class="edge">
<title>node151-&gt;node0</title>
<path fill="none" stroke="black" stroke-dasharray="5,2" d="M789.75,-75.97C781.98,-67.07 771.68,-55.28 762.47,-44.74"/>
<polygon fill="black" stroke="black" points="765.28,-42.63 756.07,-37.4 760.01,-47.24 765.28,-42.63"/>
</g>
<!-- node151&#45;&gt;node142 -->
<g id="edge11" class="edge">
<title>node151-&gt;node142</title>
<path fill="none" stroke="black" stroke-dasharray="5,2" d="M814.25,-75.97C822.02,-67.07 832.32,-55.28 841.53,-44.74"/>
<polygon fill="black" stroke="black" points="843.99,-47.24 847.93,-37.4 838.72,-42.63 843.99,-47.24"/>
</g>
<!-- node169 -->
<g id="node17" class="node">
<title>node169</title>
<polygon fill="none" stroke="black" points="1245.65,-156.54 1245.65,-171.46 1201.92,-182 1140.08,-182 1096.35,-171.46 1096.35,-156.54 1140.08,-146 1201.92,-146 1245.65,-156.54"/>
<text text-anchor="middle" x="1171" y="-160.4" font-family="Times,serif" font-size="12.00">PowerManager_lib</text>
</g>
<!-- node169&#45;&gt;node168 -->
<g id="edge17" class="edge">
<title>node169-&gt;node168</title>
<path fill="none" stroke="black" d="M1139.05,-145.81C1120.07,-135.61 1095.93,-122.62 1076.12,-111.96"/>
<polygon fill="black" stroke="black" points="1078,-109 1067.53,-107.35 1074.68,-115.17 1078,-109"/>
</g>
<!-- node170 -->
<g id="node18" class="node">
<title>node170</title>
<polygon fill="none" stroke="black" points="1227.21,-83.54 1227.21,-98.46 1194.28,-109 1147.72,-109 1114.79,-98.46 1114.79,-83.54 1147.72,-73 1194.28,-73 1227.21,-83.54"/>
<text text-anchor="middle" x="1171" y="-87.4" font-family="Times,serif" font-size="12.00">eventman_lib</text>
</g>
<!-- node169&#45;&gt;node170 -->
<g id="edge16" class="edge">
<title>node169-&gt;node170</title>
<path fill="none" stroke="black" d="M1165.12,-145.81C1164.32,-138.14 1164.07,-128.89 1164.38,-120.24"/>
<polygon fill="black" stroke="black" points="1167.85,-120.75 1165.04,-110.54 1160.87,-120.28 1167.85,-120.75"/>
</g>
<!-- node170&#45;&gt;node169 -->
<g id="edge15" class="edge">
<title>node170-&gt;node169</title>
<path fill="none" stroke="black" d="M1176.86,-109.03C1177.67,-116.68 1177.93,-125.92 1177.63,-134.58"/>
<polygon fill="black" stroke="black" points="1174.15,-134.09 1176.98,-144.3 1181.14,-134.56 1174.15,-134.09"/>
</g>
<!-- node174 -->
<g id="node19" class="node">
<title>node174</title>
<polygon fill="none" stroke="black" points="1001.93,-156.54 1001.93,-171.46 977.37,-182 942.63,-182 918.07,-171.46 918.07,-156.54 942.63,-146 977.37,-146 1001.93,-156.54"/>
<text text-anchor="middle" x="960" y="-160.4" font-family="Times,serif" font-size="12.00">clock_lib</text>
</g>
<!-- node195 -->
<g id="node20" class="node">
<title>node195</title>
<polygon fill="none" stroke="black" points="931.66,-323.85 933.42,-323.95 935.16,-324.1 936.88,-324.29 938.57,-324.54 940.21,-324.83 941.81,-325.16 943.36,-325.55 944.85,-325.98 946.28,-326.45 947.64,-326.96 948.93,-327.51 950.14,-328.11 951.26,-328.74 952.31,-329.41 953.26,-330.11 954.13,-330.84 954.91,-331.6 955.59,-332.39 956.18,-333.21 956.67,-334.05 957.07,-334.91 957.37,-335.79 957.59,-336.69 957.71,-337.6 957.74,-338.52 957.69,-339.45 957.55,-340.39 957.33,-341.33 957.03,-342.27 956.65,-343.21 956.21,-344.15 955.69,-345.08 955.11,-346 954.47,-346.91 953.77,-347.81 953.02,-348.69 952.22,-349.55 951.37,-350.39 950.48,-351.21 949.56,-352 948.6,-352.76 947.61,-353.49 946.59,-354.19 945.54,-354.86 944.48,-355.49 943.39,-356.09 942.29,-356.64 941.18,-357.15 940.05,-357.62 938.91,-358.05 937.76,-358.44 936.61,-358.77 935.45,-359.06 934.28,-359.31 933.11,-359.5 931.94,-359.65 930.76,-359.75 929.59,-359.8 928.41,-359.8 927.24,-359.75 926.06,-359.65 924.89,-359.5 923.72,-359.31 922.55,-359.06 921.39,-358.77 920.24,-358.44 919.09,-358.05 917.95,-357.62 916.82,-357.15 915.71,-356.64 914.61,-356.09 913.52,-355.49 912.46,-354.86 911.41,-354.19 910.39,-353.49 909.4,-352.76 908.44,-352 907.52,-351.21 906.63,-350.39 905.78,-349.55 904.98,-348.69 904.23,-347.81 903.53,-346.91 902.89,-346 902.31,-345.08 901.79,-344.15 901.35,-343.21 900.97,-342.27 900.67,-341.33 900.45,-340.39 900.31,-339.45 900.26,-338.52 900.29,-337.6 900.41,-336.69 900.63,-335.79 900.93,-334.91 901.33,-334.05 901.82,-333.21 902.41,-332.39 903.09,-331.6 903.87,-330.84 904.74,-330.11 905.69,-329.41 906.74,-328.74 907.86,-328.11 909.07,-327.51 910.36,-326.96 911.72,-326.45 913.15,-325.98 914.64,-325.55 916.19,-325.16 917.79,-324.83 919.43,-324.54 921.12,-324.29 922.84,-324.1 924.58,-323.95 926.34,-323.85 928.11,-323.8 929.89,-323.8 931.66,-323.85"/>
<text text-anchor="middle" x="929" y="-338.2" font-family="Times,serif" font-size="12.00">main</text>
</g>
<!-- node195&#45;&gt;node143 -->
<g id="edge18" class="edge">
<title>node195-&gt;node143</title>
<path fill="none" stroke="black" stroke-dasharray="1,5" d="M908.03,-327.75C888.76,-315.77 859.82,-297.76 837.04,-283.6"/>
<polygon fill="black" stroke="black" points="839.01,-280.7 828.67,-278.39 835.31,-286.64 839.01,-280.7"/>
</g>
<!-- node195&#45;&gt;node144 -->
<g id="edge19" class="edge">
<title>node195-&gt;node144</title>
<path fill="none" stroke="black" stroke-dasharray="1,5" d="M899.81,-338.58C860.67,-334.3 790.61,-321.96 743,-286.8 710.12,-262.52 686.88,-220.38 674.21,-192.59"/>
<polygon fill="black" stroke="black" points="677.55,-191.49 670.33,-183.74 671.14,-194.3 677.55,-191.49"/>
</g>
<!-- node195&#45;&gt;node151 -->
<g id="edge21" class="edge">
<title>node195-&gt;node151</title>
<path fill="none" stroke="black" stroke-dasharray="1,5" d="M900.13,-339.64C853.56,-336.63 760.27,-325.8 693,-286.8 637.3,-254.51 616.94,-241.76 593,-182 585.73,-163.85 580.75,-153.24 593,-138 610.44,-116.3 679.07,-104.25 732.98,-97.98"/>
<polygon fill="black" stroke="black" points="733.19,-101.48 742.74,-96.89 732.41,-94.52 733.19,-101.48"/>
</g>
<!-- node195&#45;&gt;node168 -->
<g id="edge24" class="edge">
<title>node195-&gt;node168</title>
<path fill="none" stroke="black" stroke-dasharray="1,5" d="M958.06,-336.77C986.71,-331.08 1029.03,-317.69 1049,-286.8 1082.04,-235.7 1063.77,-160.37 1049.94,-119.99"/>
<polygon fill="black" stroke="black" points="1053.31,-119 1046.63,-110.77 1046.72,-121.36 1053.31,-119"/>
</g>
<!-- node195&#45;&gt;node169 -->
<g id="edge20" class="edge">
<title>node195-&gt;node169</title>
<path fill="none" stroke="black" stroke-dasharray="1,5" d="M957.86,-340.6C990.74,-339.02 1044.75,-332.17 1082,-305.8 1121.91,-277.55 1147.92,-225.21 1160.99,-192.91"/>
<polygon fill="black" stroke="black" points="1164.16,-194.4 1164.52,-183.81 1157.64,-191.86 1164.16,-194.4"/>
</g>
<!-- node195&#45;&gt;node170 -->
<g id="edge23" class="edge">
<title>node195-&gt;node170</title>
<path fill="none" stroke="black" stroke-dasharray="1,5" d="M957.99,-337.33C1025.46,-327.48 1192.03,-292.48 1255,-182 1264.68,-165.01 1264.97,-154.82 1255,-138 1247.37,-125.12 1234.71,-115.61 1221.51,-108.69"/>
<polygon fill="black" stroke="black" points="1223.29,-105.66 1212.75,-104.54 1220.29,-111.99 1223.29,-105.66"/>
</g>
<!-- node195&#45;&gt;node174 -->
<g id="edge22" class="edge">
<title>node195-&gt;node174</title>
<path fill="none" stroke="black" stroke-dasharray="1,5" d="M924.31,-323.6C919.29,-302.38 913.05,-265.34 921,-234.8 924.97,-219.54 933.1,-204.07 940.92,-191.59"/>
<polygon fill="black" stroke="black" points="943.64,-193.83 946.2,-183.55 937.78,-189.99 943.64,-193.83"/>
</g>
<!-- node197 -->
<g id="node21" class="node">
<title>node197</title>
<polygon fill="none" stroke="black" points="1040.29,-253.34 1040.29,-268.26 1007.9,-278.8 962.1,-278.8 929.71,-268.26 929.71,-253.34 962.1,-242.8 1007.9,-242.8 1040.29,-253.34"/>
<text text-anchor="middle" x="985" y="-257.2" font-family="Times,serif" font-size="12.00">telemetry_lib</text>
</g>
<!-- node195&#45;&gt;node197 -->
<g id="edge29" class="edge">
<title>node195-&gt;node197</title>
<path fill="none" stroke="black" stroke-dasharray="1,5" d="M940.6,-324.43C947.98,-314.02 957.71,-300.29 966.18,-288.35"/>
<polygon fill="black" stroke="black" points="968.83,-290.66 971.76,-280.48 963.12,-286.61 968.83,-290.66"/>
</g>
<!-- node197&#45;&gt;node151 -->
<g id="edge26" class="edge">
<title>node197-&gt;node151</title>
<path fill="none" stroke="black" d="M967.48,-242.48C951.87,-226.91 928.54,-203.27 909,-182 891.52,-162.97 890.37,-155.1 871,-138 859.5,-127.85 845.63,-118.18 833.34,-110.35"/>
<polygon fill="black" stroke="black" points="835.53,-107.59 825.19,-105.29 831.84,-113.54 835.53,-107.59"/>
</g>
<!-- node197&#45;&gt;node168 -->
<g id="edge28" class="edge">
<title>node197-&gt;node168</title>
<path fill="none" stroke="black" d="M990.89,-242.53C996.23,-226.79 1004.27,-202.87 1011,-182 1017.68,-161.3 1024.97,-137.84 1030.43,-120.06"/>
<polygon fill="black" stroke="black" points="1033.71,-121.32 1033.3,-110.73 1027.02,-119.27 1033.71,-121.32"/>
</g>
<!-- node197&#45;&gt;node169 -->
<g id="edge25" class="edge">
<title>node197-&gt;node169</title>
<path fill="none" stroke="black" d="M1014.88,-244.57C1045.54,-228.94 1093.52,-204.49 1128.2,-186.81"/>
<polygon fill="black" stroke="black" points="1129.39,-190.14 1136.71,-182.48 1126.21,-183.9 1129.39,-190.14"/>
</g>
<!-- node197&#45;&gt;node174 -->
<g id="edge27" class="edge">
<title>node197-&gt;node174</title>
<path fill="none" stroke="black" d="M980.41,-242.41C976.78,-228.65 971.64,-209.15 967.43,-193.16"/>
<polygon fill="black" stroke="black" points="970.88,-192.52 964.94,-183.74 964.11,-194.3 970.88,-192.52"/>
</g>
</g>
</svg>