<?xml version="1.0" encoding="UTF-8" standalone="no"?>
<!DOCTYPE svg PUBLIC "-//W3C//DTD SVG 1.1//EN"
 "http://www.w3.org/Graphics/SVG/1.1/DTD/svg11.dtd">
<!-- Generated by graphviz version 12.2.1 (20241206.2353)
 -->
<!-- Title: lib/sensors/BH1750/BH1750.h Pages: 1 -->
<svg width="389pt" height="232pt"
 viewBox="0.00 0.00 389.12 232.00" xmlns="http://www.w3.org/2000/svg" xmlns:xlink="http://www.w3.org/1999/xlink">
<g id="graph0" class="graph" transform="scale(1 1) rotate(0) translate(4 228)">
<title>lib/sensors/BH1750/BH1750.h</title>
<!-- Node1 -->
<g id="Node000001" class="node">
<title>Node1</title>
<g id="a_Node000001"><a xlink:title=" ">
<polygon fill="#999999" stroke="#666666" points="165.5,-224 64,-224 64,-192 165.5,-192 165.5,-224"/>
<text text-anchor="start" x="72" y="-210.5" font-family="Helvetica,sans-Serif" font-size="10.00">lib/sensors/BH1750</text>
<text text-anchor="middle" x="114.75" y="-198.5" font-family="Helvetica,sans-Serif" font-size="10.00">/BH1750.h</text>
</a>
</g>
</g>
<!-- Node2 -->
<g id="Node000002" class="node">
<title>Node2</title>
<g id="a_Node000002"><a xlink:href="_b_h1750_8cpp.html" target="_top" xlink:title=" ">
<polygon fill="white" stroke="#666666" points="101.5,-156 0,-156 0,-124 101.5,-124 101.5,-156"/>
<text text-anchor="start" x="8" y="-142.5" font-family="Helvetica,sans-Serif" font-size="10.00">lib/sensors/BH1750</text>
<text text-anchor="middle" x="50.75" y="-130.5" font-family="Helvetica,sans-Serif" font-size="10.00">/BH1750.cpp</text>
</a>
</g>
</g>
<!-- Node1&#45;&gt;Node2 -->
<g id="edge1_Node000001_Node000002" class="edge">
<title>Node1&#45;&gt;Node2</title>
<g id="a_edge1_Node000001_Node000002"><a xlink:title=" ">
<path fill="none" stroke="#63b8ff" d="M91.89,-183.43C83.12,-174.38 73.34,-164.29 65.51,-156.22"/>
<polygon fill="#63b8ff" stroke="#63b8ff" points="89.38,-185.86 98.85,-190.61 94.4,-180.99 89.38,-185.86"/>
</a>
</g>
</g>
<!-- Node3 -->
<g id="Node000003" class="node">
<title>Node3</title>
<g id="a_Node000003"><a xlink:href="_b_h1750___w_r_a_p_p_e_r_8h.html" target="_top" xlink:title=" ">
<polygon fill="white" stroke="#666666" points="239.5,-156 120,-156 120,-124 239.5,-124 239.5,-156"/>
<text text-anchor="start" x="128" y="-142.5" font-family="Helvetica,sans-Serif" font-size="10.00">lib/sensors/BH1750</text>
<text text-anchor="middle" x="179.75" y="-130.5" font-family="Helvetica,sans-Serif" font-size="10.00">/BH1750_WRAPPER.h</text>
</a>
</g>
</g>
<!-- Node1&#45;&gt;Node3 -->
<g id="edge2_Node000001_Node000003" class="edge">
<title>Node1&#45;&gt;Node3</title>
<g id="a_edge2_Node000001_Node000003"><a xlink:title=" ">
<path fill="none" stroke="#63b8ff" d="M137.69,-183.71C146.67,-174.59 156.73,-164.37 164.76,-156.22"/>
<polygon fill="#63b8ff" stroke="#63b8ff" points="135.41,-181.03 130.89,-190.61 140.4,-185.95 135.41,-181.03"/>
</a>
</g>
</g>
<!-- Node4 -->
<g id="Node000004" class="node">
<title>Node4</title>
<g id="a_Node000004"><a xlink:href="includes_8h.html" target="_top" xlink:title=" ">
<polygon fill="white" stroke="#666666" points="96.88,-82 36.62,-82 36.62,-62 96.88,-62 96.88,-82"/>
<text text-anchor="middle" x="66.75" y="-68.5" font-family="Helvetica,sans-Serif" font-size="10.00">includes.h</text>
</a>
</g>
</g>
<!-- Node3&#45;&gt;Node4 -->
<g id="edge3_Node000003_Node000004" class="edge">
<title>Node3&#45;&gt;Node4</title>
<g id="a_edge3_Node000003_Node000004"><a xlink:title=" ">
<path fill="none" stroke="#63b8ff" d="M143.34,-117.74C122.99,-105.85 98.64,-91.63 82.95,-82.46"/>
<polygon fill="#63b8ff" stroke="#63b8ff" points="141.55,-120.74 151.95,-122.76 145.08,-114.7 141.55,-120.74"/>
</a>
</g>
</g>
<!-- Node6 -->
<g id="Node000006" class="node">
<title>Node6</title>
<g id="a_Node000006"><a xlink:href="_b_h1750___w_r_a_p_p_e_r_8cpp.html" target="_top" xlink:title=" ">
<polygon fill="white" stroke="#666666" points="244.75,-88 114.75,-88 114.75,-56 244.75,-56 244.75,-88"/>
<text text-anchor="start" x="122.75" y="-74.5" font-family="Helvetica,sans-Serif" font-size="10.00">lib/sensors/BH1750</text>
<text text-anchor="middle" x="179.75" y="-62.5" font-family="Helvetica,sans-Serif" font-size="10.00">/BH1750_WRAPPER.cpp</text>
</a>
</g>
</g>
<!-- Node3&#45;&gt;Node6 -->
<g id="edge5_Node000003_Node000006" class="edge">
<title>Node3&#45;&gt;Node6</title>
<g id="a_edge5_Node000003_Node000006"><a xlink:title=" ">
<path fill="none" stroke="#63b8ff" d="M179.75,-112.31C179.75,-104.12 179.75,-95.38 179.75,-88.22"/>
<polygon fill="#63b8ff" stroke="#63b8ff" points="176.25,-112.18 179.75,-122.18 183.25,-112.18 176.25,-112.18"/>
</a>
</g>
</g>
<!-- Node7 -->
<g id="Node000007" class="node">
<title>Node7</title>
<g id="a_Node000007"><a xlink:href="_i_sensor_8cpp.html" target="_top" xlink:title="Implements the SensorWrapper class for managing different sensor types.">
<polygon fill="white" stroke="#666666" points="381.12,-82 262.38,-82 262.38,-62 381.12,-62 381.12,-82"/>
<text text-anchor="middle" x="321.75" y="-68.5" font-family="Helvetica,sans-Serif" font-size="10.00">lib/sensors/ISensor.cpp</text>
</a>
</g>
</g>
<!-- Node3&#45;&gt;Node7 -->
<g id="edge6_Node000003_Node000007" class="edge">
<title>Node3&#45;&gt;Node7</title>
<g id="a_edge6_Node000003_Node000007"><a xlink:title=" ">
<path fill="none" stroke="#63b8ff" d="M223.41,-118.71C249.39,-106.63 281.13,-91.88 301.4,-82.46"/>
<polygon fill="#63b8ff" stroke="#63b8ff" points="222.01,-115.5 214.42,-122.89 224.96,-121.85 222.01,-115.5"/>
</a>
</g>
</g>
<!-- Node5 -->
<g id="Node000005" class="node">
<title>Node5</title>
<g id="a_Node000005"><a xlink:href="main_8cpp.html" target="_top" xlink:title=" ">
<polygon fill="white" stroke="#666666" points="94.62,-20 38.88,-20 38.88,0 94.62,0 94.62,-20"/>
<text text-anchor="middle" x="66.75" y="-6.5" font-family="Helvetica,sans-Serif" font-size="10.00">main.cpp</text>
</a>
</g>
</g>
<!-- Node4&#45;&gt;Node5 -->
<g id="edge4_Node000004_Node000005" class="edge">
<title>Node4&#45;&gt;Node5</title>
<g id="a_edge4_Node000004_Node000005"><a xlink:title=" ">
<path fill="none" stroke="#63b8ff" d="M66.75,-50.25C66.75,-39.97 66.75,-28.09 66.75,-20.11"/>
<polygon fill="#63b8ff" stroke="#63b8ff" points="63.25,-50.11 66.75,-60.11 70.25,-50.11 63.25,-50.11"/>
</a>
</g>
</g>
</g>
</svg>
