<?xml version="1.0" encoding="UTF-8" standalone="no"?>
<!DOCTYPE svg PUBLIC "-//W3C//DTD SVG 1.1//EN"
 "http://www.w3.org/Graphics/SVG/1.1/DTD/svg11.dtd">
<!-- Generated by graphviz version 12.2.1 (20241206.2353)
 -->
<!-- Title: lib/sensors/BH1750/BH1750_WRAPPER.cpp Pages: 1 -->
<svg width="340pt" height="208pt"
 viewBox="0.00 0.00 340.12 208.00" xmlns="http://www.w3.org/2000/svg" xmlns:xlink="http://www.w3.org/1999/xlink">

<svg id="main" version="1.1" xmlns="http://www.w3.org/2000/svg" xmlns:xlink="http://www.w3.org/1999/xlink" xml:space="preserve">

<style type="text/css"><![CDATA[
.node, .edge {opacity: 0.7;}
.node.selected, .edge.selected {opacity: 1;}
.edge:hover path { stroke: red; }
.edge:hover polygon { stroke: red; fill: red; }
]]></style>
<script type="application/ecmascript" xlink:href="svg.min.js"/>
<svg id="graph" class="graph">
<g id="graph0" class="graph" transform="scale(1 1) rotate(0) translate(4 204)">
<title>lib/sensors/BH1750/BH1750_WRAPPER.cpp</title>
<!-- Node1 -->
<g id="Node000001" class="node">
<title>Node1</title>
<g id="a_Node000001"><a xlink:title=" ">
<polygon fill="#999999" stroke="#666666" points="315.38,-200 185.38,-200 185.38,-168 315.38,-168 315.38,-200"/>
<text text-anchor="start" x="193.38" y="-186.5" font-family="Helvetica,sans-Serif" font-size="10.00">lib/sensors/BH1750</text>
<text text-anchor="middle" x="250.38" y="-174.5" font-family="Helvetica,sans-Serif" font-size="10.00">/BH1750_WRAPPER.cpp</text>
</a>
</g>
</g>
<!-- Node2 -->
<g id="Node000002" class="node">
<title>Node2</title>
<g id="a_Node000002"><a xlink:href="_b_h1750___w_r_a_p_p_e_r_8h.html" target="_top" xlink:title=" ">
<polygon fill="white" stroke="#666666" points="212.62,-132 96.12,-132 96.12,-112 212.62,-112 212.62,-132"/>
<text text-anchor="middle" x="154.38" y="-118.5" font-family="Helvetica,sans-Serif" font-size="10.00">BH1750_WRAPPER.h</text>
</a>
</g>
</g>
<!-- Node1&#45;&gt;Node2 -->
<g id="edge1_Node000001_Node000002" class="edge">
<title>Node1&#45;&gt;Node2</title>
<g id="a_edge1_Node000001_Node000002"><a xlink:title=" ">
<path fill="none" stroke="#63b8ff" d="M225.65,-167.55C211.35,-158.61 193.4,-147.39 179.1,-138.45"/>
<polygon fill="#63b8ff" stroke="#63b8ff" points="181.05,-135.54 170.71,-133.21 177.34,-141.48 181.05,-135.54"/>
</a>
</g>
</g>
<!-- Node7 -->
<g id="Node000007" class="node">
<title>Node7</title>
<g id="a_Node000007"><a xlink:title=" ">
<polygon fill="#e0e0e0" stroke="#999999" points="254.38,-20 214.38,-20 214.38,0 254.38,0 254.38,-20"/>
<text text-anchor="middle" x="234.38" y="-6.5" font-family="Helvetica,sans-Serif" font-size="10.00">string</text>
</a>
</g>
</g>
<!-- Node1&#45;&gt;Node7 -->
<g id="edge11_Node000001_Node000007" class="edge">
<title>Node1&#45;&gt;Node7</title>
<g id="a_edge11_Node000001_Node000007"><a xlink:title=" ">
<path fill="none" stroke="#63b8ff" d="M248.96,-167.74C246.07,-136.69 239.51,-66.18 236.26,-31.31"/>
<polygon fill="#63b8ff" stroke="#63b8ff" points="239.78,-31.35 235.37,-21.72 232.81,-32 239.78,-31.35"/>
</a>
</g>
</g>
<!-- Node9 -->
<g id="Node000009" class="node">
<title>Node9</title>
<g id="a_Node000009"><a xlink:title=" ">
<polygon fill="#e0e0e0" stroke="#999999" points="332.12,-132 278.62,-132 278.62,-112 332.12,-112 332.12,-132"/>
<text text-anchor="middle" x="305.38" y="-118.5" font-family="Helvetica,sans-Serif" font-size="10.00">iostream</text>
</a>
</g>
</g>
<!-- Node1&#45;&gt;Node9 -->
<g id="edge12_Node000001_Node000009" class="edge">
<title>Node1&#45;&gt;Node9</title>
<g id="a_edge12_Node000001_Node000009"><a xlink:title=" ">
<path fill="none" stroke="#63b8ff" d="M264.54,-167.55C272.02,-159.39 281.23,-149.33 289.02,-140.84"/>
<polygon fill="#63b8ff" stroke="#63b8ff" points="291.55,-143.26 295.73,-133.52 286.39,-138.53 291.55,-143.26"/>
</a>
</g>
</g>
<!-- Node3 -->
<g id="Node000003" class="node">
<title>Node3</title>
<g id="a_Node000003"><a xlink:href="_i_sensor_8h.html" target="_top" xlink:title=" ">
<polygon fill="white" stroke="#666666" points="106.38,-76 48.38,-76 48.38,-56 106.38,-56 106.38,-76"/>
<text text-anchor="middle" x="77.38" y="-62.5" font-family="Helvetica,sans-Serif" font-size="10.00">ISensor.h</text>
</a>
</g>
</g>
<!-- Node2&#45;&gt;Node3 -->
<g id="edge2_Node000002_Node000003" class="edge">
<title>Node2&#45;&gt;Node3</title>
<g id="a_edge2_Node000002_Node000003"><a xlink:title=" ">
<path fill="none" stroke="#63b8ff" d="M140.96,-111.59C129.77,-103.74 113.56,-92.38 100.32,-83.09"/>
<polygon fill="#63b8ff" stroke="#63b8ff" points="102.33,-80.22 92.13,-77.35 98.31,-85.96 102.33,-80.22"/>
</a>
</g>
</g>
<!-- Node6 -->
<g id="Node000006" class="node">
<title>Node6</title>
<g id="a_Node000006"><a xlink:title=" ">
<polygon fill="#e0e0e0" stroke="#999999" points="34.75,-20 0,-20 0,0 34.75,0 34.75,-20"/>
<text text-anchor="middle" x="17.38" y="-6.5" font-family="Helvetica,sans-Serif" font-size="10.00">map</text>
</a>
</g>
</g>
<!-- Node2&#45;&gt;Node6 -->
<g id="edge9_Node000002_Node000006" class="edge">
<title>Node2&#45;&gt;Node6</title>
<g id="a_edge9_Node000002_Node000006"><a xlink:title=" ">
<path fill="none" stroke="#63b8ff" d="M104.51,-111.57C81.99,-105.01 56.62,-94.07 39.38,-76 27.8,-63.87 22.3,-45.43 19.7,-31.28"/>
<polygon fill="#63b8ff" stroke="#63b8ff" points="23.21,-31.11 18.29,-21.72 16.28,-32.12 23.21,-31.11"/>
</a>
</g>
</g>
<!-- Node2&#45;&gt;Node7 -->
<g id="edge10_Node000002_Node000007" class="edge">
<title>Node2&#45;&gt;Node7</title>
<g id="a_edge10_Node000002_Node000007"><a xlink:title=" ">
<path fill="none" stroke="#63b8ff" d="M163.18,-111.69C171.38,-102.83 183.76,-88.95 193.38,-76 204.43,-61.1 215.57,-43.21 223.45,-29.97"/>
<polygon fill="#63b8ff" stroke="#63b8ff" points="226.42,-31.82 228.45,-21.42 220.38,-28.28 226.42,-31.82"/>
</a>
</g>
</g>
<!-- Node8 -->
<g id="Node000008" class="node">
<title>Node8</title>
<g id="a_Node000008"><a xlink:href="_b_h1750_8h.html" target="_top" xlink:title=" ">
<polygon fill="white" stroke="#666666" points="184.12,-76 124.62,-76 124.62,-56 184.12,-56 184.12,-76"/>
<text text-anchor="middle" x="154.38" y="-62.5" font-family="Helvetica,sans-Serif" font-size="10.00">BH1750.h</text>
</a>
</g>
</g>
<!-- Node2&#45;&gt;Node8 -->
<g id="edge7_Node000002_Node000008" class="edge">
<title>Node2&#45;&gt;Node8</title>
<g id="a_edge7_Node000002_Node000008"><a xlink:title=" ">
<path fill="none" stroke="#63b8ff" d="M154.38,-111.59C154.38,-105.01 154.38,-95.96 154.38,-87.73"/>
<polygon fill="#63b8ff" stroke="#63b8ff" points="157.88,-87.81 154.38,-77.81 150.88,-87.81 157.88,-87.81"/>
</a>
</g>
</g>
<!-- Node4 -->
<g id="Node000004" class="node">
<title>Node4</title>
<g id="a_Node000004"><a xlink:title=" ">
<polygon fill="#e0e0e0" stroke="#999999" points="98,-20 52.75,-20 52.75,0 98,0 98,-20"/>
<text text-anchor="middle" x="75.38" y="-6.5" font-family="Helvetica,sans-Serif" font-size="10.00">cstdint</text>
</a>
</g>
</g>
<!-- Node3&#45;&gt;Node4 -->
<g id="edge3_Node000003_Node000004" class="edge">
<title>Node3&#45;&gt;Node4</title>
<g id="a_edge3_Node000003_Node000004"><a xlink:title=" ">
<path fill="none" stroke="#63b8ff" d="M77.03,-55.59C76.78,-49.01 76.45,-39.96 76.14,-31.73"/>
<polygon fill="#63b8ff" stroke="#63b8ff" points="79.64,-31.67 75.78,-21.81 72.65,-31.93 79.64,-31.67"/>
</a>
</g>
</g>
<!-- Node5 -->
<g id="Node000005" class="node">
<title>Node5</title>
<g id="a_Node000005"><a xlink:title=" ">
<polygon fill="#e0e0e0" stroke="#999999" points="196.25,-20 116.5,-20 116.5,0 196.25,0 196.25,-20"/>
<text text-anchor="middle" x="156.38" y="-6.5" font-family="Helvetica,sans-Serif" font-size="10.00">hardware/i2c.h</text>
</a>
</g>
</g>
<!-- Node3&#45;&gt;Node5 -->
<g id="edge4_Node000003_Node000005" class="edge">
<title>Node3&#45;&gt;Node5</title>
<g id="a_edge4_Node000003_Node000005"><a xlink:title=" ">
<path fill="none" stroke="#63b8ff" d="M91.14,-55.59C102.73,-47.67 119.57,-36.16 133.24,-26.82"/>
<polygon fill="#63b8ff" stroke="#63b8ff" points="134.98,-29.87 141.26,-21.33 131.03,-24.09 134.98,-29.87"/>
</a>
</g>
</g>
<!-- Node3&#45;&gt;Node6 -->
<g id="edge5_Node000003_Node000006" class="edge">
<title>Node3&#45;&gt;Node6</title>
<g id="a_edge5_Node000003_Node000006"><a xlink:title=" ">
<path fill="none" stroke="#63b8ff" d="M66.92,-55.59C58.41,-47.93 46.16,-36.91 35.98,-27.75"/>
<polygon fill="#63b8ff" stroke="#63b8ff" points="38.61,-25.4 28.83,-21.31 33.92,-30.6 38.61,-25.4"/>
</a>
</g>
</g>
<!-- Node3&#45;&gt;Node7 -->
<g id="edge6_Node000003_Node000007" class="edge">
<title>Node3&#45;&gt;Node7</title>
<g id="a_edge6_Node000003_Node000007"><a xlink:title=" ">
<path fill="none" stroke="#63b8ff" d="M104.72,-55.59C132.33,-46.1 174.9,-31.46 203.66,-21.57"/>
<polygon fill="#63b8ff" stroke="#63b8ff" points="204.56,-24.96 212.88,-18.39 202.29,-18.34 204.56,-24.96"/>
</a>
</g>
</g>
<!-- Node8&#45;&gt;Node5 -->
<g id="edge8_Node000008_Node000005" class="edge">
<title>Node8&#45;&gt;Node5</title>
<g id="a_edge8_Node000008_Node000005"><a xlink:title=" ">
<path fill="none" stroke="#63b8ff" d="M154.72,-55.59C154.97,-49.01 155.3,-39.96 155.61,-31.73"/>
<polygon fill="#63b8ff" stroke="#63b8ff" points="159.1,-31.93 155.97,-21.81 152.11,-31.67 159.1,-31.93"/>
</a>
</g>
</g>
</g>
</svg>
</svg>

<style type='text/css'>
<![CDATA[
[data-mouse-over-selected='false'] { opacity: 0.7; }
[data-mouse-over-selected='true']  { opacity: 1.0; }
]]>
</style>
<script type="application/ecmascript"><![CDATA[
document.addEventListener('DOMContentLoaded', (event) => {
  highlightEdges();
  highlightAdjacentNodes();
});
]]></script>
</svg>
