<?xml version="1.0" encoding="UTF-8" standalone="no"?>
<!DOCTYPE svg PUBLIC "-//W3C//DTD SVG 1.1//EN"
 "http://www.w3.org/Graphics/SVG/1.1/DTD/svg11.dtd">
<!-- Generated by graphviz version 12.2.1 (20241206.2353)
 -->
<!-- Title: lib/sensors/BH1750/BH1750_WRAPPER.h Pages: 1 -->
<svg width="262pt" height="152pt"
 viewBox="0.00 0.00 261.88 152.00" xmlns="http://www.w3.org/2000/svg" xmlns:xlink="http://www.w3.org/1999/xlink">

<svg id="main" version="1.1" xmlns="http://www.w3.org/2000/svg" xmlns:xlink="http://www.w3.org/1999/xlink" xml:space="preserve">

<style type="text/css"><![CDATA[
.node, .edge {opacity: 0.7;}
.node.selected, .edge.selected {opacity: 1;}
.edge:hover path { stroke: red; }
.edge:hover polygon { stroke: red; fill: red; }
]]></style>
<script type="application/ecmascript" xlink:href="svg.min.js"/>
<svg id="graph" class="graph">
<g id="graph0" class="graph" transform="scale(1 1) rotate(0) translate(4 148)">
<title>lib/sensors/BH1750/BH1750_WRAPPER.h</title>
<!-- Node1 -->
<g id="Node000001" class="node">
<title>Node1</title>
<g id="a_Node000001"><a xlink:title=" ">
<polygon fill="#999999" stroke="#666666" points="209.62,-144 90.12,-144 90.12,-112 209.62,-112 209.62,-144"/>
<text text-anchor="start" x="98.12" y="-130.5" font-family="Helvetica,sans-Serif" font-size="10.00">lib/sensors/BH1750</text>
<text text-anchor="middle" x="149.88" y="-118.5" font-family="Helvetica,sans-Serif" font-size="10.00">/BH1750_WRAPPER.h</text>
</a>
</g>
</g>
<!-- Node2 -->
<g id="Node000002" class="node">
<title>Node2</title>
<g id="a_Node000002"><a xlink:href="_i_sensor_8h.html" target="_top" xlink:title=" ">
<polygon fill="white" stroke="#666666" points="150.88,-76 92.88,-76 92.88,-56 150.88,-56 150.88,-76"/>
<text text-anchor="middle" x="121.88" y="-62.5" font-family="Helvetica,sans-Serif" font-size="10.00">ISensor.h</text>
</a>
</g>
</g>
<!-- Node1&#45;&gt;Node2 -->
<g id="edge1_Node000001_Node000002" class="edge">
<title>Node1&#45;&gt;Node2</title>
<g id="a_edge1_Node000001_Node000002"><a xlink:title=" ">
<path fill="none" stroke="#63b8ff" d="M142.66,-111.55C139.14,-104 134.86,-94.82 131.1,-86.77"/>
<polygon fill="#63b8ff" stroke="#63b8ff" points="134.31,-85.36 126.91,-77.78 127.96,-88.32 134.31,-85.36"/>
</a>
</g>
</g>
<!-- Node5 -->
<g id="Node000005" class="node">
<title>Node5</title>
<g id="a_Node000005"><a xlink:title=" ">
<polygon fill="#e0e0e0" stroke="#999999" points="196.25,-20 161.5,-20 161.5,0 196.25,0 196.25,-20"/>
<text text-anchor="middle" x="178.88" y="-6.5" font-family="Helvetica,sans-Serif" font-size="10.00">map</text>
</a>
</g>
</g>
<!-- Node1&#45;&gt;Node5 -->
<g id="edge8_Node000001_Node000005" class="edge">
<title>Node1&#45;&gt;Node5</title>
<g id="a_edge8_Node000001_Node000005"><a xlink:title=" ">
<path fill="none" stroke="#63b8ff" d="M153.67,-111.84C158.82,-91.22 168.05,-54.29 173.8,-31.31"/>
<polygon fill="#63b8ff" stroke="#63b8ff" points="177.12,-32.46 176.15,-21.91 170.33,-30.76 177.12,-32.46"/>
</a>
</g>
</g>
<!-- Node6 -->
<g id="Node000006" class="node">
<title>Node6</title>
<g id="a_Node000006"><a xlink:title=" ">
<polygon fill="#e0e0e0" stroke="#999999" points="253.88,-20 213.88,-20 213.88,0 253.88,0 253.88,-20"/>
<text text-anchor="middle" x="233.88" y="-6.5" font-family="Helvetica,sans-Serif" font-size="10.00">string</text>
</a>
</g>
</g>
<!-- Node1&#45;&gt;Node6 -->
<g id="edge9_Node000001_Node000006" class="edge">
<title>Node1&#45;&gt;Node6</title>
<g id="a_edge9_Node000001_Node000006"><a xlink:title=" ">
<path fill="none" stroke="#63b8ff" d="M160.86,-111.84C176.13,-90.75 203.76,-52.58 220.3,-29.74"/>
<polygon fill="#63b8ff" stroke="#63b8ff" points="223.12,-31.82 226.15,-21.66 217.45,-27.71 223.12,-31.82"/>
</a>
</g>
</g>
<!-- Node7 -->
<g id="Node000007" class="node">
<title>Node7</title>
<g id="a_Node000007"><a xlink:href="_b_h1750_8h.html" target="_top" xlink:title=" ">
<polygon fill="white" stroke="#666666" points="72.62,-76 13.12,-76 13.12,-56 72.62,-56 72.62,-76"/>
<text text-anchor="middle" x="42.88" y="-62.5" font-family="Helvetica,sans-Serif" font-size="10.00">BH1750.h</text>
</a>
</g>
</g>
<!-- Node1&#45;&gt;Node7 -->
<g id="edge6_Node000001_Node000007" class="edge">
<title>Node1&#45;&gt;Node7</title>
<g id="a_edge6_Node000001_Node000007"><a xlink:title=" ">
<path fill="none" stroke="#63b8ff" d="M122.32,-111.55C106.07,-102.43 85.6,-90.96 69.51,-81.93"/>
<polygon fill="#63b8ff" stroke="#63b8ff" points="71.41,-78.99 60.97,-77.15 67.98,-85.09 71.41,-78.99"/>
</a>
</g>
</g>
<!-- Node3 -->
<g id="Node000003" class="node">
<title>Node3</title>
<g id="a_Node000003"><a xlink:title=" ">
<polygon fill="#e0e0e0" stroke="#999999" points="143.5,-20 98.25,-20 98.25,0 143.5,0 143.5,-20"/>
<text text-anchor="middle" x="120.88" y="-6.5" font-family="Helvetica,sans-Serif" font-size="10.00">cstdint</text>
</a>
</g>
</g>
<!-- Node2&#45;&gt;Node3 -->
<g id="edge2_Node000002_Node000003" class="edge">
<title>Node2&#45;&gt;Node3</title>
<g id="a_edge2_Node000002_Node000003"><a xlink:title=" ">
<path fill="none" stroke="#63b8ff" d="M121.7,-55.59C121.58,-49.01 121.41,-39.96 121.26,-31.73"/>
<polygon fill="#63b8ff" stroke="#63b8ff" points="124.76,-31.75 121.08,-21.81 117.76,-31.87 124.76,-31.75"/>
</a>
</g>
</g>
<!-- Node4 -->
<g id="Node000004" class="node">
<title>Node4</title>
<g id="a_Node000004"><a xlink:title=" ">
<polygon fill="#e0e0e0" stroke="#999999" points="79.75,-20 0,-20 0,0 79.75,0 79.75,-20"/>
<text text-anchor="middle" x="39.88" y="-6.5" font-family="Helvetica,sans-Serif" font-size="10.00">hardware/i2c.h</text>
</a>
</g>
</g>
<!-- Node2&#45;&gt;Node4 -->
<g id="edge3_Node000002_Node000004" class="edge">
<title>Node2&#45;&gt;Node4</title>
<g id="a_edge3_Node000002_Node000004"><a xlink:title=" ">
<path fill="none" stroke="#63b8ff" d="M107.59,-55.59C95.44,-47.59 77.74,-35.93 63.48,-26.54"/>
<polygon fill="#63b8ff" stroke="#63b8ff" points="65.81,-23.89 55.53,-21.31 61.96,-29.73 65.81,-23.89"/>
</a>
</g>
</g>
<!-- Node2&#45;&gt;Node5 -->
<g id="edge4_Node000002_Node000005" class="edge">
<title>Node2&#45;&gt;Node5</title>
<g id="a_edge4_Node000002_Node000005"><a xlink:title=" ">
<path fill="none" stroke="#63b8ff" d="M131.8,-55.59C139.81,-48.01 151.29,-37.13 160.91,-28.02"/>
<polygon fill="#63b8ff" stroke="#63b8ff" points="163.11,-30.76 167.96,-21.34 158.29,-25.68 163.11,-30.76"/>
</a>
</g>
</g>
<!-- Node2&#45;&gt;Node6 -->
<g id="edge5_Node000002_Node000006" class="edge">
<title>Node2&#45;&gt;Node6</title>
<g id="a_edge5_Node000002_Node000006"><a xlink:title=" ">
<path fill="none" stroke="#63b8ff" d="M141.38,-55.59C158.62,-47.28 184.03,-35.03 203.86,-25.47"/>
<polygon fill="#63b8ff" stroke="#63b8ff" points="205.36,-28.63 212.85,-21.14 202.32,-22.33 205.36,-28.63"/>
</a>
</g>
</g>
<!-- Node7&#45;&gt;Node4 -->
<g id="edge7_Node000007_Node000004" class="edge">
<title>Node7&#45;&gt;Node4</title>
<g id="a_edge7_Node000007_Node000004"><a xlink:title=" ">
<path fill="none" stroke="#63b8ff" d="M42.35,-55.59C41.99,-49.01 41.48,-39.96 41.03,-31.73"/>
<polygon fill="#63b8ff" stroke="#63b8ff" points="44.52,-31.6 40.48,-21.81 37.54,-31.99 44.52,-31.6"/>
</a>
</g>
</g>
</g>
</svg>
</svg>

<style type='text/css'>
<![CDATA[
[data-mouse-over-selected='false'] { opacity: 0.7; }
[data-mouse-over-selected='true']  { opacity: 1.0; }
]]>
</style>
<script type="application/ecmascript"><![CDATA[
document.addEventListener('DOMContentLoaded', (event) => {
  highlightEdges();
  highlightAdjacentNodes();
});
]]></script>
</svg>
