<?xml version="1.0" encoding="UTF-8" standalone="no"?>
<!DOCTYPE svg PUBLIC "-//W3C//DTD SVG 1.1//EN"
 "http://www.w3.org/Graphics/SVG/1.1/DTD/svg11.dtd">
<!-- Generated by graphviz version 12.2.1 (20241206.2353)
 -->
<!-- Title: lib/sensors/BME280/BME280.h Pages: 1 -->
<svg width="394pt" height="232pt"
 viewBox="0.00 0.00 394.25 232.00" xmlns="http://www.w3.org/2000/svg" xmlns:xlink="http://www.w3.org/1999/xlink">
<g id="graph0" class="graph" transform="scale(1 1) rotate(0) translate(4 228)">
<title>lib/sensors/BME280/BME280.h</title>
<!-- Node1 -->
<g id="Node000001" class="node">
<title>Node1</title>
<g id="a_Node000001"><a xlink:title=" ">
<polygon fill="#999999" stroke="#666666" points="168.75,-224 65,-224 65,-192 168.75,-192 168.75,-224"/>
<text text-anchor="start" x="73" y="-210.5" font-family="Helvetica,sans-Serif" font-size="10.00">lib/sensors/BME280</text>
<text text-anchor="middle" x="116.88" y="-198.5" font-family="Helvetica,sans-Serif" font-size="10.00">/BME280.h</text>
</a>
</g>
</g>
<!-- Node2 -->
<g id="Node000002" class="node">
<title>Node2</title>
<g id="a_Node000002"><a xlink:href="_b_m_e280_8cpp.html" target="_top" xlink:title=" ">
<polygon fill="white" stroke="#666666" points="103.75,-156 0,-156 0,-124 103.75,-124 103.75,-156"/>
<text text-anchor="start" x="8" y="-142.5" font-family="Helvetica,sans-Serif" font-size="10.00">lib/sensors/BME280</text>
<text text-anchor="middle" x="51.88" y="-130.5" font-family="Helvetica,sans-Serif" font-size="10.00">/BME280.cpp</text>
</a>
</g>
</g>
<!-- Node1&#45;&gt;Node2 -->
<g id="edge1_Node000001_Node000002" class="edge">
<title>Node1&#45;&gt;Node2</title>
<g id="a_edge1_Node000001_Node000002"><a xlink:title=" ">
<path fill="none" stroke="#63b8ff" d="M93.94,-183.71C84.95,-174.59 74.89,-164.37 66.87,-156.22"/>
<polygon fill="#63b8ff" stroke="#63b8ff" points="91.23,-185.95 100.74,-190.61 96.21,-181.03 91.23,-185.95"/>
</a>
</g>
</g>
<!-- Node3 -->
<g id="Node000003" class="node">
<title>Node3</title>
<g id="a_Node000003"><a xlink:href="_b_m_e280___w_r_a_p_p_e_r_8h.html" target="_top" xlink:title=" ">
<polygon fill="white" stroke="#666666" points="243.75,-156 122,-156 122,-124 243.75,-124 243.75,-156"/>
<text text-anchor="start" x="130" y="-142.5" font-family="Helvetica,sans-Serif" font-size="10.00">lib/sensors/BME280</text>
<text text-anchor="middle" x="182.88" y="-130.5" font-family="Helvetica,sans-Serif" font-size="10.00">/BME280_WRAPPER.h</text>
</a>
</g>
</g>
<!-- Node1&#45;&gt;Node3 -->
<g id="edge2_Node000001_Node000003" class="edge">
<title>Node1&#45;&gt;Node3</title>
<g id="a_edge2_Node000001_Node000003"><a xlink:title=" ">
<path fill="none" stroke="#63b8ff" d="M140.17,-183.71C149.29,-174.59 159.5,-164.37 167.65,-156.22"/>
<polygon fill="#63b8ff" stroke="#63b8ff" points="137.85,-181.08 133.25,-190.62 142.8,-186.03 137.85,-181.08"/>
</a>
</g>
</g>
<!-- Node4 -->
<g id="Node000004" class="node">
<title>Node4</title>
<g id="a_Node000004"><a xlink:href="includes_8h.html" target="_top" xlink:title=" ">
<polygon fill="white" stroke="#666666" points="99,-82 38.75,-82 38.75,-62 99,-62 99,-82"/>
<text text-anchor="middle" x="68.88" y="-68.5" font-family="Helvetica,sans-Serif" font-size="10.00">includes.h</text>
</a>
</g>
</g>
<!-- Node3&#45;&gt;Node4 -->
<g id="edge3_Node000003_Node000004" class="edge">
<title>Node3&#45;&gt;Node4</title>
<g id="a_edge3_Node000003_Node000004"><a xlink:title=" ">
<path fill="none" stroke="#63b8ff" d="M146.43,-117.9C125.84,-105.98 101.12,-91.67 85.22,-82.46"/>
<polygon fill="#63b8ff" stroke="#63b8ff" points="144.43,-120.79 154.84,-122.77 147.94,-114.73 144.43,-120.79"/>
</a>
</g>
</g>
<!-- Node6 -->
<g id="Node000006" class="node">
<title>Node6</title>
<g id="a_Node000006"><a xlink:href="_b_m_e280___w_r_a_p_p_e_r_8cpp.html" target="_top" xlink:title=" ">
<polygon fill="white" stroke="#666666" points="249,-88 116.75,-88 116.75,-56 249,-56 249,-88"/>
<text text-anchor="start" x="124.75" y="-74.5" font-family="Helvetica,sans-Serif" font-size="10.00">lib/sensors/BME280</text>
<text text-anchor="middle" x="182.88" y="-62.5" font-family="Helvetica,sans-Serif" font-size="10.00">/BME280_WRAPPER.cpp</text>
</a>
</g>
</g>
<!-- Node3&#45;&gt;Node6 -->
<g id="edge5_Node000003_Node000006" class="edge">
<title>Node3&#45;&gt;Node6</title>
<g id="a_edge5_Node000003_Node000006"><a xlink:title=" ">
<path fill="none" stroke="#63b8ff" d="M182.88,-112.31C182.88,-104.12 182.88,-95.38 182.88,-88.22"/>
<polygon fill="#63b8ff" stroke="#63b8ff" points="179.38,-112.18 182.88,-122.18 186.38,-112.18 179.38,-112.18"/>
</a>
</g>
</g>
<!-- Node7 -->
<g id="Node000007" class="node">
<title>Node7</title>
<g id="a_Node000007"><a xlink:href="_i_sensor_8cpp.html" target="_top" xlink:title="Implements the SensorWrapper class for managing different sensor types.">
<polygon fill="white" stroke="#666666" points="386.25,-82 267.5,-82 267.5,-62 386.25,-62 386.25,-82"/>
<text text-anchor="middle" x="326.88" y="-68.5" font-family="Helvetica,sans-Serif" font-size="10.00">lib/sensors/ISensor.cpp</text>
</a>
</g>
</g>
<!-- Node3&#45;&gt;Node7 -->
<g id="edge6_Node000003_Node000007" class="edge">
<title>Node3&#45;&gt;Node7</title>
<g id="a_edge6_Node000003_Node000007"><a xlink:title=" ">
<path fill="none" stroke="#63b8ff" d="M226.8,-118.87C253.21,-106.76 285.59,-91.92 306.23,-82.46"/>
<polygon fill="#63b8ff" stroke="#63b8ff" points="225.64,-115.55 218.01,-122.9 228.56,-121.91 225.64,-115.55"/>
</a>
</g>
</g>
<!-- Node5 -->
<g id="Node000005" class="node">
<title>Node5</title>
<g id="a_Node000005"><a xlink:href="main_8cpp.html" target="_top" xlink:title=" ">
<polygon fill="white" stroke="#666666" points="96.75,-20 41,-20 41,0 96.75,0 96.75,-20"/>
<text text-anchor="middle" x="68.88" y="-6.5" font-family="Helvetica,sans-Serif" font-size="10.00">main.cpp</text>
</a>
</g>
</g>
<!-- Node4&#45;&gt;Node5 -->
<g id="edge4_Node000004_Node000005" class="edge">
<title>Node4&#45;&gt;Node5</title>
<g id="a_edge4_Node000004_Node000005"><a xlink:title=" ">
<path fill="none" stroke="#63b8ff" d="M68.88,-50.25C68.88,-39.97 68.88,-28.09 68.88,-20.11"/>
<polygon fill="#63b8ff" stroke="#63b8ff" points="65.38,-50.11 68.88,-60.11 72.38,-50.11 65.38,-50.11"/>
</a>
</g>
</g>
</g>
</svg>
