<?xml version="1.0" encoding="UTF-8" standalone="no"?>
<!DOCTYPE svg PUBLIC "-//W3C//DTD SVG 1.1//EN"
 "http://www.w3.org/Graphics/SVG/1.1/DTD/svg11.dtd">
<!-- Generated by graphviz version 12.2.1 (20241206.2353)
 -->
<!-- Title: lib/sensors/BME280/BME280.cpp Pages: 1 -->
<svg width="585pt" height="152pt"
 viewBox="0.00 0.00 584.88 152.00" xmlns="http://www.w3.org/2000/svg" xmlns:xlink="http://www.w3.org/1999/xlink">
<g id="graph0" class="graph" transform="scale(1 1) rotate(0) translate(4 148)">
<title>lib/sensors/BME280/BME280.cpp</title>
<!-- Node1 -->
<g id="Node000001" class="node">
<title>Node1</title>
<g id="a_Node000001"><a xlink:title=" ">
<polygon fill="#999999" stroke="#666666" points="336.5,-144 232.75,-144 232.75,-112 336.5,-112 336.5,-144"/>
<text text-anchor="start" x="240.75" y="-130.5" font-family="Helvetica,sans-Serif" font-size="10.00">lib/sensors/BME280</text>
<text text-anchor="middle" x="284.62" y="-118.5" font-family="Helvetica,sans-Serif" font-size="10.00">/BME280.cpp</text>
</a>
</g>
</g>
<!-- Node2 -->
<g id="Node000002" class="node">
<title>Node2</title>
<g id="a_Node000002"><a xlink:href="_b_m_e280_8h.html" target="_top" xlink:title=" ">
<polygon fill="white" stroke="#666666" points="133.5,-76 71.75,-76 71.75,-56 133.5,-56 133.5,-76"/>
<text text-anchor="middle" x="102.62" y="-62.5" font-family="Helvetica,sans-Serif" font-size="10.00">BME280.h</text>
</a>
</g>
</g>
<!-- Node1&#45;&gt;Node2 -->
<g id="edge1_Node000001_Node000002" class="edge">
<title>Node1&#45;&gt;Node2</title>
<g id="a_edge1_Node000001_Node000002"><a xlink:title=" ">
<path fill="none" stroke="#63b8ff" d="M237.76,-111.55C208.09,-101.77 170.18,-89.27 142.07,-80"/>
<polygon fill="#63b8ff" stroke="#63b8ff" points="143.46,-76.78 132.87,-76.97 141.27,-83.43 143.46,-76.78"/>
</a>
</g>
</g>
<!-- Node5 -->
<g id="Node000005" class="node">
<title>Node5</title>
<g id="a_Node000005"><a xlink:title=" ">
<polygon fill="#e0e0e0" stroke="#999999" points="214.5,-20 134.75,-20 134.75,0 214.5,0 214.5,-20"/>
<text text-anchor="middle" x="174.62" y="-6.5" font-family="Helvetica,sans-Serif" font-size="10.00">hardware/i2c.h</text>
</a>
</g>
</g>
<!-- Node1&#45;&gt;Node5 -->
<g id="edge8_Node000001_Node000005" class="edge">
<title>Node1&#45;&gt;Node5</title>
<g id="a_edge8_Node000001_Node000005"><a xlink:title=" ">
<path fill="none" stroke="#63b8ff" d="M235.06,-111.6C217.24,-103.68 198.6,-92.19 186.62,-76 177.22,-63.28 174.47,-45.42 173.92,-31.64"/>
<polygon fill="#63b8ff" stroke="#63b8ff" points="177.42,-31.91 173.92,-21.91 170.42,-31.91 177.42,-31.91"/>
</a>
</g>
</g>
<!-- Node6 -->
<g id="Node000006" class="node">
<title>Node6</title>
<g id="a_Node000006"><a xlink:title=" ">
<polygon fill="#e0e0e0" stroke="#999999" points="245.5,-76 195.75,-76 195.75,-56 245.5,-56 245.5,-76"/>
<text text-anchor="middle" x="220.62" y="-62.5" font-family="Helvetica,sans-Serif" font-size="10.00">iomanip</text>
</a>
</g>
</g>
<!-- Node1&#45;&gt;Node6 -->
<g id="edge5_Node000001_Node000006" class="edge">
<title>Node1&#45;&gt;Node6</title>
<g id="a_edge5_Node000001_Node000006"><a xlink:title=" ">
<path fill="none" stroke="#63b8ff" d="M268.14,-111.55C259.16,-103.13 248.03,-92.69 238.8,-84.04"/>
<polygon fill="#63b8ff" stroke="#63b8ff" points="241.45,-81.73 231.76,-77.44 236.67,-86.84 241.45,-81.73"/>
</a>
</g>
</g>
<!-- Node7 -->
<g id="Node000007" class="node">
<title>Node7</title>
<g id="a_Node000007"><a xlink:title=" ">
<polygon fill="#e0e0e0" stroke="#999999" points="306.12,-76 263.12,-76 263.12,-56 306.12,-56 306.12,-76"/>
<text text-anchor="middle" x="284.62" y="-62.5" font-family="Helvetica,sans-Serif" font-size="10.00">vector</text>
</a>
</g>
</g>
<!-- Node1&#45;&gt;Node7 -->
<g id="edge6_Node000001_Node000007" class="edge">
<title>Node1&#45;&gt;Node7</title>
<g id="a_edge6_Node000001_Node000007"><a xlink:title=" ">
<path fill="none" stroke="#63b8ff" d="M284.62,-111.55C284.62,-104.34 284.62,-95.66 284.62,-87.88"/>
<polygon fill="#63b8ff" stroke="#63b8ff" points="288.13,-87.92 284.63,-77.92 281.13,-87.92 288.13,-87.92"/>
</a>
</g>
</g>
<!-- Node8 -->
<g id="Node000008" class="node">
<title>Node8</title>
<g id="a_Node000008"><a xlink:title=" ">
<polygon fill="#e0e0e0" stroke="#999999" points="379.5,-76 323.75,-76 323.75,-56 379.5,-56 379.5,-76"/>
<text text-anchor="middle" x="351.62" y="-62.5" font-family="Helvetica,sans-Serif" font-size="10.00">algorithm</text>
</a>
</g>
</g>
<!-- Node1&#45;&gt;Node8 -->
<g id="edge7_Node000001_Node000008" class="edge">
<title>Node1&#45;&gt;Node8</title>
<g id="a_edge7_Node000001_Node000008"><a xlink:title=" ">
<path fill="none" stroke="#63b8ff" d="M301.88,-111.55C311.28,-103.13 322.94,-92.69 332.6,-84.04"/>
<polygon fill="#63b8ff" stroke="#63b8ff" points="334.88,-86.7 339.99,-77.42 330.21,-81.48 334.88,-86.7"/>
</a>
</g>
</g>
<!-- Node9 -->
<g id="Node000009" class="node">
<title>Node9</title>
<g id="a_Node000009"><a xlink:title=" ">
<polygon fill="#e0e0e0" stroke="#999999" points="489.88,-76 397.38,-76 397.38,-56 489.88,-56 489.88,-76"/>
<text text-anchor="middle" x="443.62" y="-62.5" font-family="Helvetica,sans-Serif" font-size="10.00">pico/binary_info.h</text>
</a>
</g>
</g>
<!-- Node1&#45;&gt;Node9 -->
<g id="edge9_Node000001_Node000009" class="edge">
<title>Node1&#45;&gt;Node9</title>
<g id="a_edge9_Node000001_Node000009"><a xlink:title=" ">
<path fill="none" stroke="#63b8ff" d="M325.57,-111.55C351.11,-101.91 383.64,-89.64 408.09,-80.41"/>
<polygon fill="#63b8ff" stroke="#63b8ff" points="409.16,-83.75 417.28,-76.94 406.69,-77.2 409.16,-83.75"/>
</a>
</g>
</g>
<!-- Node10 -->
<g id="Node000010" class="node">
<title>Node10</title>
<g id="a_Node000010"><a xlink:title=" ">
<polygon fill="#e0e0e0" stroke="#999999" points="576.88,-76 508.38,-76 508.38,-56 576.88,-56 576.88,-76"/>
<text text-anchor="middle" x="542.62" y="-62.5" font-family="Helvetica,sans-Serif" font-size="10.00">pico/stdlib.h</text>
</a>
</g>
</g>
<!-- Node1&#45;&gt;Node10 -->
<g id="edge10_Node000001_Node000010" class="edge">
<title>Node1&#45;&gt;Node10</title>
<g id="a_edge10_Node000001_Node000010"><a xlink:title=" ">
<path fill="none" stroke="#63b8ff" d="M336.84,-114.86C383.84,-103.93 452.22,-88.02 497.06,-77.6"/>
<polygon fill="#63b8ff" stroke="#63b8ff" points="497.78,-81.02 506.73,-75.35 496.19,-74.2 497.78,-81.02"/>
</a>
</g>
</g>
<!-- Node3 -->
<g id="Node000003" class="node">
<title>Node3</title>
<g id="a_Node000003"><a xlink:title=" ">
<polygon fill="#e0e0e0" stroke="#999999" points="45.25,-20 0,-20 0,0 45.25,0 45.25,-20"/>
<text text-anchor="middle" x="22.62" y="-6.5" font-family="Helvetica,sans-Serif" font-size="10.00">cstdint</text>
</a>
</g>
</g>
<!-- Node2&#45;&gt;Node3 -->
<g id="edge2_Node000002_Node000003" class="edge">
<title>Node2&#45;&gt;Node3</title>
<g id="a_edge2_Node000002_Node000003"><a xlink:title=" ">
<path fill="none" stroke="#63b8ff" d="M88.69,-55.59C76.95,-47.67 59.89,-36.16 46.06,-26.82"/>
<polygon fill="#63b8ff" stroke="#63b8ff" points="48.17,-24.02 37.92,-21.33 44.25,-29.82 48.17,-24.02"/>
</a>
</g>
</g>
<!-- Node4 -->
<g id="Node000004" class="node">
<title>Node4</title>
<g id="a_Node000004"><a xlink:title=" ">
<polygon fill="#e0e0e0" stroke="#999999" points="116.38,-20 62.88,-20 62.88,0 116.38,0 116.38,-20"/>
<text text-anchor="middle" x="89.62" y="-6.5" font-family="Helvetica,sans-Serif" font-size="10.00">iostream</text>
</a>
</g>
</g>
<!-- Node2&#45;&gt;Node4 -->
<g id="edge3_Node000002_Node000004" class="edge">
<title>Node2&#45;&gt;Node4</title>
<g id="a_edge3_Node000002_Node000004"><a xlink:title=" ">
<path fill="none" stroke="#63b8ff" d="M100.36,-55.59C98.76,-48.93 96.55,-39.75 94.55,-31.44"/>
<polygon fill="#63b8ff" stroke="#63b8ff" points="97.96,-30.67 92.22,-21.77 91.16,-32.31 97.96,-30.67"/>
</a>
</g>
</g>
<!-- Node2&#45;&gt;Node5 -->
<g id="edge4_Node000002_Node000005" class="edge">
<title>Node2&#45;&gt;Node5</title>
<g id="a_edge4_Node000002_Node000005"><a xlink:title=" ">
<path fill="none" stroke="#63b8ff" d="M115.17,-55.59C125.59,-47.77 140.67,-36.46 153.04,-27.19"/>
<polygon fill="#63b8ff" stroke="#63b8ff" points="155.12,-30.01 161.02,-21.21 150.92,-24.41 155.12,-30.01"/>
</a>
</g>
</g>
</g>
</svg>
