<?xml version="1.0" encoding="UTF-8" standalone="no"?>
<!DOCTYPE svg PUBLIC "-//W3C//DTD SVG 1.1//EN"
 "http://www.w3.org/Graphics/SVG/1.1/DTD/svg11.dtd">
<!-- Generated by graphviz version 12.2.1 (20241206.2353)
 -->
<!-- Title: lib/sensors/BME280/BME280_WRAPPER.cpp Pages: 1 -->
<svg width="334pt" height="208pt"
 viewBox="0.00 0.00 334.12 208.00" xmlns="http://www.w3.org/2000/svg" xmlns:xlink="http://www.w3.org/1999/xlink">
<g id="graph0" class="graph" transform="scale(1 1) rotate(0) translate(4 204)">
<title>lib/sensors/BME280/BME280_WRAPPER.cpp</title>
<!-- Node1 -->
<g id="Node000001" class="node">
<title>Node1</title>
<g id="a_Node000001"><a xlink:title=" ">
<polygon fill="#999999" stroke="#666666" points="218.88,-200 86.62,-200 86.62,-168 218.88,-168 218.88,-200"/>
<text text-anchor="start" x="94.62" y="-186.5" font-family="Helvetica,sans-Serif" font-size="10.00">lib/sensors/BME280</text>
<text text-anchor="middle" x="152.75" y="-174.5" font-family="Helvetica,sans-Serif" font-size="10.00">/BME280_WRAPPER.cpp</text>
</a>
</g>
</g>
<!-- Node2 -->
<g id="Node000002" class="node">
<title>Node2</title>
<g id="a_Node000002"><a xlink:href="_b_m_e280___w_r_a_p_p_e_r_8h.html" target="_top" xlink:title=" ">
<polygon fill="white" stroke="#666666" points="212.12,-132 93.38,-132 93.38,-112 212.12,-112 212.12,-132"/>
<text text-anchor="middle" x="152.75" y="-118.5" font-family="Helvetica,sans-Serif" font-size="10.00">BME280_WRAPPER.h</text>
</a>
</g>
</g>
<!-- Node1&#45;&gt;Node2 -->
<g id="edge1_Node000001_Node000002" class="edge">
<title>Node1&#45;&gt;Node2</title>
<g id="a_edge1_Node000001_Node000002"><a xlink:title=" ">
<path fill="none" stroke="#63b8ff" d="M152.75,-167.55C152.75,-160.34 152.75,-151.66 152.75,-143.88"/>
<polygon fill="#63b8ff" stroke="#63b8ff" points="156.25,-143.92 152.75,-133.92 149.25,-143.92 156.25,-143.92"/>
</a>
</g>
</g>
<!-- Node3 -->
<g id="Node000003" class="node">
<title>Node3</title>
<g id="a_Node000003"><a xlink:href="_i_sensor_8h.html" target="_top" xlink:title=" ">
<polygon fill="white" stroke="#666666" points="221.75,-76 163.75,-76 163.75,-56 221.75,-56 221.75,-76"/>
<text text-anchor="middle" x="192.75" y="-62.5" font-family="Helvetica,sans-Serif" font-size="10.00">ISensor.h</text>
</a>
</g>
</g>
<!-- Node2&#45;&gt;Node3 -->
<g id="edge2_Node000002_Node000003" class="edge">
<title>Node2&#45;&gt;Node3</title>
<g id="a_edge2_Node000002_Node000003"><a xlink:title=" ">
<path fill="none" stroke="#63b8ff" d="M159.72,-111.59C165.05,-104.39 172.58,-94.23 179.1,-85.43"/>
<polygon fill="#63b8ff" stroke="#63b8ff" points="181.82,-87.63 184.96,-77.51 176.2,-83.47 181.82,-87.63"/>
</a>
</g>
</g>
<!-- Node8 -->
<g id="Node000008" class="node">
<title>Node8</title>
<g id="a_Node000008"><a xlink:href="_b_m_e280_8h.html" target="_top" xlink:title=" ">
<polygon fill="white" stroke="#666666" points="144.62,-76 82.88,-76 82.88,-56 144.62,-56 144.62,-76"/>
<text text-anchor="middle" x="113.75" y="-62.5" font-family="Helvetica,sans-Serif" font-size="10.00">BME280.h</text>
</a>
</g>
</g>
<!-- Node2&#45;&gt;Node8 -->
<g id="edge7_Node000002_Node000008" class="edge">
<title>Node2&#45;&gt;Node8</title>
<g id="a_edge7_Node000002_Node000008"><a xlink:title=" ">
<path fill="none" stroke="#63b8ff" d="M145.96,-111.59C140.76,-104.39 133.42,-94.23 127.06,-85.43"/>
<polygon fill="#63b8ff" stroke="#63b8ff" points="130.04,-83.58 121.35,-77.53 124.37,-87.68 130.04,-83.58"/>
</a>
</g>
</g>
<!-- Node4 -->
<g id="Node000004" class="node">
<title>Node4</title>
<g id="a_Node000004"><a xlink:title=" ">
<polygon fill="#e0e0e0" stroke="#999999" points="215.38,-20 170.12,-20 170.12,0 215.38,0 215.38,-20"/>
<text text-anchor="middle" x="192.75" y="-6.5" font-family="Helvetica,sans-Serif" font-size="10.00">cstdint</text>
</a>
</g>
</g>
<!-- Node3&#45;&gt;Node4 -->
<g id="edge3_Node000003_Node000004" class="edge">
<title>Node3&#45;&gt;Node4</title>
<g id="a_edge3_Node000003_Node000004"><a xlink:title=" ">
<path fill="none" stroke="#63b8ff" d="M192.75,-55.59C192.75,-49.01 192.75,-39.96 192.75,-31.73"/>
<polygon fill="#63b8ff" stroke="#63b8ff" points="196.25,-31.81 192.75,-21.81 189.25,-31.81 196.25,-31.81"/>
</a>
</g>
</g>
<!-- Node5 -->
<g id="Node000005" class="node">
<title>Node5</title>
<g id="a_Node000005"><a xlink:title=" ">
<polygon fill="#e0e0e0" stroke="#999999" points="151.62,-20 71.88,-20 71.88,0 151.62,0 151.62,-20"/>
<text text-anchor="middle" x="111.75" y="-6.5" font-family="Helvetica,sans-Serif" font-size="10.00">hardware/i2c.h</text>
</a>
</g>
</g>
<!-- Node3&#45;&gt;Node5 -->
<g id="edge4_Node000003_Node000005" class="edge">
<title>Node3&#45;&gt;Node5</title>
<g id="a_edge4_Node000003_Node000005"><a xlink:title=" ">
<path fill="none" stroke="#63b8ff" d="M178.64,-55.59C166.75,-47.67 149.48,-36.16 135.47,-26.82"/>
<polygon fill="#63b8ff" stroke="#63b8ff" points="137.49,-23.95 127.23,-21.32 133.61,-29.78 137.49,-23.95"/>
</a>
</g>
</g>
<!-- Node6 -->
<g id="Node000006" class="node">
<title>Node6</title>
<g id="a_Node000006"><a xlink:title=" ">
<polygon fill="#e0e0e0" stroke="#999999" points="326.12,-20 291.38,-20 291.38,0 326.12,0 326.12,-20"/>
<text text-anchor="middle" x="308.75" y="-6.5" font-family="Helvetica,sans-Serif" font-size="10.00">map</text>
</a>
</g>
</g>
<!-- Node3&#45;&gt;Node6 -->
<g id="edge5_Node000003_Node000006" class="edge">
<title>Node3&#45;&gt;Node6</title>
<g id="a_edge5_Node000003_Node000006"><a xlink:title=" ">
<path fill="none" stroke="#63b8ff" d="M212.96,-55.59C231.75,-46.85 259.92,-33.73 280.85,-23.99"/>
<polygon fill="#63b8ff" stroke="#63b8ff" points="282.09,-27.27 289.68,-19.88 279.14,-20.92 282.09,-27.27"/>
</a>
</g>
</g>
<!-- Node7 -->
<g id="Node000007" class="node">
<title>Node7</title>
<g id="a_Node000007"><a xlink:title=" ">
<polygon fill="#e0e0e0" stroke="#999999" points="273.75,-20 233.75,-20 233.75,0 273.75,0 273.75,-20"/>
<text text-anchor="middle" x="253.75" y="-6.5" font-family="Helvetica,sans-Serif" font-size="10.00">string</text>
</a>
</g>
</g>
<!-- Node3&#45;&gt;Node7 -->
<g id="edge6_Node000003_Node000007" class="edge">
<title>Node3&#45;&gt;Node7</title>
<g id="a_edge6_Node000003_Node000007"><a xlink:title=" ">
<path fill="none" stroke="#63b8ff" d="M203.38,-55.59C212.03,-47.93 224.48,-36.91 234.83,-27.75"/>
<polygon fill="#63b8ff" stroke="#63b8ff" points="236.95,-30.55 242.11,-21.3 232.31,-25.31 236.95,-30.55"/>
</a>
</g>
</g>
<!-- Node8&#45;&gt;Node4 -->
<g id="edge8_Node000008_Node000004" class="edge">
<title>Node8&#45;&gt;Node4</title>
<g id="a_edge8_Node000008_Node000004"><a xlink:title=" ">
<path fill="none" stroke="#63b8ff" d="M127.51,-55.59C139.11,-47.67 155.95,-36.16 169.61,-26.82"/>
<polygon fill="#63b8ff" stroke="#63b8ff" points="171.35,-29.87 177.63,-21.33 167.4,-24.09 171.35,-29.87"/>
</a>
</g>
</g>
<!-- Node8&#45;&gt;Node5 -->
<g id="edge10_Node000008_Node000005" class="edge">
<title>Node8&#45;&gt;Node5</title>
<g id="a_edge10_Node000008_Node000005"><a xlink:title=" ">
<path fill="none" stroke="#63b8ff" d="M113.4,-55.59C113.16,-49.01 112.82,-39.96 112.52,-31.73"/>
<polygon fill="#63b8ff" stroke="#63b8ff" points="116.02,-31.67 112.15,-21.81 109.02,-31.93 116.02,-31.67"/>
</a>
</g>
</g>
<!-- Node9 -->
<g id="Node000009" class="node">
<title>Node9</title>
<g id="a_Node000009"><a xlink:title=" ">
<polygon fill="#e0e0e0" stroke="#999999" points="53.5,-20 0,-20 0,0 53.5,0 53.5,-20"/>
<text text-anchor="middle" x="26.75" y="-6.5" font-family="Helvetica,sans-Serif" font-size="10.00">iostream</text>
</a>
</g>
</g>
<!-- Node8&#45;&gt;Node9 -->
<g id="edge9_Node000008_Node000009" class="edge">
<title>Node8&#45;&gt;Node9</title>
<g id="a_edge9_Node000008_Node000009"><a xlink:title=" ">
<path fill="none" stroke="#63b8ff" d="M98.6,-55.59C85.7,-47.59 66.92,-35.93 51.79,-26.54"/>
<polygon fill="#63b8ff" stroke="#63b8ff" points="53.65,-23.58 43.31,-21.28 49.96,-29.53 53.65,-23.58"/>
</a>
</g>
</g>
</g>
</svg>
