<?xml version="1.0" encoding="UTF-8" standalone="no"?>
<!DOCTYPE svg PUBLIC "-//W3C//DTD SVG 1.1//EN"
 "http://www.w3.org/Graphics/SVG/1.1/DTD/svg11.dtd">
<!-- Generated by graphviz version 12.2.1 (20241206.2353)
 -->
<!-- Title: lib/clock/DS3231.cpp Pages: 1 -->
<svg width="288pt" height="140pt"
 viewBox="0.00 0.00 287.88 140.00" xmlns="http://www.w3.org/2000/svg" xmlns:xlink="http://www.w3.org/1999/xlink">

<svg id="main" version="1.1" xmlns="http://www.w3.org/2000/svg" xmlns:xlink="http://www.w3.org/1999/xlink" xml:space="preserve">

<style type="text/css"><![CDATA[
.node, .edge {opacity: 0.7;}
.node.selected, .edge.selected {opacity: 1;}
.edge:hover path { stroke: red; }
.edge:hover polygon { stroke: red; fill: red; }
]]></style>
<script type="application/ecmascript" xlink:href="svg.min.js"/>
<svg id="graph" class="graph">
<g id="graph0" class="graph" transform="scale(1 1) rotate(0) translate(4 136)">
<title>lib/clock/DS3231.cpp</title>
<!-- Node1 -->
<g id="Node000001" class="node">
<title>Node1</title>
<g id="a_Node000001"><a xlink:title=" ">
<polygon fill="#999999" stroke="#666666" points="239.5,-132 130.5,-132 130.5,-112 239.5,-112 239.5,-132"/>
<text text-anchor="middle" x="185" y="-118.5" font-family="Helvetica,sans-Serif" font-size="10.00">lib/clock/DS3231.cpp</text>
</a>
</g>
</g>
<!-- Node2 -->
<g id="Node000002" class="node">
<title>Node2</title>
<g id="a_Node000002"><a xlink:href="_d_s3231_8h.html" target="_top" xlink:title=" ">
<polygon fill="white" stroke="#666666" points="141.75,-76 82.25,-76 82.25,-56 141.75,-56 141.75,-76"/>
<text text-anchor="middle" x="112" y="-62.5" font-family="Helvetica,sans-Serif" font-size="10.00">DS3231.h</text>
</a>
</g>
</g>
<!-- Node1&#45;&gt;Node2 -->
<g id="edge1_Node000001_Node000002" class="edge">
<title>Node1&#45;&gt;Node2</title>
<g id="a_edge1_Node000001_Node000002"><a xlink:title=" ">
<path fill="none" stroke="#63b8ff" d="M172.28,-111.59C161.61,-103.7 146.12,-92.24 133.52,-82.92"/>
<polygon fill="#63b8ff" stroke="#63b8ff" points="135.91,-80.33 125.79,-77.2 131.74,-85.96 135.91,-80.33"/>
</a>
</g>
</g>
<!-- Node7 -->
<g id="Node000007" class="node">
<title>Node7</title>
<g id="a_Node000007"><a xlink:title=" ">
<polygon fill="#e0e0e0" stroke="#999999" points="209.88,-76 160.12,-76 160.12,-56 209.88,-56 209.88,-76"/>
<text text-anchor="middle" x="185" y="-62.5" font-family="Helvetica,sans-Serif" font-size="10.00">iomanip</text>
</a>
</g>
</g>
<!-- Node1&#45;&gt;Node7 -->
<g id="edge6_Node000001_Node000007" class="edge">
<title>Node1&#45;&gt;Node7</title>
<g id="a_edge6_Node000001_Node000007"><a xlink:title=" ">
<path fill="none" stroke="#63b8ff" d="M185,-111.59C185,-105.01 185,-95.96 185,-87.73"/>
<polygon fill="#63b8ff" stroke="#63b8ff" points="188.5,-87.81 185,-77.81 181.5,-87.81 188.5,-87.81"/>
</a>
</g>
</g>
<!-- Node8 -->
<g id="Node000008" class="node">
<title>Node8</title>
<g id="a_Node000008"><a xlink:title=" ">
<polygon fill="#e0e0e0" stroke="#999999" points="279.62,-76 228.38,-76 228.38,-56 279.62,-56 279.62,-76"/>
<text text-anchor="middle" x="254" y="-62.5" font-family="Helvetica,sans-Serif" font-size="10.00">sstream</text>
</a>
</g>
</g>
<!-- Node1&#45;&gt;Node8 -->
<g id="edge7_Node000001_Node000008" class="edge">
<title>Node1&#45;&gt;Node8</title>
<g id="a_edge7_Node000001_Node000008"><a xlink:title=" ">
<path fill="none" stroke="#63b8ff" d="M197.02,-111.59C207.01,-103.77 221.46,-92.46 233.31,-83.19"/>
<polygon fill="#63b8ff" stroke="#63b8ff" points="235.21,-86.15 240.93,-77.23 230.89,-80.64 235.21,-86.15"/>
</a>
</g>
</g>
<!-- Node3 -->
<g id="Node000003" class="node">
<title>Node3</title>
<g id="a_Node000003"><a xlink:title=" ">
<polygon fill="#e0e0e0" stroke="#999999" points="40,-20 0,-20 0,0 40,0 40,-20"/>
<text text-anchor="middle" x="20" y="-6.5" font-family="Helvetica,sans-Serif" font-size="10.00">string</text>
</a>
</g>
</g>
<!-- Node2&#45;&gt;Node3 -->
<g id="edge2_Node000002_Node000003" class="edge">
<title>Node2&#45;&gt;Node3</title>
<g id="a_edge2_Node000002_Node000003"><a xlink:title=" ">
<path fill="none" stroke="#63b8ff" d="M95.97,-55.59C82.21,-47.51 62.1,-35.71 46.02,-26.27"/>
<polygon fill="#63b8ff" stroke="#63b8ff" points="47.85,-23.29 37.46,-21.25 44.31,-29.33 47.85,-23.29"/>
</a>
</g>
</g>
<!-- Node4 -->
<g id="Node000004" class="node">
<title>Node4</title>
<g id="a_Node000004"><a xlink:title=" ">
<polygon fill="#e0e0e0" stroke="#999999" points="95.88,-20 58.12,-20 58.12,0 95.88,0 95.88,-20"/>
<text text-anchor="middle" x="77" y="-6.5" font-family="Helvetica,sans-Serif" font-size="10.00">array</text>
</a>
</g>
</g>
<!-- Node2&#45;&gt;Node4 -->
<g id="edge3_Node000002_Node000004" class="edge">
<title>Node2&#45;&gt;Node4</title>
<g id="a_edge3_Node000002_Node000004"><a xlink:title=" ">
<path fill="none" stroke="#63b8ff" d="M105.9,-55.59C101.29,-48.47 94.79,-38.45 89.13,-29.72"/>
<polygon fill="#63b8ff" stroke="#63b8ff" points="92.23,-28.06 83.85,-21.57 86.35,-31.86 92.23,-28.06"/>
</a>
</g>
</g>
<!-- Node5 -->
<g id="Node000005" class="node">
<title>Node5</title>
<g id="a_Node000005"><a xlink:title=" ">
<polygon fill="#e0e0e0" stroke="#999999" points="182.25,-20 113.75,-20 113.75,0 182.25,0 182.25,-20"/>
<text text-anchor="middle" x="148" y="-6.5" font-family="Helvetica,sans-Serif" font-size="10.00">pico/stdlib.h</text>
</a>
</g>
</g>
<!-- Node2&#45;&gt;Node5 -->
<g id="edge4_Node000002_Node000005" class="edge">
<title>Node2&#45;&gt;Node5</title>
<g id="a_edge4_Node000002_Node000005"><a xlink:title=" ">
<path fill="none" stroke="#63b8ff" d="M118.27,-55.59C123.02,-48.47 129.7,-38.45 135.52,-29.72"/>
<polygon fill="#63b8ff" stroke="#63b8ff" points="138.33,-31.82 140.96,-21.56 132.5,-27.94 138.33,-31.82"/>
</a>
</g>
</g>
<!-- Node6 -->
<g id="Node000006" class="node">
<title>Node6</title>
<g id="a_Node000006"><a xlink:title=" ">
<polygon fill="#e0e0e0" stroke="#999999" points="279.88,-20 200.12,-20 200.12,0 279.88,0 279.88,-20"/>
<text text-anchor="middle" x="240" y="-6.5" font-family="Helvetica,sans-Serif" font-size="10.00">hardware/i2c.h</text>
</a>
</g>
</g>
<!-- Node2&#45;&gt;Node6 -->
<g id="edge5_Node000002_Node000006" class="edge">
<title>Node2&#45;&gt;Node6</title>
<g id="a_edge5_Node000002_Node000006"><a xlink:title=" ">
<path fill="none" stroke="#63b8ff" d="M134.3,-55.59C154.36,-47.13 184.12,-34.58 206.95,-24.94"/>
<polygon fill="#63b8ff" stroke="#63b8ff" points="208.28,-28.18 216.14,-21.07 205.56,-21.73 208.28,-28.18"/>
</a>
</g>
</g>
</g>
</svg>
</svg>

<style type='text/css'>
<![CDATA[
[data-mouse-over-selected='false'] { opacity: 0.7; }
[data-mouse-over-selected='true']  { opacity: 1.0; }
]]>
</style>
<script type="application/ecmascript"><![CDATA[
document.addEventListener('DOMContentLoaded', (event) => {
  highlightEdges();
  highlightAdjacentNodes();
});
]]></script>
</svg>
