<?xml version="1.0" encoding="UTF-8" standalone="no"?>
<!DOCTYPE svg PUBLIC "-//W3C//DTD SVG 1.1//EN"
 "http://www.w3.org/Graphics/SVG/1.1/DTD/svg11.dtd">
<!-- Generated by graphviz version 12.2.1 (20241206.2353)
 -->
<!-- Title: lib/clock/DS3231.cpp Pages: 1 -->
<svg width="540pt" height="196pt"
 viewBox="0.00 0.00 539.50 196.00" xmlns="http://www.w3.org/2000/svg" xmlns:xlink="http://www.w3.org/1999/xlink">
<g id="graph0" class="graph" transform="scale(1 1) rotate(0) translate(4 192)">
<title>lib/clock/DS3231.cpp</title>
<!-- Node1 -->
<g id="Node000001" class="node">
<title>Node1</title>
<g id="a_Node000001"><a xlink:title=" ">
<polygon fill="#999999" stroke="#666666" points="448.12,-188 339.12,-188 339.12,-168 448.12,-168 448.12,-188"/>
<text text-anchor="middle" x="393.62" y="-174.5" font-family="Helvetica,sans-Serif" font-size="10.00">lib/clock/DS3231.cpp</text>
</a>
</g>
</g>
<!-- Node2 -->
<g id="Node000002" class="node">
<title>Node2</title>
<g id="a_Node000002"><a xlink:href="_d_s3231_8h.html" target="_top" xlink:title=" ">
<polygon fill="white" stroke="#666666" points="387.38,-132 327.88,-132 327.88,-112 387.38,-112 387.38,-132"/>
<text text-anchor="middle" x="357.62" y="-118.5" font-family="Helvetica,sans-Serif" font-size="10.00">DS3231.h</text>
</a>
</g>
</g>
<!-- Node1&#45;&gt;Node2 -->
<g id="edge1_Node000001_Node000002" class="edge">
<title>Node1&#45;&gt;Node2</title>
<g id="a_edge1_Node000001_Node000002"><a xlink:title=" ">
<path fill="none" stroke="#63b8ff" d="M387.35,-167.59C382.61,-160.47 375.93,-150.45 370.1,-141.72"/>
<polygon fill="#63b8ff" stroke="#63b8ff" points="373.12,-139.94 364.66,-133.56 367.3,-143.82 373.12,-139.94"/>
</a>
</g>
</g>
<!-- Node7 -->
<g id="Node000007" class="node">
<title>Node7</title>
<g id="a_Node000007"><a xlink:title=" ">
<polygon fill="#e0e0e0" stroke="#999999" points="455.5,-132 405.75,-132 405.75,-112 455.5,-112 455.5,-132"/>
<text text-anchor="middle" x="430.62" y="-118.5" font-family="Helvetica,sans-Serif" font-size="10.00">iomanip</text>
</a>
</g>
</g>
<!-- Node1&#45;&gt;Node7 -->
<g id="edge6_Node000001_Node000007" class="edge">
<title>Node1&#45;&gt;Node7</title>
<g id="a_edge6_Node000001_Node000007"><a xlink:title=" ">
<path fill="none" stroke="#63b8ff" d="M400.07,-167.59C404.95,-160.47 411.82,-150.45 417.8,-141.72"/>
<polygon fill="#63b8ff" stroke="#63b8ff" points="420.63,-143.77 423.4,-133.55 414.86,-139.82 420.63,-143.77"/>
</a>
</g>
</g>
<!-- Node8 -->
<g id="Node000008" class="node">
<title>Node8</title>
<g id="a_Node000008"><a xlink:title=" ">
<polygon fill="#e0e0e0" stroke="#999999" points="525.25,-132 474,-132 474,-112 525.25,-112 525.25,-132"/>
<text text-anchor="middle" x="499.62" y="-118.5" font-family="Helvetica,sans-Serif" font-size="10.00">sstream</text>
</a>
</g>
</g>
<!-- Node1&#45;&gt;Node8 -->
<g id="edge7_Node000001_Node000008" class="edge">
<title>Node1&#45;&gt;Node8</title>
<g id="a_edge7_Node000001_Node000008"><a xlink:title=" ">
<path fill="none" stroke="#63b8ff" d="M412.09,-167.59C428.33,-159.32 452.23,-147.14 470.96,-137.6"/>
<polygon fill="#63b8ff" stroke="#63b8ff" points="472.35,-140.82 479.67,-133.17 469.17,-134.59 472.35,-140.82"/>
</a>
</g>
</g>
<!-- Node9 -->
<g id="Node000009" class="node">
<title>Node9</title>
<g id="a_Node000009"><a xlink:href="utils_8h.html" target="_top" xlink:title=" ">
<polygon fill="white" stroke="#666666" points="263.75,-132 221.5,-132 221.5,-112 263.75,-112 263.75,-132"/>
<text text-anchor="middle" x="242.62" y="-118.5" font-family="Helvetica,sans-Serif" font-size="10.00">utils.h</text>
</a>
</g>
</g>
<!-- Node1&#45;&gt;Node9 -->
<g id="edge8_Node000001_Node000009" class="edge">
<title>Node1&#45;&gt;Node9</title>
<g id="a_edge8_Node000001_Node000009"><a xlink:title=" ">
<path fill="none" stroke="#63b8ff" d="M367.32,-167.59C341.63,-158.4 302.47,-144.4 274.9,-134.54"/>
<polygon fill="#63b8ff" stroke="#63b8ff" points="276.25,-131.31 265.65,-131.24 273.89,-137.9 276.25,-131.31"/>
</a>
</g>
</g>
<!-- Node3 -->
<g id="Node000003" class="node">
<title>Node3</title>
<g id="a_Node000003"><a xlink:title=" ">
<polygon fill="#e0e0e0" stroke="#999999" points="377.62,-76 337.62,-76 337.62,-56 377.62,-56 377.62,-76"/>
<text text-anchor="middle" x="357.62" y="-62.5" font-family="Helvetica,sans-Serif" font-size="10.00">string</text>
</a>
</g>
</g>
<!-- Node2&#45;&gt;Node3 -->
<g id="edge2_Node000002_Node000003" class="edge">
<title>Node2&#45;&gt;Node3</title>
<g id="a_edge2_Node000002_Node000003"><a xlink:title=" ">
<path fill="none" stroke="#63b8ff" d="M357.62,-111.59C357.62,-105.01 357.62,-95.96 357.62,-87.73"/>
<polygon fill="#63b8ff" stroke="#63b8ff" points="361.13,-87.81 357.63,-77.81 354.13,-87.81 361.13,-87.81"/>
</a>
</g>
</g>
<!-- Node4 -->
<g id="Node000004" class="node">
<title>Node4</title>
<g id="a_Node000004"><a xlink:title=" ">
<polygon fill="#e0e0e0" stroke="#999999" points="531.5,-76 493.75,-76 493.75,-56 531.5,-56 531.5,-76"/>
<text text-anchor="middle" x="512.62" y="-62.5" font-family="Helvetica,sans-Serif" font-size="10.00">array</text>
</a>
</g>
</g>
<!-- Node2&#45;&gt;Node4 -->
<g id="edge3_Node000002_Node000004" class="edge">
<title>Node2&#45;&gt;Node4</title>
<g id="a_edge3_Node000002_Node000004"><a xlink:title=" ">
<path fill="none" stroke="#63b8ff" d="M384.62,-111.59C412.04,-102.04 454.38,-87.29 482.78,-77.4"/>
<polygon fill="#63b8ff" stroke="#63b8ff" points="483.56,-80.83 491.85,-74.24 481.25,-74.22 483.56,-80.83"/>
</a>
</g>
</g>
<!-- Node5 -->
<g id="Node000005" class="node">
<title>Node5</title>
<g id="a_Node000005"><a xlink:title=" ">
<polygon fill="#e0e0e0" stroke="#999999" points="319.88,-76 251.38,-76 251.38,-56 319.88,-56 319.88,-76"/>
<text text-anchor="middle" x="285.62" y="-62.5" font-family="Helvetica,sans-Serif" font-size="10.00">pico/stdlib.h</text>
</a>
</g>
</g>
<!-- Node2&#45;&gt;Node5 -->
<g id="edge4_Node000002_Node000005" class="edge">
<title>Node2&#45;&gt;Node5</title>
<g id="a_edge4_Node000002_Node000005"><a xlink:title=" ">
<path fill="none" stroke="#63b8ff" d="M345.08,-111.59C334.66,-103.77 319.58,-92.46 307.21,-83.19"/>
<polygon fill="#63b8ff" stroke="#63b8ff" points="309.33,-80.41 299.23,-77.21 305.13,-86.01 309.33,-80.41"/>
</a>
</g>
</g>
<!-- Node6 -->
<g id="Node000006" class="node">
<title>Node6</title>
<g id="a_Node000006"><a xlink:title=" ">
<polygon fill="#e0e0e0" stroke="#999999" points="475.5,-76 395.75,-76 395.75,-56 475.5,-56 475.5,-76"/>
<text text-anchor="middle" x="435.62" y="-62.5" font-family="Helvetica,sans-Serif" font-size="10.00">hardware/i2c.h</text>
</a>
</g>
</g>
<!-- Node2&#45;&gt;Node6 -->
<g id="edge5_Node000002_Node000006" class="edge">
<title>Node2&#45;&gt;Node6</title>
<g id="a_edge5_Node000002_Node000006"><a xlink:title=" ">
<path fill="none" stroke="#63b8ff" d="M371.21,-111.59C382.66,-103.67 399.29,-92.16 412.78,-82.82"/>
<polygon fill="#63b8ff" stroke="#63b8ff" points="414.46,-85.91 420.69,-77.34 410.47,-80.16 414.46,-85.91"/>
</a>
</g>
</g>
<!-- Node9&#45;&gt;Node3 -->
<g id="edge10_Node000009_Node000003" class="edge">
<title>Node9&#45;&gt;Node3</title>
<g id="a_edge10_Node000009_Node000003"><a xlink:title=" ">
<path fill="none" stroke="#63b8ff" d="M262.66,-111.59C280.44,-103.24 306.69,-90.92 327.09,-81.34"/>
<polygon fill="#63b8ff" stroke="#63b8ff" points="328.5,-84.54 336.07,-77.12 325.53,-78.21 328.5,-84.54"/>
</a>
</g>
</g>
<!-- Node9&#45;&gt;Node5 -->
<g id="edge11_Node000009_Node000005" class="edge">
<title>Node9&#45;&gt;Node5</title>
<g id="a_edge11_Node000009_Node000005"><a xlink:title=" ">
<path fill="none" stroke="#63b8ff" d="M250.12,-111.59C255.91,-104.32 264.11,-94.02 271.17,-85.15"/>
<polygon fill="#63b8ff" stroke="#63b8ff" points="273.79,-87.49 277.28,-77.48 268.31,-83.12 273.79,-87.49"/>
</a>
</g>
</g>
<!-- Node10 -->
<g id="Node000010" class="node">
<title>Node10</title>
<g id="a_Node000010"><a xlink:title=" ">
<polygon fill="#e0e0e0" stroke="#999999" points="45.25,-76 0,-76 0,-56 45.25,-56 45.25,-76"/>
<text text-anchor="middle" x="22.62" y="-62.5" font-family="Helvetica,sans-Serif" font-size="10.00">stdio.h</text>
</a>
</g>
</g>
<!-- Node9&#45;&gt;Node10 -->
<g id="edge9_Node000009_Node000010" class="edge">
<title>Node9&#45;&gt;Node10</title>
<g id="a_edge9_Node000009_Node000010"><a xlink:title=" ">
<path fill="none" stroke="#63b8ff" d="M221.28,-116.28C188.03,-108.84 121.62,-93.68 56.47,-76.67"/>
<polygon fill="#63b8ff" stroke="#63b8ff" points="57.64,-73.35 47.08,-74.19 55.86,-80.12 57.64,-73.35"/>
</a>
</g>
</g>
<!-- Node11 -->
<g id="Node000011" class="node">
<title>Node11</title>
<g id="a_Node000011"><a xlink:title=" ">
<polygon fill="#e0e0e0" stroke="#999999" points="146.38,-76 62.88,-76 62.88,-56 146.38,-56 146.38,-76"/>
<text text-anchor="middle" x="104.62" y="-62.5" font-family="Helvetica,sans-Serif" font-size="10.00">hardware/uart.h</text>
</a>
</g>
</g>
<!-- Node9&#45;&gt;Node11 -->
<g id="edge12_Node000009_Node000011" class="edge">
<title>Node9&#45;&gt;Node11</title>
<g id="a_edge12_Node000009_Node000011"><a xlink:title=" ">
<path fill="none" stroke="#63b8ff" d="M221.06,-112.56C199.17,-104 164.94,-90.6 139.25,-80.55"/>
<polygon fill="#63b8ff" stroke="#63b8ff" points="140.82,-77.4 130.23,-77.02 138.27,-83.92 140.82,-77.4"/>
</a>
</g>
</g>
<!-- Node12 -->
<g id="Node000012" class="node">
<title>Node12</title>
<g id="a_Node000012"><a xlink:href="pin__config_8h.html" target="_top" xlink:title=" ">
<polygon fill="white" stroke="#666666" points="232.88,-76 164.38,-76 164.38,-56 232.88,-56 232.88,-76"/>
<text text-anchor="middle" x="198.62" y="-62.5" font-family="Helvetica,sans-Serif" font-size="10.00">pin_config.h</text>
</a>
</g>
</g>
<!-- Node9&#45;&gt;Node12 -->
<g id="edge13_Node000009_Node000012" class="edge">
<title>Node9&#45;&gt;Node12</title>
<g id="a_edge13_Node000009_Node000012"><a xlink:title=" ">
<path fill="none" stroke="#63b8ff" d="M234.96,-111.59C229.03,-104.32 220.64,-94.02 213.41,-85.15"/>
<polygon fill="#63b8ff" stroke="#63b8ff" points="216.19,-83.01 207.16,-77.47 210.76,-87.43 216.19,-83.01"/>
</a>
</g>
</g>
<!-- Node13 -->
<g id="Node000013" class="node">
<title>Node13</title>
<g id="a_Node000013"><a xlink:title=" ">
<polygon fill="#e0e0e0" stroke="#999999" points="222.75,-20 174.5,-20 174.5,0 222.75,0 222.75,-20"/>
<text text-anchor="middle" x="198.62" y="-6.5" font-family="Helvetica,sans-Serif" font-size="10.00">stdint.h</text>
</a>
</g>
</g>
<!-- Node12&#45;&gt;Node13 -->
<g id="edge14_Node000012_Node000013" class="edge">
<title>Node12&#45;&gt;Node13</title>
<g id="a_edge14_Node000012_Node000013"><a xlink:title=" ">
<path fill="none" stroke="#63b8ff" d="M198.62,-55.59C198.62,-49.01 198.62,-39.96 198.62,-31.73"/>
<polygon fill="#63b8ff" stroke="#63b8ff" points="202.13,-31.81 198.63,-21.81 195.13,-31.81 202.13,-31.81"/>
</a>
</g>
</g>
</g>
</svg>
