<?xml version="1.0" encoding="UTF-8" standalone="no"?>
<!DOCTYPE svg PUBLIC "-//W3C//DTD SVG 1.1//EN"
 "http://www.w3.org/Graphics/SVG/1.1/DTD/svg11.dtd">
<!-- Generated by graphviz version 12.2.1 (20241206.2353)
 -->
<!-- Title: lib/clock/DS3231.cpp Pages: 1 -->
<svg width="599pt" height="196pt"
 viewBox="0.00 0.00 599.12 196.00" xmlns="http://www.w3.org/2000/svg" xmlns:xlink="http://www.w3.org/1999/xlink">
<g id="graph0" class="graph" transform="scale(1 1) rotate(0) translate(4 192)">
<title>lib/clock/DS3231.cpp</title>
<!-- Node1 -->
<g id="Node000001" class="node">
<title>Node1</title>
<g id="a_Node000001"><a xlink:title=" ">
<polygon fill="#999999" stroke="#666666" points="325.12,-188 216.12,-188 216.12,-168 325.12,-168 325.12,-188"/>
<text text-anchor="middle" x="270.62" y="-174.5" font-family="Helvetica,sans-Serif" font-size="10.00">lib/clock/DS3231.cpp</text>
</a>
</g>
</g>
<!-- Node2 -->
<g id="Node000002" class="node">
<title>Node2</title>
<g id="a_Node000002"><a xlink:href="_d_s3231_8h.html" target="_top" xlink:title=" ">
<polygon fill="white" stroke="#666666" points="407.38,-132 347.88,-132 347.88,-112 407.38,-112 407.38,-132"/>
<text text-anchor="middle" x="377.62" y="-118.5" font-family="Helvetica,sans-Serif" font-size="10.00">DS3231.h</text>
</a>
</g>
</g>
<!-- Node1&#45;&gt;Node2 -->
<g id="edge1_Node000001_Node000002" class="edge">
<title>Node1&#45;&gt;Node2</title>
<g id="a_edge1_Node000001_Node000002"><a xlink:title=" ">
<path fill="none" stroke="#63b8ff" d="M289.26,-167.59C305.66,-159.32 329.78,-147.14 348.69,-137.6"/>
<polygon fill="#63b8ff" stroke="#63b8ff" points="350.14,-140.79 357.49,-133.16 346.99,-134.54 350.14,-140.79"/>
</a>
</g>
</g>
<!-- Node8 -->
<g id="Node000008" class="node">
<title>Node8</title>
<g id="a_Node000008"><a xlink:href="utils_8h.html" target="_top" xlink:title=" ">
<polygon fill="white" stroke="#666666" points="255.75,-132 213.5,-132 213.5,-112 255.75,-112 255.75,-132"/>
<text text-anchor="middle" x="234.62" y="-118.5" font-family="Helvetica,sans-Serif" font-size="10.00">utils.h</text>
</a>
</g>
</g>
<!-- Node1&#45;&gt;Node8 -->
<g id="edge7_Node000001_Node000008" class="edge">
<title>Node1&#45;&gt;Node8</title>
<g id="a_edge7_Node000001_Node000008"><a xlink:title=" ">
<path fill="none" stroke="#63b8ff" d="M264.35,-167.59C259.61,-160.47 252.93,-150.45 247.1,-141.72"/>
<polygon fill="#63b8ff" stroke="#63b8ff" points="250.12,-139.94 241.66,-133.56 244.3,-143.82 250.12,-139.94"/>
</a>
</g>
</g>
<!-- Node3 -->
<g id="Node000003" class="node">
<title>Node3</title>
<g id="a_Node000003"><a xlink:title=" ">
<polygon fill="#e0e0e0" stroke="#999999" points="290.62,-76 250.62,-76 250.62,-56 290.62,-56 290.62,-76"/>
<text text-anchor="middle" x="270.62" y="-62.5" font-family="Helvetica,sans-Serif" font-size="10.00">string</text>
</a>
</g>
</g>
<!-- Node2&#45;&gt;Node3 -->
<g id="edge2_Node000002_Node000003" class="edge">
<title>Node2&#45;&gt;Node3</title>
<g id="a_edge2_Node000002_Node000003"><a xlink:title=" ">
<path fill="none" stroke="#63b8ff" d="M358.99,-111.59C342.59,-103.32 318.47,-91.14 299.56,-81.6"/>
<polygon fill="#63b8ff" stroke="#63b8ff" points="301.26,-78.54 290.76,-77.16 298.11,-84.79 301.26,-78.54"/>
</a>
</g>
</g>
<!-- Node4 -->
<g id="Node000004" class="node">
<title>Node4</title>
<g id="a_Node000004"><a xlink:title=" ">
<polygon fill="#e0e0e0" stroke="#999999" points="432.5,-76 394.75,-76 394.75,-56 432.5,-56 432.5,-76"/>
<text text-anchor="middle" x="413.62" y="-62.5" font-family="Helvetica,sans-Serif" font-size="10.00">array</text>
</a>
</g>
</g>
<!-- Node2&#45;&gt;Node4 -->
<g id="edge3_Node000002_Node000004" class="edge">
<title>Node2&#45;&gt;Node4</title>
<g id="a_edge3_Node000002_Node000004"><a xlink:title=" ">
<path fill="none" stroke="#63b8ff" d="M383.9,-111.59C388.64,-104.47 395.32,-94.45 401.15,-85.72"/>
<polygon fill="#63b8ff" stroke="#63b8ff" points="403.95,-87.82 406.59,-77.56 398.13,-83.94 403.95,-87.82"/>
</a>
</g>
</g>
<!-- Node5 -->
<g id="Node000005" class="node">
<title>Node5</title>
<g id="a_Node000005"><a xlink:title=" ">
<polygon fill="#e0e0e0" stroke="#999999" points="376.88,-76 308.38,-76 308.38,-56 376.88,-56 376.88,-76"/>
<text text-anchor="middle" x="342.62" y="-62.5" font-family="Helvetica,sans-Serif" font-size="10.00">pico/stdlib.h</text>
</a>
</g>
</g>
<!-- Node2&#45;&gt;Node5 -->
<g id="edge4_Node000002_Node000005" class="edge">
<title>Node2&#45;&gt;Node5</title>
<g id="a_edge4_Node000002_Node000005"><a xlink:title=" ">
<path fill="none" stroke="#63b8ff" d="M371.53,-111.59C366.91,-104.47 360.42,-94.45 354.76,-85.72"/>
<polygon fill="#63b8ff" stroke="#63b8ff" points="357.85,-84.06 349.47,-77.57 351.98,-87.86 357.85,-84.06"/>
</a>
</g>
</g>
<!-- Node6 -->
<g id="Node000006" class="node">
<title>Node6</title>
<g id="a_Node000006"><a xlink:title=" ">
<polygon fill="#e0e0e0" stroke="#999999" points="530.5,-76 450.75,-76 450.75,-56 530.5,-56 530.5,-76"/>
<text text-anchor="middle" x="490.62" y="-62.5" font-family="Helvetica,sans-Serif" font-size="10.00">hardware/i2c.h</text>
</a>
</g>
</g>
<!-- Node2&#45;&gt;Node6 -->
<g id="edge5_Node000002_Node000006" class="edge">
<title>Node2&#45;&gt;Node6</title>
<g id="a_edge5_Node000002_Node000006"><a xlink:title=" ">
<path fill="none" stroke="#63b8ff" d="M397.31,-111.59C414.78,-103.24 440.58,-90.92 460.62,-81.34"/>
<polygon fill="#63b8ff" stroke="#63b8ff" points="461.91,-84.6 469.42,-77.13 458.89,-78.29 461.91,-84.6"/>
</a>
</g>
</g>
<!-- Node7 -->
<g id="Node000007" class="node">
<title>Node7</title>
<g id="a_Node000007"><a xlink:title=" ">
<polygon fill="#e0e0e0" stroke="#999999" points="591.12,-76 548.12,-76 548.12,-56 591.12,-56 591.12,-76"/>
<text text-anchor="middle" x="569.62" y="-62.5" font-family="Helvetica,sans-Serif" font-size="10.00">time.h</text>
</a>
</g>
</g>
<!-- Node2&#45;&gt;Node7 -->
<g id="edge6_Node000002_Node000007" class="edge">
<title>Node2&#45;&gt;Node7</title>
<g id="a_edge6_Node000002_Node000007"><a xlink:title=" ">
<path fill="none" stroke="#63b8ff" d="M407.83,-112.81C438.18,-104.53 486.58,-91.22 536.64,-76.82"/>
<polygon fill="#63b8ff" stroke="#63b8ff" points="537.59,-80.19 546.23,-74.06 535.65,-73.47 537.59,-80.19"/>
</a>
</g>
</g>
<!-- Node8&#45;&gt;Node3 -->
<g id="edge9_Node000008_Node000003" class="edge">
<title>Node8&#45;&gt;Node3</title>
<g id="a_edge9_Node000008_Node000003"><a xlink:title=" ">
<path fill="none" stroke="#63b8ff" d="M240.9,-111.59C245.64,-104.47 252.32,-94.45 258.15,-85.72"/>
<polygon fill="#63b8ff" stroke="#63b8ff" points="260.95,-87.82 263.59,-77.56 255.13,-83.94 260.95,-87.82"/>
</a>
</g>
</g>
<!-- Node8&#45;&gt;Node5 -->
<g id="edge10_Node000008_Node000005" class="edge">
<title>Node8&#45;&gt;Node5</title>
<g id="a_edge10_Node000008_Node000005"><a xlink:title=" ">
<path fill="none" stroke="#63b8ff" d="M253.44,-111.59C269.98,-103.32 294.34,-91.14 313.42,-81.6"/>
<polygon fill="#63b8ff" stroke="#63b8ff" points="314.93,-84.76 322.31,-77.16 311.8,-78.5 314.93,-84.76"/>
</a>
</g>
</g>
<!-- Node9 -->
<g id="Node000009" class="node">
<title>Node9</title>
<g id="a_Node000009"><a xlink:title=" ">
<polygon fill="#e0e0e0" stroke="#999999" points="45.25,-76 0,-76 0,-56 45.25,-56 45.25,-76"/>
<text text-anchor="middle" x="22.62" y="-62.5" font-family="Helvetica,sans-Serif" font-size="10.00">stdio.h</text>
</a>
</g>
</g>
<!-- Node8&#45;&gt;Node9 -->
<g id="edge8_Node000008_Node000009" class="edge">
<title>Node8&#45;&gt;Node9</title>
<g id="a_edge8_Node000008_Node000009"><a xlink:title=" ">
<path fill="none" stroke="#63b8ff" d="M213.1,-115.94C180.98,-108.31 118.35,-93.22 56.36,-76.67"/>
<polygon fill="#63b8ff" stroke="#63b8ff" points="57.65,-73.39 47.08,-74.18 55.83,-80.15 57.65,-73.39"/>
</a>
</g>
</g>
<!-- Node10 -->
<g id="Node000010" class="node">
<title>Node10</title>
<g id="a_Node000010"><a xlink:title=" ">
<polygon fill="#e0e0e0" stroke="#999999" points="146.38,-76 62.88,-76 62.88,-56 146.38,-56 146.38,-76"/>
<text text-anchor="middle" x="104.62" y="-62.5" font-family="Helvetica,sans-Serif" font-size="10.00">hardware/uart.h</text>
</a>
</g>
</g>
<!-- Node8&#45;&gt;Node10 -->
<g id="edge11_Node000008_Node000010" class="edge">
<title>Node8&#45;&gt;Node10</title>
<g id="a_edge11_Node000008_Node000010"><a xlink:title=" ">
<path fill="none" stroke="#63b8ff" d="M213.16,-112.08C192.74,-103.6 161.71,-90.71 138.05,-80.88"/>
<polygon fill="#63b8ff" stroke="#63b8ff" points="139.41,-77.66 128.83,-77.06 136.73,-84.12 139.41,-77.66"/>
</a>
</g>
</g>
<!-- Node11 -->
<g id="Node000011" class="node">
<title>Node11</title>
<g id="a_Node000011"><a xlink:href="pin__config_8h.html" target="_top" xlink:title=" ">
<polygon fill="white" stroke="#666666" points="232.88,-76 164.38,-76 164.38,-56 232.88,-56 232.88,-76"/>
<text text-anchor="middle" x="198.62" y="-62.5" font-family="Helvetica,sans-Serif" font-size="10.00">pin_config.h</text>
</a>
</g>
</g>
<!-- Node8&#45;&gt;Node11 -->
<g id="edge12_Node000008_Node000011" class="edge">
<title>Node8&#45;&gt;Node11</title>
<g id="a_edge12_Node000008_Node000011"><a xlink:title=" ">
<path fill="none" stroke="#63b8ff" d="M228.35,-111.59C223.61,-104.47 216.93,-94.45 211.1,-85.72"/>
<polygon fill="#63b8ff" stroke="#63b8ff" points="214.12,-83.94 205.66,-77.56 208.3,-87.82 214.12,-83.94"/>
</a>
</g>
</g>
<!-- Node12 -->
<g id="Node000012" class="node">
<title>Node12</title>
<g id="a_Node000012"><a xlink:title=" ">
<polygon fill="#e0e0e0" stroke="#999999" points="222.75,-20 174.5,-20 174.5,0 222.75,0 222.75,-20"/>
<text text-anchor="middle" x="198.62" y="-6.5" font-family="Helvetica,sans-Serif" font-size="10.00">stdint.h</text>
</a>
</g>
</g>
<!-- Node11&#45;&gt;Node12 -->
<g id="edge13_Node000011_Node000012" class="edge">
<title>Node11&#45;&gt;Node12</title>
<g id="a_edge13_Node000011_Node000012"><a xlink:title=" ">
<path fill="none" stroke="#63b8ff" d="M198.62,-55.59C198.62,-49.01 198.62,-39.96 198.62,-31.73"/>
<polygon fill="#63b8ff" stroke="#63b8ff" points="202.13,-31.81 198.63,-21.81 195.13,-31.81 202.13,-31.81"/>
</a>
</g>
</g>
</g>
</svg>
