<?xml version="1.0" encoding="UTF-8" standalone="no"?>
<!DOCTYPE svg PUBLIC "-//W3C//DTD SVG 1.1//EN"
 "http://www.w3.org/Graphics/SVG/1.1/DTD/svg11.dtd">
<!-- Generated by graphviz version 12.2.1 (20241206.2353)
 -->
<!-- Title: lib/clock/DS3231.cpp Pages: 1 -->
<svg width="690pt" height="196pt"
 viewBox="0.00 0.00 690.12 196.00" xmlns="http://www.w3.org/2000/svg" xmlns:xlink="http://www.w3.org/1999/xlink">
<g id="graph0" class="graph" transform="scale(1 1) rotate(0) translate(4 192)">
<title>lib/clock/DS3231.cpp</title>
<!-- Node1 -->
<g id="Node000001" class="node">
<title>Node1</title>
<g id="a_Node000001"><a xlink:title=" ">
<polygon fill="#999999" stroke="#666666" points="370.12,-188 261.12,-188 261.12,-168 370.12,-168 370.12,-188"/>
<text text-anchor="middle" x="315.62" y="-174.5" font-family="Helvetica,sans-Serif" font-size="10.00">lib/clock/DS3231.cpp</text>
</a>
</g>
</g>
<!-- Node2 -->
<g id="Node000002" class="node">
<title>Node2</title>
<g id="a_Node000002"><a xlink:href="_d_s3231_8h.html" target="_top" xlink:title=" ">
<polygon fill="white" stroke="#666666" points="424.38,-132 364.88,-132 364.88,-112 424.38,-112 424.38,-132"/>
<text text-anchor="middle" x="394.62" y="-118.5" font-family="Helvetica,sans-Serif" font-size="10.00">DS3231.h</text>
</a>
</g>
</g>
<!-- Node1&#45;&gt;Node2 -->
<g id="edge1_Node000001_Node000002" class="edge">
<title>Node1&#45;&gt;Node2</title>
<g id="a_edge1_Node000001_Node000002"><a xlink:title=" ">
<path fill="none" stroke="#63b8ff" d="M329.39,-167.59C340.98,-159.67 357.82,-148.16 371.49,-138.82"/>
<polygon fill="#63b8ff" stroke="#63b8ff" points="373.23,-141.87 379.51,-133.33 369.28,-136.09 373.23,-141.87"/>
</a>
</g>
</g>
<!-- Node9 -->
<g id="Node000009" class="node">
<title>Node9</title>
<g id="a_Node000009"><a xlink:href="utils_8h.html" target="_top" xlink:title=" ">
<polygon fill="white" stroke="#666666" points="253.75,-132 211.5,-132 211.5,-112 253.75,-112 253.75,-132"/>
<text text-anchor="middle" x="232.62" y="-118.5" font-family="Helvetica,sans-Serif" font-size="10.00">utils.h</text>
</a>
</g>
</g>
<!-- Node1&#45;&gt;Node9 -->
<g id="edge8_Node000001_Node000009" class="edge">
<title>Node1&#45;&gt;Node9</title>
<g id="a_edge8_Node000001_Node000009"><a xlink:title=" ">
<path fill="none" stroke="#63b8ff" d="M301.17,-167.59C288.87,-159.59 270.95,-147.93 256.52,-138.54"/>
<polygon fill="#63b8ff" stroke="#63b8ff" points="258.75,-135.82 248.46,-133.3 254.94,-141.69 258.75,-135.82"/>
</a>
</g>
</g>
<!-- Node10 -->
<g id="Node000010" class="node">
<title>Node10</title>
<g id="a_Node000010"><a xlink:title=" ">
<polygon fill="#e0e0e0" stroke="#999999" points="45.25,-76 0,-76 0,-56 45.25,-56 45.25,-76"/>
<text text-anchor="middle" x="22.62" y="-62.5" font-family="Helvetica,sans-Serif" font-size="10.00">stdio.h</text>
</a>
</g>
</g>
<!-- Node1&#45;&gt;Node10 -->
<g id="edge15_Node000001_Node000010" class="edge">
<title>Node1&#45;&gt;Node10</title>
<g id="a_edge15_Node000001_Node000010"><a xlink:title=" ">
<path fill="none" stroke="#63b8ff" d="M290.39,-167.53C237.58,-147.7 115.39,-101.83 56.1,-79.57"/>
<polygon fill="#63b8ff" stroke="#63b8ff" points="57.46,-76.34 46.87,-76.1 55,-82.89 57.46,-76.34"/>
</a>
</g>
</g>
<!-- Node14 -->
<g id="Node000014" class="node">
<title>Node14</title>
<g id="a_Node000014"><a xlink:title=" ">
<polygon fill="#e0e0e0" stroke="#999999" points="485.12,-132 442.12,-132 442.12,-112 485.12,-112 485.12,-132"/>
<text text-anchor="middle" x="463.62" y="-118.5" font-family="Helvetica,sans-Serif" font-size="10.00">mutex</text>
</a>
</g>
</g>
<!-- Node1&#45;&gt;Node14 -->
<g id="edge16_Node000001_Node000014" class="edge">
<title>Node1&#45;&gt;Node14</title>
<g id="a_edge16_Node000001_Node000014"><a xlink:title=" ">
<path fill="none" stroke="#63b8ff" d="M341.4,-167.59C366.44,-158.46 404.53,-144.56 431.52,-134.71"/>
<polygon fill="#63b8ff" stroke="#63b8ff" points="432.37,-138.13 440.56,-131.41 429.97,-131.55 432.37,-138.13"/>
</a>
</g>
</g>
<!-- Node3 -->
<g id="Node000003" class="node">
<title>Node3</title>
<g id="a_Node000003"><a xlink:title=" ">
<polygon fill="#e0e0e0" stroke="#999999" points="377.62,-76 337.62,-76 337.62,-56 377.62,-56 377.62,-76"/>
<text text-anchor="middle" x="357.62" y="-62.5" font-family="Helvetica,sans-Serif" font-size="10.00">string</text>
</a>
</g>
</g>
<!-- Node2&#45;&gt;Node3 -->
<g id="edge2_Node000002_Node000003" class="edge">
<title>Node2&#45;&gt;Node3</title>
<g id="a_edge2_Node000002_Node000003"><a xlink:title=" ">
<path fill="none" stroke="#63b8ff" d="M388.18,-111.59C383.3,-104.47 376.43,-94.45 370.45,-85.72"/>
<polygon fill="#63b8ff" stroke="#63b8ff" points="373.39,-83.82 364.85,-77.55 367.62,-87.77 373.39,-83.82"/>
</a>
</g>
</g>
<!-- Node4 -->
<g id="Node000004" class="node">
<title>Node4</title>
<g id="a_Node000004"><a xlink:title=" ">
<polygon fill="#e0e0e0" stroke="#999999" points="523.5,-76 485.75,-76 485.75,-56 523.5,-56 523.5,-76"/>
<text text-anchor="middle" x="504.62" y="-62.5" font-family="Helvetica,sans-Serif" font-size="10.00">array</text>
</a>
</g>
</g>
<!-- Node2&#45;&gt;Node4 -->
<g id="edge3_Node000002_Node000004" class="edge">
<title>Node2&#45;&gt;Node4</title>
<g id="a_edge3_Node000002_Node000004"><a xlink:title=" ">
<path fill="none" stroke="#63b8ff" d="M413.79,-111.59C430.72,-103.28 455.67,-91.03 475.15,-81.47"/>
<polygon fill="#63b8ff" stroke="#63b8ff" points="476.52,-84.7 483.96,-77.15 473.44,-78.41 476.52,-84.7"/>
</a>
</g>
</g>
<!-- Node5 -->
<g id="Node000005" class="node">
<title>Node5</title>
<g id="a_Node000005"><a xlink:title=" ">
<polygon fill="#e0e0e0" stroke="#999999" points="319.88,-76 251.38,-76 251.38,-56 319.88,-56 319.88,-76"/>
<text text-anchor="middle" x="285.62" y="-62.5" font-family="Helvetica,sans-Serif" font-size="10.00">pico/stdlib.h</text>
</a>
</g>
</g>
<!-- Node2&#45;&gt;Node5 -->
<g id="edge4_Node000002_Node000005" class="edge">
<title>Node2&#45;&gt;Node5</title>
<g id="a_edge4_Node000002_Node000005"><a xlink:title=" ">
<path fill="none" stroke="#63b8ff" d="M375.64,-111.59C358.86,-103.28 334.13,-91.03 314.84,-81.47"/>
<polygon fill="#63b8ff" stroke="#63b8ff" points="316.63,-78.45 306.12,-77.15 313.52,-84.73 316.63,-78.45"/>
</a>
</g>
</g>
<!-- Node6 -->
<g id="Node000006" class="node">
<title>Node6</title>
<g id="a_Node000006"><a xlink:title=" ">
<polygon fill="#e0e0e0" stroke="#999999" points="621.5,-76 541.75,-76 541.75,-56 621.5,-56 621.5,-76"/>
<text text-anchor="middle" x="581.62" y="-62.5" font-family="Helvetica,sans-Serif" font-size="10.00">hardware/i2c.h</text>
</a>
</g>
</g>
<!-- Node2&#45;&gt;Node6 -->
<g id="edge5_Node000002_Node000006" class="edge">
<title>Node2&#45;&gt;Node6</title>
<g id="a_edge5_Node000002_Node000006"><a xlink:title=" ">
<path fill="none" stroke="#63b8ff" d="M424.67,-112.32C455.32,-103.47 503.19,-89.65 538.01,-79.59"/>
<polygon fill="#63b8ff" stroke="#63b8ff" points="538.73,-83.03 547.37,-76.89 536.79,-76.3 538.73,-83.03"/>
</a>
</g>
</g>
<!-- Node7 -->
<g id="Node000007" class="node">
<title>Node7</title>
<g id="a_Node000007"><a xlink:title=" ">
<polygon fill="#e0e0e0" stroke="#999999" points="682.12,-76 639.12,-76 639.12,-56 682.12,-56 682.12,-76"/>
<text text-anchor="middle" x="660.62" y="-62.5" font-family="Helvetica,sans-Serif" font-size="10.00">time.h</text>
</a>
</g>
</g>
<!-- Node2&#45;&gt;Node7 -->
<g id="edge6_Node000002_Node000007" class="edge">
<title>Node2&#45;&gt;Node7</title>
<g id="a_edge6_Node000002_Node000007"><a xlink:title=" ">
<path fill="none" stroke="#63b8ff" d="M424.83,-113.89C427.8,-113.23 430.77,-112.59 433.62,-112 517.3,-94.71 542.12,-96.63 627.71,-76.5"/>
<polygon fill="#63b8ff" stroke="#63b8ff" points="628.36,-79.95 637.27,-74.22 626.73,-73.14 628.36,-79.95"/>
</a>
</g>
</g>
<!-- Node8 -->
<g id="Node000008" class="node">
<title>Node8</title>
<g id="a_Node000008"><a xlink:title=" ">
<polygon fill="#e0e0e0" stroke="#999999" points="467.75,-76 395.5,-76 395.5,-56 467.75,-56 467.75,-76"/>
<text text-anchor="middle" x="431.62" y="-62.5" font-family="Helvetica,sans-Serif" font-size="10.00">pico/mutex.h</text>
</a>
</g>
</g>
<!-- Node2&#45;&gt;Node8 -->
<g id="edge7_Node000002_Node000008" class="edge">
<title>Node2&#45;&gt;Node8</title>
<g id="a_edge7_Node000002_Node000008"><a xlink:title=" ">
<path fill="none" stroke="#63b8ff" d="M401.07,-111.59C405.95,-104.47 412.82,-94.45 418.8,-85.72"/>
<polygon fill="#63b8ff" stroke="#63b8ff" points="421.63,-87.77 424.4,-77.55 415.86,-83.82 421.63,-87.77"/>
</a>
</g>
</g>
<!-- Node9&#45;&gt;Node3 -->
<g id="edge10_Node000009_Node000003" class="edge">
<title>Node9&#45;&gt;Node3</title>
<g id="a_edge10_Node000009_Node000003"><a xlink:title=" ">
<path fill="none" stroke="#63b8ff" d="M254.11,-111.72C274.15,-103.06 304.25,-90.06 326.84,-80.3"/>
<polygon fill="#63b8ff" stroke="#63b8ff" points="328.06,-83.58 335.86,-76.4 325.29,-77.16 328.06,-83.58"/>
</a>
</g>
</g>
<!-- Node9&#45;&gt;Node5 -->
<g id="edge11_Node000009_Node000005" class="edge">
<title>Node9&#45;&gt;Node5</title>
<g id="a_edge11_Node000009_Node000005"><a xlink:title=" ">
<path fill="none" stroke="#63b8ff" d="M241.86,-111.59C249.23,-104.08 259.76,-93.35 268.64,-84.3"/>
<polygon fill="#63b8ff" stroke="#63b8ff" points="270.93,-86.97 275.44,-77.38 265.94,-82.06 270.93,-86.97"/>
</a>
</g>
</g>
<!-- Node9&#45;&gt;Node10 -->
<g id="edge9_Node000009_Node000010" class="edge">
<title>Node9&#45;&gt;Node10</title>
<g id="a_edge9_Node000009_Node000010"><a xlink:title=" ">
<path fill="none" stroke="#63b8ff" d="M211.21,-115.78C179.62,-108.04 118.44,-92.89 56.78,-76.52"/>
<polygon fill="#63b8ff" stroke="#63b8ff" points="57.7,-73.15 47.14,-73.95 55.9,-79.91 57.7,-73.15"/>
</a>
</g>
</g>
<!-- Node11 -->
<g id="Node000011" class="node">
<title>Node11</title>
<g id="a_Node000011"><a xlink:title=" ">
<polygon fill="#e0e0e0" stroke="#999999" points="233.38,-76 149.88,-76 149.88,-56 233.38,-56 233.38,-76"/>
<text text-anchor="middle" x="191.62" y="-62.5" font-family="Helvetica,sans-Serif" font-size="10.00">hardware/uart.h</text>
</a>
</g>
</g>
<!-- Node9&#45;&gt;Node11 -->
<g id="edge12_Node000009_Node000011" class="edge">
<title>Node9&#45;&gt;Node11</title>
<g id="a_edge12_Node000009_Node000011"><a xlink:title=" ">
<path fill="none" stroke="#63b8ff" d="M225.48,-111.59C220.02,-104.39 212.3,-94.23 205.62,-85.43"/>
<polygon fill="#63b8ff" stroke="#63b8ff" points="208.43,-83.35 199.6,-77.5 202.86,-87.58 208.43,-83.35"/>
</a>
</g>
</g>
<!-- Node12 -->
<g id="Node000012" class="node">
<title>Node12</title>
<g id="a_Node000012"><a xlink:href="pin__config_8h.html" target="_top" xlink:title=" ">
<polygon fill="white" stroke="#666666" points="131.88,-76 63.38,-76 63.38,-56 131.88,-56 131.88,-76"/>
<text text-anchor="middle" x="97.62" y="-62.5" font-family="Helvetica,sans-Serif" font-size="10.00">pin_config.h</text>
</a>
</g>
</g>
<!-- Node9&#45;&gt;Node12 -->
<g id="edge13_Node000009_Node000012" class="edge">
<title>Node9&#45;&gt;Node12</title>
<g id="a_edge13_Node000009_Node000012"><a xlink:title=" ">
<path fill="none" stroke="#63b8ff" d="M211.23,-112.44C189.86,-103.89 156.68,-90.62 131.68,-80.62"/>
<polygon fill="#63b8ff" stroke="#63b8ff" points="133.17,-77.45 122.59,-76.99 130.57,-83.95 133.17,-77.45"/>
</a>
</g>
</g>
<!-- Node13 -->
<g id="Node000013" class="node">
<title>Node13</title>
<g id="a_Node000013"><a xlink:title=" ">
<polygon fill="#e0e0e0" stroke="#999999" points="121.75,-20 73.5,-20 73.5,0 121.75,0 121.75,-20"/>
<text text-anchor="middle" x="97.62" y="-6.5" font-family="Helvetica,sans-Serif" font-size="10.00">stdint.h</text>
</a>
</g>
</g>
<!-- Node12&#45;&gt;Node13 -->
<g id="edge14_Node000012_Node000013" class="edge">
<title>Node12&#45;&gt;Node13</title>
<g id="a_edge14_Node000012_Node000013"><a xlink:title=" ">
<path fill="none" stroke="#63b8ff" d="M97.62,-55.59C97.62,-49.01 97.62,-39.96 97.62,-31.73"/>
<polygon fill="#63b8ff" stroke="#63b8ff" points="101.13,-31.81 97.63,-21.81 94.13,-31.81 101.13,-31.81"/>
</a>
</g>
</g>
</g>
</svg>
