<?xml version="1.0" encoding="UTF-8" standalone="no"?>
<!DOCTYPE svg PUBLIC "-//W3C//DTD SVG 1.1//EN"
 "http://www.w3.org/Graphics/SVG/1.1/DTD/svg11.dtd">
<!-- Generated by graphviz version 12.2.1 (20241206.2353)
 -->
<!-- Title: lib/clock/ErriezDS3231.cpp Pages: 1 -->
<svg width="254pt" height="140pt"
 viewBox="0.00 0.00 254.12 140.00" xmlns="http://www.w3.org/2000/svg" xmlns:xlink="http://www.w3.org/1999/xlink">

<svg id="main" version="1.1" xmlns="http://www.w3.org/2000/svg" xmlns:xlink="http://www.w3.org/1999/xlink" xml:space="preserve">

<style type="text/css"><![CDATA[
.node, .edge {opacity: 0.7;}
.node.selected, .edge.selected {opacity: 1;}
.edge:hover path { stroke: red; }
.edge:hover polygon { stroke: red; fill: red; }
]]></style>
<script type="application/ecmascript" xlink:href="svg.min.js"/>
<svg id="graph" class="graph">
<g id="graph0" class="graph" transform="scale(1 1) rotate(0) translate(4 136)">
<title>lib/clock/ErriezDS3231.cpp</title>
<!-- Node1 -->
<g id="Node000001" class="node">
<title>Node1</title>
<g id="a_Node000001"><a xlink:title="DS3231 high precision RTC library for Arduino.">
<polygon fill="#999999" stroke="#666666" points="176.88,-132 42.38,-132 42.38,-112 176.88,-112 176.88,-132"/>
<text text-anchor="middle" x="109.62" y="-118.5" font-family="Helvetica,sans-Serif" font-size="10.00">lib/clock/ErriezDS3231.cpp</text>
</a>
</g>
</g>
<!-- Node2 -->
<g id="Node000002" class="node">
<title>Node2</title>
<g id="a_Node000002"><a xlink:title=" ">
<polygon fill="#e0e0e0" stroke="#999999" points="69.25,-76 0,-76 0,-56 69.25,-56 69.25,-76"/>
<text text-anchor="middle" x="34.62" y="-62.5" font-family="Helvetica,sans-Serif" font-size="10.00">pgmspace.h</text>
</a>
</g>
</g>
<!-- Node1&#45;&gt;Node2 -->
<g id="edge1_Node000001_Node000002" class="edge">
<title>Node1&#45;&gt;Node2</title>
<g id="a_edge1_Node000001_Node000002"><a xlink:title=" ">
<path fill="none" stroke="#63b8ff" d="M96.56,-111.59C85.66,-103.74 69.87,-92.38 56.97,-83.09"/>
<polygon fill="#63b8ff" stroke="#63b8ff" points="59.18,-80.37 49.02,-77.36 55.09,-86.05 59.18,-80.37"/>
</a>
</g>
</g>
<!-- Node3 -->
<g id="Node000003" class="node">
<title>Node3</title>
<g id="a_Node000003"><a xlink:title=" ">
<polygon fill="#e0e0e0" stroke="#999999" points="131.88,-76 87.38,-76 87.38,-56 131.88,-56 131.88,-76"/>
<text text-anchor="middle" x="109.62" y="-62.5" font-family="Helvetica,sans-Serif" font-size="10.00">Wire.h</text>
</a>
</g>
</g>
<!-- Node1&#45;&gt;Node3 -->
<g id="edge2_Node000001_Node000003" class="edge">
<title>Node1&#45;&gt;Node3</title>
<g id="a_edge2_Node000001_Node000003"><a xlink:title=" ">
<path fill="none" stroke="#63b8ff" d="M109.62,-111.59C109.62,-105.01 109.62,-95.96 109.62,-87.73"/>
<polygon fill="#63b8ff" stroke="#63b8ff" points="113.13,-87.81 109.63,-77.81 106.13,-87.81 113.13,-87.81"/>
</a>
</g>
</g>
<!-- Node4 -->
<g id="Node000004" class="node">
<title>Node4</title>
<g id="a_Node000004"><a xlink:href="_erriez_d_s3231_8h.html" target="_top" xlink:title="DS3231 high precision RTC library for Arduino.">
<polygon fill="white" stroke="#666666" points="235.12,-76 150.12,-76 150.12,-56 235.12,-56 235.12,-76"/>
<text text-anchor="middle" x="192.62" y="-62.5" font-family="Helvetica,sans-Serif" font-size="10.00">ErriezDS3231.h</text>
</a>
</g>
</g>
<!-- Node1&#45;&gt;Node4 -->
<g id="edge3_Node000001_Node000004" class="edge">
<title>Node1&#45;&gt;Node4</title>
<g id="a_edge3_Node000001_Node000004"><a xlink:title=" ">
<path fill="none" stroke="#63b8ff" d="M124.08,-111.59C136.38,-103.59 154.3,-91.93 168.73,-82.54"/>
<polygon fill="#63b8ff" stroke="#63b8ff" points="170.31,-85.69 176.79,-77.3 166.5,-79.82 170.31,-85.69"/>
</a>
</g>
</g>
<!-- Node5 -->
<g id="Node000005" class="node">
<title>Node5</title>
<g id="a_Node000005"><a xlink:title=" ">
<polygon fill="#e0e0e0" stroke="#999999" points="184.75,-20 136.5,-20 136.5,0 184.75,0 184.75,-20"/>
<text text-anchor="middle" x="160.62" y="-6.5" font-family="Helvetica,sans-Serif" font-size="10.00">stdint.h</text>
</a>
</g>
</g>
<!-- Node4&#45;&gt;Node5 -->
<g id="edge4_Node000004_Node000005" class="edge">
<title>Node4&#45;&gt;Node5</title>
<g id="a_edge4_Node000004_Node000005"><a xlink:title=" ">
<path fill="none" stroke="#63b8ff" d="M187.05,-55.59C182.88,-48.55 177.02,-38.67 171.88,-30"/>
<polygon fill="#63b8ff" stroke="#63b8ff" points="175.02,-28.42 166.91,-21.6 168.99,-31.99 175.02,-28.42"/>
</a>
</g>
</g>
<!-- Node6 -->
<g id="Node000006" class="node">
<title>Node6</title>
<g id="a_Node000006"><a xlink:title=" ">
<polygon fill="#e0e0e0" stroke="#999999" points="246.12,-20 203.12,-20 203.12,0 246.12,0 246.12,-20"/>
<text text-anchor="middle" x="224.62" y="-6.5" font-family="Helvetica,sans-Serif" font-size="10.00">time.h</text>
</a>
</g>
</g>
<!-- Node4&#45;&gt;Node6 -->
<g id="edge5_Node000004_Node000006" class="edge">
<title>Node4&#45;&gt;Node6</title>
<g id="a_edge5_Node000004_Node000006"><a xlink:title=" ">
<path fill="none" stroke="#63b8ff" d="M198.2,-55.59C202.37,-48.55 208.23,-38.67 213.37,-30"/>
<polygon fill="#63b8ff" stroke="#63b8ff" points="216.26,-31.99 218.34,-21.6 210.23,-28.42 216.26,-31.99"/>
</a>
</g>
</g>
</g>
</svg>
</svg>

<style type='text/css'>
<![CDATA[
[data-mouse-over-selected='false'] { opacity: 0.7; }
[data-mouse-over-selected='true']  { opacity: 1.0; }
]]>
</style>
<script type="application/ecmascript"><![CDATA[
document.addEventListener('DOMContentLoaded', (event) => {
  highlightEdges();
  highlightAdjacentNodes();
});
]]></script>
</svg>
