<?xml version="1.0" encoding="UTF-8" standalone="no"?>
<!DOCTYPE svg PUBLIC "-//W3C//DTD SVG 1.1//EN"
 "http://www.w3.org/Graphics/SVG/1.1/DTD/svg11.dtd">
<!-- Generated by graphviz version 12.2.1 (20241206.2353)
 -->
<!-- Title: lib/clock/ErriezDS3231.h Pages: 1 -->
<svg width="132pt" height="84pt"
 viewBox="0.00 0.00 132.00 84.00" xmlns="http://www.w3.org/2000/svg" xmlns:xlink="http://www.w3.org/1999/xlink">
<g id="graph0" class="graph" transform="scale(1 1) rotate(0) translate(4 80)">
<title>lib/clock/ErriezDS3231.h</title>
<!-- Node1 -->
<g id="Node000001" class="node">
<title>Node1</title>
<g id="a_Node000001"><a xlink:title="DS3231 high precision RTC library for Arduino.">
<polygon fill="#999999" stroke="#666666" points="124,-76 0,-76 0,-56 124,-56 124,-76"/>
<text text-anchor="middle" x="62" y="-62.5" font-family="Helvetica,sans-Serif" font-size="10.00">lib/clock/ErriezDS3231.h</text>
</a>
</g>
</g>
<!-- Node2 -->
<g id="Node000002" class="node">
<title>Node2</title>
<g id="a_Node000002"><a xlink:title=" ">
<polygon fill="#e0e0e0" stroke="#999999" points="54.12,-20 5.88,-20 5.88,0 54.12,0 54.12,-20"/>
<text text-anchor="middle" x="30" y="-6.5" font-family="Helvetica,sans-Serif" font-size="10.00">stdint.h</text>
</a>
</g>
</g>
<!-- Node1&#45;&gt;Node2 -->
<g id="edge1_Node000001_Node000002" class="edge">
<title>Node1&#45;&gt;Node2</title>
<g id="a_edge1_Node000001_Node000002"><a xlink:title=" ">
<path fill="none" stroke="#63b8ff" d="M56.43,-55.59C52.25,-48.55 46.4,-38.67 41.26,-30"/>
<polygon fill="#63b8ff" stroke="#63b8ff" points="44.39,-28.42 36.28,-21.6 38.37,-31.99 44.39,-28.42"/>
</a>
</g>
</g>
<!-- Node3 -->
<g id="Node000003" class="node">
<title>Node3</title>
<g id="a_Node000003"><a xlink:title=" ">
<polygon fill="#e0e0e0" stroke="#999999" points="115.5,-20 72.5,-20 72.5,0 115.5,0 115.5,-20"/>
<text text-anchor="middle" x="94" y="-6.5" font-family="Helvetica,sans-Serif" font-size="10.00">time.h</text>
</a>
</g>
</g>
<!-- Node1&#45;&gt;Node3 -->
<g id="edge2_Node000001_Node000003" class="edge">
<title>Node1&#45;&gt;Node3</title>
<g id="a_edge2_Node000001_Node000003"><a xlink:title=" ">
<path fill="none" stroke="#63b8ff" d="M67.57,-55.59C71.75,-48.55 77.6,-38.67 82.74,-30"/>
<polygon fill="#63b8ff" stroke="#63b8ff" points="85.63,-31.99 87.72,-21.6 79.61,-28.42 85.63,-31.99"/>
</a>
</g>
</g>
</g>
</svg>
