<?xml version="1.0" encoding="UTF-8" standalone="no"?>
<!DOCTYPE svg PUBLIC "-//W3C//DTD SVG 1.1//EN"
 "http://www.w3.org/Graphics/SVG/1.1/DTD/svg11.dtd">
<!-- Generated by graphviz version 12.2.1 (20241206.2353)
 -->
<!-- Title: lib/sensors/HMC5883L/HMC5883L_WRAPPER.h Pages: 1 -->
<svg width="368pt" height="164pt"
 viewBox="0.00 0.00 367.50 164.00" xmlns="http://www.w3.org/2000/svg" xmlns:xlink="http://www.w3.org/1999/xlink">

<svg id="main" version="1.1" xmlns="http://www.w3.org/2000/svg" xmlns:xlink="http://www.w3.org/1999/xlink" xml:space="preserve">

<style type="text/css"><![CDATA[
.node, .edge {opacity: 0.7;}
.node.selected, .edge.selected {opacity: 1;}
.edge:hover path { stroke: red; }
.edge:hover polygon { stroke: red; fill: red; }
]]></style>
<script type="application/ecmascript" xlink:href="svg.min.js"/>
<svg id="graph" class="graph">
<g id="graph0" class="graph" transform="scale(1 1) rotate(0) translate(4 160)">
<title>lib/sensors/HMC5883L/HMC5883L_WRAPPER.h</title>
<!-- Node1 -->
<g id="Node000001" class="node">
<title>Node1</title>
<g id="a_Node000001"><a xlink:title=" ">
<polygon fill="#999999" stroke="#666666" points="217,-156 83.25,-156 83.25,-124 217,-124 217,-156"/>
<text text-anchor="start" x="91.25" y="-142.5" font-family="Helvetica,sans-Serif" font-size="10.00">lib/sensors/HMC5883L</text>
<text text-anchor="middle" x="150.12" y="-130.5" font-family="Helvetica,sans-Serif" font-size="10.00">/HMC5883L_WRAPPER.h</text>
</a>
</g>
</g>
<!-- Node2 -->
<g id="Node000002" class="node">
<title>Node2</title>
<g id="a_Node000002"><a xlink:href="includes_8h.html" target="_top" xlink:title=" ">
<polygon fill="white" stroke="#666666" points="60.25,-82 0,-82 0,-62 60.25,-62 60.25,-82"/>
<text text-anchor="middle" x="30.12" y="-68.5" font-family="Helvetica,sans-Serif" font-size="10.00">includes.h</text>
</a>
</g>
</g>
<!-- Node1&#45;&gt;Node2 -->
<g id="edge1_Node000001_Node000002" class="edge">
<title>Node1&#45;&gt;Node2</title>
<g id="a_edge1_Node000001_Node000002"><a xlink:title=" ">
<path fill="none" stroke="#63b8ff" d="M112.06,-118.06C90.33,-106.11 64.15,-91.71 47.33,-82.46"/>
<polygon fill="#63b8ff" stroke="#63b8ff" points="110.22,-121.04 120.66,-122.8 113.59,-114.91 110.22,-121.04"/>
</a>
</g>
</g>
<!-- Node4 -->
<g id="Node000004" class="node">
<title>Node4</title>
<g id="a_Node000004"><a xlink:href="_h_m_c5883_l___w_r_a_p_p_e_r_8cpp.html" target="_top" xlink:title=" ">
<polygon fill="white" stroke="#666666" points="222.25,-88 78,-88 78,-56 222.25,-56 222.25,-88"/>
<text text-anchor="start" x="86" y="-74.5" font-family="Helvetica,sans-Serif" font-size="10.00">lib/sensors/HMC5883L</text>
<text text-anchor="middle" x="150.12" y="-62.5" font-family="Helvetica,sans-Serif" font-size="10.00">/HMC5883L_WRAPPER.cpp</text>
</a>
</g>
</g>
<!-- Node1&#45;&gt;Node4 -->
<g id="edge3_Node000001_Node000004" class="edge">
<title>Node1&#45;&gt;Node4</title>
<g id="a_edge3_Node000001_Node000004"><a xlink:title=" ">
<path fill="none" stroke="#63b8ff" d="M150.12,-112.31C150.12,-104.12 150.12,-95.38 150.12,-88.22"/>
<polygon fill="#63b8ff" stroke="#63b8ff" points="146.63,-112.18 150.13,-122.18 153.63,-112.18 146.63,-112.18"/>
</a>
</g>
</g>
<!-- Node5 -->
<g id="Node000005" class="node">
<title>Node5</title>
<g id="a_Node000005"><a xlink:href="_i_sensor_8cpp.html" target="_top" xlink:title="Implements the SensorWrapper class for managing different sensor types.">
<polygon fill="white" stroke="#666666" points="359.5,-82 240.75,-82 240.75,-62 359.5,-62 359.5,-82"/>
<text text-anchor="middle" x="300.12" y="-68.5" font-family="Helvetica,sans-Serif" font-size="10.00">lib/sensors/ISensor.cpp</text>
</a>
</g>
</g>
<!-- Node1&#45;&gt;Node5 -->
<g id="edge4_Node000001_Node000005" class="edge">
<title>Node1&#45;&gt;Node5</title>
<g id="a_edge4_Node000001_Node000005"><a xlink:title=" ">
<path fill="none" stroke="#63b8ff" d="M195.51,-119.03C223.09,-106.9 257.03,-91.96 278.62,-82.46"/>
<polygon fill="#63b8ff" stroke="#63b8ff" points="194.42,-115.69 186.68,-122.92 197.24,-122.09 194.42,-115.69"/>
</a>
</g>
</g>
<!-- Node3 -->
<g id="Node000003" class="node">
<title>Node3</title>
<g id="a_Node000003"><a xlink:href="main_8cpp.html" target="_top" xlink:title=" ">
<polygon fill="white" stroke="#666666" points="58,-20 2.25,-20 2.25,0 58,0 58,-20"/>
<text text-anchor="middle" x="30.12" y="-6.5" font-family="Helvetica,sans-Serif" font-size="10.00">main.cpp</text>
</a>
</g>
</g>
<!-- Node2&#45;&gt;Node3 -->
<g id="edge2_Node000002_Node000003" class="edge">
<title>Node2&#45;&gt;Node3</title>
<g id="a_edge2_Node000002_Node000003"><a xlink:title=" ">
<path fill="none" stroke="#63b8ff" d="M30.12,-50.25C30.12,-39.97 30.12,-28.09 30.12,-20.11"/>
<polygon fill="#63b8ff" stroke="#63b8ff" points="26.63,-50.11 30.13,-60.11 33.63,-50.11 26.63,-50.11"/>
</a>
</g>
</g>
</g>
</svg>
</svg>

<style type='text/css'>
<![CDATA[
[data-mouse-over-selected='false'] { opacity: 0.7; }
[data-mouse-over-selected='true']  { opacity: 1.0; }
]]>
</style>
<script type="application/ecmascript"><![CDATA[
document.addEventListener('DOMContentLoaded', (event) => {
  highlightEdges();
  highlightAdjacentNodes();
});
]]></script>
</svg>
