<?xml version="1.0" encoding="UTF-8" standalone="no"?>
<!DOCTYPE svg PUBLIC "-//W3C//DTD SVG 1.1//EN"
 "http://www.w3.org/Graphics/SVG/1.1/DTD/svg11.dtd">
<!-- Generated by graphviz version 12.2.1 (20241206.2353)
 -->
<!-- Title: lib/sensors/HMC5883L/HMC5883L.h Pages: 1 -->
<svg width="418pt" height="232pt"
 viewBox="0.00 0.00 418.25 232.00" xmlns="http://www.w3.org/2000/svg" xmlns:xlink="http://www.w3.org/1999/xlink">

<svg id="main" version="1.1" xmlns="http://www.w3.org/2000/svg" xmlns:xlink="http://www.w3.org/1999/xlink" xml:space="preserve">

<style type="text/css"><![CDATA[
.node, .edge {opacity: 0.7;}
.node.selected, .edge.selected {opacity: 1;}
.edge:hover path { stroke: red; }
.edge:hover polygon { stroke: red; fill: red; }
]]></style>
<script type="application/ecmascript" xlink:href="svg.min.js"/>
<svg id="graph" class="graph">
<g id="graph0" class="graph" transform="scale(1 1) rotate(0) translate(4 228)">
<title>lib/sensors/HMC5883L/HMC5883L.h</title>
<!-- Node1 -->
<g id="Node000001" class="node">
<title>Node1</title>
<g id="a_Node000001"><a xlink:title=" ">
<polygon fill="#999999" stroke="#666666" points="186.75,-224 71,-224 71,-192 186.75,-192 186.75,-224"/>
<text text-anchor="start" x="79" y="-210.5" font-family="Helvetica,sans-Serif" font-size="10.00">lib/sensors/HMC5883L</text>
<text text-anchor="middle" x="128.88" y="-198.5" font-family="Helvetica,sans-Serif" font-size="10.00">/HMC5883L.h</text>
</a>
</g>
</g>
<!-- Node2 -->
<g id="Node000002" class="node">
<title>Node2</title>
<g id="a_Node000002"><a xlink:href="_h_m_c5883_l_8cpp.html" target="_top" xlink:title=" ">
<polygon fill="white" stroke="#666666" points="115.75,-156 0,-156 0,-124 115.75,-124 115.75,-156"/>
<text text-anchor="start" x="8" y="-142.5" font-family="Helvetica,sans-Serif" font-size="10.00">lib/sensors/HMC5883L</text>
<text text-anchor="middle" x="57.88" y="-130.5" font-family="Helvetica,sans-Serif" font-size="10.00">/HMC5883L.cpp</text>
</a>
</g>
</g>
<!-- Node1&#45;&gt;Node2 -->
<g id="edge1_Node000001_Node000002" class="edge">
<title>Node1&#45;&gt;Node2</title>
<g id="a_edge1_Node000001_Node000002"><a xlink:title=" ">
<path fill="none" stroke="#63b8ff" d="M104.12,-183.99C94.23,-174.79 83.11,-164.46 74.25,-156.22"/>
<polygon fill="#63b8ff" stroke="#63b8ff" points="101.59,-186.42 111.3,-190.66 106.36,-181.29 101.59,-186.42"/>
</a>
</g>
</g>
<!-- Node3 -->
<g id="Node000003" class="node">
<title>Node3</title>
<g id="a_Node000003"><a xlink:href="_h_m_c5883_l___w_r_a_p_p_e_r_8h.html" target="_top" xlink:title=" ">
<polygon fill="white" stroke="#666666" points="267.75,-156 134,-156 134,-124 267.75,-124 267.75,-156"/>
<text text-anchor="start" x="142" y="-142.5" font-family="Helvetica,sans-Serif" font-size="10.00">lib/sensors/HMC5883L</text>
<text text-anchor="middle" x="200.88" y="-130.5" font-family="Helvetica,sans-Serif" font-size="10.00">/HMC5883L_WRAPPER.h</text>
</a>
</g>
</g>
<!-- Node1&#45;&gt;Node3 -->
<g id="edge2_Node000001_Node000003" class="edge">
<title>Node1&#45;&gt;Node3</title>
<g id="a_edge2_Node000001_Node000003"><a xlink:title=" ">
<path fill="none" stroke="#63b8ff" d="M153.98,-183.99C164.01,-174.79 175.29,-164.46 184.27,-156.22"/>
<polygon fill="#63b8ff" stroke="#63b8ff" points="151.7,-181.33 146.69,-190.67 156.43,-186.49 151.7,-181.33"/>
</a>
</g>
</g>
<!-- Node4 -->
<g id="Node000004" class="node">
<title>Node4</title>
<g id="a_Node000004"><a xlink:href="includes_8h.html" target="_top" xlink:title=" ">
<polygon fill="white" stroke="#666666" points="111,-82 50.75,-82 50.75,-62 111,-62 111,-82"/>
<text text-anchor="middle" x="80.88" y="-68.5" font-family="Helvetica,sans-Serif" font-size="10.00">includes.h</text>
</a>
</g>
</g>
<!-- Node3&#45;&gt;Node4 -->
<g id="edge3_Node000003_Node000004" class="edge">
<title>Node3&#45;&gt;Node4</title>
<g id="a_edge3_Node000003_Node000004"><a xlink:title=" ">
<path fill="none" stroke="#63b8ff" d="M162.81,-118.06C141.08,-106.11 114.9,-91.71 98.08,-82.46"/>
<polygon fill="#63b8ff" stroke="#63b8ff" points="160.97,-121.04 171.41,-122.8 164.34,-114.91 160.97,-121.04"/>
</a>
</g>
</g>
<!-- Node6 -->
<g id="Node000006" class="node">
<title>Node6</title>
<g id="a_Node000006"><a xlink:href="_h_m_c5883_l___w_r_a_p_p_e_r_8cpp.html" target="_top" xlink:title=" ">
<polygon fill="white" stroke="#666666" points="273,-88 128.75,-88 128.75,-56 273,-56 273,-88"/>
<text text-anchor="start" x="136.75" y="-74.5" font-family="Helvetica,sans-Serif" font-size="10.00">lib/sensors/HMC5883L</text>
<text text-anchor="middle" x="200.88" y="-62.5" font-family="Helvetica,sans-Serif" font-size="10.00">/HMC5883L_WRAPPER.cpp</text>
</a>
</g>
</g>
<!-- Node3&#45;&gt;Node6 -->
<g id="edge5_Node000003_Node000006" class="edge">
<title>Node3&#45;&gt;Node6</title>
<g id="a_edge5_Node000003_Node000006"><a xlink:title=" ">
<path fill="none" stroke="#63b8ff" d="M200.88,-112.31C200.88,-104.12 200.88,-95.38 200.88,-88.22"/>
<polygon fill="#63b8ff" stroke="#63b8ff" points="197.38,-112.18 200.88,-122.18 204.38,-112.18 197.38,-112.18"/>
</a>
</g>
</g>
<!-- Node7 -->
<g id="Node000007" class="node">
<title>Node7</title>
<g id="a_Node000007"><a xlink:href="_i_sensor_8cpp.html" target="_top" xlink:title="Implements the SensorWrapper class for managing different sensor types.">
<polygon fill="white" stroke="#666666" points="410.25,-82 291.5,-82 291.5,-62 410.25,-62 410.25,-82"/>
<text text-anchor="middle" x="350.88" y="-68.5" font-family="Helvetica,sans-Serif" font-size="10.00">lib/sensors/ISensor.cpp</text>
</a>
</g>
</g>
<!-- Node3&#45;&gt;Node7 -->
<g id="edge6_Node000003_Node000007" class="edge">
<title>Node3&#45;&gt;Node7</title>
<g id="a_edge6_Node000003_Node000007"><a xlink:title=" ">
<path fill="none" stroke="#63b8ff" d="M246.26,-119.03C273.84,-106.9 307.78,-91.96 329.37,-82.46"/>
<polygon fill="#63b8ff" stroke="#63b8ff" points="245.17,-115.69 237.43,-122.92 247.99,-122.09 245.17,-115.69"/>
</a>
</g>
</g>
<!-- Node5 -->
<g id="Node000005" class="node">
<title>Node5</title>
<g id="a_Node000005"><a xlink:href="main_8cpp.html" target="_top" xlink:title=" ">
<polygon fill="white" stroke="#666666" points="108.75,-20 53,-20 53,0 108.75,0 108.75,-20"/>
<text text-anchor="middle" x="80.88" y="-6.5" font-family="Helvetica,sans-Serif" font-size="10.00">main.cpp</text>
</a>
</g>
</g>
<!-- Node4&#45;&gt;Node5 -->
<g id="edge4_Node000004_Node000005" class="edge">
<title>Node4&#45;&gt;Node5</title>
<g id="a_edge4_Node000004_Node000005"><a xlink:title=" ">
<path fill="none" stroke="#63b8ff" d="M80.88,-50.25C80.88,-39.97 80.88,-28.09 80.88,-20.11"/>
<polygon fill="#63b8ff" stroke="#63b8ff" points="77.38,-50.11 80.88,-60.11 84.38,-50.11 77.38,-50.11"/>
</a>
</g>
</g>
</g>
</svg>
</svg>

<style type='text/css'>
<![CDATA[
[data-mouse-over-selected='false'] { opacity: 0.7; }
[data-mouse-over-selected='true']  { opacity: 1.0; }
]]>
</style>
<script type="application/ecmascript"><![CDATA[
document.addEventListener('DOMContentLoaded', (event) => {
  highlightEdges();
  highlightAdjacentNodes();
});
]]></script>
</svg>
