<?xml version="1.0" encoding="UTF-8" standalone="no"?>
<!DOCTYPE svg PUBLIC "-//W3C//DTD SVG 1.1//EN"
 "http://www.w3.org/Graphics/SVG/1.1/DTD/svg11.dtd">
<!-- Generated by graphviz version 12.2.1 (20241206.2353)
 -->
<!-- Title: lib/sensors/HMC5883L/HMC5883L_WRAPPER.cpp Pages: 1 -->
<svg width="277pt" height="208pt"
 viewBox="0.00 0.00 277.00 208.00" xmlns="http://www.w3.org/2000/svg" xmlns:xlink="http://www.w3.org/1999/xlink">
<g id="graph0" class="graph" transform="scale(1 1) rotate(0) translate(4 204)">
<title>lib/sensors/HMC5883L/HMC5883L_WRAPPER.cpp</title>
<!-- Node1 -->
<g id="Node000001" class="node">
<title>Node1</title>
<g id="a_Node000001"><a xlink:title=" ">
<polygon fill="#999999" stroke="#666666" points="259,-200 114.75,-200 114.75,-168 259,-168 259,-200"/>
<text text-anchor="start" x="122.75" y="-186.5" font-family="Helvetica,sans-Serif" font-size="10.00">lib/sensors/HMC5883L</text>
<text text-anchor="middle" x="186.88" y="-174.5" font-family="Helvetica,sans-Serif" font-size="10.00">/HMC5883L_WRAPPER.cpp</text>
</a>
</g>
</g>
<!-- Node2 -->
<g id="Node000002" class="node">
<title>Node2</title>
<g id="a_Node000002"><a xlink:href="_h_m_c5883_l___w_r_a_p_p_e_r_8h.html" target="_top" xlink:title=" ">
<polygon fill="white" stroke="#666666" points="147.25,-132 16.5,-132 16.5,-112 147.25,-112 147.25,-132"/>
<text text-anchor="middle" x="81.88" y="-118.5" font-family="Helvetica,sans-Serif" font-size="10.00">HMC5883L_WRAPPER.h</text>
</a>
</g>
</g>
<!-- Node1&#45;&gt;Node2 -->
<g id="edge1_Node000001_Node000002" class="edge">
<title>Node1&#45;&gt;Node2</title>
<g id="a_edge1_Node000001_Node000002"><a xlink:title=" ">
<path fill="none" stroke="#63b8ff" d="M159.83,-167.55C143.88,-158.43 123.8,-146.96 108.01,-137.93"/>
<polygon fill="#63b8ff" stroke="#63b8ff" points="110.07,-135.08 99.65,-133.16 106.6,-141.16 110.07,-135.08"/>
</a>
</g>
</g>
<!-- Node9 -->
<g id="Node000009" class="node">
<title>Node9</title>
<g id="a_Node000009"><a xlink:title=" ">
<polygon fill="#e0e0e0" stroke="#999999" points="208.38,-132 165.38,-132 165.38,-112 208.38,-112 208.38,-132"/>
<text text-anchor="middle" x="186.88" y="-118.5" font-family="Helvetica,sans-Serif" font-size="10.00">cmath</text>
</a>
</g>
</g>
<!-- Node1&#45;&gt;Node9 -->
<g id="edge9_Node000001_Node000009" class="edge">
<title>Node1&#45;&gt;Node9</title>
<g id="a_edge9_Node000001_Node000009"><a xlink:title=" ">
<path fill="none" stroke="#63b8ff" d="M186.88,-167.55C186.88,-160.34 186.88,-151.66 186.88,-143.88"/>
<polygon fill="#63b8ff" stroke="#63b8ff" points="190.38,-143.92 186.88,-133.92 183.38,-143.92 190.38,-143.92"/>
</a>
</g>
</g>
<!-- Node10 -->
<g id="Node000010" class="node">
<title>Node10</title>
<g id="a_Node000010"><a xlink:title=" ">
<polygon fill="#e0e0e0" stroke="#999999" points="269,-132 226.75,-132 226.75,-112 269,-112 269,-132"/>
<text text-anchor="middle" x="247.88" y="-118.5" font-family="Helvetica,sans-Serif" font-size="10.00">cstdio</text>
</a>
</g>
</g>
<!-- Node1&#45;&gt;Node10 -->
<g id="edge10_Node000001_Node000010" class="edge">
<title>Node1&#45;&gt;Node10</title>
<g id="a_edge10_Node000001_Node000010"><a xlink:title=" ">
<path fill="none" stroke="#63b8ff" d="M202.58,-167.55C211.06,-159.22 221.54,-148.91 230.28,-140.3"/>
<polygon fill="#63b8ff" stroke="#63b8ff" points="232.56,-142.98 237.23,-133.47 227.65,-137.99 232.56,-142.98"/>
</a>
</g>
</g>
<!-- Node3 -->
<g id="Node000003" class="node">
<title>Node3</title>
<g id="a_Node000003"><a xlink:href="_i_sensor_8h.html" target="_top" xlink:title=" ">
<polygon fill="white" stroke="#666666" points="152.88,-76 94.88,-76 94.88,-56 152.88,-56 152.88,-76"/>
<text text-anchor="middle" x="123.88" y="-62.5" font-family="Helvetica,sans-Serif" font-size="10.00">ISensor.h</text>
</a>
</g>
</g>
<!-- Node2&#45;&gt;Node3 -->
<g id="edge2_Node000002_Node000003" class="edge">
<title>Node2&#45;&gt;Node3</title>
<g id="a_edge2_Node000002_Node000003"><a xlink:title=" ">
<path fill="none" stroke="#63b8ff" d="M89.19,-111.59C94.85,-104.32 102.86,-94.02 109.76,-85.15"/>
<polygon fill="#63b8ff" stroke="#63b8ff" points="112.34,-87.54 115.71,-77.49 106.81,-83.24 112.34,-87.54"/>
</a>
</g>
</g>
<!-- Node8 -->
<g id="Node000008" class="node">
<title>Node8</title>
<g id="a_Node000008"><a xlink:href="_h_m_c5883_l_8h.html" target="_top" xlink:title=" ">
<polygon fill="white" stroke="#666666" points="76.75,-76 3,-76 3,-56 76.75,-56 76.75,-76"/>
<text text-anchor="middle" x="39.88" y="-62.5" font-family="Helvetica,sans-Serif" font-size="10.00">HMC5883L.h</text>
</a>
</g>
</g>
<!-- Node2&#45;&gt;Node8 -->
<g id="edge7_Node000002_Node000008" class="edge">
<title>Node2&#45;&gt;Node8</title>
<g id="a_edge7_Node000002_Node000008"><a xlink:title=" ">
<path fill="none" stroke="#63b8ff" d="M74.56,-111.59C68.9,-104.32 60.89,-94.02 53.99,-85.15"/>
<polygon fill="#63b8ff" stroke="#63b8ff" points="56.94,-83.24 48.04,-77.49 51.41,-87.54 56.94,-83.24"/>
</a>
</g>
</g>
<!-- Node4 -->
<g id="Node000004" class="node">
<title>Node4</title>
<g id="a_Node000004"><a xlink:title=" ">
<polygon fill="#e0e0e0" stroke="#999999" points="143.5,-20 98.25,-20 98.25,0 143.5,0 143.5,-20"/>
<text text-anchor="middle" x="120.88" y="-6.5" font-family="Helvetica,sans-Serif" font-size="10.00">cstdint</text>
</a>
</g>
</g>
<!-- Node3&#45;&gt;Node4 -->
<g id="edge3_Node000003_Node000004" class="edge">
<title>Node3&#45;&gt;Node4</title>
<g id="a_edge3_Node000003_Node000004"><a xlink:title=" ">
<path fill="none" stroke="#63b8ff" d="M123.35,-55.59C122.99,-49.01 122.48,-39.96 122.03,-31.73"/>
<polygon fill="#63b8ff" stroke="#63b8ff" points="125.52,-31.6 121.48,-21.81 118.54,-31.99 125.52,-31.6"/>
</a>
</g>
</g>
<!-- Node5 -->
<g id="Node000005" class="node">
<title>Node5</title>
<g id="a_Node000005"><a xlink:title=" ">
<polygon fill="#e0e0e0" stroke="#999999" points="79.75,-20 0,-20 0,0 79.75,0 79.75,-20"/>
<text text-anchor="middle" x="39.88" y="-6.5" font-family="Helvetica,sans-Serif" font-size="10.00">hardware/i2c.h</text>
</a>
</g>
</g>
<!-- Node3&#45;&gt;Node5 -->
<g id="edge4_Node000003_Node000005" class="edge">
<title>Node3&#45;&gt;Node5</title>
<g id="a_edge4_Node000003_Node000005"><a xlink:title=" ">
<path fill="none" stroke="#63b8ff" d="M109.24,-55.59C96.79,-47.59 78.66,-35.93 64.05,-26.54"/>
<polygon fill="#63b8ff" stroke="#63b8ff" points="66.2,-23.76 55.89,-21.3 62.41,-29.65 66.2,-23.76"/>
</a>
</g>
</g>
<!-- Node6 -->
<g id="Node000006" class="node">
<title>Node6</title>
<g id="a_Node000006"><a xlink:title=" ">
<polygon fill="#e0e0e0" stroke="#999999" points="196.25,-20 161.5,-20 161.5,0 196.25,0 196.25,-20"/>
<text text-anchor="middle" x="178.88" y="-6.5" font-family="Helvetica,sans-Serif" font-size="10.00">map</text>
</a>
</g>
</g>
<!-- Node3&#45;&gt;Node6 -->
<g id="edge5_Node000003_Node000006" class="edge">
<title>Node3&#45;&gt;Node6</title>
<g id="a_edge5_Node000003_Node000006"><a xlink:title=" ">
<path fill="none" stroke="#63b8ff" d="M133.46,-55.59C141.11,-48.08 152.03,-37.35 161.25,-28.3"/>
<polygon fill="#63b8ff" stroke="#63b8ff" points="163.64,-30.86 168.32,-21.36 158.74,-25.87 163.64,-30.86"/>
</a>
</g>
</g>
<!-- Node7 -->
<g id="Node000007" class="node">
<title>Node7</title>
<g id="a_Node000007"><a xlink:title=" ">
<polygon fill="#e0e0e0" stroke="#999999" points="253.88,-20 213.88,-20 213.88,0 253.88,0 253.88,-20"/>
<text text-anchor="middle" x="233.88" y="-6.5" font-family="Helvetica,sans-Serif" font-size="10.00">string</text>
</a>
</g>
</g>
<!-- Node3&#45;&gt;Node7 -->
<g id="edge6_Node000003_Node000007" class="edge">
<title>Node3&#45;&gt;Node7</title>
<g id="a_edge6_Node000003_Node000007"><a xlink:title=" ">
<path fill="none" stroke="#63b8ff" d="M143.04,-55.59C159.97,-47.28 184.92,-35.03 204.4,-25.47"/>
<polygon fill="#63b8ff" stroke="#63b8ff" points="205.77,-28.7 213.21,-21.15 202.69,-22.41 205.77,-28.7"/>
</a>
</g>
</g>
<!-- Node8&#45;&gt;Node5 -->
<g id="edge8_Node000008_Node000005" class="edge">
<title>Node8&#45;&gt;Node5</title>
<g id="a_edge8_Node000008_Node000005"><a xlink:title=" ">
<path fill="none" stroke="#63b8ff" d="M39.88,-55.59C39.88,-49.01 39.88,-39.96 39.88,-31.73"/>
<polygon fill="#63b8ff" stroke="#63b8ff" points="43.38,-31.81 39.88,-21.81 36.38,-31.81 43.38,-31.81"/>
</a>
</g>
</g>
</g>
</svg>
