<?xml version="1.0" encoding="UTF-8" standalone="no"?>
<!DOCTYPE svg PUBLIC "-//W3C//DTD SVG 1.1//EN"
 "http://www.w3.org/Graphics/SVG/1.1/DTD/svg11.dtd">
<!-- Generated by graphviz version 12.2.1 (20241206.2353)
 -->
<!-- Title: lib/powerman/INA3221/INA3221.h Pages: 1 -->
<svg width="2016pt" height="380pt"
 viewBox="0.00 0.00 2015.62 380.00" xmlns="http://www.w3.org/2000/svg" xmlns:xlink="http://www.w3.org/1999/xlink">
<g id="graph0" class="graph" transform="scale(1 1) rotate(0) translate(4 376)">
<title>lib/powerman/INA3221/INA3221.h</title>
<!-- Node1 -->
<g id="Node000001" class="node">
<title>Node1</title>
<g id="a_Node000001"><a xlink:title=" ">
<polygon fill="#999999" stroke="#666666" points="736.62,-372 621.62,-372 621.62,-340 736.62,-340 736.62,-372"/>
<text text-anchor="start" x="629.62" y="-358.5" font-family="Helvetica,sans-Serif" font-size="10.00">lib/powerman/INA3221</text>
<text text-anchor="middle" x="679.12" y="-346.5" font-family="Helvetica,sans-Serif" font-size="10.00">/INA3221.h</text>
</a>
</g>
</g>
<!-- Node2 -->
<g id="Node000002" class="node">
<title>Node2</title>
<g id="a_Node000002"><a xlink:href="_i_n_a3221_8cpp.html" target="_top" xlink:title=" ">
<polygon fill="white" stroke="#666666" points="661.62,-304 546.62,-304 546.62,-272 661.62,-272 661.62,-304"/>
<text text-anchor="start" x="554.62" y="-290.5" font-family="Helvetica,sans-Serif" font-size="10.00">lib/powerman/INA3221</text>
<text text-anchor="middle" x="604.12" y="-278.5" font-family="Helvetica,sans-Serif" font-size="10.00">/INA3221.cpp</text>
</a>
</g>
</g>
<!-- Node1&#45;&gt;Node2 -->
<g id="edge1_Node000001_Node000002" class="edge">
<title>Node1&#45;&gt;Node2</title>
<g id="a_edge1_Node000001_Node000002"><a xlink:title=" ">
<path fill="none" stroke="#63b8ff" d="M653.35,-332.32C642.91,-323.13 631.11,-312.75 621.69,-304.45"/>
<polygon fill="#63b8ff" stroke="#63b8ff" points="650.77,-334.71 660.59,-338.69 655.4,-329.46 650.77,-334.71"/>
</a>
</g>
</g>
<!-- Node3 -->
<g id="Node000003" class="node">
<title>Node3</title>
<g id="a_Node000003"><a xlink:href="_power_manager_8h.html" target="_top" xlink:title=" ">
<polygon fill="white" stroke="#666666" points="830.25,-298 680,-298 680,-278 830.25,-278 830.25,-298"/>
<text text-anchor="middle" x="755.12" y="-284.5" font-family="Helvetica,sans-Serif" font-size="10.00">lib/powerman/PowerManager.h</text>
</a>
</g>
</g>
<!-- Node1&#45;&gt;Node3 -->
<g id="edge2_Node000001_Node000003" class="edge">
<title>Node1&#45;&gt;Node3</title>
<g id="a_edge2_Node000001_Node000003"><a xlink:title=" ">
<path fill="none" stroke="#63b8ff" d="M705.18,-332.38C718.6,-320.72 734.24,-307.13 744.4,-298.32"/>
<polygon fill="#63b8ff" stroke="#63b8ff" points="703.15,-329.5 697.89,-338.7 707.74,-334.79 703.15,-329.5"/>
</a>
</g>
</g>
<!-- Node4 -->
<g id="Node000004" class="node">
<title>Node4</title>
<g id="a_Node000004"><a xlink:href="includes_8h.html" target="_top" xlink:title=" ">
<polygon fill="white" stroke="#666666" points="60.25,-94 0,-94 0,-74 60.25,-74 60.25,-94"/>
<text text-anchor="middle" x="30.12" y="-80.5" font-family="Helvetica,sans-Serif" font-size="10.00">includes.h</text>
</a>
</g>
</g>
<!-- Node3&#45;&gt;Node4 -->
<g id="edge3_Node000003_Node000004" class="edge">
<title>Node3&#45;&gt;Node4</title>
<g id="a_edge3_Node000003_Node000004"><a xlink:title=" ">
<path fill="none" stroke="#63b8ff" d="M691.5,-275.58C527.58,-246.16 103.35,-169.87 100.12,-168 68.64,-149.77 44.84,-111.85 35.04,-94.29"/>
<polygon fill="#63b8ff" stroke="#63b8ff" points="690.43,-278.95 700.89,-277.27 691.67,-272.06 690.43,-278.95"/>
</a>
</g>
</g>
<!-- Node6 -->
<g id="Node000006" class="node">
<title>Node6</title>
<g id="a_Node000006"><a xlink:href="protocol_8h.html" target="_top" xlink:title=" ">
<polygon fill="white" stroke="#666666" points="708.5,-230 601.75,-230 601.75,-210 708.5,-210 708.5,-230"/>
<text text-anchor="middle" x="655.12" y="-216.5" font-family="Helvetica,sans-Serif" font-size="10.00">lib/comms/protocol.h</text>
</a>
</g>
</g>
<!-- Node3&#45;&gt;Node6 -->
<g id="edge5_Node000003_Node000006" class="edge">
<title>Node3&#45;&gt;Node6</title>
<g id="a_edge5_Node000003_Node000006"><a xlink:title=" ">
<path fill="none" stroke="#63b8ff" d="M731.21,-271.22C711.96,-258.51 685.53,-241.07 669.43,-230.44"/>
<polygon fill="#63b8ff" stroke="#63b8ff" points="729.26,-274.12 739.53,-276.71 733.12,-268.28 729.26,-274.12"/>
</a>
</g>
</g>
<!-- Node26 -->
<g id="Node000026" class="node">
<title>Node26</title>
<g id="a_Node000026"><a xlink:href="event__manager_8h.html" target="_top" xlink:title=" ">
<polygon fill="white" stroke="#666666" points="904.38,-236 805.88,-236 805.88,-204 904.38,-204 904.38,-236"/>
<text text-anchor="start" x="813.88" y="-222.5" font-family="Helvetica,sans-Serif" font-size="10.00">lib/eventman/event</text>
<text text-anchor="middle" x="855.12" y="-210.5" font-family="Helvetica,sans-Serif" font-size="10.00">_manager.h</text>
</a>
</g>
</g>
<!-- Node3&#45;&gt;Node26 -->
<g id="edge31_Node000003_Node000026" class="edge">
<title>Node3&#45;&gt;Node26</title>
<g id="a_edge31_Node000003_Node000026"><a xlink:title=" ">
<path fill="none" stroke="#63b8ff" d="M778.71,-271.44C794.78,-260.83 815.96,-246.85 831.94,-236.3"/>
<polygon fill="#63b8ff" stroke="#63b8ff" points="777.13,-268.28 770.72,-276.71 780.99,-274.12 777.13,-268.28"/>
</a>
</g>
</g>
<!-- Node28 -->
<g id="Node000028" class="node">
<title>Node28</title>
<g id="a_Node000028"><a xlink:href="_power_manager_8cpp.html" target="_top" xlink:title=" ">
<polygon fill="white" stroke="#666666" points="1083.5,-230 922.75,-230 922.75,-210 1083.5,-210 1083.5,-230"/>
<text text-anchor="middle" x="1003.12" y="-216.5" font-family="Helvetica,sans-Serif" font-size="10.00">lib/powerman/PowerManager.cpp</text>
</a>
</g>
</g>
<!-- Node3&#45;&gt;Node28 -->
<g id="edge37_Node000003_Node000028" class="edge">
<title>Node3&#45;&gt;Node28</title>
<g id="a_edge37_Node000003_Node000028"><a xlink:title=" ">
<path fill="none" stroke="#63b8ff" d="M801.71,-274.6C849.89,-261.78 924.04,-242.05 967.66,-230.44"/>
<polygon fill="#63b8ff" stroke="#63b8ff" points="800.88,-271.2 792.12,-277.15 802.68,-277.96 800.88,-271.2"/>
</a>
</g>
</g>
<!-- Node5 -->
<g id="Node000005" class="node">
<title>Node5</title>
<g id="a_Node000005"><a xlink:href="main_8cpp.html" target="_top" xlink:title=" ">
<polygon fill="white" stroke="#666666" points="58,-26 2.25,-26 2.25,-6 58,-6 58,-26"/>
<text text-anchor="middle" x="30.12" y="-12.5" font-family="Helvetica,sans-Serif" font-size="10.00">main.cpp</text>
</a>
</g>
</g>
<!-- Node4&#45;&gt;Node5 -->
<g id="edge4_Node000004_Node000005" class="edge">
<title>Node4&#45;&gt;Node5</title>
<g id="a_edge4_Node000004_Node000005"><a xlink:title=" ">
<path fill="none" stroke="#63b8ff" d="M30.12,-62.28C30.12,-50.27 30.12,-35.74 30.12,-26.44"/>
<polygon fill="#63b8ff" stroke="#63b8ff" points="26.63,-62.03 30.13,-72.03 33.63,-62.03 26.63,-62.03"/>
</a>
</g>
</g>
<!-- Node6&#45;&gt;Node4 -->
<g id="edge6_Node000006_Node000004" class="edge">
<title>Node6&#45;&gt;Node4</title>
<g id="a_edge6_Node000006_Node000004"><a xlink:title=" ">
<path fill="none" stroke="#63b8ff" d="M590.23,-215.74C476.02,-209.43 243.92,-193.82 167.12,-168 116.25,-150.89 64.22,-112.4 41.69,-94.5"/>
<polygon fill="#63b8ff" stroke="#63b8ff" points="589.88,-219.23 600.06,-216.28 590.26,-212.24 589.88,-219.23"/>
</a>
</g>
</g>
<!-- Node7 -->
<g id="Node000007" class="node">
<title>Node7</title>
<g id="a_Node000007"><a xlink:href="commands_8h.html" target="_top" xlink:title=" ">
<polygon fill="white" stroke="#666666" points="332.12,-168 220.12,-168 220.12,-136 332.12,-136 332.12,-168"/>
<text text-anchor="start" x="228.12" y="-154.5" font-family="Helvetica,sans-Serif" font-size="10.00">lib/comms/commands</text>
<text text-anchor="middle" x="276.12" y="-142.5" font-family="Helvetica,sans-Serif" font-size="10.00">/commands.h</text>
</a>
</g>
</g>
<!-- Node6&#45;&gt;Node7 -->
<g id="edge7_Node000006_Node000007" class="edge">
<title>Node6&#45;&gt;Node7</title>
<g id="a_edge7_Node000006_Node000007"><a xlink:title=" ">
<path fill="none" stroke="#63b8ff" d="M590.37,-207.72C517.82,-195.09 401.36,-174.81 332.44,-162.81"/>
<polygon fill="#63b8ff" stroke="#63b8ff" points="589.68,-211.16 600.14,-209.42 590.89,-204.26 589.68,-211.16"/>
</a>
</g>
</g>
<!-- Node10 -->
<g id="Node000010" class="node">
<title>Node10</title>
<g id="a_Node000010"><a xlink:href="communication_8h.html" target="_top" xlink:title=" ">
<polygon fill="white" stroke="#666666" points="924.25,-162 786,-162 786,-142 924.25,-142 924.25,-162"/>
<text text-anchor="middle" x="855.12" y="-148.5" font-family="Helvetica,sans-Serif" font-size="10.00">lib/comms/communication.h</text>
</a>
</g>
</g>
<!-- Node6&#45;&gt;Node10 -->
<g id="edge10_Node000006_Node000010" class="edge">
<title>Node6&#45;&gt;Node10</title>
<g id="a_edge10_Node000006_Node000010"><a xlink:title=" ">
<path fill="none" stroke="#63b8ff" d="M694.68,-205.95C733.56,-193.12 791.94,-173.85 826.52,-162.44"/>
<polygon fill="#63b8ff" stroke="#63b8ff" points="693.62,-202.61 685.22,-209.07 695.81,-209.26 693.62,-202.61"/>
</a>
</g>
</g>
<!-- Node21 -->
<g id="Node000021" class="node">
<title>Node21</title>
<g id="a_Node000021"><a xlink:href="event__manager_8cpp.html" target="_top" xlink:title="Implements the event management system for the Kubisat firmware.">
<polygon fill="white" stroke="#666666" points="1874.38,-100 1775.88,-100 1775.88,-68 1874.38,-68 1874.38,-100"/>
<text text-anchor="start" x="1783.88" y="-86.5" font-family="Helvetica,sans-Serif" font-size="10.00">lib/eventman/event</text>
<text text-anchor="middle" x="1825.12" y="-74.5" font-family="Helvetica,sans-Serif" font-size="10.00">_manager.cpp</text>
</a>
</g>
</g>
<!-- Node6&#45;&gt;Node21 -->
<g id="edge29_Node000006_Node000021" class="edge">
<title>Node6&#45;&gt;Node21</title>
<g id="a_edge29_Node000006_Node000021"><a xlink:title=" ">
<path fill="none" stroke="#63b8ff" d="M720.31,-211.48C790.46,-202.61 896.87,-186.68 933.12,-168 951.29,-158.64 947.37,-144.1 966.12,-136 1129.72,-65.39 1590.92,-126.45 1767.12,-100 1769.9,-99.58 1772.74,-99.09 1775.59,-98.53"/>
<polygon fill="#63b8ff" stroke="#63b8ff" points="719.94,-208 710.45,-212.71 720.81,-214.94 719.94,-208"/>
</a>
</g>
</g>
<!-- Node22 -->
<g id="Node000022" class="node">
<title>Node22</title>
<g id="a_Node000022"><a xlink:href="test__frame__common_8h.html" target="_top" xlink:title=" ">
<polygon fill="white" stroke="#666666" points="478.75,-100 361.5,-100 361.5,-68 478.75,-68 478.75,-100"/>
<text text-anchor="start" x="369.5" y="-86.5" font-family="Helvetica,sans-Serif" font-size="10.00">test/comms/test_frame</text>
<text text-anchor="middle" x="420.12" y="-74.5" font-family="Helvetica,sans-Serif" font-size="10.00">_common.h</text>
</a>
</g>
</g>
<!-- Node6&#45;&gt;Node22 -->
<g id="edge30_Node000006_Node000022" class="edge">
<title>Node6&#45;&gt;Node22</title>
<g id="a_edge30_Node000006_Node000022"><a xlink:title=" ">
<path fill="none" stroke="#63b8ff" d="M628.71,-203.94C583.68,-178.26 492.54,-126.29 447.12,-100.39"/>
<polygon fill="#63b8ff" stroke="#63b8ff" points="626.86,-206.91 637.29,-208.83 630.33,-200.83 626.86,-206.91"/>
</a>
</g>
</g>
<!-- Node8 -->
<g id="Node000008" class="node">
<title>Node8</title>
<g id="a_Node000008"><a xlink:href="commands_8cpp.html" target="_top" xlink:title=" ">
<polygon fill="white" stroke="#666666" points="190.12,-100 78.12,-100 78.12,-68 190.12,-68 190.12,-100"/>
<text text-anchor="start" x="86.12" y="-86.5" font-family="Helvetica,sans-Serif" font-size="10.00">lib/comms/commands</text>
<text text-anchor="middle" x="134.12" y="-74.5" font-family="Helvetica,sans-Serif" font-size="10.00">/commands.cpp</text>
</a>
</g>
</g>
<!-- Node7&#45;&gt;Node8 -->
<g id="edge8_Node000007_Node000008" class="edge">
<title>Node7&#45;&gt;Node8</title>
<g id="a_edge8_Node000007_Node000008"><a xlink:title=" ">
<path fill="none" stroke="#63b8ff" d="M232.54,-130.74C211.5,-120.96 186.67,-109.42 167.21,-100.38"/>
<polygon fill="#63b8ff" stroke="#63b8ff" points="230.92,-133.85 241.46,-134.89 233.87,-127.5 230.92,-133.85"/>
</a>
</g>
</g>
<!-- Node9 -->
<g id="Node000009" class="node">
<title>Node9</title>
<g id="a_Node000009"><a xlink:href="diagnostic__commands_8cpp.html" target="_top" xlink:title=" ">
<polygon fill="white" stroke="#666666" points="343.75,-100 208.5,-100 208.5,-68 343.75,-68 343.75,-100"/>
<text text-anchor="start" x="216.5" y="-86.5" font-family="Helvetica,sans-Serif" font-size="10.00">lib/comms/commands</text>
<text text-anchor="middle" x="276.12" y="-74.5" font-family="Helvetica,sans-Serif" font-size="10.00">/diagnostic_commands.cpp</text>
</a>
</g>
</g>
<!-- Node7&#45;&gt;Node9 -->
<g id="edge9_Node000007_Node000009" class="edge">
<title>Node7&#45;&gt;Node9</title>
<g id="a_edge9_Node000007_Node000009"><a xlink:title=" ">
<path fill="none" stroke="#63b8ff" d="M276.12,-124.31C276.12,-116.12 276.12,-107.38 276.12,-100.22"/>
<polygon fill="#63b8ff" stroke="#63b8ff" points="272.63,-124.18 276.13,-134.18 279.63,-124.18 272.63,-124.18"/>
</a>
</g>
</g>
<!-- Node10&#45;&gt;Node4 -->
<g id="edge11_Node000010_Node000004" class="edge">
<title>Node10&#45;&gt;Node4</title>
<g id="a_edge11_Node000010_Node000004"><a xlink:title=" ">
<path fill="none" stroke="#63b8ff" d="M774.46,-148.85C601.9,-143.75 201.8,-129.11 69.12,-100 63.17,-98.69 56.93,-96.63 51.22,-94.45"/>
<polygon fill="#63b8ff" stroke="#63b8ff" points="774.13,-152.34 784.23,-149.14 774.34,-145.35 774.13,-152.34"/>
</a>
</g>
</g>
<!-- Node10&#45;&gt;Node8 -->
<g id="edge13_Node000010_Node000008" class="edge">
<title>Node10&#45;&gt;Node8</title>
<g id="a_edge13_Node000010_Node000008"><a xlink:title=" ">
<path fill="none" stroke="#63b8ff" d="M774.52,-148.6C650.32,-144.04 404.97,-131.57 199.12,-100 196.26,-99.56 193.34,-99.06 190.4,-98.53"/>
<polygon fill="#63b8ff" stroke="#63b8ff" points="774.16,-152.09 784.28,-148.95 774.41,-145.1 774.16,-152.09"/>
</a>
</g>
</g>
<!-- Node10&#45;&gt;Node9 -->
<g id="edge14_Node000010_Node000009" class="edge">
<title>Node10&#45;&gt;Node9</title>
<g id="a_edge14_Node000010_Node000009"><a xlink:title=" ">
<path fill="none" stroke="#63b8ff" d="M774.23,-145.15C674.61,-137.4 500.35,-122.09 352.12,-100 349.46,-99.6 346.76,-99.18 344.02,-98.73"/>
<polygon fill="#63b8ff" stroke="#63b8ff" points="773.96,-148.64 784.2,-145.92 774.5,-141.66 773.96,-148.64"/>
</a>
</g>
</g>
<!-- Node11 -->
<g id="Node000011" class="node">
<title>Node11</title>
<g id="a_Node000011"><a xlink:href="clock__commands_8cpp.html" target="_top" xlink:title=" ">
<polygon fill="white" stroke="#666666" points="781.25,-100 667,-100 667,-68 781.25,-68 781.25,-100"/>
<text text-anchor="start" x="675" y="-86.5" font-family="Helvetica,sans-Serif" font-size="10.00">lib/comms/commands</text>
<text text-anchor="middle" x="724.12" y="-74.5" font-family="Helvetica,sans-Serif" font-size="10.00">/clock_commands.cpp</text>
</a>
</g>
</g>
<!-- Node10&#45;&gt;Node11 -->
<g id="edge12_Node000010_Node000011" class="edge">
<title>Node10&#45;&gt;Node11</title>
<g id="a_edge12_Node000010_Node000011"><a xlink:title=" ">
<path fill="none" stroke="#63b8ff" d="M826.33,-136.49C805.13,-125.81 776.36,-111.32 754.75,-100.43"/>
<polygon fill="#63b8ff" stroke="#63b8ff" points="824.5,-139.49 835,-140.86 827.65,-133.24 824.5,-139.49"/>
</a>
</g>
</g>
<!-- Node12 -->
<g id="Node000012" class="node">
<title>Node12</title>
<g id="a_Node000012"><a xlink:href="event__commands_8cpp.html" target="_top" xlink:title=" ">
<polygon fill="white" stroke="#666666" points="2007.62,-100 1892.62,-100 1892.62,-68 2007.62,-68 2007.62,-100"/>
<text text-anchor="start" x="1900.62" y="-86.5" font-family="Helvetica,sans-Serif" font-size="10.00">lib/comms/commands</text>
<text text-anchor="middle" x="1950.12" y="-74.5" font-family="Helvetica,sans-Serif" font-size="10.00">/event_commands.cpp</text>
</a>
</g>
</g>
<!-- Node10&#45;&gt;Node12 -->
<g id="edge15_Node000010_Node000012" class="edge">
<title>Node10&#45;&gt;Node12</title>
<g id="a_edge15_Node000010_Node000012"><a xlink:title=" ">
<path fill="none" stroke="#63b8ff" d="M936.01,-142.54C961.03,-140.15 988.7,-137.72 1014.12,-136 1399.79,-109.84 1499.87,-150.43 1883.12,-100 1886.08,-99.61 1889.1,-99.16 1892.13,-98.65"/>
<polygon fill="#63b8ff" stroke="#63b8ff" points="935.84,-139.04 926.22,-143.49 936.52,-146.01 935.84,-139.04"/>
</a>
</g>
</g>
<!-- Node13 -->
<g id="Node000013" class="node">
<title>Node13</title>
<g id="a_Node000013"><a xlink:href="gps__commands_8cpp.html" target="_top" xlink:title=" ">
<polygon fill="white" stroke="#666666" points="911.12,-100 799.12,-100 799.12,-68 911.12,-68 911.12,-100"/>
<text text-anchor="start" x="807.12" y="-86.5" font-family="Helvetica,sans-Serif" font-size="10.00">lib/comms/commands</text>
<text text-anchor="middle" x="855.12" y="-74.5" font-family="Helvetica,sans-Serif" font-size="10.00">/gps_commands.cpp</text>
</a>
</g>
</g>
<!-- Node10&#45;&gt;Node13 -->
<g id="edge16_Node000010_Node000013" class="edge">
<title>Node10&#45;&gt;Node13</title>
<g id="a_edge16_Node000010_Node000013"><a xlink:title=" ">
<path fill="none" stroke="#63b8ff" d="M855.12,-130.1C855.12,-120.43 855.12,-109.16 855.12,-100.3"/>
<polygon fill="#63b8ff" stroke="#63b8ff" points="851.63,-130.03 855.13,-140.03 858.63,-130.03 851.63,-130.03"/>
</a>
</g>
</g>
<!-- Node14 -->
<g id="Node000014" class="node">
<title>Node14</title>
<g id="a_Node000014"><a xlink:href="power__commands_8cpp.html" target="_top" xlink:title=" ">
<polygon fill="white" stroke="#666666" points="1046.75,-100 929.5,-100 929.5,-68 1046.75,-68 1046.75,-100"/>
<text text-anchor="start" x="937.5" y="-86.5" font-family="Helvetica,sans-Serif" font-size="10.00">lib/comms/commands</text>
<text text-anchor="middle" x="988.12" y="-74.5" font-family="Helvetica,sans-Serif" font-size="10.00">/power_commands.cpp</text>
</a>
</g>
</g>
<!-- Node10&#45;&gt;Node14 -->
<g id="edge17_Node000010_Node000014" class="edge">
<title>Node10&#45;&gt;Node14</title>
<g id="a_edge17_Node000010_Node000014"><a xlink:title=" ">
<path fill="none" stroke="#63b8ff" d="M884.36,-136.49C905.88,-125.81 935.09,-111.32 957.04,-100.43"/>
<polygon fill="#63b8ff" stroke="#63b8ff" points="882.94,-133.29 875.54,-140.87 886.05,-139.56 882.94,-133.29"/>
</a>
</g>
</g>
<!-- Node15 -->
<g id="Node000015" class="node">
<title>Node15</title>
<g id="a_Node000015"><a xlink:href="storage__commands__utils_8cpp.html" target="_top" xlink:title=" ">
<polygon fill="white" stroke="#666666" points="1211.38,-100 1064.88,-100 1064.88,-68 1211.38,-68 1211.38,-100"/>
<text text-anchor="start" x="1072.88" y="-86.5" font-family="Helvetica,sans-Serif" font-size="10.00">lib/comms/commands</text>
<text text-anchor="middle" x="1138.12" y="-74.5" font-family="Helvetica,sans-Serif" font-size="10.00">/storage_commands_utils.cpp</text>
</a>
</g>
</g>
<!-- Node10&#45;&gt;Node15 -->
<g id="edge18_Node000010_Node000015" class="edge">
<title>Node10&#45;&gt;Node15</title>
<g id="a_edge18_Node000010_Node000015"><a xlink:title=" ">
<path fill="none" stroke="#63b8ff" d="M906.66,-138.98C952.98,-128.18 1021.29,-112.25 1071.7,-100.49"/>
<polygon fill="#63b8ff" stroke="#63b8ff" points="906.09,-135.52 897.15,-141.2 907.68,-142.34 906.09,-135.52"/>
</a>
</g>
</g>
<!-- Node16 -->
<g id="Node000016" class="node">
<title>Node16</title>
<g id="a_Node000016"><a xlink:href="communication_8cpp.html" target="_top" xlink:title=" ">
<polygon fill="white" stroke="#666666" points="1378.5,-94 1229.75,-94 1229.75,-74 1378.5,-74 1378.5,-94"/>
<text text-anchor="middle" x="1304.12" y="-80.5" font-family="Helvetica,sans-Serif" font-size="10.00">lib/comms/communication.cpp</text>
</a>
</g>
</g>
<!-- Node10&#45;&gt;Node16 -->
<g id="edge19_Node000010_Node000016" class="edge">
<title>Node10&#45;&gt;Node16</title>
<g id="a_edge19_Node000010_Node000016"><a xlink:title=" ">
<path fill="none" stroke="#63b8ff" d="M916.19,-139.59C923.57,-138.32 931.01,-137.1 938.12,-136 1063,-116.76 1095.23,-119.11 1220.12,-100 1230.96,-98.34 1242.55,-96.39 1253.55,-94.45"/>
<polygon fill="#63b8ff" stroke="#63b8ff" points="915.83,-136.1 906.58,-141.28 917.03,-143 915.83,-136.1"/>
</a>
</g>
</g>
<!-- Node17 -->
<g id="Node000017" class="node">
<title>Node17</title>
<g id="a_Node000017"><a xlink:href="frame_8cpp.html" target="_top" xlink:title="Implements functions for encoding, decoding, building, and processing Frames.">
<polygon fill="white" stroke="#666666" points="1503.88,-94 1396.38,-94 1396.38,-74 1503.88,-74 1503.88,-94"/>
<text text-anchor="middle" x="1450.12" y="-80.5" font-family="Helvetica,sans-Serif" font-size="10.00">lib/comms/frame.cpp</text>
</a>
</g>
</g>
<!-- Node10&#45;&gt;Node17 -->
<g id="edge20_Node000010_Node000017" class="edge">
<title>Node10&#45;&gt;Node17</title>
<g id="a_edge20_Node000010_Node000017"><a xlink:title=" ">
<path fill="none" stroke="#63b8ff" d="M914.09,-139.6C922.15,-138.26 930.33,-137.01 938.12,-136 1136.65,-110.17 1189.39,-131.28 1387.12,-100 1396.12,-98.58 1405.73,-96.55 1414.67,-94.45"/>
<polygon fill="#63b8ff" stroke="#63b8ff" points="913.59,-136.14 904.33,-141.29 914.78,-143.04 913.59,-136.14"/>
</a>
</g>
</g>
<!-- Node18 -->
<g id="Node000018" class="node">
<title>Node18</title>
<g id="a_Node000018"><a xlink:href="receive_8cpp.html" target="_top" xlink:title="Implements functions for receiving and processing data, including LoRa and UART input.">
<polygon fill="white" stroke="#666666" points="1636.25,-94 1522,-94 1522,-74 1636.25,-74 1636.25,-94"/>
<text text-anchor="middle" x="1579.12" y="-80.5" font-family="Helvetica,sans-Serif" font-size="10.00">lib/comms/receive.cpp</text>
</a>
</g>
</g>
<!-- Node10&#45;&gt;Node18 -->
<g id="edge21_Node000010_Node000018" class="edge">
<title>Node10&#45;&gt;Node18</title>
<g id="a_edge21_Node000010_Node000018"><a xlink:title=" ">
<path fill="none" stroke="#63b8ff" d="M913.18,-139.62C921.53,-138.25 930.03,-136.98 938.12,-136 1192.32,-105.18 1259.68,-136.49 1513.12,-100 1522.66,-98.63 1532.86,-96.59 1542.32,-94.47"/>
<polygon fill="#63b8ff" stroke="#63b8ff" points="912.7,-136.15 903.44,-141.3 913.89,-143.05 912.7,-136.15"/>
</a>
</g>
</g>
<!-- Node19 -->
<g id="Node000019" class="node">
<title>Node19</title>
<g id="a_Node000019"><a xlink:href="send_8cpp.html" target="_top" xlink:title="Implements functions for sending data, including LoRa messages and Frames.">
<polygon fill="white" stroke="#666666" points="1758,-94 1654.25,-94 1654.25,-74 1758,-74 1758,-94"/>
<text text-anchor="middle" x="1706.12" y="-80.5" font-family="Helvetica,sans-Serif" font-size="10.00">lib/comms/send.cpp</text>
</a>
</g>
</g>
<!-- Node10&#45;&gt;Node19 -->
<g id="edge22_Node000010_Node000019" class="edge">
<title>Node10&#45;&gt;Node19</title>
<g id="a_edge22_Node000010_Node000019"><a xlink:title=" ">
<path fill="none" stroke="#63b8ff" d="M912.58,-139.63C921.11,-138.23 929.83,-136.96 938.12,-136 1250.68,-99.95 1333.84,-145.77 1645.12,-100 1654.08,-98.68 1663.64,-96.64 1672.47,-94.49"/>
<polygon fill="#63b8ff" stroke="#63b8ff" points="912.26,-136.14 902.99,-141.28 913.44,-143.04 912.26,-136.14"/>
</a>
</g>
</g>
<!-- Node20 -->
<g id="Node000020" class="node">
<title>Node20</title>
<g id="a_Node000020"><a xlink:href="utils__converters_8cpp.html" target="_top" xlink:title="Implements utility functions for converting between different data types.">
<polygon fill="white" stroke="#666666" points="649,-94 497.25,-94 497.25,-74 649,-74 649,-94"/>
<text text-anchor="middle" x="573.12" y="-80.5" font-family="Helvetica,sans-Serif" font-size="10.00">lib/comms/utils_converters.cpp</text>
</a>
</g>
</g>
<!-- Node10&#45;&gt;Node20 -->
<g id="edge23_Node000010_Node000020" class="edge">
<title>Node10&#45;&gt;Node20</title>
<g id="a_edge23_Node000010_Node000020"><a xlink:title=" ">
<path fill="none" stroke="#63b8ff" d="M803.53,-138.92C748.8,-126.11 663.47,-106.14 613.45,-94.44"/>
<polygon fill="#63b8ff" stroke="#63b8ff" points="802.71,-142.33 813.25,-141.2 804.31,-135.51 802.71,-142.33"/>
</a>
</g>
</g>
<!-- Node10&#45;&gt;Node21 -->
<g id="edge24_Node000010_Node000021" class="edge">
<title>Node10&#45;&gt;Node21</title>
<g id="a_edge24_Node000010_Node000021"><a xlink:title=" ">
<path fill="none" stroke="#63b8ff" d="M912.26,-139.63C920.9,-138.21 929.73,-136.94 938.12,-136 1304.64,-95.11 1402.38,-154.47 1767.12,-100 1769.9,-99.59 1772.74,-99.09 1775.59,-98.54"/>
<polygon fill="#63b8ff" stroke="#63b8ff" points="911.81,-136.15 902.55,-141.3 913,-143.05 911.81,-136.15"/>
</a>
</g>
</g>
<!-- Node10&#45;&gt;Node22 -->
<g id="edge25_Node000010_Node000022" class="edge">
<title>Node10&#45;&gt;Node22</title>
<g id="a_edge25_Node000010_Node000022"><a xlink:title=" ">
<path fill="none" stroke="#63b8ff" d="M774.37,-141.64C699.81,-132.56 586.14,-117.59 488.12,-100 485.15,-99.47 482.11,-98.89 479.04,-98.29"/>
<polygon fill="#63b8ff" stroke="#63b8ff" points="773.68,-145.08 784.03,-142.81 774.52,-138.13 773.68,-145.08"/>
</a>
</g>
</g>
<!-- Node23 -->
<g id="Node000023" class="node">
<title>Node23</title>
<g id="a_Node000023"><a xlink:href="test__converters_8cpp.html" target="_top" xlink:title=" ">
<polygon fill="white" stroke="#666666" points="498.62,-26 341.62,-26 341.62,-6 498.62,-6 498.62,-26"/>
<text text-anchor="middle" x="420.12" y="-12.5" font-family="Helvetica,sans-Serif" font-size="10.00">test/comms/test_converters.cpp</text>
</a>
</g>
</g>
<!-- Node22&#45;&gt;Node23 -->
<g id="edge26_Node000022_Node000023" class="edge">
<title>Node22&#45;&gt;Node23</title>
<g id="a_edge26_Node000022_Node000023"><a xlink:title=" ">
<path fill="none" stroke="#63b8ff" d="M420.12,-56.31C420.12,-45.67 420.12,-34.13 420.12,-26.32"/>
<polygon fill="#63b8ff" stroke="#63b8ff" points="416.63,-56.18 420.13,-66.18 423.63,-56.18 416.63,-56.18"/>
</a>
</g>
</g>
<!-- Node24 -->
<g id="Node000024" class="node">
<title>Node24</title>
<g id="a_Node000024"><a xlink:href="test__frame__build_8cpp.html" target="_top" xlink:title=" ">
<polygon fill="white" stroke="#666666" points="633.75,-32 516.5,-32 516.5,0 633.75,0 633.75,-32"/>
<text text-anchor="start" x="524.5" y="-18.5" font-family="Helvetica,sans-Serif" font-size="10.00">test/comms/test_frame</text>
<text text-anchor="middle" x="575.12" y="-6.5" font-family="Helvetica,sans-Serif" font-size="10.00">_build.cpp</text>
</a>
</g>
</g>
<!-- Node22&#45;&gt;Node24 -->
<g id="edge27_Node000022_Node000024" class="edge">
<title>Node22&#45;&gt;Node24</title>
<g id="a_edge27_Node000022_Node000024"><a xlink:title=" ">
<path fill="none" stroke="#63b8ff" d="M467.03,-63.03C490.04,-53.23 517.34,-41.61 538.74,-32.49"/>
<polygon fill="#63b8ff" stroke="#63b8ff" points="465.69,-59.79 457.86,-66.93 468.43,-66.24 465.69,-59.79"/>
</a>
</g>
</g>
<!-- Node25 -->
<g id="Node000025" class="node">
<title>Node25</title>
<g id="a_Node000025"><a xlink:href="test__frame__coding_8cpp.html" target="_top" xlink:title=" ">
<polygon fill="white" stroke="#666666" points="323.75,-32 206.5,-32 206.5,0 323.75,0 323.75,-32"/>
<text text-anchor="start" x="214.5" y="-18.5" font-family="Helvetica,sans-Serif" font-size="10.00">test/comms/test_frame</text>
<text text-anchor="middle" x="265.12" y="-6.5" font-family="Helvetica,sans-Serif" font-size="10.00">_coding.cpp</text>
</a>
</g>
</g>
<!-- Node22&#45;&gt;Node25 -->
<g id="edge28_Node000022_Node000025" class="edge">
<title>Node22&#45;&gt;Node25</title>
<g id="a_edge28_Node000022_Node000025"><a xlink:title=" ">
<path fill="none" stroke="#63b8ff" d="M373.22,-63.03C350.21,-53.23 322.91,-41.61 301.51,-32.49"/>
<polygon fill="#63b8ff" stroke="#63b8ff" points="371.82,-66.24 382.39,-66.93 374.56,-59.79 371.82,-66.24"/>
</a>
</g>
</g>
<!-- Node26&#45;&gt;Node4 -->
<g id="edge32_Node000026_Node000004" class="edge">
<title>Node26&#45;&gt;Node4</title>
<g id="a_edge32_Node000026_Node000004"><a xlink:title=" ">
<path fill="none" stroke="#63b8ff" d="M794.55,-211.92C770.47,-209.24 742.51,-206.28 717.12,-204 492.57,-183.82 428.19,-228.95 211.12,-168 181.27,-159.62 177.17,-149.23 149.12,-136 116.39,-120.56 77.77,-104.37 53.6,-94.48"/>
<polygon fill="#63b8ff" stroke="#63b8ff" points="793.84,-215.36 804.16,-213 794.62,-208.41 793.84,-215.36"/>
</a>
</g>
</g>
<!-- Node26&#45;&gt;Node10 -->
<g id="edge34_Node000026_Node000010" class="edge">
<title>Node26&#45;&gt;Node10</title>
<g id="a_edge34_Node000026_Node000010"><a xlink:title=" ">
<path fill="none" stroke="#63b8ff" d="M855.12,-192.31C855.12,-181.67 855.12,-170.13 855.12,-162.32"/>
<polygon fill="#63b8ff" stroke="#63b8ff" points="851.63,-192.18 855.13,-202.18 858.63,-192.18 851.63,-192.18"/>
</a>
</g>
</g>
<!-- Node26&#45;&gt;Node12 -->
<g id="edge33_Node000026_Node000012" class="edge">
<title>Node26&#45;&gt;Node12</title>
<g id="a_edge33_Node000026_Node000012"><a xlink:title=" ">
<path fill="none" stroke="#63b8ff" d="M915.47,-203.01C943.29,-194.47 976.26,-182.68 1004.12,-168 1025.2,-156.9 1024.68,-143.98 1047.12,-136 1222.34,-73.74 1698.78,-124.41 1883.12,-100 1886.08,-99.61 1889.1,-99.15 1892.13,-98.64"/>
<polygon fill="#63b8ff" stroke="#63b8ff" points="914.71,-199.58 906.13,-205.8 916.72,-206.29 914.71,-199.58"/>
</a>
</g>
</g>
<!-- Node26&#45;&gt;Node21 -->
<g id="edge35_Node000026_Node000021" class="edge">
<title>Node26&#45;&gt;Node21</title>
<g id="a_edge35_Node000026_Node000021"><a xlink:title=" ">
<path fill="none" stroke="#63b8ff" d="M902.97,-199C922.86,-190.18 945.96,-179.26 966.12,-168 988.51,-155.5 989.77,-144.01 1014.12,-136 1173.26,-83.64 1601.49,-125.1 1767.12,-100 1769.9,-99.58 1772.74,-99.08 1775.59,-98.52"/>
<polygon fill="#63b8ff" stroke="#63b8ff" points="901.74,-195.71 893.98,-202.93 904.55,-202.13 901.74,-195.71"/>
</a>
</g>
</g>
<!-- Node27 -->
<g id="Node000027" class="node">
<title>Node27</title>
<g id="a_Node000027"><a xlink:href="gps__collector_8cpp.html" target="_top" xlink:title=" ">
<polygon fill="white" stroke="#666666" points="1198.12,-162 1056.12,-162 1056.12,-142 1198.12,-142 1198.12,-162"/>
<text text-anchor="middle" x="1127.12" y="-148.5" font-family="Helvetica,sans-Serif" font-size="10.00">lib/location/gps_collector.cpp</text>
</a>
</g>
</g>
<!-- Node26&#45;&gt;Node27 -->
<g id="edge36_Node000026_Node000027" class="edge">
<title>Node26&#45;&gt;Node27</title>
<g id="a_edge36_Node000026_Node000027"><a xlink:title=" ">
<path fill="none" stroke="#63b8ff" d="M915.7,-203.63C981.6,-187.41 1046.46,-172 1087.04,-162.42"/>
<polygon fill="#63b8ff" stroke="#63b8ff" points="915.03,-200.19 906.16,-205.98 916.7,-206.99 915.03,-200.19"/>
</a>
</g>
</g>
</g>
</svg>
