<?xml version="1.0" encoding="UTF-8" standalone="no"?>
<!DOCTYPE svg PUBLIC "-//W3C//DTD SVG 1.1//EN"
 "http://www.w3.org/Graphics/SVG/1.1/DTD/svg11.dtd">
<!-- Generated by graphviz version 12.2.1 (20241206.2353)
 -->
<!-- Title: lib/powerman/INA3221/INA3221.h Pages: 1 -->
<svg width="1715pt" height="368pt"
 viewBox="0.00 0.00 1714.62 368.00" xmlns="http://www.w3.org/2000/svg" xmlns:xlink="http://www.w3.org/1999/xlink">
<g id="graph0" class="graph" transform="scale(1 1) rotate(0) translate(4 364)">
<title>lib/powerman/INA3221/INA3221.h</title>
<!-- Node1 -->
<g id="Node000001" class="node">
<title>Node1</title>
<g id="a_Node000001"><a xlink:title=" ">
<polygon fill="#999999" stroke="#666666" points="762.62,-360 647.62,-360 647.62,-328 762.62,-328 762.62,-360"/>
<text text-anchor="start" x="655.62" y="-346.5" font-family="Helvetica,sans-Serif" font-size="10.00">lib/powerman/INA3221</text>
<text text-anchor="middle" x="705.12" y="-334.5" font-family="Helvetica,sans-Serif" font-size="10.00">/INA3221.h</text>
</a>
</g>
</g>
<!-- Node2 -->
<g id="Node000002" class="node">
<title>Node2</title>
<g id="a_Node000002"><a xlink:href="_i_n_a3221_8cpp.html" target="_top" xlink:title=" ">
<polygon fill="white" stroke="#666666" points="687.62,-292 572.62,-292 572.62,-260 687.62,-260 687.62,-292"/>
<text text-anchor="start" x="580.62" y="-278.5" font-family="Helvetica,sans-Serif" font-size="10.00">lib/powerman/INA3221</text>
<text text-anchor="middle" x="630.12" y="-266.5" font-family="Helvetica,sans-Serif" font-size="10.00">/INA3221.cpp</text>
</a>
</g>
</g>
<!-- Node1&#45;&gt;Node2 -->
<g id="edge1_Node000001_Node000002" class="edge">
<title>Node1&#45;&gt;Node2</title>
<g id="a_edge1_Node000001_Node000002"><a xlink:title=" ">
<path fill="none" stroke="#63b8ff" d="M679.35,-320.32C668.91,-311.13 657.11,-300.75 647.69,-292.45"/>
<polygon fill="#63b8ff" stroke="#63b8ff" points="676.77,-322.71 686.59,-326.69 681.4,-317.46 676.77,-322.71"/>
</a>
</g>
</g>
<!-- Node3 -->
<g id="Node000003" class="node">
<title>Node3</title>
<g id="a_Node000003"><a xlink:href="_power_manager_8h.html" target="_top" xlink:title=" ">
<polygon fill="white" stroke="#666666" points="856.25,-286 706,-286 706,-266 856.25,-266 856.25,-286"/>
<text text-anchor="middle" x="781.12" y="-272.5" font-family="Helvetica,sans-Serif" font-size="10.00">lib/powerman/PowerManager.h</text>
</a>
</g>
</g>
<!-- Node1&#45;&gt;Node3 -->
<g id="edge2_Node000001_Node000003" class="edge">
<title>Node1&#45;&gt;Node3</title>
<g id="a_edge2_Node000001_Node000003"><a xlink:title=" ">
<path fill="none" stroke="#63b8ff" d="M731.18,-320.38C744.6,-308.72 760.24,-295.13 770.4,-286.32"/>
<polygon fill="#63b8ff" stroke="#63b8ff" points="729.15,-317.5 723.89,-326.7 733.74,-322.79 729.15,-317.5"/>
</a>
</g>
</g>
<!-- Node4 -->
<g id="Node000004" class="node">
<title>Node4</title>
<g id="a_Node000004"><a xlink:href="includes_8h.html" target="_top" xlink:title=" ">
<polygon fill="white" stroke="#666666" points="60.25,-82 0,-82 0,-62 60.25,-62 60.25,-82"/>
<text text-anchor="middle" x="30.12" y="-68.5" font-family="Helvetica,sans-Serif" font-size="10.00">includes.h</text>
</a>
</g>
</g>
<!-- Node3&#45;&gt;Node4 -->
<g id="edge3_Node000003_Node000004" class="edge">
<title>Node3&#45;&gt;Node4</title>
<g id="a_edge3_Node000003_Node000004"><a xlink:title=" ">
<path fill="none" stroke="#63b8ff" d="M717.02,-263.52C710.3,-262.33 703.57,-261.14 697.12,-260 431.89,-213.22 333.68,-290.13 100.12,-156 68.58,-137.88 44.81,-99.91 35.02,-82.31"/>
<polygon fill="#63b8ff" stroke="#63b8ff" points="716.31,-266.95 726.77,-265.26 717.53,-260.06 716.31,-266.95"/>
</a>
</g>
</g>
<!-- Node6 -->
<g id="Node000006" class="node">
<title>Node6</title>
<g id="a_Node000006"><a xlink:href="protocol_8h.html" target="_top" xlink:title=" ">
<polygon fill="white" stroke="#666666" points="773.5,-218 666.75,-218 666.75,-198 773.5,-198 773.5,-218"/>
<text text-anchor="middle" x="720.12" y="-204.5" font-family="Helvetica,sans-Serif" font-size="10.00">lib/comms/protocol.h</text>
</a>
</g>
</g>
<!-- Node3&#45;&gt;Node6 -->
<g id="edge5_Node000003_Node000006" class="edge">
<title>Node3&#45;&gt;Node6</title>
<g id="a_edge5_Node000003_Node000006"><a xlink:title=" ">
<path fill="none" stroke="#63b8ff" d="M764.72,-257.25C753.17,-244.76 738.17,-228.53 728.85,-218.44"/>
<polygon fill="#63b8ff" stroke="#63b8ff" points="762,-259.46 771.36,-264.43 767.14,-254.71 762,-259.46"/>
</a>
</g>
</g>
<!-- Node21 -->
<g id="Node000021" class="node">
<title>Node21</title>
<g id="a_Node000021"><a xlink:href="event__manager_8h.html" target="_top" xlink:title=" ">
<polygon fill="white" stroke="#666666" points="890.38,-224 791.88,-224 791.88,-192 890.38,-192 890.38,-224"/>
<text text-anchor="start" x="799.88" y="-210.5" font-family="Helvetica,sans-Serif" font-size="10.00">lib/eventman/event</text>
<text text-anchor="middle" x="841.12" y="-198.5" font-family="Helvetica,sans-Serif" font-size="10.00">_manager.h</text>
</a>
</g>
</g>
<!-- Node3&#45;&gt;Node21 -->
<g id="edge25_Node000003_Node000021" class="edge">
<title>Node3&#45;&gt;Node21</title>
<g id="a_edge25_Node000003_Node000021"><a xlink:title=" ">
<path fill="none" stroke="#63b8ff" d="M797.22,-257.29C806.58,-247 818.26,-234.15 827.21,-224.3"/>
<polygon fill="#63b8ff" stroke="#63b8ff" points="794.88,-254.67 790.74,-264.42 800.06,-259.38 794.88,-254.67"/>
</a>
</g>
</g>
<!-- Node23 -->
<g id="Node000023" class="node">
<title>Node23</title>
<g id="a_Node000023"><a xlink:href="_power_manager_8cpp.html" target="_top" xlink:title=" ">
<polygon fill="white" stroke="#666666" points="1069.5,-218 908.75,-218 908.75,-198 1069.5,-198 1069.5,-218"/>
<text text-anchor="middle" x="989.12" y="-204.5" font-family="Helvetica,sans-Serif" font-size="10.00">lib/powerman/PowerManager.cpp</text>
</a>
</g>
</g>
<!-- Node3&#45;&gt;Node23 -->
<g id="edge31_Node000003_Node000023" class="edge">
<title>Node3&#45;&gt;Node23</title>
<g id="a_edge31_Node000003_Node000023"><a xlink:title=" ">
<path fill="none" stroke="#63b8ff" d="M821.74,-262.11C862.17,-249.28 923.26,-229.9 959.38,-218.44"/>
<polygon fill="#63b8ff" stroke="#63b8ff" points="820.84,-258.73 812.37,-265.09 822.96,-265.4 820.84,-258.73"/>
</a>
</g>
</g>
<!-- Node5 -->
<g id="Node000005" class="node">
<title>Node5</title>
<g id="a_Node000005"><a xlink:href="main_8cpp.html" target="_top" xlink:title=" ">
<polygon fill="white" stroke="#666666" points="58,-20 2.25,-20 2.25,0 58,0 58,-20"/>
<text text-anchor="middle" x="30.12" y="-6.5" font-family="Helvetica,sans-Serif" font-size="10.00">main.cpp</text>
</a>
</g>
</g>
<!-- Node4&#45;&gt;Node5 -->
<g id="edge4_Node000004_Node000005" class="edge">
<title>Node4&#45;&gt;Node5</title>
<g id="a_edge4_Node000004_Node000005"><a xlink:title=" ">
<path fill="none" stroke="#63b8ff" d="M30.12,-50.25C30.12,-39.97 30.12,-28.09 30.12,-20.11"/>
<polygon fill="#63b8ff" stroke="#63b8ff" points="26.63,-50.11 30.13,-60.11 33.63,-50.11 26.63,-50.11"/>
</a>
</g>
</g>
<!-- Node6&#45;&gt;Node4 -->
<g id="edge6_Node000006_Node000004" class="edge">
<title>Node6&#45;&gt;Node4</title>
<g id="a_edge6_Node000006_Node000004"><a xlink:title=" ">
<path fill="none" stroke="#63b8ff" d="M655,-204.66C528.93,-199.53 256.15,-185.34 167.12,-156 115.89,-139.11 63.63,-100.16 41.32,-82.28"/>
<polygon fill="#63b8ff" stroke="#63b8ff" points="654.72,-208.15 664.85,-205.05 655,-201.16 654.72,-208.15"/>
</a>
</g>
</g>
<!-- Node7 -->
<g id="Node000007" class="node">
<title>Node7</title>
<g id="a_Node000007"><a xlink:href="commands_8h.html" target="_top" xlink:title=" ">
<polygon fill="white" stroke="#666666" points="332.12,-156 220.12,-156 220.12,-124 332.12,-124 332.12,-156"/>
<text text-anchor="start" x="228.12" y="-142.5" font-family="Helvetica,sans-Serif" font-size="10.00">lib/comms/commands</text>
<text text-anchor="middle" x="276.12" y="-130.5" font-family="Helvetica,sans-Serif" font-size="10.00">/commands.h</text>
</a>
</g>
</g>
<!-- Node6&#45;&gt;Node7 -->
<g id="edge7_Node000006_Node000007" class="edge">
<title>Node6&#45;&gt;Node7</title>
<g id="a_edge7_Node000006_Node000007"><a xlink:title=" ">
<path fill="none" stroke="#63b8ff" d="M655.25,-197.36C568.12,-184.41 414.76,-161.61 332.32,-149.35"/>
<polygon fill="#63b8ff" stroke="#63b8ff" points="654.67,-200.81 665.07,-198.82 655.69,-193.88 654.67,-200.81"/>
</a>
</g>
</g>
<!-- Node10 -->
<g id="Node000010" class="node">
<title>Node10</title>
<g id="a_Node000010"><a xlink:href="communication_8h.html" target="_top" xlink:title=" ">
<polygon fill="white" stroke="#666666" points="850.25,-150 712,-150 712,-130 850.25,-130 850.25,-150"/>
<text text-anchor="middle" x="781.12" y="-136.5" font-family="Helvetica,sans-Serif" font-size="10.00">lib/comms/communication.h</text>
</a>
</g>
</g>
<!-- Node6&#45;&gt;Node10 -->
<g id="edge10_Node000006_Node000010" class="edge">
<title>Node6&#45;&gt;Node10</title>
<g id="a_edge10_Node000006_Node000010"><a xlink:title=" ">
<path fill="none" stroke="#63b8ff" d="M736.53,-189.25C748.08,-176.76 763.08,-160.53 772.4,-150.44"/>
<polygon fill="#63b8ff" stroke="#63b8ff" points="734.11,-186.71 729.89,-196.43 739.25,-191.46 734.11,-186.71"/>
</a>
</g>
</g>
<!-- Node20 -->
<g id="Node000020" class="node">
<title>Node20</title>
<g id="a_Node000020"><a xlink:href="event__manager_8cpp.html" target="_top" xlink:title="Implements the event management system for the Kubisat firmware.">
<polygon fill="white" stroke="#666666" points="1573.38,-88 1474.88,-88 1474.88,-56 1573.38,-56 1573.38,-88"/>
<text text-anchor="start" x="1482.88" y="-74.5" font-family="Helvetica,sans-Serif" font-size="10.00">lib/eventman/event</text>
<text text-anchor="middle" x="1524.12" y="-62.5" font-family="Helvetica,sans-Serif" font-size="10.00">_manager.cpp</text>
</a>
</g>
</g>
<!-- Node6&#45;&gt;Node20 -->
<g id="edge24_Node000006_Node000020" class="edge">
<title>Node6&#45;&gt;Node20</title>
<g id="a_edge24_Node000006_Node000020"><a xlink:title=" ">
<path fill="none" stroke="#63b8ff" d="M769.67,-194.34C797.29,-185.96 831.58,-173.3 859.12,-156 876.43,-145.13 873.44,-132.26 892.12,-124 1009.01,-72.31 1339.91,-108.09 1466.12,-88 1468.9,-87.56 1471.73,-87.04 1474.58,-86.47"/>
<polygon fill="#63b8ff" stroke="#63b8ff" points="768.73,-190.97 760.12,-197.14 770.7,-197.69 768.73,-190.97"/>
</a>
</g>
</g>
<!-- Node8 -->
<g id="Node000008" class="node">
<title>Node8</title>
<g id="a_Node000008"><a xlink:href="commands_8cpp.html" target="_top" xlink:title=" ">
<polygon fill="white" stroke="#666666" points="190.12,-88 78.12,-88 78.12,-56 190.12,-56 190.12,-88"/>
<text text-anchor="start" x="86.12" y="-74.5" font-family="Helvetica,sans-Serif" font-size="10.00">lib/comms/commands</text>
<text text-anchor="middle" x="134.12" y="-62.5" font-family="Helvetica,sans-Serif" font-size="10.00">/commands.cpp</text>
</a>
</g>
</g>
<!-- Node7&#45;&gt;Node8 -->
<g id="edge8_Node000007_Node000008" class="edge">
<title>Node7&#45;&gt;Node8</title>
<g id="a_edge8_Node000007_Node000008"><a xlink:title=" ">
<path fill="none" stroke="#63b8ff" d="M232.54,-118.74C211.5,-108.96 186.67,-97.42 167.21,-88.38"/>
<polygon fill="#63b8ff" stroke="#63b8ff" points="230.92,-121.85 241.46,-122.89 233.87,-115.5 230.92,-121.85"/>
</a>
</g>
</g>
<!-- Node9 -->
<g id="Node000009" class="node">
<title>Node9</title>
<g id="a_Node000009"><a xlink:href="diagnostic__commands_8cpp.html" target="_top" xlink:title=" ">
<polygon fill="white" stroke="#666666" points="343.75,-88 208.5,-88 208.5,-56 343.75,-56 343.75,-88"/>
<text text-anchor="start" x="216.5" y="-74.5" font-family="Helvetica,sans-Serif" font-size="10.00">lib/comms/commands</text>
<text text-anchor="middle" x="276.12" y="-62.5" font-family="Helvetica,sans-Serif" font-size="10.00">/diagnostic_commands.cpp</text>
</a>
</g>
</g>
<!-- Node7&#45;&gt;Node9 -->
<g id="edge9_Node000007_Node000009" class="edge">
<title>Node7&#45;&gt;Node9</title>
<g id="a_edge9_Node000007_Node000009"><a xlink:title=" ">
<path fill="none" stroke="#63b8ff" d="M276.12,-112.31C276.12,-104.12 276.12,-95.38 276.12,-88.22"/>
<polygon fill="#63b8ff" stroke="#63b8ff" points="272.63,-112.18 276.13,-122.18 279.63,-112.18 272.63,-112.18"/>
</a>
</g>
</g>
<!-- Node10&#45;&gt;Node4 -->
<g id="edge11_Node000010_Node000004" class="edge">
<title>Node10&#45;&gt;Node4</title>
<g id="a_edge11_Node000010_Node000004"><a xlink:title=" ">
<path fill="none" stroke="#63b8ff" d="M700.57,-136.22C540.45,-130.21 187.4,-114.37 69.12,-88 63.18,-86.67 56.93,-84.6 51.23,-82.42"/>
<polygon fill="#63b8ff" stroke="#63b8ff" points="700.13,-139.71 710.25,-136.58 700.39,-132.71 700.13,-139.71"/>
</a>
</g>
</g>
<!-- Node10&#45;&gt;Node8 -->
<g id="edge13_Node000010_Node000008" class="edge">
<title>Node10&#45;&gt;Node8</title>
<g id="a_edge13_Node000010_Node000008"><a xlink:title=" ">
<path fill="none" stroke="#63b8ff" d="M700.5,-135.49C587.75,-129.78 376.85,-116.15 199.12,-88 196.27,-87.55 193.34,-87.04 190.4,-86.49"/>
<polygon fill="#63b8ff" stroke="#63b8ff" points="700.09,-138.98 710.25,-135.98 700.43,-131.98 700.09,-138.98"/>
</a>
</g>
</g>
<!-- Node10&#45;&gt;Node9 -->
<g id="edge14_Node000010_Node000009" class="edge">
<title>Node10&#45;&gt;Node9</title>
<g id="a_edge14_Node000010_Node000009"><a xlink:title=" ">
<path fill="none" stroke="#63b8ff" d="M700.5,-131.27C614.09,-122.56 473.01,-107.09 352.12,-88 349.47,-87.58 346.76,-87.14 344.03,-86.67"/>
<polygon fill="#63b8ff" stroke="#63b8ff" points="700,-134.74 710.29,-132.26 700.69,-127.78 700,-134.74"/>
</a>
</g>
</g>
<!-- Node11 -->
<g id="Node000011" class="node">
<title>Node11</title>
<g id="a_Node000011"><a xlink:href="clock__commands_8cpp.html" target="_top" xlink:title=" ">
<polygon fill="white" stroke="#666666" points="1327.25,-88 1213,-88 1213,-56 1327.25,-56 1327.25,-88"/>
<text text-anchor="start" x="1221" y="-74.5" font-family="Helvetica,sans-Serif" font-size="10.00">lib/comms/commands</text>
<text text-anchor="middle" x="1270.12" y="-62.5" font-family="Helvetica,sans-Serif" font-size="10.00">/clock_commands.cpp</text>
</a>
</g>
</g>
<!-- Node10&#45;&gt;Node11 -->
<g id="edge12_Node000010_Node000011" class="edge">
<title>Node10&#45;&gt;Node11</title>
<g id="a_edge12_Node000010_Node000011"><a xlink:title=" ">
<path fill="none" stroke="#63b8ff" d="M841.31,-127.59C848.97,-126.29 856.72,-125.06 864.12,-124 1014.55,-102.47 1054.22,-112.88 1204.12,-88 1206.91,-87.54 1209.75,-87.03 1212.61,-86.49"/>
<polygon fill="#63b8ff" stroke="#63b8ff" points="840.93,-124.1 831.67,-129.26 842.13,-131 840.93,-124.1"/>
</a>
</g>
</g>
<!-- Node12 -->
<g id="Node000012" class="node">
<title>Node12</title>
<g id="a_Node000012"><a xlink:href="event__commands_8cpp.html" target="_top" xlink:title=" ">
<polygon fill="white" stroke="#666666" points="1706.62,-88 1591.62,-88 1591.62,-56 1706.62,-56 1706.62,-88"/>
<text text-anchor="start" x="1599.62" y="-74.5" font-family="Helvetica,sans-Serif" font-size="10.00">lib/comms/commands</text>
<text text-anchor="middle" x="1649.12" y="-62.5" font-family="Helvetica,sans-Serif" font-size="10.00">/event_commands.cpp</text>
</a>
</g>
</g>
<!-- Node10&#45;&gt;Node12 -->
<g id="edge15_Node000010_Node000012" class="edge">
<title>Node10&#45;&gt;Node12</title>
<g id="a_edge15_Node000010_Node000012"><a xlink:title=" ">
<path fill="none" stroke="#63b8ff" d="M861.84,-130.5C885.44,-128.19 911.3,-125.82 935.12,-124 1222.29,-102.04 1296.86,-127.59 1582.12,-88 1585.08,-87.59 1588.09,-87.12 1591.13,-86.6"/>
<polygon fill="#63b8ff" stroke="#63b8ff" points="861.56,-127.01 851.96,-131.48 862.25,-133.98 861.56,-127.01"/>
</a>
</g>
</g>
<!-- Node13 -->
<g id="Node000013" class="node">
<title>Node13</title>
<g id="a_Node000013"><a xlink:href="gps__commands_8cpp.html" target="_top" xlink:title=" ">
<polygon fill="white" stroke="#666666" points="1457.12,-88 1345.12,-88 1345.12,-56 1457.12,-56 1457.12,-88"/>
<text text-anchor="start" x="1353.12" y="-74.5" font-family="Helvetica,sans-Serif" font-size="10.00">lib/comms/commands</text>
<text text-anchor="middle" x="1401.12" y="-62.5" font-family="Helvetica,sans-Serif" font-size="10.00">/gps_commands.cpp</text>
</a>
</g>
</g>
<!-- Node10&#45;&gt;Node13 -->
<g id="edge16_Node000010_Node000013" class="edge">
<title>Node10&#45;&gt;Node13</title>
<g id="a_edge16_Node000010_Node000013"><a xlink:title=" ">
<path fill="none" stroke="#63b8ff" d="M840.09,-127.58C848.15,-126.24 856.33,-125 864.12,-124 1072.81,-97.26 1128.15,-119.74 1336.12,-88 1338.99,-87.56 1341.91,-87.07 1344.85,-86.53"/>
<polygon fill="#63b8ff" stroke="#63b8ff" points="839.59,-124.11 830.33,-129.26 840.78,-131.01 839.59,-124.11"/>
</a>
</g>
</g>
<!-- Node14 -->
<g id="Node000014" class="node">
<title>Node14</title>
<g id="a_Node000014"><a xlink:href="power__commands_8cpp.html" target="_top" xlink:title=" ">
<polygon fill="white" stroke="#666666" points="478.75,-88 361.5,-88 361.5,-56 478.75,-56 478.75,-88"/>
<text text-anchor="start" x="369.5" y="-74.5" font-family="Helvetica,sans-Serif" font-size="10.00">lib/comms/commands</text>
<text text-anchor="middle" x="420.12" y="-62.5" font-family="Helvetica,sans-Serif" font-size="10.00">/power_commands.cpp</text>
</a>
</g>
</g>
<!-- Node10&#45;&gt;Node14 -->
<g id="edge17_Node000010_Node000014" class="edge">
<title>Node10&#45;&gt;Node14</title>
<g id="a_edge17_Node000010_Node000014"><a xlink:title=" ">
<path fill="none" stroke="#63b8ff" d="M710.92,-127.69C651.46,-117.89 564.03,-102.97 488.12,-88 485.16,-87.42 482.13,-86.8 479.06,-86.17"/>
<polygon fill="#63b8ff" stroke="#63b8ff" points="710.13,-131.1 720.56,-129.27 711.26,-124.2 710.13,-131.1"/>
</a>
</g>
</g>
<!-- Node15 -->
<g id="Node000015" class="node">
<title>Node15</title>
<g id="a_Node000015"><a xlink:href="communication_8cpp.html" target="_top" xlink:title=" ">
<polygon fill="white" stroke="#666666" points="645.5,-82 496.75,-82 496.75,-62 645.5,-62 645.5,-82"/>
<text text-anchor="middle" x="571.12" y="-68.5" font-family="Helvetica,sans-Serif" font-size="10.00">lib/comms/communication.cpp</text>
</a>
</g>
</g>
<!-- Node10&#45;&gt;Node15 -->
<g id="edge18_Node000010_Node000015" class="edge">
<title>Node10&#45;&gt;Node15</title>
<g id="a_edge18_Node000010_Node000015"><a xlink:title=" ">
<path fill="none" stroke="#63b8ff" d="M740.12,-126.11C699.3,-113.28 637.62,-93.9 601.16,-82.44"/>
<polygon fill="#63b8ff" stroke="#63b8ff" points="739,-129.43 749.59,-129.09 741.1,-122.75 739,-129.43"/>
</a>
</g>
</g>
<!-- Node16 -->
<g id="Node000016" class="node">
<title>Node16</title>
<g id="a_Node000016"><a xlink:href="frame_8cpp.html" target="_top" xlink:title="Implements functions for encoding, decoding, building, and processing Frames.">
<polygon fill="white" stroke="#666666" points="770.88,-82 663.38,-82 663.38,-62 770.88,-62 770.88,-82"/>
<text text-anchor="middle" x="717.12" y="-68.5" font-family="Helvetica,sans-Serif" font-size="10.00">lib/comms/frame.cpp</text>
</a>
</g>
</g>
<!-- Node10&#45;&gt;Node16 -->
<g id="edge19_Node000010_Node000016" class="edge">
<title>Node10&#45;&gt;Node16</title>
<g id="a_edge19_Node000010_Node000016"><a xlink:title=" ">
<path fill="none" stroke="#63b8ff" d="M764.26,-121.61C752.1,-109.07 736.16,-92.63 726.28,-82.44"/>
<polygon fill="#63b8ff" stroke="#63b8ff" points="761.43,-123.71 770.9,-128.46 766.45,-118.84 761.43,-123.71"/>
</a>
</g>
</g>
<!-- Node17 -->
<g id="Node000017" class="node">
<title>Node17</title>
<g id="a_Node000017"><a xlink:href="receive_8cpp.html" target="_top" xlink:title="Implements functions for receiving and processing data, including LoRa and UART input.">
<polygon fill="white" stroke="#666666" points="903.25,-82 789,-82 789,-62 903.25,-62 903.25,-82"/>
<text text-anchor="middle" x="846.12" y="-68.5" font-family="Helvetica,sans-Serif" font-size="10.00">lib/comms/receive.cpp</text>
</a>
</g>
</g>
<!-- Node10&#45;&gt;Node17 -->
<g id="edge20_Node000010_Node000017" class="edge">
<title>Node10&#45;&gt;Node17</title>
<g id="a_edge20_Node000010_Node000017"><a xlink:title=" ">
<path fill="none" stroke="#63b8ff" d="M798.25,-121.61C810.6,-109.07 826.8,-92.63 836.83,-82.44"/>
<polygon fill="#63b8ff" stroke="#63b8ff" points="796.02,-118.88 791.5,-128.47 801.01,-123.8 796.02,-118.88"/>
</a>
</g>
</g>
<!-- Node18 -->
<g id="Node000018" class="node">
<title>Node18</title>
<g id="a_Node000018"><a xlink:href="send_8cpp.html" target="_top" xlink:title="Implements functions for sending data, including LoRa messages and Frames.">
<polygon fill="white" stroke="#666666" points="1025,-82 921.25,-82 921.25,-62 1025,-62 1025,-82"/>
<text text-anchor="middle" x="973.12" y="-68.5" font-family="Helvetica,sans-Serif" font-size="10.00">lib/comms/send.cpp</text>
</a>
</g>
</g>
<!-- Node10&#45;&gt;Node18 -->
<g id="edge21_Node000010_Node000018" class="edge">
<title>Node10&#45;&gt;Node18</title>
<g id="a_edge21_Node000010_Node000018"><a xlink:title=" ">
<path fill="none" stroke="#63b8ff" d="M819.1,-125.95C856.42,-113.12 912.47,-93.85 945.67,-82.44"/>
<polygon fill="#63b8ff" stroke="#63b8ff" points="818.38,-122.49 810.07,-129.05 820.66,-129.11 818.38,-122.49"/>
</a>
</g>
</g>
<!-- Node19 -->
<g id="Node000019" class="node">
<title>Node19</title>
<g id="a_Node000019"><a xlink:href="utils__converters_8cpp.html" target="_top" xlink:title="Implements utility functions for converting between different data types.">
<polygon fill="white" stroke="#666666" points="1195,-82 1043.25,-82 1043.25,-62 1195,-62 1195,-82"/>
<text text-anchor="middle" x="1119.12" y="-68.5" font-family="Helvetica,sans-Serif" font-size="10.00">lib/comms/utils_converters.cpp</text>
</a>
</g>
</g>
<!-- Node10&#45;&gt;Node19 -->
<g id="edge22_Node000010_Node000019" class="edge">
<title>Node10&#45;&gt;Node19</title>
<g id="a_edge22_Node000010_Node000019"><a xlink:title=" ">
<path fill="none" stroke="#63b8ff" d="M840.5,-127.41C905.88,-114.64 1009.77,-94.35 1070.51,-82.49"/>
<polygon fill="#63b8ff" stroke="#63b8ff" points="840.18,-123.9 831.04,-129.25 841.52,-130.77 840.18,-123.9"/>
</a>
</g>
</g>
<!-- Node10&#45;&gt;Node20 -->
<g id="edge23_Node000010_Node000020" class="edge">
<title>Node10&#45;&gt;Node20</title>
<g id="a_edge23_Node000010_Node000020"><a xlink:title=" ">
<path fill="none" stroke="#63b8ff" d="M839.18,-127.6C847.53,-126.23 856.03,-124.97 864.12,-124 1130.25,-92.11 1201.36,-129.75 1466.12,-88 1468.9,-87.56 1471.73,-87.05 1474.58,-86.48"/>
<polygon fill="#63b8ff" stroke="#63b8ff" points="838.7,-124.13 829.44,-129.28 839.89,-131.03 838.7,-124.13"/>
</a>
</g>
</g>
<!-- Node21&#45;&gt;Node4 -->
<g id="edge26_Node000021_Node000004" class="edge">
<title>Node21&#45;&gt;Node4</title>
<g id="a_edge26_Node000021_Node000004"><a xlink:title=" ">
<path fill="none" stroke="#63b8ff" d="M780.35,-191.98C528.7,-154.56 452.62,-222.76 211.12,-156 181.24,-147.74 177.17,-137.23 149.12,-124 116.39,-108.56 77.77,-92.37 53.6,-82.48"/>
<polygon fill="#63b8ff" stroke="#63b8ff" points="779.78,-195.43 790.19,-193.49 780.84,-188.52 779.78,-195.43"/>
</a>
</g>
</g>
<!-- Node21&#45;&gt;Node10 -->
<g id="edge28_Node000021_Node000010" class="edge">
<title>Node21&#45;&gt;Node10</title>
<g id="a_edge28_Node000021_Node000010"><a xlink:title=" ">
<path fill="none" stroke="#63b8ff" d="M819.65,-183.37C809.26,-171.95 797.38,-158.88 789.59,-150.32"/>
<polygon fill="#63b8ff" stroke="#63b8ff" points="816.87,-185.53 826.19,-190.57 822.05,-180.82 816.87,-185.53"/>
</a>
</g>
</g>
<!-- Node21&#45;&gt;Node12 -->
<g id="edge27_Node000021_Node000012" class="edge">
<title>Node21&#45;&gt;Node12</title>
<g id="a_edge27_Node000021_Node000012"><a xlink:title=" ">
<path fill="none" stroke="#63b8ff" d="M901.87,-191.77C1202.61,-131.36 1284.46,-143.95 1582.12,-88 1585.17,-87.43 1588.29,-86.82 1591.43,-86.18"/>
<polygon fill="#63b8ff" stroke="#63b8ff" points="901.21,-188.33 892.1,-193.74 902.6,-195.19 901.21,-188.33"/>
</a>
</g>
</g>
<!-- Node21&#45;&gt;Node20 -->
<g id="edge29_Node000021_Node000020" class="edge">
<title>Node21&#45;&gt;Node20</title>
<g id="a_edge29_Node000021_Node000020"><a xlink:title=" ">
<path fill="none" stroke="#63b8ff" d="M863.88,-183.77C886.15,-161.65 919,-130.73 935.12,-124 1044.27,-78.43 1349.37,-106.89 1466.12,-88 1468.9,-87.55 1471.73,-87.03 1474.58,-86.46"/>
<polygon fill="#63b8ff" stroke="#63b8ff" points="861.57,-181.13 856.99,-190.69 866.53,-186.08 861.57,-181.13"/>
</a>
</g>
</g>
<!-- Node22 -->
<g id="Node000022" class="node">
<title>Node22</title>
<g id="a_Node000022"><a xlink:href="gps__collector_8cpp.html" target="_top" xlink:title=" ">
<polygon fill="white" stroke="#666666" points="1086.12,-150 944.12,-150 944.12,-130 1086.12,-130 1086.12,-150"/>
<text text-anchor="middle" x="1015.12" y="-136.5" font-family="Helvetica,sans-Serif" font-size="10.00">lib/location/gps_collector.cpp</text>
</a>
</g>
</g>
<!-- Node21&#45;&gt;Node22 -->
<g id="edge30_Node000021_Node000022" class="edge">
<title>Node21&#45;&gt;Node22</title>
<g id="a_edge30_Node000021_Node000022"><a xlink:title=" ">
<path fill="none" stroke="#63b8ff" d="M892.51,-187.51C924.72,-175.29 964.8,-160.09 990.18,-150.46"/>
<polygon fill="#63b8ff" stroke="#63b8ff" points="891.44,-184.17 883.34,-190.99 893.93,-190.72 891.44,-184.17"/>
</a>
</g>
</g>
</g>
</svg>
