<?xml version="1.0" encoding="UTF-8" standalone="no"?>
<!DOCTYPE svg PUBLIC "-//W3C//DTD SVG 1.1//EN"
 "http://www.w3.org/Graphics/SVG/1.1/DTD/svg11.dtd">
<!-- Generated by graphviz version 12.2.1 (20241206.2353)
 -->
<!-- Title: lib/sensors/ISensor.h Pages: 1 -->
<!--zoomable 220 -->

<svg id="main" version="1.1" xmlns="http://www.w3.org/2000/svg" xmlns:xlink="http://www.w3.org/1999/xlink" xml:space="preserve" onload="init(evt)">

<style type="text/css"><![CDATA[
.node, .edge {opacity: 0.7;}
.node.selected, .edge.selected {opacity: 1;}
.edge:hover path { stroke: red; }
.edge:hover polygon { stroke: red; fill: red; }
]]></style>

<defs>
  <circle id="rim" cx="0" cy="0" r="7"/>
  <circle id="rim2" cx="0" cy="0" r="3.5"/>
  <g id="zoomPlus">
    <use xlink:href="#rim" fill="#404040"><set attributeName="fill" to="#808080" begin="zoomplus.mouseover" end="zoomplus.mouseout"/></use>
    <path d="M-4,0h8M0,-4v8" fill="none" stroke="white" stroke-width="1.5" pointer-events="none"/>
  </g>
  <g id="zoomMin">
    <use xlink:href="#rim" fill="#404040"><set attributeName="fill" to="#808080" begin="zoomminus.mouseover" end="zoomminus.mouseout"/></use>
    <path d="M-4,0h8" fill="none" stroke="white" stroke-width="1.5" pointer-events="none"/>
  </g>
  <g id="arrowUp" transform="translate(30 24)">
    <use xlink:href="#rim"/>
    <path pointer-events="none" fill="none" stroke="white" stroke-width="1.5" d="M0,-3.0v7 M-2.5,-0.5L0,-3.0L2.5,-0.5"/>
  </g>
  <g id="arrowRight" transform="rotate(90) translate(36 -43)">
    <use xlink:href="#rim"/>
    <path pointer-events="none" fill="none" stroke="white" stroke-width="1.5" d="M0,-3.0v7 M-2.5,-0.5L0,-3.0L2.5,-0.5"/>
  </g>
  <g id="arrowDown" transform="rotate(180) translate(-30 -48)">
    <use xlink:href="#rim"/>
    <path pointer-events="none" fill="none" stroke="white" stroke-width="1.5" d="M0,-3.0v7 M-2.5,-0.5L0,-3.0L2.5,-0.5"/>
  </g>
  <g id="arrowLeft" transform="rotate(270) translate(-36 17)">
    <use xlink:href="#rim"/>
    <path pointer-events="none" fill="none" stroke="white" stroke-width="1.5" d="M0,-3.0v7 M-2.5,-0.5L0,-3.0L2.5,-0.5"/>
  </g>
  <g id="resetDef">
    <use xlink:href="#rim2" fill="#404040"><set attributeName="fill" to="#808080" begin="reset.mouseover" end="reset.mouseout"/></use>
  </g>
</defs>
<script type="application/ecmascript">
var viewWidth = 771;
var viewHeight = 220;
var sectionId = 'dynsection-1';
</script>
<script type="application/ecmascript" xlink:href="svg.min.js"/>
<svg id="graph" class="graph">
<g id="viewport">
<title>lib/sensors/ISensor.h</title>
<!-- Node1 -->
<g id="Node000001" class="node">
<title>Node1</title>
<g id="a_Node000001"><a xlink:title=" ">
<polygon fill="#999999" stroke="#666666" points="388.02,-212 279.77,-212 279.77,-192 388.02,-192 388.02,-212"/>
<text text-anchor="middle" x="333.89" y="-198.5" font-family="Helvetica,sans-Serif" font-size="10.00">lib/sensors/ISensor.h</text>
</a>
</g>
</g>
<!-- Node2 -->
<g id="Node000002" class="node">
<title>Node2</title>
<g id="a_Node000002"><a xlink:href="includes_8h.html" target="_top" xlink:title=" ">
<polygon fill="white" stroke="#666666" points="301.02,-82 240.77,-82 240.77,-62 301.02,-62 301.02,-82"/>
<text text-anchor="middle" x="270.89" y="-68.5" font-family="Helvetica,sans-Serif" font-size="10.00">includes.h</text>
</a>
</g>
</g>
<!-- Node1&#45;&gt;Node2 -->
<g id="edge1_Node000001_Node000002" class="edge">
<title>Node1&#45;&gt;Node2</title>
<g id="a_edge1_Node000001_Node000002"><a xlink:title=" ">
<path fill="none" stroke="#63b8ff" d="M268.32,-200.09C193.35,-197.5 77.42,-188.23 49.89,-156 -38.58,-52.4 -24.43,-162.05 231.89,-88 237.33,-86.43 243.07,-84.42 248.43,-82.39"/>
<polygon fill="#63b8ff" stroke="#63b8ff" points="267.91,-203.58 278.01,-200.39 268.13,-196.58 267.91,-203.58"/>
</a>
</g>
</g>
<!-- Node4 -->
<g id="Node000004" class="node">
<title>Node4</title>
<g id="a_Node000004"><a xlink:href="_b_h1750___w_r_a_p_p_e_r_8h.html" target="_top" xlink:title=" ">
<polygon fill="white" stroke="#666666" points="324.64,-156 205.14,-156 205.14,-124 324.64,-124 324.64,-156"/>
<text text-anchor="start" x="213.14" y="-142.5" font-family="Helvetica,sans-Serif" font-size="10.00">lib/sensors/BH1750</text>
<text text-anchor="middle" x="264.89" y="-130.5" font-family="Helvetica,sans-Serif" font-size="10.00">/BH1750_WRAPPER.h</text>
</a>
</g>
</g>
<!-- Node1&#45;&gt;Node4 -->
<g id="edge3_Node000001_Node000004" class="edge">
<title>Node1&#45;&gt;Node4</title>
<g id="a_edge3_Node000001_Node000004"><a xlink:title=" ">
<path fill="none" stroke="#63b8ff" d="M314.62,-184.24C304.58,-175.51 292.38,-164.9 282.57,-156.37"/>
<polygon fill="#63b8ff" stroke="#63b8ff" points="312.13,-186.71 321.97,-190.63 316.72,-181.43 312.13,-186.71"/>
</a>
</g>
</g>
<!-- Node6 -->
<g id="Node000006" class="node">
<title>Node6</title>
<g id="a_Node000006"><a xlink:href="_i_sensor_8cpp.html" target="_top" xlink:title="Implements the SensorWrapper class for managing different sensor types.">
<polygon fill="white" stroke="#666666" points="600.27,-82 481.52,-82 481.52,-62 600.27,-62 600.27,-82"/>
<text text-anchor="middle" x="540.89" y="-68.5" font-family="Helvetica,sans-Serif" font-size="10.00">lib/sensors/ISensor.cpp</text>
</a>
</g>
</g>
<!-- Node1&#45;&gt;Node6 -->
<g id="edge15_Node000001_Node000006" class="edge">
<title>Node1&#45;&gt;Node6</title>
<g id="a_edge15_Node000001_Node000006"><a xlink:title=" ">
<path fill="none" stroke="#63b8ff" d="M400.01,-200.41C477.02,-198.16 597.39,-189.24 625.89,-156 635.15,-145.2 632.9,-136.38 625.89,-124 614.19,-103.33 590.41,-90.13 570.97,-82.35"/>
<polygon fill="#63b8ff" stroke="#63b8ff" points="399.93,-196.91 390.02,-200.67 400.11,-203.91 399.93,-196.91"/>
</a>
</g>
</g>
<!-- Node7 -->
<g id="Node000007" class="node">
<title>Node7</title>
<g id="a_Node000007"><a xlink:href="_b_m_e280___w_r_a_p_p_e_r_8h.html" target="_top" xlink:title=" ">
<polygon fill="white" stroke="#666666" points="464.77,-156 343.02,-156 343.02,-124 464.77,-124 464.77,-156"/>
<text text-anchor="start" x="351.02" y="-142.5" font-family="Helvetica,sans-Serif" font-size="10.00">lib/sensors/BME280</text>
<text text-anchor="middle" x="403.89" y="-130.5" font-family="Helvetica,sans-Serif" font-size="10.00">/BME280_WRAPPER.h</text>
</a>
</g>
</g>
<!-- Node1&#45;&gt;Node7 -->
<g id="edge7_Node000001_Node000007" class="edge">
<title>Node1&#45;&gt;Node7</title>
<g id="a_edge7_Node000001_Node000007"><a xlink:title=" ">
<path fill="none" stroke="#63b8ff" d="M353.44,-184.24C363.64,-175.51 376.01,-164.9 385.96,-156.37"/>
<polygon fill="#63b8ff" stroke="#63b8ff" points="351.3,-181.47 345.98,-190.64 355.85,-186.79 351.3,-181.47"/>
</a>
</g>
</g>
<!-- Node9 -->
<g id="Node000009" class="node">
<title>Node9</title>
<g id="a_Node000009"><a xlink:href="_h_m_c5883_l___w_r_a_p_p_e_r_8h.html" target="_top" xlink:title=" ">
<polygon fill="white" stroke="#666666" points="616.77,-156 483.02,-156 483.02,-124 616.77,-124 616.77,-156"/>
<text text-anchor="start" x="491.02" y="-142.5" font-family="Helvetica,sans-Serif" font-size="10.00">lib/sensors/HMC5883L</text>
<text text-anchor="middle" x="549.89" y="-130.5" font-family="Helvetica,sans-Serif" font-size="10.00">/HMC5883L_WRAPPER.h</text>
</a>
</g>
</g>
<!-- Node1&#45;&gt;Node9 -->
<g id="edge11_Node000001_Node000009" class="edge">
<title>Node1&#45;&gt;Node9</title>
<g id="a_edge11_Node000001_Node000009"><a xlink:title=" ">
<path fill="none" stroke="#63b8ff" d="M378.5,-188.61C412.02,-179.3 458.16,-166.48 494.13,-156.49"/>
<polygon fill="#63b8ff" stroke="#63b8ff" points="377.8,-185.17 369.1,-191.22 379.67,-191.92 377.8,-185.17"/>
</a>
</g>
</g>
<!-- Node11 -->
<g id="Node000011" class="node">
<title>Node11</title>
<g id="a_Node000011"><a xlink:href="_m_p_u6050___w_r_a_p_p_e_r_8h.html" target="_top" xlink:title=" ">
<polygon fill="white" stroke="#666666" points="186.77,-156 59.02,-156 59.02,-124 186.77,-124 186.77,-156"/>
<text text-anchor="start" x="67.02" y="-142.5" font-family="Helvetica,sans-Serif" font-size="10.00">lib/sensors/MPU6050</text>
<text text-anchor="middle" x="122.89" y="-130.5" font-family="Helvetica,sans-Serif" font-size="10.00">/MPU6050_WRAPPER.h</text>
</a>
</g>
</g>
<!-- Node1&#45;&gt;Node11 -->
<g id="edge16_Node000001_Node000011" class="edge">
<title>Node1&#45;&gt;Node11</title>
<g id="a_edge16_Node000001_Node000011"><a xlink:title=" ">
<path fill="none" stroke="#63b8ff" d="M289.9,-188.49C257.18,-179.19 212.35,-166.44 177.37,-156.49"/>
<polygon fill="#63b8ff" stroke="#63b8ff" points="288.89,-191.84 299.47,-191.21 290.81,-185.11 288.89,-191.84"/>
</a>
</g>
</g>
<!-- Node3 -->
<g id="Node000003" class="node">
<title>Node3</title>
<g id="a_Node000003"><a xlink:href="main_8cpp.html" target="_top" xlink:title=" ">
<polygon fill="white" stroke="#666666" points="298.77,-20 243.02,-20 243.02,0 298.77,0 298.77,-20"/>
<text text-anchor="middle" x="270.89" y="-6.5" font-family="Helvetica,sans-Serif" font-size="10.00">main.cpp</text>
</a>
</g>
</g>
<!-- Node2&#45;&gt;Node3 -->
<g id="edge2_Node000002_Node000003" class="edge">
<title>Node2&#45;&gt;Node3</title>
<g id="a_edge2_Node000002_Node000003"><a xlink:title=" ">
<path fill="none" stroke="#63b8ff" d="M270.89,-50.25C270.89,-39.97 270.89,-28.09 270.89,-20.11"/>
<polygon fill="#63b8ff" stroke="#63b8ff" points="267.39,-50.11 270.89,-60.11 274.39,-50.11 267.39,-50.11"/>
</a>
</g>
</g>
<!-- Node4&#45;&gt;Node2 -->
<g id="edge4_Node000004_Node000002" class="edge">
<title>Node4&#45;&gt;Node2</title>
<g id="a_edge4_Node000004_Node000002"><a xlink:title=" ">
<path fill="none" stroke="#63b8ff" d="M267.32,-112.31C268.29,-101.67 269.34,-90.13 270.05,-82.32"/>
<polygon fill="#63b8ff" stroke="#63b8ff" points="263.84,-111.91 266.42,-122.19 270.81,-112.54 263.84,-111.91"/>
</a>
</g>
</g>
<!-- Node5 -->
<g id="Node000005" class="node">
<title>Node5</title>
<g id="a_Node000005"><a xlink:href="_b_h1750___w_r_a_p_p_e_r_8cpp.html" target="_top" xlink:title=" ">
<polygon fill="white" stroke="#666666" points="222.89,-88 92.89,-88 92.89,-56 222.89,-56 222.89,-88"/>
<text text-anchor="start" x="100.89" y="-74.5" font-family="Helvetica,sans-Serif" font-size="10.00">lib/sensors/BH1750</text>
<text text-anchor="middle" x="157.89" y="-62.5" font-family="Helvetica,sans-Serif" font-size="10.00">/BH1750_WRAPPER.cpp</text>
</a>
</g>
</g>
<!-- Node4&#45;&gt;Node5 -->
<g id="edge5_Node000004_Node000005" class="edge">
<title>Node4&#45;&gt;Node5</title>
<g id="a_edge5_Node000004_Node000005"><a xlink:title=" ">
<path fill="none" stroke="#63b8ff" d="M230.08,-117.53C214.67,-108.02 196.88,-97.05 182.82,-88.38"/>
<polygon fill="#63b8ff" stroke="#63b8ff" points="228.17,-120.46 238.52,-122.73 231.85,-114.5 228.17,-120.46"/>
</a>
</g>
</g>
<!-- Node4&#45;&gt;Node6 -->
<g id="edge6_Node000004_Node000006" class="edge">
<title>Node4&#45;&gt;Node6</title>
<g id="a_edge6_Node000004_Node000006"><a xlink:title=" ">
<path fill="none" stroke="#63b8ff" d="M336.06,-121.98C388.61,-109.42 458.2,-92.77 501.24,-82.48"/>
<polygon fill="#63b8ff" stroke="#63b8ff" points="335.51,-118.52 326.59,-124.25 337.13,-125.32 335.51,-118.52"/>
</a>
</g>
</g>
<!-- Node7&#45;&gt;Node2 -->
<g id="edge8_Node000007_Node000002" class="edge">
<title>Node7&#45;&gt;Node2</title>
<g id="a_edge8_Node000007_Node000002"><a xlink:title=" ">
<path fill="none" stroke="#63b8ff" d="M362.68,-118.55C338.41,-106.5 308.85,-91.84 289.96,-82.46"/>
<polygon fill="#63b8ff" stroke="#63b8ff" points="360.84,-121.54 371.36,-122.85 363.95,-115.27 360.84,-121.54"/>
</a>
</g>
</g>
<!-- Node7&#45;&gt;Node6 -->
<g id="edge10_Node000007_Node000006" class="edge">
<title>Node7&#45;&gt;Node6</title>
<g id="a_edge10_Node000007_Node000006"><a xlink:title=" ">
<path fill="none" stroke="#63b8ff" d="M446.35,-118.55C471.35,-106.5 501.79,-91.84 521.26,-82.46"/>
<polygon fill="#63b8ff" stroke="#63b8ff" points="444.87,-115.38 437.38,-122.87 447.91,-121.68 444.87,-115.38"/>
</a>
</g>
</g>
<!-- Node8 -->
<g id="Node000008" class="node">
<title>Node8</title>
<g id="a_Node000008"><a xlink:href="_b_m_e280___w_r_a_p_p_e_r_8cpp.html" target="_top" xlink:title=" ">
<polygon fill="white" stroke="#666666" points="463.02,-88 330.77,-88 330.77,-56 463.02,-56 463.02,-88"/>
<text text-anchor="start" x="338.77" y="-74.5" font-family="Helvetica,sans-Serif" font-size="10.00">lib/sensors/BME280</text>
<text text-anchor="middle" x="396.89" y="-62.5" font-family="Helvetica,sans-Serif" font-size="10.00">/BME280_WRAPPER.cpp</text>
</a>
</g>
</g>
<!-- Node7&#45;&gt;Node8 -->
<g id="edge9_Node000007_Node000008" class="edge">
<title>Node7&#45;&gt;Node8</title>
<g id="a_edge9_Node000007_Node000008"><a xlink:title=" ">
<path fill="none" stroke="#63b8ff" d="M401.06,-112.31C400.19,-104.12 399.27,-95.38 398.51,-88.22"/>
<polygon fill="#63b8ff" stroke="#63b8ff" points="397.58,-112.61 402.11,-122.19 404.54,-111.87 397.58,-112.61"/>
</a>
</g>
</g>
<!-- Node9&#45;&gt;Node2 -->
<g id="edge12_Node000009_Node000002" class="edge">
<title>Node9&#45;&gt;Node2</title>
<g id="a_edge12_Node000009_Node000002"><a xlink:title=" ">
<path fill="none" stroke="#63b8ff" d="M471.53,-122.81C427.41,-113.36 371.39,-100.8 321.89,-88 315.19,-86.27 308.04,-84.26 301.28,-82.29"/>
<polygon fill="#63b8ff" stroke="#63b8ff" points="470.78,-126.23 481.29,-124.89 472.24,-119.38 470.78,-126.23"/>
</a>
</g>
</g>
<!-- Node9&#45;&gt;Node6 -->
<g id="edge14_Node000009_Node000006" class="edge">
<title>Node9&#45;&gt;Node6</title>
<g id="a_edge14_Node000009_Node000006"><a xlink:title=" ">
<path fill="none" stroke="#63b8ff" d="M546.25,-112.31C544.8,-101.67 543.23,-90.13 542.16,-82.32"/>
<polygon fill="#63b8ff" stroke="#63b8ff" points="542.78,-112.76 547.6,-122.19 549.72,-111.81 542.78,-112.76"/>
</a>
</g>
</g>
<!-- Node10 -->
<g id="Node000010" class="node">
<title>Node10</title>
<g id="a_Node000010"><a xlink:href="_h_m_c5883_l___w_r_a_p_p_e_r_8cpp.html" target="_top" xlink:title=" ">
<polygon fill="white" stroke="#666666" points="763.02,-88 618.77,-88 618.77,-56 763.02,-56 763.02,-88"/>
<text text-anchor="start" x="626.77" y="-74.5" font-family="Helvetica,sans-Serif" font-size="10.00">lib/sensors/HMC5883L</text>
<text text-anchor="middle" x="690.89" y="-62.5" font-family="Helvetica,sans-Serif" font-size="10.00">/HMC5883L_WRAPPER.cpp</text>
</a>
</g>
</g>
<!-- Node9&#45;&gt;Node10 -->
<g id="edge13_Node000009_Node000010" class="edge">
<title>Node9&#45;&gt;Node10</title>
<g id="a_edge13_Node000009_Node000010"><a xlink:title=" ">
<path fill="none" stroke="#63b8ff" d="M593.17,-118.74C614.06,-108.96 638.72,-97.42 658.04,-88.38"/>
<polygon fill="#63b8ff" stroke="#63b8ff" points="591.9,-115.47 584.32,-122.88 594.86,-121.81 591.9,-115.47"/>
</a>
</g>
</g>
<!-- Node11&#45;&gt;Node2 -->
<g id="edge17_Node000011_Node000002" class="edge">
<title>Node11&#45;&gt;Node2</title>
<g id="a_edge17_Node000011_Node000002"><a xlink:title=" ">
<path fill="none" stroke="#63b8ff" d="M168.04,-118.87C195.18,-106.76 228.47,-91.92 249.68,-82.46"/>
<polygon fill="#63b8ff" stroke="#63b8ff" points="166.68,-115.64 158.98,-122.91 169.53,-122.03 166.68,-115.64"/>
</a>
</g>
</g>
</g>
</svg>

<g id="navigator" transform="translate(0 0)" fill="#404254">
  <rect fill="#f2f5e9" fill-opacity="0.5" stroke="#606060" stroke-width=".5" x="0" y="0" width="60" height="60"/>
  <use id="zoomplus" xlink:href="#zoomPlus" x="17" y="9" onmousedown="handleZoom(evt,'in')"/>
  <use id="zoomminus" xlink:href="#zoomMin" x="42" y="9" onmousedown="handleZoom(evt,'out')"/>
  <use id="reset" xlink:href="#resetDef" x="30" y="36" onmousedown="handleReset()"/>
   <use id="arrowup" xlink:href="#arrowUp" x="0" y="0" onmousedown="handlePan(0,-1)"/>
  <use id="arrowright" xlink:href="#arrowRight" x="0" y="0" onmousedown="handlePan(1,0)"/>
  <use id="arrowdown" xlink:href="#arrowDown" x="0" y="0" onmousedown="handlePan(0,1)"/>
  <use id="arrowleft" xlink:href="#arrowLeft" x="0" y="0" onmousedown="handlePan(-1,0)"/>
</g>
<svg viewBox="0 0 15 15" width="100%" height="30px" preserveAspectRatio="xMaxYMin meet">
 <g id="arrow_out" transform="scale(0.3 0.3)">
  <a xlink:href="_i_sensor_8h__dep__incl_org.svg" target="_base">
   <rect id="button" ry="5" rx="5" y="6" x="6" height="38" width="38"
        fill="#f2f5e9" fill-opacity="0.5" stroke="#606060" stroke-width="1.0"/>
   <path id="arrow"
     d="M 11.500037,31.436501 C 11.940474,20.09759 22.043105,11.32322 32.158766,21.979434 L 37.068811,17.246167 C 37.068811,17.246167 37.088388,32 37.088388,32 L 22.160133,31.978069 C 22.160133,31.978069 26.997745,27.140456 26.997745,27.140456 C 18.528582,18.264221 13.291696,25.230495 11.500037,31.436501 z"
     style="fill:#404040;"/>
  </a>
 </g>
</svg>

<style type='text/css'>
<![CDATA[
[data-mouse-over-selected='false'] { opacity: 0.7; }
[data-mouse-over-selected='true']  { opacity: 1.0; }
]]>
</style>
<script type="application/ecmascript"><![CDATA[
document.addEventListener('DOMContentLoaded', (event) => {
  highlightEdges();
  highlightAdjacentNodes();
});
]]></script>
</svg>
