<?xml version="1.0" encoding="UTF-8" standalone="no"?>
<!DOCTYPE svg PUBLIC "-//W3C//DTD SVG 1.1//EN"
 "http://www.w3.org/Graphics/SVG/1.1/DTD/svg11.dtd">
<!-- Generated by graphviz version 12.2.1 (20241206.2353)
 -->
<!-- Title: lib/sensors/ISensor.cpp Pages: 1 -->
<svg width="458pt" height="208pt"
 viewBox="0.00 0.00 457.62 208.00" xmlns="http://www.w3.org/2000/svg" xmlns:xlink="http://www.w3.org/1999/xlink">

<svg id="main" version="1.1" xmlns="http://www.w3.org/2000/svg" xmlns:xlink="http://www.w3.org/1999/xlink" xml:space="preserve">

<style type="text/css"><![CDATA[
.node, .edge {opacity: 0.7;}
.node.selected, .edge.selected {opacity: 1;}
.edge:hover path { stroke: red; }
.edge:hover polygon { stroke: red; fill: red; }
]]></style>
<script type="application/ecmascript" xlink:href="svg.min.js"/>
<svg id="graph" class="graph">
<g id="graph0" class="graph" transform="scale(1 1) rotate(0) translate(4 204)">
<title>lib/sensors/ISensor.cpp</title>
<!-- Node1 -->
<g id="Node000001" class="node">
<title>Node1</title>
<g id="a_Node000001"><a xlink:title="Implements the SensorWrapper class for managing different sensor types.">
<polygon fill="#999999" stroke="#666666" points="313.25,-200 194.5,-200 194.5,-180 313.25,-180 313.25,-200"/>
<text text-anchor="middle" x="253.88" y="-186.5" font-family="Helvetica,sans-Serif" font-size="10.00">lib/sensors/ISensor.cpp</text>
</a>
</g>
</g>
<!-- Node2 -->
<g id="Node000002" class="node">
<title>Node2</title>
<g id="a_Node000002"><a xlink:href="_i_sensor_8h.html" target="_top" xlink:title=" ">
<polygon fill="white" stroke="#666666" points="283.88,-76 225.88,-76 225.88,-56 283.88,-56 283.88,-76"/>
<text text-anchor="middle" x="254.88" y="-62.5" font-family="Helvetica,sans-Serif" font-size="10.00">ISensor.h</text>
</a>
</g>
</g>
<!-- Node1&#45;&gt;Node2 -->
<g id="edge1_Node000001_Node000002" class="edge">
<title>Node1&#45;&gt;Node2</title>
<g id="a_edge1_Node000001_Node000002"><a xlink:title=" ">
<path fill="none" stroke="#63b8ff" d="M262.09,-179.8C269.16,-171.23 278.83,-157.73 282.88,-144 286.89,-130.36 286.78,-125.68 282.88,-112 280.17,-102.53 274.83,-93.11 269.53,-85.35"/>
<polygon fill="#63b8ff" stroke="#63b8ff" points="272.47,-83.44 263.71,-77.47 266.83,-87.59 272.47,-83.44"/>
</a>
</g>
</g>
<!-- Node7 -->
<g id="Node000007" class="node">
<title>Node7</title>
<g id="a_Node000007"><a xlink:href="_b_h1750___w_r_a_p_p_e_r_8h.html" target="_top" xlink:title=" ">
<polygon fill="white" stroke="#666666" points="449.62,-144 330.12,-144 330.12,-112 449.62,-112 449.62,-144"/>
<text text-anchor="start" x="338.12" y="-130.5" font-family="Helvetica,sans-Serif" font-size="10.00">lib/sensors/BH1750</text>
<text text-anchor="middle" x="389.88" y="-118.5" font-family="Helvetica,sans-Serif" font-size="10.00">/BH1750_WRAPPER.h</text>
</a>
</g>
</g>
<!-- Node1&#45;&gt;Node7 -->
<g id="edge6_Node000001_Node000007" class="edge">
<title>Node1&#45;&gt;Node7</title>
<g id="a_edge6_Node000001_Node000007"><a xlink:title=" ">
<path fill="none" stroke="#63b8ff" d="M275.12,-179.62C293.59,-171.48 320.97,-159.4 344.35,-149.09"/>
<polygon fill="#63b8ff" stroke="#63b8ff" points="345.64,-152.34 353.38,-145.1 342.82,-145.94 345.64,-152.34"/>
</a>
</g>
</g>
<!-- Node9 -->
<g id="Node000009" class="node">
<title>Node9</title>
<g id="a_Node000009"><a xlink:href="_b_m_e280___w_r_a_p_p_e_r_8h.html" target="_top" xlink:title=" ">
<polygon fill="white" stroke="#666666" points="121.75,-144 0,-144 0,-112 121.75,-112 121.75,-144"/>
<text text-anchor="start" x="8" y="-130.5" font-family="Helvetica,sans-Serif" font-size="10.00">lib/sensors/BME280</text>
<text text-anchor="middle" x="60.88" y="-118.5" font-family="Helvetica,sans-Serif" font-size="10.00">/BME280_WRAPPER.h</text>
</a>
</g>
</g>
<!-- Node1&#45;&gt;Node9 -->
<g id="edge12_Node000001_Node000009" class="edge">
<title>Node1&#45;&gt;Node9</title>
<g id="a_edge12_Node000001_Node000009"><a xlink:title=" ">
<path fill="none" stroke="#63b8ff" d="M223.72,-179.62C196.45,-171.15 155.5,-158.42 121.48,-147.84"/>
<polygon fill="#63b8ff" stroke="#63b8ff" points="122.74,-144.57 112.15,-144.94 120.66,-151.25 122.74,-144.57"/>
</a>
</g>
</g>
<!-- Node12 -->
<g id="Node000012" class="node">
<title>Node12</title>
<g id="a_Node000012"><a xlink:href="_h_m_c5883_l___w_r_a_p_p_e_r_8h.html" target="_top" xlink:title=" ">
<polygon fill="white" stroke="#666666" points="273.75,-144 140,-144 140,-112 273.75,-112 273.75,-144"/>
<text text-anchor="start" x="148" y="-130.5" font-family="Helvetica,sans-Serif" font-size="10.00">lib/sensors/HMC5883L</text>
<text text-anchor="middle" x="206.88" y="-118.5" font-family="Helvetica,sans-Serif" font-size="10.00">/HMC5883L_WRAPPER.h</text>
</a>
</g>
</g>
<!-- Node1&#45;&gt;Node12 -->
<g id="edge18_Node000001_Node000012" class="edge">
<title>Node1&#45;&gt;Node12</title>
<g id="a_edge18_Node000001_Node000012"><a xlink:title=" ">
<path fill="none" stroke="#63b8ff" d="M246.53,-179.62C240.95,-172.51 233.03,-162.38 225.72,-153.06"/>
<polygon fill="#63b8ff" stroke="#63b8ff" points="228.59,-151.05 219.67,-145.33 223.08,-155.36 228.59,-151.05"/>
</a>
</g>
</g>
<!-- Node3 -->
<g id="Node000003" class="node">
<title>Node3</title>
<g id="a_Node000003"><a xlink:title=" ">
<polygon fill="#e0e0e0" stroke="#999999" points="185.5,-20 140.25,-20 140.25,0 185.5,0 185.5,-20"/>
<text text-anchor="middle" x="162.88" y="-6.5" font-family="Helvetica,sans-Serif" font-size="10.00">cstdint</text>
</a>
</g>
</g>
<!-- Node2&#45;&gt;Node3 -->
<g id="edge2_Node000002_Node000003" class="edge">
<title>Node2&#45;&gt;Node3</title>
<g id="a_edge2_Node000002_Node000003"><a xlink:title=" ">
<path fill="none" stroke="#63b8ff" d="M238.85,-55.59C225.08,-47.51 204.97,-35.71 188.9,-26.27"/>
<polygon fill="#63b8ff" stroke="#63b8ff" points="190.73,-23.29 180.33,-21.25 187.18,-29.33 190.73,-23.29"/>
</a>
</g>
</g>
<!-- Node4 -->
<g id="Node000004" class="node">
<title>Node4</title>
<g id="a_Node000004"><a xlink:title=" ">
<polygon fill="#e0e0e0" stroke="#999999" points="288.75,-20 209,-20 209,0 288.75,0 288.75,-20"/>
<text text-anchor="middle" x="248.88" y="-6.5" font-family="Helvetica,sans-Serif" font-size="10.00">hardware/i2c.h</text>
</a>
</g>
</g>
<!-- Node2&#45;&gt;Node4 -->
<g id="edge3_Node000002_Node000004" class="edge">
<title>Node2&#45;&gt;Node4</title>
<g id="a_edge3_Node000002_Node000004"><a xlink:title=" ">
<path fill="none" stroke="#63b8ff" d="M253.83,-55.59C253.1,-49.01 252.09,-39.96 251.18,-31.73"/>
<polygon fill="#63b8ff" stroke="#63b8ff" points="254.66,-31.35 250.08,-21.8 247.7,-32.13 254.66,-31.35"/>
</a>
</g>
</g>
<!-- Node5 -->
<g id="Node000005" class="node">
<title>Node5</title>
<g id="a_Node000005"><a xlink:title=" ">
<polygon fill="#e0e0e0" stroke="#999999" points="365.25,-20 330.5,-20 330.5,0 365.25,0 365.25,-20"/>
<text text-anchor="middle" x="347.88" y="-6.5" font-family="Helvetica,sans-Serif" font-size="10.00">map</text>
</a>
</g>
</g>
<!-- Node2&#45;&gt;Node5 -->
<g id="edge4_Node000002_Node000005" class="edge">
<title>Node2&#45;&gt;Node5</title>
<g id="a_edge4_Node000002_Node000005"><a xlink:title=" ">
<path fill="none" stroke="#63b8ff" d="M271.07,-55.59C285.12,-47.44 305.71,-35.48 322.03,-26"/>
<polygon fill="#63b8ff" stroke="#63b8ff" points="323.35,-29.29 330.24,-21.24 319.83,-23.23 323.35,-29.29"/>
</a>
</g>
</g>
<!-- Node6 -->
<g id="Node000006" class="node">
<title>Node6</title>
<g id="a_Node000006"><a xlink:title=" ">
<polygon fill="#e0e0e0" stroke="#999999" points="434.88,-20 394.88,-20 394.88,0 434.88,0 434.88,-20"/>
<text text-anchor="middle" x="414.88" y="-6.5" font-family="Helvetica,sans-Serif" font-size="10.00">string</text>
</a>
</g>
</g>
<!-- Node2&#45;&gt;Node6 -->
<g id="edge5_Node000002_Node000006" class="edge">
<title>Node2&#45;&gt;Node6</title>
<g id="a_edge5_Node000002_Node000006"><a xlink:title=" ">
<path fill="none" stroke="#63b8ff" d="M282.74,-55.59C310.88,-46.1 354.26,-31.46 383.57,-21.57"/>
<polygon fill="#63b8ff" stroke="#63b8ff" points="384.64,-24.9 392.99,-18.38 382.4,-18.27 384.64,-24.9"/>
</a>
</g>
</g>
<!-- Node7&#45;&gt;Node2 -->
<g id="edge7_Node000007_Node000002" class="edge">
<title>Node7&#45;&gt;Node2</title>
<g id="a_edge7_Node000007_Node000002"><a xlink:title=" ">
<path fill="none" stroke="#63b8ff" d="M355.11,-111.55C333.92,-102.13 307.05,-90.19 286.46,-81.04"/>
<polygon fill="#63b8ff" stroke="#63b8ff" points="287.99,-77.89 277.43,-77.02 285.14,-84.28 287.99,-77.89"/>
</a>
</g>
</g>
<!-- Node7&#45;&gt;Node5 -->
<g id="edge10_Node000007_Node000005" class="edge">
<title>Node7&#45;&gt;Node5</title>
<g id="a_edge10_Node000007_Node000005"><a xlink:title=" ">
<path fill="none" stroke="#63b8ff" d="M386.77,-111.75C383.58,-97.17 378.06,-74.7 370.88,-56 367.54,-47.32 363.02,-38.11 358.87,-30.3"/>
<polygon fill="#63b8ff" stroke="#63b8ff" points="362.03,-28.78 354.14,-21.71 355.9,-32.16 362.03,-28.78"/>
</a>
</g>
</g>
<!-- Node7&#45;&gt;Node6 -->
<g id="edge11_Node000007_Node000006" class="edge">
<title>Node7&#45;&gt;Node6</title>
<g id="a_edge11_Node000007_Node000006"><a xlink:title=" ">
<path fill="none" stroke="#63b8ff" d="M394.44,-111.92C397.39,-101.82 401.18,-88.19 403.88,-76 407.14,-61.25 409.96,-44.43 411.93,-31.59"/>
<polygon fill="#63b8ff" stroke="#63b8ff" points="415.38,-32.22 413.38,-21.81 408.45,-31.19 415.38,-32.22"/>
</a>
</g>
</g>
<!-- Node8 -->
<g id="Node000008" class="node">
<title>Node8</title>
<g id="a_Node000008"><a xlink:href="_b_h1750_8h.html" target="_top" xlink:title=" ">
<polygon fill="white" stroke="#666666" points="361.62,-76 302.12,-76 302.12,-56 361.62,-56 361.62,-76"/>
<text text-anchor="middle" x="331.88" y="-62.5" font-family="Helvetica,sans-Serif" font-size="10.00">BH1750.h</text>
</a>
</g>
</g>
<!-- Node7&#45;&gt;Node8 -->
<g id="edge8_Node000007_Node000008" class="edge">
<title>Node7&#45;&gt;Node8</title>
<g id="a_edge8_Node000007_Node000008"><a xlink:title=" ">
<path fill="none" stroke="#63b8ff" d="M374.94,-111.55C366.97,-103.3 357.12,-93.12 348.86,-84.57"/>
<polygon fill="#63b8ff" stroke="#63b8ff" points="351.49,-82.25 342.02,-77.5 346.46,-87.12 351.49,-82.25"/>
</a>
</g>
</g>
<!-- Node8&#45;&gt;Node4 -->
<g id="edge9_Node000008_Node000004" class="edge">
<title>Node8&#45;&gt;Node4</title>
<g id="a_edge9_Node000008_Node000004"><a xlink:title=" ">
<path fill="none" stroke="#63b8ff" d="M317.42,-55.59C305.12,-47.59 287.2,-35.93 272.77,-26.54"/>
<polygon fill="#63b8ff" stroke="#63b8ff" points="275,-23.82 264.71,-21.3 271.19,-29.69 275,-23.82"/>
</a>
</g>
</g>
<!-- Node9&#45;&gt;Node2 -->
<g id="edge13_Node000009_Node000002" class="edge">
<title>Node9&#45;&gt;Node2</title>
<g id="a_edge13_Node000009_Node000002"><a xlink:title=" ">
<path fill="none" stroke="#63b8ff" d="M110.83,-111.55C143.09,-101.57 184.5,-88.77 214.63,-79.45"/>
<polygon fill="#63b8ff" stroke="#63b8ff" points="215.62,-82.8 224.14,-76.5 213.55,-76.12 215.62,-82.8"/>
</a>
</g>
</g>
<!-- Node10 -->
<g id="Node000010" class="node">
<title>Node10</title>
<g id="a_Node000010"><a xlink:href="_b_m_e280_8h.html" target="_top" xlink:title=" ">
<polygon fill="white" stroke="#666666" points="115.75,-76 54,-76 54,-56 115.75,-56 115.75,-76"/>
<text text-anchor="middle" x="84.88" y="-62.5" font-family="Helvetica,sans-Serif" font-size="10.00">BME280.h</text>
</a>
</g>
</g>
<!-- Node9&#45;&gt;Node10 -->
<g id="edge14_Node000009_Node000010" class="edge">
<title>Node9&#45;&gt;Node10</title>
<g id="a_edge14_Node000009_Node000010"><a xlink:title=" ">
<path fill="none" stroke="#63b8ff" d="M67.06,-111.55C70.04,-104.08 73.66,-95.03 76.86,-87.04"/>
<polygon fill="#63b8ff" stroke="#63b8ff" points="80.09,-88.4 80.55,-77.81 73.59,-85.8 80.09,-88.4"/>
</a>
</g>
</g>
<!-- Node10&#45;&gt;Node3 -->
<g id="edge15_Node000010_Node000003" class="edge">
<title>Node10&#45;&gt;Node3</title>
<g id="a_edge15_Node000010_Node000003"><a xlink:title=" ">
<path fill="none" stroke="#63b8ff" d="M98.46,-55.59C109.91,-47.67 126.54,-36.16 140.03,-26.82"/>
<polygon fill="#63b8ff" stroke="#63b8ff" points="141.71,-29.91 147.94,-21.34 137.72,-24.16 141.71,-29.91"/>
</a>
</g>
</g>
<!-- Node10&#45;&gt;Node4 -->
<g id="edge17_Node000010_Node000004" class="edge">
<title>Node10&#45;&gt;Node4</title>
<g id="a_edge17_Node000010_Node000004"><a xlink:title=" ">
<path fill="none" stroke="#63b8ff" d="M113.44,-55.59C139.97,-46.86 179.71,-33.77 209.29,-24.03"/>
<polygon fill="#63b8ff" stroke="#63b8ff" points="210.24,-27.4 218.65,-20.95 208.05,-20.76 210.24,-27.4"/>
</a>
</g>
</g>
<!-- Node11 -->
<g id="Node000011" class="node">
<title>Node11</title>
<g id="a_Node000011"><a xlink:title=" ">
<polygon fill="#e0e0e0" stroke="#999999" points="111.62,-20 58.12,-20 58.12,0 111.62,0 111.62,-20"/>
<text text-anchor="middle" x="84.88" y="-6.5" font-family="Helvetica,sans-Serif" font-size="10.00">iostream</text>
</a>
</g>
</g>
<!-- Node10&#45;&gt;Node11 -->
<g id="edge16_Node000010_Node000011" class="edge">
<title>Node10&#45;&gt;Node11</title>
<g id="a_edge16_Node000010_Node000011"><a xlink:title=" ">
<path fill="none" stroke="#63b8ff" d="M84.88,-55.59C84.88,-49.01 84.88,-39.96 84.88,-31.73"/>
<polygon fill="#63b8ff" stroke="#63b8ff" points="88.38,-31.81 84.88,-21.81 81.38,-31.81 88.38,-31.81"/>
</a>
</g>
</g>
<!-- Node12&#45;&gt;Node2 -->
<g id="edge19_Node000012_Node000002" class="edge">
<title>Node12&#45;&gt;Node2</title>
<g id="a_edge19_Node000012_Node000002"><a xlink:title=" ">
<path fill="none" stroke="#63b8ff" d="M219.24,-111.55C225.63,-103.56 233.47,-93.76 240.16,-85.39"/>
<polygon fill="#63b8ff" stroke="#63b8ff" points="242.89,-87.59 246.4,-77.59 237.42,-83.21 242.89,-87.59"/>
</a>
</g>
</g>
<!-- Node13 -->
<g id="Node000013" class="node">
<title>Node13</title>
<g id="a_Node000013"><a xlink:href="_h_m_c5883_l_8h.html" target="_top" xlink:title=" ">
<polygon fill="white" stroke="#666666" points="207.75,-76 134,-76 134,-56 207.75,-56 207.75,-76"/>
<text text-anchor="middle" x="170.88" y="-62.5" font-family="Helvetica,sans-Serif" font-size="10.00">HMC5883L.h</text>
</a>
</g>
</g>
<!-- Node12&#45;&gt;Node13 -->
<g id="edge20_Node000012_Node000013" class="edge">
<title>Node12&#45;&gt;Node13</title>
<g id="a_edge20_Node000012_Node000013"><a xlink:title=" ">
<path fill="none" stroke="#63b8ff" d="M197.6,-111.55C192.97,-103.82 187.31,-94.4 182.4,-86.21"/>
<polygon fill="#63b8ff" stroke="#63b8ff" points="185.44,-84.48 177.3,-77.71 179.44,-88.08 185.44,-84.48"/>
</a>
</g>
</g>
<!-- Node13&#45;&gt;Node4 -->
<g id="edge21_Node000013_Node000004" class="edge">
<title>Node13&#45;&gt;Node4</title>
<g id="a_edge21_Node000013_Node000004"><a xlink:title=" ">
<path fill="none" stroke="#63b8ff" d="M184.46,-55.59C195.91,-47.67 212.54,-36.16 226.03,-26.82"/>
<polygon fill="#63b8ff" stroke="#63b8ff" points="227.71,-29.91 233.94,-21.34 223.72,-24.16 227.71,-29.91"/>
</a>
</g>
</g>
</g>
</svg>
</svg>

<style type='text/css'>
<![CDATA[
[data-mouse-over-selected='false'] { opacity: 0.7; }
[data-mouse-over-selected='true']  { opacity: 1.0; }
]]>
</style>
<script type="application/ecmascript"><![CDATA[
document.addEventListener('DOMContentLoaded', (event) => {
  highlightEdges();
  highlightAdjacentNodes();
});
]]></script>
</svg>
