<?xml version="1.0" encoding="UTF-8" standalone="no"?>
<!DOCTYPE svg PUBLIC "-//W3C//DTD SVG 1.1//EN"
 "http://www.w3.org/Graphics/SVG/1.1/DTD/svg11.dtd">
<!-- Generated by graphviz version 12.2.1 (20241206.2353)
 -->
<!-- Title: lib/comms/LoRa/LoRa&#45;RP2040.h Pages: 1 -->
<!--zoomable 312 -->

<svg id="main" version="1.1" xmlns="http://www.w3.org/2000/svg" xmlns:xlink="http://www.w3.org/1999/xlink" xml:space="preserve" onload="init(evt)">

<style type="text/css"><![CDATA[
.node, .edge {opacity: 0.7;}
.node.selected, .edge.selected {opacity: 1;}
.edge:hover path { stroke: red; }
.edge:hover polygon { stroke: red; fill: red; }
]]></style>

<defs>
  <circle id="rim" cx="0" cy="0" r="7"/>
  <circle id="rim2" cx="0" cy="0" r="3.5"/>
  <g id="zoomPlus">
    <use xlink:href="#rim" fill="#404040"><set attributeName="fill" to="#808080" begin="zoomplus.mouseover" end="zoomplus.mouseout"/></use>
    <path d="M-4,0h8M0,-4v8" fill="none" stroke="white" stroke-width="1.5" pointer-events="none"/>
  </g>
  <g id="zoomMin">
    <use xlink:href="#rim" fill="#404040"><set attributeName="fill" to="#808080" begin="zoomminus.mouseover" end="zoomminus.mouseout"/></use>
    <path d="M-4,0h8" fill="none" stroke="white" stroke-width="1.5" pointer-events="none"/>
  </g>
  <g id="arrowUp" transform="translate(30 24)">
    <use xlink:href="#rim"/>
    <path pointer-events="none" fill="none" stroke="white" stroke-width="1.5" d="M0,-3.0v7 M-2.5,-0.5L0,-3.0L2.5,-0.5"/>
  </g>
  <g id="arrowRight" transform="rotate(90) translate(36 -43)">
    <use xlink:href="#rim"/>
    <path pointer-events="none" fill="none" stroke="white" stroke-width="1.5" d="M0,-3.0v7 M-2.5,-0.5L0,-3.0L2.5,-0.5"/>
  </g>
  <g id="arrowDown" transform="rotate(180) translate(-30 -48)">
    <use xlink:href="#rim"/>
    <path pointer-events="none" fill="none" stroke="white" stroke-width="1.5" d="M0,-3.0v7 M-2.5,-0.5L0,-3.0L2.5,-0.5"/>
  </g>
  <g id="arrowLeft" transform="rotate(270) translate(-36 17)">
    <use xlink:href="#rim"/>
    <path pointer-events="none" fill="none" stroke="white" stroke-width="1.5" d="M0,-3.0v7 M-2.5,-0.5L0,-3.0L2.5,-0.5"/>
  </g>
  <g id="resetDef">
    <use xlink:href="#rim2" fill="#404040"><set attributeName="fill" to="#808080" begin="reset.mouseover" end="reset.mouseout"/></use>
  </g>
</defs>
<script type="application/ecmascript">
var viewWidth = 2080;
var viewHeight = 312;
var sectionId = 'dynsection-1';
</script>
<script type="application/ecmascript" xlink:href="svg.min.js"/>
<svg id="graph" class="graph">
<g id="viewport">
<title>lib/comms/LoRa/LoRa&#45;RP2040.h</title>
<!-- Node1 -->
<g id="Node000001" class="node">
<title>Node1</title>
<g id="a_Node000001"><a xlink:title=" ">
<polygon fill="#999999" stroke="#666666" points="233,-304 119.5,-304 119.5,-272 233,-272 233,-304"/>
<text text-anchor="start" x="127.5" y="-290.5" font-family="Helvetica,sans-Serif" font-size="10.00">lib/comms/LoRa/LoRa</text>
<text text-anchor="middle" x="176.25" y="-278.5" font-family="Helvetica,sans-Serif" font-size="10.00">&#45;RP2040.h</text>
</a>
</g>
</g>
<!-- Node2 -->
<g id="Node000002" class="node">
<title>Node2</title>
<g id="a_Node000002"><a xlink:href="_lo_ra-_r_p2040_8cpp.html" target="_top" xlink:title=" ">
<polygon fill="white" stroke="#666666" points="148,-236 34.5,-236 34.5,-204 148,-204 148,-236"/>
<text text-anchor="start" x="42.5" y="-222.5" font-family="Helvetica,sans-Serif" font-size="10.00">lib/comms/LoRa/LoRa</text>
<text text-anchor="middle" x="91.25" y="-210.5" font-family="Helvetica,sans-Serif" font-size="10.00">&#45;RP2040.cpp</text>
</a>
</g>
</g>
<!-- Node1&#45;&gt;Node2 -->
<g id="edge1_Node000001_Node000002" class="edge">
<title>Node1&#45;&gt;Node2</title>
<g id="a_edge1_Node000001_Node000002"><a xlink:title=" ">
<path fill="none" stroke="#63b8ff" d="M147.75,-264.87C135.74,-255.55 122.05,-244.91 111.15,-236.45"/>
<polygon fill="#63b8ff" stroke="#63b8ff" points="145.3,-267.4 155.34,-270.76 149.59,-261.87 145.3,-267.4"/>
</a>
</g>
</g>
<!-- Node3 -->
<g id="Node000003" class="node">
<title>Node3</title>
<g id="a_Node000003"><a xlink:href="storage__commands__utils_8cpp.html" target="_top" xlink:title=" ">
<polygon fill="white" stroke="#666666" points="146.5,-100 0,-100 0,-68 146.5,-68 146.5,-100"/>
<text text-anchor="start" x="8" y="-86.5" font-family="Helvetica,sans-Serif" font-size="10.00">lib/comms/commands</text>
<text text-anchor="middle" x="73.25" y="-74.5" font-family="Helvetica,sans-Serif" font-size="10.00">/storage_commands_utils.cpp</text>
</a>
</g>
</g>
<!-- Node1&#45;&gt;Node3 -->
<g id="edge2_Node000001_Node000003" class="edge">
<title>Node1&#45;&gt;Node3</title>
<g id="a_edge2_Node000001_Node000003"><a xlink:title=" ">
<path fill="none" stroke="#63b8ff" d="M172.89,-260.58C170.12,-243.84 165.3,-222.03 157.25,-204 139,-163.13 105.83,-121.89 87.1,-100.33"/>
<polygon fill="#63b8ff" stroke="#63b8ff" points="169.4,-260.88 174.34,-270.25 176.32,-259.84 169.4,-260.88"/>
</a>
</g>
</g>
<!-- Node4 -->
<g id="Node000004" class="node">
<title>Node4</title>
<g id="a_Node000004"><a xlink:href="protocol_8h.html" target="_top" xlink:title=" ">
<polygon fill="white" stroke="#666666" points="1369.62,-230 1262.88,-230 1262.88,-210 1369.62,-210 1369.62,-230"/>
<text text-anchor="middle" x="1316.25" y="-216.5" font-family="Helvetica,sans-Serif" font-size="10.00">lib/comms/protocol.h</text>
</a>
</g>
</g>
<!-- Node1&#45;&gt;Node4 -->
<g id="edge3_Node000001_Node000004" class="edge">
<title>Node1&#45;&gt;Node4</title>
<g id="a_edge3_Node000001_Node000004"><a xlink:title=" ">
<path fill="none" stroke="#63b8ff" d="M244.52,-283.05C452.46,-271.01 1075.22,-234.95 1262.44,-224.12"/>
<polygon fill="#63b8ff" stroke="#63b8ff" points="244.46,-279.54 234.68,-283.62 244.87,-286.53 244.46,-279.54"/>
</a>
</g>
</g>
<!-- Node5 -->
<g id="Node000005" class="node">
<title>Node5</title>
<g id="a_Node000005"><a xlink:href="includes_8h.html" target="_top" xlink:title=" ">
<polygon fill="white" stroke="#666666" points="2008.38,-94 1948.12,-94 1948.12,-74 2008.38,-74 2008.38,-94"/>
<text text-anchor="middle" x="1978.25" y="-80.5" font-family="Helvetica,sans-Serif" font-size="10.00">includes.h</text>
</a>
</g>
</g>
<!-- Node4&#45;&gt;Node5 -->
<g id="edge4_Node000004_Node000005" class="edge">
<title>Node4&#45;&gt;Node5</title>
<g id="a_edge4_Node000004_Node000005"><a xlink:title=" ">
<path fill="none" stroke="#63b8ff" d="M1381.37,-210.96C1495.87,-195.84 1740.02,-159.29 1939.25,-100 1944.53,-98.43 1950.12,-96.47 1955.36,-94.49"/>
<polygon fill="#63b8ff" stroke="#63b8ff" points="1381,-207.47 1371.54,-212.24 1381.91,-214.41 1381,-207.47"/>
</a>
</g>
</g>
<!-- Node7 -->
<g id="Node000007" class="node">
<title>Node7</title>
<g id="a_Node000007"><a xlink:href="commands_8h.html" target="_top" xlink:title=" ">
<polygon fill="white" stroke="#666666" points="418.25,-168 306.25,-168 306.25,-136 418.25,-136 418.25,-168"/>
<text text-anchor="start" x="314.25" y="-154.5" font-family="Helvetica,sans-Serif" font-size="10.00">lib/comms/commands</text>
<text text-anchor="middle" x="362.25" y="-142.5" font-family="Helvetica,sans-Serif" font-size="10.00">/commands.h</text>
</a>
</g>
</g>
<!-- Node4&#45;&gt;Node7 -->
<g id="edge6_Node000004_Node000007" class="edge">
<title>Node4&#45;&gt;Node7</title>
<g id="a_edge6_Node000004_Node000007"><a xlink:title=" ">
<path fill="none" stroke="#63b8ff" d="M1251.11,-214.49C1073.9,-202.23 585.27,-168.43 418.72,-156.91"/>
<polygon fill="#63b8ff" stroke="#63b8ff" points="1250.84,-217.98 1261.06,-215.18 1251.33,-211 1250.84,-217.98"/>
</a>
</g>
</g>
<!-- Node10 -->
<g id="Node000010" class="node">
<title>Node10</title>
<g id="a_Node000010"><a xlink:href="communication_8h.html" target="_top" xlink:title=" ">
<polygon fill="white" stroke="#666666" points="1188.38,-162 1050.12,-162 1050.12,-142 1188.38,-142 1188.38,-162"/>
<text text-anchor="middle" x="1119.25" y="-148.5" font-family="Helvetica,sans-Serif" font-size="10.00">lib/comms/communication.h</text>
</a>
</g>
</g>
<!-- Node4&#45;&gt;Node10 -->
<g id="edge9_Node000004_Node000010" class="edge">
<title>Node4&#45;&gt;Node10</title>
<g id="a_edge9_Node000004_Node000010"><a xlink:title=" ">
<path fill="none" stroke="#63b8ff" d="M1277.29,-205.95C1238.99,-193.12 1181.48,-173.85 1147.42,-162.44"/>
<polygon fill="#63b8ff" stroke="#63b8ff" points="1276,-209.2 1286.59,-209.06 1278.22,-202.57 1276,-209.2"/>
</a>
</g>
</g>
<!-- Node20 -->
<g id="Node000020" class="node">
<title>Node20</title>
<g id="a_Node000020"><a xlink:href="event__manager_8cpp.html" target="_top" xlink:title="Implements the event management system for the Kubisat firmware.">
<polygon fill="white" stroke="#666666" points="1794.5,-100 1696,-100 1696,-68 1794.5,-68 1794.5,-100"/>
<text text-anchor="start" x="1704" y="-86.5" font-family="Helvetica,sans-Serif" font-size="10.00">lib/eventman/event</text>
<text text-anchor="middle" x="1745.25" y="-74.5" font-family="Helvetica,sans-Serif" font-size="10.00">_manager.cpp</text>
</a>
</g>
</g>
<!-- Node4&#45;&gt;Node20 -->
<g id="edge28_Node000004_Node000020" class="edge">
<title>Node4&#45;&gt;Node20</title>
<g id="a_edge28_Node000004_Node000020"><a xlink:title=" ">
<path fill="none" stroke="#63b8ff" d="M1356.93,-206.29C1436.06,-181.58 1610.43,-127.11 1695.96,-100.39"/>
<polygon fill="#63b8ff" stroke="#63b8ff" points="1356.36,-202.8 1347.86,-209.13 1358.45,-209.49 1356.36,-202.8"/>
</a>
</g>
</g>
<!-- Node21 -->
<g id="Node000021" class="node">
<title>Node21</title>
<g id="a_Node000021"><a xlink:href="test__frame__common_8h.html" target="_top" xlink:title=" ">
<polygon fill="white" stroke="#666666" points="1929.88,-100 1812.62,-100 1812.62,-68 1929.88,-68 1929.88,-100"/>
<text text-anchor="start" x="1820.62" y="-86.5" font-family="Helvetica,sans-Serif" font-size="10.00">test/comms/test_frame</text>
<text text-anchor="middle" x="1871.25" y="-74.5" font-family="Helvetica,sans-Serif" font-size="10.00">_common.h</text>
</a>
</g>
</g>
<!-- Node4&#45;&gt;Node21 -->
<g id="edge29_Node000004_Node000021" class="edge">
<title>Node4&#45;&gt;Node21</title>
<g id="a_edge29_Node000004_Node000021"><a xlink:title=" ">
<path fill="none" stroke="#63b8ff" d="M1371.7,-207.14C1418.15,-197.09 1486.14,-182.1 1545.25,-168 1639.13,-145.6 1747.64,-117.54 1812.79,-100.45"/>
<polygon fill="#63b8ff" stroke="#63b8ff" points="1371.19,-203.67 1362.15,-209.2 1372.66,-210.51 1371.19,-203.67"/>
</a>
</g>
</g>
<!-- Node6 -->
<g id="Node000006" class="node">
<title>Node6</title>
<g id="a_Node000006"><a xlink:href="main_8cpp.html" target="_top" xlink:title=" ">
<polygon fill="white" stroke="#666666" points="2072.12,-26 2016.38,-26 2016.38,-6 2072.12,-6 2072.12,-26"/>
<text text-anchor="middle" x="2044.25" y="-12.5" font-family="Helvetica,sans-Serif" font-size="10.00">main.cpp</text>
</a>
</g>
</g>
<!-- Node5&#45;&gt;Node6 -->
<g id="edge5_Node000005_Node000006" class="edge">
<title>Node5&#45;&gt;Node6</title>
<g id="a_edge5_Node000005_Node000006"><a xlink:title=" ">
<path fill="none" stroke="#63b8ff" d="M1995.64,-65.61C2008.18,-53.07 2024.62,-36.63 2034.81,-26.44"/>
<polygon fill="#63b8ff" stroke="#63b8ff" points="1993.37,-62.93 1988.78,-72.47 1998.32,-67.88 1993.37,-62.93"/>
</a>
</g>
</g>
<!-- Node8 -->
<g id="Node000008" class="node">
<title>Node8</title>
<g id="a_Node000008"><a xlink:href="commands_8cpp.html" target="_top" xlink:title=" ">
<polygon fill="white" stroke="#666666" points="276.25,-100 164.25,-100 164.25,-68 276.25,-68 276.25,-100"/>
<text text-anchor="start" x="172.25" y="-86.5" font-family="Helvetica,sans-Serif" font-size="10.00">lib/comms/commands</text>
<text text-anchor="middle" x="220.25" y="-74.5" font-family="Helvetica,sans-Serif" font-size="10.00">/commands.cpp</text>
</a>
</g>
</g>
<!-- Node7&#45;&gt;Node8 -->
<g id="edge7_Node000007_Node000008" class="edge">
<title>Node7&#45;&gt;Node8</title>
<g id="a_edge7_Node000007_Node000008"><a xlink:title=" ">
<path fill="none" stroke="#63b8ff" d="M318.66,-130.74C297.62,-120.96 272.79,-109.42 253.33,-100.38"/>
<polygon fill="#63b8ff" stroke="#63b8ff" points="317.04,-133.85 327.58,-134.89 319.99,-127.5 317.04,-133.85"/>
</a>
</g>
</g>
<!-- Node9 -->
<g id="Node000009" class="node">
<title>Node9</title>
<g id="a_Node000009"><a xlink:href="diagnostic__commands_8cpp.html" target="_top" xlink:title=" ">
<polygon fill="white" stroke="#666666" points="429.88,-100 294.62,-100 294.62,-68 429.88,-68 429.88,-100"/>
<text text-anchor="start" x="302.62" y="-86.5" font-family="Helvetica,sans-Serif" font-size="10.00">lib/comms/commands</text>
<text text-anchor="middle" x="362.25" y="-74.5" font-family="Helvetica,sans-Serif" font-size="10.00">/diagnostic_commands.cpp</text>
</a>
</g>
</g>
<!-- Node7&#45;&gt;Node9 -->
<g id="edge8_Node000007_Node000009" class="edge">
<title>Node7&#45;&gt;Node9</title>
<g id="a_edge8_Node000007_Node000009"><a xlink:title=" ">
<path fill="none" stroke="#63b8ff" d="M362.25,-124.31C362.25,-116.12 362.25,-107.38 362.25,-100.22"/>
<polygon fill="#63b8ff" stroke="#63b8ff" points="358.75,-124.18 362.25,-134.18 365.75,-124.18 358.75,-124.18"/>
</a>
</g>
</g>
<!-- Node10&#45;&gt;Node3 -->
<g id="edge17_Node000010_Node000003" class="edge">
<title>Node10&#45;&gt;Node3</title>
<g id="a_edge17_Node000010_Node000003"><a xlink:title=" ">
<path fill="none" stroke="#63b8ff" d="M1038.65,-150.22C872.75,-147.84 481.29,-138.29 155.25,-100 152.52,-99.68 149.74,-99.32 146.94,-98.94"/>
<polygon fill="#63b8ff" stroke="#63b8ff" points="1038.17,-153.71 1048.22,-150.35 1038.27,-146.71 1038.17,-153.71"/>
</a>
</g>
</g>
<!-- Node10&#45;&gt;Node5 -->
<g id="edge10_Node000010_Node000005" class="edge">
<title>Node10&#45;&gt;Node5</title>
<g id="a_edge10_Node000010_Node000005"><a xlink:title=" ">
<path fill="none" stroke="#63b8ff" d="M1200.16,-149.1C1378.37,-144.4 1799.98,-130.36 1939.25,-100 1945.2,-98.7 1951.45,-96.64 1957.15,-94.46"/>
<polygon fill="#63b8ff" stroke="#63b8ff" points="1200.2,-145.6 1190.29,-149.35 1200.38,-152.59 1200.2,-145.6"/>
</a>
</g>
</g>
<!-- Node10&#45;&gt;Node8 -->
<g id="edge12_Node000010_Node000008" class="edge">
<title>Node10&#45;&gt;Node8</title>
<g id="a_edge12_Node000010_Node000008"><a xlink:title=" ">
<path fill="none" stroke="#63b8ff" d="M1038.34,-150.49C888.83,-148.57 559.49,-139.75 285.25,-100 282.38,-99.58 279.46,-99.11 276.51,-98.58"/>
<polygon fill="#63b8ff" stroke="#63b8ff" points="1038.1,-153.99 1048.14,-150.61 1038.19,-146.99 1038.1,-153.99"/>
</a>
</g>
</g>
<!-- Node10&#45;&gt;Node9 -->
<g id="edge13_Node000010_Node000009" class="edge">
<title>Node10&#45;&gt;Node9</title>
<g id="a_edge13_Node000010_Node000009"><a xlink:title=" ">
<path fill="none" stroke="#63b8ff" d="M1038.63,-148.1C910.83,-142.8 654.08,-129.27 438.25,-100 435.58,-99.64 432.87,-99.24 430.14,-98.82"/>
<polygon fill="#63b8ff" stroke="#63b8ff" points="1038.2,-151.58 1048.33,-148.5 1038.48,-144.59 1038.2,-151.58"/>
</a>
</g>
</g>
<!-- Node11 -->
<g id="Node000011" class="node">
<title>Node11</title>
<g id="a_Node000011"><a xlink:href="clock__commands_8cpp.html" target="_top" xlink:title=" ">
<polygon fill="white" stroke="#666666" points="1111.38,-100 997.12,-100 997.12,-68 1111.38,-68 1111.38,-100"/>
<text text-anchor="start" x="1005.12" y="-86.5" font-family="Helvetica,sans-Serif" font-size="10.00">lib/comms/commands</text>
<text text-anchor="middle" x="1054.25" y="-74.5" font-family="Helvetica,sans-Serif" font-size="10.00">/clock_commands.cpp</text>
</a>
</g>
</g>
<!-- Node10&#45;&gt;Node11 -->
<g id="edge11_Node000010_Node000011" class="edge">
<title>Node10&#45;&gt;Node11</title>
<g id="a_edge11_Node000010_Node000011"><a xlink:title=" ">
<path fill="none" stroke="#63b8ff" d="M1102.12,-133.6C1091.93,-123.26 1079.12,-110.25 1069.32,-100.3"/>
<polygon fill="#63b8ff" stroke="#63b8ff" points="1099.36,-135.8 1108.88,-140.47 1104.35,-130.88 1099.36,-135.8"/>
</a>
</g>
</g>
<!-- Node12 -->
<g id="Node000012" class="node">
<title>Node12</title>
<g id="a_Node000012"><a xlink:href="event__commands_8cpp.html" target="_top" xlink:title=" ">
<polygon fill="white" stroke="#666666" points="1244.75,-100 1129.75,-100 1129.75,-68 1244.75,-68 1244.75,-100"/>
<text text-anchor="start" x="1137.75" y="-86.5" font-family="Helvetica,sans-Serif" font-size="10.00">lib/comms/commands</text>
<text text-anchor="middle" x="1187.25" y="-74.5" font-family="Helvetica,sans-Serif" font-size="10.00">/event_commands.cpp</text>
</a>
</g>
</g>
<!-- Node10&#45;&gt;Node12 -->
<g id="edge14_Node000010_Node000012" class="edge">
<title>Node10&#45;&gt;Node12</title>
<g id="a_edge14_Node000010_Node000012"><a xlink:title=" ">
<path fill="none" stroke="#63b8ff" d="M1137.17,-133.6C1147.83,-123.26 1161.23,-110.25 1171.49,-100.3"/>
<polygon fill="#63b8ff" stroke="#63b8ff" points="1134.82,-131.01 1130.08,-140.49 1139.69,-136.04 1134.82,-131.01"/>
</a>
</g>
</g>
<!-- Node13 -->
<g id="Node000013" class="node">
<title>Node13</title>
<g id="a_Node000013"><a xlink:href="gps__commands_8cpp.html" target="_top" xlink:title=" ">
<polygon fill="white" stroke="#666666" points="1375.25,-100 1263.25,-100 1263.25,-68 1375.25,-68 1375.25,-100"/>
<text text-anchor="start" x="1271.25" y="-86.5" font-family="Helvetica,sans-Serif" font-size="10.00">lib/comms/commands</text>
<text text-anchor="middle" x="1319.25" y="-74.5" font-family="Helvetica,sans-Serif" font-size="10.00">/gps_commands.cpp</text>
</a>
</g>
</g>
<!-- Node10&#45;&gt;Node13 -->
<g id="edge15_Node000010_Node000013" class="edge">
<title>Node10&#45;&gt;Node13</title>
<g id="a_edge15_Node000010_Node000013"><a xlink:title=" ">
<path fill="none" stroke="#63b8ff" d="M1158.42,-138.07C1191.13,-127.28 1237.84,-111.87 1272.5,-100.43"/>
<polygon fill="#63b8ff" stroke="#63b8ff" points="1157.74,-134.61 1149.34,-141.07 1159.94,-141.26 1157.74,-134.61"/>
</a>
</g>
</g>
<!-- Node14 -->
<g id="Node000014" class="node">
<title>Node14</title>
<g id="a_Node000014"><a xlink:href="power__commands_8cpp.html" target="_top" xlink:title=" ">
<polygon fill="white" stroke="#666666" points="1510.88,-100 1393.62,-100 1393.62,-68 1510.88,-68 1510.88,-100"/>
<text text-anchor="start" x="1401.62" y="-86.5" font-family="Helvetica,sans-Serif" font-size="10.00">lib/comms/commands</text>
<text text-anchor="middle" x="1452.25" y="-74.5" font-family="Helvetica,sans-Serif" font-size="10.00">/power_commands.cpp</text>
</a>
</g>
</g>
<!-- Node10&#45;&gt;Node14 -->
<g id="edge16_Node000010_Node000014" class="edge">
<title>Node10&#45;&gt;Node14</title>
<g id="a_edge16_Node000010_Node000014"><a xlink:title=" ">
<path fill="none" stroke="#63b8ff" d="M1181.7,-139.47C1235.46,-129.43 1315.07,-114.28 1384.25,-100 1387.21,-99.39 1390.24,-98.75 1393.3,-98.11"/>
<polygon fill="#63b8ff" stroke="#63b8ff" points="1181.31,-135.99 1172.12,-141.26 1182.59,-142.87 1181.31,-135.99"/>
</a>
</g>
</g>
<!-- Node15 -->
<g id="Node000015" class="node">
<title>Node15</title>
<g id="a_Node000015"><a xlink:href="communication_8cpp.html" target="_top" xlink:title=" ">
<polygon fill="white" stroke="#666666" points="1677.62,-94 1528.88,-94 1528.88,-74 1677.62,-74 1677.62,-94"/>
<text text-anchor="middle" x="1603.25" y="-80.5" font-family="Helvetica,sans-Serif" font-size="10.00">lib/comms/communication.cpp</text>
</a>
</g>
</g>
<!-- Node10&#45;&gt;Node15 -->
<g id="edge18_Node000010_Node000015" class="edge">
<title>Node10&#45;&gt;Node15</title>
<g id="a_edge18_Node000010_Node000015"><a xlink:title=" ">
<path fill="none" stroke="#63b8ff" d="M1199.71,-142.02C1280.8,-132.68 1409.45,-117.05 1520.25,-100 1530.96,-98.35 1542.41,-96.4 1553.29,-94.47"/>
<polygon fill="#63b8ff" stroke="#63b8ff" points="1199.63,-138.51 1190.09,-143.12 1200.43,-145.46 1199.63,-138.51"/>
</a>
</g>
</g>
<!-- Node16 -->
<g id="Node000016" class="node">
<title>Node16</title>
<g id="a_Node000016"><a xlink:href="frame_8cpp.html" target="_top" xlink:title="Implements functions for encoding, decoding, building, and processing Frames.">
<polygon fill="white" stroke="#666666" points="555,-94 447.5,-94 447.5,-74 555,-74 555,-94"/>
<text text-anchor="middle" x="501.25" y="-80.5" font-family="Helvetica,sans-Serif" font-size="10.00">lib/comms/frame.cpp</text>
</a>
</g>
</g>
<!-- Node10&#45;&gt;Node16 -->
<g id="edge19_Node000010_Node000016" class="edge">
<title>Node10&#45;&gt;Node16</title>
<g id="a_edge19_Node000010_Node000016"><a xlink:title=" ">
<path fill="none" stroke="#63b8ff" d="M1038.46,-147.18C930.01,-141.23 731.63,-127.47 564.25,-100 555.37,-98.54 545.89,-96.53 537.05,-94.46"/>
<polygon fill="#63b8ff" stroke="#63b8ff" points="1037.94,-150.66 1048.12,-147.7 1038.32,-143.67 1037.94,-150.66"/>
</a>
</g>
</g>
<!-- Node17 -->
<g id="Node000017" class="node">
<title>Node17</title>
<g id="a_Node000017"><a xlink:href="receive_8cpp.html" target="_top" xlink:title="Implements functions for receiving and processing data, including LoRa and UART input.">
<polygon fill="white" stroke="#666666" points="687.38,-94 573.12,-94 573.12,-74 687.38,-74 687.38,-94"/>
<text text-anchor="middle" x="630.25" y="-80.5" font-family="Helvetica,sans-Serif" font-size="10.00">lib/comms/receive.cpp</text>
</a>
</g>
</g>
<!-- Node10&#45;&gt;Node17 -->
<g id="edge20_Node000010_Node000017" class="edge">
<title>Node10&#45;&gt;Node17</title>
<g id="a_edge20_Node000010_Node000017"><a xlink:title=" ">
<path fill="none" stroke="#63b8ff" d="M1038.25,-143.75C952.84,-135.52 814.53,-120.51 696.25,-100 687.34,-98.45 677.81,-96.48 668.85,-94.48"/>
<polygon fill="#63b8ff" stroke="#63b8ff" points="1037.89,-147.23 1048.18,-144.7 1038.56,-140.26 1037.89,-147.23"/>
</a>
</g>
</g>
<!-- Node18 -->
<g id="Node000018" class="node">
<title>Node18</title>
<g id="a_Node000018"><a xlink:href="send_8cpp.html" target="_top" xlink:title="Implements functions for sending data, including LoRa messages and Frames.">
<polygon fill="white" stroke="#666666" points="809.12,-94 705.38,-94 705.38,-74 809.12,-74 809.12,-94"/>
<text text-anchor="middle" x="757.25" y="-80.5" font-family="Helvetica,sans-Serif" font-size="10.00">lib/comms/send.cpp</text>
</a>
</g>
</g>
<!-- Node10&#45;&gt;Node18 -->
<g id="edge21_Node000010_Node000018" class="edge">
<title>Node10&#45;&gt;Node18</title>
<g id="a_edge21_Node000010_Node000018"><a xlink:title=" ">
<path fill="none" stroke="#63b8ff" d="M1043.92,-139.8C982.86,-130.35 894.71,-115.86 818.25,-100 810.35,-98.36 801.92,-96.42 793.92,-94.48"/>
<polygon fill="#63b8ff" stroke="#63b8ff" points="1043.08,-143.22 1053.5,-141.28 1044.15,-136.3 1043.08,-143.22"/>
</a>
</g>
</g>
<!-- Node19 -->
<g id="Node000019" class="node">
<title>Node19</title>
<g id="a_Node000019"><a xlink:href="utils__converters_8cpp.html" target="_top" xlink:title="Implements utility functions for converting between different data types.">
<polygon fill="white" stroke="#666666" points="979.12,-94 827.38,-94 827.38,-74 979.12,-74 979.12,-94"/>
<text text-anchor="middle" x="903.25" y="-80.5" font-family="Helvetica,sans-Serif" font-size="10.00">lib/comms/utils_converters.cpp</text>
</a>
</g>
</g>
<!-- Node10&#45;&gt;Node19 -->
<g id="edge22_Node000010_Node000019" class="edge">
<title>Node10&#45;&gt;Node19</title>
<g id="a_edge22_Node000010_Node000019"><a xlink:title=" ">
<path fill="none" stroke="#63b8ff" d="M1077.34,-138.19C1035.35,-125.37 971.73,-105.92 934.14,-94.44"/>
<polygon fill="#63b8ff" stroke="#63b8ff" points="1076.27,-141.53 1086.85,-141.1 1078.31,-134.83 1076.27,-141.53"/>
</a>
</g>
</g>
<!-- Node10&#45;&gt;Node20 -->
<g id="edge23_Node000010_Node000020" class="edge">
<title>Node10&#45;&gt;Node20</title>
<g id="a_edge23_Node000010_Node000020"><a xlink:title=" ">
<path fill="none" stroke="#63b8ff" d="M1200.03,-147.78C1310.48,-142.47 1514.53,-129.36 1686.25,-100 1689.38,-99.47 1692.58,-98.85 1695.8,-98.18"/>
<polygon fill="#63b8ff" stroke="#63b8ff" points="1200,-144.28 1190.17,-148.25 1200.33,-151.27 1200,-144.28"/>
</a>
</g>
</g>
<!-- Node10&#45;&gt;Node21 -->
<g id="edge24_Node000010_Node000021" class="edge">
<title>Node10&#45;&gt;Node21</title>
<g id="a_edge24_Node000010_Node000021"><a xlink:title=" ">
<path fill="none" stroke="#63b8ff" d="M1199.8,-148.72C1328.1,-144.24 1586.53,-131.82 1803.25,-100 1806.24,-99.56 1809.3,-99.06 1812.37,-98.53"/>
<polygon fill="#63b8ff" stroke="#63b8ff" points="1199.93,-145.21 1190.05,-149.05 1200.17,-152.2 1199.93,-145.21"/>
</a>
</g>
</g>
<!-- Node22 -->
<g id="Node000022" class="node">
<title>Node22</title>
<g id="a_Node000022"><a xlink:href="test__converters_8cpp.html" target="_top" xlink:title=" ">
<polygon fill="white" stroke="#666666" points="1727.75,-26 1570.75,-26 1570.75,-6 1727.75,-6 1727.75,-26"/>
<text text-anchor="middle" x="1649.25" y="-12.5" font-family="Helvetica,sans-Serif" font-size="10.00">test/comms/test_converters.cpp</text>
</a>
</g>
</g>
<!-- Node21&#45;&gt;Node22 -->
<g id="edge25_Node000021_Node000022" class="edge">
<title>Node21&#45;&gt;Node22</title>
<g id="a_edge25_Node000021_Node000022"><a xlink:title=" ">
<path fill="none" stroke="#63b8ff" d="M1808.36,-64.3C1766.83,-51.96 1714.16,-36.3 1681.07,-26.46"/>
<polygon fill="#63b8ff" stroke="#63b8ff" points="1807.17,-67.6 1817.75,-67.09 1809.16,-60.89 1807.17,-67.6"/>
</a>
</g>
</g>
<!-- Node23 -->
<g id="Node000023" class="node">
<title>Node23</title>
<g id="a_Node000023"><a xlink:href="test__frame__build_8cpp.html" target="_top" xlink:title=" ">
<polygon fill="white" stroke="#666666" points="1862.88,-32 1745.62,-32 1745.62,0 1862.88,0 1862.88,-32"/>
<text text-anchor="start" x="1753.62" y="-18.5" font-family="Helvetica,sans-Serif" font-size="10.00">test/comms/test_frame</text>
<text text-anchor="middle" x="1804.25" y="-6.5" font-family="Helvetica,sans-Serif" font-size="10.00">_build.cpp</text>
</a>
</g>
</g>
<!-- Node21&#45;&gt;Node23 -->
<g id="edge26_Node000021_Node000023" class="edge">
<title>Node21&#45;&gt;Node23</title>
<g id="a_edge26_Node000021_Node000023"><a xlink:title=" ">
<path fill="none" stroke="#63b8ff" d="M1847.61,-59.71C1838.34,-50.59 1827.98,-40.37 1819.71,-32.22"/>
<polygon fill="#63b8ff" stroke="#63b8ff" points="1845.05,-62.11 1854.63,-66.63 1849.96,-57.12 1845.05,-62.11"/>
</a>
</g>
</g>
<!-- Node24 -->
<g id="Node000024" class="node">
<title>Node24</title>
<g id="a_Node000024"><a xlink:href="test__frame__coding_8cpp.html" target="_top" xlink:title=" ">
<polygon fill="white" stroke="#666666" points="1997.88,-32 1880.62,-32 1880.62,0 1997.88,0 1997.88,-32"/>
<text text-anchor="start" x="1888.62" y="-18.5" font-family="Helvetica,sans-Serif" font-size="10.00">test/comms/test_frame</text>
<text text-anchor="middle" x="1939.25" y="-6.5" font-family="Helvetica,sans-Serif" font-size="10.00">_coding.cpp</text>
</a>
</g>
</g>
<!-- Node21&#45;&gt;Node24 -->
<g id="edge27_Node000021_Node000024" class="edge">
<title>Node21&#45;&gt;Node24</title>
<g id="a_edge27_Node000021_Node000024"><a xlink:title=" ">
<path fill="none" stroke="#63b8ff" d="M1895.25,-59.71C1904.65,-50.59 1915.17,-40.37 1923.56,-32.22"/>
<polygon fill="#63b8ff" stroke="#63b8ff" points="1892.85,-57.16 1888.11,-66.64 1897.72,-62.18 1892.85,-57.16"/>
</a>
</g>
</g>
</g>
</svg>

<g id="navigator" transform="translate(0 0)" fill="#404254">
  <rect fill="#f2f5e9" fill-opacity="0.5" stroke="#606060" stroke-width=".5" x="0" y="0" width="60" height="60"/>
  <use id="zoomplus" xlink:href="#zoomPlus" x="17" y="9" onmousedown="handleZoom(evt,'in')"/>
  <use id="zoomminus" xlink:href="#zoomMin" x="42" y="9" onmousedown="handleZoom(evt,'out')"/>
  <use id="reset" xlink:href="#resetDef" x="30" y="36" onmousedown="handleReset()"/>
   <use id="arrowup" xlink:href="#arrowUp" x="0" y="0" onmousedown="handlePan(0,-1)"/>
  <use id="arrowright" xlink:href="#arrowRight" x="0" y="0" onmousedown="handlePan(1,0)"/>
  <use id="arrowdown" xlink:href="#arrowDown" x="0" y="0" onmousedown="handlePan(0,1)"/>
  <use id="arrowleft" xlink:href="#arrowLeft" x="0" y="0" onmousedown="handlePan(-1,0)"/>
</g>
<svg viewBox="0 0 15 15" width="100%" height="30px" preserveAspectRatio="xMaxYMin meet">
 <g id="arrow_out" transform="scale(0.3 0.3)">
  <a xlink:href="_lo_ra-_r_p2040_8h__dep__incl_org.svg" target="_base">
   <rect id="button" ry="5" rx="5" y="6" x="6" height="38" width="38"
        fill="#f2f5e9" fill-opacity="0.5" stroke="#606060" stroke-width="1.0"/>
   <path id="arrow"
     d="M 11.500037,31.436501 C 11.940474,20.09759 22.043105,11.32322 32.158766,21.979434 L 37.068811,17.246167 C 37.068811,17.246167 37.088388,32 37.088388,32 L 22.160133,31.978069 C 22.160133,31.978069 26.997745,27.140456 26.997745,27.140456 C 18.528582,18.264221 13.291696,25.230495 11.500037,31.436501 z"
     style="fill:#404040;"/>
  </a>
 </g>
</svg>

<style type='text/css'>
<![CDATA[
[data-mouse-over-selected='false'] { opacity: 0.7; }
[data-mouse-over-selected='true']  { opacity: 1.0; }
]]>
</style>
<script type="application/ecmascript"><![CDATA[
document.addEventListener('DOMContentLoaded', (event) => {
  highlightEdges();
  highlightAdjacentNodes();
});
]]></script>
</svg>
