<?xml version="1.0" encoding="UTF-8" standalone="no"?>
<!DOCTYPE svg PUBLIC "-//W3C//DTD SVG 1.1//EN"
 "http://www.w3.org/Graphics/SVG/1.1/DTD/svg11.dtd">
<!-- Generated by graphviz version 12.2.1 (20241206.2353)
 -->
<!-- Title: lib/comms/LoRa/LoRa&#45;RP2040.cpp Pages: 1 -->
<svg width="629pt" height="208pt"
 viewBox="0.00 0.00 629.38 208.00" xmlns="http://www.w3.org/2000/svg" xmlns:xlink="http://www.w3.org/1999/xlink">
<g id="graph0" class="graph" transform="scale(1 1) rotate(0) translate(4 204)">
<title>lib/comms/LoRa/LoRa&#45;RP2040.cpp</title>
<!-- Node1 -->
<g id="Node000001" class="node">
<title>Node1</title>
<g id="a_Node000001"><a xlink:title=" ">
<polygon fill="#999999" stroke="#666666" points="397,-200 283.5,-200 283.5,-168 397,-168 397,-200"/>
<text text-anchor="start" x="291.5" y="-186.5" font-family="Helvetica,sans-Serif" font-size="10.00">lib/comms/LoRa/LoRa</text>
<text text-anchor="middle" x="340.25" y="-174.5" font-family="Helvetica,sans-Serif" font-size="10.00">&#45;RP2040.cpp</text>
</a>
</g>
</g>
<!-- Node2 -->
<g id="Node000002" class="node">
<title>Node2</title>
<g id="a_Node000002"><a xlink:href="_lo_ra-_r_p2040_8h.html" target="_top" xlink:title=" ">
<polygon fill="white" stroke="#666666" points="383.12,-132 297.38,-132 297.38,-112 383.12,-112 383.12,-132"/>
<text text-anchor="middle" x="340.25" y="-118.5" font-family="Helvetica,sans-Serif" font-size="10.00">LoRa&#45;RP2040.h</text>
</a>
</g>
</g>
<!-- Node1&#45;&gt;Node2 -->
<g id="edge1_Node000001_Node000002" class="edge">
<title>Node1&#45;&gt;Node2</title>
<g id="a_edge1_Node000001_Node000002"><a xlink:title=" ">
<path fill="none" stroke="#63b8ff" d="M340.25,-167.55C340.25,-160.34 340.25,-151.66 340.25,-143.88"/>
<polygon fill="#63b8ff" stroke="#63b8ff" points="343.75,-143.92 340.25,-133.92 336.75,-143.92 343.75,-143.92"/>
</a>
</g>
</g>
<!-- Node3 -->
<g id="Node000003" class="node">
<title>Node3</title>
<g id="a_Node000003"><a xlink:title=" ">
<polygon fill="#e0e0e0" stroke="#999999" points="68.5,-76 0,-76 0,-56 68.5,-56 68.5,-76"/>
<text text-anchor="middle" x="34.25" y="-62.5" font-family="Helvetica,sans-Serif" font-size="10.00">pico/stdlib.h</text>
</a>
</g>
</g>
<!-- Node2&#45;&gt;Node3 -->
<g id="edge2_Node000002_Node000003" class="edge">
<title>Node2&#45;&gt;Node3</title>
<g id="a_edge2_Node000002_Node000003"><a xlink:title=" ">
<path fill="none" stroke="#63b8ff" d="M297.06,-114.01C247.3,-105.87 162.79,-91.74 79.96,-76.27"/>
<polygon fill="#63b8ff" stroke="#63b8ff" points="80.78,-72.86 70.3,-74.46 79.49,-79.74 80.78,-72.86"/>
</a>
</g>
</g>
<!-- Node4 -->
<g id="Node000004" class="node">
<title>Node4</title>
<g id="a_Node000004"><a xlink:title=" ">
<polygon fill="#e0e0e0" stroke="#999999" points="179.5,-76 87,-76 87,-56 179.5,-56 179.5,-76"/>
<text text-anchor="middle" x="133.25" y="-62.5" font-family="Helvetica,sans-Serif" font-size="10.00">pico/binary_info.h</text>
</a>
</g>
</g>
<!-- Node2&#45;&gt;Node4 -->
<g id="edge3_Node000002_Node000004" class="edge">
<title>Node2&#45;&gt;Node4</title>
<g id="a_edge3_Node000002_Node000004"><a xlink:title=" ">
<path fill="none" stroke="#63b8ff" d="M304.19,-111.59C269.82,-102.63 217.88,-89.08 180.27,-79.27"/>
<polygon fill="#63b8ff" stroke="#63b8ff" points="181.61,-76 171.05,-76.86 179.85,-82.77 181.61,-76"/>
</a>
</g>
</g>
<!-- Node5 -->
<g id="Node000005" class="node">
<title>Node5</title>
<g id="a_Node000005"><a xlink:title=" ">
<polygon fill="#e0e0e0" stroke="#999999" points="282.75,-76 197.75,-76 197.75,-56 282.75,-56 282.75,-76"/>
<text text-anchor="middle" x="240.25" y="-62.5" font-family="Helvetica,sans-Serif" font-size="10.00">hardware/gpio.h</text>
</a>
</g>
</g>
<!-- Node2&#45;&gt;Node5 -->
<g id="edge4_Node000002_Node000005" class="edge">
<title>Node2&#45;&gt;Node5</title>
<g id="a_edge4_Node000002_Node000005"><a xlink:title=" ">
<path fill="none" stroke="#63b8ff" d="M322.83,-111.59C307.58,-103.36 285.17,-91.26 267.54,-81.74"/>
<polygon fill="#63b8ff" stroke="#63b8ff" points="269.6,-78.87 259.14,-77.2 266.27,-85.03 269.6,-78.87"/>
</a>
</g>
</g>
<!-- Node6 -->
<g id="Node000006" class="node">
<title>Node6</title>
<g id="a_Node000006"><a xlink:title=" ">
<polygon fill="#e0e0e0" stroke="#999999" points="380.12,-76 300.38,-76 300.38,-56 380.12,-56 380.12,-76"/>
<text text-anchor="middle" x="340.25" y="-62.5" font-family="Helvetica,sans-Serif" font-size="10.00">hardware/spi.h</text>
</a>
</g>
</g>
<!-- Node2&#45;&gt;Node6 -->
<g id="edge5_Node000002_Node000006" class="edge">
<title>Node2&#45;&gt;Node6</title>
<g id="a_edge5_Node000002_Node000006"><a xlink:title=" ">
<path fill="none" stroke="#63b8ff" d="M340.25,-111.59C340.25,-105.01 340.25,-95.96 340.25,-87.73"/>
<polygon fill="#63b8ff" stroke="#63b8ff" points="343.75,-87.81 340.25,-77.81 336.75,-87.81 343.75,-87.81"/>
</a>
</g>
</g>
<!-- Node7 -->
<g id="Node000007" class="node">
<title>Node7</title>
<g id="a_Node000007"><a xlink:title=" ">
<polygon fill="#e0e0e0" stroke="#999999" points="446.38,-76 398.12,-76 398.12,-56 446.38,-56 446.38,-76"/>
<text text-anchor="middle" x="422.25" y="-62.5" font-family="Helvetica,sans-Serif" font-size="10.00">string.h</text>
</a>
</g>
</g>
<!-- Node2&#45;&gt;Node7 -->
<g id="edge6_Node000002_Node000007" class="edge">
<title>Node2&#45;&gt;Node7</title>
<g id="a_edge6_Node000002_Node000007"><a xlink:title=" ">
<path fill="none" stroke="#63b8ff" d="M354.53,-111.59C366.69,-103.59 384.39,-91.93 398.65,-82.54"/>
<polygon fill="#63b8ff" stroke="#63b8ff" points="400.16,-85.73 406.59,-77.31 396.31,-79.89 400.16,-85.73"/>
</a>
</g>
</g>
<!-- Node8 -->
<g id="Node000008" class="node">
<title>Node8</title>
<g id="a_Node000008"><a xlink:href="_print_8h.html" target="_top" xlink:title=" ">
<polygon fill="white" stroke="#666666" points="508.5,-76 464,-76 464,-56 508.5,-56 508.5,-76"/>
<text text-anchor="middle" x="486.25" y="-62.5" font-family="Helvetica,sans-Serif" font-size="10.00">Print.h</text>
</a>
</g>
</g>
<!-- Node2&#45;&gt;Node8 -->
<g id="edge7_Node000002_Node000008" class="edge">
<title>Node2&#45;&gt;Node8</title>
<g id="a_edge7_Node000002_Node000008"><a xlink:title=" ">
<path fill="none" stroke="#63b8ff" d="M365.68,-111.59C389.84,-102.66 426.32,-89.17 452.82,-79.36"/>
<polygon fill="#63b8ff" stroke="#63b8ff" points="453.92,-82.69 462.09,-75.94 451.49,-76.12 453.92,-82.69"/>
</a>
</g>
</g>
<!-- Node12 -->
<g id="Node000012" class="node">
<title>Node12</title>
<g id="a_Node000012"><a xlink:href="pin__config_8h.html" target="_top" xlink:title=" ">
<polygon fill="white" stroke="#666666" points="619.5,-76 551,-76 551,-56 619.5,-56 619.5,-76"/>
<text text-anchor="middle" x="585.25" y="-62.5" font-family="Helvetica,sans-Serif" font-size="10.00">pin_config.h</text>
</a>
</g>
</g>
<!-- Node2&#45;&gt;Node12 -->
<g id="edge11_Node000002_Node000012" class="edge">
<title>Node2&#45;&gt;Node12</title>
<g id="a_edge11_Node000002_Node000012"><a xlink:title=" ">
<path fill="none" stroke="#63b8ff" d="M383.21,-111.53C427.01,-101.88 494.73,-86.95 539.52,-77.08"/>
<polygon fill="#63b8ff" stroke="#63b8ff" points="540.17,-80.52 549.18,-74.95 538.66,-73.68 540.17,-80.52"/>
</a>
</g>
</g>
<!-- Node9 -->
<g id="Node000009" class="node">
<title>Node9</title>
<g id="a_Node000009"><a xlink:title=" ">
<polygon fill="#e0e0e0" stroke="#999999" points="433.62,-20 374.88,-20 374.88,0 433.62,0 433.62,-20"/>
<text text-anchor="middle" x="404.25" y="-6.5" font-family="Helvetica,sans-Serif" font-size="10.00">inttypes.h</text>
</a>
</g>
</g>
<!-- Node8&#45;&gt;Node9 -->
<g id="edge8_Node000008_Node000009" class="edge">
<title>Node8&#45;&gt;Node9</title>
<g id="a_edge8_Node000008_Node000009"><a xlink:title=" ">
<path fill="none" stroke="#63b8ff" d="M471.97,-55.59C459.81,-47.59 442.11,-35.93 427.85,-26.54"/>
<polygon fill="#63b8ff" stroke="#63b8ff" points="430.19,-23.89 419.91,-21.31 426.34,-29.73 430.19,-23.89"/>
</a>
</g>
</g>
<!-- Node10 -->
<g id="Node000010" class="node">
<title>Node10</title>
<g id="a_Node000010"><a xlink:title=" ">
<polygon fill="#e0e0e0" stroke="#999999" points="496.88,-20 451.62,-20 451.62,0 496.88,0 496.88,-20"/>
<text text-anchor="middle" x="474.25" y="-6.5" font-family="Helvetica,sans-Serif" font-size="10.00">stdio.h</text>
</a>
</g>
</g>
<!-- Node8&#45;&gt;Node10 -->
<g id="edge9_Node000008_Node000010" class="edge">
<title>Node8&#45;&gt;Node10</title>
<g id="a_edge9_Node000008_Node000010"><a xlink:title=" ">
<path fill="none" stroke="#63b8ff" d="M484.16,-55.59C482.68,-48.93 480.64,-39.75 478.79,-31.44"/>
<polygon fill="#63b8ff" stroke="#63b8ff" points="482.23,-30.78 476.64,-21.78 475.4,-32.3 482.23,-30.78"/>
</a>
</g>
</g>
<!-- Node11 -->
<g id="Node000011" class="node">
<title>Node11</title>
<g id="a_Node000011"><a xlink:title=" ">
<polygon fill="#e0e0e0" stroke="#999999" points="555.25,-20 515.25,-20 515.25,0 555.25,0 555.25,-20"/>
<text text-anchor="middle" x="535.25" y="-6.5" font-family="Helvetica,sans-Serif" font-size="10.00">string</text>
</a>
</g>
</g>
<!-- Node8&#45;&gt;Node11 -->
<g id="edge10_Node000008_Node000011" class="edge">
<title>Node8&#45;&gt;Node11</title>
<g id="a_edge10_Node000008_Node000011"><a xlink:title=" ">
<path fill="none" stroke="#63b8ff" d="M494.79,-55.59C501.53,-48.16 511.14,-37.58 519.29,-28.58"/>
<polygon fill="#63b8ff" stroke="#63b8ff" points="521.67,-31.18 525.8,-21.42 516.48,-26.47 521.67,-31.18"/>
</a>
</g>
</g>
<!-- Node13 -->
<g id="Node000013" class="node">
<title>Node13</title>
<g id="a_Node000013"><a xlink:title=" ">
<polygon fill="#e0e0e0" stroke="#999999" points="621.38,-20 573.12,-20 573.12,0 621.38,0 621.38,-20"/>
<text text-anchor="middle" x="597.25" y="-6.5" font-family="Helvetica,sans-Serif" font-size="10.00">stdint.h</text>
</a>
</g>
</g>
<!-- Node12&#45;&gt;Node13 -->
<g id="edge12_Node000012_Node000013" class="edge">
<title>Node12&#45;&gt;Node13</title>
<g id="a_edge12_Node000012_Node000013"><a xlink:title=" ">
<path fill="none" stroke="#63b8ff" d="M587.34,-55.59C588.82,-48.93 590.86,-39.75 592.71,-31.44"/>
<polygon fill="#63b8ff" stroke="#63b8ff" points="596.1,-32.3 594.86,-21.78 589.27,-30.78 596.1,-32.3"/>
</a>
</g>
</g>
</g>
</svg>
