<?xml version="1.0" encoding="UTF-8" standalone="no"?>
<!DOCTYPE svg PUBLIC "-//W3C//DTD SVG 1.1//EN"
 "http://www.w3.org/Graphics/SVG/1.1/DTD/svg11.dtd">
<!-- Generated by graphviz version 12.2.1 (20241206.2353)
 -->
<!-- Title: lib/comms/LoRa/LoRa&#45;RP2040.h Pages: 1 -->
<svg width="629pt" height="152pt"
 viewBox="0.00 0.00 629.38 152.00" xmlns="http://www.w3.org/2000/svg" xmlns:xlink="http://www.w3.org/1999/xlink">
<g id="graph0" class="graph" transform="scale(1 1) rotate(0) translate(4 148)">
<title>lib/comms/LoRa/LoRa&#45;RP2040.h</title>
<!-- Node1 -->
<g id="Node000001" class="node">
<title>Node1</title>
<g id="a_Node000001"><a xlink:title=" ">
<polygon fill="#999999" stroke="#666666" points="397,-144 283.5,-144 283.5,-112 397,-112 397,-144"/>
<text text-anchor="start" x="291.5" y="-130.5" font-family="Helvetica,sans-Serif" font-size="10.00">lib/comms/LoRa/LoRa</text>
<text text-anchor="middle" x="340.25" y="-118.5" font-family="Helvetica,sans-Serif" font-size="10.00">&#45;RP2040.h</text>
</a>
</g>
</g>
<!-- Node2 -->
<g id="Node000002" class="node">
<title>Node2</title>
<g id="a_Node000002"><a xlink:title=" ">
<polygon fill="#e0e0e0" stroke="#999999" points="68.5,-76 0,-76 0,-56 68.5,-56 68.5,-76"/>
<text text-anchor="middle" x="34.25" y="-62.5" font-family="Helvetica,sans-Serif" font-size="10.00">pico/stdlib.h</text>
</a>
</g>
</g>
<!-- Node1&#45;&gt;Node2 -->
<g id="edge1_Node000001_Node000002" class="edge">
<title>Node1&#45;&gt;Node2</title>
<g id="a_edge1_Node000001_Node000002"><a xlink:title=" ">
<path fill="none" stroke="#63b8ff" d="M283.23,-116.06C232.63,-106.32 156.36,-91.55 80.08,-76.35"/>
<polygon fill="#63b8ff" stroke="#63b8ff" points="80.81,-72.93 70.32,-74.4 79.44,-79.79 80.81,-72.93"/>
</a>
</g>
</g>
<!-- Node3 -->
<g id="Node000003" class="node">
<title>Node3</title>
<g id="a_Node000003"><a xlink:title=" ">
<polygon fill="#e0e0e0" stroke="#999999" points="179.5,-76 87,-76 87,-56 179.5,-56 179.5,-76"/>
<text text-anchor="middle" x="133.25" y="-62.5" font-family="Helvetica,sans-Serif" font-size="10.00">pico/binary_info.h</text>
</a>
</g>
</g>
<!-- Node1&#45;&gt;Node3 -->
<g id="edge2_Node000001_Node000003" class="edge">
<title>Node1&#45;&gt;Node3</title>
<g id="a_edge2_Node000001_Node000003"><a xlink:title=" ">
<path fill="none" stroke="#63b8ff" d="M286.94,-111.55C252.76,-101.64 208.94,-88.94 176.84,-79.64"/>
<polygon fill="#63b8ff" stroke="#63b8ff" points="178.05,-76.34 167.47,-76.92 176.1,-83.06 178.05,-76.34"/>
</a>
</g>
</g>
<!-- Node4 -->
<g id="Node000004" class="node">
<title>Node4</title>
<g id="a_Node000004"><a xlink:title=" ">
<polygon fill="#e0e0e0" stroke="#999999" points="282.75,-76 197.75,-76 197.75,-56 282.75,-56 282.75,-76"/>
<text text-anchor="middle" x="240.25" y="-62.5" font-family="Helvetica,sans-Serif" font-size="10.00">hardware/gpio.h</text>
</a>
</g>
</g>
<!-- Node1&#45;&gt;Node4 -->
<g id="edge3_Node000001_Node000004" class="edge">
<title>Node1&#45;&gt;Node4</title>
<g id="a_edge3_Node000001_Node000004"><a xlink:title=" ">
<path fill="none" stroke="#63b8ff" d="M314.5,-111.55C299.45,-102.52 280.54,-91.17 265.57,-82.19"/>
<polygon fill="#63b8ff" stroke="#63b8ff" points="267.6,-79.33 257.23,-77.19 264,-85.33 267.6,-79.33"/>
</a>
</g>
</g>
<!-- Node5 -->
<g id="Node000005" class="node">
<title>Node5</title>
<g id="a_Node000005"><a xlink:title=" ">
<polygon fill="#e0e0e0" stroke="#999999" points="380.12,-76 300.38,-76 300.38,-56 380.12,-56 380.12,-76"/>
<text text-anchor="middle" x="340.25" y="-62.5" font-family="Helvetica,sans-Serif" font-size="10.00">hardware/spi.h</text>
</a>
</g>
</g>
<!-- Node1&#45;&gt;Node5 -->
<g id="edge4_Node000001_Node000005" class="edge">
<title>Node1&#45;&gt;Node5</title>
<g id="a_edge4_Node000001_Node000005"><a xlink:title=" ">
<path fill="none" stroke="#63b8ff" d="M340.25,-111.55C340.25,-104.34 340.25,-95.66 340.25,-87.88"/>
<polygon fill="#63b8ff" stroke="#63b8ff" points="343.75,-87.92 340.25,-77.92 336.75,-87.92 343.75,-87.92"/>
</a>
</g>
</g>
<!-- Node6 -->
<g id="Node000006" class="node">
<title>Node6</title>
<g id="a_Node000006"><a xlink:title=" ">
<polygon fill="#e0e0e0" stroke="#999999" points="446.38,-76 398.12,-76 398.12,-56 446.38,-56 446.38,-76"/>
<text text-anchor="middle" x="422.25" y="-62.5" font-family="Helvetica,sans-Serif" font-size="10.00">string.h</text>
</a>
</g>
</g>
<!-- Node1&#45;&gt;Node6 -->
<g id="edge5_Node000001_Node000006" class="edge">
<title>Node1&#45;&gt;Node6</title>
<g id="a_edge5_Node000001_Node000006"><a xlink:title=" ">
<path fill="none" stroke="#63b8ff" d="M361.37,-111.55C373.35,-102.78 388.32,-91.83 400.42,-82.97"/>
<polygon fill="#63b8ff" stroke="#63b8ff" points="402.17,-86.03 408.17,-77.3 398.03,-80.38 402.17,-86.03"/>
</a>
</g>
</g>
<!-- Node7 -->
<g id="Node000007" class="node">
<title>Node7</title>
<g id="a_Node000007"><a xlink:href="_print_8h.html" target="_top" xlink:title=" ">
<polygon fill="white" stroke="#666666" points="508.5,-76 464,-76 464,-56 508.5,-56 508.5,-76"/>
<text text-anchor="middle" x="486.25" y="-62.5" font-family="Helvetica,sans-Serif" font-size="10.00">Print.h</text>
</a>
</g>
</g>
<!-- Node1&#45;&gt;Node7 -->
<g id="edge6_Node000001_Node000007" class="edge">
<title>Node1&#45;&gt;Node7</title>
<g id="a_edge6_Node000001_Node000007"><a xlink:title=" ">
<path fill="none" stroke="#63b8ff" d="M377.85,-111.55C401.23,-101.94 431,-89.71 453.43,-80.49"/>
<polygon fill="#63b8ff" stroke="#63b8ff" points="454.47,-83.85 462.38,-76.81 451.81,-77.37 454.47,-83.85"/>
</a>
</g>
</g>
<!-- Node11 -->
<g id="Node000011" class="node">
<title>Node11</title>
<g id="a_Node000011"><a xlink:href="pin__config_8h.html" target="_top" xlink:title=" ">
<polygon fill="white" stroke="#666666" points="619.5,-76 551,-76 551,-56 619.5,-56 619.5,-76"/>
<text text-anchor="middle" x="585.25" y="-62.5" font-family="Helvetica,sans-Serif" font-size="10.00">pin_config.h</text>
</a>
</g>
</g>
<!-- Node1&#45;&gt;Node11 -->
<g id="edge10_Node000001_Node000011" class="edge">
<title>Node1&#45;&gt;Node11</title>
<g id="a_edge10_Node000001_Node000011"><a xlink:title=" ">
<path fill="none" stroke="#63b8ff" d="M397.38,-113.01C440.72,-102.4 499.48,-88 539.68,-78.16"/>
<polygon fill="#63b8ff" stroke="#63b8ff" points="540.41,-81.59 549.29,-75.81 538.74,-74.79 540.41,-81.59"/>
</a>
</g>
</g>
<!-- Node8 -->
<g id="Node000008" class="node">
<title>Node8</title>
<g id="a_Node000008"><a xlink:title=" ">
<polygon fill="#e0e0e0" stroke="#999999" points="433.62,-20 374.88,-20 374.88,0 433.62,0 433.62,-20"/>
<text text-anchor="middle" x="404.25" y="-6.5" font-family="Helvetica,sans-Serif" font-size="10.00">inttypes.h</text>
</a>
</g>
</g>
<!-- Node7&#45;&gt;Node8 -->
<g id="edge7_Node000007_Node000008" class="edge">
<title>Node7&#45;&gt;Node8</title>
<g id="a_edge7_Node000007_Node000008"><a xlink:title=" ">
<path fill="none" stroke="#63b8ff" d="M471.97,-55.59C459.81,-47.59 442.11,-35.93 427.85,-26.54"/>
<polygon fill="#63b8ff" stroke="#63b8ff" points="430.19,-23.89 419.91,-21.31 426.34,-29.73 430.19,-23.89"/>
</a>
</g>
</g>
<!-- Node9 -->
<g id="Node000009" class="node">
<title>Node9</title>
<g id="a_Node000009"><a xlink:title=" ">
<polygon fill="#e0e0e0" stroke="#999999" points="496.88,-20 451.62,-20 451.62,0 496.88,0 496.88,-20"/>
<text text-anchor="middle" x="474.25" y="-6.5" font-family="Helvetica,sans-Serif" font-size="10.00">stdio.h</text>
</a>
</g>
</g>
<!-- Node7&#45;&gt;Node9 -->
<g id="edge8_Node000007_Node000009" class="edge">
<title>Node7&#45;&gt;Node9</title>
<g id="a_edge8_Node000007_Node000009"><a xlink:title=" ">
<path fill="none" stroke="#63b8ff" d="M484.16,-55.59C482.68,-48.93 480.64,-39.75 478.79,-31.44"/>
<polygon fill="#63b8ff" stroke="#63b8ff" points="482.23,-30.78 476.64,-21.78 475.4,-32.3 482.23,-30.78"/>
</a>
</g>
</g>
<!-- Node10 -->
<g id="Node000010" class="node">
<title>Node10</title>
<g id="a_Node000010"><a xlink:title=" ">
<polygon fill="#e0e0e0" stroke="#999999" points="555.25,-20 515.25,-20 515.25,0 555.25,0 555.25,-20"/>
<text text-anchor="middle" x="535.25" y="-6.5" font-family="Helvetica,sans-Serif" font-size="10.00">string</text>
</a>
</g>
</g>
<!-- Node7&#45;&gt;Node10 -->
<g id="edge9_Node000007_Node000010" class="edge">
<title>Node7&#45;&gt;Node10</title>
<g id="a_edge9_Node000007_Node000010"><a xlink:title=" ">
<path fill="none" stroke="#63b8ff" d="M494.79,-55.59C501.53,-48.16 511.14,-37.58 519.29,-28.58"/>
<polygon fill="#63b8ff" stroke="#63b8ff" points="521.67,-31.18 525.8,-21.42 516.48,-26.47 521.67,-31.18"/>
</a>
</g>
</g>
<!-- Node12 -->
<g id="Node000012" class="node">
<title>Node12</title>
<g id="a_Node000012"><a xlink:title=" ">
<polygon fill="#e0e0e0" stroke="#999999" points="621.38,-20 573.12,-20 573.12,0 621.38,0 621.38,-20"/>
<text text-anchor="middle" x="597.25" y="-6.5" font-family="Helvetica,sans-Serif" font-size="10.00">stdint.h</text>
</a>
</g>
</g>
<!-- Node11&#45;&gt;Node12 -->
<g id="edge11_Node000011_Node000012" class="edge">
<title>Node11&#45;&gt;Node12</title>
<g id="a_edge11_Node000011_Node000012"><a xlink:title=" ">
<path fill="none" stroke="#63b8ff" d="M587.34,-55.59C588.82,-48.93 590.86,-39.75 592.71,-31.44"/>
<polygon fill="#63b8ff" stroke="#63b8ff" points="596.1,-32.3 594.86,-21.78 589.27,-30.78 596.1,-32.3"/>
</a>
</g>
</g>
</g>
</svg>
