<?xml version="1.0" encoding="UTF-8" standalone="no"?>
<!DOCTYPE svg PUBLIC "-//W3C//DTD SVG 1.1//EN"
 "http://www.w3.org/Graphics/SVG/1.1/DTD/svg11.dtd">
<!-- Generated by graphviz version 12.2.1 (20241206.2353)
 -->
<!-- Title: lib/comms/LoRa/LoRa&#45;RP2040.h Pages: 1 -->
<svg width="1987pt" height="312pt"
 viewBox="0.00 0.00 1986.75 312.00" xmlns="http://www.w3.org/2000/svg" xmlns:xlink="http://www.w3.org/1999/xlink">
<g id="graph0" class="graph" transform="scale(1 1) rotate(0) translate(4 308)">
<title>lib/comms/LoRa/LoRa&#45;RP2040.h</title>
<!-- Node1 -->
<g id="Node000001" class="node">
<title>Node1</title>
<g id="a_Node000001"><a xlink:title=" ">
<polygon fill="#999999" stroke="#666666" points="901.88,-304 788.38,-304 788.38,-272 901.88,-272 901.88,-304"/>
<text text-anchor="start" x="796.38" y="-290.5" font-family="Helvetica,sans-Serif" font-size="10.00">lib/comms/LoRa/LoRa</text>
<text text-anchor="middle" x="845.12" y="-278.5" font-family="Helvetica,sans-Serif" font-size="10.00">&#45;RP2040.h</text>
</a>
</g>
</g>
<!-- Node2 -->
<g id="Node000002" class="node">
<title>Node2</title>
<g id="a_Node000002"><a xlink:href="_lo_ra-_r_p2040_8cpp.html" target="_top" xlink:title=" ">
<polygon fill="white" stroke="#666666" points="837.88,-236 724.38,-236 724.38,-204 837.88,-204 837.88,-236"/>
<text text-anchor="start" x="732.38" y="-222.5" font-family="Helvetica,sans-Serif" font-size="10.00">lib/comms/LoRa/LoRa</text>
<text text-anchor="middle" x="781.12" y="-210.5" font-family="Helvetica,sans-Serif" font-size="10.00">&#45;RP2040.cpp</text>
</a>
</g>
</g>
<!-- Node1&#45;&gt;Node2 -->
<g id="edge1_Node000001_Node000002" class="edge">
<title>Node1&#45;&gt;Node2</title>
<g id="a_edge1_Node000001_Node000002"><a xlink:title=" ">
<path fill="none" stroke="#63b8ff" d="M822.27,-263.43C813.49,-254.38 803.71,-244.29 795.89,-236.22"/>
<polygon fill="#63b8ff" stroke="#63b8ff" points="819.75,-265.86 829.23,-270.61 824.78,-260.99 819.75,-265.86"/>
</a>
</g>
</g>
<!-- Node3 -->
<g id="Node000003" class="node">
<title>Node3</title>
<g id="a_Node000003"><a xlink:href="protocol_8h.html" target="_top" xlink:title=" ">
<polygon fill="white" stroke="#666666" points="962.5,-230 855.75,-230 855.75,-210 962.5,-210 962.5,-230"/>
<text text-anchor="middle" x="909.12" y="-216.5" font-family="Helvetica,sans-Serif" font-size="10.00">lib/comms/protocol.h</text>
</a>
</g>
</g>
<!-- Node1&#45;&gt;Node3 -->
<g id="edge2_Node000001_Node000003" class="edge">
<title>Node1&#45;&gt;Node3</title>
<g id="a_edge2_Node000001_Node000003"><a xlink:title=" ">
<path fill="none" stroke="#63b8ff" d="M867.71,-263.71C878.87,-252.2 891.7,-238.97 900.09,-230.32"/>
<polygon fill="#63b8ff" stroke="#63b8ff" points="865.47,-260.99 861.02,-270.61 870.5,-265.86 865.47,-260.99"/>
</a>
</g>
</g>
<!-- Node4 -->
<g id="Node000004" class="node">
<title>Node4</title>
<g id="a_Node000004"><a xlink:href="includes_8h.html" target="_top" xlink:title=" ">
<polygon fill="white" stroke="#666666" points="60.25,-94 0,-94 0,-74 60.25,-74 60.25,-94"/>
<text text-anchor="middle" x="30.12" y="-80.5" font-family="Helvetica,sans-Serif" font-size="10.00">includes.h</text>
</a>
</g>
</g>
<!-- Node3&#45;&gt;Node4 -->
<g id="edge3_Node000003_Node000004" class="edge">
<title>Node3&#45;&gt;Node4</title>
<g id="a_edge3_Node000003_Node000004"><a xlink:title=" ">
<path fill="none" stroke="#63b8ff" d="M863.69,-207.02C858.14,-205.85 852.52,-204.8 847.12,-204 567.06,-162.54 485.91,-236.19 211.12,-168 146.03,-151.85 75.65,-112.51 45.38,-94.4"/>
<polygon fill="#63b8ff" stroke="#63b8ff" points="862.91,-210.43 873.43,-209.22 864.45,-203.6 862.91,-210.43"/>
</a>
</g>
</g>
<!-- Node6 -->
<g id="Node000006" class="node">
<title>Node6</title>
<g id="a_Node000006"><a xlink:href="commands_8h.html" target="_top" xlink:title=" ">
<polygon fill="white" stroke="#666666" points="332.12,-168 220.12,-168 220.12,-136 332.12,-136 332.12,-168"/>
<text text-anchor="start" x="228.12" y="-154.5" font-family="Helvetica,sans-Serif" font-size="10.00">lib/comms/commands</text>
<text text-anchor="middle" x="276.12" y="-142.5" font-family="Helvetica,sans-Serif" font-size="10.00">/commands.h</text>
</a>
</g>
</g>
<!-- Node3&#45;&gt;Node6 -->
<g id="edge5_Node000003_Node000006" class="edge">
<title>Node3&#45;&gt;Node6</title>
<g id="a_edge5_Node000003_Node000006"><a xlink:title=" ">
<path fill="none" stroke="#63b8ff" d="M863.07,-207.06C857.71,-205.91 852.32,-204.85 847.12,-204 660.05,-173.19 435.21,-159.99 332.4,-155.26"/>
<polygon fill="#63b8ff" stroke="#63b8ff" points="861.9,-210.38 872.42,-209.19 863.45,-203.56 861.9,-210.38"/>
</a>
</g>
</g>
<!-- Node9 -->
<g id="Node000009" class="node">
<title>Node9</title>
<g id="a_Node000009"><a xlink:href="communication_8h.html" target="_top" xlink:title=" ">
<polygon fill="white" stroke="#666666" points="978.25,-162 840,-162 840,-142 978.25,-142 978.25,-162"/>
<text text-anchor="middle" x="909.12" y="-148.5" font-family="Helvetica,sans-Serif" font-size="10.00">lib/comms/communication.h</text>
</a>
</g>
</g>
<!-- Node3&#45;&gt;Node9 -->
<g id="edge8_Node000003_Node000009" class="edge">
<title>Node3&#45;&gt;Node9</title>
<g id="a_edge8_Node000003_Node000009"><a xlink:title=" ">
<path fill="none" stroke="#63b8ff" d="M909.12,-198.28C909.12,-186.27 909.12,-171.74 909.12,-162.44"/>
<polygon fill="#63b8ff" stroke="#63b8ff" points="905.63,-198.03 909.13,-208.03 912.63,-198.03 905.63,-198.03"/>
</a>
</g>
</g>
<!-- Node19 -->
<g id="Node000019" class="node">
<title>Node19</title>
<g id="a_Node000019"><a xlink:href="event__manager_8cpp.html" target="_top" xlink:title="Implements the event management system for the Kubisat firmware.">
<polygon fill="white" stroke="#666666" points="1708.38,-100 1609.88,-100 1609.88,-68 1708.38,-68 1708.38,-100"/>
<text text-anchor="start" x="1617.88" y="-86.5" font-family="Helvetica,sans-Serif" font-size="10.00">lib/eventman/event</text>
<text text-anchor="middle" x="1659.12" y="-74.5" font-family="Helvetica,sans-Serif" font-size="10.00">_manager.cpp</text>
</a>
</g>
</g>
<!-- Node3&#45;&gt;Node19 -->
<g id="edge26_Node000003_Node000019" class="edge">
<title>Node3&#45;&gt;Node19</title>
<g id="a_edge26_Node000003_Node000019"><a xlink:title=" ">
<path fill="none" stroke="#63b8ff" d="M973.87,-209.7C1096.75,-191.64 1372,-149.24 1601.12,-100 1603.87,-99.41 1606.68,-98.78 1609.52,-98.12"/>
<polygon fill="#63b8ff" stroke="#63b8ff" points="973.7,-206.18 964.31,-211.1 974.71,-213.11 973.7,-206.18"/>
</a>
</g>
</g>
<!-- Node20 -->
<g id="Node000020" class="node">
<title>Node20</title>
<g id="a_Node000020"><a xlink:href="test__frame__common_8h.html" target="_top" xlink:title=" ">
<polygon fill="white" stroke="#666666" points="1843.75,-100 1726.5,-100 1726.5,-68 1843.75,-68 1843.75,-100"/>
<text text-anchor="start" x="1734.5" y="-86.5" font-family="Helvetica,sans-Serif" font-size="10.00">test/comms/test_frame</text>
<text text-anchor="middle" x="1785.12" y="-74.5" font-family="Helvetica,sans-Serif" font-size="10.00">_common.h</text>
</a>
</g>
</g>
<!-- Node3&#45;&gt;Node20 -->
<g id="edge27_Node000003_Node000020" class="edge">
<title>Node3&#45;&gt;Node20</title>
<g id="a_edge27_Node000003_Node000020"><a xlink:title=" ">
<path fill="none" stroke="#63b8ff" d="M974.2,-212.61C1059.06,-203.98 1212.04,-187.44 1342.12,-168 1509.65,-142.97 1551.06,-133.36 1717.12,-100 1720.09,-99.4 1723.12,-98.78 1726.18,-98.14"/>
<polygon fill="#63b8ff" stroke="#63b8ff" points="974.04,-209.11 964.44,-213.6 974.74,-216.07 974.04,-209.11"/>
</a>
</g>
</g>
<!-- Node5 -->
<g id="Node000005" class="node">
<title>Node5</title>
<g id="a_Node000005"><a xlink:href="main_8cpp.html" target="_top" xlink:title=" ">
<polygon fill="white" stroke="#666666" points="58,-26 2.25,-26 2.25,-6 58,-6 58,-26"/>
<text text-anchor="middle" x="30.12" y="-12.5" font-family="Helvetica,sans-Serif" font-size="10.00">main.cpp</text>
</a>
</g>
</g>
<!-- Node4&#45;&gt;Node5 -->
<g id="edge4_Node000004_Node000005" class="edge">
<title>Node4&#45;&gt;Node5</title>
<g id="a_edge4_Node000004_Node000005"><a xlink:title=" ">
<path fill="none" stroke="#63b8ff" d="M30.12,-62.28C30.12,-50.27 30.12,-35.74 30.12,-26.44"/>
<polygon fill="#63b8ff" stroke="#63b8ff" points="26.63,-62.03 30.13,-72.03 33.63,-62.03 26.63,-62.03"/>
</a>
</g>
</g>
<!-- Node7 -->
<g id="Node000007" class="node">
<title>Node7</title>
<g id="a_Node000007"><a xlink:href="commands_8cpp.html" target="_top" xlink:title=" ">
<polygon fill="white" stroke="#666666" points="190.12,-100 78.12,-100 78.12,-68 190.12,-68 190.12,-100"/>
<text text-anchor="start" x="86.12" y="-86.5" font-family="Helvetica,sans-Serif" font-size="10.00">lib/comms/commands</text>
<text text-anchor="middle" x="134.12" y="-74.5" font-family="Helvetica,sans-Serif" font-size="10.00">/commands.cpp</text>
</a>
</g>
</g>
<!-- Node6&#45;&gt;Node7 -->
<g id="edge6_Node000006_Node000007" class="edge">
<title>Node6&#45;&gt;Node7</title>
<g id="a_edge6_Node000006_Node000007"><a xlink:title=" ">
<path fill="none" stroke="#63b8ff" d="M232.54,-130.74C211.5,-120.96 186.67,-109.42 167.21,-100.38"/>
<polygon fill="#63b8ff" stroke="#63b8ff" points="230.92,-133.85 241.46,-134.89 233.87,-127.5 230.92,-133.85"/>
</a>
</g>
</g>
<!-- Node8 -->
<g id="Node000008" class="node">
<title>Node8</title>
<g id="a_Node000008"><a xlink:href="diagnostic__commands_8cpp.html" target="_top" xlink:title=" ">
<polygon fill="white" stroke="#666666" points="343.75,-100 208.5,-100 208.5,-68 343.75,-68 343.75,-100"/>
<text text-anchor="start" x="216.5" y="-86.5" font-family="Helvetica,sans-Serif" font-size="10.00">lib/comms/commands</text>
<text text-anchor="middle" x="276.12" y="-74.5" font-family="Helvetica,sans-Serif" font-size="10.00">/diagnostic_commands.cpp</text>
</a>
</g>
</g>
<!-- Node6&#45;&gt;Node8 -->
<g id="edge7_Node000006_Node000008" class="edge">
<title>Node6&#45;&gt;Node8</title>
<g id="a_edge7_Node000006_Node000008"><a xlink:title=" ">
<path fill="none" stroke="#63b8ff" d="M276.12,-124.31C276.12,-116.12 276.12,-107.38 276.12,-100.22"/>
<polygon fill="#63b8ff" stroke="#63b8ff" points="272.63,-124.18 276.13,-134.18 279.63,-124.18 272.63,-124.18"/>
</a>
</g>
</g>
<!-- Node9&#45;&gt;Node4 -->
<g id="edge9_Node000009_Node000004" class="edge">
<title>Node9&#45;&gt;Node4</title>
<g id="a_edge9_Node000009_Node000004"><a xlink:title=" ">
<path fill="none" stroke="#63b8ff" d="M828.51,-149.25C647.3,-144.79 212.39,-131.12 69.12,-100 63.17,-98.71 56.92,-96.65 51.22,-94.46"/>
<polygon fill="#63b8ff" stroke="#63b8ff" points="828.22,-152.74 838.31,-149.48 828.39,-145.74 828.22,-152.74"/>
</a>
</g>
</g>
<!-- Node9&#45;&gt;Node7 -->
<g id="edge11_Node000009_Node000007" class="edge">
<title>Node9&#45;&gt;Node7</title>
<g id="a_edge11_Node000009_Node000007"><a xlink:title=" ">
<path fill="none" stroke="#63b8ff" d="M828.5,-149.27C696.33,-145.53 425.63,-134.06 199.12,-100 196.26,-99.57 193.34,-99.08 190.39,-98.55"/>
<polygon fill="#63b8ff" stroke="#63b8ff" points="828.09,-152.76 838.18,-149.54 828.28,-145.77 828.09,-152.76"/>
</a>
</g>
</g>
<!-- Node9&#45;&gt;Node8 -->
<g id="edge12_Node000009_Node000008" class="edge">
<title>Node9&#45;&gt;Node8</title>
<g id="a_edge12_Node000009_Node000008"><a xlink:title=" ">
<path fill="none" stroke="#63b8ff" d="M828.35,-146.16C719.88,-139.07 521.34,-124.04 353.12,-100 350.16,-99.58 347.13,-99.11 344.08,-98.62"/>
<polygon fill="#63b8ff" stroke="#63b8ff" points="827.8,-149.63 838.01,-146.78 828.25,-142.64 827.8,-149.63"/>
</a>
</g>
</g>
<!-- Node10 -->
<g id="Node000010" class="node">
<title>Node10</title>
<g id="a_Node000010"><a xlink:href="clock__commands_8cpp.html" target="_top" xlink:title=" ">
<polygon fill="white" stroke="#666666" points="900.25,-100 786,-100 786,-68 900.25,-68 900.25,-100"/>
<text text-anchor="start" x="794" y="-86.5" font-family="Helvetica,sans-Serif" font-size="10.00">lib/comms/commands</text>
<text text-anchor="middle" x="843.12" y="-74.5" font-family="Helvetica,sans-Serif" font-size="10.00">/clock_commands.cpp</text>
</a>
</g>
</g>
<!-- Node9&#45;&gt;Node10 -->
<g id="edge10_Node000009_Node000010" class="edge">
<title>Node9&#45;&gt;Node10</title>
<g id="a_edge10_Node000009_Node000010"><a xlink:title=" ">
<path fill="none" stroke="#63b8ff" d="M891.73,-133.6C881.38,-123.26 868.38,-110.25 858.43,-100.3"/>
<polygon fill="#63b8ff" stroke="#63b8ff" points="889.05,-135.88 898.6,-140.47 894,-130.93 889.05,-135.88"/>
</a>
</g>
</g>
<!-- Node11 -->
<g id="Node000011" class="node">
<title>Node11</title>
<g id="a_Node000011"><a xlink:href="event__commands_8cpp.html" target="_top" xlink:title=" ">
<polygon fill="white" stroke="#666666" points="1033.62,-100 918.62,-100 918.62,-68 1033.62,-68 1033.62,-100"/>
<text text-anchor="start" x="926.62" y="-86.5" font-family="Helvetica,sans-Serif" font-size="10.00">lib/comms/commands</text>
<text text-anchor="middle" x="976.12" y="-74.5" font-family="Helvetica,sans-Serif" font-size="10.00">/event_commands.cpp</text>
</a>
</g>
</g>
<!-- Node9&#45;&gt;Node11 -->
<g id="edge13_Node000009_Node000011" class="edge">
<title>Node9&#45;&gt;Node11</title>
<g id="a_edge13_Node000009_Node000011"><a xlink:title=" ">
<path fill="none" stroke="#63b8ff" d="M926.78,-133.6C937.29,-123.26 950.49,-110.25 960.59,-100.3"/>
<polygon fill="#63b8ff" stroke="#63b8ff" points="924.47,-130.97 919.8,-140.48 929.38,-135.96 924.47,-130.97"/>
</a>
</g>
</g>
<!-- Node12 -->
<g id="Node000012" class="node">
<title>Node12</title>
<g id="a_Node000012"><a xlink:href="gps__commands_8cpp.html" target="_top" xlink:title=" ">
<polygon fill="white" stroke="#666666" points="1164.12,-100 1052.12,-100 1052.12,-68 1164.12,-68 1164.12,-100"/>
<text text-anchor="start" x="1060.12" y="-86.5" font-family="Helvetica,sans-Serif" font-size="10.00">lib/comms/commands</text>
<text text-anchor="middle" x="1108.12" y="-74.5" font-family="Helvetica,sans-Serif" font-size="10.00">/gps_commands.cpp</text>
</a>
</g>
</g>
<!-- Node9&#45;&gt;Node12 -->
<g id="edge14_Node000009_Node000012" class="edge">
<title>Node9&#45;&gt;Node12</title>
<g id="a_edge14_Node000009_Node000012"><a xlink:title=" ">
<path fill="none" stroke="#63b8ff" d="M948.53,-137.93C981.05,-127.15 1027.27,-111.82 1061.61,-100.43"/>
<polygon fill="#63b8ff" stroke="#63b8ff" points="947.46,-134.6 939.07,-141.07 949.67,-141.24 947.46,-134.6"/>
</a>
</g>
</g>
<!-- Node13 -->
<g id="Node000013" class="node">
<title>Node13</title>
<g id="a_Node000013"><a xlink:href="power__commands_8cpp.html" target="_top" xlink:title=" ">
<polygon fill="white" stroke="#666666" points="1299.75,-100 1182.5,-100 1182.5,-68 1299.75,-68 1299.75,-100"/>
<text text-anchor="start" x="1190.5" y="-86.5" font-family="Helvetica,sans-Serif" font-size="10.00">lib/comms/commands</text>
<text text-anchor="middle" x="1241.12" y="-74.5" font-family="Helvetica,sans-Serif" font-size="10.00">/power_commands.cpp</text>
</a>
</g>
</g>
<!-- Node9&#45;&gt;Node13 -->
<g id="edge15_Node000009_Node000013" class="edge">
<title>Node9&#45;&gt;Node13</title>
<g id="a_edge15_Node000009_Node000013"><a xlink:title=" ">
<path fill="none" stroke="#63b8ff" d="M971.33,-139.46C1024.89,-129.41 1104.2,-114.26 1173.12,-100 1176.08,-99.39 1179.11,-98.75 1182.17,-98.1"/>
<polygon fill="#63b8ff" stroke="#63b8ff" points="970.98,-135.97 961.8,-141.25 972.27,-142.85 970.98,-135.97"/>
</a>
</g>
</g>
<!-- Node14 -->
<g id="Node000014" class="node">
<title>Node14</title>
<g id="a_Node000014"><a xlink:href="communication_8cpp.html" target="_top" xlink:title=" ">
<polygon fill="white" stroke="#666666" points="1466.5,-94 1317.75,-94 1317.75,-74 1466.5,-74 1466.5,-94"/>
<text text-anchor="middle" x="1392.12" y="-80.5" font-family="Helvetica,sans-Serif" font-size="10.00">lib/comms/communication.cpp</text>
</a>
</g>
</g>
<!-- Node9&#45;&gt;Node14 -->
<g id="edge16_Node000009_Node000014" class="edge">
<title>Node9&#45;&gt;Node14</title>
<g id="a_edge16_Node000009_Node000014"><a xlink:title=" ">
<path fill="none" stroke="#63b8ff" d="M989.75,-141.97C1070.65,-132.61 1198.77,-117 1309.12,-100 1319.83,-98.35 1331.29,-96.4 1342.16,-94.46"/>
<polygon fill="#63b8ff" stroke="#63b8ff" points="989.69,-138.45 980.15,-143.07 990.49,-145.41 989.69,-138.45"/>
</a>
</g>
</g>
<!-- Node15 -->
<g id="Node000015" class="node">
<title>Node15</title>
<g id="a_Node000015"><a xlink:href="frame_8cpp.html" target="_top" xlink:title="Implements functions for encoding, decoding, building, and processing Frames.">
<polygon fill="white" stroke="#666666" points="1591.88,-94 1484.38,-94 1484.38,-74 1591.88,-74 1591.88,-94"/>
<text text-anchor="middle" x="1538.12" y="-80.5" font-family="Helvetica,sans-Serif" font-size="10.00">lib/comms/frame.cpp</text>
</a>
</g>
</g>
<!-- Node9&#45;&gt;Node15 -->
<g id="edge17_Node000009_Node000015" class="edge">
<title>Node9&#45;&gt;Node15</title>
<g id="a_edge17_Node000009_Node000015"><a xlink:title=" ">
<path fill="none" stroke="#63b8ff" d="M989.7,-147.39C1099.89,-141.63 1303.49,-128.02 1475.12,-100 1484,-98.55 1493.48,-96.54 1502.32,-94.47"/>
<polygon fill="#63b8ff" stroke="#63b8ff" points="989.68,-143.89 979.87,-147.9 990.04,-150.88 989.68,-143.89"/>
</a>
</g>
</g>
<!-- Node16 -->
<g id="Node000016" class="node">
<title>Node16</title>
<g id="a_Node000016"><a xlink:href="receive_8cpp.html" target="_top" xlink:title="Implements functions for receiving and processing data, including LoRa and UART input.">
<polygon fill="white" stroke="#666666" points="476.25,-94 362,-94 362,-74 476.25,-74 476.25,-94"/>
<text text-anchor="middle" x="419.12" y="-80.5" font-family="Helvetica,sans-Serif" font-size="10.00">lib/comms/receive.cpp</text>
</a>
</g>
</g>
<!-- Node9&#45;&gt;Node16 -->
<g id="edge18_Node000009_Node000016" class="edge">
<title>Node9&#45;&gt;Node16</title>
<g id="a_edge18_Node000009_Node000016"><a xlink:title=" ">
<path fill="none" stroke="#63b8ff" d="M828.31,-143.8C742.73,-135.58 603.86,-120.58 485.12,-100 476.21,-98.46 466.69,-96.48 457.73,-94.48"/>
<polygon fill="#63b8ff" stroke="#63b8ff" points="827.98,-147.28 838.26,-144.74 828.64,-140.31 827.98,-147.28"/>
</a>
</g>
</g>
<!-- Node17 -->
<g id="Node000017" class="node">
<title>Node17</title>
<g id="a_Node000017"><a xlink:href="send_8cpp.html" target="_top" xlink:title="Implements functions for sending data, including LoRa messages and Frames.">
<polygon fill="white" stroke="#666666" points="598,-94 494.25,-94 494.25,-74 598,-74 598,-94"/>
<text text-anchor="middle" x="546.12" y="-80.5" font-family="Helvetica,sans-Serif" font-size="10.00">lib/comms/send.cpp</text>
</a>
</g>
</g>
<!-- Node9&#45;&gt;Node17 -->
<g id="edge19_Node000009_Node000017" class="edge">
<title>Node9&#45;&gt;Node17</title>
<g id="a_edge19_Node000009_Node000017"><a xlink:title=" ">
<path fill="none" stroke="#63b8ff" d="M833.54,-139.82C772.28,-130.38 683.84,-115.89 607.12,-100 599.22,-98.36 590.79,-96.42 582.8,-94.48"/>
<polygon fill="#63b8ff" stroke="#63b8ff" points="832.74,-143.24 843.16,-141.29 833.8,-136.32 832.74,-143.24"/>
</a>
</g>
</g>
<!-- Node18 -->
<g id="Node000018" class="node">
<title>Node18</title>
<g id="a_Node000018"><a xlink:href="utils__converters_8cpp.html" target="_top" xlink:title="Implements utility functions for converting between different data types.">
<polygon fill="white" stroke="#666666" points="768,-94 616.25,-94 616.25,-74 768,-74 768,-94"/>
<text text-anchor="middle" x="692.12" y="-80.5" font-family="Helvetica,sans-Serif" font-size="10.00">lib/comms/utils_converters.cpp</text>
</a>
</g>
</g>
<!-- Node9&#45;&gt;Node18 -->
<g id="edge20_Node000009_Node000018" class="edge">
<title>Node9&#45;&gt;Node18</title>
<g id="a_edge20_Node000009_Node000018"><a xlink:title=" ">
<path fill="none" stroke="#63b8ff" d="M867.29,-138.28C825.11,-125.45 761,-105.95 723.16,-94.44"/>
<polygon fill="#63b8ff" stroke="#63b8ff" points="866,-141.54 876.59,-141.1 868.04,-134.84 866,-141.54"/>
</a>
</g>
</g>
<!-- Node9&#45;&gt;Node19 -->
<g id="edge21_Node000009_Node000019" class="edge">
<title>Node9&#45;&gt;Node19</title>
<g id="a_edge21_Node000009_Node000019"><a xlink:title=" ">
<path fill="none" stroke="#63b8ff" d="M989.73,-149.74C1119.38,-146.67 1381.9,-136.13 1601.12,-100 1603.9,-99.54 1606.73,-99.02 1609.58,-98.44"/>
<polygon fill="#63b8ff" stroke="#63b8ff" points="989.79,-146.24 979.88,-149.96 989.95,-153.24 989.79,-146.24"/>
</a>
</g>
</g>
<!-- Node9&#45;&gt;Node20 -->
<g id="edge22_Node000009_Node000020" class="edge">
<title>Node9&#45;&gt;Node20</title>
<g id="a_edge22_Node000009_Node000020"><a xlink:title=" ">
<path fill="none" stroke="#63b8ff" d="M990.15,-150.01C1136.16,-147.3 1452.88,-137.26 1717.12,-100 1720.12,-99.58 1723.17,-99.1 1726.25,-98.57"/>
<polygon fill="#63b8ff" stroke="#63b8ff" points="990.11,-146.51 980.18,-150.18 990.24,-153.51 990.11,-146.51"/>
</a>
</g>
</g>
<!-- Node21 -->
<g id="Node000021" class="node">
<title>Node21</title>
<g id="a_Node000021"><a xlink:href="test__converters_8cpp.html" target="_top" xlink:title=" ">
<polygon fill="white" stroke="#666666" points="1708.62,-26 1551.62,-26 1551.62,-6 1708.62,-6 1708.62,-26"/>
<text text-anchor="middle" x="1630.12" y="-12.5" font-family="Helvetica,sans-Serif" font-size="10.00">test/comms/test_converters.cpp</text>
</a>
</g>
</g>
<!-- Node20&#45;&gt;Node21 -->
<g id="edge23_Node000020_Node000021" class="edge">
<title>Node20&#45;&gt;Node21</title>
<g id="a_edge23_Node000020_Node000021"><a xlink:title=" ">
<path fill="none" stroke="#63b8ff" d="M1738.23,-63.03C1709.73,-50.9 1674.66,-35.96 1652.34,-26.46"/>
<polygon fill="#63b8ff" stroke="#63b8ff" points="1736.82,-66.24 1747.39,-66.93 1739.56,-59.79 1736.82,-66.24"/>
</a>
</g>
</g>
<!-- Node22 -->
<g id="Node000022" class="node">
<title>Node22</title>
<g id="a_Node000022"><a xlink:href="test__frame__build_8cpp.html" target="_top" xlink:title=" ">
<polygon fill="white" stroke="#666666" points="1843.75,-32 1726.5,-32 1726.5,0 1843.75,0 1843.75,-32"/>
<text text-anchor="start" x="1734.5" y="-18.5" font-family="Helvetica,sans-Serif" font-size="10.00">test/comms/test_frame</text>
<text text-anchor="middle" x="1785.12" y="-6.5" font-family="Helvetica,sans-Serif" font-size="10.00">_build.cpp</text>
</a>
</g>
</g>
<!-- Node20&#45;&gt;Node22 -->
<g id="edge24_Node000020_Node000022" class="edge">
<title>Node20&#45;&gt;Node22</title>
<g id="a_edge24_Node000020_Node000022"><a xlink:title=" ">
<path fill="none" stroke="#63b8ff" d="M1785.12,-56.31C1785.12,-48.12 1785.12,-39.38 1785.12,-32.22"/>
<polygon fill="#63b8ff" stroke="#63b8ff" points="1781.63,-56.18 1785.13,-66.18 1788.63,-56.18 1781.63,-56.18"/>
</a>
</g>
</g>
<!-- Node23 -->
<g id="Node000023" class="node">
<title>Node23</title>
<g id="a_Node000023"><a xlink:href="test__frame__coding_8cpp.html" target="_top" xlink:title=" ">
<polygon fill="white" stroke="#666666" points="1978.75,-32 1861.5,-32 1861.5,0 1978.75,0 1978.75,-32"/>
<text text-anchor="start" x="1869.5" y="-18.5" font-family="Helvetica,sans-Serif" font-size="10.00">test/comms/test_frame</text>
<text text-anchor="middle" x="1920.12" y="-6.5" font-family="Helvetica,sans-Serif" font-size="10.00">_coding.cpp</text>
</a>
</g>
</g>
<!-- Node20&#45;&gt;Node23 -->
<g id="edge25_Node000020_Node000023" class="edge">
<title>Node20&#45;&gt;Node23</title>
<g id="a_edge25_Node000020_Node000023"><a xlink:title=" ">
<path fill="none" stroke="#63b8ff" d="M1827.11,-62.47C1847,-52.75 1870.34,-41.34 1888.67,-32.38"/>
<polygon fill="#63b8ff" stroke="#63b8ff" points="1825.58,-59.32 1818.14,-66.86 1828.66,-65.61 1825.58,-59.32"/>
</a>
</g>
</g>
</g>
</svg>
