<?xml version="1.0" encoding="UTF-8" standalone="no"?>
<!DOCTYPE svg PUBLIC "-//W3C//DTD SVG 1.1//EN"
 "http://www.w3.org/Graphics/SVG/1.1/DTD/svg11.dtd">
<!-- Generated by graphviz version 12.2.1 (20241206.2353)
 -->
<!-- Title: lib/sensors/MPU6050/MPU6050_WRAPPER.h Pages: 1 -->
<svg width="329pt" height="152pt"
 viewBox="0.00 0.00 328.50 152.00" xmlns="http://www.w3.org/2000/svg" xmlns:xlink="http://www.w3.org/1999/xlink">

<svg id="main" version="1.1" xmlns="http://www.w3.org/2000/svg" xmlns:xlink="http://www.w3.org/1999/xlink" xml:space="preserve">

<style type="text/css"><![CDATA[
.node, .edge {opacity: 0.7;}
.node.selected, .edge.selected {opacity: 1;}
.edge:hover path { stroke: red; }
.edge:hover polygon { stroke: red; fill: red; }
]]></style>
<script type="application/ecmascript" xlink:href="svg.min.js"/>
<svg id="graph" class="graph">
<g id="graph0" class="graph" transform="scale(1 1) rotate(0) translate(4 148)">
<title>lib/sensors/MPU6050/MPU6050_WRAPPER.h</title>
<!-- Node1 -->
<g id="Node000001" class="node">
<title>Node1</title>
<g id="a_Node000001"><a xlink:title=" ">
<polygon fill="#999999" stroke="#666666" points="269.5,-144 141.75,-144 141.75,-112 269.5,-112 269.5,-144"/>
<text text-anchor="start" x="149.75" y="-130.5" font-family="Helvetica,sans-Serif" font-size="10.00">lib/sensors/MPU6050</text>
<text text-anchor="middle" x="205.62" y="-118.5" font-family="Helvetica,sans-Serif" font-size="10.00">/MPU6050_WRAPPER.h</text>
</a>
</g>
</g>
<!-- Node2 -->
<g id="Node000002" class="node">
<title>Node2</title>
<g id="a_Node000002"><a xlink:href="_i_sensor_8h.html" target="_top" xlink:title=" ">
<polygon fill="white" stroke="#666666" points="158.62,-76 100.62,-76 100.62,-56 158.62,-56 158.62,-76"/>
<text text-anchor="middle" x="129.62" y="-62.5" font-family="Helvetica,sans-Serif" font-size="10.00">ISensor.h</text>
</a>
</g>
</g>
<!-- Node1&#45;&gt;Node2 -->
<g id="edge1_Node000001_Node000002" class="edge">
<title>Node1&#45;&gt;Node2</title>
<g id="a_edge1_Node000001_Node000002"><a xlink:title=" ">
<path fill="none" stroke="#63b8ff" d="M186.05,-111.55C175.17,-102.95 161.62,-92.26 150.53,-83.5"/>
<polygon fill="#63b8ff" stroke="#63b8ff" points="152.75,-80.8 142.73,-77.35 148.41,-86.29 152.75,-80.8"/>
</a>
</g>
</g>
<!-- Node5 -->
<g id="Node000005" class="node">
<title>Node5</title>
<g id="a_Node000005"><a xlink:title=" ">
<polygon fill="#e0e0e0" stroke="#999999" points="196,-20 161.25,-20 161.25,0 196,0 196,-20"/>
<text text-anchor="middle" x="178.62" y="-6.5" font-family="Helvetica,sans-Serif" font-size="10.00">map</text>
</a>
</g>
</g>
<!-- Node1&#45;&gt;Node5 -->
<g id="edge7_Node000001_Node000005" class="edge">
<title>Node1&#45;&gt;Node5</title>
<g id="a_edge7_Node000001_Node000005"><a xlink:title=" ">
<path fill="none" stroke="#63b8ff" d="M202.1,-111.84C197.32,-91.32 188.78,-54.63 183.43,-31.62"/>
<polygon fill="#63b8ff" stroke="#63b8ff" points="186.84,-30.86 181.16,-21.91 180.02,-32.44 186.84,-30.86"/>
</a>
</g>
</g>
<!-- Node6 -->
<g id="Node000006" class="node">
<title>Node6</title>
<g id="a_Node000006"><a xlink:title=" ">
<polygon fill="#e0e0e0" stroke="#999999" points="253.62,-20 213.62,-20 213.62,0 253.62,0 253.62,-20"/>
<text text-anchor="middle" x="233.62" y="-6.5" font-family="Helvetica,sans-Serif" font-size="10.00">string</text>
</a>
</g>
</g>
<!-- Node1&#45;&gt;Node6 -->
<g id="edge8_Node000001_Node000006" class="edge">
<title>Node1&#45;&gt;Node6</title>
<g id="a_edge8_Node000001_Node000006"><a xlink:title=" ">
<path fill="none" stroke="#63b8ff" d="M209.29,-111.84C214.24,-91.32 223.09,-54.63 228.65,-31.62"/>
<polygon fill="#63b8ff" stroke="#63b8ff" points="232.05,-32.45 230.99,-21.91 225.24,-30.81 232.05,-32.45"/>
</a>
</g>
</g>
<!-- Node7 -->
<g id="Node000007" class="node">
<title>Node7</title>
<g id="a_Node000007"><a xlink:href="_m_p_u6050_8h.html" target="_top" xlink:title=" ">
<polygon fill="white" stroke="#666666" points="320.5,-76 252.75,-76 252.75,-56 320.5,-56 320.5,-76"/>
<text text-anchor="middle" x="286.62" y="-62.5" font-family="Helvetica,sans-Serif" font-size="10.00">MPU6050.h</text>
</a>
</g>
</g>
<!-- Node1&#45;&gt;Node7 -->
<g id="edge6_Node000001_Node000007" class="edge">
<title>Node1&#45;&gt;Node7</title>
<g id="a_edge6_Node000001_Node000007"><a xlink:title=" ">
<path fill="none" stroke="#63b8ff" d="M226.48,-111.55C238.2,-102.87 252.82,-92.04 264.7,-83.24"/>
<polygon fill="#63b8ff" stroke="#63b8ff" points="266.76,-86.07 272.71,-77.31 262.59,-80.45 266.76,-86.07"/>
</a>
</g>
</g>
<!-- Node3 -->
<g id="Node000003" class="node">
<title>Node3</title>
<g id="a_Node000003"><a xlink:title=" ">
<polygon fill="#e0e0e0" stroke="#999999" points="45.25,-20 0,-20 0,0 45.25,0 45.25,-20"/>
<text text-anchor="middle" x="22.62" y="-6.5" font-family="Helvetica,sans-Serif" font-size="10.00">cstdint</text>
</a>
</g>
</g>
<!-- Node2&#45;&gt;Node3 -->
<g id="edge2_Node000002_Node000003" class="edge">
<title>Node2&#45;&gt;Node3</title>
<g id="a_edge2_Node000002_Node000003"><a xlink:title=" ">
<path fill="none" stroke="#63b8ff" d="M110.99,-55.59C94.59,-47.32 70.47,-35.14 51.56,-25.6"/>
<polygon fill="#63b8ff" stroke="#63b8ff" points="53.26,-22.54 42.76,-21.16 50.11,-28.79 53.26,-22.54"/>
</a>
</g>
</g>
<!-- Node4 -->
<g id="Node000004" class="node">
<title>Node4</title>
<g id="a_Node000004"><a xlink:title=" ">
<polygon fill="#e0e0e0" stroke="#999999" points="143.5,-20 63.75,-20 63.75,0 143.5,0 143.5,-20"/>
<text text-anchor="middle" x="103.62" y="-6.5" font-family="Helvetica,sans-Serif" font-size="10.00">hardware/i2c.h</text>
</a>
</g>
</g>
<!-- Node2&#45;&gt;Node4 -->
<g id="edge3_Node000002_Node000004" class="edge">
<title>Node2&#45;&gt;Node4</title>
<g id="a_edge3_Node000002_Node000004"><a xlink:title=" ">
<path fill="none" stroke="#63b8ff" d="M125.1,-55.59C121.78,-48.7 117.16,-39.1 113.05,-30.57"/>
<polygon fill="#63b8ff" stroke="#63b8ff" points="116.25,-29.15 108.76,-21.66 109.94,-32.19 116.25,-29.15"/>
</a>
</g>
</g>
<!-- Node2&#45;&gt;Node5 -->
<g id="edge4_Node000002_Node000005" class="edge">
<title>Node2&#45;&gt;Node5</title>
<g id="a_edge4_Node000002_Node000005"><a xlink:title=" ">
<path fill="none" stroke="#63b8ff" d="M138.16,-55.59C144.91,-48.16 154.51,-37.58 162.67,-28.58"/>
<polygon fill="#63b8ff" stroke="#63b8ff" points="165.04,-31.18 169.17,-21.42 159.86,-26.47 165.04,-31.18"/>
</a>
</g>
</g>
<!-- Node2&#45;&gt;Node6 -->
<g id="edge5_Node000002_Node000006" class="edge">
<title>Node2&#45;&gt;Node6</title>
<g id="a_edge5_Node000002_Node000006"><a xlink:title=" ">
<path fill="none" stroke="#63b8ff" d="M147.74,-55.59C163.6,-47.36 186.91,-35.26 205.24,-25.74"/>
<polygon fill="#63b8ff" stroke="#63b8ff" points="206.76,-28.89 214.02,-21.18 203.54,-22.68 206.76,-28.89"/>
</a>
</g>
</g>
</g>
</svg>
</svg>

<style type='text/css'>
<![CDATA[
[data-mouse-over-selected='false'] { opacity: 0.7; }
[data-mouse-over-selected='true']  { opacity: 1.0; }
]]>
</style>
<script type="application/ecmascript"><![CDATA[
document.addEventListener('DOMContentLoaded', (event) => {
  highlightEdges();
  highlightAdjacentNodes();
});
]]></script>
</svg>
