<?xml version="1.0" encoding="UTF-8" standalone="no"?>
<!DOCTYPE svg PUBLIC "-//W3C//DTD SVG 1.1//EN"
 "http://www.w3.org/Graphics/SVG/1.1/DTD/svg11.dtd">
<!-- Generated by graphviz version 12.2.1 (20241206.2353)
 -->
<!-- Title: lib/location/NMEA/NMEA_data.h Pages: 1 -->
<svg width="436pt" height="232pt"
 viewBox="0.00 0.00 435.50 232.00" xmlns="http://www.w3.org/2000/svg" xmlns:xlink="http://www.w3.org/1999/xlink">

<svg id="main" version="1.1" xmlns="http://www.w3.org/2000/svg" xmlns:xlink="http://www.w3.org/1999/xlink" xml:space="preserve">

<style type="text/css"><![CDATA[
.node, .edge {opacity: 0.7;}
.node.selected, .edge.selected {opacity: 1;}
.edge:hover path { stroke: red; }
.edge:hover polygon { stroke: red; fill: red; }
]]></style>
<script type="application/ecmascript" xlink:href="svg.min.js"/>
<svg id="graph" class="graph">
<g id="graph0" class="graph" transform="scale(1 1) rotate(0) translate(4 228)">
<title>lib/location/NMEA/NMEA_data.h</title>
<!-- Node1 -->
<g id="Node000001" class="node">
<title>Node1</title>
<g id="a_Node000001"><a xlink:title=" ">
<polygon fill="#999999" stroke="#666666" points="219,-224 92,-224 92,-192 219,-192 219,-224"/>
<text text-anchor="start" x="100" y="-210.5" font-family="Helvetica,sans-Serif" font-size="10.00">lib/location/NMEA/NMEA</text>
<text text-anchor="middle" x="155.5" y="-198.5" font-family="Helvetica,sans-Serif" font-size="10.00">_data.h</text>
</a>
</g>
</g>
<!-- Node2 -->
<g id="Node000002" class="node">
<title>Node2</title>
<g id="a_Node000002"><a xlink:href="_n_m_e_a__data_8cpp.html" target="_top" xlink:title=" ">
<polygon fill="white" stroke="#666666" points="127,-156 0,-156 0,-124 127,-124 127,-156"/>
<text text-anchor="start" x="8" y="-142.5" font-family="Helvetica,sans-Serif" font-size="10.00">lib/location/NMEA/NMEA</text>
<text text-anchor="middle" x="63.5" y="-130.5" font-family="Helvetica,sans-Serif" font-size="10.00">_data.cpp</text>
</a>
</g>
</g>
<!-- Node1&#45;&gt;Node2 -->
<g id="edge1_Node000001_Node000002" class="edge">
<title>Node1&#45;&gt;Node2</title>
<g id="a_edge1_Node000001_Node000002"><a xlink:title=" ">
<path fill="none" stroke="#63b8ff" d="M125.04,-185.15C111.94,-175.75 96.95,-165 85.04,-156.45"/>
<polygon fill="#63b8ff" stroke="#63b8ff" points="122.77,-187.82 132.93,-190.81 126.85,-182.14 122.77,-187.82"/>
</a>
</g>
</g>
<!-- Node3 -->
<g id="Node000003" class="node">
<title>Node3</title>
<g id="a_Node000003"><a xlink:href="gps__collector_8cpp.html" target="_top" xlink:title=" ">
<polygon fill="white" stroke="#666666" points="219.5,-82 77.5,-82 77.5,-62 219.5,-62 219.5,-82"/>
<text text-anchor="middle" x="148.5" y="-68.5" font-family="Helvetica,sans-Serif" font-size="10.00">lib/location/gps_collector.cpp</text>
</a>
</g>
</g>
<!-- Node1&#45;&gt;Node3 -->
<g id="edge2_Node000001_Node000003" class="edge">
<title>Node1&#45;&gt;Node3</title>
<g id="a_edge2_Node000001_Node000003"><a xlink:title=" ">
<path fill="none" stroke="#63b8ff" d="M154.1,-180.21C152.52,-149.9 150.02,-102.16 148.98,-82.22"/>
<polygon fill="#63b8ff" stroke="#63b8ff" points="150.6,-180.31 154.62,-190.12 157.59,-179.95 150.6,-180.31"/>
</a>
</g>
</g>
<!-- Node4 -->
<g id="Node000004" class="node">
<title>Node4</title>
<g id="a_Node000004"><a xlink:href="gps__collector_8h.html" target="_top" xlink:title=" ">
<polygon fill="white" stroke="#666666" points="327.25,-150 195.75,-150 195.75,-130 327.25,-130 327.25,-150"/>
<text text-anchor="middle" x="261.5" y="-136.5" font-family="Helvetica,sans-Serif" font-size="10.00">lib/location/gps_collector.h</text>
</a>
</g>
</g>
<!-- Node1&#45;&gt;Node4 -->
<g id="edge3_Node000001_Node000004" class="edge">
<title>Node1&#45;&gt;Node4</title>
<g id="a_edge3_Node000001_Node000004"><a xlink:title=" ">
<path fill="none" stroke="#63b8ff" d="M189.91,-185.57C208.95,-173.72 231.65,-159.59 246.31,-150.46"/>
<polygon fill="#63b8ff" stroke="#63b8ff" points="188.28,-182.47 181.64,-190.73 191.98,-188.41 188.28,-182.47"/>
</a>
</g>
</g>
<!-- Node4&#45;&gt;Node3 -->
<g id="edge7_Node000004_Node000003" class="edge">
<title>Node4&#45;&gt;Node3</title>
<g id="a_edge7_Node000004_Node000003"><a xlink:title=" ">
<path fill="none" stroke="#63b8ff" d="M235.38,-123.74C213.55,-110.99 183.11,-93.21 164.66,-82.44"/>
<polygon fill="#63b8ff" stroke="#63b8ff" points="233.6,-126.76 244,-128.78 237.13,-120.71 233.6,-126.76"/>
</a>
</g>
</g>
<!-- Node5 -->
<g id="Node000005" class="node">
<title>Node5</title>
<g id="a_Node000005"><a xlink:href="includes_8h.html" target="_top" xlink:title=" ">
<polygon fill="white" stroke="#666666" points="297.62,-82 237.38,-82 237.38,-62 297.62,-62 297.62,-82"/>
<text text-anchor="middle" x="267.5" y="-68.5" font-family="Helvetica,sans-Serif" font-size="10.00">includes.h</text>
</a>
</g>
</g>
<!-- Node4&#45;&gt;Node5 -->
<g id="edge4_Node000004_Node000005" class="edge">
<title>Node4&#45;&gt;Node5</title>
<g id="a_edge4_Node000004_Node000005"><a xlink:title=" ">
<path fill="none" stroke="#63b8ff" d="M263.38,-118.28C264.48,-106.27 265.8,-91.74 266.64,-82.44"/>
<polygon fill="#63b8ff" stroke="#63b8ff" points="259.92,-117.76 262.5,-128.04 266.89,-118.39 259.92,-117.76"/>
</a>
</g>
</g>
<!-- Node7 -->
<g id="Node000007" class="node">
<title>Node7</title>
<g id="a_Node000007"><a xlink:href="gps__commands_8cpp.html" target="_top" xlink:title=" ">
<polygon fill="white" stroke="#666666" points="427.5,-88 315.5,-88 315.5,-56 427.5,-56 427.5,-88"/>
<text text-anchor="start" x="323.5" y="-74.5" font-family="Helvetica,sans-Serif" font-size="10.00">lib/comms/commands</text>
<text text-anchor="middle" x="371.5" y="-62.5" font-family="Helvetica,sans-Serif" font-size="10.00">/gps_commands.cpp</text>
</a>
</g>
</g>
<!-- Node4&#45;&gt;Node7 -->
<g id="edge6_Node000004_Node000007" class="edge">
<title>Node4&#45;&gt;Node7</title>
<g id="a_edge6_Node000004_Node000007"><a xlink:title=" ">
<path fill="none" stroke="#63b8ff" d="M286.94,-123.74C304.68,-113.09 328.25,-98.95 346,-88.3"/>
<polygon fill="#63b8ff" stroke="#63b8ff" points="285.33,-120.62 278.56,-128.77 288.93,-126.62 285.33,-120.62"/>
</a>
</g>
</g>
<!-- Node6 -->
<g id="Node000006" class="node">
<title>Node6</title>
<g id="a_Node000006"><a xlink:href="main_8cpp.html" target="_top" xlink:title=" ">
<polygon fill="white" stroke="#666666" points="295.38,-20 239.62,-20 239.62,0 295.38,0 295.38,-20"/>
<text text-anchor="middle" x="267.5" y="-6.5" font-family="Helvetica,sans-Serif" font-size="10.00">main.cpp</text>
</a>
</g>
</g>
<!-- Node5&#45;&gt;Node6 -->
<g id="edge5_Node000005_Node000006" class="edge">
<title>Node5&#45;&gt;Node6</title>
<g id="a_edge5_Node000005_Node000006"><a xlink:title=" ">
<path fill="none" stroke="#63b8ff" d="M267.5,-50.25C267.5,-39.97 267.5,-28.09 267.5,-20.11"/>
<polygon fill="#63b8ff" stroke="#63b8ff" points="264,-50.11 267.5,-60.11 271,-50.11 264,-50.11"/>
</a>
</g>
</g>
</g>
</svg>
</svg>

<style type='text/css'>
<![CDATA[
[data-mouse-over-selected='false'] { opacity: 0.7; }
[data-mouse-over-selected='true']  { opacity: 1.0; }
]]>
</style>
<script type="application/ecmascript"><![CDATA[
document.addEventListener('DOMContentLoaded', (event) => {
  highlightEdges();
  highlightAdjacentNodes();
});
]]></script>
</svg>
