<?xml version="1.0" encoding="UTF-8" standalone="no"?>
<!DOCTYPE svg PUBLIC "-//W3C//DTD SVG 1.1//EN"
 "http://www.w3.org/Graphics/SVG/1.1/DTD/svg11.dtd">
<!-- Generated by graphviz version 12.2.1 (20241206.2353)
 -->
<!-- Title: lib/powerman/PowerManager.cpp Pages: 1 -->
<svg width="370pt" height="196pt"
 viewBox="0.00 0.00 369.94 196.00" xmlns="http://www.w3.org/2000/svg" xmlns:xlink="http://www.w3.org/1999/xlink">
<g id="graph0" class="graph" transform="scale(1 1) rotate(0) translate(4 192)">
<title>lib/powerman/PowerManager.cpp</title>
<!-- Node1 -->
<g id="Node000001" class="node">
<title>Node1</title>
<g id="a_Node000001"><a xlink:title=" ">
<polygon fill="#999999" stroke="#666666" points="293.57,-188 132.82,-188 132.82,-168 293.57,-168 293.57,-188"/>
<text text-anchor="middle" x="213.19" y="-174.5" font-family="Helvetica,sans-Serif" font-size="10.00">lib/powerman/PowerManager.cpp</text>
</a>
</g>
</g>
<!-- Node2 -->
<g id="Node000002" class="node">
<title>Node2</title>
<g id="a_Node000002"><a xlink:href="_power_manager_8h.html" target="_top" xlink:title=" ">
<polygon fill="white" stroke="#666666" points="165.94,-132 76.44,-132 76.44,-112 165.94,-112 165.94,-132"/>
<text text-anchor="middle" x="121.19" y="-118.5" font-family="Helvetica,sans-Serif" font-size="10.00">PowerManager.h</text>
</a>
</g>
</g>
<!-- Node1&#45;&gt;Node2 -->
<g id="edge1_Node000001_Node000002" class="edge">
<title>Node1&#45;&gt;Node2</title>
<g id="a_edge1_Node000001_Node000002"><a xlink:title=" ">
<path fill="none" stroke="#63b8ff" d="M197.17,-167.59C183.4,-159.51 163.29,-147.71 147.21,-138.27"/>
<polygon fill="#63b8ff" stroke="#63b8ff" points="149.04,-135.29 138.65,-133.25 145.5,-141.33 149.04,-135.29"/>
</a>
</g>
</g>
<!-- Node5 -->
<g id="Node000005" class="node">
<title>Node5</title>
<g id="a_Node000005"><a xlink:title=" ">
<polygon fill="#e0e0e0" stroke="#999999" points="361.94,-20 308.44,-20 308.44,0 361.94,0 361.94,-20"/>
<text text-anchor="middle" x="335.19" y="-6.5" font-family="Helvetica,sans-Serif" font-size="10.00">iostream</text>
</a>
</g>
</g>
<!-- Node1&#45;&gt;Node5 -->
<g id="edge10_Node000001_Node000005" class="edge">
<title>Node1&#45;&gt;Node5</title>
<g id="a_edge10_Node000001_Node000005"><a xlink:title=" ">
<path fill="none" stroke="#63b8ff" d="M228.31,-167.61C252.33,-151.84 298.87,-117.64 322.19,-76 329.78,-62.46 332.98,-45.14 334.31,-31.78"/>
<polygon fill="#63b8ff" stroke="#63b8ff" points="337.79,-32.18 334.99,-21.96 330.81,-31.69 337.79,-32.18"/>
</a>
</g>
</g>
<!-- Node3 -->
<g id="Node000003" class="node">
<title>Node3</title>
<g id="a_Node000003"><a xlink:href="_i_n_a3221_8h.html" target="_top" xlink:title=" ">
<polygon fill="white" stroke="#666666" points="313.07,-76 209.32,-76 209.32,-56 313.07,-56 313.07,-76"/>
<text text-anchor="middle" x="261.19" y="-62.5" font-family="Helvetica,sans-Serif" font-size="10.00">INA3221/INA3221.h</text>
</a>
</g>
</g>
<!-- Node2&#45;&gt;Node3 -->
<g id="edge2_Node000002_Node000003" class="edge">
<title>Node2&#45;&gt;Node3</title>
<g id="a_edge2_Node000002_Node000003"><a xlink:title=" ">
<path fill="none" stroke="#63b8ff" d="M145.58,-111.59C167.83,-103.01 200.96,-90.23 226.06,-80.55"/>
<polygon fill="#63b8ff" stroke="#63b8ff" points="227.13,-83.89 235.2,-77.02 224.61,-77.36 227.13,-83.89"/>
</a>
</g>
</g>
<!-- Node6 -->
<g id="Node000006" class="node">
<title>Node6</title>
<g id="a_Node000006"><a xlink:title=" ">
<polygon fill="#e0e0e0" stroke="#999999" points="122.07,-20 42.32,-20 42.32,0 122.07,0 122.07,-20"/>
<text text-anchor="middle" x="82.19" y="-6.5" font-family="Helvetica,sans-Serif" font-size="10.00">hardware/i2c.h</text>
</a>
</g>
</g>
<!-- Node2&#45;&gt;Node6 -->
<g id="edge8_Node000002_Node000006" class="edge">
<title>Node2&#45;&gt;Node6</title>
<g id="a_edge8_Node000002_Node000006"><a xlink:title=" ">
<path fill="none" stroke="#63b8ff" d="M76,-116.04C50.36,-110.65 20.27,-99.41 4.19,-76 -10.48,-54.64 17.41,-36.38 43.83,-24.7"/>
<polygon fill="#63b8ff" stroke="#63b8ff" points="44.87,-28.06 52.77,-20.99 42.19,-21.59 44.87,-28.06"/>
</a>
</g>
</g>
<!-- Node7 -->
<g id="Node000007" class="node">
<title>Node7</title>
<g id="a_Node000007"><a xlink:title=" ">
<polygon fill="#e0e0e0" stroke="#999999" points="47.57,-76 12.82,-76 12.82,-56 47.57,-56 47.57,-76"/>
<text text-anchor="middle" x="30.19" y="-62.5" font-family="Helvetica,sans-Serif" font-size="10.00">map</text>
</a>
</g>
</g>
<!-- Node2&#45;&gt;Node7 -->
<g id="edge6_Node000002_Node000007" class="edge">
<title>Node2&#45;&gt;Node7</title>
<g id="a_edge6_Node000002_Node000007"><a xlink:title=" ">
<path fill="none" stroke="#63b8ff" d="M105.34,-111.59C91.72,-103.51 71.83,-91.71 55.93,-82.27"/>
<polygon fill="#63b8ff" stroke="#63b8ff" points="57.85,-79.35 47.47,-77.25 54.28,-85.37 57.85,-79.35"/>
</a>
</g>
</g>
<!-- Node8 -->
<g id="Node000008" class="node">
<title>Node8</title>
<g id="a_Node000008"><a xlink:title=" ">
<polygon fill="#e0e0e0" stroke="#999999" points="105.19,-76 65.19,-76 65.19,-56 105.19,-56 105.19,-76"/>
<text text-anchor="middle" x="85.19" y="-62.5" font-family="Helvetica,sans-Serif" font-size="10.00">string</text>
</a>
</g>
</g>
<!-- Node2&#45;&gt;Node8 -->
<g id="edge7_Node000002_Node000008" class="edge">
<title>Node2&#45;&gt;Node8</title>
<g id="a_edge7_Node000002_Node000008"><a xlink:title=" ">
<path fill="none" stroke="#63b8ff" d="M114.92,-111.59C110.17,-104.47 103.49,-94.45 97.67,-85.72"/>
<polygon fill="#63b8ff" stroke="#63b8ff" points="100.69,-83.94 92.23,-77.56 94.87,-87.82 100.69,-83.94"/>
</a>
</g>
</g>
<!-- Node9 -->
<g id="Node000009" class="node">
<title>Node9</title>
<g id="a_Node000009"><a xlink:title=" ">
<polygon fill="#e0e0e0" stroke="#999999" points="191.44,-76 122.94,-76 122.94,-56 191.44,-56 191.44,-76"/>
<text text-anchor="middle" x="157.19" y="-62.5" font-family="Helvetica,sans-Serif" font-size="10.00">pico/stdlib.h</text>
</a>
</g>
</g>
<!-- Node2&#45;&gt;Node9 -->
<g id="edge9_Node000002_Node000009" class="edge">
<title>Node2&#45;&gt;Node9</title>
<g id="a_edge9_Node000002_Node000009"><a xlink:title=" ">
<path fill="none" stroke="#63b8ff" d="M127.46,-111.59C132.21,-104.47 138.89,-94.45 144.72,-85.72"/>
<polygon fill="#63b8ff" stroke="#63b8ff" points="147.52,-87.82 150.15,-77.56 141.69,-83.94 147.52,-87.82"/>
</a>
</g>
</g>
<!-- Node4 -->
<g id="Node000004" class="node">
<title>Node4</title>
<g id="a_Node000004"><a xlink:title=" ">
<polygon fill="#e0e0e0" stroke="#999999" points="285.32,-20 237.07,-20 237.07,0 285.32,0 285.32,-20"/>
<text text-anchor="middle" x="261.19" y="-6.5" font-family="Helvetica,sans-Serif" font-size="10.00">stdint.h</text>
</a>
</g>
</g>
<!-- Node3&#45;&gt;Node4 -->
<g id="edge3_Node000003_Node000004" class="edge">
<title>Node3&#45;&gt;Node4</title>
<g id="a_edge3_Node000003_Node000004"><a xlink:title=" ">
<path fill="none" stroke="#63b8ff" d="M261.19,-55.59C261.19,-49.01 261.19,-39.96 261.19,-31.73"/>
<polygon fill="#63b8ff" stroke="#63b8ff" points="264.69,-31.81 261.19,-21.81 257.69,-31.81 264.69,-31.81"/>
</a>
</g>
</g>
<!-- Node3&#45;&gt;Node5 -->
<g id="edge4_Node000003_Node000005" class="edge">
<title>Node3&#45;&gt;Node5</title>
<g id="a_edge4_Node000003_Node000005"><a xlink:title=" ">
<path fill="none" stroke="#63b8ff" d="M274.08,-55.59C284.91,-47.7 300.6,-36.24 313.38,-26.92"/>
<polygon fill="#63b8ff" stroke="#63b8ff" points="315.21,-29.91 321.23,-21.19 311.09,-24.26 315.21,-29.91"/>
</a>
</g>
</g>
<!-- Node3&#45;&gt;Node6 -->
<g id="edge5_Node000003_Node000006" class="edge">
<title>Node3&#45;&gt;Node6</title>
<g id="a_edge5_Node000003_Node000006"><a xlink:title=" ">
<path fill="none" stroke="#63b8ff" d="M230.01,-55.59C200.8,-46.78 156.91,-33.54 124.54,-23.78"/>
<polygon fill="#63b8ff" stroke="#63b8ff" points="125.65,-20.45 115.06,-20.92 123.63,-27.16 125.65,-20.45"/>
</a>
</g>
</g>
</g>
</svg>
