<?xml version="1.0" encoding="UTF-8" standalone="no"?>
<!DOCTYPE svg PUBLIC "-//W3C//DTD SVG 1.1//EN"
 "http://www.w3.org/Graphics/SVG/1.1/DTD/svg11.dtd">
<!-- Generated by graphviz version 12.2.1 (20241206.2353)
 -->
<!-- Title: lib/powerman/PowerManager.h Pages: 1 -->
<svg width="480pt" height="140pt"
 viewBox="0.00 0.00 480.25 140.00" xmlns="http://www.w3.org/2000/svg" xmlns:xlink="http://www.w3.org/1999/xlink">
<g id="graph0" class="graph" transform="scale(1 1) rotate(0) translate(4 136)">
<title>lib/powerman/PowerManager.h</title>
<!-- Node1 -->
<g id="Node000001" class="node">
<title>Node1</title>
<g id="a_Node000001"><a xlink:title=" ">
<polygon fill="#999999" stroke="#666666" points="323.25,-132 173,-132 173,-112 323.25,-112 323.25,-132"/>
<text text-anchor="middle" x="248.12" y="-118.5" font-family="Helvetica,sans-Serif" font-size="10.00">lib/powerman/PowerManager.h</text>
</a>
</g>
</g>
<!-- Node2 -->
<g id="Node000002" class="node">
<title>Node2</title>
<g id="a_Node000002"><a xlink:href="_i_n_a3221_8h.html" target="_top" xlink:title=" ">
<polygon fill="white" stroke="#666666" points="147,-76 43.25,-76 43.25,-56 147,-56 147,-76"/>
<text text-anchor="middle" x="95.12" y="-62.5" font-family="Helvetica,sans-Serif" font-size="10.00">INA3221/INA3221.h</text>
</a>
</g>
</g>
<!-- Node1&#45;&gt;Node2 -->
<g id="edge1_Node000001_Node000002" class="edge">
<title>Node1&#45;&gt;Node2</title>
<g id="a_edge1_Node000001_Node000002"><a xlink:title=" ">
<path fill="none" stroke="#63b8ff" d="M221.47,-111.59C196.94,-102.94 160.3,-90 132.78,-80.29"/>
<polygon fill="#63b8ff" stroke="#63b8ff" points="134.01,-77.01 123.41,-76.98 131.68,-83.61 134.01,-77.01"/>
</a>
</g>
</g>
<!-- Node5 -->
<g id="Node000005" class="node">
<title>Node5</title>
<g id="a_Node000005"><a xlink:title=" ">
<polygon fill="#e0e0e0" stroke="#999999" points="218,-20 138.25,-20 138.25,0 218,0 218,-20"/>
<text text-anchor="middle" x="178.12" y="-6.5" font-family="Helvetica,sans-Serif" font-size="10.00">hardware/i2c.h</text>
</a>
</g>
</g>
<!-- Node1&#45;&gt;Node5 -->
<g id="edge7_Node000001_Node000005" class="edge">
<title>Node1&#45;&gt;Node5</title>
<g id="a_edge7_Node000001_Node000005"><a xlink:title=" ">
<path fill="none" stroke="#63b8ff" d="M232.86,-111.81C220.86,-103.8 204.63,-91.12 195.12,-76 186.66,-62.53 182.39,-44.96 180.24,-31.48"/>
<polygon fill="#63b8ff" stroke="#63b8ff" points="183.72,-31.06 178.97,-21.59 176.78,-31.95 183.72,-31.06"/>
</a>
</g>
</g>
<!-- Node6 -->
<g id="Node000006" class="node">
<title>Node6</title>
<g id="a_Node000006"><a xlink:title=" ">
<polygon fill="#e0e0e0" stroke="#999999" points="238.5,-76 203.75,-76 203.75,-56 238.5,-56 238.5,-76"/>
<text text-anchor="middle" x="221.12" y="-62.5" font-family="Helvetica,sans-Serif" font-size="10.00">map</text>
</a>
</g>
</g>
<!-- Node1&#45;&gt;Node6 -->
<g id="edge5_Node000001_Node000006" class="edge">
<title>Node1&#45;&gt;Node6</title>
<g id="a_edge5_Node000001_Node000006"><a xlink:title=" ">
<path fill="none" stroke="#63b8ff" d="M243.42,-111.59C239.98,-104.7 235.18,-95.1 230.91,-86.57"/>
<polygon fill="#63b8ff" stroke="#63b8ff" points="234.05,-85.03 226.45,-77.65 227.79,-88.16 234.05,-85.03"/>
</a>
</g>
</g>
<!-- Node7 -->
<g id="Node000007" class="node">
<title>Node7</title>
<g id="a_Node000007"><a xlink:title=" ">
<polygon fill="#e0e0e0" stroke="#999999" points="296.12,-76 256.12,-76 256.12,-56 296.12,-56 296.12,-76"/>
<text text-anchor="middle" x="276.12" y="-62.5" font-family="Helvetica,sans-Serif" font-size="10.00">string</text>
</a>
</g>
</g>
<!-- Node1&#45;&gt;Node7 -->
<g id="edge6_Node000001_Node000007" class="edge">
<title>Node1&#45;&gt;Node7</title>
<g id="a_edge6_Node000001_Node000007"><a xlink:title=" ">
<path fill="none" stroke="#63b8ff" d="M253,-111.59C256.62,-104.63 261.67,-94.89 266.12,-86.29"/>
<polygon fill="#63b8ff" stroke="#63b8ff" points="269.11,-88.13 270.61,-77.64 262.9,-84.91 269.11,-88.13"/>
</a>
</g>
</g>
<!-- Node8 -->
<g id="Node000008" class="node">
<title>Node8</title>
<g id="a_Node000008"><a xlink:title=" ">
<polygon fill="#e0e0e0" stroke="#999999" points="382.38,-76 313.88,-76 313.88,-56 382.38,-56 382.38,-76"/>
<text text-anchor="middle" x="348.12" y="-62.5" font-family="Helvetica,sans-Serif" font-size="10.00">pico/stdlib.h</text>
</a>
</g>
</g>
<!-- Node1&#45;&gt;Node8 -->
<g id="edge8_Node000001_Node000008" class="edge">
<title>Node1&#45;&gt;Node8</title>
<g id="a_edge8_Node000001_Node000008"><a xlink:title=" ">
<path fill="none" stroke="#63b8ff" d="M265.54,-111.59C280.79,-103.36 303.2,-91.26 320.83,-81.74"/>
<polygon fill="#63b8ff" stroke="#63b8ff" points="322.1,-85.03 329.24,-77.2 318.78,-78.87 322.1,-85.03"/>
</a>
</g>
</g>
<!-- Node9 -->
<g id="Node000009" class="node">
<title>Node9</title>
<g id="a_Node000009"><a xlink:title=" ">
<polygon fill="#e0e0e0" stroke="#999999" points="472.25,-76 400,-76 400,-56 472.25,-56 472.25,-76"/>
<text text-anchor="middle" x="436.12" y="-62.5" font-family="Helvetica,sans-Serif" font-size="10.00">pico/mutex.h</text>
</a>
</g>
</g>
<!-- Node1&#45;&gt;Node9 -->
<g id="edge9_Node000001_Node000009" class="edge">
<title>Node1&#45;&gt;Node9</title>
<g id="a_edge9_Node000001_Node000009"><a xlink:title=" ">
<path fill="none" stroke="#63b8ff" d="M280.87,-111.59C311.68,-102.74 358.05,-89.43 392.09,-79.65"/>
<polygon fill="#63b8ff" stroke="#63b8ff" points="393.02,-83.02 401.67,-76.9 391.09,-76.29 393.02,-83.02"/>
</a>
</g>
</g>
<!-- Node3 -->
<g id="Node000003" class="node">
<title>Node3</title>
<g id="a_Node000003"><a xlink:title=" ">
<polygon fill="#e0e0e0" stroke="#999999" points="48.25,-20 0,-20 0,0 48.25,0 48.25,-20"/>
<text text-anchor="middle" x="24.12" y="-6.5" font-family="Helvetica,sans-Serif" font-size="10.00">stdint.h</text>
</a>
</g>
</g>
<!-- Node2&#45;&gt;Node3 -->
<g id="edge2_Node000002_Node000003" class="edge">
<title>Node2&#45;&gt;Node3</title>
<g id="a_edge2_Node000002_Node000003"><a xlink:title=" ">
<path fill="none" stroke="#63b8ff" d="M82.76,-55.59C72.48,-47.77 57.61,-36.46 45.41,-27.19"/>
<polygon fill="#63b8ff" stroke="#63b8ff" points="47.63,-24.48 37.56,-21.21 43.4,-30.05 47.63,-24.48"/>
</a>
</g>
</g>
<!-- Node4 -->
<g id="Node000004" class="node">
<title>Node4</title>
<g id="a_Node000004"><a xlink:title=" ">
<polygon fill="#e0e0e0" stroke="#999999" points="119.88,-20 66.38,-20 66.38,0 119.88,0 119.88,-20"/>
<text text-anchor="middle" x="93.12" y="-6.5" font-family="Helvetica,sans-Serif" font-size="10.00">iostream</text>
</a>
</g>
</g>
<!-- Node2&#45;&gt;Node4 -->
<g id="edge3_Node000002_Node000004" class="edge">
<title>Node2&#45;&gt;Node4</title>
<g id="a_edge3_Node000002_Node000004"><a xlink:title=" ">
<path fill="none" stroke="#63b8ff" d="M94.78,-55.59C94.53,-49.01 94.2,-39.96 93.89,-31.73"/>
<polygon fill="#63b8ff" stroke="#63b8ff" points="97.39,-31.67 93.53,-21.81 90.4,-31.93 97.39,-31.67"/>
</a>
</g>
</g>
<!-- Node2&#45;&gt;Node5 -->
<g id="edge4_Node000002_Node000005" class="edge">
<title>Node2&#45;&gt;Node5</title>
<g id="a_edge4_Node000002_Node000005"><a xlink:title=" ">
<path fill="none" stroke="#63b8ff" d="M109.58,-55.59C121.88,-47.59 139.8,-35.93 154.23,-26.54"/>
<polygon fill="#63b8ff" stroke="#63b8ff" points="155.81,-29.69 162.29,-21.3 152,-23.82 155.81,-29.69"/>
</a>
</g>
</g>
</g>
</svg>
