<?xml version="1.0" encoding="UTF-8" standalone="no"?>
<!DOCTYPE svg PUBLIC "-//W3C//DTD SVG 1.1//EN"
 "http://www.w3.org/Graphics/SVG/1.1/DTD/svg11.dtd">
<!-- Generated by graphviz version 12.2.1 (20241206.2353)
 -->
<!-- Title: lib/powerman/PowerManager.cpp Pages: 1 -->
<svg width="462pt" height="196pt"
 viewBox="0.00 0.00 461.64 196.00" xmlns="http://www.w3.org/2000/svg" xmlns:xlink="http://www.w3.org/1999/xlink">
<g id="graph0" class="graph" transform="scale(1 1) rotate(0) translate(4 192)">
<title>lib/powerman/PowerManager.cpp</title>
<!-- Node1 -->
<g id="Node000001" class="node">
<title>Node1</title>
<g id="a_Node000001"><a xlink:title=" ">
<polygon fill="#999999" stroke="#666666" points="376.26,-188 215.51,-188 215.51,-168 376.26,-168 376.26,-188"/>
<text text-anchor="middle" x="295.89" y="-174.5" font-family="Helvetica,sans-Serif" font-size="10.00">lib/powerman/PowerManager.cpp</text>
</a>
</g>
</g>
<!-- Node2 -->
<g id="Node000002" class="node">
<title>Node2</title>
<g id="a_Node000002"><a xlink:href="_power_manager_8h.html" target="_top" xlink:title=" ">
<polygon fill="white" stroke="#666666" points="203.64,-132 114.14,-132 114.14,-112 203.64,-112 203.64,-132"/>
<text text-anchor="middle" x="158.89" y="-118.5" font-family="Helvetica,sans-Serif" font-size="10.00">PowerManager.h</text>
</a>
</g>
</g>
<!-- Node1&#45;&gt;Node2 -->
<g id="edge1_Node000001_Node000002" class="edge">
<title>Node1&#45;&gt;Node2</title>
<g id="a_edge1_Node000001_Node000002"><a xlink:title=" ">
<path fill="none" stroke="#63b8ff" d="M272.03,-167.59C250.35,-159.05 218.12,-146.35 193.6,-136.68"/>
<polygon fill="#63b8ff" stroke="#63b8ff" points="194.93,-133.45 184.35,-133.03 192.37,-139.96 194.93,-133.45"/>
</a>
</g>
</g>
<!-- Node5 -->
<g id="Node000005" class="node">
<title>Node5</title>
<g id="a_Node000005"><a xlink:title=" ">
<polygon fill="#e0e0e0" stroke="#999999" points="453.64,-20 400.14,-20 400.14,0 453.64,0 453.64,-20"/>
<text text-anchor="middle" x="426.89" y="-6.5" font-family="Helvetica,sans-Serif" font-size="10.00">iostream</text>
</a>
</g>
</g>
<!-- Node1&#45;&gt;Node5 -->
<g id="edge11_Node000001_Node000005" class="edge">
<title>Node1&#45;&gt;Node5</title>
<g id="a_edge11_Node000001_Node000005"><a xlink:title=" ">
<path fill="none" stroke="#63b8ff" d="M312.69,-167.68C338.82,-152.26 388.8,-118.81 413.89,-76 421.83,-62.46 425,-44.89 426.22,-31.44"/>
<polygon fill="#63b8ff" stroke="#63b8ff" points="429.71,-31.76 426.81,-21.57 422.72,-31.35 429.71,-31.76"/>
</a>
</g>
</g>
<!-- Node3 -->
<g id="Node000003" class="node">
<title>Node3</title>
<g id="a_Node000003"><a xlink:href="_i_n_a3221_8h.html" target="_top" xlink:title=" ">
<polygon fill="white" stroke="#666666" points="404.76,-76 301.01,-76 301.01,-56 404.76,-56 404.76,-76"/>
<text text-anchor="middle" x="352.89" y="-62.5" font-family="Helvetica,sans-Serif" font-size="10.00">INA3221/INA3221.h</text>
</a>
</g>
</g>
<!-- Node2&#45;&gt;Node3 -->
<g id="edge2_Node000002_Node000003" class="edge">
<title>Node2&#45;&gt;Node3</title>
<g id="a_edge2_Node000002_Node000003"><a xlink:title=" ">
<path fill="none" stroke="#63b8ff" d="M192.68,-111.59C224.62,-102.71 272.74,-89.31 307.91,-79.52"/>
<polygon fill="#63b8ff" stroke="#63b8ff" points="308.68,-82.94 317.37,-76.89 306.8,-76.2 308.68,-82.94"/>
</a>
</g>
</g>
<!-- Node6 -->
<g id="Node000006" class="node">
<title>Node6</title>
<g id="a_Node000006"><a xlink:title=" ">
<polygon fill="#e0e0e0" stroke="#999999" points="168.76,-20 89.01,-20 89.01,0 168.76,0 168.76,-20"/>
<text text-anchor="middle" x="128.89" y="-6.5" font-family="Helvetica,sans-Serif" font-size="10.00">hardware/i2c.h</text>
</a>
</g>
</g>
<!-- Node2&#45;&gt;Node6 -->
<g id="edge8_Node000002_Node000006" class="edge">
<title>Node2&#45;&gt;Node6</title>
<g id="a_edge8_Node000002_Node000006"><a xlink:title=" ">
<path fill="none" stroke="#63b8ff" d="M113.78,-113.82C73.51,-106.38 18.91,-93.4 5.89,-76 -16.81,-45.67 34.48,-28.1 77.61,-19.05"/>
<polygon fill="#63b8ff" stroke="#63b8ff" points="78.02,-22.54 87.15,-17.17 76.66,-15.67 78.02,-22.54"/>
</a>
</g>
</g>
<!-- Node7 -->
<g id="Node000007" class="node">
<title>Node7</title>
<g id="a_Node000007"><a xlink:title=" ">
<polygon fill="#e0e0e0" stroke="#999999" points="49.26,-76 14.51,-76 14.51,-56 49.26,-56 49.26,-76"/>
<text text-anchor="middle" x="31.89" y="-62.5" font-family="Helvetica,sans-Serif" font-size="10.00">map</text>
</a>
</g>
</g>
<!-- Node2&#45;&gt;Node7 -->
<g id="edge6_Node000002_Node000007" class="edge">
<title>Node2&#45;&gt;Node7</title>
<g id="a_edge6_Node000002_Node000007"><a xlink:title=" ">
<path fill="none" stroke="#63b8ff" d="M136.77,-111.59C115.51,-102.56 83.31,-88.86 60.19,-79.03"/>
<polygon fill="#63b8ff" stroke="#63b8ff" points="61.63,-75.84 51.06,-75.15 58.89,-82.28 61.63,-75.84"/>
</a>
</g>
</g>
<!-- Node8 -->
<g id="Node000008" class="node">
<title>Node8</title>
<g id="a_Node000008"><a xlink:title=" ">
<polygon fill="#e0e0e0" stroke="#999999" points="106.89,-76 66.89,-76 66.89,-56 106.89,-56 106.89,-76"/>
<text text-anchor="middle" x="86.89" y="-62.5" font-family="Helvetica,sans-Serif" font-size="10.00">string</text>
</a>
</g>
</g>
<!-- Node2&#45;&gt;Node8 -->
<g id="edge7_Node000002_Node000008" class="edge">
<title>Node2&#45;&gt;Node8</title>
<g id="a_edge7_Node000002_Node000008"><a xlink:title=" ">
<path fill="none" stroke="#63b8ff" d="M146.35,-111.59C135.92,-103.77 120.84,-92.46 108.48,-83.19"/>
<polygon fill="#63b8ff" stroke="#63b8ff" points="110.6,-80.41 100.5,-77.21 106.4,-86.01 110.6,-80.41"/>
</a>
</g>
</g>
<!-- Node9 -->
<g id="Node000009" class="node">
<title>Node9</title>
<g id="a_Node000009"><a xlink:title=" ">
<polygon fill="#e0e0e0" stroke="#999999" points="193.14,-76 124.64,-76 124.64,-56 193.14,-56 193.14,-76"/>
<text text-anchor="middle" x="158.89" y="-62.5" font-family="Helvetica,sans-Serif" font-size="10.00">pico/stdlib.h</text>
</a>
</g>
</g>
<!-- Node2&#45;&gt;Node9 -->
<g id="edge9_Node000002_Node000009" class="edge">
<title>Node2&#45;&gt;Node9</title>
<g id="a_edge9_Node000002_Node000009"><a xlink:title=" ">
<path fill="none" stroke="#63b8ff" d="M158.89,-111.59C158.89,-105.01 158.89,-95.96 158.89,-87.73"/>
<polygon fill="#63b8ff" stroke="#63b8ff" points="162.39,-87.81 158.89,-77.81 155.39,-87.81 162.39,-87.81"/>
</a>
</g>
</g>
<!-- Node10 -->
<g id="Node000010" class="node">
<title>Node10</title>
<g id="a_Node000010"><a xlink:title=" ">
<polygon fill="#e0e0e0" stroke="#999999" points="283.01,-76 210.76,-76 210.76,-56 283.01,-56 283.01,-76"/>
<text text-anchor="middle" x="246.89" y="-62.5" font-family="Helvetica,sans-Serif" font-size="10.00">pico/mutex.h</text>
</a>
</g>
</g>
<!-- Node2&#45;&gt;Node10 -->
<g id="edge10_Node000002_Node000010" class="edge">
<title>Node2&#45;&gt;Node10</title>
<g id="a_edge10_Node000002_Node000010"><a xlink:title=" ">
<path fill="none" stroke="#63b8ff" d="M174.22,-111.59C187.39,-103.51 206.62,-91.71 222,-82.27"/>
<polygon fill="#63b8ff" stroke="#63b8ff" points="223.46,-85.48 230.15,-77.27 219.8,-79.52 223.46,-85.48"/>
</a>
</g>
</g>
<!-- Node4 -->
<g id="Node000004" class="node">
<title>Node4</title>
<g id="a_Node000004"><a xlink:title=" ">
<polygon fill="#e0e0e0" stroke="#999999" points="377.01,-20 328.76,-20 328.76,0 377.01,0 377.01,-20"/>
<text text-anchor="middle" x="352.89" y="-6.5" font-family="Helvetica,sans-Serif" font-size="10.00">stdint.h</text>
</a>
</g>
</g>
<!-- Node3&#45;&gt;Node4 -->
<g id="edge3_Node000003_Node000004" class="edge">
<title>Node3&#45;&gt;Node4</title>
<g id="a_edge3_Node000003_Node000004"><a xlink:title=" ">
<path fill="none" stroke="#63b8ff" d="M352.89,-55.59C352.89,-49.01 352.89,-39.96 352.89,-31.73"/>
<polygon fill="#63b8ff" stroke="#63b8ff" points="356.39,-31.81 352.89,-21.81 349.39,-31.81 356.39,-31.81"/>
</a>
</g>
</g>
<!-- Node3&#45;&gt;Node5 -->
<g id="edge4_Node000003_Node000005" class="edge">
<title>Node3&#45;&gt;Node5</title>
<g id="a_edge4_Node000003_Node000005"><a xlink:title=" ">
<path fill="none" stroke="#63b8ff" d="M365.78,-55.59C376.6,-47.7 392.3,-36.24 405.08,-26.92"/>
<polygon fill="#63b8ff" stroke="#63b8ff" points="406.91,-29.91 412.92,-21.19 402.78,-24.26 406.91,-29.91"/>
</a>
</g>
</g>
<!-- Node3&#45;&gt;Node6 -->
<g id="edge5_Node000003_Node000006" class="edge">
<title>Node3&#45;&gt;Node6</title>
<g id="a_edge5_Node000003_Node000006"><a xlink:title=" ">
<path fill="none" stroke="#63b8ff" d="M313.61,-55.53C276.23,-46.52 219.79,-32.91 179.14,-23.11"/>
<polygon fill="#63b8ff" stroke="#63b8ff" points="180.13,-19.75 169.59,-20.81 178.49,-26.56 180.13,-19.75"/>
</a>
</g>
</g>
</g>
</svg>
