<?xml version="1.0" encoding="UTF-8" standalone="no"?>
<!DOCTYPE svg PUBLIC "-//W3C//DTD SVG 1.1//EN"
 "http://www.w3.org/Graphics/SVG/1.1/DTD/svg11.dtd">
<!-- Generated by graphviz version 12.2.1 (20241206.2353)
 -->
<!-- Title: lib/comms/LoRa/Print.cpp Pages: 1 -->
<svg width="324pt" height="140pt"
 viewBox="0.00 0.00 323.75 140.00" xmlns="http://www.w3.org/2000/svg" xmlns:xlink="http://www.w3.org/1999/xlink">
<g id="graph0" class="graph" transform="scale(1 1) rotate(0) translate(4 136)">
<title>lib/comms/LoRa/Print.cpp</title>
<!-- Node1 -->
<g id="Node000001" class="node">
<title>Node1</title>
<g id="a_Node000001"><a xlink:title=" ">
<polygon fill="#999999" stroke="#666666" points="215.38,-132 86.12,-132 86.12,-112 215.38,-112 215.38,-132"/>
<text text-anchor="middle" x="150.75" y="-118.5" font-family="Helvetica,sans-Serif" font-size="10.00">lib/comms/LoRa/Print.cpp</text>
</a>
</g>
</g>
<!-- Node2 -->
<g id="Node000002" class="node">
<title>Node2</title>
<g id="a_Node000002"><a xlink:title=" ">
<polygon fill="#e0e0e0" stroke="#999999" points="47.5,-76 0,-76 0,-56 47.5,-56 47.5,-76"/>
<text text-anchor="middle" x="23.75" y="-62.5" font-family="Helvetica,sans-Serif" font-size="10.00">stdlib.h</text>
</a>
</g>
</g>
<!-- Node1&#45;&gt;Node2 -->
<g id="edge1_Node000001_Node000002" class="edge">
<title>Node1&#45;&gt;Node2</title>
<g id="a_edge1_Node000001_Node000002"><a xlink:title=" ">
<path fill="none" stroke="#63b8ff" d="M128.63,-111.59C108.72,-103.13 79.2,-90.58 56.54,-80.94"/>
<polygon fill="#63b8ff" stroke="#63b8ff" points="58.01,-77.76 47.44,-77.07 55.27,-84.21 58.01,-77.76"/>
</a>
</g>
</g>
<!-- Node3 -->
<g id="Node000003" class="node">
<title>Node3</title>
<g id="a_Node000003"><a xlink:title=" ">
<polygon fill="#e0e0e0" stroke="#999999" points="78.38,-20 33.12,-20 33.12,0 78.38,0 78.38,-20"/>
<text text-anchor="middle" x="55.75" y="-6.5" font-family="Helvetica,sans-Serif" font-size="10.00">stdio.h</text>
</a>
</g>
</g>
<!-- Node1&#45;&gt;Node3 -->
<g id="edge2_Node000001_Node000003" class="edge">
<title>Node1&#45;&gt;Node3</title>
<g id="a_edge2_Node000001_Node000003"><a xlink:title=" ">
<path fill="none" stroke="#63b8ff" d="M136.7,-111.83C124.62,-103.47 107.21,-90.29 94.75,-76 82.59,-62.05 72.02,-43.81 64.96,-30.21"/>
<polygon fill="#63b8ff" stroke="#63b8ff" points="68.17,-28.81 60.58,-21.42 61.91,-31.93 68.17,-28.81"/>
</a>
</g>
</g>
<!-- Node4 -->
<g id="Node000004" class="node">
<title>Node4</title>
<g id="a_Node000004"><a xlink:title=" ">
<polygon fill="#e0e0e0" stroke="#999999" points="251.88,-76 203.62,-76 203.62,-56 251.88,-56 251.88,-76"/>
<text text-anchor="middle" x="227.75" y="-62.5" font-family="Helvetica,sans-Serif" font-size="10.00">string.h</text>
</a>
</g>
</g>
<!-- Node1&#45;&gt;Node4 -->
<g id="edge3_Node000001_Node000004" class="edge">
<title>Node1&#45;&gt;Node4</title>
<g id="a_edge3_Node000001_Node000004"><a xlink:title=" ">
<path fill="none" stroke="#63b8ff" d="M164.16,-111.59C175.36,-103.74 191.56,-92.38 204.81,-83.09"/>
<polygon fill="#63b8ff" stroke="#63b8ff" points="206.82,-85.96 212.99,-77.35 202.8,-80.22 206.82,-85.96"/>
</a>
</g>
</g>
<!-- Node5 -->
<g id="Node000005" class="node">
<title>Node5</title>
<g id="a_Node000005"><a xlink:title=" ">
<polygon fill="#e0e0e0" stroke="#999999" points="212.75,-20 172.75,-20 172.75,0 212.75,0 212.75,-20"/>
<text text-anchor="middle" x="192.75" y="-6.5" font-family="Helvetica,sans-Serif" font-size="10.00">string</text>
</a>
</g>
</g>
<!-- Node1&#45;&gt;Node5 -->
<g id="edge4_Node000001_Node000005" class="edge">
<title>Node1&#45;&gt;Node5</title>
<g id="a_edge4_Node000001_Node000005"><a xlink:title=" ">
<path fill="none" stroke="#63b8ff" d="M154.33,-111.62C161.12,-93.84 175.99,-54.88 185.11,-31"/>
<polygon fill="#63b8ff" stroke="#63b8ff" points="188.34,-32.36 188.64,-21.77 181.8,-29.86 188.34,-32.36"/>
</a>
</g>
</g>
<!-- Node6 -->
<g id="Node000006" class="node">
<title>Node6</title>
<g id="a_Node000006"><a xlink:title=" ">
<polygon fill="#e0e0e0" stroke="#999999" points="315.75,-76 269.75,-76 269.75,-56 315.75,-56 315.75,-76"/>
<text text-anchor="middle" x="292.75" y="-62.5" font-family="Helvetica,sans-Serif" font-size="10.00">math.h</text>
</a>
</g>
</g>
<!-- Node1&#45;&gt;Node6 -->
<g id="edge5_Node000001_Node000006" class="edge">
<title>Node1&#45;&gt;Node6</title>
<g id="a_edge5_Node000001_Node000006"><a xlink:title=" ">
<path fill="none" stroke="#63b8ff" d="M175.48,-111.59C198.6,-102.8 233.31,-89.6 258.98,-79.84"/>
<polygon fill="#63b8ff" stroke="#63b8ff" points="260.19,-83.13 268.29,-76.3 257.7,-76.58 260.19,-83.13"/>
</a>
</g>
</g>
<!-- Node7 -->
<g id="Node000007" class="node">
<title>Node7</title>
<g id="a_Node000007"><a xlink:href="_print_8h.html" target="_top" xlink:title=" ">
<polygon fill="white" stroke="#666666" points="148,-76 103.5,-76 103.5,-56 148,-56 148,-76"/>
<text text-anchor="middle" x="125.75" y="-62.5" font-family="Helvetica,sans-Serif" font-size="10.00">Print.h</text>
</a>
</g>
</g>
<!-- Node1&#45;&gt;Node7 -->
<g id="edge6_Node000001_Node000007" class="edge">
<title>Node1&#45;&gt;Node7</title>
<g id="a_edge6_Node000001_Node000007"><a xlink:title=" ">
<path fill="none" stroke="#63b8ff" d="M146.4,-111.59C143.2,-104.7 138.76,-95.1 134.81,-86.57"/>
<polygon fill="#63b8ff" stroke="#63b8ff" points="138.07,-85.28 130.69,-77.67 131.72,-88.22 138.07,-85.28"/>
</a>
</g>
</g>
<!-- Node7&#45;&gt;Node3 -->
<g id="edge8_Node000007_Node000003" class="edge">
<title>Node7&#45;&gt;Node3</title>
<g id="a_edge8_Node000007_Node000003"><a xlink:title=" ">
<path fill="none" stroke="#63b8ff" d="M113.56,-55.59C103.42,-47.77 88.76,-36.46 76.74,-27.19"/>
<polygon fill="#63b8ff" stroke="#63b8ff" points="79.06,-24.56 69,-21.22 74.78,-30.1 79.06,-24.56"/>
</a>
</g>
</g>
<!-- Node7&#45;&gt;Node5 -->
<g id="edge9_Node000007_Node000005" class="edge">
<title>Node7&#45;&gt;Node5</title>
<g id="a_edge9_Node000007_Node000005"><a xlink:title=" ">
<path fill="none" stroke="#63b8ff" d="M137.42,-55.59C147.03,-47.85 160.88,-36.69 172.32,-27.47"/>
<polygon fill="#63b8ff" stroke="#63b8ff" points="174.45,-30.25 180.03,-21.25 170.05,-24.8 174.45,-30.25"/>
</a>
</g>
</g>
<!-- Node8 -->
<g id="Node000008" class="node">
<title>Node8</title>
<g id="a_Node000008"><a xlink:title=" ">
<polygon fill="#e0e0e0" stroke="#999999" points="155.12,-20 96.38,-20 96.38,0 155.12,0 155.12,-20"/>
<text text-anchor="middle" x="125.75" y="-6.5" font-family="Helvetica,sans-Serif" font-size="10.00">inttypes.h</text>
</a>
</g>
</g>
<!-- Node7&#45;&gt;Node8 -->
<g id="edge7_Node000007_Node000008" class="edge">
<title>Node7&#45;&gt;Node8</title>
<g id="a_edge7_Node000007_Node000008"><a xlink:title=" ">
<path fill="none" stroke="#63b8ff" d="M125.75,-55.59C125.75,-49.01 125.75,-39.96 125.75,-31.73"/>
<polygon fill="#63b8ff" stroke="#63b8ff" points="129.25,-31.81 125.75,-21.81 122.25,-31.81 129.25,-31.81"/>
</a>
</g>
</g>
</g>
</svg>
