<?xml version="1.0" encoding="UTF-8" standalone="no"?>
<!DOCTYPE svg PUBLIC "-//W3C//DTD SVG 1.1//EN"
 "http://www.w3.org/Graphics/SVG/1.1/DTD/svg11.dtd">
<!-- Generated by graphviz version 12.2.1 (20241206.2353)
 -->
<!-- Title: build_number.h Pages: 1 -->
<svg width="1943pt" height="288pt"
 viewBox="0.00 0.00 1942.88 288.00" xmlns="http://www.w3.org/2000/svg" xmlns:xlink="http://www.w3.org/1999/xlink">
<g id="graph0" class="graph" transform="scale(1 1) rotate(0) translate(4 284)">
<title>build_number.h</title>
<!-- Node1 -->
<g id="Node000001" class="node">
<title>Node1</title>
<g id="a_Node000001"><a xlink:title=" ">
<polygon fill="#999999" stroke="#666666" points="1759,-280 1677,-280 1677,-260 1759,-260 1759,-280"/>
<text text-anchor="middle" x="1718" y="-266.5" font-family="Helvetica,sans-Serif" font-size="10.00">build_number.h</text>
</a>
</g>
</g>
<!-- Node2 -->
<g id="Node000002" class="node">
<title>Node2</title>
<g id="a_Node000002"><a xlink:href="includes_8h.html" target="_top" xlink:title=" ">
<polygon fill="white" stroke="#666666" points="1843.12,-94 1782.88,-94 1782.88,-74 1843.12,-74 1843.12,-94"/>
<text text-anchor="middle" x="1813" y="-80.5" font-family="Helvetica,sans-Serif" font-size="10.00">includes.h</text>
</a>
</g>
</g>
<!-- Node1&#45;&gt;Node2 -->
<g id="edge1_Node000001_Node000002" class="edge">
<title>Node1&#45;&gt;Node2</title>
<g id="a_edge1_Node000001_Node000002"><a xlink:title=" ">
<path fill="none" stroke="#63b8ff" d="M1728.08,-249.48C1748.39,-210.13 1793.58,-122.61 1808.28,-94.14"/>
<polygon fill="#63b8ff" stroke="#63b8ff" points="1725.01,-247.79 1723.54,-258.28 1731.23,-251 1725.01,-247.79"/>
</a>
</g>
</g>
<!-- Node4 -->
<g id="Node000004" class="node">
<title>Node4</title>
<g id="a_Node000004"><a xlink:href="protocol_8h.html" target="_top" xlink:title=" ">
<polygon fill="white" stroke="#666666" points="1731.38,-224 1624.62,-224 1624.62,-204 1731.38,-204 1731.38,-224"/>
<text text-anchor="middle" x="1678" y="-210.5" font-family="Helvetica,sans-Serif" font-size="10.00">lib/comms/protocol.h</text>
</a>
</g>
</g>
<!-- Node1&#45;&gt;Node4 -->
<g id="edge3_Node000001_Node000004" class="edge">
<title>Node1&#45;&gt;Node4</title>
<g id="a_edge3_Node000001_Node000004"><a xlink:title=" ">
<path fill="none" stroke="#63b8ff" d="M1704.25,-250.44C1697.72,-241.62 1690.2,-231.47 1684.89,-224.3"/>
<polygon fill="#63b8ff" stroke="#63b8ff" points="1701.37,-252.43 1710.13,-258.38 1706.99,-248.26 1701.37,-252.43"/>
</a>
</g>
</g>
<!-- Node3 -->
<g id="Node000003" class="node">
<title>Node3</title>
<g id="a_Node000003"><a xlink:href="main_8cpp.html" target="_top" xlink:title=" ">
<polygon fill="white" stroke="#666666" points="1934.88,-26 1879.12,-26 1879.12,-6 1934.88,-6 1934.88,-26"/>
<text text-anchor="middle" x="1907" y="-12.5" font-family="Helvetica,sans-Serif" font-size="10.00">main.cpp</text>
</a>
</g>
</g>
<!-- Node2&#45;&gt;Node3 -->
<g id="edge2_Node000002_Node000003" class="edge">
<title>Node2&#45;&gt;Node3</title>
<g id="a_edge2_Node000002_Node000003"><a xlink:title=" ">
<path fill="none" stroke="#63b8ff" d="M1835.73,-67.04C1853.81,-54.35 1878.49,-37.02 1893.56,-26.44"/>
<polygon fill="#63b8ff" stroke="#63b8ff" points="1833.88,-64.06 1827.71,-72.67 1837.9,-69.79 1833.88,-64.06"/>
</a>
</g>
</g>
<!-- Node4&#45;&gt;Node2 -->
<g id="edge4_Node000004_Node000002" class="edge">
<title>Node4&#45;&gt;Node2</title>
<g id="a_edge4_Node000004_Node000002"><a xlink:title=" ">
<path fill="none" stroke="#63b8ff" d="M1696.06,-195.88C1724.89,-168.54 1780.38,-115.93 1803.01,-94.47"/>
<polygon fill="#63b8ff" stroke="#63b8ff" points="1693.66,-193.33 1688.81,-202.75 1698.47,-198.41 1693.66,-193.33"/>
</a>
</g>
</g>
<!-- Node5 -->
<g id="Node000005" class="node">
<title>Node5</title>
<g id="a_Node000005"><a xlink:href="commands_8h.html" target="_top" xlink:title=" ">
<polygon fill="white" stroke="#666666" points="254,-168 142,-168 142,-136 254,-136 254,-168"/>
<text text-anchor="start" x="150" y="-154.5" font-family="Helvetica,sans-Serif" font-size="10.00">lib/comms/commands</text>
<text text-anchor="middle" x="198" y="-142.5" font-family="Helvetica,sans-Serif" font-size="10.00">/commands.h</text>
</a>
</g>
</g>
<!-- Node4&#45;&gt;Node5 -->
<g id="edge5_Node000004_Node000005" class="edge">
<title>Node4&#45;&gt;Node5</title>
<g id="a_edge5_Node000004_Node000005"><a xlink:title=" ">
<path fill="none" stroke="#63b8ff" d="M1613.17,-210.37C1366.12,-200.36 485.93,-164.67 254.23,-155.28"/>
<polygon fill="#63b8ff" stroke="#63b8ff" points="1612.81,-213.86 1622.94,-210.77 1613.09,-206.87 1612.81,-213.86"/>
</a>
</g>
</g>
<!-- Node8 -->
<g id="Node000008" class="node">
<title>Node8</title>
<g id="a_Node000008"><a xlink:href="communication_8h.html" target="_top" xlink:title=" ">
<polygon fill="white" stroke="#666666" points="1110.12,-162 971.88,-162 971.88,-142 1110.12,-142 1110.12,-162"/>
<text text-anchor="middle" x="1041" y="-148.5" font-family="Helvetica,sans-Serif" font-size="10.00">lib/comms/communication.h</text>
</a>
</g>
</g>
<!-- Node4&#45;&gt;Node8 -->
<g id="edge8_Node000004_Node000008" class="edge">
<title>Node4&#45;&gt;Node8</title>
<g id="a_edge8_Node000004_Node000008"><a xlink:title=" ">
<path fill="none" stroke="#63b8ff" d="M1612.99,-206.88C1492.29,-195.51 1234.58,-171.23 1110.53,-159.55"/>
<polygon fill="#63b8ff" stroke="#63b8ff" points="1612.45,-210.34 1622.73,-207.79 1613.1,-203.37 1612.45,-210.34"/>
</a>
</g>
</g>
<!-- Node18 -->
<g id="Node000018" class="node">
<title>Node18</title>
<g id="a_Node000018"><a xlink:href="event__manager_8cpp.html" target="_top" xlink:title="Implements the event management system for the Kubisat firmware.">
<polygon fill="white" stroke="#666666" points="1629.25,-100 1530.75,-100 1530.75,-68 1629.25,-68 1629.25,-100"/>
<text text-anchor="start" x="1538.75" y="-86.5" font-family="Helvetica,sans-Serif" font-size="10.00">lib/eventman/event</text>
<text text-anchor="middle" x="1580" y="-74.5" font-family="Helvetica,sans-Serif" font-size="10.00">_manager.cpp</text>
</a>
</g>
</g>
<!-- Node4&#45;&gt;Node18 -->
<g id="edge26_Node000004_Node000018" class="edge">
<title>Node4&#45;&gt;Node18</title>
<g id="a_edge26_Node000004_Node000018"><a xlink:title=" ">
<path fill="none" stroke="#63b8ff" d="M1664.12,-194.87C1644.72,-169.53 1609.84,-123.98 1591.69,-100.27"/>
<polygon fill="#63b8ff" stroke="#63b8ff" points="1661.17,-196.78 1670.03,-202.59 1666.73,-192.53 1661.17,-196.78"/>
</a>
</g>
</g>
<!-- Node19 -->
<g id="Node000019" class="node">
<title>Node19</title>
<g id="a_Node000019"><a xlink:href="test__frame__common_8h.html" target="_top" xlink:title=" ">
<polygon fill="white" stroke="#666666" points="1764.62,-100 1647.38,-100 1647.38,-68 1764.62,-68 1764.62,-100"/>
<text text-anchor="start" x="1655.38" y="-86.5" font-family="Helvetica,sans-Serif" font-size="10.00">test/comms/test_frame</text>
<text text-anchor="middle" x="1706" y="-74.5" font-family="Helvetica,sans-Serif" font-size="10.00">_common.h</text>
</a>
</g>
</g>
<!-- Node4&#45;&gt;Node19 -->
<g id="edge27_Node000004_Node000019" class="edge">
<title>Node4&#45;&gt;Node19</title>
<g id="a_edge27_Node000004_Node000019"><a xlink:title=" ">
<path fill="none" stroke="#63b8ff" d="M1682.42,-192.81C1688.03,-167.13 1697.61,-123.35 1702.66,-100.27"/>
<polygon fill="#63b8ff" stroke="#63b8ff" points="1679.06,-191.8 1680.34,-202.32 1685.89,-193.29 1679.06,-191.8"/>
</a>
</g>
</g>
<!-- Node6 -->
<g id="Node000006" class="node">
<title>Node6</title>
<g id="a_Node000006"><a xlink:href="commands_8cpp.html" target="_top" xlink:title=" ">
<polygon fill="white" stroke="#666666" points="112,-100 0,-100 0,-68 112,-68 112,-100"/>
<text text-anchor="start" x="8" y="-86.5" font-family="Helvetica,sans-Serif" font-size="10.00">lib/comms/commands</text>
<text text-anchor="middle" x="56" y="-74.5" font-family="Helvetica,sans-Serif" font-size="10.00">/commands.cpp</text>
</a>
</g>
</g>
<!-- Node5&#45;&gt;Node6 -->
<g id="edge6_Node000005_Node000006" class="edge">
<title>Node5&#45;&gt;Node6</title>
<g id="a_edge6_Node000005_Node000006"><a xlink:title=" ">
<path fill="none" stroke="#63b8ff" d="M154.41,-130.74C133.37,-120.96 108.54,-109.42 89.08,-100.38"/>
<polygon fill="#63b8ff" stroke="#63b8ff" points="152.79,-133.85 163.33,-134.89 155.74,-127.5 152.79,-133.85"/>
</a>
</g>
</g>
<!-- Node7 -->
<g id="Node000007" class="node">
<title>Node7</title>
<g id="a_Node000007"><a xlink:href="diagnostic__commands_8cpp.html" target="_top" xlink:title=" ">
<polygon fill="white" stroke="#666666" points="265.62,-100 130.38,-100 130.38,-68 265.62,-68 265.62,-100"/>
<text text-anchor="start" x="138.38" y="-86.5" font-family="Helvetica,sans-Serif" font-size="10.00">lib/comms/commands</text>
<text text-anchor="middle" x="198" y="-74.5" font-family="Helvetica,sans-Serif" font-size="10.00">/diagnostic_commands.cpp</text>
</a>
</g>
</g>
<!-- Node5&#45;&gt;Node7 -->
<g id="edge7_Node000005_Node000007" class="edge">
<title>Node5&#45;&gt;Node7</title>
<g id="a_edge7_Node000005_Node000007"><a xlink:title=" ">
<path fill="none" stroke="#63b8ff" d="M198,-124.31C198,-116.12 198,-107.38 198,-100.22"/>
<polygon fill="#63b8ff" stroke="#63b8ff" points="194.5,-124.18 198,-134.18 201.5,-124.18 194.5,-124.18"/>
</a>
</g>
</g>
<!-- Node8&#45;&gt;Node2 -->
<g id="edge9_Node000008_Node000002" class="edge">
<title>Node8&#45;&gt;Node2</title>
<g id="a_edge9_Node000008_Node000002"><a xlink:title=" ">
<path fill="none" stroke="#63b8ff" d="M1121.78,-148.41C1285.59,-142.65 1651.7,-127.13 1774,-100 1779.95,-98.68 1786.19,-96.61 1791.9,-94.43"/>
<polygon fill="#63b8ff" stroke="#63b8ff" points="1121.72,-144.91 1111.85,-148.75 1121.97,-151.9 1121.72,-144.91"/>
</a>
</g>
</g>
<!-- Node8&#45;&gt;Node6 -->
<g id="edge11_Node000008_Node000006" class="edge">
<title>Node8&#45;&gt;Node6</title>
<g id="a_edge11_Node000008_Node000006"><a xlink:title=" ">
<path fill="none" stroke="#63b8ff" d="M960.45,-151.16C799.91,-150.46 428.98,-143.74 121,-100 118.13,-99.59 115.21,-99.12 112.26,-98.6"/>
<polygon fill="#63b8ff" stroke="#63b8ff" points="960.12,-154.66 970.13,-151.19 960.15,-147.66 960.12,-154.66"/>
</a>
</g>
</g>
<!-- Node8&#45;&gt;Node7 -->
<g id="edge12_Node000008_Node000007" class="edge">
<title>Node8&#45;&gt;Node7</title>
<g id="a_edge12_Node000008_Node000007"><a xlink:title=" ">
<path fill="none" stroke="#63b8ff" d="M959.98,-149.03C819.69,-144.86 522.71,-132.67 274,-100 271.33,-99.65 268.62,-99.26 265.88,-98.85"/>
<polygon fill="#63b8ff" stroke="#63b8ff" points="959.82,-152.53 969.92,-149.32 960.02,-145.53 959.82,-152.53"/>
</a>
</g>
</g>
<!-- Node9 -->
<g id="Node000009" class="node">
<title>Node9</title>
<g id="a_Node000009"><a xlink:href="clock__commands_8cpp.html" target="_top" xlink:title=" ">
<polygon fill="white" stroke="#666666" points="1249.12,-100 1134.88,-100 1134.88,-68 1249.12,-68 1249.12,-100"/>
<text text-anchor="start" x="1142.88" y="-86.5" font-family="Helvetica,sans-Serif" font-size="10.00">lib/comms/commands</text>
<text text-anchor="middle" x="1192" y="-74.5" font-family="Helvetica,sans-Serif" font-size="10.00">/clock_commands.cpp</text>
</a>
</g>
</g>
<!-- Node8&#45;&gt;Node9 -->
<g id="edge10_Node000008_Node000009" class="edge">
<title>Node8&#45;&gt;Node9</title>
<g id="a_edge10_Node000008_Node000009"><a xlink:title=" ">
<path fill="none" stroke="#63b8ff" d="M1072.86,-137.07C1097.41,-126.34 1131.33,-111.52 1156.7,-100.43"/>
<polygon fill="#63b8ff" stroke="#63b8ff" points="1071.78,-133.73 1064.02,-140.94 1074.59,-140.14 1071.78,-133.73"/>
</a>
</g>
</g>
<!-- Node10 -->
<g id="Node000010" class="node">
<title>Node10</title>
<g id="a_Node000010"><a xlink:href="event__commands_8cpp.html" target="_top" xlink:title=" ">
<polygon fill="white" stroke="#666666" points="1382.5,-100 1267.5,-100 1267.5,-68 1382.5,-68 1382.5,-100"/>
<text text-anchor="start" x="1275.5" y="-86.5" font-family="Helvetica,sans-Serif" font-size="10.00">lib/comms/commands</text>
<text text-anchor="middle" x="1325" y="-74.5" font-family="Helvetica,sans-Serif" font-size="10.00">/event_commands.cpp</text>
</a>
</g>
</g>
<!-- Node8&#45;&gt;Node10 -->
<g id="edge13_Node000008_Node000010" class="edge">
<title>Node8&#45;&gt;Node10</title>
<g id="a_edge13_Node000008_Node000010"><a xlink:title=" ">
<path fill="none" stroke="#63b8ff" d="M1092.73,-138.98C1141.98,-127.53 1215.98,-110.34 1267.16,-98.44"/>
<polygon fill="#63b8ff" stroke="#63b8ff" points="1092.11,-135.53 1083.16,-141.2 1093.7,-142.35 1092.11,-135.53"/>
</a>
</g>
</g>
<!-- Node11 -->
<g id="Node000011" class="node">
<title>Node11</title>
<g id="a_Node000011"><a xlink:href="gps__commands_8cpp.html" target="_top" xlink:title=" ">
<polygon fill="white" stroke="#666666" points="1513,-100 1401,-100 1401,-68 1513,-68 1513,-100"/>
<text text-anchor="start" x="1409" y="-86.5" font-family="Helvetica,sans-Serif" font-size="10.00">lib/comms/commands</text>
<text text-anchor="middle" x="1457" y="-74.5" font-family="Helvetica,sans-Serif" font-size="10.00">/gps_commands.cpp</text>
</a>
</g>
</g>
<!-- Node8&#45;&gt;Node11 -->
<g id="edge14_Node000008_Node000011" class="edge">
<title>Node8&#45;&gt;Node11</title>
<g id="a_edge14_Node000008_Node000011"><a xlink:title=" ">
<path fill="none" stroke="#63b8ff" d="M1121.44,-141.11C1192.57,-131.93 1299.03,-117.12 1391,-100 1394.12,-99.42 1397.31,-98.79 1400.54,-98.14"/>
<polygon fill="#63b8ff" stroke="#63b8ff" points="1121.31,-137.6 1111.83,-142.34 1122.2,-144.54 1121.31,-137.6"/>
</a>
</g>
</g>
<!-- Node12 -->
<g id="Node000012" class="node">
<title>Node12</title>
<g id="a_Node000012"><a xlink:href="power__commands_8cpp.html" target="_top" xlink:title=" ">
<polygon fill="white" stroke="#666666" points="400.62,-100 283.38,-100 283.38,-68 400.62,-68 400.62,-100"/>
<text text-anchor="start" x="291.38" y="-86.5" font-family="Helvetica,sans-Serif" font-size="10.00">lib/comms/commands</text>
<text text-anchor="middle" x="342" y="-74.5" font-family="Helvetica,sans-Serif" font-size="10.00">/power_commands.cpp</text>
</a>
</g>
</g>
<!-- Node8&#45;&gt;Node12 -->
<g id="edge15_Node000008_Node000012" class="edge">
<title>Node8&#45;&gt;Node12</title>
<g id="a_edge15_Node000008_Node000012"><a xlink:title=" ">
<path fill="none" stroke="#63b8ff" d="M960.26,-148C839.86,-142.74 606.37,-129.45 410,-100 407.01,-99.55 403.96,-99.05 400.88,-98.5"/>
<polygon fill="#63b8ff" stroke="#63b8ff" points="959.9,-151.49 970.04,-148.42 960.2,-144.5 959.9,-151.49"/>
</a>
</g>
</g>
<!-- Node13 -->
<g id="Node000013" class="node">
<title>Node13</title>
<g id="a_Node000013"><a xlink:href="communication_8cpp.html" target="_top" xlink:title=" ">
<polygon fill="white" stroke="#666666" points="567.38,-94 418.62,-94 418.62,-74 567.38,-74 567.38,-94"/>
<text text-anchor="middle" x="493" y="-80.5" font-family="Helvetica,sans-Serif" font-size="10.00">lib/comms/communication.cpp</text>
</a>
</g>
</g>
<!-- Node8&#45;&gt;Node13 -->
<g id="edge16_Node000008_Node000013" class="edge">
<title>Node8&#45;&gt;Node13</title>
<g id="a_edge16_Node000008_Node000013"><a xlink:title=" ">
<path fill="none" stroke="#63b8ff" d="M960.2,-143.86C867.27,-135.24 710.25,-119.47 576,-100 564.99,-98.4 553.2,-96.43 542.06,-94.45"/>
<polygon fill="#63b8ff" stroke="#63b8ff" points="959.7,-147.33 969.97,-144.76 960.34,-140.35 959.7,-147.33"/>
</a>
</g>
</g>
<!-- Node14 -->
<g id="Node000014" class="node">
<title>Node14</title>
<g id="a_Node000014"><a xlink:href="frame_8cpp.html" target="_top" xlink:title="Implements functions for encoding, decoding, building, and processing Frames.">
<polygon fill="white" stroke="#666666" points="692.75,-94 585.25,-94 585.25,-74 692.75,-74 692.75,-94"/>
<text text-anchor="middle" x="639" y="-80.5" font-family="Helvetica,sans-Serif" font-size="10.00">lib/comms/frame.cpp</text>
</a>
</g>
</g>
<!-- Node8&#45;&gt;Node14 -->
<g id="edge17_Node000008_Node000014" class="edge">
<title>Node8&#45;&gt;Node14</title>
<g id="a_edge17_Node000008_Node000014"><a xlink:title=" ">
<path fill="none" stroke="#63b8ff" d="M960.37,-140.82C891.48,-131.66 789.86,-117.04 702,-100 693.72,-98.39 684.89,-96.44 676.53,-94.48"/>
<polygon fill="#63b8ff" stroke="#63b8ff" points="959.69,-144.26 970.06,-142.1 960.61,-137.32 959.69,-144.26"/>
</a>
</g>
</g>
<!-- Node15 -->
<g id="Node000015" class="node">
<title>Node15</title>
<g id="a_Node000015"><a xlink:href="receive_8cpp.html" target="_top" xlink:title="Implements functions for receiving and processing data, including LoRa and UART input.">
<polygon fill="white" stroke="#666666" points="825.12,-94 710.88,-94 710.88,-74 825.12,-74 825.12,-94"/>
<text text-anchor="middle" x="768" y="-80.5" font-family="Helvetica,sans-Serif" font-size="10.00">lib/comms/receive.cpp</text>
</a>
</g>
</g>
<!-- Node8&#45;&gt;Node15 -->
<g id="edge18_Node000008_Node000015" class="edge">
<title>Node8&#45;&gt;Node15</title>
<g id="a_edge18_Node000008_Node000015"><a xlink:title=" ">
<path fill="none" stroke="#63b8ff" d="M990.72,-138.84C937.72,-126.03 855.36,-106.12 807.04,-94.44"/>
<polygon fill="#63b8ff" stroke="#63b8ff" points="989.87,-142.24 1000.41,-141.19 991.52,-135.44 989.87,-142.24"/>
</a>
</g>
</g>
<!-- Node16 -->
<g id="Node000016" class="node">
<title>Node16</title>
<g id="a_Node000016"><a xlink:href="send_8cpp.html" target="_top" xlink:title="Implements functions for sending data, including LoRa messages and Frames.">
<polygon fill="white" stroke="#666666" points="946.88,-94 843.12,-94 843.12,-74 946.88,-74 946.88,-94"/>
<text text-anchor="middle" x="895" y="-80.5" font-family="Helvetica,sans-Serif" font-size="10.00">lib/comms/send.cpp</text>
</a>
</g>
</g>
<!-- Node8&#45;&gt;Node16 -->
<g id="edge19_Node000008_Node000016" class="edge">
<title>Node8&#45;&gt;Node16</title>
<g id="a_edge19_Node000008_Node000016"><a xlink:title=" ">
<path fill="none" stroke="#63b8ff" d="M1009.9,-136.94C981.56,-124.13 940.47,-105.56 915.88,-94.44"/>
<polygon fill="#63b8ff" stroke="#63b8ff" points="1008.15,-139.99 1018.7,-140.92 1011.03,-133.61 1008.15,-139.99"/>
</a>
</g>
</g>
<!-- Node17 -->
<g id="Node000017" class="node">
<title>Node17</title>
<g id="a_Node000017"><a xlink:href="utils__converters_8cpp.html" target="_top" xlink:title="Implements utility functions for converting between different data types.">
<polygon fill="white" stroke="#666666" points="1116.88,-94 965.12,-94 965.12,-74 1116.88,-74 1116.88,-94"/>
<text text-anchor="middle" x="1041" y="-80.5" font-family="Helvetica,sans-Serif" font-size="10.00">lib/comms/utils_converters.cpp</text>
</a>
</g>
</g>
<!-- Node8&#45;&gt;Node17 -->
<g id="edge20_Node000008_Node000017" class="edge">
<title>Node8&#45;&gt;Node17</title>
<g id="a_edge20_Node000008_Node000017"><a xlink:title=" ">
<path fill="none" stroke="#63b8ff" d="M1041,-130.28C1041,-118.27 1041,-103.74 1041,-94.44"/>
<polygon fill="#63b8ff" stroke="#63b8ff" points="1037.5,-130.03 1041,-140.03 1044.5,-130.03 1037.5,-130.03"/>
</a>
</g>
</g>
<!-- Node8&#45;&gt;Node18 -->
<g id="edge21_Node000008_Node000018" class="edge">
<title>Node8&#45;&gt;Node18</title>
<g id="a_edge21_Node000008_Node000018"><a xlink:title=" ">
<path fill="none" stroke="#63b8ff" d="M1121.71,-146.09C1217.69,-139.41 1382.45,-125.3 1522,-100 1524.76,-99.5 1527.59,-98.94 1530.43,-98.33"/>
<polygon fill="#63b8ff" stroke="#63b8ff" points="1121.6,-142.59 1111.87,-146.77 1122.08,-149.57 1121.6,-142.59"/>
</a>
</g>
</g>
<!-- Node8&#45;&gt;Node19 -->
<g id="edge22_Node000008_Node000019" class="edge">
<title>Node8&#45;&gt;Node19</title>
<g id="a_edge22_Node000008_Node000019"><a xlink:title=" ">
<path fill="none" stroke="#63b8ff" d="M1121.79,-147.48C1236.92,-141.71 1454.57,-127.94 1638,-100 1640.99,-99.54 1644.04,-99.04 1647.12,-98.49"/>
<polygon fill="#63b8ff" stroke="#63b8ff" points="1121.62,-143.99 1111.81,-147.98 1121.97,-150.98 1121.62,-143.99"/>
</a>
</g>
</g>
<!-- Node20 -->
<g id="Node000020" class="node">
<title>Node20</title>
<g id="a_Node000020"><a xlink:href="test__converters_8cpp.html" target="_top" xlink:title=" ">
<polygon fill="white" stroke="#666666" points="1861.5,-26 1704.5,-26 1704.5,-6 1861.5,-6 1861.5,-26"/>
<text text-anchor="middle" x="1783" y="-12.5" font-family="Helvetica,sans-Serif" font-size="10.00">test/comms/test_converters.cpp</text>
</a>
</g>
</g>
<!-- Node19&#45;&gt;Node20 -->
<g id="edge23_Node000019_Node000020" class="edge">
<title>Node19&#45;&gt;Node20</title>
<g id="a_edge23_Node000019_Node000020"><a xlink:title=" ">
<path fill="none" stroke="#63b8ff" d="M1732.39,-60.38C1746,-48.72 1761.84,-35.13 1772.13,-26.32"/>
<polygon fill="#63b8ff" stroke="#63b8ff" points="1730.32,-57.54 1725.01,-66.71 1734.88,-62.86 1730.32,-57.54"/>
</a>
</g>
</g>
<!-- Node21 -->
<g id="Node000021" class="node">
<title>Node21</title>
<g id="a_Node000021"><a xlink:href="test__frame__build_8cpp.html" target="_top" xlink:title=" ">
<polygon fill="white" stroke="#666666" points="1551.62,-32 1434.38,-32 1434.38,0 1551.62,0 1551.62,-32"/>
<text text-anchor="start" x="1442.38" y="-18.5" font-family="Helvetica,sans-Serif" font-size="10.00">test/comms/test_frame</text>
<text text-anchor="middle" x="1493" y="-6.5" font-family="Helvetica,sans-Serif" font-size="10.00">_build.cpp</text>
</a>
</g>
</g>
<!-- Node19&#45;&gt;Node21 -->
<g id="edge24_Node000019_Node000021" class="edge">
<title>Node19&#45;&gt;Node21</title>
<g id="a_edge24_Node000019_Node000021"><a xlink:title=" ">
<path fill="none" stroke="#63b8ff" d="M1645.37,-64.21C1612.99,-54.18 1573.61,-41.98 1542.99,-32.49"/>
<polygon fill="#63b8ff" stroke="#63b8ff" points="1644.03,-67.46 1654.62,-67.08 1646.1,-60.77 1644.03,-67.46"/>
</a>
</g>
</g>
<!-- Node22 -->
<g id="Node000022" class="node">
<title>Node22</title>
<g id="a_Node000022"><a xlink:href="test__frame__coding_8cpp.html" target="_top" xlink:title=" ">
<polygon fill="white" stroke="#666666" points="1686.62,-32 1569.38,-32 1569.38,0 1686.62,0 1686.62,-32"/>
<text text-anchor="start" x="1577.38" y="-18.5" font-family="Helvetica,sans-Serif" font-size="10.00">test/comms/test_frame</text>
<text text-anchor="middle" x="1628" y="-6.5" font-family="Helvetica,sans-Serif" font-size="10.00">_coding.cpp</text>
</a>
</g>
</g>
<!-- Node19&#45;&gt;Node22 -->
<g id="edge25_Node000019_Node000022" class="edge">
<title>Node19&#45;&gt;Node22</title>
<g id="a_edge25_Node000019_Node000022"><a xlink:title=" ">
<path fill="none" stroke="#63b8ff" d="M1679.2,-60.32C1668.33,-51.13 1656.07,-40.75 1646.26,-32.45"/>
<polygon fill="#63b8ff" stroke="#63b8ff" points="1676.86,-62.93 1686.75,-66.71 1681.38,-57.58 1676.86,-62.93"/>
</a>
</g>
</g>
</g>
</svg>
