<?xml version="1.0" encoding="UTF-8" standalone="no"?>
<!DOCTYPE svg PUBLIC "-//W3C//DTD SVG 1.1//EN"
 "http://www.w3.org/Graphics/SVG/1.1/DTD/svg11.dtd">
<!-- Generated by graphviz version 12.2.1 (20241206.2353)
 -->
<!-- Title: build_number.h Pages: 1 -->
<svg width="1716pt" height="276pt"
 viewBox="0.00 0.00 1716.12 276.00" xmlns="http://www.w3.org/2000/svg" xmlns:xlink="http://www.w3.org/1999/xlink">
<g id="graph0" class="graph" transform="scale(1 1) rotate(0) translate(4 272)">
<title>build_number.h</title>
<!-- Node1 -->
<g id="Node000001" class="node">
<title>Node1</title>
<g id="a_Node000001"><a xlink:title=" ">
<polygon fill="#999999" stroke="#666666" points="1662,-268 1580,-268 1580,-248 1662,-248 1662,-268"/>
<text text-anchor="middle" x="1621" y="-254.5" font-family="Helvetica,sans-Serif" font-size="10.00">build_number.h</text>
</a>
</g>
</g>
<!-- Node2 -->
<g id="Node000002" class="node">
<title>Node2</title>
<g id="a_Node000002"><a xlink:href="includes_8h.html" target="_top" xlink:title=" ">
<polygon fill="white" stroke="#666666" points="1708.12,-82 1647.88,-82 1647.88,-62 1708.12,-62 1708.12,-82"/>
<text text-anchor="middle" x="1678" y="-68.5" font-family="Helvetica,sans-Serif" font-size="10.00">includes.h</text>
</a>
</g>
</g>
<!-- Node1&#45;&gt;Node2 -->
<g id="edge1_Node000001_Node000002" class="edge">
<title>Node1&#45;&gt;Node2</title>
<g id="a_edge1_Node000001_Node000002"><a xlink:title=" ">
<path fill="none" stroke="#63b8ff" d="M1631.54,-237.68C1635.51,-229.87 1639.83,-220.66 1643,-212 1660.36,-164.56 1672.19,-104.95 1676.35,-82.31"/>
<polygon fill="#63b8ff" stroke="#63b8ff" points="1628.59,-235.78 1627.02,-246.26 1634.78,-239.04 1628.59,-235.78"/>
</a>
</g>
</g>
<!-- Node4 -->
<g id="Node000004" class="node">
<title>Node4</title>
<g id="a_Node000004"><a xlink:href="protocol_8h.html" target="_top" xlink:title=" ">
<polygon fill="white" stroke="#666666" points="1634.38,-212 1527.62,-212 1527.62,-192 1634.38,-192 1634.38,-212"/>
<text text-anchor="middle" x="1581" y="-198.5" font-family="Helvetica,sans-Serif" font-size="10.00">lib/comms/protocol.h</text>
</a>
</g>
</g>
<!-- Node1&#45;&gt;Node4 -->
<g id="edge3_Node000001_Node000004" class="edge">
<title>Node1&#45;&gt;Node4</title>
<g id="a_edge3_Node000001_Node000004"><a xlink:title=" ">
<path fill="none" stroke="#63b8ff" d="M1607.25,-238.44C1600.72,-229.62 1593.2,-219.47 1587.89,-212.3"/>
<polygon fill="#63b8ff" stroke="#63b8ff" points="1604.37,-240.43 1613.13,-246.38 1609.99,-236.26 1604.37,-240.43"/>
</a>
</g>
</g>
<!-- Node3 -->
<g id="Node000003" class="node">
<title>Node3</title>
<g id="a_Node000003"><a xlink:href="main_8cpp.html" target="_top" xlink:title=" ">
<polygon fill="white" stroke="#666666" points="1705.88,-20 1650.12,-20 1650.12,0 1705.88,0 1705.88,-20"/>
<text text-anchor="middle" x="1678" y="-6.5" font-family="Helvetica,sans-Serif" font-size="10.00">main.cpp</text>
</a>
</g>
</g>
<!-- Node2&#45;&gt;Node3 -->
<g id="edge2_Node000002_Node000003" class="edge">
<title>Node2&#45;&gt;Node3</title>
<g id="a_edge2_Node000002_Node000003"><a xlink:title=" ">
<path fill="none" stroke="#63b8ff" d="M1678,-50.25C1678,-39.97 1678,-28.09 1678,-20.11"/>
<polygon fill="#63b8ff" stroke="#63b8ff" points="1674.5,-50.11 1678,-60.11 1681.5,-50.11 1674.5,-50.11"/>
</a>
</g>
</g>
<!-- Node4&#45;&gt;Node2 -->
<g id="edge4_Node000004_Node000002" class="edge">
<title>Node4&#45;&gt;Node2</title>
<g id="a_edge4_Node000004_Node000002"><a xlink:title=" ">
<path fill="none" stroke="#63b8ff" d="M1594.79,-182.8C1615.72,-155.18 1654.77,-103.65 1670.83,-82.47"/>
<polygon fill="#63b8ff" stroke="#63b8ff" points="1592.14,-180.5 1588.89,-190.59 1597.72,-184.73 1592.14,-180.5"/>
</a>
</g>
</g>
<!-- Node5 -->
<g id="Node000005" class="node">
<title>Node5</title>
<g id="a_Node000005"><a xlink:href="commands_8h.html" target="_top" xlink:title=" ">
<polygon fill="white" stroke="#666666" points="254,-156 142,-156 142,-124 254,-124 254,-156"/>
<text text-anchor="start" x="150" y="-142.5" font-family="Helvetica,sans-Serif" font-size="10.00">lib/comms/commands</text>
<text text-anchor="middle" x="198" y="-130.5" font-family="Helvetica,sans-Serif" font-size="10.00">/commands.h</text>
</a>
</g>
</g>
<!-- Node4&#45;&gt;Node5 -->
<g id="edge5_Node000004_Node000005" class="edge">
<title>Node4&#45;&gt;Node5</title>
<g id="a_edge5_Node000004_Node000005"><a xlink:title=" ">
<path fill="none" stroke="#63b8ff" d="M1515.76,-198.17C1280.02,-187.94 474.59,-153 254.16,-143.44"/>
<polygon fill="#63b8ff" stroke="#63b8ff" points="1515.55,-201.66 1525.7,-198.6 1515.86,-194.67 1515.55,-201.66"/>
</a>
</g>
</g>
<!-- Node8 -->
<g id="Node000008" class="node">
<title>Node8</title>
<g id="a_Node000008"><a xlink:href="communication_8h.html" target="_top" xlink:title=" ">
<polygon fill="white" stroke="#666666" points="1031.12,-150 892.88,-150 892.88,-130 1031.12,-130 1031.12,-150"/>
<text text-anchor="middle" x="962" y="-136.5" font-family="Helvetica,sans-Serif" font-size="10.00">lib/comms/communication.h</text>
</a>
</g>
</g>
<!-- Node4&#45;&gt;Node8 -->
<g id="edge8_Node000004_Node000008" class="edge">
<title>Node4&#45;&gt;Node8</title>
<g id="a_edge8_Node000004_Node000008"><a xlink:title=" ">
<path fill="none" stroke="#63b8ff" d="M1515.85,-194.69C1398.4,-183.3 1152.16,-159.43 1031.56,-147.74"/>
<polygon fill="#63b8ff" stroke="#63b8ff" points="1515.35,-198.15 1525.64,-195.63 1516.03,-191.19 1515.35,-198.15"/>
</a>
</g>
</g>
<!-- Node18 -->
<g id="Node000018" class="node">
<title>Node18</title>
<g id="a_Node000018"><a xlink:href="event__manager_8cpp.html" target="_top" xlink:title="Implements the event management system for the Kubisat firmware.">
<polygon fill="white" stroke="#666666" points="1630.25,-88 1531.75,-88 1531.75,-56 1630.25,-56 1630.25,-88"/>
<text text-anchor="start" x="1539.75" y="-74.5" font-family="Helvetica,sans-Serif" font-size="10.00">lib/eventman/event</text>
<text text-anchor="middle" x="1581" y="-62.5" font-family="Helvetica,sans-Serif" font-size="10.00">_manager.cpp</text>
</a>
</g>
</g>
<!-- Node4&#45;&gt;Node18 -->
<g id="edge22_Node000004_Node000018" class="edge">
<title>Node4&#45;&gt;Node18</title>
<g id="a_edge22_Node000004_Node000018"><a xlink:title=" ">
<path fill="none" stroke="#63b8ff" d="M1581,-180.46C1581,-154.73 1581,-111.24 1581,-88.27"/>
<polygon fill="#63b8ff" stroke="#63b8ff" points="1577.5,-180.28 1581,-190.28 1584.5,-180.28 1577.5,-180.28"/>
</a>
</g>
</g>
<!-- Node6 -->
<g id="Node000006" class="node">
<title>Node6</title>
<g id="a_Node000006"><a xlink:href="commands_8cpp.html" target="_top" xlink:title=" ">
<polygon fill="white" stroke="#666666" points="112,-88 0,-88 0,-56 112,-56 112,-88"/>
<text text-anchor="start" x="8" y="-74.5" font-family="Helvetica,sans-Serif" font-size="10.00">lib/comms/commands</text>
<text text-anchor="middle" x="56" y="-62.5" font-family="Helvetica,sans-Serif" font-size="10.00">/commands.cpp</text>
</a>
</g>
</g>
<!-- Node5&#45;&gt;Node6 -->
<g id="edge6_Node000005_Node000006" class="edge">
<title>Node5&#45;&gt;Node6</title>
<g id="a_edge6_Node000005_Node000006"><a xlink:title=" ">
<path fill="none" stroke="#63b8ff" d="M154.41,-118.74C133.37,-108.96 108.54,-97.42 89.08,-88.38"/>
<polygon fill="#63b8ff" stroke="#63b8ff" points="152.79,-121.85 163.33,-122.89 155.74,-115.5 152.79,-121.85"/>
</a>
</g>
</g>
<!-- Node7 -->
<g id="Node000007" class="node">
<title>Node7</title>
<g id="a_Node000007"><a xlink:href="diagnostic__commands_8cpp.html" target="_top" xlink:title=" ">
<polygon fill="white" stroke="#666666" points="265.62,-88 130.38,-88 130.38,-56 265.62,-56 265.62,-88"/>
<text text-anchor="start" x="138.38" y="-74.5" font-family="Helvetica,sans-Serif" font-size="10.00">lib/comms/commands</text>
<text text-anchor="middle" x="198" y="-62.5" font-family="Helvetica,sans-Serif" font-size="10.00">/diagnostic_commands.cpp</text>
</a>
</g>
</g>
<!-- Node5&#45;&gt;Node7 -->
<g id="edge7_Node000005_Node000007" class="edge">
<title>Node5&#45;&gt;Node7</title>
<g id="a_edge7_Node000005_Node000007"><a xlink:title=" ">
<path fill="none" stroke="#63b8ff" d="M198,-112.31C198,-104.12 198,-95.38 198,-88.22"/>
<polygon fill="#63b8ff" stroke="#63b8ff" points="194.5,-112.18 198,-122.18 201.5,-112.18 194.5,-112.18"/>
</a>
</g>
</g>
<!-- Node8&#45;&gt;Node2 -->
<g id="edge9_Node000008_Node000002" class="edge">
<title>Node8&#45;&gt;Node2</title>
<g id="a_edge9_Node000008_Node000002"><a xlink:title=" ">
<path fill="none" stroke="#63b8ff" d="M1042.8,-135.87C1196.95,-129.4 1527.58,-113.05 1639,-88 1644.95,-86.66 1651.19,-84.59 1656.89,-82.4"/>
<polygon fill="#63b8ff" stroke="#63b8ff" points="1042.92,-132.36 1033.08,-136.27 1043.21,-139.35 1042.92,-132.36"/>
</a>
</g>
</g>
<!-- Node8&#45;&gt;Node6 -->
<g id="edge11_Node000008_Node000006" class="edge">
<title>Node8&#45;&gt;Node6</title>
<g id="a_edge11_Node000008_Node000006"><a xlink:title=" ">
<path fill="none" stroke="#63b8ff" d="M880.99,-138.55C730.49,-136.73 397.89,-128.06 121,-88 118.13,-87.59 115.21,-87.11 112.26,-86.59"/>
<polygon fill="#63b8ff" stroke="#63b8ff" points="880.82,-142.05 890.86,-138.66 880.9,-135.05 880.82,-142.05"/>
</a>
</g>
</g>
<!-- Node8&#45;&gt;Node7 -->
<g id="edge12_Node000008_Node000007" class="edge">
<title>Node8&#45;&gt;Node7</title>
<g id="a_edge12_Node000008_Node000007"><a xlink:title=" ">
<path fill="none" stroke="#63b8ff" d="M881.19,-136.1C752.45,-130.78 493.05,-117.23 275,-88 272.03,-87.6 269,-87.16 265.95,-86.69"/>
<polygon fill="#63b8ff" stroke="#63b8ff" points="880.84,-139.59 890.97,-136.5 881.12,-132.59 880.84,-139.59"/>
</a>
</g>
</g>
<!-- Node9 -->
<g id="Node000009" class="node">
<title>Node9</title>
<g id="a_Node000009"><a xlink:href="clock__commands_8cpp.html" target="_top" xlink:title=" ">
<polygon fill="white" stroke="#666666" points="1380.12,-88 1265.88,-88 1265.88,-56 1380.12,-56 1380.12,-88"/>
<text text-anchor="start" x="1273.88" y="-74.5" font-family="Helvetica,sans-Serif" font-size="10.00">lib/comms/commands</text>
<text text-anchor="middle" x="1323" y="-62.5" font-family="Helvetica,sans-Serif" font-size="10.00">/clock_commands.cpp</text>
</a>
</g>
</g>
<!-- Node8&#45;&gt;Node9 -->
<g id="edge10_Node000008_Node000009" class="edge">
<title>Node8&#45;&gt;Node9</title>
<g id="a_edge10_Node000008_Node000009"><a xlink:title=" ">
<path fill="none" stroke="#63b8ff" d="M1033.56,-127.7C1093.42,-118 1180.99,-103.2 1257,-88 1259.77,-87.45 1262.59,-86.87 1265.45,-86.27"/>
<polygon fill="#63b8ff" stroke="#63b8ff" points="1033.15,-124.22 1023.84,-129.27 1034.27,-131.13 1033.15,-124.22"/>
</a>
</g>
</g>
<!-- Node10 -->
<g id="Node000010" class="node">
<title>Node10</title>
<g id="a_Node000010"><a xlink:href="event__commands_8cpp.html" target="_top" xlink:title=" ">
<polygon fill="white" stroke="#666666" points="1513.5,-88 1398.5,-88 1398.5,-56 1513.5,-56 1513.5,-88"/>
<text text-anchor="start" x="1406.5" y="-74.5" font-family="Helvetica,sans-Serif" font-size="10.00">lib/comms/commands</text>
<text text-anchor="middle" x="1456" y="-62.5" font-family="Helvetica,sans-Serif" font-size="10.00">/event_commands.cpp</text>
</a>
</g>
</g>
<!-- Node8&#45;&gt;Node10 -->
<g id="edge13_Node000008_Node000010" class="edge">
<title>Node8&#45;&gt;Node10</title>
<g id="a_edge13_Node000008_Node000010"><a xlink:title=" ">
<path fill="none" stroke="#63b8ff" d="M1042.73,-131.82C1128.85,-123.58 1269.1,-108.53 1389,-88 1392.05,-87.48 1395.18,-86.91 1398.33,-86.3"/>
<polygon fill="#63b8ff" stroke="#63b8ff" points="1042.59,-128.32 1032.97,-132.74 1043.25,-135.28 1042.59,-128.32"/>
</a>
</g>
</g>
<!-- Node11 -->
<g id="Node000011" class="node">
<title>Node11</title>
<g id="a_Node000011"><a xlink:href="gps__commands_8cpp.html" target="_top" xlink:title=" ">
<polygon fill="white" stroke="#666666" points="396,-88 284,-88 284,-56 396,-56 396,-88"/>
<text text-anchor="start" x="292" y="-74.5" font-family="Helvetica,sans-Serif" font-size="10.00">lib/comms/commands</text>
<text text-anchor="middle" x="340" y="-62.5" font-family="Helvetica,sans-Serif" font-size="10.00">/gps_commands.cpp</text>
</a>
</g>
</g>
<!-- Node8&#45;&gt;Node11 -->
<g id="edge14_Node000008_Node000011" class="edge">
<title>Node8&#45;&gt;Node11</title>
<g id="a_edge14_Node000008_Node000011"><a xlink:title=" ">
<path fill="none" stroke="#63b8ff" d="M881.39,-135.05C772.69,-128.95 573.31,-115 405,-88 402.14,-87.54 399.22,-87.03 396.28,-86.48"/>
<polygon fill="#63b8ff" stroke="#63b8ff" points="880.9,-138.53 891.08,-135.59 881.29,-131.54 880.9,-138.53"/>
</a>
</g>
</g>
<!-- Node12 -->
<g id="Node000012" class="node">
<title>Node12</title>
<g id="a_Node000012"><a xlink:href="power__commands_8cpp.html" target="_top" xlink:title=" ">
<polygon fill="white" stroke="#666666" points="531.62,-88 414.38,-88 414.38,-56 531.62,-56 531.62,-88"/>
<text text-anchor="start" x="422.38" y="-74.5" font-family="Helvetica,sans-Serif" font-size="10.00">lib/comms/commands</text>
<text text-anchor="middle" x="473" y="-62.5" font-family="Helvetica,sans-Serif" font-size="10.00">/power_commands.cpp</text>
</a>
</g>
</g>
<!-- Node8&#45;&gt;Node12 -->
<g id="edge15_Node000008_Node000012" class="edge">
<title>Node8&#45;&gt;Node12</title>
<g id="a_edge15_Node000008_Node000012"><a xlink:title=" ">
<path fill="none" stroke="#63b8ff" d="M881.04,-131.54C796.02,-123.15 658.61,-108.05 541,-88 538.02,-87.49 534.97,-86.94 531.9,-86.36"/>
<polygon fill="#63b8ff" stroke="#63b8ff" points="880.62,-135.01 890.91,-132.5 881.3,-128.04 880.62,-135.01"/>
</a>
</g>
</g>
<!-- Node13 -->
<g id="Node000013" class="node">
<title>Node13</title>
<g id="a_Node000013"><a xlink:href="communication_8cpp.html" target="_top" xlink:title=" ">
<polygon fill="white" stroke="#666666" points="698.38,-82 549.62,-82 549.62,-62 698.38,-62 698.38,-82"/>
<text text-anchor="middle" x="624" y="-68.5" font-family="Helvetica,sans-Serif" font-size="10.00">lib/comms/communication.cpp</text>
</a>
</g>
</g>
<!-- Node8&#45;&gt;Node13 -->
<g id="edge16_Node000008_Node000013" class="edge">
<title>Node8&#45;&gt;Node13</title>
<g id="a_edge16_Node000008_Node000013"><a xlink:title=" ">
<path fill="none" stroke="#63b8ff" d="M902.63,-127.41C837.25,-114.64 733.35,-94.35 672.61,-82.49"/>
<polygon fill="#63b8ff" stroke="#63b8ff" points="901.6,-130.77 912.09,-129.25 902.94,-123.9 901.6,-130.77"/>
</a>
</g>
</g>
<!-- Node14 -->
<g id="Node000014" class="node">
<title>Node14</title>
<g id="a_Node000014"><a xlink:href="frame_8cpp.html" target="_top" xlink:title="Implements functions for encoding, decoding, building, and processing Frames.">
<polygon fill="white" stroke="#666666" points="823.75,-82 716.25,-82 716.25,-62 823.75,-62 823.75,-82"/>
<text text-anchor="middle" x="770" y="-68.5" font-family="Helvetica,sans-Serif" font-size="10.00">lib/comms/frame.cpp</text>
</a>
</g>
</g>
<!-- Node8&#45;&gt;Node14 -->
<g id="edge17_Node000008_Node000014" class="edge">
<title>Node8&#45;&gt;Node14</title>
<g id="a_edge17_Node000008_Node000014"><a xlink:title=" ">
<path fill="none" stroke="#63b8ff" d="M924.03,-125.95C886.7,-113.12 830.65,-93.85 797.46,-82.44"/>
<polygon fill="#63b8ff" stroke="#63b8ff" points="922.47,-129.11 933.06,-129.05 924.74,-122.49 922.47,-129.11"/>
</a>
</g>
</g>
<!-- Node15 -->
<g id="Node000015" class="node">
<title>Node15</title>
<g id="a_Node000015"><a xlink:href="receive_8cpp.html" target="_top" xlink:title="Implements functions for receiving and processing data, including LoRa and UART input.">
<polygon fill="white" stroke="#666666" points="956.12,-82 841.88,-82 841.88,-62 956.12,-62 956.12,-82"/>
<text text-anchor="middle" x="899" y="-68.5" font-family="Helvetica,sans-Serif" font-size="10.00">lib/comms/receive.cpp</text>
</a>
</g>
</g>
<!-- Node8&#45;&gt;Node15 -->
<g id="edge18_Node000008_Node000015" class="edge">
<title>Node8&#45;&gt;Node15</title>
<g id="a_edge18_Node000008_Node000015"><a xlink:title=" ">
<path fill="none" stroke="#63b8ff" d="M945.06,-121.25C933.13,-108.76 917.64,-92.53 908.01,-82.44"/>
<polygon fill="#63b8ff" stroke="#63b8ff" points="942.49,-123.63 951.93,-128.45 947.56,-118.8 942.49,-123.63"/>
</a>
</g>
</g>
<!-- Node16 -->
<g id="Node000016" class="node">
<title>Node16</title>
<g id="a_Node000016"><a xlink:href="send_8cpp.html" target="_top" xlink:title="Implements functions for sending data, including LoRa messages and Frames.">
<polygon fill="white" stroke="#666666" points="1077.88,-82 974.12,-82 974.12,-62 1077.88,-62 1077.88,-82"/>
<text text-anchor="middle" x="1026" y="-68.5" font-family="Helvetica,sans-Serif" font-size="10.00">lib/comms/send.cpp</text>
</a>
</g>
</g>
<!-- Node8&#45;&gt;Node16 -->
<g id="edge19_Node000008_Node000016" class="edge">
<title>Node8&#45;&gt;Node16</title>
<g id="a_edge19_Node000008_Node000016"><a xlink:title=" ">
<path fill="none" stroke="#63b8ff" d="M978.86,-121.61C991.02,-109.07 1006.97,-92.63 1016.85,-82.44"/>
<polygon fill="#63b8ff" stroke="#63b8ff" points="976.67,-118.84 972.22,-128.46 981.7,-123.71 976.67,-118.84"/>
</a>
</g>
</g>
<!-- Node17 -->
<g id="Node000017" class="node">
<title>Node17</title>
<g id="a_Node000017"><a xlink:href="utils__converters_8cpp.html" target="_top" xlink:title="Implements utility functions for converting between different data types.">
<polygon fill="white" stroke="#666666" points="1247.88,-82 1096.12,-82 1096.12,-62 1247.88,-62 1247.88,-82"/>
<text text-anchor="middle" x="1172" y="-68.5" font-family="Helvetica,sans-Serif" font-size="10.00">lib/comms/utils_converters.cpp</text>
</a>
</g>
</g>
<!-- Node8&#45;&gt;Node17 -->
<g id="edge20_Node000008_Node000017" class="edge">
<title>Node8&#45;&gt;Node17</title>
<g id="a_edge20_Node000008_Node000017"><a xlink:title=" ">
<path fill="none" stroke="#63b8ff" d="M1003.01,-126.11C1043.83,-113.28 1105.5,-93.9 1141.97,-82.44"/>
<polygon fill="#63b8ff" stroke="#63b8ff" points="1002.02,-122.75 993.53,-129.09 1004.12,-129.43 1002.02,-122.75"/>
</a>
</g>
</g>
<!-- Node8&#45;&gt;Node18 -->
<g id="edge21_Node000008_Node000018" class="edge">
<title>Node8&#45;&gt;Node18</title>
<g id="a_edge21_Node000008_Node000018"><a xlink:title=" ">
<path fill="none" stroke="#63b8ff" d="M1042.84,-135.78C1152.35,-130.47 1353.63,-117.4 1523,-88 1525.77,-87.52 1528.6,-86.97 1531.44,-86.38"/>
<polygon fill="#63b8ff" stroke="#63b8ff" points="1042.9,-132.27 1033.08,-136.24 1043.23,-139.26 1042.9,-132.27"/>
</a>
</g>
</g>
</g>
</svg>
