<?xml version="1.0" encoding="UTF-8" standalone="no"?>
<!DOCTYPE svg PUBLIC "-//W3C//DTD SVG 1.1//EN"
 "http://www.w3.org/Graphics/SVG/1.1/DTD/svg11.dtd">
<!-- Generated by graphviz version 12.2.1 (20241206.2353)
 -->
<!-- Title: LoRaClass::handleDio0Rise Pages: 1 -->
<svg width="481pt" height="66pt"
 viewBox="0.00 0.00 480.50 66.00" xmlns="http://www.w3.org/2000/svg" xmlns:xlink="http://www.w3.org/1999/xlink">

<svg id="main" version="1.1" xmlns="http://www.w3.org/2000/svg" xmlns:xlink="http://www.w3.org/1999/xlink" xml:space="preserve">

<style type="text/css"><![CDATA[
.node, .edge {opacity: 0.7;}
.node.selected, .edge.selected {opacity: 1;}
.edge:hover path { stroke: red; }
.edge:hover polygon { stroke: red; fill: red; }
]]></style>
<script type="application/ecmascript" xlink:href="svg.min.js"/>
<svg id="graph" class="graph">
<g id="graph0" class="graph" transform="scale(1 1) rotate(0) translate(4 62)">
<title>LoRaClass::handleDio0Rise</title>
<!-- Node1 -->
<g id="Node000001" class="node">
<title>Node1</title>
<g id="a_Node000001"><a xlink:title=" ">
<polygon fill="#999999" stroke="#666666" points="139.75,-39 0,-39 0,-19 139.75,-19 139.75,-39"/>
<text text-anchor="middle" x="69.88" y="-25.5" font-family="Helvetica,sans-Serif" font-size="10.00">LoRaClass::handleDio0Rise</text>
</a>
</g>
</g>
<!-- Node2 -->
<g id="Node000002" class="node">
<title>Node2</title>
<g id="a_Node000002"><a xlink:href="class_lo_ra_class.html#add581bfe66dd75108e22b18a4d6f89bf" target="_top" xlink:title=" ">
<polygon fill="white" stroke="#666666" points="303.12,-58 176.88,-58 176.88,-38 303.12,-38 303.12,-58"/>
<text text-anchor="middle" x="240" y="-44.5" font-family="Helvetica,sans-Serif" font-size="10.00">LoRaClass::readRegister</text>
</a>
</g>
</g>
<!-- Node1&#45;&gt;Node2 -->
<g id="edge1_Node000001_Node000002" class="edge">
<title>Node1&#45;&gt;Node2</title>
<g id="a_edge1_Node000001_Node000002"><a xlink:title=" ">
<path fill="none" stroke="#63b8ff" d="M140.23,-36.84C148.5,-37.77 156.97,-38.73 165.3,-39.67"/>
<polygon fill="#63b8ff" stroke="#63b8ff" points="164.7,-43.13 175.03,-40.77 165.49,-36.17 164.7,-43.13"/>
</a>
</g>
</g>
<!-- Node4 -->
<g id="Node000004" class="node">
<title>Node4</title>
<g id="a_Node000004"><a xlink:href="class_lo_ra_class.html#a77e7c77aa54174b352a26e1510f66f98" target="_top" xlink:title=" ">
<polygon fill="white" stroke="#666666" points="304.25,-20 175.75,-20 175.75,0 304.25,0 304.25,-20"/>
<text text-anchor="middle" x="240" y="-6.5" font-family="Helvetica,sans-Serif" font-size="10.00">LoRaClass::writeRegister</text>
</a>
</g>
</g>
<!-- Node1&#45;&gt;Node4 -->
<g id="edge3_Node000001_Node000004" class="edge">
<title>Node1&#45;&gt;Node4</title>
<g id="a_edge3_Node000001_Node000004"><a xlink:title=" ">
<path fill="none" stroke="#63b8ff" d="M140.23,-21.16C148.16,-20.27 156.27,-19.35 164.27,-18.45"/>
<polygon fill="#63b8ff" stroke="#63b8ff" points="164.42,-21.95 173.96,-17.35 163.63,-15 164.42,-21.95"/>
</a>
</g>
</g>
<!-- Node3 -->
<g id="Node000003" class="node">
<title>Node3</title>
<g id="a_Node000003"><a xlink:href="class_lo_ra_class.html#a3a0c0649c595b1176b5fb1ae41210ee3" target="_top" xlink:title=" ">
<polygon fill="white" stroke="#666666" points="472.5,-39 340.25,-39 340.25,-19 472.5,-19 472.5,-39"/>
<text text-anchor="middle" x="406.38" y="-25.5" font-family="Helvetica,sans-Serif" font-size="10.00">LoRaClass::singleTransfer</text>
</a>
</g>
</g>
<!-- Node2&#45;&gt;Node3 -->
<g id="edge2_Node000002_Node000003" class="edge">
<title>Node2&#45;&gt;Node3</title>
<g id="a_edge2_Node000002_Node000003"><a xlink:title=" ">
<path fill="none" stroke="#63b8ff" d="M303.61,-40.76C311.78,-39.82 320.23,-38.84 328.6,-37.87"/>
<polygon fill="#63b8ff" stroke="#63b8ff" points="328.9,-41.36 338.43,-36.74 328.09,-34.41 328.9,-41.36"/>
</a>
</g>
</g>
<!-- Node4&#45;&gt;Node3 -->
<g id="edge4_Node000004_Node000003" class="edge">
<title>Node4&#45;&gt;Node3</title>
<g id="a_edge4_Node000004_Node000003"><a xlink:title=" ">
<path fill="none" stroke="#63b8ff" d="M304.55,-17.35C312.41,-18.25 320.51,-19.19 328.54,-20.12"/>
<polygon fill="#63b8ff" stroke="#63b8ff" points="327.98,-23.58 338.32,-21.25 328.78,-16.62 327.98,-23.58"/>
</a>
</g>
</g>
</g>
</svg>
</svg>

<style type='text/css'>
<![CDATA[
[data-mouse-over-selected='false'] { opacity: 0.7; }
[data-mouse-over-selected='true']  { opacity: 1.0; }
]]>
</style>
<script type="application/ecmascript"><![CDATA[
document.addEventListener('DOMContentLoaded', (event) => {
  highlightEdges();
  highlightAdjacentNodes();
});
]]></script>
</svg>
