<?xml version="1.0" encoding="UTF-8" standalone="no"?>
<!DOCTYPE svg PUBLIC "-//W3C//DTD SVG 1.1//EN"
 "http://www.w3.org/Graphics/SVG/1.1/DTD/svg11.dtd">
<!-- Generated by graphviz version 12.2.1 (20241206.2353)
 -->
<!-- Title: DS3231::applyTimezone Pages: 1 -->
<svg width="296pt" height="66pt"
 viewBox="0.00 0.00 295.75 66.00" xmlns="http://www.w3.org/2000/svg" xmlns:xlink="http://www.w3.org/1999/xlink">
<g id="graph0" class="graph" transform="scale(1 1) rotate(0) translate(4 62)">
<title>DS3231::applyTimezone</title>
<!-- Node1 -->
<g id="Node000001" class="node">
<title>Node1</title>
<g id="a_Node000001"><a xlink:title=" ">
<polygon fill="#999999" stroke="#666666" points="123.25,-39 0,-39 0,-19 123.25,-19 123.25,-39"/>
<text text-anchor="middle" x="61.62" y="-25.5" font-family="Helvetica,sans-Serif" font-size="10.00">DS3231::applyTimezone</text>
</a>
</g>
</g>
<!-- Node2 -->
<g id="Node000002" class="node">
<title>Node2</title>
<g id="a_Node000002"><a xlink:href="class_d_s3231.html#ae6c4f2144a772c44f7adbace7f86dfa1" target="_top" xlink:title=" ">
<polygon fill="white" stroke="#666666" points="287.75,-58 159.25,-58 159.25,-38 287.75,-38 287.75,-58"/>
<text text-anchor="middle" x="223.5" y="-44.5" font-family="Helvetica,sans-Serif" font-size="10.00">DS3231::dateTimeToUnix</text>
</a>
</g>
</g>
<!-- Node1&#45;&gt;Node2 -->
<g id="edge1_Node000001_Node000002" class="edge">
<title>Node1&#45;&gt;Node2</title>
<g id="a_edge1_Node000001_Node000002"><a xlink:title=" ">
<path fill="none" stroke="#63b8ff" d="M123.52,-36.24C131.38,-37.17 139.5,-38.14 147.55,-39.09"/>
<polygon fill="#63b8ff" stroke="#63b8ff" points="147,-42.55 157.35,-40.26 147.83,-35.6 147,-42.55"/>
</a>
</g>
</g>
<!-- Node3 -->
<g id="Node000003" class="node">
<title>Node3</title>
<g id="a_Node000003"><a xlink:href="class_d_s3231.html#a40a965b965496e5b0e7758040c5d9ce7" target="_top" xlink:title=" ">
<polygon fill="white" stroke="#666666" points="287.75,-20 159.25,-20 159.25,0 287.75,0 287.75,-20"/>
<text text-anchor="middle" x="223.5" y="-6.5" font-family="Helvetica,sans-Serif" font-size="10.00">DS3231::unixToDateTime</text>
</a>
</g>
</g>
<!-- Node1&#45;&gt;Node3 -->
<g id="edge2_Node000001_Node000003" class="edge">
<title>Node1&#45;&gt;Node3</title>
<g id="a_edge2_Node000001_Node000003"><a xlink:title=" ">
<path fill="none" stroke="#63b8ff" d="M123.52,-21.76C131.38,-20.83 139.5,-19.86 147.55,-18.91"/>
<polygon fill="#63b8ff" stroke="#63b8ff" points="147.83,-22.4 157.35,-17.74 147,-15.45 147.83,-22.4"/>
</a>
</g>
</g>
</g>
</svg>
