<?xml version="1.0" encoding="UTF-8" standalone="no"?>
<!DOCTYPE svg PUBLIC "-//W3C//DTD SVG 1.1//EN"
 "http://www.w3.org/Graphics/SVG/1.1/DTD/svg11.dtd">
<!-- Generated by graphviz version 12.2.1 (20241206.2353)
 -->
<!-- Title: LoRaClass::begin Pages: 1 -->
<!--zoomable 224 -->

<svg id="main" version="1.1" xmlns="http://www.w3.org/2000/svg" xmlns:xlink="http://www.w3.org/1999/xlink" xml:space="preserve" onload="init(evt)">

<style type="text/css"><![CDATA[
.node, .edge {opacity: 0.7;}
.node.selected, .edge.selected {opacity: 1;}
.edge:hover path { stroke: red; }
.edge:hover polygon { stroke: red; fill: red; }
]]></style>

<defs>
  <circle id="rim" cx="0" cy="0" r="7"/>
  <circle id="rim2" cx="0" cy="0" r="3.5"/>
  <g id="zoomPlus">
    <use xlink:href="#rim" fill="#404040"><set attributeName="fill" to="#808080" begin="zoomplus.mouseover" end="zoomplus.mouseout"/></use>
    <path d="M-4,0h8M0,-4v8" fill="none" stroke="white" stroke-width="1.5" pointer-events="none"/>
  </g>
  <g id="zoomMin">
    <use xlink:href="#rim" fill="#404040"><set attributeName="fill" to="#808080" begin="zoomminus.mouseover" end="zoomminus.mouseout"/></use>
    <path d="M-4,0h8" fill="none" stroke="white" stroke-width="1.5" pointer-events="none"/>
  </g>
  <g id="arrowUp" transform="translate(30 24)">
    <use xlink:href="#rim"/>
    <path pointer-events="none" fill="none" stroke="white" stroke-width="1.5" d="M0,-3.0v7 M-2.5,-0.5L0,-3.0L2.5,-0.5"/>
  </g>
  <g id="arrowRight" transform="rotate(90) translate(36 -43)">
    <use xlink:href="#rim"/>
    <path pointer-events="none" fill="none" stroke="white" stroke-width="1.5" d="M0,-3.0v7 M-2.5,-0.5L0,-3.0L2.5,-0.5"/>
  </g>
  <g id="arrowDown" transform="rotate(180) translate(-30 -48)">
    <use xlink:href="#rim"/>
    <path pointer-events="none" fill="none" stroke="white" stroke-width="1.5" d="M0,-3.0v7 M-2.5,-0.5L0,-3.0L2.5,-0.5"/>
  </g>
  <g id="arrowLeft" transform="rotate(270) translate(-36 17)">
    <use xlink:href="#rim"/>
    <path pointer-events="none" fill="none" stroke="white" stroke-width="1.5" d="M0,-3.0v7 M-2.5,-0.5L0,-3.0L2.5,-0.5"/>
  </g>
  <g id="resetDef">
    <use xlink:href="#rim2" fill="#404040"><set attributeName="fill" to="#808080" begin="reset.mouseover" end="reset.mouseout"/></use>
  </g>
</defs>
<script type="application/ecmascript">
var viewWidth = 760;
var viewHeight = 224;
var sectionId = 'dynsection-2';
</script>
<script type="application/ecmascript" xlink:href="svg.min.js"/>
<svg id="graph" class="graph">
<g id="viewport">
<title>LoRaClass::begin</title>
<!-- Node1 -->
<g id="Node000001" class="node">
<title>Node1</title>
<g id="a_Node000001"><a xlink:title=" ">
<polygon fill="#999999" stroke="#666666" points="94,-137.58 0,-137.58 0,-117.58 94,-117.58 94,-137.58"/>
<text text-anchor="middle" x="47" y="-124.08" font-family="Helvetica,sans-Serif" font-size="10.00">LoRaClass::begin</text>
</a>
</g>
</g>
<!-- Node2 -->
<g id="Node000002" class="node">
<title>Node2</title>
<g id="a_Node000002"><a xlink:href="class_lo_ra_class.html#ab0397413dc995dedb08f2c560e79b01c" target="_top" xlink:title=" ">
<polygon fill="white" stroke="#666666" points="397.12,-194.58 311.38,-194.58 311.38,-174.58 397.12,-174.58 397.12,-194.58"/>
<text text-anchor="middle" x="354.25" y="-181.08" font-family="Helvetica,sans-Serif" font-size="10.00">LoRaClass::idle</text>
</a>
</g>
</g>
<!-- Node1&#45;&gt;Node2 -->
<g id="edge1_Node000001_Node000002" class="edge">
<title>Node1&#45;&gt;Node2</title>
<g id="a_edge1_Node000001_Node000002"><a xlink:title=" ">
<path fill="none" stroke="#63b8ff" d="M69.04,-137.92C85.3,-145.45 108.56,-155.22 130,-160.58 186.88,-174.79 253.99,-180.59 299.67,-182.95"/>
<polygon fill="#63b8ff" stroke="#63b8ff" points="299.42,-186.44 309.58,-183.42 299.76,-179.45 299.42,-186.44"/>
</a>
</g>
</g>
<!-- Node3 -->
<g id="Node000003" class="node">
<title>Node3</title>
<g id="a_Node000003"><a xlink:href="class_lo_ra_class.html#a77e7c77aa54174b352a26e1510f66f98" target="_top" xlink:title=" ">
<polygon fill="white" stroke="#666666" points="583.75,-118.58 455.25,-118.58 455.25,-98.58 583.75,-98.58 583.75,-118.58"/>
<text text-anchor="middle" x="519.5" y="-105.08" font-family="Helvetica,sans-Serif" font-size="10.00">LoRaClass::writeRegister</text>
</a>
</g>
</g>
<!-- Node1&#45;&gt;Node3 -->
<g id="edge14_Node000001_Node000003" class="edge">
<title>Node1&#45;&gt;Node3</title>
<g id="a_edge14_Node000001_Node000003"><a xlink:title=" ">
<path fill="none" stroke="#63b8ff" d="M94.41,-129.08C164.79,-130.88 302.68,-132.52 419.25,-122.58 427.18,-121.9 435.44,-121.02 443.66,-120.03"/>
<polygon fill="#63b8ff" stroke="#63b8ff" points="443.83,-123.53 453.31,-118.81 442.95,-116.59 443.83,-123.53"/>
</a>
</g>
</g>
<!-- Node5 -->
<g id="Node000005" class="node">
<title>Node5</title>
<g id="a_Node000005"><a xlink:href="class_lo_ra_class.html#add581bfe66dd75108e22b18a4d6f89bf" target="_top" xlink:title=" ">
<polygon fill="white" stroke="#666666" points="582.62,-194.58 456.38,-194.58 456.38,-174.58 582.62,-174.58 582.62,-194.58"/>
<text text-anchor="middle" x="519.5" y="-181.08" font-family="Helvetica,sans-Serif" font-size="10.00">LoRaClass::readRegister</text>
</a>
</g>
</g>
<!-- Node1&#45;&gt;Node5 -->
<g id="edge4_Node000001_Node000005" class="edge">
<title>Node1&#45;&gt;Node5</title>
<g id="a_edge4_Node000001_Node000005"><a xlink:title=" ">
<path fill="none" stroke="#63b8ff" d="M59.22,-137.86C74.15,-150.9 101.95,-172.95 130,-183.58 250.51,-229.22 290.96,-215.74 419.25,-203.58 433.44,-202.23 448.63,-199.82 462.75,-197.16"/>
<polygon fill="#63b8ff" stroke="#63b8ff" points="463.17,-200.65 472.31,-195.29 461.83,-193.78 463.17,-200.65"/>
</a>
</g>
</g>
<!-- Node6 -->
<g id="Node000006" class="node">
<title>Node6</title>
<g id="a_Node000006"><a xlink:href="class_lo_ra_class.html#ab754b002b04a9761ff4bee201b9ff560" target="_top" xlink:title=" ">
<polygon fill="white" stroke="#666666" points="419.25,-80.58 289.25,-80.58 289.25,-60.58 419.25,-60.58 419.25,-80.58"/>
<text text-anchor="middle" x="354.25" y="-67.08" font-family="Helvetica,sans-Serif" font-size="10.00">LoRaClass::setFrequency</text>
</a>
</g>
</g>
<!-- Node1&#45;&gt;Node6 -->
<g id="edge6_Node000001_Node000006" class="edge">
<title>Node1&#45;&gt;Node6</title>
<g id="a_edge6_Node000001_Node000006"><a xlink:title=" ">
<path fill="none" stroke="#63b8ff" d="M65.56,-117.24C81.72,-108.27 106.65,-95.77 130,-89.58 178.15,-76.8 233.99,-72.05 277.78,-70.49"/>
<polygon fill="#63b8ff" stroke="#63b8ff" points="277.81,-73.99 287.7,-70.2 277.6,-67 277.81,-73.99"/>
</a>
</g>
</g>
<!-- Node7 -->
<g id="Node000007" class="node">
<title>Node7</title>
<g id="a_Node000007"><a xlink:href="class_lo_ra_class.html#ae113ad79caf2255287433de45b0e5b5e" target="_top" xlink:title=" ">
<polygon fill="white" stroke="#666666" points="253.25,-42.58 130,-42.58 130,-22.58 253.25,-22.58 253.25,-42.58"/>
<text text-anchor="middle" x="191.62" y="-29.08" font-family="Helvetica,sans-Serif" font-size="10.00">LoRaClass::setTxPower</text>
</a>
</g>
</g>
<!-- Node1&#45;&gt;Node7 -->
<g id="edge8_Node000001_Node000007" class="edge">
<title>Node1&#45;&gt;Node7</title>
<g id="a_edge8_Node000001_Node000007"><a xlink:title=" ">
<path fill="none" stroke="#63b8ff" d="M57.73,-117.17C72.25,-102.12 101.02,-74.16 130,-56.58 135.64,-53.15 141.86,-50.04 148.09,-47.28"/>
<polygon fill="#63b8ff" stroke="#63b8ff" points="149.21,-50.61 157.11,-43.55 146.53,-44.14 149.21,-50.61"/>
</a>
</g>
</g>
<!-- Node9 -->
<g id="Node000009" class="node">
<title>Node9</title>
<g id="a_Node000009"><a xlink:href="class_lo_ra_class.html#a24390e2c96490b16ca8733e274164ae0" target="_top" xlink:title=" ">
<polygon fill="white" stroke="#666666" points="238.62,-118.58 144.62,-118.58 144.62,-98.58 238.62,-98.58 238.62,-118.58"/>
<text text-anchor="middle" x="191.62" y="-105.08" font-family="Helvetica,sans-Serif" font-size="10.00">LoRaClass::sleep</text>
</a>
</g>
</g>
<!-- Node1&#45;&gt;Node9 -->
<g id="edge12_Node000001_Node000009" class="edge">
<title>Node1&#45;&gt;Node9</title>
<g id="a_edge12_Node000001_Node000009"><a xlink:title=" ">
<path fill="none" stroke="#63b8ff" d="M94.31,-121.41C106.76,-119.75 120.38,-117.93 133.36,-116.2"/>
<polygon fill="#63b8ff" stroke="#63b8ff" points="133.6,-119.7 143.05,-114.91 132.68,-112.76 133.6,-119.7"/>
</a>
</g>
</g>
<!-- Node2&#45;&gt;Node3 -->
<g id="edge2_Node000002_Node000003" class="edge">
<title>Node2&#45;&gt;Node3</title>
<g id="a_edge2_Node000002_Node000003"><a xlink:title=" ">
<path fill="none" stroke="#63b8ff" d="M385.52,-174.1C396.28,-170.14 408.42,-165.42 419.25,-160.58 443.78,-149.6 470.75,-135.32 490.37,-124.51"/>
<polygon fill="#63b8ff" stroke="#63b8ff" points="491.82,-127.71 498.86,-119.79 488.42,-121.59 491.82,-127.71"/>
</a>
</g>
</g>
<!-- Node4 -->
<g id="Node000004" class="node">
<title>Node4</title>
<g id="a_Node000004"><a xlink:href="class_lo_ra_class.html#a3a0c0649c595b1176b5fb1ae41210ee3" target="_top" xlink:title=" ">
<polygon fill="white" stroke="#666666" points="752,-137.58 619.75,-137.58 619.75,-117.58 752,-117.58 752,-137.58"/>
<text text-anchor="middle" x="685.88" y="-124.08" font-family="Helvetica,sans-Serif" font-size="10.00">LoRaClass::singleTransfer</text>
</a>
</g>
</g>
<!-- Node3&#45;&gt;Node4 -->
<g id="edge3_Node000003_Node000004" class="edge">
<title>Node3&#45;&gt;Node4</title>
<g id="a_edge3_Node000003_Node000004"><a xlink:title=" ">
<path fill="none" stroke="#63b8ff" d="M584.05,-115.92C591.91,-116.83 600.01,-117.77 608.04,-118.69"/>
<polygon fill="#63b8ff" stroke="#63b8ff" points="607.48,-122.15 617.82,-119.82 608.28,-115.2 607.48,-122.15"/>
</a>
</g>
</g>
<!-- Node5&#45;&gt;Node4 -->
<g id="edge5_Node000005_Node000004" class="edge">
<title>Node5&#45;&gt;Node4</title>
<g id="a_edge5_Node000005_Node000004"><a xlink:title=" ">
<path fill="none" stroke="#63b8ff" d="M550.65,-174.12C576.87,-165.03 615.08,-151.78 644.04,-141.74"/>
<polygon fill="#63b8ff" stroke="#63b8ff" points="644.91,-145.14 653.21,-138.56 642.61,-138.53 644.91,-145.14"/>
</a>
</g>
</g>
<!-- Node6&#45;&gt;Node3 -->
<g id="edge7_Node000006_Node000003" class="edge">
<title>Node6&#45;&gt;Node3</title>
<g id="a_edge7_Node000006_Node000003"><a xlink:title=" ">
<path fill="none" stroke="#63b8ff" d="M400.29,-81.06C419.56,-85.55 442.26,-90.83 462.59,-95.56"/>
<polygon fill="#63b8ff" stroke="#63b8ff" points="461.6,-98.92 472.13,-97.78 463.19,-92.11 461.6,-98.92"/>
</a>
</g>
</g>
<!-- Node7&#45;&gt;Node3 -->
<g id="edge11_Node000007_Node000003" class="edge">
<title>Node7&#45;&gt;Node3</title>
<g id="a_edge11_Node000007_Node000003"><a xlink:title=" ">
<path fill="none" stroke="#63b8ff" d="M221.4,-22.14C265.68,-7.82 352.38,13.27 419.25,-13.58 457.04,-28.75 488.57,-65.94 505.38,-89.03"/>
<polygon fill="#63b8ff" stroke="#63b8ff" points="502.37,-90.83 510.98,-97 508.09,-86.8 502.37,-90.83"/>
</a>
</g>
</g>
<!-- Node8 -->
<g id="Node000008" class="node">
<title>Node8</title>
<g id="a_Node000008"><a xlink:href="class_lo_ra_class.html#ac103b2909b8eb353b28b7982251881a3" target="_top" xlink:title=" ">
<polygon fill="white" stroke="#666666" points="407.25,-42.58 301.25,-42.58 301.25,-22.58 407.25,-22.58 407.25,-42.58"/>
<text text-anchor="middle" x="354.25" y="-29.08" font-family="Helvetica,sans-Serif" font-size="10.00">LoRaClass::setOCP</text>
</a>
</g>
</g>
<!-- Node7&#45;&gt;Node8 -->
<g id="edge9_Node000007_Node000008" class="edge">
<title>Node7&#45;&gt;Node8</title>
<g id="a_edge9_Node000007_Node000008"><a xlink:title=" ">
<path fill="none" stroke="#63b8ff" d="M253.35,-32.58C265.2,-32.58 277.65,-32.58 289.6,-32.58"/>
<polygon fill="#63b8ff" stroke="#63b8ff" points="289.34,-36.08 299.34,-32.58 289.34,-29.08 289.34,-36.08"/>
</a>
</g>
</g>
<!-- Node8&#45;&gt;Node3 -->
<g id="edge10_Node000008_Node000003" class="edge">
<title>Node8&#45;&gt;Node3</title>
<g id="a_edge10_Node000008_Node000003"><a xlink:title=" ">
<path fill="none" stroke="#63b8ff" d="M395.7,-43.03C403.63,-45.51 411.79,-48.38 419.25,-51.58 445.57,-62.86 473.7,-79.5 493.27,-91.89"/>
<polygon fill="#63b8ff" stroke="#63b8ff" points="491.36,-94.82 501.66,-97.29 495.15,-88.93 491.36,-94.82"/>
</a>
</g>
</g>
<!-- Node9&#45;&gt;Node3 -->
<g id="edge13_Node000009_Node000003" class="edge">
<title>Node9&#45;&gt;Node3</title>
<g id="a_edge13_Node000009_Node000003"><a xlink:title=" ">
<path fill="none" stroke="#63b8ff" d="M238.97,-108.58C292.24,-108.58 380.41,-108.58 443.49,-108.58"/>
<polygon fill="#63b8ff" stroke="#63b8ff" points="443.45,-112.08 453.45,-108.58 443.45,-105.08 443.45,-112.08"/>
</a>
</g>
</g>
</g>
</svg>

<g id="navigator" transform="translate(0 0)" fill="#404254">
  <rect fill="#f2f5e9" fill-opacity="0.5" stroke="#606060" stroke-width=".5" x="0" y="0" width="60" height="60"/>
  <use id="zoomplus" xlink:href="#zoomPlus" x="17" y="9" onmousedown="handleZoom(evt,'in')"/>
  <use id="zoomminus" xlink:href="#zoomMin" x="42" y="9" onmousedown="handleZoom(evt,'out')"/>
  <use id="reset" xlink:href="#resetDef" x="30" y="36" onmousedown="handleReset()"/>
   <use id="arrowup" xlink:href="#arrowUp" x="0" y="0" onmousedown="handlePan(0,-1)"/>
  <use id="arrowright" xlink:href="#arrowRight" x="0" y="0" onmousedown="handlePan(1,0)"/>
  <use id="arrowdown" xlink:href="#arrowDown" x="0" y="0" onmousedown="handlePan(0,1)"/>
  <use id="arrowleft" xlink:href="#arrowLeft" x="0" y="0" onmousedown="handlePan(-1,0)"/>
</g>
<svg viewBox="0 0 15 15" width="100%" height="30px" preserveAspectRatio="xMaxYMin meet">
 <g id="arrow_out" transform="scale(0.3 0.3)">
  <a xlink:href="class_lo_ra_class_a3c5b6ee156c14f20238f46292c116d96_cgraph_org.svg" target="_base">
   <rect id="button" ry="5" rx="5" y="6" x="6" height="38" width="38"
        fill="#f2f5e9" fill-opacity="0.5" stroke="#606060" stroke-width="1.0"/>
   <path id="arrow"
     d="M 11.500037,31.436501 C 11.940474,20.09759 22.043105,11.32322 32.158766,21.979434 L 37.068811,17.246167 C 37.068811,17.246167 37.088388,32 37.088388,32 L 22.160133,31.978069 C 22.160133,31.978069 26.997745,27.140456 26.997745,27.140456 C 18.528582,18.264221 13.291696,25.230495 11.500037,31.436501 z"
     style="fill:#404040;"/>
  </a>
 </g>
</svg>

<style type='text/css'>
<![CDATA[
[data-mouse-over-selected='false'] { opacity: 0.7; }
[data-mouse-over-selected='true']  { opacity: 1.0; }
]]>
</style>
<script type="application/ecmascript"><![CDATA[
document.addEventListener('DOMContentLoaded', (event) => {
  highlightEdges();
  highlightAdjacentNodes();
});
]]></script>
</svg>
