<?xml version="1.0" encoding="UTF-8" standalone="no"?>
<!DOCTYPE svg PUBLIC "-//W3C//DTD SVG 1.1//EN"
 "http://www.w3.org/Graphics/SVG/1.1/DTD/svg11.dtd">
<!-- Generated by graphviz version 12.2.1 (20241206.2353)
 -->
<!-- Title: LoRaClass::setGain Pages: 1 -->
<svg width="567pt" height="104pt"
 viewBox="0.00 0.00 567.00 104.00" xmlns="http://www.w3.org/2000/svg" xmlns:xlink="http://www.w3.org/1999/xlink">
<g id="graph0" class="graph" transform="scale(1 1) rotate(0) translate(4 100)">
<title>LoRaClass::setGain</title>
<!-- Node1 -->
<g id="Node000001" class="node">
<title>Node1</title>
<g id="a_Node000001"><a xlink:title=" ">
<polygon fill="#999999" stroke="#666666" points="104.5,-58 0,-58 0,-38 104.5,-38 104.5,-58"/>
<text text-anchor="middle" x="52.25" y="-44.5" font-family="Helvetica,sans-Serif" font-size="10.00">LoRaClass::setGain</text>
</a>
</g>
</g>
<!-- Node2 -->
<g id="Node000002" class="node">
<title>Node2</title>
<g id="a_Node000002"><a xlink:href="class_lo_ra_class.html#ab0397413dc995dedb08f2c560e79b01c" target="_top" xlink:title=" ">
<polygon fill="white" stroke="#666666" points="226.25,-96 140.5,-96 140.5,-76 226.25,-76 226.25,-96"/>
<text text-anchor="middle" x="183.38" y="-82.5" font-family="Helvetica,sans-Serif" font-size="10.00">LoRaClass::idle</text>
</a>
</g>
</g>
<!-- Node1&#45;&gt;Node2 -->
<g id="edge1_Node000001_Node000002" class="edge">
<title>Node1&#45;&gt;Node2</title>
<g id="a_edge1_Node000001_Node000002"><a xlink:title=" ">
<path fill="none" stroke="#63b8ff" d="M88.88,-58.48C103.41,-62.76 120.42,-67.77 135.91,-72.33"/>
<polygon fill="#63b8ff" stroke="#63b8ff" points="134.83,-75.66 145.41,-75.12 136.81,-68.94 134.83,-75.66"/>
</a>
</g>
</g>
<!-- Node3 -->
<g id="Node000003" class="node">
<title>Node3</title>
<g id="a_Node000003"><a xlink:href="class_lo_ra_class.html#a77e7c77aa54174b352a26e1510f66f98" target="_top" xlink:title=" ">
<polygon fill="white" stroke="#666666" points="390.75,-58 262.25,-58 262.25,-38 390.75,-38 390.75,-58"/>
<text text-anchor="middle" x="326.5" y="-44.5" font-family="Helvetica,sans-Serif" font-size="10.00">LoRaClass::writeRegister</text>
</a>
</g>
</g>
<!-- Node1&#45;&gt;Node3 -->
<g id="edge6_Node000001_Node000003" class="edge">
<title>Node1&#45;&gt;Node3</title>
<g id="a_edge6_Node000001_Node000003"><a xlink:title=" ">
<path fill="none" stroke="#63b8ff" d="M104.78,-48C145.99,-48 204.34,-48 250.7,-48"/>
<polygon fill="#63b8ff" stroke="#63b8ff" points="250.7,-51.5 260.7,-48 250.7,-44.5 250.7,-51.5"/>
</a>
</g>
</g>
<!-- Node5 -->
<g id="Node000005" class="node">
<title>Node5</title>
<g id="a_Node000005"><a xlink:href="class_lo_ra_class.html#add581bfe66dd75108e22b18a4d6f89bf" target="_top" xlink:title=" ">
<polygon fill="white" stroke="#666666" points="389.62,-20 263.38,-20 263.38,0 389.62,0 389.62,-20"/>
<text text-anchor="middle" x="326.5" y="-6.5" font-family="Helvetica,sans-Serif" font-size="10.00">LoRaClass::readRegister</text>
</a>
</g>
</g>
<!-- Node1&#45;&gt;Node5 -->
<g id="edge4_Node000001_Node000005" class="edge">
<title>Node1&#45;&gt;Node5</title>
<g id="a_edge4_Node000001_Node000005"><a xlink:title=" ">
<path fill="none" stroke="#63b8ff" d="M104.78,-40.81C146.36,-35 205.4,-26.76 251.95,-20.27"/>
<polygon fill="#63b8ff" stroke="#63b8ff" points="252.28,-23.75 261.7,-18.91 251.31,-16.82 252.28,-23.75"/>
</a>
</g>
</g>
<!-- Node2&#45;&gt;Node3 -->
<g id="edge2_Node000002_Node000003" class="edge">
<title>Node2&#45;&gt;Node3</title>
<g id="a_edge2_Node000002_Node000003"><a xlink:title=" ">
<path fill="none" stroke="#63b8ff" d="M223.31,-75.52C239.51,-71.15 258.51,-66.04 275.7,-61.41"/>
<polygon fill="#63b8ff" stroke="#63b8ff" points="276.48,-64.82 285.23,-58.84 274.66,-58.06 276.48,-64.82"/>
</a>
</g>
</g>
<!-- Node4 -->
<g id="Node000004" class="node">
<title>Node4</title>
<g id="a_Node000004"><a xlink:href="class_lo_ra_class.html#a3a0c0649c595b1176b5fb1ae41210ee3" target="_top" xlink:title=" ">
<polygon fill="white" stroke="#666666" points="559,-39 426.75,-39 426.75,-19 559,-19 559,-39"/>
<text text-anchor="middle" x="492.88" y="-25.5" font-family="Helvetica,sans-Serif" font-size="10.00">LoRaClass::singleTransfer</text>
</a>
</g>
</g>
<!-- Node3&#45;&gt;Node4 -->
<g id="edge3_Node000003_Node000004" class="edge">
<title>Node3&#45;&gt;Node4</title>
<g id="a_edge3_Node000003_Node000004"><a xlink:title=" ">
<path fill="none" stroke="#63b8ff" d="M391.05,-40.65C398.91,-39.75 407.01,-38.81 415.04,-37.88"/>
<polygon fill="#63b8ff" stroke="#63b8ff" points="415.28,-41.38 424.82,-36.75 414.48,-34.42 415.28,-41.38"/>
</a>
</g>
</g>
<!-- Node5&#45;&gt;Node4 -->
<g id="edge5_Node000005_Node000004" class="edge">
<title>Node5&#45;&gt;Node4</title>
<g id="a_edge5_Node000005_Node000004"><a xlink:title=" ">
<path fill="none" stroke="#63b8ff" d="M390.11,-17.24C398.28,-18.18 406.73,-19.16 415.1,-20.13"/>
<polygon fill="#63b8ff" stroke="#63b8ff" points="414.59,-23.59 424.93,-21.26 415.4,-16.64 414.59,-23.59"/>
</a>
</g>
</g>
</g>
</svg>
