<?xml version="1.0" encoding="UTF-8" standalone="no"?>
<!DOCTYPE svg PUBLIC "-//W3C//DTD SVG 1.1//EN"
 "http://www.w3.org/Graphics/SVG/1.1/DTD/svg11.dtd">
<!-- Generated by graphviz version 12.2.1 (20241206.2353)
 -->
<!-- Title: INA3221::getVoltage Pages: 1 -->
<svg width="337pt" height="66pt"
 viewBox="0.00 0.00 337.00 66.00" xmlns="http://www.w3.org/2000/svg" xmlns:xlink="http://www.w3.org/1999/xlink">
<g id="graph0" class="graph" transform="scale(1 1) rotate(0) translate(4 62)">
<title>INA3221::getVoltage</title>
<!-- Node1 -->
<g id="Node000001" class="node">
<title>Node1</title>
<g id="a_Node000001"><a xlink:title=" ">
<polygon fill="#999999" stroke="#666666" points="329,-39 223,-39 223,-19 329,-19 329,-39"/>
<text text-anchor="middle" x="276" y="-25.5" font-family="Helvetica,sans-Serif" font-size="10.00">INA3221::getVoltage</text>
</a>
</g>
</g>
<!-- Node2 -->
<g id="Node000002" class="node">
<title>Node2</title>
<g id="a_Node000002"><a xlink:href="class_i_n_a3221.html#a4d6fc129ecefc2b28187ffa0652a1127" target="_top" xlink:title=" ">
<polygon fill="white" stroke="#666666" points="176.88,-58 10.12,-58 10.12,-38 176.88,-38 176.88,-58"/>
<text text-anchor="middle" x="93.5" y="-44.5" font-family="Helvetica,sans-Serif" font-size="10.00">INA3221::getCurrentCompensated</text>
</a>
</g>
</g>
<!-- Node1&#45;&gt;Node2 -->
<g id="edge1_Node000001_Node000002" class="edge">
<title>Node1&#45;&gt;Node2</title>
<g id="a_edge1_Node000001_Node000002"><a xlink:title=" ">
<path fill="none" stroke="#63b8ff" d="M211.48,-35.69C200.39,-36.85 188.71,-38.08 177.2,-39.3"/>
<polygon fill="#63b8ff" stroke="#63b8ff" points="211.71,-39.18 221.29,-34.65 210.98,-32.22 211.71,-39.18"/>
</a>
</g>
</g>
<!-- Node3 -->
<g id="Node000003" class="node">
<title>Node3</title>
<g id="a_Node000003"><a xlink:href="class_i_n_a3221.html#a8156d9fca27f9aadab3d99bec9925c44" target="_top" xlink:title=" ">
<polygon fill="white" stroke="#666666" points="187,-20 0,-20 0,0 187,0 187,-20"/>
<text text-anchor="middle" x="93.5" y="-6.5" font-family="Helvetica,sans-Serif" font-size="10.00">INA3221::getCurrentCompensated_mA</text>
</a>
</g>
</g>
<!-- Node1&#45;&gt;Node3 -->
<g id="edge2_Node000001_Node000003" class="edge">
<title>Node1&#45;&gt;Node3</title>
<g id="a_edge2_Node000001_Node000003"><a xlink:title=" ">
<path fill="none" stroke="#63b8ff" d="M211.55,-22.32C203.71,-21.5 195.58,-20.64 187.41,-19.78"/>
<polygon fill="#63b8ff" stroke="#63b8ff" points="210.98,-25.78 221.29,-23.35 211.71,-18.82 210.98,-25.78"/>
</a>
</g>
</g>
</g>
</svg>
