<?xml version="1.0" encoding="UTF-8" standalone="no"?>
<!DOCTYPE svg PUBLIC "-//W3C//DTD SVG 1.1//EN"
 "http://www.w3.org/Graphics/SVG/1.1/DTD/svg11.dtd">
<!-- Generated by graphviz version 12.2.1 (20241206.2353)
 -->
<!-- Title: INA3221::_read Pages: 1 -->
<!--zoomable 598 -->

<svg id="main" version="1.1" xmlns="http://www.w3.org/2000/svg" xmlns:xlink="http://www.w3.org/1999/xlink" xml:space="preserve" onload="init(evt)">

<style type="text/css"><![CDATA[
.node, .edge {opacity: 0.7;}
.node.selected, .edge.selected {opacity: 1;}
.edge:hover path { stroke: red; }
.edge:hover polygon { stroke: red; fill: red; }
]]></style>

<defs>
  <circle id="rim" cx="0" cy="0" r="7"/>
  <circle id="rim2" cx="0" cy="0" r="3.5"/>
  <g id="zoomPlus">
    <use xlink:href="#rim" fill="#404040"><set attributeName="fill" to="#808080" begin="zoomplus.mouseover" end="zoomplus.mouseout"/></use>
    <path d="M-4,0h8M0,-4v8" fill="none" stroke="white" stroke-width="1.5" pointer-events="none"/>
  </g>
  <g id="zoomMin">
    <use xlink:href="#rim" fill="#404040"><set attributeName="fill" to="#808080" begin="zoomminus.mouseover" end="zoomminus.mouseout"/></use>
    <path d="M-4,0h8" fill="none" stroke="white" stroke-width="1.5" pointer-events="none"/>
  </g>
  <g id="arrowUp" transform="translate(30 24)">
    <use xlink:href="#rim"/>
    <path pointer-events="none" fill="none" stroke="white" stroke-width="1.5" d="M0,-3.0v7 M-2.5,-0.5L0,-3.0L2.5,-0.5"/>
  </g>
  <g id="arrowRight" transform="rotate(90) translate(36 -43)">
    <use xlink:href="#rim"/>
    <path pointer-events="none" fill="none" stroke="white" stroke-width="1.5" d="M0,-3.0v7 M-2.5,-0.5L0,-3.0L2.5,-0.5"/>
  </g>
  <g id="arrowDown" transform="rotate(180) translate(-30 -48)">
    <use xlink:href="#rim"/>
    <path pointer-events="none" fill="none" stroke="white" stroke-width="1.5" d="M0,-3.0v7 M-2.5,-0.5L0,-3.0L2.5,-0.5"/>
  </g>
  <g id="arrowLeft" transform="rotate(270) translate(-36 17)">
    <use xlink:href="#rim"/>
    <path pointer-events="none" fill="none" stroke="white" stroke-width="1.5" d="M0,-3.0v7 M-2.5,-0.5L0,-3.0L2.5,-0.5"/>
  </g>
  <g id="resetDef">
    <use xlink:href="#rim2" fill="#404040"><set attributeName="fill" to="#808080" begin="reset.mouseover" end="reset.mouseout"/></use>
  </g>
</defs>
<script type="application/ecmascript">
var viewWidth = 522;
var viewHeight = 598;
var sectionId = 'dynsection-1';
</script>
<script type="application/ecmascript" xlink:href="svg.min.js"/>
<svg id="graph" class="graph">
<g id="viewport">
<title>INA3221::_read</title>
<!-- Node1 -->
<g id="Node000001" class="node">
<title>Node1</title>
<g id="a_Node000001"><a xlink:title=" ">
<polygon fill="#999999" stroke="#666666" points="513.75,-305 429.5,-305 429.5,-285 513.75,-285 513.75,-305"/>
<text text-anchor="middle" x="471.62" y="-291.5" font-family="Helvetica,sans-Serif" font-size="10.00">INA3221::_read</text>
</a>
</g>
</g>
<!-- Node2 -->
<g id="Node000002" class="node">
<title>Node2</title>
<g id="a_Node000002"><a xlink:href="class_i_n_a3221.html#a51772309bee047d9922eb03084238a96" target="_top" xlink:title=" ">
<polygon fill="white" stroke="#666666" points="357.88,-590 258.62,-590 258.62,-570 357.88,-570 357.88,-590"/>
<text text-anchor="middle" x="308.25" y="-576.5" font-family="Helvetica,sans-Serif" font-size="10.00">INA3221::getDieID</text>
</a>
</g>
</g>
<!-- Node1&#45;&gt;Node2 -->
<g id="edge1_Node000001_Node000002" class="edge">
<title>Node1&#45;&gt;Node2</title>
<g id="a_edge1_Node000001_Node000002"><a xlink:title=" ">
<path fill="none" stroke="#63b8ff" d="M471.22,-316.69C471.35,-367.39 464.19,-494.45 393.5,-561 383.89,-570.04 370.93,-575.12 358.07,-577.88"/>
<polygon fill="#63b8ff" stroke="#63b8ff" points="474.72,-316.73 471.08,-306.78 467.72,-316.83 474.72,-316.73"/>
</a>
</g>
</g>
<!-- Node4 -->
<g id="Node000004" class="node">
<title>Node4</title>
<g id="a_Node000004"><a xlink:href="class_i_n_a3221.html#a89d26c4f5610b1b21ba86d84dde71e53" target="_top" xlink:title=" ">
<polygon fill="white" stroke="#666666" points="363.88,-552 252.62,-552 252.62,-532 363.88,-532 363.88,-552"/>
<text text-anchor="middle" x="308.25" y="-538.5" font-family="Helvetica,sans-Serif" font-size="10.00">INA3221::getManufID</text>
</a>
</g>
</g>
<!-- Node1&#45;&gt;Node4 -->
<g id="edge3_Node000001_Node000004" class="edge">
<title>Node1&#45;&gt;Node4</title>
<g id="a_edge3_Node000001_Node000004"><a xlink:title=" ">
<path fill="none" stroke="#63b8ff" d="M470.01,-316.33C467.48,-361.6 454.95,-467.65 393.5,-523 385.26,-530.43 374.74,-535.15 363.95,-538.1"/>
<polygon fill="#63b8ff" stroke="#63b8ff" points="473.49,-316.69 470.43,-306.55 466.5,-316.39 473.49,-316.69"/>
</a>
</g>
</g>
<!-- Node5 -->
<g id="Node000005" class="node">
<title>Node5</title>
<g id="a_Node000005"><a xlink:href="class_i_n_a3221.html#a6aed15a23fb433e55a48456ccfdbd7a5" target="_top" xlink:title=" ">
<polygon fill="white" stroke="#666666" points="354.12,-514 262.38,-514 262.38,-494 354.12,-494 354.12,-514"/>
<text text-anchor="middle" x="308.25" y="-500.5" font-family="Helvetica,sans-Serif" font-size="10.00">INA3221::getReg</text>
</a>
</g>
</g>
<!-- Node1&#45;&gt;Node5 -->
<g id="edge5_Node000001_Node000005" class="edge">
<title>Node1&#45;&gt;Node5</title>
<g id="a_edge5_Node000001_Node000005"><a xlink:title=" ">
<path fill="none" stroke="#63b8ff" d="M468.33,-316.53C462.91,-356.21 445.57,-440.83 393.5,-485 382.64,-494.21 368.23,-499.21 354.42,-501.84"/>
<polygon fill="#63b8ff" stroke="#63b8ff" points="471.8,-316.98 469.54,-306.63 464.85,-316.13 471.8,-316.98"/>
</a>
</g>
</g>
<!-- Node6 -->
<g id="Node000006" class="node">
<title>Node6</title>
<g id="a_Node000006"><a xlink:href="class_i_n_a3221.html#a7cae0eec9dedb5b64ad3bbefc289468b" target="_top" xlink:title=" ">
<polygon fill="white" stroke="#666666" points="374,-476 242.5,-476 242.5,-456 374,-456 374,-476"/>
<text text-anchor="middle" x="308.25" y="-462.5" font-family="Helvetica,sans-Serif" font-size="10.00">INA3221::getShuntVoltage</text>
</a>
</g>
</g>
<!-- Node1&#45;&gt;Node6 -->
<g id="edge6_Node000001_Node000006" class="edge">
<title>Node1&#45;&gt;Node6</title>
<g id="a_edge6_Node000001_Node000006"><a xlink:title=" ">
<path fill="none" stroke="#63b8ff" d="M465.89,-316.61C457.41,-349.97 436.36,-413.63 393.5,-447 387.82,-451.42 381.31,-454.85 374.48,-457.51"/>
<polygon fill="#63b8ff" stroke="#63b8ff" points="469.29,-317.45 468.19,-306.91 462.48,-315.83 469.29,-317.45"/>
</a>
</g>
</g>
<!-- Node11 -->
<g id="Node000011" class="node">
<title>Node11</title>
<g id="a_Node000011"><a xlink:href="class_i_n_a3221.html#a40d4bf9bbb149fab19c6d80db86c119f" target="_top" xlink:title=" ">
<polygon fill="white" stroke="#666666" points="361.25,-438 255.25,-438 255.25,-418 361.25,-418 361.25,-438"/>
<text text-anchor="middle" x="308.25" y="-424.5" font-family="Helvetica,sans-Serif" font-size="10.00">INA3221::getVoltage</text>
</a>
</g>
</g>
<!-- Node1&#45;&gt;Node11 -->
<g id="edge11_Node000001_Node000011" class="edge">
<title>Node1&#45;&gt;Node11</title>
<g id="a_edge11_Node000001_Node000011"><a xlink:title=" ">
<path fill="none" stroke="#63b8ff" d="M462.24,-316.02C450.75,-342.04 427.56,-385.75 393.5,-409 384.09,-415.42 372.84,-419.71 361.67,-422.56"/>
<polygon fill="#63b8ff" stroke="#63b8ff" points="465.45,-317.42 466.11,-306.85 459,-314.7 465.45,-317.42"/>
</a>
</g>
</g>
<!-- Node12 -->
<g id="Node000012" class="node">
<title>Node12</title>
<g id="a_Node000012"><a xlink:href="class_i_n_a3221.html#ae6c7cc5bf50be137d0fe29c28e830d40" target="_top" xlink:title=" ">
<polygon fill="white" stroke="#666666" points="349.25,-400 267.25,-400 267.25,-380 349.25,-380 349.25,-400"/>
<text text-anchor="middle" x="308.25" y="-386.5" font-family="Helvetica,sans-Serif" font-size="10.00">INA3221::reset</text>
</a>
</g>
</g>
<!-- Node1&#45;&gt;Node12 -->
<g id="edge14_Node000001_Node000012" class="edge">
<title>Node1&#45;&gt;Node12</title>
<g id="a_edge14_Node000001_Node000012"><a xlink:title=" ">
<path fill="none" stroke="#63b8ff" d="M456.32,-314.26C442.27,-331.77 419.25,-356.93 393.5,-371 380.08,-378.33 363.98,-382.84 349.46,-385.6"/>
<polygon fill="#63b8ff" stroke="#63b8ff" points="458.87,-316.69 462.23,-306.64 453.34,-312.4 458.87,-316.69"/>
</a>
</g>
</g>
<!-- Node13 -->
<g id="Node000013" class="node">
<title>Node13</title>
<g id="a_Node000013"><a xlink:href="class_i_n_a3221.html#ac6c7d97118d5f59116ffdde5551fea5d" target="_top" xlink:title=" ">
<polygon fill="white" stroke="#666666" points="378.88,-362 237.62,-362 237.62,-342 378.88,-342 378.88,-362"/>
<text text-anchor="middle" x="308.25" y="-348.5" font-family="Helvetica,sans-Serif" font-size="10.00">INA3221::setAveragingMode</text>
</a>
</g>
</g>
<!-- Node1&#45;&gt;Node13 -->
<g id="edge15_Node000001_Node000013" class="edge">
<title>Node1&#45;&gt;Node13</title>
<g id="a_edge15_Node000001_Node000013"><a xlink:title=" ">
<path fill="none" stroke="#63b8ff" d="M442.71,-310.74C428.36,-318.32 410.37,-327.03 393.5,-333 384.17,-336.3 374.05,-339.16 364.17,-341.59"/>
<polygon fill="#63b8ff" stroke="#63b8ff" points="443.99,-314.03 451.13,-306.2 440.66,-307.87 443.99,-314.03"/>
</a>
</g>
</g>
<!-- Node14 -->
<g id="Node000014" class="node">
<title>Node14</title>
<g id="a_Node000014"><a xlink:href="class_i_n_a3221.html#a18dc37e7e320d82427309a954eecbc66" target="_top" xlink:title=" ">
<polygon fill="white" stroke="#666666" points="389.38,-324 227.12,-324 227.12,-304 389.38,-304 389.38,-324"/>
<text text-anchor="middle" x="308.25" y="-310.5" font-family="Helvetica,sans-Serif" font-size="10.00">INA3221::setBusConversionTime</text>
</a>
</g>
</g>
<!-- Node1&#45;&gt;Node14 -->
<g id="edge16_Node000001_Node000014" class="edge">
<title>Node1&#45;&gt;Node14</title>
<g id="a_edge16_Node000001_Node000014"><a xlink:title=" ">
<path fill="none" stroke="#63b8ff" d="M417.67,-301.23C408.74,-302.29 399.3,-303.4 389.86,-304.51"/>
<polygon fill="#63b8ff" stroke="#63b8ff" points="418.04,-304.72 427.56,-300.07 417.22,-297.76 418.04,-304.72"/>
</a>
</g>
</g>
<!-- Node15 -->
<g id="Node000015" class="node">
<title>Node15</title>
<g id="a_Node000015"><a xlink:href="class_i_n_a3221.html#aec3368e9e3fb26d61f4859aef4d1622a" target="_top" xlink:title=" ">
<polygon fill="white" stroke="#666666" points="382.25,-286 234.25,-286 234.25,-266 382.25,-266 382.25,-286"/>
<text text-anchor="middle" x="308.25" y="-272.5" font-family="Helvetica,sans-Serif" font-size="10.00">INA3221::setBusMeasDisable</text>
</a>
</g>
</g>
<!-- Node1&#45;&gt;Node15 -->
<g id="edge17_Node000001_Node000015" class="edge">
<title>Node1&#45;&gt;Node15</title>
<g id="a_edge17_Node000001_Node000015"><a xlink:title=" ">
<path fill="none" stroke="#63b8ff" d="M417.71,-288.77C406.48,-287.45 394.44,-286.03 382.6,-284.64"/>
<polygon fill="#63b8ff" stroke="#63b8ff" points="417.22,-292.24 427.56,-289.93 418.04,-285.28 417.22,-292.24"/>
</a>
</g>
</g>
<!-- Node16 -->
<g id="Node000016" class="node">
<title>Node16</title>
<g id="a_Node000016"><a xlink:href="class_i_n_a3221.html#a025d641b38dd4483ab3a9e6cd50de504" target="_top" xlink:title=" ">
<polygon fill="white" stroke="#666666" points="380.75,-248 235.75,-248 235.75,-228 380.75,-228 380.75,-248"/>
<text text-anchor="middle" x="308.25" y="-234.5" font-family="Helvetica,sans-Serif" font-size="10.00">INA3221::setBusMeasEnable</text>
</a>
</g>
</g>
<!-- Node1&#45;&gt;Node16 -->
<g id="edge18_Node000001_Node000016" class="edge">
<title>Node1&#45;&gt;Node16</title>
<g id="a_edge18_Node000001_Node000016"><a xlink:title=" ">
<path fill="none" stroke="#63b8ff" d="M442.71,-279.26C428.36,-271.68 410.37,-262.97 393.5,-257 384.17,-253.7 374.05,-250.84 364.17,-248.41"/>
<polygon fill="#63b8ff" stroke="#63b8ff" points="440.66,-282.13 451.13,-283.8 443.99,-275.97 440.66,-282.13"/>
</a>
</g>
</g>
<!-- Node17 -->
<g id="Node000017" class="node">
<title>Node17</title>
<g id="a_Node000017"><a xlink:href="class_i_n_a3221.html#a32aa07825afe0f342dbfd5d81c396c40" target="_top" xlink:title=" ">
<polygon fill="white" stroke="#666666" points="380.38,-210 236.12,-210 236.12,-190 380.38,-190 380.38,-210"/>
<text text-anchor="middle" x="308.25" y="-196.5" font-family="Helvetica,sans-Serif" font-size="10.00">INA3221::setModeContinious</text>
</a>
</g>
</g>
<!-- Node1&#45;&gt;Node17 -->
<g id="edge19_Node000001_Node000017" class="edge">
<title>Node1&#45;&gt;Node17</title>
<g id="a_edge19_Node000001_Node000017"><a xlink:title=" ">
<path fill="none" stroke="#63b8ff" d="M456.32,-275.74C442.27,-258.23 419.25,-233.07 393.5,-219 387.18,-215.55 380.27,-212.73 373.22,-210.41"/>
<polygon fill="#63b8ff" stroke="#63b8ff" points="453.34,-277.6 462.23,-283.36 458.87,-273.31 453.34,-277.6"/>
</a>
</g>
</g>
<!-- Node18 -->
<g id="Node000018" class="node">
<title>Node18</title>
<g id="a_Node000018"><a xlink:href="class_i_n_a3221.html#ab1362daa6e137938f34e1fc0d834a86a" target="_top" xlink:title=" ">
<polygon fill="white" stroke="#666666" points="383.75,-172 232.75,-172 232.75,-152 383.75,-152 383.75,-172"/>
<text text-anchor="middle" x="308.25" y="-158.5" font-family="Helvetica,sans-Serif" font-size="10.00">INA3221::setModePowerDown</text>
</a>
</g>
</g>
<!-- Node1&#45;&gt;Node18 -->
<g id="edge20_Node000001_Node000018" class="edge">
<title>Node1&#45;&gt;Node18</title>
<g id="a_edge20_Node000001_Node000018"><a xlink:title=" ">
<path fill="none" stroke="#63b8ff" d="M462.24,-273.98C450.75,-247.96 427.56,-204.25 393.5,-181 388.42,-177.53 382.81,-174.69 376.96,-172.36"/>
<polygon fill="#63b8ff" stroke="#63b8ff" points="459,-275.3 466.11,-283.15 465.45,-272.58 459,-275.3"/>
</a>
</g>
</g>
<!-- Node19 -->
<g id="Node000019" class="node">
<title>Node19</title>
<g id="a_Node000019"><a xlink:href="class_i_n_a3221.html#a928cf10c0cf6b6d55a860196ec82b51d" target="_top" xlink:title=" ">
<polygon fill="white" stroke="#666666" points="377.38,-134 239.12,-134 239.12,-114 377.38,-114 377.38,-134"/>
<text text-anchor="middle" x="308.25" y="-120.5" font-family="Helvetica,sans-Serif" font-size="10.00">INA3221::setModeTriggered</text>
</a>
</g>
</g>
<!-- Node1&#45;&gt;Node19 -->
<g id="edge21_Node000001_Node000019" class="edge">
<title>Node1&#45;&gt;Node19</title>
<g id="a_edge21_Node000001_Node000019"><a xlink:title=" ">
<path fill="none" stroke="#63b8ff" d="M465.89,-273.39C457.41,-240.03 436.36,-176.37 393.5,-143 388.77,-139.32 383.46,-136.32 377.86,-133.88"/>
<polygon fill="#63b8ff" stroke="#63b8ff" points="462.48,-274.17 468.19,-283.09 469.29,-272.55 462.48,-274.17"/>
</a>
</g>
</g>
<!-- Node20 -->
<g id="Node000020" class="node">
<title>Node20</title>
<g id="a_Node000020"><a xlink:href="class_i_n_a3221.html#ae0c3b6df34fdb54b770c8ec046cddf6f" target="_top" xlink:title=" ">
<polygon fill="white" stroke="#666666" points="393.5,-96 223,-96 223,-76 393.5,-76 393.5,-96"/>
<text text-anchor="middle" x="308.25" y="-82.5" font-family="Helvetica,sans-Serif" font-size="10.00">INA3221::setShuntConversionTime</text>
</a>
</g>
</g>
<!-- Node1&#45;&gt;Node20 -->
<g id="edge22_Node000001_Node000020" class="edge">
<title>Node1&#45;&gt;Node20</title>
<g id="a_edge22_Node000001_Node000020"><a xlink:title=" ">
<path fill="none" stroke="#63b8ff" d="M468.33,-273.47C462.91,-233.79 445.57,-149.17 393.5,-105 389.5,-101.61 385.02,-98.78 380.26,-96.44"/>
<polygon fill="#63b8ff" stroke="#63b8ff" points="464.85,-273.87 469.54,-283.37 471.8,-273.02 464.85,-273.87"/>
</a>
</g>
</g>
<!-- Node21 -->
<g id="Node000021" class="node">
<title>Node21</title>
<g id="a_Node000021"><a xlink:href="class_i_n_a3221.html#a81e01ea764e82831ef3439f44eacc419" target="_top" xlink:title=" ">
<polygon fill="white" stroke="#666666" points="386.38,-58 230.12,-58 230.12,-38 386.38,-38 386.38,-58"/>
<text text-anchor="middle" x="308.25" y="-44.5" font-family="Helvetica,sans-Serif" font-size="10.00">INA3221::setShuntMeasDisable</text>
</a>
</g>
</g>
<!-- Node1&#45;&gt;Node21 -->
<g id="edge23_Node000001_Node000021" class="edge">
<title>Node1&#45;&gt;Node21</title>
<g id="a_edge23_Node000001_Node000021"><a xlink:title=" ">
<path fill="none" stroke="#63b8ff" d="M470.01,-273.67C467.48,-228.4 454.95,-122.35 393.5,-67 389.71,-63.59 385.44,-60.75 380.89,-58.39"/>
<polygon fill="#63b8ff" stroke="#63b8ff" points="466.5,-273.61 470.43,-283.45 473.49,-273.31 466.5,-273.61"/>
</a>
</g>
</g>
<!-- Node22 -->
<g id="Node000022" class="node">
<title>Node22</title>
<g id="a_Node000022"><a xlink:href="class_i_n_a3221.html#a7296fe865ee5f7ddc99eb2149aea22ce" target="_top" xlink:title=" ">
<polygon fill="white" stroke="#666666" points="384.88,-20 231.62,-20 231.62,0 384.88,0 384.88,-20"/>
<text text-anchor="middle" x="308.25" y="-6.5" font-family="Helvetica,sans-Serif" font-size="10.00">INA3221::setShuntMeasEnable</text>
</a>
</g>
</g>
<!-- Node1&#45;&gt;Node22 -->
<g id="edge24_Node000001_Node000022" class="edge">
<title>Node1&#45;&gt;Node22</title>
<g id="a_edge24_Node000001_Node000022"><a xlink:title=" ">
<path fill="none" stroke="#63b8ff" d="M471.22,-273.31C471.35,-222.61 464.19,-95.55 393.5,-29 389.9,-25.61 385.82,-22.78 381.46,-20.41"/>
<polygon fill="#63b8ff" stroke="#63b8ff" points="467.72,-273.17 471.08,-283.22 474.72,-273.27 467.72,-273.17"/>
</a>
</g>
</g>
<!-- Node3 -->
<g id="Node000003" class="node">
<title>Node3</title>
<g id="a_Node000003"><a xlink:href="class_i_n_a3221.html#a868af24425b042f330a0e7fae8210936" target="_top" xlink:title=" ">
<polygon fill="white" stroke="#666666" points="135.25,-580 51.75,-580 51.75,-560 135.25,-560 135.25,-580"/>
<text text-anchor="middle" x="93.5" y="-566.5" font-family="Helvetica,sans-Serif" font-size="10.00">INA3221::begin</text>
</a>
</g>
</g>
<!-- Node2&#45;&gt;Node3 -->
<g id="edge2_Node000002_Node000003" class="edge">
<title>Node2&#45;&gt;Node3</title>
<g id="a_edge2_Node000002_Node000003"><a xlink:title=" ">
<path fill="none" stroke="#63b8ff" d="M246.93,-577.16C211.28,-575.49 167.07,-573.41 135.47,-571.93"/>
<polygon fill="#63b8ff" stroke="#63b8ff" points="246.51,-580.65 256.66,-577.62 246.84,-573.66 246.51,-580.65"/>
</a>
</g>
</g>
<!-- Node4&#45;&gt;Node3 -->
<g id="edge4_Node000004_Node000003" class="edge">
<title>Node4&#45;&gt;Node3</title>
<g id="a_edge4_Node000004_Node000003"><a xlink:title=" ">
<path fill="none" stroke="#63b8ff" d="M240.78,-550.75C206.34,-555.28 165.36,-560.67 135.56,-564.6"/>
<polygon fill="#63b8ff" stroke="#63b8ff" points="241.23,-554.22 250.68,-549.44 240.31,-547.28 241.23,-554.22"/>
</a>
</g>
</g>
<!-- Node7 -->
<g id="Node000007" class="node">
<title>Node7</title>
<g id="a_Node000007"><a xlink:href="class_i_n_a3221.html#ae9398b8af7ddf999150f8e97c44e6b7d" target="_top" xlink:title=" ">
<polygon fill="white" stroke="#666666" points="146.5,-495 40.5,-495 40.5,-475 146.5,-475 146.5,-495"/>
<text text-anchor="middle" x="93.5" y="-481.5" font-family="Helvetica,sans-Serif" font-size="10.00">INA3221::getCurrent</text>
</a>
</g>
</g>
<!-- Node6&#45;&gt;Node7 -->
<g id="edge7_Node000006_Node000007" class="edge">
<title>Node6&#45;&gt;Node7</title>
<g id="a_edge7_Node000006_Node000007"><a xlink:title=" ">
<path fill="none" stroke="#63b8ff" d="M230.95,-472.81C203.11,-475.3 172.28,-478.05 146.98,-480.31"/>
<polygon fill="#63b8ff" stroke="#63b8ff" points="231.11,-476.31 240.75,-471.94 230.48,-469.34 231.11,-476.31"/>
</a>
</g>
</g>
<!-- Node8 -->
<g id="Node000008" class="node">
<title>Node8</title>
<g id="a_Node000008"><a xlink:href="class_i_n_a3221.html#a5bc9138cf05584012e3834275231cdb5" target="_top" xlink:title=" ">
<polygon fill="white" stroke="#666666" points="156.62,-533 30.38,-533 30.38,-513 156.62,-513 156.62,-533"/>
<text text-anchor="middle" x="93.5" y="-519.5" font-family="Helvetica,sans-Serif" font-size="10.00">INA3221::getCurrent_mA</text>
</a>
</g>
</g>
<!-- Node6&#45;&gt;Node8 -->
<g id="edge8_Node000006_Node000008" class="edge">
<title>Node6&#45;&gt;Node8</title>
<g id="a_edge8_Node000006_Node000008"><a xlink:title=" ">
<path fill="none" stroke="#63b8ff" d="M240.54,-479.32C234.55,-481.03 228.63,-482.92 223,-485 206.03,-491.27 204.03,-497.9 187,-504 177.43,-507.43 167.07,-510.31 156.87,-512.71"/>
<polygon fill="#63b8ff" stroke="#63b8ff" points="241.14,-482.78 249.89,-476.81 239.33,-476.02 241.14,-482.78"/>
</a>
</g>
</g>
<!-- Node9 -->
<g id="Node000009" class="node">
<title>Node9</title>
<g id="a_Node000009"><a xlink:href="class_i_n_a3221.html#a4d6fc129ecefc2b28187ffa0652a1127" target="_top" xlink:title=" ">
<polygon fill="white" stroke="#666666" points="176.88,-419 10.12,-419 10.12,-399 176.88,-399 176.88,-419"/>
<text text-anchor="middle" x="93.5" y="-405.5" font-family="Helvetica,sans-Serif" font-size="10.00">INA3221::getCurrentCompensated</text>
</a>
</g>
</g>
<!-- Node6&#45;&gt;Node9 -->
<g id="edge9_Node000006_Node000009" class="edge">
<title>Node6&#45;&gt;Node9</title>
<g id="a_edge9_Node000006_Node000009"><a xlink:title=" ">
<path fill="none" stroke="#63b8ff" d="M240.54,-452.68C234.55,-450.97 228.63,-449.08 223,-447 206.03,-440.73 204.03,-434.1 187,-428 177.59,-424.63 167.41,-421.78 157.36,-419.41"/>
<polygon fill="#63b8ff" stroke="#63b8ff" points="239.33,-455.98 249.89,-455.19 241.14,-449.22 239.33,-455.98"/>
</a>
</g>
</g>
<!-- Node10 -->
<g id="Node000010" class="node">
<title>Node10</title>
<g id="a_Node000010"><a xlink:href="class_i_n_a3221.html#a8156d9fca27f9aadab3d99bec9925c44" target="_top" xlink:title=" ">
<polygon fill="white" stroke="#666666" points="187,-457 0,-457 0,-437 187,-437 187,-457"/>
<text text-anchor="middle" x="93.5" y="-443.5" font-family="Helvetica,sans-Serif" font-size="10.00">INA3221::getCurrentCompensated_mA</text>
</a>
</g>
</g>
<!-- Node6&#45;&gt;Node10 -->
<g id="edge10_Node000006_Node000010" class="edge">
<title>Node6&#45;&gt;Node10</title>
<g id="a_edge10_Node000006_Node000010"><a xlink:title=" ">
<path fill="none" stroke="#63b8ff" d="M231.07,-459.2C216.88,-457.93 201.91,-456.59 187.28,-455.29"/>
<polygon fill="#63b8ff" stroke="#63b8ff" points="230.48,-462.66 240.75,-460.06 231.11,-455.69 230.48,-462.66"/>
</a>
</g>
</g>
<!-- Node11&#45;&gt;Node9 -->
<g id="edge12_Node000011_Node000009" class="edge">
<title>Node11&#45;&gt;Node9</title>
<g id="a_edge12_Node000011_Node000009"><a xlink:title=" ">
<path fill="none" stroke="#63b8ff" d="M243.65,-422.32C222.82,-420.46 199.35,-418.36 177.31,-416.4"/>
<polygon fill="#63b8ff" stroke="#63b8ff" points="243.15,-425.79 253.43,-423.19 243.78,-418.82 243.15,-425.79"/>
</a>
</g>
</g>
<!-- Node11&#45;&gt;Node10 -->
<g id="edge13_Node000011_Node000010" class="edge">
<title>Node11&#45;&gt;Node10</title>
<g id="a_edge13_Node000011_Node000010"><a xlink:title=" ">
<path fill="none" stroke="#63b8ff" d="M243.6,-433.68C225.9,-435.27 206.3,-437.02 187.29,-438.71"/>
<polygon fill="#63b8ff" stroke="#63b8ff" points="243.78,-437.18 253.43,-432.81 243.15,-430.21 243.78,-437.18"/>
</a>
</g>
</g>
</g>
</svg>

<g id="navigator" transform="translate(0 0)" fill="#404254">
  <rect fill="#f2f5e9" fill-opacity="0.5" stroke="#606060" stroke-width=".5" x="0" y="0" width="60" height="60"/>
  <use id="zoomplus" xlink:href="#zoomPlus" x="17" y="9" onmousedown="handleZoom(evt,'in')"/>
  <use id="zoomminus" xlink:href="#zoomMin" x="42" y="9" onmousedown="handleZoom(evt,'out')"/>
  <use id="reset" xlink:href="#resetDef" x="30" y="36" onmousedown="handleReset()"/>
   <use id="arrowup" xlink:href="#arrowUp" x="0" y="0" onmousedown="handlePan(0,-1)"/>
  <use id="arrowright" xlink:href="#arrowRight" x="0" y="0" onmousedown="handlePan(1,0)"/>
  <use id="arrowdown" xlink:href="#arrowDown" x="0" y="0" onmousedown="handlePan(0,1)"/>
  <use id="arrowleft" xlink:href="#arrowLeft" x="0" y="0" onmousedown="handlePan(-1,0)"/>
</g>
<svg viewBox="0 0 15 15" width="100%" height="30px" preserveAspectRatio="xMaxYMin meet">
 <g id="arrow_out" transform="scale(0.3 0.3)">
  <a xlink:href="class_i_n_a3221_a0b4c630038abf482bef36f3083ab20ff_icgraph_org.svg" target="_base">
   <rect id="button" ry="5" rx="5" y="6" x="6" height="38" width="38"
        fill="#f2f5e9" fill-opacity="0.5" stroke="#606060" stroke-width="1.0"/>
   <path id="arrow"
     d="M 11.500037,31.436501 C 11.940474,20.09759 22.043105,11.32322 32.158766,21.979434 L 37.068811,17.246167 C 37.068811,17.246167 37.088388,32 37.088388,32 L 22.160133,31.978069 C 22.160133,31.978069 26.997745,27.140456 26.997745,27.140456 C 18.528582,18.264221 13.291696,25.230495 11.500037,31.436501 z"
     style="fill:#404040;"/>
  </a>
 </g>
</svg>

<style type='text/css'>
<![CDATA[
[data-mouse-over-selected='false'] { opacity: 0.7; }
[data-mouse-over-selected='true']  { opacity: 1.0; }
]]>
</style>
<script type="application/ecmascript"><![CDATA[
document.addEventListener('DOMContentLoaded', (event) => {
  highlightEdges();
  highlightAdjacentNodes();
});
]]></script>
</svg>
