<?xml version="1.0" encoding="UTF-8" standalone="no"?>
<!DOCTYPE svg PUBLIC "-//W3C//DTD SVG 1.1//EN"
 "http://www.w3.org/Graphics/SVG/1.1/DTD/svg11.dtd">
<!-- Generated by graphviz version 12.2.1 (20241206.2353)
 -->
<!-- Title: DS3231::i2c_write_reg Pages: 1 -->
<svg width="558pt" height="47pt"
 viewBox="0.00 0.00 558.00 47.00" xmlns="http://www.w3.org/2000/svg" xmlns:xlink="http://www.w3.org/1999/xlink">
<g id="graph0" class="graph" transform="scale(1 1) rotate(0) translate(4 43)">
<title>DS3231::i2c_write_reg</title>
<!-- Node1 -->
<g id="Node000001" class="node">
<title>Node1</title>
<g id="a_Node000001"><a xlink:title="Library function to write to a specific I2C register address.">
<polygon fill="#999999" stroke="#666666" points="550,-20 435,-20 435,0 550,0 550,-20"/>
<text text-anchor="middle" x="492.5" y="-6.5" font-family="Helvetica,sans-Serif" font-size="10.00">DS3231::i2c_write_reg</text>
</a>
</g>
</g>
<!-- Node2 -->
<g id="Node000002" class="node">
<title>Node2</title>
<g id="a_Node000002"><a xlink:href="class_d_s3231.html#ae92a7c5b7e64acc0da3b0e6f781d6b5f" target="_top" xlink:title=" ">
<polygon fill="white" stroke="#666666" points="399,-39 284.75,-39 284.75,-19 399,-19 399,-39"/>
<text text-anchor="middle" x="341.88" y="-25.5" font-family="Helvetica,sans-Serif" font-size="10.00">DS3231::clock_enable</text>
</a>
</g>
</g>
<!-- Node1&#45;&gt;Node2 -->
<g id="edge1_Node000001_Node000002" class="edge">
<title>Node1&#45;&gt;Node2</title>
<g id="a_edge1_Node000001_Node000002"><a xlink:title=" ">
<path fill="none" stroke="#63b8ff" d="M423.54,-18.69C415.45,-19.72 407.24,-20.77 399.33,-21.78"/>
<polygon fill="#63b8ff" stroke="#63b8ff" points="423.91,-22.17 433.39,-17.43 423.02,-15.23 423.91,-22.17"/>
</a>
</g>
</g>
<!-- Node3 -->
<g id="Node000003" class="node">
<title>Node3</title>
<g id="a_Node000003"><a xlink:href="class_d_s3231.html#af68ef517aa7ff25393490211abc99fa8" target="_top" xlink:title=" ">
<polygon fill="white" stroke="#666666" points="248.75,-20 154,-20 154,0 248.75,0 248.75,-20"/>
<text text-anchor="middle" x="201.38" y="-6.5" font-family="Helvetica,sans-Serif" font-size="10.00">DS3231::set_time</text>
</a>
</g>
</g>
<!-- Node1&#45;&gt;Node3 -->
<g id="edge4_Node000001_Node000003" class="edge">
<title>Node1&#45;&gt;Node3</title>
<g id="a_edge4_Node000001_Node000003"><a xlink:title=" ">
<path fill="none" stroke="#63b8ff" d="M423.24,-10C369.54,-10 296.16,-10 249.01,-10"/>
<polygon fill="#63b8ff" stroke="#63b8ff" points="423.21,-13.5 433.21,-10 423.21,-6.5 423.21,-13.5"/>
</a>
</g>
</g>
<!-- Node2&#45;&gt;Node3 -->
<g id="edge2_Node000002_Node000003" class="edge">
<title>Node2&#45;&gt;Node3</title>
<g id="a_edge2_Node000002_Node000003"><a xlink:title=" ">
<path fill="none" stroke="#63b8ff" d="M273.34,-19.74C265.08,-18.6 256.78,-17.46 248.93,-16.39"/>
<polygon fill="#63b8ff" stroke="#63b8ff" points="272.66,-23.17 283.04,-21.07 273.61,-16.24 272.66,-23.17"/>
</a>
</g>
</g>
<!-- Node4 -->
<g id="Node000004" class="node">
<title>Node4</title>
<g id="a_Node000004"><a xlink:href="class_d_s3231.html#ac1d01626660a57e9cc969dc35155f246" target="_top" xlink:title=" ">
<polygon fill="white" stroke="#666666" points="118,-20 0,-20 0,0 118,0 118,-20"/>
<text text-anchor="middle" x="59" y="-6.5" font-family="Helvetica,sans-Serif" font-size="10.00">DS3231::set_unix_time</text>
</a>
</g>
</g>
<!-- Node3&#45;&gt;Node4 -->
<g id="edge3_Node000003_Node000004" class="edge">
<title>Node3&#45;&gt;Node4</title>
<g id="a_edge3_Node000003_Node000004"><a xlink:title=" ">
<path fill="none" stroke="#63b8ff" d="M142.24,-10C134.32,-10 126.19,-10 118.28,-10"/>
<polygon fill="#63b8ff" stroke="#63b8ff" points="142.12,-13.5 152.12,-10 142.12,-6.5 142.12,-13.5"/>
</a>
</g>
</g>
</g>
</svg>
