<?xml version="1.0" encoding="UTF-8" standalone="no"?>
<!DOCTYPE svg PUBLIC "-//W3C//DTD SVG 1.1//EN"
 "http://www.w3.org/Graphics/SVG/1.1/DTD/svg11.dtd">
<!-- Generated by graphviz version 12.2.1 (20241206.2353)
 -->
<!-- Title: DS3231::getDateTime Pages: 1 -->
<svg width="466pt" height="104pt"
 viewBox="0.00 0.00 466.25 104.00" xmlns="http://www.w3.org/2000/svg" xmlns:xlink="http://www.w3.org/1999/xlink">

<svg id="main" version="1.1" xmlns="http://www.w3.org/2000/svg" xmlns:xlink="http://www.w3.org/1999/xlink" xml:space="preserve">

<style type="text/css"><![CDATA[
.node, .edge {opacity: 0.7;}
.node.selected, .edge.selected {opacity: 1;}
.edge:hover path { stroke: red; }
.edge:hover polygon { stroke: red; fill: red; }
]]></style>
<script type="application/ecmascript" xlink:href="svg.min.js"/>
<svg id="graph" class="graph">
<g id="graph0" class="graph" transform="scale(1 1) rotate(0) translate(4 100)">
<title>DS3231::getDateTime</title>
<!-- Node1 -->
<g id="Node000001" class="node">
<title>Node1</title>
<g id="a_Node000001"><a xlink:title=" ">
<polygon fill="#999999" stroke="#666666" points="458.25,-58 344.75,-58 344.75,-38 458.25,-38 458.25,-58"/>
<text text-anchor="middle" x="401.5" y="-44.5" font-family="Helvetica,sans-Serif" font-size="10.00">DS3231::getDateTime</text>
</a>
</g>
</g>
<!-- Node2 -->
<g id="Node000002" class="node">
<title>Node2</title>
<g id="a_Node000002"><a xlink:href="class_d_s3231.html#a4b893299918613d8fb3521793b848d6d" target="_top" xlink:title=" ">
<polygon fill="white" stroke="#666666" points="308.75,-96 172,-96 172,-76 308.75,-76 308.75,-96"/>
<text text-anchor="middle" x="240.38" y="-82.5" font-family="Helvetica,sans-Serif" font-size="10.00">DS3231::getDateTimeLocal</text>
</a>
</g>
</g>
<!-- Node1&#45;&gt;Node2 -->
<g id="edge1_Node000001_Node000002" class="edge">
<title>Node1&#45;&gt;Node2</title>
<g id="a_edge1_Node000001_Node000002"><a xlink:title=" ">
<path fill="none" stroke="#63b8ff" d="M345.58,-61.12C325.82,-65.83 303.81,-71.09 285.13,-75.55"/>
<polygon fill="#63b8ff" stroke="#63b8ff" points="346.21,-64.56 355.13,-58.84 344.59,-57.75 346.21,-64.56"/>
</a>
</g>
</g>
<!-- Node3 -->
<g id="Node000003" class="node">
<title>Node3</title>
<g id="a_Node000003"><a xlink:href="class_d_s3231.html#ac5680bedcb5cd48da26a4c0afcddb830" target="_top" xlink:title=" ">
<polygon fill="white" stroke="#666666" points="301.62,-58 179.12,-58 179.12,-38 301.62,-38 301.62,-58"/>
<text text-anchor="middle" x="240.38" y="-44.5" font-family="Helvetica,sans-Serif" font-size="10.00">DS3231::getTimeInteger</text>
</a>
</g>
</g>
<!-- Node1&#45;&gt;Node3 -->
<g id="edge2_Node000001_Node000003" class="edge">
<title>Node1&#45;&gt;Node3</title>
<g id="a_edge2_Node000001_Node000003"><a xlink:title=" ">
<path fill="none" stroke="#63b8ff" d="M332.98,-48C322.73,-48 312.2,-48 302.11,-48"/>
<polygon fill="#63b8ff" stroke="#63b8ff" points="332.88,-51.5 342.88,-48 332.88,-44.5 332.88,-51.5"/>
</a>
</g>
</g>
<!-- Node4 -->
<g id="Node000004" class="node">
<title>Node4</title>
<g id="a_Node000004"><a xlink:href="class_d_s3231.html#a93399e0145a53c558e316f6f95a20679" target="_top" xlink:title=" ">
<polygon fill="white" stroke="#666666" points="296.75,-20 184,-20 184,0 296.75,0 296.75,-20"/>
<text text-anchor="middle" x="240.38" y="-6.5" font-family="Helvetica,sans-Serif" font-size="10.00">DS3231::getTimeUnix</text>
</a>
</g>
</g>
<!-- Node1&#45;&gt;Node4 -->
<g id="edge3_Node000001_Node000004" class="edge">
<title>Node1&#45;&gt;Node4</title>
<g id="a_edge3_Node000001_Node000004"><a xlink:title=" ">
<path fill="none" stroke="#63b8ff" d="M345.58,-34.88C325.82,-30.17 303.81,-24.91 285.13,-20.45"/>
<polygon fill="#63b8ff" stroke="#63b8ff" points="344.59,-38.25 355.13,-37.16 346.21,-31.44 344.59,-38.25"/>
</a>
</g>
</g>
<!-- Node5 -->
<g id="Node000005" class="node">
<title>Node5</title>
<g id="a_Node000005"><a xlink:href="class_d_s3231.html#ad95e3e60f1d82c37e7c03fac84249bc6" target="_top" xlink:title=" ">
<polygon fill="white" stroke="#666666" points="136,-20 0,-20 0,0 136,0 136,-20"/>
<text text-anchor="middle" x="68" y="-6.5" font-family="Helvetica,sans-Serif" font-size="10.00">DS3231::getTimeUnixLocal</text>
</a>
</g>
</g>
<!-- Node4&#45;&gt;Node5 -->
<g id="edge4_Node000004_Node000005" class="edge">
<title>Node4&#45;&gt;Node5</title>
<g id="a_edge4_Node000004_Node000005"><a xlink:title=" ">
<path fill="none" stroke="#63b8ff" d="M172.37,-10C160.48,-10 148.1,-10 136.2,-10"/>
<polygon fill="#63b8ff" stroke="#63b8ff" points="172.07,-13.5 182.07,-10 172.07,-6.5 172.07,-13.5"/>
</a>
</g>
</g>
</g>
</svg>
</svg>

<style type='text/css'>
<![CDATA[
[data-mouse-over-selected='false'] { opacity: 0.7; }
[data-mouse-over-selected='true']  { opacity: 1.0; }
]]>
</style>
<script type="application/ecmascript"><![CDATA[
document.addEventListener('DOMContentLoaded', (event) => {
  highlightEdges();
  highlightAdjacentNodes();
});
]]></script>
</svg>
