<?xml version="1.0" encoding="UTF-8" standalone="no"?>
<!DOCTYPE svg PUBLIC "-//W3C//DTD SVG 1.1//EN"
 "http://www.w3.org/Graphics/SVG/1.1/DTD/svg11.dtd">
<!-- Generated by graphviz version 12.2.1 (20241206.2353)
 -->
<!-- Title: LoRaClass::isTransmitting Pages: 1 -->
<svg width="473pt" height="66pt"
 viewBox="0.00 0.00 473.00 66.00" xmlns="http://www.w3.org/2000/svg" xmlns:xlink="http://www.w3.org/1999/xlink">

<svg id="main" version="1.1" xmlns="http://www.w3.org/2000/svg" xmlns:xlink="http://www.w3.org/1999/xlink" xml:space="preserve">

<style type="text/css"><![CDATA[
.node, .edge {opacity: 0.7;}
.node.selected, .edge.selected {opacity: 1;}
.edge:hover path { stroke: red; }
.edge:hover polygon { stroke: red; fill: red; }
]]></style>
<script type="application/ecmascript" xlink:href="svg.min.js"/>
<svg id="graph" class="graph">
<g id="graph0" class="graph" transform="scale(1 1) rotate(0) translate(4 62)">
<title>LoRaClass::isTransmitting</title>
<!-- Node1 -->
<g id="Node000001" class="node">
<title>Node1</title>
<g id="a_Node000001"><a xlink:title=" ">
<polygon fill="#999999" stroke="#666666" points="132.25,-39 0,-39 0,-19 132.25,-19 132.25,-39"/>
<text text-anchor="middle" x="66.12" y="-25.5" font-family="Helvetica,sans-Serif" font-size="10.00">LoRaClass::isTransmitting</text>
</a>
</g>
</g>
<!-- Node2 -->
<g id="Node000002" class="node">
<title>Node2</title>
<g id="a_Node000002"><a xlink:href="class_lo_ra_class.html#add581bfe66dd75108e22b18a4d6f89bf" target="_top" xlink:title=" ">
<polygon fill="white" stroke="#666666" points="295.62,-58 169.38,-58 169.38,-38 295.62,-38 295.62,-58"/>
<text text-anchor="middle" x="232.5" y="-44.5" font-family="Helvetica,sans-Serif" font-size="10.00">LoRaClass::readRegister</text>
</a>
</g>
</g>
<!-- Node1&#45;&gt;Node2 -->
<g id="edge1_Node000001_Node000002" class="edge">
<title>Node1&#45;&gt;Node2</title>
<g id="a_edge1_Node000001_Node000002"><a xlink:title=" ">
<path fill="none" stroke="#63b8ff" d="M132.56,-36.56C140.81,-37.52 149.29,-38.5 157.66,-39.46"/>
<polygon fill="#63b8ff" stroke="#63b8ff" points="157.12,-42.93 167.46,-40.6 157.93,-35.97 157.12,-42.93"/>
</a>
</g>
</g>
<!-- Node4 -->
<g id="Node000004" class="node">
<title>Node4</title>
<g id="a_Node000004"><a xlink:href="class_lo_ra_class.html#a77e7c77aa54174b352a26e1510f66f98" target="_top" xlink:title=" ">
<polygon fill="white" stroke="#666666" points="296.75,-20 168.25,-20 168.25,0 296.75,0 296.75,-20"/>
<text text-anchor="middle" x="232.5" y="-6.5" font-family="Helvetica,sans-Serif" font-size="10.00">LoRaClass::writeRegister</text>
</a>
</g>
</g>
<!-- Node1&#45;&gt;Node4 -->
<g id="edge3_Node000001_Node000004" class="edge">
<title>Node1&#45;&gt;Node4</title>
<g id="a_edge3_Node000001_Node000004"><a xlink:title=" ">
<path fill="none" stroke="#63b8ff" d="M132.56,-21.44C140.47,-20.52 148.6,-19.58 156.63,-18.65"/>
<polygon fill="#63b8ff" stroke="#63b8ff" points="156.86,-22.15 166.39,-17.53 156.06,-15.2 156.86,-22.15"/>
</a>
</g>
</g>
<!-- Node3 -->
<g id="Node000003" class="node">
<title>Node3</title>
<g id="a_Node000003"><a xlink:href="class_lo_ra_class.html#a3a0c0649c595b1176b5fb1ae41210ee3" target="_top" xlink:title=" ">
<polygon fill="white" stroke="#666666" points="465,-39 332.75,-39 332.75,-19 465,-19 465,-39"/>
<text text-anchor="middle" x="398.88" y="-25.5" font-family="Helvetica,sans-Serif" font-size="10.00">LoRaClass::singleTransfer</text>
</a>
</g>
</g>
<!-- Node2&#45;&gt;Node3 -->
<g id="edge2_Node000002_Node000003" class="edge">
<title>Node2&#45;&gt;Node3</title>
<g id="a_edge2_Node000002_Node000003"><a xlink:title=" ">
<path fill="none" stroke="#63b8ff" d="M296.11,-40.76C304.28,-39.82 312.73,-38.84 321.1,-37.87"/>
<polygon fill="#63b8ff" stroke="#63b8ff" points="321.4,-41.36 330.93,-36.74 320.59,-34.41 321.4,-41.36"/>
</a>
</g>
</g>
<!-- Node4&#45;&gt;Node3 -->
<g id="edge4_Node000004_Node000003" class="edge">
<title>Node4&#45;&gt;Node3</title>
<g id="a_edge4_Node000004_Node000003"><a xlink:title=" ">
<path fill="none" stroke="#63b8ff" d="M297.05,-17.35C304.91,-18.25 313.01,-19.19 321.04,-20.12"/>
<polygon fill="#63b8ff" stroke="#63b8ff" points="320.48,-23.58 330.82,-21.25 321.28,-16.62 320.48,-23.58"/>
</a>
</g>
</g>
</g>
</svg>
</svg>

<style type='text/css'>
<![CDATA[
[data-mouse-over-selected='false'] { opacity: 0.7; }
[data-mouse-over-selected='true']  { opacity: 1.0; }
]]>
</style>
<script type="application/ecmascript"><![CDATA[
document.addEventListener('DOMContentLoaded', (event) => {
  highlightEdges();
  highlightAdjacentNodes();
});
]]></script>
</svg>
