<?xml version="1.0" encoding="UTF-8" standalone="no"?>
<!DOCTYPE svg PUBLIC "-//W3C//DTD SVG 1.1//EN"
 "http://www.w3.org/Graphics/SVG/1.1/DTD/svg11.dtd">
<!-- Generated by graphviz version 12.2.1 (20241206.2353)
 -->
<!-- Title: ErriezDS3231::read Pages: 1 -->
<svg width="285pt" height="104pt"
 viewBox="0.00 0.00 284.50 104.00" xmlns="http://www.w3.org/2000/svg" xmlns:xlink="http://www.w3.org/1999/xlink">
<g id="graph0" class="graph" transform="scale(1 1) rotate(0) translate(4 100)">
<title>ErriezDS3231::read</title>
<!-- Node1 -->
<g id="Node000001" class="node">
<title>Node1</title>
<g id="a_Node000001"><a xlink:title="Read date and time from RTC.">
<polygon fill="#999999" stroke="#666666" points="276.5,-58 175,-58 175,-38 276.5,-38 276.5,-58"/>
<text text-anchor="middle" x="225.75" y="-44.5" font-family="Helvetica,sans-Serif" font-size="10.00">ErriezDS3231::read</text>
</a>
</g>
</g>
<!-- Node2 -->
<g id="Node000002" class="node">
<title>Node2</title>
<g id="a_Node000002"><a xlink:href="class_erriez_d_s3231.html#a5c4f30f85b325e4bcdecd976cfda0f93" target="_top" xlink:title="Get date time.">
<polygon fill="white" stroke="#666666" points="139,-96 0,-96 0,-76 139,-76 139,-96"/>
<text text-anchor="middle" x="69.5" y="-82.5" font-family="Helvetica,sans-Serif" font-size="10.00">ErriezDS3231::getDateTime</text>
</a>
</g>
</g>
<!-- Node1&#45;&gt;Node2 -->
<g id="edge1_Node000001_Node000002" class="edge">
<title>Node1&#45;&gt;Node2</title>
<g id="a_edge1_Node000001_Node000002"><a xlink:title=" ">
<path fill="none" stroke="#63b8ff" d="M171.24,-61.18C152.16,-65.88 130.94,-71.11 112.92,-75.55"/>
<polygon fill="#63b8ff" stroke="#63b8ff" points="171.85,-64.64 180.72,-58.85 170.18,-57.84 171.85,-64.64"/>
</a>
</g>
</g>
<!-- Node3 -->
<g id="Node000003" class="node">
<title>Node3</title>
<g id="a_Node000003"><a xlink:href="class_erriez_d_s3231.html#a05a1fab6a5d852c6b7e7749754cc7a63" target="_top" xlink:title="Read Unix UTC epoch time_t.">
<polygon fill="white" stroke="#666666" points="131.5,-58 7.5,-58 7.5,-38 131.5,-38 131.5,-58"/>
<text text-anchor="middle" x="69.5" y="-44.5" font-family="Helvetica,sans-Serif" font-size="10.00">ErriezDS3231::getEpoch</text>
</a>
</g>
</g>
<!-- Node1&#45;&gt;Node3 -->
<g id="edge2_Node000001_Node000003" class="edge">
<title>Node1&#45;&gt;Node3</title>
<g id="a_edge2_Node000001_Node000003"><a xlink:title=" ">
<path fill="none" stroke="#63b8ff" d="M163.24,-48C152.93,-48 142.23,-48 131.92,-48"/>
<polygon fill="#63b8ff" stroke="#63b8ff" points="163.16,-51.5 173.16,-48 163.16,-44.5 163.16,-51.5"/>
</a>
</g>
</g>
<!-- Node4 -->
<g id="Node000004" class="node">
<title>Node4</title>
<g id="a_Node000004"><a xlink:href="class_erriez_d_s3231.html#a1942791ed2f5550ab5114c2dc2ac6722" target="_top" xlink:title="Write time to RTC.">
<polygon fill="white" stroke="#666666" points="128.5,-20 10.5,-20 10.5,0 128.5,0 128.5,-20"/>
<text text-anchor="middle" x="69.5" y="-6.5" font-family="Helvetica,sans-Serif" font-size="10.00">ErriezDS3231::setTime</text>
</a>
</g>
</g>
<!-- Node1&#45;&gt;Node4 -->
<g id="edge3_Node000001_Node000004" class="edge">
<title>Node1&#45;&gt;Node4</title>
<g id="a_edge3_Node000001_Node000004"><a xlink:title=" ">
<path fill="none" stroke="#63b8ff" d="M171.24,-34.82C152.16,-30.12 130.94,-24.89 112.92,-20.45"/>
<polygon fill="#63b8ff" stroke="#63b8ff" points="170.18,-38.16 180.72,-37.15 171.85,-31.36 170.18,-38.16"/>
</a>
</g>
</g>
</g>
</svg>
