<?xml version="1.0" encoding="UTF-8" standalone="no"?>
<!DOCTYPE svg PUBLIC "-//W3C//DTD SVG 1.1//EN"
 "http://www.w3.org/Graphics/SVG/1.1/DTD/svg11.dtd">
<!-- Generated by graphviz version 12.2.1 (20241206.2353)
 -->
<!-- Title: INA3221::begin Pages: 1 -->
<svg width="359pt" height="104pt"
 viewBox="0.00 0.00 359.00 104.00" xmlns="http://www.w3.org/2000/svg" xmlns:xlink="http://www.w3.org/1999/xlink">

<svg id="main" version="1.1" xmlns="http://www.w3.org/2000/svg" xmlns:xlink="http://www.w3.org/1999/xlink" xml:space="preserve">

<style type="text/css"><![CDATA[
.node, .edge {opacity: 0.7;}
.node.selected, .edge.selected {opacity: 1;}
.edge:hover path { stroke: red; }
.edge:hover polygon { stroke: red; fill: red; }
]]></style>
<script type="application/ecmascript" xlink:href="svg.min.js"/>
<svg id="graph" class="graph">
<g id="graph0" class="graph" transform="scale(1 1) rotate(0) translate(4 100)">
<title>INA3221::begin</title>
<!-- Node1 -->
<g id="Node000001" class="node">
<title>Node1</title>
<g id="a_Node000001"><a xlink:title=" ">
<polygon fill="#999999" stroke="#666666" points="83.5,-58 0,-58 0,-38 83.5,-38 83.5,-58"/>
<text text-anchor="middle" x="41.75" y="-44.5" font-family="Helvetica,sans-Serif" font-size="10.00">INA3221::begin</text>
</a>
</g>
</g>
<!-- Node2 -->
<g id="Node000002" class="node">
<title>Node2</title>
<g id="a_Node000002"><a xlink:href="class_i_n_a3221.html#a51772309bee047d9922eb03084238a96" target="_top" xlink:title=" ">
<polygon fill="white" stroke="#666666" points="224.75,-96 125.5,-96 125.5,-76 224.75,-76 224.75,-96"/>
<text text-anchor="middle" x="175.12" y="-82.5" font-family="Helvetica,sans-Serif" font-size="10.00">INA3221::getDieID</text>
</a>
</g>
</g>
<!-- Node1&#45;&gt;Node2 -->
<g id="edge1_Node000001_Node000002" class="edge">
<title>Node1&#45;&gt;Node2</title>
<g id="a_edge1_Node000001_Node000002"><a xlink:title=" ">
<path fill="none" stroke="#63b8ff" d="M79,-58.48C93.93,-62.8 111.42,-67.86 127.31,-72.46"/>
<polygon fill="#63b8ff" stroke="#63b8ff" points="125.96,-75.71 136.54,-75.13 127.91,-68.99 125.96,-75.71"/>
</a>
</g>
</g>
<!-- Node4 -->
<g id="Node000004" class="node">
<title>Node4</title>
<g id="a_Node000004"><a xlink:href="class_i_n_a3221.html#a89d26c4f5610b1b21ba86d84dde71e53" target="_top" xlink:title=" ">
<polygon fill="white" stroke="#666666" points="230.75,-58 119.5,-58 119.5,-38 230.75,-38 230.75,-58"/>
<text text-anchor="middle" x="175.12" y="-44.5" font-family="Helvetica,sans-Serif" font-size="10.00">INA3221::getManufID</text>
</a>
</g>
</g>
<!-- Node1&#45;&gt;Node4 -->
<g id="edge3_Node000001_Node000004" class="edge">
<title>Node1&#45;&gt;Node4</title>
<g id="a_edge3_Node000001_Node000004"><a xlink:title=" ">
<path fill="none" stroke="#63b8ff" d="M83.96,-48C91.53,-48 99.6,-48 107.69,-48"/>
<polygon fill="#63b8ff" stroke="#63b8ff" points="107.58,-51.5 117.58,-48 107.58,-44.5 107.58,-51.5"/>
</a>
</g>
</g>
<!-- Node5 -->
<g id="Node000005" class="node">
<title>Node5</title>
<g id="a_Node000005"><a xlink:href="utils_8cpp.html#aacbcecbe6b5428e3571b06ab2104e706" target="_top" xlink:title="Prints a message to the UART with a timestamp and core number.">
<polygon fill="white" stroke="#666666" points="201.5,-20 148.75,-20 148.75,0 201.5,0 201.5,-20"/>
<text text-anchor="middle" x="175.12" y="-6.5" font-family="Helvetica,sans-Serif" font-size="10.00">uartPrint</text>
</a>
</g>
</g>
<!-- Node1&#45;&gt;Node5 -->
<g id="edge5_Node000001_Node000005" class="edge">
<title>Node1&#45;&gt;Node5</title>
<g id="a_edge5_Node000001_Node000005"><a xlink:title=" ">
<path fill="none" stroke="#63b8ff" d="M79,-37.52C97.24,-32.24 119.29,-25.86 137.58,-20.57"/>
<polygon fill="#63b8ff" stroke="#63b8ff" points="138.32,-24 146.95,-17.86 136.37,-17.28 138.32,-24"/>
</a>
</g>
</g>
<!-- Node3 -->
<g id="Node000003" class="node">
<title>Node3</title>
<g id="a_Node000003"><a xlink:href="class_i_n_a3221.html#a0b4c630038abf482bef36f3083ab20ff" target="_top" xlink:title=" ">
<polygon fill="white" stroke="#666666" points="351,-77 266.75,-77 266.75,-57 351,-57 351,-77"/>
<text text-anchor="middle" x="308.88" y="-63.5" font-family="Helvetica,sans-Serif" font-size="10.00">INA3221::_read</text>
</a>
</g>
</g>
<!-- Node2&#45;&gt;Node3 -->
<g id="edge2_Node000002_Node000003" class="edge">
<title>Node2&#45;&gt;Node3</title>
<g id="a_edge2_Node000002_Node000003"><a xlink:title=" ">
<path fill="none" stroke="#63b8ff" d="M225.18,-78.93C234.96,-77.51 245.28,-76.03 255.17,-74.6"/>
<polygon fill="#63b8ff" stroke="#63b8ff" points="255.65,-78.07 265.05,-73.18 254.65,-71.14 255.65,-78.07"/>
</a>
</g>
</g>
<!-- Node4&#45;&gt;Node3 -->
<g id="edge4_Node000004_Node000003" class="edge">
<title>Node4&#45;&gt;Node3</title>
<g id="a_edge4_Node000004_Node000003"><a xlink:title=" ">
<path fill="none" stroke="#63b8ff" d="M231.24,-55.95C239.19,-57.1 247.37,-58.27 255.28,-59.41"/>
<polygon fill="#63b8ff" stroke="#63b8ff" points="254.72,-62.87 265.12,-60.83 255.72,-55.94 254.72,-62.87"/>
</a>
</g>
</g>
</g>
</svg>
</svg>

<style type='text/css'>
<![CDATA[
[data-mouse-over-selected='false'] { opacity: 0.7; }
[data-mouse-over-selected='true']  { opacity: 1.0; }
]]>
</style>
<script type="application/ecmascript"><![CDATA[
document.addEventListener('DOMContentLoaded', (event) => {
  highlightEdges();
  highlightAdjacentNodes();
});
]]></script>
</svg>
