<?xml version="1.0" encoding="UTF-8" standalone="no"?>
<!DOCTYPE svg PUBLIC "-//W3C//DTD SVG 1.1//EN"
 "http://www.w3.org/Graphics/SVG/1.1/DTD/svg11.dtd">
<!-- Generated by graphviz version 12.2.1 (20241206.2353)
 -->
<!-- Title: INA3221::set_shunt_conversion_time Pages: 1 -->
<svg width="234pt" height="66pt"
 viewBox="0.00 0.00 233.50 66.00" xmlns="http://www.w3.org/2000/svg" xmlns:xlink="http://www.w3.org/1999/xlink">
<g id="graph0" class="graph" transform="scale(1 1) rotate(0) translate(4 62)">
<title>INA3221::set_shunt_conversion_time</title>
<!-- Node1 -->
<g id="Node000001" class="node">
<title>Node1</title>
<g id="a_Node000001"><a xlink:title=" ">
<polygon fill="#999999" stroke="#666666" points="103,-45 0,-45 0,-13 103,-13 103,-45"/>
<text text-anchor="start" x="8" y="-31.5" font-family="Helvetica,sans-Serif" font-size="10.00">INA3221::set_shunt</text>
<text text-anchor="middle" x="51.5" y="-19.5" font-family="Helvetica,sans-Serif" font-size="10.00">_conversion_time</text>
</a>
</g>
</g>
<!-- Node2 -->
<g id="Node000002" class="node">
<title>Node2</title>
<g id="a_Node000002"><a xlink:href="class_i_n_a3221.html#a0b4c630038abf482bef36f3083ab20ff" target="_top" xlink:title=" ">
<polygon fill="white" stroke="#666666" points="224.38,-58 140.12,-58 140.12,-38 224.38,-38 224.38,-58"/>
<text text-anchor="middle" x="182.25" y="-44.5" font-family="Helvetica,sans-Serif" font-size="10.00">INA3221::_read</text>
</a>
</g>
</g>
<!-- Node1&#45;&gt;Node2 -->
<g id="edge1_Node000001_Node000002" class="edge">
<title>Node1&#45;&gt;Node2</title>
<g id="a_edge1_Node000001_Node000002"><a xlink:title=" ">
<path fill="none" stroke="#63b8ff" d="M103.39,-36.51C111.7,-37.74 120.32,-39.01 128.67,-40.24"/>
<polygon fill="#63b8ff" stroke="#63b8ff" points="127.94,-43.67 138.34,-41.67 128.96,-36.75 127.94,-43.67"/>
</a>
</g>
</g>
<!-- Node3 -->
<g id="Node000003" class="node">
<title>Node3</title>
<g id="a_Node000003"><a xlink:href="class_i_n_a3221.html#aea00c9c6baf85bd94794ee7b3b47d2c7" target="_top" xlink:title=" ">
<polygon fill="white" stroke="#666666" points="225.5,-20 139,-20 139,0 225.5,0 225.5,-20"/>
<text text-anchor="middle" x="182.25" y="-6.5" font-family="Helvetica,sans-Serif" font-size="10.00">INA3221::_write</text>
</a>
</g>
</g>
<!-- Node1&#45;&gt;Node3 -->
<g id="edge2_Node000001_Node000003" class="edge">
<title>Node1&#45;&gt;Node3</title>
<g id="a_edge2_Node000001_Node000003"><a xlink:title=" ">
<path fill="none" stroke="#63b8ff" d="M103.39,-21.49C111.22,-20.33 119.34,-19.14 127.25,-17.97"/>
<polygon fill="#63b8ff" stroke="#63b8ff" points="127.74,-21.43 137.12,-16.51 126.72,-14.51 127.74,-21.43"/>
</a>
</g>
</g>
</g>
</svg>
