<?xml version="1.0" encoding="UTF-8" standalone="no"?>
<!DOCTYPE svg PUBLIC "-//W3C//DTD SVG 1.1//EN"
 "http://www.w3.org/Graphics/SVG/1.1/DTD/svg11.dtd">
<!-- Generated by graphviz version 12.2.1 (20241206.2353)
 -->
<!-- Title: Print::println Pages: 1 -->
<svg width="280pt" height="66pt"
 viewBox="0.00 0.00 280.25 66.00" xmlns="http://www.w3.org/2000/svg" xmlns:xlink="http://www.w3.org/1999/xlink">
<g id="graph0" class="graph" transform="scale(1 1) rotate(0) translate(4 62)">
<title>Print::println</title>
<!-- Node1 -->
<g id="Node000001" class="node">
<title>Node1</title>
<g id="a_Node000001"><a xlink:title=" ">
<polygon fill="#999999" stroke="#666666" points="68.5,-39 0,-39 0,-19 68.5,-19 68.5,-39"/>
<text text-anchor="middle" x="34.25" y="-25.5" font-family="Helvetica,sans-Serif" font-size="10.00">Print::println</text>
</a>
</g>
</g>
<!-- Node2 -->
<g id="Node000002" class="node">
<title>Node2</title>
<g id="a_Node000002"><a xlink:href="class_print.html#a1e411d07a8ffec5faf7ce485bac0f029" target="_top" xlink:title=" ">
<polygon fill="white" stroke="#666666" points="169.25,-58 108.25,-58 108.25,-38 169.25,-38 169.25,-58"/>
<text text-anchor="middle" x="138.75" y="-44.5" font-family="Helvetica,sans-Serif" font-size="10.00">Print::print</text>
</a>
</g>
</g>
<!-- Node1&#45;&gt;Node2 -->
<g id="edge1_Node000001_Node000002" class="edge">
<title>Node1&#45;&gt;Node2</title>
<g id="a_edge1_Node000001_Node000002"><a xlink:title=" ">
<path fill="none" stroke="#63b8ff" d="M68.81,-35.22C77.78,-36.88 87.57,-38.7 96.88,-40.42"/>
<polygon fill="#63b8ff" stroke="#63b8ff" points="95.95,-43.81 106.43,-42.19 97.23,-36.93 95.95,-43.81"/>
</a>
</g>
</g>
<!-- Node4 -->
<g id="Node000004" class="node">
<title>Node4</title>
<g id="a_Node000004"><a xlink:href="class_print.html#a169b128f9e22f0c15883768f580541a2" target="_top" xlink:title=" ">
<polygon fill="white" stroke="#666666" points="173,-20 104.5,-20 104.5,0 173,0 173,-20"/>
<text text-anchor="middle" x="138.75" y="-6.5" font-family="Helvetica,sans-Serif" font-size="10.00">Print::println</text>
</a>
</g>
</g>
<!-- Node1&#45;&gt;Node4 -->
<g id="edge3_Node000001_Node000004" class="edge">
<title>Node1&#45;&gt;Node4</title>
<g id="a_edge3_Node000001_Node000004"><a xlink:title=" ">
<path fill="none" stroke="#63b8ff" d="M68.81,-22.78C76.51,-21.35 84.82,-19.81 92.91,-18.31"/>
<polygon fill="#63b8ff" stroke="#63b8ff" points="93.43,-21.78 102.62,-16.51 92.15,-14.89 93.43,-21.78"/>
</a>
</g>
</g>
<!-- Node3 -->
<g id="Node000003" class="node">
<title>Node3</title>
<g id="a_Node000003"><a xlink:href="class_print.html#a5be30d49adae2406a270c29ba9a3e0a3" target="_top" xlink:title=" ">
<polygon fill="white" stroke="#666666" points="272.25,-39 209,-39 209,-19 272.25,-19 272.25,-39"/>
<text text-anchor="middle" x="240.62" y="-25.5" font-family="Helvetica,sans-Serif" font-size="10.00">Print::write</text>
</a>
</g>
</g>
<!-- Node2&#45;&gt;Node3 -->
<g id="edge2_Node000002_Node000003" class="edge">
<title>Node2&#45;&gt;Node3</title>
<g id="a_edge2_Node000002_Node000003"><a xlink:title=" ">
<path fill="none" stroke="#63b8ff" d="M169.72,-42.3C178.46,-40.64 188.18,-38.79 197.52,-37.01"/>
<polygon fill="#63b8ff" stroke="#63b8ff" points="197.99,-40.48 207.15,-35.18 196.68,-33.61 197.99,-40.48"/>
</a>
</g>
</g>
<!-- Node4&#45;&gt;Node3 -->
<g id="edge4_Node000004_Node000003" class="edge">
<title>Node4&#45;&gt;Node3</title>
<g id="a_edge4_Node000004_Node000003"><a xlink:title=" ">
<path fill="none" stroke="#63b8ff" d="M173.28,-16.38C181.07,-17.86 189.44,-19.45 197.54,-20.99"/>
<polygon fill="#63b8ff" stroke="#63b8ff" points="196.74,-24.4 207.22,-22.83 198.05,-17.53 196.74,-24.4"/>
</a>
</g>
</g>
</g>
</svg>
