<?xml version="1.0" encoding="UTF-8" standalone="no"?>
<!DOCTYPE svg PUBLIC "-//W3C//DTD SVG 1.1//EN"
 "http://www.w3.org/Graphics/SVG/1.1/DTD/svg11.dtd">
<!-- Generated by graphviz version 12.2.1 (20241206.2353)
 -->
<!-- Title: ErriezDS3231::writeRegister Pages: 1 -->
<!--zoomable 104 -->

<svg id="main" version="1.1" xmlns="http://www.w3.org/2000/svg" xmlns:xlink="http://www.w3.org/1999/xlink" xml:space="preserve" onload="init(evt)">

<style type="text/css"><![CDATA[
.node, .edge {opacity: 0.7;}
.node.selected, .edge.selected {opacity: 1;}
.edge:hover path { stroke: red; }
.edge:hover polygon { stroke: red; fill: red; }
]]></style>

<defs>
  <circle id="rim" cx="0" cy="0" r="7"/>
  <circle id="rim2" cx="0" cy="0" r="3.5"/>
  <g id="zoomPlus">
    <use xlink:href="#rim" fill="#404040"><set attributeName="fill" to="#808080" begin="zoomplus.mouseover" end="zoomplus.mouseout"/></use>
    <path d="M-4,0h8M0,-4v8" fill="none" stroke="white" stroke-width="1.5" pointer-events="none"/>
  </g>
  <g id="zoomMin">
    <use xlink:href="#rim" fill="#404040"><set attributeName="fill" to="#808080" begin="zoomminus.mouseover" end="zoomminus.mouseout"/></use>
    <path d="M-4,0h8" fill="none" stroke="white" stroke-width="1.5" pointer-events="none"/>
  </g>
  <g id="arrowUp" transform="translate(30 24)">
    <use xlink:href="#rim"/>
    <path pointer-events="none" fill="none" stroke="white" stroke-width="1.5" d="M0,-3.0v7 M-2.5,-0.5L0,-3.0L2.5,-0.5"/>
  </g>
  <g id="arrowRight" transform="rotate(90) translate(36 -43)">
    <use xlink:href="#rim"/>
    <path pointer-events="none" fill="none" stroke="white" stroke-width="1.5" d="M0,-3.0v7 M-2.5,-0.5L0,-3.0L2.5,-0.5"/>
  </g>
  <g id="arrowDown" transform="rotate(180) translate(-30 -48)">
    <use xlink:href="#rim"/>
    <path pointer-events="none" fill="none" stroke="white" stroke-width="1.5" d="M0,-3.0v7 M-2.5,-0.5L0,-3.0L2.5,-0.5"/>
  </g>
  <g id="arrowLeft" transform="rotate(270) translate(-36 17)">
    <use xlink:href="#rim"/>
    <path pointer-events="none" fill="none" stroke="white" stroke-width="1.5" d="M0,-3.0v7 M-2.5,-0.5L0,-3.0L2.5,-0.5"/>
  </g>
  <g id="resetDef">
    <use xlink:href="#rim2" fill="#404040"><set attributeName="fill" to="#808080" begin="reset.mouseover" end="reset.mouseout"/></use>
  </g>
</defs>
<script type="application/ecmascript">
var viewWidth = 635;
var viewHeight = 104;
var sectionId = 'dynsection-20';
</script>
<script type="application/ecmascript" xlink:href="svg.min.js"/>
<svg id="graph" class="graph">
<g id="viewport">
<title>ErriezDS3231::writeRegister</title>
<!-- Node1 -->
<g id="Node000001" class="node">
<title>Node1</title>
<g id="a_Node000001"><a xlink:title="Write register.">
<polygon fill="#999999" stroke="#666666" points="627.25,-58 486.75,-58 486.75,-38 627.25,-38 627.25,-58"/>
<text text-anchor="middle" x="557" y="-44.5" font-family="Helvetica,sans-Serif" font-size="10.00">ErriezDS3231::writeRegister</text>
</a>
</g>
</g>
<!-- Node2 -->
<g id="Node000002" class="node">
<title>Node2</title>
<g id="a_Node000002"><a xlink:href="class_erriez_d_s3231.html#a47dd1340fc2ecac52cff00c3cffc7e6d" target="_top" xlink:title="Enable or disable oscillator when running on V&#45;BAT.">
<polygon fill="white" stroke="#666666" points="450.75,-58 314.75,-58 314.75,-38 450.75,-38 450.75,-58"/>
<text text-anchor="middle" x="382.75" y="-44.5" font-family="Helvetica,sans-Serif" font-size="10.00">ErriezDS3231::clockEnable</text>
</a>
</g>
</g>
<!-- Node1&#45;&gt;Node2 -->
<g id="edge1_Node000001_Node000002" class="edge">
<title>Node1&#45;&gt;Node2</title>
<g id="a_edge1_Node000001_Node000002"><a xlink:title=" ">
<path fill="none" stroke="#63b8ff" d="M475.12,-48C467.07,-48 458.95,-48 451.06,-48"/>
<polygon fill="#63b8ff" stroke="#63b8ff" points="474.92,-51.5 484.92,-48 474.92,-44.5 474.92,-51.5"/>
</a>
</g>
</g>
<!-- Node3 -->
<g id="Node000003" class="node">
<title>Node3</title>
<g id="a_Node000003"><a xlink:href="class_erriez_d_s3231.html#a50426dfe02af86852f777e392936fa08" target="_top" xlink:title="Write date and time to RTC.">
<polygon fill="white" stroke="#666666" points="278.75,-58 175,-58 175,-38 278.75,-38 278.75,-58"/>
<text text-anchor="middle" x="226.88" y="-44.5" font-family="Helvetica,sans-Serif" font-size="10.00">ErriezDS3231::write</text>
</a>
</g>
</g>
<!-- Node2&#45;&gt;Node3 -->
<g id="edge2_Node000002_Node000003" class="edge">
<title>Node2&#45;&gt;Node3</title>
<g id="a_edge2_Node000002_Node000003"><a xlink:title=" ">
<path fill="none" stroke="#63b8ff" d="M302.87,-48C294.81,-48 286.77,-48 279.12,-48"/>
<polygon fill="#63b8ff" stroke="#63b8ff" points="302.74,-51.5 312.74,-48 302.74,-44.5 302.74,-51.5"/>
</a>
</g>
</g>
<!-- Node4 -->
<g id="Node000004" class="node">
<title>Node4</title>
<g id="a_Node000004"><a xlink:href="class_erriez_d_s3231.html#aefebda4120d747f48feb0d1c53468c63" target="_top" xlink:title="Set date time.">
<polygon fill="white" stroke="#666666" points="139,-96 0,-96 0,-76 139,-76 139,-96"/>
<text text-anchor="middle" x="69.5" y="-82.5" font-family="Helvetica,sans-Serif" font-size="10.00">ErriezDS3231::setDateTime</text>
</a>
</g>
</g>
<!-- Node3&#45;&gt;Node4 -->
<g id="edge3_Node000003_Node000004" class="edge">
<title>Node3&#45;&gt;Node4</title>
<g id="a_edge3_Node000003_Node000004"><a xlink:title=" ">
<path fill="none" stroke="#63b8ff" d="M171.98,-61.18C152.76,-65.88 131.38,-71.11 113.23,-75.55"/>
<polygon fill="#63b8ff" stroke="#63b8ff" points="172.65,-64.62 181.54,-58.84 170.99,-57.82 172.65,-64.62"/>
</a>
</g>
</g>
<!-- Node5 -->
<g id="Node000005" class="node">
<title>Node5</title>
<g id="a_Node000005"><a xlink:href="class_erriez_d_s3231.html#a4d06bb8eff5952b794a09fa41fccf01c" target="_top" xlink:title="Write Unix epoch UTC time to RTC.">
<polygon fill="white" stroke="#666666" points="131.5,-58 7.5,-58 7.5,-38 131.5,-38 131.5,-58"/>
<text text-anchor="middle" x="69.5" y="-44.5" font-family="Helvetica,sans-Serif" font-size="10.00">ErriezDS3231::setEpoch</text>
</a>
</g>
</g>
<!-- Node3&#45;&gt;Node5 -->
<g id="edge4_Node000003_Node000005" class="edge">
<title>Node3&#45;&gt;Node5</title>
<g id="a_edge4_Node000003_Node000005"><a xlink:title=" ">
<path fill="none" stroke="#63b8ff" d="M163.09,-48C152.75,-48 142.05,-48 131.75,-48"/>
<polygon fill="#63b8ff" stroke="#63b8ff" points="163.06,-51.5 173.06,-48 163.06,-44.5 163.06,-51.5"/>
</a>
</g>
</g>
<!-- Node6 -->
<g id="Node000006" class="node">
<title>Node6</title>
<g id="a_Node000006"><a xlink:href="class_erriez_d_s3231.html#a1942791ed2f5550ab5114c2dc2ac6722" target="_top" xlink:title="Write time to RTC.">
<polygon fill="white" stroke="#666666" points="128.5,-20 10.5,-20 10.5,0 128.5,0 128.5,-20"/>
<text text-anchor="middle" x="69.5" y="-6.5" font-family="Helvetica,sans-Serif" font-size="10.00">ErriezDS3231::setTime</text>
</a>
</g>
</g>
<!-- Node3&#45;&gt;Node6 -->
<g id="edge5_Node000003_Node000006" class="edge">
<title>Node3&#45;&gt;Node6</title>
<g id="a_edge5_Node000003_Node000006"><a xlink:title=" ">
<path fill="none" stroke="#63b8ff" d="M171.98,-34.82C152.76,-30.12 131.38,-24.89 113.23,-20.45"/>
<polygon fill="#63b8ff" stroke="#63b8ff" points="170.99,-38.18 181.54,-37.16 172.65,-31.38 170.99,-38.18"/>
</a>
</g>
</g>
</g>
</svg>

<g id="navigator" transform="translate(0 0)" fill="#404254">
  <rect fill="#f2f5e9" fill-opacity="0.5" stroke="#606060" stroke-width=".5" x="0" y="0" width="60" height="60"/>
  <use id="zoomplus" xlink:href="#zoomPlus" x="17" y="9" onmousedown="handleZoom(evt,'in')"/>
  <use id="zoomminus" xlink:href="#zoomMin" x="42" y="9" onmousedown="handleZoom(evt,'out')"/>
  <use id="reset" xlink:href="#resetDef" x="30" y="36" onmousedown="handleReset()"/>
   <use id="arrowup" xlink:href="#arrowUp" x="0" y="0" onmousedown="handlePan(0,-1)"/>
  <use id="arrowright" xlink:href="#arrowRight" x="0" y="0" onmousedown="handlePan(1,0)"/>
  <use id="arrowdown" xlink:href="#arrowDown" x="0" y="0" onmousedown="handlePan(0,1)"/>
  <use id="arrowleft" xlink:href="#arrowLeft" x="0" y="0" onmousedown="handlePan(-1,0)"/>
</g>
<svg viewBox="0 0 15 15" width="100%" height="30px" preserveAspectRatio="xMaxYMin meet">
 <g id="arrow_out" transform="scale(0.3 0.3)">
  <a xlink:href="class_erriez_d_s3231_a2d53e7b9c88c576fe778502b7845a5ce_icgraph_org.svg" target="_base">
   <rect id="button" ry="5" rx="5" y="6" x="6" height="38" width="38"
        fill="#f2f5e9" fill-opacity="0.5" stroke="#606060" stroke-width="1.0"/>
   <path id="arrow"
     d="M 11.500037,31.436501 C 11.940474,20.09759 22.043105,11.32322 32.158766,21.979434 L 37.068811,17.246167 C 37.068811,17.246167 37.088388,32 37.088388,32 L 22.160133,31.978069 C 22.160133,31.978069 26.997745,27.140456 26.997745,27.140456 C 18.528582,18.264221 13.291696,25.230495 11.500037,31.436501 z"
     style="fill:#404040;"/>
  </a>
 </g>
</svg>

<style type='text/css'>
<![CDATA[
[data-mouse-over-selected='false'] { opacity: 0.7; }
[data-mouse-over-selected='true']  { opacity: 1.0; }
]]>
</style>
<script type="application/ecmascript"><![CDATA[
document.addEventListener('DOMContentLoaded', (event) => {
  highlightEdges();
  highlightAdjacentNodes();
});
]]></script>
</svg>
