<?xml version="1.0" encoding="UTF-8" standalone="no"?>
<!DOCTYPE svg PUBLIC "-//W3C//DTD SVG 1.1//EN"
 "http://www.w3.org/Graphics/SVG/1.1/DTD/svg11.dtd">
<!-- Generated by graphviz version 12.2.1 (20241206.2353)
 -->
<!-- Title: LoRaClass::packetFrequencyError Pages: 1 -->
<svg width="677pt" height="53pt"
 viewBox="0.00 0.00 677.25 53.00" xmlns="http://www.w3.org/2000/svg" xmlns:xlink="http://www.w3.org/1999/xlink">
<g id="graph0" class="graph" transform="scale(1 1) rotate(0) translate(4 49)">
<title>LoRaClass::packetFrequencyError</title>
<!-- Node1 -->
<g id="Node000001" class="node">
<title>Node1</title>
<g id="a_Node000001"><a xlink:title=" ">
<polygon fill="#999999" stroke="#666666" points="145.75,-32 0,-32 0,0 145.75,0 145.75,-32"/>
<text text-anchor="start" x="8" y="-18.5" font-family="Helvetica,sans-Serif" font-size="10.00">LoRaClass::packetFrequency</text>
<text text-anchor="middle" x="72.88" y="-6.5" font-family="Helvetica,sans-Serif" font-size="10.00">Error</text>
</a>
</g>
</g>
<!-- Node2 -->
<g id="Node000002" class="node">
<title>Node2</title>
<g id="a_Node000002"><a xlink:href="class_lo_ra_class.html#a810b0f66f8589f7bcbbe08ce80f41959" target="_top" xlink:title=" ">
<polygon fill="white" stroke="#666666" points="338.75,-45 181.75,-45 181.75,-25 338.75,-25 338.75,-45"/>
<text text-anchor="middle" x="260.25" y="-31.5" font-family="Helvetica,sans-Serif" font-size="10.00">LoRaClass::getSignalBandwidth</text>
</a>
</g>
</g>
<!-- Node1&#45;&gt;Node2 -->
<g id="edge1_Node000001_Node000002" class="edge">
<title>Node1&#45;&gt;Node2</title>
<g id="a_edge1_Node000001_Node000002"><a xlink:title=" ">
<path fill="none" stroke="#63b8ff" d="M146.08,-23.4C153.95,-24.21 162.04,-25.04 170.09,-25.86"/>
<polygon fill="#63b8ff" stroke="#63b8ff" points="169.61,-29.33 179.91,-26.87 170.32,-22.37 169.61,-29.33"/>
</a>
</g>
</g>
<!-- Node3 -->
<g id="Node000003" class="node">
<title>Node3</title>
<g id="a_Node000003"><a xlink:href="class_lo_ra_class.html#add581bfe66dd75108e22b18a4d6f89bf" target="_top" xlink:title=" ">
<polygon fill="white" stroke="#666666" points="501,-26 374.75,-26 374.75,-6 501,-6 501,-26"/>
<text text-anchor="middle" x="437.88" y="-12.5" font-family="Helvetica,sans-Serif" font-size="10.00">LoRaClass::readRegister</text>
</a>
</g>
</g>
<!-- Node1&#45;&gt;Node3 -->
<g id="edge4_Node000001_Node000003" class="edge">
<title>Node1&#45;&gt;Node3</title>
<g id="a_edge4_Node000001_Node000003"><a xlink:title=" ">
<path fill="none" stroke="#63b8ff" d="M146.03,-16C208.9,-16 299.68,-16 363.04,-16"/>
<polygon fill="#63b8ff" stroke="#63b8ff" points="363.02,-19.5 373.02,-16 363.02,-12.5 363.02,-19.5"/>
</a>
</g>
</g>
<!-- Node2&#45;&gt;Node3 -->
<g id="edge2_Node000002_Node000003" class="edge">
<title>Node2&#45;&gt;Node3</title>
<g id="a_edge2_Node000002_Node000003"><a xlink:title=" ">
<path fill="none" stroke="#63b8ff" d="M339.05,-26.58C347,-25.72 355.06,-24.85 362.97,-24"/>
<polygon fill="#63b8ff" stroke="#63b8ff" points="363.35,-27.47 372.91,-22.92 362.6,-20.52 363.35,-27.47"/>
</a>
</g>
</g>
<!-- Node4 -->
<g id="Node000004" class="node">
<title>Node4</title>
<g id="a_Node000004"><a xlink:href="class_lo_ra_class.html#a3a0c0649c595b1176b5fb1ae41210ee3" target="_top" xlink:title=" ">
<polygon fill="white" stroke="#666666" points="669.25,-26 537,-26 537,-6 669.25,-6 669.25,-26"/>
<text text-anchor="middle" x="603.12" y="-12.5" font-family="Helvetica,sans-Serif" font-size="10.00">LoRaClass::singleTransfer</text>
</a>
</g>
</g>
<!-- Node3&#45;&gt;Node4 -->
<g id="edge3_Node000003_Node000004" class="edge">
<title>Node3&#45;&gt;Node4</title>
<g id="a_edge3_Node000003_Node000004"><a xlink:title=" ">
<path fill="none" stroke="#63b8ff" d="M501.06,-16C508.96,-16 517.12,-16 525.21,-16"/>
<polygon fill="#63b8ff" stroke="#63b8ff" points="525.07,-19.5 535.07,-16 525.07,-12.5 525.07,-19.5"/>
</a>
</g>
</g>
</g>
</svg>
