<?xml version="1.0" encoding="UTF-8" standalone="no"?>
<!DOCTYPE svg PUBLIC "-//W3C//DTD SVG 1.1//EN"
 "http://www.w3.org/Graphics/SVG/1.1/DTD/svg11.dtd">
<!-- Generated by graphviz version 12.2.1 (20241206.2353)
 -->
<!-- Title: Print::println Pages: 1 -->
<svg width="181pt" height="370pt"
 viewBox="0.00 0.00 181.00 370.00" xmlns="http://www.w3.org/2000/svg" xmlns:xlink="http://www.w3.org/1999/xlink">

<svg id="main" version="1.1" xmlns="http://www.w3.org/2000/svg" xmlns:xlink="http://www.w3.org/1999/xlink" xml:space="preserve">

<style type="text/css"><![CDATA[
.node, .edge {opacity: 0.7;}
.node.selected, .edge.selected {opacity: 1;}
.edge:hover path { stroke: red; }
.edge:hover polygon { stroke: red; fill: red; }
]]></style>
<script type="application/ecmascript" xlink:href="svg.min.js"/>
<svg id="graph" class="graph">
<g id="graph0" class="graph" transform="scale(1 1) rotate(0) translate(4 366)">
<title>Print::println</title>
<!-- Node1 -->
<g id="Node000001" class="node">
<title>Node1</title>
<g id="a_Node000001"><a xlink:title=" ">
<polygon fill="#999999" stroke="#666666" points="173,-191 104.5,-191 104.5,-171 173,-171 173,-191"/>
<text text-anchor="middle" x="138.75" y="-177.5" font-family="Helvetica,sans-Serif" font-size="10.00">Print::println</text>
</a>
</g>
</g>
<!-- Node2 -->
<g id="Node000002" class="node">
<title>Node2</title>
<g id="a_Node000002"><a xlink:href="class_print.html#a554896a71162f967b5794401239d7a01" target="_top" xlink:title=" ">
<polygon fill="white" stroke="#666666" points="68.5,-362 0,-362 0,-342 68.5,-342 68.5,-362"/>
<text text-anchor="middle" x="34.25" y="-348.5" font-family="Helvetica,sans-Serif" font-size="10.00">Print::println</text>
</a>
</g>
</g>
<!-- Node1&#45;&gt;Node2 -->
<g id="edge1_Node000001_Node000002" class="edge">
<title>Node1&#45;&gt;Node2</title>
<g id="a_edge1_Node000001_Node000002"><a xlink:title=" ">
<path fill="none" stroke="#63b8ff" d="M132.51,-202.52C123.84,-234.31 103.87,-294.23 68.5,-333 65.45,-336.34 61.68,-339.25 57.78,-341.71"/>
<polygon fill="#63b8ff" stroke="#63b8ff" points="135.87,-203.49 134.99,-192.93 129.1,-201.73 135.87,-203.49"/>
</a>
</g>
</g>
<!-- Node3 -->
<g id="Node000003" class="node">
<title>Node3</title>
<g id="a_Node000003"><a xlink:href="class_print.html#ad337ce3f7977411b7d34d47a51e5737e" target="_top" xlink:title=" ">
<polygon fill="white" stroke="#666666" points="68.5,-324 0,-324 0,-304 68.5,-304 68.5,-324"/>
<text text-anchor="middle" x="34.25" y="-310.5" font-family="Helvetica,sans-Serif" font-size="10.00">Print::println</text>
</a>
</g>
</g>
<!-- Node1&#45;&gt;Node3 -->
<g id="edge2_Node000001_Node000003" class="edge">
<title>Node1&#45;&gt;Node3</title>
<g id="a_edge2_Node000001_Node000003"><a xlink:title=" ">
<path fill="none" stroke="#63b8ff" d="M129.12,-201.63C118.01,-226.25 96.72,-267.53 68.5,-295 65.17,-298.25 61.17,-301.14 57.12,-303.63"/>
<polygon fill="#63b8ff" stroke="#63b8ff" points="132.23,-203.26 133.01,-192.69 125.81,-200.46 132.23,-203.26"/>
</a>
</g>
</g>
<!-- Node4 -->
<g id="Node000004" class="node">
<title>Node4</title>
<g id="a_Node000004"><a xlink:href="class_print.html#a56e976b079361b6021ef7c2bedb397a2" target="_top" xlink:title=" ">
<polygon fill="white" stroke="#666666" points="68.5,-286 0,-286 0,-266 68.5,-266 68.5,-286"/>
<text text-anchor="middle" x="34.25" y="-272.5" font-family="Helvetica,sans-Serif" font-size="10.00">Print::println</text>
</a>
</g>
</g>
<!-- Node1&#45;&gt;Node4 -->
<g id="edge3_Node000001_Node000004" class="edge">
<title>Node1&#45;&gt;Node4</title>
<g id="a_edge3_Node000001_Node000004"><a xlink:title=" ">
<path fill="none" stroke="#63b8ff" d="M123.27,-199.99C110.16,-216.38 89.69,-240.02 68.5,-257 64.66,-260.08 60.26,-262.96 55.95,-265.51"/>
<polygon fill="#63b8ff" stroke="#63b8ff" points="125.74,-202.51 129.16,-192.48 120.23,-198.19 125.74,-202.51"/>
</a>
</g>
</g>
<!-- Node5 -->
<g id="Node000005" class="node">
<title>Node5</title>
<g id="a_Node000005"><a xlink:href="class_print.html#a738c88471cfb8eac7c8a804699971413" target="_top" xlink:title=" ">
<polygon fill="white" stroke="#666666" points="68.5,-248 0,-248 0,-228 68.5,-228 68.5,-248"/>
<text text-anchor="middle" x="34.25" y="-234.5" font-family="Helvetica,sans-Serif" font-size="10.00">Print::println</text>
</a>
</g>
</g>
<!-- Node1&#45;&gt;Node5 -->
<g id="edge4_Node000001_Node000005" class="edge">
<title>Node1&#45;&gt;Node5</title>
<g id="a_edge4_Node000001_Node000005"><a xlink:title=" ">
<path fill="none" stroke="#63b8ff" d="M109.16,-196.9C91.5,-206.72 69.36,-219.03 53.93,-227.61"/>
<polygon fill="#63b8ff" stroke="#63b8ff" points="110.59,-200.11 117.63,-192.19 107.19,-193.99 110.59,-200.11"/>
</a>
</g>
</g>
<!-- Node6 -->
<g id="Node000006" class="node">
<title>Node6</title>
<g id="a_Node000006"><a xlink:href="class_print.html#a3d0a0f3da98e9401d25b959b726e94ac" target="_top" xlink:title=" ">
<polygon fill="white" stroke="#666666" points="68.5,-210 0,-210 0,-190 68.5,-190 68.5,-210"/>
<text text-anchor="middle" x="34.25" y="-196.5" font-family="Helvetica,sans-Serif" font-size="10.00">Print::println</text>
</a>
</g>
</g>
<!-- Node1&#45;&gt;Node6 -->
<g id="edge5_Node000001_Node000006" class="edge">
<title>Node1&#45;&gt;Node6</title>
<g id="a_edge5_Node000001_Node000006"><a xlink:title=" ">
<path fill="none" stroke="#63b8ff" d="M92.99,-189.3C84.9,-190.8 76.59,-192.34 68.89,-193.76"/>
<polygon fill="#63b8ff" stroke="#63b8ff" points="93.5,-192.76 102.7,-187.5 92.23,-185.88 93.5,-192.76"/>
</a>
</g>
</g>
<!-- Node7 -->
<g id="Node000007" class="node">
<title>Node7</title>
<g id="a_Node000007"><a xlink:href="class_print.html#a833fbec3ceba92e3ec95f51e026e4569" target="_top" xlink:title=" ">
<polygon fill="white" stroke="#666666" points="68.5,-172 0,-172 0,-152 68.5,-152 68.5,-172"/>
<text text-anchor="middle" x="34.25" y="-158.5" font-family="Helvetica,sans-Serif" font-size="10.00">Print::println</text>
</a>
</g>
</g>
<!-- Node1&#45;&gt;Node7 -->
<g id="edge6_Node000001_Node000007" class="edge">
<title>Node1&#45;&gt;Node7</title>
<g id="a_edge6_Node000001_Node000007"><a xlink:title=" ">
<path fill="none" stroke="#63b8ff" d="M92.99,-172.7C84.9,-171.2 76.59,-169.66 68.89,-168.24"/>
<polygon fill="#63b8ff" stroke="#63b8ff" points="92.23,-176.12 102.7,-174.5 93.5,-169.24 92.23,-176.12"/>
</a>
</g>
</g>
<!-- Node8 -->
<g id="Node000008" class="node">
<title>Node8</title>
<g id="a_Node000008"><a xlink:href="class_print.html#ac9afe80f50f0118d735295aec7727e50" target="_top" xlink:title=" ">
<polygon fill="white" stroke="#666666" points="68.5,-134 0,-134 0,-114 68.5,-114 68.5,-134"/>
<text text-anchor="middle" x="34.25" y="-120.5" font-family="Helvetica,sans-Serif" font-size="10.00">Print::println</text>
</a>
</g>
</g>
<!-- Node1&#45;&gt;Node8 -->
<g id="edge7_Node000001_Node000008" class="edge">
<title>Node1&#45;&gt;Node8</title>
<g id="a_edge7_Node000001_Node000008"><a xlink:title=" ">
<path fill="none" stroke="#63b8ff" d="M109.16,-165.1C91.5,-155.28 69.36,-142.97 53.93,-134.39"/>
<polygon fill="#63b8ff" stroke="#63b8ff" points="107.19,-168.01 117.63,-169.81 110.59,-161.89 107.19,-168.01"/>
</a>
</g>
</g>
<!-- Node9 -->
<g id="Node000009" class="node">
<title>Node9</title>
<g id="a_Node000009"><a xlink:href="class_print.html#ac87eed1fcb78641169ba2244278c899e" target="_top" xlink:title=" ">
<polygon fill="white" stroke="#666666" points="68.5,-96 0,-96 0,-76 68.5,-76 68.5,-96"/>
<text text-anchor="middle" x="34.25" y="-82.5" font-family="Helvetica,sans-Serif" font-size="10.00">Print::println</text>
</a>
</g>
</g>
<!-- Node1&#45;&gt;Node9 -->
<g id="edge8_Node000001_Node000009" class="edge">
<title>Node1&#45;&gt;Node9</title>
<g id="a_edge8_Node000001_Node000009"><a xlink:title=" ">
<path fill="none" stroke="#63b8ff" d="M123.27,-162.01C110.16,-145.62 89.69,-121.98 68.5,-105 64.66,-101.92 60.26,-99.04 55.95,-96.49"/>
<polygon fill="#63b8ff" stroke="#63b8ff" points="120.23,-163.81 129.16,-169.52 125.74,-159.49 120.23,-163.81"/>
</a>
</g>
</g>
<!-- Node10 -->
<g id="Node000010" class="node">
<title>Node10</title>
<g id="a_Node000010"><a xlink:href="class_print.html#ab3b823d47192f2c87b54f485ee1a3617" target="_top" xlink:title=" ">
<polygon fill="white" stroke="#666666" points="68.5,-58 0,-58 0,-38 68.5,-38 68.5,-58"/>
<text text-anchor="middle" x="34.25" y="-44.5" font-family="Helvetica,sans-Serif" font-size="10.00">Print::println</text>
</a>
</g>
</g>
<!-- Node1&#45;&gt;Node10 -->
<g id="edge9_Node000001_Node000010" class="edge">
<title>Node1&#45;&gt;Node10</title>
<g id="a_edge9_Node000001_Node000010"><a xlink:title=" ">
<path fill="none" stroke="#63b8ff" d="M129.12,-160.37C118.01,-135.75 96.72,-94.47 68.5,-67 65.17,-63.75 61.17,-60.86 57.12,-58.37"/>
<polygon fill="#63b8ff" stroke="#63b8ff" points="125.81,-161.54 133.01,-169.31 132.23,-158.74 125.81,-161.54"/>
</a>
</g>
</g>
<!-- Node11 -->
<g id="Node000011" class="node">
<title>Node11</title>
<g id="a_Node000011"><a xlink:href="class_print.html#aebee3c33ee5d8f10b6f378d5273742d0" target="_top" xlink:title=" ">
<polygon fill="white" stroke="#666666" points="68.5,-20 0,-20 0,0 68.5,0 68.5,-20"/>
<text text-anchor="middle" x="34.25" y="-6.5" font-family="Helvetica,sans-Serif" font-size="10.00">Print::println</text>
</a>
</g>
</g>
<!-- Node1&#45;&gt;Node11 -->
<g id="edge10_Node000001_Node000011" class="edge">
<title>Node1&#45;&gt;Node11</title>
<g id="a_edge10_Node000001_Node000011"><a xlink:title=" ">
<path fill="none" stroke="#63b8ff" d="M132.51,-159.48C123.84,-127.69 103.87,-67.77 68.5,-29 65.45,-25.66 61.68,-22.75 57.78,-20.29"/>
<polygon fill="#63b8ff" stroke="#63b8ff" points="129.1,-160.27 134.99,-169.07 135.87,-158.51 129.1,-160.27"/>
</a>
</g>
</g>
</g>
</svg>
</svg>

<style type='text/css'>
<![CDATA[
[data-mouse-over-selected='false'] { opacity: 0.7; }
[data-mouse-over-selected='true']  { opacity: 1.0; }
]]>
</style>
<script type="application/ecmascript"><![CDATA[
document.addEventListener('DOMContentLoaded', (event) => {
  highlightEdges();
  highlightAdjacentNodes();
});
]]></script>
</svg>
