<?xml version="1.0" encoding="UTF-8" standalone="no"?>
<!DOCTYPE svg PUBLIC "-//W3C//DTD SVG 1.1//EN"
 "http://www.w3.org/Graphics/SVG/1.1/DTD/svg11.dtd">
<!-- Generated by graphviz version 12.2.1 (20241206.2353)
 -->
<!-- Title: PowerManager::getCurrentChargeUSB Pages: 1 -->
<svg width="653pt" height="40pt"
 viewBox="0.00 0.00 652.75 40.00" xmlns="http://www.w3.org/2000/svg" xmlns:xlink="http://www.w3.org/1999/xlink">
<g id="graph0" class="graph" transform="scale(1 1) rotate(0) translate(4 36)">
<title>PowerManager::getCurrentChargeUSB</title>
<!-- Node1 -->
<g id="Node000001" class="node">
<title>Node1</title>
<g id="a_Node000001"><a xlink:title=" ">
<polygon fill="#999999" stroke="#666666" points="644.75,-32 511.75,-32 511.75,0 644.75,0 644.75,-32"/>
<text text-anchor="start" x="519.75" y="-18.5" font-family="Helvetica,sans-Serif" font-size="10.00">PowerManager::getCurrent</text>
<text text-anchor="middle" x="578.25" y="-6.5" font-family="Helvetica,sans-Serif" font-size="10.00">ChargeUSB</text>
</a>
</g>
</g>
<!-- Node2 -->
<g id="Node000002" class="node">
<title>Node2</title>
<g id="a_Node000002"><a xlink:href="class_power_manager.html#a0548ae14a668bb06e4cc13e0295ad5c8" target="_top" xlink:title=" ">
<polygon fill="white" stroke="#666666" points="475.75,-26 312.75,-26 312.75,-6 475.75,-6 475.75,-26"/>
<text text-anchor="middle" x="394.25" y="-12.5" font-family="Helvetica,sans-Serif" font-size="10.00">PowerManager::isUSBConnected</text>
</a>
</g>
</g>
<!-- Node1&#45;&gt;Node2 -->
<g id="edge1_Node000001_Node000002" class="edge">
<title>Node1&#45;&gt;Node2</title>
<g id="a_edge1_Node000001_Node000002"><a xlink:title=" ">
<path fill="none" stroke="#63b8ff" d="M499.92,-16C492.07,-16 484.08,-16 476.2,-16"/>
<polygon fill="#63b8ff" stroke="#63b8ff" points="499.77,-19.5 509.77,-16 499.77,-12.5 499.77,-19.5"/>
</a>
</g>
</g>
<!-- Node3 -->
<g id="Node000003" class="node">
<title>Node3</title>
<g id="a_Node000003"><a xlink:href="event__manager_8cpp.html#a467714d66058f52e4ac7aeb6df46b433" target="_top" xlink:title="Checks power statuses and triggers events based on voltage trends.">
<polygon fill="white" stroke="#666666" points="276.75,-26 176,-26 176,-6 276.75,-6 276.75,-26"/>
<text text-anchor="middle" x="226.38" y="-12.5" font-family="Helvetica,sans-Serif" font-size="10.00">checkPowerEvents</text>
</a>
</g>
</g>
<!-- Node2&#45;&gt;Node3 -->
<g id="edge2_Node000002_Node000003" class="edge">
<title>Node2&#45;&gt;Node3</title>
<g id="a_edge2_Node000002_Node000003"><a xlink:title=" ">
<path fill="none" stroke="#63b8ff" d="M301.01,-16C292.8,-16 284.72,-16 277.08,-16"/>
<polygon fill="#63b8ff" stroke="#63b8ff" points="300.74,-19.5 310.74,-16 300.74,-12.5 300.74,-19.5"/>
</a>
</g>
</g>
<!-- Node4 -->
<g id="Node000004" class="node">
<title>Node4</title>
<g id="a_Node000004"><a xlink:href="main_8cpp.html#a9f153132b8b4afad133b952111e18bd9" target="_top" xlink:title=" ">
<polygon fill="white" stroke="#666666" points="140,-26 73,-26 73,-6 140,-6 140,-26"/>
<text text-anchor="middle" x="106.5" y="-12.5" font-family="Helvetica,sans-Serif" font-size="10.00">core1_entry</text>
</a>
</g>
</g>
<!-- Node3&#45;&gt;Node4 -->
<g id="edge3_Node000003_Node000004" class="edge">
<title>Node3&#45;&gt;Node4</title>
<g id="a_edge3_Node000003_Node000004"><a xlink:title=" ">
<path fill="none" stroke="#63b8ff" d="M164.43,-16C156.12,-16 147.87,-16 140.33,-16"/>
<polygon fill="#63b8ff" stroke="#63b8ff" points="164.21,-19.5 174.21,-16 164.21,-12.5 164.21,-19.5"/>
</a>
</g>
</g>
<!-- Node5 -->
<g id="Node000005" class="node">
<title>Node5</title>
<g id="a_Node000005"><a xlink:href="main_8cpp.html#ae66f6b31b5ad750f1fe042a706a4e3d4" target="_top" xlink:title=" ">
<polygon fill="white" stroke="#666666" points="37,-26 0,-26 0,-6 37,-6 37,-26"/>
<text text-anchor="middle" x="18.5" y="-12.5" font-family="Helvetica,sans-Serif" font-size="10.00">main</text>
</a>
</g>
</g>
<!-- Node4&#45;&gt;Node5 -->
<g id="edge4_Node000004_Node000005" class="edge">
<title>Node4&#45;&gt;Node5</title>
<g id="a_edge4_Node000004_Node000005"><a xlink:title=" ">
<path fill="none" stroke="#63b8ff" d="M61.64,-16C52.94,-16 44.29,-16 37.11,-16"/>
<polygon fill="#63b8ff" stroke="#63b8ff" points="61.47,-19.5 71.47,-16 61.47,-12.5 61.47,-19.5"/>
</a>
</g>
</g>
</g>
</svg>
