<?xml version="1.0" encoding="UTF-8" standalone="no"?>
<!DOCTYPE svg PUBLIC "-//W3C//DTD SVG 1.1//EN"
 "http://www.w3.org/Graphics/SVG/1.1/DTD/svg11.dtd">
<!-- Generated by graphviz version 12.2.1 (20241206.2353)
 -->
<!-- Title: DS3231::getDateTimeLocal Pages: 1 -->
<svg width="469pt" height="104pt"
 viewBox="0.00 0.00 468.50 104.00" xmlns="http://www.w3.org/2000/svg" xmlns:xlink="http://www.w3.org/1999/xlink">
<g id="graph0" class="graph" transform="scale(1 1) rotate(0) translate(4 100)">
<title>DS3231::getDateTimeLocal</title>
<!-- Node1 -->
<g id="Node000001" class="node">
<title>Node1</title>
<g id="a_Node000001"><a xlink:title=" ">
<polygon fill="#999999" stroke="#666666" points="136.75,-39 0,-39 0,-19 136.75,-19 136.75,-39"/>
<text text-anchor="middle" x="68.38" y="-25.5" font-family="Helvetica,sans-Serif" font-size="10.00">DS3231::getDateTimeLocal</text>
</a>
</g>
</g>
<!-- Node2 -->
<g id="Node000002" class="node">
<title>Node2</title>
<g id="a_Node000002"><a xlink:href="class_d_s3231.html#accd8b405f5d30b7b26bb2ca4d84a8fa8" target="_top" xlink:title=" ">
<polygon fill="white" stroke="#666666" points="296,-58 172.75,-58 172.75,-38 296,-38 296,-58"/>
<text text-anchor="middle" x="234.38" y="-44.5" font-family="Helvetica,sans-Serif" font-size="10.00">DS3231::applyTimezone</text>
</a>
</g>
</g>
<!-- Node1&#45;&gt;Node2 -->
<g id="edge1_Node000001_Node000002" class="edge">
<title>Node1&#45;&gt;Node2</title>
<g id="a_edge1_Node000001_Node000002"><a xlink:title=" ">
<path fill="none" stroke="#63b8ff" d="M137.03,-36.84C145,-37.76 153.17,-38.71 161.2,-39.64"/>
<polygon fill="#63b8ff" stroke="#63b8ff" points="160.6,-43.09 170.94,-40.77 161.41,-36.14 160.6,-43.09"/>
</a>
</g>
</g>
<!-- Node5 -->
<g id="Node000005" class="node">
<title>Node5</title>
<g id="a_Node000005"><a xlink:href="class_d_s3231.html#aa19b08f3978eea489bc8af3a84d67e59" target="_top" xlink:title=" ">
<polygon fill="white" stroke="#666666" points="291.12,-20 177.62,-20 177.62,0 291.12,0 291.12,-20"/>
<text text-anchor="middle" x="234.38" y="-6.5" font-family="Helvetica,sans-Serif" font-size="10.00">DS3231::getDateTime</text>
</a>
</g>
</g>
<!-- Node1&#45;&gt;Node5 -->
<g id="edge4_Node000001_Node000005" class="edge">
<title>Node1&#45;&gt;Node5</title>
<g id="a_edge4_Node000001_Node000005"><a xlink:title=" ">
<path fill="none" stroke="#63b8ff" d="M137.03,-21.16C146.67,-20.05 156.58,-18.9 166.21,-17.78"/>
<polygon fill="#63b8ff" stroke="#63b8ff" points="166.32,-21.29 175.85,-16.66 165.51,-14.34 166.32,-21.29"/>
</a>
</g>
</g>
<!-- Node3 -->
<g id="Node000003" class="node">
<title>Node3</title>
<g id="a_Node000003"><a xlink:href="class_d_s3231.html#ae6c4f2144a772c44f7adbace7f86dfa1" target="_top" xlink:title=" ">
<polygon fill="white" stroke="#666666" points="460.5,-96 332,-96 332,-76 460.5,-76 460.5,-96"/>
<text text-anchor="middle" x="396.25" y="-82.5" font-family="Helvetica,sans-Serif" font-size="10.00">DS3231::dateTimeToUnix</text>
</a>
</g>
</g>
<!-- Node2&#45;&gt;Node3 -->
<g id="edge2_Node000002_Node000003" class="edge">
<title>Node2&#45;&gt;Node3</title>
<g id="a_edge2_Node000002_Node000003"><a xlink:title=" ">
<path fill="none" stroke="#63b8ff" d="M279.48,-58.48C298.27,-62.95 320.38,-68.21 340.22,-72.92"/>
<polygon fill="#63b8ff" stroke="#63b8ff" points="339.27,-76.29 349.81,-75.2 340.89,-69.48 339.27,-76.29"/>
</a>
</g>
</g>
<!-- Node4 -->
<g id="Node000004" class="node">
<title>Node4</title>
<g id="a_Node000004"><a xlink:href="class_d_s3231.html#a40a965b965496e5b0e7758040c5d9ce7" target="_top" xlink:title=" ">
<polygon fill="white" stroke="#666666" points="460.5,-58 332,-58 332,-38 460.5,-38 460.5,-58"/>
<text text-anchor="middle" x="396.25" y="-44.5" font-family="Helvetica,sans-Serif" font-size="10.00">DS3231::unixToDateTime</text>
</a>
</g>
</g>
<!-- Node2&#45;&gt;Node4 -->
<g id="edge3_Node000002_Node000004" class="edge">
<title>Node2&#45;&gt;Node4</title>
<g id="a_edge3_Node000002_Node000004"><a xlink:title=" ">
<path fill="none" stroke="#63b8ff" d="M296.27,-48C304.13,-48 312.25,-48 320.3,-48"/>
<polygon fill="#63b8ff" stroke="#63b8ff" points="320.09,-51.5 330.09,-48 320.09,-44.5 320.09,-51.5"/>
</a>
</g>
</g>
<!-- Node6 -->
<g id="Node000006" class="node">
<title>Node6</title>
<g id="a_Node000006"><a xlink:href="class_d_s3231.html#a389e756fdd8f645d6025906bbce5abd8" target="_top" xlink:title=" ">
<polygon fill="white" stroke="#666666" points="441.75,-20 350.75,-20 350.75,0 441.75,0 441.75,-20"/>
<text text-anchor="middle" x="396.25" y="-6.5" font-family="Helvetica,sans-Serif" font-size="10.00">DS3231::bcd2bin</text>
</a>
</g>
</g>
<!-- Node5&#45;&gt;Node6 -->
<g id="edge5_Node000005_Node000006" class="edge">
<title>Node5&#45;&gt;Node6</title>
<g id="a_edge5_Node000005_Node000006"><a xlink:title=" ">
<path fill="none" stroke="#63b8ff" d="M291.29,-10C306.87,-10 323.79,-10 339.37,-10"/>
<polygon fill="#63b8ff" stroke="#63b8ff" points="338.92,-13.5 348.92,-10 338.92,-6.5 338.92,-13.5"/>
</a>
</g>
</g>
</g>
</svg>
