<?xml version="1.0" encoding="UTF-8" standalone="no"?>
<!DOCTYPE svg PUBLIC "-//W3C//DTD SVG 1.1//EN"
 "http://www.w3.org/Graphics/SVG/1.1/DTD/svg11.dtd">
<!-- Generated by graphviz version 12.2.1 (20241206.2353)
 -->
<!-- Title: INA3221::set_bus_measurement_disable Pages: 1 -->
<svg width="290pt" height="66pt"
 viewBox="0.00 0.00 289.75 66.00" xmlns="http://www.w3.org/2000/svg" xmlns:xlink="http://www.w3.org/1999/xlink">
<g id="graph0" class="graph" transform="scale(1 1) rotate(0) translate(4 62)">
<title>INA3221::set_bus_measurement_disable</title>
<!-- Node1 -->
<g id="Node000001" class="node">
<title>Node1</title>
<g id="a_Node000001"><a xlink:title=" ">
<polygon fill="#999999" stroke="#666666" points="159.25,-45 0,-45 0,-13 159.25,-13 159.25,-45"/>
<text text-anchor="start" x="8" y="-31.5" font-family="Helvetica,sans-Serif" font-size="10.00">INA3221::set_bus_measurement</text>
<text text-anchor="middle" x="79.62" y="-19.5" font-family="Helvetica,sans-Serif" font-size="10.00">_disable</text>
</a>
</g>
</g>
<!-- Node2 -->
<g id="Node000002" class="node">
<title>Node2</title>
<g id="a_Node000002"><a xlink:href="class_i_n_a3221.html#a0b4c630038abf482bef36f3083ab20ff" target="_top" xlink:title=" ">
<polygon fill="white" stroke="#666666" points="280.62,-58 196.38,-58 196.38,-38 280.62,-38 280.62,-58"/>
<text text-anchor="middle" x="238.5" y="-44.5" font-family="Helvetica,sans-Serif" font-size="10.00">INA3221::_read</text>
</a>
</g>
</g>
<!-- Node1&#45;&gt;Node2 -->
<g id="edge1_Node000001_Node000002" class="edge">
<title>Node1&#45;&gt;Node2</title>
<g id="a_edge1_Node000001_Node000002"><a xlink:title=" ">
<path fill="none" stroke="#63b8ff" d="M159.52,-38.56C168.13,-39.6 176.73,-40.64 184.91,-41.63"/>
<polygon fill="#63b8ff" stroke="#63b8ff" points="184.3,-45.08 194.65,-42.81 185.14,-38.13 184.3,-45.08"/>
</a>
</g>
</g>
<!-- Node3 -->
<g id="Node000003" class="node">
<title>Node3</title>
<g id="a_Node000003"><a xlink:href="class_i_n_a3221.html#aea00c9c6baf85bd94794ee7b3b47d2c7" target="_top" xlink:title=" ">
<polygon fill="white" stroke="#666666" points="281.75,-20 195.25,-20 195.25,0 281.75,0 281.75,-20"/>
<text text-anchor="middle" x="238.5" y="-6.5" font-family="Helvetica,sans-Serif" font-size="10.00">INA3221::_write</text>
</a>
</g>
</g>
<!-- Node1&#45;&gt;Node3 -->
<g id="edge2_Node000001_Node000003" class="edge">
<title>Node1&#45;&gt;Node3</title>
<g id="a_edge2_Node000001_Node000003"><a xlink:title=" ">
<path fill="none" stroke="#63b8ff" d="M159.52,-19.44C167.72,-18.45 175.92,-17.46 183.75,-16.51"/>
<polygon fill="#63b8ff" stroke="#63b8ff" points="183.91,-20.02 193.42,-15.34 183.07,-13.07 183.91,-20.02"/>
</a>
</g>
</g>
</g>
</svg>
