<?xml version="1.0" encoding="UTF-8" standalone="no"?>
<!DOCTYPE svg PUBLIC "-//W3C//DTD SVG 1.1//EN"
 "http://www.w3.org/Graphics/SVG/1.1/DTD/svg11.dtd">
<!-- Generated by graphviz version 12.2.1 (20241206.2353)
 -->
<!-- Title: LoRaClass::peek Pages: 1 -->
<svg width="578pt" height="104pt"
 viewBox="0.00 0.00 577.50 104.00" xmlns="http://www.w3.org/2000/svg" xmlns:xlink="http://www.w3.org/1999/xlink">
<g id="graph0" class="graph" transform="scale(1 1) rotate(0) translate(4 100)">
<title>LoRaClass::peek</title>
<!-- Node1 -->
<g id="Node000001" class="node">
<title>Node1</title>
<g id="a_Node000001"><a xlink:title=" ">
<polygon fill="#999999" stroke="#666666" points="91.75,-58 0,-58 0,-38 91.75,-38 91.75,-58"/>
<text text-anchor="middle" x="45.88" y="-44.5" font-family="Helvetica,sans-Serif" font-size="10.00">LoRaClass::peek</text>
</a>
</g>
</g>
<!-- Node2 -->
<g id="Node000002" class="node">
<title>Node2</title>
<g id="a_Node000002"><a xlink:href="class_lo_ra_class.html#a99f2ee51a5ab27319cc965ebd575e58c" target="_top" xlink:title=" ">
<polygon fill="white" stroke="#666666" points="236.75,-96 127.75,-96 127.75,-76 236.75,-76 236.75,-96"/>
<text text-anchor="middle" x="182.25" y="-82.5" font-family="Helvetica,sans-Serif" font-size="10.00">LoRaClass::available</text>
</a>
</g>
</g>
<!-- Node1&#45;&gt;Node2 -->
<g id="edge1_Node000001_Node000002" class="edge">
<title>Node1&#45;&gt;Node2</title>
<g id="a_edge1_Node000001_Node000002"><a xlink:title=" ">
<path fill="none" stroke="#63b8ff" d="M83.95,-58.48C99.22,-62.8 117.12,-67.86 133.36,-72.46"/>
<polygon fill="#63b8ff" stroke="#63b8ff" points="132.27,-75.78 142.84,-75.14 134.17,-69.05 132.27,-75.78"/>
</a>
</g>
</g>
<!-- Node3 -->
<g id="Node000003" class="node">
<title>Node3</title>
<g id="a_Node000003"><a xlink:href="class_lo_ra_class.html#add581bfe66dd75108e22b18a4d6f89bf" target="_top" xlink:title=" ">
<polygon fill="white" stroke="#666666" points="400.12,-58 273.88,-58 273.88,-38 400.12,-38 400.12,-58"/>
<text text-anchor="middle" x="337" y="-44.5" font-family="Helvetica,sans-Serif" font-size="10.00">LoRaClass::readRegister</text>
</a>
</g>
</g>
<!-- Node1&#45;&gt;Node3 -->
<g id="edge4_Node000001_Node000003" class="edge">
<title>Node1&#45;&gt;Node3</title>
<g id="a_edge4_Node000001_Node000003"><a xlink:title=" ">
<path fill="none" stroke="#63b8ff" d="M92.05,-48C137.57,-48 208.57,-48 262.26,-48"/>
<polygon fill="#63b8ff" stroke="#63b8ff" points="261.93,-51.5 271.93,-48 261.93,-44.5 261.93,-51.5"/>
</a>
</g>
</g>
<!-- Node5 -->
<g id="Node000005" class="node">
<title>Node5</title>
<g id="a_Node000005"><a xlink:href="class_lo_ra_class.html#a77e7c77aa54174b352a26e1510f66f98" target="_top" xlink:title=" ">
<polygon fill="white" stroke="#666666" points="401.25,-20 272.75,-20 272.75,0 401.25,0 401.25,-20"/>
<text text-anchor="middle" x="337" y="-6.5" font-family="Helvetica,sans-Serif" font-size="10.00">LoRaClass::writeRegister</text>
</a>
</g>
</g>
<!-- Node1&#45;&gt;Node5 -->
<g id="edge5_Node000001_Node000005" class="edge">
<title>Node1&#45;&gt;Node5</title>
<g id="a_edge5_Node000001_Node000005"><a xlink:title=" ">
<path fill="none" stroke="#63b8ff" d="M92.05,-42.06C137.27,-36.12 207.65,-26.87 261.21,-19.83"/>
<polygon fill="#63b8ff" stroke="#63b8ff" points="261.41,-23.33 270.87,-18.56 260.5,-16.39 261.41,-23.33"/>
</a>
</g>
</g>
<!-- Node2&#45;&gt;Node3 -->
<g id="edge2_Node000002_Node000003" class="edge">
<title>Node2&#45;&gt;Node3</title>
<g id="a_edge2_Node000002_Node000003"><a xlink:title=" ">
<path fill="none" stroke="#63b8ff" d="M225.39,-75.52C243.17,-71.09 264.08,-65.89 282.89,-61.21"/>
<polygon fill="#63b8ff" stroke="#63b8ff" points="283.67,-64.63 292.52,-58.82 281.98,-57.83 283.67,-64.63"/>
</a>
</g>
</g>
<!-- Node4 -->
<g id="Node000004" class="node">
<title>Node4</title>
<g id="a_Node000004"><a xlink:href="class_lo_ra_class.html#a3a0c0649c595b1176b5fb1ae41210ee3" target="_top" xlink:title=" ">
<polygon fill="white" stroke="#666666" points="569.5,-39 437.25,-39 437.25,-19 569.5,-19 569.5,-39"/>
<text text-anchor="middle" x="503.38" y="-25.5" font-family="Helvetica,sans-Serif" font-size="10.00">LoRaClass::singleTransfer</text>
</a>
</g>
</g>
<!-- Node3&#45;&gt;Node4 -->
<g id="edge3_Node000003_Node000004" class="edge">
<title>Node3&#45;&gt;Node4</title>
<g id="a_edge3_Node000003_Node000004"><a xlink:title=" ">
<path fill="none" stroke="#63b8ff" d="M400.61,-40.76C408.78,-39.82 417.23,-38.84 425.6,-37.87"/>
<polygon fill="#63b8ff" stroke="#63b8ff" points="425.9,-41.36 435.43,-36.74 425.09,-34.41 425.9,-41.36"/>
</a>
</g>
</g>
<!-- Node5&#45;&gt;Node4 -->
<g id="edge6_Node000005_Node000004" class="edge">
<title>Node5&#45;&gt;Node4</title>
<g id="a_edge6_Node000005_Node000004"><a xlink:title=" ">
<path fill="none" stroke="#63b8ff" d="M401.55,-17.35C409.41,-18.25 417.51,-19.19 425.54,-20.12"/>
<polygon fill="#63b8ff" stroke="#63b8ff" points="424.98,-23.58 435.32,-21.25 425.78,-16.62 424.98,-23.58"/>
</a>
</g>
</g>
</g>
</svg>
