<?xml version="1.0" encoding="UTF-8" standalone="no"?>
<!DOCTYPE svg PUBLIC "-//W3C//DTD SVG 1.1//EN"
 "http://www.w3.org/Graphics/SVG/1.1/DTD/svg11.dtd">
<!-- Generated by graphviz version 12.2.1 (20241206.2353)
 -->
<!-- Title: DS3231::dateTimeToUnix Pages: 1 -->
<svg width="469pt" height="66pt"
 viewBox="0.00 0.00 468.50 66.00" xmlns="http://www.w3.org/2000/svg" xmlns:xlink="http://www.w3.org/1999/xlink">

<svg id="main" version="1.1" xmlns="http://www.w3.org/2000/svg" xmlns:xlink="http://www.w3.org/1999/xlink" xml:space="preserve">

<style type="text/css"><![CDATA[
.node, .edge {opacity: 0.7;}
.node.selected, .edge.selected {opacity: 1;}
.edge:hover path { stroke: red; }
.edge:hover polygon { stroke: red; fill: red; }
]]></style>
<script type="application/ecmascript" xlink:href="svg.min.js"/>
<svg id="graph" class="graph">
<g id="graph0" class="graph" transform="scale(1 1) rotate(0) translate(4 62)">
<title>DS3231::dateTimeToUnix</title>
<!-- Node1 -->
<g id="Node000001" class="node">
<title>Node1</title>
<g id="a_Node000001"><a xlink:title=" ">
<polygon fill="#999999" stroke="#666666" points="460.5,-39 332,-39 332,-19 460.5,-19 460.5,-39"/>
<text text-anchor="middle" x="396.25" y="-25.5" font-family="Helvetica,sans-Serif" font-size="10.00">DS3231::dateTimeToUnix</text>
</a>
</g>
</g>
<!-- Node2 -->
<g id="Node000002" class="node">
<title>Node2</title>
<g id="a_Node000002"><a xlink:href="class_d_s3231.html#accd8b405f5d30b7b26bb2ca4d84a8fa8" target="_top" xlink:title=" ">
<polygon fill="white" stroke="#666666" points="296,-58 172.75,-58 172.75,-38 296,-38 296,-58"/>
<text text-anchor="middle" x="234.38" y="-44.5" font-family="Helvetica,sans-Serif" font-size="10.00">DS3231::applyTimezone</text>
</a>
</g>
</g>
<!-- Node1&#45;&gt;Node2 -->
<g id="edge1_Node000001_Node000002" class="edge">
<title>Node1&#45;&gt;Node2</title>
<g id="a_edge1_Node000001_Node000002"><a xlink:title=" ">
<path fill="none" stroke="#63b8ff" d="M320.36,-37.9C312.35,-38.85 304.28,-39.81 296.46,-40.74"/>
<polygon fill="#63b8ff" stroke="#63b8ff" points="320.58,-41.4 330.1,-36.74 319.76,-34.45 320.58,-41.4"/>
</a>
</g>
</g>
<!-- Node4 -->
<g id="Node000004" class="node">
<title>Node4</title>
<g id="a_Node000004"><a xlink:href="class_d_s3231.html#a93399e0145a53c558e316f6f95a20679" target="_top" xlink:title=" ">
<polygon fill="white" stroke="#666666" points="290.75,-20 178,-20 178,0 290.75,0 290.75,-20"/>
<text text-anchor="middle" x="234.38" y="-6.5" font-family="Helvetica,sans-Serif" font-size="10.00">DS3231::getTimeUnix</text>
</a>
</g>
</g>
<!-- Node1&#45;&gt;Node4 -->
<g id="edge3_Node000001_Node000004" class="edge">
<title>Node1&#45;&gt;Node4</title>
<g id="a_edge3_Node000001_Node000004"><a xlink:title=" ">
<path fill="none" stroke="#63b8ff" d="M320.17,-20.08C310.37,-18.91 300.46,-17.74 291.05,-16.62"/>
<polygon fill="#63b8ff" stroke="#63b8ff" points="319.76,-23.55 330.1,-21.26 320.58,-16.6 319.76,-23.55"/>
</a>
</g>
</g>
<!-- Node3 -->
<g id="Node000003" class="node">
<title>Node3</title>
<g id="a_Node000003"><a xlink:href="class_d_s3231.html#a4b893299918613d8fb3521793b848d6d" target="_top" xlink:title=" ">
<polygon fill="white" stroke="#666666" points="136.75,-58 0,-58 0,-38 136.75,-38 136.75,-58"/>
<text text-anchor="middle" x="68.38" y="-44.5" font-family="Helvetica,sans-Serif" font-size="10.00">DS3231::getDateTimeLocal</text>
</a>
</g>
</g>
<!-- Node2&#45;&gt;Node3 -->
<g id="edge2_Node000002_Node000003" class="edge">
<title>Node2&#45;&gt;Node3</title>
<g id="a_edge2_Node000002_Node000003"><a xlink:title=" ">
<path fill="none" stroke="#63b8ff" d="M160.86,-48C152.96,-48 144.94,-48 137.11,-48"/>
<polygon fill="#63b8ff" stroke="#63b8ff" points="160.79,-51.5 170.79,-48 160.79,-44.5 160.79,-51.5"/>
</a>
</g>
</g>
<!-- Node5 -->
<g id="Node000005" class="node">
<title>Node5</title>
<g id="a_Node000005"><a xlink:href="class_d_s3231.html#ad95e3e60f1d82c37e7c03fac84249bc6" target="_top" xlink:title=" ">
<polygon fill="white" stroke="#666666" points="136.38,-20 0.38,-20 0.38,0 136.38,0 136.38,-20"/>
<text text-anchor="middle" x="68.38" y="-6.5" font-family="Helvetica,sans-Serif" font-size="10.00">DS3231::getTimeUnixLocal</text>
</a>
</g>
</g>
<!-- Node4&#45;&gt;Node5 -->
<g id="edge4_Node000004_Node000005" class="edge">
<title>Node4&#45;&gt;Node5</title>
<g id="a_edge4_Node000004_Node000005"><a xlink:title=" ">
<path fill="none" stroke="#63b8ff" d="M166.51,-10C156.7,-10 146.59,-10 136.78,-10"/>
<polygon fill="#63b8ff" stroke="#63b8ff" points="166.34,-13.5 176.34,-10 166.34,-6.5 166.34,-13.5"/>
</a>
</g>
</g>
</g>
</svg>
</svg>

<style type='text/css'>
<![CDATA[
[data-mouse-over-selected='false'] { opacity: 0.7; }
[data-mouse-over-selected='true']  { opacity: 1.0; }
]]>
</style>
<script type="application/ecmascript"><![CDATA[
document.addEventListener('DOMContentLoaded', (event) => {
  highlightEdges();
  highlightAdjacentNodes();
});
]]></script>
</svg>
