<?xml version="1.0" encoding="UTF-8" standalone="no"?>
<!DOCTYPE svg PUBLIC "-//W3C//DTD SVG 1.1//EN"
 "http://www.w3.org/Graphics/SVG/1.1/DTD/svg11.dtd">
<!-- Generated by graphviz version 12.2.1 (20241206.2353)
 -->
<!-- Title: ErriezDS3231::setTime Pages: 1 -->
<!--zoomable 218 -->

<svg id="main" version="1.1" xmlns="http://www.w3.org/2000/svg" xmlns:xlink="http://www.w3.org/1999/xlink" xml:space="preserve" onload="init(evt)">

<style type="text/css"><![CDATA[
.node, .edge {opacity: 0.7;}
.node.selected, .edge.selected {opacity: 1;}
.edge:hover path { stroke: red; }
.edge:hover polygon { stroke: red; fill: red; }
]]></style>

<defs>
  <circle id="rim" cx="0" cy="0" r="7"/>
  <circle id="rim2" cx="0" cy="0" r="3.5"/>
  <g id="zoomPlus">
    <use xlink:href="#rim" fill="#404040"><set attributeName="fill" to="#808080" begin="zoomplus.mouseover" end="zoomplus.mouseout"/></use>
    <path d="M-4,0h8M0,-4v8" fill="none" stroke="white" stroke-width="1.5" pointer-events="none"/>
  </g>
  <g id="zoomMin">
    <use xlink:href="#rim" fill="#404040"><set attributeName="fill" to="#808080" begin="zoomminus.mouseover" end="zoomminus.mouseout"/></use>
    <path d="M-4,0h8" fill="none" stroke="white" stroke-width="1.5" pointer-events="none"/>
  </g>
  <g id="arrowUp" transform="translate(30 24)">
    <use xlink:href="#rim"/>
    <path pointer-events="none" fill="none" stroke="white" stroke-width="1.5" d="M0,-3.0v7 M-2.5,-0.5L0,-3.0L2.5,-0.5"/>
  </g>
  <g id="arrowRight" transform="rotate(90) translate(36 -43)">
    <use xlink:href="#rim"/>
    <path pointer-events="none" fill="none" stroke="white" stroke-width="1.5" d="M0,-3.0v7 M-2.5,-0.5L0,-3.0L2.5,-0.5"/>
  </g>
  <g id="arrowDown" transform="rotate(180) translate(-30 -48)">
    <use xlink:href="#rim"/>
    <path pointer-events="none" fill="none" stroke="white" stroke-width="1.5" d="M0,-3.0v7 M-2.5,-0.5L0,-3.0L2.5,-0.5"/>
  </g>
  <g id="arrowLeft" transform="rotate(270) translate(-36 17)">
    <use xlink:href="#rim"/>
    <path pointer-events="none" fill="none" stroke="white" stroke-width="1.5" d="M0,-3.0v7 M-2.5,-0.5L0,-3.0L2.5,-0.5"/>
  </g>
  <g id="resetDef">
    <use xlink:href="#rim2" fill="#404040"><set attributeName="fill" to="#808080" begin="reset.mouseover" end="reset.mouseout"/></use>
  </g>
</defs>
<script type="application/ecmascript">
var viewWidth = 780;
var viewHeight = 218;
var sectionId = 'dynsection-10';
</script>
<script type="application/ecmascript" xlink:href="svg.min.js"/>
<svg id="graph" class="graph">
<g id="viewport">
<title>ErriezDS3231::setTime</title>
<!-- Node1 -->
<g id="Node000001" class="node">
<title>Node1</title>
<g id="a_Node000001"><a xlink:title="Write time to RTC.">
<polygon fill="#999999" stroke="#666666" points="118,-115 0,-115 0,-95 118,-95 118,-115"/>
<text text-anchor="middle" x="59" y="-101.5" font-family="Helvetica,sans-Serif" font-size="10.00">ErriezDS3231::setTime</text>
</a>
</g>
</g>
<!-- Node2 -->
<g id="Node000002" class="node">
<title>Node2</title>
<g id="a_Node000002"><a xlink:href="class_erriez_d_s3231.html#a0261677270cc639a23daebbabcf0e6fc" target="_top" xlink:title="Read date and time from RTC.">
<polygon fill="white" stroke="#666666" points="256.62,-172 155.12,-172 155.12,-152 256.62,-152 256.62,-172"/>
<text text-anchor="middle" x="205.88" y="-158.5" font-family="Helvetica,sans-Serif" font-size="10.00">ErriezDS3231::read</text>
</a>
</g>
</g>
<!-- Node1&#45;&gt;Node2 -->
<g id="edge1_Node000001_Node000002" class="edge">
<title>Node1&#45;&gt;Node2</title>
<g id="a_edge1_Node000001_Node000002"><a xlink:title=" ">
<path fill="none" stroke="#63b8ff" d="M86.57,-115.45C109.34,-124.41 142.39,-137.41 167.77,-147.4"/>
<polygon fill="#63b8ff" stroke="#63b8ff" points="166.48,-150.65 177.06,-151.06 169.04,-144.14 166.48,-150.65"/>
</a>
</g>
</g>
<!-- Node5 -->
<g id="Node000005" class="node">
<title>Node5</title>
<g id="a_Node000005"><a xlink:href="class_erriez_d_s3231.html#a50426dfe02af86852f777e392936fa08" target="_top" xlink:title="Write date and time to RTC.">
<polygon fill="white" stroke="#666666" points="257.75,-77 154,-77 154,-57 257.75,-57 257.75,-77"/>
<text text-anchor="middle" x="205.88" y="-63.5" font-family="Helvetica,sans-Serif" font-size="10.00">ErriezDS3231::write</text>
</a>
</g>
</g>
<!-- Node1&#45;&gt;Node5 -->
<g id="edge4_Node000001_Node000005" class="edge">
<title>Node1&#45;&gt;Node5</title>
<g id="a_edge4_Node000001_Node000005"><a xlink:title=" ">
<path fill="none" stroke="#63b8ff" d="M99.97,-94.52C116.68,-90.13 136.29,-84.99 154,-80.34"/>
<polygon fill="#63b8ff" stroke="#63b8ff" points="154.79,-83.76 163.57,-77.83 153.01,-76.99 154.79,-83.76"/>
</a>
</g>
</g>
<!-- Node3 -->
<g id="Node000003" class="node">
<title>Node3</title>
<g id="a_Node000003"><a xlink:href="class_erriez_d_s3231.html#a471af5f04b95c6021e9d5a551ad46099" target="_top" xlink:title="BCD to decimal conversion.">
<polygon fill="white" stroke="#666666" points="425.25,-210 298.25,-210 298.25,-190 425.25,-190 425.25,-210"/>
<text text-anchor="middle" x="361.75" y="-196.5" font-family="Helvetica,sans-Serif" font-size="10.00">ErriezDS3231::bcdToDec</text>
</a>
</g>
</g>
<!-- Node2&#45;&gt;Node3 -->
<g id="edge2_Node000002_Node000003" class="edge">
<title>Node2&#45;&gt;Node3</title>
<g id="a_edge2_Node000002_Node000003"><a xlink:title=" ">
<path fill="none" stroke="#63b8ff" d="M249.33,-172.48C267.33,-176.93 288.49,-182.16 307.52,-186.85"/>
<polygon fill="#63b8ff" stroke="#63b8ff" points="306.42,-190.19 316.96,-189.19 308.1,-183.39 306.42,-190.19"/>
</a>
</g>
</g>
<!-- Node4 -->
<g id="Node000004" class="node">
<title>Node4</title>
<g id="a_Node000004"><a xlink:href="class_erriez_d_s3231.html#a9715869e0186e4f6a30dfd6a372875c1" target="_top" xlink:title="Read buffer from RTC.">
<polygon fill="white" stroke="#666666" points="770.38,-143 643.38,-143 643.38,-123 770.38,-123 770.38,-143"/>
<text text-anchor="middle" x="706.88" y="-129.5" font-family="Helvetica,sans-Serif" font-size="10.00">ErriezDS3231::readBuffer</text>
</a>
</g>
</g>
<!-- Node2&#45;&gt;Node4 -->
<g id="edge3_Node000002_Node000004" class="edge">
<title>Node2&#45;&gt;Node4</title>
<g id="a_edge3_Node000002_Node000004"><a xlink:title=" ">
<path fill="none" stroke="#63b8ff" d="M257.05,-160.46C332.78,-157.94 480.78,-152.28 606.25,-143 614.51,-142.39 623.14,-141.66 631.72,-140.88"/>
<polygon fill="#63b8ff" stroke="#63b8ff" points="631.81,-144.38 641.44,-139.96 631.15,-137.42 631.81,-144.38"/>
</a>
</g>
</g>
<!-- Node6 -->
<g id="Node000006" class="node">
<title>Node6</title>
<g id="a_Node000006"><a xlink:href="class_erriez_d_s3231.html#a47dd1340fc2ecac52cff00c3cffc7e6d" target="_top" xlink:title="Enable or disable oscillator when running on V&#45;BAT.">
<polygon fill="white" stroke="#666666" points="429.75,-96 293.75,-96 293.75,-76 429.75,-76 429.75,-96"/>
<text text-anchor="middle" x="361.75" y="-82.5" font-family="Helvetica,sans-Serif" font-size="10.00">ErriezDS3231::clockEnable</text>
</a>
</g>
</g>
<!-- Node5&#45;&gt;Node6 -->
<g id="edge5_Node000005_Node000006" class="edge">
<title>Node5&#45;&gt;Node6</title>
<g id="a_edge5_Node000005_Node000006"><a xlink:title=" ">
<path fill="none" stroke="#63b8ff" d="M258.11,-73.33C265.78,-74.27 273.83,-75.27 281.91,-76.26"/>
<polygon fill="#63b8ff" stroke="#63b8ff" points="281.45,-79.74 291.81,-77.49 282.31,-72.79 281.45,-79.74"/>
</a>
</g>
</g>
<!-- Node9 -->
<g id="Node000009" class="node">
<title>Node9</title>
<g id="a_Node000009"><a xlink:href="class_erriez_d_s3231.html#a7cd8a1aa0a720d8ecc687e58ddfe110d" target="_top" xlink:title="Write buffer to RTC.">
<polygon fill="white" stroke="#666666" points="771.5,-86 642.25,-86 642.25,-66 771.5,-66 771.5,-86"/>
<text text-anchor="middle" x="706.88" y="-72.5" font-family="Helvetica,sans-Serif" font-size="10.00">ErriezDS3231::writeBuffer</text>
</a>
</g>
</g>
<!-- Node5&#45;&gt;Node9 -->
<g id="edge11_Node000005_Node000009" class="edge">
<title>Node5&#45;&gt;Node9</title>
<g id="a_edge11_Node000005_Node000009"><a xlink:title=" ">
<path fill="none" stroke="#63b8ff" d="M257.97,-65.53C333.96,-63.68 481.23,-61.36 606.25,-67 614.09,-67.35 622.27,-67.86 630.42,-68.46"/>
<polygon fill="#63b8ff" stroke="#63b8ff" points="630.14,-71.95 640.38,-69.24 630.69,-64.97 630.14,-71.95"/>
</a>
</g>
</g>
<!-- Node10 -->
<g id="Node000010" class="node">
<title>Node10</title>
<g id="a_Node000010"><a xlink:href="class_erriez_d_s3231.html#a169b93f6712c85c516a629b96ab0e3c8" target="_top" xlink:title="Decimal to BCD conversion.">
<polygon fill="white" stroke="#666666" points="424.88,-20 298.62,-20 298.62,0 424.88,0 424.88,-20"/>
<text text-anchor="middle" x="361.75" y="-6.5" font-family="Helvetica,sans-Serif" font-size="10.00">ErriezDS3231::decToBcd</text>
</a>
</g>
</g>
<!-- Node5&#45;&gt;Node10 -->
<g id="edge10_Node000005_Node000010" class="edge">
<title>Node5&#45;&gt;Node10</title>
<g id="a_edge10_Node000005_Node000010"><a xlink:title=" ">
<path fill="none" stroke="#63b8ff" d="M233.83,-56.61C250.96,-50.05 273.62,-41.43 293.75,-34 302.49,-30.78 311.88,-27.37 320.8,-24.17"/>
<polygon fill="#63b8ff" stroke="#63b8ff" points="321.69,-27.57 329.93,-20.9 319.33,-20.98 321.69,-27.57"/>
</a>
</g>
</g>
<!-- Node7 -->
<g id="Node000007" class="node">
<title>Node7</title>
<g id="a_Node000007"><a xlink:href="class_erriez_d_s3231.html#aab9ee8e4653b2806a82cf12a22c5c1dd" target="_top" xlink:title="Read register.">
<polygon fill="white" stroke="#666666" points="605.12,-134 466.88,-134 466.88,-114 605.12,-114 605.12,-134"/>
<text text-anchor="middle" x="536" y="-120.5" font-family="Helvetica,sans-Serif" font-size="10.00">ErriezDS3231::readRegister</text>
</a>
</g>
</g>
<!-- Node6&#45;&gt;Node7 -->
<g id="edge6_Node000006_Node000007" class="edge">
<title>Node6&#45;&gt;Node7</title>
<g id="a_edge6_Node000006_Node000007"><a xlink:title=" ">
<path fill="none" stroke="#63b8ff" d="M410.27,-96.48C430.8,-101.01 455,-106.35 476.61,-111.12"/>
<polygon fill="#63b8ff" stroke="#63b8ff" points="475.63,-114.49 486.15,-113.22 477.14,-107.65 475.63,-114.49"/>
</a>
</g>
</g>
<!-- Node8 -->
<g id="Node000008" class="node">
<title>Node8</title>
<g id="a_Node000008"><a xlink:href="class_erriez_d_s3231.html#a2d53e7b9c88c576fe778502b7845a5ce" target="_top" xlink:title="Write register.">
<polygon fill="white" stroke="#666666" points="606.25,-96 465.75,-96 465.75,-76 606.25,-76 606.25,-96"/>
<text text-anchor="middle" x="536" y="-82.5" font-family="Helvetica,sans-Serif" font-size="10.00">ErriezDS3231::writeRegister</text>
</a>
</g>
</g>
<!-- Node6&#45;&gt;Node8 -->
<g id="edge8_Node000006_Node000008" class="edge">
<title>Node6&#45;&gt;Node8</title>
<g id="a_edge8_Node000006_Node000008"><a xlink:title=" ">
<path fill="none" stroke="#63b8ff" d="M429.84,-86C437.74,-86 445.86,-86 453.92,-86"/>
<polygon fill="#63b8ff" stroke="#63b8ff" points="453.74,-89.5 463.74,-86 453.74,-82.5 453.74,-89.5"/>
</a>
</g>
</g>
<!-- Node7&#45;&gt;Node4 -->
<g id="edge7_Node000007_Node000004" class="edge">
<title>Node7&#45;&gt;Node4</title>
<g id="a_edge7_Node000007_Node000004"><a xlink:title=" ">
<path fill="none" stroke="#63b8ff" d="M605.2,-127.63C613.86,-128.1 622.75,-128.57 631.5,-129.04"/>
<polygon fill="#63b8ff" stroke="#63b8ff" points="631.2,-132.52 641.37,-129.56 631.57,-125.53 631.2,-132.52"/>
</a>
</g>
</g>
<!-- Node8&#45;&gt;Node9 -->
<g id="edge9_Node000008_Node000009" class="edge">
<title>Node8&#45;&gt;Node9</title>
<g id="a_edge9_Node000008_Node000009"><a xlink:title=" ">
<path fill="none" stroke="#63b8ff" d="M606.66,-81.87C614.48,-81.41 622.46,-80.94 630.35,-80.47"/>
<polygon fill="#63b8ff" stroke="#63b8ff" points="630.5,-83.97 640.28,-79.88 630.09,-76.98 630.5,-83.97"/>
</a>
</g>
</g>
</g>
</svg>

<g id="navigator" transform="translate(0 0)" fill="#404254">
  <rect fill="#f2f5e9" fill-opacity="0.5" stroke="#606060" stroke-width=".5" x="0" y="0" width="60" height="60"/>
  <use id="zoomplus" xlink:href="#zoomPlus" x="17" y="9" onmousedown="handleZoom(evt,'in')"/>
  <use id="zoomminus" xlink:href="#zoomMin" x="42" y="9" onmousedown="handleZoom(evt,'out')"/>
  <use id="reset" xlink:href="#resetDef" x="30" y="36" onmousedown="handleReset()"/>
   <use id="arrowup" xlink:href="#arrowUp" x="0" y="0" onmousedown="handlePan(0,-1)"/>
  <use id="arrowright" xlink:href="#arrowRight" x="0" y="0" onmousedown="handlePan(1,0)"/>
  <use id="arrowdown" xlink:href="#arrowDown" x="0" y="0" onmousedown="handlePan(0,1)"/>
  <use id="arrowleft" xlink:href="#arrowLeft" x="0" y="0" onmousedown="handlePan(-1,0)"/>
</g>
<svg viewBox="0 0 15 15" width="100%" height="30px" preserveAspectRatio="xMaxYMin meet">
 <g id="arrow_out" transform="scale(0.3 0.3)">
  <a xlink:href="class_erriez_d_s3231_a1942791ed2f5550ab5114c2dc2ac6722_cgraph_org.svg" target="_base">
   <rect id="button" ry="5" rx="5" y="6" x="6" height="38" width="38"
        fill="#f2f5e9" fill-opacity="0.5" stroke="#606060" stroke-width="1.0"/>
   <path id="arrow"
     d="M 11.500037,31.436501 C 11.940474,20.09759 22.043105,11.32322 32.158766,21.979434 L 37.068811,17.246167 C 37.068811,17.246167 37.088388,32 37.088388,32 L 22.160133,31.978069 C 22.160133,31.978069 26.997745,27.140456 26.997745,27.140456 C 18.528582,18.264221 13.291696,25.230495 11.500037,31.436501 z"
     style="fill:#404040;"/>
  </a>
 </g>
</svg>

<style type='text/css'>
<![CDATA[
[data-mouse-over-selected='false'] { opacity: 0.7; }
[data-mouse-over-selected='true']  { opacity: 1.0; }
]]>
</style>
<script type="application/ecmascript"><![CDATA[
document.addEventListener('DOMContentLoaded', (event) => {
  highlightEdges();
  highlightAdjacentNodes();
});
]]></script>
</svg>
