<?xml version="1.0" encoding="UTF-8" standalone="no"?>
<!DOCTYPE svg PUBLIC "-//W3C//DTD SVG 1.1//EN"
 "http://www.w3.org/Graphics/SVG/1.1/DTD/svg11.dtd">
<!-- Generated by graphviz version 12.2.1 (20241206.2353)
 -->
<!-- Title: DS3231::get_time Pages: 1 -->
<svg width="252pt" height="104pt"
 viewBox="0.00 0.00 251.50 104.00" xmlns="http://www.w3.org/2000/svg" xmlns:xlink="http://www.w3.org/1999/xlink">
<g id="graph0" class="graph" transform="scale(1 1) rotate(0) translate(4 100)">
<title>DS3231::get_time</title>
<!-- Node1 -->
<g id="Node000001" class="node">
<title>Node1</title>
<g id="a_Node000001"><a xlink:title=" ">
<polygon fill="#999999" stroke="#666666" points="94.75,-58 0,-58 0,-38 94.75,-38 94.75,-58"/>
<text text-anchor="middle" x="47.38" y="-44.5" font-family="Helvetica,sans-Serif" font-size="10.00">DS3231::get_time</text>
</a>
</g>
</g>
<!-- Node2 -->
<g id="Node000002" class="node">
<title>Node2</title>
<g id="a_Node000002"><a xlink:href="class_d_s3231.html#ac7a9f58b408406930da56317de9f2a34" target="_top" xlink:title="Library function that takes a BCD number and converts it to an unsigned 8&#45;bit integer.">
<polygon fill="white" stroke="#666666" points="239.38,-96 134.88,-96 134.88,-76 239.38,-76 239.38,-96"/>
<text text-anchor="middle" x="187.12" y="-82.5" font-family="Helvetica,sans-Serif" font-size="10.00">DS3231::bcd_to_bin</text>
</a>
</g>
</g>
<!-- Node1&#45;&gt;Node2 -->
<g id="edge1_Node000001_Node000002" class="edge">
<title>Node1&#45;&gt;Node2</title>
<g id="a_edge1_Node000001_Node000002"><a xlink:title=" ">
<path fill="none" stroke="#63b8ff" d="M86.38,-58.48C102.19,-62.85 120.73,-67.96 137.52,-72.59"/>
<polygon fill="#63b8ff" stroke="#63b8ff" points="136.21,-75.86 146.78,-75.15 138.08,-69.11 136.21,-75.86"/>
</a>
</g>
</g>
<!-- Node3 -->
<g id="Node000003" class="node">
<title>Node3</title>
<g id="a_Node000003"><a xlink:href="class_d_s3231.html#ae3895581e62c411451d12de3e7558207" target="_top" xlink:title="Library function to read a specific I2C register address.">
<polygon fill="white" stroke="#666666" points="243.5,-58 130.75,-58 130.75,-38 243.5,-38 243.5,-58"/>
<text text-anchor="middle" x="187.12" y="-44.5" font-family="Helvetica,sans-Serif" font-size="10.00">DS3231::i2c_read_reg</text>
</a>
</g>
</g>
<!-- Node1&#45;&gt;Node3 -->
<g id="edge2_Node000001_Node000003" class="edge">
<title>Node1&#45;&gt;Node3</title>
<g id="a_edge2_Node000001_Node000003"><a xlink:title=" ">
<path fill="none" stroke="#63b8ff" d="M95.01,-48C102.76,-48 110.92,-48 119.05,-48"/>
<polygon fill="#63b8ff" stroke="#63b8ff" points="118.97,-51.5 128.97,-48 118.97,-44.5 118.97,-51.5"/>
</a>
</g>
</g>
<!-- Node4 -->
<g id="Node000004" class="node">
<title>Node4</title>
<g id="a_Node000004"><a xlink:href="utils_8cpp.html#acd86977d05fa330749958ace0f2798de" target="_top" xlink:title="Prints a message to the UART with a timestamp and core number.">
<polygon fill="white" stroke="#666666" points="215.38,-20 158.88,-20 158.88,0 215.38,0 215.38,-20"/>
<text text-anchor="middle" x="187.12" y="-6.5" font-family="Helvetica,sans-Serif" font-size="10.00">uart_print</text>
</a>
</g>
</g>
<!-- Node1&#45;&gt;Node4 -->
<g id="edge3_Node000001_Node000004" class="edge">
<title>Node1&#45;&gt;Node4</title>
<g id="a_edge3_Node000001_Node000004"><a xlink:title=" ">
<path fill="none" stroke="#63b8ff" d="M86.38,-37.52C105.46,-32.25 128.53,-25.89 147.68,-20.61"/>
<polygon fill="#63b8ff" stroke="#63b8ff" points="148.56,-23.99 157.27,-17.96 146.69,-17.25 148.56,-23.99"/>
</a>
</g>
</g>
</g>
</svg>
