<?xml version="1.0" encoding="UTF-8" standalone="no"?>
<!DOCTYPE svg PUBLIC "-//W3C//DTD SVG 1.1//EN"
 "http://www.w3.org/Graphics/SVG/1.1/DTD/svg11.dtd">
<!-- Generated by graphviz version 12.2.1 (20241206.2353)
 -->
<!-- Title: DS3231::set_time Pages: 1 -->
<svg width="254pt" height="142pt"
 viewBox="0.00 0.00 253.75 142.00" xmlns="http://www.w3.org/2000/svg" xmlns:xlink="http://www.w3.org/1999/xlink">
<g id="graph0" class="graph" transform="scale(1 1) rotate(0) translate(4 138)">
<title>DS3231::set_time</title>
<!-- Node1 -->
<g id="Node000001" class="node">
<title>Node1</title>
<g id="a_Node000001"><a xlink:title=" ">
<polygon fill="#999999" stroke="#666666" points="94.75,-77 0,-77 0,-57 94.75,-57 94.75,-77"/>
<text text-anchor="middle" x="47.38" y="-63.5" font-family="Helvetica,sans-Serif" font-size="10.00">DS3231::set_time</text>
</a>
</g>
</g>
<!-- Node2 -->
<g id="Node000002" class="node">
<title>Node2</title>
<g id="a_Node000002"><a xlink:href="class_d_s3231.html#aa8ad05d783b0b67f10e8726863ff4891" target="_top" xlink:title="Library function that takes an 8 bit unsigned integer and converts into Binary Coded Decimal number t...">
<polygon fill="white" stroke="#666666" points="240.5,-134 136,-134 136,-114 240.5,-114 240.5,-134"/>
<text text-anchor="middle" x="188.25" y="-120.5" font-family="Helvetica,sans-Serif" font-size="10.00">DS3231::bin_to_bcd</text>
</a>
</g>
</g>
<!-- Node1&#45;&gt;Node2 -->
<g id="edge1_Node000001_Node000002" class="edge">
<title>Node1&#45;&gt;Node2</title>
<g id="a_edge1_Node000001_Node000002"><a xlink:title=" ">
<path fill="none" stroke="#63b8ff" d="M69.44,-77.48C85.92,-85.49 109.53,-96.57 130.75,-105 134.85,-106.63 139.16,-108.25 143.48,-109.8"/>
<polygon fill="#63b8ff" stroke="#63b8ff" points="142.15,-113.04 152.74,-113.04 144.46,-106.44 142.15,-113.04"/>
</a>
</g>
</g>
<!-- Node3 -->
<g id="Node000003" class="node">
<title>Node3</title>
<g id="a_Node000003"><a xlink:href="class_d_s3231.html#ae3895581e62c411451d12de3e7558207" target="_top" xlink:title="Library function to read a specific I2C register adress.">
<polygon fill="white" stroke="#666666" points="244.62,-96 131.88,-96 131.88,-76 244.62,-76 244.62,-96"/>
<text text-anchor="middle" x="188.25" y="-82.5" font-family="Helvetica,sans-Serif" font-size="10.00">DS3231::i2c_read_reg</text>
</a>
</g>
</g>
<!-- Node1&#45;&gt;Node3 -->
<g id="edge2_Node000001_Node000003" class="edge">
<title>Node1&#45;&gt;Node3</title>
<g id="a_edge2_Node000001_Node000003"><a xlink:title=" ">
<path fill="none" stroke="#63b8ff" d="M95,-73.38C103.22,-74.5 111.92,-75.69 120.56,-76.88"/>
<polygon fill="#63b8ff" stroke="#63b8ff" points="119.96,-80.33 130.34,-78.21 120.91,-73.39 119.96,-80.33"/>
</a>
</g>
</g>
<!-- Node4 -->
<g id="Node000004" class="node">
<title>Node4</title>
<g id="a_Node000004"><a xlink:href="class_d_s3231.html#a2fa69b2c58e800b2a06e4966ca21b59c" target="_top" xlink:title="Library function to write to a specific I2C register adress.">
<polygon fill="white" stroke="#666666" points="245.75,-58 130.75,-58 130.75,-38 245.75,-38 245.75,-58"/>
<text text-anchor="middle" x="188.25" y="-44.5" font-family="Helvetica,sans-Serif" font-size="10.00">DS3231::i2c_write_reg</text>
</a>
</g>
</g>
<!-- Node1&#45;&gt;Node4 -->
<g id="edge3_Node000001_Node000004" class="edge">
<title>Node1&#45;&gt;Node4</title>
<g id="a_edge3_Node000001_Node000004"><a xlink:title=" ">
<path fill="none" stroke="#63b8ff" d="M95,-60.62C102.81,-59.55 111.04,-58.43 119.25,-57.3"/>
<polygon fill="#63b8ff" stroke="#63b8ff" points="119.44,-60.81 128.88,-55.99 118.49,-53.87 119.44,-60.81"/>
</a>
</g>
</g>
<!-- Node5 -->
<g id="Node000005" class="node">
<title>Node5</title>
<g id="a_Node000005"><a xlink:href="utils_8cpp.html#acd86977d05fa330749958ace0f2798de" target="_top" xlink:title="Prints a message to the UART with a timestamp and core number.">
<polygon fill="white" stroke="#666666" points="216.5,-20 160,-20 160,0 216.5,0 216.5,-20"/>
<text text-anchor="middle" x="188.25" y="-6.5" font-family="Helvetica,sans-Serif" font-size="10.00">uart_print</text>
</a>
</g>
</g>
<!-- Node1&#45;&gt;Node5 -->
<g id="edge4_Node000001_Node000005" class="edge">
<title>Node1&#45;&gt;Node5</title>
<g id="a_edge4_Node000001_Node000005"><a xlink:title=" ">
<path fill="none" stroke="#63b8ff" d="M69.44,-56.52C85.92,-48.51 109.53,-37.43 130.75,-29 136.58,-26.68 142.82,-24.4 148.94,-22.26"/>
<polygon fill="#63b8ff" stroke="#63b8ff" points="149.96,-25.61 158.3,-19.08 147.71,-18.98 149.96,-25.61"/>
</a>
</g>
</g>
</g>
</svg>
