<?xml version="1.0" encoding="UTF-8" standalone="no"?>
<!DOCTYPE svg PUBLIC "-//W3C//DTD SVG 1.1//EN"
 "http://www.w3.org/Graphics/SVG/1.1/DTD/svg11.dtd">
<!-- Generated by graphviz version 12.2.1 (20241206.2353)
 -->
<!-- Title: LoRaClass::parsePacket Pages: 1 -->
<svg width="659pt" height="146pt"
 viewBox="0.00 0.00 659.25 145.64" xmlns="http://www.w3.org/2000/svg" xmlns:xlink="http://www.w3.org/1999/xlink">
<g id="graph0" class="graph" transform="scale(1 1) rotate(0) translate(4 141.64)">
<title>LoRaClass::parsePacket</title>
<!-- Node1 -->
<g id="Node000001" class="node">
<title>Node1</title>
<g id="a_Node000001"><a xlink:title=" ">
<polygon fill="#999999" stroke="#666666" points="125.5,-80.58 0,-80.58 0,-60.58 125.5,-60.58 125.5,-80.58"/>
<text text-anchor="middle" x="62.75" y="-67.08" font-family="Helvetica,sans-Serif" font-size="10.00">LoRaClass::parsePacket</text>
</a>
</g>
</g>
<!-- Node2 -->
<g id="Node000002" class="node">
<title>Node2</title>
<g id="a_Node000002"><a xlink:href="class_lo_ra_class.html#a691417e927af503dacaa797a1bb9527f" target="_top" xlink:title=" ">
<polygon fill="white" stroke="#666666" points="318.5,-80.58 161.5,-80.58 161.5,-60.58 318.5,-60.58 318.5,-80.58"/>
<text text-anchor="middle" x="240" y="-67.08" font-family="Helvetica,sans-Serif" font-size="10.00">LoRaClass::explicitHeaderMode</text>
</a>
</g>
</g>
<!-- Node1&#45;&gt;Node2 -->
<g id="edge1_Node000001_Node000002" class="edge">
<title>Node1&#45;&gt;Node2</title>
<g id="a_edge1_Node000001_Node000002"><a xlink:title=" ">
<path fill="none" stroke="#63b8ff" d="M125.54,-70.58C133.46,-70.58 141.7,-70.58 149.95,-70.58"/>
<polygon fill="#63b8ff" stroke="#63b8ff" points="149.68,-74.08 159.68,-70.58 149.68,-67.08 149.68,-74.08"/>
</a>
</g>
</g>
<!-- Node3 -->
<g id="Node000003" class="node">
<title>Node3</title>
<g id="a_Node000003"><a xlink:href="class_lo_ra_class.html#add581bfe66dd75108e22b18a4d6f89bf" target="_top" xlink:title=" ">
<polygon fill="white" stroke="#666666" points="481.88,-118.58 355.62,-118.58 355.62,-98.58 481.88,-98.58 481.88,-118.58"/>
<text text-anchor="middle" x="418.75" y="-105.08" font-family="Helvetica,sans-Serif" font-size="10.00">LoRaClass::readRegister</text>
</a>
</g>
</g>
<!-- Node1&#45;&gt;Node3 -->
<g id="edge11_Node000001_Node000003" class="edge">
<title>Node1&#45;&gt;Node3</title>
<g id="a_edge11_Node000001_Node000003"><a xlink:title=" ">
<path fill="none" stroke="#63b8ff" d="M76.34,-80.93C94.05,-94.74 127.93,-118.51 161.5,-127.58 232.11,-146.67 317.4,-133.51 369.59,-121.58"/>
<polygon fill="#63b8ff" stroke="#63b8ff" points="370.13,-125.05 379.05,-119.34 368.51,-118.24 370.13,-125.05"/>
</a>
</g>
</g>
<!-- Node5 -->
<g id="Node000005" class="node">
<title>Node5</title>
<g id="a_Node000005"><a xlink:href="class_lo_ra_class.html#a77e7c77aa54174b352a26e1510f66f98" target="_top" xlink:title=" ">
<polygon fill="white" stroke="#666666" points="483,-80.58 354.5,-80.58 354.5,-60.58 483,-60.58 483,-80.58"/>
<text text-anchor="middle" x="418.75" y="-67.08" font-family="Helvetica,sans-Serif" font-size="10.00">LoRaClass::writeRegister</text>
</a>
</g>
</g>
<!-- Node1&#45;&gt;Node5 -->
<g id="edge12_Node000001_Node000005" class="edge">
<title>Node1&#45;&gt;Node5</title>
<g id="a_edge12_Node000001_Node000005"><a xlink:title=" ">
<path fill="none" stroke="#63b8ff" d="M76.34,-60.24C94.05,-46.43 127.93,-22.66 161.5,-13.58 228.86,4.62 251.08,4.4 318.5,-13.58 347.44,-21.3 376.71,-39.69 395.88,-53.51"/>
<polygon fill="#63b8ff" stroke="#63b8ff" points="393.61,-56.18 403.72,-59.34 397.78,-50.56 393.61,-56.18"/>
</a>
</g>
</g>
<!-- Node6 -->
<g id="Node000006" class="node">
<title>Node6</title>
<g id="a_Node000006"><a xlink:href="class_lo_ra_class.html#ab0397413dc995dedb08f2c560e79b01c" target="_top" xlink:title=" ">
<polygon fill="white" stroke="#666666" points="282.88,-42.58 197.12,-42.58 197.12,-22.58 282.88,-22.58 282.88,-42.58"/>
<text text-anchor="middle" x="240" y="-29.08" font-family="Helvetica,sans-Serif" font-size="10.00">LoRaClass::idle</text>
</a>
</g>
</g>
<!-- Node1&#45;&gt;Node6 -->
<g id="edge6_Node000001_Node000006" class="edge">
<title>Node1&#45;&gt;Node6</title>
<g id="a_edge6_Node000001_Node000006"><a xlink:title=" ">
<path fill="none" stroke="#63b8ff" d="M112.1,-60.1C134.91,-55.15 162.2,-49.24 185.62,-44.16"/>
<polygon fill="#63b8ff" stroke="#63b8ff" points="186.26,-47.6 195.29,-42.06 184.77,-40.76 186.26,-47.6"/>
</a>
</g>
</g>
<!-- Node7 -->
<g id="Node000007" class="node">
<title>Node7</title>
<g id="a_Node000007"><a xlink:href="class_lo_ra_class.html#ad06e31c18f7029e231d837a7eca7558e" target="_top" xlink:title=" ">
<polygon fill="white" stroke="#666666" points="318.5,-118.58 161.5,-118.58 161.5,-98.58 318.5,-98.58 318.5,-118.58"/>
<text text-anchor="middle" x="240" y="-105.08" font-family="Helvetica,sans-Serif" font-size="10.00">LoRaClass::implicitHeaderMode</text>
</a>
</g>
</g>
<!-- Node1&#45;&gt;Node7 -->
<g id="edge8_Node000001_Node000007" class="edge">
<title>Node1&#45;&gt;Node7</title>
<g id="a_edge8_Node000001_Node000007"><a xlink:title=" ">
<path fill="none" stroke="#63b8ff" d="M112.1,-81.07C132.98,-85.6 157.61,-90.94 179.59,-95.7"/>
<polygon fill="#63b8ff" stroke="#63b8ff" points="178.81,-99.11 189.33,-97.81 180.3,-92.27 178.81,-99.11"/>
</a>
</g>
</g>
<!-- Node2&#45;&gt;Node3 -->
<g id="edge2_Node000002_Node000003" class="edge">
<title>Node2&#45;&gt;Node3</title>
<g id="a_edge2_Node000002_Node000003"><a xlink:title=" ">
<path fill="none" stroke="#63b8ff" d="M289.77,-81.07C310.92,-85.62 335.89,-90.99 358.13,-95.77"/>
<polygon fill="#63b8ff" stroke="#63b8ff" points="357.15,-99.14 367.66,-97.82 358.62,-92.29 357.15,-99.14"/>
</a>
</g>
</g>
<!-- Node2&#45;&gt;Node5 -->
<g id="edge4_Node000002_Node000005" class="edge">
<title>Node2&#45;&gt;Node5</title>
<g id="a_edge4_Node000002_Node000005"><a xlink:title=" ">
<path fill="none" stroke="#63b8ff" d="M318.78,-70.58C326.75,-70.58 334.83,-70.58 342.76,-70.58"/>
<polygon fill="#63b8ff" stroke="#63b8ff" points="342.74,-74.08 352.74,-70.58 342.74,-67.08 342.74,-74.08"/>
</a>
</g>
</g>
<!-- Node4 -->
<g id="Node000004" class="node">
<title>Node4</title>
<g id="a_Node000004"><a xlink:href="class_lo_ra_class.html#a3a0c0649c595b1176b5fb1ae41210ee3" target="_top" xlink:title=" ">
<polygon fill="white" stroke="#666666" points="651.25,-99.58 519,-99.58 519,-79.58 651.25,-79.58 651.25,-99.58"/>
<text text-anchor="middle" x="585.12" y="-86.08" font-family="Helvetica,sans-Serif" font-size="10.00">LoRaClass::singleTransfer</text>
</a>
</g>
</g>
<!-- Node3&#45;&gt;Node4 -->
<g id="edge3_Node000003_Node000004" class="edge">
<title>Node3&#45;&gt;Node4</title>
<g id="a_edge3_Node000003_Node000004"><a xlink:title=" ">
<path fill="none" stroke="#63b8ff" d="M482.36,-101.35C490.53,-100.4 498.98,-99.43 507.35,-98.46"/>
<polygon fill="#63b8ff" stroke="#63b8ff" points="507.65,-101.95 517.18,-97.32 506.84,-94.99 507.65,-101.95"/>
</a>
</g>
</g>
<!-- Node5&#45;&gt;Node4 -->
<g id="edge5_Node000005_Node000004" class="edge">
<title>Node5&#45;&gt;Node4</title>
<g id="a_edge5_Node000005_Node000004"><a xlink:title=" ">
<path fill="none" stroke="#63b8ff" d="M483.3,-77.93C491.16,-78.84 499.26,-79.78 507.29,-80.7"/>
<polygon fill="#63b8ff" stroke="#63b8ff" points="506.73,-84.16 517.07,-81.83 507.53,-77.21 506.73,-84.16"/>
</a>
</g>
</g>
<!-- Node6&#45;&gt;Node5 -->
<g id="edge7_Node000006_Node000005" class="edge">
<title>Node6&#45;&gt;Node5</title>
<g id="a_edge7_Node000006_Node000005"><a xlink:title=" ">
<path fill="none" stroke="#63b8ff" d="M283.34,-41.69C305.74,-46.5 333.63,-52.5 358.18,-57.78"/>
<polygon fill="#63b8ff" stroke="#63b8ff" points="357.21,-61.15 367.72,-59.83 358.68,-54.3 357.21,-61.15"/>
</a>
</g>
</g>
<!-- Node7&#45;&gt;Node3 -->
<g id="edge9_Node000007_Node000003" class="edge">
<title>Node7&#45;&gt;Node3</title>
<g id="a_edge9_Node000007_Node000003"><a xlink:title=" ">
<path fill="none" stroke="#63b8ff" d="M318.78,-108.58C327.19,-108.58 335.72,-108.58 344.08,-108.58"/>
<polygon fill="#63b8ff" stroke="#63b8ff" points="343.81,-112.08 353.81,-108.58 343.81,-105.08 343.81,-112.08"/>
</a>
</g>
</g>
<!-- Node7&#45;&gt;Node5 -->
<g id="edge10_Node000007_Node000005" class="edge">
<title>Node7&#45;&gt;Node5</title>
<g id="a_edge10_Node000007_Node000005"><a xlink:title=" ">
<path fill="none" stroke="#63b8ff" d="M289.77,-98.1C310.92,-93.55 335.89,-88.18 358.13,-83.4"/>
<polygon fill="#63b8ff" stroke="#63b8ff" points="358.62,-86.88 367.66,-81.35 357.15,-80.03 358.62,-86.88"/>
</a>
</g>
</g>
</g>
</svg>
