<?xml version="1.0" encoding="UTF-8" standalone="no"?>
<!DOCTYPE svg PUBLIC "-//W3C//DTD SVG 1.1//EN"
 "http://www.w3.org/Graphics/SVG/1.1/DTD/svg11.dtd">
<!-- Generated by graphviz version 12.2.1 (20241206.2353)
 -->
<!-- Title: LoRaClass::setLdoFlag Pages: 1 -->
<svg width="653pt" height="123pt"
 viewBox="0.00 0.00 652.50 123.16" xmlns="http://www.w3.org/2000/svg" xmlns:xlink="http://www.w3.org/1999/xlink">
<g id="graph0" class="graph" transform="scale(1 1) rotate(0) translate(4 119.16)">
<title>LoRaClass::setLdoFlag</title>
<!-- Node1 -->
<g id="Node000001" class="node">
<title>Node1</title>
<g id="a_Node000001"><a xlink:title=" ">
<polygon fill="#999999" stroke="#666666" points="118.75,-58.16 0,-58.16 0,-38.16 118.75,-38.16 118.75,-58.16"/>
<text text-anchor="middle" x="59.38" y="-44.66" font-family="Helvetica,sans-Serif" font-size="10.00">LoRaClass::setLdoFlag</text>
</a>
</g>
</g>
<!-- Node2 -->
<g id="Node000002" class="node">
<title>Node2</title>
<g id="a_Node000002"><a xlink:href="class_lo_ra_class.html#a810b0f66f8589f7bcbbe08ce80f41959" target="_top" xlink:title=" ">
<polygon fill="white" stroke="#666666" points="311.75,-115.16 154.75,-115.16 154.75,-95.16 311.75,-95.16 311.75,-115.16"/>
<text text-anchor="middle" x="233.25" y="-101.66" font-family="Helvetica,sans-Serif" font-size="10.00">LoRaClass::getSignalBandwidth</text>
</a>
</g>
</g>
<!-- Node1&#45;&gt;Node2 -->
<g id="edge1_Node000001_Node000002" class="edge">
<title>Node1&#45;&gt;Node2</title>
<g id="a_edge1_Node000001_Node000002"><a xlink:title=" ">
<path fill="none" stroke="#63b8ff" d="M89.2,-58.55C107.84,-65.18 132.66,-73.88 154.75,-81.16 165.08,-84.57 176.22,-88.1 186.75,-91.37"/>
<polygon fill="#63b8ff" stroke="#63b8ff" points="185.41,-94.62 196,-94.23 187.48,-87.94 185.41,-94.62"/>
</a>
</g>
</g>
<!-- Node3 -->
<g id="Node000003" class="node">
<title>Node3</title>
<g id="a_Node000003"><a xlink:href="class_lo_ra_class.html#add581bfe66dd75108e22b18a4d6f89bf" target="_top" xlink:title=" ">
<polygon fill="white" stroke="#666666" points="475.12,-67.16 348.88,-67.16 348.88,-47.16 475.12,-47.16 475.12,-67.16"/>
<text text-anchor="middle" x="412" y="-53.66" font-family="Helvetica,sans-Serif" font-size="10.00">LoRaClass::readRegister</text>
</a>
</g>
</g>
<!-- Node1&#45;&gt;Node3 -->
<g id="edge6_Node000001_Node000003" class="edge">
<title>Node1&#45;&gt;Node3</title>
<g id="a_edge6_Node000001_Node000003"><a xlink:title=" ">
<path fill="none" stroke="#63b8ff" d="M119.06,-49.67C179.02,-51.21 272.27,-53.6 337.2,-55.27"/>
<polygon fill="#63b8ff" stroke="#63b8ff" points="336.97,-58.77 347.06,-55.52 337.15,-51.77 336.97,-58.77"/>
</a>
</g>
</g>
<!-- Node5 -->
<g id="Node000005" class="node">
<title>Node5</title>
<g id="a_Node000005"><a xlink:href="class_lo_ra_class.html#aa1b8dc4023526ec67c852555e6ed2593" target="_top" xlink:title=" ">
<polygon fill="white" stroke="#666666" points="311,-39.16 155.5,-39.16 155.5,-19.16 311,-19.16 311,-39.16"/>
<text text-anchor="middle" x="233.25" y="-25.66" font-family="Helvetica,sans-Serif" font-size="10.00">LoRaClass::getSpreadingFactor</text>
</a>
</g>
</g>
<!-- Node1&#45;&gt;Node5 -->
<g id="edge4_Node000001_Node000005" class="edge">
<title>Node1&#45;&gt;Node5</title>
<g id="a_edge4_Node000001_Node000005"><a xlink:title=" ">
<path fill="none" stroke="#63b8ff" d="M119.04,-41.68C127,-40.8 135.3,-39.88 143.64,-38.96"/>
<polygon fill="#63b8ff" stroke="#63b8ff" points="143.94,-42.45 153.5,-37.87 143.17,-35.49 143.94,-42.45"/>
</a>
</g>
</g>
<!-- Node6 -->
<g id="Node000006" class="node">
<title>Node6</title>
<g id="a_Node000006"><a xlink:href="class_lo_ra_class.html#a77e7c77aa54174b352a26e1510f66f98" target="_top" xlink:title=" ">
<polygon fill="white" stroke="#666666" points="476.25,-20.16 347.75,-20.16 347.75,-0.16 476.25,-0.16 476.25,-20.16"/>
<text text-anchor="middle" x="412" y="-6.66" font-family="Helvetica,sans-Serif" font-size="10.00">LoRaClass::writeRegister</text>
</a>
</g>
</g>
<!-- Node1&#45;&gt;Node6 -->
<g id="edge7_Node000001_Node000006" class="edge">
<title>Node1&#45;&gt;Node6</title>
<g id="a_edge7_Node000001_Node000006"><a xlink:title=" ">
<path fill="none" stroke="#63b8ff" d="M79.94,-37.7C98.57,-28.37 127.7,-15.41 154.75,-10.16 214.95,1.5 284.6,0.6 336.08,-2.71"/>
<polygon fill="#63b8ff" stroke="#63b8ff" points="335.71,-6.19 345.93,-3.39 336.19,0.79 335.71,-6.19"/>
</a>
</g>
</g>
<!-- Node2&#45;&gt;Node3 -->
<g id="edge2_Node000002_Node000003" class="edge">
<title>Node2&#45;&gt;Node3</title>
<g id="a_edge2_Node000002_Node000003"><a xlink:title=" ">
<path fill="none" stroke="#63b8ff" d="M272.6,-94.75C298.69,-87.67 333.44,-78.23 361.59,-70.58"/>
<polygon fill="#63b8ff" stroke="#63b8ff" points="362.22,-74.04 370.96,-68.04 360.39,-67.28 362.22,-74.04"/>
</a>
</g>
</g>
<!-- Node4 -->
<g id="Node000004" class="node">
<title>Node4</title>
<g id="a_Node000004"><a xlink:href="class_lo_ra_class.html#a3a0c0649c595b1176b5fb1ae41210ee3" target="_top" xlink:title=" ">
<polygon fill="white" stroke="#666666" points="644.5,-39.16 512.25,-39.16 512.25,-19.16 644.5,-19.16 644.5,-39.16"/>
<text text-anchor="middle" x="578.38" y="-25.66" font-family="Helvetica,sans-Serif" font-size="10.00">LoRaClass::singleTransfer</text>
</a>
</g>
</g>
<!-- Node3&#45;&gt;Node4 -->
<g id="edge3_Node000003_Node000004" class="edge">
<title>Node3&#45;&gt;Node4</title>
<g id="a_edge3_Node000003_Node000004"><a xlink:title=" ">
<path fill="none" stroke="#63b8ff" d="M474.21,-46.74C484.09,-45.05 494.4,-43.3 504.53,-41.57"/>
<polygon fill="#63b8ff" stroke="#63b8ff" points="505.08,-45.03 514.35,-39.9 503.9,-38.13 505.08,-45.03"/>
</a>
</g>
</g>
<!-- Node5&#45;&gt;Node3 -->
<g id="edge5_Node000005_Node000003" class="edge">
<title>Node5&#45;&gt;Node3</title>
<g id="a_edge5_Node000005_Node000003"><a xlink:title=" ">
<path fill="none" stroke="#63b8ff" d="M300.32,-39.63C312.4,-41.55 325.09,-43.55 337.38,-45.5"/>
<polygon fill="#63b8ff" stroke="#63b8ff" points="336.61,-48.92 347.03,-47.03 337.7,-42.01 336.61,-48.92"/>
</a>
</g>
</g>
<!-- Node6&#45;&gt;Node4 -->
<g id="edge8_Node000006_Node000004" class="edge">
<title>Node6&#45;&gt;Node4</title>
<g id="a_edge8_Node000006_Node000004"><a xlink:title=" ">
<path fill="none" stroke="#63b8ff" d="M476.55,-17.51C484.41,-18.42 492.51,-19.36 500.54,-20.28"/>
<polygon fill="#63b8ff" stroke="#63b8ff" points="499.98,-23.74 510.32,-21.41 500.78,-16.79 499.98,-23.74"/>
</a>
</g>
</g>
</g>
</svg>
