<?xml version="1.0" encoding="UTF-8" standalone="no"?>
<!DOCTYPE svg PUBLIC "-//W3C//DTD SVG 1.1//EN"
 "http://www.w3.org/Graphics/SVG/1.1/DTD/svg11.dtd">
<!-- Generated by graphviz version 12.2.1 (20241206.2353)
 -->
<!-- Title: DS3231::i2c_read_reg Pages: 1 -->
<svg width="444pt" height="104pt"
 viewBox="0.00 0.00 443.75 104.00" xmlns="http://www.w3.org/2000/svg" xmlns:xlink="http://www.w3.org/1999/xlink">
<g id="graph0" class="graph" transform="scale(1 1) rotate(0) translate(4 100)">
<title>DS3231::i2c_read_reg</title>
<!-- Node1 -->
<g id="Node000001" class="node">
<title>Node1</title>
<g id="a_Node000001"><a xlink:title="Library function to read a specific I2C register adress.">
<polygon fill="#999999" stroke="#666666" points="435.75,-58 323,-58 323,-38 435.75,-38 435.75,-58"/>
<text text-anchor="middle" x="379.38" y="-44.5" font-family="Helvetica,sans-Serif" font-size="10.00">DS3231::i2c_read_reg</text>
</a>
</g>
</g>
<!-- Node2 -->
<g id="Node000002" class="node">
<title>Node2</title>
<g id="a_Node000002"><a xlink:href="class_d_s3231.html#ad5a93c1afc0e44f96e08ce99258c5228" target="_top" xlink:title=" ">
<polygon fill="white" stroke="#666666" points="267.88,-96 173.12,-96 173.12,-76 267.88,-76 267.88,-96"/>
<text text-anchor="middle" x="220.5" y="-82.5" font-family="Helvetica,sans-Serif" font-size="10.00">DS3231::get_time</text>
</a>
</g>
</g>
<!-- Node1&#45;&gt;Node2 -->
<g id="edge1_Node000001_Node000002" class="edge">
<title>Node1&#45;&gt;Node2</title>
<g id="a_edge1_Node000001_Node000002"><a xlink:title=" ">
<path fill="none" stroke="#63b8ff" d="M323.96,-61.18C304.55,-65.88 282.97,-71.11 264.64,-75.55"/>
<polygon fill="#63b8ff" stroke="#63b8ff" points="324.73,-64.6 333.62,-58.84 323.08,-57.79 324.73,-64.6"/>
</a>
</g>
</g>
<!-- Node4 -->
<g id="Node000004" class="node">
<title>Node4</title>
<g id="a_Node000004"><a xlink:href="class_d_s3231.html#a6668a479f66d288ae22f22a48b90327d" target="_top" xlink:title=" ">
<polygon fill="white" stroke="#666666" points="287,-58 154,-58 154,-38 287,-38 287,-58"/>
<text text-anchor="middle" x="220.5" y="-44.5" font-family="Helvetica,sans-Serif" font-size="10.00">DS3231::read_temperature</text>
</a>
</g>
</g>
<!-- Node1&#45;&gt;Node4 -->
<g id="edge3_Node000001_Node000004" class="edge">
<title>Node1&#45;&gt;Node4</title>
<g id="a_edge3_Node000001_Node000004"><a xlink:title=" ">
<path fill="none" stroke="#63b8ff" d="M311.17,-48C303.24,-48 295.16,-48 287.26,-48"/>
<polygon fill="#63b8ff" stroke="#63b8ff" points="311.11,-51.5 321.11,-48 311.11,-44.5 311.11,-51.5"/>
</a>
</g>
</g>
<!-- Node5 -->
<g id="Node000005" class="node">
<title>Node5</title>
<g id="a_Node000005"><a xlink:href="class_d_s3231.html#af68ef517aa7ff25393490211abc99fa8" target="_top" xlink:title=" ">
<polygon fill="white" stroke="#666666" points="267.88,-20 173.12,-20 173.12,0 267.88,0 267.88,-20"/>
<text text-anchor="middle" x="220.5" y="-6.5" font-family="Helvetica,sans-Serif" font-size="10.00">DS3231::set_time</text>
</a>
</g>
</g>
<!-- Node1&#45;&gt;Node5 -->
<g id="edge4_Node000001_Node000005" class="edge">
<title>Node1&#45;&gt;Node5</title>
<g id="a_edge4_Node000001_Node000005"><a xlink:title=" ">
<path fill="none" stroke="#63b8ff" d="M323.96,-34.82C304.55,-30.12 282.97,-24.89 264.64,-20.45"/>
<polygon fill="#63b8ff" stroke="#63b8ff" points="323.08,-38.21 333.62,-37.16 324.73,-31.4 323.08,-38.21"/>
</a>
</g>
</g>
<!-- Node3 -->
<g id="Node000003" class="node">
<title>Node3</title>
<g id="a_Node000003"><a xlink:href="class_d_s3231.html#a2de3663610d5d17f9b6e6354b72cc1b4" target="_top" xlink:title=" ">
<polygon fill="white" stroke="#666666" points="118,-96 0,-96 0,-76 118,-76 118,-96"/>
<text text-anchor="middle" x="59" y="-82.5" font-family="Helvetica,sans-Serif" font-size="10.00">DS3231::get_unix_time</text>
</a>
</g>
</g>
<!-- Node2&#45;&gt;Node3 -->
<g id="edge2_Node000002_Node000003" class="edge">
<title>Node2&#45;&gt;Node3</title>
<g id="a_edge2_Node000002_Node000003"><a xlink:title=" ">
<path fill="none" stroke="#63b8ff" d="M161.82,-86C147.64,-86 132.46,-86 118.25,-86"/>
<polygon fill="#63b8ff" stroke="#63b8ff" points="161.42,-89.5 171.42,-86 161.42,-82.5 161.42,-89.5"/>
</a>
</g>
</g>
<!-- Node6 -->
<g id="Node000006" class="node">
<title>Node6</title>
<g id="a_Node000006"><a xlink:href="class_d_s3231.html#ac1d01626660a57e9cc969dc35155f246" target="_top" xlink:title=" ">
<polygon fill="white" stroke="#666666" points="118,-20 0,-20 0,0 118,0 118,-20"/>
<text text-anchor="middle" x="59" y="-6.5" font-family="Helvetica,sans-Serif" font-size="10.00">DS3231::set_unix_time</text>
</a>
</g>
</g>
<!-- Node5&#45;&gt;Node6 -->
<g id="edge5_Node000005_Node000006" class="edge">
<title>Node5&#45;&gt;Node6</title>
<g id="a_edge5_Node000005_Node000006"><a xlink:title=" ">
<path fill="none" stroke="#63b8ff" d="M161.82,-10C147.64,-10 132.46,-10 118.25,-10"/>
<polygon fill="#63b8ff" stroke="#63b8ff" points="161.42,-13.5 171.42,-10 161.42,-6.5 161.42,-13.5"/>
</a>
</g>
</g>
</g>
</svg>
