<?xml version="1.0" encoding="UTF-8" standalone="no"?>
<!DOCTYPE svg PUBLIC "-//W3C//DTD SVG 1.1//EN"
 "http://www.w3.org/Graphics/SVG/1.1/DTD/svg11.dtd">
<!-- Generated by graphviz version 12.2.1 (20241206.2353)
 -->
<!-- Title: INA3221::getCurrentCompensated Pages: 1 -->
<svg width="487pt" height="104pt"
 viewBox="0.00 0.00 487.25 104.00" xmlns="http://www.w3.org/2000/svg" xmlns:xlink="http://www.w3.org/1999/xlink">
<g id="graph0" class="graph" transform="scale(1 1) rotate(0) translate(4 100)">
<title>INA3221::getCurrentCompensated</title>
<!-- Node1 -->
<g id="Node000001" class="node">
<title>Node1</title>
<g id="a_Node000001"><a xlink:title=" ">
<polygon fill="#999999" stroke="#666666" points="166.75,-58 0,-58 0,-38 166.75,-38 166.75,-58"/>
<text text-anchor="middle" x="83.38" y="-44.5" font-family="Helvetica,sans-Serif" font-size="10.00">INA3221::getCurrentCompensated</text>
</a>
</g>
</g>
<!-- Node2 -->
<g id="Node000002" class="node">
<title>Node2</title>
<g id="a_Node000002"><a xlink:href="class_i_n_a3221.html#a54a12163b61973f5527635b0a02393b1" target="_top" xlink:title=" ">
<polygon fill="white" stroke="#666666" points="359,-96 202.75,-96 202.75,-76 359,-76 359,-96"/>
<text text-anchor="middle" x="280.88" y="-82.5" font-family="Helvetica,sans-Serif" font-size="10.00">INA3221::estimateOffsetVoltage</text>
</a>
</g>
</g>
<!-- Node1&#45;&gt;Node2 -->
<g id="edge1_Node000001_Node000002" class="edge">
<title>Node1&#45;&gt;Node2</title>
<g id="a_edge1_Node000001_Node000002"><a xlink:title=" ">
<path fill="none" stroke="#63b8ff" d="M138.31,-58.48C162.03,-63.09 190.09,-68.55 214.94,-73.38"/>
<polygon fill="#63b8ff" stroke="#63b8ff" points="214.14,-76.79 224.63,-75.26 215.48,-69.92 214.14,-76.79"/>
</a>
</g>
</g>
<!-- Node3 -->
<g id="Node000003" class="node">
<title>Node3</title>
<g id="a_Node000003"><a xlink:href="class_i_n_a3221.html#a7cae0eec9dedb5b64ad3bbefc289468b" target="_top" xlink:title=" ">
<polygon fill="white" stroke="#666666" points="346.62,-58 215.12,-58 215.12,-38 346.62,-38 346.62,-58"/>
<text text-anchor="middle" x="280.88" y="-44.5" font-family="Helvetica,sans-Serif" font-size="10.00">INA3221::getShuntVoltage</text>
</a>
</g>
</g>
<!-- Node1&#45;&gt;Node3 -->
<g id="edge2_Node000001_Node000003" class="edge">
<title>Node1&#45;&gt;Node3</title>
<g id="a_edge2_Node000001_Node000003"><a xlink:title=" ">
<path fill="none" stroke="#63b8ff" d="M167,-48C179.08,-48 191.48,-48 203.43,-48"/>
<polygon fill="#63b8ff" stroke="#63b8ff" points="203.22,-51.5 213.22,-48 203.22,-44.5 203.22,-51.5"/>
</a>
</g>
</g>
<!-- Node5 -->
<g id="Node000005" class="node">
<title>Node5</title>
<g id="a_Node000005"><a xlink:href="class_i_n_a3221.html#a40d4bf9bbb149fab19c6d80db86c119f" target="_top" xlink:title=" ">
<polygon fill="white" stroke="#666666" points="333.88,-20 227.88,-20 227.88,0 333.88,0 333.88,-20"/>
<text text-anchor="middle" x="280.88" y="-6.5" font-family="Helvetica,sans-Serif" font-size="10.00">INA3221::getVoltage</text>
</a>
</g>
</g>
<!-- Node1&#45;&gt;Node5 -->
<g id="edge4_Node000001_Node000005" class="edge">
<title>Node1&#45;&gt;Node5</title>
<g id="a_edge4_Node000001_Node000005"><a xlink:title=" ">
<path fill="none" stroke="#63b8ff" d="M138.31,-37.52C162.42,-32.83 191.02,-27.27 216.17,-22.38"/>
<polygon fill="#63b8ff" stroke="#63b8ff" points="216.83,-25.82 225.98,-20.48 215.49,-18.95 216.83,-25.82"/>
</a>
</g>
</g>
<!-- Node4 -->
<g id="Node000004" class="node">
<title>Node4</title>
<g id="a_Node000004"><a xlink:href="class_i_n_a3221.html#a0b4c630038abf482bef36f3083ab20ff" target="_top" xlink:title=" ">
<polygon fill="white" stroke="#666666" points="479.25,-39 395,-39 395,-19 479.25,-19 479.25,-39"/>
<text text-anchor="middle" x="437.12" y="-25.5" font-family="Helvetica,sans-Serif" font-size="10.00">INA3221::_read</text>
</a>
</g>
</g>
<!-- Node3&#45;&gt;Node4 -->
<g id="edge3_Node000003_Node000004" class="edge">
<title>Node3&#45;&gt;Node4</title>
<g id="a_edge3_Node000003_Node000004"><a xlink:title=" ">
<path fill="none" stroke="#63b8ff" d="M346.84,-40C358.95,-38.51 371.46,-36.97 383.15,-35.53"/>
<polygon fill="#63b8ff" stroke="#63b8ff" points="383.52,-39.01 393.02,-34.31 382.66,-32.06 383.52,-39.01"/>
</a>
</g>
</g>
<!-- Node5&#45;&gt;Node4 -->
<g id="edge5_Node000005_Node000004" class="edge">
<title>Node5&#45;&gt;Node4</title>
<g id="a_edge5_Node000005_Node000004"><a xlink:title=" ">
<path fill="none" stroke="#63b8ff" d="M334.1,-16.43C349.99,-18.39 367.47,-20.54 383.39,-22.5"/>
<polygon fill="#63b8ff" stroke="#63b8ff" points="382.82,-25.96 393.17,-23.71 383.68,-19.01 382.82,-25.96"/>
</a>
</g>
</g>
</g>
</svg>
