<?xml version="1.0" encoding="UTF-8" standalone="no"?>
<!DOCTYPE svg PUBLIC "-//W3C//DTD SVG 1.1//EN"
 "http://www.w3.org/Graphics/SVG/1.1/DTD/svg11.dtd">
<!-- Generated by graphviz version 12.2.1 (20241206.2353)
 -->
<!-- Title: DS3231::i2c_read_reg Pages: 1 -->
<svg width="598pt" height="104pt"
 viewBox="0.00 0.00 597.75 104.00" xmlns="http://www.w3.org/2000/svg" xmlns:xlink="http://www.w3.org/1999/xlink">
<g id="graph0" class="graph" transform="scale(1 1) rotate(0) translate(4 100)">
<title>DS3231::i2c_read_reg</title>
<!-- Node1 -->
<g id="Node000001" class="node">
<title>Node1</title>
<g id="a_Node000001"><a xlink:title="Library function to read a specific I2C register address.">
<polygon fill="#999999" stroke="#666666" points="589.75,-58 477,-58 477,-38 589.75,-38 589.75,-58"/>
<text text-anchor="middle" x="533.38" y="-44.5" font-family="Helvetica,sans-Serif" font-size="10.00">DS3231::i2c_read_reg</text>
</a>
</g>
</g>
<!-- Node2 -->
<g id="Node000002" class="node">
<title>Node2</title>
<g id="a_Node000002"><a xlink:href="class_d_s3231.html#ae92a7c5b7e64acc0da3b0e6f781d6b5f" target="_top" xlink:title=" ">
<polygon fill="white" stroke="#666666" points="431.62,-96 317.38,-96 317.38,-76 431.62,-76 431.62,-96"/>
<text text-anchor="middle" x="374.5" y="-82.5" font-family="Helvetica,sans-Serif" font-size="10.00">DS3231::clock_enable</text>
</a>
</g>
</g>
<!-- Node1&#45;&gt;Node2 -->
<g id="edge1_Node000001_Node000002" class="edge">
<title>Node1&#45;&gt;Node2</title>
<g id="a_edge1_Node000001_Node000002"><a xlink:title=" ">
<path fill="none" stroke="#63b8ff" d="M477.96,-61.18C458.55,-65.88 436.97,-71.11 418.64,-75.55"/>
<polygon fill="#63b8ff" stroke="#63b8ff" points="478.73,-64.6 487.62,-58.84 477.08,-57.79 478.73,-64.6"/>
</a>
</g>
</g>
<!-- Node5 -->
<g id="Node000005" class="node">
<title>Node5</title>
<g id="a_Node000005"><a xlink:href="class_d_s3231.html#ad5a93c1afc0e44f96e08ce99258c5228" target="_top" xlink:title=" ">
<polygon fill="white" stroke="#666666" points="421.88,-58 327.12,-58 327.12,-38 421.88,-38 421.88,-58"/>
<text text-anchor="middle" x="374.5" y="-44.5" font-family="Helvetica,sans-Serif" font-size="10.00">DS3231::get_time</text>
</a>
</g>
</g>
<!-- Node1&#45;&gt;Node5 -->
<g id="edge4_Node000001_Node000005" class="edge">
<title>Node1&#45;&gt;Node5</title>
<g id="a_edge4_Node000001_Node000005"><a xlink:title=" ">
<path fill="none" stroke="#63b8ff" d="M465.18,-48C450.72,-48 435.74,-48 422.26,-48"/>
<polygon fill="#63b8ff" stroke="#63b8ff" points="465.11,-51.5 475.11,-48 465.11,-44.5 465.11,-51.5"/>
</a>
</g>
</g>
<!-- Node7 -->
<g id="Node000007" class="node">
<title>Node7</title>
<g id="a_Node000007"><a xlink:href="class_d_s3231.html#a6668a479f66d288ae22f22a48b90327d" target="_top" xlink:title=" ">
<polygon fill="white" stroke="#666666" points="441,-20 308,-20 308,0 441,0 441,-20"/>
<text text-anchor="middle" x="374.5" y="-6.5" font-family="Helvetica,sans-Serif" font-size="10.00">DS3231::read_temperature</text>
</a>
</g>
</g>
<!-- Node1&#45;&gt;Node7 -->
<g id="edge6_Node000001_Node000007" class="edge">
<title>Node1&#45;&gt;Node7</title>
<g id="a_edge6_Node000001_Node000007"><a xlink:title=" ">
<path fill="none" stroke="#63b8ff" d="M477.96,-34.82C458.55,-30.12 436.97,-24.89 418.64,-20.45"/>
<polygon fill="#63b8ff" stroke="#63b8ff" points="477.08,-38.21 487.62,-37.16 478.73,-31.4 477.08,-38.21"/>
</a>
</g>
</g>
<!-- Node3 -->
<g id="Node000003" class="node">
<title>Node3</title>
<g id="a_Node000003"><a xlink:href="class_d_s3231.html#af68ef517aa7ff25393490211abc99fa8" target="_top" xlink:title=" ">
<polygon fill="white" stroke="#666666" points="260.38,-96 165.62,-96 165.62,-76 260.38,-76 260.38,-96"/>
<text text-anchor="middle" x="213" y="-82.5" font-family="Helvetica,sans-Serif" font-size="10.00">DS3231::set_time</text>
</a>
</g>
</g>
<!-- Node2&#45;&gt;Node3 -->
<g id="edge2_Node000002_Node000003" class="edge">
<title>Node2&#45;&gt;Node3</title>
<g id="a_edge2_Node000002_Node000003"><a xlink:title=" ">
<path fill="none" stroke="#63b8ff" d="M305.82,-86C290.64,-86 274.87,-86 260.77,-86"/>
<polygon fill="#63b8ff" stroke="#63b8ff" points="305.75,-89.5 315.75,-86 305.75,-82.5 305.75,-89.5"/>
</a>
</g>
</g>
<!-- Node4 -->
<g id="Node000004" class="node">
<title>Node4</title>
<g id="a_Node000004"><a xlink:href="class_d_s3231.html#ac1d01626660a57e9cc969dc35155f246" target="_top" xlink:title=" ">
<polygon fill="white" stroke="#666666" points="118,-96 0,-96 0,-76 118,-76 118,-96"/>
<text text-anchor="middle" x="59" y="-82.5" font-family="Helvetica,sans-Serif" font-size="10.00">DS3231::set_unix_time</text>
</a>
</g>
</g>
<!-- Node3&#45;&gt;Node4 -->
<g id="edge3_Node000003_Node000004" class="edge">
<title>Node3&#45;&gt;Node4</title>
<g id="a_edge3_Node000003_Node000004"><a xlink:title=" ">
<path fill="none" stroke="#63b8ff" d="M153.82,-86C142.24,-86 130.08,-86 118.5,-86"/>
<polygon fill="#63b8ff" stroke="#63b8ff" points="153.64,-89.5 163.64,-86 153.64,-82.5 153.64,-89.5"/>
</a>
</g>
</g>
<!-- Node6 -->
<g id="Node000006" class="node">
<title>Node6</title>
<g id="a_Node000006"><a xlink:href="class_d_s3231.html#a2de3663610d5d17f9b6e6354b72cc1b4" target="_top" xlink:title=" ">
<polygon fill="white" stroke="#666666" points="272,-58 154,-58 154,-38 272,-38 272,-58"/>
<text text-anchor="middle" x="213" y="-44.5" font-family="Helvetica,sans-Serif" font-size="10.00">DS3231::get_unix_time</text>
</a>
</g>
</g>
<!-- Node5&#45;&gt;Node6 -->
<g id="edge5_Node000005_Node000006" class="edge">
<title>Node5&#45;&gt;Node6</title>
<g id="a_edge5_Node000005_Node000006"><a xlink:title=" ">
<path fill="none" stroke="#63b8ff" d="M315.82,-48C301.64,-48 286.46,-48 272.25,-48"/>
<polygon fill="#63b8ff" stroke="#63b8ff" points="315.42,-51.5 325.42,-48 315.42,-44.5 315.42,-51.5"/>
</a>
</g>
</g>
</g>
</svg>
