<?xml version="1.0" encoding="UTF-8" standalone="no"?>
<!DOCTYPE svg PUBLIC "-//W3C//DTD SVG 1.1//EN"
 "http://www.w3.org/Graphics/SVG/1.1/DTD/svg11.dtd">
<!-- Generated by graphviz version 12.2.1 (20241206.2353)
 -->
<!-- Title: DS3231::getTimeUnix Pages: 1 -->
<svg width="412pt" height="66pt"
 viewBox="0.00 0.00 412.25 66.00" xmlns="http://www.w3.org/2000/svg" xmlns:xlink="http://www.w3.org/1999/xlink">
<g id="graph0" class="graph" transform="scale(1 1) rotate(0) translate(4 62)">
<title>DS3231::getTimeUnix</title>
<!-- Node1 -->
<g id="Node000001" class="node">
<title>Node1</title>
<g id="a_Node000001"><a xlink:title=" ">
<polygon fill="#999999" stroke="#666666" points="112.75,-39 0,-39 0,-19 112.75,-19 112.75,-39"/>
<text text-anchor="middle" x="56.38" y="-25.5" font-family="Helvetica,sans-Serif" font-size="10.00">DS3231::getTimeUnix</text>
</a>
</g>
</g>
<!-- Node2 -->
<g id="Node000002" class="node">
<title>Node2</title>
<g id="a_Node000002"><a xlink:href="class_d_s3231.html#ae6c4f2144a772c44f7adbace7f86dfa1" target="_top" xlink:title=" ">
<polygon fill="white" stroke="#666666" points="277.25,-58 148.75,-58 148.75,-38 277.25,-38 277.25,-58"/>
<text text-anchor="middle" x="213" y="-44.5" font-family="Helvetica,sans-Serif" font-size="10.00">DS3231::dateTimeToUnix</text>
</a>
</g>
</g>
<!-- Node1&#45;&gt;Node2 -->
<g id="edge1_Node000001_Node000002" class="edge">
<title>Node1&#45;&gt;Node2</title>
<g id="a_edge1_Node000001_Node000002"><a xlink:title=" ">
<path fill="none" stroke="#63b8ff" d="M113.2,-35.86C120.96,-36.81 129.03,-37.81 137.07,-38.79"/>
<polygon fill="#63b8ff" stroke="#63b8ff" points="136.53,-42.25 146.88,-40 137.38,-35.3 136.53,-42.25"/>
</a>
</g>
</g>
<!-- Node3 -->
<g id="Node000003" class="node">
<title>Node3</title>
<g id="a_Node000003"><a xlink:href="class_d_s3231.html#aa19b08f3978eea489bc8af3a84d67e59" target="_top" xlink:title=" ">
<polygon fill="white" stroke="#666666" points="269.75,-20 156.25,-20 156.25,0 269.75,0 269.75,-20"/>
<text text-anchor="middle" x="213" y="-6.5" font-family="Helvetica,sans-Serif" font-size="10.00">DS3231::getDateTime</text>
</a>
</g>
</g>
<!-- Node1&#45;&gt;Node3 -->
<g id="edge2_Node000001_Node000003" class="edge">
<title>Node1&#45;&gt;Node3</title>
<g id="a_edge2_Node000001_Node000003"><a xlink:title=" ">
<path fill="none" stroke="#63b8ff" d="M113.2,-22.14C123.43,-20.88 134.2,-19.56 144.72,-18.27"/>
<polygon fill="#63b8ff" stroke="#63b8ff" points="145,-21.76 154.5,-17.07 144.14,-14.81 145,-21.76"/>
</a>
</g>
</g>
<!-- Node4 -->
<g id="Node000004" class="node">
<title>Node4</title>
<g id="a_Node000004"><a xlink:href="class_d_s3231.html#a389e756fdd8f645d6025906bbce5abd8" target="_top" xlink:title=" ">
<polygon fill="white" stroke="#666666" points="404.25,-20 313.25,-20 313.25,0 404.25,0 404.25,-20"/>
<text text-anchor="middle" x="358.75" y="-6.5" font-family="Helvetica,sans-Serif" font-size="10.00">DS3231::bcd2bin</text>
</a>
</g>
</g>
<!-- Node3&#45;&gt;Node4 -->
<g id="edge3_Node000003_Node000004" class="edge">
<title>Node3&#45;&gt;Node4</title>
<g id="a_edge3_Node000003_Node000004"><a xlink:title=" ">
<path fill="none" stroke="#63b8ff" d="M269.99,-10C280.3,-10 291.07,-10 301.39,-10"/>
<polygon fill="#63b8ff" stroke="#63b8ff" points="301.29,-13.5 311.29,-10 301.29,-6.5 301.29,-13.5"/>
</a>
</g>
</g>
</g>
</svg>
