<?xml version="1.0" encoding="UTF-8" standalone="no"?>
<!DOCTYPE svg PUBLIC "-//W3C//DTD SVG 1.1//EN"
 "http://www.w3.org/Graphics/SVG/1.1/DTD/svg11.dtd">
<!-- Generated by graphviz version 12.2.1 (20241206.2353)
 -->
<!-- Title: Print::print Pages: 1 -->
<svg width="300pt" height="104pt"
 viewBox="0.00 0.00 299.75 104.00" xmlns="http://www.w3.org/2000/svg" xmlns:xlink="http://www.w3.org/1999/xlink">
<g id="graph0" class="graph" transform="scale(1 1) rotate(0) translate(4 100)">
<title>Print::print</title>
<!-- Node1 -->
<g id="Node000001" class="node">
<title>Node1</title>
<g id="a_Node000001"><a xlink:title=" ">
<polygon fill="#999999" stroke="#666666" points="61,-58 0,-58 0,-38 61,-38 61,-58"/>
<text text-anchor="middle" x="30.5" y="-44.5" font-family="Helvetica,sans-Serif" font-size="10.00">Print::print</text>
</a>
</g>
</g>
<!-- Node2 -->
<g id="Node000002" class="node">
<title>Node2</title>
<g id="a_Node000002"><a xlink:href="class_print.html#a1e411d07a8ffec5faf7ce485bac0f029" target="_top" xlink:title=" ">
<polygon fill="white" stroke="#666666" points="175.25,-96 114.25,-96 114.25,-76 175.25,-76 175.25,-96"/>
<text text-anchor="middle" x="144.75" y="-82.5" font-family="Helvetica,sans-Serif" font-size="10.00">Print::print</text>
</a>
</g>
</g>
<!-- Node1&#45;&gt;Node2 -->
<g id="edge1_Node000001_Node000002" class="edge">
<title>Node1&#45;&gt;Node2</title>
<g id="a_edge1_Node000001_Node000002"><a xlink:title=" ">
<path fill="none" stroke="#63b8ff" d="M61.29,-58.08C74.1,-62.42 89.28,-67.56 103.1,-72.24"/>
<polygon fill="#63b8ff" stroke="#63b8ff" points="101.8,-75.49 112.39,-75.38 104.04,-68.86 101.8,-75.49"/>
</a>
</g>
</g>
<!-- Node3 -->
<g id="Node000003" class="node">
<title>Node3</title>
<g id="a_Node000003"><a xlink:href="class_print.html#a5be30d49adae2406a270c29ba9a3e0a3" target="_top" xlink:title=" ">
<polygon fill="white" stroke="#666666" points="291.75,-58 228.5,-58 228.5,-38 291.75,-38 291.75,-58"/>
<text text-anchor="middle" x="260.12" y="-44.5" font-family="Helvetica,sans-Serif" font-size="10.00">Print::write</text>
</a>
</g>
</g>
<!-- Node1&#45;&gt;Node3 -->
<g id="edge5_Node000001_Node000003" class="edge">
<title>Node1&#45;&gt;Node3</title>
<g id="a_edge5_Node000001_Node000003"><a xlink:title=" ">
<path fill="none" stroke="#63b8ff" d="M61.26,-48C100.97,-48 171.54,-48 216.78,-48"/>
<polygon fill="#63b8ff" stroke="#63b8ff" points="216.75,-51.5 226.75,-48 216.75,-44.5 216.75,-51.5"/>
</a>
</g>
</g>
<!-- Node4 -->
<g id="Node000004" class="node">
<title>Node4</title>
<g id="a_Node000004"><a xlink:href="class_print.html#abe7ee1c0946399820a61e1ec39419ee2" target="_top" xlink:title=" ">
<polygon fill="white" stroke="#666666" points="192.5,-20 97,-20 97,0 192.5,0 192.5,-20"/>
<text text-anchor="middle" x="144.75" y="-6.5" font-family="Helvetica,sans-Serif" font-size="10.00">Print::printNumber</text>
</a>
</g>
</g>
<!-- Node1&#45;&gt;Node4 -->
<g id="edge3_Node000001_Node000004" class="edge">
<title>Node1&#45;&gt;Node4</title>
<g id="a_edge3_Node000001_Node000004"><a xlink:title=" ">
<path fill="none" stroke="#63b8ff" d="M61.29,-37.92C73.89,-33.65 88.79,-28.6 102.44,-23.99"/>
<polygon fill="#63b8ff" stroke="#63b8ff" points="103.26,-27.4 111.61,-20.88 101.01,-20.77 103.26,-27.4"/>
</a>
</g>
</g>
<!-- Node2&#45;&gt;Node3 -->
<g id="edge2_Node000002_Node000003" class="edge">
<title>Node2&#45;&gt;Node3</title>
<g id="a_edge2_Node000002_Node000003"><a xlink:title=" ">
<path fill="none" stroke="#63b8ff" d="M175.54,-76.02C188.38,-71.71 203.61,-66.61 217.54,-61.94"/>
<polygon fill="#63b8ff" stroke="#63b8ff" points="218.55,-65.29 226.92,-58.8 216.32,-58.66 218.55,-65.29"/>
</a>
</g>
</g>
<!-- Node4&#45;&gt;Node3 -->
<g id="edge4_Node000004_Node000003" class="edge">
<title>Node4&#45;&gt;Node3</title>
<g id="a_edge4_Node000004_Node000003"><a xlink:title=" ">
<path fill="none" stroke="#63b8ff" d="M177.03,-20.48C189.52,-24.67 204.1,-29.56 217.46,-34.04"/>
<polygon fill="#63b8ff" stroke="#63b8ff" points="216.31,-37.34 226.9,-37.2 218.53,-30.7 216.31,-37.34"/>
</a>
</g>
</g>
</g>
</svg>
