<?xml version="1.0" encoding="UTF-8" standalone="no"?>
<!DOCTYPE svg PUBLIC "-//W3C//DTD SVG 1.1//EN"
 "http://www.w3.org/Graphics/SVG/1.1/DTD/svg11.dtd">
<!-- Generated by graphviz version 12.2.1 (20241206.2353)
 -->
<!-- Title: INA3221::_read Pages: 1 -->
<!--zoomable 670 -->

<svg id="main" version="1.1" xmlns="http://www.w3.org/2000/svg" xmlns:xlink="http://www.w3.org/1999/xlink" xml:space="preserve" onload="init(evt)">

<style type="text/css"><![CDATA[
.node, .edge {opacity: 0.7;}
.node.selected, .edge.selected {opacity: 1;}
.edge:hover path { stroke: red; }
.edge:hover polygon { stroke: red; fill: red; }
]]></style>

<defs>
  <circle id="rim" cx="0" cy="0" r="7"/>
  <circle id="rim2" cx="0" cy="0" r="3.5"/>
  <g id="zoomPlus">
    <use xlink:href="#rim" fill="#404040"><set attributeName="fill" to="#808080" begin="zoomplus.mouseover" end="zoomplus.mouseout"/></use>
    <path d="M-4,0h8M0,-4v8" fill="none" stroke="white" stroke-width="1.5" pointer-events="none"/>
  </g>
  <g id="zoomMin">
    <use xlink:href="#rim" fill="#404040"><set attributeName="fill" to="#808080" begin="zoomminus.mouseover" end="zoomminus.mouseout"/></use>
    <path d="M-4,0h8" fill="none" stroke="white" stroke-width="1.5" pointer-events="none"/>
  </g>
  <g id="arrowUp" transform="translate(30 24)">
    <use xlink:href="#rim"/>
    <path pointer-events="none" fill="none" stroke="white" stroke-width="1.5" d="M0,-3.0v7 M-2.5,-0.5L0,-3.0L2.5,-0.5"/>
  </g>
  <g id="arrowRight" transform="rotate(90) translate(36 -43)">
    <use xlink:href="#rim"/>
    <path pointer-events="none" fill="none" stroke="white" stroke-width="1.5" d="M0,-3.0v7 M-2.5,-0.5L0,-3.0L2.5,-0.5"/>
  </g>
  <g id="arrowDown" transform="rotate(180) translate(-30 -48)">
    <use xlink:href="#rim"/>
    <path pointer-events="none" fill="none" stroke="white" stroke-width="1.5" d="M0,-3.0v7 M-2.5,-0.5L0,-3.0L2.5,-0.5"/>
  </g>
  <g id="arrowLeft" transform="rotate(270) translate(-36 17)">
    <use xlink:href="#rim"/>
    <path pointer-events="none" fill="none" stroke="white" stroke-width="1.5" d="M0,-3.0v7 M-2.5,-0.5L0,-3.0L2.5,-0.5"/>
  </g>
  <g id="resetDef">
    <use xlink:href="#rim2" fill="#404040"><set attributeName="fill" to="#808080" begin="reset.mouseover" end="reset.mouseout"/></use>
  </g>
</defs>
<script type="application/ecmascript">
var viewWidth = 463;
var viewHeight = 670;
var sectionId = 'dynsection-1';
</script>
<script type="application/ecmascript" xlink:href="svg.min.js"/>
<svg id="graph" class="graph">
<g id="viewport">
<title>INA3221::_read</title>
<!-- Node1 -->
<g id="Node000001" class="node">
<title>Node1</title>
<g id="a_Node000001"><a xlink:title=" ">
<polygon fill="#999999" stroke="#666666" points="455.25,-362 371,-362 371,-342 455.25,-342 455.25,-362"/>
<text text-anchor="middle" x="413.12" y="-348.5" font-family="Helvetica,sans-Serif" font-size="10.00">INA3221::_read</text>
</a>
</g>
</g>
<!-- Node2 -->
<g id="Node000002" class="node">
<title>Node2</title>
<g id="a_Node000002"><a xlink:href="class_i_n_a3221.html#a169cffd42ffacbd9dfca495a9f5389f0" target="_top" xlink:title=" ">
<polygon fill="white" stroke="#666666" points="301.62,-662 197.12,-662 197.12,-642 301.62,-642 301.62,-662"/>
<text text-anchor="middle" x="249.38" y="-648.5" font-family="Helvetica,sans-Serif" font-size="10.00">INA3221::get_die_id</text>
</a>
</g>
</g>
<!-- Node1&#45;&gt;Node2 -->
<g id="edge1_Node000001_Node000002" class="edge">
<title>Node1&#45;&gt;Node2</title>
<g id="a_edge1_Node000001_Node000002"><a xlink:title=" ">
<path fill="none" stroke="#63b8ff" d="M409.11,-373.51C400.37,-432.8 373.19,-596.56 335,-633 325.96,-641.63 313.88,-646.66 301.69,-649.52"/>
<polygon fill="#63b8ff" stroke="#63b8ff" points="412.56,-374.14 410.52,-363.74 405.63,-373.14 412.56,-374.14"/>
</a>
</g>
</g>
<!-- Node4 -->
<g id="Node000004" class="node">
<title>Node4</title>
<g id="a_Node000004"><a xlink:href="class_i_n_a3221.html#a77a212d3a5c806f5c706da1bd7c294d0" target="_top" xlink:title=" ">
<polygon fill="white" stroke="#666666" points="323.75,-624 175,-624 175,-604 323.75,-604 323.75,-624"/>
<text text-anchor="middle" x="249.38" y="-610.5" font-family="Helvetica,sans-Serif" font-size="10.00">INA3221::get_manufacturer_id</text>
</a>
</g>
</g>
<!-- Node1&#45;&gt;Node4 -->
<g id="edge3_Node000001_Node000004" class="edge">
<title>Node1&#45;&gt;Node4</title>
<g id="a_edge3_Node000001_Node000004"><a xlink:title=" ">
<path fill="none" stroke="#63b8ff" d="M412.02,-373.75C410.54,-421.39 399.99,-535.4 335,-595 331.34,-598.36 327.21,-601.17 322.81,-603.51"/>
<polygon fill="#63b8ff" stroke="#63b8ff" points="415.51,-374 412.2,-363.93 408.51,-373.87 415.51,-374"/>
</a>
</g>
</g>
<!-- Node5 -->
<g id="Node000005" class="node">
<title>Node5</title>
<g id="a_Node000005"><a xlink:href="class_i_n_a3221.html#ad3efd805c34a44d72cd72d9b9fd1ee15" target="_top" xlink:title=" ">
<polygon fill="white" stroke="#666666" points="300.88,-586 197.88,-586 197.88,-554 300.88,-554 300.88,-586"/>
<text text-anchor="start" x="205.88" y="-572.5" font-family="Helvetica,sans-Serif" font-size="10.00">INA3221::get_shunt</text>
<text text-anchor="middle" x="249.38" y="-560.5" font-family="Helvetica,sans-Serif" font-size="10.00">_voltage</text>
</a>
</g>
</g>
<!-- Node1&#45;&gt;Node5 -->
<g id="edge5_Node000001_Node000005" class="edge">
<title>Node1&#45;&gt;Node5</title>
<g id="a_edge5_Node000001_Node000005"><a xlink:title=" ">
<path fill="none" stroke="#63b8ff" d="M409.66,-373.54C403.95,-413.3 386.15,-498.39 335,-545 325.6,-553.56 313.4,-559.2 301.2,-562.91"/>
<polygon fill="#63b8ff" stroke="#63b8ff" points="413.13,-373.99 410.94,-363.63 406.19,-373.09 413.13,-373.99"/>
</a>
</g>
</g>
<!-- Node7 -->
<g id="Node000007" class="node">
<title>Node7</title>
<g id="a_Node000007"><a xlink:href="class_i_n_a3221.html#a7cd8cfc6d59f9b85fe1e33f10be222c6" target="_top" xlink:title=" ">
<polygon fill="white" stroke="#666666" points="304.62,-536 194.12,-536 194.12,-516 304.62,-516 304.62,-536"/>
<text text-anchor="middle" x="249.38" y="-522.5" font-family="Helvetica,sans-Serif" font-size="10.00">INA3221::get_voltage</text>
</a>
</g>
</g>
<!-- Node1&#45;&gt;Node7 -->
<g id="edge7_Node000001_Node000007" class="edge">
<title>Node1&#45;&gt;Node7</title>
<g id="a_edge7_Node000001_Node000007"><a xlink:title=" ">
<path fill="none" stroke="#63b8ff" d="M407.75,-373.1C399.61,-406.84 378.82,-472.64 335,-507 326.35,-513.78 315.75,-518.24 305.02,-521.15"/>
<polygon fill="#63b8ff" stroke="#63b8ff" points="411.08,-374.24 409.86,-363.71 404.25,-372.7 411.08,-374.24"/>
</a>
</g>
</g>
<!-- Node8 -->
<g id="Node000008" class="node">
<title>Node8</title>
<g id="a_Node000008"><a xlink:href="class_i_n_a3221.html#a3641fa1f57f0319efd9c1053e5125466" target="_top" xlink:title=" ">
<polygon fill="white" stroke="#666666" points="307.62,-498 191.12,-498 191.12,-478 307.62,-478 307.62,-498"/>
<text text-anchor="middle" x="249.38" y="-484.5" font-family="Helvetica,sans-Serif" font-size="10.00">INA3221::read_register</text>
</a>
</g>
</g>
<!-- Node1&#45;&gt;Node8 -->
<g id="edge8_Node000001_Node000008" class="edge">
<title>Node1&#45;&gt;Node8</title>
<g id="a_edge8_Node000001_Node000008"><a xlink:title=" ">
<path fill="none" stroke="#63b8ff" d="M404.22,-372.82C393,-399.42 369.88,-444.91 335,-469 326.95,-474.56 317.53,-478.52 307.95,-481.34"/>
<polygon fill="#63b8ff" stroke="#63b8ff" points="407.37,-374.37 407.85,-363.78 400.87,-371.75 407.37,-374.37"/>
</a>
</g>
</g>
<!-- Node9 -->
<g id="Node000009" class="node">
<title>Node9</title>
<g id="a_Node000009"><a xlink:href="class_i_n_a3221.html#ae6c7cc5bf50be137d0fe29c28e830d40" target="_top" xlink:title=" ">
<polygon fill="white" stroke="#666666" points="290.38,-460 208.38,-460 208.38,-440 290.38,-440 290.38,-460"/>
<text text-anchor="middle" x="249.38" y="-446.5" font-family="Helvetica,sans-Serif" font-size="10.00">INA3221::reset</text>
</a>
</g>
</g>
<!-- Node1&#45;&gt;Node9 -->
<g id="edge9_Node000001_Node000009" class="edge">
<title>Node1&#45;&gt;Node9</title>
<g id="a_edge9_Node000001_Node000009"><a xlink:title=" ">
<path fill="none" stroke="#63b8ff" d="M398.44,-371.45C384.56,-389.68 361.41,-416.26 335,-431 321.59,-438.49 305.43,-443.02 290.84,-445.77"/>
<polygon fill="#63b8ff" stroke="#63b8ff" points="401.16,-373.67 404.26,-363.54 395.52,-369.52 401.16,-373.67"/>
</a>
</g>
</g>
<!-- Node10 -->
<g id="Node000010" class="node">
<title>Node10</title>
<g id="a_Node000010"><a xlink:href="class_i_n_a3221.html#a5b525cfdf35573f8b3186219fd481b51" target="_top" xlink:title=" ">
<polygon fill="white" stroke="#666666" points="324.5,-422 174.25,-422 174.25,-402 324.5,-402 324.5,-422"/>
<text text-anchor="middle" x="249.38" y="-408.5" font-family="Helvetica,sans-Serif" font-size="10.00">INA3221::set_averaging_mode</text>
</a>
</g>
</g>
<!-- Node1&#45;&gt;Node10 -->
<g id="edge10_Node000001_Node000010" class="edge">
<title>Node1&#45;&gt;Node10</title>
<g id="a_edge10_Node000001_Node000010"><a xlink:title=" ">
<path fill="none" stroke="#63b8ff" d="M385.79,-368.27C371.26,-376.66 352.62,-386.47 335,-393 326.1,-396.29 316.46,-399.12 306.98,-401.5"/>
<polygon fill="#63b8ff" stroke="#63b8ff" points="387.45,-371.35 394.28,-363.25 383.89,-365.33 387.45,-371.35"/>
</a>
</g>
</g>
<!-- Node11 -->
<g id="Node000011" class="node">
<title>Node11</title>
<g id="a_Node000011"><a xlink:href="class_i_n_a3221.html#ac7fec9630c6d9fda2fa5230f46e200c7" target="_top" xlink:title=" ">
<polygon fill="white" stroke="#666666" points="335,-384 163.75,-384 163.75,-364 335,-364 335,-384"/>
<text text-anchor="middle" x="249.38" y="-370.5" font-family="Helvetica,sans-Serif" font-size="10.00">INA3221::set_bus_conversion_time</text>
</a>
</g>
</g>
<!-- Node1&#45;&gt;Node11 -->
<g id="edge11_Node000001_Node000011" class="edge">
<title>Node1&#45;&gt;Node11</title>
<g id="a_edge11_Node000001_Node000011"><a xlink:title=" ">
<path fill="none" stroke="#63b8ff" d="M359.6,-359.14C349.31,-360.54 338.31,-362.04 327.4,-363.52"/>
<polygon fill="#63b8ff" stroke="#63b8ff" points="359.95,-362.63 369.39,-357.81 359.01,-355.69 359.95,-362.63"/>
</a>
</g>
</g>
<!-- Node12 -->
<g id="Node000012" class="node">
<title>Node12</title>
<g id="a_Node000012"><a xlink:href="class_i_n_a3221.html#a40d79ef9f6d3c2b9f9796827a87f575b" target="_top" xlink:title=" ">
<polygon fill="white" stroke="#666666" points="329,-346 169.75,-346 169.75,-314 329,-314 329,-346"/>
<text text-anchor="start" x="177.75" y="-332.5" font-family="Helvetica,sans-Serif" font-size="10.00">INA3221::set_bus_measurement</text>
<text text-anchor="middle" x="249.38" y="-320.5" font-family="Helvetica,sans-Serif" font-size="10.00">_disable</text>
</a>
</g>
</g>
<!-- Node1&#45;&gt;Node12 -->
<g id="edge12_Node000001_Node000012" class="edge">
<title>Node1&#45;&gt;Node12</title>
<g id="a_edge12_Node000001_Node000012"><a xlink:title=" ">
<path fill="none" stroke="#63b8ff" d="M359.78,-344.88C350.03,-343.55 339.64,-342.14 329.3,-340.74"/>
<polygon fill="#63b8ff" stroke="#63b8ff" points="359.01,-348.31 369.39,-346.19 359.95,-341.37 359.01,-348.31"/>
</a>
</g>
</g>
<!-- Node13 -->
<g id="Node000013" class="node">
<title>Node13</title>
<g id="a_Node000013"><a xlink:href="class_i_n_a3221.html#aa2e0a1279f52db17f9167efb7cb2f64b" target="_top" xlink:title=" ">
<polygon fill="white" stroke="#666666" points="329,-296 169.75,-296 169.75,-264 329,-264 329,-296"/>
<text text-anchor="start" x="177.75" y="-282.5" font-family="Helvetica,sans-Serif" font-size="10.00">INA3221::set_bus_measurement</text>
<text text-anchor="middle" x="249.38" y="-270.5" font-family="Helvetica,sans-Serif" font-size="10.00">_enable</text>
</a>
</g>
</g>
<!-- Node1&#45;&gt;Node13 -->
<g id="edge13_Node000001_Node000013" class="edge">
<title>Node1&#45;&gt;Node13</title>
<g id="a_edge13_Node000001_Node000013"><a xlink:title=" ">
<path fill="none" stroke="#63b8ff" d="M388.29,-335.24C373.48,-325.4 353.75,-313.31 335,-305 328,-301.9 320.5,-299.05 312.97,-296.48"/>
<polygon fill="#63b8ff" stroke="#63b8ff" points="386.19,-338.04 396.43,-340.76 390.12,-332.25 386.19,-338.04"/>
</a>
</g>
</g>
<!-- Node14 -->
<g id="Node000014" class="node">
<title>Node14</title>
<g id="a_Node000014"><a xlink:href="class_i_n_a3221.html#a8663b152a156459c15aa258f27d15034" target="_top" xlink:title=" ">
<polygon fill="white" stroke="#666666" points="327.12,-246 171.62,-246 171.62,-226 327.12,-226 327.12,-246"/>
<text text-anchor="middle" x="249.38" y="-232.5" font-family="Helvetica,sans-Serif" font-size="10.00">INA3221::set_mode_continuous</text>
</a>
</g>
</g>
<!-- Node1&#45;&gt;Node14 -->
<g id="edge14_Node000001_Node000014" class="edge">
<title>Node1&#45;&gt;Node14</title>
<g id="a_edge14_Node000001_Node000014"><a xlink:title=" ">
<path fill="none" stroke="#63b8ff" d="M401.62,-331.79C388.91,-309.43 365.39,-274.05 335,-255 329.51,-251.56 323.48,-248.74 317.25,-246.43"/>
<polygon fill="#63b8ff" stroke="#63b8ff" points="398.38,-333.16 406.24,-340.26 404.52,-329.81 398.38,-333.16"/>
</a>
</g>
</g>
<!-- Node15 -->
<g id="Node000015" class="node">
<title>Node15</title>
<g id="a_Node000015"><a xlink:href="class_i_n_a3221.html#ab123176a3d1b1640fc78775121322d83" target="_top" xlink:title=" ">
<polygon fill="white" stroke="#666666" points="330.88,-208 167.88,-208 167.88,-188 330.88,-188 330.88,-208"/>
<text text-anchor="middle" x="249.38" y="-194.5" font-family="Helvetica,sans-Serif" font-size="10.00">INA3221::set_mode_power_down</text>
</a>
</g>
</g>
<!-- Node1&#45;&gt;Node15 -->
<g id="edge15_Node000001_Node000015" class="edge">
<title>Node1&#45;&gt;Node15</title>
<g id="a_edge15_Node000001_Node000015"><a xlink:title=" ">
<path fill="none" stroke="#63b8ff" d="M405.99,-330.65C396.16,-300.46 373.93,-245.76 335,-217 330.4,-213.6 325.3,-210.79 319.95,-208.47"/>
<polygon fill="#63b8ff" stroke="#63b8ff" points="402.62,-331.63 408.91,-340.16 409.32,-329.57 402.62,-331.63"/>
</a>
</g>
</g>
<!-- Node16 -->
<g id="Node000016" class="node">
<title>Node16</title>
<g id="a_Node000016"><a xlink:href="class_i_n_a3221.html#a270f86fd739541bb5d4495e3d93e5d0e" target="_top" xlink:title=" ">
<polygon fill="white" stroke="#666666" points="322.25,-170 176.5,-170 176.5,-150 322.25,-150 322.25,-170"/>
<text text-anchor="middle" x="249.38" y="-156.5" font-family="Helvetica,sans-Serif" font-size="10.00">INA3221::set_mode_triggered</text>
</a>
</g>
</g>
<!-- Node1&#45;&gt;Node16 -->
<g id="edge16_Node000001_Node000016" class="edge">
<title>Node1&#45;&gt;Node16</title>
<g id="a_edge16_Node000001_Node000016"><a xlink:title=" ">
<path fill="none" stroke="#63b8ff" d="M408.9,-330.6C402.16,-293.7 383.02,-218.32 335,-179 330.81,-175.57 326.12,-172.72 321.16,-170.37"/>
<polygon fill="#63b8ff" stroke="#63b8ff" points="405.44,-331.14 410.54,-340.42 412.34,-329.98 405.44,-331.14"/>
</a>
</g>
</g>
<!-- Node17 -->
<g id="Node000017" class="node">
<title>Node17</title>
<g id="a_Node000017"><a xlink:href="class_i_n_a3221.html#a96a07644259d702ec5b8d8b5f08b991f" target="_top" xlink:title=" ">
<polygon fill="white" stroke="#666666" points="300.88,-132 197.88,-132 197.88,-100 300.88,-100 300.88,-132"/>
<text text-anchor="start" x="205.88" y="-118.5" font-family="Helvetica,sans-Serif" font-size="10.00">INA3221::set_shunt</text>
<text text-anchor="middle" x="249.38" y="-106.5" font-family="Helvetica,sans-Serif" font-size="10.00">_conversion_time</text>
</a>
</g>
</g>
<!-- Node1&#45;&gt;Node17 -->
<g id="edge17_Node000001_Node000017" class="edge">
<title>Node1&#45;&gt;Node17</title>
<g id="a_edge17_Node000001_Node000017"><a xlink:title=" ">
<path fill="none" stroke="#63b8ff" d="M410.51,-330.53C406.15,-288.08 390.41,-193.01 335,-141 325.62,-132.19 313.28,-126.47 300.94,-122.76"/>
<polygon fill="#63b8ff" stroke="#63b8ff" points="407.02,-330.76 411.39,-340.41 413.99,-330.13 407.02,-330.76"/>
</a>
</g>
</g>
<!-- Node18 -->
<g id="Node000018" class="node">
<title>Node18</title>
<g id="a_Node000018"><a xlink:href="class_i_n_a3221.html#af2e57e6c71e170300cc1966ea69e112a" target="_top" xlink:title=" ">
<polygon fill="white" stroke="#666666" points="307.62,-82 191.12,-82 191.12,-50 307.62,-50 307.62,-82"/>
<text text-anchor="start" x="199.12" y="-68.5" font-family="Helvetica,sans-Serif" font-size="10.00">INA3221::set_shunt</text>
<text text-anchor="middle" x="249.38" y="-56.5" font-family="Helvetica,sans-Serif" font-size="10.00">_measurement_disable</text>
</a>
</g>
</g>
<!-- Node1&#45;&gt;Node18 -->
<g id="edge18_Node000001_Node000018" class="edge">
<title>Node1&#45;&gt;Node18</title>
<g id="a_edge18_Node000001_Node000018"><a xlink:title=" ">
<path fill="none" stroke="#63b8ff" d="M412.27,-330.34C411.4,-280.76 402.16,-158.15 335,-91 327.53,-83.53 317.93,-78.26 307.91,-74.57"/>
<polygon fill="#63b8ff" stroke="#63b8ff" points="408.77,-330.05 412.34,-340.03 415.77,-330 408.77,-330.05"/>
</a>
</g>
</g>
<!-- Node19 -->
<g id="Node000019" class="node">
<title>Node19</title>
<g id="a_Node000019"><a xlink:href="class_i_n_a3221.html#aaf37673d73bd189d1d789072a1e90f3c" target="_top" xlink:title=" ">
<polygon fill="white" stroke="#666666" points="306.5,-32 192.25,-32 192.25,0 306.5,0 306.5,-32"/>
<text text-anchor="start" x="200.25" y="-18.5" font-family="Helvetica,sans-Serif" font-size="10.00">INA3221::set_shunt</text>
<text text-anchor="middle" x="249.38" y="-6.5" font-family="Helvetica,sans-Serif" font-size="10.00">_measurement_enable</text>
</a>
</g>
</g>
<!-- Node1&#45;&gt;Node19 -->
<g id="edge19_Node000001_Node000019" class="edge">
<title>Node1&#45;&gt;Node19</title>
<g id="a_edge19_Node000001_Node000019"><a xlink:title=" ">
<path fill="none" stroke="#63b8ff" d="M409.57,-330.45C401.65,-267.12 375.57,-83.4 335,-41 327.37,-33.03 317.34,-27.57 306.87,-23.83"/>
<polygon fill="#63b8ff" stroke="#63b8ff" points="406.08,-330.73 410.76,-340.24 413.03,-329.89 406.08,-330.73"/>
</a>
</g>
</g>
<!-- Node3 -->
<g id="Node000003" class="node">
<title>Node3</title>
<g id="a_Node000003"><a xlink:href="class_i_n_a3221.html#a868af24425b042f330a0e7fae8210936" target="_top" xlink:title=" ">
<polygon fill="white" stroke="#666666" points="105.62,-643 22.12,-643 22.12,-623 105.62,-623 105.62,-643"/>
<text text-anchor="middle" x="63.88" y="-629.5" font-family="Helvetica,sans-Serif" font-size="10.00">INA3221::begin</text>
</a>
</g>
</g>
<!-- Node2&#45;&gt;Node3 -->
<g id="edge2_Node000002_Node000003" class="edge">
<title>Node2&#45;&gt;Node3</title>
<g id="a_edge2_Node000002_Node000003"><a xlink:title=" ">
<path fill="none" stroke="#63b8ff" d="M185.37,-645.48C159.09,-642.76 129.32,-639.67 105.94,-637.25"/>
<polygon fill="#63b8ff" stroke="#63b8ff" points="184.96,-648.95 195.27,-646.5 185.68,-641.99 184.96,-648.95"/>
</a>
</g>
</g>
<!-- Node4&#45;&gt;Node3 -->
<g id="edge4_Node000004_Node000003" class="edge">
<title>Node4&#45;&gt;Node3</title>
<g id="a_edge4_Node000004_Node000003"><a xlink:title=" ">
<path fill="none" stroke="#63b8ff" d="M163.19,-622.82C143.24,-624.89 122.87,-627 105.88,-628.75"/>
<polygon fill="#63b8ff" stroke="#63b8ff" points="163.44,-626.31 173.03,-621.8 162.72,-619.35 163.44,-626.31"/>
</a>
</g>
</g>
<!-- Node6 -->
<g id="Node000006" class="node">
<title>Node6</title>
<g id="a_Node000006"><a xlink:href="class_i_n_a3221.html#aa5ca21353c19c0f472e3df13bc20be08" target="_top" xlink:title=" ">
<polygon fill="white" stroke="#666666" points="127.75,-580 0,-580 0,-560 127.75,-560 127.75,-580"/>
<text text-anchor="middle" x="63.88" y="-566.5" font-family="Helvetica,sans-Serif" font-size="10.00">INA3221::get_current_ma</text>
</a>
</g>
</g>
<!-- Node5&#45;&gt;Node6 -->
<g id="edge6_Node000005_Node000006" class="edge">
<title>Node5&#45;&gt;Node6</title>
<g id="a_edge6_Node000005_Node000006"><a xlink:title=" ">
<path fill="none" stroke="#63b8ff" d="M186.34,-570C167.58,-570 146.96,-570 128.12,-570"/>
<polygon fill="#63b8ff" stroke="#63b8ff" points="186.23,-573.5 196.23,-570 186.23,-566.5 186.23,-573.5"/>
</a>
</g>
</g>
</g>
</svg>

<g id="navigator" transform="translate(0 0)" fill="#404254">
  <rect fill="#f2f5e9" fill-opacity="0.5" stroke="#606060" stroke-width=".5" x="0" y="0" width="60" height="60"/>
  <use id="zoomplus" xlink:href="#zoomPlus" x="17" y="9" onmousedown="handleZoom(evt,'in')"/>
  <use id="zoomminus" xlink:href="#zoomMin" x="42" y="9" onmousedown="handleZoom(evt,'out')"/>
  <use id="reset" xlink:href="#resetDef" x="30" y="36" onmousedown="handleReset()"/>
   <use id="arrowup" xlink:href="#arrowUp" x="0" y="0" onmousedown="handlePan(0,-1)"/>
  <use id="arrowright" xlink:href="#arrowRight" x="0" y="0" onmousedown="handlePan(1,0)"/>
  <use id="arrowdown" xlink:href="#arrowDown" x="0" y="0" onmousedown="handlePan(0,1)"/>
  <use id="arrowleft" xlink:href="#arrowLeft" x="0" y="0" onmousedown="handlePan(-1,0)"/>
</g>
<svg viewBox="0 0 15 15" width="100%" height="30px" preserveAspectRatio="xMaxYMin meet">
 <g id="arrow_out" transform="scale(0.3 0.3)">
  <a xlink:href="class_i_n_a3221_a0b4c630038abf482bef36f3083ab20ff_icgraph_org.svg" target="_base">
   <rect id="button" ry="5" rx="5" y="6" x="6" height="38" width="38"
        fill="#f2f5e9" fill-opacity="0.5" stroke="#606060" stroke-width="1.0"/>
   <path id="arrow"
     d="M 11.500037,31.436501 C 11.940474,20.09759 22.043105,11.32322 32.158766,21.979434 L 37.068811,17.246167 C 37.068811,17.246167 37.088388,32 37.088388,32 L 22.160133,31.978069 C 22.160133,31.978069 26.997745,27.140456 26.997745,27.140456 C 18.528582,18.264221 13.291696,25.230495 11.500037,31.436501 z"
     style="fill:#404040;"/>
  </a>
 </g>
</svg>

<style type='text/css'>
<![CDATA[
[data-mouse-over-selected='false'] { opacity: 0.7; }
[data-mouse-over-selected='true']  { opacity: 1.0; }
]]>
</style>
<script type="application/ecmascript"><![CDATA[
document.addEventListener('DOMContentLoaded', (event) => {
  highlightEdges();
  highlightAdjacentNodes();
});
]]></script>
</svg>
