<?xml version="1.0" encoding="UTF-8" standalone="no"?>
<!DOCTYPE svg PUBLIC "-//W3C//DTD SVG 1.1//EN"
 "http://www.w3.org/Graphics/SVG/1.1/DTD/svg11.dtd">
<!-- Generated by graphviz version 12.2.1 (20241206.2353)
 -->
<!-- Title: INA3221::_write Pages: 1 -->
<svg width="301pt" height="408pt"
 viewBox="0.00 0.00 301.00 408.00" xmlns="http://www.w3.org/2000/svg" xmlns:xlink="http://www.w3.org/1999/xlink">

<svg id="main" version="1.1" xmlns="http://www.w3.org/2000/svg" xmlns:xlink="http://www.w3.org/1999/xlink" xml:space="preserve">

<style type="text/css"><![CDATA[
.node, .edge {opacity: 0.7;}
.node.selected, .edge.selected {opacity: 1;}
.edge:hover path { stroke: red; }
.edge:hover polygon { stroke: red; fill: red; }
]]></style>
<script type="application/ecmascript" xlink:href="svg.min.js"/>
<svg id="graph" class="graph">
<g id="graph0" class="graph" transform="scale(1 1) rotate(0) translate(4 404)">
<title>INA3221::_write</title>
<!-- Node1 -->
<g id="Node000001" class="node">
<title>Node1</title>
<g id="a_Node000001"><a xlink:title=" ">
<polygon fill="#999999" stroke="#666666" points="293,-210 206.5,-210 206.5,-190 293,-190 293,-210"/>
<text text-anchor="middle" x="249.75" y="-196.5" font-family="Helvetica,sans-Serif" font-size="10.00">INA3221::_write</text>
</a>
</g>
</g>
<!-- Node2 -->
<g id="Node000002" class="node">
<title>Node2</title>
<g id="a_Node000002"><a xlink:href="class_i_n_a3221.html#ae6c7cc5bf50be137d0fe29c28e830d40" target="_top" xlink:title=" ">
<polygon fill="white" stroke="#666666" points="126.25,-400 44.25,-400 44.25,-380 126.25,-380 126.25,-400"/>
<text text-anchor="middle" x="85.25" y="-386.5" font-family="Helvetica,sans-Serif" font-size="10.00">INA3221::reset</text>
</a>
</g>
</g>
<!-- Node1&#45;&gt;Node2 -->
<g id="edge1_Node000001_Node000002" class="edge">
<title>Node1&#45;&gt;Node2</title>
<g id="a_edge1_Node000001_Node000002"><a xlink:title=" ">
<path fill="none" stroke="#63b8ff" d="M245.19,-221.69C237.99,-258.35 218.12,-332.35 170.5,-371 158.16,-381.02 141.59,-385.99 126.42,-388.39"/>
<polygon fill="#63b8ff" stroke="#63b8ff" points="248.63,-222.35 246.97,-211.88 241.74,-221.1 248.63,-222.35"/>
</a>
</g>
</g>
<!-- Node3 -->
<g id="Node000003" class="node">
<title>Node3</title>
<g id="a_Node000003"><a xlink:href="class_i_n_a3221.html#ac6c7d97118d5f59116ffdde5551fea5d" target="_top" xlink:title=" ">
<polygon fill="white" stroke="#666666" points="155.88,-362 14.62,-362 14.62,-342 155.88,-342 155.88,-362"/>
<text text-anchor="middle" x="85.25" y="-348.5" font-family="Helvetica,sans-Serif" font-size="10.00">INA3221::setAveragingMode</text>
</a>
</g>
</g>
<!-- Node1&#45;&gt;Node3 -->
<g id="edge2_Node000001_Node000003" class="edge">
<title>Node1&#45;&gt;Node3</title>
<g id="a_edge2_Node000001_Node000003"><a xlink:title=" ">
<path fill="none" stroke="#63b8ff" d="M242.34,-221.04C232.14,-250.79 209.3,-304.69 170.5,-333 165.78,-336.45 160.54,-339.28 155.05,-341.62"/>
<polygon fill="#63b8ff" stroke="#63b8ff" points="245.61,-222.28 245.37,-211.69 238.96,-220.12 245.61,-222.28"/>
</a>
</g>
</g>
<!-- Node4 -->
<g id="Node000004" class="node">
<title>Node4</title>
<g id="a_Node000004"><a xlink:href="class_i_n_a3221.html#a18dc37e7e320d82427309a954eecbc66" target="_top" xlink:title=" ">
<polygon fill="white" stroke="#666666" points="166.38,-324 4.12,-324 4.12,-304 166.38,-304 166.38,-324"/>
<text text-anchor="middle" x="85.25" y="-310.5" font-family="Helvetica,sans-Serif" font-size="10.00">INA3221::setBusConversionTime</text>
</a>
</g>
</g>
<!-- Node1&#45;&gt;Node4 -->
<g id="edge3_Node000001_Node000004" class="edge">
<title>Node1&#45;&gt;Node4</title>
<g id="a_edge3_Node000001_Node000004"><a xlink:title=" ">
<path fill="none" stroke="#63b8ff" d="M237.73,-220.09C224.63,-242 200.7,-276.41 170.5,-295 164.88,-298.46 158.71,-301.29 152.33,-303.61"/>
<polygon fill="#63b8ff" stroke="#63b8ff" points="240.71,-221.92 242.66,-211.51 234.64,-218.43 240.71,-221.92"/>
</a>
</g>
</g>
<!-- Node5 -->
<g id="Node000005" class="node">
<title>Node5</title>
<g id="a_Node000005"><a xlink:href="class_i_n_a3221.html#aec3368e9e3fb26d61f4859aef4d1622a" target="_top" xlink:title=" ">
<polygon fill="white" stroke="#666666" points="159.25,-286 11.25,-286 11.25,-266 159.25,-266 159.25,-286"/>
<text text-anchor="middle" x="85.25" y="-272.5" font-family="Helvetica,sans-Serif" font-size="10.00">INA3221::setBusMeasDisable</text>
</a>
</g>
</g>
<!-- Node1&#45;&gt;Node5 -->
<g id="edge4_Node000001_Node000005" class="edge">
<title>Node1&#45;&gt;Node5</title>
<g id="a_edge4_Node000001_Node000005"><a xlink:title=" ">
<path fill="none" stroke="#63b8ff" d="M229.61,-217.42C214.57,-230.2 192.56,-247 170.5,-257 162.99,-260.41 154.82,-263.22 146.61,-265.55"/>
<polygon fill="#63b8ff" stroke="#63b8ff" points="231.64,-220.29 236.87,-211.08 227.03,-215.02 231.64,-220.29"/>
</a>
</g>
</g>
<!-- Node6 -->
<g id="Node000006" class="node">
<title>Node6</title>
<g id="a_Node000006"><a xlink:href="class_i_n_a3221.html#a025d641b38dd4483ab3a9e6cd50de504" target="_top" xlink:title=" ">
<polygon fill="white" stroke="#666666" points="157.75,-248 12.75,-248 12.75,-228 157.75,-228 157.75,-248"/>
<text text-anchor="middle" x="85.25" y="-234.5" font-family="Helvetica,sans-Serif" font-size="10.00">INA3221::setBusMeasEnable</text>
</a>
</g>
</g>
<!-- Node1&#45;&gt;Node6 -->
<g id="edge5_Node000001_Node000006" class="edge">
<title>Node1&#45;&gt;Node6</title>
<g id="a_edge5_Node000001_Node000006"><a xlink:title=" ">
<path fill="none" stroke="#63b8ff" d="M195.08,-213.15C186.85,-215.14 178.45,-217.14 170.5,-219 158.38,-221.84 145.27,-224.83 133.07,-227.58"/>
<polygon fill="#63b8ff" stroke="#63b8ff" points="195.77,-216.59 204.67,-210.84 194.12,-209.79 195.77,-216.59"/>
</a>
</g>
</g>
<!-- Node7 -->
<g id="Node000007" class="node">
<title>Node7</title>
<g id="a_Node000007"><a xlink:href="class_i_n_a3221.html#a32aa07825afe0f342dbfd5d81c396c40" target="_top" xlink:title=" ">
<polygon fill="white" stroke="#666666" points="157.38,-210 13.12,-210 13.12,-190 157.38,-190 157.38,-210"/>
<text text-anchor="middle" x="85.25" y="-196.5" font-family="Helvetica,sans-Serif" font-size="10.00">INA3221::setModeContinious</text>
</a>
</g>
</g>
<!-- Node1&#45;&gt;Node7 -->
<g id="edge6_Node000001_Node000007" class="edge">
<title>Node1&#45;&gt;Node7</title>
<g id="a_edge6_Node000001_Node000007"><a xlink:title=" ">
<path fill="none" stroke="#63b8ff" d="M194.91,-200C182.95,-200 170.1,-200 157.56,-200"/>
<polygon fill="#63b8ff" stroke="#63b8ff" points="194.54,-203.5 204.54,-200 194.54,-196.5 194.54,-203.5"/>
</a>
</g>
</g>
<!-- Node8 -->
<g id="Node000008" class="node">
<title>Node8</title>
<g id="a_Node000008"><a xlink:href="class_i_n_a3221.html#ab1362daa6e137938f34e1fc0d834a86a" target="_top" xlink:title=" ">
<polygon fill="white" stroke="#666666" points="160.75,-172 9.75,-172 9.75,-152 160.75,-152 160.75,-172"/>
<text text-anchor="middle" x="85.25" y="-158.5" font-family="Helvetica,sans-Serif" font-size="10.00">INA3221::setModePowerDown</text>
</a>
</g>
</g>
<!-- Node1&#45;&gt;Node8 -->
<g id="edge7_Node000001_Node000008" class="edge">
<title>Node1&#45;&gt;Node8</title>
<g id="a_edge7_Node000001_Node000008"><a xlink:title=" ">
<path fill="none" stroke="#63b8ff" d="M195.08,-186.85C186.85,-184.86 178.45,-182.86 170.5,-181 158.38,-178.16 145.27,-175.17 133.07,-172.42"/>
<polygon fill="#63b8ff" stroke="#63b8ff" points="194.12,-190.21 204.67,-189.16 195.77,-183.41 194.12,-190.21"/>
</a>
</g>
</g>
<!-- Node9 -->
<g id="Node000009" class="node">
<title>Node9</title>
<g id="a_Node000009"><a xlink:href="class_i_n_a3221.html#a928cf10c0cf6b6d55a860196ec82b51d" target="_top" xlink:title=" ">
<polygon fill="white" stroke="#666666" points="154.38,-134 16.12,-134 16.12,-114 154.38,-114 154.38,-134"/>
<text text-anchor="middle" x="85.25" y="-120.5" font-family="Helvetica,sans-Serif" font-size="10.00">INA3221::setModeTriggered</text>
</a>
</g>
</g>
<!-- Node1&#45;&gt;Node9 -->
<g id="edge8_Node000001_Node000009" class="edge">
<title>Node1&#45;&gt;Node9</title>
<g id="a_edge8_Node000001_Node000009"><a xlink:title=" ">
<path fill="none" stroke="#63b8ff" d="M229.61,-182.58C214.57,-169.8 192.56,-153 170.5,-143 162.99,-139.59 154.82,-136.78 146.61,-134.45"/>
<polygon fill="#63b8ff" stroke="#63b8ff" points="227.03,-184.98 236.87,-188.92 231.64,-179.71 227.03,-184.98"/>
</a>
</g>
</g>
<!-- Node10 -->
<g id="Node000010" class="node">
<title>Node10</title>
<g id="a_Node000010"><a xlink:href="class_i_n_a3221.html#ae0c3b6df34fdb54b770c8ec046cddf6f" target="_top" xlink:title=" ">
<polygon fill="white" stroke="#666666" points="170.5,-96 0,-96 0,-76 170.5,-76 170.5,-96"/>
<text text-anchor="middle" x="85.25" y="-82.5" font-family="Helvetica,sans-Serif" font-size="10.00">INA3221::setShuntConversionTime</text>
</a>
</g>
</g>
<!-- Node1&#45;&gt;Node10 -->
<g id="edge9_Node000001_Node000010" class="edge">
<title>Node1&#45;&gt;Node10</title>
<g id="a_edge9_Node000001_Node000010"><a xlink:title=" ">
<path fill="none" stroke="#63b8ff" d="M237.73,-179.91C224.63,-158 200.7,-123.59 170.5,-105 164.88,-101.54 158.71,-98.71 152.33,-96.39"/>
<polygon fill="#63b8ff" stroke="#63b8ff" points="234.64,-181.57 242.66,-188.49 240.71,-178.08 234.64,-181.57"/>
</a>
</g>
</g>
<!-- Node11 -->
<g id="Node000011" class="node">
<title>Node11</title>
<g id="a_Node000011"><a xlink:href="class_i_n_a3221.html#a81e01ea764e82831ef3439f44eacc419" target="_top" xlink:title=" ">
<polygon fill="white" stroke="#666666" points="163.38,-58 7.12,-58 7.12,-38 163.38,-38 163.38,-58"/>
<text text-anchor="middle" x="85.25" y="-44.5" font-family="Helvetica,sans-Serif" font-size="10.00">INA3221::setShuntMeasDisable</text>
</a>
</g>
</g>
<!-- Node1&#45;&gt;Node11 -->
<g id="edge10_Node000001_Node000011" class="edge">
<title>Node1&#45;&gt;Node11</title>
<g id="a_edge10_Node000001_Node000011"><a xlink:title=" ">
<path fill="none" stroke="#63b8ff" d="M242.34,-178.96C232.14,-149.21 209.3,-95.31 170.5,-67 165.78,-63.55 160.54,-60.72 155.05,-58.38"/>
<polygon fill="#63b8ff" stroke="#63b8ff" points="238.96,-179.88 245.37,-188.31 245.61,-177.72 238.96,-179.88"/>
</a>
</g>
</g>
<!-- Node12 -->
<g id="Node000012" class="node">
<title>Node12</title>
<g id="a_Node000012"><a xlink:href="class_i_n_a3221.html#a7296fe865ee5f7ddc99eb2149aea22ce" target="_top" xlink:title=" ">
<polygon fill="white" stroke="#666666" points="161.88,-20 8.62,-20 8.62,0 161.88,0 161.88,-20"/>
<text text-anchor="middle" x="85.25" y="-6.5" font-family="Helvetica,sans-Serif" font-size="10.00">INA3221::setShuntMeasEnable</text>
</a>
</g>
</g>
<!-- Node1&#45;&gt;Node12 -->
<g id="edge11_Node000001_Node000012" class="edge">
<title>Node1&#45;&gt;Node12</title>
<g id="a_edge11_Node000001_Node000012"><a xlink:title=" ">
<path fill="none" stroke="#63b8ff" d="M245.19,-178.31C237.99,-141.65 218.12,-67.65 170.5,-29 166.31,-25.6 161.63,-22.78 156.68,-20.44"/>
<polygon fill="#63b8ff" stroke="#63b8ff" points="241.74,-178.9 246.97,-188.12 248.63,-177.65 241.74,-178.9"/>
</a>
</g>
</g>
</g>
</svg>
</svg>

<style type='text/css'>
<![CDATA[
[data-mouse-over-selected='false'] { opacity: 0.7; }
[data-mouse-over-selected='true']  { opacity: 1.0; }
]]>
</style>
<script type="application/ecmascript"><![CDATA[
document.addEventListener('DOMContentLoaded', (event) => {
  highlightEdges();
  highlightAdjacentNodes();
});
]]></script>
</svg>
