<?xml version="1.0" encoding="UTF-8" standalone="no"?>
<!DOCTYPE svg PUBLIC "-//W3C//DTD SVG 1.1//EN"
 "http://www.w3.org/Graphics/SVG/1.1/DTD/svg11.dtd">
<!-- Generated by graphviz version 12.2.1 (20241206.2353)
 -->
<!-- Title: DS3231::set_unix_time Pages: 1 -->
<svg width="408pt" height="142pt"
 viewBox="0.00 0.00 407.75 142.00" xmlns="http://www.w3.org/2000/svg" xmlns:xlink="http://www.w3.org/1999/xlink">

<svg id="main" version="1.1" xmlns="http://www.w3.org/2000/svg" xmlns:xlink="http://www.w3.org/1999/xlink" xml:space="preserve">

<style type="text/css"><![CDATA[
.node, .edge {opacity: 0.7;}
.node.selected, .edge.selected {opacity: 1;}
.edge:hover path { stroke: red; }
.edge:hover polygon { stroke: red; fill: red; }
]]></style>
<script type="application/ecmascript" xlink:href="svg.min.js"/>
<svg id="graph" class="graph">
<g id="graph0" class="graph" transform="scale(1 1) rotate(0) translate(4 138)">
<title>DS3231::set_unix_time</title>
<!-- Node1 -->
<g id="Node000001" class="node">
<title>Node1</title>
<g id="a_Node000001"><a xlink:title=" ">
<polygon fill="#999999" stroke="#666666" points="118,-77 0,-77 0,-57 118,-57 118,-77"/>
<text text-anchor="middle" x="59" y="-63.5" font-family="Helvetica,sans-Serif" font-size="10.00">DS3231::set_unix_time</text>
</a>
</g>
</g>
<!-- Node2 -->
<g id="Node000002" class="node">
<title>Node2</title>
<g id="a_Node000002"><a xlink:href="class_d_s3231.html#af68ef517aa7ff25393490211abc99fa8" target="_top" xlink:title=" ">
<polygon fill="white" stroke="#666666" points="248.75,-77 154,-77 154,-57 248.75,-57 248.75,-77"/>
<text text-anchor="middle" x="201.38" y="-63.5" font-family="Helvetica,sans-Serif" font-size="10.00">DS3231::set_time</text>
</a>
</g>
</g>
<!-- Node1&#45;&gt;Node2 -->
<g id="edge1_Node000001_Node000002" class="edge">
<title>Node1&#45;&gt;Node2</title>
<g id="a_edge1_Node000001_Node000002"><a xlink:title=" ">
<path fill="none" stroke="#63b8ff" d="M118.31,-67C126.21,-67 134.31,-67 142.2,-67"/>
<polygon fill="#63b8ff" stroke="#63b8ff" points="142.05,-70.5 152.05,-67 142.05,-63.5 142.05,-70.5"/>
</a>
</g>
</g>
<!-- Node3 -->
<g id="Node000003" class="node">
<title>Node3</title>
<g id="a_Node000003"><a xlink:href="class_d_s3231.html#aa8ad05d783b0b67f10e8726863ff4891" target="_top" xlink:title="Library function that takes an 8 bit unsigned integer and converts into Binary Coded Decimal number t...">
<polygon fill="white" stroke="#666666" points="394.5,-134 290,-134 290,-114 394.5,-114 394.5,-134"/>
<text text-anchor="middle" x="342.25" y="-120.5" font-family="Helvetica,sans-Serif" font-size="10.00">DS3231::bin_to_bcd</text>
</a>
</g>
</g>
<!-- Node2&#45;&gt;Node3 -->
<g id="edge2_Node000002_Node000003" class="edge">
<title>Node2&#45;&gt;Node3</title>
<g id="a_edge2_Node000002_Node000003"><a xlink:title=" ">
<path fill="none" stroke="#63b8ff" d="M223.44,-77.48C239.92,-85.49 263.53,-96.57 284.75,-105 288.85,-106.63 293.16,-108.25 297.48,-109.8"/>
<polygon fill="#63b8ff" stroke="#63b8ff" points="296.15,-113.04 306.74,-113.04 298.46,-106.44 296.15,-113.04"/>
</a>
</g>
</g>
<!-- Node4 -->
<g id="Node000004" class="node">
<title>Node4</title>
<g id="a_Node000004"><a xlink:href="class_d_s3231.html#ae3895581e62c411451d12de3e7558207" target="_top" xlink:title="Library function to read a specific I2C register adress.">
<polygon fill="white" stroke="#666666" points="398.62,-96 285.88,-96 285.88,-76 398.62,-76 398.62,-96"/>
<text text-anchor="middle" x="342.25" y="-82.5" font-family="Helvetica,sans-Serif" font-size="10.00">DS3231::i2c_read_reg</text>
</a>
</g>
</g>
<!-- Node2&#45;&gt;Node4 -->
<g id="edge3_Node000002_Node000004" class="edge">
<title>Node2&#45;&gt;Node4</title>
<g id="a_edge3_Node000002_Node000004"><a xlink:title=" ">
<path fill="none" stroke="#63b8ff" d="M249,-73.38C257.22,-74.5 265.92,-75.69 274.56,-76.88"/>
<polygon fill="#63b8ff" stroke="#63b8ff" points="273.96,-80.33 284.34,-78.21 274.91,-73.39 273.96,-80.33"/>
</a>
</g>
</g>
<!-- Node5 -->
<g id="Node000005" class="node">
<title>Node5</title>
<g id="a_Node000005"><a xlink:href="class_d_s3231.html#a2fa69b2c58e800b2a06e4966ca21b59c" target="_top" xlink:title="Library function to write to a specific I2C register adress.">
<polygon fill="white" stroke="#666666" points="399.75,-58 284.75,-58 284.75,-38 399.75,-38 399.75,-58"/>
<text text-anchor="middle" x="342.25" y="-44.5" font-family="Helvetica,sans-Serif" font-size="10.00">DS3231::i2c_write_reg</text>
</a>
</g>
</g>
<!-- Node2&#45;&gt;Node5 -->
<g id="edge4_Node000002_Node000005" class="edge">
<title>Node2&#45;&gt;Node5</title>
<g id="a_edge4_Node000002_Node000005"><a xlink:title=" ">
<path fill="none" stroke="#63b8ff" d="M249,-60.62C256.81,-59.55 265.04,-58.43 273.25,-57.3"/>
<polygon fill="#63b8ff" stroke="#63b8ff" points="273.44,-60.81 282.88,-55.99 272.49,-53.87 273.44,-60.81"/>
</a>
</g>
</g>
<!-- Node6 -->
<g id="Node000006" class="node">
<title>Node6</title>
<g id="a_Node000006"><a xlink:href="utils_8cpp.html#acd86977d05fa330749958ace0f2798de" target="_top" xlink:title="Prints a message to the UART with a timestamp and core number.">
<polygon fill="white" stroke="#666666" points="370.5,-20 314,-20 314,0 370.5,0 370.5,-20"/>
<text text-anchor="middle" x="342.25" y="-6.5" font-family="Helvetica,sans-Serif" font-size="10.00">uart_print</text>
</a>
</g>
</g>
<!-- Node2&#45;&gt;Node6 -->
<g id="edge5_Node000002_Node000006" class="edge">
<title>Node2&#45;&gt;Node6</title>
<g id="a_edge5_Node000002_Node000006"><a xlink:title=" ">
<path fill="none" stroke="#63b8ff" d="M223.44,-56.52C239.92,-48.51 263.53,-37.43 284.75,-29 290.58,-26.68 296.82,-24.4 302.94,-22.26"/>
<polygon fill="#63b8ff" stroke="#63b8ff" points="303.96,-25.61 312.3,-19.08 301.71,-18.98 303.96,-25.61"/>
</a>
</g>
</g>
</g>
</svg>
</svg>

<style type='text/css'>
<![CDATA[
[data-mouse-over-selected='false'] { opacity: 0.7; }
[data-mouse-over-selected='true']  { opacity: 1.0; }
]]>
</style>
<script type="application/ecmascript"><![CDATA[
document.addEventListener('DOMContentLoaded', (event) => {
  highlightEdges();
  highlightAdjacentNodes();
});
]]></script>
</svg>
