<?xml version="1.0" encoding="UTF-8" standalone="no"?>
<!DOCTYPE svg PUBLIC "-//W3C//DTD SVG 1.1//EN"
 "http://www.w3.org/Graphics/SVG/1.1/DTD/svg11.dtd">
<!-- Generated by graphviz version 12.2.1 (20241206.2353)
 -->
<!-- Title: Print::print Pages: 1 -->
<svg width="384pt" height="28pt"
 viewBox="0.00 0.00 384.00 28.00" xmlns="http://www.w3.org/2000/svg" xmlns:xlink="http://www.w3.org/1999/xlink">
<g id="graph0" class="graph" transform="scale(1 1) rotate(0) translate(4 24)">
<title>Print::print</title>
<!-- Node1 -->
<g id="Node000001" class="node">
<title>Node1</title>
<g id="a_Node000001"><a xlink:title=" ">
<polygon fill="#999999" stroke="#666666" points="61,-20 0,-20 0,0 61,0 61,-20"/>
<text text-anchor="middle" x="30.5" y="-6.5" font-family="Helvetica,sans-Serif" font-size="10.00">Print::print</text>
</a>
</g>
</g>
<!-- Node2 -->
<g id="Node000002" class="node">
<title>Node2</title>
<g id="a_Node000002"><a xlink:href="class_print.html#adb44122cacb3fbd2338858efb54ffdef" target="_top" xlink:title=" ">
<polygon fill="white" stroke="#666666" points="179.75,-20 97,-20 97,0 179.75,0 179.75,-20"/>
<text text-anchor="middle" x="138.38" y="-6.5" font-family="Helvetica,sans-Serif" font-size="10.00">Print::printFloat</text>
</a>
</g>
</g>
<!-- Node1&#45;&gt;Node2 -->
<g id="edge1_Node000001_Node000002" class="edge">
<title>Node1&#45;&gt;Node2</title>
<g id="a_edge1_Node000001_Node000002"><a xlink:title=" ">
<path fill="none" stroke="#63b8ff" d="M61.27,-10C68.84,-10 77.2,-10 85.52,-10"/>
<polygon fill="#63b8ff" stroke="#63b8ff" points="85.25,-13.5 95.25,-10 85.25,-6.5 85.25,-13.5"/>
</a>
</g>
</g>
<!-- Node3 -->
<g id="Node000003" class="node">
<title>Node3</title>
<g id="a_Node000003"><a xlink:href="class_print.html#a1e411d07a8ffec5faf7ce485bac0f029" target="_top" xlink:title=" ">
<polygon fill="white" stroke="#666666" points="276.75,-20 215.75,-20 215.75,0 276.75,0 276.75,-20"/>
<text text-anchor="middle" x="246.25" y="-6.5" font-family="Helvetica,sans-Serif" font-size="10.00">Print::print</text>
</a>
</g>
</g>
<!-- Node2&#45;&gt;Node3 -->
<g id="edge2_Node000002_Node000003" class="edge">
<title>Node2&#45;&gt;Node3</title>
<g id="a_edge2_Node000002_Node000003"><a xlink:title=" ">
<path fill="none" stroke="#63b8ff" d="M180.01,-10C187.92,-10 196.22,-10 204.15,-10"/>
<polygon fill="#63b8ff" stroke="#63b8ff" points="203.9,-13.5 213.9,-10 203.9,-6.5 203.9,-13.5"/>
</a>
</g>
</g>
<!-- Node4 -->
<g id="Node000004" class="node">
<title>Node4</title>
<g id="a_Node000004"><a xlink:href="class_print.html#a5be30d49adae2406a270c29ba9a3e0a3" target="_top" xlink:title=" ">
<polygon fill="white" stroke="#666666" points="376,-20 312.75,-20 312.75,0 376,0 376,-20"/>
<text text-anchor="middle" x="344.38" y="-6.5" font-family="Helvetica,sans-Serif" font-size="10.00">Print::write</text>
</a>
</g>
</g>
<!-- Node3&#45;&gt;Node4 -->
<g id="edge3_Node000003_Node000004" class="edge">
<title>Node3&#45;&gt;Node4</title>
<g id="a_edge3_Node000003_Node000004"><a xlink:title=" ">
<path fill="none" stroke="#63b8ff" d="M277.14,-10C284.78,-10 293.14,-10 301.27,-10"/>
<polygon fill="#63b8ff" stroke="#63b8ff" points="301,-13.5 311,-10 301,-6.5 301,-13.5"/>
</a>
</g>
</g>
</g>
</svg>
