<?xml version="1.0" encoding="UTF-8" standalone="no"?>
<!DOCTYPE svg PUBLIC "-//W3C//DTD SVG 1.1//EN"
 "http://www.w3.org/Graphics/SVG/1.1/DTD/svg11.dtd">
<!-- Generated by graphviz version 12.2.1 (20241206.2353)
 -->
<!-- Title: ErriezDS3231::readBuffer Pages: 1 -->
<svg width="811pt" height="227pt"
 viewBox="0.00 0.00 811.00 227.00" xmlns="http://www.w3.org/2000/svg" xmlns:xlink="http://www.w3.org/1999/xlink">
<g id="graph0" class="graph" transform="scale(1 1) rotate(0) translate(4 223)">
<title>ErriezDS3231::readBuffer</title>
<!-- Node1 -->
<g id="Node000001" class="node">
<title>Node1</title>
<g id="a_Node000001"><a xlink:title="Read buffer from RTC.">
<polygon fill="#999999" stroke="#666666" points="803,-162 676,-162 676,-142 803,-142 803,-162"/>
<text text-anchor="middle" x="739.5" y="-148.5" font-family="Helvetica,sans-Serif" font-size="10.00">ErriezDS3231::readBuffer</text>
</a>
</g>
</g>
<!-- Node2 -->
<g id="Node000002" class="node">
<title>Node2</title>
<g id="a_Node000002"><a xlink:href="class_erriez_d_s3231.html#a57de666506f26c9524ef1a7a2aff23ad" target="_top" xlink:title="Read temperature.">
<polygon fill="white" stroke="#666666" points="640,-219 489.75,-219 489.75,-199 640,-199 640,-219"/>
<text text-anchor="middle" x="564.88" y="-205.5" font-family="Helvetica,sans-Serif" font-size="10.00">ErriezDS3231::getTemperature</text>
</a>
</g>
</g>
<!-- Node1&#45;&gt;Node2 -->
<g id="edge1_Node000001_Node000002" class="edge">
<title>Node1&#45;&gt;Node2</title>
<g id="a_edge1_Node000001_Node000002"><a xlink:title=" ">
<path fill="none" stroke="#63b8ff" d="M703.44,-166.68C684.79,-174.19 661.35,-183.17 640,-190 630.38,-193.08 619.94,-196 610.02,-198.59"/>
<polygon fill="#63b8ff" stroke="#63b8ff" points="704.75,-169.92 712.69,-162.91 702.11,-163.44 704.75,-169.92"/>
</a>
</g>
</g>
<!-- Node3 -->
<g id="Node000003" class="node">
<title>Node3</title>
<g id="a_Node000003"><a xlink:href="class_erriez_d_s3231.html#abaa1d99e3954802c1be37e9dfd585ba9" target="_top" xlink:title="Read time from RTC.">
<polygon fill="white" stroke="#666666" points="623.88,-181 505.88,-181 505.88,-161 623.88,-161 623.88,-181"/>
<text text-anchor="middle" x="564.88" y="-167.5" font-family="Helvetica,sans-Serif" font-size="10.00">ErriezDS3231::getTime</text>
</a>
</g>
</g>
<!-- Node1&#45;&gt;Node3 -->
<g id="edge2_Node000001_Node000003" class="edge">
<title>Node1&#45;&gt;Node3</title>
<g id="a_edge2_Node000001_Node000003"><a xlink:title=" ">
<path fill="none" stroke="#63b8ff" d="M664.53,-160.14C651.09,-161.62 637.24,-163.14 624.33,-164.57"/>
<polygon fill="#63b8ff" stroke="#63b8ff" points="664.63,-163.65 674.19,-159.08 663.86,-156.69 664.63,-163.65"/>
</a>
</g>
</g>
<!-- Node4 -->
<g id="Node000004" class="node">
<title>Node4</title>
<g id="a_Node000004"><a xlink:href="class_erriez_d_s3231.html#a0261677270cc639a23daebbabcf0e6fc" target="_top" xlink:title="Read date and time from RTC.">
<polygon fill="white" stroke="#666666" points="615.62,-143 514.12,-143 514.12,-123 615.62,-123 615.62,-143"/>
<text text-anchor="middle" x="564.88" y="-129.5" font-family="Helvetica,sans-Serif" font-size="10.00">ErriezDS3231::read</text>
</a>
</g>
</g>
<!-- Node1&#45;&gt;Node4 -->
<g id="edge3_Node000001_Node000004" class="edge">
<title>Node1&#45;&gt;Node4</title>
<g id="a_edge3_Node000001_Node000004"><a xlink:title=" ">
<path fill="none" stroke="#63b8ff" d="M664.47,-143.85C648.09,-142.05 631.1,-140.18 615.93,-138.51"/>
<polygon fill="#63b8ff" stroke="#63b8ff" points="663.86,-147.31 674.19,-144.92 664.63,-140.35 663.86,-147.31"/>
</a>
</g>
</g>
<!-- Node8 -->
<g id="Node000008" class="node">
<title>Node8</title>
<g id="a_Node000008"><a xlink:href="class_erriez_d_s3231.html#aab9ee8e4653b2806a82cf12a22c5c1dd" target="_top" xlink:title="Read register.">
<polygon fill="white" stroke="#666666" points="634,-86 495.75,-86 495.75,-66 634,-66 634,-86"/>
<text text-anchor="middle" x="564.88" y="-72.5" font-family="Helvetica,sans-Serif" font-size="10.00">ErriezDS3231::readRegister</text>
</a>
</g>
</g>
<!-- Node1&#45;&gt;Node8 -->
<g id="edge7_Node000001_Node000008" class="edge">
<title>Node1&#45;&gt;Node8</title>
<g id="a_edge7_Node000001_Node000008"><a xlink:title=" ">
<path fill="none" stroke="#63b8ff" d="M704.49,-137.03C670.54,-122.08 619.25,-99.5 589.51,-86.4"/>
<polygon fill="#63b8ff" stroke="#63b8ff" points="702.91,-140.16 713.47,-140.98 705.73,-133.75 702.91,-140.16"/>
</a>
</g>
</g>
<!-- Node5 -->
<g id="Node000005" class="node">
<title>Node5</title>
<g id="a_Node000005"><a xlink:href="class_erriez_d_s3231.html#a5c4f30f85b325e4bcdecd976cfda0f93" target="_top" xlink:title="Get date time.">
<polygon fill="white" stroke="#666666" points="453.75,-210 314.75,-210 314.75,-190 453.75,-190 453.75,-210"/>
<text text-anchor="middle" x="384.25" y="-196.5" font-family="Helvetica,sans-Serif" font-size="10.00">ErriezDS3231::getDateTime</text>
</a>
</g>
</g>
<!-- Node4&#45;&gt;Node5 -->
<g id="edge4_Node000004_Node000005" class="edge">
<title>Node4&#45;&gt;Node5</title>
<g id="a_edge4_Node000004_Node000005"><a xlink:title=" ">
<path fill="none" stroke="#63b8ff" d="M502.99,-146.31C498.42,-148 493.96,-149.89 489.75,-152 471.38,-161.2 472.03,-171.62 453.75,-181 447.16,-184.38 439.9,-187.22 432.64,-189.59"/>
<polygon fill="#63b8ff" stroke="#63b8ff" points="503.95,-149.68 512.33,-143.2 501.74,-143.04 503.95,-149.68"/>
</a>
</g>
</g>
<!-- Node6 -->
<g id="Node000006" class="node">
<title>Node6</title>
<g id="a_Node000006"><a xlink:href="class_erriez_d_s3231.html#a05a1fab6a5d852c6b7e7749754cc7a63" target="_top" xlink:title="Read Unix UTC epoch time_t.">
<polygon fill="white" stroke="#666666" points="446.25,-172 322.25,-172 322.25,-152 446.25,-152 446.25,-172"/>
<text text-anchor="middle" x="384.25" y="-158.5" font-family="Helvetica,sans-Serif" font-size="10.00">ErriezDS3231::getEpoch</text>
</a>
</g>
</g>
<!-- Node4&#45;&gt;Node6 -->
<g id="edge5_Node000004_Node000006" class="edge">
<title>Node4&#45;&gt;Node6</title>
<g id="a_edge5_Node000004_Node000006"><a xlink:title=" ">
<path fill="none" stroke="#63b8ff" d="M502.36,-142.99C484.3,-145.92 464.57,-149.12 446.53,-152.05"/>
<polygon fill="#63b8ff" stroke="#63b8ff" points="502.84,-146.46 512.15,-141.4 501.72,-139.55 502.84,-146.46"/>
</a>
</g>
</g>
<!-- Node7 -->
<g id="Node000007" class="node">
<title>Node7</title>
<g id="a_Node000007"><a xlink:href="class_erriez_d_s3231.html#a1942791ed2f5550ab5114c2dc2ac6722" target="_top" xlink:title="Write time to RTC.">
<polygon fill="white" stroke="#666666" points="128.5,-129 10.5,-129 10.5,-109 128.5,-109 128.5,-129"/>
<text text-anchor="middle" x="69.5" y="-115.5" font-family="Helvetica,sans-Serif" font-size="10.00">ErriezDS3231::setTime</text>
</a>
</g>
</g>
<!-- Node4&#45;&gt;Node7 -->
<g id="edge6_Node000004_Node000007" class="edge">
<title>Node4&#45;&gt;Node7</title>
<g id="a_edge6_Node000004_Node000007"><a xlink:title=" ">
<path fill="none" stroke="#63b8ff" d="M502.61,-131.26C406.74,-128.54 222.52,-123.31 128.62,-120.65"/>
<polygon fill="#63b8ff" stroke="#63b8ff" points="502.24,-134.75 512.34,-131.54 502.44,-127.76 502.24,-134.75"/>
</a>
</g>
</g>
<!-- Node9 -->
<g id="Node000009" class="node">
<title>Node9</title>
<g id="a_Node000009"><a xlink:href="class_erriez_d_s3231.html#a8830174ba45fcf625206207191d7e58b" target="_top" xlink:title="Initialize and detect DS3231 RTC.">
<polygon fill="white" stroke="#666666" points="437.25,-96 331.25,-96 331.25,-76 437.25,-76 437.25,-96"/>
<text text-anchor="middle" x="384.25" y="-82.5" font-family="Helvetica,sans-Serif" font-size="10.00">ErriezDS3231::begin</text>
</a>
</g>
</g>
<!-- Node8&#45;&gt;Node9 -->
<g id="edge8_Node000008_Node000009" class="edge">
<title>Node8&#45;&gt;Node9</title>
<g id="a_edge8_Node000008_Node000009"><a xlink:title=" ">
<path fill="none" stroke="#63b8ff" d="M483.96,-80.47C468.21,-81.36 452.07,-82.26 437.52,-83.07"/>
<polygon fill="#63b8ff" stroke="#63b8ff" points="484.02,-83.98 493.81,-79.92 483.63,-76.99 484.02,-83.98"/>
</a>
</g>
</g>
<!-- Node10 -->
<g id="Node000010" class="node">
<title>Node10</title>
<g id="a_Node000010"><a xlink:href="class_erriez_d_s3231.html#a47dd1340fc2ecac52cff00c3cffc7e6d" target="_top" xlink:title="Enable or disable oscillator when running on V&#45;BAT.">
<polygon fill="white" stroke="#666666" points="452.25,-58 316.25,-58 316.25,-38 452.25,-38 452.25,-58"/>
<text text-anchor="middle" x="384.25" y="-44.5" font-family="Helvetica,sans-Serif" font-size="10.00">ErriezDS3231::clockEnable</text>
</a>
</g>
</g>
<!-- Node8&#45;&gt;Node10 -->
<g id="edge9_Node000008_Node000010" class="edge">
<title>Node8&#45;&gt;Node10</title>
<g id="a_edge9_Node000008_Node000010"><a xlink:title=" ">
<path fill="none" stroke="#63b8ff" d="M485.97,-63.79C474.73,-62.03 463.24,-60.23 452.23,-58.5"/>
<polygon fill="#63b8ff" stroke="#63b8ff" points="485.19,-67.21 495.61,-65.3 486.28,-60.29 485.19,-67.21"/>
</a>
</g>
</g>
<!-- Node14 -->
<g id="Node000014" class="node">
<title>Node14</title>
<g id="a_Node000014"><a xlink:href="class_erriez_d_s3231.html#a0afd9f881a55af0623f3cc20402820c5" target="_top" xlink:title="Read RTC OSF (Oscillator Stop Flag) from status register.">
<polygon fill="white" stroke="#666666" points="447.38,-20 321.12,-20 321.12,0 447.38,0 447.38,-20"/>
<text text-anchor="middle" x="384.25" y="-6.5" font-family="Helvetica,sans-Serif" font-size="10.00">ErriezDS3231::isRunning</text>
</a>
</g>
</g>
<!-- Node8&#45;&gt;Node14 -->
<g id="edge14_Node000008_Node000014" class="edge">
<title>Node8&#45;&gt;Node14</title>
<g id="a_edge14_Node000008_Node000014"><a xlink:title=" ">
<path fill="none" stroke="#63b8ff" d="M531.56,-60.87C509.85,-51.03 480.43,-38.35 453.75,-29 445.01,-25.94 435.52,-23.04 426.46,-20.47"/>
<polygon fill="#63b8ff" stroke="#63b8ff" points="529.93,-63.97 540.48,-64.95 532.85,-57.6 529.93,-63.97"/>
</a>
</g>
</g>
<!-- Node11 -->
<g id="Node000011" class="node">
<title>Node11</title>
<g id="a_Node000011"><a xlink:href="class_erriez_d_s3231.html#a50426dfe02af86852f777e392936fa08" target="_top" xlink:title="Write date and time to RTC.">
<polygon fill="white" stroke="#666666" points="278.75,-77 175,-77 175,-57 278.75,-57 278.75,-77"/>
<text text-anchor="middle" x="226.88" y="-63.5" font-family="Helvetica,sans-Serif" font-size="10.00">ErriezDS3231::write</text>
</a>
</g>
</g>
<!-- Node10&#45;&gt;Node11 -->
<g id="edge10_Node000010_Node000011" class="edge">
<title>Node10&#45;&gt;Node11</title>
<g id="a_edge10_Node000010_Node000011"><a xlink:title=" ">
<path fill="none" stroke="#63b8ff" d="M304.84,-57.59C296,-58.67 287.18,-59.75 278.82,-60.77"/>
<polygon fill="#63b8ff" stroke="#63b8ff" points="305,-61.09 314.5,-56.41 304.15,-54.15 305,-61.09"/>
</a>
</g>
</g>
<!-- Node11&#45;&gt;Node7 -->
<g id="edge13_Node000011_Node000007" class="edge">
<title>Node11&#45;&gt;Node7</title>
<g id="a_edge13_Node000011_Node000007"><a xlink:title=" ">
<path fill="none" stroke="#63b8ff" d="M184.16,-80.96C158.25,-89.63 125.47,-100.6 101.78,-108.53"/>
<polygon fill="#63b8ff" stroke="#63b8ff" points="185,-84.37 193.37,-77.88 182.78,-77.73 185,-84.37"/>
</a>
</g>
</g>
<!-- Node12 -->
<g id="Node000012" class="node">
<title>Node12</title>
<g id="a_Node000012"><a xlink:href="class_erriez_d_s3231.html#aefebda4120d747f48feb0d1c53468c63" target="_top" xlink:title="Set date time.">
<polygon fill="white" stroke="#666666" points="139,-82 0,-82 0,-62 139,-62 139,-82"/>
<text text-anchor="middle" x="69.5" y="-68.5" font-family="Helvetica,sans-Serif" font-size="10.00">ErriezDS3231::setDateTime</text>
</a>
</g>
</g>
<!-- Node11&#45;&gt;Node12 -->
<g id="edge11_Node000011_Node000012" class="edge">
<title>Node11&#45;&gt;Node12</title>
<g id="a_edge11_Node000011_Node000012"><a xlink:title=" ">
<path fill="none" stroke="#63b8ff" d="M163.29,-69.01C155.46,-69.27 147.41,-69.52 139.49,-69.78"/>
<polygon fill="#63b8ff" stroke="#63b8ff" points="163.17,-72.52 173.06,-68.7 162.95,-65.52 163.17,-72.52"/>
</a>
</g>
</g>
<!-- Node13 -->
<g id="Node000013" class="node">
<title>Node13</title>
<g id="a_Node000013"><a xlink:href="class_erriez_d_s3231.html#a4d06bb8eff5952b794a09fa41fccf01c" target="_top" xlink:title="Write Unix epoch UTC time to RTC.">
<polygon fill="white" stroke="#666666" points="131.5,-44 7.5,-44 7.5,-24 131.5,-24 131.5,-44"/>
<text text-anchor="middle" x="69.5" y="-30.5" font-family="Helvetica,sans-Serif" font-size="10.00">ErriezDS3231::setEpoch</text>
</a>
</g>
</g>
<!-- Node11&#45;&gt;Node13 -->
<g id="edge12_Node000011_Node000013" class="edge">
<title>Node11&#45;&gt;Node13</title>
<g id="a_edge12_Node000011_Node000013"><a xlink:title=" ">
<path fill="none" stroke="#63b8ff" d="M165.85,-54.25C150.64,-51.02 134.48,-47.59 119.88,-44.49"/>
<polygon fill="#63b8ff" stroke="#63b8ff" points="164.72,-57.59 175.23,-56.24 166.18,-50.74 164.72,-57.59"/>
</a>
</g>
</g>
</g>
</svg>
