<?xml version="1.0" encoding="UTF-8" standalone="no"?>
<!DOCTYPE svg PUBLIC "-//W3C//DTD SVG 1.1//EN"
 "http://www.w3.org/Graphics/SVG/1.1/DTD/svg11.dtd">
<!-- Generated by graphviz version 12.2.1 (20241206.2353)
 -->
<!-- Title: DS3231::set_unix_time Pages: 1 -->
<svg width="558pt" height="142pt"
 viewBox="0.00 0.00 558.00 142.00" xmlns="http://www.w3.org/2000/svg" xmlns:xlink="http://www.w3.org/1999/xlink">
<g id="graph0" class="graph" transform="scale(1 1) rotate(0) translate(4 138)">
<title>DS3231::set_unix_time</title>
<!-- Node1 -->
<g id="Node000001" class="node">
<title>Node1</title>
<g id="a_Node000001"><a xlink:title=" ">
<polygon fill="#999999" stroke="#666666" points="118,-77 0,-77 0,-57 118,-57 118,-77"/>
<text text-anchor="middle" x="59" y="-63.5" font-family="Helvetica,sans-Serif" font-size="10.00">DS3231::set_unix_time</text>
</a>
</g>
</g>
<!-- Node2 -->
<g id="Node000002" class="node">
<title>Node2</title>
<g id="a_Node000002"><a xlink:href="class_d_s3231.html#af68ef517aa7ff25393490211abc99fa8" target="_top" xlink:title=" ">
<polygon fill="white" stroke="#666666" points="248.75,-77 154,-77 154,-57 248.75,-57 248.75,-77"/>
<text text-anchor="middle" x="201.38" y="-63.5" font-family="Helvetica,sans-Serif" font-size="10.00">DS3231::set_time</text>
</a>
</g>
</g>
<!-- Node1&#45;&gt;Node2 -->
<g id="edge1_Node000001_Node000002" class="edge">
<title>Node1&#45;&gt;Node2</title>
<g id="a_edge1_Node000001_Node000002"><a xlink:title=" ">
<path fill="none" stroke="#63b8ff" d="M118.31,-67C126.21,-67 134.31,-67 142.2,-67"/>
<polygon fill="#63b8ff" stroke="#63b8ff" points="142.05,-70.5 152.05,-67 142.05,-63.5 142.05,-70.5"/>
</a>
</g>
</g>
<!-- Node3 -->
<g id="Node000003" class="node">
<title>Node3</title>
<g id="a_Node000003"><a xlink:href="class_d_s3231.html#aa8ad05d783b0b67f10e8726863ff4891" target="_top" xlink:title="Library function that takes an 8&#45;bit unsigned integer and converts it into a Binary Coded Decimal num...">
<polygon fill="white" stroke="#666666" points="394.12,-134 289.62,-134 289.62,-114 394.12,-114 394.12,-134"/>
<text text-anchor="middle" x="341.88" y="-120.5" font-family="Helvetica,sans-Serif" font-size="10.00">DS3231::bin_to_bcd</text>
</a>
</g>
</g>
<!-- Node2&#45;&gt;Node3 -->
<g id="edge2_Node000002_Node000003" class="edge">
<title>Node2&#45;&gt;Node3</title>
<g id="a_edge2_Node000002_Node000003"><a xlink:title=" ">
<path fill="none" stroke="#63b8ff" d="M223.44,-77.47C239.93,-85.48 263.54,-96.54 284.75,-105 288.83,-106.62 293.1,-108.24 297.4,-109.79"/>
<polygon fill="#63b8ff" stroke="#63b8ff" points="295.99,-113.01 306.59,-113.02 298.32,-106.4 295.99,-113.01"/>
</a>
</g>
</g>
<!-- Node4 -->
<g id="Node000004" class="node">
<title>Node4</title>
<g id="a_Node000004"><a xlink:href="class_d_s3231.html#ae92a7c5b7e64acc0da3b0e6f781d6b5f" target="_top" xlink:title=" ">
<polygon fill="white" stroke="#666666" points="399,-96 284.75,-96 284.75,-76 399,-76 399,-96"/>
<text text-anchor="middle" x="341.88" y="-82.5" font-family="Helvetica,sans-Serif" font-size="10.00">DS3231::clock_enable</text>
</a>
</g>
</g>
<!-- Node2&#45;&gt;Node4 -->
<g id="edge3_Node000002_Node000004" class="edge">
<title>Node2&#45;&gt;Node4</title>
<g id="a_edge3_Node000002_Node000004"><a xlink:title=" ">
<path fill="none" stroke="#63b8ff" d="M248.88,-73.38C256.77,-74.46 265.1,-75.6 273.39,-76.74"/>
<polygon fill="#63b8ff" stroke="#63b8ff" points="272.76,-80.19 283.14,-78.08 273.71,-73.25 272.76,-80.19"/>
</a>
</g>
</g>
<!-- Node6 -->
<g id="Node000006" class="node">
<title>Node6</title>
<g id="a_Node000006"><a xlink:href="class_d_s3231.html#a2fa69b2c58e800b2a06e4966ca21b59c" target="_top" xlink:title="Library function to write to a specific I2C register address.">
<polygon fill="white" stroke="#666666" points="550,-58 435,-58 435,-38 550,-38 550,-58"/>
<text text-anchor="middle" x="492.5" y="-44.5" font-family="Helvetica,sans-Serif" font-size="10.00">DS3231::i2c_write_reg</text>
</a>
</g>
</g>
<!-- Node2&#45;&gt;Node6 -->
<g id="edge6_Node000002_Node000006" class="edge">
<title>Node2&#45;&gt;Node6</title>
<g id="a_edge6_Node000002_Node000006"><a xlink:title=" ">
<path fill="none" stroke="#63b8ff" d="M249.15,-63.93C296.27,-60.83 369.5,-56.02 423.13,-52.49"/>
<polygon fill="#63b8ff" stroke="#63b8ff" points="423.35,-55.99 433.1,-51.84 422.89,-49 423.35,-55.99"/>
</a>
</g>
</g>
<!-- Node7 -->
<g id="Node000007" class="node">
<title>Node7</title>
<g id="a_Node000007"><a xlink:href="utils_8cpp.html#acd86977d05fa330749958ace0f2798de" target="_top" xlink:title="Prints a message to the UART with a timestamp and core number.">
<polygon fill="white" stroke="#666666" points="370.12,-20 313.62,-20 313.62,0 370.12,0 370.12,-20"/>
<text text-anchor="middle" x="341.88" y="-6.5" font-family="Helvetica,sans-Serif" font-size="10.00">uart_print</text>
</a>
</g>
</g>
<!-- Node2&#45;&gt;Node7 -->
<g id="edge7_Node000002_Node000007" class="edge">
<title>Node2&#45;&gt;Node7</title>
<g id="a_edge7_Node000002_Node000007"><a xlink:title=" ">
<path fill="none" stroke="#63b8ff" d="M227.78,-56.55C249.45,-47.63 280.85,-34.7 305.07,-24.74"/>
<polygon fill="#63b8ff" stroke="#63b8ff" points="306.32,-28.01 314.23,-20.96 303.65,-21.53 306.32,-28.01"/>
</a>
</g>
</g>
<!-- Node5 -->
<g id="Node000005" class="node">
<title>Node5</title>
<g id="a_Node000005"><a xlink:href="class_d_s3231.html#ae3895581e62c411451d12de3e7558207" target="_top" xlink:title="Library function to read a specific I2C register address.">
<polygon fill="white" stroke="#666666" points="548.88,-96 436.12,-96 436.12,-76 548.88,-76 548.88,-96"/>
<text text-anchor="middle" x="492.5" y="-82.5" font-family="Helvetica,sans-Serif" font-size="10.00">DS3231::i2c_read_reg</text>
</a>
</g>
</g>
<!-- Node4&#45;&gt;Node5 -->
<g id="edge4_Node000004_Node000005" class="edge">
<title>Node4&#45;&gt;Node5</title>
<g id="a_edge4_Node000004_Node000005"><a xlink:title=" ">
<path fill="none" stroke="#63b8ff" d="M399.49,-86C407.72,-86 416.26,-86 424.68,-86"/>
<polygon fill="#63b8ff" stroke="#63b8ff" points="424.51,-89.5 434.51,-86 424.51,-82.5 424.51,-89.5"/>
</a>
</g>
</g>
<!-- Node4&#45;&gt;Node6 -->
<g id="edge5_Node000004_Node000006" class="edge">
<title>Node4&#45;&gt;Node6</title>
<g id="a_edge5_Node000004_Node000006"><a xlink:title=" ">
<path fill="none" stroke="#63b8ff" d="M383.88,-75.52C401.1,-71.11 421.33,-65.94 439.57,-61.28"/>
<polygon fill="#63b8ff" stroke="#63b8ff" points="440.34,-64.69 449.16,-58.82 438.61,-57.91 440.34,-64.69"/>
</a>
</g>
</g>
</g>
</svg>
