<?xml version="1.0" encoding="UTF-8" standalone="no"?>
<!DOCTYPE svg PUBLIC "-//W3C//DTD SVG 1.1//EN"
 "http://www.w3.org/Graphics/SVG/1.1/DTD/svg11.dtd">
<!-- Generated by graphviz version 12.2.1 (20241206.2353)
 -->
<!-- Title: INA3221::setModePowerDown Pages: 1 -->
<svg width="282pt" height="66pt"
 viewBox="0.00 0.00 281.50 66.00" xmlns="http://www.w3.org/2000/svg" xmlns:xlink="http://www.w3.org/1999/xlink">
<g id="graph0" class="graph" transform="scale(1 1) rotate(0) translate(4 62)">
<title>INA3221::setModePowerDown</title>
<!-- Node1 -->
<g id="Node000001" class="node">
<title>Node1</title>
<g id="a_Node000001"><a xlink:title=" ">
<polygon fill="#999999" stroke="#666666" points="151,-39 0,-39 0,-19 151,-19 151,-39"/>
<text text-anchor="middle" x="75.5" y="-25.5" font-family="Helvetica,sans-Serif" font-size="10.00">INA3221::setModePowerDown</text>
</a>
</g>
</g>
<!-- Node2 -->
<g id="Node000002" class="node">
<title>Node2</title>
<g id="a_Node000002"><a xlink:href="class_i_n_a3221.html#a0b4c630038abf482bef36f3083ab20ff" target="_top" xlink:title=" ">
<polygon fill="white" stroke="#666666" points="272.38,-58 188.12,-58 188.12,-38 272.38,-38 272.38,-58"/>
<text text-anchor="middle" x="230.25" y="-44.5" font-family="Helvetica,sans-Serif" font-size="10.00">INA3221::_read</text>
</a>
</g>
</g>
<!-- Node1&#45;&gt;Node2 -->
<g id="edge1_Node000001_Node000002" class="edge">
<title>Node1&#45;&gt;Node2</title>
<g id="a_edge1_Node000001_Node000002"><a xlink:title=" ">
<path fill="none" stroke="#63b8ff" d="M151.09,-38.28C159.63,-39.34 168.2,-40.41 176.38,-41.42"/>
<polygon fill="#63b8ff" stroke="#63b8ff" points="175.77,-44.88 186.13,-42.64 176.64,-37.93 175.77,-44.88"/>
</a>
</g>
</g>
<!-- Node3 -->
<g id="Node000003" class="node">
<title>Node3</title>
<g id="a_Node000003"><a xlink:href="class_i_n_a3221.html#aea00c9c6baf85bd94794ee7b3b47d2c7" target="_top" xlink:title=" ">
<polygon fill="white" stroke="#666666" points="273.5,-20 187,-20 187,0 273.5,0 273.5,-20"/>
<text text-anchor="middle" x="230.25" y="-6.5" font-family="Helvetica,sans-Serif" font-size="10.00">INA3221::_write</text>
</a>
</g>
</g>
<!-- Node1&#45;&gt;Node3 -->
<g id="edge2_Node000001_Node000003" class="edge">
<title>Node1&#45;&gt;Node3</title>
<g id="a_edge2_Node000001_Node000003"><a xlink:title=" ">
<path fill="none" stroke="#63b8ff" d="M151.09,-19.72C159.33,-18.7 167.6,-17.67 175.51,-16.68"/>
<polygon fill="#63b8ff" stroke="#63b8ff" points="175.81,-20.17 185.31,-15.47 174.95,-13.23 175.81,-20.17"/>
</a>
</g>
</g>
</g>
</svg>
