<?xml version="1.0" encoding="UTF-8" standalone="no"?>
<!DOCTYPE svg PUBLIC "-//W3C//DTD SVG 1.1//EN"
 "http://www.w3.org/Graphics/SVG/1.1/DTD/svg11.dtd">
<!-- Generated by graphviz version 12.2.1 (20241206.2353)
 -->
<!-- Title: LoRaClass::setLdoFlag Pages: 1 -->
<!--zoomable 123 -->

<svg id="main" version="1.1" xmlns="http://www.w3.org/2000/svg" xmlns:xlink="http://www.w3.org/1999/xlink" xml:space="preserve" onload="init(evt)">

<style type="text/css"><![CDATA[
.node, .edge {opacity: 0.7;}
.node.selected, .edge.selected {opacity: 1;}
.edge:hover path { stroke: red; }
.edge:hover polygon { stroke: red; fill: red; }
]]></style>

<defs>
  <circle id="rim" cx="0" cy="0" r="7"/>
  <circle id="rim2" cx="0" cy="0" r="3.5"/>
  <g id="zoomPlus">
    <use xlink:href="#rim" fill="#404040"><set attributeName="fill" to="#808080" begin="zoomplus.mouseover" end="zoomplus.mouseout"/></use>
    <path d="M-4,0h8M0,-4v8" fill="none" stroke="white" stroke-width="1.5" pointer-events="none"/>
  </g>
  <g id="zoomMin">
    <use xlink:href="#rim" fill="#404040"><set attributeName="fill" to="#808080" begin="zoomminus.mouseover" end="zoomminus.mouseout"/></use>
    <path d="M-4,0h8" fill="none" stroke="white" stroke-width="1.5" pointer-events="none"/>
  </g>
  <g id="arrowUp" transform="translate(30 24)">
    <use xlink:href="#rim"/>
    <path pointer-events="none" fill="none" stroke="white" stroke-width="1.5" d="M0,-3.0v7 M-2.5,-0.5L0,-3.0L2.5,-0.5"/>
  </g>
  <g id="arrowRight" transform="rotate(90) translate(36 -43)">
    <use xlink:href="#rim"/>
    <path pointer-events="none" fill="none" stroke="white" stroke-width="1.5" d="M0,-3.0v7 M-2.5,-0.5L0,-3.0L2.5,-0.5"/>
  </g>
  <g id="arrowDown" transform="rotate(180) translate(-30 -48)">
    <use xlink:href="#rim"/>
    <path pointer-events="none" fill="none" stroke="white" stroke-width="1.5" d="M0,-3.0v7 M-2.5,-0.5L0,-3.0L2.5,-0.5"/>
  </g>
  <g id="arrowLeft" transform="rotate(270) translate(-36 17)">
    <use xlink:href="#rim"/>
    <path pointer-events="none" fill="none" stroke="white" stroke-width="1.5" d="M0,-3.0v7 M-2.5,-0.5L0,-3.0L2.5,-0.5"/>
  </g>
  <g id="resetDef">
    <use xlink:href="#rim2" fill="#404040"><set attributeName="fill" to="#808080" begin="reset.mouseover" end="reset.mouseout"/></use>
  </g>
</defs>
<script type="application/ecmascript">
var viewWidth = 653;
var viewHeight = 123;
var sectionId = 'dynsection-60';
</script>
<script type="application/ecmascript" xlink:href="svg.min.js"/>
<svg id="graph" class="graph">
<g id="viewport">
<title>LoRaClass::setLdoFlag</title>
<!-- Node1 -->
<g id="Node000001" class="node">
<title>Node1</title>
<g id="a_Node000001"><a xlink:title=" ">
<polygon fill="#999999" stroke="#666666" points="118.75,-58.16 0,-58.16 0,-38.16 118.75,-38.16 118.75,-58.16"/>
<text text-anchor="middle" x="59.38" y="-44.66" font-family="Helvetica,sans-Serif" font-size="10.00">LoRaClass::setLdoFlag</text>
</a>
</g>
</g>
<!-- Node2 -->
<g id="Node000002" class="node">
<title>Node2</title>
<g id="a_Node000002"><a xlink:href="class_lo_ra_class.html#a810b0f66f8589f7bcbbe08ce80f41959" target="_top" xlink:title=" ">
<polygon fill="white" stroke="#666666" points="311.75,-115.16 154.75,-115.16 154.75,-95.16 311.75,-95.16 311.75,-115.16"/>
<text text-anchor="middle" x="233.25" y="-101.66" font-family="Helvetica,sans-Serif" font-size="10.00">LoRaClass::getSignalBandwidth</text>
</a>
</g>
</g>
<!-- Node1&#45;&gt;Node2 -->
<g id="edge1_Node000001_Node000002" class="edge">
<title>Node1&#45;&gt;Node2</title>
<g id="a_edge1_Node000001_Node000002"><a xlink:title=" ">
<path fill="none" stroke="#63b8ff" d="M89.2,-58.55C107.84,-65.18 132.66,-73.88 154.75,-81.16 165.08,-84.57 176.22,-88.1 186.75,-91.37"/>
<polygon fill="#63b8ff" stroke="#63b8ff" points="185.41,-94.62 196,-94.23 187.48,-87.94 185.41,-94.62"/>
</a>
</g>
</g>
<!-- Node3 -->
<g id="Node000003" class="node">
<title>Node3</title>
<g id="a_Node000003"><a xlink:href="class_lo_ra_class.html#add581bfe66dd75108e22b18a4d6f89bf" target="_top" xlink:title=" ">
<polygon fill="white" stroke="#666666" points="475.12,-67.16 348.88,-67.16 348.88,-47.16 475.12,-47.16 475.12,-67.16"/>
<text text-anchor="middle" x="412" y="-53.66" font-family="Helvetica,sans-Serif" font-size="10.00">LoRaClass::readRegister</text>
</a>
</g>
</g>
<!-- Node1&#45;&gt;Node3 -->
<g id="edge6_Node000001_Node000003" class="edge">
<title>Node1&#45;&gt;Node3</title>
<g id="a_edge6_Node000001_Node000003"><a xlink:title=" ">
<path fill="none" stroke="#63b8ff" d="M119.06,-49.67C179.02,-51.21 272.27,-53.6 337.2,-55.27"/>
<polygon fill="#63b8ff" stroke="#63b8ff" points="336.97,-58.77 347.06,-55.52 337.15,-51.77 336.97,-58.77"/>
</a>
</g>
</g>
<!-- Node5 -->
<g id="Node000005" class="node">
<title>Node5</title>
<g id="a_Node000005"><a xlink:href="class_lo_ra_class.html#aa1b8dc4023526ec67c852555e6ed2593" target="_top" xlink:title=" ">
<polygon fill="white" stroke="#666666" points="311,-39.16 155.5,-39.16 155.5,-19.16 311,-19.16 311,-39.16"/>
<text text-anchor="middle" x="233.25" y="-25.66" font-family="Helvetica,sans-Serif" font-size="10.00">LoRaClass::getSpreadingFactor</text>
</a>
</g>
</g>
<!-- Node1&#45;&gt;Node5 -->
<g id="edge4_Node000001_Node000005" class="edge">
<title>Node1&#45;&gt;Node5</title>
<g id="a_edge4_Node000001_Node000005"><a xlink:title=" ">
<path fill="none" stroke="#63b8ff" d="M119.04,-41.68C127,-40.8 135.3,-39.88 143.64,-38.96"/>
<polygon fill="#63b8ff" stroke="#63b8ff" points="143.94,-42.45 153.5,-37.87 143.17,-35.49 143.94,-42.45"/>
</a>
</g>
</g>
<!-- Node6 -->
<g id="Node000006" class="node">
<title>Node6</title>
<g id="a_Node000006"><a xlink:href="class_lo_ra_class.html#a77e7c77aa54174b352a26e1510f66f98" target="_top" xlink:title=" ">
<polygon fill="white" stroke="#666666" points="476.25,-20.16 347.75,-20.16 347.75,-0.16 476.25,-0.16 476.25,-20.16"/>
<text text-anchor="middle" x="412" y="-6.66" font-family="Helvetica,sans-Serif" font-size="10.00">LoRaClass::writeRegister</text>
</a>
</g>
</g>
<!-- Node1&#45;&gt;Node6 -->
<g id="edge7_Node000001_Node000006" class="edge">
<title>Node1&#45;&gt;Node6</title>
<g id="a_edge7_Node000001_Node000006"><a xlink:title=" ">
<path fill="none" stroke="#63b8ff" d="M79.94,-37.7C98.57,-28.37 127.7,-15.41 154.75,-10.16 214.95,1.5 284.6,0.6 336.08,-2.71"/>
<polygon fill="#63b8ff" stroke="#63b8ff" points="335.71,-6.19 345.93,-3.39 336.19,0.79 335.71,-6.19"/>
</a>
</g>
</g>
<!-- Node2&#45;&gt;Node3 -->
<g id="edge2_Node000002_Node000003" class="edge">
<title>Node2&#45;&gt;Node3</title>
<g id="a_edge2_Node000002_Node000003"><a xlink:title=" ">
<path fill="none" stroke="#63b8ff" d="M272.6,-94.75C298.69,-87.67 333.44,-78.23 361.59,-70.58"/>
<polygon fill="#63b8ff" stroke="#63b8ff" points="362.22,-74.04 370.96,-68.04 360.39,-67.28 362.22,-74.04"/>
</a>
</g>
</g>
<!-- Node4 -->
<g id="Node000004" class="node">
<title>Node4</title>
<g id="a_Node000004"><a xlink:href="class_lo_ra_class.html#a3a0c0649c595b1176b5fb1ae41210ee3" target="_top" xlink:title=" ">
<polygon fill="white" stroke="#666666" points="644.5,-39.16 512.25,-39.16 512.25,-19.16 644.5,-19.16 644.5,-39.16"/>
<text text-anchor="middle" x="578.38" y="-25.66" font-family="Helvetica,sans-Serif" font-size="10.00">LoRaClass::singleTransfer</text>
</a>
</g>
</g>
<!-- Node3&#45;&gt;Node4 -->
<g id="edge3_Node000003_Node000004" class="edge">
<title>Node3&#45;&gt;Node4</title>
<g id="a_edge3_Node000003_Node000004"><a xlink:title=" ">
<path fill="none" stroke="#63b8ff" d="M474.21,-46.74C484.09,-45.05 494.4,-43.3 504.53,-41.57"/>
<polygon fill="#63b8ff" stroke="#63b8ff" points="505.08,-45.03 514.35,-39.9 503.9,-38.13 505.08,-45.03"/>
</a>
</g>
</g>
<!-- Node5&#45;&gt;Node3 -->
<g id="edge5_Node000005_Node000003" class="edge">
<title>Node5&#45;&gt;Node3</title>
<g id="a_edge5_Node000005_Node000003"><a xlink:title=" ">
<path fill="none" stroke="#63b8ff" d="M300.32,-39.63C312.4,-41.55 325.09,-43.55 337.38,-45.5"/>
<polygon fill="#63b8ff" stroke="#63b8ff" points="336.61,-48.92 347.03,-47.03 337.7,-42.01 336.61,-48.92"/>
</a>
</g>
</g>
<!-- Node6&#45;&gt;Node4 -->
<g id="edge8_Node000006_Node000004" class="edge">
<title>Node6&#45;&gt;Node4</title>
<g id="a_edge8_Node000006_Node000004"><a xlink:title=" ">
<path fill="none" stroke="#63b8ff" d="M476.55,-17.51C484.41,-18.42 492.51,-19.36 500.54,-20.28"/>
<polygon fill="#63b8ff" stroke="#63b8ff" points="499.98,-23.74 510.32,-21.41 500.78,-16.79 499.98,-23.74"/>
</a>
</g>
</g>
</g>
</svg>

<g id="navigator" transform="translate(0 0)" fill="#404254">
  <rect fill="#f2f5e9" fill-opacity="0.5" stroke="#606060" stroke-width=".5" x="0" y="0" width="60" height="60"/>
  <use id="zoomplus" xlink:href="#zoomPlus" x="17" y="9" onmousedown="handleZoom(evt,'in')"/>
  <use id="zoomminus" xlink:href="#zoomMin" x="42" y="9" onmousedown="handleZoom(evt,'out')"/>
  <use id="reset" xlink:href="#resetDef" x="30" y="36" onmousedown="handleReset()"/>
   <use id="arrowup" xlink:href="#arrowUp" x="0" y="0" onmousedown="handlePan(0,-1)"/>
  <use id="arrowright" xlink:href="#arrowRight" x="0" y="0" onmousedown="handlePan(1,0)"/>
  <use id="arrowdown" xlink:href="#arrowDown" x="0" y="0" onmousedown="handlePan(0,1)"/>
  <use id="arrowleft" xlink:href="#arrowLeft" x="0" y="0" onmousedown="handlePan(-1,0)"/>
</g>
<svg viewBox="0 0 15 15" width="100%" height="30px" preserveAspectRatio="xMaxYMin meet">
 <g id="arrow_out" transform="scale(0.3 0.3)">
  <a xlink:href="class_lo_ra_class_aa299808b2da9819eded073c84e1b219e_cgraph_org.svg" target="_base">
   <rect id="button" ry="5" rx="5" y="6" x="6" height="38" width="38"
        fill="#f2f5e9" fill-opacity="0.5" stroke="#606060" stroke-width="1.0"/>
   <path id="arrow"
     d="M 11.500037,31.436501 C 11.940474,20.09759 22.043105,11.32322 32.158766,21.979434 L 37.068811,17.246167 C 37.068811,17.246167 37.088388,32 37.088388,32 L 22.160133,31.978069 C 22.160133,31.978069 26.997745,27.140456 26.997745,27.140456 C 18.528582,18.264221 13.291696,25.230495 11.500037,31.436501 z"
     style="fill:#404040;"/>
  </a>
 </g>
</svg>

<style type='text/css'>
<![CDATA[
[data-mouse-over-selected='false'] { opacity: 0.7; }
[data-mouse-over-selected='true']  { opacity: 1.0; }
]]>
</style>
<script type="application/ecmascript"><![CDATA[
document.addEventListener('DOMContentLoaded', (event) => {
  highlightEdges();
  highlightAdjacentNodes();
});
]]></script>
</svg>
