<?xml version="1.0" encoding="UTF-8" standalone="no"?>
<!DOCTYPE svg PUBLIC "-//W3C//DTD SVG 1.1//EN"
 "http://www.w3.org/Graphics/SVG/1.1/DTD/svg11.dtd">
<!-- Generated by graphviz version 12.2.1 (20241206.2353)
 -->
<!-- Title: ErriezDS3231::setDateTime Pages: 1 -->
<svg width="801pt" height="142pt"
 viewBox="0.00 0.00 800.50 142.00" xmlns="http://www.w3.org/2000/svg" xmlns:xlink="http://www.w3.org/1999/xlink">
<g id="graph0" class="graph" transform="scale(1 1) rotate(0) translate(4 138)">
<title>ErriezDS3231::setDateTime</title>
<!-- Node1 -->
<g id="Node000001" class="node">
<title>Node1</title>
<g id="a_Node000001"><a xlink:title="Set date time.">
<polygon fill="#999999" stroke="#666666" points="139,-58 0,-58 0,-38 139,-38 139,-58"/>
<text text-anchor="middle" x="69.5" y="-44.5" font-family="Helvetica,sans-Serif" font-size="10.00">ErriezDS3231::setDateTime</text>
</a>
</g>
</g>
<!-- Node2 -->
<g id="Node000002" class="node">
<title>Node2</title>
<g id="a_Node000002"><a xlink:href="class_erriez_d_s3231.html#a50426dfe02af86852f777e392936fa08" target="_top" xlink:title="Write date and time to RTC.">
<polygon fill="white" stroke="#666666" points="278.75,-58 175,-58 175,-38 278.75,-38 278.75,-58"/>
<text text-anchor="middle" x="226.88" y="-44.5" font-family="Helvetica,sans-Serif" font-size="10.00">ErriezDS3231::write</text>
</a>
</g>
</g>
<!-- Node1&#45;&gt;Node2 -->
<g id="edge1_Node000001_Node000002" class="edge">
<title>Node1&#45;&gt;Node2</title>
<g id="a_edge1_Node000001_Node000002"><a xlink:title=" ">
<path fill="none" stroke="#63b8ff" d="M139.1,-48C147.19,-48 155.4,-48 163.4,-48"/>
<polygon fill="#63b8ff" stroke="#63b8ff" points="163.39,-51.5 173.39,-48 163.39,-44.5 163.39,-51.5"/>
</a>
</g>
</g>
<!-- Node3 -->
<g id="Node000003" class="node">
<title>Node3</title>
<g id="a_Node000003"><a xlink:href="class_erriez_d_s3231.html#a47dd1340fc2ecac52cff00c3cffc7e6d" target="_top" xlink:title="Enable or disable oscillator when running on V&#45;BAT.">
<polygon fill="white" stroke="#666666" points="450.75,-96 314.75,-96 314.75,-76 450.75,-76 450.75,-96"/>
<text text-anchor="middle" x="382.75" y="-82.5" font-family="Helvetica,sans-Serif" font-size="10.00">ErriezDS3231::clockEnable</text>
</a>
</g>
</g>
<!-- Node2&#45;&gt;Node3 -->
<g id="edge2_Node000002_Node000003" class="edge">
<title>Node2&#45;&gt;Node3</title>
<g id="a_edge2_Node000002_Node000003"><a xlink:title=" ">
<path fill="none" stroke="#63b8ff" d="M270.33,-58.48C288.33,-62.93 309.49,-68.16 328.52,-72.85"/>
<polygon fill="#63b8ff" stroke="#63b8ff" points="327.42,-76.19 337.96,-75.19 329.1,-69.39 327.42,-76.19"/>
</a>
</g>
</g>
<!-- Node7 -->
<g id="Node000007" class="node">
<title>Node7</title>
<g id="a_Node000007"><a xlink:href="class_erriez_d_s3231.html#a7cd8a1aa0a720d8ecc687e58ddfe110d" target="_top" xlink:title="Write buffer to RTC.">
<polygon fill="white" stroke="#666666" points="792.5,-77 663.25,-77 663.25,-57 792.5,-57 792.5,-77"/>
<text text-anchor="middle" x="727.88" y="-63.5" font-family="Helvetica,sans-Serif" font-size="10.00">ErriezDS3231::writeBuffer</text>
</a>
</g>
</g>
<!-- Node2&#45;&gt;Node7 -->
<g id="edge8_Node000002_Node000007" class="edge">
<title>Node2&#45;&gt;Node7</title>
<g id="a_edge8_Node000002_Node000007"><a xlink:title=" ">
<path fill="none" stroke="#63b8ff" d="M278.93,-49.94C367.28,-53.31 549.04,-60.23 651.8,-64.14"/>
<polygon fill="#63b8ff" stroke="#63b8ff" points="651.38,-67.63 661.5,-64.51 651.64,-60.63 651.38,-67.63"/>
</a>
</g>
</g>
<!-- Node8 -->
<g id="Node000008" class="node">
<title>Node8</title>
<g id="a_Node000008"><a xlink:href="class_erriez_d_s3231.html#a169b93f6712c85c516a629b96ab0e3c8" target="_top" xlink:title="Decimal to BCD conversion.">
<polygon fill="white" stroke="#666666" points="445.88,-20 319.62,-20 319.62,0 445.88,0 445.88,-20"/>
<text text-anchor="middle" x="382.75" y="-6.5" font-family="Helvetica,sans-Serif" font-size="10.00">ErriezDS3231::decToBcd</text>
</a>
</g>
</g>
<!-- Node2&#45;&gt;Node8 -->
<g id="edge7_Node000002_Node000008" class="edge">
<title>Node2&#45;&gt;Node8</title>
<g id="a_edge7_Node000002_Node000008"><a xlink:title=" ">
<path fill="none" stroke="#63b8ff" d="M270.33,-37.52C288.33,-33.07 309.49,-27.84 328.52,-23.15"/>
<polygon fill="#63b8ff" stroke="#63b8ff" points="329.1,-26.61 337.96,-20.81 327.42,-19.81 329.1,-26.61"/>
</a>
</g>
</g>
<!-- Node4 -->
<g id="Node000004" class="node">
<title>Node4</title>
<g id="a_Node000004"><a xlink:href="class_erriez_d_s3231.html#aab9ee8e4653b2806a82cf12a22c5c1dd" target="_top" xlink:title="Read register.">
<polygon fill="white" stroke="#666666" points="626.12,-134 487.88,-134 487.88,-114 626.12,-114 626.12,-134"/>
<text text-anchor="middle" x="557" y="-120.5" font-family="Helvetica,sans-Serif" font-size="10.00">ErriezDS3231::readRegister</text>
</a>
</g>
</g>
<!-- Node3&#45;&gt;Node4 -->
<g id="edge3_Node000003_Node000004" class="edge">
<title>Node3&#45;&gt;Node4</title>
<g id="a_edge3_Node000003_Node000004"><a xlink:title=" ">
<path fill="none" stroke="#63b8ff" d="M431.27,-96.48C451.8,-101.01 476,-106.35 497.61,-111.12"/>
<polygon fill="#63b8ff" stroke="#63b8ff" points="496.63,-114.49 507.15,-113.22 498.14,-107.65 496.63,-114.49"/>
</a>
</g>
</g>
<!-- Node6 -->
<g id="Node000006" class="node">
<title>Node6</title>
<g id="a_Node000006"><a xlink:href="class_erriez_d_s3231.html#a2d53e7b9c88c576fe778502b7845a5ce" target="_top" xlink:title="Write register.">
<polygon fill="white" stroke="#666666" points="627.25,-96 486.75,-96 486.75,-76 627.25,-76 627.25,-96"/>
<text text-anchor="middle" x="557" y="-82.5" font-family="Helvetica,sans-Serif" font-size="10.00">ErriezDS3231::writeRegister</text>
</a>
</g>
</g>
<!-- Node3&#45;&gt;Node6 -->
<g id="edge5_Node000003_Node000006" class="edge">
<title>Node3&#45;&gt;Node6</title>
<g id="a_edge5_Node000003_Node000006"><a xlink:title=" ">
<path fill="none" stroke="#63b8ff" d="M450.84,-86C458.74,-86 466.86,-86 474.92,-86"/>
<polygon fill="#63b8ff" stroke="#63b8ff" points="474.74,-89.5 484.74,-86 474.74,-82.5 474.74,-89.5"/>
</a>
</g>
</g>
<!-- Node5 -->
<g id="Node000005" class="node">
<title>Node5</title>
<g id="a_Node000005"><a xlink:href="class_erriez_d_s3231.html#a9715869e0186e4f6a30dfd6a372875c1" target="_top" xlink:title="Read buffer from RTC.">
<polygon fill="white" stroke="#666666" points="791.38,-134 664.38,-134 664.38,-114 791.38,-114 791.38,-134"/>
<text text-anchor="middle" x="727.88" y="-120.5" font-family="Helvetica,sans-Serif" font-size="10.00">ErriezDS3231::readBuffer</text>
</a>
</g>
</g>
<!-- Node4&#45;&gt;Node5 -->
<g id="edge4_Node000004_Node000005" class="edge">
<title>Node4&#45;&gt;Node5</title>
<g id="a_edge4_Node000004_Node000005"><a xlink:title=" ">
<path fill="none" stroke="#63b8ff" d="M626.2,-124C634.86,-124 643.75,-124 652.5,-124"/>
<polygon fill="#63b8ff" stroke="#63b8ff" points="652.37,-127.5 662.37,-124 652.37,-120.5 652.37,-127.5"/>
</a>
</g>
</g>
<!-- Node6&#45;&gt;Node7 -->
<g id="edge6_Node000006_Node000007" class="edge">
<title>Node6&#45;&gt;Node7</title>
<g id="a_edge6_Node000006_Node000007"><a xlink:title=" ">
<path fill="none" stroke="#63b8ff" d="M627.66,-78.16C635.57,-77.27 643.65,-76.36 651.62,-75.47"/>
<polygon fill="#63b8ff" stroke="#63b8ff" points="651.74,-78.98 661.29,-74.38 650.96,-72.02 651.74,-78.98"/>
</a>
</g>
</g>
</g>
</svg>
