<?xml version="1.0" encoding="UTF-8" standalone="no"?>
<!DOCTYPE svg PUBLIC "-//W3C//DTD SVG 1.1//EN"
 "http://www.w3.org/Graphics/SVG/1.1/DTD/svg11.dtd">
<!-- Generated by graphviz version 12.2.1 (20241206.2353)
 -->
<!-- Title: Print::print Pages: 1 -->
<svg width="318pt" height="47pt"
 viewBox="0.00 0.00 317.75 47.00" xmlns="http://www.w3.org/2000/svg" xmlns:xlink="http://www.w3.org/1999/xlink">

<svg id="main" version="1.1" xmlns="http://www.w3.org/2000/svg" xmlns:xlink="http://www.w3.org/1999/xlink" xml:space="preserve">

<style type="text/css"><![CDATA[
.node, .edge {opacity: 0.7;}
.node.selected, .edge.selected {opacity: 1;}
.edge:hover path { stroke: red; }
.edge:hover polygon { stroke: red; fill: red; }
]]></style>
<script type="application/ecmascript" xlink:href="svg.min.js"/>
<svg id="graph" class="graph">
<g id="graph0" class="graph" transform="scale(1 1) rotate(0) translate(4 43)">
<title>Print::print</title>
<!-- Node1 -->
<g id="Node000001" class="node">
<title>Node1</title>
<g id="a_Node000001"><a xlink:title=" ">
<polygon fill="#999999" stroke="#666666" points="61,-20 0,-20 0,0 61,0 61,-20"/>
<text text-anchor="middle" x="30.5" y="-6.5" font-family="Helvetica,sans-Serif" font-size="10.00">Print::print</text>
</a>
</g>
</g>
<!-- Node2 -->
<g id="Node000002" class="node">
<title>Node2</title>
<g id="a_Node000002"><a xlink:href="class_print.html#a4a26b81eecc506213e4d20959c71601d" target="_top" xlink:title=" ">
<polygon fill="white" stroke="#666666" points="210.5,-39 97,-39 97,-19 210.5,-19 210.5,-39"/>
<text text-anchor="middle" x="153.75" y="-25.5" font-family="Helvetica,sans-Serif" font-size="10.00">Print::printULLNumber</text>
</a>
</g>
</g>
<!-- Node1&#45;&gt;Node2 -->
<g id="edge1_Node000001_Node000002" class="edge">
<title>Node1&#45;&gt;Node2</title>
<g id="a_edge1_Node000001_Node000002"><a xlink:title=" ">
<path fill="none" stroke="#63b8ff" d="M61.47,-14.7C68.88,-15.86 77.12,-17.15 85.54,-18.47"/>
<polygon fill="#63b8ff" stroke="#63b8ff" points="84.72,-21.88 95.14,-19.97 85.81,-14.97 84.72,-21.88"/>
</a>
</g>
</g>
<!-- Node3 -->
<g id="Node000003" class="node">
<title>Node3</title>
<g id="a_Node000003"><a xlink:href="class_print.html#a5be30d49adae2406a270c29ba9a3e0a3" target="_top" xlink:title=" ">
<polygon fill="white" stroke="#666666" points="309.75,-20 246.5,-20 246.5,0 309.75,0 309.75,-20"/>
<text text-anchor="middle" x="278.12" y="-6.5" font-family="Helvetica,sans-Serif" font-size="10.00">Print::write</text>
</a>
</g>
</g>
<!-- Node1&#45;&gt;Node3 -->
<g id="edge3_Node000001_Node000003" class="edge">
<title>Node1&#45;&gt;Node3</title>
<g id="a_edge3_Node000001_Node000003"><a xlink:title=" ">
<path fill="none" stroke="#63b8ff" d="M61.13,-10C104.48,-10 185.41,-10 234.96,-10"/>
<polygon fill="#63b8ff" stroke="#63b8ff" points="234.72,-13.5 244.72,-10 234.72,-6.5 234.72,-13.5"/>
</a>
</g>
</g>
<!-- Node2&#45;&gt;Node3 -->
<g id="edge2_Node000002_Node000003" class="edge">
<title>Node2&#45;&gt;Node3</title>
<g id="a_edge2_Node000002_Node000003"><a xlink:title=" ">
<path fill="none" stroke="#63b8ff" d="M210.92,-20.28C218.93,-19.03 227.06,-17.77 234.75,-16.58"/>
<polygon fill="#63b8ff" stroke="#63b8ff" points="235.17,-20.06 244.51,-15.06 234.09,-13.14 235.17,-20.06"/>
</a>
</g>
</g>
</g>
</svg>
</svg>

<style type='text/css'>
<![CDATA[
[data-mouse-over-selected='false'] { opacity: 0.7; }
[data-mouse-over-selected='true']  { opacity: 1.0; }
]]>
</style>
<script type="application/ecmascript"><![CDATA[
document.addEventListener('DOMContentLoaded', (event) => {
  highlightEdges();
  highlightAdjacentNodes();
});
]]></script>
</svg>
