<?xml version="1.0" encoding="UTF-8" standalone="no"?>
<!DOCTYPE svg PUBLIC "-//W3C//DTD SVG 1.1//EN"
 "http://www.w3.org/Graphics/SVG/1.1/DTD/svg11.dtd">
<!-- Generated by graphviz version 12.2.1 (20241206.2353)
 -->
<!-- Title: DS3231::setTimeUnix Pages: 1 -->
<svg width="412pt" height="66pt"
 viewBox="0.00 0.00 412.25 66.00" xmlns="http://www.w3.org/2000/svg" xmlns:xlink="http://www.w3.org/1999/xlink">

<svg id="main" version="1.1" xmlns="http://www.w3.org/2000/svg" xmlns:xlink="http://www.w3.org/1999/xlink" xml:space="preserve">

<style type="text/css"><![CDATA[
.node, .edge {opacity: 0.7;}
.node.selected, .edge.selected {opacity: 1;}
.edge:hover path { stroke: red; }
.edge:hover polygon { stroke: red; fill: red; }
]]></style>
<script type="application/ecmascript" xlink:href="svg.min.js"/>
<svg id="graph" class="graph">
<g id="graph0" class="graph" transform="scale(1 1) rotate(0) translate(4 62)">
<title>DS3231::setTimeUnix</title>
<!-- Node1 -->
<g id="Node000001" class="node">
<title>Node1</title>
<g id="a_Node000001"><a xlink:title=" ">
<polygon fill="#999999" stroke="#666666" points="112.75,-39 0,-39 0,-19 112.75,-19 112.75,-39"/>
<text text-anchor="middle" x="56.38" y="-25.5" font-family="Helvetica,sans-Serif" font-size="10.00">DS3231::setTimeUnix</text>
</a>
</g>
</g>
<!-- Node2 -->
<g id="Node000002" class="node">
<title>Node2</title>
<g id="a_Node000002"><a xlink:href="class_d_s3231.html#a6ead725bcb29001cfbf4279f249d6983" target="_top" xlink:title=" ">
<polygon fill="white" stroke="#666666" points="259.25,-58 166.75,-58 166.75,-38 259.25,-38 259.25,-58"/>
<text text-anchor="middle" x="213" y="-44.5" font-family="Helvetica,sans-Serif" font-size="10.00">DS3231::setTime</text>
</a>
</g>
</g>
<!-- Node1&#45;&gt;Node2 -->
<g id="edge1_Node000001_Node000002" class="edge">
<title>Node1&#45;&gt;Node2</title>
<g id="a_edge1_Node000001_Node000002"><a xlink:title=" ">
<path fill="none" stroke="#63b8ff" d="M113.2,-35.86C126.85,-37.54 141.47,-39.33 155.17,-41.02"/>
<polygon fill="#63b8ff" stroke="#63b8ff" points="154.56,-44.47 164.92,-42.21 155.42,-37.52 154.56,-44.47"/>
</a>
</g>
</g>
<!-- Node4 -->
<g id="Node000004" class="node">
<title>Node4</title>
<g id="a_Node000004"><a xlink:href="class_d_s3231.html#a40a965b965496e5b0e7758040c5d9ce7" target="_top" xlink:title=" ">
<polygon fill="white" stroke="#666666" points="277.25,-20 148.75,-20 148.75,0 277.25,0 277.25,-20"/>
<text text-anchor="middle" x="213" y="-6.5" font-family="Helvetica,sans-Serif" font-size="10.00">DS3231::unixToDateTime</text>
</a>
</g>
</g>
<!-- Node1&#45;&gt;Node4 -->
<g id="edge3_Node000001_Node000004" class="edge">
<title>Node1&#45;&gt;Node4</title>
<g id="a_edge3_Node000001_Node000004"><a xlink:title=" ">
<path fill="none" stroke="#63b8ff" d="M113.2,-22.14C120.96,-21.19 129.03,-20.19 137.07,-19.21"/>
<polygon fill="#63b8ff" stroke="#63b8ff" points="137.38,-22.7 146.88,-18 136.53,-15.75 137.38,-22.7"/>
</a>
</g>
</g>
<!-- Node3 -->
<g id="Node000003" class="node">
<title>Node3</title>
<g id="a_Node000003"><a xlink:href="class_d_s3231.html#a41f5aabf74e5a66093116999648806ab" target="_top" xlink:title=" ">
<polygon fill="white" stroke="#666666" points="404.25,-58 313.25,-58 313.25,-38 404.25,-38 404.25,-58"/>
<text text-anchor="middle" x="358.75" y="-44.5" font-family="Helvetica,sans-Serif" font-size="10.00">DS3231::bin2bcd</text>
</a>
</g>
</g>
<!-- Node2&#45;&gt;Node3 -->
<g id="edge2_Node000002_Node000003" class="edge">
<title>Node2&#45;&gt;Node3</title>
<g id="a_edge2_Node000002_Node000003"><a xlink:title=" ">
<path fill="none" stroke="#63b8ff" d="M259.48,-48C272.85,-48 287.63,-48 301.58,-48"/>
<polygon fill="#63b8ff" stroke="#63b8ff" points="301.54,-51.5 311.54,-48 301.54,-44.5 301.54,-51.5"/>
</a>
</g>
</g>
</g>
</svg>
</svg>

<style type='text/css'>
<![CDATA[
[data-mouse-over-selected='false'] { opacity: 0.7; }
[data-mouse-over-selected='true']  { opacity: 1.0; }
]]>
</style>
<script type="application/ecmascript"><![CDATA[
document.addEventListener('DOMContentLoaded', (event) => {
  highlightEdges();
  highlightAdjacentNodes();
});
]]></script>
</svg>
