<?xml version="1.0" encoding="UTF-8" standalone="no"?>
<!DOCTYPE svg PUBLIC "-//W3C//DTD SVG 1.1//EN"
 "http://www.w3.org/Graphics/SVG/1.1/DTD/svg11.dtd">
<!-- Generated by graphviz version 12.2.1 (20241206.2353)
 -->
<!-- Title: LoRaClass::explicitHeaderMode Pages: 1 -->
<svg width="327pt" height="104pt"
 viewBox="0.00 0.00 326.50 104.00" xmlns="http://www.w3.org/2000/svg" xmlns:xlink="http://www.w3.org/1999/xlink">
<g id="graph0" class="graph" transform="scale(1 1) rotate(0) translate(4 100)">
<title>LoRaClass::explicitHeaderMode</title>
<!-- Node1 -->
<g id="Node000001" class="node">
<title>Node1</title>
<g id="a_Node000001"><a xlink:title=" ">
<polygon fill="#999999" stroke="#666666" points="318.5,-58 161.5,-58 161.5,-38 318.5,-38 318.5,-58"/>
<text text-anchor="middle" x="240" y="-44.5" font-family="Helvetica,sans-Serif" font-size="10.00">LoRaClass::explicitHeaderMode</text>
</a>
</g>
</g>
<!-- Node2 -->
<g id="Node000002" class="node">
<title>Node2</title>
<g id="a_Node000002"><a xlink:href="class_lo_ra_class.html#a22d4ee8aaded004bb91b70ee15c57e2d" target="_top" xlink:title=" ">
<polygon fill="white" stroke="#666666" points="125.12,-96 0.38,-96 0.38,-76 125.12,-76 125.12,-96"/>
<text text-anchor="middle" x="62.75" y="-82.5" font-family="Helvetica,sans-Serif" font-size="10.00">LoRaClass::beginPacket</text>
</a>
</g>
</g>
<!-- Node1&#45;&gt;Node2 -->
<g id="edge1_Node000001_Node000002" class="edge">
<title>Node1&#45;&gt;Node2</title>
<g id="a_edge1_Node000001_Node000002"><a xlink:title=" ">
<path fill="none" stroke="#63b8ff" d="M179.42,-60.92C157.43,-65.69 132.8,-71.03 111.94,-75.55"/>
<polygon fill="#63b8ff" stroke="#63b8ff" points="180.14,-64.34 189.17,-58.81 178.65,-57.5 180.14,-64.34"/>
</a>
</g>
</g>
<!-- Node3 -->
<g id="Node000003" class="node">
<title>Node3</title>
<g id="a_Node000003"><a xlink:href="class_lo_ra_class.html#a03104c1301f072b6a259bf6d18161069" target="_top" xlink:title=" ">
<polygon fill="white" stroke="#666666" points="125.5,-58 0,-58 0,-38 125.5,-38 125.5,-58"/>
<text text-anchor="middle" x="62.75" y="-44.5" font-family="Helvetica,sans-Serif" font-size="10.00">LoRaClass::parsePacket</text>
</a>
</g>
</g>
<!-- Node1&#45;&gt;Node3 -->
<g id="edge2_Node000001_Node000003" class="edge">
<title>Node1&#45;&gt;Node3</title>
<g id="a_edge2_Node000001_Node000003"><a xlink:title=" ">
<path fill="none" stroke="#63b8ff" d="M149.74,-48C141.68,-48 133.64,-48 125.89,-48"/>
<polygon fill="#63b8ff" stroke="#63b8ff" points="149.6,-51.5 159.6,-48 149.6,-44.5 149.6,-51.5"/>
</a>
</g>
</g>
<!-- Node4 -->
<g id="Node000004" class="node">
<title>Node4</title>
<g id="a_Node000004"><a xlink:href="class_lo_ra_class.html#a3a19d8829af07604d570f4085a4eec45" target="_top" xlink:title=" ">
<polygon fill="white" stroke="#666666" points="113.88,-20 11.62,-20 11.62,0 113.88,0 113.88,-20"/>
<text text-anchor="middle" x="62.75" y="-6.5" font-family="Helvetica,sans-Serif" font-size="10.00">LoRaClass::receive</text>
</a>
</g>
</g>
<!-- Node1&#45;&gt;Node4 -->
<g id="edge3_Node000001_Node000004" class="edge">
<title>Node1&#45;&gt;Node4</title>
<g id="a_edge3_Node000001_Node000004"><a xlink:title=" ">
<path fill="none" stroke="#63b8ff" d="M179.42,-35.08C157.43,-30.31 132.8,-24.97 111.94,-20.45"/>
<polygon fill="#63b8ff" stroke="#63b8ff" points="178.65,-38.5 189.17,-37.19 180.14,-31.66 178.65,-38.5"/>
</a>
</g>
</g>
</g>
</svg>
