<?xml version="1.0" encoding="UTF-8" standalone="no"?>
<!DOCTYPE svg PUBLIC "-//W3C//DTD SVG 1.1//EN"
 "http://www.w3.org/Graphics/SVG/1.1/DTD/svg11.dtd">
<!-- Generated by graphviz version 12.2.1 (20241206.2353)
 -->
<!-- Title: HMC5883LWrapper Pages: 1 -->
<svg width="142pt" height="96pt"
 viewBox="0.00 0.00 141.62 96.00" xmlns="http://www.w3.org/2000/svg" xmlns:xlink="http://www.w3.org/1999/xlink">
<g id="graph0" class="graph" transform="scale(1 1) rotate(0) translate(4 92)">
<title>HMC5883LWrapper</title>
<!-- Node1 -->
<g id="Node000001" class="node">
<title>Node1</title>
<g id="a_Node000001"><a xlink:title=" ">
<polygon fill="#999999" stroke="#666666" points="113.25,-20 12.5,-20 12.5,0 113.25,0 113.25,-20"/>
<text text-anchor="middle" x="62.88" y="-6.5" font-family="Helvetica,sans-Serif" font-size="10.00">HMC5883LWrapper</text>
</a>
</g>
</g>
<!-- Node2 -->
<g id="Node000002" class="node">
<title>Node2</title>
<g id="a_Node000002"><a xlink:href="class_i_sensor.html" target="_top" xlink:title=" ">
<polygon fill="white" stroke="#666666" points="49.75,-88 0,-88 0,-68 49.75,-68 49.75,-88"/>
<text text-anchor="middle" x="24.88" y="-74.5" font-family="Helvetica,sans-Serif" font-size="10.00">ISensor</text>
</a>
</g>
</g>
<!-- Node2&#45;&gt;Node1 -->
<g id="edge1_Node000001_Node000002" class="edge">
<title>Node2&#45;&gt;Node1</title>
<g id="a_edge1_Node000001_Node000002"><a xlink:title=" ">
<path fill="none" stroke="#63b8ff" d="M35.94,-57.78C43.01,-45.51 51.86,-30.14 57.44,-20.44"/>
<polygon fill="#63b8ff" stroke="#63b8ff" points="33.03,-55.82 31.07,-66.23 39.1,-59.31 33.03,-55.82"/>
</a>
</g>
</g>
<!-- Node3 -->
<g id="Node000003" class="node">
<title>Node3</title>
<g id="a_Node000003"><a xlink:href="class_h_m_c5883_l.html" target="_top" xlink:title=" ">
<polygon fill="white" stroke="#666666" points="133.62,-88 68.12,-88 68.12,-68 133.62,-68 133.62,-88"/>
<text text-anchor="middle" x="100.88" y="-74.5" font-family="Helvetica,sans-Serif" font-size="10.00">HMC5883L</text>
</a>
</g>
</g>
<!-- Node3&#45;&gt;Node1 -->
<g id="edge2_Node000001_Node000003" class="edge">
<title>Node3&#45;&gt;Node1</title>
<g id="a_edge2_Node000001_Node000003"><a xlink:title=" ">
<path fill="none" stroke="#9a32cd" stroke-dasharray="5,2" d="M89.81,-57.78C82.74,-45.51 73.89,-30.14 68.31,-20.44"/>
<polygon fill="#9a32cd" stroke="#9a32cd" points="86.65,-59.31 94.68,-66.23 92.72,-55.82 86.65,-59.31"/>
</a>
</g>
<text text-anchor="middle" x="101.4" y="-40.5" font-family="Helvetica,sans-Serif" font-size="10.00" fill="grey"> sensor</text>
</g>
</g>
</svg>
