<?xml version="1.0" encoding="UTF-8" standalone="no"?>
<!DOCTYPE svg PUBLIC "-//W3C//DTD SVG 1.1//EN"
 "http://www.w3.org/Graphics/SVG/1.1/DTD/svg11.dtd">
<!-- Generated by graphviz version 12.2.1 (20241206.2353)
 -->
<!-- Title: Print::print Pages: 1 -->
<svg width="318pt" height="104pt"
 viewBox="0.00 0.00 317.75 104.00" xmlns="http://www.w3.org/2000/svg" xmlns:xlink="http://www.w3.org/1999/xlink">

<svg id="main" version="1.1" xmlns="http://www.w3.org/2000/svg" xmlns:xlink="http://www.w3.org/1999/xlink" xml:space="preserve">

<style type="text/css"><![CDATA[
.node, .edge {opacity: 0.7;}
.node.selected, .edge.selected {opacity: 1;}
.edge:hover path { stroke: red; }
.edge:hover polygon { stroke: red; fill: red; }
]]></style>
<script type="application/ecmascript" xlink:href="svg.min.js"/>
<svg id="graph" class="graph">
<g id="graph0" class="graph" transform="scale(1 1) rotate(0) translate(4 100)">
<title>Print::print</title>
<!-- Node1 -->
<g id="Node000001" class="node">
<title>Node1</title>
<g id="a_Node000001"><a xlink:title=" ">
<polygon fill="#999999" stroke="#666666" points="61,-58 0,-58 0,-38 61,-38 61,-58"/>
<text text-anchor="middle" x="30.5" y="-44.5" font-family="Helvetica,sans-Serif" font-size="10.00">Print::print</text>
</a>
</g>
</g>
<!-- Node2 -->
<g id="Node000002" class="node">
<title>Node2</title>
<g id="a_Node000002"><a xlink:href="class_print.html#a1e411d07a8ffec5faf7ce485bac0f029" target="_top" xlink:title=" ">
<polygon fill="white" stroke="#666666" points="184.25,-96 123.25,-96 123.25,-76 184.25,-76 184.25,-96"/>
<text text-anchor="middle" x="153.75" y="-82.5" font-family="Helvetica,sans-Serif" font-size="10.00">Print::print</text>
</a>
</g>
</g>
<!-- Node1&#45;&gt;Node2 -->
<g id="edge1_Node000001_Node000002" class="edge">
<title>Node1&#45;&gt;Node2</title>
<g id="a_edge1_Node000001_Node000002"><a xlink:title=" ">
<path fill="none" stroke="#63b8ff" d="M61.47,-57.39C76.89,-62.23 95.9,-68.18 112.57,-73.41"/>
<polygon fill="#63b8ff" stroke="#63b8ff" points="111.09,-76.61 121.68,-76.26 113.18,-69.93 111.09,-76.61"/>
</a>
</g>
</g>
<!-- Node3 -->
<g id="Node000003" class="node">
<title>Node3</title>
<g id="a_Node000003"><a xlink:href="class_print.html#a5be30d49adae2406a270c29ba9a3e0a3" target="_top" xlink:title=" ">
<polygon fill="white" stroke="#666666" points="309.75,-58 246.5,-58 246.5,-38 309.75,-38 309.75,-58"/>
<text text-anchor="middle" x="278.12" y="-44.5" font-family="Helvetica,sans-Serif" font-size="10.00">Print::write</text>
</a>
</g>
</g>
<!-- Node1&#45;&gt;Node3 -->
<g id="edge5_Node000001_Node000003" class="edge">
<title>Node1&#45;&gt;Node3</title>
<g id="a_edge5_Node000001_Node000003"><a xlink:title=" ">
<path fill="none" stroke="#63b8ff" d="M61.13,-48C104.48,-48 185.41,-48 234.96,-48"/>
<polygon fill="#63b8ff" stroke="#63b8ff" points="234.72,-51.5 244.72,-48 234.72,-44.5 234.72,-51.5"/>
</a>
</g>
</g>
<!-- Node4 -->
<g id="Node000004" class="node">
<title>Node4</title>
<g id="a_Node000004"><a xlink:href="class_print.html#a4a26b81eecc506213e4d20959c71601d" target="_top" xlink:title=" ">
<polygon fill="white" stroke="#666666" points="210.5,-20 97,-20 97,0 210.5,0 210.5,-20"/>
<text text-anchor="middle" x="153.75" y="-6.5" font-family="Helvetica,sans-Serif" font-size="10.00">Print::printULLNumber</text>
</a>
</g>
</g>
<!-- Node1&#45;&gt;Node4 -->
<g id="edge3_Node000001_Node000004" class="edge">
<title>Node1&#45;&gt;Node4</title>
<g id="a_edge3_Node000001_Node000004"><a xlink:title=" ">
<path fill="none" stroke="#63b8ff" d="M61.47,-38.61C75.72,-34.14 93.03,-28.72 108.72,-23.8"/>
<polygon fill="#63b8ff" stroke="#63b8ff" points="109.34,-27.27 117.84,-20.94 107.25,-20.59 109.34,-27.27"/>
</a>
</g>
</g>
<!-- Node2&#45;&gt;Node3 -->
<g id="edge2_Node000002_Node000003" class="edge">
<title>Node2&#45;&gt;Node3</title>
<g id="a_edge2_Node000002_Node000003"><a xlink:title=" ">
<path fill="none" stroke="#63b8ff" d="M184.69,-76.7C200.01,-71.95 218.91,-66.08 235.62,-60.89"/>
<polygon fill="#63b8ff" stroke="#63b8ff" points="236.26,-64.35 244.77,-58.05 234.19,-57.67 236.26,-64.35"/>
</a>
</g>
</g>
<!-- Node4&#45;&gt;Node3 -->
<g id="edge4_Node000004_Node000003" class="edge">
<title>Node4&#45;&gt;Node3</title>
<g id="a_edge4_Node000004_Node000003"><a xlink:title=" ">
<path fill="none" stroke="#63b8ff" d="M188.51,-20.48C203.09,-25.01 220.28,-30.35 235.62,-35.11"/>
<polygon fill="#63b8ff" stroke="#63b8ff" points="234.37,-38.39 244.96,-38.01 236.44,-31.7 234.37,-38.39"/>
</a>
</g>
</g>
</g>
</svg>
</svg>

<style type='text/css'>
<![CDATA[
[data-mouse-over-selected='false'] { opacity: 0.7; }
[data-mouse-over-selected='true']  { opacity: 1.0; }
]]>
</style>
<script type="application/ecmascript"><![CDATA[
document.addEventListener('DOMContentLoaded', (event) => {
  highlightEdges();
  highlightAdjacentNodes();
});
]]></script>
</svg>
