<?xml version="1.0" encoding="UTF-8" standalone="no"?>
<!DOCTYPE svg PUBLIC "-//W3C//DTD SVG 1.1//EN"
 "http://www.w3.org/Graphics/SVG/1.1/DTD/svg11.dtd">
<!-- Generated by graphviz version 12.2.1 (20241206.2353)
 -->
<!-- Title: ErriezDS3231::begin Pages: 1 -->
<svg width="451pt" height="28pt"
 viewBox="0.00 0.00 451.25 28.00" xmlns="http://www.w3.org/2000/svg" xmlns:xlink="http://www.w3.org/1999/xlink">
<g id="graph0" class="graph" transform="scale(1 1) rotate(0) translate(4 24)">
<title>ErriezDS3231::begin</title>
<!-- Node1 -->
<g id="Node000001" class="node">
<title>Node1</title>
<g id="a_Node000001"><a xlink:title="Initialize and detect DS3231 RTC.">
<polygon fill="#999999" stroke="#666666" points="106,-20 0,-20 0,0 106,0 106,-20"/>
<text text-anchor="middle" x="53" y="-6.5" font-family="Helvetica,sans-Serif" font-size="10.00">ErriezDS3231::begin</text>
</a>
</g>
</g>
<!-- Node2 -->
<g id="Node000002" class="node">
<title>Node2</title>
<g id="a_Node000002"><a xlink:href="class_erriez_d_s3231.html#aab9ee8e4653b2806a82cf12a22c5c1dd" target="_top" xlink:title="Read register.">
<polygon fill="white" stroke="#666666" points="280.25,-20 142,-20 142,0 280.25,0 280.25,-20"/>
<text text-anchor="middle" x="211.12" y="-6.5" font-family="Helvetica,sans-Serif" font-size="10.00">ErriezDS3231::readRegister</text>
</a>
</g>
</g>
<!-- Node1&#45;&gt;Node2 -->
<g id="edge1_Node000001_Node000002" class="edge">
<title>Node1&#45;&gt;Node2</title>
<g id="a_edge1_Node000001_Node000002"><a xlink:title=" ">
<path fill="none" stroke="#63b8ff" d="M106.42,-10C114.13,-10 122.21,-10 130.32,-10"/>
<polygon fill="#63b8ff" stroke="#63b8ff" points="130.25,-13.5 140.25,-10 130.25,-6.5 130.25,-13.5"/>
</a>
</g>
</g>
<!-- Node3 -->
<g id="Node000003" class="node">
<title>Node3</title>
<g id="a_Node000003"><a xlink:href="class_erriez_d_s3231.html#a9715869e0186e4f6a30dfd6a372875c1" target="_top" xlink:title="Read buffer from RTC.">
<polygon fill="white" stroke="#666666" points="443.25,-20 316.25,-20 316.25,0 443.25,0 443.25,-20"/>
<text text-anchor="middle" x="379.75" y="-6.5" font-family="Helvetica,sans-Serif" font-size="10.00">ErriezDS3231::readBuffer</text>
</a>
</g>
</g>
<!-- Node2&#45;&gt;Node3 -->
<g id="edge2_Node000002_Node000003" class="edge">
<title>Node2&#45;&gt;Node3</title>
<g id="a_edge2_Node000002_Node000003"><a xlink:title=" ">
<path fill="none" stroke="#63b8ff" d="M280.38,-10C288.38,-10 296.57,-10 304.65,-10"/>
<polygon fill="#63b8ff" stroke="#63b8ff" points="304.45,-13.5 314.45,-10 304.45,-6.5 304.45,-13.5"/>
</a>
</g>
</g>
</g>
</svg>
