<?xml version="1.0" encoding="UTF-8" standalone="no"?>
<!DOCTYPE svg PUBLIC "-//W3C//DTD SVG 1.1//EN"
 "http://www.w3.org/Graphics/SVG/1.1/DTD/svg11.dtd">
<!-- Generated by graphviz version 12.2.1 (20241206.2353)
 -->
<!-- Title: LoRaClass::noCrc Pages: 1 -->
<svg width="591pt" height="66pt"
 viewBox="0.00 0.00 591.00 66.00" xmlns="http://www.w3.org/2000/svg" xmlns:xlink="http://www.w3.org/1999/xlink">
<g id="graph0" class="graph" transform="scale(1 1) rotate(0) translate(4 62)">
<title>LoRaClass::noCrc</title>
<!-- Node1 -->
<g id="Node000001" class="node">
<title>Node1</title>
<g id="a_Node000001"><a xlink:title=" ">
<polygon fill="#999999" stroke="#666666" points="97,-39 0,-39 0,-19 97,-19 97,-39"/>
<text text-anchor="middle" x="48.5" y="-25.5" font-family="Helvetica,sans-Serif" font-size="10.00">LoRaClass::noCrc</text>
</a>
</g>
</g>
<!-- Node2 -->
<g id="Node000002" class="node">
<title>Node2</title>
<g id="a_Node000002"><a xlink:href="class_lo_ra_class.html#a6dc289bf94ecbbaddb406e863533ab45" target="_top" xlink:title=" ">
<polygon fill="white" stroke="#666666" points="250.25,-39 133,-39 133,-19 250.25,-19 250.25,-39"/>
<text text-anchor="middle" x="191.62" y="-25.5" font-family="Helvetica,sans-Serif" font-size="10.00">LoRaClass::disableCrc</text>
</a>
</g>
</g>
<!-- Node1&#45;&gt;Node2 -->
<g id="edge1_Node000001_Node000002" class="edge">
<title>Node1&#45;&gt;Node2</title>
<g id="a_edge1_Node000001_Node000002"><a xlink:title=" ">
<path fill="none" stroke="#63b8ff" d="M97.28,-29C105,-29 113.12,-29 121.23,-29"/>
<polygon fill="#63b8ff" stroke="#63b8ff" points="121.11,-32.5 131.11,-29 121.11,-25.5 121.11,-32.5"/>
</a>
</g>
</g>
<!-- Node3 -->
<g id="Node000003" class="node">
<title>Node3</title>
<g id="a_Node000003"><a xlink:href="class_lo_ra_class.html#add581bfe66dd75108e22b18a4d6f89bf" target="_top" xlink:title=" ">
<polygon fill="white" stroke="#666666" points="413.62,-58 287.38,-58 287.38,-38 413.62,-38 413.62,-58"/>
<text text-anchor="middle" x="350.5" y="-44.5" font-family="Helvetica,sans-Serif" font-size="10.00">LoRaClass::readRegister</text>
</a>
</g>
</g>
<!-- Node2&#45;&gt;Node3 -->
<g id="edge2_Node000002_Node000003" class="edge">
<title>Node2&#45;&gt;Node3</title>
<g id="a_edge2_Node000002_Node000003"><a xlink:title=" ">
<path fill="none" stroke="#63b8ff" d="M250.59,-36.02C258.75,-37.01 267.23,-38.04 275.64,-39.05"/>
<polygon fill="#63b8ff" stroke="#63b8ff" points="275.18,-42.52 285.52,-40.25 276.02,-35.57 275.18,-42.52"/>
</a>
</g>
</g>
<!-- Node5 -->
<g id="Node000005" class="node">
<title>Node5</title>
<g id="a_Node000005"><a xlink:href="class_lo_ra_class.html#a77e7c77aa54174b352a26e1510f66f98" target="_top" xlink:title=" ">
<polygon fill="white" stroke="#666666" points="414.75,-20 286.25,-20 286.25,0 414.75,0 414.75,-20"/>
<text text-anchor="middle" x="350.5" y="-6.5" font-family="Helvetica,sans-Serif" font-size="10.00">LoRaClass::writeRegister</text>
</a>
</g>
</g>
<!-- Node2&#45;&gt;Node5 -->
<g id="edge4_Node000002_Node000005" class="edge">
<title>Node2&#45;&gt;Node5</title>
<g id="a_edge4_Node000002_Node000005"><a xlink:title=" ">
<path fill="none" stroke="#63b8ff" d="M250.59,-21.98C258.42,-21.03 266.55,-20.05 274.62,-19.07"/>
<polygon fill="#63b8ff" stroke="#63b8ff" points="274.96,-22.55 284.46,-17.88 274.11,-15.6 274.96,-22.55"/>
</a>
</g>
</g>
<!-- Node4 -->
<g id="Node000004" class="node">
<title>Node4</title>
<g id="a_Node000004"><a xlink:href="class_lo_ra_class.html#a3a0c0649c595b1176b5fb1ae41210ee3" target="_top" xlink:title=" ">
<polygon fill="white" stroke="#666666" points="583,-39 450.75,-39 450.75,-19 583,-19 583,-39"/>
<text text-anchor="middle" x="516.88" y="-25.5" font-family="Helvetica,sans-Serif" font-size="10.00">LoRaClass::singleTransfer</text>
</a>
</g>
</g>
<!-- Node3&#45;&gt;Node4 -->
<g id="edge3_Node000003_Node000004" class="edge">
<title>Node3&#45;&gt;Node4</title>
<g id="a_edge3_Node000003_Node000004"><a xlink:title=" ">
<path fill="none" stroke="#63b8ff" d="M414.11,-40.76C422.28,-39.82 430.73,-38.84 439.1,-37.87"/>
<polygon fill="#63b8ff" stroke="#63b8ff" points="439.4,-41.36 448.93,-36.74 438.59,-34.41 439.4,-41.36"/>
</a>
</g>
</g>
<!-- Node5&#45;&gt;Node4 -->
<g id="edge5_Node000005_Node000004" class="edge">
<title>Node5&#45;&gt;Node4</title>
<g id="a_edge5_Node000005_Node000004"><a xlink:title=" ">
<path fill="none" stroke="#63b8ff" d="M415.05,-17.35C422.91,-18.25 431.01,-19.19 439.04,-20.12"/>
<polygon fill="#63b8ff" stroke="#63b8ff" points="438.48,-23.58 448.82,-21.25 439.28,-16.62 438.48,-23.58"/>
</a>
</g>
</g>
</g>
</svg>
