<?xml version="1.0" encoding="UTF-8" standalone="no"?>
<!DOCTYPE svg PUBLIC "-//W3C//DTD SVG 1.1//EN"
 "http://www.w3.org/Graphics/SVG/1.1/DTD/svg11.dtd">
<!-- Generated by graphviz version 12.2.1 (20241206.2353)
 -->
<!-- Title: DS3231::get_unix_time Pages: 1 -->
<svg width="406pt" height="104pt"
 viewBox="0.00 0.00 405.50 104.00" xmlns="http://www.w3.org/2000/svg" xmlns:xlink="http://www.w3.org/1999/xlink">

<svg id="main" version="1.1" xmlns="http://www.w3.org/2000/svg" xmlns:xlink="http://www.w3.org/1999/xlink" xml:space="preserve">

<style type="text/css"><![CDATA[
.node, .edge {opacity: 0.7;}
.node.selected, .edge.selected {opacity: 1;}
.edge:hover path { stroke: red; }
.edge:hover polygon { stroke: red; fill: red; }
]]></style>
<script type="application/ecmascript" xlink:href="svg.min.js"/>
<svg id="graph" class="graph">
<g id="graph0" class="graph" transform="scale(1 1) rotate(0) translate(4 100)">
<title>DS3231::get_unix_time</title>
<!-- Node1 -->
<g id="Node000001" class="node">
<title>Node1</title>
<g id="a_Node000001"><a xlink:title=" ">
<polygon fill="#999999" stroke="#666666" points="118,-58 0,-58 0,-38 118,-38 118,-58"/>
<text text-anchor="middle" x="59" y="-44.5" font-family="Helvetica,sans-Serif" font-size="10.00">DS3231::get_unix_time</text>
</a>
</g>
</g>
<!-- Node2 -->
<g id="Node000002" class="node">
<title>Node2</title>
<g id="a_Node000002"><a xlink:href="class_d_s3231.html#ad5a93c1afc0e44f96e08ce99258c5228" target="_top" xlink:title=" ">
<polygon fill="white" stroke="#666666" points="248.75,-58 154,-58 154,-38 248.75,-38 248.75,-58"/>
<text text-anchor="middle" x="201.38" y="-44.5" font-family="Helvetica,sans-Serif" font-size="10.00">DS3231::get_time</text>
</a>
</g>
</g>
<!-- Node1&#45;&gt;Node2 -->
<g id="edge1_Node000001_Node000002" class="edge">
<title>Node1&#45;&gt;Node2</title>
<g id="a_edge1_Node000001_Node000002"><a xlink:title=" ">
<path fill="none" stroke="#63b8ff" d="M118.31,-48C126.21,-48 134.31,-48 142.2,-48"/>
<polygon fill="#63b8ff" stroke="#63b8ff" points="142.05,-51.5 152.05,-48 142.05,-44.5 142.05,-51.5"/>
</a>
</g>
</g>
<!-- Node3 -->
<g id="Node000003" class="node">
<title>Node3</title>
<g id="a_Node000003"><a xlink:href="class_d_s3231.html#ac7a9f58b408406930da56317de9f2a34" target="_top" xlink:title="Library function that takes a BCD number and converts it to an unsigned 8 bit integer.">
<polygon fill="white" stroke="#666666" points="393.38,-96 288.88,-96 288.88,-76 393.38,-76 393.38,-96"/>
<text text-anchor="middle" x="341.12" y="-82.5" font-family="Helvetica,sans-Serif" font-size="10.00">DS3231::bcd_to_bin</text>
</a>
</g>
</g>
<!-- Node2&#45;&gt;Node3 -->
<g id="edge2_Node000002_Node000003" class="edge">
<title>Node2&#45;&gt;Node3</title>
<g id="a_edge2_Node000002_Node000003"><a xlink:title=" ">
<path fill="none" stroke="#63b8ff" d="M240.38,-58.48C256.19,-62.85 274.73,-67.96 291.52,-72.59"/>
<polygon fill="#63b8ff" stroke="#63b8ff" points="290.21,-75.86 300.78,-75.15 292.08,-69.11 290.21,-75.86"/>
</a>
</g>
</g>
<!-- Node4 -->
<g id="Node000004" class="node">
<title>Node4</title>
<g id="a_Node000004"><a xlink:href="class_d_s3231.html#ae3895581e62c411451d12de3e7558207" target="_top" xlink:title="Library function to read a specific I2C register adress.">
<polygon fill="white" stroke="#666666" points="397.5,-58 284.75,-58 284.75,-38 397.5,-38 397.5,-58"/>
<text text-anchor="middle" x="341.12" y="-44.5" font-family="Helvetica,sans-Serif" font-size="10.00">DS3231::i2c_read_reg</text>
</a>
</g>
</g>
<!-- Node2&#45;&gt;Node4 -->
<g id="edge3_Node000002_Node000004" class="edge">
<title>Node2&#45;&gt;Node4</title>
<g id="a_edge3_Node000002_Node000004"><a xlink:title=" ">
<path fill="none" stroke="#63b8ff" d="M249.01,-48C256.76,-48 264.92,-48 273.05,-48"/>
<polygon fill="#63b8ff" stroke="#63b8ff" points="272.97,-51.5 282.97,-48 272.97,-44.5 272.97,-51.5"/>
</a>
</g>
</g>
<!-- Node5 -->
<g id="Node000005" class="node">
<title>Node5</title>
<g id="a_Node000005"><a xlink:href="utils_8cpp.html#acd86977d05fa330749958ace0f2798de" target="_top" xlink:title="Prints a message to the UART with a timestamp and core number.">
<polygon fill="white" stroke="#666666" points="369.38,-20 312.88,-20 312.88,0 369.38,0 369.38,-20"/>
<text text-anchor="middle" x="341.12" y="-6.5" font-family="Helvetica,sans-Serif" font-size="10.00">uart_print</text>
</a>
</g>
</g>
<!-- Node2&#45;&gt;Node5 -->
<g id="edge4_Node000002_Node000005" class="edge">
<title>Node2&#45;&gt;Node5</title>
<g id="a_edge4_Node000002_Node000005"><a xlink:title=" ">
<path fill="none" stroke="#63b8ff" d="M240.38,-37.52C259.46,-32.25 282.53,-25.89 301.68,-20.61"/>
<polygon fill="#63b8ff" stroke="#63b8ff" points="302.56,-23.99 311.27,-17.96 300.69,-17.25 302.56,-23.99"/>
</a>
</g>
</g>
</g>
</svg>
</svg>

<style type='text/css'>
<![CDATA[
[data-mouse-over-selected='false'] { opacity: 0.7; }
[data-mouse-over-selected='true']  { opacity: 1.0; }
]]>
</style>
<script type="application/ecmascript"><![CDATA[
document.addEventListener('DOMContentLoaded', (event) => {
  highlightEdges();
  highlightAdjacentNodes();
});
]]></script>
</svg>
