<?xml version="1.0" encoding="UTF-8" standalone="no"?>
<!DOCTYPE svg PUBLIC "-//W3C//DTD SVG 1.1//EN"
 "http://www.w3.org/Graphics/SVG/1.1/DTD/svg11.dtd">
<!-- Generated by graphviz version 12.2.1 (20241206.2353)
 -->
<!-- Title: DS3231::bcd_to_bin Pages: 1 -->
<svg width="397pt" height="28pt"
 viewBox="0.00 0.00 397.25 28.00" xmlns="http://www.w3.org/2000/svg" xmlns:xlink="http://www.w3.org/1999/xlink">
<g id="graph0" class="graph" transform="scale(1 1) rotate(0) translate(4 24)">
<title>DS3231::bcd_to_bin</title>
<!-- Node1 -->
<g id="Node000001" class="node">
<title>Node1</title>
<g id="a_Node000001"><a xlink:title="Library function that takes a BCD number and converts it to an unsigned 8 bit integer.">
<polygon fill="#999999" stroke="#666666" points="389.25,-20 284.75,-20 284.75,0 389.25,0 389.25,-20"/>
<text text-anchor="middle" x="337" y="-6.5" font-family="Helvetica,sans-Serif" font-size="10.00">DS3231::bcd_to_bin</text>
</a>
</g>
</g>
<!-- Node2 -->
<g id="Node000002" class="node">
<title>Node2</title>
<g id="a_Node000002"><a xlink:href="class_d_s3231.html#ad5a93c1afc0e44f96e08ce99258c5228" target="_top" xlink:title=" ">
<polygon fill="white" stroke="#666666" points="248.75,-20 154,-20 154,0 248.75,0 248.75,-20"/>
<text text-anchor="middle" x="201.38" y="-6.5" font-family="Helvetica,sans-Serif" font-size="10.00">DS3231::get_time</text>
</a>
</g>
</g>
<!-- Node1&#45;&gt;Node2 -->
<g id="edge1_Node000001_Node000002" class="edge">
<title>Node1&#45;&gt;Node2</title>
<g id="a_edge1_Node000001_Node000002"><a xlink:title=" ">
<path fill="none" stroke="#63b8ff" d="M273.04,-10C264.98,-10 256.84,-10 249.1,-10"/>
<polygon fill="#63b8ff" stroke="#63b8ff" points="272.82,-13.5 282.82,-10 272.82,-6.5 272.82,-13.5"/>
</a>
</g>
</g>
<!-- Node3 -->
<g id="Node000003" class="node">
<title>Node3</title>
<g id="a_Node000003"><a xlink:href="class_d_s3231.html#a2de3663610d5d17f9b6e6354b72cc1b4" target="_top" xlink:title=" ">
<polygon fill="white" stroke="#666666" points="118,-20 0,-20 0,0 118,0 118,-20"/>
<text text-anchor="middle" x="59" y="-6.5" font-family="Helvetica,sans-Serif" font-size="10.00">DS3231::get_unix_time</text>
</a>
</g>
</g>
<!-- Node2&#45;&gt;Node3 -->
<g id="edge2_Node000002_Node000003" class="edge">
<title>Node2&#45;&gt;Node3</title>
<g id="a_edge2_Node000002_Node000003"><a xlink:title=" ">
<path fill="none" stroke="#63b8ff" d="M142.24,-10C134.32,-10 126.19,-10 118.28,-10"/>
<polygon fill="#63b8ff" stroke="#63b8ff" points="142.12,-13.5 152.12,-10 142.12,-6.5 142.12,-13.5"/>
</a>
</g>
</g>
</g>
</svg>
