<?xml version="1.0" encoding="UTF-8" standalone="no"?>
<!DOCTYPE svg PUBLIC "-//W3C//DTD SVG 1.1//EN"
 "http://www.w3.org/Graphics/SVG/1.1/DTD/svg11.dtd">
<!-- Generated by graphviz version 12.2.1 (20241206.2353)
 -->
<!-- Title: LoRaClass::onDio0Rise Pages: 1 -->
<svg width="288pt" height="104pt"
 viewBox="0.00 0.00 288.25 104.00" xmlns="http://www.w3.org/2000/svg" xmlns:xlink="http://www.w3.org/1999/xlink">
<g id="graph0" class="graph" transform="scale(1 1) rotate(0) translate(4 100)">
<title>LoRaClass::onDio0Rise</title>
<!-- Node1 -->
<g id="Node000001" class="node">
<title>Node1</title>
<g id="a_Node000001"><a xlink:title=" ">
<polygon fill="#999999" stroke="#666666" points="280.25,-58 158.5,-58 158.5,-38 280.25,-38 280.25,-58"/>
<text text-anchor="middle" x="219.38" y="-44.5" font-family="Helvetica,sans-Serif" font-size="10.00">LoRaClass::onDio0Rise</text>
</a>
</g>
</g>
<!-- Node2 -->
<g id="Node000002" class="node">
<title>Node2</title>
<g id="a_Node000002"><a xlink:href="class_lo_ra_class.html#af2298ce6d5c4c2895ca681b360a9fef4" target="_top" xlink:title=" ">
<polygon fill="white" stroke="#666666" points="122.5,-96 0,-96 0,-76 122.5,-76 122.5,-96"/>
<text text-anchor="middle" x="61.25" y="-82.5" font-family="Helvetica,sans-Serif" font-size="10.00">LoRaClass::onCadDone</text>
</a>
</g>
</g>
<!-- Node1&#45;&gt;Node2 -->
<g id="edge1_Node000001_Node000002" class="edge">
<title>Node1&#45;&gt;Node2</title>
<g id="a_edge1_Node000001_Node000002"><a xlink:title=" ">
<path fill="none" stroke="#63b8ff" d="M164.22,-61.18C144.9,-65.88 123.43,-71.11 105.18,-75.55"/>
<polygon fill="#63b8ff" stroke="#63b8ff" points="164.94,-64.61 173.83,-58.84 163.29,-57.81 164.94,-64.61"/>
</a>
</g>
</g>
<!-- Node3 -->
<g id="Node000003" class="node">
<title>Node3</title>
<g id="a_Node000003"><a xlink:href="class_lo_ra_class.html#ac61f05896ad09462aa690fa5eb0f58b9" target="_top" xlink:title=" ">
<polygon fill="white" stroke="#666666" points="119.88,-58 2.62,-58 2.62,-38 119.88,-38 119.88,-58"/>
<text text-anchor="middle" x="61.25" y="-44.5" font-family="Helvetica,sans-Serif" font-size="10.00">LoRaClass::onReceive</text>
</a>
</g>
</g>
<!-- Node1&#45;&gt;Node3 -->
<g id="edge2_Node000001_Node000003" class="edge">
<title>Node1&#45;&gt;Node3</title>
<g id="a_edge2_Node000001_Node000003"><a xlink:title=" ">
<path fill="none" stroke="#63b8ff" d="M146.5,-48C137.67,-48 128.73,-48 120.14,-48"/>
<polygon fill="#63b8ff" stroke="#63b8ff" points="146.5,-51.5 156.5,-48 146.5,-44.5 146.5,-51.5"/>
</a>
</g>
</g>
<!-- Node4 -->
<g id="Node000004" class="node">
<title>Node4</title>
<g id="a_Node000004"><a xlink:href="class_lo_ra_class.html#a5f77504f5bca6479c019b2924dec9cc5" target="_top" xlink:title=" ">
<polygon fill="white" stroke="#666666" points="119.12,-20 3.38,-20 3.38,0 119.12,0 119.12,-20"/>
<text text-anchor="middle" x="61.25" y="-6.5" font-family="Helvetica,sans-Serif" font-size="10.00">LoRaClass::onTxDone</text>
</a>
</g>
</g>
<!-- Node1&#45;&gt;Node4 -->
<g id="edge3_Node000001_Node000004" class="edge">
<title>Node1&#45;&gt;Node4</title>
<g id="a_edge3_Node000001_Node000004"><a xlink:title=" ">
<path fill="none" stroke="#63b8ff" d="M164.22,-34.82C144.9,-30.12 123.43,-24.89 105.18,-20.45"/>
<polygon fill="#63b8ff" stroke="#63b8ff" points="163.29,-38.19 173.83,-37.16 164.94,-31.39 163.29,-38.19"/>
</a>
</g>
</g>
</g>
</svg>
