<?xml version="1.0" encoding="UTF-8" standalone="no"?>
<!DOCTYPE svg PUBLIC "-//W3C//DTD SVG 1.1//EN"
 "http://www.w3.org/Graphics/SVG/1.1/DTD/svg11.dtd">
<!-- Generated by graphviz version 12.2.1 (20241206.2353)
 -->
<!-- Title: ErriezDS3231::getDateTime Pages: 1 -->
<svg width="448pt" height="66pt"
 viewBox="0.00 0.00 447.50 66.00" xmlns="http://www.w3.org/2000/svg" xmlns:xlink="http://www.w3.org/1999/xlink">
<g id="graph0" class="graph" transform="scale(1 1) rotate(0) translate(4 62)">
<title>ErriezDS3231::getDateTime</title>
<!-- Node1 -->
<g id="Node000001" class="node">
<title>Node1</title>
<g id="a_Node000001"><a xlink:title="Get date time.">
<polygon fill="#999999" stroke="#666666" points="139,-39 0,-39 0,-19 139,-19 139,-39"/>
<text text-anchor="middle" x="69.5" y="-25.5" font-family="Helvetica,sans-Serif" font-size="10.00">ErriezDS3231::getDateTime</text>
</a>
</g>
</g>
<!-- Node2 -->
<g id="Node000002" class="node">
<title>Node2</title>
<g id="a_Node000002"><a xlink:href="class_erriez_d_s3231.html#a0261677270cc639a23daebbabcf0e6fc" target="_top" xlink:title="Read date and time from RTC.">
<polygon fill="white" stroke="#666666" points="276.5,-39 175,-39 175,-19 276.5,-19 276.5,-39"/>
<text text-anchor="middle" x="225.75" y="-25.5" font-family="Helvetica,sans-Serif" font-size="10.00">ErriezDS3231::read</text>
</a>
</g>
</g>
<!-- Node1&#45;&gt;Node2 -->
<g id="edge1_Node000001_Node000002" class="edge">
<title>Node1&#45;&gt;Node2</title>
<g id="a_edge1_Node000001_Node000002"><a xlink:title=" ">
<path fill="none" stroke="#63b8ff" d="M139.05,-29C147.16,-29 155.4,-29 163.4,-29"/>
<polygon fill="#63b8ff" stroke="#63b8ff" points="163.4,-32.5 173.4,-29 163.4,-25.5 163.4,-32.5"/>
</a>
</g>
</g>
<!-- Node3 -->
<g id="Node000003" class="node">
<title>Node3</title>
<g id="a_Node000003"><a xlink:href="class_erriez_d_s3231.html#a471af5f04b95c6021e9d5a551ad46099" target="_top" xlink:title="BCD to decimal conversion.">
<polygon fill="white" stroke="#666666" points="439.5,-58 312.5,-58 312.5,-38 439.5,-38 439.5,-58"/>
<text text-anchor="middle" x="376" y="-44.5" font-family="Helvetica,sans-Serif" font-size="10.00">ErriezDS3231::bcdToDec</text>
</a>
</g>
</g>
<!-- Node2&#45;&gt;Node3 -->
<g id="edge2_Node000002_Node000003" class="edge">
<title>Node2&#45;&gt;Node3</title>
<g id="a_edge2_Node000002_Node000003"><a xlink:title=" ">
<path fill="none" stroke="#63b8ff" d="M276.94,-35.43C284.65,-36.42 292.74,-37.46 300.84,-38.5"/>
<polygon fill="#63b8ff" stroke="#63b8ff" points="300.38,-41.96 310.74,-39.76 301.27,-35.02 300.38,-41.96"/>
</a>
</g>
</g>
<!-- Node4 -->
<g id="Node000004" class="node">
<title>Node4</title>
<g id="a_Node000004"><a xlink:href="class_erriez_d_s3231.html#a9715869e0186e4f6a30dfd6a372875c1" target="_top" xlink:title="Read buffer from RTC.">
<polygon fill="white" stroke="#666666" points="439.5,-20 312.5,-20 312.5,0 439.5,0 439.5,-20"/>
<text text-anchor="middle" x="376" y="-6.5" font-family="Helvetica,sans-Serif" font-size="10.00">ErriezDS3231::readBuffer</text>
</a>
</g>
</g>
<!-- Node2&#45;&gt;Node4 -->
<g id="edge3_Node000002_Node000004" class="edge">
<title>Node2&#45;&gt;Node4</title>
<g id="a_edge3_Node000002_Node000004"><a xlink:title=" ">
<path fill="none" stroke="#63b8ff" d="M276.94,-22.57C284.65,-21.58 292.74,-20.54 300.84,-19.5"/>
<polygon fill="#63b8ff" stroke="#63b8ff" points="301.27,-22.98 310.74,-18.24 300.38,-16.04 301.27,-22.98"/>
</a>
</g>
</g>
</g>
</svg>
