<?xml version="1.0" encoding="UTF-8" standalone="no"?>
<!DOCTYPE svg PUBLIC "-//W3C//DTD SVG 1.1//EN"
 "http://www.w3.org/Graphics/SVG/1.1/DTD/svg11.dtd">
<!-- Generated by graphviz version 12.2.1 (20241206.2353)
 -->
<!-- Title: INA3221::set_mode_triggered Pages: 1 -->
<svg width="276pt" height="66pt"
 viewBox="0.00 0.00 276.25 66.00" xmlns="http://www.w3.org/2000/svg" xmlns:xlink="http://www.w3.org/1999/xlink">
<g id="graph0" class="graph" transform="scale(1 1) rotate(0) translate(4 62)">
<title>INA3221::set_mode_triggered</title>
<!-- Node1 -->
<g id="Node000001" class="node">
<title>Node1</title>
<g id="a_Node000001"><a xlink:title=" ">
<polygon fill="#999999" stroke="#666666" points="145.75,-39 0,-39 0,-19 145.75,-19 145.75,-39"/>
<text text-anchor="middle" x="72.88" y="-25.5" font-family="Helvetica,sans-Serif" font-size="10.00">INA3221::set_mode_triggered</text>
</a>
</g>
</g>
<!-- Node2 -->
<g id="Node000002" class="node">
<title>Node2</title>
<g id="a_Node000002"><a xlink:href="class_i_n_a3221.html#a0b4c630038abf482bef36f3083ab20ff" target="_top" xlink:title=" ">
<polygon fill="white" stroke="#666666" points="267.12,-58 182.88,-58 182.88,-38 267.12,-38 267.12,-58"/>
<text text-anchor="middle" x="225" y="-44.5" font-family="Helvetica,sans-Serif" font-size="10.00">INA3221::_read</text>
</a>
</g>
</g>
<!-- Node1&#45;&gt;Node2 -->
<g id="edge1_Node000001_Node000002" class="edge">
<title>Node1&#45;&gt;Node2</title>
<g id="a_edge1_Node000001_Node000002"><a xlink:title=" ">
<path fill="none" stroke="#63b8ff" d="M145.86,-38.11C154.45,-39.2 163.1,-40.29 171.35,-41.34"/>
<polygon fill="#63b8ff" stroke="#63b8ff" points="170.84,-44.8 181.2,-42.58 171.72,-37.85 170.84,-44.8"/>
</a>
</g>
</g>
<!-- Node3 -->
<g id="Node000003" class="node">
<title>Node3</title>
<g id="a_Node000003"><a xlink:href="class_i_n_a3221.html#aea00c9c6baf85bd94794ee7b3b47d2c7" target="_top" xlink:title=" ">
<polygon fill="white" stroke="#666666" points="268.25,-20 181.75,-20 181.75,0 268.25,0 268.25,-20"/>
<text text-anchor="middle" x="225" y="-6.5" font-family="Helvetica,sans-Serif" font-size="10.00">INA3221::_write</text>
</a>
</g>
</g>
<!-- Node1&#45;&gt;Node3 -->
<g id="edge2_Node000001_Node000003" class="edge">
<title>Node1&#45;&gt;Node3</title>
<g id="a_edge2_Node000001_Node000003"><a xlink:title=" ">
<path fill="none" stroke="#63b8ff" d="M145.86,-19.89C154.05,-18.85 162.29,-17.81 170.19,-16.81"/>
<polygon fill="#63b8ff" stroke="#63b8ff" points="170.48,-20.3 179.97,-15.57 169.61,-13.36 170.48,-20.3"/>
</a>
</g>
</g>
</g>
</svg>
