<?xml version="1.0" encoding="UTF-8" standalone="no"?>
<!DOCTYPE svg PUBLIC "-//W3C//DTD SVG 1.1//EN"
 "http://www.w3.org/Graphics/SVG/1.1/DTD/svg11.dtd">
<!-- Generated by graphviz version 12.2.1 (20241206.2353)
 -->
<!-- Title: LoRaClass::beginPacket Pages: 1 -->
<svg width="659pt" height="165pt"
 viewBox="0.00 0.00 658.50 164.61" xmlns="http://www.w3.org/2000/svg" xmlns:xlink="http://www.w3.org/1999/xlink">
<g id="graph0" class="graph" transform="scale(1 1) rotate(0) translate(4 160.61)">
<title>LoRaClass::beginPacket</title>
<!-- Node1 -->
<g id="Node000001" class="node">
<title>Node1</title>
<g id="a_Node000001"><a xlink:title=" ">
<polygon fill="#999999" stroke="#666666" points="124.75,-80.61 0,-80.61 0,-60.61 124.75,-60.61 124.75,-80.61"/>
<text text-anchor="middle" x="62.38" y="-67.11" font-family="Helvetica,sans-Serif" font-size="10.00">LoRaClass::beginPacket</text>
</a>
</g>
</g>
<!-- Node2 -->
<g id="Node000002" class="node">
<title>Node2</title>
<g id="a_Node000002"><a xlink:href="class_lo_ra_class.html#a691417e927af503dacaa797a1bb9527f" target="_top" xlink:title=" ">
<polygon fill="white" stroke="#666666" points="317.75,-156.61 160.75,-156.61 160.75,-136.61 317.75,-136.61 317.75,-156.61"/>
<text text-anchor="middle" x="239.25" y="-143.11" font-family="Helvetica,sans-Serif" font-size="10.00">LoRaClass::explicitHeaderMode</text>
</a>
</g>
</g>
<!-- Node1&#45;&gt;Node2 -->
<g id="edge1_Node000001_Node000002" class="edge">
<title>Node1&#45;&gt;Node2</title>
<g id="a_edge1_Node000001_Node000002"><a xlink:title=" ">
<path fill="none" stroke="#63b8ff" d="M77.86,-80.91C96.3,-93.57 129.52,-114.96 160.75,-127.61 165.63,-129.59 170.77,-131.39 175.98,-133.04"/>
<polygon fill="#63b8ff" stroke="#63b8ff" points="174.69,-136.31 185.27,-135.77 176.66,-129.59 174.69,-136.31"/>
</a>
</g>
</g>
<!-- Node5 -->
<g id="Node000005" class="node">
<title>Node5</title>
<g id="a_Node000005"><a xlink:href="class_lo_ra_class.html#a77e7c77aa54174b352a26e1510f66f98" target="_top" xlink:title=" ">
<polygon fill="white" stroke="#666666" points="482.25,-80.61 353.75,-80.61 353.75,-60.61 482.25,-60.61 482.25,-80.61"/>
<text text-anchor="middle" x="418" y="-67.11" font-family="Helvetica,sans-Serif" font-size="10.00">LoRaClass::writeRegister</text>
</a>
</g>
</g>
<!-- Node1&#45;&gt;Node5 -->
<g id="edge14_Node000001_Node000005" class="edge">
<title>Node1&#45;&gt;Node5</title>
<g id="a_edge14_Node000001_Node000005"><a xlink:title=" ">
<path fill="none" stroke="#63b8ff" d="M75.91,-60.27C93.55,-46.46 127.29,-22.68 160.75,-13.61 228.1,4.65 250.33,4.37 317.75,-13.61 346.69,-21.33 375.96,-39.72 395.13,-53.54"/>
<polygon fill="#63b8ff" stroke="#63b8ff" points="392.86,-56.21 402.97,-59.36 397.03,-50.59 392.86,-56.21"/>
</a>
</g>
</g>
<!-- Node6 -->
<g id="Node000006" class="node">
<title>Node6</title>
<g id="a_Node000006"><a xlink:href="class_lo_ra_class.html#ab0397413dc995dedb08f2c560e79b01c" target="_top" xlink:title=" ">
<polygon fill="white" stroke="#666666" points="282.12,-42.61 196.38,-42.61 196.38,-22.61 282.12,-22.61 282.12,-42.61"/>
<text text-anchor="middle" x="239.25" y="-29.11" font-family="Helvetica,sans-Serif" font-size="10.00">LoRaClass::idle</text>
</a>
</g>
</g>
<!-- Node1&#45;&gt;Node6 -->
<g id="edge6_Node000001_Node000006" class="edge">
<title>Node1&#45;&gt;Node6</title>
<g id="a_edge6_Node000001_Node000006"><a xlink:title=" ">
<path fill="none" stroke="#63b8ff" d="M111.62,-60.12C134.39,-55.18 161.62,-49.26 184.98,-44.18"/>
<polygon fill="#63b8ff" stroke="#63b8ff" points="185.6,-47.63 194.63,-42.09 184.11,-40.79 185.6,-47.63"/>
</a>
</g>
</g>
<!-- Node7 -->
<g id="Node000007" class="node">
<title>Node7</title>
<g id="a_Node000007"><a xlink:href="class_lo_ra_class.html#ad06e31c18f7029e231d837a7eca7558e" target="_top" xlink:title=" ">
<polygon fill="white" stroke="#666666" points="317.75,-118.61 160.75,-118.61 160.75,-98.61 317.75,-98.61 317.75,-118.61"/>
<text text-anchor="middle" x="239.25" y="-105.11" font-family="Helvetica,sans-Serif" font-size="10.00">LoRaClass::implicitHeaderMode</text>
</a>
</g>
</g>
<!-- Node1&#45;&gt;Node7 -->
<g id="edge8_Node000001_Node000007" class="edge">
<title>Node1&#45;&gt;Node7</title>
<g id="a_edge8_Node000001_Node000007"><a xlink:title=" ">
<path fill="none" stroke="#63b8ff" d="M111.62,-81.09C132.46,-85.62 157.03,-90.96 178.97,-95.73"/>
<polygon fill="#63b8ff" stroke="#63b8ff" points="178.16,-99.13 188.68,-97.84 179.65,-92.29 178.16,-99.13"/>
</a>
</g>
</g>
<!-- Node8 -->
<g id="Node000008" class="node">
<title>Node8</title>
<g id="a_Node000008"><a xlink:href="class_lo_ra_class.html#a3b9ea4a954095979f6e3ae037d8c3d5e" target="_top" xlink:title=" ">
<polygon fill="white" stroke="#666666" points="305.38,-80.61 173.12,-80.61 173.12,-60.61 305.38,-60.61 305.38,-80.61"/>
<text text-anchor="middle" x="239.25" y="-67.11" font-family="Helvetica,sans-Serif" font-size="10.00">LoRaClass::isTransmitting</text>
</a>
</g>
</g>
<!-- Node1&#45;&gt;Node8 -->
<g id="edge11_Node000001_Node000008" class="edge">
<title>Node1&#45;&gt;Node8</title>
<g id="a_edge11_Node000001_Node000008"><a xlink:title=" ">
<path fill="none" stroke="#63b8ff" d="M125.03,-70.61C136.73,-70.61 149.1,-70.61 161.21,-70.61"/>
<polygon fill="#63b8ff" stroke="#63b8ff" points="161.19,-74.11 171.19,-70.61 161.19,-67.11 161.19,-74.11"/>
</a>
</g>
</g>
<!-- Node3 -->
<g id="Node000003" class="node">
<title>Node3</title>
<g id="a_Node000003"><a xlink:href="class_lo_ra_class.html#add581bfe66dd75108e22b18a4d6f89bf" target="_top" xlink:title=" ">
<polygon fill="white" stroke="#666666" points="481.12,-118.61 354.88,-118.61 354.88,-98.61 481.12,-98.61 481.12,-118.61"/>
<text text-anchor="middle" x="418" y="-105.11" font-family="Helvetica,sans-Serif" font-size="10.00">LoRaClass::readRegister</text>
</a>
</g>
</g>
<!-- Node2&#45;&gt;Node3 -->
<g id="edge2_Node000002_Node000003" class="edge">
<title>Node2&#45;&gt;Node3</title>
<g id="a_edge2_Node000002_Node000003"><a xlink:title=" ">
<path fill="none" stroke="#63b8ff" d="M289.02,-136.12C310.17,-131.58 335.14,-126.21 357.38,-121.43"/>
<polygon fill="#63b8ff" stroke="#63b8ff" points="357.87,-124.9 366.91,-119.38 356.4,-118.06 357.87,-124.9"/>
</a>
</g>
</g>
<!-- Node2&#45;&gt;Node5 -->
<g id="edge4_Node000002_Node000005" class="edge">
<title>Node2&#45;&gt;Node5</title>
<g id="a_edge4_Node000002_Node000005"><a xlink:title=" ">
<path fill="none" stroke="#63b8ff" d="M298.81,-136.12C305.42,-133.82 311.88,-131.02 317.75,-127.61 337.86,-115.92 333.94,-101.81 353.75,-89.61 356.18,-88.11 358.74,-86.72 361.38,-85.44"/>
<polygon fill="#63b8ff" stroke="#63b8ff" points="362.62,-88.71 370.45,-81.58 359.88,-82.27 362.62,-88.71"/>
</a>
</g>
</g>
<!-- Node4 -->
<g id="Node000004" class="node">
<title>Node4</title>
<g id="a_Node000004"><a xlink:href="class_lo_ra_class.html#a3a0c0649c595b1176b5fb1ae41210ee3" target="_top" xlink:title=" ">
<polygon fill="white" stroke="#666666" points="650.5,-99.61 518.25,-99.61 518.25,-79.61 650.5,-79.61 650.5,-99.61"/>
<text text-anchor="middle" x="584.38" y="-86.11" font-family="Helvetica,sans-Serif" font-size="10.00">LoRaClass::singleTransfer</text>
</a>
</g>
</g>
<!-- Node3&#45;&gt;Node4 -->
<g id="edge3_Node000003_Node000004" class="edge">
<title>Node3&#45;&gt;Node4</title>
<g id="a_edge3_Node000003_Node000004"><a xlink:title=" ">
<path fill="none" stroke="#63b8ff" d="M481.61,-101.37C489.78,-100.43 498.23,-99.45 506.6,-98.48"/>
<polygon fill="#63b8ff" stroke="#63b8ff" points="506.9,-101.97 516.43,-97.35 506.09,-95.02 506.9,-101.97"/>
</a>
</g>
</g>
<!-- Node5&#45;&gt;Node4 -->
<g id="edge5_Node000005_Node000004" class="edge">
<title>Node5&#45;&gt;Node4</title>
<g id="a_edge5_Node000005_Node000004"><a xlink:title=" ">
<path fill="none" stroke="#63b8ff" d="M482.55,-77.95C490.41,-78.86 498.51,-79.8 506.54,-80.73"/>
<polygon fill="#63b8ff" stroke="#63b8ff" points="505.98,-84.19 516.32,-81.86 506.78,-77.23 505.98,-84.19"/>
</a>
</g>
</g>
<!-- Node6&#45;&gt;Node5 -->
<g id="edge7_Node000006_Node000005" class="edge">
<title>Node6&#45;&gt;Node5</title>
<g id="a_edge7_Node000006_Node000005"><a xlink:title=" ">
<path fill="none" stroke="#63b8ff" d="M282.59,-41.71C304.99,-46.53 332.88,-52.52 357.43,-57.8"/>
<polygon fill="#63b8ff" stroke="#63b8ff" points="356.46,-61.17 366.97,-59.85 357.93,-54.33 356.46,-61.17"/>
</a>
</g>
</g>
<!-- Node7&#45;&gt;Node3 -->
<g id="edge9_Node000007_Node000003" class="edge">
<title>Node7&#45;&gt;Node3</title>
<g id="a_edge9_Node000007_Node000003"><a xlink:title=" ">
<path fill="none" stroke="#63b8ff" d="M318.03,-108.61C326.44,-108.61 334.97,-108.61 343.33,-108.61"/>
<polygon fill="#63b8ff" stroke="#63b8ff" points="343.06,-112.11 353.06,-108.61 343.06,-105.11 343.06,-112.11"/>
</a>
</g>
</g>
<!-- Node7&#45;&gt;Node5 -->
<g id="edge10_Node000007_Node000005" class="edge">
<title>Node7&#45;&gt;Node5</title>
<g id="a_edge10_Node000007_Node000005"><a xlink:title=" ">
<path fill="none" stroke="#63b8ff" d="M289.02,-98.12C310.17,-93.58 335.14,-88.21 357.38,-83.43"/>
<polygon fill="#63b8ff" stroke="#63b8ff" points="357.87,-86.9 366.91,-81.38 356.4,-80.06 357.87,-86.9"/>
</a>
</g>
</g>
<!-- Node8&#45;&gt;Node3 -->
<g id="edge12_Node000008_Node000003" class="edge">
<title>Node8&#45;&gt;Node3</title>
<g id="a_edge12_Node000008_Node000003"><a xlink:title=" ">
<path fill="none" stroke="#63b8ff" d="M289.02,-81.09C310.17,-85.64 335.14,-91.01 357.38,-95.79"/>
<polygon fill="#63b8ff" stroke="#63b8ff" points="356.4,-99.16 366.91,-97.84 357.87,-92.32 356.4,-99.16"/>
</a>
</g>
</g>
<!-- Node8&#45;&gt;Node5 -->
<g id="edge13_Node000008_Node000005" class="edge">
<title>Node8&#45;&gt;Node5</title>
<g id="a_edge13_Node000008_Node000005"><a xlink:title=" ">
<path fill="none" stroke="#63b8ff" d="M305.81,-70.61C317.58,-70.61 329.92,-70.61 341.93,-70.61"/>
<polygon fill="#63b8ff" stroke="#63b8ff" points="341.79,-74.11 351.79,-70.61 341.79,-67.11 341.79,-74.11"/>
</a>
</g>
</g>
</g>
</svg>
