<?xml version="1.0" encoding="UTF-8" standalone="no"?>
<!DOCTYPE svg PUBLIC "-//W3C//DTD SVG 1.1//EN"
 "http://www.w3.org/Graphics/SVG/1.1/DTD/svg11.dtd">
<!-- Generated by graphviz version 12.2.1 (20241206.2353)
 -->
<!-- Title: INA3221::getShuntVoltage Pages: 1 -->
<svg width="363pt" height="142pt"
 viewBox="0.00 0.00 362.50 142.00" xmlns="http://www.w3.org/2000/svg" xmlns:xlink="http://www.w3.org/1999/xlink">

<svg id="main" version="1.1" xmlns="http://www.w3.org/2000/svg" xmlns:xlink="http://www.w3.org/1999/xlink" xml:space="preserve">

<style type="text/css"><![CDATA[
.node, .edge {opacity: 0.7;}
.node.selected, .edge.selected {opacity: 1;}
.edge:hover path { stroke: red; }
.edge:hover polygon { stroke: red; fill: red; }
]]></style>
<script type="application/ecmascript" xlink:href="svg.min.js"/>
<svg id="graph" class="graph">
<g id="graph0" class="graph" transform="scale(1 1) rotate(0) translate(4 138)">
<title>INA3221::getShuntVoltage</title>
<!-- Node1 -->
<g id="Node000001" class="node">
<title>Node1</title>
<g id="a_Node000001"><a xlink:title=" ">
<polygon fill="#999999" stroke="#666666" points="354.5,-77 223,-77 223,-57 354.5,-57 354.5,-77"/>
<text text-anchor="middle" x="288.75" y="-63.5" font-family="Helvetica,sans-Serif" font-size="10.00">INA3221::getShuntVoltage</text>
</a>
</g>
</g>
<!-- Node2 -->
<g id="Node000002" class="node">
<title>Node2</title>
<g id="a_Node000002"><a xlink:href="class_i_n_a3221.html#ae9398b8af7ddf999150f8e97c44e6b7d" target="_top" xlink:title=" ">
<polygon fill="white" stroke="#666666" points="146.5,-134 40.5,-134 40.5,-114 146.5,-114 146.5,-134"/>
<text text-anchor="middle" x="93.5" y="-120.5" font-family="Helvetica,sans-Serif" font-size="10.00">INA3221::getCurrent</text>
</a>
</g>
</g>
<!-- Node1&#45;&gt;Node2 -->
<g id="edge1_Node000001_Node000002" class="edge">
<title>Node1&#45;&gt;Node2</title>
<g id="a_edge1_Node000001_Node000002"><a xlink:title=" ">
<path fill="none" stroke="#63b8ff" d="M252.64,-81.8C233.49,-89.48 209.22,-98.57 187,-105 174.09,-108.74 159.95,-112.03 146.71,-114.78"/>
<polygon fill="#63b8ff" stroke="#63b8ff" points="253.93,-85.06 261.87,-78.05 251.29,-78.58 253.93,-85.06"/>
</a>
</g>
</g>
<!-- Node3 -->
<g id="Node000003" class="node">
<title>Node3</title>
<g id="a_Node000003"><a xlink:href="class_i_n_a3221.html#a5bc9138cf05584012e3834275231cdb5" target="_top" xlink:title=" ">
<polygon fill="white" stroke="#666666" points="156.62,-96 30.38,-96 30.38,-76 156.62,-76 156.62,-96"/>
<text text-anchor="middle" x="93.5" y="-82.5" font-family="Helvetica,sans-Serif" font-size="10.00">INA3221::getCurrent_mA</text>
</a>
</g>
</g>
<!-- Node1&#45;&gt;Node3 -->
<g id="edge2_Node000001_Node000003" class="edge">
<title>Node1&#45;&gt;Node3</title>
<g id="a_edge2_Node000001_Node000003"><a xlink:title=" ">
<path fill="none" stroke="#63b8ff" d="M211.26,-74.52C193.29,-76.29 174.36,-78.15 157.08,-79.85"/>
<polygon fill="#63b8ff" stroke="#63b8ff" points="211.48,-78.02 221.09,-73.55 210.79,-71.05 211.48,-78.02"/>
</a>
</g>
</g>
<!-- Node4 -->
<g id="Node000004" class="node">
<title>Node4</title>
<g id="a_Node000004"><a xlink:href="class_i_n_a3221.html#a4d6fc129ecefc2b28187ffa0652a1127" target="_top" xlink:title=" ">
<polygon fill="white" stroke="#666666" points="176.88,-58 10.12,-58 10.12,-38 176.88,-38 176.88,-58"/>
<text text-anchor="middle" x="93.5" y="-44.5" font-family="Helvetica,sans-Serif" font-size="10.00">INA3221::getCurrentCompensated</text>
</a>
</g>
</g>
<!-- Node1&#45;&gt;Node4 -->
<g id="edge3_Node000001_Node000004" class="edge">
<title>Node1&#45;&gt;Node4</title>
<g id="a_edge3_Node000001_Node000004"><a xlink:title=" ">
<path fill="none" stroke="#63b8ff" d="M211.49,-59.5C200.23,-58.39 188.58,-57.25 177.2,-56.13"/>
<polygon fill="#63b8ff" stroke="#63b8ff" points="210.79,-62.95 221.09,-60.45 211.48,-55.98 210.79,-62.95"/>
</a>
</g>
</g>
<!-- Node5 -->
<g id="Node000005" class="node">
<title>Node5</title>
<g id="a_Node000005"><a xlink:href="class_i_n_a3221.html#a8156d9fca27f9aadab3d99bec9925c44" target="_top" xlink:title=" ">
<polygon fill="white" stroke="#666666" points="187,-20 0,-20 0,0 187,0 187,-20"/>
<text text-anchor="middle" x="93.5" y="-6.5" font-family="Helvetica,sans-Serif" font-size="10.00">INA3221::getCurrentCompensated_mA</text>
</a>
</g>
</g>
<!-- Node1&#45;&gt;Node5 -->
<g id="edge4_Node000001_Node000005" class="edge">
<title>Node1&#45;&gt;Node5</title>
<g id="a_edge4_Node000001_Node000005"><a xlink:title=" ">
<path fill="none" stroke="#63b8ff" d="M252.64,-52.2C233.49,-44.52 209.22,-35.43 187,-29 175.98,-25.81 164.06,-22.94 152.58,-20.46"/>
<polygon fill="#63b8ff" stroke="#63b8ff" points="251.29,-55.42 261.87,-55.95 253.93,-48.94 251.29,-55.42"/>
</a>
</g>
</g>
</g>
</svg>
</svg>

<style type='text/css'>
<![CDATA[
[data-mouse-over-selected='false'] { opacity: 0.7; }
[data-mouse-over-selected='true']  { opacity: 1.0; }
]]>
</style>
<script type="application/ecmascript"><![CDATA[
document.addEventListener('DOMContentLoaded', (event) => {
  highlightEdges();
  highlightAdjacentNodes();
});
]]></script>
</svg>
