<?xml version="1.0" encoding="UTF-8" standalone="no"?>
<!DOCTYPE svg PUBLIC "-//W3C//DTD SVG 1.1//EN"
 "http://www.w3.org/Graphics/SVG/1.1/DTD/svg11.dtd">
<!-- Generated by graphviz version 12.2.1 (20241206.2353)
 -->
<!-- Title: LoRaClass::writeRegister Pages: 1 -->
<!--zoomable 1093 -->

<svg id="main" version="1.1" xmlns="http://www.w3.org/2000/svg" xmlns:xlink="http://www.w3.org/1999/xlink" xml:space="preserve" onload="init(evt)">

<style type="text/css"><![CDATA[
.node, .edge {opacity: 0.7;}
.node.selected, .edge.selected {opacity: 1;}
.edge:hover path { stroke: red; }
.edge:hover polygon { stroke: red; fill: red; }
]]></style>

<defs>
  <circle id="rim" cx="0" cy="0" r="7"/>
  <circle id="rim2" cx="0" cy="0" r="3.5"/>
  <g id="zoomPlus">
    <use xlink:href="#rim" fill="#404040"><set attributeName="fill" to="#808080" begin="zoomplus.mouseover" end="zoomplus.mouseout"/></use>
    <path d="M-4,0h8M0,-4v8" fill="none" stroke="white" stroke-width="1.5" pointer-events="none"/>
  </g>
  <g id="zoomMin">
    <use xlink:href="#rim" fill="#404040"><set attributeName="fill" to="#808080" begin="zoomminus.mouseover" end="zoomminus.mouseout"/></use>
    <path d="M-4,0h8" fill="none" stroke="white" stroke-width="1.5" pointer-events="none"/>
  </g>
  <g id="arrowUp" transform="translate(30 24)">
    <use xlink:href="#rim"/>
    <path pointer-events="none" fill="none" stroke="white" stroke-width="1.5" d="M0,-3.0v7 M-2.5,-0.5L0,-3.0L2.5,-0.5"/>
  </g>
  <g id="arrowRight" transform="rotate(90) translate(36 -43)">
    <use xlink:href="#rim"/>
    <path pointer-events="none" fill="none" stroke="white" stroke-width="1.5" d="M0,-3.0v7 M-2.5,-0.5L0,-3.0L2.5,-0.5"/>
  </g>
  <g id="arrowDown" transform="rotate(180) translate(-30 -48)">
    <use xlink:href="#rim"/>
    <path pointer-events="none" fill="none" stroke="white" stroke-width="1.5" d="M0,-3.0v7 M-2.5,-0.5L0,-3.0L2.5,-0.5"/>
  </g>
  <g id="arrowLeft" transform="rotate(270) translate(-36 17)">
    <use xlink:href="#rim"/>
    <path pointer-events="none" fill="none" stroke="white" stroke-width="1.5" d="M0,-3.0v7 M-2.5,-0.5L0,-3.0L2.5,-0.5"/>
  </g>
  <g id="resetDef">
    <use xlink:href="#rim2" fill="#404040"><set attributeName="fill" to="#808080" begin="reset.mouseover" end="reset.mouseout"/></use>
  </g>
</defs>
<script type="application/ecmascript">
var viewWidth = 653;
var viewHeight = 1093;
var sectionId = 'dynsection-65';
</script>
<script type="application/ecmascript" xlink:href="svg.min.js"/>
<svg id="graph" class="graph">
<g id="viewport">
<title>LoRaClass::writeRegister</title>
<!-- Node1 -->
<g id="Node000001" class="node">
<title>Node1</title>
<g id="a_Node000001"><a xlink:title=" ">
<polygon fill="#999999" stroke="#666666" points="644.5,-536 516,-536 516,-516 644.5,-516 644.5,-536"/>
<text text-anchor="middle" x="580.25" y="-522.5" font-family="Helvetica,sans-Serif" font-size="10.00">LoRaClass::writeRegister</text>
</a>
</g>
</g>
<!-- Node2 -->
<g id="Node000002" class="node">
<title>Node2</title>
<g id="a_Node000002"><a xlink:href="class_lo_ra_class.html#a3c5b6ee156c14f20238f46292c116d96" target="_top" xlink:title=" ">
<polygon fill="white" stroke="#666666" points="94,-982 0,-982 0,-962 94,-962 94,-982"/>
<text text-anchor="middle" x="47" y="-968.5" font-family="Helvetica,sans-Serif" font-size="10.00">LoRaClass::begin</text>
</a>
</g>
</g>
<!-- Node1&#45;&gt;Node2 -->
<g id="edge1_Node000001_Node000002" class="edge">
<title>Node1&#45;&gt;Node2</title>
<g id="a_edge1_Node000001_Node000002"><a xlink:title=" ">
<path fill="none" stroke="#63b8ff" d="M577.97,-547.5C572.55,-630.29 548.55,-926.63 480,-984 420.34,-1033.93 207.29,-999.84 130,-991 115.05,-989.29 98.85,-985.88 84.83,-982.42"/>
<polygon fill="#63b8ff" stroke="#63b8ff" points="581.45,-547.83 578.59,-537.63 574.47,-547.39 581.45,-547.83"/>
</a>
</g>
</g>
<!-- Node3 -->
<g id="Node000003" class="node">
<title>Node3</title>
<g id="a_Node000003"><a xlink:href="class_lo_ra_class.html#a22d4ee8aaded004bb91b70ee15c57e2d" target="_top" xlink:title=" ">
<polygon fill="white" stroke="#666666" points="270.88,-754 146.12,-754 146.12,-734 270.88,-734 270.88,-754"/>
<text text-anchor="middle" x="208.5" y="-740.5" font-family="Helvetica,sans-Serif" font-size="10.00">LoRaClass::beginPacket</text>
</a>
</g>
</g>
<!-- Node1&#45;&gt;Node3 -->
<g id="edge2_Node000001_Node000003" class="edge">
<title>Node1&#45;&gt;Node3</title>
<g id="a_edge2_Node000001_Node000003"><a xlink:title=" ">
<path fill="none" stroke="#63b8ff" d="M577.78,-547.55C573.18,-596.05 554.49,-713.44 480,-763 402.4,-814.64 283.02,-775.03 232.91,-754.44"/>
<polygon fill="#63b8ff" stroke="#63b8ff" points="581.25,-548.05 578.58,-537.8 574.28,-547.48 581.25,-548.05"/>
</a>
</g>
</g>
<!-- Node4 -->
<g id="Node000004" class="node">
<title>Node4</title>
<g id="a_Node000004"><a xlink:href="class_lo_ra_class.html#aa5cd2912f8561be3072b5306390a73e6" target="_top" xlink:title=" ">
<polygon fill="white" stroke="#666666" points="470.25,-564 332.75,-564 332.75,-532 470.25,-532 470.25,-564"/>
<text text-anchor="start" x="340.75" y="-550.5" font-family="Helvetica,sans-Serif" font-size="10.00">LoRaClass::channelActivity</text>
<text text-anchor="middle" x="401.5" y="-538.5" font-family="Helvetica,sans-Serif" font-size="10.00">Detection</text>
</a>
</g>
</g>
<!-- Node1&#45;&gt;Node4 -->
<g id="edge3_Node000001_Node000004" class="edge">
<title>Node1&#45;&gt;Node4</title>
<g id="a_edge3_Node000001_Node000004"><a xlink:title=" ">
<path fill="none" stroke="#63b8ff" d="M504.71,-535.28C493.34,-536.69 481.67,-538.15 470.45,-539.54"/>
<polygon fill="#63b8ff" stroke="#63b8ff" points="504.95,-538.78 514.44,-534.07 504.08,-531.83 504.95,-538.78"/>
</a>
</g>
</g>
<!-- Node5 -->
<g id="Node000005" class="node">
<title>Node5</title>
<g id="a_Node000005"><a xlink:href="class_lo_ra_class.html#a6dc289bf94ecbbaddb406e863533ab45" target="_top" xlink:title=" ">
<polygon fill="white" stroke="#666666" points="460.12,-514 342.88,-514 342.88,-494 460.12,-494 460.12,-514"/>
<text text-anchor="middle" x="401.5" y="-500.5" font-family="Helvetica,sans-Serif" font-size="10.00">LoRaClass::disableCrc</text>
</a>
</g>
</g>
<!-- Node1&#45;&gt;Node5 -->
<g id="edge4_Node000001_Node000005" class="edge">
<title>Node1&#45;&gt;Node5</title>
<g id="a_edge4_Node000001_Node000005"><a xlink:title=" ">
<path fill="none" stroke="#63b8ff" d="M504.73,-516.72C489.9,-514.88 474.54,-512.97 460.37,-511.2"/>
<polygon fill="#63b8ff" stroke="#63b8ff" points="504.08,-520.17 514.44,-517.93 504.95,-513.22 504.08,-520.17"/>
</a>
</g>
</g>
<!-- Node7 -->
<g id="Node000007" class="node">
<title>Node7</title>
<g id="a_Node000007"><a xlink:href="class_lo_ra_class.html#ad1c288b5a9c4163682d5ebaf8b1d31e5" target="_top" xlink:title=" ">
<polygon fill="white" stroke="#666666" points="469.88,-476 333.12,-476 333.12,-456 469.88,-456 469.88,-476"/>
<text text-anchor="middle" x="401.5" y="-462.5" font-family="Helvetica,sans-Serif" font-size="10.00">LoRaClass::disableInvertIQ</text>
</a>
</g>
</g>
<!-- Node1&#45;&gt;Node7 -->
<g id="edge6_Node000001_Node000007" class="edge">
<title>Node1&#45;&gt;Node7</title>
<g id="a_edge6_Node000001_Node000007"><a xlink:title=" ">
<path fill="none" stroke="#63b8ff" d="M546.48,-511C527.36,-502.61 502.62,-492.4 480,-485 470.39,-481.86 459.96,-478.96 449.95,-476.43"/>
<polygon fill="#63b8ff" stroke="#63b8ff" points="544.81,-514.08 555.37,-514.94 547.65,-507.69 544.81,-514.08"/>
</a>
</g>
</g>
<!-- Node8 -->
<g id="Node000008" class="node">
<title>Node8</title>
<g id="a_Node000008"><a xlink:href="class_lo_ra_class.html#aee4f452ce8b4ff6d8e7c30aff7e77978" target="_top" xlink:title=" ">
<polygon fill="white" stroke="#666666" points="459,-438 344,-438 344,-418 459,-418 459,-438"/>
<text text-anchor="middle" x="401.5" y="-424.5" font-family="Helvetica,sans-Serif" font-size="10.00">LoRaClass::enableCrc</text>
</a>
</g>
</g>
<!-- Node1&#45;&gt;Node8 -->
<g id="edge7_Node000001_Node000008" class="edge">
<title>Node1&#45;&gt;Node8</title>
<g id="a_edge7_Node000001_Node000008"><a xlink:title=" ">
<path fill="none" stroke="#63b8ff" d="M561.14,-507.5C542.43,-489.45 511.6,-462.51 480,-447 473.04,-443.58 465.41,-440.75 457.75,-438.41"/>
<polygon fill="#63b8ff" stroke="#63b8ff" points="558.64,-509.96 568.22,-514.5 563.56,-504.98 558.64,-509.96"/>
</a>
</g>
</g>
<!-- Node10 -->
<g id="Node000010" class="node">
<title>Node10</title>
<g id="a_Node000010"><a xlink:href="class_lo_ra_class.html#a97b3af3bb24f1be3300b74e3e3dc05bb" target="_top" xlink:title=" ">
<polygon fill="white" stroke="#666666" points="468.75,-400 334.25,-400 334.25,-380 468.75,-380 468.75,-400"/>
<text text-anchor="middle" x="401.5" y="-386.5" font-family="Helvetica,sans-Serif" font-size="10.00">LoRaClass::enableInvertIQ</text>
</a>
</g>
</g>
<!-- Node1&#45;&gt;Node10 -->
<g id="edge9_Node000001_Node000010" class="edge">
<title>Node1&#45;&gt;Node10</title>
<g id="a_edge9_Node000001_Node000010"><a xlink:title=" ">
<path fill="none" stroke="#63b8ff" d="M567.85,-505.99C551.75,-479.6 519.82,-433.63 480,-409 474.46,-405.58 468.35,-402.77 462.05,-400.47"/>
<polygon fill="#63b8ff" stroke="#63b8ff" points="564.71,-507.55 572.81,-514.37 570.73,-503.98 564.71,-507.55"/>
</a>
</g>
</g>
<!-- Node11 -->
<g id="Node000011" class="node">
<title>Node11</title>
<g id="a_Node000011"><a xlink:href="class_lo_ra_class.html#a6ad8fad2fa5b9c04ca8a0e0184673685" target="_top" xlink:title=" ">
<polygon fill="white" stroke="#666666" points="460.12,-362 342.88,-362 342.88,-342 460.12,-342 460.12,-362"/>
<text text-anchor="middle" x="401.5" y="-348.5" font-family="Helvetica,sans-Serif" font-size="10.00">LoRaClass::endPacket</text>
</a>
</g>
</g>
<!-- Node1&#45;&gt;Node11 -->
<g id="edge10_Node000001_Node000011" class="edge">
<title>Node1&#45;&gt;Node11</title>
<g id="a_edge10_Node000001_Node000011"><a xlink:title=" ">
<path fill="none" stroke="#63b8ff" d="M571.9,-505.36C558.85,-471.78 528.36,-405.59 480,-371 474.14,-366.81 467.46,-363.54 460.54,-360.98"/>
<polygon fill="#63b8ff" stroke="#63b8ff" points="568.49,-506.21 575.26,-514.36 575.04,-503.76 568.49,-506.21"/>
</a>
</g>
</g>
<!-- Node12 -->
<g id="Node000012" class="node">
<title>Node12</title>
<g id="a_Node000012"><a xlink:href="class_lo_ra_class.html#a691417e927af503dacaa797a1bb9527f" target="_top" xlink:title=" ">
<polygon fill="white" stroke="#666666" points="480,-640 323,-640 323,-620 480,-620 480,-640"/>
<text text-anchor="middle" x="401.5" y="-626.5" font-family="Helvetica,sans-Serif" font-size="10.00">LoRaClass::explicitHeaderMode</text>
</a>
</g>
</g>
<!-- Node1&#45;&gt;Node12 -->
<g id="edge11_Node000001_Node000012" class="edge">
<title>Node1&#45;&gt;Node12</title>
<g id="a_edge11_Node000001_Node000012"><a xlink:title=" ">
<path fill="none" stroke="#63b8ff" d="M560.98,-544.34C542.15,-562.32 511.22,-589.37 480,-606 469.56,-611.56 457.62,-616.06 446.3,-619.59"/>
<polygon fill="#63b8ff" stroke="#63b8ff" points="563.39,-546.88 568.11,-537.39 558.51,-541.86 563.39,-546.88"/>
</a>
</g>
</g>
<!-- Node13 -->
<g id="Node000013" class="node">
<title>Node13</title>
<g id="a_Node000013"><a xlink:href="class_lo_ra_class.html#a03104c1301f072b6a259bf6d18161069" target="_top" xlink:title=" ">
<polygon fill="white" stroke="#666666" points="271.25,-697 145.75,-697 145.75,-677 271.25,-677 271.25,-697"/>
<text text-anchor="middle" x="208.5" y="-683.5" font-family="Helvetica,sans-Serif" font-size="10.00">LoRaClass::parsePacket</text>
</a>
</g>
</g>
<!-- Node1&#45;&gt;Node13 -->
<g id="edge27_Node000001_Node000013" class="edge">
<title>Node1&#45;&gt;Node13</title>
<g id="a_edge27_Node000001_Node000013"><a xlink:title=" ">
<path fill="none" stroke="#63b8ff" d="M569.14,-546.43C553.99,-574.67 522.57,-624.87 480,-649 445.45,-668.59 340.31,-678.81 271.74,-683.54"/>
<polygon fill="#63b8ff" stroke="#63b8ff" points="572.12,-548.3 573.61,-537.81 565.9,-545.08 572.12,-548.3"/>
</a>
</g>
</g>
<!-- Node14 -->
<g id="Node000014" class="node">
<title>Node14</title>
<g id="a_Node000014"><a xlink:href="class_lo_ra_class.html#a3a19d8829af07604d570f4085a4eec45" target="_top" xlink:title=" ">
<polygon fill="white" stroke="#666666" points="259.62,-640 157.38,-640 157.38,-620 259.62,-620 259.62,-640"/>
<text text-anchor="middle" x="208.5" y="-626.5" font-family="Helvetica,sans-Serif" font-size="10.00">LoRaClass::receive</text>
</a>
</g>
</g>
<!-- Node1&#45;&gt;Node14 -->
<g id="edge29_Node000001_Node000014" class="edge">
<title>Node1&#45;&gt;Node14</title>
<g id="a_edge29_Node000001_Node000014"><a xlink:title=" ">
<path fill="none" stroke="#63b8ff" d="M550.76,-541.69C531.31,-551.85 504.7,-564.68 480,-573 439.86,-586.52 326.49,-608.49 259.95,-620.84"/>
<polygon fill="#63b8ff" stroke="#63b8ff" points="552.25,-544.86 559.43,-537.08 548.96,-538.68 552.25,-544.86"/>
</a>
</g>
</g>
<!-- Node15 -->
<g id="Node000015" class="node">
<title>Node15</title>
<g id="a_Node000015"><a xlink:href="class_lo_ra_class.html#a7e5a2b9f116b3e1d2bc38b3a796ee147" target="_top" xlink:title=" ">
<polygon fill="white" stroke="#666666" points="471.38,-324 331.62,-324 331.62,-304 471.38,-304 471.38,-324"/>
<text text-anchor="middle" x="401.5" y="-310.5" font-family="Helvetica,sans-Serif" font-size="10.00">LoRaClass::handleDio0Rise</text>
</a>
</g>
</g>
<!-- Node1&#45;&gt;Node15 -->
<g id="edge15_Node000001_Node000015" class="edge">
<title>Node1&#45;&gt;Node15</title>
<g id="a_edge15_Node000001_Node000015"><a xlink:title=" ">
<path fill="none" stroke="#63b8ff" d="M574.49,-504.63C564.4,-464.52 536.97,-377.96 480,-333 475.65,-329.57 470.77,-326.74 465.62,-324.42"/>
<polygon fill="#63b8ff" stroke="#63b8ff" points="571.05,-505.31 576.77,-514.23 577.86,-503.69 571.05,-505.31"/>
</a>
</g>
</g>
<!-- Node16 -->
<g id="Node000016" class="node">
<title>Node16</title>
<g id="a_Node000016"><a xlink:href="class_lo_ra_class.html#ab0397413dc995dedb08f2c560e79b01c" target="_top" xlink:title=" ">
<polygon fill="white" stroke="#666666" points="444.38,-830 358.62,-830 358.62,-810 444.38,-810 444.38,-830"/>
<text text-anchor="middle" x="401.5" y="-816.5" font-family="Helvetica,sans-Serif" font-size="10.00">LoRaClass::idle</text>
</a>
</g>
</g>
<!-- Node1&#45;&gt;Node16 -->
<g id="edge16_Node000001_Node000016" class="edge">
<title>Node1&#45;&gt;Node16</title>
<g id="a_edge16_Node000001_Node000016"><a xlink:title=" ">
<path fill="none" stroke="#63b8ff" d="M577.63,-547.76C572.65,-598.69 553.14,-726.57 480,-796 470.4,-805.12 457.4,-810.77 444.79,-814.28"/>
<polygon fill="#63b8ff" stroke="#63b8ff" points="581.11,-548.07 578.49,-537.81 574.14,-547.47 581.11,-548.07"/>
</a>
</g>
</g>
<!-- Node17 -->
<g id="Node000017" class="node">
<title>Node17</title>
<g id="a_Node000017"><a xlink:href="class_lo_ra_class.html#aae3ff6ac6b8e2150f3fa5975f391738b" target="_top" xlink:title=" ">
<polygon fill="white" stroke="#666666" points="260.75,-868 156.25,-868 156.25,-848 260.75,-848 260.75,-868"/>
<text text-anchor="middle" x="208.5" y="-854.5" font-family="Helvetica,sans-Serif" font-size="10.00">LoRaClass::setGain</text>
</a>
</g>
</g>
<!-- Node1&#45;&gt;Node17 -->
<g id="edge33_Node000001_Node000017" class="edge">
<title>Node1&#45;&gt;Node17</title>
<g id="a_edge33_Node000001_Node000017"><a xlink:title=" ">
<path fill="none" stroke="#63b8ff" d="M579.92,-547.72C580.41,-605.92 572.86,-765.89 480,-839 447.22,-864.81 330.16,-863.99 261.24,-861.04"/>
<polygon fill="#63b8ff" stroke="#63b8ff" points="583.42,-547.79 579.74,-537.86 576.43,-547.92 583.42,-547.79"/>
</a>
</g>
</g>
<!-- Node18 -->
<g id="Node000018" class="node">
<title>Node18</title>
<g id="a_Node000018"><a xlink:href="class_lo_ra_class.html#ad06e31c18f7029e231d837a7eca7558e" target="_top" xlink:title=" ">
<polygon fill="white" stroke="#666666" points="480,-716 323,-716 323,-696 480,-696 480,-716"/>
<text text-anchor="middle" x="401.5" y="-702.5" font-family="Helvetica,sans-Serif" font-size="10.00">LoRaClass::implicitHeaderMode</text>
</a>
</g>
</g>
<!-- Node1&#45;&gt;Node18 -->
<g id="edge21_Node000001_Node000018" class="edge">
<title>Node1&#45;&gt;Node18</title>
<g id="a_edge21_Node000001_Node000018"><a xlink:title=" ">
<path fill="none" stroke="#63b8ff" d="M571.7,-546.45C558.36,-579.79 527.47,-645.75 480,-682 472.39,-687.81 463.35,-692.23 454.19,-695.59"/>
<polygon fill="#63b8ff" stroke="#63b8ff" points="574.81,-548.12 575.14,-537.53 568.28,-545.6 574.81,-548.12"/>
</a>
</g>
</g>
<!-- Node19 -->
<g id="Node000019" class="node">
<title>Node19</title>
<g id="a_Node000019"><a xlink:href="class_lo_ra_class.html#a3b9ea4a954095979f6e3ae037d8c3d5e" target="_top" xlink:title=" ">
<polygon fill="white" stroke="#666666" points="467.62,-754 335.38,-754 335.38,-734 467.62,-734 467.62,-754"/>
<text text-anchor="middle" x="401.5" y="-740.5" font-family="Helvetica,sans-Serif" font-size="10.00">LoRaClass::isTransmitting</text>
</a>
</g>
</g>
<!-- Node1&#45;&gt;Node19 -->
<g id="edge25_Node000001_Node000019" class="edge">
<title>Node1&#45;&gt;Node19</title>
<g id="a_edge25_Node000001_Node000019"><a xlink:title=" ">
<path fill="none" stroke="#63b8ff" d="M574.89,-547.17C565.32,-588.13 538.49,-678.25 480,-725 475.67,-728.46 470.8,-731.3 465.67,-733.64"/>
<polygon fill="#63b8ff" stroke="#63b8ff" points="578.26,-548.14 577,-537.62 571.43,-546.64 578.26,-548.14"/>
</a>
</g>
</g>
<!-- Node20 -->
<g id="Node000020" class="node">
<title>Node20</title>
<g id="a_Node000020"><a xlink:href="class_lo_ra_class.html#aef2cd89f65d2833bcfa6e6d1134982cd" target="_top" xlink:title=" ">
<polygon fill="white" stroke="#666666" points="447.38,-286 355.62,-286 355.62,-266 447.38,-266 447.38,-286"/>
<text text-anchor="middle" x="401.5" y="-272.5" font-family="Helvetica,sans-Serif" font-size="10.00">LoRaClass::peek</text>
</a>
</g>
</g>
<!-- Node1&#45;&gt;Node20 -->
<g id="edge28_Node000001_Node000020" class="edge">
<title>Node1&#45;&gt;Node20</title>
<g id="a_edge28_Node000001_Node000020"><a xlink:title=" ">
<path fill="none" stroke="#63b8ff" d="M576.47,-504.65C569.34,-458.88 546.07,-350.95 480,-295 470.91,-287.3 459.18,-282.63 447.61,-279.82"/>
<polygon fill="#63b8ff" stroke="#63b8ff" points="572.97,-504.91 577.86,-514.31 579.9,-503.92 572.97,-504.91"/>
</a>
</g>
</g>
<!-- Node21 -->
<g id="Node000021" class="node">
<title>Node21</title>
<g id="a_Node000021"><a xlink:href="class_lo_ra_class.html#a178a3fdb566dfcc4377e783af868d255" target="_top" xlink:title=" ">
<polygon fill="white" stroke="#666666" points="472.12,-248 330.88,-248 330.88,-228 472.12,-228 472.12,-248"/>
<text text-anchor="middle" x="401.5" y="-234.5" font-family="Helvetica,sans-Serif" font-size="10.00">LoRaClass::setCodingRate4</text>
</a>
</g>
</g>
<!-- Node1&#45;&gt;Node21 -->
<g id="edge30_Node000001_Node000021" class="edge">
<title>Node1&#45;&gt;Node21</title>
<g id="a_edge30_Node000001_Node000021"><a xlink:title=" ">
<path fill="none" stroke="#63b8ff" d="M577.9,-504.35C573.5,-453.19 555.14,-324.09 480,-257 476.18,-253.59 471.84,-250.76 467.22,-248.43"/>
<polygon fill="#63b8ff" stroke="#63b8ff" points="574.39,-504.37 578.63,-514.08 581.37,-503.85 574.39,-504.37"/>
</a>
</g>
</g>
<!-- Node22 -->
<g id="Node000022" class="node">
<title>Node22</title>
<g id="a_Node000022"><a xlink:href="class_lo_ra_class.html#ab754b002b04a9761ff4bee201b9ff560" target="_top" xlink:title=" ">
<polygon fill="white" stroke="#666666" points="273.5,-982 143.5,-982 143.5,-962 273.5,-962 273.5,-982"/>
<text text-anchor="middle" x="208.5" y="-968.5" font-family="Helvetica,sans-Serif" font-size="10.00">LoRaClass::setFrequency</text>
</a>
</g>
</g>
<!-- Node1&#45;&gt;Node22 -->
<g id="edge31_Node000001_Node000022" class="edge">
<title>Node1&#45;&gt;Node22</title>
<g id="a_edge31_Node000001_Node000022"><a xlink:title=" ">
<path fill="none" stroke="#63b8ff" d="M577.44,-547.78C570.41,-626.62 542.18,-895.28 480,-949 417.05,-1003.39 312.32,-993.71 253.35,-982.46"/>
<polygon fill="#63b8ff" stroke="#63b8ff" points="580.91,-548.22 578.29,-537.96 573.94,-547.62 580.91,-548.22"/>
</a>
</g>
</g>
<!-- Node23 -->
<g id="Node000023" class="node">
<title>Node23</title>
<g id="a_Node000023"><a xlink:href="class_lo_ra_class.html#aa299808b2da9819eded073c84e1b219e" target="_top" xlink:title=" ">
<polygon fill="white" stroke="#666666" points="460.88,-172 342.12,-172 342.12,-152 460.88,-152 460.88,-172"/>
<text text-anchor="middle" x="401.5" y="-158.5" font-family="Helvetica,sans-Serif" font-size="10.00">LoRaClass::setLdoFlag</text>
</a>
</g>
</g>
<!-- Node1&#45;&gt;Node23 -->
<g id="edge34_Node000001_Node000023" class="edge">
<title>Node1&#45;&gt;Node23</title>
<g id="a_edge34_Node000001_Node000023"><a xlink:title=" ">
<path fill="none" stroke="#63b8ff" d="M579.55,-504.43C579.18,-445 569.8,-277.27 480,-186 474.27,-180.18 467.16,-175.76 459.59,-172.41"/>
<polygon fill="#63b8ff" stroke="#63b8ff" points="576.05,-504.16 579.52,-514.18 583.05,-504.19 576.05,-504.16"/>
</a>
</g>
</g>
<!-- Node24 -->
<g id="Node000024" class="node">
<title>Node24</title>
<g id="a_Node000024"><a xlink:href="class_lo_ra_class.html#ad4d841d74015f7fc1139ed0ad33dc4c2" target="_top" xlink:title=" ">
<polygon fill="white" stroke="#666666" points="287,-210 130,-210 130,-190 287,-190 287,-210"/>
<text text-anchor="middle" x="208.5" y="-196.5" font-family="Helvetica,sans-Serif" font-size="10.00">LoRaClass::setSignalBandwidth</text>
</a>
</g>
</g>
<!-- Node1&#45;&gt;Node24 -->
<g id="edge41_Node000001_Node000024" class="edge">
<title>Node1&#45;&gt;Node24</title>
<g id="a_edge41_Node000001_Node000024"><a xlink:title=" ">
<path fill="none" stroke="#63b8ff" d="M579.77,-504.3C579.83,-446.86 571.24,-290.42 480,-219 450.99,-196.29 356.36,-194.25 287.18,-196.09"/>
<polygon fill="#63b8ff" stroke="#63b8ff" points="576.27,-504 579.66,-514.04 583.27,-504.08 576.27,-504"/>
</a>
</g>
</g>
<!-- Node25 -->
<g id="Node000025" class="node">
<title>Node25</title>
<g id="a_Node000025"><a xlink:href="class_lo_ra_class.html#aff3deaecc03da514af3a05e5e0c38e69" target="_top" xlink:title=" ">
<polygon fill="white" stroke="#666666" points="286.25,-153 130.75,-153 130.75,-133 286.25,-133 286.25,-153"/>
<text text-anchor="middle" x="208.5" y="-139.5" font-family="Helvetica,sans-Serif" font-size="10.00">LoRaClass::setSpreadingFactor</text>
</a>
</g>
</g>
<!-- Node1&#45;&gt;Node25 -->
<g id="edge42_Node000001_Node000025" class="edge">
<title>Node1&#45;&gt;Node25</title>
<g id="a_edge42_Node000001_Node000025"><a xlink:title=" ">
<path fill="none" stroke="#63b8ff" d="M577.09,-504.69C569.12,-430.92 538.8,-188.5 480,-143 408.88,-87.96 292.8,-115.26 238.82,-132.52"/>
<polygon fill="#63b8ff" stroke="#63b8ff" points="573.56,-504.64 578.09,-514.22 580.53,-503.91 573.56,-504.64"/>
</a>
</g>
</g>
<!-- Node26 -->
<g id="Node000026" class="node">
<title>Node26</title>
<g id="a_Node000026"><a xlink:href="class_lo_ra_class.html#ac103b2909b8eb353b28b7982251881a3" target="_top" xlink:title=" ">
<polygon fill="white" stroke="#666666" points="454.5,-906 348.5,-906 348.5,-886 454.5,-886 454.5,-906"/>
<text text-anchor="middle" x="401.5" y="-892.5" font-family="Helvetica,sans-Serif" font-size="10.00">LoRaClass::setOCP</text>
</a>
</g>
</g>
<!-- Node1&#45;&gt;Node26 -->
<g id="edge37_Node000001_Node000026" class="edge">
<title>Node1&#45;&gt;Node26</title>
<g id="a_edge37_Node000001_Node000026"><a xlink:title=" ">
<path fill="none" stroke="#63b8ff" d="M579.68,-547.94C579.64,-608.4 571.04,-779.03 480,-872 473.1,-879.04 464.18,-884.03 454.86,-887.56"/>
<polygon fill="#63b8ff" stroke="#63b8ff" points="583.18,-547.97 579.6,-538 576.18,-548.03 583.18,-547.97"/>
</a>
</g>
</g>
<!-- Node27 -->
<g id="Node000027" class="node">
<title>Node27</title>
<g id="a_Node000027"><a xlink:href="class_lo_ra_class.html#ae113ad79caf2255287433de45b0e5b5e" target="_top" xlink:title=" ">
<polygon fill="white" stroke="#666666" points="270.12,-944 146.88,-944 146.88,-924 270.12,-924 270.12,-944"/>
<text text-anchor="middle" x="208.5" y="-930.5" font-family="Helvetica,sans-Serif" font-size="10.00">LoRaClass::setTxPower</text>
</a>
</g>
</g>
<!-- Node1&#45;&gt;Node27 -->
<g id="edge44_Node000001_Node000027" class="edge">
<title>Node1&#45;&gt;Node27</title>
<g id="a_edge44_Node000001_Node000027"><a xlink:title=" ">
<path fill="none" stroke="#63b8ff" d="M577.02,-547.5C568.85,-621.91 537.92,-866.66 480,-915 415.13,-969.15 308.24,-956.71 250.15,-944.43"/>
<polygon fill="#63b8ff" stroke="#63b8ff" points="580.47,-548.18 578.05,-537.87 573.51,-547.44 580.47,-548.18"/>
</a>
</g>
</g>
<!-- Node28 -->
<g id="Node000028" class="node">
<title>Node28</title>
<g id="a_Node000028"><a xlink:href="class_lo_ra_class.html#a2e9ead473d6afc40aafa280806052ffc" target="_top" xlink:title=" ">
<polygon fill="white" stroke="#666666" points="478.88,-96 324.12,-96 324.12,-76 478.88,-76 478.88,-96"/>
<text text-anchor="middle" x="401.5" y="-82.5" font-family="Helvetica,sans-Serif" font-size="10.00">LoRaClass::setPreambleLength</text>
</a>
</g>
</g>
<!-- Node1&#45;&gt;Node28 -->
<g id="edge40_Node000001_Node000028" class="edge">
<title>Node1&#45;&gt;Node28</title>
<g id="a_edge40_Node000001_Node000028"><a xlink:title=" ">
<path fill="none" stroke="#63b8ff" d="M576.92,-504.5C568.21,-427.77 535.15,-168.92 480,-110 474.51,-104.14 467.63,-99.7 460.24,-96.33"/>
<polygon fill="#63b8ff" stroke="#63b8ff" points="573.4,-504.49 577.98,-514.05 580.36,-503.72 573.4,-504.49"/>
</a>
</g>
</g>
<!-- Node29 -->
<g id="Node000029" class="node">
<title>Node29</title>
<g id="a_Node000029"><a xlink:href="class_lo_ra_class.html#a4e0190dbf43200a959ef38ff910aee2d" target="_top" xlink:title=" ">
<polygon fill="white" stroke="#666666" points="466.12,-58 336.88,-58 336.88,-38 466.12,-38 466.12,-58"/>
<text text-anchor="middle" x="401.5" y="-44.5" font-family="Helvetica,sans-Serif" font-size="10.00">LoRaClass::setSyncWord</text>
</a>
</g>
</g>
<!-- Node1&#45;&gt;Node29 -->
<g id="edge43_Node000001_Node000029" class="edge">
<title>Node1&#45;&gt;Node29</title>
<g id="a_edge43_Node000001_Node000029"><a xlink:title=" ">
<path fill="none" stroke="#63b8ff" d="M577.56,-504.32C570.7,-422.12 542.33,-131.07 480,-67 476.04,-62.93 471.36,-59.67 466.29,-57.08"/>
<polygon fill="#63b8ff" stroke="#63b8ff" points="574.06,-504.46 578.35,-514.15 581.03,-503.9 574.06,-504.46"/>
</a>
</g>
</g>
<!-- Node30 -->
<g id="Node000030" class="node">
<title>Node30</title>
<g id="a_Node000030"><a xlink:href="class_lo_ra_class.html#a24390e2c96490b16ca8733e274164ae0" target="_top" xlink:title=" ">
<polygon fill="white" stroke="#666666" points="448.5,-1058 354.5,-1058 354.5,-1038 448.5,-1038 448.5,-1058"/>
<text text-anchor="middle" x="401.5" y="-1044.5" font-family="Helvetica,sans-Serif" font-size="10.00">LoRaClass::sleep</text>
</a>
</g>
</g>
<!-- Node1&#45;&gt;Node30 -->
<g id="edge45_Node000001_Node000030" class="edge">
<title>Node1&#45;&gt;Node30</title>
<g id="a_edge45_Node000001_Node000030"><a xlink:title=" ">
<path fill="none" stroke="#63b8ff" d="M577.82,-547.71C571.72,-634.02 545.13,-951.75 480,-1024 471.89,-1033 460.48,-1038.66 448.91,-1042.21"/>
<polygon fill="#63b8ff" stroke="#63b8ff" points="581.31,-548.03 578.5,-537.82 574.32,-547.56 581.31,-548.03"/>
</a>
</g>
</g>
<!-- Node32 -->
<g id="Node000032" class="node">
<title>Node32</title>
<g id="a_Node000032"><a xlink:href="class_lo_ra_class.html#a4b251b35d67bd9363dc44b6324cfc69c" target="_top" xlink:title=" ">
<polygon fill="white" stroke="#666666" points="447.38,-20 355.62,-20 355.62,0 447.38,0 447.38,-20"/>
<text text-anchor="middle" x="401.5" y="-6.5" font-family="Helvetica,sans-Serif" font-size="10.00">LoRaClass::write</text>
</a>
</g>
</g>
<!-- Node1&#45;&gt;Node32 -->
<g id="edge48_Node000001_Node000032" class="edge">
<title>Node1&#45;&gt;Node32</title>
<g id="a_edge48_Node000001_Node000032"><a xlink:title=" ">
<path fill="none" stroke="#63b8ff" d="M577.94,-504.22C572.28,-417.65 547.15,-99.12 480,-29 471.47,-20.1 459.51,-15.09 447.53,-12.34"/>
<polygon fill="#63b8ff" stroke="#63b8ff" points="574.44,-504.39 578.56,-514.15 581.43,-503.95 574.44,-504.39"/>
</a>
</g>
</g>
<!-- Node6 -->
<g id="Node000006" class="node">
<title>Node6</title>
<g id="a_Node000006"><a xlink:href="class_lo_ra_class.html#a233f3f02961eb108ba509a8147237028" target="_top" xlink:title=" ">
<polygon fill="white" stroke="#666666" points="257,-514 160,-514 160,-494 257,-494 257,-514"/>
<text text-anchor="middle" x="208.5" y="-500.5" font-family="Helvetica,sans-Serif" font-size="10.00">LoRaClass::noCrc</text>
</a>
</g>
</g>
<!-- Node5&#45;&gt;Node6 -->
<g id="edge5_Node000005_Node000006" class="edge">
<title>Node5&#45;&gt;Node6</title>
<g id="a_edge5_Node000005_Node000006"><a xlink:title=" ">
<path fill="none" stroke="#63b8ff" d="M331.01,-504C306.55,-504 279.63,-504 257.36,-504"/>
<polygon fill="#63b8ff" stroke="#63b8ff" points="330.9,-507.5 340.9,-504 330.9,-500.5 330.9,-507.5"/>
</a>
</g>
</g>
<!-- Node9 -->
<g id="Node000009" class="node">
<title>Node9</title>
<g id="a_Node000009"><a xlink:href="class_lo_ra_class.html#aee33030679f27bb763fb6819f38baa05" target="_top" xlink:title=" ">
<polygon fill="white" stroke="#666666" points="250.62,-438 166.38,-438 166.38,-418 250.62,-418 250.62,-438"/>
<text text-anchor="middle" x="208.5" y="-424.5" font-family="Helvetica,sans-Serif" font-size="10.00">LoRaClass::crc</text>
</a>
</g>
</g>
<!-- Node8&#45;&gt;Node9 -->
<g id="edge8_Node000008_Node000009" class="edge">
<title>Node8&#45;&gt;Node9</title>
<g id="a_edge8_Node000008_Node000009"><a xlink:title=" ">
<path fill="none" stroke="#63b8ff" d="M332.28,-428C305.08,-428 274.66,-428 250.91,-428"/>
<polygon fill="#63b8ff" stroke="#63b8ff" points="332.2,-431.5 342.2,-428 332.2,-424.5 332.2,-431.5"/>
</a>
</g>
</g>
<!-- Node12&#45;&gt;Node3 -->
<g id="edge12_Node000012_Node000003" class="edge">
<title>Node12&#45;&gt;Node3</title>
<g id="a_edge12_Node000012_Node000003"><a xlink:title=" ">
<path fill="none" stroke="#63b8ff" d="M377.09,-647.03C354.55,-663.1 319.21,-687.43 287,-706 269.21,-716.25 248.27,-726.42 232.64,-733.65"/>
<polygon fill="#63b8ff" stroke="#63b8ff" points="378.9,-650.04 384.98,-641.36 374.81,-644.35 378.9,-650.04"/>
</a>
</g>
</g>
<!-- Node12&#45;&gt;Node13 -->
<g id="edge13_Node000012_Node000013" class="edge">
<title>Node12&#45;&gt;Node13</title>
<g id="a_edge13_Node000012_Node000013"><a xlink:title=" ">
<path fill="none" stroke="#63b8ff" d="M354.49,-643.73C320.71,-653.81 275.53,-667.29 244.63,-676.52"/>
<polygon fill="#63b8ff" stroke="#63b8ff" points="355.44,-647.1 364.02,-640.89 353.43,-640.39 355.44,-647.1"/>
</a>
</g>
</g>
<!-- Node12&#45;&gt;Node14 -->
<g id="edge14_Node000012_Node000014" class="edge">
<title>Node12&#45;&gt;Node14</title>
<g id="a_edge14_Node000012_Node000014"><a xlink:title=" ">
<path fill="none" stroke="#63b8ff" d="M311.05,-630C293.47,-630 275.61,-630 259.88,-630"/>
<polygon fill="#63b8ff" stroke="#63b8ff" points="311.02,-633.5 321.02,-630 311.02,-626.5 311.02,-633.5"/>
</a>
</g>
</g>
<!-- Node16&#45;&gt;Node2 -->
<g id="edge17_Node000016_Node000002" class="edge">
<title>Node16&#45;&gt;Node2</title>
<g id="a_edge17_Node000016_Node000002"><a xlink:title=" ">
<path fill="none" stroke="#63b8ff" d="M347.45,-810.25C289.62,-802.51 196.46,-798.78 130,-839 82.42,-867.79 58.46,-935.76 50.8,-961.7"/>
<polygon fill="#63b8ff" stroke="#63b8ff" points="346.64,-813.67 357.03,-811.62 347.63,-806.74 346.64,-813.67"/>
</a>
</g>
</g>
<!-- Node16&#45;&gt;Node3 -->
<g id="edge18_Node000016_Node000003" class="edge">
<title>Node16&#45;&gt;Node3</title>
<g id="a_edge18_Node000016_Node000003"><a xlink:title=" ">
<path fill="none" stroke="#63b8ff" d="M352.6,-806.23C342.73,-803.09 332.46,-799.62 323,-796 289.8,-783.31 252.55,-765.54 230.07,-754.4"/>
<polygon fill="#63b8ff" stroke="#63b8ff" points="351.47,-809.54 362.06,-809.16 353.54,-802.86 351.47,-809.54"/>
</a>
</g>
</g>
<!-- Node16&#45;&gt;Node13 -->
<g id="edge19_Node000016_Node000013" class="edge">
<title>Node16&#45;&gt;Node13</title>
<g id="a_edge19_Node000016_Node000013"><a xlink:title=" ">
<path fill="none" stroke="#63b8ff" d="M375.67,-803.43C360.02,-792.59 339.69,-777.74 323,-763 305.56,-747.6 305.74,-738.78 287,-725 271.55,-713.64 252.17,-704.14 236.66,-697.48"/>
<polygon fill="#63b8ff" stroke="#63b8ff" points="373.25,-806.02 383.48,-808.78 377.2,-800.24 373.25,-806.02"/>
</a>
</g>
</g>
<!-- Node16&#45;&gt;Node17 -->
<g id="edge20_Node000016_Node000017" class="edge">
<title>Node16&#45;&gt;Node17</title>
<g id="a_edge20_Node000016_Node000017"><a xlink:title=" ">
<path fill="none" stroke="#63b8ff" d="M347.42,-830.56C320.5,-835.92 287.92,-842.4 261.19,-847.72"/>
<polygon fill="#63b8ff" stroke="#63b8ff" points="347.97,-834.02 357.1,-828.63 346.61,-827.15 347.97,-834.02"/>
</a>
</g>
</g>
<!-- Node18&#45;&gt;Node3 -->
<g id="edge22_Node000018_Node000003" class="edge">
<title>Node18&#45;&gt;Node3</title>
<g id="a_edge22_Node000018_Node000003"><a xlink:title=" ">
<path fill="none" stroke="#63b8ff" d="M336.56,-718.72C312.34,-723.54 285.07,-728.96 262.03,-733.55"/>
<polygon fill="#63b8ff" stroke="#63b8ff" points="337.19,-722.16 346.32,-716.78 335.83,-715.3 337.19,-722.16"/>
</a>
</g>
</g>
<!-- Node18&#45;&gt;Node13 -->
<g id="edge23_Node000018_Node000013" class="edge">
<title>Node18&#45;&gt;Node13</title>
<g id="a_edge23_Node000018_Node000013"><a xlink:title=" ">
<path fill="none" stroke="#63b8ff" d="M311.35,-697.13C297.96,-695.8 284.4,-694.45 271.73,-693.19"/>
<polygon fill="#63b8ff" stroke="#63b8ff" points="310.73,-700.59 321.03,-698.09 311.43,-693.62 310.73,-700.59"/>
</a>
</g>
</g>
<!-- Node18&#45;&gt;Node14 -->
<g id="edge24_Node000018_Node000014" class="edge">
<title>Node18&#45;&gt;Node14</title>
<g id="a_edge24_Node000018_Node000014"><a xlink:title=" ">
<path fill="none" stroke="#63b8ff" d="M363.85,-691.41C326.29,-676.47 268.84,-653.61 235.65,-640.4"/>
<polygon fill="#63b8ff" stroke="#63b8ff" points="362.35,-694.59 372.94,-695.03 364.94,-688.08 362.35,-694.59"/>
</a>
</g>
</g>
<!-- Node19&#45;&gt;Node3 -->
<g id="edge26_Node000019_Node000003" class="edge">
<title>Node19&#45;&gt;Node3</title>
<g id="a_edge26_Node000019_Node000003"><a xlink:title=" ">
<path fill="none" stroke="#63b8ff" d="M323.74,-744C306.33,-744 288.04,-744 271.34,-744"/>
<polygon fill="#63b8ff" stroke="#63b8ff" points="323.52,-747.5 333.52,-744 323.52,-740.5 323.52,-747.5"/>
</a>
</g>
</g>
<!-- Node22&#45;&gt;Node2 -->
<g id="edge32_Node000022_Node000002" class="edge">
<title>Node22&#45;&gt;Node2</title>
<g id="a_edge32_Node000022_Node000002"><a xlink:title=" ">
<path fill="none" stroke="#63b8ff" d="M131.81,-972C118.91,-972 105.86,-972 94.03,-972"/>
<polygon fill="#63b8ff" stroke="#63b8ff" points="131.57,-975.5 141.57,-972 131.57,-968.5 131.57,-975.5"/>
</a>
</g>
</g>
<!-- Node23&#45;&gt;Node24 -->
<g id="edge35_Node000023_Node000024" class="edge">
<title>Node23&#45;&gt;Node24</title>
<g id="a_edge35_Node000023_Node000024"><a xlink:title=" ">
<path fill="none" stroke="#63b8ff" d="M336.56,-174.72C312.34,-179.54 285.07,-184.96 262.03,-189.55"/>
<polygon fill="#63b8ff" stroke="#63b8ff" points="337.19,-178.16 346.32,-172.78 335.83,-171.3 337.19,-178.16"/>
</a>
</g>
</g>
<!-- Node23&#45;&gt;Node25 -->
<g id="edge36_Node000023_Node000025" class="edge">
<title>Node23&#45;&gt;Node25</title>
<g id="a_edge36_Node000023_Node000025"><a xlink:title=" ">
<path fill="none" stroke="#63b8ff" d="M330.38,-155.02C316.09,-153.6 300.98,-152.1 286.47,-150.66"/>
<polygon fill="#63b8ff" stroke="#63b8ff" points="329.83,-158.49 340.13,-155.99 330.52,-151.52 329.83,-158.49"/>
</a>
</g>
</g>
<!-- Node26&#45;&gt;Node27 -->
<g id="edge38_Node000026_Node000027" class="edge">
<title>Node26&#45;&gt;Node27</title>
<g id="a_edge38_Node000026_Node000027"><a xlink:title=" ">
<path fill="none" stroke="#63b8ff" d="M336.8,-908.67C312.57,-913.49 285.26,-918.93 262.16,-923.52"/>
<polygon fill="#63b8ff" stroke="#63b8ff" points="337.45,-912.11 346.57,-906.73 336.08,-905.25 337.45,-912.11"/>
</a>
</g>
</g>
<!-- Node27&#45;&gt;Node2 -->
<g id="edge39_Node000027_Node000002" class="edge">
<title>Node27&#45;&gt;Node2</title>
<g id="a_edge39_Node000027_Node000002"><a xlink:title=" ">
<path fill="none" stroke="#63b8ff" d="M152.45,-947.12C132.64,-951.83 110.59,-957.09 91.86,-961.55"/>
<polygon fill="#63b8ff" stroke="#63b8ff" points="153.1,-950.56 162.02,-944.84 151.48,-943.75 153.1,-950.56"/>
</a>
</g>
</g>
<!-- Node30&#45;&gt;Node2 -->
<g id="edge46_Node000030_Node000002" class="edge">
<title>Node30&#45;&gt;Node2</title>
<g id="a_edge46_Node000030_Node000002"><a xlink:title=" ">
<path fill="none" stroke="#63b8ff" d="M361.55,-1061.98C307.03,-1079.11 206.13,-1101.85 130,-1067 91.17,-1049.22 63.73,-1002.98 53,-982.28"/>
<polygon fill="#63b8ff" stroke="#63b8ff" points="362.59,-1065.32 371.01,-1058.9 360.42,-1058.66 362.59,-1065.32"/>
</a>
</g>
</g>
<!-- Node31 -->
<g id="Node000031" class="node">
<title>Node31</title>
<g id="a_Node000031"><a xlink:href="class_lo_ra_class.html#a7a444720541f652a1352b643b6d35369" target="_top" xlink:title=" ">
<polygon fill="white" stroke="#666666" points="251.75,-1058 165.25,-1058 165.25,-1038 251.75,-1038 251.75,-1058"/>
<text text-anchor="middle" x="208.5" y="-1044.5" font-family="Helvetica,sans-Serif" font-size="10.00">LoRaClass::end</text>
</a>
</g>
</g>
<!-- Node30&#45;&gt;Node31 -->
<g id="edge47_Node000030_Node000031" class="edge">
<title>Node30&#45;&gt;Node31</title>
<g id="a_edge47_Node000030_Node000031"><a xlink:title=" ">
<path fill="none" stroke="#63b8ff" d="M342.95,-1048C313.72,-1048 278.82,-1048 252.04,-1048"/>
<polygon fill="#63b8ff" stroke="#63b8ff" points="342.75,-1051.5 352.75,-1048 342.75,-1044.5 342.75,-1051.5"/>
</a>
</g>
</g>
</g>
</svg>

<g id="navigator" transform="translate(0 0)" fill="#404254">
  <rect fill="#f2f5e9" fill-opacity="0.5" stroke="#606060" stroke-width=".5" x="0" y="0" width="60" height="60"/>
  <use id="zoomplus" xlink:href="#zoomPlus" x="17" y="9" onmousedown="handleZoom(evt,'in')"/>
  <use id="zoomminus" xlink:href="#zoomMin" x="42" y="9" onmousedown="handleZoom(evt,'out')"/>
  <use id="reset" xlink:href="#resetDef" x="30" y="36" onmousedown="handleReset()"/>
   <use id="arrowup" xlink:href="#arrowUp" x="0" y="0" onmousedown="handlePan(0,-1)"/>
  <use id="arrowright" xlink:href="#arrowRight" x="0" y="0" onmousedown="handlePan(1,0)"/>
  <use id="arrowdown" xlink:href="#arrowDown" x="0" y="0" onmousedown="handlePan(0,1)"/>
  <use id="arrowleft" xlink:href="#arrowLeft" x="0" y="0" onmousedown="handlePan(-1,0)"/>
</g>
<svg viewBox="0 0 15 15" width="100%" height="30px" preserveAspectRatio="xMaxYMin meet">
 <g id="arrow_out" transform="scale(0.3 0.3)">
  <a xlink:href="class_lo_ra_class_a77e7c77aa54174b352a26e1510f66f98_icgraph_org.svg" target="_base">
   <rect id="button" ry="5" rx="5" y="6" x="6" height="38" width="38"
        fill="#f2f5e9" fill-opacity="0.5" stroke="#606060" stroke-width="1.0"/>
   <path id="arrow"
     d="M 11.500037,31.436501 C 11.940474,20.09759 22.043105,11.32322 32.158766,21.979434 L 37.068811,17.246167 C 37.068811,17.246167 37.088388,32 37.088388,32 L 22.160133,31.978069 C 22.160133,31.978069 26.997745,27.140456 26.997745,27.140456 C 18.528582,18.264221 13.291696,25.230495 11.500037,31.436501 z"
     style="fill:#404040;"/>
  </a>
 </g>
</svg>

<style type='text/css'>
<![CDATA[
[data-mouse-over-selected='false'] { opacity: 0.7; }
[data-mouse-over-selected='true']  { opacity: 1.0; }
]]>
</style>
<script type="application/ecmascript"><![CDATA[
document.addEventListener('DOMContentLoaded', (event) => {
  highlightEdges();
  highlightAdjacentNodes();
});
]]></script>
</svg>
