<?xml version="1.0" encoding="UTF-8" standalone="no"?>
<!DOCTYPE svg PUBLIC "-//W3C//DTD SVG 1.1//EN"
 "http://www.w3.org/Graphics/SVG/1.1/DTD/svg11.dtd">
<!-- Generated by graphviz version 12.2.1 (20241206.2353)
 -->
<!-- Title: ErriezDS3231::clockEnable Pages: 1 -->
<svg width="486pt" height="66pt"
 viewBox="0.00 0.00 485.75 66.00" xmlns="http://www.w3.org/2000/svg" xmlns:xlink="http://www.w3.org/1999/xlink">
<g id="graph0" class="graph" transform="scale(1 1) rotate(0) translate(4 62)">
<title>ErriezDS3231::clockEnable</title>
<!-- Node1 -->
<g id="Node000001" class="node">
<title>Node1</title>
<g id="a_Node000001"><a xlink:title="Enable or disable oscillator when running on V&#45;BAT.">
<polygon fill="#999999" stroke="#666666" points="136,-39 0,-39 0,-19 136,-19 136,-39"/>
<text text-anchor="middle" x="68" y="-25.5" font-family="Helvetica,sans-Serif" font-size="10.00">ErriezDS3231::clockEnable</text>
</a>
</g>
</g>
<!-- Node2 -->
<g id="Node000002" class="node">
<title>Node2</title>
<g id="a_Node000002"><a xlink:href="class_erriez_d_s3231.html#aab9ee8e4653b2806a82cf12a22c5c1dd" target="_top" xlink:title="Read register.">
<polygon fill="white" stroke="#666666" points="311.38,-58 173.12,-58 173.12,-38 311.38,-38 311.38,-58"/>
<text text-anchor="middle" x="242.25" y="-44.5" font-family="Helvetica,sans-Serif" font-size="10.00">ErriezDS3231::readRegister</text>
</a>
</g>
</g>
<!-- Node1&#45;&gt;Node2 -->
<g id="edge1_Node000001_Node000002" class="edge">
<title>Node1&#45;&gt;Node2</title>
<g id="a_edge1_Node000001_Node000002"><a xlink:title=" ">
<path fill="none" stroke="#63b8ff" d="M136.09,-36.4C144.34,-37.31 152.83,-38.25 161.24,-39.18"/>
<polygon fill="#63b8ff" stroke="#63b8ff" points="160.81,-42.65 171.14,-40.27 161.58,-35.69 160.81,-42.65"/>
</a>
</g>
</g>
<!-- Node4 -->
<g id="Node000004" class="node">
<title>Node4</title>
<g id="a_Node000004"><a xlink:href="class_erriez_d_s3231.html#a2d53e7b9c88c576fe778502b7845a5ce" target="_top" xlink:title="Write register.">
<polygon fill="white" stroke="#666666" points="312.5,-20 172,-20 172,0 312.5,0 312.5,-20"/>
<text text-anchor="middle" x="242.25" y="-6.5" font-family="Helvetica,sans-Serif" font-size="10.00">ErriezDS3231::writeRegister</text>
</a>
</g>
</g>
<!-- Node1&#45;&gt;Node4 -->
<g id="edge3_Node000001_Node000004" class="edge">
<title>Node1&#45;&gt;Node4</title>
<g id="a_edge3_Node000001_Node000004"><a xlink:title=" ">
<path fill="none" stroke="#63b8ff" d="M136.09,-21.6C143.99,-20.73 152.11,-19.83 160.17,-18.94"/>
<polygon fill="#63b8ff" stroke="#63b8ff" points="160.44,-22.43 170,-17.86 159.67,-15.48 160.44,-22.43"/>
</a>
</g>
</g>
<!-- Node3 -->
<g id="Node000003" class="node">
<title>Node3</title>
<g id="a_Node000003"><a xlink:href="class_erriez_d_s3231.html#a9715869e0186e4f6a30dfd6a372875c1" target="_top" xlink:title="Read buffer from RTC.">
<polygon fill="white" stroke="#666666" points="476.62,-58 349.62,-58 349.62,-38 476.62,-38 476.62,-58"/>
<text text-anchor="middle" x="413.12" y="-44.5" font-family="Helvetica,sans-Serif" font-size="10.00">ErriezDS3231::readBuffer</text>
</a>
</g>
</g>
<!-- Node2&#45;&gt;Node3 -->
<g id="edge2_Node000002_Node000003" class="edge">
<title>Node2&#45;&gt;Node3</title>
<g id="a_edge2_Node000002_Node000003"><a xlink:title=" ">
<path fill="none" stroke="#63b8ff" d="M311.45,-48C320.11,-48 329,-48 337.75,-48"/>
<polygon fill="#63b8ff" stroke="#63b8ff" points="337.62,-51.5 347.62,-48 337.62,-44.5 337.62,-51.5"/>
</a>
</g>
</g>
<!-- Node5 -->
<g id="Node000005" class="node">
<title>Node5</title>
<g id="a_Node000005"><a xlink:href="class_erriez_d_s3231.html#a7cd8a1aa0a720d8ecc687e58ddfe110d" target="_top" xlink:title="Write buffer to RTC.">
<polygon fill="white" stroke="#666666" points="477.75,-20 348.5,-20 348.5,0 477.75,0 477.75,-20"/>
<text text-anchor="middle" x="413.12" y="-6.5" font-family="Helvetica,sans-Serif" font-size="10.00">ErriezDS3231::writeBuffer</text>
</a>
</g>
</g>
<!-- Node4&#45;&gt;Node5 -->
<g id="edge4_Node000004_Node000005" class="edge">
<title>Node4&#45;&gt;Node5</title>
<g id="a_edge4_Node000004_Node000005"><a xlink:title=" ">
<path fill="none" stroke="#63b8ff" d="M312.91,-10C320.73,-10 328.71,-10 336.6,-10"/>
<polygon fill="#63b8ff" stroke="#63b8ff" points="336.53,-13.5 346.53,-10 336.53,-6.5 336.53,-13.5"/>
</a>
</g>
</g>
</g>
</svg>
