<?xml version="1.0" encoding="UTF-8" standalone="no"?>
<!DOCTYPE svg PUBLIC "-//W3C//DTD SVG 1.1//EN"
 "http://www.w3.org/Graphics/SVG/1.1/DTD/svg11.dtd">
<!-- Generated by graphviz version 12.2.1 (20241206.2353)
 -->
<!-- Title: PowerManager::get_current_charge_usb Pages: 1 -->
<svg width="658pt" height="40pt"
 viewBox="0.00 0.00 658.00 40.00" xmlns="http://www.w3.org/2000/svg" xmlns:xlink="http://www.w3.org/1999/xlink">
<g id="graph0" class="graph" transform="scale(1 1) rotate(0) translate(4 36)">
<title>PowerManager::get_current_charge_usb</title>
<!-- Node1 -->
<g id="Node000001" class="node">
<title>Node1</title>
<g id="a_Node000001"><a xlink:title=" ">
<polygon fill="#999999" stroke="#666666" points="650,-32 514,-32 514,0 650,0 650,-32"/>
<text text-anchor="start" x="522" y="-18.5" font-family="Helvetica,sans-Serif" font-size="10.00">PowerManager::get_current</text>
<text text-anchor="middle" x="582" y="-6.5" font-family="Helvetica,sans-Serif" font-size="10.00">_charge_usb</text>
</a>
</g>
</g>
<!-- Node2 -->
<g id="Node000002" class="node">
<title>Node2</title>
<g id="a_Node000002"><a xlink:href="class_power_manager.html#a80bb34a3f9cd27d753252c66402c6a91" target="_top" xlink:title=" ">
<polygon fill="white" stroke="#666666" points="478,-26 320.25,-26 320.25,-6 478,-6 478,-26"/>
<text text-anchor="middle" x="399.12" y="-12.5" font-family="Helvetica,sans-Serif" font-size="10.00">PowerManager::is_charging_usb</text>
</a>
</g>
</g>
<!-- Node1&#45;&gt;Node2 -->
<g id="edge1_Node000001_Node000002" class="edge">
<title>Node1&#45;&gt;Node2</title>
<g id="a_edge1_Node000001_Node000002"><a xlink:title=" ">
<path fill="none" stroke="#63b8ff" d="M502.41,-16C494.38,-16 486.23,-16 478.21,-16"/>
<polygon fill="#63b8ff" stroke="#63b8ff" points="502.14,-19.5 512.14,-16 502.14,-12.5 502.14,-19.5"/>
</a>
</g>
</g>
<!-- Node3 -->
<g id="Node000003" class="node">
<title>Node3</title>
<g id="a_Node000003"><a xlink:href="event__manager_8cpp.html#a3a1b3fdef7c62da5c917d3006cdc65dd" target="_top" xlink:title="Checks power statuses and triggers events based on voltage trends.">
<polygon fill="white" stroke="#666666" points="284.25,-26 176,-26 176,-6 284.25,-6 284.25,-26"/>
<text text-anchor="middle" x="230.12" y="-12.5" font-family="Helvetica,sans-Serif" font-size="10.00">check_power_events</text>
</a>
</g>
</g>
<!-- Node2&#45;&gt;Node3 -->
<g id="edge2_Node000002_Node000003" class="edge">
<title>Node2&#45;&gt;Node3</title>
<g id="a_edge2_Node000002_Node000003"><a xlink:title=" ">
<path fill="none" stroke="#63b8ff" d="M308.69,-16C300.41,-16 292.2,-16 284.4,-16"/>
<polygon fill="#63b8ff" stroke="#63b8ff" points="308.49,-19.5 318.49,-16 308.49,-12.5 308.49,-19.5"/>
</a>
</g>
</g>
<!-- Node4 -->
<g id="Node000004" class="node">
<title>Node4</title>
<g id="a_Node000004"><a xlink:href="main_8cpp.html#a9f153132b8b4afad133b952111e18bd9" target="_top" xlink:title=" ">
<polygon fill="white" stroke="#666666" points="140,-26 73,-26 73,-6 140,-6 140,-26"/>
<text text-anchor="middle" x="106.5" y="-12.5" font-family="Helvetica,sans-Serif" font-size="10.00">core1_entry</text>
</a>
</g>
</g>
<!-- Node3&#45;&gt;Node4 -->
<g id="edge3_Node000003_Node000004" class="edge">
<title>Node3&#45;&gt;Node4</title>
<g id="a_edge3_Node000003_Node000004"><a xlink:title=" ">
<path fill="none" stroke="#63b8ff" d="M164.35,-16C155.97,-16 147.7,-16 140.16,-16"/>
<polygon fill="#63b8ff" stroke="#63b8ff" points="164.26,-19.5 174.26,-16 164.26,-12.5 164.26,-19.5"/>
</a>
</g>
</g>
<!-- Node5 -->
<g id="Node000005" class="node">
<title>Node5</title>
<g id="a_Node000005"><a xlink:href="main_8cpp.html#ae66f6b31b5ad750f1fe042a706a4e3d4" target="_top" xlink:title=" ">
<polygon fill="white" stroke="#666666" points="37,-26 0,-26 0,-6 37,-6 37,-26"/>
<text text-anchor="middle" x="18.5" y="-12.5" font-family="Helvetica,sans-Serif" font-size="10.00">main</text>
</a>
</g>
</g>
<!-- Node4&#45;&gt;Node5 -->
<g id="edge4_Node000004_Node000005" class="edge">
<title>Node4&#45;&gt;Node5</title>
<g id="a_edge4_Node000004_Node000005"><a xlink:title=" ">
<path fill="none" stroke="#63b8ff" d="M61.64,-16C52.94,-16 44.29,-16 37.11,-16"/>
<polygon fill="#63b8ff" stroke="#63b8ff" points="61.47,-19.5 71.47,-16 61.47,-12.5 61.47,-19.5"/>
</a>
</g>
</g>
</g>
</svg>
