<?xml version="1.0" encoding="UTF-8" standalone="no"?>
<!DOCTYPE svg PUBLIC "-//W3C//DTD SVG 1.1//EN"
 "http://www.w3.org/Graphics/SVG/1.1/DTD/svg11.dtd">
<!-- Generated by graphviz version 12.2.1 (20241206.2353)
 -->
<!-- Title: LoRaClass::getSignalBandwidth Pages: 1 -->
<svg width="540pt" height="97pt"
 viewBox="0.00 0.00 539.75 97.00" xmlns="http://www.w3.org/2000/svg" xmlns:xlink="http://www.w3.org/1999/xlink">
<g id="graph0" class="graph" transform="scale(1 1) rotate(0) translate(4 93)">
<title>LoRaClass::getSignalBandwidth</title>
<!-- Node1 -->
<g id="Node000001" class="node">
<title>Node1</title>
<g id="a_Node000001"><a xlink:title=" ">
<polygon fill="#999999" stroke="#666666" points="531.75,-61 374.75,-61 374.75,-41 531.75,-41 531.75,-61"/>
<text text-anchor="middle" x="453.25" y="-47.5" font-family="Helvetica,sans-Serif" font-size="10.00">LoRaClass::getSignalBandwidth</text>
</a>
</g>
</g>
<!-- Node2 -->
<g id="Node000002" class="node">
<title>Node2</title>
<g id="a_Node000002"><a xlink:href="class_lo_ra_class.html#af16e40f9c82f512287b7010d490e7b4c" target="_top" xlink:title=" ">
<polygon fill="white" stroke="#666666" points="338.75,-89 193,-89 193,-57 338.75,-57 338.75,-89"/>
<text text-anchor="start" x="201" y="-75.5" font-family="Helvetica,sans-Serif" font-size="10.00">LoRaClass::packetFrequency</text>
<text text-anchor="middle" x="265.88" y="-63.5" font-family="Helvetica,sans-Serif" font-size="10.00">Error</text>
</a>
</g>
</g>
<!-- Node1&#45;&gt;Node2 -->
<g id="edge1_Node000001_Node000002" class="edge">
<title>Node1&#45;&gt;Node2</title>
<g id="a_edge1_Node000001_Node000002"><a xlink:title=" ">
<path fill="none" stroke="#63b8ff" d="M363.13,-61.58C355.1,-62.53 347.03,-63.49 339.16,-64.42"/>
<polygon fill="#63b8ff" stroke="#63b8ff" points="363.42,-65.07 372.94,-60.41 362.59,-58.12 363.42,-65.07"/>
</a>
</g>
</g>
<!-- Node3 -->
<g id="Node000003" class="node">
<title>Node3</title>
<g id="a_Node000003"><a xlink:href="class_lo_ra_class.html#aa299808b2da9819eded073c84e1b219e" target="_top" xlink:title=" ">
<polygon fill="white" stroke="#666666" points="325.25,-39 206.5,-39 206.5,-19 325.25,-19 325.25,-39"/>
<text text-anchor="middle" x="265.88" y="-25.5" font-family="Helvetica,sans-Serif" font-size="10.00">LoRaClass::setLdoFlag</text>
</a>
</g>
</g>
<!-- Node1&#45;&gt;Node3 -->
<g id="edge2_Node000001_Node000003" class="edge">
<title>Node1&#45;&gt;Node3</title>
<g id="a_edge2_Node000001_Node000003"><a xlink:title=" ">
<path fill="none" stroke="#63b8ff" d="M363.26,-40.44C350.47,-38.92 337.6,-37.39 325.6,-35.97"/>
<polygon fill="#63b8ff" stroke="#63b8ff" points="362.59,-43.88 372.94,-41.59 363.42,-36.93 362.59,-43.88"/>
</a>
</g>
</g>
<!-- Node4 -->
<g id="Node000004" class="node">
<title>Node4</title>
<g id="a_Node000004"><a xlink:href="class_lo_ra_class.html#ad4d841d74015f7fc1139ed0ad33dc4c2" target="_top" xlink:title=" ">
<polygon fill="white" stroke="#666666" points="157,-58 0,-58 0,-38 157,-38 157,-58"/>
<text text-anchor="middle" x="78.5" y="-44.5" font-family="Helvetica,sans-Serif" font-size="10.00">LoRaClass::setSignalBandwidth</text>
</a>
</g>
</g>
<!-- Node3&#45;&gt;Node4 -->
<g id="edge3_Node000003_Node000004" class="edge">
<title>Node3&#45;&gt;Node4</title>
<g id="a_edge3_Node000003_Node000004"><a xlink:title=" ">
<path fill="none" stroke="#63b8ff" d="M195.12,-36.15C182.82,-37.41 169.95,-38.73 157.44,-40.01"/>
<polygon fill="#63b8ff" stroke="#63b8ff" points="195.12,-39.67 204.72,-35.17 194.41,-32.7 195.12,-39.67"/>
</a>
</g>
</g>
<!-- Node5 -->
<g id="Node000005" class="node">
<title>Node5</title>
<g id="a_Node000005"><a xlink:href="class_lo_ra_class.html#aff3deaecc03da514af3a05e5e0c38e69" target="_top" xlink:title=" ">
<polygon fill="white" stroke="#666666" points="156.25,-20 0.75,-20 0.75,0 156.25,0 156.25,-20"/>
<text text-anchor="middle" x="78.5" y="-6.5" font-family="Helvetica,sans-Serif" font-size="10.00">LoRaClass::setSpreadingFactor</text>
</a>
</g>
</g>
<!-- Node3&#45;&gt;Node5 -->
<g id="edge4_Node000003_Node000005" class="edge">
<title>Node3&#45;&gt;Node5</title>
<g id="a_edge4_Node000003_Node000005"><a xlink:title=" ">
<path fill="none" stroke="#63b8ff" d="M194.88,-21.83C182.33,-20.54 169.18,-19.19 156.44,-17.89"/>
<polygon fill="#63b8ff" stroke="#63b8ff" points="194.41,-25.3 204.72,-22.83 195.12,-18.33 194.41,-25.3"/>
</a>
</g>
</g>
</g>
</svg>
