<?xml version="1.0" encoding="UTF-8" standalone="no"?>
<!DOCTYPE svg PUBLIC "-//W3C//DTD SVG 1.1//EN"
 "http://www.w3.org/Graphics/SVG/1.1/DTD/svg11.dtd">
<!-- Generated by graphviz version 12.2.1 (20241206.2353)
 -->
<!-- Title: ISensor Pages: 1 -->
<svg width="434pt" height="84pt"
 viewBox="0.00 0.00 434.38 84.00" xmlns="http://www.w3.org/2000/svg" xmlns:xlink="http://www.w3.org/1999/xlink">

<svg id="main" version="1.1" xmlns="http://www.w3.org/2000/svg" xmlns:xlink="http://www.w3.org/1999/xlink" xml:space="preserve">

<style type="text/css"><![CDATA[
.node, .edge {opacity: 0.7;}
.node.selected, .edge.selected {opacity: 1;}
.edge:hover path { stroke: red; }
.edge:hover polygon { stroke: red; fill: red; }
]]></style>
<script type="application/ecmascript" xlink:href="svg.min.js"/>
<svg id="graph" class="graph">
<g id="graph0" class="graph" transform="scale(1 1) rotate(0) translate(4 80)">
<title>ISensor</title>
<!-- Node1 -->
<g id="Node000001" class="node">
<title>Node1</title>
<g id="a_Node000001"><a xlink:title=" ">
<polygon fill="#999999" stroke="#666666" points="230.5,-76 180.75,-76 180.75,-56 230.5,-56 230.5,-76"/>
<text text-anchor="middle" x="205.62" y="-62.5" font-family="Helvetica,sans-Serif" font-size="10.00">ISensor</text>
</a>
</g>
</g>
<!-- Node2 -->
<g id="Node000002" class="node">
<title>Node2</title>
<g id="a_Node000002"><a xlink:href="class_b_h1750_wrapper.html" target="_top" xlink:title=" ">
<polygon fill="white" stroke="#666666" points="87.25,-20 0,-20 0,0 87.25,0 87.25,-20"/>
<text text-anchor="middle" x="43.62" y="-6.5" font-family="Helvetica,sans-Serif" font-size="10.00">BH1750Wrapper</text>
</a>
</g>
</g>
<!-- Node1&#45;&gt;Node2 -->
<g id="edge1_Node000001_Node000002" class="edge">
<title>Node1&#45;&gt;Node2</title>
<g id="a_edge1_Node000001_Node000002"><a xlink:title=" ">
<path fill="none" stroke="#63b8ff" d="M169.66,-53.01C140.23,-43.2 99.18,-29.52 72.03,-20.47"/>
<polygon fill="#63b8ff" stroke="#63b8ff" points="168.28,-56.24 178.88,-56.08 170.5,-49.6 168.28,-56.24"/>
</a>
</g>
</g>
<!-- Node3 -->
<g id="Node000003" class="node">
<title>Node3</title>
<g id="a_Node000003"><a xlink:href="class_b_m_e280_wrapper.html" target="_top" xlink:title=" ">
<polygon fill="white" stroke="#666666" points="194.38,-20 104.88,-20 104.88,0 194.38,0 194.38,-20"/>
<text text-anchor="middle" x="149.62" y="-6.5" font-family="Helvetica,sans-Serif" font-size="10.00">BME280Wrapper</text>
</a>
</g>
</g>
<!-- Node1&#45;&gt;Node3 -->
<g id="edge2_Node000001_Node000003" class="edge">
<title>Node1&#45;&gt;Node3</title>
<g id="a_edge2_Node000001_Node000003"><a xlink:title=" ">
<path fill="none" stroke="#63b8ff" d="M187.84,-47.85C178.37,-38.72 167.1,-27.86 159.27,-20.3"/>
<polygon fill="#63b8ff" stroke="#63b8ff" points="185.15,-50.12 194.78,-54.54 190.01,-45.08 185.15,-50.12"/>
</a>
</g>
</g>
<!-- Node4 -->
<g id="Node000004" class="node">
<title>Node4</title>
<g id="a_Node000004"><a xlink:href="class_h_m_c5883_l_wrapper.html" target="_top" xlink:title=" ">
<polygon fill="white" stroke="#666666" points="313,-20 212.25,-20 212.25,0 313,0 313,-20"/>
<text text-anchor="middle" x="262.62" y="-6.5" font-family="Helvetica,sans-Serif" font-size="10.00">HMC5883LWrapper</text>
</a>
</g>
</g>
<!-- Node1&#45;&gt;Node4 -->
<g id="edge3_Node000001_Node000004" class="edge">
<title>Node1&#45;&gt;Node4</title>
<g id="a_edge3_Node000001_Node000004"><a xlink:title=" ">
<path fill="none" stroke="#63b8ff" d="M223.73,-47.85C233.36,-38.72 244.83,-27.86 252.81,-20.3"/>
<polygon fill="#63b8ff" stroke="#63b8ff" points="221.5,-45.13 216.65,-54.55 226.32,-50.22 221.5,-45.13"/>
</a>
</g>
</g>
<!-- Node5 -->
<g id="Node000005" class="node">
<title>Node5</title>
<g id="a_Node000005"><a xlink:href="class_m_p_u6050_wrapper.html" target="_top" xlink:title=" ">
<polygon fill="white" stroke="#666666" points="426.38,-20 330.88,-20 330.88,0 426.38,0 426.38,-20"/>
<text text-anchor="middle" x="378.62" y="-6.5" font-family="Helvetica,sans-Serif" font-size="10.00">MPU6050Wrapper</text>
</a>
</g>
</g>
<!-- Node1&#45;&gt;Node5 -->
<g id="edge4_Node000001_Node000005" class="edge">
<title>Node1&#45;&gt;Node5</title>
<g id="a_edge4_Node000001_Node000005"><a xlink:title=" ">
<path fill="none" stroke="#63b8ff" d="M241.72,-53.73C273.24,-43.9 318.47,-29.78 348.19,-20.5"/>
<polygon fill="#63b8ff" stroke="#63b8ff" points="240.73,-50.38 232.23,-56.7 242.81,-57.06 240.73,-50.38"/>
</a>
</g>
</g>
</g>
</svg>
</svg>

<style type='text/css'>
<![CDATA[
[data-mouse-over-selected='false'] { opacity: 0.7; }
[data-mouse-over-selected='true']  { opacity: 1.0; }
]]>
</style>
<script type="application/ecmascript"><![CDATA[
document.addEventListener('DOMContentLoaded', (event) => {
  highlightEdges();
  highlightAdjacentNodes();
});
]]></script>
</svg>
