<?xml version="1.0" encoding="UTF-8" standalone="no"?>
<!DOCTYPE svg PUBLIC "-//W3C//DTD SVG 1.1//EN"
 "http://www.w3.org/Graphics/SVG/1.1/DTD/svg11.dtd">
<!-- Generated by graphviz version 12.2.1 (20241206.2353)
 -->
<!-- Title: DS3231::bcd2bin Pages: 1 -->
<svg width="593pt" height="142pt"
 viewBox="0.00 0.00 593.25 142.00" xmlns="http://www.w3.org/2000/svg" xmlns:xlink="http://www.w3.org/1999/xlink">
<g id="graph0" class="graph" transform="scale(1 1) rotate(0) translate(4 138)">
<title>DS3231::bcd2bin</title>
<!-- Node1 -->
<g id="Node000001" class="node">
<title>Node1</title>
<g id="a_Node000001"><a xlink:title=" ">
<polygon fill="#999999" stroke="#666666" points="585.25,-58 494.25,-58 494.25,-38 585.25,-38 585.25,-58"/>
<text text-anchor="middle" x="539.75" y="-44.5" font-family="Helvetica,sans-Serif" font-size="10.00">DS3231::bcd2bin</text>
</a>
</g>
</g>
<!-- Node2 -->
<g id="Node000002" class="node">
<title>Node2</title>
<g id="a_Node000002"><a xlink:href="class_d_s3231.html#aa19b08f3978eea489bc8af3a84d67e59" target="_top" xlink:title=" ">
<polygon fill="white" stroke="#666666" points="458.25,-86 344.75,-86 344.75,-66 458.25,-66 458.25,-86"/>
<text text-anchor="middle" x="401.5" y="-72.5" font-family="Helvetica,sans-Serif" font-size="10.00">DS3231::getDateTime</text>
</a>
</g>
</g>
<!-- Node1&#45;&gt;Node2 -->
<g id="edge1_Node000001_Node000002" class="edge">
<title>Node1&#45;&gt;Node2</title>
<g id="a_edge1_Node000001_Node000002"><a xlink:title=" ">
<path fill="none" stroke="#63b8ff" d="M482.65,-59.53C473.02,-61.51 463.06,-63.55 453.57,-65.5"/>
<polygon fill="#63b8ff" stroke="#63b8ff" points="483.19,-62.99 492.28,-57.55 481.78,-56.14 483.19,-62.99"/>
</a>
</g>
</g>
<!-- Node7 -->
<g id="Node000007" class="node">
<title>Node7</title>
<g id="a_Node000007"><a xlink:href="class_d_s3231.html#aedd5fa550aa8b38fabe4d44d9ba5a0af" target="_top" xlink:title=" ">
<polygon fill="white" stroke="#666666" points="447.75,-39 355.25,-39 355.25,-19 447.75,-19 447.75,-39"/>
<text text-anchor="middle" x="401.5" y="-25.5" font-family="Helvetica,sans-Serif" font-size="10.00">DS3231::getTime</text>
</a>
</g>
</g>
<!-- Node1&#45;&gt;Node7 -->
<g id="edge6_Node000001_Node000007" class="edge">
<title>Node1&#45;&gt;Node7</title>
<g id="a_edge6_Node000001_Node000007"><a xlink:title=" ">
<path fill="none" stroke="#63b8ff" d="M482.46,-40.15C470.95,-38.55 458.98,-36.88 447.91,-35.33"/>
<polygon fill="#63b8ff" stroke="#63b8ff" points="481.87,-43.6 492.26,-41.52 482.84,-36.67 481.87,-43.6"/>
</a>
</g>
</g>
<!-- Node3 -->
<g id="Node000003" class="node">
<title>Node3</title>
<g id="a_Node000003"><a xlink:href="class_d_s3231.html#a4b893299918613d8fb3521793b848d6d" target="_top" xlink:title=" ">
<polygon fill="white" stroke="#666666" points="308.75,-134 172,-134 172,-114 308.75,-114 308.75,-134"/>
<text text-anchor="middle" x="240.38" y="-120.5" font-family="Helvetica,sans-Serif" font-size="10.00">DS3231::getDateTimeLocal</text>
</a>
</g>
</g>
<!-- Node2&#45;&gt;Node3 -->
<g id="edge2_Node000002_Node000003" class="edge">
<title>Node2&#45;&gt;Node3</title>
<g id="a_edge2_Node000002_Node000003"><a xlink:title=" ">
<path fill="none" stroke="#63b8ff" d="M357.54,-89.88C342.18,-94.77 324.72,-100.23 308.75,-105 299.2,-107.85 288.86,-110.83 279.21,-113.56"/>
<polygon fill="#63b8ff" stroke="#63b8ff" points="358.4,-93.28 366.86,-86.91 356.27,-86.61 358.4,-93.28"/>
</a>
</g>
</g>
<!-- Node4 -->
<g id="Node000004" class="node">
<title>Node4</title>
<g id="a_Node000004"><a xlink:href="class_d_s3231.html#ac5680bedcb5cd48da26a4c0afcddb830" target="_top" xlink:title=" ">
<polygon fill="white" stroke="#666666" points="301.62,-96 179.12,-96 179.12,-76 301.62,-76 301.62,-96"/>
<text text-anchor="middle" x="240.38" y="-82.5" font-family="Helvetica,sans-Serif" font-size="10.00">DS3231::getTimeInteger</text>
</a>
</g>
</g>
<!-- Node2&#45;&gt;Node4 -->
<g id="edge3_Node000002_Node000004" class="edge">
<title>Node2&#45;&gt;Node4</title>
<g id="a_edge3_Node000002_Node000004"><a xlink:title=" ">
<path fill="none" stroke="#63b8ff" d="M332.98,-80.24C322.73,-80.89 312.2,-81.55 302.11,-82.18"/>
<polygon fill="#63b8ff" stroke="#63b8ff" points="333.13,-83.74 342.89,-79.62 332.69,-76.75 333.13,-83.74"/>
</a>
</g>
</g>
<!-- Node5 -->
<g id="Node000005" class="node">
<title>Node5</title>
<g id="a_Node000005"><a xlink:href="class_d_s3231.html#a93399e0145a53c558e316f6f95a20679" target="_top" xlink:title=" ">
<polygon fill="white" stroke="#666666" points="296.75,-58 184,-58 184,-38 296.75,-38 296.75,-58"/>
<text text-anchor="middle" x="240.38" y="-44.5" font-family="Helvetica,sans-Serif" font-size="10.00">DS3231::getTimeUnix</text>
</a>
</g>
</g>
<!-- Node2&#45;&gt;Node5 -->
<g id="edge4_Node000002_Node000005" class="edge">
<title>Node2&#45;&gt;Node5</title>
<g id="a_edge4_Node000002_Node000005"><a xlink:title=" ">
<path fill="none" stroke="#63b8ff" d="M333.09,-64.14C321.15,-62.04 308.82,-59.87 297.24,-57.83"/>
<polygon fill="#63b8ff" stroke="#63b8ff" points="332.45,-67.58 342.91,-65.87 333.67,-60.69 332.45,-67.58"/>
</a>
</g>
</g>
<!-- Node6 -->
<g id="Node000006" class="node">
<title>Node6</title>
<g id="a_Node000006"><a xlink:href="class_d_s3231.html#ad95e3e60f1d82c37e7c03fac84249bc6" target="_top" xlink:title=" ">
<polygon fill="white" stroke="#666666" points="136,-58 0,-58 0,-38 136,-38 136,-58"/>
<text text-anchor="middle" x="68" y="-44.5" font-family="Helvetica,sans-Serif" font-size="10.00">DS3231::getTimeUnixLocal</text>
</a>
</g>
</g>
<!-- Node5&#45;&gt;Node6 -->
<g id="edge5_Node000005_Node000006" class="edge">
<title>Node5&#45;&gt;Node6</title>
<g id="a_edge5_Node000005_Node000006"><a xlink:title=" ">
<path fill="none" stroke="#63b8ff" d="M172.37,-48C160.48,-48 148.1,-48 136.2,-48"/>
<polygon fill="#63b8ff" stroke="#63b8ff" points="172.07,-51.5 182.07,-48 172.07,-44.5 172.07,-51.5"/>
</a>
</g>
</g>
<!-- Node8 -->
<g id="Node000008" class="node">
<title>Node8</title>
<g id="a_Node000008"><a xlink:href="class_d_s3231.html#af7eb8bade221416e4035f1e7139b6154" target="_top" xlink:title=" ">
<polygon fill="white" stroke="#666666" points="299.38,-20 181.38,-20 181.38,0 299.38,0 299.38,-20"/>
<text text-anchor="middle" x="240.38" y="-6.5" font-family="Helvetica,sans-Serif" font-size="10.00">DS3231::getTimeString</text>
</a>
</g>
</g>
<!-- Node7&#45;&gt;Node8 -->
<g id="edge7_Node000007_Node000008" class="edge">
<title>Node7&#45;&gt;Node8</title>
<g id="a_edge7_Node000007_Node000008"><a xlink:title=" ">
<path fill="none" stroke="#63b8ff" d="M343.73,-22.22C329.46,-20.52 314.12,-18.69 299.77,-16.97"/>
<polygon fill="#63b8ff" stroke="#63b8ff" points="343.05,-25.67 353.4,-23.38 343.88,-18.71 343.05,-25.67"/>
</a>
</g>
</g>
</g>
</svg>
