<?xml version="1.0" encoding="UTF-8" standalone="no"?>
<!DOCTYPE svg PUBLIC "-//W3C//DTD SVG 1.1//EN"
 "http://www.w3.org/Graphics/SVG/1.1/DTD/svg11.dtd">
<!-- Generated by graphviz version 12.2.1 (20241206.2353)
 -->
<!-- Title: INA3221::getCurrentCompensated_mA Pages: 1 -->
<svg width="508pt" height="104pt"
 viewBox="0.00 0.00 507.50 104.00" xmlns="http://www.w3.org/2000/svg" xmlns:xlink="http://www.w3.org/1999/xlink">
<g id="graph0" class="graph" transform="scale(1 1) rotate(0) translate(4 100)">
<title>INA3221::getCurrentCompensated_mA</title>
<!-- Node1 -->
<g id="Node000001" class="node">
<title>Node1</title>
<g id="a_Node000001"><a xlink:title=" ">
<polygon fill="#999999" stroke="#666666" points="187,-58 0,-58 0,-38 187,-38 187,-58"/>
<text text-anchor="middle" x="93.5" y="-44.5" font-family="Helvetica,sans-Serif" font-size="10.00">INA3221::getCurrentCompensated_mA</text>
</a>
</g>
</g>
<!-- Node2 -->
<g id="Node000002" class="node">
<title>Node2</title>
<g id="a_Node000002"><a xlink:href="class_i_n_a3221.html#a54a12163b61973f5527635b0a02393b1" target="_top" xlink:title=" ">
<polygon fill="white" stroke="#666666" points="379.25,-96 223,-96 223,-76 379.25,-76 379.25,-96"/>
<text text-anchor="middle" x="301.12" y="-82.5" font-family="Helvetica,sans-Serif" font-size="10.00">INA3221::estimateOffsetVoltage</text>
</a>
</g>
</g>
<!-- Node1&#45;&gt;Node2 -->
<g id="edge1_Node000001_Node000002" class="edge">
<title>Node1&#45;&gt;Node2</title>
<g id="a_edge1_Node000001_Node000002"><a xlink:title=" ">
<path fill="none" stroke="#63b8ff" d="M151.23,-58.48C176.4,-63.14 206.22,-68.65 232.54,-73.51"/>
<polygon fill="#63b8ff" stroke="#63b8ff" points="231.62,-76.9 242.09,-75.27 232.89,-70.02 231.62,-76.9"/>
</a>
</g>
</g>
<!-- Node3 -->
<g id="Node000003" class="node">
<title>Node3</title>
<g id="a_Node000003"><a xlink:href="class_i_n_a3221.html#a7cae0eec9dedb5b64ad3bbefc289468b" target="_top" xlink:title=" ">
<polygon fill="white" stroke="#666666" points="366.88,-58 235.38,-58 235.38,-38 366.88,-38 366.88,-58"/>
<text text-anchor="middle" x="301.12" y="-44.5" font-family="Helvetica,sans-Serif" font-size="10.00">INA3221::getShuntVoltage</text>
</a>
</g>
</g>
<!-- Node1&#45;&gt;Node3 -->
<g id="edge2_Node000001_Node000003" class="edge">
<title>Node1&#45;&gt;Node3</title>
<g id="a_edge2_Node000001_Node000003"><a xlink:title=" ">
<path fill="none" stroke="#63b8ff" d="M187.39,-48C199.57,-48 211.93,-48 223.79,-48"/>
<polygon fill="#63b8ff" stroke="#63b8ff" points="223.47,-51.5 233.47,-48 223.47,-44.5 223.47,-51.5"/>
</a>
</g>
</g>
<!-- Node5 -->
<g id="Node000005" class="node">
<title>Node5</title>
<g id="a_Node000005"><a xlink:href="class_i_n_a3221.html#a40d4bf9bbb149fab19c6d80db86c119f" target="_top" xlink:title=" ">
<polygon fill="white" stroke="#666666" points="354.12,-20 248.12,-20 248.12,0 354.12,0 354.12,-20"/>
<text text-anchor="middle" x="301.12" y="-6.5" font-family="Helvetica,sans-Serif" font-size="10.00">INA3221::getVoltage</text>
</a>
</g>
</g>
<!-- Node1&#45;&gt;Node5 -->
<g id="edge4_Node000001_Node000005" class="edge">
<title>Node1&#45;&gt;Node5</title>
<g id="a_edge4_Node000001_Node000005"><a xlink:title=" ">
<path fill="none" stroke="#63b8ff" d="M151.23,-37.52C177.77,-32.61 209.47,-26.75 236.79,-21.7"/>
<polygon fill="#63b8ff" stroke="#63b8ff" points="237.12,-25.2 246.32,-19.94 235.85,-18.32 237.12,-25.2"/>
</a>
</g>
</g>
<!-- Node4 -->
<g id="Node000004" class="node">
<title>Node4</title>
<g id="a_Node000004"><a xlink:href="class_i_n_a3221.html#a0b4c630038abf482bef36f3083ab20ff" target="_top" xlink:title=" ">
<polygon fill="white" stroke="#666666" points="499.5,-39 415.25,-39 415.25,-19 499.5,-19 499.5,-39"/>
<text text-anchor="middle" x="457.38" y="-25.5" font-family="Helvetica,sans-Serif" font-size="10.00">INA3221::_read</text>
</a>
</g>
</g>
<!-- Node3&#45;&gt;Node4 -->
<g id="edge3_Node000003_Node000004" class="edge">
<title>Node3&#45;&gt;Node4</title>
<g id="a_edge3_Node000003_Node000004"><a xlink:title=" ">
<path fill="none" stroke="#63b8ff" d="M367.09,-40C379.2,-38.51 391.71,-36.97 403.4,-35.53"/>
<polygon fill="#63b8ff" stroke="#63b8ff" points="403.77,-39.01 413.27,-34.31 402.91,-32.06 403.77,-39.01"/>
</a>
</g>
</g>
<!-- Node5&#45;&gt;Node4 -->
<g id="edge5_Node000005_Node000004" class="edge">
<title>Node5&#45;&gt;Node4</title>
<g id="a_edge5_Node000005_Node000004"><a xlink:title=" ">
<path fill="none" stroke="#63b8ff" d="M354.35,-16.43C370.24,-18.39 387.72,-20.54 403.64,-22.5"/>
<polygon fill="#63b8ff" stroke="#63b8ff" points="403.07,-25.96 413.42,-23.71 403.93,-19.01 403.07,-25.96"/>
</a>
</g>
</g>
</g>
</svg>
