<?xml version="1.0" encoding="UTF-8" standalone="no"?>
<!DOCTYPE svg PUBLIC "-//W3C//DTD SVG 1.1//EN"
 "http://www.w3.org/Graphics/SVG/1.1/DTD/svg11.dtd">
<!-- Generated by graphviz version 12.2.1 (20241206.2353)
 -->
<!-- Title: LoRaClass::idle Pages: 1 -->
<svg width="259pt" height="142pt"
 viewBox="0.00 0.00 259.00 142.00" xmlns="http://www.w3.org/2000/svg" xmlns:xlink="http://www.w3.org/1999/xlink">
<g id="graph0" class="graph" transform="scale(1 1) rotate(0) translate(4 138)">
<title>LoRaClass::idle</title>
<!-- Node1 -->
<g id="Node000001" class="node">
<title>Node1</title>
<g id="a_Node000001"><a xlink:title=" ">
<polygon fill="#999999" stroke="#666666" points="251,-77 165.25,-77 165.25,-57 251,-57 251,-77"/>
<text text-anchor="middle" x="208.12" y="-63.5" font-family="Helvetica,sans-Serif" font-size="10.00">LoRaClass::idle</text>
</a>
</g>
</g>
<!-- Node2 -->
<g id="Node000002" class="node">
<title>Node2</title>
<g id="a_Node000002"><a xlink:href="class_lo_ra_class.html#a3c5b6ee156c14f20238f46292c116d96" target="_top" xlink:title=" ">
<polygon fill="white" stroke="#666666" points="111.62,-134 17.62,-134 17.62,-114 111.62,-114 111.62,-134"/>
<text text-anchor="middle" x="64.62" y="-120.5" font-family="Helvetica,sans-Serif" font-size="10.00">LoRaClass::begin</text>
</a>
</g>
</g>
<!-- Node1&#45;&gt;Node2 -->
<g id="edge1_Node000001_Node000002" class="edge">
<title>Node1&#45;&gt;Node2</title>
<g id="a_edge1_Node000001_Node000002"><a xlink:title=" ">
<path fill="none" stroke="#63b8ff" d="M178.16,-82.54C163.71,-89.93 145.83,-98.53 129.25,-105 121.3,-108.1 112.63,-111 104.32,-113.55"/>
<polygon fill="#63b8ff" stroke="#63b8ff" points="179.39,-85.84 186.65,-78.13 176.17,-79.63 179.39,-85.84"/>
</a>
</g>
</g>
<!-- Node3 -->
<g id="Node000003" class="node">
<title>Node3</title>
<g id="a_Node000003"><a xlink:href="class_lo_ra_class.html#a22d4ee8aaded004bb91b70ee15c57e2d" target="_top" xlink:title=" ">
<polygon fill="white" stroke="#666666" points="127,-96 2.25,-96 2.25,-76 127,-76 127,-96"/>
<text text-anchor="middle" x="64.62" y="-82.5" font-family="Helvetica,sans-Serif" font-size="10.00">LoRaClass::beginPacket</text>
</a>
</g>
</g>
<!-- Node1&#45;&gt;Node3 -->
<g id="edge2_Node000001_Node000003" class="edge">
<title>Node1&#45;&gt;Node3</title>
<g id="a_edge2_Node000001_Node000003"><a xlink:title=" ">
<path fill="none" stroke="#63b8ff" d="M153.65,-74.18C145.09,-75.33 136.17,-76.53 127.44,-77.7"/>
<polygon fill="#63b8ff" stroke="#63b8ff" points="154.11,-77.65 163.55,-72.85 153.18,-70.71 154.11,-77.65"/>
</a>
</g>
</g>
<!-- Node4 -->
<g id="Node000004" class="node">
<title>Node4</title>
<g id="a_Node000004"><a xlink:href="class_lo_ra_class.html#abc23789599769a0fdc5c9dbee33bc27f" target="_top" xlink:title=" ">
<polygon fill="white" stroke="#666666" points="129.25,-58 0,-58 0,-38 129.25,-38 129.25,-58"/>
<text text-anchor="middle" x="64.62" y="-44.5" font-family="Helvetica,sans-Serif" font-size="10.00">LoRaClass::parse_packet</text>
</a>
</g>
</g>
<!-- Node1&#45;&gt;Node4 -->
<g id="edge3_Node000001_Node000004" class="edge">
<title>Node1&#45;&gt;Node4</title>
<g id="a_edge3_Node000001_Node000004"><a xlink:title=" ">
<path fill="none" stroke="#63b8ff" d="M153.75,-59.83C145.84,-58.77 137.63,-57.67 129.55,-56.58"/>
<polygon fill="#63b8ff" stroke="#63b8ff" points="153.18,-63.29 163.55,-61.15 154.11,-56.35 153.18,-63.29"/>
</a>
</g>
</g>
<!-- Node5 -->
<g id="Node000005" class="node">
<title>Node5</title>
<g id="a_Node000005"><a xlink:href="class_lo_ra_class.html#aae3ff6ac6b8e2150f3fa5975f391738b" target="_top" xlink:title=" ">
<polygon fill="white" stroke="#666666" points="116.88,-20 12.38,-20 12.38,0 116.88,0 116.88,-20"/>
<text text-anchor="middle" x="64.62" y="-6.5" font-family="Helvetica,sans-Serif" font-size="10.00">LoRaClass::setGain</text>
</a>
</g>
</g>
<!-- Node1&#45;&gt;Node5 -->
<g id="edge4_Node000001_Node000005" class="edge">
<title>Node1&#45;&gt;Node5</title>
<g id="a_edge4_Node000001_Node000005"><a xlink:title=" ">
<path fill="none" stroke="#63b8ff" d="M178.16,-51.46C163.71,-44.07 145.83,-35.47 129.25,-29 121.3,-25.9 112.63,-23 104.32,-20.45"/>
<polygon fill="#63b8ff" stroke="#63b8ff" points="176.17,-54.37 186.65,-55.87 179.39,-48.16 176.17,-54.37"/>
</a>
</g>
</g>
</g>
</svg>
