<?xml version="1.0" encoding="UTF-8" standalone="no"?>
<!DOCTYPE svg PUBLIC "-//W3C//DTD SVG 1.1//EN"
 "http://www.w3.org/Graphics/SVG/1.1/DTD/svg11.dtd">
<!-- Generated by graphviz version 12.2.1 (20241206.2353)
 -->
<!-- Title: LoRaClass::setSpreadingFactor Pages: 1 -->
<svg width="842pt" height="138pt"
 viewBox="0.00 0.00 841.75 138.38" xmlns="http://www.w3.org/2000/svg" xmlns:xlink="http://www.w3.org/1999/xlink">
<g id="graph0" class="graph" transform="scale(1 1) rotate(0) translate(4 134.38)">
<title>LoRaClass::setSpreadingFactor</title>
<!-- Node1 -->
<g id="Node000001" class="node">
<title>Node1</title>
<g id="a_Node000001"><a xlink:title=" ">
<polygon fill="#999999" stroke="#666666" points="155.5,-87 0,-87 0,-67 155.5,-67 155.5,-87"/>
<text text-anchor="middle" x="77.75" y="-73.5" font-family="Helvetica,sans-Serif" font-size="10.00">LoRaClass::setSpreadingFactor</text>
</a>
</g>
</g>
<!-- Node2 -->
<g id="Node000002" class="node">
<title>Node2</title>
<g id="a_Node000002"><a xlink:href="class_lo_ra_class.html#add581bfe66dd75108e22b18a4d6f89bf" target="_top" xlink:title=" ">
<polygon fill="white" stroke="#666666" points="665.5,-96 539.25,-96 539.25,-76 665.5,-76 665.5,-96"/>
<text text-anchor="middle" x="602.38" y="-82.5" font-family="Helvetica,sans-Serif" font-size="10.00">LoRaClass::readRegister</text>
</a>
</g>
</g>
<!-- Node1&#45;&gt;Node2 -->
<g id="edge1_Node000001_Node000002" class="edge">
<title>Node1&#45;&gt;Node2</title>
<g id="a_edge1_Node000001_Node000002"><a xlink:title=" ">
<path fill="none" stroke="#63b8ff" d="M114.21,-87.44C187.38,-107.53 360.23,-147.41 503.25,-122 526.1,-117.94 550.61,-108.95 569.42,-100.97"/>
<polygon fill="#63b8ff" stroke="#63b8ff" points="570.64,-104.26 578.39,-97.04 567.83,-97.85 570.64,-104.26"/>
</a>
</g>
</g>
<!-- Node4 -->
<g id="Node000004" class="node">
<title>Node4</title>
<g id="a_Node000004"><a xlink:href="class_lo_ra_class.html#aa299808b2da9819eded073c84e1b219e" target="_top" xlink:title=" ">
<polygon fill="white" stroke="#666666" points="310.25,-87 191.5,-87 191.5,-67 310.25,-67 310.25,-87"/>
<text text-anchor="middle" x="250.88" y="-73.5" font-family="Helvetica,sans-Serif" font-size="10.00">LoRaClass::setLdoFlag</text>
</a>
</g>
</g>
<!-- Node1&#45;&gt;Node4 -->
<g id="edge3_Node000001_Node000004" class="edge">
<title>Node1&#45;&gt;Node4</title>
<g id="a_edge3_Node000001_Node000004"><a xlink:title=" ">
<path fill="none" stroke="#63b8ff" d="M155.8,-77C163.79,-77 171.88,-77 179.78,-77"/>
<polygon fill="#63b8ff" stroke="#63b8ff" points="179.69,-80.5 189.69,-77 179.69,-73.5 179.69,-80.5"/>
</a>
</g>
</g>
<!-- Node7 -->
<g id="Node000007" class="node">
<title>Node7</title>
<g id="a_Node000007"><a xlink:href="class_lo_ra_class.html#a77e7c77aa54174b352a26e1510f66f98" target="_top" xlink:title=" ">
<polygon fill="white" stroke="#666666" points="489,-20 360.5,-20 360.5,0 489,0 489,-20"/>
<text text-anchor="middle" x="424.75" y="-6.5" font-family="Helvetica,sans-Serif" font-size="10.00">LoRaClass::writeRegister</text>
</a>
</g>
</g>
<!-- Node1&#45;&gt;Node7 -->
<g id="edge11_Node000001_Node000007" class="edge">
<title>Node1&#45;&gt;Node7</title>
<g id="a_edge11_Node000001_Node000007"><a xlink:title=" ">
<path fill="none" stroke="#63b8ff" d="M132.66,-66.53C193.84,-54.65 293.59,-35.28 358.95,-22.58"/>
<polygon fill="#63b8ff" stroke="#63b8ff" points="359.3,-26.08 368.45,-20.74 357.97,-19.21 359.3,-26.08"/>
</a>
</g>
</g>
<!-- Node3 -->
<g id="Node000003" class="node">
<title>Node3</title>
<g id="a_Node000003"><a xlink:href="class_lo_ra_class.html#a3a0c0649c595b1176b5fb1ae41210ee3" target="_top" xlink:title=" ">
<polygon fill="white" stroke="#666666" points="833.75,-58 701.5,-58 701.5,-38 833.75,-38 833.75,-58"/>
<text text-anchor="middle" x="767.62" y="-44.5" font-family="Helvetica,sans-Serif" font-size="10.00">LoRaClass::singleTransfer</text>
</a>
</g>
</g>
<!-- Node2&#45;&gt;Node3 -->
<g id="edge2_Node000002_Node000003" class="edge">
<title>Node2&#45;&gt;Node3</title>
<g id="a_edge2_Node000002_Node000003"><a xlink:title=" ">
<path fill="none" stroke="#63b8ff" d="M648.42,-75.52C667.69,-71.03 690.39,-65.75 710.72,-61.01"/>
<polygon fill="#63b8ff" stroke="#63b8ff" points="711.31,-64.47 720.26,-58.79 709.72,-57.65 711.31,-64.47"/>
</a>
</g>
</g>
<!-- Node4&#45;&gt;Node2 -->
<g id="edge8_Node000004_Node000002" class="edge">
<title>Node4&#45;&gt;Node2</title>
<g id="a_edge8_Node000004_Node000002"><a xlink:title=" ">
<path fill="none" stroke="#63b8ff" d="M279.48,-87.49C298.05,-93.97 323.25,-101.66 346.25,-105 415.3,-115.03 433.79,-111.66 503.25,-105 517.29,-103.65 532.3,-101.25 546.26,-98.59"/>
<polygon fill="#63b8ff" stroke="#63b8ff" points="546.57,-102.09 555.7,-96.71 545.21,-95.23 546.57,-102.09"/>
</a>
</g>
</g>
<!-- Node5 -->
<g id="Node000005" class="node">
<title>Node5</title>
<g id="a_Node000005"><a xlink:href="class_lo_ra_class.html#a810b0f66f8589f7bcbbe08ce80f41959" target="_top" xlink:title=" ">
<polygon fill="white" stroke="#666666" points="503.25,-96 346.25,-96 346.25,-76 503.25,-76 503.25,-96"/>
<text text-anchor="middle" x="424.75" y="-82.5" font-family="Helvetica,sans-Serif" font-size="10.00">LoRaClass::getSignalBandwidth</text>
</a>
</g>
</g>
<!-- Node4&#45;&gt;Node5 -->
<g id="edge4_Node000004_Node000005" class="edge">
<title>Node4&#45;&gt;Node5</title>
<g id="a_edge4_Node000004_Node000005"><a xlink:title=" ">
<path fill="none" stroke="#63b8ff" d="M310.54,-80.07C318.28,-80.48 326.34,-80.9 334.44,-81.32"/>
<polygon fill="#63b8ff" stroke="#63b8ff" points="334.21,-84.82 344.38,-81.84 334.58,-77.83 334.21,-84.82"/>
</a>
</g>
</g>
<!-- Node6 -->
<g id="Node000006" class="node">
<title>Node6</title>
<g id="a_Node000006"><a xlink:href="class_lo_ra_class.html#aa1b8dc4023526ec67c852555e6ed2593" target="_top" xlink:title=" ">
<polygon fill="white" stroke="#666666" points="502.5,-58 347,-58 347,-38 502.5,-38 502.5,-58"/>
<text text-anchor="middle" x="424.75" y="-44.5" font-family="Helvetica,sans-Serif" font-size="10.00">LoRaClass::getSpreadingFactor</text>
</a>
</g>
</g>
<!-- Node4&#45;&gt;Node6 -->
<g id="edge6_Node000004_Node000006" class="edge">
<title>Node4&#45;&gt;Node6</title>
<g id="a_edge6_Node000004_Node000006"><a xlink:title=" ">
<path fill="none" stroke="#63b8ff" d="M310.54,-67.1C323.38,-64.93 337.13,-62.62 350.46,-60.37"/>
<polygon fill="#63b8ff" stroke="#63b8ff" points="350.76,-63.86 360.04,-58.75 349.6,-56.96 350.76,-63.86"/>
</a>
</g>
</g>
<!-- Node4&#45;&gt;Node7 -->
<g id="edge9_Node000004_Node000007" class="edge">
<title>Node4&#45;&gt;Node7</title>
<g id="a_edge9_Node000004_Node000007"><a xlink:title=" ">
<path fill="none" stroke="#63b8ff" d="M269.41,-66.53C287.96,-55.83 318.33,-39.36 346.25,-29 351.55,-27.03 357.13,-25.21 362.77,-23.53"/>
<polygon fill="#63b8ff" stroke="#63b8ff" points="363.48,-26.97 372.17,-20.9 361.59,-20.23 363.48,-26.97"/>
</a>
</g>
</g>
<!-- Node5&#45;&gt;Node2 -->
<g id="edge5_Node000005_Node000002" class="edge">
<title>Node5&#45;&gt;Node2</title>
<g id="a_edge5_Node000005_Node000002"><a xlink:title=" ">
<path fill="none" stroke="#63b8ff" d="M503.55,-86C511.5,-86 519.56,-86 527.47,-86"/>
<polygon fill="#63b8ff" stroke="#63b8ff" points="527.41,-89.5 537.41,-86 527.41,-82.5 527.41,-89.5"/>
</a>
</g>
</g>
<!-- Node6&#45;&gt;Node2 -->
<g id="edge7_Node000006_Node000002" class="edge">
<title>Node6&#45;&gt;Node2</title>
<g id="a_edge7_Node000006_Node000002"><a xlink:title=" ">
<path fill="none" stroke="#63b8ff" d="M474.21,-58.48C495.13,-63.01 519.81,-68.35 541.84,-73.12"/>
<polygon fill="#63b8ff" stroke="#63b8ff" points="541.08,-76.54 551.6,-75.23 542.56,-69.69 541.08,-76.54"/>
</a>
</g>
</g>
<!-- Node7&#45;&gt;Node3 -->
<g id="edge10_Node000007_Node000003" class="edge">
<title>Node7&#45;&gt;Node3</title>
<g id="a_edge10_Node000007_Node000003"><a xlink:title=" ">
<path fill="none" stroke="#63b8ff" d="M489.47,-17.1C546.22,-23.43 629.39,-32.7 689.81,-39.44"/>
<polygon fill="#63b8ff" stroke="#63b8ff" points="689.36,-42.91 699.69,-40.54 690.14,-35.95 689.36,-42.91"/>
</a>
</g>
</g>
</g>
</svg>
