<?xml version="1.0" encoding="UTF-8" standalone="no"?>
<!DOCTYPE svg PUBLIC "-//W3C//DTD SVG 1.1//EN"
 "http://www.w3.org/Graphics/SVG/1.1/DTD/svg11.dtd">
<!-- Generated by graphviz version 12.2.1 (20241206.2353)
 -->
<!-- Title: INA3221::_write Pages: 1 -->
<!--zoomable 468 -->

<svg id="main" version="1.1" xmlns="http://www.w3.org/2000/svg" xmlns:xlink="http://www.w3.org/1999/xlink" xml:space="preserve" onload="init(evt)">

<style type="text/css"><![CDATA[
.node, .edge {opacity: 0.7;}
.node.selected, .edge.selected {opacity: 1;}
.edge:hover path { stroke: red; }
.edge:hover polygon { stroke: red; fill: red; }
]]></style>

<defs>
  <circle id="rim" cx="0" cy="0" r="7"/>
  <circle id="rim2" cx="0" cy="0" r="3.5"/>
  <g id="zoomPlus">
    <use xlink:href="#rim" fill="#404040"><set attributeName="fill" to="#808080" begin="zoomplus.mouseover" end="zoomplus.mouseout"/></use>
    <path d="M-4,0h8M0,-4v8" fill="none" stroke="white" stroke-width="1.5" pointer-events="none"/>
  </g>
  <g id="zoomMin">
    <use xlink:href="#rim" fill="#404040"><set attributeName="fill" to="#808080" begin="zoomminus.mouseover" end="zoomminus.mouseout"/></use>
    <path d="M-4,0h8" fill="none" stroke="white" stroke-width="1.5" pointer-events="none"/>
  </g>
  <g id="arrowUp" transform="translate(30 24)">
    <use xlink:href="#rim"/>
    <path pointer-events="none" fill="none" stroke="white" stroke-width="1.5" d="M0,-3.0v7 M-2.5,-0.5L0,-3.0L2.5,-0.5"/>
  </g>
  <g id="arrowRight" transform="rotate(90) translate(36 -43)">
    <use xlink:href="#rim"/>
    <path pointer-events="none" fill="none" stroke="white" stroke-width="1.5" d="M0,-3.0v7 M-2.5,-0.5L0,-3.0L2.5,-0.5"/>
  </g>
  <g id="arrowDown" transform="rotate(180) translate(-30 -48)">
    <use xlink:href="#rim"/>
    <path pointer-events="none" fill="none" stroke="white" stroke-width="1.5" d="M0,-3.0v7 M-2.5,-0.5L0,-3.0L2.5,-0.5"/>
  </g>
  <g id="arrowLeft" transform="rotate(270) translate(-36 17)">
    <use xlink:href="#rim"/>
    <path pointer-events="none" fill="none" stroke="white" stroke-width="1.5" d="M0,-3.0v7 M-2.5,-0.5L0,-3.0L2.5,-0.5"/>
  </g>
  <g id="resetDef">
    <use xlink:href="#rim2" fill="#404040"><set attributeName="fill" to="#808080" begin="reset.mouseover" end="reset.mouseout"/></use>
  </g>
</defs>
<script type="application/ecmascript">
var viewWidth = 302;
var viewHeight = 468;
var sectionId = 'dynsection-2';
</script>
<script type="application/ecmascript" xlink:href="svg.min.js"/>
<svg id="graph" class="graph">
<g id="viewport">
<title>INA3221::_write</title>
<!-- Node1 -->
<g id="Node000001" class="node">
<title>Node1</title>
<g id="a_Node000001"><a xlink:title=" ">
<polygon fill="#999999" stroke="#666666" points="293.75,-246 207.25,-246 207.25,-226 293.75,-226 293.75,-246"/>
<text text-anchor="middle" x="250.5" y="-232.5" font-family="Helvetica,sans-Serif" font-size="10.00">INA3221::_write</text>
</a>
</g>
</g>
<!-- Node2 -->
<g id="Node000002" class="node">
<title>Node2</title>
<g id="a_Node000002"><a xlink:href="class_i_n_a3221.html#ae6c7cc5bf50be137d0fe29c28e830d40" target="_top" xlink:title=" ">
<polygon fill="white" stroke="#666666" points="126.62,-460 44.62,-460 44.62,-440 126.62,-440 126.62,-460"/>
<text text-anchor="middle" x="85.62" y="-446.5" font-family="Helvetica,sans-Serif" font-size="10.00">INA3221::reset</text>
</a>
</g>
</g>
<!-- Node1&#45;&gt;Node2 -->
<g id="edge1_Node000001_Node000002" class="edge">
<title>Node1&#45;&gt;Node2</title>
<g id="a_edge1_Node000001_Node000002"><a xlink:title=" ">
<path fill="none" stroke="#63b8ff" d="M247.33,-257.57C242.05,-298.06 224.76,-385.47 171.25,-431 158.98,-441.44 142.18,-446.47 126.79,-448.79"/>
<polygon fill="#63b8ff" stroke="#63b8ff" points="250.77,-258.24 248.45,-247.9 243.82,-257.43 250.77,-258.24"/>
</a>
</g>
</g>
<!-- Node3 -->
<g id="Node000003" class="node">
<title>Node3</title>
<g id="a_Node000003"><a xlink:href="class_i_n_a3221.html#a5b525cfdf35573f8b3186219fd481b51" target="_top" xlink:title=" ">
<polygon fill="white" stroke="#666666" points="160.75,-422 10.5,-422 10.5,-402 160.75,-402 160.75,-422"/>
<text text-anchor="middle" x="85.62" y="-408.5" font-family="Helvetica,sans-Serif" font-size="10.00">INA3221::set_averaging_mode</text>
</a>
</g>
</g>
<!-- Node1&#45;&gt;Node3 -->
<g id="edge2_Node000001_Node000003" class="edge">
<title>Node1&#45;&gt;Node3</title>
<g id="a_edge2_Node000001_Node000003"><a xlink:title=" ">
<path fill="none" stroke="#63b8ff" d="M245.05,-257.37C236.77,-291.55 215.66,-358.2 171.25,-393 166.86,-396.44 161.98,-399.28 156.83,-401.62"/>
<polygon fill="#63b8ff" stroke="#63b8ff" points="248.41,-258.37 247.2,-247.84 241.58,-256.83 248.41,-258.37"/>
</a>
</g>
</g>
<!-- Node4 -->
<g id="Node000004" class="node">
<title>Node4</title>
<g id="a_Node000004"><a xlink:href="class_i_n_a3221.html#ac7fec9630c6d9fda2fa5230f46e200c7" target="_top" xlink:title=" ">
<polygon fill="white" stroke="#666666" points="171.25,-384 0,-384 0,-364 171.25,-364 171.25,-384"/>
<text text-anchor="middle" x="85.62" y="-370.5" font-family="Helvetica,sans-Serif" font-size="10.00">INA3221::set_bus_conversion_time</text>
</a>
</g>
</g>
<!-- Node1&#45;&gt;Node4 -->
<g id="edge3_Node000001_Node000004" class="edge">
<title>Node1&#45;&gt;Node4</title>
<g id="a_edge3_Node000001_Node000004"><a xlink:title=" ">
<path fill="none" stroke="#63b8ff" d="M241.66,-256.77C230.36,-283.77 206.86,-330.38 171.25,-355 166.3,-358.43 160.82,-361.24 155.12,-363.56"/>
<polygon fill="#63b8ff" stroke="#63b8ff" points="244.86,-258.19 245.32,-247.61 238.36,-255.6 244.86,-258.19"/>
</a>
</g>
</g>
<!-- Node5 -->
<g id="Node000005" class="node">
<title>Node5</title>
<g id="a_Node000005"><a xlink:href="class_i_n_a3221.html#a40d79ef9f6d3c2b9f9796827a87f575b" target="_top" xlink:title=" ">
<polygon fill="white" stroke="#666666" points="165.25,-346 6,-346 6,-314 165.25,-314 165.25,-346"/>
<text text-anchor="start" x="14" y="-332.5" font-family="Helvetica,sans-Serif" font-size="10.00">INA3221::set_bus_measurement</text>
<text text-anchor="middle" x="85.62" y="-320.5" font-family="Helvetica,sans-Serif" font-size="10.00">_disable</text>
</a>
</g>
</g>
<!-- Node1&#45;&gt;Node5 -->
<g id="edge4_Node000001_Node000005" class="edge">
<title>Node1&#45;&gt;Node5</title>
<g id="a_edge4_Node000001_Node000005"><a xlink:title=" ">
<path fill="none" stroke="#63b8ff" d="M232.73,-254.79C217.95,-270.29 195.1,-291.82 171.25,-305 165.35,-308.26 158.98,-311.14 152.47,-313.67"/>
<polygon fill="#63b8ff" stroke="#63b8ff" points="235.19,-257.29 239.42,-247.57 230.05,-252.53 235.19,-257.29"/>
</a>
</g>
</g>
<!-- Node6 -->
<g id="Node000006" class="node">
<title>Node6</title>
<g id="a_Node000006"><a xlink:href="class_i_n_a3221.html#aa2e0a1279f52db17f9167efb7cb2f64b" target="_top" xlink:title=" ">
<polygon fill="white" stroke="#666666" points="165.25,-296 6,-296 6,-264 165.25,-264 165.25,-296"/>
<text text-anchor="start" x="14" y="-282.5" font-family="Helvetica,sans-Serif" font-size="10.00">INA3221::set_bus_measurement</text>
<text text-anchor="middle" x="85.62" y="-270.5" font-family="Helvetica,sans-Serif" font-size="10.00">_enable</text>
</a>
</g>
</g>
<!-- Node1&#45;&gt;Node6 -->
<g id="edge5_Node000001_Node000006" class="edge">
<title>Node1&#45;&gt;Node6</title>
<g id="a_edge5_Node000001_Node000006"><a xlink:title=" ">
<path fill="none" stroke="#63b8ff" d="M199.85,-249.41C183.36,-253.87 164.8,-258.88 147.55,-263.54"/>
<polygon fill="#63b8ff" stroke="#63b8ff" points="200.7,-252.81 209.44,-246.82 198.87,-246.05 200.7,-252.81"/>
</a>
</g>
</g>
<!-- Node7 -->
<g id="Node000007" class="node">
<title>Node7</title>
<g id="a_Node000007"><a xlink:href="class_i_n_a3221.html#a8663b152a156459c15aa258f27d15034" target="_top" xlink:title=" ">
<polygon fill="white" stroke="#666666" points="163.38,-246 7.88,-246 7.88,-226 163.38,-226 163.38,-246"/>
<text text-anchor="middle" x="85.62" y="-232.5" font-family="Helvetica,sans-Serif" font-size="10.00">INA3221::set_mode_continuous</text>
</a>
</g>
</g>
<!-- Node1&#45;&gt;Node7 -->
<g id="edge6_Node000001_Node000007" class="edge">
<title>Node1&#45;&gt;Node7</title>
<g id="a_edge6_Node000001_Node000007"><a xlink:title=" ">
<path fill="none" stroke="#63b8ff" d="M195.86,-236C185.59,-236 174.65,-236 163.81,-236"/>
<polygon fill="#63b8ff" stroke="#63b8ff" points="195.62,-239.5 205.62,-236 195.62,-232.5 195.62,-239.5"/>
</a>
</g>
</g>
<!-- Node8 -->
<g id="Node000008" class="node">
<title>Node8</title>
<g id="a_Node000008"><a xlink:href="class_i_n_a3221.html#ab123176a3d1b1640fc78775121322d83" target="_top" xlink:title=" ">
<polygon fill="white" stroke="#666666" points="167.12,-208 4.12,-208 4.12,-188 167.12,-188 167.12,-208"/>
<text text-anchor="middle" x="85.62" y="-194.5" font-family="Helvetica,sans-Serif" font-size="10.00">INA3221::set_mode_power_down</text>
</a>
</g>
</g>
<!-- Node1&#45;&gt;Node8 -->
<g id="edge7_Node000001_Node000008" class="edge">
<title>Node1&#45;&gt;Node8</title>
<g id="a_edge7_Node000001_Node000008"><a xlink:title=" ">
<path fill="none" stroke="#63b8ff" d="M195.83,-222.84C187.61,-220.86 179.21,-218.86 171.25,-217 159.08,-214.16 145.91,-211.16 133.66,-208.41"/>
<polygon fill="#63b8ff" stroke="#63b8ff" points="194.88,-226.21 205.42,-225.16 196.52,-219.4 194.88,-226.21"/>
</a>
</g>
</g>
<!-- Node9 -->
<g id="Node000009" class="node">
<title>Node9</title>
<g id="a_Node000009"><a xlink:href="class_i_n_a3221.html#a270f86fd739541bb5d4495e3d93e5d0e" target="_top" xlink:title=" ">
<polygon fill="white" stroke="#666666" points="158.5,-170 12.75,-170 12.75,-150 158.5,-150 158.5,-170"/>
<text text-anchor="middle" x="85.62" y="-156.5" font-family="Helvetica,sans-Serif" font-size="10.00">INA3221::set_mode_triggered</text>
</a>
</g>
</g>
<!-- Node1&#45;&gt;Node9 -->
<g id="edge8_Node000001_Node000009" class="edge">
<title>Node1&#45;&gt;Node9</title>
<g id="a_edge8_Node000001_Node000009"><a xlink:title=" ">
<path fill="none" stroke="#63b8ff" d="M230.36,-218.57C215.33,-205.79 193.31,-188.99 171.25,-179 163.71,-175.58 155.5,-172.76 147.26,-170.43"/>
<polygon fill="#63b8ff" stroke="#63b8ff" points="227.79,-220.97 237.62,-224.92 232.39,-215.7 227.79,-220.97"/>
</a>
</g>
</g>
<!-- Node10 -->
<g id="Node000010" class="node">
<title>Node10</title>
<g id="a_Node000010"><a xlink:href="class_i_n_a3221.html#a96a07644259d702ec5b8d8b5f08b991f" target="_top" xlink:title=" ">
<polygon fill="white" stroke="#666666" points="137.12,-132 34.12,-132 34.12,-100 137.12,-100 137.12,-132"/>
<text text-anchor="start" x="42.12" y="-118.5" font-family="Helvetica,sans-Serif" font-size="10.00">INA3221::set_shunt</text>
<text text-anchor="middle" x="85.62" y="-106.5" font-family="Helvetica,sans-Serif" font-size="10.00">_conversion_time</text>
</a>
</g>
</g>
<!-- Node1&#45;&gt;Node10 -->
<g id="edge9_Node000001_Node000010" class="edge">
<title>Node1&#45;&gt;Node10</title>
<g id="a_edge9_Node000001_Node000010"><a xlink:title=" ">
<path fill="none" stroke="#63b8ff" d="M238.04,-215.94C224.69,-194.34 200.67,-160.47 171.25,-141 161.16,-134.32 149.23,-129.38 137.57,-125.75"/>
<polygon fill="#63b8ff" stroke="#63b8ff" points="234.96,-217.61 243.09,-224.41 240.97,-214.02 234.96,-217.61"/>
</a>
</g>
</g>
<!-- Node11 -->
<g id="Node000011" class="node">
<title>Node11</title>
<g id="a_Node000011"><a xlink:href="class_i_n_a3221.html#af2e57e6c71e170300cc1966ea69e112a" target="_top" xlink:title=" ">
<polygon fill="white" stroke="#666666" points="143.88,-82 27.38,-82 27.38,-50 143.88,-50 143.88,-82"/>
<text text-anchor="start" x="35.38" y="-68.5" font-family="Helvetica,sans-Serif" font-size="10.00">INA3221::set_shunt</text>
<text text-anchor="middle" x="85.62" y="-56.5" font-family="Helvetica,sans-Serif" font-size="10.00">_measurement_disable</text>
</a>
</g>
</g>
<!-- Node1&#45;&gt;Node11 -->
<g id="edge10_Node000001_Node000011" class="edge">
<title>Node1&#45;&gt;Node11</title>
<g id="a_edge10_Node000001_Node000011"><a xlink:title=" ">
<path fill="none" stroke="#63b8ff" d="M243.78,-214.81C234.14,-183.16 211.65,-123.78 171.25,-91 163.4,-84.63 153.97,-79.88 144.3,-76.34"/>
<polygon fill="#63b8ff" stroke="#63b8ff" points="240.4,-215.72 246.53,-224.36 247.12,-213.78 240.4,-215.72"/>
</a>
</g>
</g>
<!-- Node12 -->
<g id="Node000012" class="node">
<title>Node12</title>
<g id="a_Node000012"><a xlink:href="class_i_n_a3221.html#aaf37673d73bd189d1d789072a1e90f3c" target="_top" xlink:title=" ">
<polygon fill="white" stroke="#666666" points="142.75,-32 28.5,-32 28.5,0 142.75,0 142.75,-32"/>
<text text-anchor="start" x="36.5" y="-18.5" font-family="Helvetica,sans-Serif" font-size="10.00">INA3221::set_shunt</text>
<text text-anchor="middle" x="85.62" y="-6.5" font-family="Helvetica,sans-Serif" font-size="10.00">_measurement_enable</text>
</a>
</g>
</g>
<!-- Node1&#45;&gt;Node12 -->
<g id="edge11_Node000001_Node000012" class="edge">
<title>Node1&#45;&gt;Node12</title>
<g id="a_edge11_Node000001_Node000012"><a xlink:title=" ">
<path fill="none" stroke="#63b8ff" d="M247,-214.49C241.21,-174.43 223.11,-88.18 171.25,-41 163.32,-33.78 153.4,-28.64 143.17,-24.99"/>
<polygon fill="#63b8ff" stroke="#63b8ff" points="243.52,-214.81 248.29,-224.27 250.46,-213.9 243.52,-214.81"/>
</a>
</g>
</g>
</g>
</svg>

<g id="navigator" transform="translate(0 0)" fill="#404254">
  <rect fill="#f2f5e9" fill-opacity="0.5" stroke="#606060" stroke-width=".5" x="0" y="0" width="60" height="60"/>
  <use id="zoomplus" xlink:href="#zoomPlus" x="17" y="9" onmousedown="handleZoom(evt,'in')"/>
  <use id="zoomminus" xlink:href="#zoomMin" x="42" y="9" onmousedown="handleZoom(evt,'out')"/>
  <use id="reset" xlink:href="#resetDef" x="30" y="36" onmousedown="handleReset()"/>
   <use id="arrowup" xlink:href="#arrowUp" x="0" y="0" onmousedown="handlePan(0,-1)"/>
  <use id="arrowright" xlink:href="#arrowRight" x="0" y="0" onmousedown="handlePan(1,0)"/>
  <use id="arrowdown" xlink:href="#arrowDown" x="0" y="0" onmousedown="handlePan(0,1)"/>
  <use id="arrowleft" xlink:href="#arrowLeft" x="0" y="0" onmousedown="handlePan(-1,0)"/>
</g>
<svg viewBox="0 0 15 15" width="100%" height="30px" preserveAspectRatio="xMaxYMin meet">
 <g id="arrow_out" transform="scale(0.3 0.3)">
  <a xlink:href="class_i_n_a3221_aea00c9c6baf85bd94794ee7b3b47d2c7_icgraph_org.svg" target="_base">
   <rect id="button" ry="5" rx="5" y="6" x="6" height="38" width="38"
        fill="#f2f5e9" fill-opacity="0.5" stroke="#606060" stroke-width="1.0"/>
   <path id="arrow"
     d="M 11.500037,31.436501 C 11.940474,20.09759 22.043105,11.32322 32.158766,21.979434 L 37.068811,17.246167 C 37.068811,17.246167 37.088388,32 37.088388,32 L 22.160133,31.978069 C 22.160133,31.978069 26.997745,27.140456 26.997745,27.140456 C 18.528582,18.264221 13.291696,25.230495 11.500037,31.436501 z"
     style="fill:#404040;"/>
  </a>
 </g>
</svg>

<style type='text/css'>
<![CDATA[
[data-mouse-over-selected='false'] { opacity: 0.7; }
[data-mouse-over-selected='true']  { opacity: 1.0; }
]]>
</style>
<script type="application/ecmascript"><![CDATA[
document.addEventListener('DOMContentLoaded', (event) => {
  highlightEdges();
  highlightAdjacentNodes();
});
]]></script>
</svg>
