<?xml version="1.0" encoding="UTF-8" standalone="no"?>
<!DOCTYPE svg PUBLIC "-//W3C//DTD SVG 1.1//EN"
 "http://www.w3.org/Graphics/SVG/1.1/DTD/svg11.dtd">
<!-- Generated by graphviz version 12.2.1 (20241206.2353)
 -->
<!-- Title: LoRaClass::parse_packet Pages: 1 -->
<svg width="663pt" height="145pt"
 viewBox="0.00 0.00 663.00 145.33" xmlns="http://www.w3.org/2000/svg" xmlns:xlink="http://www.w3.org/1999/xlink">
<g id="graph0" class="graph" transform="scale(1 1) rotate(0) translate(4 141.33)">
<title>LoRaClass::parse_packet</title>
<!-- Node1 -->
<g id="Node000001" class="node">
<title>Node1</title>
<g id="a_Node000001"><a xlink:title=" ">
<polygon fill="#999999" stroke="#666666" points="129.25,-80.47 0,-80.47 0,-60.47 129.25,-60.47 129.25,-80.47"/>
<text text-anchor="middle" x="64.62" y="-66.97" font-family="Helvetica,sans-Serif" font-size="10.00">LoRaClass::parse_packet</text>
</a>
</g>
</g>
<!-- Node2 -->
<g id="Node000002" class="node">
<title>Node2</title>
<g id="a_Node000002"><a xlink:href="class_lo_ra_class.html#a691417e927af503dacaa797a1bb9527f" target="_top" xlink:title=" ">
<polygon fill="white" stroke="#666666" points="322.25,-80.47 165.25,-80.47 165.25,-60.47 322.25,-60.47 322.25,-80.47"/>
<text text-anchor="middle" x="243.75" y="-66.97" font-family="Helvetica,sans-Serif" font-size="10.00">LoRaClass::explicitHeaderMode</text>
</a>
</g>
</g>
<!-- Node1&#45;&gt;Node2 -->
<g id="edge1_Node000001_Node000002" class="edge">
<title>Node1&#45;&gt;Node2</title>
<g id="a_edge1_Node000001_Node000002"><a xlink:title=" ">
<path fill="none" stroke="#63b8ff" d="M129.57,-70.47C137.38,-70.47 145.47,-70.47 153.57,-70.47"/>
<polygon fill="#63b8ff" stroke="#63b8ff" points="153.48,-73.97 163.48,-70.47 153.48,-66.97 153.48,-73.97"/>
</a>
</g>
</g>
<!-- Node3 -->
<g id="Node000003" class="node">
<title>Node3</title>
<g id="a_Node000003"><a xlink:href="class_lo_ra_class.html#add581bfe66dd75108e22b18a4d6f89bf" target="_top" xlink:title=" ">
<polygon fill="white" stroke="#666666" points="485.62,-118.47 359.38,-118.47 359.38,-98.47 485.62,-98.47 485.62,-118.47"/>
<text text-anchor="middle" x="422.5" y="-104.97" font-family="Helvetica,sans-Serif" font-size="10.00">LoRaClass::readRegister</text>
</a>
</g>
</g>
<!-- Node1&#45;&gt;Node3 -->
<g id="edge11_Node000001_Node000003" class="edge">
<title>Node1&#45;&gt;Node3</title>
<g id="a_edge11_Node000001_Node000003"><a xlink:title=" ">
<path fill="none" stroke="#63b8ff" d="M78.49,-80.82C96.59,-94.63 131.16,-118.41 165.25,-127.47 235.74,-146.21 320.72,-133.26 372.92,-121.46"/>
<polygon fill="#63b8ff" stroke="#63b8ff" points="373.46,-124.93 382.39,-119.24 371.86,-118.11 373.46,-124.93"/>
</a>
</g>
</g>
<!-- Node5 -->
<g id="Node000005" class="node">
<title>Node5</title>
<g id="a_Node000005"><a xlink:href="class_lo_ra_class.html#a77e7c77aa54174b352a26e1510f66f98" target="_top" xlink:title=" ">
<polygon fill="white" stroke="#666666" points="486.75,-80.47 358.25,-80.47 358.25,-60.47 486.75,-60.47 486.75,-80.47"/>
<text text-anchor="middle" x="422.5" y="-66.97" font-family="Helvetica,sans-Serif" font-size="10.00">LoRaClass::writeRegister</text>
</a>
</g>
</g>
<!-- Node1&#45;&gt;Node5 -->
<g id="edge12_Node000001_Node000005" class="edge">
<title>Node1&#45;&gt;Node5</title>
<g id="a_edge12_Node000001_Node000005"><a xlink:title=" ">
<path fill="none" stroke="#63b8ff" d="M78.49,-60.12C96.59,-46.31 131.16,-22.53 165.25,-13.47 232.69,4.46 254.83,4.51 322.25,-13.47 351.19,-21.19 380.46,-39.58 399.63,-53.4"/>
<polygon fill="#63b8ff" stroke="#63b8ff" points="397.36,-56.07 407.47,-59.22 401.53,-50.45 397.36,-56.07"/>
</a>
</g>
</g>
<!-- Node6 -->
<g id="Node000006" class="node">
<title>Node6</title>
<g id="a_Node000006"><a xlink:href="class_lo_ra_class.html#ab0397413dc995dedb08f2c560e79b01c" target="_top" xlink:title=" ">
<polygon fill="white" stroke="#666666" points="286.62,-42.47 200.88,-42.47 200.88,-22.47 286.62,-22.47 286.62,-42.47"/>
<text text-anchor="middle" x="243.75" y="-28.97" font-family="Helvetica,sans-Serif" font-size="10.00">LoRaClass::idle</text>
</a>
</g>
</g>
<!-- Node1&#45;&gt;Node6 -->
<g id="edge6_Node000001_Node000006" class="edge">
<title>Node1&#45;&gt;Node6</title>
<g id="a_edge6_Node000001_Node000006"><a xlink:title=" ">
<path fill="none" stroke="#63b8ff" d="M114.49,-59.99C137.83,-54.98 165.8,-48.98 189.66,-43.86"/>
<polygon fill="#63b8ff" stroke="#63b8ff" points="190.13,-47.34 199.17,-41.82 188.66,-40.49 190.13,-47.34"/>
</a>
</g>
</g>
<!-- Node7 -->
<g id="Node000007" class="node">
<title>Node7</title>
<g id="a_Node000007"><a xlink:href="class_lo_ra_class.html#ad06e31c18f7029e231d837a7eca7558e" target="_top" xlink:title=" ">
<polygon fill="white" stroke="#666666" points="322.25,-118.47 165.25,-118.47 165.25,-98.47 322.25,-98.47 322.25,-118.47"/>
<text text-anchor="middle" x="243.75" y="-104.97" font-family="Helvetica,sans-Serif" font-size="10.00">LoRaClass::implicitHeaderMode</text>
</a>
</g>
</g>
<!-- Node1&#45;&gt;Node7 -->
<g id="edge8_Node000001_Node000007" class="edge">
<title>Node1&#45;&gt;Node7</title>
<g id="a_edge8_Node000001_Node000007"><a xlink:title=" ">
<path fill="none" stroke="#63b8ff" d="M114.49,-80.95C135.69,-85.5 160.72,-90.87 183.01,-95.65"/>
<polygon fill="#63b8ff" stroke="#63b8ff" points="182.05,-99.03 192.56,-97.7 183.52,-92.18 182.05,-99.03"/>
</a>
</g>
</g>
<!-- Node2&#45;&gt;Node3 -->
<g id="edge2_Node000002_Node000003" class="edge">
<title>Node2&#45;&gt;Node3</title>
<g id="a_edge2_Node000002_Node000003"><a xlink:title=" ">
<path fill="none" stroke="#63b8ff" d="M293.52,-80.95C314.67,-85.5 339.64,-90.87 361.88,-95.65"/>
<polygon fill="#63b8ff" stroke="#63b8ff" points="360.9,-99.02 371.41,-97.7 362.37,-92.18 360.9,-99.02"/>
</a>
</g>
</g>
<!-- Node2&#45;&gt;Node5 -->
<g id="edge4_Node000002_Node000005" class="edge">
<title>Node2&#45;&gt;Node5</title>
<g id="a_edge4_Node000002_Node000005"><a xlink:title=" ">
<path fill="none" stroke="#63b8ff" d="M322.53,-70.47C330.5,-70.47 338.58,-70.47 346.51,-70.47"/>
<polygon fill="#63b8ff" stroke="#63b8ff" points="346.49,-73.97 356.49,-70.47 346.49,-66.97 346.49,-73.97"/>
</a>
</g>
</g>
<!-- Node4 -->
<g id="Node000004" class="node">
<title>Node4</title>
<g id="a_Node000004"><a xlink:href="class_lo_ra_class.html#a3a0c0649c595b1176b5fb1ae41210ee3" target="_top" xlink:title=" ">
<polygon fill="white" stroke="#666666" points="655,-99.47 522.75,-99.47 522.75,-79.47 655,-79.47 655,-99.47"/>
<text text-anchor="middle" x="588.88" y="-85.97" font-family="Helvetica,sans-Serif" font-size="10.00">LoRaClass::singleTransfer</text>
</a>
</g>
</g>
<!-- Node3&#45;&gt;Node4 -->
<g id="edge3_Node000003_Node000004" class="edge">
<title>Node3&#45;&gt;Node4</title>
<g id="a_edge3_Node000003_Node000004"><a xlink:title=" ">
<path fill="none" stroke="#63b8ff" d="M486.11,-101.23C494.28,-100.29 502.73,-99.31 511.1,-98.34"/>
<polygon fill="#63b8ff" stroke="#63b8ff" points="511.4,-101.83 520.93,-97.21 510.59,-94.88 511.4,-101.83"/>
</a>
</g>
</g>
<!-- Node5&#45;&gt;Node4 -->
<g id="edge5_Node000005_Node000004" class="edge">
<title>Node5&#45;&gt;Node4</title>
<g id="a_edge5_Node000005_Node000004"><a xlink:title=" ">
<path fill="none" stroke="#63b8ff" d="M487.05,-77.82C494.91,-78.72 503.01,-79.66 511.04,-80.59"/>
<polygon fill="#63b8ff" stroke="#63b8ff" points="510.48,-84.05 520.82,-81.72 511.28,-77.09 510.48,-84.05"/>
</a>
</g>
</g>
<!-- Node6&#45;&gt;Node5 -->
<g id="edge7_Node000006_Node000005" class="edge">
<title>Node6&#45;&gt;Node5</title>
<g id="a_edge7_Node000006_Node000005"><a xlink:title=" ">
<path fill="none" stroke="#63b8ff" d="M287.09,-41.57C309.49,-46.39 337.38,-52.38 361.93,-57.66"/>
<polygon fill="#63b8ff" stroke="#63b8ff" points="360.96,-61.03 371.47,-59.71 362.43,-54.19 360.96,-61.03"/>
</a>
</g>
</g>
<!-- Node7&#45;&gt;Node3 -->
<g id="edge9_Node000007_Node000003" class="edge">
<title>Node7&#45;&gt;Node3</title>
<g id="a_edge9_Node000007_Node000003"><a xlink:title=" ">
<path fill="none" stroke="#63b8ff" d="M322.53,-108.47C330.94,-108.47 339.47,-108.47 347.83,-108.47"/>
<polygon fill="#63b8ff" stroke="#63b8ff" points="347.56,-111.97 357.56,-108.47 347.56,-104.97 347.56,-111.97"/>
</a>
</g>
</g>
<!-- Node7&#45;&gt;Node5 -->
<g id="edge10_Node000007_Node000005" class="edge">
<title>Node7&#45;&gt;Node5</title>
<g id="a_edge10_Node000007_Node000005"><a xlink:title=" ">
<path fill="none" stroke="#63b8ff" d="M293.52,-97.99C314.67,-93.44 339.64,-88.07 361.88,-83.29"/>
<polygon fill="#63b8ff" stroke="#63b8ff" points="362.37,-86.76 371.41,-81.24 360.9,-79.92 362.37,-86.76"/>
</a>
</g>
</g>
</g>
</svg>
