<?xml version="1.0" encoding="UTF-8" standalone="no"?>
<!DOCTYPE svg PUBLIC "-//W3C//DTD SVG 1.1//EN"
 "http://www.w3.org/Graphics/SVG/1.1/DTD/svg11.dtd">
<!-- Generated by graphviz version 12.2.1 (20241206.2353)
 -->
<!-- Title: DS3231::getTimeUnixLocal Pages: 1 -->
<svg width="584pt" height="66pt"
 viewBox="0.00 0.00 584.25 66.00" xmlns="http://www.w3.org/2000/svg" xmlns:xlink="http://www.w3.org/1999/xlink">
<g id="graph0" class="graph" transform="scale(1 1) rotate(0) translate(4 62)">
<title>DS3231::getTimeUnixLocal</title>
<!-- Node1 -->
<g id="Node000001" class="node">
<title>Node1</title>
<g id="a_Node000001"><a xlink:title=" ">
<polygon fill="#999999" stroke="#666666" points="136,-39 0,-39 0,-19 136,-19 136,-39"/>
<text text-anchor="middle" x="68" y="-25.5" font-family="Helvetica,sans-Serif" font-size="10.00">DS3231::getTimeUnixLocal</text>
</a>
</g>
</g>
<!-- Node2 -->
<g id="Node000002" class="node">
<title>Node2</title>
<g id="a_Node000002"><a xlink:href="class_d_s3231.html#a93399e0145a53c558e316f6f95a20679" target="_top" xlink:title=" ">
<polygon fill="white" stroke="#666666" points="284.75,-39 172,-39 172,-19 284.75,-19 284.75,-39"/>
<text text-anchor="middle" x="228.38" y="-25.5" font-family="Helvetica,sans-Serif" font-size="10.00">DS3231::getTimeUnix</text>
</a>
</g>
</g>
<!-- Node1&#45;&gt;Node2 -->
<g id="edge1_Node000001_Node000002" class="edge">
<title>Node1&#45;&gt;Node2</title>
<g id="a_edge1_Node000001_Node000002"><a xlink:title=" ">
<path fill="none" stroke="#63b8ff" d="M136.17,-29C144.1,-29 152.19,-29 160.12,-29"/>
<polygon fill="#63b8ff" stroke="#63b8ff" points="160.07,-32.5 170.07,-29 160.07,-25.5 160.07,-32.5"/>
</a>
</g>
</g>
<!-- Node3 -->
<g id="Node000003" class="node">
<title>Node3</title>
<g id="a_Node000003"><a xlink:href="class_d_s3231.html#ae6c4f2144a772c44f7adbace7f86dfa1" target="_top" xlink:title=" ">
<polygon fill="white" stroke="#666666" points="449.25,-58 320.75,-58 320.75,-38 449.25,-38 449.25,-58"/>
<text text-anchor="middle" x="385" y="-44.5" font-family="Helvetica,sans-Serif" font-size="10.00">DS3231::dateTimeToUnix</text>
</a>
</g>
</g>
<!-- Node2&#45;&gt;Node3 -->
<g id="edge2_Node000002_Node000003" class="edge">
<title>Node2&#45;&gt;Node3</title>
<g id="a_edge2_Node000002_Node000003"><a xlink:title=" ">
<path fill="none" stroke="#63b8ff" d="M285.2,-35.86C292.96,-36.81 301.03,-37.81 309.07,-38.79"/>
<polygon fill="#63b8ff" stroke="#63b8ff" points="308.53,-42.25 318.88,-40 309.38,-35.3 308.53,-42.25"/>
</a>
</g>
</g>
<!-- Node4 -->
<g id="Node000004" class="node">
<title>Node4</title>
<g id="a_Node000004"><a xlink:href="class_d_s3231.html#aa19b08f3978eea489bc8af3a84d67e59" target="_top" xlink:title=" ">
<polygon fill="white" stroke="#666666" points="441.75,-20 328.25,-20 328.25,0 441.75,0 441.75,-20"/>
<text text-anchor="middle" x="385" y="-6.5" font-family="Helvetica,sans-Serif" font-size="10.00">DS3231::getDateTime</text>
</a>
</g>
</g>
<!-- Node2&#45;&gt;Node4 -->
<g id="edge3_Node000002_Node000004" class="edge">
<title>Node2&#45;&gt;Node4</title>
<g id="a_edge3_Node000002_Node000004"><a xlink:title=" ">
<path fill="none" stroke="#63b8ff" d="M285.2,-22.14C295.43,-20.88 306.2,-19.56 316.72,-18.27"/>
<polygon fill="#63b8ff" stroke="#63b8ff" points="317,-21.76 326.5,-17.07 316.14,-14.81 317,-21.76"/>
</a>
</g>
</g>
<!-- Node5 -->
<g id="Node000005" class="node">
<title>Node5</title>
<g id="a_Node000005"><a xlink:href="class_d_s3231.html#a389e756fdd8f645d6025906bbce5abd8" target="_top" xlink:title=" ">
<polygon fill="white" stroke="#666666" points="576.25,-20 485.25,-20 485.25,0 576.25,0 576.25,-20"/>
<text text-anchor="middle" x="530.75" y="-6.5" font-family="Helvetica,sans-Serif" font-size="10.00">DS3231::bcd2bin</text>
</a>
</g>
</g>
<!-- Node4&#45;&gt;Node5 -->
<g id="edge4_Node000004_Node000005" class="edge">
<title>Node4&#45;&gt;Node5</title>
<g id="a_edge4_Node000004_Node000005"><a xlink:title=" ">
<path fill="none" stroke="#63b8ff" d="M441.99,-10C452.3,-10 463.07,-10 473.39,-10"/>
<polygon fill="#63b8ff" stroke="#63b8ff" points="473.29,-13.5 483.29,-10 473.29,-6.5 473.29,-13.5"/>
</a>
</g>
</g>
</g>
</svg>
