<?xml version="1.0" encoding="UTF-8" standalone="no"?>
<!DOCTYPE svg PUBLIC "-//W3C//DTD SVG 1.1//EN"
 "http://www.w3.org/Graphics/SVG/1.1/DTD/svg11.dtd">
<!-- Generated by graphviz version 12.2.1 (20241206.2353)
 -->
<!-- Title: ErriezDS3231::readRegister Pages: 1 -->
<svg width="633pt" height="104pt"
 viewBox="0.00 0.00 633.00 104.00" xmlns="http://www.w3.org/2000/svg" xmlns:xlink="http://www.w3.org/1999/xlink">
<g id="graph0" class="graph" transform="scale(1 1) rotate(0) translate(4 100)">
<title>ErriezDS3231::readRegister</title>
<!-- Node1 -->
<g id="Node000001" class="node">
<title>Node1</title>
<g id="a_Node000001"><a xlink:title="Read register.">
<polygon fill="#999999" stroke="#666666" points="625,-58 486.75,-58 486.75,-38 625,-38 625,-58"/>
<text text-anchor="middle" x="555.88" y="-44.5" font-family="Helvetica,sans-Serif" font-size="10.00">ErriezDS3231::readRegister</text>
</a>
</g>
</g>
<!-- Node2 -->
<g id="Node000002" class="node">
<title>Node2</title>
<g id="a_Node000002"><a xlink:href="class_erriez_d_s3231.html#a8830174ba45fcf625206207191d7e58b" target="_top" xlink:title="Initialize and detect DS3231 RTC.">
<polygon fill="white" stroke="#666666" points="435.75,-96 329.75,-96 329.75,-76 435.75,-76 435.75,-96"/>
<text text-anchor="middle" x="382.75" y="-82.5" font-family="Helvetica,sans-Serif" font-size="10.00">ErriezDS3231::begin</text>
</a>
</g>
</g>
<!-- Node1&#45;&gt;Node2 -->
<g id="edge1_Node000001_Node000002" class="edge">
<title>Node1&#45;&gt;Node2</title>
<g id="a_edge1_Node000001_Node000002"><a xlink:title=" ">
<path fill="none" stroke="#63b8ff" d="M496.7,-60.92C475.23,-65.69 451.18,-71.03 430.81,-75.55"/>
<polygon fill="#63b8ff" stroke="#63b8ff" points="497.18,-64.4 506.18,-58.81 495.66,-57.56 497.18,-64.4"/>
</a>
</g>
</g>
<!-- Node3 -->
<g id="Node000003" class="node">
<title>Node3</title>
<g id="a_Node000003"><a xlink:href="class_erriez_d_s3231.html#a47dd1340fc2ecac52cff00c3cffc7e6d" target="_top" xlink:title="Enable or disable oscillator when running on V&#45;BAT.">
<polygon fill="white" stroke="#666666" points="450.75,-58 314.75,-58 314.75,-38 450.75,-38 450.75,-58"/>
<text text-anchor="middle" x="382.75" y="-44.5" font-family="Helvetica,sans-Serif" font-size="10.00">ErriezDS3231::clockEnable</text>
</a>
</g>
</g>
<!-- Node1&#45;&gt;Node3 -->
<g id="edge2_Node000001_Node000003" class="edge">
<title>Node1&#45;&gt;Node3</title>
<g id="a_edge2_Node000001_Node000003"><a xlink:title=" ">
<path fill="none" stroke="#63b8ff" d="M474.98,-48C466.96,-48 458.87,-48 450.99,-48"/>
<polygon fill="#63b8ff" stroke="#63b8ff" points="474.74,-51.5 484.74,-48 474.74,-44.5 474.74,-51.5"/>
</a>
</g>
</g>
<!-- Node8 -->
<g id="Node000008" class="node">
<title>Node8</title>
<g id="a_Node000008"><a xlink:href="class_erriez_d_s3231.html#a0afd9f881a55af0623f3cc20402820c5" target="_top" xlink:title="Read RTC OSF (Oscillator Stop Flag) from status register.">
<polygon fill="white" stroke="#666666" points="445.88,-20 319.62,-20 319.62,0 445.88,0 445.88,-20"/>
<text text-anchor="middle" x="382.75" y="-6.5" font-family="Helvetica,sans-Serif" font-size="10.00">ErriezDS3231::isRunning</text>
</a>
</g>
</g>
<!-- Node1&#45;&gt;Node8 -->
<g id="edge7_Node000001_Node000008" class="edge">
<title>Node1&#45;&gt;Node8</title>
<g id="a_edge7_Node000001_Node000008"><a xlink:title=" ">
<path fill="none" stroke="#63b8ff" d="M496.7,-35.08C475.23,-30.31 451.18,-24.97 430.81,-20.45"/>
<polygon fill="#63b8ff" stroke="#63b8ff" points="495.66,-38.44 506.18,-37.19 497.18,-31.6 495.66,-38.44"/>
</a>
</g>
</g>
<!-- Node4 -->
<g id="Node000004" class="node">
<title>Node4</title>
<g id="a_Node000004"><a xlink:href="class_erriez_d_s3231.html#a50426dfe02af86852f777e392936fa08" target="_top" xlink:title="Write date and time to RTC.">
<polygon fill="white" stroke="#666666" points="278.75,-58 175,-58 175,-38 278.75,-38 278.75,-58"/>
<text text-anchor="middle" x="226.88" y="-44.5" font-family="Helvetica,sans-Serif" font-size="10.00">ErriezDS3231::write</text>
</a>
</g>
</g>
<!-- Node3&#45;&gt;Node4 -->
<g id="edge3_Node000003_Node000004" class="edge">
<title>Node3&#45;&gt;Node4</title>
<g id="a_edge3_Node000003_Node000004"><a xlink:title=" ">
<path fill="none" stroke="#63b8ff" d="M302.87,-48C294.81,-48 286.77,-48 279.12,-48"/>
<polygon fill="#63b8ff" stroke="#63b8ff" points="302.74,-51.5 312.74,-48 302.74,-44.5 302.74,-51.5"/>
</a>
</g>
</g>
<!-- Node5 -->
<g id="Node000005" class="node">
<title>Node5</title>
<g id="a_Node000005"><a xlink:href="class_erriez_d_s3231.html#aefebda4120d747f48feb0d1c53468c63" target="_top" xlink:title="Set date time.">
<polygon fill="white" stroke="#666666" points="139,-96 0,-96 0,-76 139,-76 139,-96"/>
<text text-anchor="middle" x="69.5" y="-82.5" font-family="Helvetica,sans-Serif" font-size="10.00">ErriezDS3231::setDateTime</text>
</a>
</g>
</g>
<!-- Node4&#45;&gt;Node5 -->
<g id="edge4_Node000004_Node000005" class="edge">
<title>Node4&#45;&gt;Node5</title>
<g id="a_edge4_Node000004_Node000005"><a xlink:title=" ">
<path fill="none" stroke="#63b8ff" d="M171.98,-61.18C152.76,-65.88 131.38,-71.11 113.23,-75.55"/>
<polygon fill="#63b8ff" stroke="#63b8ff" points="172.65,-64.62 181.54,-58.84 170.99,-57.82 172.65,-64.62"/>
</a>
</g>
</g>
<!-- Node6 -->
<g id="Node000006" class="node">
<title>Node6</title>
<g id="a_Node000006"><a xlink:href="class_erriez_d_s3231.html#a4d06bb8eff5952b794a09fa41fccf01c" target="_top" xlink:title="Write Unix epoch UTC time to RTC.">
<polygon fill="white" stroke="#666666" points="131.5,-58 7.5,-58 7.5,-38 131.5,-38 131.5,-58"/>
<text text-anchor="middle" x="69.5" y="-44.5" font-family="Helvetica,sans-Serif" font-size="10.00">ErriezDS3231::setEpoch</text>
</a>
</g>
</g>
<!-- Node4&#45;&gt;Node6 -->
<g id="edge5_Node000004_Node000006" class="edge">
<title>Node4&#45;&gt;Node6</title>
<g id="a_edge5_Node000004_Node000006"><a xlink:title=" ">
<path fill="none" stroke="#63b8ff" d="M163.09,-48C152.75,-48 142.05,-48 131.75,-48"/>
<polygon fill="#63b8ff" stroke="#63b8ff" points="163.06,-51.5 173.06,-48 163.06,-44.5 163.06,-51.5"/>
</a>
</g>
</g>
<!-- Node7 -->
<g id="Node000007" class="node">
<title>Node7</title>
<g id="a_Node000007"><a xlink:href="class_erriez_d_s3231.html#a1942791ed2f5550ab5114c2dc2ac6722" target="_top" xlink:title="Write time to RTC.">
<polygon fill="white" stroke="#666666" points="128.5,-20 10.5,-20 10.5,0 128.5,0 128.5,-20"/>
<text text-anchor="middle" x="69.5" y="-6.5" font-family="Helvetica,sans-Serif" font-size="10.00">ErriezDS3231::setTime</text>
</a>
</g>
</g>
<!-- Node4&#45;&gt;Node7 -->
<g id="edge6_Node000004_Node000007" class="edge">
<title>Node4&#45;&gt;Node7</title>
<g id="a_edge6_Node000004_Node000007"><a xlink:title=" ">
<path fill="none" stroke="#63b8ff" d="M171.98,-34.82C152.76,-30.12 131.38,-24.89 113.23,-20.45"/>
<polygon fill="#63b8ff" stroke="#63b8ff" points="170.99,-38.18 181.54,-37.16 172.65,-31.38 170.99,-38.18"/>
</a>
</g>
</g>
</g>
</svg>
