<?xml version="1.0" encoding="UTF-8" standalone="no"?>
<!DOCTYPE svg PUBLIC "-//W3C//DTD SVG 1.1//EN"
 "http://www.w3.org/Graphics/SVG/1.1/DTD/svg11.dtd">
<!-- Generated by graphviz version 12.2.1 (20241206.2353)
 -->
<!-- Title: INA3221::begin Pages: 1 -->
<svg width="397pt" height="104pt"
 viewBox="0.00 0.00 396.50 104.00" xmlns="http://www.w3.org/2000/svg" xmlns:xlink="http://www.w3.org/1999/xlink">
<g id="graph0" class="graph" transform="scale(1 1) rotate(0) translate(4 100)">
<title>INA3221::begin</title>
<!-- Node1 -->
<g id="Node000001" class="node">
<title>Node1</title>
<g id="a_Node000001"><a xlink:title=" ">
<polygon fill="#999999" stroke="#666666" points="83.5,-58 0,-58 0,-38 83.5,-38 83.5,-58"/>
<text text-anchor="middle" x="41.75" y="-44.5" font-family="Helvetica,sans-Serif" font-size="10.00">INA3221::begin</text>
</a>
</g>
</g>
<!-- Node2 -->
<g id="Node000002" class="node">
<title>Node2</title>
<g id="a_Node000002"><a xlink:href="class_i_n_a3221.html#a169cffd42ffacbd9dfca495a9f5389f0" target="_top" xlink:title=" ">
<polygon fill="white" stroke="#666666" points="246.12,-96 141.62,-96 141.62,-76 246.12,-76 246.12,-96"/>
<text text-anchor="middle" x="193.88" y="-82.5" font-family="Helvetica,sans-Serif" font-size="10.00">INA3221::get_die_id</text>
</a>
</g>
</g>
<!-- Node1&#45;&gt;Node2 -->
<g id="edge1_Node000001_Node000002" class="edge">
<title>Node1&#45;&gt;Node2</title>
<g id="a_edge1_Node000001_Node000002"><a xlink:title=" ">
<path fill="none" stroke="#63b8ff" d="M83.77,-58.38C101.32,-62.83 122.03,-68.07 140.66,-72.78"/>
<polygon fill="#63b8ff" stroke="#63b8ff" points="139.62,-76.13 150.17,-75.19 141.34,-69.34 139.62,-76.13"/>
</a>
</g>
</g>
<!-- Node4 -->
<g id="Node000004" class="node">
<title>Node4</title>
<g id="a_Node000004"><a xlink:href="class_i_n_a3221.html#a77a212d3a5c806f5c706da1bd7c294d0" target="_top" xlink:title=" ">
<polygon fill="white" stroke="#666666" points="268.25,-58 119.5,-58 119.5,-38 268.25,-38 268.25,-58"/>
<text text-anchor="middle" x="193.88" y="-44.5" font-family="Helvetica,sans-Serif" font-size="10.00">INA3221::get_manufacturer_id</text>
</a>
</g>
</g>
<!-- Node1&#45;&gt;Node4 -->
<g id="edge3_Node000001_Node000004" class="edge">
<title>Node1&#45;&gt;Node4</title>
<g id="a_edge3_Node000001_Node000004"><a xlink:title=" ">
<path fill="none" stroke="#63b8ff" d="M83.77,-48C91.35,-48 99.52,-48 107.85,-48"/>
<polygon fill="#63b8ff" stroke="#63b8ff" points="107.77,-51.5 117.77,-48 107.77,-44.5 107.77,-51.5"/>
</a>
</g>
</g>
<!-- Node5 -->
<g id="Node000005" class="node">
<title>Node5</title>
<g id="a_Node000005"><a xlink:href="utils_8cpp.html#acd86977d05fa330749958ace0f2798de" target="_top" xlink:title="Prints a message to the UART with a timestamp and core number.">
<polygon fill="white" stroke="#666666" points="222.12,-20 165.62,-20 165.62,0 222.12,0 222.12,-20"/>
<text text-anchor="middle" x="193.88" y="-6.5" font-family="Helvetica,sans-Serif" font-size="10.00">uart_print</text>
</a>
</g>
</g>
<!-- Node1&#45;&gt;Node5 -->
<g id="edge5_Node000001_Node000005" class="edge">
<title>Node1&#45;&gt;Node5</title>
<g id="a_edge5_Node000001_Node000005"><a xlink:title=" ">
<path fill="none" stroke="#63b8ff" d="M83.77,-37.62C105.7,-32.07 132.55,-25.27 154.12,-19.81"/>
<polygon fill="#63b8ff" stroke="#63b8ff" points="154.88,-23.23 163.72,-17.38 153.17,-16.44 154.88,-23.23"/>
</a>
</g>
</g>
<!-- Node3 -->
<g id="Node000003" class="node">
<title>Node3</title>
<g id="a_Node000003"><a xlink:href="class_i_n_a3221.html#a0b4c630038abf482bef36f3083ab20ff" target="_top" xlink:title=" ">
<polygon fill="white" stroke="#666666" points="388.5,-77 304.25,-77 304.25,-57 388.5,-57 388.5,-77"/>
<text text-anchor="middle" x="346.38" y="-63.5" font-family="Helvetica,sans-Serif" font-size="10.00">INA3221::_read</text>
</a>
</g>
</g>
<!-- Node2&#45;&gt;Node3 -->
<g id="edge2_Node000002_Node000003" class="edge">
<title>Node2&#45;&gt;Node3</title>
<g id="a_edge2_Node000002_Node000003"><a xlink:title=" ">
<path fill="none" stroke="#63b8ff" d="M246.25,-79.51C261.31,-77.61 277.8,-75.53 292.93,-73.62"/>
<polygon fill="#63b8ff" stroke="#63b8ff" points="293.21,-77.11 302.69,-72.39 292.33,-70.17 293.21,-77.11"/>
</a>
</g>
</g>
<!-- Node4&#45;&gt;Node3 -->
<g id="edge4_Node000004_Node000003" class="edge">
<title>Node4&#45;&gt;Node3</title>
<g id="a_edge4_Node000004_Node000003"><a xlink:title=" ">
<path fill="none" stroke="#63b8ff" d="M268.36,-57.28C276.58,-58.32 284.83,-59.36 292.72,-60.35"/>
<polygon fill="#63b8ff" stroke="#63b8ff" points="292.1,-63.8 302.46,-61.58 292.98,-56.86 292.1,-63.8"/>
</a>
</g>
</g>
</g>
</svg>
