<?xml version="1.0" encoding="UTF-8" standalone="no"?>
<!DOCTYPE svg PUBLIC "-//W3C//DTD SVG 1.1//EN"
 "http://www.w3.org/Graphics/SVG/1.1/DTD/svg11.dtd">
<!-- Generated by graphviz version 12.2.1 (20241206.2353)
 -->
<!-- Title: INA3221::setAveragingMode Pages: 1 -->
<svg width="272pt" height="66pt"
 viewBox="0.00 0.00 271.75 66.00" xmlns="http://www.w3.org/2000/svg" xmlns:xlink="http://www.w3.org/1999/xlink">
<g id="graph0" class="graph" transform="scale(1 1) rotate(0) translate(4 62)">
<title>INA3221::setAveragingMode</title>
<!-- Node1 -->
<g id="Node000001" class="node">
<title>Node1</title>
<g id="a_Node000001"><a xlink:title=" ">
<polygon fill="#999999" stroke="#666666" points="141.25,-39 0,-39 0,-19 141.25,-19 141.25,-39"/>
<text text-anchor="middle" x="70.62" y="-25.5" font-family="Helvetica,sans-Serif" font-size="10.00">INA3221::setAveragingMode</text>
</a>
</g>
</g>
<!-- Node2 -->
<g id="Node000002" class="node">
<title>Node2</title>
<g id="a_Node000002"><a xlink:href="class_i_n_a3221.html#a0b4c630038abf482bef36f3083ab20ff" target="_top" xlink:title=" ">
<polygon fill="white" stroke="#666666" points="262.62,-58 178.38,-58 178.38,-38 262.62,-38 262.62,-58"/>
<text text-anchor="middle" x="220.5" y="-44.5" font-family="Helvetica,sans-Serif" font-size="10.00">INA3221::_read</text>
</a>
</g>
</g>
<!-- Node1&#45;&gt;Node2 -->
<g id="edge1_Node000001_Node000002" class="edge">
<title>Node1&#45;&gt;Node2</title>
<g id="a_edge1_Node000001_Node000002"><a xlink:title=" ">
<path fill="none" stroke="#63b8ff" d="M141.67,-38C150.09,-39.08 158.58,-40.17 166.7,-41.22"/>
<polygon fill="#63b8ff" stroke="#63b8ff" points="166.02,-44.66 176.38,-42.46 166.91,-37.71 166.02,-44.66"/>
</a>
</g>
</g>
<!-- Node3 -->
<g id="Node000003" class="node">
<title>Node3</title>
<g id="a_Node000003"><a xlink:href="class_i_n_a3221.html#aea00c9c6baf85bd94794ee7b3b47d2c7" target="_top" xlink:title=" ">
<polygon fill="white" stroke="#666666" points="263.75,-20 177.25,-20 177.25,0 263.75,0 263.75,-20"/>
<text text-anchor="middle" x="220.5" y="-6.5" font-family="Helvetica,sans-Serif" font-size="10.00">INA3221::_write</text>
</a>
</g>
</g>
<!-- Node1&#45;&gt;Node3 -->
<g id="edge2_Node000001_Node000003" class="edge">
<title>Node1&#45;&gt;Node3</title>
<g id="a_edge2_Node000001_Node000003"><a xlink:title=" ">
<path fill="none" stroke="#63b8ff" d="M141.67,-20C149.79,-18.96 157.98,-17.9 165.84,-16.9"/>
<polygon fill="#63b8ff" stroke="#63b8ff" points="166.09,-20.39 175.56,-15.65 165.2,-13.45 166.09,-20.39"/>
</a>
</g>
</g>
</g>
</svg>
