<?xml version="1.0" encoding="UTF-8" standalone="no"?>
<!DOCTYPE svg PUBLIC "-//W3C//DTD SVG 1.1//EN"
 "http://www.w3.org/Graphics/SVG/1.1/DTD/svg11.dtd">
<!-- Generated by graphviz version 12.2.1 (20241206.2353)
 -->
<!-- Title: Print::write Pages: 1 -->
<!--zoomable 638 -->

<svg id="main" version="1.1" xmlns="http://www.w3.org/2000/svg" xmlns:xlink="http://www.w3.org/1999/xlink" xml:space="preserve" onload="init(evt)">

<style type="text/css"><![CDATA[
.node, .edge {opacity: 0.7;}
.node.selected, .edge.selected {opacity: 1;}
.edge:hover path { stroke: red; }
.edge:hover polygon { stroke: red; fill: red; }
]]></style>

<defs>
  <circle id="rim" cx="0" cy="0" r="7"/>
  <circle id="rim2" cx="0" cy="0" r="3.5"/>
  <g id="zoomPlus">
    <use xlink:href="#rim" fill="#404040"><set attributeName="fill" to="#808080" begin="zoomplus.mouseover" end="zoomplus.mouseout"/></use>
    <path d="M-4,0h8M0,-4v8" fill="none" stroke="white" stroke-width="1.5" pointer-events="none"/>
  </g>
  <g id="zoomMin">
    <use xlink:href="#rim" fill="#404040"><set attributeName="fill" to="#808080" begin="zoomminus.mouseover" end="zoomminus.mouseout"/></use>
    <path d="M-4,0h8" fill="none" stroke="white" stroke-width="1.5" pointer-events="none"/>
  </g>
  <g id="arrowUp" transform="translate(30 24)">
    <use xlink:href="#rim"/>
    <path pointer-events="none" fill="none" stroke="white" stroke-width="1.5" d="M0,-3.0v7 M-2.5,-0.5L0,-3.0L2.5,-0.5"/>
  </g>
  <g id="arrowRight" transform="rotate(90) translate(36 -43)">
    <use xlink:href="#rim"/>
    <path pointer-events="none" fill="none" stroke="white" stroke-width="1.5" d="M0,-3.0v7 M-2.5,-0.5L0,-3.0L2.5,-0.5"/>
  </g>
  <g id="arrowDown" transform="rotate(180) translate(-30 -48)">
    <use xlink:href="#rim"/>
    <path pointer-events="none" fill="none" stroke="white" stroke-width="1.5" d="M0,-3.0v7 M-2.5,-0.5L0,-3.0L2.5,-0.5"/>
  </g>
  <g id="arrowLeft" transform="rotate(270) translate(-36 17)">
    <use xlink:href="#rim"/>
    <path pointer-events="none" fill="none" stroke="white" stroke-width="1.5" d="M0,-3.0v7 M-2.5,-0.5L0,-3.0L2.5,-0.5"/>
  </g>
  <g id="resetDef">
    <use xlink:href="#rim2" fill="#404040"><set attributeName="fill" to="#808080" begin="reset.mouseover" end="reset.mouseout"/></use>
  </g>
</defs>
<script type="application/ecmascript">
var viewWidth = 437;
var viewHeight = 638;
var sectionId = 'dynsection-9';
</script>
<script type="application/ecmascript" xlink:href="svg.min.js"/>
<svg id="graph" class="graph">
<g id="viewport">
<title>Print::write</title>
<!-- Node1 -->
<g id="Node000001" class="node">
<title>Node1</title>
<g id="a_Node000001"><a xlink:title=" ">
<polygon fill="#999999" stroke="#666666" points="428.5,-324 365.25,-324 365.25,-304 428.5,-304 428.5,-324"/>
<text text-anchor="middle" x="396.88" y="-310.5" font-family="Helvetica,sans-Serif" font-size="10.00">Print::write</text>
</a>
</g>
</g>
<!-- Node2 -->
<g id="Node000002" class="node">
<title>Node2</title>
<g id="a_Node000002"><a xlink:href="class_print.html#a1e411d07a8ffec5faf7ce485bac0f029" target="_top" xlink:title=" ">
<polygon fill="white" stroke="#666666" points="303,-324 242,-324 242,-304 303,-304 303,-324"/>
<text text-anchor="middle" x="272.5" y="-310.5" font-family="Helvetica,sans-Serif" font-size="10.00">Print::print</text>
</a>
</g>
</g>
<!-- Node1&#45;&gt;Node2 -->
<g id="edge1_Node000001_Node000002" class="edge">
<title>Node1&#45;&gt;Node2</title>
<g id="a_edge1_Node000001_Node000002"><a xlink:title=" ">
<path fill="none" stroke="#63b8ff" d="M353.84,-314C337.14,-314 318.33,-314 303.1,-314"/>
<polygon fill="#63b8ff" stroke="#63b8ff" points="353.48,-317.5 363.48,-314 353.48,-310.5 353.48,-317.5"/>
</a>
</g>
</g>
<!-- Node3 -->
<g id="Node000003" class="node">
<title>Node3</title>
<g id="a_Node000003"><a xlink:href="class_print.html#a669dd47fc762118a5a2052bf77d54dc8" target="_top" xlink:title=" ">
<polygon fill="white" stroke="#666666" points="168.88,-628 107.88,-628 107.88,-608 168.88,-608 168.88,-628"/>
<text text-anchor="middle" x="138.38" y="-614.5" font-family="Helvetica,sans-Serif" font-size="10.00">Print::print</text>
</a>
</g>
</g>
<!-- Node1&#45;&gt;Node3 -->
<g id="edge19_Node000001_Node000003" class="edge">
<title>Node1&#45;&gt;Node3</title>
<g id="a_edge19_Node000001_Node000003"><a xlink:title=" ">
<path fill="none" stroke="#63b8ff" d="M394.01,-335.64C388.33,-395.98 369.18,-563.95 329.25,-599 284.93,-637.9 210.45,-631.89 169.17,-624.62"/>
<polygon fill="#63b8ff" stroke="#63b8ff" points="397.47,-336.27 394.88,-325.99 390.49,-335.64 397.47,-336.27"/>
</a>
</g>
</g>
<!-- Node4 -->
<g id="Node000004" class="node">
<title>Node4</title>
<g id="a_Node000004"><a xlink:href="class_print.html#ab1fb2a2384c7b9f628943f5046e7d1c1" target="_top" xlink:title=" ">
<polygon fill="white" stroke="#666666" points="168.88,-552 107.88,-552 107.88,-532 168.88,-532 168.88,-552"/>
<text text-anchor="middle" x="138.38" y="-538.5" font-family="Helvetica,sans-Serif" font-size="10.00">Print::print</text>
</a>
</g>
</g>
<!-- Node1&#45;&gt;Node4 -->
<g id="edge20_Node000001_Node000004" class="edge">
<title>Node1&#45;&gt;Node4</title>
<g id="a_edge20_Node000001_Node000004"><a xlink:title=" ">
<path fill="none" stroke="#63b8ff" d="M393.57,-335.27C388.54,-371.31 373.23,-444.4 329.25,-485 305.79,-506.65 216.64,-526.85 169.31,-536.34"/>
<polygon fill="#63b8ff" stroke="#63b8ff" points="397.01,-336.04 394.77,-325.69 390.06,-335.18 397.01,-336.04"/>
</a>
</g>
</g>
<!-- Node19 -->
<g id="Node000019" class="node">
<title>Node19</title>
<g id="a_Node000019"><a xlink:href="class_print.html#aba208d0aaf8ad070829bdd0e4a7cd092" target="_top" xlink:title=" ">
<polygon fill="white" stroke="#666666" points="303,-248 242,-248 242,-228 303,-228 303,-248"/>
<text text-anchor="middle" x="272.5" y="-234.5" font-family="Helvetica,sans-Serif" font-size="10.00">Print::print</text>
</a>
</g>
</g>
<!-- Node1&#45;&gt;Node19 -->
<g id="edge18_Node000001_Node000019" class="edge">
<title>Node1&#45;&gt;Node19</title>
<g id="a_edge18_Node000001_Node000019"><a xlink:title=" ">
<path fill="none" stroke="#63b8ff" d="M378.57,-295.93C365.89,-283.55 347.73,-267.53 329.25,-257 321.25,-252.44 311.99,-248.74 303.34,-245.86"/>
<polygon fill="#63b8ff" stroke="#63b8ff" points="375.81,-298.12 385.34,-302.73 380.77,-293.18 375.81,-298.12"/>
</a>
</g>
</g>
<!-- Node20 -->
<g id="Node000020" class="node">
<title>Node20</title>
<g id="a_Node000020"><a xlink:href="class_print.html#ae50ed3394583e660f6fed94c12758426" target="_top" xlink:title=" ">
<polygon fill="white" stroke="#666666" points="303,-210 242,-210 242,-190 303,-190 303,-210"/>
<text text-anchor="middle" x="272.5" y="-196.5" font-family="Helvetica,sans-Serif" font-size="10.00">Print::print</text>
</a>
</g>
</g>
<!-- Node1&#45;&gt;Node20 -->
<g id="edge21_Node000001_Node000020" class="edge">
<title>Node1&#45;&gt;Node20</title>
<g id="a_edge21_Node000001_Node000020"><a xlink:title=" ">
<path fill="none" stroke="#63b8ff" d="M386.23,-293.2C375.28,-271.73 355.47,-238.68 329.25,-219 321.64,-213.29 312.21,-209.22 303.27,-206.36"/>
<polygon fill="#63b8ff" stroke="#63b8ff" points="383.07,-294.7 390.6,-302.15 389.36,-291.63 383.07,-294.7"/>
</a>
</g>
</g>
<!-- Node21 -->
<g id="Node000021" class="node">
<title>Node21</title>
<g id="a_Node000021"><a xlink:href="class_print.html#a74a51acdc4faa11f63bc5302fb974844" target="_top" xlink:title=" ">
<polygon fill="white" stroke="#666666" points="168.88,-590 107.88,-590 107.88,-570 168.88,-570 168.88,-590"/>
<text text-anchor="middle" x="138.38" y="-576.5" font-family="Helvetica,sans-Serif" font-size="10.00">Print::print</text>
</a>
</g>
</g>
<!-- Node1&#45;&gt;Node21 -->
<g id="edge22_Node000001_Node000021" class="edge">
<title>Node1&#45;&gt;Node21</title>
<g id="a_edge22_Node000001_Node000021"><a xlink:title=" ">
<path fill="none" stroke="#63b8ff" d="M395.07,-335.54C392.36,-376.9 380.55,-467.88 329.25,-519 317.66,-530.55 219.69,-558.29 169.2,-572.03"/>
<polygon fill="#63b8ff" stroke="#63b8ff" points="398.56,-335.86 395.59,-325.69 391.57,-335.49 398.56,-335.86"/>
</a>
</g>
</g>
<!-- Node22 -->
<g id="Node000022" class="node">
<title>Node22</title>
<g id="a_Node000022"><a xlink:href="class_print.html#a26a40be7a557c0bc391a15dce9f06954" target="_top" xlink:title=" ">
<polygon fill="white" stroke="#666666" points="168.88,-514 107.88,-514 107.88,-494 168.88,-494 168.88,-514"/>
<text text-anchor="middle" x="138.38" y="-500.5" font-family="Helvetica,sans-Serif" font-size="10.00">Print::print</text>
</a>
</g>
</g>
<!-- Node1&#45;&gt;Node22 -->
<g id="edge23_Node000001_Node000022" class="edge">
<title>Node1&#45;&gt;Node22</title>
<g id="a_edge23_Node000001_Node000022"><a xlink:title=" ">
<path fill="none" stroke="#63b8ff" d="M370.76,-330.47C334.94,-354.4 267.78,-400.98 215.75,-447 198.32,-462.41 198.6,-471.37 179.75,-485 175.36,-488.18 170.35,-491.04 165.39,-493.52"/>
<polygon fill="#63b8ff" stroke="#63b8ff" points="372.33,-333.62 378.73,-325.17 368.46,-327.79 372.33,-333.62"/>
</a>
</g>
</g>
<!-- Node23 -->
<g id="Node000023" class="node">
<title>Node23</title>
<g id="a_Node000023"><a xlink:href="class_print.html#a169b128f9e22f0c15883768f580541a2" target="_top" xlink:title=" ">
<polygon fill="white" stroke="#666666" points="306.75,-286 238.25,-286 238.25,-266 306.75,-266 306.75,-286"/>
<text text-anchor="middle" x="272.5" y="-272.5" font-family="Helvetica,sans-Serif" font-size="10.00">Print::println</text>
</a>
</g>
</g>
<!-- Node1&#45;&gt;Node23 -->
<g id="edge24_Node000001_Node000023" class="edge">
<title>Node1&#45;&gt;Node23</title>
<g id="a_edge24_Node000001_Node000023"><a xlink:title=" ">
<path fill="none" stroke="#63b8ff" d="M354.17,-301.05C338.77,-296.27 321.53,-290.91 306.95,-286.39"/>
<polygon fill="#63b8ff" stroke="#63b8ff" points="352.96,-304.34 363.55,-303.96 355.04,-297.65 352.96,-304.34"/>
</a>
</g>
</g>
<!-- Node24 -->
<g id="Node000024" class="node">
<title>Node24</title>
<g id="a_Node000024"><a xlink:href="class_print.html#abe7ee1c0946399820a61e1ec39419ee2" target="_top" xlink:title=" ">
<polygon fill="white" stroke="#666666" points="320.25,-476 224.75,-476 224.75,-456 320.25,-456 320.25,-476"/>
<text text-anchor="middle" x="272.5" y="-462.5" font-family="Helvetica,sans-Serif" font-size="10.00">Print::printNumber</text>
</a>
</g>
</g>
<!-- Node1&#45;&gt;Node24 -->
<g id="edge35_Node000001_Node000024" class="edge">
<title>Node1&#45;&gt;Node24</title>
<g id="a_edge35_Node000001_Node000024"><a xlink:title=" ">
<path fill="none" stroke="#63b8ff" d="M382.34,-333.38C369.22,-351.89 348.55,-380.37 329.25,-404 313.87,-422.84 294.67,-443.65 283.28,-455.74"/>
<polygon fill="#63b8ff" stroke="#63b8ff" points="385.02,-335.65 387.91,-325.46 379.29,-331.62 385.02,-335.65"/>
</a>
</g>
</g>
<!-- Node25 -->
<g id="Node000025" class="node">
<title>Node25</title>
<g id="a_Node000025"><a xlink:href="class_print.html#a4a26b81eecc506213e4d20959c71601d" target="_top" xlink:title=" ">
<polygon fill="white" stroke="#666666" points="329.25,-590 215.75,-590 215.75,-570 329.25,-570 329.25,-590"/>
<text text-anchor="middle" x="272.5" y="-576.5" font-family="Helvetica,sans-Serif" font-size="10.00">Print::printULLNumber</text>
</a>
</g>
</g>
<!-- Node1&#45;&gt;Node25 -->
<g id="edge38_Node000001_Node000025" class="edge">
<title>Node1&#45;&gt;Node25</title>
<g id="a_edge38_Node000001_Node000025"><a xlink:title=" ">
<path fill="none" stroke="#63b8ff" d="M395.89,-335.67C394.77,-381.83 385.89,-490.96 329.25,-556 324.2,-561.8 317.49,-566.25 310.49,-569.63"/>
<polygon fill="#63b8ff" stroke="#63b8ff" points="399.39,-335.73 396.01,-325.69 392.39,-335.64 399.39,-335.73"/>
</a>
</g>
</g>
<!-- Node26 -->
<g id="Node000026" class="node">
<title>Node26</title>
<g id="a_Node000026"><a xlink:href="class_print.html#abfdd93a61c4b95a3ba41680188505e73" target="_top" xlink:title=" ">
<polygon fill="white" stroke="#666666" points="304.12,-172 240.88,-172 240.88,-152 304.12,-152 304.12,-172"/>
<text text-anchor="middle" x="272.5" y="-158.5" font-family="Helvetica,sans-Serif" font-size="10.00">Print::write</text>
</a>
</g>
</g>
<!-- Node1&#45;&gt;Node26 -->
<g id="edge41_Node000001_Node000026" class="edge">
<title>Node1&#45;&gt;Node26</title>
<g id="a_edge41_Node000001_Node000026"><a xlink:title=" ">
<path fill="none" stroke="#63b8ff" d="M390.68,-292.72C382.49,-263.5 363.81,-211.16 329.25,-181 322.24,-174.88 313.17,-170.71 304.39,-167.88"/>
<polygon fill="#63b8ff" stroke="#63b8ff" points="387.26,-293.45 393.18,-302.23 394.03,-291.67 387.26,-293.45"/>
</a>
</g>
</g>
<!-- Node27 -->
<g id="Node000027" class="node">
<title>Node27</title>
<g id="a_Node000027"><a xlink:href="class_print.html#a5b40e0e9cab1f2fe5bb0cb22ffe5adda" target="_top" xlink:title=" ">
<polygon fill="white" stroke="#666666" points="304.12,-134 240.88,-134 240.88,-114 304.12,-114 304.12,-134"/>
<text text-anchor="middle" x="272.5" y="-120.5" font-family="Helvetica,sans-Serif" font-size="10.00">Print::write</text>
</a>
</g>
</g>
<!-- Node1&#45;&gt;Node27 -->
<g id="edge42_Node000001_Node000027" class="edge">
<title>Node1&#45;&gt;Node27</title>
<g id="a_edge42_Node000001_Node000027"><a xlink:title=" ">
<path fill="none" stroke="#63b8ff" d="M393.41,-292.9C388.14,-257.12 372.47,-184.4 329.25,-143 322.46,-136.49 313.35,-132.21 304.46,-129.39"/>
<polygon fill="#63b8ff" stroke="#63b8ff" points="389.89,-292.95 394.68,-302.4 396.83,-292.03 389.89,-292.95"/>
</a>
</g>
</g>
<!-- Node28 -->
<g id="Node000028" class="node">
<title>Node28</title>
<g id="a_Node000028"><a xlink:href="class_print.html#ad98d820df11e2697be1e4b1ea30b4a23" target="_top" xlink:title=" ">
<polygon fill="white" stroke="#666666" points="304.12,-96 240.88,-96 240.88,-76 304.12,-76 304.12,-96"/>
<text text-anchor="middle" x="272.5" y="-82.5" font-family="Helvetica,sans-Serif" font-size="10.00">Print::write</text>
</a>
</g>
</g>
<!-- Node1&#45;&gt;Node28 -->
<g id="edge43_Node000001_Node000028" class="edge">
<title>Node1&#45;&gt;Node28</title>
<g id="a_edge43_Node000001_Node000028"><a xlink:title=" ">
<path fill="none" stroke="#63b8ff" d="M395.14,-292.4C392.56,-250.52 380.95,-157.74 329.25,-105 322.59,-98.21 313.41,-93.84 304.43,-91.04"/>
<polygon fill="#63b8ff" stroke="#63b8ff" points="391.64,-292.34 395.62,-302.16 398.63,-292 391.64,-292.34"/>
</a>
</g>
</g>
<!-- Node2&#45;&gt;Node3 -->
<g id="edge2_Node000002_Node000003" class="edge">
<title>Node2&#45;&gt;Node3</title>
<g id="a_edge2_Node000002_Node000003"><a xlink:title=" ">
<path fill="none" stroke="#63b8ff" d="M261.49,-334.86C249.39,-360.71 228.99,-406.33 215.75,-447 194.26,-513.01 223.5,-545.09 179.75,-599 176.82,-602.61 173.05,-605.57 168.99,-607.99"/>
<polygon fill="#63b8ff" stroke="#63b8ff" points="264.65,-336.37 265.77,-325.83 258.32,-333.37 264.65,-336.37"/>
</a>
</g>
</g>
<!-- Node2&#45;&gt;Node4 -->
<g id="edge3_Node000002_Node000004" class="edge">
<title>Node2&#45;&gt;Node4</title>
<g id="a_edge3_Node000002_Node000004"><a xlink:title=" ">
<path fill="none" stroke="#63b8ff" d="M262.73,-335.04C241.18,-386.63 186.82,-515.74 179.75,-523 176.4,-526.44 172.3,-529.33 168.02,-531.73"/>
<polygon fill="#63b8ff" stroke="#63b8ff" points="265.93,-336.46 266.55,-325.89 259.47,-333.77 265.93,-336.46"/>
</a>
</g>
</g>
<!-- Node5 -->
<g id="Node000005" class="node">
<title>Node5</title>
<g id="a_Node000005"><a xlink:href="class_print.html#a97bd44df9222fa4a51a1266fab8d3bc1" target="_top" xlink:title=" ">
<polygon fill="white" stroke="#666666" points="168.88,-476 107.88,-476 107.88,-456 168.88,-456 168.88,-476"/>
<text text-anchor="middle" x="138.38" y="-462.5" font-family="Helvetica,sans-Serif" font-size="10.00">Print::print</text>
</a>
</g>
</g>
<!-- Node2&#45;&gt;Node5 -->
<g id="edge4_Node000002_Node000005" class="edge">
<title>Node2&#45;&gt;Node5</title>
<g id="a_edge4_Node000002_Node000005"><a xlink:title=" ">
<path fill="none" stroke="#63b8ff" d="M252.61,-332.38C241.1,-344.18 226.57,-360.2 215.75,-376 195.75,-405.18 205.13,-422.35 179.75,-447 176.3,-450.35 172.16,-453.19 167.86,-455.57"/>
<polygon fill="#63b8ff" stroke="#63b8ff" points="255.06,-334.88 259.64,-325.32 250.1,-329.93 255.06,-334.88"/>
</a>
</g>
</g>
<!-- Node6 -->
<g id="Node000006" class="node">
<title>Node6</title>
<g id="a_Node000006"><a xlink:href="class_print.html#a87275de35583868a370f43ce1c887750" target="_top" xlink:title=" ">
<polygon fill="white" stroke="#666666" points="168.88,-438 107.88,-438 107.88,-418 168.88,-418 168.88,-438"/>
<text text-anchor="middle" x="138.38" y="-424.5" font-family="Helvetica,sans-Serif" font-size="10.00">Print::print</text>
</a>
</g>
</g>
<!-- Node2&#45;&gt;Node6 -->
<g id="edge5_Node000002_Node000006" class="edge">
<title>Node2&#45;&gt;Node6</title>
<g id="a_edge5_Node000002_Node000006"><a xlink:title=" ">
<path fill="none" stroke="#63b8ff" d="M254.87,-332.77C233.19,-356.95 196.12,-397.28 179.75,-409 175.21,-412.25 170.04,-415.17 164.94,-417.7"/>
<polygon fill="#63b8ff" stroke="#63b8ff" points="257.3,-335.31 261.34,-325.51 252.07,-330.65 257.3,-335.31"/>
</a>
</g>
</g>
<!-- Node7 -->
<g id="Node000007" class="node">
<title>Node7</title>
<g id="a_Node000007"><a xlink:href="class_print.html#adb44122cacb3fbd2338858efb54ffdef" target="_top" xlink:title=" ">
<polygon fill="white" stroke="#666666" points="179.75,-400 97,-400 97,-380 179.75,-380 179.75,-400"/>
<text text-anchor="middle" x="138.38" y="-386.5" font-family="Helvetica,sans-Serif" font-size="10.00">Print::printFloat</text>
</a>
</g>
</g>
<!-- Node2&#45;&gt;Node7 -->
<g id="edge6_Node000002_Node000007" class="edge">
<title>Node2&#45;&gt;Node7</title>
<g id="a_edge6_Node000002_Node000007"><a xlink:title=" ">
<path fill="none" stroke="#63b8ff" d="M246.36,-330.72C228.19,-342.53 202.86,-358.44 179.75,-371 174.3,-373.96 168.32,-376.93 162.66,-379.6"/>
<polygon fill="#63b8ff" stroke="#63b8ff" points="248.21,-333.69 254.65,-325.28 244.37,-327.84 248.21,-333.69"/>
</a>
</g>
</g>
<!-- Node9 -->
<g id="Node000009" class="node">
<title>Node9</title>
<g id="a_Node000009"><a xlink:href="class_print.html#a554896a71162f967b5794401239d7a01" target="_top" xlink:title=" ">
<polygon fill="white" stroke="#666666" points="172.62,-96 104.12,-96 104.12,-76 172.62,-76 172.62,-96"/>
<text text-anchor="middle" x="138.38" y="-82.5" font-family="Helvetica,sans-Serif" font-size="10.00">Print::println</text>
</a>
</g>
</g>
<!-- Node2&#45;&gt;Node9 -->
<g id="edge8_Node000002_Node000009" class="edge">
<title>Node2&#45;&gt;Node9</title>
<g id="a_edge8_Node000002_Node000009"><a xlink:title=" ">
<path fill="none" stroke="#63b8ff" d="M230.92,-305.95C225.19,-303.28 219.86,-299.73 215.75,-295 159.42,-230.09 232.38,-172.94 179.75,-105 177.09,-101.57 173.67,-98.73 169.93,-96.39"/>
<polygon fill="#63b8ff" stroke="#63b8ff" points="229.5,-309.16 240.09,-309.34 231.93,-302.59 229.5,-309.16"/>
</a>
</g>
</g>
<!-- Node10 -->
<g id="Node000010" class="node">
<title>Node10</title>
<g id="a_Node000010"><a xlink:href="class_print.html#ad337ce3f7977411b7d34d47a51e5737e" target="_top" xlink:title=" ">
<polygon fill="white" stroke="#666666" points="172.62,-58 104.12,-58 104.12,-38 172.62,-38 172.62,-58"/>
<text text-anchor="middle" x="138.38" y="-44.5" font-family="Helvetica,sans-Serif" font-size="10.00">Print::println</text>
</a>
</g>
</g>
<!-- Node2&#45;&gt;Node10 -->
<g id="edge9_Node000002_Node000010" class="edge">
<title>Node2&#45;&gt;Node10</title>
<g id="a_edge9_Node000002_Node000010"><a xlink:title=" ">
<path fill="none" stroke="#63b8ff" d="M230.97,-306.14C225.18,-303.45 219.82,-299.84 215.75,-295 149.7,-216.5 241.33,-149.05 179.75,-67 177.15,-63.53 173.75,-60.67 170.03,-58.32"/>
<polygon fill="#63b8ff" stroke="#63b8ff" points="229.65,-309.39 240.25,-309.55 232.06,-302.82 229.65,-309.39"/>
</a>
</g>
</g>
<!-- Node11 -->
<g id="Node000011" class="node">
<title>Node11</title>
<g id="a_Node000011"><a xlink:href="class_print.html#a56e976b079361b6021ef7c2bedb397a2" target="_top" xlink:title=" ">
<polygon fill="white" stroke="#666666" points="172.62,-20 104.12,-20 104.12,0 172.62,0 172.62,-20"/>
<text text-anchor="middle" x="138.38" y="-6.5" font-family="Helvetica,sans-Serif" font-size="10.00">Print::println</text>
</a>
</g>
</g>
<!-- Node2&#45;&gt;Node11 -->
<g id="edge10_Node000002_Node000011" class="edge">
<title>Node2&#45;&gt;Node11</title>
<g id="a_edge10_Node000002_Node000011"><a xlink:title=" ">
<path fill="none" stroke="#63b8ff" d="M230.88,-306.22C225.1,-303.52 219.77,-299.89 215.75,-295 139.96,-202.87 250.3,-125.2 179.75,-29 177.18,-25.5 173.81,-22.62 170.1,-20.26"/>
<polygon fill="#63b8ff" stroke="#63b8ff" points="229.56,-309.46 240.15,-309.63 231.97,-302.89 229.56,-309.46"/>
</a>
</g>
</g>
<!-- Node12 -->
<g id="Node000012" class="node">
<title>Node12</title>
<g id="a_Node000012"><a xlink:href="class_print.html#a738c88471cfb8eac7c8a804699971413" target="_top" xlink:title=" ">
<polygon fill="white" stroke="#666666" points="172.62,-362 104.12,-362 104.12,-342 172.62,-342 172.62,-362"/>
<text text-anchor="middle" x="138.38" y="-348.5" font-family="Helvetica,sans-Serif" font-size="10.00">Print::println</text>
</a>
</g>
</g>
<!-- Node2&#45;&gt;Node12 -->
<g id="edge11_Node000002_Node000012" class="edge">
<title>Node2&#45;&gt;Node12</title>
<g id="a_edge11_Node000002_Node000012"><a xlink:title=" ">
<path fill="none" stroke="#63b8ff" d="M230.47,-325.8C212,-331.11 190.45,-337.31 172.96,-342.34"/>
<polygon fill="#63b8ff" stroke="#63b8ff" points="231.42,-329.17 240.06,-323.04 229.49,-322.44 231.42,-329.17"/>
</a>
</g>
</g>
<!-- Node13 -->
<g id="Node000013" class="node">
<title>Node13</title>
<g id="a_Node000013"><a xlink:href="class_print.html#a3d0a0f3da98e9401d25b959b726e94ac" target="_top" xlink:title=" ">
<polygon fill="white" stroke="#666666" points="172.62,-324 104.12,-324 104.12,-304 172.62,-304 172.62,-324"/>
<text text-anchor="middle" x="138.38" y="-310.5" font-family="Helvetica,sans-Serif" font-size="10.00">Print::println</text>
</a>
</g>
</g>
<!-- Node2&#45;&gt;Node13 -->
<g id="edge12_Node000002_Node000013" class="edge">
<title>Node2&#45;&gt;Node13</title>
<g id="a_edge12_Node000002_Node000013"><a xlink:title=" ">
<path fill="none" stroke="#63b8ff" d="M230.21,-314C211.79,-314 190.37,-314 172.96,-314"/>
<polygon fill="#63b8ff" stroke="#63b8ff" points="230.01,-317.5 240.01,-314 230.01,-310.5 230.01,-317.5"/>
</a>
</g>
</g>
<!-- Node14 -->
<g id="Node000014" class="node">
<title>Node14</title>
<g id="a_Node000014"><a xlink:href="class_print.html#a833fbec3ceba92e3ec95f51e026e4569" target="_top" xlink:title=" ">
<polygon fill="white" stroke="#666666" points="172.62,-286 104.12,-286 104.12,-266 172.62,-266 172.62,-286"/>
<text text-anchor="middle" x="138.38" y="-272.5" font-family="Helvetica,sans-Serif" font-size="10.00">Print::println</text>
</a>
</g>
</g>
<!-- Node2&#45;&gt;Node14 -->
<g id="edge13_Node000002_Node000014" class="edge">
<title>Node2&#45;&gt;Node14</title>
<g id="a_edge13_Node000002_Node000014"><a xlink:title=" ">
<path fill="none" stroke="#63b8ff" d="M230.47,-302.2C212,-296.89 190.45,-290.69 172.96,-285.66"/>
<polygon fill="#63b8ff" stroke="#63b8ff" points="229.49,-305.56 240.06,-304.96 231.42,-298.83 229.49,-305.56"/>
</a>
</g>
</g>
<!-- Node15 -->
<g id="Node000015" class="node">
<title>Node15</title>
<g id="a_Node000015"><a xlink:href="class_print.html#ac9afe80f50f0118d735295aec7727e50" target="_top" xlink:title=" ">
<polygon fill="white" stroke="#666666" points="172.62,-248 104.12,-248 104.12,-228 172.62,-228 172.62,-248"/>
<text text-anchor="middle" x="138.38" y="-234.5" font-family="Helvetica,sans-Serif" font-size="10.00">Print::println</text>
</a>
</g>
</g>
<!-- Node2&#45;&gt;Node15 -->
<g id="edge14_Node000002_Node000015" class="edge">
<title>Node2&#45;&gt;Node15</title>
<g id="a_edge14_Node000002_Node000015"><a xlink:title=" ">
<path fill="none" stroke="#63b8ff" d="M231.25,-302.93C225.84,-300.69 220.52,-298.06 215.75,-295 196.17,-282.44 198.6,-270.63 179.75,-257 175.36,-253.82 170.35,-250.96 165.39,-248.48"/>
<polygon fill="#63b8ff" stroke="#63b8ff" points="229.62,-306.06 240.22,-306.23 232.05,-299.49 229.62,-306.06"/>
</a>
</g>
</g>
<!-- Node16 -->
<g id="Node000016" class="node">
<title>Node16</title>
<g id="a_Node000016"><a xlink:href="class_print.html#ac87eed1fcb78641169ba2244278c899e" target="_top" xlink:title=" ">
<polygon fill="white" stroke="#666666" points="172.62,-210 104.12,-210 104.12,-190 172.62,-190 172.62,-210"/>
<text text-anchor="middle" x="138.38" y="-196.5" font-family="Helvetica,sans-Serif" font-size="10.00">Print::println</text>
</a>
</g>
</g>
<!-- Node2&#45;&gt;Node16 -->
<g id="edge15_Node000002_Node000016" class="edge">
<title>Node2&#45;&gt;Node16</title>
<g id="a_edge15_Node000002_Node000016"><a xlink:title=" ">
<path fill="none" stroke="#63b8ff" d="M230.95,-304.56C225.44,-302.07 220.17,-298.94 215.75,-295 187.86,-270.12 206.21,-245.4 179.75,-219 176.35,-215.61 172.23,-212.74 167.93,-210.35"/>
<polygon fill="#63b8ff" stroke="#63b8ff" points="229.68,-307.82 240.27,-308.05 232.13,-301.26 229.68,-307.82"/>
</a>
</g>
</g>
<!-- Node17 -->
<g id="Node000017" class="node">
<title>Node17</title>
<g id="a_Node000017"><a xlink:href="class_print.html#ab3b823d47192f2c87b54f485ee1a3617" target="_top" xlink:title=" ">
<polygon fill="white" stroke="#666666" points="172.62,-172 104.12,-172 104.12,-152 172.62,-152 172.62,-172"/>
<text text-anchor="middle" x="138.38" y="-158.5" font-family="Helvetica,sans-Serif" font-size="10.00">Print::println</text>
</a>
</g>
</g>
<!-- Node2&#45;&gt;Node17 -->
<g id="edge16_Node000002_Node000017" class="edge">
<title>Node2&#45;&gt;Node17</title>
<g id="a_edge16_Node000002_Node000017"><a xlink:title=" ">
<path fill="none" stroke="#63b8ff" d="M231.22,-305.44C225.49,-302.83 220.08,-299.43 215.75,-295 178.61,-257.01 214.72,-221 179.75,-181 176.79,-177.62 173.1,-174.79 169.16,-172.45"/>
<polygon fill="#63b8ff" stroke="#63b8ff" points="229.71,-308.61 240.3,-308.8 232.14,-302.04 229.71,-308.61"/>
</a>
</g>
</g>
<!-- Node18 -->
<g id="Node000018" class="node">
<title>Node18</title>
<g id="a_Node000018"><a xlink:href="class_print.html#aebee3c33ee5d8f10b6f378d5273742d0" target="_top" xlink:title=" ">
<polygon fill="white" stroke="#666666" points="172.62,-134 104.12,-134 104.12,-114 172.62,-114 172.62,-134"/>
<text text-anchor="middle" x="138.38" y="-120.5" font-family="Helvetica,sans-Serif" font-size="10.00">Print::println</text>
</a>
</g>
</g>
<!-- Node2&#45;&gt;Node18 -->
<g id="edge17_Node000002_Node000018" class="edge">
<title>Node2&#45;&gt;Node18</title>
<g id="a_edge17_Node000002_Node000018"><a xlink:title=" ">
<path fill="none" stroke="#63b8ff" d="M231.11,-305.79C225.35,-303.14 219.96,-299.64 215.75,-295 169.07,-243.61 223.5,-196.91 179.75,-143 176.92,-139.51 173.3,-136.63 169.39,-134.25"/>
<polygon fill="#63b8ff" stroke="#63b8ff" points="229.69,-309 240.28,-309.17 232.11,-302.43 229.69,-309"/>
</a>
</g>
</g>
<!-- Node8 -->
<g id="Node000008" class="node">
<title>Node8</title>
<g id="a_Node000008"><a xlink:href="class_print.html#ae8b4c025786c820afe0a90aeea01c9c5" target="_top" xlink:title=" ">
<polygon fill="white" stroke="#666666" points="61,-400 0,-400 0,-380 61,-380 61,-400"/>
<text text-anchor="middle" x="30.5" y="-386.5" font-family="Helvetica,sans-Serif" font-size="10.00">Print::print</text>
</a>
</g>
</g>
<!-- Node7&#45;&gt;Node8 -->
<g id="edge7_Node000007_Node000008" class="edge">
<title>Node7&#45;&gt;Node8</title>
<g id="a_edge7_Node000007_Node000008"><a xlink:title=" ">
<path fill="none" stroke="#63b8ff" d="M85.24,-390C77.04,-390 68.8,-390 61.34,-390"/>
<polygon fill="#63b8ff" stroke="#63b8ff" points="85.23,-393.5 95.23,-390 85.23,-386.5 85.23,-393.5"/>
</a>
</g>
</g>
<!-- Node23&#45;&gt;Node9 -->
<g id="edge25_Node000023_Node000009" class="edge">
<title>Node23&#45;&gt;Node9</title>
<g id="a_edge25_Node000023_Node000009"><a xlink:title=" ">
<path fill="none" stroke="#63b8ff" d="M227.38,-265.92C223.04,-263.55 219.04,-260.62 215.75,-257 169.07,-205.61 223.5,-158.91 179.75,-105 176.92,-101.51 173.3,-98.63 169.39,-96.25"/>
<polygon fill="#63b8ff" stroke="#63b8ff" points="225.98,-269.13 236.54,-269.9 228.76,-262.71 225.98,-269.13"/>
</a>
</g>
</g>
<!-- Node23&#45;&gt;Node10 -->
<g id="edge26_Node000023_Node000010" class="edge">
<title>Node23&#45;&gt;Node10</title>
<g id="a_edge26_Node000023_Node000010"><a xlink:title=" ">
<path fill="none" stroke="#63b8ff" d="M227.73,-266.35C223.22,-263.9 219.08,-260.84 215.75,-257 159.42,-192.09 232.38,-134.94 179.75,-67 177.09,-63.57 173.67,-60.73 169.93,-58.39"/>
<polygon fill="#63b8ff" stroke="#63b8ff" points="226.06,-269.44 236.63,-270.18 228.83,-263.01 226.06,-269.44"/>
</a>
</g>
</g>
<!-- Node23&#45;&gt;Node11 -->
<g id="edge27_Node000023_Node000011" class="edge">
<title>Node23&#45;&gt;Node11</title>
<g id="a_edge27_Node000023_Node000011"><a xlink:title=" ">
<path fill="none" stroke="#63b8ff" d="M227.62,-266.45C223.13,-263.99 219.02,-260.89 215.75,-257 149.7,-178.5 241.33,-111.05 179.75,-29 177.15,-25.53 173.75,-22.67 170.03,-20.32"/>
<polygon fill="#63b8ff" stroke="#63b8ff" points="225.93,-269.53 236.5,-270.29 228.71,-263.11 225.93,-269.53"/>
</a>
</g>
</g>
<!-- Node23&#45;&gt;Node12 -->
<g id="edge28_Node000023_Node000012" class="edge">
<title>Node23&#45;&gt;Node12</title>
<g id="a_edge28_Node000023_Node000012"><a xlink:title=" ">
<path fill="none" stroke="#63b8ff" d="M227.53,-288.69C223.42,-290.55 219.42,-292.64 215.75,-295 196.17,-307.56 198.6,-319.37 179.75,-333 175.36,-336.18 170.35,-339.04 165.39,-341.52"/>
<polygon fill="#63b8ff" stroke="#63b8ff" points="228.48,-292.07 236.45,-285.1 225.87,-285.58 228.48,-292.07"/>
</a>
</g>
</g>
<!-- Node23&#45;&gt;Node13 -->
<g id="edge29_Node000023_Node000013" class="edge">
<title>Node23&#45;&gt;Node13</title>
<g id="a_edge29_Node000023_Node000013"><a xlink:title=" ">
<path fill="none" stroke="#63b8ff" d="M226.91,-288.82C209.28,-293.89 189.37,-299.62 173,-304.33"/>
<polygon fill="#63b8ff" stroke="#63b8ff" points="227.72,-292.23 236.36,-286.11 225.78,-285.51 227.72,-292.23"/>
</a>
</g>
</g>
<!-- Node23&#45;&gt;Node14 -->
<g id="edge30_Node000023_Node000014" class="edge">
<title>Node23&#45;&gt;Node14</title>
<g id="a_edge30_Node000023_Node000014"><a xlink:title=" ">
<path fill="none" stroke="#63b8ff" d="M226.41,-276C208.91,-276 189.22,-276 173,-276"/>
<polygon fill="#63b8ff" stroke="#63b8ff" points="226.3,-279.5 236.3,-276 226.3,-272.5 226.3,-279.5"/>
</a>
</g>
</g>
<!-- Node23&#45;&gt;Node15 -->
<g id="edge31_Node000023_Node000015" class="edge">
<title>Node23&#45;&gt;Node15</title>
<g id="a_edge31_Node000023_Node000015"><a xlink:title=" ">
<path fill="none" stroke="#63b8ff" d="M226.91,-263.18C209.28,-258.11 189.37,-252.38 173,-247.67"/>
<polygon fill="#63b8ff" stroke="#63b8ff" points="225.78,-266.49 236.36,-265.89 227.72,-259.77 225.78,-266.49"/>
</a>
</g>
</g>
<!-- Node23&#45;&gt;Node16 -->
<g id="edge32_Node000023_Node000016" class="edge">
<title>Node23&#45;&gt;Node16</title>
<g id="a_edge32_Node000023_Node000016"><a xlink:title=" ">
<path fill="none" stroke="#63b8ff" d="M227.53,-263.31C223.42,-261.45 219.42,-259.36 215.75,-257 196.17,-244.44 198.6,-232.63 179.75,-219 175.36,-215.82 170.35,-212.96 165.39,-210.48"/>
<polygon fill="#63b8ff" stroke="#63b8ff" points="225.87,-266.42 236.45,-266.9 228.48,-259.93 225.87,-266.42"/>
</a>
</g>
</g>
<!-- Node23&#45;&gt;Node17 -->
<g id="edge33_Node000023_Node000017" class="edge">
<title>Node23&#45;&gt;Node17</title>
<g id="a_edge33_Node000023_Node000017"><a xlink:title=" ">
<path fill="none" stroke="#63b8ff" d="M227.62,-264.96C223.33,-262.76 219.27,-260.14 215.75,-257 187.86,-232.12 206.21,-207.4 179.75,-181 176.35,-177.61 172.23,-174.74 167.93,-172.35"/>
<polygon fill="#63b8ff" stroke="#63b8ff" points="225.95,-268.05 236.52,-268.74 228.69,-261.61 225.95,-268.05"/>
</a>
</g>
</g>
<!-- Node23&#45;&gt;Node18 -->
<g id="edge34_Node000023_Node000018" class="edge">
<title>Node23&#45;&gt;Node18</title>
<g id="a_edge34_Node000023_Node000018"><a xlink:title=" ">
<path fill="none" stroke="#63b8ff" d="M227.48,-265.59C223.16,-263.28 219.13,-260.45 215.75,-257 178.61,-219.01 214.72,-183 179.75,-143 176.79,-139.62 173.1,-136.79 169.16,-134.45"/>
<polygon fill="#63b8ff" stroke="#63b8ff" points="225.99,-268.76 236.56,-269.51 228.77,-262.34 225.99,-268.76"/>
</a>
</g>
</g>
<!-- Node24&#45;&gt;Node4 -->
<g id="edge36_Node000024_Node000004" class="edge">
<title>Node24&#45;&gt;Node4</title>
<g id="a_edge36_Node000024_Node000004"><a xlink:title=" ">
<path fill="none" stroke="#63b8ff" d="M232.1,-480.98C226.45,-483.69 220.84,-486.71 215.75,-490 197.53,-501.79 197.77,-510.91 179.75,-523 174.99,-526.19 169.61,-529.13 164.36,-531.69"/>
<polygon fill="#63b8ff" stroke="#63b8ff" points="233.12,-484.35 240.82,-477.07 230.26,-477.96 233.12,-484.35"/>
</a>
</g>
</g>
<!-- Node24&#45;&gt;Node22 -->
<g id="edge37_Node000024_Node000022" class="edge">
<title>Node24&#45;&gt;Node22</title>
<g id="a_edge37_Node000024_Node000022"><a xlink:title=" ">
<path fill="none" stroke="#63b8ff" d="M224.21,-479.6C205.81,-484.89 185.29,-490.8 169.04,-495.47"/>
<polygon fill="#63b8ff" stroke="#63b8ff" points="224.95,-483.03 233.59,-476.9 223.01,-476.3 224.95,-483.03"/>
</a>
</g>
</g>
<!-- Node25&#45;&gt;Node3 -->
<g id="edge39_Node000025_Node000003" class="edge">
<title>Node25&#45;&gt;Node3</title>
<g id="a_edge39_Node000025_Node000003"><a xlink:title=" ">
<path fill="none" stroke="#63b8ff" d="M224.21,-593.6C205.81,-598.89 185.29,-604.8 169.04,-609.47"/>
<polygon fill="#63b8ff" stroke="#63b8ff" points="224.95,-597.03 233.59,-590.9 223.01,-590.3 224.95,-597.03"/>
</a>
</g>
</g>
<!-- Node25&#45;&gt;Node21 -->
<g id="edge40_Node000025_Node000021" class="edge">
<title>Node25&#45;&gt;Node21</title>
<g id="a_edge40_Node000025_Node000021"><a xlink:title=" ">
<path fill="none" stroke="#63b8ff" d="M204.21,-580C191.91,-580 179.68,-580 169.2,-580"/>
<polygon fill="#63b8ff" stroke="#63b8ff" points="203.95,-583.5 213.95,-580 203.95,-576.5 203.95,-583.5"/>
</a>
</g>
</g>
</g>
</svg>

<g id="navigator" transform="translate(0 0)" fill="#404254">
  <rect fill="#f2f5e9" fill-opacity="0.5" stroke="#606060" stroke-width=".5" x="0" y="0" width="60" height="60"/>
  <use id="zoomplus" xlink:href="#zoomPlus" x="17" y="9" onmousedown="handleZoom(evt,'in')"/>
  <use id="zoomminus" xlink:href="#zoomMin" x="42" y="9" onmousedown="handleZoom(evt,'out')"/>
  <use id="reset" xlink:href="#resetDef" x="30" y="36" onmousedown="handleReset()"/>
   <use id="arrowup" xlink:href="#arrowUp" x="0" y="0" onmousedown="handlePan(0,-1)"/>
  <use id="arrowright" xlink:href="#arrowRight" x="0" y="0" onmousedown="handlePan(1,0)"/>
  <use id="arrowdown" xlink:href="#arrowDown" x="0" y="0" onmousedown="handlePan(0,1)"/>
  <use id="arrowleft" xlink:href="#arrowLeft" x="0" y="0" onmousedown="handlePan(-1,0)"/>
</g>
<svg viewBox="0 0 15 15" width="100%" height="30px" preserveAspectRatio="xMaxYMin meet">
 <g id="arrow_out" transform="scale(0.3 0.3)">
  <a xlink:href="class_print_a5be30d49adae2406a270c29ba9a3e0a3_icgraph_org.svg" target="_base">
   <rect id="button" ry="5" rx="5" y="6" x="6" height="38" width="38"
        fill="#f2f5e9" fill-opacity="0.5" stroke="#606060" stroke-width="1.0"/>
   <path id="arrow"
     d="M 11.500037,31.436501 C 11.940474,20.09759 22.043105,11.32322 32.158766,21.979434 L 37.068811,17.246167 C 37.068811,17.246167 37.088388,32 37.088388,32 L 22.160133,31.978069 C 22.160133,31.978069 26.997745,27.140456 26.997745,27.140456 C 18.528582,18.264221 13.291696,25.230495 11.500037,31.436501 z"
     style="fill:#404040;"/>
  </a>
 </g>
</svg>

<style type='text/css'>
<![CDATA[
[data-mouse-over-selected='false'] { opacity: 0.7; }
[data-mouse-over-selected='true']  { opacity: 1.0; }
]]>
</style>
<script type="application/ecmascript"><![CDATA[
document.addEventListener('DOMContentLoaded', (event) => {
  highlightEdges();
  highlightAdjacentNodes();
});
]]></script>
</svg>
