<?xml version="1.0" encoding="UTF-8" standalone="no"?>
<!DOCTYPE svg PUBLIC "-//W3C//DTD SVG 1.1//EN"
 "http://www.w3.org/Graphics/SVG/1.1/DTD/svg11.dtd">
<!-- Generated by graphviz version 12.2.1 (20241206.2353)
 -->
<!-- Title: EventManagerImpl Pages: 1 -->
<svg width="106pt" height="153pt"
 viewBox="0.00 0.00 105.75 153.00" xmlns="http://www.w3.org/2000/svg" xmlns:xlink="http://www.w3.org/1999/xlink">
<g id="graph0" class="graph" transform="scale(1 1) rotate(0) translate(4 149)">
<title>EventManagerImpl</title>
<!-- Node1 -->
<g id="Node000001" class="node">
<title>Node1</title>
<g id="a_Node000001"><a xlink:title="Implementation of the EventManager class.">
<polygon fill="#999999" stroke="#666666" points="97.75,-20 0,-20 0,0 97.75,0 97.75,-20"/>
<text text-anchor="middle" x="48.88" y="-6.5" font-family="Helvetica,sans-Serif" font-size="10.00">EventManagerImpl</text>
</a>
</g>
</g>
<!-- Node2 -->
<g id="Node000002" class="node">
<title>Node2</title>
<g id="a_Node000002"><a xlink:href="class_event_manager.html" target="_top" xlink:title="Manages the event logging system.">
<polygon fill="white" stroke="#666666" points="88.38,-77 9.38,-77 9.38,-57 88.38,-57 88.38,-77"/>
<text text-anchor="middle" x="48.88" y="-63.5" font-family="Helvetica,sans-Serif" font-size="10.00">EventManager</text>
</a>
</g>
</g>
<!-- Node2&#45;&gt;Node1 -->
<g id="edge1_Node000001_Node000002" class="edge">
<title>Node2&#45;&gt;Node1</title>
<g id="a_edge1_Node000001_Node000002"><a xlink:title=" ">
<path fill="none" stroke="#63b8ff" d="M48.88,-45.69C48.88,-36.97 48.88,-27.22 48.88,-20.28"/>
<polygon fill="#63b8ff" stroke="#63b8ff" points="45.38,-45.4 48.88,-55.4 52.38,-45.4 45.38,-45.4"/>
</a>
</g>
</g>
<!-- Node3 -->
<g id="Node000003" class="node">
<title>Node3</title>
<g id="a_Node000003"><a xlink:href="class_event_log.html" target="_top" xlink:title="Represents a single event log entry.">
<polygon fill="white" stroke="#666666" points="77.5,-145 20.25,-145 20.25,-125 77.5,-125 77.5,-145"/>
<text text-anchor="middle" x="48.88" y="-131.5" font-family="Helvetica,sans-Serif" font-size="10.00">EventLog</text>
</a>
</g>
</g>
<!-- Node3&#45;&gt;Node2 -->
<g id="edge2_Node000002_Node000003" class="edge">
<title>Node3&#45;&gt;Node2</title>
<g id="a_edge2_Node000002_Node000003"><a xlink:title=" ">
<path fill="none" stroke="#9a32cd" stroke-dasharray="5,2" d="M48.88,-113.28C48.88,-101.27 48.88,-86.74 48.88,-77.44"/>
<polygon fill="#9a32cd" stroke="#9a32cd" points="45.38,-113.03 48.88,-123.03 52.38,-113.03 45.38,-113.03"/>
</a>
</g>
<text text-anchor="middle" x="65" y="-97.5" font-family="Helvetica,sans-Serif" font-size="10.00" fill="grey"> events</text>
</g>
</g>
</svg>
