<?xml version="1.0" encoding="UTF-8" standalone="no"?>
<!DOCTYPE svg PUBLIC "-//W3C//DTD SVG 1.1//EN"
 "http://www.w3.org/Graphics/SVG/1.1/DTD/svg11.dtd">
<!-- Generated by graphviz version 12.2.1 (20241206.2353)
 -->
<!-- Title: LoRaClass::setCodingRate4 Pages: 1 -->
<svg width="482pt" height="66pt"
 viewBox="0.00 0.00 482.00 66.00" xmlns="http://www.w3.org/2000/svg" xmlns:xlink="http://www.w3.org/1999/xlink">
<g id="graph0" class="graph" transform="scale(1 1) rotate(0) translate(4 62)">
<title>LoRaClass::setCodingRate4</title>
<!-- Node1 -->
<g id="Node000001" class="node">
<title>Node1</title>
<g id="a_Node000001"><a xlink:title=" ">
<polygon fill="#999999" stroke="#666666" points="141.25,-39 0,-39 0,-19 141.25,-19 141.25,-39"/>
<text text-anchor="middle" x="70.62" y="-25.5" font-family="Helvetica,sans-Serif" font-size="10.00">LoRaClass::setCodingRate4</text>
</a>
</g>
</g>
<!-- Node2 -->
<g id="Node000002" class="node">
<title>Node2</title>
<g id="a_Node000002"><a xlink:href="class_lo_ra_class.html#add581bfe66dd75108e22b18a4d6f89bf" target="_top" xlink:title=" ">
<polygon fill="white" stroke="#666666" points="304.62,-58 178.38,-58 178.38,-38 304.62,-38 304.62,-58"/>
<text text-anchor="middle" x="241.5" y="-44.5" font-family="Helvetica,sans-Serif" font-size="10.00">LoRaClass::readRegister</text>
</a>
</g>
</g>
<!-- Node1&#45;&gt;Node2 -->
<g id="edge1_Node000001_Node000002" class="edge">
<title>Node1&#45;&gt;Node2</title>
<g id="a_edge1_Node000001_Node000002"><a xlink:title=" ">
<path fill="none" stroke="#63b8ff" d="M141.29,-36.84C149.66,-37.78 158.23,-38.74 166.66,-39.69"/>
<polygon fill="#63b8ff" stroke="#63b8ff" points="166.19,-43.16 176.52,-40.8 166.98,-36.21 166.19,-43.16"/>
</a>
</g>
</g>
<!-- Node4 -->
<g id="Node000004" class="node">
<title>Node4</title>
<g id="a_Node000004"><a xlink:href="class_lo_ra_class.html#a77e7c77aa54174b352a26e1510f66f98" target="_top" xlink:title=" ">
<polygon fill="white" stroke="#666666" points="305.75,-20 177.25,-20 177.25,0 305.75,0 305.75,-20"/>
<text text-anchor="middle" x="241.5" y="-6.5" font-family="Helvetica,sans-Serif" font-size="10.00">LoRaClass::writeRegister</text>
</a>
</g>
</g>
<!-- Node1&#45;&gt;Node4 -->
<g id="edge3_Node000001_Node000004" class="edge">
<title>Node1&#45;&gt;Node4</title>
<g id="a_edge3_Node000001_Node000004"><a xlink:title=" ">
<path fill="none" stroke="#63b8ff" d="M141.29,-21.16C149.32,-20.26 157.53,-19.34 165.62,-18.42"/>
<polygon fill="#63b8ff" stroke="#63b8ff" points="165.9,-21.92 175.45,-17.32 165.12,-14.96 165.9,-21.92"/>
</a>
</g>
</g>
<!-- Node3 -->
<g id="Node000003" class="node">
<title>Node3</title>
<g id="a_Node000003"><a xlink:href="class_lo_ra_class.html#a3a0c0649c595b1176b5fb1ae41210ee3" target="_top" xlink:title=" ">
<polygon fill="white" stroke="#666666" points="474,-39 341.75,-39 341.75,-19 474,-19 474,-39"/>
<text text-anchor="middle" x="407.88" y="-25.5" font-family="Helvetica,sans-Serif" font-size="10.00">LoRaClass::singleTransfer</text>
</a>
</g>
</g>
<!-- Node2&#45;&gt;Node3 -->
<g id="edge2_Node000002_Node000003" class="edge">
<title>Node2&#45;&gt;Node3</title>
<g id="a_edge2_Node000002_Node000003"><a xlink:title=" ">
<path fill="none" stroke="#63b8ff" d="M305.11,-40.76C313.28,-39.82 321.73,-38.84 330.1,-37.87"/>
<polygon fill="#63b8ff" stroke="#63b8ff" points="330.4,-41.36 339.93,-36.74 329.59,-34.41 330.4,-41.36"/>
</a>
</g>
</g>
<!-- Node4&#45;&gt;Node3 -->
<g id="edge4_Node000004_Node000003" class="edge">
<title>Node4&#45;&gt;Node3</title>
<g id="a_edge4_Node000004_Node000003"><a xlink:title=" ">
<path fill="none" stroke="#63b8ff" d="M306.05,-17.35C313.91,-18.25 322.01,-19.19 330.04,-20.12"/>
<polygon fill="#63b8ff" stroke="#63b8ff" points="329.48,-23.58 339.82,-21.25 330.28,-16.62 329.48,-23.58"/>
</a>
</g>
</g>
</g>
</svg>
