<?xml version="1.0" encoding="UTF-8" standalone="no"?>
<!DOCTYPE svg PUBLIC "-//W3C//DTD SVG 1.1//EN"
 "http://www.w3.org/Graphics/SVG/1.1/DTD/svg11.dtd">
<!-- Generated by graphviz version 12.2.1 (20241206.2353)
 -->
<!-- Title: LoRaClass::receive Pages: 1 -->
<svg width="636pt" height="80pt"
 viewBox="0.00 0.00 636.00 80.43" xmlns="http://www.w3.org/2000/svg" xmlns:xlink="http://www.w3.org/1999/xlink">
<g id="graph0" class="graph" transform="scale(1 1) rotate(0) translate(4 76.43)">
<title>LoRaClass::receive</title>
<!-- Node1 -->
<g id="Node000001" class="node">
<title>Node1</title>
<g id="a_Node000001"><a xlink:title=" ">
<polygon fill="#999999" stroke="#666666" points="102.25,-34.43 0,-34.43 0,-14.43 102.25,-14.43 102.25,-34.43"/>
<text text-anchor="middle" x="51.12" y="-20.93" font-family="Helvetica,sans-Serif" font-size="10.00">LoRaClass::receive</text>
</a>
</g>
</g>
<!-- Node2 -->
<g id="Node000002" class="node">
<title>Node2</title>
<g id="a_Node000002"><a xlink:href="class_lo_ra_class.html#a691417e927af503dacaa797a1bb9527f" target="_top" xlink:title=" ">
<polygon fill="white" stroke="#666666" points="295.25,-34.43 138.25,-34.43 138.25,-14.43 295.25,-14.43 295.25,-34.43"/>
<text text-anchor="middle" x="216.75" y="-20.93" font-family="Helvetica,sans-Serif" font-size="10.00">LoRaClass::explicitHeaderMode</text>
</a>
</g>
</g>
<!-- Node1&#45;&gt;Node2 -->
<g id="edge1_Node000001_Node000002" class="edge">
<title>Node1&#45;&gt;Node2</title>
<g id="a_edge1_Node000001_Node000002"><a xlink:title=" ">
<path fill="none" stroke="#63b8ff" d="M102.55,-24.43C110.24,-24.43 118.35,-24.43 126.57,-24.43"/>
<polygon fill="#63b8ff" stroke="#63b8ff" points="126.29,-27.93 136.29,-24.43 126.29,-20.93 126.29,-27.93"/>
</a>
</g>
</g>
<!-- Node5 -->
<g id="Node000005" class="node">
<title>Node5</title>
<g id="a_Node000005"><a xlink:href="class_lo_ra_class.html#a77e7c77aa54174b352a26e1510f66f98" target="_top" xlink:title=" ">
<polygon fill="white" stroke="#666666" points="459.75,-34.43 331.25,-34.43 331.25,-14.43 459.75,-14.43 459.75,-34.43"/>
<text text-anchor="middle" x="395.5" y="-20.93" font-family="Helvetica,sans-Serif" font-size="10.00">LoRaClass::writeRegister</text>
</a>
</g>
</g>
<!-- Node1&#45;&gt;Node5 -->
<g id="edge9_Node000001_Node000005" class="edge">
<title>Node1&#45;&gt;Node5</title>
<g id="a_edge9_Node000001_Node000005"><a xlink:title=" ">
<path fill="none" stroke="#63b8ff" d="M90.84,-14.01C105.57,-10.55 122.57,-7.14 138.25,-5.43 207.62,2.13 225.78,1.16 295.25,-5.43 309.44,-6.77 324.63,-9.18 338.75,-11.84"/>
<polygon fill="#63b8ff" stroke="#63b8ff" points="337.83,-15.22 348.31,-13.72 339.17,-8.36 337.83,-15.22"/>
</a>
</g>
</g>
<!-- Node6 -->
<g id="Node000006" class="node">
<title>Node6</title>
<g id="a_Node000006"><a xlink:href="class_lo_ra_class.html#ad06e31c18f7029e231d837a7eca7558e" target="_top" xlink:title=" ">
<polygon fill="white" stroke="#666666" points="295.25,-72.43 138.25,-72.43 138.25,-52.43 295.25,-52.43 295.25,-72.43"/>
<text text-anchor="middle" x="216.75" y="-58.93" font-family="Helvetica,sans-Serif" font-size="10.00">LoRaClass::implicitHeaderMode</text>
</a>
</g>
</g>
<!-- Node1&#45;&gt;Node6 -->
<g id="edge6_Node000001_Node000006" class="edge">
<title>Node1&#45;&gt;Node6</title>
<g id="a_edge6_Node000001_Node000006"><a xlink:title=" ">
<path fill="none" stroke="#63b8ff" d="M97.27,-34.91C116.58,-39.4 139.34,-44.68 159.71,-49.41"/>
<polygon fill="#63b8ff" stroke="#63b8ff" points="158.75,-52.78 169.28,-51.64 160.33,-45.96 158.75,-52.78"/>
</a>
</g>
</g>
<!-- Node3 -->
<g id="Node000003" class="node">
<title>Node3</title>
<g id="a_Node000003"><a xlink:href="class_lo_ra_class.html#add581bfe66dd75108e22b18a4d6f89bf" target="_top" xlink:title=" ">
<polygon fill="white" stroke="#666666" points="458.62,-72.43 332.38,-72.43 332.38,-52.43 458.62,-52.43 458.62,-72.43"/>
<text text-anchor="middle" x="395.5" y="-58.93" font-family="Helvetica,sans-Serif" font-size="10.00">LoRaClass::readRegister</text>
</a>
</g>
</g>
<!-- Node2&#45;&gt;Node3 -->
<g id="edge2_Node000002_Node000003" class="edge">
<title>Node2&#45;&gt;Node3</title>
<g id="a_edge2_Node000002_Node000003"><a xlink:title=" ">
<path fill="none" stroke="#63b8ff" d="M266.52,-34.91C287.67,-39.46 312.64,-44.83 334.88,-49.61"/>
<polygon fill="#63b8ff" stroke="#63b8ff" points="333.9,-52.98 344.41,-51.66 335.37,-46.14 333.9,-52.98"/>
</a>
</g>
</g>
<!-- Node2&#45;&gt;Node5 -->
<g id="edge4_Node000002_Node000005" class="edge">
<title>Node2&#45;&gt;Node5</title>
<g id="a_edge4_Node000002_Node000005"><a xlink:title=" ">
<path fill="none" stroke="#63b8ff" d="M295.53,-24.43C303.5,-24.43 311.58,-24.43 319.51,-24.43"/>
<polygon fill="#63b8ff" stroke="#63b8ff" points="319.49,-27.93 329.49,-24.43 319.49,-20.93 319.49,-27.93"/>
</a>
</g>
</g>
<!-- Node4 -->
<g id="Node000004" class="node">
<title>Node4</title>
<g id="a_Node000004"><a xlink:href="class_lo_ra_class.html#a3a0c0649c595b1176b5fb1ae41210ee3" target="_top" xlink:title=" ">
<polygon fill="white" stroke="#666666" points="628,-53.43 495.75,-53.43 495.75,-33.43 628,-33.43 628,-53.43"/>
<text text-anchor="middle" x="561.88" y="-39.93" font-family="Helvetica,sans-Serif" font-size="10.00">LoRaClass::singleTransfer</text>
</a>
</g>
</g>
<!-- Node3&#45;&gt;Node4 -->
<g id="edge3_Node000003_Node000004" class="edge">
<title>Node3&#45;&gt;Node4</title>
<g id="a_edge3_Node000003_Node000004"><a xlink:title=" ">
<path fill="none" stroke="#63b8ff" d="M459.11,-55.19C467.28,-54.25 475.73,-53.27 484.1,-52.3"/>
<polygon fill="#63b8ff" stroke="#63b8ff" points="484.4,-55.79 493.93,-51.17 483.59,-48.84 484.4,-55.79"/>
</a>
</g>
</g>
<!-- Node5&#45;&gt;Node4 -->
<g id="edge5_Node000005_Node000004" class="edge">
<title>Node5&#45;&gt;Node4</title>
<g id="a_edge5_Node000005_Node000004"><a xlink:title=" ">
<path fill="none" stroke="#63b8ff" d="M460.05,-31.77C467.91,-32.68 476.01,-33.62 484.04,-34.55"/>
<polygon fill="#63b8ff" stroke="#63b8ff" points="483.48,-38 493.82,-35.68 484.28,-31.05 483.48,-38"/>
</a>
</g>
</g>
<!-- Node6&#45;&gt;Node3 -->
<g id="edge7_Node000006_Node000003" class="edge">
<title>Node6&#45;&gt;Node3</title>
<g id="a_edge7_Node000006_Node000003"><a xlink:title=" ">
<path fill="none" stroke="#63b8ff" d="M295.53,-62.43C303.94,-62.43 312.47,-62.43 320.83,-62.43"/>
<polygon fill="#63b8ff" stroke="#63b8ff" points="320.56,-65.93 330.56,-62.43 320.56,-58.93 320.56,-65.93"/>
</a>
</g>
</g>
<!-- Node6&#45;&gt;Node5 -->
<g id="edge8_Node000006_Node000005" class="edge">
<title>Node6&#45;&gt;Node5</title>
<g id="a_edge8_Node000006_Node000005"><a xlink:title=" ">
<path fill="none" stroke="#63b8ff" d="M266.52,-51.94C287.67,-47.4 312.64,-42.03 334.88,-37.24"/>
<polygon fill="#63b8ff" stroke="#63b8ff" points="335.37,-40.72 344.41,-35.2 333.9,-33.88 335.37,-40.72"/>
</a>
</g>
</g>
</g>
</svg>
