<?xml version="1.0" encoding="UTF-8" standalone="no"?>
<!DOCTYPE svg PUBLIC "-//W3C//DTD SVG 1.1//EN"
 "http://www.w3.org/Graphics/SVG/1.1/DTD/svg11.dtd">
<!-- Generated by graphviz version 12.2.1 (20241206.2353)
 -->
<!-- Title: EventManager::logEvent Pages: 1 -->
<svg width="318pt" height="104pt"
 viewBox="0.00 0.00 317.50 104.00" xmlns="http://www.w3.org/2000/svg" xmlns:xlink="http://www.w3.org/1999/xlink">
<g id="graph0" class="graph" transform="scale(1 1) rotate(0) translate(4 100)">
<title>EventManager::logEvent</title>
<!-- Node1 -->
<g id="Node000001" class="node">
<title>Node1</title>
<g id="a_Node000001"><a xlink:title="Logs an event.">
<polygon fill="#999999" stroke="#666666" points="123.25,-58 0,-58 0,-38 123.25,-38 123.25,-58"/>
<text text-anchor="middle" x="61.62" y="-44.5" font-family="Helvetica,sans-Serif" font-size="10.00">EventManager::logEvent</text>
</a>
</g>
</g>
<!-- Node2 -->
<g id="Node000002" class="node">
<title>Node2</title>
<g id="a_Node000002"><a xlink:href="class_event_manager.html#ad369ac9b7ab0251070e0075745836a40" target="_top" xlink:title="Saves the events to storage.">
<polygon fill="white" stroke="#666666" points="309.5,-96 159.25,-96 159.25,-76 309.5,-76 309.5,-96"/>
<text text-anchor="middle" x="234.38" y="-82.5" font-family="Helvetica,sans-Serif" font-size="10.00">EventManager::saveToStorage</text>
</a>
</g>
</g>
<!-- Node1&#45;&gt;Node2 -->
<g id="edge1_Node000001_Node000002" class="edge">
<title>Node1&#45;&gt;Node2</title>
<g id="a_edge1_Node000001_Node000002"><a xlink:title=" ">
<path fill="none" stroke="#63b8ff" d="M109.74,-58.48C129.98,-62.99 153.85,-68.3 175.19,-73.05"/>
<polygon fill="#63b8ff" stroke="#63b8ff" points="174.42,-76.47 184.94,-75.22 175.94,-69.63 174.42,-76.47"/>
</a>
</g>
</g>
<!-- Node3 -->
<g id="Node000003" class="node">
<title>Node3</title>
<g id="a_Node000003"><a xlink:href="class_event_log.html#adb17c412276c8678289395607c493e7e" target="_top" xlink:title="Converts the EventLog to a string representation.">
<polygon fill="white" stroke="#666666" points="282.88,-58 185.88,-58 185.88,-38 282.88,-38 282.88,-58"/>
<text text-anchor="middle" x="234.38" y="-44.5" font-family="Helvetica,sans-Serif" font-size="10.00">EventLog::toString</text>
</a>
</g>
</g>
<!-- Node1&#45;&gt;Node3 -->
<g id="edge2_Node000001_Node000003" class="edge">
<title>Node1&#45;&gt;Node3</title>
<g id="a_edge2_Node000001_Node000003"><a xlink:title=" ">
<path fill="none" stroke="#63b8ff" d="M123.31,-48C139.89,-48 157.85,-48 174.34,-48"/>
<polygon fill="#63b8ff" stroke="#63b8ff" points="173.98,-51.5 183.98,-48 173.98,-44.5 173.98,-51.5"/>
</a>
</g>
</g>
<!-- Node4 -->
<g id="Node000004" class="node">
<title>Node4</title>
<g id="a_Node000004"><a xlink:href="utils_8cpp.html#aacbcecbe6b5428e3571b06ab2104e706" target="_top" xlink:title="Prints a message to the UART with a timestamp and core number.">
<polygon fill="white" stroke="#666666" points="260.75,-20 208,-20 208,0 260.75,0 260.75,-20"/>
<text text-anchor="middle" x="234.38" y="-6.5" font-family="Helvetica,sans-Serif" font-size="10.00">uartPrint</text>
</a>
</g>
</g>
<!-- Node1&#45;&gt;Node4 -->
<g id="edge3_Node000001_Node000004" class="edge">
<title>Node1&#45;&gt;Node4</title>
<g id="a_edge3_Node000001_Node000004"><a xlink:title=" ">
<path fill="none" stroke="#63b8ff" d="M109.74,-37.52C137.13,-31.42 171.15,-23.85 196.56,-18.19"/>
<polygon fill="#63b8ff" stroke="#63b8ff" points="197.1,-21.66 206.1,-16.07 195.58,-14.83 197.1,-21.66"/>
</a>
</g>
</g>
</g>
</svg>
