<?xml version="1.0" encoding="UTF-8" standalone="no"?>
<!DOCTYPE svg PUBLIC "-//W3C//DTD SVG 1.1//EN"
 "http://www.w3.org/Graphics/SVG/1.1/DTD/svg11.dtd">
<!-- Generated by graphviz version 12.2.1 (20241206.2353)
 -->
<!-- Title: DS3231::set_time Pages: 1 -->
<svg width="404pt" height="142pt"
 viewBox="0.00 0.00 404.00 142.00" xmlns="http://www.w3.org/2000/svg" xmlns:xlink="http://www.w3.org/1999/xlink">

<svg id="main" version="1.1" xmlns="http://www.w3.org/2000/svg" xmlns:xlink="http://www.w3.org/1999/xlink" xml:space="preserve">

<style type="text/css"><![CDATA[
.node, .edge {opacity: 0.7;}
.node.selected, .edge.selected {opacity: 1;}
.edge:hover path { stroke: red; }
.edge:hover polygon { stroke: red; fill: red; }
]]></style>
<script type="application/ecmascript" xlink:href="svg.min.js"/>
<svg id="graph" class="graph">
<g id="graph0" class="graph" transform="scale(1 1) rotate(0) translate(4 138)">
<title>DS3231::set_time</title>
<!-- Node1 -->
<g id="Node000001" class="node">
<title>Node1</title>
<g id="a_Node000001"><a xlink:title=" ">
<polygon fill="#999999" stroke="#666666" points="94.75,-77 0,-77 0,-57 94.75,-57 94.75,-77"/>
<text text-anchor="middle" x="47.38" y="-63.5" font-family="Helvetica,sans-Serif" font-size="10.00">DS3231::set_time</text>
</a>
</g>
</g>
<!-- Node2 -->
<g id="Node000002" class="node">
<title>Node2</title>
<g id="a_Node000002"><a xlink:href="class_d_s3231.html#aa8ad05d783b0b67f10e8726863ff4891" target="_top" xlink:title="Library function that takes an 8&#45;bit unsigned integer and converts it into a Binary Coded Decimal num...">
<polygon fill="white" stroke="#666666" points="240.12,-134 135.62,-134 135.62,-114 240.12,-114 240.12,-134"/>
<text text-anchor="middle" x="187.88" y="-120.5" font-family="Helvetica,sans-Serif" font-size="10.00">DS3231::bin_to_bcd</text>
</a>
</g>
</g>
<!-- Node1&#45;&gt;Node2 -->
<g id="edge1_Node000001_Node000002" class="edge">
<title>Node1&#45;&gt;Node2</title>
<g id="a_edge1_Node000001_Node000002"><a xlink:title=" ">
<path fill="none" stroke="#63b8ff" d="M69.44,-77.47C85.93,-85.48 109.54,-96.54 130.75,-105 134.83,-106.62 139.1,-108.24 143.4,-109.79"/>
<polygon fill="#63b8ff" stroke="#63b8ff" points="141.99,-113.01 152.59,-113.02 144.32,-106.4 141.99,-113.01"/>
</a>
</g>
</g>
<!-- Node3 -->
<g id="Node000003" class="node">
<title>Node3</title>
<g id="a_Node000003"><a xlink:href="class_d_s3231.html#ae92a7c5b7e64acc0da3b0e6f781d6b5f" target="_top" xlink:title=" ">
<polygon fill="white" stroke="#666666" points="245,-96 130.75,-96 130.75,-76 245,-76 245,-96"/>
<text text-anchor="middle" x="187.88" y="-82.5" font-family="Helvetica,sans-Serif" font-size="10.00">DS3231::clock_enable</text>
</a>
</g>
</g>
<!-- Node1&#45;&gt;Node3 -->
<g id="edge2_Node000001_Node000003" class="edge">
<title>Node1&#45;&gt;Node3</title>
<g id="a_edge2_Node000001_Node000003"><a xlink:title=" ">
<path fill="none" stroke="#63b8ff" d="M94.88,-73.38C102.77,-74.46 111.1,-75.6 119.39,-76.74"/>
<polygon fill="#63b8ff" stroke="#63b8ff" points="118.76,-80.19 129.14,-78.08 119.71,-73.25 118.76,-80.19"/>
</a>
</g>
</g>
<!-- Node5 -->
<g id="Node000005" class="node">
<title>Node5</title>
<g id="a_Node000005"><a xlink:href="class_d_s3231.html#a2fa69b2c58e800b2a06e4966ca21b59c" target="_top" xlink:title="Library function to write to a specific I2C register address.">
<polygon fill="white" stroke="#666666" points="396,-58 281,-58 281,-38 396,-38 396,-58"/>
<text text-anchor="middle" x="338.5" y="-44.5" font-family="Helvetica,sans-Serif" font-size="10.00">DS3231::i2c_write_reg</text>
</a>
</g>
</g>
<!-- Node1&#45;&gt;Node5 -->
<g id="edge5_Node000001_Node000005" class="edge">
<title>Node1&#45;&gt;Node5</title>
<g id="a_edge5_Node000001_Node000005"><a xlink:title=" ">
<path fill="none" stroke="#63b8ff" d="M95.15,-63.93C142.27,-60.83 215.5,-56.02 269.13,-52.49"/>
<polygon fill="#63b8ff" stroke="#63b8ff" points="269.35,-55.99 279.1,-51.84 268.89,-49 269.35,-55.99"/>
</a>
</g>
</g>
<!-- Node6 -->
<g id="Node000006" class="node">
<title>Node6</title>
<g id="a_Node000006"><a xlink:href="utils_8cpp.html#acd86977d05fa330749958ace0f2798de" target="_top" xlink:title="Prints a message to the UART with a timestamp and core number.">
<polygon fill="white" stroke="#666666" points="216.12,-20 159.62,-20 159.62,0 216.12,0 216.12,-20"/>
<text text-anchor="middle" x="187.88" y="-6.5" font-family="Helvetica,sans-Serif" font-size="10.00">uart_print</text>
</a>
</g>
</g>
<!-- Node1&#45;&gt;Node6 -->
<g id="edge6_Node000001_Node000006" class="edge">
<title>Node1&#45;&gt;Node6</title>
<g id="a_edge6_Node000001_Node000006"><a xlink:title=" ">
<path fill="none" stroke="#63b8ff" d="M73.78,-56.55C95.45,-47.63 126.85,-34.7 151.07,-24.74"/>
<polygon fill="#63b8ff" stroke="#63b8ff" points="152.32,-28.01 160.23,-20.96 149.65,-21.53 152.32,-28.01"/>
</a>
</g>
</g>
<!-- Node4 -->
<g id="Node000004" class="node">
<title>Node4</title>
<g id="a_Node000004"><a xlink:href="class_d_s3231.html#ae3895581e62c411451d12de3e7558207" target="_top" xlink:title="Library function to read a specific I2C register address.">
<polygon fill="white" stroke="#666666" points="394.88,-96 282.12,-96 282.12,-76 394.88,-76 394.88,-96"/>
<text text-anchor="middle" x="338.5" y="-82.5" font-family="Helvetica,sans-Serif" font-size="10.00">DS3231::i2c_read_reg</text>
</a>
</g>
</g>
<!-- Node3&#45;&gt;Node4 -->
<g id="edge3_Node000003_Node000004" class="edge">
<title>Node3&#45;&gt;Node4</title>
<g id="a_edge3_Node000003_Node000004"><a xlink:title=" ">
<path fill="none" stroke="#63b8ff" d="M245.49,-86C253.72,-86 262.26,-86 270.68,-86"/>
<polygon fill="#63b8ff" stroke="#63b8ff" points="270.51,-89.5 280.51,-86 270.51,-82.5 270.51,-89.5"/>
</a>
</g>
</g>
<!-- Node3&#45;&gt;Node5 -->
<g id="edge4_Node000003_Node000005" class="edge">
<title>Node3&#45;&gt;Node5</title>
<g id="a_edge4_Node000003_Node000005"><a xlink:title=" ">
<path fill="none" stroke="#63b8ff" d="M229.88,-75.52C247.1,-71.11 267.33,-65.94 285.57,-61.28"/>
<polygon fill="#63b8ff" stroke="#63b8ff" points="286.34,-64.69 295.16,-58.82 284.61,-57.91 286.34,-64.69"/>
</a>
</g>
</g>
</g>
</svg>
</svg>

<style type='text/css'>
<![CDATA[
[data-mouse-over-selected='false'] { opacity: 0.7; }
[data-mouse-over-selected='true']  { opacity: 1.0; }
]]>
</style>
<script type="application/ecmascript"><![CDATA[
document.addEventListener('DOMContentLoaded', (event) => {
  highlightEdges();
  highlightAdjacentNodes();
});
]]></script>
</svg>
