<?xml version="1.0" encoding="UTF-8" standalone="no"?>
<!DOCTYPE svg PUBLIC "-//W3C//DTD SVG 1.1//EN"
 "http://www.w3.org/Graphics/SVG/1.1/DTD/svg11.dtd">
<!-- Generated by graphviz version 12.2.1 (20241206.2353)
 -->
<!-- Title: LoRaClass::setSignalBandwidth Pages: 1 -->
<svg width="843pt" height="138pt"
 viewBox="0.00 0.00 843.25 138.40" xmlns="http://www.w3.org/2000/svg" xmlns:xlink="http://www.w3.org/1999/xlink">
<g id="graph0" class="graph" transform="scale(1 1) rotate(0) translate(4 134.4)">
<title>LoRaClass::setSignalBandwidth</title>
<!-- Node1 -->
<g id="Node000001" class="node">
<title>Node1</title>
<g id="a_Node000001"><a xlink:title=" ">
<polygon fill="#999999" stroke="#666666" points="157,-87 0,-87 0,-67 157,-67 157,-87"/>
<text text-anchor="middle" x="78.5" y="-73.5" font-family="Helvetica,sans-Serif" font-size="10.00">LoRaClass::setSignalBandwidth</text>
</a>
</g>
</g>
<!-- Node2 -->
<g id="Node000002" class="node">
<title>Node2</title>
<g id="a_Node000002"><a xlink:href="class_lo_ra_class.html#add581bfe66dd75108e22b18a4d6f89bf" target="_top" xlink:title=" ">
<polygon fill="white" stroke="#666666" points="667,-96 540.75,-96 540.75,-76 667,-76 667,-96"/>
<text text-anchor="middle" x="603.88" y="-82.5" font-family="Helvetica,sans-Serif" font-size="10.00">LoRaClass::readRegister</text>
</a>
</g>
</g>
<!-- Node1&#45;&gt;Node2 -->
<g id="edge1_Node000001_Node000002" class="edge">
<title>Node1&#45;&gt;Node2</title>
<g id="a_edge1_Node000001_Node000002"><a xlink:title=" ">
<path fill="none" stroke="#63b8ff" d="M115.02,-87.45C188.32,-107.55 361.48,-147.45 504.75,-122 527.6,-117.94 552.11,-108.95 570.92,-100.97"/>
<polygon fill="#63b8ff" stroke="#63b8ff" points="572.14,-104.26 579.89,-97.04 569.33,-97.85 572.14,-104.26"/>
</a>
</g>
</g>
<!-- Node4 -->
<g id="Node000004" class="node">
<title>Node4</title>
<g id="a_Node000004"><a xlink:href="class_lo_ra_class.html#aa299808b2da9819eded073c84e1b219e" target="_top" xlink:title=" ">
<polygon fill="white" stroke="#666666" points="311.75,-87 193,-87 193,-67 311.75,-67 311.75,-87"/>
<text text-anchor="middle" x="252.38" y="-73.5" font-family="Helvetica,sans-Serif" font-size="10.00">LoRaClass::setLdoFlag</text>
</a>
</g>
</g>
<!-- Node1&#45;&gt;Node4 -->
<g id="edge3_Node000001_Node000004" class="edge">
<title>Node1&#45;&gt;Node4</title>
<g id="a_edge3_Node000001_Node000004"><a xlink:title=" ">
<path fill="none" stroke="#63b8ff" d="M157.39,-77C165.33,-77 173.36,-77 181.21,-77"/>
<polygon fill="#63b8ff" stroke="#63b8ff" points="181.03,-80.5 191.03,-77 181.03,-73.5 181.03,-80.5"/>
</a>
</g>
</g>
<!-- Node7 -->
<g id="Node000007" class="node">
<title>Node7</title>
<g id="a_Node000007"><a xlink:href="class_lo_ra_class.html#a77e7c77aa54174b352a26e1510f66f98" target="_top" xlink:title=" ">
<polygon fill="white" stroke="#666666" points="490.5,-20 362,-20 362,0 490.5,0 490.5,-20"/>
<text text-anchor="middle" x="426.25" y="-6.5" font-family="Helvetica,sans-Serif" font-size="10.00">LoRaClass::writeRegister</text>
</a>
</g>
</g>
<!-- Node1&#45;&gt;Node7 -->
<g id="edge11_Node000001_Node000007" class="edge">
<title>Node1&#45;&gt;Node7</title>
<g id="a_edge11_Node000001_Node000007"><a xlink:title=" ">
<path fill="none" stroke="#63b8ff" d="M133.52,-66.53C194.84,-54.65 294.81,-35.28 360.31,-22.58"/>
<polygon fill="#63b8ff" stroke="#63b8ff" points="360.68,-26.08 369.84,-20.74 359.35,-19.2 360.68,-26.08"/>
</a>
</g>
</g>
<!-- Node3 -->
<g id="Node000003" class="node">
<title>Node3</title>
<g id="a_Node000003"><a xlink:href="class_lo_ra_class.html#a3a0c0649c595b1176b5fb1ae41210ee3" target="_top" xlink:title=" ">
<polygon fill="white" stroke="#666666" points="835.25,-58 703,-58 703,-38 835.25,-38 835.25,-58"/>
<text text-anchor="middle" x="769.12" y="-44.5" font-family="Helvetica,sans-Serif" font-size="10.00">LoRaClass::singleTransfer</text>
</a>
</g>
</g>
<!-- Node2&#45;&gt;Node3 -->
<g id="edge2_Node000002_Node000003" class="edge">
<title>Node2&#45;&gt;Node3</title>
<g id="a_edge2_Node000002_Node000003"><a xlink:title=" ">
<path fill="none" stroke="#63b8ff" d="M649.92,-75.52C669.19,-71.03 691.89,-65.75 712.22,-61.01"/>
<polygon fill="#63b8ff" stroke="#63b8ff" points="712.81,-64.47 721.76,-58.79 711.22,-57.65 712.81,-64.47"/>
</a>
</g>
</g>
<!-- Node4&#45;&gt;Node2 -->
<g id="edge8_Node000004_Node000002" class="edge">
<title>Node4&#45;&gt;Node2</title>
<g id="a_edge8_Node000004_Node000002"><a xlink:title=" ">
<path fill="none" stroke="#63b8ff" d="M280.98,-87.49C299.55,-93.97 324.75,-101.66 347.75,-105 416.8,-115.03 435.29,-111.66 504.75,-105 518.79,-103.65 533.8,-101.25 547.76,-98.59"/>
<polygon fill="#63b8ff" stroke="#63b8ff" points="548.07,-102.09 557.2,-96.71 546.71,-95.23 548.07,-102.09"/>
</a>
</g>
</g>
<!-- Node5 -->
<g id="Node000005" class="node">
<title>Node5</title>
<g id="a_Node000005"><a xlink:href="class_lo_ra_class.html#a810b0f66f8589f7bcbbe08ce80f41959" target="_top" xlink:title=" ">
<polygon fill="white" stroke="#666666" points="504.75,-96 347.75,-96 347.75,-76 504.75,-76 504.75,-96"/>
<text text-anchor="middle" x="426.25" y="-82.5" font-family="Helvetica,sans-Serif" font-size="10.00">LoRaClass::getSignalBandwidth</text>
</a>
</g>
</g>
<!-- Node4&#45;&gt;Node5 -->
<g id="edge4_Node000004_Node000005" class="edge">
<title>Node4&#45;&gt;Node5</title>
<g id="a_edge4_Node000004_Node000005"><a xlink:title=" ">
<path fill="none" stroke="#63b8ff" d="M312.04,-80.07C319.78,-80.48 327.84,-80.9 335.94,-81.32"/>
<polygon fill="#63b8ff" stroke="#63b8ff" points="335.71,-84.82 345.88,-81.84 336.08,-77.83 335.71,-84.82"/>
</a>
</g>
</g>
<!-- Node6 -->
<g id="Node000006" class="node">
<title>Node6</title>
<g id="a_Node000006"><a xlink:href="class_lo_ra_class.html#aa1b8dc4023526ec67c852555e6ed2593" target="_top" xlink:title=" ">
<polygon fill="white" stroke="#666666" points="504,-58 348.5,-58 348.5,-38 504,-38 504,-58"/>
<text text-anchor="middle" x="426.25" y="-44.5" font-family="Helvetica,sans-Serif" font-size="10.00">LoRaClass::getSpreadingFactor</text>
</a>
</g>
</g>
<!-- Node4&#45;&gt;Node6 -->
<g id="edge6_Node000004_Node000006" class="edge">
<title>Node4&#45;&gt;Node6</title>
<g id="a_edge6_Node000004_Node000006"><a xlink:title=" ">
<path fill="none" stroke="#63b8ff" d="M312.04,-67.1C324.88,-64.93 338.63,-62.62 351.96,-60.37"/>
<polygon fill="#63b8ff" stroke="#63b8ff" points="352.26,-63.86 361.54,-58.75 351.1,-56.96 352.26,-63.86"/>
</a>
</g>
</g>
<!-- Node4&#45;&gt;Node7 -->
<g id="edge9_Node000004_Node000007" class="edge">
<title>Node4&#45;&gt;Node7</title>
<g id="a_edge9_Node000004_Node000007"><a xlink:title=" ">
<path fill="none" stroke="#63b8ff" d="M270.91,-66.53C289.46,-55.83 319.83,-39.36 347.75,-29 353.05,-27.03 358.63,-25.21 364.27,-23.53"/>
<polygon fill="#63b8ff" stroke="#63b8ff" points="364.98,-26.97 373.67,-20.9 363.09,-20.23 364.98,-26.97"/>
</a>
</g>
</g>
<!-- Node5&#45;&gt;Node2 -->
<g id="edge5_Node000005_Node000002" class="edge">
<title>Node5&#45;&gt;Node2</title>
<g id="a_edge5_Node000005_Node000002"><a xlink:title=" ">
<path fill="none" stroke="#63b8ff" d="M505.05,-86C513,-86 521.06,-86 528.97,-86"/>
<polygon fill="#63b8ff" stroke="#63b8ff" points="528.91,-89.5 538.91,-86 528.91,-82.5 528.91,-89.5"/>
</a>
</g>
</g>
<!-- Node6&#45;&gt;Node2 -->
<g id="edge7_Node000006_Node000002" class="edge">
<title>Node6&#45;&gt;Node2</title>
<g id="a_edge7_Node000006_Node000002"><a xlink:title=" ">
<path fill="none" stroke="#63b8ff" d="M475.71,-58.48C496.63,-63.01 521.31,-68.35 543.34,-73.12"/>
<polygon fill="#63b8ff" stroke="#63b8ff" points="542.58,-76.54 553.1,-75.23 544.06,-69.69 542.58,-76.54"/>
</a>
</g>
</g>
<!-- Node7&#45;&gt;Node3 -->
<g id="edge10_Node000007_Node000003" class="edge">
<title>Node7&#45;&gt;Node3</title>
<g id="a_edge10_Node000007_Node000003"><a xlink:title=" ">
<path fill="none" stroke="#63b8ff" d="M490.97,-17.1C547.72,-23.43 630.89,-32.7 691.31,-39.44"/>
<polygon fill="#63b8ff" stroke="#63b8ff" points="690.86,-42.91 701.19,-40.54 691.64,-35.95 690.86,-42.91"/>
</a>
</g>
</g>
</g>
</svg>
