<?xml version="1.0" encoding="UTF-8" standalone="no"?>
<!DOCTYPE svg PUBLIC "-//W3C//DTD SVG 1.1//EN"
 "http://www.w3.org/Graphics/SVG/1.1/DTD/svg11.dtd">
<!-- Generated by graphviz version 12.2.1 (20241206.2353)
 -->
<!-- Title: EventEmitter::emit Pages: 1 -->
<svg width="499pt" height="166pt"
 viewBox="0.00 0.00 498.75 166.42" xmlns="http://www.w3.org/2000/svg" xmlns:xlink="http://www.w3.org/1999/xlink">

<svg id="main" version="1.1" xmlns="http://www.w3.org/2000/svg" xmlns:xlink="http://www.w3.org/1999/xlink" xml:space="preserve">

<style type="text/css"><![CDATA[
.node, .edge {opacity: 0.7;}
.node.selected, .edge.selected {opacity: 1;}
.edge:hover path { stroke: red; }
.edge:hover polygon { stroke: red; fill: red; }
]]></style>
<script type="application/ecmascript" xlink:href="svg.min.js"/>
<svg id="graph" class="graph">
<g id="graph0" class="graph" transform="scale(1 1) rotate(0) translate(4 162.42)">
<title>EventEmitter::emit</title>
<!-- Node1 -->
<g id="Node000001" class="node">
<title>Node1</title>
<g id="a_Node000001"><a xlink:title="Emits an event.">
<polygon fill="#999999" stroke="#666666" points="490.75,-82.42 393,-82.42 393,-62.42 490.75,-62.42 490.75,-82.42"/>
<text text-anchor="middle" x="441.88" y="-68.92" font-family="Helvetica,sans-Serif" font-size="10.00">EventEmitter::emit</text>
</a>
</g>
</g>
<!-- Node2 -->
<g id="Node000002" class="node">
<title>Node2</title>
<g id="a_Node000002"><a xlink:href="event__manager_8cpp.html#a467714d66058f52e4ac7aeb6df46b433" target="_top" xlink:title="Checks power statuses and triggers events based on voltage trends.">
<polygon fill="white" stroke="#666666" points="321.75,-158.42 221,-158.42 221,-138.42 321.75,-138.42 321.75,-158.42"/>
<text text-anchor="middle" x="271.38" y="-144.92" font-family="Helvetica,sans-Serif" font-size="10.00">checkPowerEvents</text>
</a>
</g>
</g>
<!-- Node1&#45;&gt;Node2 -->
<g id="edge1_Node000001_Node000002" class="edge">
<title>Node1&#45;&gt;Node2</title>
<g id="a_edge1_Node000001_Node000002"><a xlink:title=" ">
<path fill="none" stroke="#63b8ff" d="M420.04,-89.87C403.82,-102.62 380.23,-119.36 357,-129.42 346.09,-134.15 333.85,-137.77 322.14,-140.51"/>
<polygon fill="#63b8ff" stroke="#63b8ff" points="421.91,-92.86 427.51,-83.86 417.52,-87.41 421.91,-92.86"/>
</a>
</g>
</g>
<!-- Node5 -->
<g id="Node000005" class="node">
<title>Node5</title>
<g id="a_Node000005"><a xlink:href="group___g_p_s_commands.html#gad12f2e18bdfecbd5b6e8d8a84bb9cd77" target="_top" xlink:title="Handler for enabling GPS transparent mode (UART pass&#45;through)">
<polygon fill="white" stroke="#666666" points="357,-120.42 185.75,-120.42 185.75,-100.42 357,-100.42 357,-120.42"/>
<text text-anchor="middle" x="271.38" y="-106.92" font-family="Helvetica,sans-Serif" font-size="10.00">handleEnableGPSTransparentMode</text>
</a>
</g>
</g>
<!-- Node1&#45;&gt;Node5 -->
<g id="edge4_Node000001_Node000005" class="edge">
<title>Node1&#45;&gt;Node5</title>
<g id="a_edge4_Node000001_Node000005"><a xlink:title=" ">
<path fill="none" stroke="#63b8ff" d="M383.61,-85.41C374.7,-87.42 365.6,-89.48 357,-91.42 344.66,-94.2 331.31,-97.2 318.94,-99.98"/>
<polygon fill="#63b8ff" stroke="#63b8ff" points="384.28,-88.84 393.26,-83.22 382.73,-82.02 384.28,-88.84"/>
</a>
</g>
</g>
<!-- Node6 -->
<g id="Node000006" class="node">
<title>Node6</title>
<g id="a_Node000006"><a xlink:href="group___g_p_s_commands.html#gaa4c13d7d324ffb354badf45e9ceffb1c" target="_top" xlink:title="Handler for controlling GPS module power state.">
<polygon fill="white" stroke="#666666" points="332.25,-82.42 210.5,-82.42 210.5,-62.42 332.25,-62.42 332.25,-82.42"/>
<text text-anchor="middle" x="271.38" y="-68.92" font-family="Helvetica,sans-Serif" font-size="10.00">handleGPSPowerStatus</text>
</a>
</g>
</g>
<!-- Node1&#45;&gt;Node6 -->
<g id="edge5_Node000001_Node000006" class="edge">
<title>Node1&#45;&gt;Node6</title>
<g id="a_edge5_Node000001_Node000006"><a xlink:title=" ">
<path fill="none" stroke="#63b8ff" d="M381.35,-72.42C365.56,-72.42 348.5,-72.42 332.67,-72.42"/>
<polygon fill="#63b8ff" stroke="#63b8ff" points="381.08,-75.92 391.08,-72.42 381.08,-68.92 381.08,-75.92"/>
</a>
</g>
</g>
<!-- Node7 -->
<g id="Node000007" class="node">
<title>Node7</title>
<g id="a_Node000007"><a xlink:href="group___clock_commands.html#ga1eefb8c4d539d50c787b4db3f6ebb093" target="_top" xlink:title="Handler for getting and setting system time.">
<polygon fill="white" stroke="#666666" points="304.5,-44.42 238.25,-44.42 238.25,-24.42 304.5,-24.42 304.5,-44.42"/>
<text text-anchor="middle" x="271.38" y="-30.92" font-family="Helvetica,sans-Serif" font-size="10.00">handleTime</text>
</a>
</g>
</g>
<!-- Node1&#45;&gt;Node7 -->
<g id="edge6_Node000001_Node000007" class="edge">
<title>Node1&#45;&gt;Node7</title>
<g id="a_edge6_Node000001_Node000007"><a xlink:title=" ">
<path fill="none" stroke="#63b8ff" d="M383.61,-59.43C374.7,-57.42 365.6,-55.36 357,-53.42 339.81,-49.54 320.66,-45.24 304.93,-41.71"/>
<polygon fill="#63b8ff" stroke="#63b8ff" points="382.73,-62.82 393.26,-61.62 384.28,-55.99 382.73,-62.82"/>
</a>
</g>
</g>
<!-- Node8 -->
<g id="Node000008" class="node">
<title>Node8</title>
<g id="a_Node000008"><a xlink:href="communication_8cpp.html#a520df448c1dc359f42111ac240081975" target="_top" xlink:title="Initializes the LoRa radio module.">
<polygon fill="white" stroke="#666666" points="149.75,-63.42 73,-63.42 73,-43.42 149.75,-43.42 149.75,-63.42"/>
<text text-anchor="middle" x="111.38" y="-49.92" font-family="Helvetica,sans-Serif" font-size="10.00">initializeRadio</text>
</a>
</g>
</g>
<!-- Node1&#45;&gt;Node8 -->
<g id="edge7_Node000001_Node000008" class="edge">
<title>Node1&#45;&gt;Node8</title>
<g id="a_edge7_Node000001_Node000008"><a xlink:title=" ">
<path fill="none" stroke="#63b8ff" d="M422.24,-54.86C406.31,-41.13 382.04,-23.12 357,-15.42 284.25,6.96 259.7,2.59 185.75,-15.42 164.01,-20.72 141.52,-33.67 127.26,-42.98"/>
<polygon fill="#63b8ff" stroke="#63b8ff" points="419.69,-57.27 429.47,-61.33 424.35,-52.05 419.69,-57.27"/>
</a>
</g>
</g>
<!-- Node3 -->
<g id="Node000003" class="node">
<title>Node3</title>
<g id="a_Node000003"><a xlink:href="main_8cpp.html#a9f153132b8b4afad133b952111e18bd9" target="_top" xlink:title=" ">
<polygon fill="white" stroke="#666666" points="144.88,-129.42 77.88,-129.42 77.88,-109.42 144.88,-109.42 144.88,-129.42"/>
<text text-anchor="middle" x="111.38" y="-115.92" font-family="Helvetica,sans-Serif" font-size="10.00">core1_entry</text>
</a>
</g>
</g>
<!-- Node2&#45;&gt;Node3 -->
<g id="edge2_Node000002_Node000003" class="edge">
<title>Node2&#45;&gt;Node3</title>
<g id="a_edge2_Node000002_Node000003"><a xlink:title=" ">
<path fill="none" stroke="#63b8ff" d="M209.6,-137.26C187.73,-133.25 163.89,-128.88 145.29,-125.46"/>
<polygon fill="#63b8ff" stroke="#63b8ff" points="208.86,-140.69 219.33,-139.05 210.12,-133.8 208.86,-140.69"/>
</a>
</g>
</g>
<!-- Node4 -->
<g id="Node000004" class="node">
<title>Node4</title>
<g id="a_Node000004"><a xlink:href="main_8cpp.html#ae66f6b31b5ad750f1fe042a706a4e3d4" target="_top" xlink:title=" ">
<polygon fill="white" stroke="#666666" points="37,-82.42 0,-82.42 0,-62.42 37,-62.42 37,-82.42"/>
<text text-anchor="middle" x="18.5" y="-68.92" font-family="Helvetica,sans-Serif" font-size="10.00">main</text>
</a>
</g>
</g>
<!-- Node3&#45;&gt;Node4 -->
<g id="edge3_Node000003_Node000004" class="edge">
<title>Node3&#45;&gt;Node4</title>
<g id="a_edge3_Node000003_Node000004"><a xlink:title=" ">
<path fill="none" stroke="#63b8ff" d="M80.36,-103.9C66.16,-96.55 49.68,-88.03 37.46,-81.71"/>
<polygon fill="#63b8ff" stroke="#63b8ff" points="78.37,-106.81 88.86,-108.29 81.59,-100.59 78.37,-106.81"/>
</a>
</g>
</g>
<!-- Node8&#45;&gt;Node4 -->
<g id="edge8_Node000008_Node000004" class="edge">
<title>Node8&#45;&gt;Node4</title>
<g id="a_edge8_Node000008_Node000004"><a xlink:title=" ">
<path fill="none" stroke="#63b8ff" d="M61.57,-63.62C52.84,-65.45 44.28,-67.24 37.18,-68.72"/>
<polygon fill="#63b8ff" stroke="#63b8ff" points="62.07,-67.09 71.14,-61.62 60.64,-60.24 62.07,-67.09"/>
</a>
</g>
</g>
</g>
</svg>
</svg>

<style type='text/css'>
<![CDATA[
[data-mouse-over-selected='false'] { opacity: 0.7; }
[data-mouse-over-selected='true']  { opacity: 1.0; }
]]>
</style>
<script type="application/ecmascript"><![CDATA[
document.addEventListener('DOMContentLoaded', (event) => {
  highlightEdges();
  highlightAdjacentNodes();
});
]]></script>
</svg>
