<?xml version="1.0" encoding="UTF-8" standalone="no"?>
<!DOCTYPE svg PUBLIC "-//W3C//DTD SVG 1.1//EN"
 "http://www.w3.org/Graphics/SVG/1.1/DTD/svg11.dtd">
<!-- Generated by graphviz version 12.2.1 (20241206.2353)
 -->
<!-- Title: LoRaClass::getSpreadingFactor Pages: 1 -->
<svg width="511pt" height="66pt"
 viewBox="0.00 0.00 511.25 66.00" xmlns="http://www.w3.org/2000/svg" xmlns:xlink="http://www.w3.org/1999/xlink">
<g id="graph0" class="graph" transform="scale(1 1) rotate(0) translate(4 62)">
<title>LoRaClass::getSpreadingFactor</title>
<!-- Node1 -->
<g id="Node000001" class="node">
<title>Node1</title>
<g id="a_Node000001"><a xlink:title=" ">
<polygon fill="#999999" stroke="#666666" points="503.25,-39 347.75,-39 347.75,-19 503.25,-19 503.25,-39"/>
<text text-anchor="middle" x="425.5" y="-25.5" font-family="Helvetica,sans-Serif" font-size="10.00">LoRaClass::getSpreadingFactor</text>
</a>
</g>
</g>
<!-- Node2 -->
<g id="Node000002" class="node">
<title>Node2</title>
<g id="a_Node000002"><a xlink:href="class_lo_ra_class.html#aa299808b2da9819eded073c84e1b219e" target="_top" xlink:title=" ">
<polygon fill="white" stroke="#666666" points="311.75,-39 193,-39 193,-19 311.75,-19 311.75,-39"/>
<text text-anchor="middle" x="252.38" y="-25.5" font-family="Helvetica,sans-Serif" font-size="10.00">LoRaClass::setLdoFlag</text>
</a>
</g>
</g>
<!-- Node1&#45;&gt;Node2 -->
<g id="edge1_Node000001_Node000002" class="edge">
<title>Node1&#45;&gt;Node2</title>
<g id="a_edge1_Node000001_Node000002"><a xlink:title=" ">
<path fill="none" stroke="#63b8ff" d="M335.99,-29C327.88,-29 319.8,-29 312.05,-29"/>
<polygon fill="#63b8ff" stroke="#63b8ff" points="335.93,-32.5 345.93,-29 335.93,-25.5 335.93,-32.5"/>
</a>
</g>
</g>
<!-- Node3 -->
<g id="Node000003" class="node">
<title>Node3</title>
<g id="a_Node000003"><a xlink:href="class_lo_ra_class.html#ad4d841d74015f7fc1139ed0ad33dc4c2" target="_top" xlink:title=" ">
<polygon fill="white" stroke="#666666" points="157,-58 0,-58 0,-38 157,-38 157,-58"/>
<text text-anchor="middle" x="78.5" y="-44.5" font-family="Helvetica,sans-Serif" font-size="10.00">LoRaClass::setSignalBandwidth</text>
</a>
</g>
</g>
<!-- Node2&#45;&gt;Node3 -->
<g id="edge2_Node000002_Node000003" class="edge">
<title>Node2&#45;&gt;Node3</title>
<g id="a_edge2_Node000002_Node000003"><a xlink:title=" ">
<path fill="none" stroke="#63b8ff" d="M181.31,-36.75C173.42,-37.62 165.34,-38.51 157.36,-39.39"/>
<polygon fill="#63b8ff" stroke="#63b8ff" points="181.65,-40.23 191.2,-35.65 180.88,-33.27 181.65,-40.23"/>
</a>
</g>
</g>
<!-- Node4 -->
<g id="Node000004" class="node">
<title>Node4</title>
<g id="a_Node000004"><a xlink:href="class_lo_ra_class.html#aff3deaecc03da514af3a05e5e0c38e69" target="_top" xlink:title=" ">
<polygon fill="white" stroke="#666666" points="156.25,-20 0.75,-20 0.75,0 156.25,0 156.25,-20"/>
<text text-anchor="middle" x="78.5" y="-6.5" font-family="Helvetica,sans-Serif" font-size="10.00">LoRaClass::setSpreadingFactor</text>
</a>
</g>
</g>
<!-- Node2&#45;&gt;Node4 -->
<g id="edge3_Node000002_Node000004" class="edge">
<title>Node2&#45;&gt;Node4</title>
<g id="a_edge3_Node000002_Node000004"><a xlink:title=" ">
<path fill="none" stroke="#63b8ff" d="M181.39,-21.26C173.27,-20.37 164.96,-19.45 156.75,-18.54"/>
<polygon fill="#63b8ff" stroke="#63b8ff" points="180.88,-24.73 191.2,-22.35 181.65,-17.77 180.88,-24.73"/>
</a>
</g>
</g>
</g>
</svg>
