<?xml version="1.0" encoding="UTF-8" standalone="no"?>
<!DOCTYPE svg PUBLIC "-//W3C//DTD SVG 1.1//EN"
 "http://www.w3.org/Graphics/SVG/1.1/DTD/svg11.dtd">
<!-- Generated by graphviz version 12.2.1 (20241206.2353)
 -->
<!-- Title: PowerManager Pages: 1 -->
<svg width="130pt" height="164pt"
 viewBox="0.00 0.00 130.38 164.00" xmlns="http://www.w3.org/2000/svg" xmlns:xlink="http://www.w3.org/1999/xlink">
<g id="graph0" class="graph" transform="scale(1 1) rotate(0) translate(4 160)">
<title>PowerManager</title>
<!-- Node1 -->
<g id="Node000001" class="node">
<title>Node1</title>
<g id="a_Node000001"><a xlink:title=" ">
<polygon fill="#999999" stroke="#666666" points="101.5,-20 20.25,-20 20.25,0 101.5,0 101.5,-20"/>
<text text-anchor="middle" x="60.88" y="-6.5" font-family="Helvetica,sans-Serif" font-size="10.00">PowerManager</text>
</a>
</g>
</g>
<!-- Node2 -->
<g id="Node000002" class="node">
<title>Node2</title>
<g id="a_Node000002"><a xlink:href="class_i_n_a3221.html" target="_top" xlink:title=" ">
<polygon fill="white" stroke="#666666" points="88,-88 33.75,-88 33.75,-68 88,-68 88,-88"/>
<text text-anchor="middle" x="60.88" y="-74.5" font-family="Helvetica,sans-Serif" font-size="10.00">INA3221</text>
</a>
</g>
</g>
<!-- Node2&#45;&gt;Node1 -->
<g id="edge1_Node000001_Node000002" class="edge">
<title>Node2&#45;&gt;Node1</title>
<g id="a_edge1_Node000001_Node000002"><a xlink:title=" ">
<path fill="none" stroke="#9a32cd" stroke-dasharray="5,2" d="M60.88,-56.28C60.88,-44.27 60.88,-29.74 60.88,-20.44"/>
<polygon fill="#9a32cd" stroke="#9a32cd" points="57.38,-56.03 60.88,-66.03 64.38,-56.03 57.38,-56.03"/>
</a>
</g>
<text text-anchor="middle" x="79.25" y="-40.5" font-family="Helvetica,sans-Serif" font-size="10.00" fill="grey"> ina3221</text>
</g>
<!-- Node3 -->
<g id="Node000003" class="node">
<title>Node3</title>
<g id="a_Node000003"><a xlink:href="struct_i_n_a3221_1_1masken__reg__t.html" target="_top" xlink:title=" ">
<polygon fill="white" stroke="#666666" points="121.75,-156 0,-156 0,-136 121.75,-136 121.75,-156"/>
<text text-anchor="middle" x="60.88" y="-142.5" font-family="Helvetica,sans-Serif" font-size="10.00">INA3221::masken_reg_t</text>
</a>
</g>
</g>
<!-- Node3&#45;&gt;Node2 -->
<g id="edge2_Node000002_Node000003" class="edge">
<title>Node3&#45;&gt;Node2</title>
<g id="a_edge2_Node000002_Node000003"><a xlink:title=" ">
<path fill="none" stroke="#9a32cd" stroke-dasharray="5,2" d="M60.88,-124.28C60.88,-112.27 60.88,-97.74 60.88,-88.44"/>
<polygon fill="#9a32cd" stroke="#9a32cd" points="57.38,-124.03 60.88,-134.03 64.38,-124.03 57.38,-124.03"/>
</a>
</g>
<text text-anchor="middle" x="91.62" y="-108.5" font-family="Helvetica,sans-Serif" font-size="10.00" fill="grey"> _masken_reg</text>
</g>
</g>
</svg>
