<?xml version="1.0" encoding="UTF-8" standalone="no"?>
<!DOCTYPE svg PUBLIC "-//W3C//DTD SVG 1.1//EN"
 "http://www.w3.org/Graphics/SVG/1.1/DTD/svg11.dtd">
<!-- Generated by graphviz version 12.2.1 (20241206.2353)
 -->
<!-- Title: BH1750::write8 Pages: 1 -->
<svg width="341pt" height="47pt"
 viewBox="0.00 0.00 341.00 47.00" xmlns="http://www.w3.org/2000/svg" xmlns:xlink="http://www.w3.org/1999/xlink">

<svg id="main" version="1.1" xmlns="http://www.w3.org/2000/svg" xmlns:xlink="http://www.w3.org/1999/xlink" xml:space="preserve">

<style type="text/css"><![CDATA[
.node, .edge {opacity: 0.7;}
.node.selected, .edge.selected {opacity: 1;}
.edge:hover path { stroke: red; }
.edge:hover polygon { stroke: red; fill: red; }
]]></style>
<script type="application/ecmascript" xlink:href="svg.min.js"/>
<svg id="graph" class="graph">
<g id="graph0" class="graph" transform="scale(1 1) rotate(0) translate(4 43)">
<title>BH1750::write8</title>
<!-- Node1 -->
<g id="Node000001" class="node">
<title>Node1</title>
<g id="a_Node000001"><a xlink:title=" ">
<polygon fill="#999999" stroke="#666666" points="333,-39 249.5,-39 249.5,-19 333,-19 333,-39"/>
<text text-anchor="middle" x="291.25" y="-25.5" font-family="Helvetica,sans-Serif" font-size="10.00">BH1750::write8</text>
</a>
</g>
</g>
<!-- Node2 -->
<g id="Node000002" class="node">
<title>Node2</title>
<g id="a_Node000002"><a xlink:href="class_b_h1750.html#ae0e57ed9ecc08464a6b98b733d420e11" target="_top" xlink:title=" ">
<polygon fill="white" stroke="#666666" points="80.5,-39 0,-39 0,-19 80.5,-19 80.5,-39"/>
<text text-anchor="middle" x="40.25" y="-25.5" font-family="Helvetica,sans-Serif" font-size="10.00">BH1750::begin</text>
</a>
</g>
</g>
<!-- Node1&#45;&gt;Node2 -->
<g id="edge1_Node000001_Node000002" class="edge">
<title>Node1&#45;&gt;Node2</title>
<g id="a_edge1_Node000001_Node000002"><a xlink:title=" ">
<path fill="none" stroke="#63b8ff" d="M237.69,-29C190.81,-29 123.21,-29 80.78,-29"/>
<polygon fill="#63b8ff" stroke="#63b8ff" points="237.62,-32.5 247.62,-29 237.62,-25.5 237.62,-32.5"/>
</a>
</g>
</g>
<!-- Node3 -->
<g id="Node000003" class="node">
<title>Node3</title>
<g id="a_Node000003"><a xlink:href="class_b_h1750.html#ab4f497d6aabaa34ba1ace42206bca286" target="_top" xlink:title=" ">
<polygon fill="white" stroke="#666666" points="213.5,-20 116.5,-20 116.5,0 213.5,0 213.5,-20"/>
<text text-anchor="middle" x="165" y="-6.5" font-family="Helvetica,sans-Serif" font-size="10.00">BH1750::configure</text>
</a>
</g>
</g>
<!-- Node1&#45;&gt;Node3 -->
<g id="edge2_Node000001_Node000003" class="edge">
<title>Node1&#45;&gt;Node3</title>
<g id="a_edge2_Node000001_Node000003"><a xlink:title=" ">
<path fill="none" stroke="#63b8ff" d="M238.09,-21.02C230.06,-19.8 221.81,-18.53 213.88,-17.32"/>
<polygon fill="#63b8ff" stroke="#63b8ff" points="237.31,-24.45 247.73,-22.5 238.37,-17.53 237.31,-24.45"/>
</a>
</g>
</g>
<!-- Node3&#45;&gt;Node2 -->
<g id="edge3_Node000003_Node000002" class="edge">
<title>Node3&#45;&gt;Node2</title>
<g id="a_edge3_Node000003_Node000002"><a xlink:title=" ">
<path fill="none" stroke="#63b8ff" d="M105.06,-19.12C96.83,-20.4 88.55,-21.68 80.79,-22.88"/>
<polygon fill="#63b8ff" stroke="#63b8ff" points="105.35,-22.62 114.69,-17.63 104.28,-15.7 105.35,-22.62"/>
</a>
</g>
</g>
</g>
</svg>
</svg>

<style type='text/css'>
<![CDATA[
[data-mouse-over-selected='false'] { opacity: 0.7; }
[data-mouse-over-selected='true']  { opacity: 1.0; }
]]>
</style>
<script type="application/ecmascript"><![CDATA[
document.addEventListener('DOMContentLoaded', (event) => {
  highlightEdges();
  highlightAdjacentNodes();
});
]]></script>
</svg>
