<?xml version="1.0" encoding="UTF-8" standalone="no"?>
<!DOCTYPE svg PUBLIC "-//W3C//DTD SVG 1.1//EN"
 "http://www.w3.org/Graphics/SVG/1.1/DTD/svg11.dtd">
<!-- Generated by graphviz version 12.2.1 (20241206.2353)
 -->
<!-- Title: EventEmitter::emit Pages: 1 -->
<svg width="452pt" height="192pt"
 viewBox="0.00 0.00 451.50 192.00" xmlns="http://www.w3.org/2000/svg" xmlns:xlink="http://www.w3.org/1999/xlink">
<g id="graph0" class="graph" transform="scale(1 1) rotate(0) translate(4 188)">
<title>EventEmitter::emit</title>
<!-- Node1 -->
<g id="Node000001" class="node">
<title>Node1</title>
<g id="a_Node000001"><a xlink:title="Emits an event.">
<polygon fill="#999999" stroke="#666666" points="443.5,-96 345.75,-96 345.75,-76 443.5,-76 443.5,-96"/>
<text text-anchor="middle" x="394.62" y="-82.5" font-family="Helvetica,sans-Serif" font-size="10.00">EventEmitter::emit</text>
</a>
</g>
</g>
<!-- Node2 -->
<g id="Node000002" class="node">
<title>Node2</title>
<g id="a_Node000002"><a xlink:href="event__manager_8cpp.html#a3a1b3fdef7c62da5c917d3006cdc65dd" target="_top" xlink:title="Checks power statuses and triggers events based on voltage trends.">
<polygon fill="white" stroke="#666666" points="299.25,-184 191,-184 191,-164 299.25,-164 299.25,-184"/>
<text text-anchor="middle" x="245.12" y="-170.5" font-family="Helvetica,sans-Serif" font-size="10.00">check_power_events</text>
</a>
</g>
</g>
<!-- Node1&#45;&gt;Node2 -->
<g id="edge1_Node000001_Node000002" class="edge">
<title>Node1&#45;&gt;Node2</title>
<g id="a_edge1_Node000001_Node000002"><a xlink:title=" ">
<path fill="none" stroke="#63b8ff" d="M375.83,-104.28C359.83,-119.77 335.03,-141.54 309.75,-155 303.44,-158.36 296.46,-161.21 289.49,-163.59"/>
<polygon fill="#63b8ff" stroke="#63b8ff" points="378.05,-107.01 382.68,-97.48 373.12,-102.04 378.05,-107.01"/>
</a>
</g>
</g>
<!-- Node5 -->
<g id="Node000005" class="node">
<title>Node5</title>
<g id="a_Node000005"><a xlink:href="group___g_p_s_commands.html#ga3e4c6db6e933a1ff77f3ac52ce1c44be" target="_top" xlink:title="Handler for enabling GPS transparent mode (UART pass&#45;through)">
<polygon fill="white" stroke="#666666" points="305.62,-146 184.62,-146 184.62,-114 305.62,-114 305.62,-146"/>
<text text-anchor="start" x="192.62" y="-132.5" font-family="Helvetica,sans-Serif" font-size="10.00">handle_enable_gps_uart</text>
<text text-anchor="middle" x="245.12" y="-120.5" font-family="Helvetica,sans-Serif" font-size="10.00">_passthrough</text>
</a>
</g>
</g>
<!-- Node1&#45;&gt;Node5 -->
<g id="edge4_Node000001_Node000005" class="edge">
<title>Node1&#45;&gt;Node5</title>
<g id="a_edge4_Node000001_Node000005"><a xlink:title=" ">
<path fill="none" stroke="#63b8ff" d="M347.8,-99.67C333.08,-104.06 316.62,-108.97 301.3,-113.54"/>
<polygon fill="#63b8ff" stroke="#63b8ff" points="348.64,-103.07 357.22,-96.86 346.64,-96.36 348.64,-103.07"/>
</a>
</g>
</g>
<!-- Node6 -->
<g id="Node000006" class="node">
<title>Node6</title>
<g id="a_Node000006"><a xlink:href="group___g_p_s_commands.html#ga926ab365cf351bb507a8c38066ee2eeb" target="_top" xlink:title="Handler for controlling GPS module power state.">
<polygon fill="white" stroke="#666666" points="309.75,-96 180.5,-96 180.5,-76 309.75,-76 309.75,-96"/>
<text text-anchor="middle" x="245.12" y="-82.5" font-family="Helvetica,sans-Serif" font-size="10.00">handle_gps_power_status</text>
</a>
</g>
</g>
<!-- Node1&#45;&gt;Node6 -->
<g id="edge5_Node000001_Node000006" class="edge">
<title>Node1&#45;&gt;Node6</title>
<g id="a_edge5_Node000001_Node000006"><a xlink:title=" ">
<path fill="none" stroke="#63b8ff" d="M334,-86C326.13,-86 318.03,-86 310.09,-86"/>
<polygon fill="#63b8ff" stroke="#63b8ff" points="333.81,-89.5 343.81,-86 333.81,-82.5 333.81,-89.5"/>
</a>
</g>
</g>
<!-- Node7 -->
<g id="Node000007" class="node">
<title>Node7</title>
<g id="a_Node000007"><a xlink:href="group___clock_commands.html#gaece0975a9dd699742e1db5a411bcc93c" target="_top" xlink:title="Handler for getting and setting system time.">
<polygon fill="white" stroke="#666666" points="279.38,-58 210.88,-58 210.88,-38 279.38,-38 279.38,-58"/>
<text text-anchor="middle" x="245.12" y="-44.5" font-family="Helvetica,sans-Serif" font-size="10.00">handle_time</text>
</a>
</g>
</g>
<!-- Node1&#45;&gt;Node7 -->
<g id="edge6_Node000001_Node000007" class="edge">
<title>Node1&#45;&gt;Node7</title>
<g id="a_edge6_Node000001_Node000007"><a xlink:title=" ">
<path fill="none" stroke="#63b8ff" d="M341.79,-72.65C321.18,-67.34 298.07,-61.38 279.72,-56.66"/>
<polygon fill="#63b8ff" stroke="#63b8ff" points="340.91,-76.03 351.46,-75.14 342.65,-69.25 340.91,-76.03"/>
</a>
</g>
</g>
<!-- Node8 -->
<g id="Node000008" class="node">
<title>Node8</title>
<g id="a_Node000008"><a xlink:href="communication_8cpp.html#a8f817ba4ed9164098cd3947f7cc3f749" target="_top" xlink:title="Initializes the LoRa radio module.">
<polygon fill="white" stroke="#666666" points="283.88,-20 206.38,-20 206.38,0 283.88,0 283.88,-20"/>
<text text-anchor="middle" x="245.12" y="-6.5" font-family="Helvetica,sans-Serif" font-size="10.00">initialize_radio</text>
</a>
</g>
</g>
<!-- Node1&#45;&gt;Node8 -->
<g id="edge7_Node000001_Node000008" class="edge">
<title>Node1&#45;&gt;Node8</title>
<g id="a_edge7_Node000001_Node000008"><a xlink:title=" ">
<path fill="none" stroke="#63b8ff" d="M372.3,-68.79C355.98,-56.31 332.48,-39.8 309.75,-29 301.73,-25.19 292.78,-21.95 284.18,-19.29"/>
<polygon fill="#63b8ff" stroke="#63b8ff" points="369.79,-71.27 379.83,-74.66 374.1,-65.75 369.79,-71.27"/>
</a>
</g>
</g>
<!-- Node3 -->
<g id="Node000003" class="node">
<title>Node3</title>
<g id="a_Node000003"><a xlink:href="main_8cpp.html#a9f153132b8b4afad133b952111e18bd9" target="_top" xlink:title=" ">
<polygon fill="white" stroke="#666666" points="142.25,-152 75.25,-152 75.25,-132 142.25,-132 142.25,-152"/>
<text text-anchor="middle" x="108.75" y="-138.5" font-family="Helvetica,sans-Serif" font-size="10.00">core1_entry</text>
</a>
</g>
</g>
<!-- Node2&#45;&gt;Node3 -->
<g id="edge2_Node000002_Node000003" class="edge">
<title>Node2&#45;&gt;Node3</title>
<g id="a_edge2_Node000002_Node000003"><a xlink:title=" ">
<path fill="none" stroke="#63b8ff" d="M189.29,-160.94C173.35,-157.14 156.44,-153.12 142.34,-149.76"/>
<polygon fill="#63b8ff" stroke="#63b8ff" points="188.11,-164.26 198.65,-163.17 189.74,-157.45 188.11,-164.26"/>
</a>
</g>
</g>
<!-- Node4 -->
<g id="Node000004" class="node">
<title>Node4</title>
<g id="a_Node000004"><a xlink:href="main_8cpp.html#ae66f6b31b5ad750f1fe042a706a4e3d4" target="_top" xlink:title=" ">
<polygon fill="white" stroke="#666666" points="37,-102 0,-102 0,-82 37,-82 37,-102"/>
<text text-anchor="middle" x="18.5" y="-88.5" font-family="Helvetica,sans-Serif" font-size="10.00">main</text>
</a>
</g>
</g>
<!-- Node3&#45;&gt;Node4 -->
<g id="edge3_Node000003_Node000004" class="edge">
<title>Node3&#45;&gt;Node4</title>
<g id="a_edge3_Node000003_Node000004"><a xlink:title=" ">
<path fill="none" stroke="#63b8ff" d="M79.49,-125.99C65.71,-118.18 49.54,-109.02 37.46,-102.18"/>
<polygon fill="#63b8ff" stroke="#63b8ff" points="77.72,-129.01 88.15,-130.89 81.17,-122.92 77.72,-129.01"/>
</a>
</g>
</g>
<!-- Node9 -->
<g id="Node000009" class="node">
<title>Node9</title>
<g id="a_Node000009"><a xlink:href="main_8cpp.html#a8fa5379b5bec497b881cec19f2b38779" target="_top" xlink:title=" ">
<polygon fill="white" stroke="#666666" points="144.5,-83 73,-83 73,-63 144.5,-63 144.5,-83"/>
<text text-anchor="middle" x="108.75" y="-69.5" font-family="Helvetica,sans-Serif" font-size="10.00">init_systems</text>
</a>
</g>
</g>
<!-- Node8&#45;&gt;Node9 -->
<g id="edge8_Node000008_Node000009" class="edge">
<title>Node8&#45;&gt;Node9</title>
<g id="a_edge8_Node000008_Node000009"><a xlink:title=" ">
<path fill="none" stroke="#63b8ff" d="M195.59,-23.02C190.42,-24.84 185.31,-26.84 180.5,-29 159.79,-38.33 137.88,-52.76 124.02,-62.53"/>
<polygon fill="#63b8ff" stroke="#63b8ff" points="196.34,-26.46 204.74,-20 194.15,-19.81 196.34,-26.46"/>
</a>
</g>
</g>
<!-- Node9&#45;&gt;Node4 -->
<g id="edge9_Node000009_Node000004" class="edge">
<title>Node9&#45;&gt;Node4</title>
<g id="a_edge9_Node000009_Node000004"><a xlink:title=" ">
<path fill="none" stroke="#63b8ff" d="M61.39,-82.98C52.82,-84.83 44.36,-86.65 37.31,-88.17"/>
<polygon fill="#63b8ff" stroke="#63b8ff" points="62.1,-86.41 71.14,-80.88 60.63,-79.57 62.1,-86.41"/>
</a>
</g>
</g>
</g>
</svg>
