<?xml version="1.0" encoding="UTF-8" standalone="no"?>
<!DOCTYPE svg PUBLIC "-//W3C//DTD SVG 1.1//EN"
 "http://www.w3.org/Graphics/SVG/1.1/DTD/svg11.dtd">
<!-- Generated by graphviz version 12.2.1 (20241206.2353)
 -->
<!-- Title: Print::print Pages: 1 -->
<svg width="300pt" height="47pt"
 viewBox="0.00 0.00 299.75 47.00" xmlns="http://www.w3.org/2000/svg" xmlns:xlink="http://www.w3.org/1999/xlink">
<g id="graph0" class="graph" transform="scale(1 1) rotate(0) translate(4 43)">
<title>Print::print</title>
<!-- Node1 -->
<g id="Node000001" class="node">
<title>Node1</title>
<g id="a_Node000001"><a xlink:title=" ">
<polygon fill="#999999" stroke="#666666" points="61,-20 0,-20 0,0 61,0 61,-20"/>
<text text-anchor="middle" x="30.5" y="-6.5" font-family="Helvetica,sans-Serif" font-size="10.00">Print::print</text>
</a>
</g>
</g>
<!-- Node2 -->
<g id="Node000002" class="node">
<title>Node2</title>
<g id="a_Node000002"><a xlink:href="class_print.html#abe7ee1c0946399820a61e1ec39419ee2" target="_top" xlink:title=" ">
<polygon fill="white" stroke="#666666" points="192.5,-39 97,-39 97,-19 192.5,-19 192.5,-39"/>
<text text-anchor="middle" x="144.75" y="-25.5" font-family="Helvetica,sans-Serif" font-size="10.00">Print::printNumber</text>
</a>
</g>
</g>
<!-- Node1&#45;&gt;Node2 -->
<g id="edge1_Node000001_Node000002" class="edge">
<title>Node1&#45;&gt;Node2</title>
<g id="a_edge1_Node000001_Node000002"><a xlink:title=" ">
<path fill="none" stroke="#63b8ff" d="M61.29,-15.04C68.87,-16.33 77.29,-17.75 85.76,-19.19"/>
<polygon fill="#63b8ff" stroke="#63b8ff" points="84.94,-22.59 95.38,-20.81 86.1,-15.69 84.94,-22.59"/>
</a>
</g>
</g>
<!-- Node3 -->
<g id="Node000003" class="node">
<title>Node3</title>
<g id="a_Node000003"><a xlink:href="class_print.html#a5be30d49adae2406a270c29ba9a3e0a3" target="_top" xlink:title=" ">
<polygon fill="white" stroke="#666666" points="291.75,-20 228.5,-20 228.5,0 291.75,0 291.75,-20"/>
<text text-anchor="middle" x="260.12" y="-6.5" font-family="Helvetica,sans-Serif" font-size="10.00">Print::write</text>
</a>
</g>
</g>
<!-- Node1&#45;&gt;Node3 -->
<g id="edge3_Node000001_Node000003" class="edge">
<title>Node1&#45;&gt;Node3</title>
<g id="a_edge3_Node000001_Node000003"><a xlink:title=" ">
<path fill="none" stroke="#63b8ff" d="M61.26,-10C100.97,-10 171.54,-10 216.78,-10"/>
<polygon fill="#63b8ff" stroke="#63b8ff" points="216.75,-13.5 226.75,-10 216.75,-6.5 216.75,-13.5"/>
</a>
</g>
</g>
<!-- Node2&#45;&gt;Node3 -->
<g id="edge2_Node000002_Node000003" class="edge">
<title>Node2&#45;&gt;Node3</title>
<g id="a_edge2_Node000002_Node000003"><a xlink:title=" ">
<path fill="none" stroke="#63b8ff" d="M192.85,-21.11C200.86,-19.76 209.13,-18.38 217.01,-17.06"/>
<polygon fill="#63b8ff" stroke="#63b8ff" points="217.4,-20.54 226.68,-15.44 216.24,-13.64 217.4,-20.54"/>
</a>
</g>
</g>
</g>
</svg>
