<?xml version="1.0" encoding="UTF-8" standalone="no"?>
<!DOCTYPE svg PUBLIC "-//W3C//DTD SVG 1.1//EN"
 "http://www.w3.org/Graphics/SVG/1.1/DTD/svg11.dtd">
<!-- Generated by graphviz version 12.2.1 (20241206.2353)
 -->
<!-- Title: ErriezDS3231::write Pages: 1 -->
<svg width="626pt" height="142pt"
 viewBox="0.00 0.00 625.50 142.00" xmlns="http://www.w3.org/2000/svg" xmlns:xlink="http://www.w3.org/1999/xlink">
<g id="graph0" class="graph" transform="scale(1 1) rotate(0) translate(4 138)">
<title>ErriezDS3231::write</title>
<!-- Node1 -->
<g id="Node000001" class="node">
<title>Node1</title>
<g id="a_Node000001"><a xlink:title="Write date and time to RTC.">
<polygon fill="#999999" stroke="#666666" points="103.75,-58 0,-58 0,-38 103.75,-38 103.75,-58"/>
<text text-anchor="middle" x="51.88" y="-44.5" font-family="Helvetica,sans-Serif" font-size="10.00">ErriezDS3231::write</text>
</a>
</g>
</g>
<!-- Node2 -->
<g id="Node000002" class="node">
<title>Node2</title>
<g id="a_Node000002"><a xlink:href="class_erriez_d_s3231.html#a47dd1340fc2ecac52cff00c3cffc7e6d" target="_top" xlink:title="Enable or disable oscillator when running on V&#45;BAT.">
<polygon fill="white" stroke="#666666" points="275.75,-96 139.75,-96 139.75,-76 275.75,-76 275.75,-96"/>
<text text-anchor="middle" x="207.75" y="-82.5" font-family="Helvetica,sans-Serif" font-size="10.00">ErriezDS3231::clockEnable</text>
</a>
</g>
</g>
<!-- Node1&#45;&gt;Node2 -->
<g id="edge1_Node000001_Node000002" class="edge">
<title>Node1&#45;&gt;Node2</title>
<g id="a_edge1_Node000001_Node000002"><a xlink:title=" ">
<path fill="none" stroke="#63b8ff" d="M95.33,-58.48C113.33,-62.93 134.49,-68.16 153.52,-72.85"/>
<polygon fill="#63b8ff" stroke="#63b8ff" points="152.42,-76.19 162.96,-75.19 154.1,-69.39 152.42,-76.19"/>
</a>
</g>
</g>
<!-- Node6 -->
<g id="Node000006" class="node">
<title>Node6</title>
<g id="a_Node000006"><a xlink:href="class_erriez_d_s3231.html#a7cd8a1aa0a720d8ecc687e58ddfe110d" target="_top" xlink:title="Write buffer to RTC.">
<polygon fill="white" stroke="#666666" points="617.5,-77 488.25,-77 488.25,-57 617.5,-57 617.5,-77"/>
<text text-anchor="middle" x="552.88" y="-63.5" font-family="Helvetica,sans-Serif" font-size="10.00">ErriezDS3231::writeBuffer</text>
</a>
</g>
</g>
<!-- Node1&#45;&gt;Node6 -->
<g id="edge7_Node000001_Node000006" class="edge">
<title>Node1&#45;&gt;Node6</title>
<g id="a_edge7_Node000001_Node000006"><a xlink:title=" ">
<path fill="none" stroke="#63b8ff" d="M103.93,-49.94C192.28,-53.31 374.04,-60.23 476.8,-64.14"/>
<polygon fill="#63b8ff" stroke="#63b8ff" points="476.38,-67.63 486.5,-64.51 476.64,-60.63 476.38,-67.63"/>
</a>
</g>
</g>
<!-- Node7 -->
<g id="Node000007" class="node">
<title>Node7</title>
<g id="a_Node000007"><a xlink:href="class_erriez_d_s3231.html#a169b93f6712c85c516a629b96ab0e3c8" target="_top" xlink:title="Decimal to BCD conversion.">
<polygon fill="white" stroke="#666666" points="270.88,-20 144.62,-20 144.62,0 270.88,0 270.88,-20"/>
<text text-anchor="middle" x="207.75" y="-6.5" font-family="Helvetica,sans-Serif" font-size="10.00">ErriezDS3231::decToBcd</text>
</a>
</g>
</g>
<!-- Node1&#45;&gt;Node7 -->
<g id="edge6_Node000001_Node000007" class="edge">
<title>Node1&#45;&gt;Node7</title>
<g id="a_edge6_Node000001_Node000007"><a xlink:title=" ">
<path fill="none" stroke="#63b8ff" d="M95.33,-37.52C113.33,-33.07 134.49,-27.84 153.52,-23.15"/>
<polygon fill="#63b8ff" stroke="#63b8ff" points="154.1,-26.61 162.96,-20.81 152.42,-19.81 154.1,-26.61"/>
</a>
</g>
</g>
<!-- Node3 -->
<g id="Node000003" class="node">
<title>Node3</title>
<g id="a_Node000003"><a xlink:href="class_erriez_d_s3231.html#aab9ee8e4653b2806a82cf12a22c5c1dd" target="_top" xlink:title="Read register.">
<polygon fill="white" stroke="#666666" points="451.12,-134 312.88,-134 312.88,-114 451.12,-114 451.12,-134"/>
<text text-anchor="middle" x="382" y="-120.5" font-family="Helvetica,sans-Serif" font-size="10.00">ErriezDS3231::readRegister</text>
</a>
</g>
</g>
<!-- Node2&#45;&gt;Node3 -->
<g id="edge2_Node000002_Node000003" class="edge">
<title>Node2&#45;&gt;Node3</title>
<g id="a_edge2_Node000002_Node000003"><a xlink:title=" ">
<path fill="none" stroke="#63b8ff" d="M256.27,-96.48C276.8,-101.01 301,-106.35 322.61,-111.12"/>
<polygon fill="#63b8ff" stroke="#63b8ff" points="321.63,-114.49 332.15,-113.22 323.14,-107.65 321.63,-114.49"/>
</a>
</g>
</g>
<!-- Node5 -->
<g id="Node000005" class="node">
<title>Node5</title>
<g id="a_Node000005"><a xlink:href="class_erriez_d_s3231.html#a2d53e7b9c88c576fe778502b7845a5ce" target="_top" xlink:title="Write register.">
<polygon fill="white" stroke="#666666" points="452.25,-96 311.75,-96 311.75,-76 452.25,-76 452.25,-96"/>
<text text-anchor="middle" x="382" y="-82.5" font-family="Helvetica,sans-Serif" font-size="10.00">ErriezDS3231::writeRegister</text>
</a>
</g>
</g>
<!-- Node2&#45;&gt;Node5 -->
<g id="edge4_Node000002_Node000005" class="edge">
<title>Node2&#45;&gt;Node5</title>
<g id="a_edge4_Node000002_Node000005"><a xlink:title=" ">
<path fill="none" stroke="#63b8ff" d="M275.84,-86C283.74,-86 291.86,-86 299.92,-86"/>
<polygon fill="#63b8ff" stroke="#63b8ff" points="299.74,-89.5 309.74,-86 299.74,-82.5 299.74,-89.5"/>
</a>
</g>
</g>
<!-- Node4 -->
<g id="Node000004" class="node">
<title>Node4</title>
<g id="a_Node000004"><a xlink:href="class_erriez_d_s3231.html#a9715869e0186e4f6a30dfd6a372875c1" target="_top" xlink:title="Read buffer from RTC.">
<polygon fill="white" stroke="#666666" points="616.38,-134 489.38,-134 489.38,-114 616.38,-114 616.38,-134"/>
<text text-anchor="middle" x="552.88" y="-120.5" font-family="Helvetica,sans-Serif" font-size="10.00">ErriezDS3231::readBuffer</text>
</a>
</g>
</g>
<!-- Node3&#45;&gt;Node4 -->
<g id="edge3_Node000003_Node000004" class="edge">
<title>Node3&#45;&gt;Node4</title>
<g id="a_edge3_Node000003_Node000004"><a xlink:title=" ">
<path fill="none" stroke="#63b8ff" d="M451.2,-124C459.86,-124 468.75,-124 477.5,-124"/>
<polygon fill="#63b8ff" stroke="#63b8ff" points="477.37,-127.5 487.37,-124 477.37,-120.5 477.37,-127.5"/>
</a>
</g>
</g>
<!-- Node5&#45;&gt;Node6 -->
<g id="edge5_Node000005_Node000006" class="edge">
<title>Node5&#45;&gt;Node6</title>
<g id="a_edge5_Node000005_Node000006"><a xlink:title=" ">
<path fill="none" stroke="#63b8ff" d="M452.66,-78.16C460.57,-77.27 468.65,-76.36 476.62,-75.47"/>
<polygon fill="#63b8ff" stroke="#63b8ff" points="476.74,-78.98 486.29,-74.38 475.96,-72.02 476.74,-78.98"/>
</a>
</g>
</g>
</g>
</svg>
