<?xml version="1.0" encoding="UTF-8" standalone="no"?>
<!DOCTYPE svg PUBLIC "-//W3C//DTD SVG 1.1//EN"
 "http://www.w3.org/Graphics/SVG/1.1/DTD/svg11.dtd">
<!-- Generated by graphviz version 12.2.1 (20241206.2353)
 -->
<!-- Title: LoRaClass::read Pages: 1 -->
<svg width="573pt" height="47pt"
 viewBox="0.00 0.00 573.00 47.00" xmlns="http://www.w3.org/2000/svg" xmlns:xlink="http://www.w3.org/1999/xlink">
<g id="graph0" class="graph" transform="scale(1 1) rotate(0) translate(4 43)">
<title>LoRaClass::read</title>
<!-- Node1 -->
<g id="Node000001" class="node">
<title>Node1</title>
<g id="a_Node000001"><a xlink:title=" ">
<polygon fill="#999999" stroke="#666666" points="89.5,-20 0,-20 0,0 89.5,0 89.5,-20"/>
<text text-anchor="middle" x="44.75" y="-6.5" font-family="Helvetica,sans-Serif" font-size="10.00">LoRaClass::read</text>
</a>
</g>
</g>
<!-- Node2 -->
<g id="Node000002" class="node">
<title>Node2</title>
<g id="a_Node000002"><a xlink:href="class_lo_ra_class.html#a99f2ee51a5ab27319cc965ebd575e58c" target="_top" xlink:title=" ">
<polygon fill="white" stroke="#666666" points="234.5,-39 125.5,-39 125.5,-19 234.5,-19 234.5,-39"/>
<text text-anchor="middle" x="180" y="-25.5" font-family="Helvetica,sans-Serif" font-size="10.00">LoRaClass::available</text>
</a>
</g>
</g>
<!-- Node1&#45;&gt;Node2 -->
<g id="edge1_Node000001_Node000002" class="edge">
<title>Node1&#45;&gt;Node2</title>
<g id="a_edge1_Node000001_Node000002"><a xlink:title=" ">
<path fill="none" stroke="#63b8ff" d="M89.75,-16.27C97.57,-17.39 105.86,-18.57 114.11,-19.75"/>
<polygon fill="#63b8ff" stroke="#63b8ff" points="113.4,-23.18 123.8,-21.13 114.39,-16.25 113.4,-23.18"/>
</a>
</g>
</g>
<!-- Node3 -->
<g id="Node000003" class="node">
<title>Node3</title>
<g id="a_Node000003"><a xlink:href="class_lo_ra_class.html#add581bfe66dd75108e22b18a4d6f89bf" target="_top" xlink:title=" ">
<polygon fill="white" stroke="#666666" points="396.75,-20 270.5,-20 270.5,0 396.75,0 396.75,-20"/>
<text text-anchor="middle" x="333.62" y="-6.5" font-family="Helvetica,sans-Serif" font-size="10.00">LoRaClass::readRegister</text>
</a>
</g>
</g>
<!-- Node1&#45;&gt;Node3 -->
<g id="edge4_Node000001_Node000003" class="edge">
<title>Node1&#45;&gt;Node3</title>
<g id="a_edge4_Node000001_Node000003"><a xlink:title=" ">
<path fill="none" stroke="#63b8ff" d="M89.95,-10C134.82,-10 205.13,-10 258.54,-10"/>
<polygon fill="#63b8ff" stroke="#63b8ff" points="258.49,-13.5 268.49,-10 258.49,-6.5 258.49,-13.5"/>
</a>
</g>
</g>
<!-- Node2&#45;&gt;Node3 -->
<g id="edge2_Node000002_Node000003" class="edge">
<title>Node2&#45;&gt;Node3</title>
<g id="a_edge2_Node000002_Node000003"><a xlink:title=" ">
<path fill="none" stroke="#63b8ff" d="M234.88,-22.25C242.64,-21.28 250.72,-20.26 258.78,-19.25"/>
<polygon fill="#63b8ff" stroke="#63b8ff" points="259.13,-22.74 268.61,-18.02 258.26,-15.79 259.13,-22.74"/>
</a>
</g>
</g>
<!-- Node4 -->
<g id="Node000004" class="node">
<title>Node4</title>
<g id="a_Node000004"><a xlink:href="class_lo_ra_class.html#a3a0c0649c595b1176b5fb1ae41210ee3" target="_top" xlink:title=" ">
<polygon fill="white" stroke="#666666" points="565,-20 432.75,-20 432.75,0 565,0 565,-20"/>
<text text-anchor="middle" x="498.88" y="-6.5" font-family="Helvetica,sans-Serif" font-size="10.00">LoRaClass::singleTransfer</text>
</a>
</g>
</g>
<!-- Node3&#45;&gt;Node4 -->
<g id="edge3_Node000003_Node000004" class="edge">
<title>Node3&#45;&gt;Node4</title>
<g id="a_edge3_Node000003_Node000004"><a xlink:title=" ">
<path fill="none" stroke="#63b8ff" d="M396.81,-10C404.71,-10 412.87,-10 420.96,-10"/>
<polygon fill="#63b8ff" stroke="#63b8ff" points="420.82,-13.5 430.82,-10 420.82,-6.5 420.82,-13.5"/>
</a>
</g>
</g>
</g>
</svg>
