<?xml version="1.0" encoding="UTF-8" standalone="no"?>
<!DOCTYPE svg PUBLIC "-//W3C//DTD SVG 1.1//EN"
 "http://www.w3.org/Graphics/SVG/1.1/DTD/svg11.dtd">
<!-- Generated by graphviz version 12.2.1 (20241206.2353)
 -->
<!-- Title: EventEmitter::emit Pages: 1 -->
<svg width="490pt" height="180pt"
 viewBox="0.00 0.00 489.75 180.00" xmlns="http://www.w3.org/2000/svg" xmlns:xlink="http://www.w3.org/1999/xlink">
<g id="graph0" class="graph" transform="scale(1 1) rotate(0) translate(4 176)">
<title>EventEmitter::emit</title>
<!-- Node1 -->
<g id="Node000001" class="node">
<title>Node1</title>
<g id="a_Node000001"><a xlink:title="Emits an event.">
<polygon fill="#999999" stroke="#666666" points="481.75,-96 384,-96 384,-76 481.75,-76 481.75,-96"/>
<text text-anchor="middle" x="432.88" y="-82.5" font-family="Helvetica,sans-Serif" font-size="10.00">EventEmitter::emit</text>
</a>
</g>
</g>
<!-- Node2 -->
<g id="Node000002" class="node">
<title>Node2</title>
<g id="a_Node000002"><a xlink:href="event__manager_8cpp.html#a467714d66058f52e4ac7aeb6df46b433" target="_top" xlink:title="Checks power statuses and triggers events based on voltage trends.">
<polygon fill="white" stroke="#666666" points="312.75,-172 212,-172 212,-152 312.75,-152 312.75,-172"/>
<text text-anchor="middle" x="262.38" y="-158.5" font-family="Helvetica,sans-Serif" font-size="10.00">checkPowerEvents</text>
</a>
</g>
</g>
<!-- Node1&#45;&gt;Node2 -->
<g id="edge1_Node000001_Node000002" class="edge">
<title>Node1&#45;&gt;Node2</title>
<g id="a_edge1_Node000001_Node000002"><a xlink:title=" ">
<path fill="none" stroke="#63b8ff" d="M411.04,-103.45C394.82,-116.2 371.23,-132.94 348,-143 337.09,-147.73 324.85,-151.35 313.14,-154.09"/>
<polygon fill="#63b8ff" stroke="#63b8ff" points="412.91,-106.44 418.51,-97.44 408.52,-100.99 412.91,-106.44"/>
</a>
</g>
</g>
<!-- Node5 -->
<g id="Node000005" class="node">
<title>Node5</title>
<g id="a_Node000005"><a xlink:href="group___g_p_s_commands.html#gad12f2e18bdfecbd5b6e8d8a84bb9cd77" target="_top" xlink:title="Handler for enabling GPS transparent mode (UART pass&#45;through)">
<polygon fill="white" stroke="#666666" points="348,-134 176.75,-134 176.75,-114 348,-114 348,-134"/>
<text text-anchor="middle" x="262.38" y="-120.5" font-family="Helvetica,sans-Serif" font-size="10.00">handleEnableGPSTransparentMode</text>
</a>
</g>
</g>
<!-- Node1&#45;&gt;Node5 -->
<g id="edge4_Node000001_Node000005" class="edge">
<title>Node1&#45;&gt;Node5</title>
<g id="a_edge4_Node000001_Node000005"><a xlink:title=" ">
<path fill="none" stroke="#63b8ff" d="M374.61,-98.99C365.7,-101 356.6,-103.06 348,-105 335.66,-107.78 322.31,-110.78 309.94,-113.56"/>
<polygon fill="#63b8ff" stroke="#63b8ff" points="375.28,-102.43 384.26,-96.8 373.73,-95.6 375.28,-102.43"/>
</a>
</g>
</g>
<!-- Node6 -->
<g id="Node000006" class="node">
<title>Node6</title>
<g id="a_Node000006"><a xlink:href="group___g_p_s_commands.html#gaa4c13d7d324ffb354badf45e9ceffb1c" target="_top" xlink:title="Handler for controlling GPS module power state.">
<polygon fill="white" stroke="#666666" points="323.25,-96 201.5,-96 201.5,-76 323.25,-76 323.25,-96"/>
<text text-anchor="middle" x="262.38" y="-82.5" font-family="Helvetica,sans-Serif" font-size="10.00">handleGPSPowerStatus</text>
</a>
</g>
</g>
<!-- Node1&#45;&gt;Node6 -->
<g id="edge5_Node000001_Node000006" class="edge">
<title>Node1&#45;&gt;Node6</title>
<g id="a_edge5_Node000001_Node000006"><a xlink:title=" ">
<path fill="none" stroke="#63b8ff" d="M372.35,-86C356.56,-86 339.5,-86 323.67,-86"/>
<polygon fill="#63b8ff" stroke="#63b8ff" points="372.08,-89.5 382.08,-86 372.08,-82.5 372.08,-89.5"/>
</a>
</g>
</g>
<!-- Node7 -->
<g id="Node000007" class="node">
<title>Node7</title>
<g id="a_Node000007"><a xlink:href="group___clock_commands.html#ga1eefb8c4d539d50c787b4db3f6ebb093" target="_top" xlink:title="Handler for getting and setting system time.">
<polygon fill="white" stroke="#666666" points="295.5,-58 229.25,-58 229.25,-38 295.5,-38 295.5,-58"/>
<text text-anchor="middle" x="262.38" y="-44.5" font-family="Helvetica,sans-Serif" font-size="10.00">handleTime</text>
</a>
</g>
</g>
<!-- Node1&#45;&gt;Node7 -->
<g id="edge6_Node000001_Node000007" class="edge">
<title>Node1&#45;&gt;Node7</title>
<g id="a_edge6_Node000001_Node000007"><a xlink:title=" ">
<path fill="none" stroke="#63b8ff" d="M374.61,-73.01C365.7,-71 356.6,-68.94 348,-67 330.81,-63.12 311.66,-58.82 295.93,-55.29"/>
<polygon fill="#63b8ff" stroke="#63b8ff" points="373.73,-76.4 384.26,-75.2 375.28,-69.57 373.73,-76.4"/>
</a>
</g>
</g>
<!-- Node8 -->
<g id="Node000008" class="node">
<title>Node8</title>
<g id="a_Node000008"><a xlink:href="communication_8cpp.html#a520df448c1dc359f42111ac240081975" target="_top" xlink:title="Initializes the LoRa radio module.">
<polygon fill="white" stroke="#666666" points="300.75,-20 224,-20 224,0 300.75,0 300.75,-20"/>
<text text-anchor="middle" x="262.38" y="-6.5" font-family="Helvetica,sans-Serif" font-size="10.00">initializeRadio</text>
</a>
</g>
</g>
<!-- Node1&#45;&gt;Node8 -->
<g id="edge7_Node000001_Node000008" class="edge">
<title>Node1&#45;&gt;Node8</title>
<g id="a_edge7_Node000001_Node000008"><a xlink:title=" ">
<path fill="none" stroke="#63b8ff" d="M411.04,-68.55C394.82,-55.8 371.23,-39.06 348,-29 333.22,-22.59 316.01,-18.22 300.98,-15.31"/>
<polygon fill="#63b8ff" stroke="#63b8ff" points="408.52,-71.01 418.51,-74.56 412.91,-65.56 408.52,-71.01"/>
</a>
</g>
</g>
<!-- Node3 -->
<g id="Node000003" class="node">
<title>Node3</title>
<g id="a_Node000003"><a xlink:href="main_8cpp.html#a9f153132b8b4afad133b952111e18bd9" target="_top" xlink:title=" ">
<polygon fill="white" stroke="#666666" points="140.38,-143 73.38,-143 73.38,-123 140.38,-123 140.38,-143"/>
<text text-anchor="middle" x="106.88" y="-129.5" font-family="Helvetica,sans-Serif" font-size="10.00">core1_entry</text>
</a>
</g>
</g>
<!-- Node2&#45;&gt;Node3 -->
<g id="edge2_Node000002_Node000003" class="edge">
<title>Node2&#45;&gt;Node3</title>
<g id="a_edge2_Node000002_Node000003"><a xlink:title=" ">
<path fill="none" stroke="#63b8ff" d="M200.38,-150.48C179.95,-146.62 157.96,-142.46 140.54,-139.17"/>
<polygon fill="#63b8ff" stroke="#63b8ff" points="199.57,-153.89 210.05,-152.3 200.87,-147.01 199.57,-153.89"/>
</a>
</g>
</g>
<!-- Node4 -->
<g id="Node000004" class="node">
<title>Node4</title>
<g id="a_Node000004"><a xlink:href="main_8cpp.html#ae66f6b31b5ad750f1fe042a706a4e3d4" target="_top" xlink:title=" ">
<polygon fill="white" stroke="#666666" points="37,-96 0,-96 0,-76 37,-76 37,-96"/>
<text text-anchor="middle" x="18.5" y="-82.5" font-family="Helvetica,sans-Serif" font-size="10.00">main</text>
</a>
</g>
</g>
<!-- Node3&#45;&gt;Node4 -->
<g id="edge3_Node000003_Node000004" class="edge">
<title>Node3&#45;&gt;Node4</title>
<g id="a_edge3_Node000003_Node000004"><a xlink:title=" ">
<path fill="none" stroke="#63b8ff" d="M76.77,-117.16C63.74,-110.08 48.79,-101.94 37.44,-95.76"/>
<polygon fill="#63b8ff" stroke="#63b8ff" points="74.92,-120.14 85.38,-121.85 78.27,-113.99 74.92,-120.14"/>
</a>
</g>
</g>
<!-- Node9 -->
<g id="Node000009" class="node">
<title>Node9</title>
<g id="a_Node000009"><a xlink:href="main_8cpp.html#a21af2d50d7779336997d5f3456352431" target="_top" xlink:title=" ">
<polygon fill="white" stroke="#666666" points="140.75,-77 73,-77 73,-57 140.75,-57 140.75,-77"/>
<text text-anchor="middle" x="106.88" y="-63.5" font-family="Helvetica,sans-Serif" font-size="10.00">initSystems</text>
</a>
</g>
</g>
<!-- Node8&#45;&gt;Node9 -->
<g id="edge8_Node000008_Node000009" class="edge">
<title>Node8&#45;&gt;Node9</title>
<g id="a_edge8_Node000008_Node000009"><a xlink:title=" ">
<path fill="none" stroke="#63b8ff" d="M212.49,-18.5C200.6,-21.24 188.06,-24.71 176.75,-29 157.6,-36.26 137.24,-48.06 123.67,-56.59"/>
<polygon fill="#63b8ff" stroke="#63b8ff" points="213.12,-21.95 222.15,-16.42 211.64,-15.11 213.12,-21.95"/>
</a>
</g>
</g>
<!-- Node9&#45;&gt;Node4 -->
<g id="edge9_Node000009_Node000004" class="edge">
<title>Node9&#45;&gt;Node4</title>
<g id="a_edge9_Node000009_Node000004"><a xlink:title=" ">
<path fill="none" stroke="#63b8ff" d="M61.58,-76.74C53.03,-78.62 44.55,-80.49 37.46,-82.05"/>
<polygon fill="#63b8ff" stroke="#63b8ff" points="62.23,-80.18 71.25,-74.62 60.73,-73.35 62.23,-80.18"/>
</a>
</g>
</g>
</g>
</svg>
