<?xml version="1.0" encoding="UTF-8" standalone="no"?>
<!DOCTYPE svg PUBLIC "-//W3C//DTD SVG 1.1//EN"
 "http://www.w3.org/Graphics/SVG/1.1/DTD/svg11.dtd">
<!-- Generated by graphviz version 12.2.1 (20241206.2353)
 -->
<!-- Title: LoRaClass::readRegister Pages: 1 -->
<!--zoomable 985 -->

<svg id="main" version="1.1" xmlns="http://www.w3.org/2000/svg" xmlns:xlink="http://www.w3.org/1999/xlink" xml:space="preserve" onload="init(evt)">

<style type="text/css"><![CDATA[
.node, .edge {opacity: 0.7;}
.node.selected, .edge.selected {opacity: 1;}
.edge:hover path { stroke: red; }
.edge:hover polygon { stroke: red; fill: red; }
]]></style>

<defs>
  <circle id="rim" cx="0" cy="0" r="7"/>
  <circle id="rim2" cx="0" cy="0" r="3.5"/>
  <g id="zoomPlus">
    <use xlink:href="#rim" fill="#404040"><set attributeName="fill" to="#808080" begin="zoomplus.mouseover" end="zoomplus.mouseout"/></use>
    <path d="M-4,0h8M0,-4v8" fill="none" stroke="white" stroke-width="1.5" pointer-events="none"/>
  </g>
  <g id="zoomMin">
    <use xlink:href="#rim" fill="#404040"><set attributeName="fill" to="#808080" begin="zoomminus.mouseover" end="zoomminus.mouseout"/></use>
    <path d="M-4,0h8" fill="none" stroke="white" stroke-width="1.5" pointer-events="none"/>
  </g>
  <g id="arrowUp" transform="translate(30 24)">
    <use xlink:href="#rim"/>
    <path pointer-events="none" fill="none" stroke="white" stroke-width="1.5" d="M0,-3.0v7 M-2.5,-0.5L0,-3.0L2.5,-0.5"/>
  </g>
  <g id="arrowRight" transform="rotate(90) translate(36 -43)">
    <use xlink:href="#rim"/>
    <path pointer-events="none" fill="none" stroke="white" stroke-width="1.5" d="M0,-3.0v7 M-2.5,-0.5L0,-3.0L2.5,-0.5"/>
  </g>
  <g id="arrowDown" transform="rotate(180) translate(-30 -48)">
    <use xlink:href="#rim"/>
    <path pointer-events="none" fill="none" stroke="white" stroke-width="1.5" d="M0,-3.0v7 M-2.5,-0.5L0,-3.0L2.5,-0.5"/>
  </g>
  <g id="arrowLeft" transform="rotate(270) translate(-36 17)">
    <use xlink:href="#rim"/>
    <path pointer-events="none" fill="none" stroke="white" stroke-width="1.5" d="M0,-3.0v7 M-2.5,-0.5L0,-3.0L2.5,-0.5"/>
  </g>
  <g id="resetDef">
    <use xlink:href="#rim2" fill="#404040"><set attributeName="fill" to="#808080" begin="reset.mouseover" end="reset.mouseout"/></use>
  </g>
</defs>
<script type="application/ecmascript">
var viewWidth = 702;
var viewHeight = 985;
var sectionId = 'dynsection-63';
</script>
<script type="application/ecmascript" xlink:href="svg.min.js"/>
<svg id="graph" class="graph">
<g id="viewport">
<title>LoRaClass::readRegister</title>
<!-- Node1 -->
<g id="Node000001" class="node">
<title>Node1</title>
<g id="a_Node000001"><a xlink:title=" ">
<polygon fill="#999999" stroke="#666666" points="694,-495 567.75,-495 567.75,-475 694,-475 694,-495"/>
<text text-anchor="middle" x="630.88" y="-481.5" font-family="Helvetica,sans-Serif" font-size="10.00">LoRaClass::readRegister</text>
</a>
</g>
</g>
<!-- Node2 -->
<g id="Node000002" class="node">
<title>Node2</title>
<g id="a_Node000002"><a xlink:href="class_lo_ra_class.html#a99f2ee51a5ab27319cc965ebd575e58c" target="_top" xlink:title=" ">
<polygon fill="white" stroke="#666666" points="507.75,-932 398.75,-932 398.75,-912 507.75,-912 507.75,-932"/>
<text text-anchor="middle" x="453.25" y="-918.5" font-family="Helvetica,sans-Serif" font-size="10.00">LoRaClass::available</text>
</a>
</g>
</g>
<!-- Node1&#45;&gt;Node2 -->
<g id="edge1_Node000001_Node000002" class="edge">
<title>Node1&#45;&gt;Node2</title>
<g id="a_edge1_Node000001_Node000002"><a xlink:title=" ">
<path fill="none" stroke="#63b8ff" d="M627.59,-506.35C619.01,-582.52 586.46,-839.49 531.75,-898 525.3,-904.89 516.92,-909.82 508.06,-913.34"/>
<polygon fill="#63b8ff" stroke="#63b8ff" points="631.01,-507.2 628.63,-496.88 624.06,-506.44 631.01,-507.2"/>
</a>
</g>
</g>
<!-- Node3 -->
<g id="Node000003" class="node">
<title>Node3</title>
<g id="a_Node000003"><a xlink:href="class_lo_ra_class.html#aef2cd89f65d2833bcfa6e6d1134982cd" target="_top" xlink:title=" ">
<polygon fill="white" stroke="#666666" points="311.75,-960 220,-960 220,-940 311.75,-940 311.75,-960"/>
<text text-anchor="middle" x="265.88" y="-946.5" font-family="Helvetica,sans-Serif" font-size="10.00">LoRaClass::peek</text>
</a>
</g>
</g>
<!-- Node1&#45;&gt;Node3 -->
<g id="edge33_Node000001_Node000003" class="edge">
<title>Node1&#45;&gt;Node3</title>
<g id="a_edge33_Node000001_Node000003"><a xlink:title=" ">
<path fill="none" stroke="#63b8ff" d="M628.6,-506.95C623.28,-590.12 599.86,-884.05 531.75,-941 465.74,-996.19 354.83,-975.55 299.84,-960.42"/>
<polygon fill="#63b8ff" stroke="#63b8ff" points="632.09,-507.19 629.21,-496.99 625.11,-506.76 632.09,-507.19"/>
</a>
</g>
</g>
<!-- Node4 -->
<g id="Node000004" class="node">
<title>Node4</title>
<g id="a_Node000004"><a xlink:href="class_lo_ra_class.html#a79c869845ca0bab8bca42cc2a6ea96bb" target="_top" xlink:title=" ">
<polygon fill="white" stroke="#666666" points="310.62,-913 221.12,-913 221.12,-893 310.62,-893 310.62,-913"/>
<text text-anchor="middle" x="265.88" y="-899.5" font-family="Helvetica,sans-Serif" font-size="10.00">LoRaClass::read</text>
</a>
</g>
</g>
<!-- Node1&#45;&gt;Node4 -->
<g id="edge35_Node000001_Node000004" class="edge">
<title>Node1&#45;&gt;Node4</title>
<g id="a_edge35_Node000001_Node000004"><a xlink:title=" ">
<path fill="none" stroke="#63b8ff" d="M627.4,-506.79C618.61,-580.1 586.46,-816.01 531.75,-865 500,-893.43 377.67,-900.63 310.93,-902.42"/>
<polygon fill="#63b8ff" stroke="#63b8ff" points="630.87,-507.26 628.55,-496.92 623.91,-506.44 630.87,-507.26"/>
</a>
</g>
</g>
<!-- Node5 -->
<g id="Node000005" class="node">
<title>Node5</title>
<g id="a_Node000005"><a xlink:href="class_lo_ra_class.html#a3c5b6ee156c14f20238f46292c116d96" target="_top" xlink:title=" ">
<polygon fill="white" stroke="#666666" points="500.25,-856 406.25,-856 406.25,-836 500.25,-836 500.25,-856"/>
<text text-anchor="middle" x="453.25" y="-842.5" font-family="Helvetica,sans-Serif" font-size="10.00">LoRaClass::begin</text>
</a>
</g>
</g>
<!-- Node1&#45;&gt;Node5 -->
<g id="edge4_Node000001_Node000005" class="edge">
<title>Node1&#45;&gt;Node5</title>
<g id="a_edge4_Node000001_Node000005"><a xlink:title=" ">
<path fill="none" stroke="#63b8ff" d="M630.58,-506.57C631.3,-566.7 624.66,-737.64 531.75,-827 523.26,-835.16 511.87,-840 500.43,-842.82"/>
<polygon fill="#63b8ff" stroke="#63b8ff" points="634.08,-506.63 630.37,-496.71 627.08,-506.79 634.08,-506.63"/>
</a>
</g>
</g>
<!-- Node6 -->
<g id="Node000006" class="node">
<title>Node6</title>
<g id="a_Node000006"><a xlink:href="class_lo_ra_class.html#a6dc289bf94ecbbaddb406e863533ab45" target="_top" xlink:title=" ">
<polygon fill="white" stroke="#666666" points="511.88,-818 394.62,-818 394.62,-798 511.88,-798 511.88,-818"/>
<text text-anchor="middle" x="453.25" y="-804.5" font-family="Helvetica,sans-Serif" font-size="10.00">LoRaClass::disableCrc</text>
</a>
</g>
</g>
<!-- Node1&#45;&gt;Node6 -->
<g id="edge5_Node000001_Node000006" class="edge">
<title>Node1&#45;&gt;Node6</title>
<g id="a_edge5_Node000001_Node000006"><a xlink:title=" ">
<path fill="none" stroke="#63b8ff" d="M629.68,-506.39C627.95,-561.81 615.36,-711.18 531.75,-789 526.17,-794.19 519.41,-798.03 512.24,-800.85"/>
<polygon fill="#63b8ff" stroke="#63b8ff" points="633.17,-506.81 629.88,-496.74 626.17,-506.66 633.17,-506.81"/>
</a>
</g>
</g>
<!-- Node8 -->
<g id="Node000008" class="node">
<title>Node8</title>
<g id="a_Node000008"><a xlink:href="class_lo_ra_class.html#a83cb2074d43650360c8199c5a393e3ba" target="_top" xlink:title=" ">
<polygon fill="white" stroke="#666666" points="521.62,-780 384.88,-780 384.88,-760 521.62,-760 521.62,-780"/>
<text text-anchor="middle" x="453.25" y="-766.5" font-family="Helvetica,sans-Serif" font-size="10.00">LoRaClass::dumpRegisters</text>
</a>
</g>
</g>
<!-- Node1&#45;&gt;Node8 -->
<g id="edge7_Node000001_Node000008" class="edge">
<title>Node1&#45;&gt;Node8</title>
<g id="a_edge7_Node000001_Node000008"><a xlink:title=" ">
<path fill="none" stroke="#63b8ff" d="M628.51,-506.73C624.12,-557.54 605.89,-684.8 531.75,-751 527.93,-754.41 523.59,-757.24 518.97,-759.57"/>
<polygon fill="#63b8ff" stroke="#63b8ff" points="632,-507.04 629.26,-496.8 625.02,-506.51 632,-507.04"/>
</a>
</g>
</g>
<!-- Node9 -->
<g id="Node000009" class="node">
<title>Node9</title>
<g id="a_Node000009"><a xlink:href="class_lo_ra_class.html#aee4f452ce8b4ff6d8e7c30aff7e77978" target="_top" xlink:title=" ">
<polygon fill="white" stroke="#666666" points="510.75,-742 395.75,-742 395.75,-722 510.75,-722 510.75,-742"/>
<text text-anchor="middle" x="453.25" y="-728.5" font-family="Helvetica,sans-Serif" font-size="10.00">LoRaClass::enableCrc</text>
</a>
</g>
</g>
<!-- Node1&#45;&gt;Node9 -->
<g id="edge8_Node000001_Node000009" class="edge">
<title>Node1&#45;&gt;Node9</title>
<g id="a_edge8_Node000001_Node000009"><a xlink:title=" ">
<path fill="none" stroke="#63b8ff" d="M627.07,-506.37C619.94,-551.71 596.85,-657.9 531.75,-713 525.72,-718.1 518.54,-721.87 511.01,-724.65"/>
<polygon fill="#63b8ff" stroke="#63b8ff" points="630.52,-506.95 628.49,-496.55 623.59,-505.95 630.52,-506.95"/>
</a>
</g>
</g>
<!-- Node11 -->
<g id="Node000011" class="node">
<title>Node11</title>
<g id="a_Node000011"><a xlink:href="class_lo_ra_class.html#a6ad8fad2fa5b9c04ca8a0e0184673685" target="_top" xlink:title=" ">
<polygon fill="white" stroke="#666666" points="511.88,-704 394.62,-704 394.62,-684 511.88,-684 511.88,-704"/>
<text text-anchor="middle" x="453.25" y="-690.5" font-family="Helvetica,sans-Serif" font-size="10.00">LoRaClass::endPacket</text>
</a>
</g>
</g>
<!-- Node1&#45;&gt;Node11 -->
<g id="edge10_Node000001_Node000011" class="edge">
<title>Node1&#45;&gt;Node11</title>
<g id="a_edge10_Node000001_Node000011"><a xlink:title=" ">
<path fill="none" stroke="#63b8ff" d="M625.07,-506.29C615,-545.89 587.8,-630.84 531.75,-675 525.98,-679.54 519.28,-683.02 512.28,-685.68"/>
<polygon fill="#63b8ff" stroke="#63b8ff" points="628.47,-507.15 627.4,-496.61 621.66,-505.51 628.47,-507.15"/>
</a>
</g>
</g>
<!-- Node12 -->
<g id="Node000012" class="node">
<title>Node12</title>
<g id="a_Node000012"><a xlink:href="class_lo_ra_class.html#a691417e927af503dacaa797a1bb9527f" target="_top" xlink:title=" ">
<polygon fill="white" stroke="#666666" points="531.75,-628 374.75,-628 374.75,-608 531.75,-608 531.75,-628"/>
<text text-anchor="middle" x="453.25" y="-614.5" font-family="Helvetica,sans-Serif" font-size="10.00">LoRaClass::explicitHeaderMode</text>
</a>
</g>
</g>
<!-- Node1&#45;&gt;Node12 -->
<g id="edge11_Node000001_Node000012" class="edge">
<title>Node1&#45;&gt;Node12</title>
<g id="a_edge11_Node000001_Node000012"><a xlink:title=" ">
<path fill="none" stroke="#63b8ff" d="M618.08,-505.23C601.94,-531.05 570.51,-575.22 531.75,-599 526.08,-602.48 519.81,-605.32 513.37,-607.64"/>
<polygon fill="#63b8ff" stroke="#63b8ff" points="621.06,-507.06 623.25,-496.69 615.07,-503.43 621.06,-507.06"/>
</a>
</g>
</g>
<!-- Node14 -->
<g id="Node000014" class="node">
<title>Node14</title>
<g id="a_Node000014"><a xlink:href="class_lo_ra_class.html#abc23789599769a0fdc5c9dbee33bc27f" target="_top" xlink:title=" ">
<polygon fill="white" stroke="#666666" points="330.5,-571 201.25,-571 201.25,-551 330.5,-551 330.5,-571"/>
<text text-anchor="middle" x="265.88" y="-557.5" font-family="Helvetica,sans-Serif" font-size="10.00">LoRaClass::parse_packet</text>
</a>
</g>
</g>
<!-- Node1&#45;&gt;Node14 -->
<g id="edge32_Node000001_Node000014" class="edge">
<title>Node1&#45;&gt;Node14</title>
<g id="a_edge32_Node000001_Node000014"><a xlink:title=" ">
<path fill="none" stroke="#63b8ff" d="M592.06,-499.33C574.01,-505.75 551.98,-512.99 531.75,-518 464.03,-534.76 384.9,-546.63 330.89,-553.59"/>
<polygon fill="#63b8ff" stroke="#63b8ff" points="593.1,-502.67 601.31,-495.98 590.72,-496.09 593.1,-502.67"/>
</a>
</g>
</g>
<!-- Node16 -->
<g id="Node000016" class="node">
<title>Node16</title>
<g id="a_Node000016"><a xlink:href="class_lo_ra_class.html#a810b0f66f8589f7bcbbe08ce80f41959" target="_top" xlink:title=" ">
<polygon fill="white" stroke="#666666" points="531.75,-438 374.75,-438 374.75,-418 531.75,-418 531.75,-438"/>
<text text-anchor="middle" x="453.25" y="-424.5" font-family="Helvetica,sans-Serif" font-size="10.00">LoRaClass::getSignalBandwidth</text>
</a>
</g>
</g>
<!-- Node1&#45;&gt;Node16 -->
<g id="edge15_Node000001_Node000016" class="edge">
<title>Node1&#45;&gt;Node16</title>
<g id="a_edge15_Node000001_Node000016"><a xlink:title=" ">
<path fill="none" stroke="#63b8ff" d="M588.96,-470.99C571.38,-465.04 550.59,-458.08 531.75,-452 517.68,-447.45 502.11,-442.6 488.64,-438.46"/>
<polygon fill="#63b8ff" stroke="#63b8ff" points="587.41,-474.17 598.01,-474.07 589.66,-467.54 587.41,-474.17"/>
</a>
</g>
</g>
<!-- Node17 -->
<g id="Node000017" class="node">
<title>Node17</title>
<g id="a_Node000017"><a xlink:href="class_lo_ra_class.html#af16e40f9c82f512287b7010d490e7b4c" target="_top" xlink:title=" ">
<polygon fill="white" stroke="#666666" points="338.75,-463 193,-463 193,-431 338.75,-431 338.75,-463"/>
<text text-anchor="start" x="201" y="-449.5" font-family="Helvetica,sans-Serif" font-size="10.00">LoRaClass::packetFrequency</text>
<text text-anchor="middle" x="265.88" y="-437.5" font-family="Helvetica,sans-Serif" font-size="10.00">Error</text>
</a>
</g>
</g>
<!-- Node1&#45;&gt;Node17 -->
<g id="edge29_Node000001_Node000017" class="edge">
<title>Node1&#45;&gt;Node17</title>
<g id="a_edge29_Node000001_Node000017"><a xlink:title=" ">
<path fill="none" stroke="#63b8ff" d="M556.37,-477.31C493,-470.67 402.03,-461.15 339.05,-454.56"/>
<polygon fill="#63b8ff" stroke="#63b8ff" points="555.66,-480.75 565.97,-478.31 556.39,-473.79 555.66,-480.75"/>
</a>
</g>
</g>
<!-- Node18 -->
<g id="Node000018" class="node">
<title>Node18</title>
<g id="a_Node000018"><a xlink:href="class_lo_ra_class.html#aa299808b2da9819eded073c84e1b219e" target="_top" xlink:title=" ">
<polygon fill="white" stroke="#666666" points="325.25,-400 206.5,-400 206.5,-380 325.25,-380 325.25,-400"/>
<text text-anchor="middle" x="265.88" y="-386.5" font-family="Helvetica,sans-Serif" font-size="10.00">LoRaClass::setLdoFlag</text>
</a>
</g>
</g>
<!-- Node1&#45;&gt;Node18 -->
<g id="edge39_Node000001_Node000018" class="edge">
<title>Node1&#45;&gt;Node18</title>
<g id="a_edge39_Node000001_Node000018"><a xlink:title=" ">
<path fill="none" stroke="#63b8ff" d="M612.65,-466.39C594.5,-448.16 564.09,-421.37 531.75,-409 464.47,-383.27 380.64,-381.87 325.53,-384.68"/>
<polygon fill="#63b8ff" stroke="#63b8ff" points="610.02,-468.7 619.48,-473.46 615.05,-463.84 610.02,-468.7"/>
</a>
</g>
</g>
<!-- Node19 -->
<g id="Node000019" class="node">
<title>Node19</title>
<g id="a_Node000019"><a xlink:href="class_lo_ra_class.html#ad4d841d74015f7fc1139ed0ad33dc4c2" target="_top" xlink:title=" ">
<polygon fill="white" stroke="#666666" points="157,-428 0,-428 0,-408 157,-408 157,-428"/>
<text text-anchor="middle" x="78.5" y="-414.5" font-family="Helvetica,sans-Serif" font-size="10.00">LoRaClass::setSignalBandwidth</text>
</a>
</g>
</g>
<!-- Node1&#45;&gt;Node19 -->
<g id="edge40_Node000001_Node000019" class="edge">
<title>Node1&#45;&gt;Node19</title>
<g id="a_edge40_Node000001_Node000019"><a xlink:title=" ">
<path fill="none" stroke="#63b8ff" d="M556.13,-492.35C468.19,-498.95 317.47,-503.35 193,-472 156.39,-462.78 117.43,-441.36 96.01,-428.44"/>
<polygon fill="#63b8ff" stroke="#63b8ff" points="556.38,-495.84 566.08,-491.57 555.83,-488.86 556.38,-495.84"/>
</a>
</g>
</g>
<!-- Node20 -->
<g id="Node000020" class="node">
<title>Node20</title>
<g id="a_Node000020"><a xlink:href="class_lo_ra_class.html#aff3deaecc03da514af3a05e5e0c38e69" target="_top" xlink:title=" ">
<polygon fill="white" stroke="#666666" points="156.25,-371 0.75,-371 0.75,-351 156.25,-351 156.25,-371"/>
<text text-anchor="middle" x="78.5" y="-357.5" font-family="Helvetica,sans-Serif" font-size="10.00">LoRaClass::setSpreadingFactor</text>
</a>
</g>
</g>
<!-- Node1&#45;&gt;Node20 -->
<g id="edge41_Node000001_Node000020" class="edge">
<title>Node1&#45;&gt;Node20</title>
<g id="a_edge41_Node000001_Node000020"><a xlink:title=" ">
<path fill="none" stroke="#63b8ff" d="M623.57,-463.92C611.9,-429.22 583.32,-361.09 531.75,-333 387.37,-254.35 177.3,-322.78 105.03,-350.56"/>
<polygon fill="#63b8ff" stroke="#63b8ff" points="620.16,-464.78 626.54,-473.24 626.83,-462.65 620.16,-464.78"/>
</a>
</g>
</g>
<!-- Node21 -->
<g id="Node000021" class="node">
<title>Node21</title>
<g id="a_Node000021"><a xlink:href="class_lo_ra_class.html#aa1b8dc4023526ec67c852555e6ed2593" target="_top" xlink:title=" ">
<polygon fill="white" stroke="#666666" points="531,-362 375.5,-362 375.5,-342 531,-342 531,-362"/>
<text text-anchor="middle" x="453.25" y="-348.5" font-family="Helvetica,sans-Serif" font-size="10.00">LoRaClass::getSpreadingFactor</text>
</a>
</g>
</g>
<!-- Node1&#45;&gt;Node21 -->
<g id="edge20_Node000001_Node000021" class="edge">
<title>Node1&#45;&gt;Node21</title>
<g id="a_edge20_Node000001_Node000021"><a xlink:title=" ">
<path fill="none" stroke="#63b8ff" d="M617.14,-465.28C600.39,-440.87 568.72,-399.65 531.75,-376 522.85,-370.31 512.51,-365.89 502.35,-362.49"/>
<polygon fill="#63b8ff" stroke="#63b8ff" points="614.07,-466.98 622.53,-473.35 619.89,-463.09 614.07,-466.98"/>
</a>
</g>
</g>
<!-- Node22 -->
<g id="Node000022" class="node">
<title>Node22</title>
<g id="a_Node000022"><a xlink:href="class_lo_ra_class.html#a7e5a2b9f116b3e1d2bc38b3a796ee147" target="_top" xlink:title=" ">
<polygon fill="white" stroke="#666666" points="523.12,-286 383.38,-286 383.38,-266 523.12,-266 523.12,-286"/>
<text text-anchor="middle" x="453.25" y="-272.5" font-family="Helvetica,sans-Serif" font-size="10.00">LoRaClass::handleDio0Rise</text>
</a>
</g>
</g>
<!-- Node1&#45;&gt;Node22 -->
<g id="edge22_Node000001_Node000022" class="edge">
<title>Node1&#45;&gt;Node22</title>
<g id="a_edge22_Node000001_Node000022"><a xlink:title=" ">
<path fill="none" stroke="#63b8ff" d="M624.5,-464.02C613.62,-425.73 585.31,-344.36 531.75,-300 524.7,-294.16 516.23,-289.74 507.52,-286.39"/>
<polygon fill="#63b8ff" stroke="#63b8ff" points="621.05,-464.64 627.04,-473.38 627.8,-462.81 621.05,-464.64"/>
</a>
</g>
</g>
<!-- Node23 -->
<g id="Node000023" class="node">
<title>Node23</title>
<g id="a_Node000023"><a xlink:href="class_lo_ra_class.html#ad06e31c18f7029e231d837a7eca7558e" target="_top" xlink:title=" ">
<polygon fill="white" stroke="#666666" points="531.75,-590 374.75,-590 374.75,-570 531.75,-570 531.75,-590"/>
<text text-anchor="middle" x="453.25" y="-576.5" font-family="Helvetica,sans-Serif" font-size="10.00">LoRaClass::implicitHeaderMode</text>
</a>
</g>
</g>
<!-- Node1&#45;&gt;Node23 -->
<g id="edge23_Node000001_Node000023" class="edge">
<title>Node1&#45;&gt;Node23</title>
<g id="a_edge23_Node000001_Node000023"><a xlink:title=" ">
<path fill="none" stroke="#63b8ff" d="M609.66,-502.68C590.67,-518.53 560.88,-541.45 531.75,-556 520.79,-561.48 508.33,-566 496.65,-569.59"/>
<polygon fill="#63b8ff" stroke="#63b8ff" points="611.8,-505.45 617.16,-496.31 607.27,-500.12 611.8,-505.45"/>
</a>
</g>
</g>
<!-- Node24 -->
<g id="Node000024" class="node">
<title>Node24</title>
<g id="a_Node000024"><a xlink:href="class_lo_ra_class.html#a3b9ea4a954095979f6e3ae037d8c3d5e" target="_top" xlink:title=" ">
<polygon fill="white" stroke="#666666" points="519.38,-666 387.12,-666 387.12,-646 519.38,-646 519.38,-666"/>
<text text-anchor="middle" x="453.25" y="-652.5" font-family="Helvetica,sans-Serif" font-size="10.00">LoRaClass::isTransmitting</text>
</a>
</g>
</g>
<!-- Node1&#45;&gt;Node24 -->
<g id="edge27_Node000001_Node000024" class="edge">
<title>Node1&#45;&gt;Node24</title>
<g id="a_edge27_Node000001_Node000024"><a xlink:title=" ">
<path fill="none" stroke="#63b8ff" d="M622.2,-506.16C609.04,-539.36 578.91,-603.4 531.75,-637 526.9,-640.46 521.49,-643.29 515.85,-645.61"/>
<polygon fill="#63b8ff" stroke="#63b8ff" points="625.46,-507.43 625.75,-496.84 618.92,-504.94 625.46,-507.43"/>
</a>
</g>
</g>
<!-- Node25 -->
<g id="Node000025" class="node">
<title>Node25</title>
<g id="a_Node000025"><a xlink:href="class_lo_ra_class.html#acecb609453b16a9d296f1a8ada54dead" target="_top" xlink:title=" ">
<polygon fill="white" stroke="#666666" points="513.38,-248 393.12,-248 393.12,-228 513.38,-228 513.38,-248"/>
<text text-anchor="middle" x="453.25" y="-234.5" font-family="Helvetica,sans-Serif" font-size="10.00">LoRaClass::packetRssi</text>
</a>
</g>
</g>
<!-- Node1&#45;&gt;Node25 -->
<g id="edge30_Node000001_Node000025" class="edge">
<title>Node1&#45;&gt;Node25</title>
<g id="a_edge30_Node000001_Node000025"><a xlink:title=" ">
<path fill="none" stroke="#63b8ff" d="M627.07,-463.63C619.94,-418.29 596.85,-312.1 531.75,-257 526.46,-252.53 520.28,-249.07 513.77,-246.42"/>
<polygon fill="#63b8ff" stroke="#63b8ff" points="623.59,-464.05 628.49,-473.45 630.52,-463.05 623.59,-464.05"/>
</a>
</g>
</g>
<!-- Node26 -->
<g id="Node000026" class="node">
<title>Node26</title>
<g id="a_Node000026"><a xlink:href="class_lo_ra_class.html#ada0d2844934062d1b09eca415f0ea28c" target="_top" xlink:title=" ">
<polygon fill="white" stroke="#666666" points="510.75,-210 395.75,-210 395.75,-190 510.75,-190 510.75,-210"/>
<text text-anchor="middle" x="453.25" y="-196.5" font-family="Helvetica,sans-Serif" font-size="10.00">LoRaClass::packetSnr</text>
</a>
</g>
</g>
<!-- Node1&#45;&gt;Node26 -->
<g id="edge31_Node000001_Node000026" class="edge">
<title>Node1&#45;&gt;Node26</title>
<g id="a_edge31_Node000001_Node000026"><a xlink:title=" ">
<path fill="none" stroke="#63b8ff" d="M628.51,-463.27C624.12,-412.46 605.89,-285.2 531.75,-219 525.76,-213.65 518.5,-209.75 510.86,-206.91"/>
<polygon fill="#63b8ff" stroke="#63b8ff" points="625.02,-463.49 629.26,-473.2 632,-462.96 625.02,-463.49"/>
</a>
</g>
</g>
<!-- Node27 -->
<g id="Node000027" class="node">
<title>Node27</title>
<g id="a_Node000027"><a xlink:href="class_lo_ra_class.html#abc9bb5ba3fd5c9602cad549a93855d76" target="_top" xlink:title=" ">
<polygon fill="white" stroke="#666666" points="504.75,-172 401.75,-172 401.75,-152 504.75,-152 504.75,-172"/>
<text text-anchor="middle" x="453.25" y="-158.5" font-family="Helvetica,sans-Serif" font-size="10.00">LoRaClass::random</text>
</a>
</g>
</g>
<!-- Node1&#45;&gt;Node27 -->
<g id="edge34_Node000001_Node000027" class="edge">
<title>Node1&#45;&gt;Node27</title>
<g id="a_edge34_Node000001_Node000027"><a xlink:title=" ">
<path fill="none" stroke="#63b8ff" d="M629.68,-463.61C627.95,-408.19 615.36,-258.82 531.75,-181 524.35,-174.11 514.86,-169.61 505.09,-166.68"/>
<polygon fill="#63b8ff" stroke="#63b8ff" points="626.17,-463.34 629.88,-473.26 633.17,-463.19 626.17,-463.34"/>
</a>
</g>
</g>
<!-- Node28 -->
<g id="Node000028" class="node">
<title>Node28</title>
<g id="a_Node000028"><a xlink:href="class_lo_ra_class.html#a67adcbfff786a1915d9ac46e1163d411" target="_top" xlink:title=" ">
<polygon fill="white" stroke="#666666" points="496.5,-134 410,-134 410,-114 496.5,-114 496.5,-134"/>
<text text-anchor="middle" x="453.25" y="-120.5" font-family="Helvetica,sans-Serif" font-size="10.00">LoRaClass::rssi</text>
</a>
</g>
</g>
<!-- Node1&#45;&gt;Node28 -->
<g id="edge36_Node000001_Node000028" class="edge">
<title>Node1&#45;&gt;Node28</title>
<g id="a_edge36_Node000001_Node000028"><a xlink:title=" ">
<path fill="none" stroke="#63b8ff" d="M630.58,-463.43C631.3,-403.3 624.66,-232.36 531.75,-143 522.36,-133.97 509.42,-129.01 496.8,-126.35"/>
<polygon fill="#63b8ff" stroke="#63b8ff" points="627.08,-463.21 630.37,-473.29 634.08,-463.37 627.08,-463.21"/>
</a>
</g>
</g>
<!-- Node29 -->
<g id="Node000029" class="node">
<title>Node29</title>
<g id="a_Node000029"><a xlink:href="class_lo_ra_class.html#a178a3fdb566dfcc4377e783af868d255" target="_top" xlink:title=" ">
<polygon fill="white" stroke="#666666" points="523.88,-96 382.62,-96 382.62,-76 523.88,-76 523.88,-96"/>
<text text-anchor="middle" x="453.25" y="-82.5" font-family="Helvetica,sans-Serif" font-size="10.00">LoRaClass::setCodingRate4</text>
</a>
</g>
</g>
<!-- Node1&#45;&gt;Node29 -->
<g id="edge37_Node000001_Node000029" class="edge">
<title>Node1&#45;&gt;Node29</title>
<g id="a_edge37_Node000001_Node000029"><a xlink:title=" ">
<path fill="none" stroke="#63b8ff" d="M627.21,-463.41C617.83,-390.73 584,-156.61 531.75,-105 528.3,-101.59 524.35,-98.76 520.09,-96.41"/>
<polygon fill="#63b8ff" stroke="#63b8ff" points="623.72,-463.7 628.45,-473.18 630.67,-462.82 623.72,-463.7"/>
</a>
</g>
</g>
<!-- Node30 -->
<g id="Node000030" class="node">
<title>Node30</title>
<g id="a_Node000030"><a xlink:href="class_lo_ra_class.html#aae3ff6ac6b8e2150f3fa5975f391738b" target="_top" xlink:title=" ">
<polygon fill="white" stroke="#666666" points="505.5,-58 401,-58 401,-38 505.5,-38 505.5,-58"/>
<text text-anchor="middle" x="453.25" y="-44.5" font-family="Helvetica,sans-Serif" font-size="10.00">LoRaClass::setGain</text>
</a>
</g>
</g>
<!-- Node1&#45;&gt;Node30 -->
<g id="edge38_Node000001_Node000030" class="edge">
<title>Node1&#45;&gt;Node30</title>
<g id="a_edge38_Node000001_Node000030"><a xlink:title=" ">
<path fill="none" stroke="#63b8ff" d="M627.8,-463.78C619.84,-386.95 588.89,-124.7 531.75,-67 524.73,-59.91 515.53,-55.31 505.93,-52.35"/>
<polygon fill="#63b8ff" stroke="#63b8ff" points="624.27,-463.72 628.76,-473.32 631.24,-463.02 624.27,-463.72"/>
</a>
</g>
</g>
<!-- Node31 -->
<g id="Node000031" class="node">
<title>Node31</title>
<g id="a_Node000031"><a xlink:href="class_lo_ra_class.html#a4b251b35d67bd9363dc44b6324cfc69c" target="_top" xlink:title=" ">
<polygon fill="white" stroke="#666666" points="499.12,-20 407.38,-20 407.38,0 499.12,0 499.12,-20"/>
<text text-anchor="middle" x="453.25" y="-6.5" font-family="Helvetica,sans-Serif" font-size="10.00">LoRaClass::write</text>
</a>
</g>
</g>
<!-- Node1&#45;&gt;Node31 -->
<g id="edge42_Node000001_Node000031" class="edge">
<title>Node1&#45;&gt;Node31</title>
<g id="a_edge42_Node000001_Node000031"><a xlink:title=" ">
<path fill="none" stroke="#63b8ff" d="M628.22,-463.46C621.49,-381.8 593.63,-92.66 531.75,-29 523.25,-20.26 511.44,-15.28 499.6,-12.51"/>
<polygon fill="#63b8ff" stroke="#63b8ff" points="624.71,-463.52 628.99,-473.21 631.69,-462.97 624.71,-463.52"/>
</a>
</g>
</g>
<!-- Node2&#45;&gt;Node3 -->
<g id="edge2_Node000002_Node000003" class="edge">
<title>Node2&#45;&gt;Node3</title>
<g id="a_edge2_Node000002_Node000003"><a xlink:title=" ">
<path fill="none" stroke="#63b8ff" d="M387.46,-931.79C362.63,-935.54 334.85,-939.73 312.22,-943.15"/>
<polygon fill="#63b8ff" stroke="#63b8ff" points="387.77,-935.28 397.14,-930.32 386.72,-928.36 387.77,-935.28"/>
</a>
</g>
</g>
<!-- Node2&#45;&gt;Node4 -->
<g id="edge3_Node000002_Node000004" class="edge">
<title>Node2&#45;&gt;Node4</title>
<g id="a_edge3_Node000002_Node000004"><a xlink:title=" ">
<path fill="none" stroke="#63b8ff" d="M387.28,-915.34C362.05,-912.75 333.8,-909.86 311,-907.52"/>
<polygon fill="#63b8ff" stroke="#63b8ff" points="386.82,-918.81 397.13,-916.35 387.54,-911.85 386.82,-918.81"/>
</a>
</g>
</g>
<!-- Node7 -->
<g id="Node000007" class="node">
<title>Node7</title>
<g id="a_Node000007"><a xlink:href="class_lo_ra_class.html#a233f3f02961eb108ba509a8147237028" target="_top" xlink:title=" ">
<polygon fill="white" stroke="#666666" points="314.38,-818 217.38,-818 217.38,-798 314.38,-798 314.38,-818"/>
<text text-anchor="middle" x="265.88" y="-804.5" font-family="Helvetica,sans-Serif" font-size="10.00">LoRaClass::noCrc</text>
</a>
</g>
</g>
<!-- Node6&#45;&gt;Node7 -->
<g id="edge6_Node000006_Node000007" class="edge">
<title>Node6&#45;&gt;Node7</title>
<g id="a_edge6_Node000006_Node000007"><a xlink:title=" ">
<path fill="none" stroke="#63b8ff" d="M383.03,-808C360.27,-808 335.5,-808 314.7,-808"/>
<polygon fill="#63b8ff" stroke="#63b8ff" points="382.85,-811.5 392.85,-808 382.85,-804.5 382.85,-811.5"/>
</a>
</g>
</g>
<!-- Node10 -->
<g id="Node000010" class="node">
<title>Node10</title>
<g id="a_Node000010"><a xlink:href="class_lo_ra_class.html#aee33030679f27bb763fb6819f38baa05" target="_top" xlink:title=" ">
<polygon fill="white" stroke="#666666" points="308,-742 223.75,-742 223.75,-722 308,-722 308,-742"/>
<text text-anchor="middle" x="265.88" y="-728.5" font-family="Helvetica,sans-Serif" font-size="10.00">LoRaClass::crc</text>
</a>
</g>
</g>
<!-- Node9&#45;&gt;Node10 -->
<g id="edge9_Node000009_Node000010" class="edge">
<title>Node9&#45;&gt;Node10</title>
<g id="a_edge9_Node000009_Node000010"><a xlink:title=" ">
<path fill="none" stroke="#63b8ff" d="M383.93,-732C358.57,-732 330.58,-732 308.34,-732"/>
<polygon fill="#63b8ff" stroke="#63b8ff" points="383.86,-735.5 393.86,-732 383.86,-728.5 383.86,-735.5"/>
</a>
</g>
</g>
<!-- Node13 -->
<g id="Node000013" class="node">
<title>Node13</title>
<g id="a_Node000013"><a xlink:href="class_lo_ra_class.html#a22d4ee8aaded004bb91b70ee15c57e2d" target="_top" xlink:title=" ">
<polygon fill="white" stroke="#666666" points="328.25,-647 203.5,-647 203.5,-627 328.25,-627 328.25,-647"/>
<text text-anchor="middle" x="265.88" y="-633.5" font-family="Helvetica,sans-Serif" font-size="10.00">LoRaClass::beginPacket</text>
</a>
</g>
</g>
<!-- Node12&#45;&gt;Node13 -->
<g id="edge12_Node000012_Node000013" class="edge">
<title>Node12&#45;&gt;Node13</title>
<g id="a_edge12_Node000012_Node000013"><a xlink:title=" ">
<path fill="none" stroke="#63b8ff" d="M363.28,-627.12C351.59,-628.32 339.82,-629.52 328.72,-630.66"/>
<polygon fill="#63b8ff" stroke="#63b8ff" points="363.34,-630.63 372.93,-626.13 362.63,-623.67 363.34,-630.63"/>
</a>
</g>
</g>
<!-- Node12&#45;&gt;Node14 -->
<g id="edge13_Node000012_Node000014" class="edge">
<title>Node12&#45;&gt;Node14</title>
<g id="a_edge13_Node000012_Node000014"><a xlink:title=" ">
<path fill="none" stroke="#63b8ff" d="M390.99,-604.48C385.44,-602.8 379.96,-600.98 374.75,-599 357.84,-592.58 355.6,-586.58 338.75,-580 330.45,-576.76 321.41,-573.89 312.62,-571.42"/>
<polygon fill="#63b8ff" stroke="#63b8ff" points="389.64,-607.73 400.22,-607.09 391.55,-601 389.64,-607.73"/>
</a>
</g>
</g>
<!-- Node15 -->
<g id="Node000015" class="node">
<title>Node15</title>
<g id="a_Node000015"><a xlink:href="class_lo_ra_class.html#a3a19d8829af07604d570f4085a4eec45" target="_top" xlink:title=" ">
<polygon fill="white" stroke="#666666" points="317,-609 214.75,-609 214.75,-589 317,-589 317,-609"/>
<text text-anchor="middle" x="265.88" y="-595.5" font-family="Helvetica,sans-Serif" font-size="10.00">LoRaClass::receive</text>
</a>
</g>
</g>
<!-- Node12&#45;&gt;Node15 -->
<g id="edge14_Node000012_Node000015" class="edge">
<title>Node12&#45;&gt;Node15</title>
<g id="a_edge14_Node000012_Node000015"><a xlink:title=" ">
<path fill="none" stroke="#63b8ff" d="M363.04,-608.86C347.32,-607.25 331.47,-605.62 317.3,-604.17"/>
<polygon fill="#63b8ff" stroke="#63b8ff" points="362.63,-612.33 372.93,-609.87 363.34,-605.37 362.63,-612.33"/>
</a>
</g>
</g>
<!-- Node16&#45;&gt;Node17 -->
<g id="edge16_Node000016_Node000017" class="edge">
<title>Node16&#45;&gt;Node17</title>
<g id="a_edge16_Node000016_Node000017"><a xlink:title=" ">
<path fill="none" stroke="#63b8ff" d="M363.13,-437.13C355.1,-437.96 347.03,-438.78 339.16,-439.59"/>
<polygon fill="#63b8ff" stroke="#63b8ff" points="363.34,-440.63 372.93,-436.13 362.63,-433.67 363.34,-440.63"/>
</a>
</g>
</g>
<!-- Node16&#45;&gt;Node18 -->
<g id="edge17_Node000016_Node000018" class="edge">
<title>Node16&#45;&gt;Node18</title>
<g id="a_edge17_Node000016_Node000018"><a xlink:title=" ">
<path fill="none" stroke="#63b8ff" d="M389.87,-415.21C366.45,-410.41 340.12,-405.01 317.85,-400.45"/>
<polygon fill="#63b8ff" stroke="#63b8ff" points="389.12,-418.63 399.62,-417.21 390.53,-411.77 389.12,-418.63"/>
</a>
</g>
</g>
<!-- Node18&#45;&gt;Node19 -->
<g id="edge18_Node000018_Node000019" class="edge">
<title>Node18&#45;&gt;Node19</title>
<g id="a_edge18_Node000018_Node000019"><a xlink:title=" ">
<path fill="none" stroke="#63b8ff" d="M194.88,-400.57C179.79,-402.85 163.85,-405.26 148.79,-407.53"/>
<polygon fill="#63b8ff" stroke="#63b8ff" points="195.36,-404.04 204.72,-399.09 194.31,-397.12 195.36,-404.04"/>
</a>
</g>
</g>
<!-- Node18&#45;&gt;Node20 -->
<g id="edge19_Node000018_Node000020" class="edge">
<title>Node18&#45;&gt;Node20</title>
<g id="a_edge19_Node000018_Node000020"><a xlink:title=" ">
<path fill="none" stroke="#63b8ff" d="M194.87,-379.05C179.02,-376.57 162.22,-373.94 146.49,-371.48"/>
<polygon fill="#63b8ff" stroke="#63b8ff" points="194.31,-382.5 204.73,-380.59 195.39,-375.59 194.31,-382.5"/>
</a>
</g>
</g>
<!-- Node21&#45;&gt;Node18 -->
<g id="edge21_Node000021_Node000018" class="edge">
<title>Node21&#45;&gt;Node18</title>
<g id="a_edge21_Node000021_Node000018"><a xlink:title=" ">
<path fill="none" stroke="#63b8ff" d="M389.87,-364.79C366.45,-369.59 340.12,-374.99 317.85,-379.55"/>
<polygon fill="#63b8ff" stroke="#63b8ff" points="390.53,-368.23 399.62,-362.79 389.12,-361.37 390.53,-368.23"/>
</a>
</g>
</g>
<!-- Node23&#45;&gt;Node13 -->
<g id="edge24_Node000023_Node000013" class="edge">
<title>Node23&#45;&gt;Node13</title>
<g id="a_edge24_Node000023_Node000013"><a xlink:title=" ">
<path fill="none" stroke="#63b8ff" d="M390.99,-593.52C385.44,-595.2 379.96,-597.02 374.75,-599 357.84,-605.42 355.6,-611.42 338.75,-618 330.45,-621.24 321.41,-624.11 312.62,-626.58"/>
<polygon fill="#63b8ff" stroke="#63b8ff" points="391.55,-597 400.22,-590.91 389.64,-590.27 391.55,-597"/>
</a>
</g>
</g>
<!-- Node23&#45;&gt;Node14 -->
<g id="edge25_Node000023_Node000014" class="edge">
<title>Node23&#45;&gt;Node14</title>
<g id="a_edge25_Node000023_Node000014"><a xlink:title=" ">
<path fill="none" stroke="#63b8ff" d="M363.1,-570.86C352.17,-569.74 341.18,-568.62 330.72,-567.54"/>
<polygon fill="#63b8ff" stroke="#63b8ff" points="362.63,-574.33 372.93,-571.87 363.34,-567.37 362.63,-574.33"/>
</a>
</g>
</g>
<!-- Node23&#45;&gt;Node15 -->
<g id="edge26_Node000023_Node000015" class="edge">
<title>Node23&#45;&gt;Node15</title>
<g id="a_edge26_Node000023_Node000015"><a xlink:title=" ">
<path fill="none" stroke="#63b8ff" d="M363.04,-589.14C347.32,-590.75 331.47,-592.38 317.3,-593.83"/>
<polygon fill="#63b8ff" stroke="#63b8ff" points="363.34,-592.63 372.93,-588.13 362.63,-585.67 363.34,-592.63"/>
</a>
</g>
</g>
<!-- Node24&#45;&gt;Node13 -->
<g id="edge28_Node000024_Node000013" class="edge">
<title>Node24&#45;&gt;Node13</title>
<g id="a_edge28_Node000024_Node000013"><a xlink:title=" ">
<path fill="none" stroke="#63b8ff" d="M375.43,-648.13C359.85,-646.53 343.66,-644.87 328.68,-643.33"/>
<polygon fill="#63b8ff" stroke="#63b8ff" points="374.82,-651.58 385.13,-649.12 375.54,-644.62 374.82,-651.58"/>
</a>
</g>
</g>
</g>
</svg>

<g id="navigator" transform="translate(0 0)" fill="#404254">
  <rect fill="#f2f5e9" fill-opacity="0.5" stroke="#606060" stroke-width=".5" x="0" y="0" width="60" height="60"/>
  <use id="zoomplus" xlink:href="#zoomPlus" x="17" y="9" onmousedown="handleZoom(evt,'in')"/>
  <use id="zoomminus" xlink:href="#zoomMin" x="42" y="9" onmousedown="handleZoom(evt,'out')"/>
  <use id="reset" xlink:href="#resetDef" x="30" y="36" onmousedown="handleReset()"/>
   <use id="arrowup" xlink:href="#arrowUp" x="0" y="0" onmousedown="handlePan(0,-1)"/>
  <use id="arrowright" xlink:href="#arrowRight" x="0" y="0" onmousedown="handlePan(1,0)"/>
  <use id="arrowdown" xlink:href="#arrowDown" x="0" y="0" onmousedown="handlePan(0,1)"/>
  <use id="arrowleft" xlink:href="#arrowLeft" x="0" y="0" onmousedown="handlePan(-1,0)"/>
</g>
<svg viewBox="0 0 15 15" width="100%" height="30px" preserveAspectRatio="xMaxYMin meet">
 <g id="arrow_out" transform="scale(0.3 0.3)">
  <a xlink:href="class_lo_ra_class_add581bfe66dd75108e22b18a4d6f89bf_icgraph_org.svg" target="_base">
   <rect id="button" ry="5" rx="5" y="6" x="6" height="38" width="38"
        fill="#f2f5e9" fill-opacity="0.5" stroke="#606060" stroke-width="1.0"/>
   <path id="arrow"
     d="M 11.500037,31.436501 C 11.940474,20.09759 22.043105,11.32322 32.158766,21.979434 L 37.068811,17.246167 C 37.068811,17.246167 37.088388,32 37.088388,32 L 22.160133,31.978069 C 22.160133,31.978069 26.997745,27.140456 26.997745,27.140456 C 18.528582,18.264221 13.291696,25.230495 11.500037,31.436501 z"
     style="fill:#404040;"/>
  </a>
 </g>
</svg>

<style type='text/css'>
<![CDATA[
[data-mouse-over-selected='false'] { opacity: 0.7; }
[data-mouse-over-selected='true']  { opacity: 1.0; }
]]>
</style>
<script type="application/ecmascript"><![CDATA[
document.addEventListener('DOMContentLoaded', (event) => {
  highlightEdges();
  highlightAdjacentNodes();
});
]]></script>
</svg>
