<?xml version="1.0" encoding="UTF-8" standalone="no"?>
<!DOCTYPE svg PUBLIC "-//W3C//DTD SVG 1.1//EN"
 "http://www.w3.org/Graphics/SVG/1.1/DTD/svg11.dtd">
<!-- Generated by graphviz version 12.2.1 (20241206.2353)
 -->
<!-- Title: ErriezDS3231::getEpoch Pages: 1 -->
<svg width="433pt" height="66pt"
 viewBox="0.00 0.00 432.50 66.00" xmlns="http://www.w3.org/2000/svg" xmlns:xlink="http://www.w3.org/1999/xlink">
<g id="graph0" class="graph" transform="scale(1 1) rotate(0) translate(4 62)">
<title>ErriezDS3231::getEpoch</title>
<!-- Node1 -->
<g id="Node000001" class="node">
<title>Node1</title>
<g id="a_Node000001"><a xlink:title="Read Unix UTC epoch time_t.">
<polygon fill="#999999" stroke="#666666" points="124,-39 0,-39 0,-19 124,-19 124,-39"/>
<text text-anchor="middle" x="62" y="-25.5" font-family="Helvetica,sans-Serif" font-size="10.00">ErriezDS3231::getEpoch</text>
</a>
</g>
</g>
<!-- Node2 -->
<g id="Node000002" class="node">
<title>Node2</title>
<g id="a_Node000002"><a xlink:href="class_erriez_d_s3231.html#a0261677270cc639a23daebbabcf0e6fc" target="_top" xlink:title="Read date and time from RTC.">
<polygon fill="white" stroke="#666666" points="261.5,-39 160,-39 160,-19 261.5,-19 261.5,-39"/>
<text text-anchor="middle" x="210.75" y="-25.5" font-family="Helvetica,sans-Serif" font-size="10.00">ErriezDS3231::read</text>
</a>
</g>
</g>
<!-- Node1&#45;&gt;Node2 -->
<g id="edge1_Node000001_Node000002" class="edge">
<title>Node1&#45;&gt;Node2</title>
<g id="a_edge1_Node000001_Node000002"><a xlink:title=" ">
<path fill="none" stroke="#63b8ff" d="M124.38,-29C132.3,-29 140.41,-29 148.32,-29"/>
<polygon fill="#63b8ff" stroke="#63b8ff" points="148.23,-32.5 158.23,-29 148.23,-25.5 148.23,-32.5"/>
</a>
</g>
</g>
<!-- Node3 -->
<g id="Node000003" class="node">
<title>Node3</title>
<g id="a_Node000003"><a xlink:href="class_erriez_d_s3231.html#a471af5f04b95c6021e9d5a551ad46099" target="_top" xlink:title="BCD to decimal conversion.">
<polygon fill="white" stroke="#666666" points="424.5,-58 297.5,-58 297.5,-38 424.5,-38 424.5,-58"/>
<text text-anchor="middle" x="361" y="-44.5" font-family="Helvetica,sans-Serif" font-size="10.00">ErriezDS3231::bcdToDec</text>
</a>
</g>
</g>
<!-- Node2&#45;&gt;Node3 -->
<g id="edge2_Node000002_Node000003" class="edge">
<title>Node2&#45;&gt;Node3</title>
<g id="a_edge2_Node000002_Node000003"><a xlink:title=" ">
<path fill="none" stroke="#63b8ff" d="M261.94,-35.43C269.65,-36.42 277.74,-37.46 285.84,-38.5"/>
<polygon fill="#63b8ff" stroke="#63b8ff" points="285.38,-41.96 295.74,-39.76 286.27,-35.02 285.38,-41.96"/>
</a>
</g>
</g>
<!-- Node4 -->
<g id="Node000004" class="node">
<title>Node4</title>
<g id="a_Node000004"><a xlink:href="class_erriez_d_s3231.html#a9715869e0186e4f6a30dfd6a372875c1" target="_top" xlink:title="Read buffer from RTC.">
<polygon fill="white" stroke="#666666" points="424.5,-20 297.5,-20 297.5,0 424.5,0 424.5,-20"/>
<text text-anchor="middle" x="361" y="-6.5" font-family="Helvetica,sans-Serif" font-size="10.00">ErriezDS3231::readBuffer</text>
</a>
</g>
</g>
<!-- Node2&#45;&gt;Node4 -->
<g id="edge3_Node000002_Node000004" class="edge">
<title>Node2&#45;&gt;Node4</title>
<g id="a_edge3_Node000002_Node000004"><a xlink:title=" ">
<path fill="none" stroke="#63b8ff" d="M261.94,-22.57C269.65,-21.58 277.74,-20.54 285.84,-19.5"/>
<polygon fill="#63b8ff" stroke="#63b8ff" points="286.27,-22.98 295.74,-18.24 285.38,-16.04 286.27,-22.98"/>
</a>
</g>
</g>
</g>
</svg>
