<?xml version="1.0" encoding="UTF-8" standalone="no"?>
<!DOCTYPE svg PUBLIC "-//W3C//DTD SVG 1.1//EN"
 "http://www.w3.org/Graphics/SVG/1.1/DTD/svg11.dtd">
<!-- Generated by graphviz version 12.2.1 (20241206.2353)
 -->
<!-- Title: Print::print Pages: 1 -->
<!--zoomable 560 -->

<svg id="main" version="1.1" xmlns="http://www.w3.org/2000/svg" xmlns:xlink="http://www.w3.org/1999/xlink" xml:space="preserve" onload="init(evt)">

<style type="text/css"><![CDATA[
.node, .edge {opacity: 0.7;}
.node.selected, .edge.selected {opacity: 1;}
.edge:hover path { stroke: red; }
.edge:hover polygon { stroke: red; fill: red; }
]]></style>

<defs>
  <circle id="rim" cx="0" cy="0" r="7"/>
  <circle id="rim2" cx="0" cy="0" r="3.5"/>
  <g id="zoomPlus">
    <use xlink:href="#rim" fill="#404040"><set attributeName="fill" to="#808080" begin="zoomplus.mouseover" end="zoomplus.mouseout"/></use>
    <path d="M-4,0h8M0,-4v8" fill="none" stroke="white" stroke-width="1.5" pointer-events="none"/>
  </g>
  <g id="zoomMin">
    <use xlink:href="#rim" fill="#404040"><set attributeName="fill" to="#808080" begin="zoomminus.mouseover" end="zoomminus.mouseout"/></use>
    <path d="M-4,0h8" fill="none" stroke="white" stroke-width="1.5" pointer-events="none"/>
  </g>
  <g id="arrowUp" transform="translate(30 24)">
    <use xlink:href="#rim"/>
    <path pointer-events="none" fill="none" stroke="white" stroke-width="1.5" d="M0,-3.0v7 M-2.5,-0.5L0,-3.0L2.5,-0.5"/>
  </g>
  <g id="arrowRight" transform="rotate(90) translate(36 -43)">
    <use xlink:href="#rim"/>
    <path pointer-events="none" fill="none" stroke="white" stroke-width="1.5" d="M0,-3.0v7 M-2.5,-0.5L0,-3.0L2.5,-0.5"/>
  </g>
  <g id="arrowDown" transform="rotate(180) translate(-30 -48)">
    <use xlink:href="#rim"/>
    <path pointer-events="none" fill="none" stroke="white" stroke-width="1.5" d="M0,-3.0v7 M-2.5,-0.5L0,-3.0L2.5,-0.5"/>
  </g>
  <g id="arrowLeft" transform="rotate(270) translate(-36 17)">
    <use xlink:href="#rim"/>
    <path pointer-events="none" fill="none" stroke="white" stroke-width="1.5" d="M0,-3.0v7 M-2.5,-0.5L0,-3.0L2.5,-0.5"/>
  </g>
  <g id="resetDef">
    <use xlink:href="#rim2" fill="#404040"><set attributeName="fill" to="#808080" begin="reset.mouseover" end="reset.mouseout"/></use>
  </g>
</defs>
<script type="application/ecmascript">
var viewWidth = 285;
var viewHeight = 560;
var sectionId = 'dynsection-14';
</script>
<script type="application/ecmascript" xlink:href="svg.min.js"/>
<svg id="graph" class="graph">
<g id="viewport">
<title>Print::print</title>
<!-- Node1 -->
<g id="Node000001" class="node">
<title>Node1</title>
<g id="a_Node000001"><a xlink:title=" ">
<polygon fill="#999999" stroke="#666666" points="276.75,-286 215.75,-286 215.75,-266 276.75,-266 276.75,-286"/>
<text text-anchor="middle" x="246.25" y="-272.5" font-family="Helvetica,sans-Serif" font-size="10.00">Print::print</text>
</a>
</g>
</g>
<!-- Node2 -->
<g id="Node000002" class="node">
<title>Node2</title>
<g id="a_Node000002"><a xlink:href="class_print.html#a669dd47fc762118a5a2052bf77d54dc8" target="_top" xlink:title=" ">
<polygon fill="white" stroke="#666666" points="168.88,-552 107.88,-552 107.88,-532 168.88,-532 168.88,-552"/>
<text text-anchor="middle" x="138.38" y="-538.5" font-family="Helvetica,sans-Serif" font-size="10.00">Print::print</text>
</a>
</g>
</g>
<!-- Node1&#45;&gt;Node2 -->
<g id="edge1_Node000001_Node000002" class="edge">
<title>Node1&#45;&gt;Node2</title>
<g id="a_edge1_Node000001_Node000002"><a xlink:title=" ">
<path fill="none" stroke="#63b8ff" d="M245.36,-297.65C244.45,-344.28 236.11,-455.42 179.75,-523 176.87,-526.45 173.23,-529.31 169.31,-531.68"/>
<polygon fill="#63b8ff" stroke="#63b8ff" points="248.85,-297.84 245.43,-287.82 241.85,-297.79 248.85,-297.84"/>
</a>
</g>
</g>
<!-- Node3 -->
<g id="Node000003" class="node">
<title>Node3</title>
<g id="a_Node000003"><a xlink:href="class_print.html#ab1fb2a2384c7b9f628943f5046e7d1c1" target="_top" xlink:title=" ">
<polygon fill="white" stroke="#666666" points="168.88,-514 107.88,-514 107.88,-494 168.88,-494 168.88,-514"/>
<text text-anchor="middle" x="138.38" y="-500.5" font-family="Helvetica,sans-Serif" font-size="10.00">Print::print</text>
</a>
</g>
</g>
<!-- Node1&#45;&gt;Node3 -->
<g id="edge2_Node000001_Node000003" class="edge">
<title>Node1&#45;&gt;Node3</title>
<g id="a_edge2_Node000001_Node000003"><a xlink:title=" ">
<path fill="none" stroke="#63b8ff" d="M244.09,-297.36C240.79,-338.5 228.12,-429.55 179.75,-485 176.8,-488.39 173.11,-491.21 169.17,-493.56"/>
<polygon fill="#63b8ff" stroke="#63b8ff" points="247.57,-297.8 244.76,-287.59 240.59,-297.33 247.57,-297.8"/>
</a>
</g>
</g>
<!-- Node4 -->
<g id="Node000004" class="node">
<title>Node4</title>
<g id="a_Node000004"><a xlink:href="class_print.html#a97bd44df9222fa4a51a1266fab8d3bc1" target="_top" xlink:title=" ">
<polygon fill="white" stroke="#666666" points="168.88,-476 107.88,-476 107.88,-456 168.88,-456 168.88,-476"/>
<text text-anchor="middle" x="138.38" y="-462.5" font-family="Helvetica,sans-Serif" font-size="10.00">Print::print</text>
</a>
</g>
</g>
<!-- Node1&#45;&gt;Node4 -->
<g id="edge3_Node000001_Node000004" class="edge">
<title>Node1&#45;&gt;Node4</title>
<g id="a_edge3_Node000001_Node000004"><a xlink:title=" ">
<path fill="none" stroke="#63b8ff" d="M242.27,-297.56C236.36,-332.93 220.02,-403.64 179.75,-447 176.59,-450.41 172.69,-453.26 168.57,-455.63"/>
<polygon fill="#63b8ff" stroke="#63b8ff" points="245.72,-298.16 243.78,-287.75 238.8,-297.1 245.72,-298.16"/>
</a>
</g>
</g>
<!-- Node5 -->
<g id="Node000005" class="node">
<title>Node5</title>
<g id="a_Node000005"><a xlink:href="class_print.html#a87275de35583868a370f43ce1c887750" target="_top" xlink:title=" ">
<polygon fill="white" stroke="#666666" points="168.88,-438 107.88,-438 107.88,-418 168.88,-418 168.88,-438"/>
<text text-anchor="middle" x="138.38" y="-424.5" font-family="Helvetica,sans-Serif" font-size="10.00">Print::print</text>
</a>
</g>
</g>
<!-- Node1&#45;&gt;Node5 -->
<g id="edge4_Node000001_Node000005" class="edge">
<title>Node1&#45;&gt;Node5</title>
<g id="a_edge4_Node000001_Node000005"><a xlink:title=" ">
<path fill="none" stroke="#63b8ff" d="M239.64,-297.18C231.07,-325.86 212.2,-377.12 179.75,-409 176.32,-412.37 172.19,-415.22 167.89,-417.6"/>
<polygon fill="#63b8ff" stroke="#63b8ff" points="242.92,-298.42 242.28,-287.85 236.18,-296.52 242.92,-298.42"/>
</a>
</g>
</g>
<!-- Node6 -->
<g id="Node000006" class="node">
<title>Node6</title>
<g id="a_Node000006"><a xlink:href="class_print.html#adb44122cacb3fbd2338858efb54ffdef" target="_top" xlink:title=" ">
<polygon fill="white" stroke="#666666" points="179.75,-400 97,-400 97,-380 179.75,-380 179.75,-400"/>
<text text-anchor="middle" x="138.38" y="-386.5" font-family="Helvetica,sans-Serif" font-size="10.00">Print::printFloat</text>
</a>
</g>
</g>
<!-- Node1&#45;&gt;Node6 -->
<g id="edge5_Node000001_Node000006" class="edge">
<title>Node1&#45;&gt;Node6</title>
<g id="a_edge5_Node000001_Node000006"><a xlink:title=" ">
<path fill="none" stroke="#63b8ff" d="M235.23,-296.57C224.13,-317.58 204.48,-350.02 179.75,-371 175.85,-374.31 171.28,-377.17 166.64,-379.6"/>
<polygon fill="#63b8ff" stroke="#63b8ff" points="238.26,-298.32 239.68,-287.82 232.03,-295.15 238.26,-298.32"/>
</a>
</g>
</g>
<!-- Node8 -->
<g id="Node000008" class="node">
<title>Node8</title>
<g id="a_Node000008"><a xlink:href="class_print.html#a554896a71162f967b5794401239d7a01" target="_top" xlink:title=" ">
<polygon fill="white" stroke="#666666" points="172.62,-362 104.12,-362 104.12,-342 172.62,-342 172.62,-362"/>
<text text-anchor="middle" x="138.38" y="-348.5" font-family="Helvetica,sans-Serif" font-size="10.00">Print::println</text>
</a>
</g>
</g>
<!-- Node1&#45;&gt;Node8 -->
<g id="edge7_Node000001_Node000008" class="edge">
<title>Node1&#45;&gt;Node8</title>
<g id="a_edge7_Node000001_Node000008"><a xlink:title=" ">
<path fill="none" stroke="#63b8ff" d="M227.11,-294.24C214.54,-306.23 197.02,-321.73 179.75,-333 174.95,-336.13 169.55,-339.04 164.3,-341.59"/>
<polygon fill="#63b8ff" stroke="#63b8ff" points="229.51,-296.78 234.22,-287.29 224.62,-291.77 229.51,-296.78"/>
</a>
</g>
</g>
<!-- Node9 -->
<g id="Node000009" class="node">
<title>Node9</title>
<g id="a_Node000009"><a xlink:href="class_print.html#ad337ce3f7977411b7d34d47a51e5737e" target="_top" xlink:title=" ">
<polygon fill="white" stroke="#666666" points="172.62,-324 104.12,-324 104.12,-304 172.62,-304 172.62,-324"/>
<text text-anchor="middle" x="138.38" y="-310.5" font-family="Helvetica,sans-Serif" font-size="10.00">Print::println</text>
</a>
</g>
</g>
<!-- Node1&#45;&gt;Node9 -->
<g id="edge8_Node000001_Node000009" class="edge">
<title>Node1&#45;&gt;Node9</title>
<g id="a_edge8_Node000001_Node000009"><a xlink:title=" ">
<path fill="none" stroke="#63b8ff" d="M205.56,-290.24C193.26,-294.66 179.94,-299.44 168.49,-303.55"/>
<polygon fill="#63b8ff" stroke="#63b8ff" points="206.38,-293.67 214.61,-287 204.02,-287.08 206.38,-293.67"/>
</a>
</g>
</g>
<!-- Node10 -->
<g id="Node000010" class="node">
<title>Node10</title>
<g id="a_Node000010"><a xlink:href="class_print.html#a56e976b079361b6021ef7c2bedb397a2" target="_top" xlink:title=" ">
<polygon fill="white" stroke="#666666" points="172.62,-286 104.12,-286 104.12,-266 172.62,-266 172.62,-286"/>
<text text-anchor="middle" x="138.38" y="-272.5" font-family="Helvetica,sans-Serif" font-size="10.00">Print::println</text>
</a>
</g>
</g>
<!-- Node1&#45;&gt;Node10 -->
<g id="edge9_Node000001_Node000010" class="edge">
<title>Node1&#45;&gt;Node10</title>
<g id="a_edge9_Node000001_Node000010"><a xlink:title=" ">
<path fill="none" stroke="#63b8ff" d="M204.19,-276C193.88,-276 182.93,-276 173.02,-276"/>
<polygon fill="#63b8ff" stroke="#63b8ff" points="203.96,-279.5 213.96,-276 203.96,-272.5 203.96,-279.5"/>
</a>
</g>
</g>
<!-- Node11 -->
<g id="Node000011" class="node">
<title>Node11</title>
<g id="a_Node000011"><a xlink:href="class_print.html#a738c88471cfb8eac7c8a804699971413" target="_top" xlink:title=" ">
<polygon fill="white" stroke="#666666" points="172.62,-248 104.12,-248 104.12,-228 172.62,-228 172.62,-248"/>
<text text-anchor="middle" x="138.38" y="-234.5" font-family="Helvetica,sans-Serif" font-size="10.00">Print::println</text>
</a>
</g>
</g>
<!-- Node1&#45;&gt;Node11 -->
<g id="edge10_Node000001_Node000011" class="edge">
<title>Node1&#45;&gt;Node11</title>
<g id="a_edge10_Node000001_Node000011"><a xlink:title=" ">
<path fill="none" stroke="#63b8ff" d="M205.56,-261.76C193.26,-257.34 179.94,-252.56 168.49,-248.45"/>
<polygon fill="#63b8ff" stroke="#63b8ff" points="204.02,-264.92 214.61,-265 206.38,-258.33 204.02,-264.92"/>
</a>
</g>
</g>
<!-- Node12 -->
<g id="Node000012" class="node">
<title>Node12</title>
<g id="a_Node000012"><a xlink:href="class_print.html#a3d0a0f3da98e9401d25b959b726e94ac" target="_top" xlink:title=" ">
<polygon fill="white" stroke="#666666" points="172.62,-210 104.12,-210 104.12,-190 172.62,-190 172.62,-210"/>
<text text-anchor="middle" x="138.38" y="-196.5" font-family="Helvetica,sans-Serif" font-size="10.00">Print::println</text>
</a>
</g>
</g>
<!-- Node1&#45;&gt;Node12 -->
<g id="edge11_Node000001_Node000012" class="edge">
<title>Node1&#45;&gt;Node12</title>
<g id="a_edge11_Node000001_Node000012"><a xlink:title=" ">
<path fill="none" stroke="#63b8ff" d="M227.11,-257.76C214.54,-245.77 197.02,-230.27 179.75,-219 174.95,-215.87 169.55,-212.96 164.3,-210.41"/>
<polygon fill="#63b8ff" stroke="#63b8ff" points="224.62,-260.23 234.22,-264.71 229.51,-255.22 224.62,-260.23"/>
</a>
</g>
</g>
<!-- Node13 -->
<g id="Node000013" class="node">
<title>Node13</title>
<g id="a_Node000013"><a xlink:href="class_print.html#a833fbec3ceba92e3ec95f51e026e4569" target="_top" xlink:title=" ">
<polygon fill="white" stroke="#666666" points="172.62,-172 104.12,-172 104.12,-152 172.62,-152 172.62,-172"/>
<text text-anchor="middle" x="138.38" y="-158.5" font-family="Helvetica,sans-Serif" font-size="10.00">Print::println</text>
</a>
</g>
</g>
<!-- Node1&#45;&gt;Node13 -->
<g id="edge12_Node000001_Node000013" class="edge">
<title>Node1&#45;&gt;Node13</title>
<g id="a_edge12_Node000001_Node000013"><a xlink:title=" ">
<path fill="none" stroke="#63b8ff" d="M235.23,-255.43C224.13,-234.42 204.48,-201.98 179.75,-181 175.85,-177.69 171.28,-174.83 166.64,-172.4"/>
<polygon fill="#63b8ff" stroke="#63b8ff" points="232.03,-256.85 239.68,-264.18 238.26,-253.68 232.03,-256.85"/>
</a>
</g>
</g>
<!-- Node14 -->
<g id="Node000014" class="node">
<title>Node14</title>
<g id="a_Node000014"><a xlink:href="class_print.html#ac9afe80f50f0118d735295aec7727e50" target="_top" xlink:title=" ">
<polygon fill="white" stroke="#666666" points="172.62,-134 104.12,-134 104.12,-114 172.62,-114 172.62,-134"/>
<text text-anchor="middle" x="138.38" y="-120.5" font-family="Helvetica,sans-Serif" font-size="10.00">Print::println</text>
</a>
</g>
</g>
<!-- Node1&#45;&gt;Node14 -->
<g id="edge13_Node000001_Node000014" class="edge">
<title>Node1&#45;&gt;Node14</title>
<g id="a_edge13_Node000001_Node000014"><a xlink:title=" ">
<path fill="none" stroke="#63b8ff" d="M239.64,-254.82C231.07,-226.14 212.2,-174.88 179.75,-143 176.32,-139.63 172.19,-136.78 167.89,-134.4"/>
<polygon fill="#63b8ff" stroke="#63b8ff" points="236.18,-255.48 242.28,-264.15 242.92,-253.58 236.18,-255.48"/>
</a>
</g>
</g>
<!-- Node15 -->
<g id="Node000015" class="node">
<title>Node15</title>
<g id="a_Node000015"><a xlink:href="class_print.html#ac87eed1fcb78641169ba2244278c899e" target="_top" xlink:title=" ">
<polygon fill="white" stroke="#666666" points="172.62,-96 104.12,-96 104.12,-76 172.62,-76 172.62,-96"/>
<text text-anchor="middle" x="138.38" y="-82.5" font-family="Helvetica,sans-Serif" font-size="10.00">Print::println</text>
</a>
</g>
</g>
<!-- Node1&#45;&gt;Node15 -->
<g id="edge14_Node000001_Node000015" class="edge">
<title>Node1&#45;&gt;Node15</title>
<g id="a_edge14_Node000001_Node000015"><a xlink:title=" ">
<path fill="none" stroke="#63b8ff" d="M242.27,-254.44C236.36,-219.07 220.02,-148.36 179.75,-105 176.59,-101.59 172.69,-98.74 168.57,-96.37"/>
<polygon fill="#63b8ff" stroke="#63b8ff" points="238.8,-254.9 243.78,-264.25 245.72,-253.84 238.8,-254.9"/>
</a>
</g>
</g>
<!-- Node16 -->
<g id="Node000016" class="node">
<title>Node16</title>
<g id="a_Node000016"><a xlink:href="class_print.html#ab3b823d47192f2c87b54f485ee1a3617" target="_top" xlink:title=" ">
<polygon fill="white" stroke="#666666" points="172.62,-58 104.12,-58 104.12,-38 172.62,-38 172.62,-58"/>
<text text-anchor="middle" x="138.38" y="-44.5" font-family="Helvetica,sans-Serif" font-size="10.00">Print::println</text>
</a>
</g>
</g>
<!-- Node1&#45;&gt;Node16 -->
<g id="edge15_Node000001_Node000016" class="edge">
<title>Node1&#45;&gt;Node16</title>
<g id="a_edge15_Node000001_Node000016"><a xlink:title=" ">
<path fill="none" stroke="#63b8ff" d="M244.09,-254.64C240.79,-213.5 228.12,-122.45 179.75,-67 176.8,-63.61 173.11,-60.79 169.17,-58.44"/>
<polygon fill="#63b8ff" stroke="#63b8ff" points="240.59,-254.67 244.76,-264.41 247.57,-254.2 240.59,-254.67"/>
</a>
</g>
</g>
<!-- Node17 -->
<g id="Node000017" class="node">
<title>Node17</title>
<g id="a_Node000017"><a xlink:href="class_print.html#aebee3c33ee5d8f10b6f378d5273742d0" target="_top" xlink:title=" ">
<polygon fill="white" stroke="#666666" points="172.62,-20 104.12,-20 104.12,0 172.62,0 172.62,-20"/>
<text text-anchor="middle" x="138.38" y="-6.5" font-family="Helvetica,sans-Serif" font-size="10.00">Print::println</text>
</a>
</g>
</g>
<!-- Node1&#45;&gt;Node17 -->
<g id="edge16_Node000001_Node000017" class="edge">
<title>Node1&#45;&gt;Node17</title>
<g id="a_edge16_Node000001_Node000017"><a xlink:title=" ">
<path fill="none" stroke="#63b8ff" d="M245.36,-254.35C244.45,-207.72 236.11,-96.58 179.75,-29 176.87,-25.55 173.23,-22.69 169.31,-20.32"/>
<polygon fill="#63b8ff" stroke="#63b8ff" points="241.85,-254.21 245.43,-264.18 248.85,-254.16 241.85,-254.21"/>
</a>
</g>
</g>
<!-- Node7 -->
<g id="Node000007" class="node">
<title>Node7</title>
<g id="a_Node000007"><a xlink:href="class_print.html#ae8b4c025786c820afe0a90aeea01c9c5" target="_top" xlink:title=" ">
<polygon fill="white" stroke="#666666" points="61,-400 0,-400 0,-380 61,-380 61,-400"/>
<text text-anchor="middle" x="30.5" y="-386.5" font-family="Helvetica,sans-Serif" font-size="10.00">Print::print</text>
</a>
</g>
</g>
<!-- Node6&#45;&gt;Node7 -->
<g id="edge6_Node000006_Node000007" class="edge">
<title>Node6&#45;&gt;Node7</title>
<g id="a_edge6_Node000006_Node000007"><a xlink:title=" ">
<path fill="none" stroke="#63b8ff" d="M85.24,-390C77.04,-390 68.8,-390 61.34,-390"/>
<polygon fill="#63b8ff" stroke="#63b8ff" points="85.23,-393.5 95.23,-390 85.23,-386.5 85.23,-393.5"/>
</a>
</g>
</g>
</g>
</svg>

<g id="navigator" transform="translate(0 0)" fill="#404254">
  <rect fill="#f2f5e9" fill-opacity="0.5" stroke="#606060" stroke-width=".5" x="0" y="0" width="60" height="60"/>
  <use id="zoomplus" xlink:href="#zoomPlus" x="17" y="9" onmousedown="handleZoom(evt,'in')"/>
  <use id="zoomminus" xlink:href="#zoomMin" x="42" y="9" onmousedown="handleZoom(evt,'out')"/>
  <use id="reset" xlink:href="#resetDef" x="30" y="36" onmousedown="handleReset()"/>
   <use id="arrowup" xlink:href="#arrowUp" x="0" y="0" onmousedown="handlePan(0,-1)"/>
  <use id="arrowright" xlink:href="#arrowRight" x="0" y="0" onmousedown="handlePan(1,0)"/>
  <use id="arrowdown" xlink:href="#arrowDown" x="0" y="0" onmousedown="handlePan(0,1)"/>
  <use id="arrowleft" xlink:href="#arrowLeft" x="0" y="0" onmousedown="handlePan(-1,0)"/>
</g>
<svg viewBox="0 0 15 15" width="100%" height="30px" preserveAspectRatio="xMaxYMin meet">
 <g id="arrow_out" transform="scale(0.3 0.3)">
  <a xlink:href="class_print_a1e411d07a8ffec5faf7ce485bac0f029_icgraph_org.svg" target="_base">
   <rect id="button" ry="5" rx="5" y="6" x="6" height="38" width="38"
        fill="#f2f5e9" fill-opacity="0.5" stroke="#606060" stroke-width="1.0"/>
   <path id="arrow"
     d="M 11.500037,31.436501 C 11.940474,20.09759 22.043105,11.32322 32.158766,21.979434 L 37.068811,17.246167 C 37.068811,17.246167 37.088388,32 37.088388,32 L 22.160133,31.978069 C 22.160133,31.978069 26.997745,27.140456 26.997745,27.140456 C 18.528582,18.264221 13.291696,25.230495 11.500037,31.436501 z"
     style="fill:#404040;"/>
  </a>
 </g>
</svg>

<style type='text/css'>
<![CDATA[
[data-mouse-over-selected='false'] { opacity: 0.7; }
[data-mouse-over-selected='true']  { opacity: 1.0; }
]]>
</style>
<script type="application/ecmascript"><![CDATA[
document.addEventListener('DOMContentLoaded', (event) => {
  highlightEdges();
  highlightAdjacentNodes();
});
]]></script>
</svg>
