<?xml version="1.0" encoding="UTF-8" standalone="no"?>
<!DOCTYPE svg PUBLIC "-//W3C//DTD SVG 1.1//EN"
 "http://www.w3.org/Graphics/SVG/1.1/DTD/svg11.dtd">
<!-- Generated by graphviz version 12.2.1 (20241206.2353)
 -->
<!-- Title: LoRaClass::idle Pages: 1 -->
<svg width="255pt" height="142pt"
 viewBox="0.00 0.00 255.25 142.00" xmlns="http://www.w3.org/2000/svg" xmlns:xlink="http://www.w3.org/1999/xlink">
<g id="graph0" class="graph" transform="scale(1 1) rotate(0) translate(4 138)">
<title>LoRaClass::idle</title>
<!-- Node1 -->
<g id="Node000001" class="node">
<title>Node1</title>
<g id="a_Node000001"><a xlink:title=" ">
<polygon fill="#999999" stroke="#666666" points="247.25,-77 161.5,-77 161.5,-57 247.25,-57 247.25,-77"/>
<text text-anchor="middle" x="204.38" y="-63.5" font-family="Helvetica,sans-Serif" font-size="10.00">LoRaClass::idle</text>
</a>
</g>
</g>
<!-- Node2 -->
<g id="Node000002" class="node">
<title>Node2</title>
<g id="a_Node000002"><a xlink:href="class_lo_ra_class.html#a3c5b6ee156c14f20238f46292c116d96" target="_top" xlink:title=" ">
<polygon fill="white" stroke="#666666" points="109.75,-134 15.75,-134 15.75,-114 109.75,-114 109.75,-134"/>
<text text-anchor="middle" x="62.75" y="-120.5" font-family="Helvetica,sans-Serif" font-size="10.00">LoRaClass::begin</text>
</a>
</g>
</g>
<!-- Node1&#45;&gt;Node2 -->
<g id="edge1_Node000001_Node000002" class="edge">
<title>Node1&#45;&gt;Node2</title>
<g id="a_edge1_Node000001_Node000002"><a xlink:title=" ">
<path fill="none" stroke="#63b8ff" d="M174.38,-82.48C159.93,-89.85 142.05,-98.46 125.5,-105 117.68,-108.09 109.14,-111 100.97,-113.57"/>
<polygon fill="#63b8ff" stroke="#63b8ff" points="175.62,-85.78 182.89,-78.08 172.4,-79.57 175.62,-85.78"/>
</a>
</g>
</g>
<!-- Node3 -->
<g id="Node000003" class="node">
<title>Node3</title>
<g id="a_Node000003"><a xlink:href="class_lo_ra_class.html#a22d4ee8aaded004bb91b70ee15c57e2d" target="_top" xlink:title=" ">
<polygon fill="white" stroke="#666666" points="125.12,-96 0.38,-96 0.38,-76 125.12,-76 125.12,-96"/>
<text text-anchor="middle" x="62.75" y="-82.5" font-family="Helvetica,sans-Serif" font-size="10.00">LoRaClass::beginPacket</text>
</a>
</g>
</g>
<!-- Node1&#45;&gt;Node3 -->
<g id="edge2_Node000001_Node000003" class="edge">
<title>Node1&#45;&gt;Node3</title>
<g id="a_edge2_Node000001_Node000003"><a xlink:title=" ">
<path fill="none" stroke="#63b8ff" d="M149.73,-74.3C141.78,-75.38 133.54,-76.5 125.45,-77.6"/>
<polygon fill="#63b8ff" stroke="#63b8ff" points="150.17,-77.77 159.6,-72.96 149.22,-70.84 150.17,-77.77"/>
</a>
</g>
</g>
<!-- Node4 -->
<g id="Node000004" class="node">
<title>Node4</title>
<g id="a_Node000004"><a xlink:href="class_lo_ra_class.html#a03104c1301f072b6a259bf6d18161069" target="_top" xlink:title=" ">
<polygon fill="white" stroke="#666666" points="125.5,-58 0,-58 0,-38 125.5,-38 125.5,-58"/>
<text text-anchor="middle" x="62.75" y="-44.5" font-family="Helvetica,sans-Serif" font-size="10.00">LoRaClass::parsePacket</text>
</a>
</g>
</g>
<!-- Node1&#45;&gt;Node4 -->
<g id="edge3_Node000001_Node000004" class="edge">
<title>Node1&#45;&gt;Node4</title>
<g id="a_edge3_Node000001_Node000004"><a xlink:title=" ">
<path fill="none" stroke="#63b8ff" d="M149.89,-59.72C142.07,-58.66 133.95,-57.55 125.97,-56.47"/>
<polygon fill="#63b8ff" stroke="#63b8ff" points="149.22,-63.16 159.6,-61.04 150.17,-56.23 149.22,-63.16"/>
</a>
</g>
</g>
<!-- Node5 -->
<g id="Node000005" class="node">
<title>Node5</title>
<g id="a_Node000005"><a xlink:href="class_lo_ra_class.html#aae3ff6ac6b8e2150f3fa5975f391738b" target="_top" xlink:title=" ">
<polygon fill="white" stroke="#666666" points="115,-20 10.5,-20 10.5,0 115,0 115,-20"/>
<text text-anchor="middle" x="62.75" y="-6.5" font-family="Helvetica,sans-Serif" font-size="10.00">LoRaClass::setGain</text>
</a>
</g>
</g>
<!-- Node1&#45;&gt;Node5 -->
<g id="edge4_Node000001_Node000005" class="edge">
<title>Node1&#45;&gt;Node5</title>
<g id="a_edge4_Node000001_Node000005"><a xlink:title=" ">
<path fill="none" stroke="#63b8ff" d="M174.38,-51.52C159.93,-44.15 142.05,-35.54 125.5,-29 117.68,-25.91 109.14,-23 100.97,-20.43"/>
<polygon fill="#63b8ff" stroke="#63b8ff" points="172.4,-54.43 182.89,-55.92 175.62,-48.22 172.4,-54.43"/>
</a>
</g>
</g>
</g>
</svg>
