<?xml version="1.0" encoding="UTF-8" standalone="no"?>
<!DOCTYPE svg PUBLIC "-//W3C//DTD SVG 1.1//EN"
 "http://www.w3.org/Graphics/SVG/1.1/DTD/svg11.dtd">
<!-- Generated by graphviz version 12.2.1 (20241206.2353)
 -->
<!-- Title: lib/comms/commands/clock_commands.cpp Pages: 1 -->
<!--zoomable 320 -->

<svg id="main" version="1.1" xmlns="http://www.w3.org/2000/svg" xmlns:xlink="http://www.w3.org/1999/xlink" xml:space="preserve" onload="init(evt)">

<style type="text/css"><![CDATA[
.node, .edge {opacity: 0.7;}
.node.selected, .edge.selected {opacity: 1;}
.edge:hover path { stroke: red; }
.edge:hover polygon { stroke: red; fill: red; }
]]></style>

<defs>
  <circle id="rim" cx="0" cy="0" r="7"/>
  <circle id="rim2" cx="0" cy="0" r="3.5"/>
  <g id="zoomPlus">
    <use xlink:href="#rim" fill="#404040"><set attributeName="fill" to="#808080" begin="zoomplus.mouseover" end="zoomplus.mouseout"/></use>
    <path d="M-4,0h8M0,-4v8" fill="none" stroke="white" stroke-width="1.5" pointer-events="none"/>
  </g>
  <g id="zoomMin">
    <use xlink:href="#rim" fill="#404040"><set attributeName="fill" to="#808080" begin="zoomminus.mouseover" end="zoomminus.mouseout"/></use>
    <path d="M-4,0h8" fill="none" stroke="white" stroke-width="1.5" pointer-events="none"/>
  </g>
  <g id="arrowUp" transform="translate(30 24)">
    <use xlink:href="#rim"/>
    <path pointer-events="none" fill="none" stroke="white" stroke-width="1.5" d="M0,-3.0v7 M-2.5,-0.5L0,-3.0L2.5,-0.5"/>
  </g>
  <g id="arrowRight" transform="rotate(90) translate(36 -43)">
    <use xlink:href="#rim"/>
    <path pointer-events="none" fill="none" stroke="white" stroke-width="1.5" d="M0,-3.0v7 M-2.5,-0.5L0,-3.0L2.5,-0.5"/>
  </g>
  <g id="arrowDown" transform="rotate(180) translate(-30 -48)">
    <use xlink:href="#rim"/>
    <path pointer-events="none" fill="none" stroke="white" stroke-width="1.5" d="M0,-3.0v7 M-2.5,-0.5L0,-3.0L2.5,-0.5"/>
  </g>
  <g id="arrowLeft" transform="rotate(270) translate(-36 17)">
    <use xlink:href="#rim"/>
    <path pointer-events="none" fill="none" stroke="white" stroke-width="1.5" d="M0,-3.0v7 M-2.5,-0.5L0,-3.0L2.5,-0.5"/>
  </g>
  <g id="resetDef">
    <use xlink:href="#rim2" fill="#404040"><set attributeName="fill" to="#808080" begin="reset.mouseover" end="reset.mouseout"/></use>
  </g>
</defs>
<script type="application/ecmascript">
var viewWidth = 1414;
var viewHeight = 320;
var sectionId = 'dynsection-0';
</script>
<script type="application/ecmascript" xlink:href="svg.min.js"/>
<svg id="graph" class="graph">
<g id="viewport">
<title>lib/comms/commands/clock_commands.cpp</title>
<!-- Node1 -->
<g id="Node000001" class="node">
<title>Node1</title>
<g id="a_Node000001"><a xlink:title=" ">
<polygon fill="#999999" stroke="#666666" points="1313.5,-312 1199.25,-312 1199.25,-280 1313.5,-280 1313.5,-312"/>
<text text-anchor="start" x="1207.25" y="-298.5" font-family="Helvetica,sans-Serif" font-size="10.00">lib/comms/commands</text>
<text text-anchor="middle" x="1256.38" y="-286.5" font-family="Helvetica,sans-Serif" font-size="10.00">/clock_commands.cpp</text>
</a>
</g>
</g>
<!-- Node2 -->
<g id="Node000002" class="node">
<title>Node2</title>
<g id="a_Node000002"><a xlink:href="communication_8h.html" target="_top" xlink:title=" ">
<polygon fill="white" stroke="#666666" points="700.5,-244 610.25,-244 610.25,-224 700.5,-224 700.5,-244"/>
<text text-anchor="middle" x="655.38" y="-230.5" font-family="Helvetica,sans-Serif" font-size="10.00">communication.h</text>
</a>
</g>
</g>
<!-- Node1&#45;&gt;Node2 -->
<g id="edge1_Node000001_Node000002" class="edge">
<title>Node1&#45;&gt;Node2</title>
<g id="a_edge1_Node000001_Node000002"><a xlink:title=" ">
<path fill="none" stroke="#63b8ff" d="M1199.02,-289.27C1084,-277.79 826.39,-252.07 711.98,-240.65"/>
<polygon fill="#63b8ff" stroke="#63b8ff" points="712.52,-237.19 702.22,-239.68 711.82,-244.15 712.52,-237.19"/>
</a>
</g>
</g>
<!-- Node24 -->
<g id="Node000024" class="node">
<title>Node24</title>
<g id="a_Node000024"><a xlink:title=" ">
<polygon fill="#e0e0e0" stroke="#999999" points="1294.88,-76 1251.88,-76 1251.88,-56 1294.88,-56 1294.88,-76"/>
<text text-anchor="middle" x="1273.38" y="-62.5" font-family="Helvetica,sans-Serif" font-size="10.00">time.h</text>
</a>
</g>
</g>
<!-- Node1&#45;&gt;Node24 -->
<g id="edge50_Node000001_Node000024" class="edge">
<title>Node1&#45;&gt;Node24</title>
<g id="a_edge50_Node000001_Node000024"><a xlink:title=" ">
<path fill="none" stroke="#63b8ff" d="M1261.32,-279.94C1270.38,-251.45 1289.25,-187.53 1295.38,-132 1296.35,-123.16 1297.38,-120.66 1295.38,-112 1293.3,-103.02 1289.17,-93.76 1285.04,-85.99"/>
<polygon fill="#63b8ff" stroke="#63b8ff" points="1288.18,-84.43 1280.18,-77.5 1282.11,-87.91 1288.18,-84.43"/>
</a>
</g>
</g>
<!-- Node34 -->
<g id="Node000034" class="node">
<title>Node34</title>
<g id="a_Node000034"><a xlink:href="_d_s3231_8h.html" target="_top" xlink:title=" ">
<polygon fill="white" stroke="#666666" points="1286.12,-132 1226.62,-132 1226.62,-112 1286.12,-112 1286.12,-132"/>
<text text-anchor="middle" x="1256.38" y="-118.5" font-family="Helvetica,sans-Serif" font-size="10.00">DS3231.h</text>
</a>
</g>
</g>
<!-- Node1&#45;&gt;Node34 -->
<g id="edge51_Node000001_Node000034" class="edge">
<title>Node1&#45;&gt;Node34</title>
<g id="a_edge51_Node000001_Node000034"><a xlink:title=" ">
<path fill="none" stroke="#63b8ff" d="M1256.38,-279.74C1256.38,-248.69 1256.38,-178.18 1256.38,-143.31"/>
<polygon fill="#63b8ff" stroke="#63b8ff" points="1259.88,-143.72 1256.38,-133.72 1252.88,-143.72 1259.88,-143.72"/>
</a>
</g>
</g>
<!-- Node3 -->
<g id="Node000003" class="node">
<title>Node3</title>
<g id="a_Node000003"><a xlink:title=" ">
<polygon fill="#e0e0e0" stroke="#999999" points="778.38,-20 738.38,-20 738.38,0 778.38,0 778.38,-20"/>
<text text-anchor="middle" x="758.38" y="-6.5" font-family="Helvetica,sans-Serif" font-size="10.00">string</text>
</a>
</g>
</g>
<!-- Node2&#45;&gt;Node3 -->
<g id="edge2_Node000002_Node000003" class="edge">
<title>Node2&#45;&gt;Node3</title>
<g id="a_edge2_Node000002_Node000003"><a xlink:title=" ">
<path fill="none" stroke="#63b8ff" d="M609.8,-233.13C452.21,-232.18 -51.84,-216.81 98.38,-56 120.07,-32.78 597.71,-16.07 726.58,-11.97"/>
<polygon fill="#63b8ff" stroke="#63b8ff" points="726.54,-15.48 736.43,-11.66 726.32,-8.48 726.54,-15.48"/>
</a>
</g>
</g>
<!-- Node4 -->
<g id="Node000004" class="node">
<title>Node4</title>
<g id="a_Node000004"><a xlink:title=" ">
<polygon fill="#e0e0e0" stroke="#999999" points="157.88,-132 114.88,-132 114.88,-112 157.88,-112 157.88,-132"/>
<text text-anchor="middle" x="136.38" y="-118.5" font-family="Helvetica,sans-Serif" font-size="10.00">vector</text>
</a>
</g>
</g>
<!-- Node2&#45;&gt;Node4 -->
<g id="edge3_Node000002_Node000004" class="edge">
<title>Node2&#45;&gt;Node4</title>
<g id="a_edge3_Node000002_Node000004"><a xlink:title=" ">
<path fill="none" stroke="#63b8ff" d="M610.03,-224.85C525.35,-209.35 337.32,-173.7 169.37,-132.34"/>
<polygon fill="#63b8ff" stroke="#63b8ff" points="170.35,-128.98 159.8,-129.97 168.67,-135.77 170.35,-128.98"/>
</a>
</g>
</g>
<!-- Node5 -->
<g id="Node000005" class="node">
<title>Node5</title>
<g id="a_Node000005"><a xlink:href="protocol_8h.html" target="_top" xlink:title=" ">
<polygon fill="white" stroke="#666666" points="684.75,-188 626,-188 626,-168 684.75,-168 684.75,-188"/>
<text text-anchor="middle" x="655.38" y="-174.5" font-family="Helvetica,sans-Serif" font-size="10.00">protocol.h</text>
</a>
</g>
</g>
<!-- Node2&#45;&gt;Node5 -->
<g id="edge4_Node000002_Node000005" class="edge">
<title>Node2&#45;&gt;Node5</title>
<g id="a_edge4_Node000002_Node000005"><a xlink:title=" ">
<path fill="none" stroke="#63b8ff" d="M655.38,-223.59C655.38,-217.01 655.38,-207.96 655.38,-199.73"/>
<polygon fill="#63b8ff" stroke="#63b8ff" points="658.88,-199.81 655.38,-189.81 651.88,-199.81 658.88,-199.81"/>
</a>
</g>
</g>
<!-- Node33 -->
<g id="Node000033" class="node">
<title>Node33</title>
<g id="a_Node000033"><a xlink:href="event__manager_8h.html" target="_top" xlink:title=" ">
<polygon fill="white" stroke="#666666" points="1124.88,-188 1033.88,-188 1033.88,-168 1124.88,-168 1124.88,-188"/>
<text text-anchor="middle" x="1079.38" y="-174.5" font-family="Helvetica,sans-Serif" font-size="10.00">event_manager.h</text>
</a>
</g>
</g>
<!-- Node2&#45;&gt;Node33 -->
<g id="edge45_Node000002_Node000033" class="edge">
<title>Node2&#45;&gt;Node33</title>
<g id="a_edge45_Node000002_Node000033"><a xlink:title=" ">
<path fill="none" stroke="#63b8ff" d="M700.75,-227.22C778.57,-217.31 937.3,-197.09 1022.43,-186.25"/>
<polygon fill="#63b8ff" stroke="#63b8ff" points="1022.71,-189.75 1032.18,-185.01 1021.82,-182.8 1022.71,-189.75"/>
</a>
</g>
</g>
<!-- Node5&#45;&gt;Node3 -->
<g id="edge5_Node000005_Node000003" class="edge">
<title>Node5&#45;&gt;Node3</title>
<g id="a_edge5_Node000005_Node000003"><a xlink:title=" ">
<path fill="none" stroke="#63b8ff" d="M685.06,-177.59C719.85,-176.49 776.19,-168.68 803.38,-132 819.71,-109.95 789.43,-100.65 777.38,-76 770.41,-61.75 765.51,-44.47 762.43,-31.31"/>
<polygon fill="#63b8ff" stroke="#63b8ff" points="765.88,-30.71 760.35,-21.67 759.04,-32.18 765.88,-30.71"/>
</a>
</g>
</g>
<!-- Node5&#45;&gt;Node4 -->
<g id="edge8_Node000005_Node000004" class="edge">
<title>Node5&#45;&gt;Node4</title>
<g id="a_edge8_Node000005_Node000004"><a xlink:title=" ">
<path fill="none" stroke="#63b8ff" d="M625.67,-176.23C550.67,-173.87 347.52,-164.89 169.42,-132.01"/>
<polygon fill="#63b8ff" stroke="#63b8ff" points="170.23,-128.6 159.75,-130.19 168.93,-135.48 170.23,-128.6"/>
</a>
</g>
</g>
<!-- Node6 -->
<g id="Node000006" class="node">
<title>Node6</title>
<g id="a_Node000006"><a xlink:title=" ">
<polygon fill="#e0e0e0" stroke="#999999" points="907.75,-76 873,-76 873,-56 907.75,-56 907.75,-76"/>
<text text-anchor="middle" x="890.38" y="-62.5" font-family="Helvetica,sans-Serif" font-size="10.00">map</text>
</a>
</g>
</g>
<!-- Node5&#45;&gt;Node6 -->
<g id="edge6_Node000005_Node000006" class="edge">
<title>Node5&#45;&gt;Node6</title>
<g id="a_edge6_Node000005_Node000006"><a xlink:title=" ">
<path fill="none" stroke="#63b8ff" d="M685.09,-173.6C734.72,-167.4 831.69,-152.96 858.38,-132 872.6,-120.83 880.94,-101.71 885.52,-87.09"/>
<polygon fill="#63b8ff" stroke="#63b8ff" points="888.85,-88.17 888.12,-77.6 882.1,-86.31 888.85,-88.17"/>
</a>
</g>
</g>
<!-- Node7 -->
<g id="Node000007" class="node">
<title>Node7</title>
<g id="a_Node000007"><a xlink:title=" ">
<polygon fill="#e0e0e0" stroke="#999999" points="424.38,-132 366.38,-132 366.38,-112 424.38,-112 424.38,-132"/>
<text text-anchor="middle" x="395.38" y="-118.5" font-family="Helvetica,sans-Serif" font-size="10.00">functional</text>
</a>
</g>
</g>
<!-- Node5&#45;&gt;Node7 -->
<g id="edge7_Node000005_Node000007" class="edge">
<title>Node5&#45;&gt;Node7</title>
<g id="a_edge7_Node000005_Node000007"><a xlink:title=" ">
<path fill="none" stroke="#63b8ff" d="M625.51,-171.27C584.82,-163.39 509.43,-148.54 435.68,-132.45"/>
<polygon fill="#63b8ff" stroke="#63b8ff" points="436.81,-129.12 426.29,-130.4 435.31,-135.96 436.81,-129.12"/>
</a>
</g>
</g>
<!-- Node8 -->
<g id="Node000008" class="node">
<title>Node8</title>
<g id="a_Node000008"><a xlink:title=" ">
<polygon fill="#e0e0e0" stroke="#999999" points="1102,-132 1056.75,-132 1056.75,-112 1102,-112 1102,-132"/>
<text text-anchor="middle" x="1079.38" y="-118.5" font-family="Helvetica,sans-Serif" font-size="10.00">cstdint</text>
</a>
</g>
</g>
<!-- Node5&#45;&gt;Node8 -->
<g id="edge9_Node000005_Node000008" class="edge">
<title>Node5&#45;&gt;Node8</title>
<g id="a_edge9_Node000005_Node000008"><a xlink:title=" ">
<path fill="none" stroke="#63b8ff" d="M685.17,-174.79C750.33,-169.69 910.21,-155.67 1042.38,-132 1043.37,-131.82 1044.38,-131.63 1045.4,-131.43"/>
<polygon fill="#63b8ff" stroke="#63b8ff" points="1045.86,-134.91 1054.9,-129.38 1044.38,-128.07 1045.86,-134.91"/>
</a>
</g>
</g>
<!-- Node9 -->
<g id="Node000009" class="node">
<title>Node9</title>
<g id="a_Node000009"><a xlink:title=" ">
<polygon fill="#e0e0e0" stroke="#999999" points="492.25,-132 442.5,-132 442.5,-112 492.25,-112 492.25,-132"/>
<text text-anchor="middle" x="467.38" y="-118.5" font-family="Helvetica,sans-Serif" font-size="10.00">iomanip</text>
</a>
</g>
</g>
<!-- Node5&#45;&gt;Node9 -->
<g id="edge10_Node000005_Node000009" class="edge">
<title>Node5&#45;&gt;Node9</title>
<g id="a_edge10_Node000005_Node000009"><a xlink:title=" ">
<path fill="none" stroke="#63b8ff" d="M625.59,-168.44C592.42,-158.92 538.82,-143.52 503.35,-133.33"/>
<polygon fill="#63b8ff" stroke="#63b8ff" points="504.54,-130.03 493.97,-130.64 502.61,-136.76 504.54,-130.03"/>
</a>
</g>
</g>
<!-- Node10 -->
<g id="Node000010" class="node">
<title>Node10</title>
<g id="a_Node000010"><a xlink:href="pin__config_8h.html" target="_top" xlink:title=" ">
<polygon fill="white" stroke="#666666" points="730.62,-76 662.12,-76 662.12,-56 730.62,-56 730.62,-76"/>
<text text-anchor="middle" x="696.38" y="-62.5" font-family="Helvetica,sans-Serif" font-size="10.00">pin_config.h</text>
</a>
</g>
</g>
<!-- Node5&#45;&gt;Node10 -->
<g id="edge11_Node000005_Node000010" class="edge">
<title>Node5&#45;&gt;Node10</title>
<g id="a_edge11_Node000005_Node000010"><a xlink:title=" ">
<path fill="none" stroke="#63b8ff" d="M685.03,-176.28C716.3,-173.73 764.2,-164.39 787.38,-132 803.85,-108.98 772.04,-91.1 741.6,-79.97"/>
<polygon fill="#63b8ff" stroke="#63b8ff" points="743,-76.74 732.4,-76.8 740.72,-83.36 743,-76.74"/>
</a>
</g>
</g>
<!-- Node12 -->
<g id="Node000012" class="node">
<title>Node12</title>
<g id="a_Node000012"><a xlink:href="_power_manager_8h.html" target="_top" xlink:title=" ">
<polygon fill="white" stroke="#666666" points="1000.12,-132 910.62,-132 910.62,-112 1000.12,-112 1000.12,-132"/>
<text text-anchor="middle" x="955.38" y="-118.5" font-family="Helvetica,sans-Serif" font-size="10.00">PowerManager.h</text>
</a>
</g>
</g>
<!-- Node5&#45;&gt;Node12 -->
<g id="edge13_Node000005_Node000012" class="edge">
<title>Node5&#45;&gt;Node12</title>
<g id="a_edge13_Node000005_Node000012"><a xlink:title=" ">
<path fill="none" stroke="#63b8ff" d="M685.24,-171.62C735.08,-162.65 836,-144.49 899.39,-133.08"/>
<polygon fill="#63b8ff" stroke="#63b8ff" points="899.67,-136.58 908.89,-131.37 898.43,-129.69 899.67,-136.58"/>
</a>
</g>
</g>
<!-- Node18 -->
<g id="Node000018" class="node">
<title>Node18</title>
<g id="a_Node000018"><a xlink:title=" ">
<polygon fill="#e0e0e0" stroke="#999999" points="552.5,-132 510.25,-132 510.25,-112 552.5,-112 552.5,-132"/>
<text text-anchor="middle" x="531.38" y="-118.5" font-family="Helvetica,sans-Serif" font-size="10.00">cstdio</text>
</a>
</g>
</g>
<!-- Node5&#45;&gt;Node18 -->
<g id="edge23_Node000005_Node000018" class="edge">
<title>Node5&#45;&gt;Node18</title>
<g id="a_edge23_Node000005_Node000018"><a xlink:title=" ">
<path fill="none" stroke="#63b8ff" d="M633.78,-167.59C614.22,-159.08 585.16,-146.42 562.99,-136.77"/>
<polygon fill="#63b8ff" stroke="#63b8ff" points="564.68,-133.69 554.11,-132.9 561.89,-140.1 564.68,-133.69"/>
</a>
</g>
</g>
<!-- Node19 -->
<g id="Node000019" class="node">
<title>Node19</title>
<g id="a_Node000019"><a xlink:title=" ">
<polygon fill="#e0e0e0" stroke="#999999" points="614.62,-132 570.12,-132 570.12,-112 614.62,-112 614.62,-132"/>
<text text-anchor="middle" x="592.38" y="-118.5" font-family="Helvetica,sans-Serif" font-size="10.00">cstdlib</text>
</a>
</g>
</g>
<!-- Node5&#45;&gt;Node19 -->
<g id="edge24_Node000005_Node000019" class="edge">
<title>Node5&#45;&gt;Node19</title>
<g id="a_edge24_Node000005_Node000019"><a xlink:title=" ">
<path fill="none" stroke="#63b8ff" d="M644.4,-167.59C635.46,-159.93 622.6,-148.91 611.91,-139.75"/>
<polygon fill="#63b8ff" stroke="#63b8ff" points="614.24,-137.13 604.37,-133.28 609.69,-142.45 614.24,-137.13"/>
</a>
</g>
</g>
<!-- Node20 -->
<g id="Node000020" class="node">
<title>Node20</title>
<g id="a_Node000020"><a xlink:title=" ">
<polygon fill="#e0e0e0" stroke="#999999" points="678,-132 632.75,-132 632.75,-112 678,-112 678,-132"/>
<text text-anchor="middle" x="655.38" y="-118.5" font-family="Helvetica,sans-Serif" font-size="10.00">cstring</text>
</a>
</g>
</g>
<!-- Node5&#45;&gt;Node20 -->
<g id="edge25_Node000005_Node000020" class="edge">
<title>Node5&#45;&gt;Node20</title>
<g id="a_edge25_Node000005_Node000020"><a xlink:title=" ">
<path fill="none" stroke="#63b8ff" d="M655.38,-167.59C655.38,-161.01 655.38,-151.96 655.38,-143.73"/>
<polygon fill="#63b8ff" stroke="#63b8ff" points="658.88,-143.81 655.38,-133.81 651.88,-143.81 658.88,-143.81"/>
</a>
</g>
</g>
<!-- Node21 -->
<g id="Node000021" class="node">
<title>Node21</title>
<g id="a_Node000021"><a xlink:href="utils_8h.html" target="_top" xlink:title=" ">
<polygon fill="white" stroke="#666666" points="348.5,-132 306.25,-132 306.25,-112 348.5,-112 348.5,-132"/>
<text text-anchor="middle" x="327.38" y="-118.5" font-family="Helvetica,sans-Serif" font-size="10.00">utils.h</text>
</a>
</g>
</g>
<!-- Node5&#45;&gt;Node21 -->
<g id="edge26_Node000005_Node000021" class="edge">
<title>Node5&#45;&gt;Node21</title>
<g id="a_edge26_Node000005_Node000021"><a xlink:title=" ">
<path fill="none" stroke="#63b8ff" d="M625.51,-173.91C573.44,-168.22 462.54,-154.75 360.07,-132.34"/>
<polygon fill="#63b8ff" stroke="#63b8ff" points="360.91,-128.94 350.39,-130.19 359.39,-135.78 360.91,-128.94"/>
</a>
</g>
</g>
<!-- Node5&#45;&gt;Node24 -->
<g id="edge32_Node000005_Node000024" class="edge">
<title>Node5&#45;&gt;Node24</title>
<g id="a_edge32_Node000005_Node000024"><a xlink:title=" ">
<path fill="none" stroke="#63b8ff" d="M685.04,-176.77C746.84,-175.53 893.27,-168.61 1009.38,-132 1027.58,-126.26 1029.34,-118.25 1047.38,-112 1127.32,-84.3 1154.45,-95.32 1240.37,-76.22"/>
<polygon fill="#63b8ff" stroke="#63b8ff" points="1241,-79.66 1249.96,-74.01 1239.43,-72.84 1241,-79.66"/>
</a>
</g>
</g>
<!-- Node25 -->
<g id="Node000025" class="node">
<title>Node25</title>
<g id="a_Node000025"><a xlink:href="build__number_8h.html" target="_top" xlink:title=" ">
<polygon fill="white" stroke="#666666" points="778.38,-132 696.38,-132 696.38,-112 778.38,-112 778.38,-132"/>
<text text-anchor="middle" x="737.38" y="-118.5" font-family="Helvetica,sans-Serif" font-size="10.00">build_number.h</text>
</a>
</g>
</g>
<!-- Node5&#45;&gt;Node25 -->
<g id="edge33_Node000005_Node000025" class="edge">
<title>Node5&#45;&gt;Node25</title>
<g id="a_edge33_Node000005_Node000025"><a xlink:title=" ">
<path fill="none" stroke="#63b8ff" d="M669.66,-167.59C681.81,-159.59 699.51,-147.93 713.77,-138.54"/>
<polygon fill="#63b8ff" stroke="#63b8ff" points="715.29,-141.73 721.72,-133.31 711.44,-135.89 715.29,-141.73"/>
</a>
</g>
</g>
<!-- Node26 -->
<g id="Node000026" class="node">
<title>Node26</title>
<g id="a_Node000026"><a xlink:href="_lo_ra-_r_p2040_8h.html" target="_top" xlink:title=" ">
<polygon fill="white" stroke="#666666" points="288.38,-132 176.38,-132 176.38,-112 288.38,-112 288.38,-132"/>
<text text-anchor="middle" x="232.38" y="-118.5" font-family="Helvetica,sans-Serif" font-size="10.00">LoRa/LoRa&#45;RP2040.h</text>
</a>
</g>
</g>
<!-- Node5&#45;&gt;Node26 -->
<g id="edge34_Node000005_Node000026" class="edge">
<title>Node5&#45;&gt;Node26</title>
<g id="a_edge34_Node000005_Node000026"><a xlink:title=" ">
<path fill="none" stroke="#63b8ff" d="M625.66,-173.39C566.02,-166.13 427.25,-149.08 299.85,-132.31"/>
<polygon fill="#63b8ff" stroke="#63b8ff" points="300.61,-128.88 290.24,-131.05 299.7,-135.82 300.61,-128.88"/>
</a>
</g>
</g>
<!-- Node11 -->
<g id="Node000011" class="node">
<title>Node11</title>
<g id="a_Node000011"><a xlink:title=" ">
<polygon fill="#e0e0e0" stroke="#999999" points="926.5,-20 878.25,-20 878.25,0 926.5,0 926.5,-20"/>
<text text-anchor="middle" x="902.38" y="-6.5" font-family="Helvetica,sans-Serif" font-size="10.00">stdint.h</text>
</a>
</g>
</g>
<!-- Node10&#45;&gt;Node11 -->
<g id="edge12_Node000010_Node000011" class="edge">
<title>Node10&#45;&gt;Node11</title>
<g id="a_edge12_Node000010_Node000011"><a xlink:title=" ">
<path fill="none" stroke="#63b8ff" d="M730.85,-55.96C768.53,-46.08 828.6,-30.34 866.73,-20.34"/>
<polygon fill="#63b8ff" stroke="#63b8ff" points="867.57,-23.74 876.35,-17.82 865.79,-16.97 867.57,-23.74"/>
</a>
</g>
</g>
<!-- Node12&#45;&gt;Node3 -->
<g id="edge19_Node000012_Node000003" class="edge">
<title>Node12&#45;&gt;Node3</title>
<g id="a_edge19_Node000012_Node000003"><a xlink:title=" ">
<path fill="none" stroke="#63b8ff" d="M952.42,-111.96C947.33,-97.86 935.59,-70.73 916.38,-56 879.01,-27.37 824.16,-16.95 789.89,-13.16"/>
<polygon fill="#63b8ff" stroke="#63b8ff" points="790.49,-9.7 780.2,-12.22 789.81,-16.67 790.49,-9.7"/>
</a>
</g>
</g>
<!-- Node12&#45;&gt;Node6 -->
<g id="edge18_Node000012_Node000006" class="edge">
<title>Node12&#45;&gt;Node6</title>
<g id="a_edge18_Node000012_Node000006"><a xlink:title=" ">
<path fill="none" stroke="#63b8ff" d="M944.05,-111.59C934.73,-103.85 921.3,-92.69 910.2,-83.47"/>
<polygon fill="#63b8ff" stroke="#63b8ff" points="912.66,-80.96 902.73,-77.27 908.19,-86.35 912.66,-80.96"/>
</a>
</g>
</g>
<!-- Node13 -->
<g id="Node000013" class="node">
<title>Node13</title>
<g id="a_Node000013"><a xlink:href="_i_n_a3221_8h.html" target="_top" xlink:title=" ">
<polygon fill="white" stroke="#666666" points="1105.25,-76 1001.5,-76 1001.5,-56 1105.25,-56 1105.25,-76"/>
<text text-anchor="middle" x="1053.38" y="-62.5" font-family="Helvetica,sans-Serif" font-size="10.00">INA3221/INA3221.h</text>
</a>
</g>
</g>
<!-- Node12&#45;&gt;Node13 -->
<g id="edge14_Node000012_Node000013" class="edge">
<title>Node12&#45;&gt;Node13</title>
<g id="a_edge14_Node000012_Node000013"><a xlink:title=" ">
<path fill="none" stroke="#63b8ff" d="M972.45,-111.59C987.25,-103.44 1008.94,-91.48 1026.14,-82"/>
<polygon fill="#63b8ff" stroke="#63b8ff" points="1027.78,-85.1 1034.85,-77.21 1024.4,-78.97 1027.78,-85.1"/>
</a>
</g>
</g>
<!-- Node15 -->
<g id="Node000015" class="node">
<title>Node15</title>
<g id="a_Node000015"><a xlink:title=" ">
<polygon fill="#e0e0e0" stroke="#999999" points="1175.25,-20 1095.5,-20 1095.5,0 1175.25,0 1175.25,-20"/>
<text text-anchor="middle" x="1135.38" y="-6.5" font-family="Helvetica,sans-Serif" font-size="10.00">hardware/i2c.h</text>
</a>
</g>
</g>
<!-- Node12&#45;&gt;Node15 -->
<g id="edge20_Node000012_Node000015" class="edge">
<title>Node12&#45;&gt;Node15</title>
<g id="a_edge20_Node000012_Node000015"><a xlink:title=" ">
<path fill="none" stroke="#63b8ff" d="M1000.26,-113.18C1041.32,-105.18 1098.06,-91.73 1114.38,-76 1126.39,-64.41 1131.54,-45.92 1133.75,-31.61"/>
<polygon fill="#63b8ff" stroke="#63b8ff" points="1137.2,-32.23 1134.85,-21.9 1130.24,-31.44 1137.2,-32.23"/>
</a>
</g>
</g>
<!-- Node16 -->
<g id="Node000016" class="node">
<title>Node16</title>
<g id="a_Node000016"><a xlink:title=" ">
<polygon fill="#e0e0e0" stroke="#999999" points="854.62,-76 786.12,-76 786.12,-56 854.62,-56 854.62,-76"/>
<text text-anchor="middle" x="820.38" y="-62.5" font-family="Helvetica,sans-Serif" font-size="10.00">pico/stdlib.h</text>
</a>
</g>
</g>
<!-- Node12&#45;&gt;Node16 -->
<g id="edge21_Node000012_Node000016" class="edge">
<title>Node12&#45;&gt;Node16</title>
<g id="a_edge21_Node000012_Node000016"><a xlink:title=" ">
<path fill="none" stroke="#63b8ff" d="M931.86,-111.59C910.5,-103.05 878.74,-90.35 854.58,-80.68"/>
<polygon fill="#63b8ff" stroke="#63b8ff" points="856.06,-77.51 845.48,-77.04 853.46,-84.01 856.06,-77.51"/>
</a>
</g>
</g>
<!-- Node17 -->
<g id="Node000017" class="node">
<title>Node17</title>
<g id="a_Node000017"><a xlink:title=" ">
<polygon fill="#e0e0e0" stroke="#999999" points="1233.5,-76 1161.25,-76 1161.25,-56 1233.5,-56 1233.5,-76"/>
<text text-anchor="middle" x="1197.38" y="-62.5" font-family="Helvetica,sans-Serif" font-size="10.00">pico/mutex.h</text>
</a>
</g>
</g>
<!-- Node12&#45;&gt;Node17 -->
<g id="edge22_Node000012_Node000017" class="edge">
<title>Node12&#45;&gt;Node17</title>
<g id="a_edge22_Node000012_Node000017"><a xlink:title=" ">
<path fill="none" stroke="#63b8ff" d="M997.81,-111.53C1040.33,-102.04 1105.66,-87.47 1149.89,-77.6"/>
<polygon fill="#63b8ff" stroke="#63b8ff" points="1150.45,-81.06 1159.45,-75.46 1148.93,-74.22 1150.45,-81.06"/>
</a>
</g>
</g>
<!-- Node13&#45;&gt;Node11 -->
<g id="edge15_Node000013_Node000011" class="edge">
<title>Node13&#45;&gt;Node11</title>
<g id="a_edge15_Node000013_Node000011"><a xlink:title=" ">
<path fill="none" stroke="#63b8ff" d="M1027.07,-55.59C1002.27,-46.72 964.92,-33.37 937.56,-23.58"/>
<polygon fill="#63b8ff" stroke="#63b8ff" points="938.9,-20.34 928.3,-20.27 936.54,-26.93 938.9,-20.34"/>
</a>
</g>
</g>
<!-- Node14 -->
<g id="Node000014" class="node">
<title>Node14</title>
<g id="a_Node000014"><a xlink:title=" ">
<polygon fill="#e0e0e0" stroke="#999999" points="1077.12,-20 1023.62,-20 1023.62,0 1077.12,0 1077.12,-20"/>
<text text-anchor="middle" x="1050.38" y="-6.5" font-family="Helvetica,sans-Serif" font-size="10.00">iostream</text>
</a>
</g>
</g>
<!-- Node13&#45;&gt;Node14 -->
<g id="edge16_Node000013_Node000014" class="edge">
<title>Node13&#45;&gt;Node14</title>
<g id="a_edge16_Node000013_Node000014"><a xlink:title=" ">
<path fill="none" stroke="#63b8ff" d="M1052.85,-55.59C1052.49,-49.01 1051.98,-39.96 1051.53,-31.73"/>
<polygon fill="#63b8ff" stroke="#63b8ff" points="1055.02,-31.6 1050.98,-21.81 1048.04,-31.99 1055.02,-31.6"/>
</a>
</g>
</g>
<!-- Node13&#45;&gt;Node15 -->
<g id="edge17_Node000013_Node000015" class="edge">
<title>Node13&#45;&gt;Node15</title>
<g id="a_edge17_Node000013_Node000015"><a xlink:title=" ">
<path fill="none" stroke="#63b8ff" d="M1067.66,-55.59C1079.81,-47.59 1097.51,-35.93 1111.77,-26.54"/>
<polygon fill="#63b8ff" stroke="#63b8ff" points="1113.29,-29.73 1119.72,-21.31 1109.44,-23.89 1113.29,-29.73"/>
</a>
</g>
</g>
<!-- Node21&#45;&gt;Node3 -->
<g id="edge28_Node000021_Node000003" class="edge">
<title>Node21&#45;&gt;Node3</title>
<g id="a_edge28_Node000021_Node000003"><a xlink:title=" ">
<path fill="none" stroke="#63b8ff" d="M348.9,-114.11C351.73,-113.33 354.61,-112.6 357.38,-112 470.49,-87.29 505.17,-111.49 615.38,-76 633.54,-70.15 636.15,-64.21 653.38,-56 677.96,-44.28 706.38,-32.19 727.45,-23.49"/>
<polygon fill="#63b8ff" stroke="#63b8ff" points="728.71,-26.76 736.63,-19.73 726.05,-20.28 728.71,-26.76"/>
</a>
</g>
</g>
<!-- Node21&#45;&gt;Node10 -->
<g id="edge31_Node000021_Node000010" class="edge">
<title>Node21&#45;&gt;Node10</title>
<g id="a_edge31_Node000021_Node000010"><a xlink:title=" ">
<path fill="none" stroke="#63b8ff" d="M348.89,-114.07C351.73,-113.3 354.61,-112.58 357.38,-112 484.9,-85.18 519.6,-96.02 648.38,-76 649.19,-75.87 650.02,-75.74 650.85,-75.61"/>
<polygon fill="#63b8ff" stroke="#63b8ff" points="651.05,-79.13 660.32,-74 649.87,-72.22 651.05,-79.13"/>
</a>
</g>
</g>
<!-- Node21&#45;&gt;Node16 -->
<g id="edge29_Node000021_Node000016" class="edge">
<title>Node21&#45;&gt;Node16</title>
<g id="a_edge29_Node000021_Node000016"><a xlink:title=" ">
<path fill="none" stroke="#63b8ff" d="M348.88,-113.99C351.71,-113.23 354.6,-112.54 357.38,-112 524.75,-79.34 569.74,-93.42 739.38,-76 750.78,-74.83 763.07,-73.5 774.55,-72.23"/>
<polygon fill="#63b8ff" stroke="#63b8ff" points="774.65,-75.74 784.2,-71.15 773.87,-68.78 774.65,-75.74"/>
</a>
</g>
</g>
<!-- Node22 -->
<g id="Node000022" class="node">
<title>Node22</title>
<g id="a_Node000022"><a xlink:title=" ">
<polygon fill="#e0e0e0" stroke="#999999" points="320,-20 274.75,-20 274.75,0 320,0 320,-20"/>
<text text-anchor="middle" x="297.38" y="-6.5" font-family="Helvetica,sans-Serif" font-size="10.00">stdio.h</text>
</a>
</g>
</g>
<!-- Node21&#45;&gt;Node22 -->
<g id="edge27_Node000021_Node000022" class="edge">
<title>Node21&#45;&gt;Node22</title>
<g id="a_edge27_Node000021_Node000022"><a xlink:title=" ">
<path fill="none" stroke="#63b8ff" d="M348.81,-114.57C389.71,-102.29 474.89,-76.66 475.38,-76 480.67,-68.86 480.84,-63.01 475.38,-56 457.9,-33.56 378.28,-20.54 331.66,-14.71"/>
<polygon fill="#63b8ff" stroke="#63b8ff" points="332.14,-11.24 321.8,-13.53 331.31,-18.19 332.14,-11.24"/>
</a>
</g>
</g>
<!-- Node23 -->
<g id="Node000023" class="node">
<title>Node23</title>
<g id="a_Node000023"><a xlink:title=" ">
<polygon fill="#e0e0e0" stroke="#999999" points="606.12,-76 522.62,-76 522.62,-56 606.12,-56 606.12,-76"/>
<text text-anchor="middle" x="564.38" y="-62.5" font-family="Helvetica,sans-Serif" font-size="10.00">hardware/uart.h</text>
</a>
</g>
</g>
<!-- Node21&#45;&gt;Node23 -->
<g id="edge30_Node000021_Node000023" class="edge">
<title>Node21&#45;&gt;Node23</title>
<g id="a_edge30_Node000021_Node000023"><a xlink:title=" ">
<path fill="none" stroke="#63b8ff" d="M348.95,-114.31C351.77,-113.5 354.64,-112.71 357.38,-112 409.24,-98.6 469.09,-85.89 511.05,-77.41"/>
<polygon fill="#63b8ff" stroke="#63b8ff" points="511.53,-80.88 520.64,-75.49 510.15,-74.02 511.53,-80.88"/>
</a>
</g>
</g>
<!-- Node26&#45;&gt;Node10 -->
<g id="edge44_Node000026_Node000010" class="edge">
<title>Node26&#45;&gt;Node10</title>
<g id="a_edge44_Node000026_Node000010"><a xlink:title=" ">
<path fill="none" stroke="#63b8ff" d="M288.73,-113.11C291.66,-112.73 294.55,-112.35 297.38,-112 331.73,-107.69 553.07,-82.96 650.48,-72.11"/>
<polygon fill="#63b8ff" stroke="#63b8ff" points="650.67,-75.61 660.22,-71.02 649.89,-68.65 650.67,-75.61"/>
</a>
</g>
</g>
<!-- Node26&#45;&gt;Node16 -->
<g id="edge35_Node000026_Node000016" class="edge">
<title>Node26&#45;&gt;Node16</title>
<g id="a_edge35_Node000026_Node000016"><a xlink:title=" ">
<path fill="none" stroke="#63b8ff" d="M288.72,-113C291.65,-112.65 294.54,-112.31 297.38,-112 493.29,-90.48 543.19,-94.88 739.38,-76 750.78,-74.9 763.08,-73.6 774.56,-72.33"/>
<polygon fill="#63b8ff" stroke="#63b8ff" points="774.66,-75.84 784.21,-71.25 773.88,-68.88 774.66,-75.84"/>
</a>
</g>
</g>
<!-- Node27 -->
<g id="Node000027" class="node">
<title>Node27</title>
<g id="a_Node000027"><a xlink:title=" ">
<polygon fill="#e0e0e0" stroke="#999999" points="265.62,-76 173.12,-76 173.12,-56 265.62,-56 265.62,-76"/>
<text text-anchor="middle" x="219.38" y="-62.5" font-family="Helvetica,sans-Serif" font-size="10.00">pico/binary_info.h</text>
</a>
</g>
</g>
<!-- Node26&#45;&gt;Node27 -->
<g id="edge36_Node000026_Node000027" class="edge">
<title>Node26&#45;&gt;Node27</title>
<g id="a_edge36_Node000026_Node000027"><a xlink:title=" ">
<path fill="none" stroke="#63b8ff" d="M230.11,-111.59C228.51,-104.93 226.3,-95.75 224.3,-87.44"/>
<polygon fill="#63b8ff" stroke="#63b8ff" points="227.71,-86.67 221.97,-77.77 220.91,-88.31 227.71,-86.67"/>
</a>
</g>
</g>
<!-- Node28 -->
<g id="Node000028" class="node">
<title>Node28</title>
<g id="a_Node000028"><a xlink:title=" ">
<polygon fill="#e0e0e0" stroke="#999999" points="368.88,-76 283.88,-76 283.88,-56 368.88,-56 368.88,-76"/>
<text text-anchor="middle" x="326.38" y="-62.5" font-family="Helvetica,sans-Serif" font-size="10.00">hardware/gpio.h</text>
</a>
</g>
</g>
<!-- Node26&#45;&gt;Node28 -->
<g id="edge37_Node000026_Node000028" class="edge">
<title>Node26&#45;&gt;Node28</title>
<g id="a_edge37_Node000026_Node000028"><a xlink:title=" ">
<path fill="none" stroke="#63b8ff" d="M248.75,-111.59C262.95,-103.44 283.76,-91.48 300.26,-82"/>
<polygon fill="#63b8ff" stroke="#63b8ff" points="301.63,-85.25 308.56,-77.23 298.15,-79.18 301.63,-85.25"/>
</a>
</g>
</g>
<!-- Node29 -->
<g id="Node000029" class="node">
<title>Node29</title>
<g id="a_Node000029"><a xlink:title=" ">
<polygon fill="#e0e0e0" stroke="#999999" points="466.25,-76 386.5,-76 386.5,-56 466.25,-56 466.25,-76"/>
<text text-anchor="middle" x="426.38" y="-62.5" font-family="Helvetica,sans-Serif" font-size="10.00">hardware/spi.h</text>
</a>
</g>
</g>
<!-- Node26&#45;&gt;Node29 -->
<g id="edge38_Node000026_Node000029" class="edge">
<title>Node26&#45;&gt;Node29</title>
<g id="a_edge38_Node000026_Node000029"><a xlink:title=" ">
<path fill="none" stroke="#63b8ff" d="M266.17,-111.59C298.1,-102.71 346.22,-89.31 381.39,-79.52"/>
<polygon fill="#63b8ff" stroke="#63b8ff" points="382.17,-82.94 390.86,-76.89 380.29,-76.2 382.17,-82.94"/>
</a>
</g>
</g>
<!-- Node30 -->
<g id="Node000030" class="node">
<title>Node30</title>
<g id="a_Node000030"><a xlink:title=" ">
<polygon fill="#e0e0e0" stroke="#999999" points="155.5,-76 107.25,-76 107.25,-56 155.5,-56 155.5,-76"/>
<text text-anchor="middle" x="131.38" y="-62.5" font-family="Helvetica,sans-Serif" font-size="10.00">string.h</text>
</a>
</g>
</g>
<!-- Node26&#45;&gt;Node30 -->
<g id="edge39_Node000026_Node000030" class="edge">
<title>Node26&#45;&gt;Node30</title>
<g id="a_edge39_Node000026_Node000030"><a xlink:title=" ">
<path fill="none" stroke="#63b8ff" d="M214.78,-111.59C199.45,-103.4 176.96,-91.37 159.19,-81.87"/>
<polygon fill="#63b8ff" stroke="#63b8ff" points="160.91,-78.82 150.44,-77.19 157.61,-84.99 160.91,-78.82"/>
</a>
</g>
</g>
<!-- Node31 -->
<g id="Node000031" class="node">
<title>Node31</title>
<g id="a_Node000031"><a xlink:href="_print_8h.html" target="_top" xlink:title=" ">
<polygon fill="white" stroke="#666666" points="51.62,-76 7.12,-76 7.12,-56 51.62,-56 51.62,-76"/>
<text text-anchor="middle" x="29.38" y="-62.5" font-family="Helvetica,sans-Serif" font-size="10.00">Print.h</text>
</a>
</g>
</g>
<!-- Node26&#45;&gt;Node31 -->
<g id="edge40_Node000026_Node000031" class="edge">
<title>Node26&#45;&gt;Node31</title>
<g id="a_edge40_Node000026_Node000031"><a xlink:title=" ">
<path fill="none" stroke="#63b8ff" d="M197.02,-111.59C159.23,-101.54 99.8,-85.73 62.78,-75.89"/>
<polygon fill="#63b8ff" stroke="#63b8ff" points="64.09,-72.61 53.53,-73.42 62.29,-79.38 64.09,-72.61"/>
</a>
</g>
</g>
<!-- Node31&#45;&gt;Node3 -->
<g id="edge43_Node000031_Node000003" class="edge">
<title>Node31&#45;&gt;Node3</title>
<g id="a_edge43_Node000031_Node000003"><a xlink:title=" ">
<path fill="none" stroke="#63b8ff" d="M52.1,-58.66C56.48,-57.63 61.05,-56.68 65.38,-56 318.12,-16.53 627.95,-11.57 726.62,-11.03"/>
<polygon fill="#63b8ff" stroke="#63b8ff" points="726.6,-14.53 736.59,-10.99 726.58,-7.53 726.6,-14.53"/>
</a>
</g>
</g>
<!-- Node31&#45;&gt;Node22 -->
<g id="edge42_Node000031_Node000022" class="edge">
<title>Node31&#45;&gt;Node22</title>
<g id="a_edge42_Node000031_Node000022"><a xlink:title=" ">
<path fill="none" stroke="#63b8ff" d="M51.8,-59.2C56.29,-58.09 60.97,-56.98 65.38,-56 135.42,-40.46 218.03,-25.15 263.35,-17.01"/>
<polygon fill="#63b8ff" stroke="#63b8ff" points="263.85,-20.48 273.08,-15.27 262.62,-13.59 263.85,-20.48"/>
</a>
</g>
</g>
<!-- Node32 -->
<g id="Node000032" class="node">
<title>Node32</title>
<g id="a_Node000032"><a xlink:title=" ">
<polygon fill="#e0e0e0" stroke="#999999" points="58.75,-20 0,-20 0,0 58.75,0 58.75,-20"/>
<text text-anchor="middle" x="29.38" y="-6.5" font-family="Helvetica,sans-Serif" font-size="10.00">inttypes.h</text>
</a>
</g>
</g>
<!-- Node31&#45;&gt;Node32 -->
<g id="edge41_Node000031_Node000032" class="edge">
<title>Node31&#45;&gt;Node32</title>
<g id="a_edge41_Node000031_Node000032"><a xlink:title=" ">
<path fill="none" stroke="#63b8ff" d="M29.38,-55.59C29.38,-49.01 29.38,-39.96 29.38,-31.73"/>
<polygon fill="#63b8ff" stroke="#63b8ff" points="32.88,-31.81 29.38,-21.81 25.88,-31.81 32.88,-31.81"/>
</a>
</g>
</g>
<!-- Node33&#45;&gt;Node3 -->
<g id="edge48_Node000033_Node000003" class="edge">
<title>Node33&#45;&gt;Node3</title>
<g id="a_edge48_Node000033_Node000003"><a xlink:title=" ">
<path fill="none" stroke="#63b8ff" d="M1090.19,-167.58C1104.04,-154.38 1124.72,-129.98 1111.38,-112 1078.44,-67.63 1044.7,-93.76 992.38,-76 968.53,-67.91 963.41,-63.49 939.38,-56 887.49,-39.82 825.84,-25.52 789.53,-17.58"/>
<polygon fill="#63b8ff" stroke="#63b8ff" points="790.67,-14.24 780.16,-15.55 789.19,-21.09 790.67,-14.24"/>
</a>
</g>
</g>
<!-- Node33&#45;&gt;Node8 -->
<g id="edge47_Node000033_Node000008" class="edge">
<title>Node33&#45;&gt;Node8</title>
<g id="a_edge47_Node000033_Node000008"><a xlink:title=" ">
<path fill="none" stroke="#63b8ff" d="M1079.38,-167.59C1079.38,-161.01 1079.38,-151.96 1079.38,-143.73"/>
<polygon fill="#63b8ff" stroke="#63b8ff" points="1082.88,-143.81 1079.38,-133.81 1075.88,-143.81 1082.88,-143.81"/>
</a>
</g>
</g>
<!-- Node33&#45;&gt;Node12 -->
<g id="edge46_Node000033_Node000012" class="edge">
<title>Node33&#45;&gt;Node12</title>
<g id="a_edge46_Node000033_Node000012"><a xlink:title=" ">
<path fill="none" stroke="#63b8ff" d="M1057.78,-167.59C1038.42,-159.17 1009.77,-146.69 987.69,-137.07"/>
<polygon fill="#63b8ff" stroke="#63b8ff" points="989.1,-133.87 978.53,-133.08 986.3,-140.29 989.1,-133.87"/>
</a>
</g>
</g>
<!-- Node33&#45;&gt;Node17 -->
<g id="edge49_Node000033_Node000017" class="edge">
<title>Node33&#45;&gt;Node17</title>
<g id="a_edge49_Node000033_Node000017"><a xlink:title=" ">
<path fill="none" stroke="#63b8ff" d="M1095.53,-167.6C1109.28,-159.2 1129.16,-146.07 1144.38,-132 1159.71,-117.82 1174.5,-99.13 1184.54,-85.43"/>
<polygon fill="#63b8ff" stroke="#63b8ff" points="1187.37,-87.48 1190.34,-77.31 1181.68,-83.41 1187.37,-87.48"/>
</a>
</g>
</g>
<!-- Node34&#45;&gt;Node3 -->
<g id="edge52_Node000034_Node000003" class="edge">
<title>Node34&#45;&gt;Node3</title>
<g id="a_edge52_Node000034_Node000003"><a xlink:title=" ">
<path fill="none" stroke="#63b8ff" d="M1271.74,-111.69C1291.48,-98.62 1321.29,-74.37 1304.38,-56 1303.83,-55.4 906.4,-23.04 790.03,-13.57"/>
<polygon fill="#63b8ff" stroke="#63b8ff" points="790.52,-10.1 780.27,-12.78 789.95,-17.08 790.52,-10.1"/>
</a>
</g>
</g>
<!-- Node34&#45;&gt;Node15 -->
<g id="edge55_Node000034_Node000015" class="edge">
<title>Node34&#45;&gt;Node15</title>
<g id="a_edge55_Node000034_Node000015"><a xlink:title=" ">
<path fill="none" stroke="#63b8ff" d="M1286.45,-118.12C1337.28,-112.11 1431.59,-95.38 1398.38,-56 1371.87,-24.58 1255.71,-15.1 1186.94,-12.23"/>
<polygon fill="#63b8ff" stroke="#63b8ff" points="1187.15,-8.74 1177.02,-11.86 1186.88,-15.74 1187.15,-8.74"/>
</a>
</g>
</g>
<!-- Node34&#45;&gt;Node16 -->
<g id="edge54_Node000034_Node000016" class="edge">
<title>Node34&#45;&gt;Node16</title>
<g id="a_edge54_Node000034_Node000016"><a xlink:title=" ">
<path fill="none" stroke="#63b8ff" d="M1226.25,-118.45C1162.05,-112.81 1006.81,-98.17 865.89,-76.1"/>
<polygon fill="#63b8ff" stroke="#63b8ff" points="866.83,-72.71 856.4,-74.6 865.73,-79.62 866.83,-72.71"/>
</a>
</g>
</g>
<!-- Node34&#45;&gt;Node17 -->
<g id="edge57_Node000034_Node000017" class="edge">
<title>Node34&#45;&gt;Node17</title>
<g id="a_edge57_Node000034_Node000017"><a xlink:title=" ">
<path fill="none" stroke="#63b8ff" d="M1246.1,-111.59C1237.81,-104.01 1225.93,-93.13 1215.97,-84.02"/>
<polygon fill="#63b8ff" stroke="#63b8ff" points="1218.39,-81.49 1208.65,-77.32 1213.66,-86.65 1218.39,-81.49"/>
</a>
</g>
</g>
<!-- Node34&#45;&gt;Node24 -->
<g id="edge56_Node000034_Node000024" class="edge">
<title>Node34&#45;&gt;Node24</title>
<g id="a_edge56_Node000034_Node000024"><a xlink:title=" ">
<path fill="none" stroke="#63b8ff" d="M1259.34,-111.59C1261.46,-104.86 1264.39,-95.53 1267.03,-87.15"/>
<polygon fill="#63b8ff" stroke="#63b8ff" points="1270.33,-88.33 1269.99,-77.74 1263.65,-86.23 1270.33,-88.33"/>
</a>
</g>
</g>
<!-- Node35 -->
<g id="Node000035" class="node">
<title>Node35</title>
<g id="a_Node000035"><a xlink:title=" ">
<polygon fill="#e0e0e0" stroke="#999999" points="1389.25,-76 1351.5,-76 1351.5,-56 1389.25,-56 1389.25,-76"/>
<text text-anchor="middle" x="1370.38" y="-62.5" font-family="Helvetica,sans-Serif" font-size="10.00">array</text>
</a>
</g>
</g>
<!-- Node34&#45;&gt;Node35 -->
<g id="edge53_Node000034_Node000035" class="edge">
<title>Node34&#45;&gt;Node35</title>
<g id="a_edge53_Node000034_Node000035"><a xlink:title=" ">
<path fill="none" stroke="#63b8ff" d="M1276.23,-111.59C1294.08,-103.14 1320.52,-90.61 1340.85,-80.99"/>
<polygon fill="#63b8ff" stroke="#63b8ff" points="1342.22,-84.21 1349.76,-76.77 1339.22,-77.88 1342.22,-84.21"/>
</a>
</g>
</g>
</g>
</svg>

<g id="navigator" transform="translate(0 0)" fill="#404254">
  <rect fill="#f2f5e9" fill-opacity="0.5" stroke="#606060" stroke-width=".5" x="0" y="0" width="60" height="60"/>
  <use id="zoomplus" xlink:href="#zoomPlus" x="17" y="9" onmousedown="handleZoom(evt,'in')"/>
  <use id="zoomminus" xlink:href="#zoomMin" x="42" y="9" onmousedown="handleZoom(evt,'out')"/>
  <use id="reset" xlink:href="#resetDef" x="30" y="36" onmousedown="handleReset()"/>
   <use id="arrowup" xlink:href="#arrowUp" x="0" y="0" onmousedown="handlePan(0,-1)"/>
  <use id="arrowright" xlink:href="#arrowRight" x="0" y="0" onmousedown="handlePan(1,0)"/>
  <use id="arrowdown" xlink:href="#arrowDown" x="0" y="0" onmousedown="handlePan(0,1)"/>
  <use id="arrowleft" xlink:href="#arrowLeft" x="0" y="0" onmousedown="handlePan(-1,0)"/>
</g>
<svg viewBox="0 0 15 15" width="100%" height="30px" preserveAspectRatio="xMaxYMin meet">
 <g id="arrow_out" transform="scale(0.3 0.3)">
  <a xlink:href="clock__commands_8cpp__incl_org.svg" target="_base">
   <rect id="button" ry="5" rx="5" y="6" x="6" height="38" width="38"
        fill="#f2f5e9" fill-opacity="0.5" stroke="#606060" stroke-width="1.0"/>
   <path id="arrow"
     d="M 11.500037,31.436501 C 11.940474,20.09759 22.043105,11.32322 32.158766,21.979434 L 37.068811,17.246167 C 37.068811,17.246167 37.088388,32 37.088388,32 L 22.160133,31.978069 C 22.160133,31.978069 26.997745,27.140456 26.997745,27.140456 C 18.528582,18.264221 13.291696,25.230495 11.500037,31.436501 z"
     style="fill:#404040;"/>
  </a>
 </g>
</svg>

<style type='text/css'>
<![CDATA[
[data-mouse-over-selected='false'] { opacity: 0.7; }
[data-mouse-over-selected='true']  { opacity: 1.0; }
]]>
</style>
<script type="application/ecmascript"><![CDATA[
document.addEventListener('DOMContentLoaded', (event) => {
  highlightEdges();
  highlightAdjacentNodes();
});
]]></script>
</svg>
