<?xml version="1.0" encoding="UTF-8" standalone="no"?>
<!DOCTYPE svg PUBLIC "-//W3C//DTD SVG 1.1//EN"
 "http://www.w3.org/Graphics/SVG/1.1/DTD/svg11.dtd">
<!-- Generated by graphviz version 12.2.1 (20241206.2353)
 -->
<!-- Title: lib/comms/commands/clock_commands.cpp Pages: 1 -->
<svg width="1361pt" height="320pt"
 viewBox="0.00 0.00 1360.53 320.00" xmlns="http://www.w3.org/2000/svg" xmlns:xlink="http://www.w3.org/1999/xlink">
<g id="graph0" class="graph" transform="scale(1 1) rotate(0) translate(4 316)">
<title>lib/comms/commands/clock_commands.cpp</title>
<!-- Node1 -->
<g id="Node000001" class="node">
<title>Node1</title>
<g id="a_Node000001"><a xlink:title=" ">
<polygon fill="#999999" stroke="#666666" points="1272.75,-312 1158.5,-312 1158.5,-280 1272.75,-280 1272.75,-312"/>
<text text-anchor="start" x="1166.5" y="-298.5" font-family="Helvetica,sans-Serif" font-size="10.00">lib/comms/commands</text>
<text text-anchor="middle" x="1215.62" y="-286.5" font-family="Helvetica,sans-Serif" font-size="10.00">/clock_commands.cpp</text>
</a>
</g>
</g>
<!-- Node2 -->
<g id="Node000002" class="node">
<title>Node2</title>
<g id="a_Node000002"><a xlink:href="communication_8h.html" target="_top" xlink:title=" ">
<polygon fill="white" stroke="#666666" points="683.75,-244 593.5,-244 593.5,-224 683.75,-224 683.75,-244"/>
<text text-anchor="middle" x="638.62" y="-230.5" font-family="Helvetica,sans-Serif" font-size="10.00">communication.h</text>
</a>
</g>
</g>
<!-- Node1&#45;&gt;Node2 -->
<g id="edge1_Node000001_Node000002" class="edge">
<title>Node1&#45;&gt;Node2</title>
<g id="a_edge1_Node000001_Node000002"><a xlink:title=" ">
<path fill="none" stroke="#63b8ff" d="M1158.19,-289.03C1047.38,-277.5 805.32,-252.33 695.19,-240.88"/>
<polygon fill="#63b8ff" stroke="#63b8ff" points="695.82,-237.43 685.52,-239.88 695.1,-244.39 695.82,-237.43"/>
</a>
</g>
</g>
<!-- Node24 -->
<g id="Node000024" class="node">
<title>Node24</title>
<g id="a_Node000024"><a xlink:title=" ">
<polygon fill="#e0e0e0" stroke="#999999" points="1245.12,-132 1202.12,-132 1202.12,-112 1245.12,-112 1245.12,-132"/>
<text text-anchor="middle" x="1223.62" y="-118.5" font-family="Helvetica,sans-Serif" font-size="10.00">time.h</text>
</a>
</g>
</g>
<!-- Node1&#45;&gt;Node24 -->
<g id="edge50_Node000001_Node000024" class="edge">
<title>Node1&#45;&gt;Node24</title>
<g id="a_edge50_Node000001_Node000024"><a xlink:title=" ">
<path fill="none" stroke="#63b8ff" d="M1216.33,-279.74C1217.78,-248.69 1221.06,-178.18 1222.68,-143.31"/>
<polygon fill="#63b8ff" stroke="#63b8ff" points="1226.16,-143.87 1223.13,-133.72 1219.17,-143.55 1226.16,-143.87"/>
</a>
</g>
</g>
<!-- Node34 -->
<g id="Node000034" class="node">
<title>Node34</title>
<g id="a_Node000034"><a xlink:href="_d_s3231_8h.html" target="_top" xlink:title=" ">
<polygon fill="white" stroke="#666666" points="1303.38,-188 1243.88,-188 1243.88,-168 1303.38,-168 1303.38,-188"/>
<text text-anchor="middle" x="1273.62" y="-174.5" font-family="Helvetica,sans-Serif" font-size="10.00">DS3231.h</text>
</a>
</g>
</g>
<!-- Node1&#45;&gt;Node34 -->
<g id="edge51_Node000001_Node000034" class="edge">
<title>Node1&#45;&gt;Node34</title>
<g id="a_edge51_Node000001_Node000034"><a xlink:title=" ">
<path fill="none" stroke="#63b8ff" d="M1223.21,-279.84C1233.61,-259.03 1252.32,-221.61 1263.79,-198.67"/>
<polygon fill="#63b8ff" stroke="#63b8ff" points="1266.89,-200.3 1268.23,-189.79 1260.63,-197.17 1266.89,-200.3"/>
</a>
</g>
</g>
<!-- Node3 -->
<g id="Node000003" class="node">
<title>Node3</title>
<g id="a_Node000003"><a xlink:title=" ">
<polygon fill="#e0e0e0" stroke="#999999" points="745.62,-20 705.62,-20 705.62,0 745.62,0 745.62,-20"/>
<text text-anchor="middle" x="725.62" y="-6.5" font-family="Helvetica,sans-Serif" font-size="10.00">string</text>
</a>
</g>
</g>
<!-- Node2&#45;&gt;Node3 -->
<g id="edge2_Node000002_Node000003" class="edge">
<title>Node2&#45;&gt;Node3</title>
<g id="a_edge2_Node000002_Node000003"><a xlink:title=" ">
<path fill="none" stroke="#63b8ff" d="M593.05,-231.31C456.64,-225.24 63.83,-200.02 110.62,-112 131.51,-72.71 151.66,-70.8 193.62,-56 286.88,-23.12 594.2,-13.79 694.01,-11.59"/>
<polygon fill="#63b8ff" stroke="#63b8ff" points="693.95,-15.1 703.88,-11.39 693.8,-8.1 693.95,-15.1"/>
</a>
</g>
</g>
<!-- Node4 -->
<g id="Node000004" class="node">
<title>Node4</title>
<g id="a_Node000004"><a xlink:title=" ">
<polygon fill="#e0e0e0" stroke="#999999" points="163.12,-132 120.12,-132 120.12,-112 163.12,-112 163.12,-132"/>
<text text-anchor="middle" x="141.62" y="-118.5" font-family="Helvetica,sans-Serif" font-size="10.00">vector</text>
</a>
</g>
</g>
<!-- Node2&#45;&gt;Node4 -->
<g id="edge3_Node000002_Node000004" class="edge">
<title>Node2&#45;&gt;Node4</title>
<g id="a_edge3_Node000002_Node000004"><a xlink:title=" ">
<path fill="none" stroke="#63b8ff" d="M593.38,-223.55C510.66,-206.16 329.59,-167.63 177.62,-132 176.46,-131.73 175.28,-131.45 174.09,-131.16"/>
<polygon fill="#63b8ff" stroke="#63b8ff" points="175.32,-127.86 164.77,-128.89 173.66,-134.66 175.32,-127.86"/>
</a>
</g>
</g>
<!-- Node5 -->
<g id="Node000005" class="node">
<title>Node5</title>
<g id="a_Node000005"><a xlink:href="protocol_8h.html" target="_top" xlink:title=" ">
<polygon fill="white" stroke="#666666" points="668,-188 609.25,-188 609.25,-168 668,-168 668,-188"/>
<text text-anchor="middle" x="638.62" y="-174.5" font-family="Helvetica,sans-Serif" font-size="10.00">protocol.h</text>
</a>
</g>
</g>
<!-- Node2&#45;&gt;Node5 -->
<g id="edge4_Node000002_Node000005" class="edge">
<title>Node2&#45;&gt;Node5</title>
<g id="a_edge4_Node000002_Node000005"><a xlink:title=" ">
<path fill="none" stroke="#63b8ff" d="M638.62,-223.59C638.62,-217.01 638.62,-207.96 638.62,-199.73"/>
<polygon fill="#63b8ff" stroke="#63b8ff" points="642.13,-199.81 638.63,-189.81 635.13,-199.81 642.13,-199.81"/>
</a>
</g>
</g>
<!-- Node33 -->
<g id="Node000033" class="node">
<title>Node33</title>
<g id="a_Node000033"><a xlink:href="event__manager_8h.html" target="_top" xlink:title=" ">
<polygon fill="white" stroke="#666666" points="1035.12,-188 944.12,-188 944.12,-168 1035.12,-168 1035.12,-188"/>
<text text-anchor="middle" x="989.62" y="-174.5" font-family="Helvetica,sans-Serif" font-size="10.00">event_manager.h</text>
</a>
</g>
</g>
<!-- Node2&#45;&gt;Node33 -->
<g id="edge45_Node000002_Node000033" class="edge">
<title>Node2&#45;&gt;Node33</title>
<g id="a_edge45_Node000002_Node000033"><a xlink:title=" ">
<path fill="none" stroke="#63b8ff" d="M684.15,-226C747.85,-216.2 863.51,-198.4 932.78,-187.75"/>
<polygon fill="#63b8ff" stroke="#63b8ff" points="933.05,-191.24 942.4,-186.26 931.99,-184.33 933.05,-191.24"/>
</a>
</g>
</g>
<!-- Node5&#45;&gt;Node3 -->
<g id="edge5_Node000005_Node000003" class="edge">
<title>Node5&#45;&gt;Node3</title>
<g id="a_edge5_Node000005_Node000003"><a xlink:title=" ">
<path fill="none" stroke="#63b8ff" d="M609.03,-176.13C516.52,-173.11 237.28,-161.6 210.62,-132 188.02,-106.9 187.8,-80.9 210.62,-56 243.36,-20.28 587.26,-12.8 694.13,-11.34"/>
<polygon fill="#63b8ff" stroke="#63b8ff" points="693.93,-14.84 703.88,-11.21 693.84,-7.84 693.93,-14.84"/>
</a>
</g>
</g>
<!-- Node5&#45;&gt;Node4 -->
<g id="edge8_Node000005_Node000004" class="edge">
<title>Node5&#45;&gt;Node4</title>
<g id="a_edge8_Node000005_Node000004"><a xlink:title=" ">
<path fill="none" stroke="#63b8ff" d="M608.76,-175.61C535.07,-171.87 338.88,-159.87 177.62,-132 176.63,-131.83 175.61,-131.64 174.59,-131.45"/>
<polygon fill="#63b8ff" stroke="#63b8ff" points="175.6,-128.08 165.08,-129.36 174.1,-134.92 175.6,-128.08"/>
</a>
</g>
</g>
<!-- Node6 -->
<g id="Node000006" class="node">
<title>Node6</title>
<g id="a_Node000006"><a xlink:title=" ">
<polygon fill="#e0e0e0" stroke="#999999" points="962,-76 927.25,-76 927.25,-56 962,-56 962,-76"/>
<text text-anchor="middle" x="944.62" y="-62.5" font-family="Helvetica,sans-Serif" font-size="10.00">map</text>
</a>
</g>
</g>
<!-- Node5&#45;&gt;Node6 -->
<g id="edge6_Node000005_Node000006" class="edge">
<title>Node5&#45;&gt;Node6</title>
<g id="a_edge6_Node000005_Node000006"><a xlink:title=" ">
<path fill="none" stroke="#63b8ff" d="M668.26,-174.09C709.58,-169.27 786.21,-157.5 846.62,-132 875.94,-119.63 905.88,-98.23 924.82,-83.38"/>
<polygon fill="#63b8ff" stroke="#63b8ff" points="926.86,-86.23 932.48,-77.24 922.49,-80.77 926.86,-86.23"/>
</a>
</g>
</g>
<!-- Node7 -->
<g id="Node000007" class="node">
<title>Node7</title>
<g id="a_Node000007"><a xlink:title=" ">
<polygon fill="#e0e0e0" stroke="#999999" points="407.62,-132 349.62,-132 349.62,-112 407.62,-112 407.62,-132"/>
<text text-anchor="middle" x="378.62" y="-118.5" font-family="Helvetica,sans-Serif" font-size="10.00">functional</text>
</a>
</g>
</g>
<!-- Node5&#45;&gt;Node7 -->
<g id="edge7_Node000005_Node000007" class="edge">
<title>Node5&#45;&gt;Node7</title>
<g id="a_edge7_Node000005_Node000007"><a xlink:title=" ">
<path fill="none" stroke="#63b8ff" d="M608.76,-171.27C568.07,-163.39 492.68,-148.54 418.93,-132.45"/>
<polygon fill="#63b8ff" stroke="#63b8ff" points="420.06,-129.12 409.54,-130.4 418.56,-135.96 420.06,-129.12"/>
</a>
</g>
</g>
<!-- Node8 -->
<g id="Node000008" class="node">
<title>Node8</title>
<g id="a_Node000008"><a xlink:title=" ">
<polygon fill="#e0e0e0" stroke="#999999" points="961.25,-132 916,-132 916,-112 961.25,-112 961.25,-132"/>
<text text-anchor="middle" x="938.62" y="-118.5" font-family="Helvetica,sans-Serif" font-size="10.00">cstdint</text>
</a>
</g>
</g>
<!-- Node5&#45;&gt;Node8 -->
<g id="edge9_Node000005_Node000008" class="edge">
<title>Node5&#45;&gt;Node8</title>
<g id="a_edge9_Node000005_Node000008"><a xlink:title=" ">
<path fill="none" stroke="#63b8ff" d="M668.33,-172.6C717.19,-165.22 817.48,-149.41 901.62,-132 902.62,-131.79 903.62,-131.58 904.64,-131.36"/>
<polygon fill="#63b8ff" stroke="#63b8ff" points="905.14,-134.84 914.11,-129.2 903.58,-128.01 905.14,-134.84"/>
</a>
</g>
</g>
<!-- Node9 -->
<g id="Node000009" class="node">
<title>Node9</title>
<g id="a_Node000009"><a xlink:title=" ">
<polygon fill="#e0e0e0" stroke="#999999" points="475.5,-132 425.75,-132 425.75,-112 475.5,-112 475.5,-132"/>
<text text-anchor="middle" x="450.62" y="-118.5" font-family="Helvetica,sans-Serif" font-size="10.00">iomanip</text>
</a>
</g>
</g>
<!-- Node5&#45;&gt;Node9 -->
<g id="edge10_Node000005_Node000009" class="edge">
<title>Node5&#45;&gt;Node9</title>
<g id="a_edge10_Node000005_Node000009"><a xlink:title=" ">
<path fill="none" stroke="#63b8ff" d="M608.84,-168.44C575.67,-158.92 522.07,-143.52 486.6,-133.33"/>
<polygon fill="#63b8ff" stroke="#63b8ff" points="487.79,-130.03 477.22,-130.64 485.86,-136.76 487.79,-130.03"/>
</a>
</g>
</g>
<!-- Node10 -->
<g id="Node000010" class="node">
<title>Node10</title>
<g id="a_Node000010"><a xlink:href="pin__config_8h.html" target="_top" xlink:title=" ">
<polygon fill="white" stroke="#666666" points="821.88,-76 753.38,-76 753.38,-56 821.88,-56 821.88,-76"/>
<text text-anchor="middle" x="787.62" y="-62.5" font-family="Helvetica,sans-Serif" font-size="10.00">pin_config.h</text>
</a>
</g>
</g>
<!-- Node5&#45;&gt;Node10 -->
<g id="edge11_Node000005_Node000010" class="edge">
<title>Node5&#45;&gt;Node10</title>
<g id="a_edge11_Node000005_Node000010"><a xlink:title=" ">
<path fill="none" stroke="#63b8ff" d="M668.23,-174.46C716.96,-169.6 810.69,-157.15 830.62,-132 843.18,-116.16 826.45,-96.68 810.33,-83.2"/>
<polygon fill="#63b8ff" stroke="#63b8ff" points="812.86,-80.73 802.82,-77.32 808.54,-86.24 812.86,-80.73"/>
</a>
</g>
</g>
<!-- Node12 -->
<g id="Node000012" class="node">
<title>Node12</title>
<g id="a_Node000012"><a xlink:href="_power_manager_8h.html" target="_top" xlink:title=" ">
<polygon fill="white" stroke="#666666" points="1145.38,-132 1055.88,-132 1055.88,-112 1145.38,-112 1145.38,-132"/>
<text text-anchor="middle" x="1100.62" y="-118.5" font-family="Helvetica,sans-Serif" font-size="10.00">PowerManager.h</text>
</a>
</g>
</g>
<!-- Node5&#45;&gt;Node12 -->
<g id="edge13_Node000005_Node000012" class="edge">
<title>Node5&#45;&gt;Node12</title>
<g id="a_edge13_Node000005_Node000012"><a xlink:title=" ">
<path fill="none" stroke="#63b8ff" d="M668.23,-173.54C743.9,-164.7 945.39,-141.14 1044.28,-129.59"/>
<polygon fill="#63b8ff" stroke="#63b8ff" points="1044.5,-133.08 1054.03,-128.45 1043.69,-126.13 1044.5,-133.08"/>
</a>
</g>
</g>
<!-- Node18 -->
<g id="Node000018" class="node">
<title>Node18</title>
<g id="a_Node000018"><a xlink:title=" ">
<polygon fill="#e0e0e0" stroke="#999999" points="535.75,-132 493.5,-132 493.5,-112 535.75,-112 535.75,-132"/>
<text text-anchor="middle" x="514.62" y="-118.5" font-family="Helvetica,sans-Serif" font-size="10.00">cstdio</text>
</a>
</g>
</g>
<!-- Node5&#45;&gt;Node18 -->
<g id="edge23_Node000005_Node000018" class="edge">
<title>Node5&#45;&gt;Node18</title>
<g id="a_edge23_Node000005_Node000018"><a xlink:title=" ">
<path fill="none" stroke="#63b8ff" d="M617.03,-167.59C597.47,-159.08 568.41,-146.42 546.24,-136.77"/>
<polygon fill="#63b8ff" stroke="#63b8ff" points="547.93,-133.69 537.36,-132.9 545.14,-140.1 547.93,-133.69"/>
</a>
</g>
</g>
<!-- Node19 -->
<g id="Node000019" class="node">
<title>Node19</title>
<g id="a_Node000019"><a xlink:title=" ">
<polygon fill="#e0e0e0" stroke="#999999" points="597.88,-132 553.38,-132 553.38,-112 597.88,-112 597.88,-132"/>
<text text-anchor="middle" x="575.62" y="-118.5" font-family="Helvetica,sans-Serif" font-size="10.00">cstdlib</text>
</a>
</g>
</g>
<!-- Node5&#45;&gt;Node19 -->
<g id="edge24_Node000005_Node000019" class="edge">
<title>Node5&#45;&gt;Node19</title>
<g id="a_edge24_Node000005_Node000019"><a xlink:title=" ">
<path fill="none" stroke="#63b8ff" d="M627.65,-167.59C618.71,-159.93 605.85,-148.91 595.16,-139.75"/>
<polygon fill="#63b8ff" stroke="#63b8ff" points="597.49,-137.13 587.62,-133.28 592.94,-142.45 597.49,-137.13"/>
</a>
</g>
</g>
<!-- Node20 -->
<g id="Node000020" class="node">
<title>Node20</title>
<g id="a_Node000020"><a xlink:title=" ">
<polygon fill="#e0e0e0" stroke="#999999" points="661.25,-132 616,-132 616,-112 661.25,-112 661.25,-132"/>
<text text-anchor="middle" x="638.62" y="-118.5" font-family="Helvetica,sans-Serif" font-size="10.00">cstring</text>
</a>
</g>
</g>
<!-- Node5&#45;&gt;Node20 -->
<g id="edge25_Node000005_Node000020" class="edge">
<title>Node5&#45;&gt;Node20</title>
<g id="a_edge25_Node000005_Node000020"><a xlink:title=" ">
<path fill="none" stroke="#63b8ff" d="M638.62,-167.59C638.62,-161.01 638.62,-151.96 638.62,-143.73"/>
<polygon fill="#63b8ff" stroke="#63b8ff" points="642.13,-143.81 638.63,-133.81 635.13,-143.81 642.13,-143.81"/>
</a>
</g>
</g>
<!-- Node21 -->
<g id="Node000021" class="node">
<title>Node21</title>
<g id="a_Node000021"><a xlink:href="utils_8h.html" target="_top" xlink:title=" ">
<polygon fill="white" stroke="#666666" points="821.75,-132 779.5,-132 779.5,-112 821.75,-112 821.75,-132"/>
<text text-anchor="middle" x="800.62" y="-118.5" font-family="Helvetica,sans-Serif" font-size="10.00">utils.h</text>
</a>
</g>
</g>
<!-- Node5&#45;&gt;Node21 -->
<g id="edge26_Node000005_Node000021" class="edge">
<title>Node5&#45;&gt;Node21</title>
<g id="a_edge26_Node000005_Node000021"><a xlink:title=" ">
<path fill="none" stroke="#63b8ff" d="M666.84,-167.59C695.3,-158.11 739.15,-143.49 768.82,-133.6"/>
<polygon fill="#63b8ff" stroke="#63b8ff" points="769.62,-137.02 778,-130.54 767.41,-130.38 769.62,-137.02"/>
</a>
</g>
</g>
<!-- Node5&#45;&gt;Node24 -->
<g id="edge32_Node000005_Node000024" class="edge">
<title>Node5&#45;&gt;Node24</title>
<g id="a_edge32_Node000005_Node000024"><a xlink:title=" ">
<path fill="none" stroke="#63b8ff" d="M668.34,-174.86C747.49,-169.05 970.02,-152.08 1154.62,-132 1166.39,-130.72 1179.26,-129.1 1190.66,-127.59"/>
<polygon fill="#63b8ff" stroke="#63b8ff" points="1190.96,-131.08 1200.4,-126.28 1190.02,-124.15 1190.96,-131.08"/>
</a>
</g>
</g>
<!-- Node25 -->
<g id="Node000025" class="node">
<title>Node25</title>
<g id="a_Node000025"><a xlink:href="build__number_8h.html" target="_top" xlink:title=" ">
<polygon fill="white" stroke="#666666" points="761.62,-132 679.62,-132 679.62,-112 761.62,-112 761.62,-132"/>
<text text-anchor="middle" x="720.62" y="-118.5" font-family="Helvetica,sans-Serif" font-size="10.00">build_number.h</text>
</a>
</g>
</g>
<!-- Node5&#45;&gt;Node25 -->
<g id="edge33_Node000005_Node000025" class="edge">
<title>Node5&#45;&gt;Node25</title>
<g id="a_edge33_Node000005_Node000025"><a xlink:title=" ">
<path fill="none" stroke="#63b8ff" d="M652.91,-167.59C665.06,-159.59 682.76,-147.93 697.02,-138.54"/>
<polygon fill="#63b8ff" stroke="#63b8ff" points="698.54,-141.73 704.97,-133.31 694.69,-135.89 698.54,-141.73"/>
</a>
</g>
</g>
<!-- Node26 -->
<g id="Node000026" class="node">
<title>Node26</title>
<g id="a_Node000026"><a xlink:href="_lo_ra-_r_p2040_8h.html" target="_top" xlink:title=" ">
<polygon fill="white" stroke="#666666" points="331.62,-132 219.62,-132 219.62,-112 331.62,-112 331.62,-132"/>
<text text-anchor="middle" x="275.62" y="-118.5" font-family="Helvetica,sans-Serif" font-size="10.00">LoRa/LoRa&#45;RP2040.h</text>
</a>
</g>
</g>
<!-- Node5&#45;&gt;Node26 -->
<g id="edge34_Node000005_Node000026" class="edge">
<title>Node5&#45;&gt;Node26</title>
<g id="a_edge34_Node000005_Node000026"><a xlink:title=" ">
<path fill="none" stroke="#63b8ff" d="M608.92,-172.58C551.22,-164 422.7,-144.88 343.18,-133.05"/>
<polygon fill="#63b8ff" stroke="#63b8ff" points="343.72,-129.59 333.32,-131.58 342.69,-136.52 343.72,-129.59"/>
</a>
</g>
</g>
<!-- Node11 -->
<g id="Node000011" class="node">
<title>Node11</title>
<g id="a_Node000011"><a xlink:title=" ">
<polygon fill="#e0e0e0" stroke="#999999" points="953.75,-20 905.5,-20 905.5,0 953.75,0 953.75,-20"/>
<text text-anchor="middle" x="929.62" y="-6.5" font-family="Helvetica,sans-Serif" font-size="10.00">stdint.h</text>
</a>
</g>
</g>
<!-- Node10&#45;&gt;Node11 -->
<g id="edge12_Node000010_Node000011" class="edge">
<title>Node10&#45;&gt;Node11</title>
<g id="a_edge12_Node000010_Node000011"><a xlink:title=" ">
<path fill="none" stroke="#63b8ff" d="M812.36,-55.59C835.06,-46.96 868.95,-34.08 894.46,-24.37"/>
<polygon fill="#63b8ff" stroke="#63b8ff" points="895.66,-27.66 903.76,-20.84 893.17,-21.12 895.66,-27.66"/>
</a>
</g>
</g>
<!-- Node12&#45;&gt;Node3 -->
<g id="edge19_Node000012_Node000003" class="edge">
<title>Node12&#45;&gt;Node3</title>
<g id="a_edge19_Node000012_Node000003"><a xlink:title=" ">
<path fill="none" stroke="#63b8ff" d="M1090.16,-111.71C1073.26,-97.27 1038.33,-69.68 1003.62,-56 918.8,-22.57 810.05,-13.97 757.23,-11.76"/>
<polygon fill="#63b8ff" stroke="#63b8ff" points="757.58,-8.27 747.46,-11.4 757.33,-15.26 757.58,-8.27"/>
</a>
</g>
</g>
<!-- Node12&#45;&gt;Node6 -->
<g id="edge18_Node000012_Node000006" class="edge">
<title>Node12&#45;&gt;Node6</title>
<g id="a_edge18_Node000012_Node000006"><a xlink:title=" ">
<path fill="none" stroke="#63b8ff" d="M1073.45,-111.59C1045.37,-101.87 1001.72,-86.76 973.15,-76.88"/>
<polygon fill="#63b8ff" stroke="#63b8ff" points="974.31,-73.57 963.71,-73.61 972.02,-80.19 974.31,-73.57"/>
</a>
</g>
</g>
<!-- Node13 -->
<g id="Node000013" class="node">
<title>Node13</title>
<g id="a_Node000013"><a xlink:href="_i_n_a3221_8h.html" target="_top" xlink:title=" ">
<polygon fill="white" stroke="#666666" points="1197.5,-76 1093.75,-76 1093.75,-56 1197.5,-56 1197.5,-76"/>
<text text-anchor="middle" x="1145.62" y="-62.5" font-family="Helvetica,sans-Serif" font-size="10.00">INA3221/INA3221.h</text>
</a>
</g>
</g>
<!-- Node12&#45;&gt;Node13 -->
<g id="edge14_Node000012_Node000013" class="edge">
<title>Node12&#45;&gt;Node13</title>
<g id="a_edge14_Node000012_Node000013"><a xlink:title=" ">
<path fill="none" stroke="#63b8ff" d="M1108.46,-111.59C1114.59,-104.24 1123.3,-93.8 1130.74,-84.87"/>
<polygon fill="#63b8ff" stroke="#63b8ff" points="1133.19,-87.38 1136.91,-77.46 1127.82,-82.9 1133.19,-87.38"/>
</a>
</g>
</g>
<!-- Node15 -->
<g id="Node000015" class="node">
<title>Node15</title>
<g id="a_Node000015"><a xlink:title=" ">
<polygon fill="#e0e0e0" stroke="#999999" points="1267.5,-20 1187.75,-20 1187.75,0 1267.5,0 1267.5,-20"/>
<text text-anchor="middle" x="1227.62" y="-6.5" font-family="Helvetica,sans-Serif" font-size="10.00">hardware/i2c.h</text>
</a>
</g>
</g>
<!-- Node12&#45;&gt;Node15 -->
<g id="edge20_Node000012_Node000015" class="edge">
<title>Node12&#45;&gt;Node15</title>
<g id="a_edge20_Node000012_Node000015"><a xlink:title=" ">
<path fill="none" stroke="#63b8ff" d="M1144.35,-111.55C1165.72,-104.88 1190.3,-93.85 1206.62,-76 1217.89,-63.68 1223.12,-45.26 1225.54,-31.17"/>
<polygon fill="#63b8ff" stroke="#63b8ff" points="1228.95,-32.04 1226.82,-21.66 1222.02,-31.1 1228.95,-32.04"/>
</a>
</g>
</g>
<!-- Node16 -->
<g id="Node000016" class="node">
<title>Node16</title>
<g id="a_Node000016"><a xlink:title=" ">
<polygon fill="#e0e0e0" stroke="#999999" points="908.88,-76 840.38,-76 840.38,-56 908.88,-56 908.88,-76"/>
<text text-anchor="middle" x="874.62" y="-62.5" font-family="Helvetica,sans-Serif" font-size="10.00">pico/stdlib.h</text>
</a>
</g>
</g>
<!-- Node12&#45;&gt;Node16 -->
<g id="edge21_Node000012_Node000016" class="edge">
<title>Node12&#45;&gt;Node16</title>
<g id="a_edge21_Node000012_Node000016"><a xlink:title=" ">
<path fill="none" stroke="#63b8ff" d="M1061,-111.53C1021.66,-102.13 961.41,-87.74 920.13,-77.87"/>
<polygon fill="#63b8ff" stroke="#63b8ff" points="921.03,-74.49 910.49,-75.57 919.41,-81.3 921.03,-74.49"/>
</a>
</g>
</g>
<!-- Node17 -->
<g id="Node000017" class="node">
<title>Node17</title>
<g id="a_Node000017"><a xlink:title=" ">
<polygon fill="#e0e0e0" stroke="#999999" points="1325.75,-76 1253.5,-76 1253.5,-56 1325.75,-56 1325.75,-76"/>
<text text-anchor="middle" x="1289.62" y="-62.5" font-family="Helvetica,sans-Serif" font-size="10.00">pico/mutex.h</text>
</a>
</g>
</g>
<!-- Node12&#45;&gt;Node17 -->
<g id="edge22_Node000012_Node000017" class="edge">
<title>Node12&#45;&gt;Node17</title>
<g id="a_edge22_Node000012_Node000017"><a xlink:title=" ">
<path fill="none" stroke="#63b8ff" d="M1133.55,-111.59C1164.66,-102.71 1211.54,-89.31 1245.8,-79.52"/>
<polygon fill="#63b8ff" stroke="#63b8ff" points="1246.34,-83.01 1254.99,-76.9 1244.41,-76.28 1246.34,-83.01"/>
</a>
</g>
</g>
<!-- Node13&#45;&gt;Node11 -->
<g id="edge15_Node000013_Node000011" class="edge">
<title>Node13&#45;&gt;Node11</title>
<g id="a_edge15_Node000013_Node000011"><a xlink:title=" ">
<path fill="none" stroke="#63b8ff" d="M1108,-55.59C1067.82,-45.55 1004.63,-29.75 965.24,-19.9"/>
<polygon fill="#63b8ff" stroke="#63b8ff" points="966.09,-16.51 955.54,-17.48 964.4,-23.3 966.09,-16.51"/>
</a>
</g>
</g>
<!-- Node14 -->
<g id="Node000014" class="node">
<title>Node14</title>
<g id="a_Node000014"><a xlink:title=" ">
<polygon fill="#e0e0e0" stroke="#999999" points="1169.38,-20 1115.88,-20 1115.88,0 1169.38,0 1169.38,-20"/>
<text text-anchor="middle" x="1142.62" y="-6.5" font-family="Helvetica,sans-Serif" font-size="10.00">iostream</text>
</a>
</g>
</g>
<!-- Node13&#45;&gt;Node14 -->
<g id="edge16_Node000013_Node000014" class="edge">
<title>Node13&#45;&gt;Node14</title>
<g id="a_edge16_Node000013_Node000014"><a xlink:title=" ">
<path fill="none" stroke="#63b8ff" d="M1145.1,-55.59C1144.74,-49.01 1144.23,-39.96 1143.78,-31.73"/>
<polygon fill="#63b8ff" stroke="#63b8ff" points="1147.27,-31.6 1143.23,-21.81 1140.29,-31.99 1147.27,-31.6"/>
</a>
</g>
</g>
<!-- Node13&#45;&gt;Node15 -->
<g id="edge17_Node000013_Node000015" class="edge">
<title>Node13&#45;&gt;Node15</title>
<g id="a_edge17_Node000013_Node000015"><a xlink:title=" ">
<path fill="none" stroke="#63b8ff" d="M1159.91,-55.59C1172.06,-47.59 1189.76,-35.93 1204.02,-26.54"/>
<polygon fill="#63b8ff" stroke="#63b8ff" points="1205.54,-29.73 1211.97,-21.31 1201.69,-23.89 1205.54,-29.73"/>
</a>
</g>
</g>
<!-- Node21&#45;&gt;Node3 -->
<g id="edge28_Node000021_Node000003" class="edge">
<title>Node21&#45;&gt;Node3</title>
<g id="a_edge28_Node000021_Node000003"><a xlink:title=" ">
<path fill="none" stroke="#63b8ff" d="M784.1,-111.6C771.53,-103.65 754.74,-91.14 744.62,-76 735.62,-62.53 730.81,-44.72 728.28,-31.16"/>
<polygon fill="#63b8ff" stroke="#63b8ff" points="731.79,-30.96 726.78,-21.63 724.88,-32.05 731.79,-30.96"/>
</a>
</g>
</g>
<!-- Node21&#45;&gt;Node10 -->
<g id="edge31_Node000021_Node000010" class="edge">
<title>Node21&#45;&gt;Node10</title>
<g id="a_edge31_Node000021_Node000010"><a xlink:title=" ">
<path fill="none" stroke="#63b8ff" d="M798.36,-111.59C796.76,-104.93 794.55,-95.75 792.55,-87.44"/>
<polygon fill="#63b8ff" stroke="#63b8ff" points="795.96,-86.67 790.22,-77.77 789.16,-88.31 795.96,-86.67"/>
</a>
</g>
</g>
<!-- Node21&#45;&gt;Node16 -->
<g id="edge29_Node000021_Node000016" class="edge">
<title>Node21&#45;&gt;Node16</title>
<g id="a_edge29_Node000021_Node000016"><a xlink:title=" ">
<path fill="none" stroke="#63b8ff" d="M813.51,-111.59C824.34,-103.7 840.04,-92.24 852.81,-82.92"/>
<polygon fill="#63b8ff" stroke="#63b8ff" points="854.65,-85.91 860.66,-77.19 850.52,-80.26 854.65,-85.91"/>
</a>
</g>
</g>
<!-- Node22 -->
<g id="Node000022" class="node">
<title>Node22</title>
<g id="a_Node000022"><a xlink:title=" ">
<polygon fill="#e0e0e0" stroke="#999999" points="45.25,-20 0,-20 0,0 45.25,0 45.25,-20"/>
<text text-anchor="middle" x="22.62" y="-6.5" font-family="Helvetica,sans-Serif" font-size="10.00">stdio.h</text>
</a>
</g>
</g>
<!-- Node21&#45;&gt;Node22 -->
<g id="edge27_Node000021_Node000022" class="edge">
<title>Node21&#45;&gt;Node22</title>
<g id="a_edge27_Node000021_Node000022"><a xlink:title=" ">
<path fill="none" stroke="#63b8ff" d="M779.14,-113.88C776.3,-113.14 773.41,-112.48 770.62,-112 690.7,-98.25 105.3,-126.23 41.62,-76 28.36,-65.53 24,-46.33 22.73,-31.49"/>
<polygon fill="#63b8ff" stroke="#63b8ff" points="26.24,-31.71 22.32,-21.87 19.25,-32 26.24,-31.71"/>
</a>
</g>
</g>
<!-- Node23 -->
<g id="Node000023" class="node">
<title>Node23</title>
<g id="a_Node000023"><a xlink:title=" ">
<polygon fill="#e0e0e0" stroke="#999999" points="697.38,-76 613.88,-76 613.88,-56 697.38,-56 697.38,-76"/>
<text text-anchor="middle" x="655.62" y="-62.5" font-family="Helvetica,sans-Serif" font-size="10.00">hardware/uart.h</text>
</a>
</g>
</g>
<!-- Node21&#45;&gt;Node23 -->
<g id="edge30_Node000021_Node000023" class="edge">
<title>Node21&#45;&gt;Node23</title>
<g id="a_edge30_Node000021_Node000023"><a xlink:title=" ">
<path fill="none" stroke="#63b8ff" d="M779.23,-113.03C756.24,-104.47 719.31,-90.72 691.79,-80.47"/>
<polygon fill="#63b8ff" stroke="#63b8ff" points="693.03,-77.19 682.44,-76.98 690.58,-83.75 693.03,-77.19"/>
</a>
</g>
</g>
<!-- Node26&#45;&gt;Node10 -->
<g id="edge44_Node000026_Node000010" class="edge">
<title>Node26&#45;&gt;Node10</title>
<g id="a_edge44_Node000026_Node000010"><a xlink:title=" ">
<path fill="none" stroke="#63b8ff" d="M331.98,-113.06C334.9,-112.69 337.8,-112.33 340.62,-112 502.94,-92.79 544.06,-93.03 706.62,-76 718.02,-74.81 730.32,-73.47 741.8,-72.19"/>
<polygon fill="#63b8ff" stroke="#63b8ff" points="741.89,-75.7 751.44,-71.12 741.12,-68.75 741.89,-75.7"/>
</a>
</g>
</g>
<!-- Node26&#45;&gt;Node16 -->
<g id="edge35_Node000026_Node000016" class="edge">
<title>Node26&#45;&gt;Node16</title>
<g id="a_edge35_Node000026_Node000016"><a xlink:title=" ">
<path fill="none" stroke="#63b8ff" d="M331.97,-112.97C334.89,-112.63 337.79,-112.3 340.62,-112 554.17,-89.4 612.4,-105.39 829,-76.02"/>
<polygon fill="#63b8ff" stroke="#63b8ff" points="829.18,-79.53 838.61,-74.7 828.23,-72.6 829.18,-79.53"/>
</a>
</g>
</g>
<!-- Node27 -->
<g id="Node000027" class="node">
<title>Node27</title>
<g id="a_Node000027"><a xlink:title=" ">
<polygon fill="#e0e0e0" stroke="#999999" points="475.88,-76 383.38,-76 383.38,-56 475.88,-56 475.88,-76"/>
<text text-anchor="middle" x="429.62" y="-62.5" font-family="Helvetica,sans-Serif" font-size="10.00">pico/binary_info.h</text>
</a>
</g>
</g>
<!-- Node26&#45;&gt;Node27 -->
<g id="edge36_Node000026_Node000027" class="edge">
<title>Node26&#45;&gt;Node27</title>
<g id="a_edge36_Node000026_Node000027"><a xlink:title=" ">
<path fill="none" stroke="#63b8ff" d="M302.45,-111.59C327.25,-102.9 364.35,-89.89 392.09,-80.16"/>
<polygon fill="#63b8ff" stroke="#63b8ff" points="392.88,-83.59 401.16,-76.98 390.57,-76.99 392.88,-83.59"/>
</a>
</g>
</g>
<!-- Node28 -->
<g id="Node000028" class="node">
<title>Node28</title>
<g id="a_Node000028"><a xlink:title=" ">
<polygon fill="#e0e0e0" stroke="#999999" points="579.12,-76 494.12,-76 494.12,-56 579.12,-56 579.12,-76"/>
<text text-anchor="middle" x="536.62" y="-62.5" font-family="Helvetica,sans-Serif" font-size="10.00">hardware/gpio.h</text>
</a>
</g>
</g>
<!-- Node26&#45;&gt;Node28 -->
<g id="edge37_Node000026_Node000028" class="edge">
<title>Node26&#45;&gt;Node28</title>
<g id="a_edge37_Node000026_Node000028"><a xlink:title=" ">
<path fill="none" stroke="#63b8ff" d="M321.39,-111.53C366.46,-102.21 435.29,-87.97 482.92,-78.11"/>
<polygon fill="#63b8ff" stroke="#63b8ff" points="483.38,-81.59 492.47,-76.14 481.96,-74.74 483.38,-81.59"/>
</a>
</g>
</g>
<!-- Node29 -->
<g id="Node000029" class="node">
<title>Node29</title>
<g id="a_Node000029"><a xlink:title=" ">
<polygon fill="#e0e0e0" stroke="#999999" points="299.5,-76 219.75,-76 219.75,-56 299.5,-56 299.5,-76"/>
<text text-anchor="middle" x="259.62" y="-62.5" font-family="Helvetica,sans-Serif" font-size="10.00">hardware/spi.h</text>
</a>
</g>
</g>
<!-- Node26&#45;&gt;Node29 -->
<g id="edge38_Node000026_Node000029" class="edge">
<title>Node26&#45;&gt;Node29</title>
<g id="a_edge38_Node000026_Node000029"><a xlink:title=" ">
<path fill="none" stroke="#63b8ff" d="M272.84,-111.59C270.84,-104.86 268.08,-95.53 265.6,-87.15"/>
<polygon fill="#63b8ff" stroke="#63b8ff" points="269.01,-86.34 262.81,-77.75 262.3,-88.33 269.01,-86.34"/>
</a>
</g>
</g>
<!-- Node30 -->
<g id="Node000030" class="node">
<title>Node30</title>
<g id="a_Node000030"><a xlink:title=" ">
<polygon fill="#e0e0e0" stroke="#999999" points="365.75,-76 317.5,-76 317.5,-56 365.75,-56 365.75,-76"/>
<text text-anchor="middle" x="341.62" y="-62.5" font-family="Helvetica,sans-Serif" font-size="10.00">string.h</text>
</a>
</g>
</g>
<!-- Node26&#45;&gt;Node30 -->
<g id="edge39_Node000026_Node000030" class="edge">
<title>Node26&#45;&gt;Node30</title>
<g id="a_edge39_Node000026_Node000030"><a xlink:title=" ">
<path fill="none" stroke="#63b8ff" d="M287.12,-111.59C296.59,-103.85 310.23,-92.69 321.5,-83.47"/>
<polygon fill="#63b8ff" stroke="#63b8ff" points="323.57,-86.3 329.09,-77.26 319.13,-80.88 323.57,-86.3"/>
</a>
</g>
</g>
<!-- Node31 -->
<g id="Node000031" class="node">
<title>Node31</title>
<g id="a_Node000031"><a xlink:href="_print_8h.html" target="_top" xlink:title=" ">
<polygon fill="white" stroke="#666666" points="94.88,-76 50.38,-76 50.38,-56 94.88,-56 94.88,-76"/>
<text text-anchor="middle" x="72.62" y="-62.5" font-family="Helvetica,sans-Serif" font-size="10.00">Print.h</text>
</a>
</g>
</g>
<!-- Node26&#45;&gt;Node31 -->
<g id="edge40_Node000026_Node000031" class="edge">
<title>Node26&#45;&gt;Node31</title>
<g id="a_edge40_Node000026_Node000031"><a xlink:title=" ">
<path fill="none" stroke="#63b8ff" d="M240.27,-111.59C202.48,-101.54 143.05,-85.73 106.03,-75.89"/>
<polygon fill="#63b8ff" stroke="#63b8ff" points="107.34,-72.61 96.78,-73.42 105.54,-79.38 107.34,-72.61"/>
</a>
</g>
</g>
<!-- Node31&#45;&gt;Node3 -->
<g id="edge43_Node000031_Node000003" class="edge">
<title>Node31&#45;&gt;Node3</title>
<g id="a_edge43_Node000031_Node000003"><a xlink:title=" ">
<path fill="none" stroke="#63b8ff" d="M95.36,-58.69C99.73,-57.65 104.3,-56.69 108.62,-56 330.67,-20.42 602.23,-12.94 693.78,-11.39"/>
<polygon fill="#63b8ff" stroke="#63b8ff" points="693.78,-14.89 703.73,-11.24 693.67,-7.89 693.78,-14.89"/>
</a>
</g>
</g>
<!-- Node31&#45;&gt;Node22 -->
<g id="edge42_Node000031_Node000022" class="edge">
<title>Node31&#45;&gt;Node22</title>
<g id="a_edge42_Node000031_Node000022"><a xlink:title=" ">
<path fill="none" stroke="#63b8ff" d="M63.92,-55.59C57.03,-48.16 47.23,-37.58 38.91,-28.58"/>
<polygon fill="#63b8ff" stroke="#63b8ff" points="41.63,-26.37 32.26,-21.41 36.49,-31.12 41.63,-26.37"/>
</a>
</g>
</g>
<!-- Node32 -->
<g id="Node000032" class="node">
<title>Node32</title>
<g id="a_Node000032"><a xlink:title=" ">
<polygon fill="#e0e0e0" stroke="#999999" points="122,-20 63.25,-20 63.25,0 122,0 122,-20"/>
<text text-anchor="middle" x="92.62" y="-6.5" font-family="Helvetica,sans-Serif" font-size="10.00">inttypes.h</text>
</a>
</g>
</g>
<!-- Node31&#45;&gt;Node32 -->
<g id="edge41_Node000031_Node000032" class="edge">
<title>Node31&#45;&gt;Node32</title>
<g id="a_edge41_Node000031_Node000032"><a xlink:title=" ">
<path fill="none" stroke="#63b8ff" d="M76.11,-55.59C78.63,-48.78 82.14,-39.32 85.27,-30.86"/>
<polygon fill="#63b8ff" stroke="#63b8ff" points="88.46,-32.31 88.66,-21.72 81.9,-29.88 88.46,-32.31"/>
</a>
</g>
</g>
<!-- Node33&#45;&gt;Node3 -->
<g id="edge48_Node000033_Node000003" class="edge">
<title>Node33&#45;&gt;Node3</title>
<g id="a_edge48_Node000033_Node000003"><a xlink:title=" ">
<path fill="none" stroke="#63b8ff" d="M991.39,-167.56C995.05,-144.89 1000.75,-86.92 970.62,-56 941.47,-26.08 816.79,-15.69 757.37,-12.39"/>
<polygon fill="#63b8ff" stroke="#63b8ff" points="757.75,-8.91 747.58,-11.89 757.38,-15.9 757.75,-8.91"/>
</a>
</g>
</g>
<!-- Node33&#45;&gt;Node8 -->
<g id="edge47_Node000033_Node000008" class="edge">
<title>Node33&#45;&gt;Node8</title>
<g id="a_edge47_Node000033_Node000008"><a xlink:title=" ">
<path fill="none" stroke="#63b8ff" d="M980.74,-167.59C973.72,-160.16 963.72,-149.58 955.23,-140.58"/>
<polygon fill="#63b8ff" stroke="#63b8ff" points="957.86,-138.27 948.45,-133.4 952.77,-143.07 957.86,-138.27"/>
</a>
</g>
</g>
<!-- Node33&#45;&gt;Node12 -->
<g id="edge46_Node000033_Node000012" class="edge">
<title>Node33&#45;&gt;Node12</title>
<g id="a_edge46_Node000033_Node000012"><a xlink:title=" ">
<path fill="none" stroke="#63b8ff" d="M1008.96,-167.59C1026.04,-159.28 1051.23,-147.03 1070.88,-137.47"/>
<polygon fill="#63b8ff" stroke="#63b8ff" points="1072.32,-140.66 1079.78,-133.14 1069.25,-134.37 1072.32,-140.66"/>
</a>
</g>
</g>
<!-- Node33&#45;&gt;Node17 -->
<g id="edge49_Node000033_Node000017" class="edge">
<title>Node33&#45;&gt;Node17</title>
<g id="a_edge49_Node000033_Node000017"><a xlink:title=" ">
<path fill="none" stroke="#63b8ff" d="M1033.85,-167.58C1067.54,-159.77 1114.76,-147.46 1154.62,-132 1172.79,-124.95 1176.14,-120.58 1193.62,-112 1215.18,-101.43 1239.68,-89.95 1258.54,-81.23"/>
<polygon fill="#63b8ff" stroke="#63b8ff" points="1259.93,-84.44 1267.55,-77.08 1257,-78.09 1259.93,-84.44"/>
</a>
</g>
</g>
<!-- Node34&#45;&gt;Node3 -->
<g id="edge52_Node000034_Node000003" class="edge">
<title>Node34&#45;&gt;Node3</title>
<g id="a_edge52_Node000034_Node000003"><a xlink:title=" ">
<path fill="none" stroke="#63b8ff" d="M1273.73,-167.96C1273.36,-153.85 1270.49,-126.71 1254.62,-112 1197.99,-59.5 1158.45,-98.68 1084.62,-76 1062.14,-69.09 1058.32,-62.18 1035.62,-56 936.14,-28.91 813.99,-17.27 757.3,-13.05"/>
<polygon fill="#63b8ff" stroke="#63b8ff" points="757.65,-9.56 747.43,-12.34 757.15,-16.54 757.65,-9.56"/>
</a>
</g>
</g>
<!-- Node34&#45;&gt;Node15 -->
<g id="edge55_Node000034_Node000015" class="edge">
<title>Node34&#45;&gt;Node15</title>
<g id="a_edge55_Node000034_Node000015"><a xlink:title=" ">
<path fill="none" stroke="#63b8ff" d="M1303.18,-167.51C1319.71,-160.51 1338.9,-149.18 1348.62,-132 1359.5,-112.8 1345.18,-68.31 1334.62,-56 1320.29,-39.28 1298.7,-28.64 1278.66,-21.93"/>
<polygon fill="#63b8ff" stroke="#63b8ff" points="1279.77,-18.61 1269.19,-19.03 1277.73,-25.3 1279.77,-18.61"/>
</a>
</g>
</g>
<!-- Node34&#45;&gt;Node16 -->
<g id="edge54_Node000034_Node000016" class="edge">
<title>Node34&#45;&gt;Node16</title>
<g id="a_edge54_Node000034_Node000016"><a xlink:title=" ">
<path fill="none" stroke="#63b8ff" d="M1243.5,-172.66C1199.67,-165.97 1115.96,-151.83 1046.62,-132 996.64,-117.71 940.63,-95.29 906.5,-80.87"/>
<polygon fill="#63b8ff" stroke="#63b8ff" points="908.19,-77.79 897.62,-77.09 905.45,-84.23 908.19,-77.79"/>
</a>
</g>
</g>
<!-- Node34&#45;&gt;Node24 -->
<g id="edge56_Node000034_Node000024" class="edge">
<title>Node34&#45;&gt;Node24</title>
<g id="a_edge56_Node000034_Node000024"><a xlink:title=" ">
<path fill="none" stroke="#63b8ff" d="M1264.92,-167.59C1258.03,-160.16 1248.23,-149.58 1239.91,-140.58"/>
<polygon fill="#63b8ff" stroke="#63b8ff" points="1242.63,-138.37 1233.26,-133.41 1237.49,-143.12 1242.63,-138.37"/>
</a>
</g>
</g>
<!-- Node35 -->
<g id="Node000035" class="node">
<title>Node35</title>
<g id="a_Node000035"><a xlink:title=" ">
<polygon fill="#e0e0e0" stroke="#999999" points="1339.5,-132 1301.75,-132 1301.75,-112 1339.5,-112 1339.5,-132"/>
<text text-anchor="middle" x="1320.62" y="-118.5" font-family="Helvetica,sans-Serif" font-size="10.00">array</text>
</a>
</g>
</g>
<!-- Node34&#45;&gt;Node35 -->
<g id="edge53_Node000034_Node000035" class="edge">
<title>Node34&#45;&gt;Node35</title>
<g id="a_edge53_Node000034_Node000035"><a xlink:title=" ">
<path fill="none" stroke="#63b8ff" d="M1281.81,-167.59C1288.21,-160.24 1297.3,-149.8 1305.08,-140.87"/>
<polygon fill="#63b8ff" stroke="#63b8ff" points="1307.61,-143.28 1311.54,-133.44 1302.33,-138.69 1307.61,-143.28"/>
</a>
</g>
</g>
</g>
</svg>
