<?xml version="1.0" encoding="UTF-8" standalone="no"?>
<!DOCTYPE svg PUBLIC "-//W3C//DTD SVG 1.1//EN"
 "http://www.w3.org/Graphics/SVG/1.1/DTD/svg11.dtd">
<!-- Generated by graphviz version 12.2.1 (20241206.2353)
 -->
<!-- Title: lib/comms/commands/clock_commands.cpp Pages: 1 -->
<svg width="1446pt" height="320pt"
 viewBox="0.00 0.00 1446.25 320.00" xmlns="http://www.w3.org/2000/svg" xmlns:xlink="http://www.w3.org/1999/xlink">
<g id="graph0" class="graph" transform="scale(1 1) rotate(0) translate(4 316)">
<title>lib/comms/commands/clock_commands.cpp</title>
<!-- Node1 -->
<g id="Node000001" class="node">
<title>Node1</title>
<g id="a_Node000001"><a xlink:title=" ">
<polygon fill="#999999" stroke="#666666" points="1233.5,-312 1119.25,-312 1119.25,-280 1233.5,-280 1233.5,-312"/>
<text text-anchor="start" x="1127.25" y="-298.5" font-family="Helvetica,sans-Serif" font-size="10.00">lib/comms/commands</text>
<text text-anchor="middle" x="1176.38" y="-286.5" font-family="Helvetica,sans-Serif" font-size="10.00">/clock_commands.cpp</text>
</a>
</g>
</g>
<!-- Node2 -->
<g id="Node000002" class="node">
<title>Node2</title>
<g id="a_Node000002"><a xlink:href="communication_8h.html" target="_top" xlink:title=" ">
<polygon fill="white" stroke="#666666" points="963.5,-244 873.25,-244 873.25,-224 963.5,-224 963.5,-244"/>
<text text-anchor="middle" x="918.38" y="-230.5" font-family="Helvetica,sans-Serif" font-size="10.00">communication.h</text>
</a>
</g>
</g>
<!-- Node1&#45;&gt;Node2 -->
<g id="edge1_Node000001_Node000002" class="edge">
<title>Node1&#45;&gt;Node2</title>
<g id="a_edge1_Node000001_Node000002"><a xlink:title=" ">
<path fill="none" stroke="#63b8ff" d="M1118.8,-281.61C1074.22,-271.24 1013.02,-257.01 970.01,-247.01"/>
<polygon fill="#63b8ff" stroke="#63b8ff" points="970.95,-243.63 960.42,-244.78 969.37,-250.45 970.95,-243.63"/>
</a>
</g>
</g>
<!-- Node24 -->
<g id="Node000024" class="node">
<title>Node24</title>
<g id="a_Node000024"><a xlink:title=" ">
<polygon fill="#e0e0e0" stroke="#999999" points="1197.88,-132 1154.88,-132 1154.88,-112 1197.88,-112 1197.88,-132"/>
<text text-anchor="middle" x="1176.38" y="-118.5" font-family="Helvetica,sans-Serif" font-size="10.00">time.h</text>
</a>
</g>
</g>
<!-- Node1&#45;&gt;Node24 -->
<g id="edge50_Node000001_Node000024" class="edge">
<title>Node1&#45;&gt;Node24</title>
<g id="a_edge50_Node000001_Node000024"><a xlink:title=" ">
<path fill="none" stroke="#63b8ff" d="M1176.38,-279.74C1176.38,-248.69 1176.38,-178.18 1176.38,-143.31"/>
<polygon fill="#63b8ff" stroke="#63b8ff" points="1179.88,-143.72 1176.38,-133.72 1172.88,-143.72 1179.88,-143.72"/>
</a>
</g>
</g>
<!-- Node34 -->
<g id="Node000034" class="node">
<title>Node34</title>
<g id="a_Node000034"><a xlink:href="_d_s3231_8h.html" target="_top" xlink:title=" ">
<polygon fill="white" stroke="#666666" points="1364.12,-132 1304.62,-132 1304.62,-112 1364.12,-112 1364.12,-132"/>
<text text-anchor="middle" x="1334.38" y="-118.5" font-family="Helvetica,sans-Serif" font-size="10.00">DS3231.h</text>
</a>
</g>
</g>
<!-- Node1&#45;&gt;Node34 -->
<g id="edge51_Node000001_Node000034" class="edge">
<title>Node1&#45;&gt;Node34</title>
<g id="a_edge51_Node000001_Node000034"><a xlink:title=" ">
<path fill="none" stroke="#63b8ff" d="M1190.4,-279.74C1219.67,-247.87 1287.12,-174.44 1318.18,-140.63"/>
<polygon fill="#63b8ff" stroke="#63b8ff" points="1320.7,-143.06 1324.89,-133.32 1315.55,-138.32 1320.7,-143.06"/>
</a>
</g>
</g>
<!-- Node3 -->
<g id="Node000003" class="node">
<title>Node3</title>
<g id="a_Node000003"><a xlink:title=" ">
<polygon fill="#e0e0e0" stroke="#999999" points="938.38,-20 898.38,-20 898.38,0 938.38,0 938.38,-20"/>
<text text-anchor="middle" x="918.38" y="-6.5" font-family="Helvetica,sans-Serif" font-size="10.00">string</text>
</a>
</g>
</g>
<!-- Node2&#45;&gt;Node3 -->
<g id="edge2_Node000002_Node000003" class="edge">
<title>Node2&#45;&gt;Node3</title>
<g id="a_edge2_Node000002_Node000003"><a xlink:title=" ">
<path fill="none" stroke="#63b8ff" d="M918.38,-223.74C918.38,-190.74 918.38,-78.31 918.38,-31.61"/>
<polygon fill="#63b8ff" stroke="#63b8ff" points="921.88,-31.81 918.38,-21.81 914.88,-31.81 921.88,-31.81"/>
</a>
</g>
</g>
<!-- Node4 -->
<g id="Node000004" class="node">
<title>Node4</title>
<g id="a_Node000004"><a xlink:title=" ">
<polygon fill="#e0e0e0" stroke="#999999" points="193.88,-132 150.88,-132 150.88,-112 193.88,-112 193.88,-132"/>
<text text-anchor="middle" x="172.38" y="-118.5" font-family="Helvetica,sans-Serif" font-size="10.00">vector</text>
</a>
</g>
</g>
<!-- Node2&#45;&gt;Node4 -->
<g id="edge3_Node000002_Node000004" class="edge">
<title>Node2&#45;&gt;Node4</title>
<g id="a_edge3_Node000002_Node000004"><a xlink:title=" ">
<path fill="none" stroke="#63b8ff" d="M872.81,-228.83C760.6,-218.09 462.04,-186.58 205.33,-132.14"/>
<polygon fill="#63b8ff" stroke="#63b8ff" points="206.28,-128.77 195.77,-130.1 204.82,-135.61 206.28,-128.77"/>
</a>
</g>
</g>
<!-- Node5 -->
<g id="Node000005" class="node">
<title>Node5</title>
<g id="a_Node000005"><a xlink:href="protocol_8h.html" target="_top" xlink:title=" ">
<polygon fill="white" stroke="#666666" points="704.75,-188 646,-188 646,-168 704.75,-168 704.75,-188"/>
<text text-anchor="middle" x="675.38" y="-174.5" font-family="Helvetica,sans-Serif" font-size="10.00">protocol.h</text>
</a>
</g>
</g>
<!-- Node2&#45;&gt;Node5 -->
<g id="edge4_Node000002_Node000005" class="edge">
<title>Node2&#45;&gt;Node5</title>
<g id="a_edge4_Node000002_Node000005"><a xlink:title=" ">
<path fill="none" stroke="#63b8ff" d="M875.77,-223.53C830.79,-213.54 760.39,-197.89 716.12,-188.05"/>
<polygon fill="#63b8ff" stroke="#63b8ff" points="716.92,-184.65 706.39,-185.89 715.4,-191.48 716.92,-184.65"/>
</a>
</g>
</g>
<!-- Node33 -->
<g id="Node000033" class="node">
<title>Node33</title>
<g id="a_Node000033"><a xlink:href="event__manager_8h.html" target="_top" xlink:title=" ">
<polygon fill="white" stroke="#666666" points="1137.88,-188 1046.88,-188 1046.88,-168 1137.88,-168 1137.88,-188"/>
<text text-anchor="middle" x="1092.38" y="-174.5" font-family="Helvetica,sans-Serif" font-size="10.00">event_manager.h</text>
</a>
</g>
</g>
<!-- Node2&#45;&gt;Node33 -->
<g id="edge45_Node000002_Node000033" class="edge">
<title>Node2&#45;&gt;Node33</title>
<g id="a_edge45_Node000002_Node000033"><a xlink:title=" ">
<path fill="none" stroke="#63b8ff" d="M948.68,-223.59C977.08,-214.78 1019.74,-201.54 1051.21,-191.78"/>
<polygon fill="#63b8ff" stroke="#63b8ff" points="1051.87,-195.23 1060.38,-188.93 1049.8,-188.55 1051.87,-195.23"/>
</a>
</g>
</g>
<!-- Node5&#45;&gt;Node3 -->
<g id="edge5_Node000005_Node000003" class="edge">
<title>Node5&#45;&gt;Node3</title>
<g id="a_edge5_Node000005_Node000003"><a xlink:title=" ">
<path fill="none" stroke="#63b8ff" d="M645.94,-176.81C581.25,-175.7 429.94,-169.11 398.38,-132 392.62,-125.23 393.6,-119.5 398.38,-112 451.48,-28.62 782.12,-14.05 886.7,-11.53"/>
<polygon fill="#63b8ff" stroke="#63b8ff" points="886.6,-15.03 896.52,-11.31 886.44,-8.03 886.6,-15.03"/>
</a>
</g>
</g>
<!-- Node5&#45;&gt;Node4 -->
<g id="edge8_Node000005_Node000004" class="edge">
<title>Node5&#45;&gt;Node4</title>
<g id="a_edge8_Node000005_Node000004"><a xlink:title=" ">
<path fill="none" stroke="#63b8ff" d="M645.55,-176.1C572.21,-173.46 377.14,-163.98 205.53,-132.04"/>
<polygon fill="#63b8ff" stroke="#63b8ff" points="206.23,-128.61 195.75,-130.19 204.93,-135.49 206.23,-128.61"/>
</a>
</g>
</g>
<!-- Node6 -->
<g id="Node000006" class="node">
<title>Node6</title>
<g id="a_Node000006"><a xlink:title=" ">
<polygon fill="#e0e0e0" stroke="#999999" points="980.75,-76 946,-76 946,-56 980.75,-56 980.75,-76"/>
<text text-anchor="middle" x="963.38" y="-62.5" font-family="Helvetica,sans-Serif" font-size="10.00">map</text>
</a>
</g>
</g>
<!-- Node5&#45;&gt;Node6 -->
<g id="edge6_Node000005_Node000006" class="edge">
<title>Node5&#45;&gt;Node6</title>
<g id="a_edge6_Node000005_Node000006"><a xlink:title=" ">
<path fill="none" stroke="#63b8ff" d="M705.16,-176.49C749.92,-174.55 836.05,-166.24 899.38,-132 920.4,-120.63 938.88,-100.07 950.51,-85.11"/>
<polygon fill="#63b8ff" stroke="#63b8ff" points="953.04,-87.57 956.21,-77.46 947.43,-83.38 953.04,-87.57"/>
</a>
</g>
</g>
<!-- Node7 -->
<g id="Node000007" class="node">
<title>Node7</title>
<g id="a_Node000007"><a xlink:title=" ">
<polygon fill="#e0e0e0" stroke="#999999" points="476.38,-132 418.38,-132 418.38,-112 476.38,-112 476.38,-132"/>
<text text-anchor="middle" x="447.38" y="-118.5" font-family="Helvetica,sans-Serif" font-size="10.00">functional</text>
</a>
</g>
</g>
<!-- Node5&#45;&gt;Node7 -->
<g id="edge7_Node000005_Node000007" class="edge">
<title>Node5&#45;&gt;Node7</title>
<g id="a_edge7_Node000005_Node000007"><a xlink:title=" ">
<path fill="none" stroke="#63b8ff" d="M645.57,-169.94C605.26,-160.39 533.22,-143.33 487.99,-132.62"/>
<polygon fill="#63b8ff" stroke="#63b8ff" points="488.84,-129.22 478.3,-130.32 487.22,-136.04 488.84,-129.22"/>
</a>
</g>
</g>
<!-- Node8 -->
<g id="Node000008" class="node">
<title>Node8</title>
<g id="a_Node000008"><a xlink:title=" ">
<polygon fill="#e0e0e0" stroke="#999999" points="1030,-132 984.75,-132 984.75,-112 1030,-112 1030,-132"/>
<text text-anchor="middle" x="1007.38" y="-118.5" font-family="Helvetica,sans-Serif" font-size="10.00">cstdint</text>
</a>
</g>
</g>
<!-- Node5&#45;&gt;Node8 -->
<g id="edge9_Node000005_Node000008" class="edge">
<title>Node5&#45;&gt;Node8</title>
<g id="a_edge9_Node000005_Node000008"><a xlink:title=" ">
<path fill="none" stroke="#63b8ff" d="M704.83,-173.37C758.08,-166.62 873.81,-151.07 970.38,-132 971.37,-131.8 972.37,-131.6 973.39,-131.39"/>
<polygon fill="#63b8ff" stroke="#63b8ff" points="973.88,-134.86 982.87,-129.26 972.35,-128.03 973.88,-134.86"/>
</a>
</g>
</g>
<!-- Node9 -->
<g id="Node000009" class="node">
<title>Node9</title>
<g id="a_Node000009"><a xlink:title=" ">
<polygon fill="#e0e0e0" stroke="#999999" points="544.25,-132 494.5,-132 494.5,-112 544.25,-112 544.25,-132"/>
<text text-anchor="middle" x="519.38" y="-118.5" font-family="Helvetica,sans-Serif" font-size="10.00">iomanip</text>
</a>
</g>
</g>
<!-- Node5&#45;&gt;Node9 -->
<g id="edge10_Node000005_Node000009" class="edge">
<title>Node5&#45;&gt;Node9</title>
<g id="a_edge10_Node000005_Node000009"><a xlink:title=" ">
<path fill="none" stroke="#63b8ff" d="M648.2,-167.59C622.46,-158.68 583.64,-145.25 555.35,-135.45"/>
<polygon fill="#63b8ff" stroke="#63b8ff" points="556.71,-132.22 546.12,-132.26 554.42,-138.84 556.71,-132.22"/>
</a>
</g>
</g>
<!-- Node10 -->
<g id="Node000010" class="node">
<title>Node10</title>
<g id="a_Node000010"><a xlink:href="pin__config_8h.html" target="_top" xlink:title=" ">
<polygon fill="white" stroke="#666666" points="595.62,-76 527.12,-76 527.12,-56 595.62,-56 595.62,-76"/>
<text text-anchor="middle" x="561.38" y="-62.5" font-family="Helvetica,sans-Serif" font-size="10.00">pin_config.h</text>
</a>
</g>
</g>
<!-- Node5&#45;&gt;Node10 -->
<g id="edge11_Node000005_Node000010" class="edge">
<title>Node5&#45;&gt;Node10</title>
<g id="a_edge11_Node000005_Node000010"><a xlink:title=" ">
<path fill="none" stroke="#63b8ff" d="M645.69,-176.58C582.78,-175.01 439.38,-167.51 409.38,-132 377.03,-93.73 459.49,-77.43 515.22,-70.93"/>
<polygon fill="#63b8ff" stroke="#63b8ff" points="515.58,-74.41 525.15,-69.85 514.83,-67.45 515.58,-74.41"/>
</a>
</g>
</g>
<!-- Node12 -->
<g id="Node000012" class="node">
<title>Node12</title>
<g id="a_Node000012"><a xlink:href="_power_manager_8h.html" target="_top" xlink:title=" ">
<polygon fill="white" stroke="#666666" points="1137.12,-132 1047.62,-132 1047.62,-112 1137.12,-112 1137.12,-132"/>
<text text-anchor="middle" x="1092.38" y="-118.5" font-family="Helvetica,sans-Serif" font-size="10.00">PowerManager.h</text>
</a>
</g>
</g>
<!-- Node5&#45;&gt;Node12 -->
<g id="edge13_Node000005_Node000012" class="edge">
<title>Node5&#45;&gt;Node12</title>
<g id="a_edge13_Node000005_Node000012"><a xlink:title=" ">
<path fill="none" stroke="#63b8ff" d="M705.16,-173.78C765.61,-167.15 907.25,-151.1 1036.06,-132.44"/>
<polygon fill="#63b8ff" stroke="#63b8ff" points="1036.4,-135.92 1045.79,-131.02 1035.39,-129 1036.4,-135.92"/>
</a>
</g>
</g>
<!-- Node18 -->
<g id="Node000018" class="node">
<title>Node18</title>
<g id="a_Node000018"><a xlink:title=" ">
<polygon fill="#e0e0e0" stroke="#999999" points="604.5,-132 562.25,-132 562.25,-112 604.5,-112 604.5,-132"/>
<text text-anchor="middle" x="583.38" y="-118.5" font-family="Helvetica,sans-Serif" font-size="10.00">cstdio</text>
</a>
</g>
</g>
<!-- Node5&#45;&gt;Node18 -->
<g id="edge23_Node000005_Node000018" class="edge">
<title>Node5&#45;&gt;Node18</title>
<g id="a_edge23_Node000005_Node000018"><a xlink:title=" ">
<path fill="none" stroke="#63b8ff" d="M659.35,-167.59C645.58,-159.51 625.47,-147.71 609.4,-138.27"/>
<polygon fill="#63b8ff" stroke="#63b8ff" points="611.23,-135.29 600.83,-133.25 607.68,-141.33 611.23,-135.29"/>
</a>
</g>
</g>
<!-- Node19 -->
<g id="Node000019" class="node">
<title>Node19</title>
<g id="a_Node000019"><a xlink:title=" ">
<polygon fill="#e0e0e0" stroke="#999999" points="666.62,-132 622.12,-132 622.12,-112 666.62,-112 666.62,-132"/>
<text text-anchor="middle" x="644.38" y="-118.5" font-family="Helvetica,sans-Serif" font-size="10.00">cstdlib</text>
</a>
</g>
</g>
<!-- Node5&#45;&gt;Node19 -->
<g id="edge24_Node000005_Node000019" class="edge">
<title>Node5&#45;&gt;Node19</title>
<g id="a_edge24_Node000005_Node000019"><a xlink:title=" ">
<path fill="none" stroke="#63b8ff" d="M669.98,-167.59C665.93,-160.55 660.26,-150.67 655.28,-142"/>
<polygon fill="#63b8ff" stroke="#63b8ff" points="658.48,-140.54 650.47,-133.61 652.41,-144.03 658.48,-140.54"/>
</a>
</g>
</g>
<!-- Node20 -->
<g id="Node000020" class="node">
<title>Node20</title>
<g id="a_Node000020"><a xlink:title=" ">
<polygon fill="#e0e0e0" stroke="#999999" points="730,-132 684.75,-132 684.75,-112 730,-112 730,-132"/>
<text text-anchor="middle" x="707.38" y="-118.5" font-family="Helvetica,sans-Serif" font-size="10.00">cstring</text>
</a>
</g>
</g>
<!-- Node5&#45;&gt;Node20 -->
<g id="edge25_Node000005_Node000020" class="edge">
<title>Node5&#45;&gt;Node20</title>
<g id="a_edge25_Node000005_Node000020"><a xlink:title=" ">
<path fill="none" stroke="#63b8ff" d="M680.95,-167.59C685.12,-160.55 690.98,-150.67 696.12,-142"/>
<polygon fill="#63b8ff" stroke="#63b8ff" points="699.01,-143.99 701.09,-133.6 692.98,-140.42 699.01,-143.99"/>
</a>
</g>
</g>
<!-- Node21 -->
<g id="Node000021" class="node">
<title>Node21</title>
<g id="a_Node000021"><a xlink:href="utils_8h.html" target="_top" xlink:title=" ">
<polygon fill="white" stroke="#666666" points="890.5,-132 848.25,-132 848.25,-112 890.5,-112 890.5,-132"/>
<text text-anchor="middle" x="869.38" y="-118.5" font-family="Helvetica,sans-Serif" font-size="10.00">utils.h</text>
</a>
</g>
</g>
<!-- Node5&#45;&gt;Node21 -->
<g id="edge26_Node000005_Node000021" class="edge">
<title>Node5&#45;&gt;Node21</title>
<g id="a_edge26_Node000005_Node000021"><a xlink:title=" ">
<path fill="none" stroke="#63b8ff" d="M705.06,-169.08C735.77,-160.84 785.4,-147.39 836.78,-132.7"/>
<polygon fill="#63b8ff" stroke="#63b8ff" points="837.66,-136.09 846.31,-129.97 835.73,-129.36 837.66,-136.09"/>
</a>
</g>
</g>
<!-- Node5&#45;&gt;Node24 -->
<g id="edge32_Node000005_Node000024" class="edge">
<title>Node5&#45;&gt;Node24</title>
<g id="a_edge32_Node000005_Node000024"><a xlink:title=" ">
<path fill="none" stroke="#63b8ff" d="M705.15,-176.18C778.38,-173.73 973.11,-164.64 1143.37,-132.26"/>
<polygon fill="#63b8ff" stroke="#63b8ff" points="1143.91,-135.72 1153.06,-130.38 1142.58,-128.84 1143.91,-135.72"/>
</a>
</g>
</g>
<!-- Node25 -->
<g id="Node000025" class="node">
<title>Node25</title>
<g id="a_Node000025"><a xlink:href="build__number_8h.html" target="_top" xlink:title=" ">
<polygon fill="white" stroke="#666666" points="830.38,-132 748.38,-132 748.38,-112 830.38,-112 830.38,-132"/>
<text text-anchor="middle" x="789.38" y="-118.5" font-family="Helvetica,sans-Serif" font-size="10.00">build_number.h</text>
</a>
</g>
</g>
<!-- Node5&#45;&gt;Node25 -->
<g id="edge33_Node000005_Node000025" class="edge">
<title>Node5&#45;&gt;Node25</title>
<g id="a_edge33_Node000005_Node000025"><a xlink:title=" ">
<path fill="none" stroke="#63b8ff" d="M695.23,-167.59C712.86,-159.24 738.88,-146.92 759.1,-137.34"/>
<polygon fill="#63b8ff" stroke="#63b8ff" points="760.46,-140.57 767.99,-133.13 757.46,-134.25 760.46,-140.57"/>
</a>
</g>
</g>
<!-- Node26 -->
<g id="Node000026" class="node">
<title>Node26</title>
<g id="a_Node000026"><a xlink:href="_lo_ra-_r_p2040_8h.html" target="_top" xlink:title=" ">
<polygon fill="white" stroke="#666666" points="324.38,-132 212.38,-132 212.38,-112 324.38,-112 324.38,-132"/>
<text text-anchor="middle" x="268.38" y="-118.5" font-family="Helvetica,sans-Serif" font-size="10.00">LoRa/LoRa&#45;RP2040.h</text>
</a>
</g>
</g>
<!-- Node5&#45;&gt;Node26 -->
<g id="edge34_Node000005_Node000026" class="edge">
<title>Node5&#45;&gt;Node26</title>
<g id="a_edge34_Node000005_Node000026"><a xlink:title=" ">
<path fill="none" stroke="#63b8ff" d="M645.78,-173.07C581.13,-164.5 425.94,-143.9 335.98,-131.97"/>
<polygon fill="#63b8ff" stroke="#63b8ff" points="336.68,-128.53 326.31,-130.69 335.76,-135.47 336.68,-128.53"/>
</a>
</g>
</g>
<!-- Node11 -->
<g id="Node000011" class="node">
<title>Node11</title>
<g id="a_Node000011"><a xlink:title=" ">
<polygon fill="#e0e0e0" stroke="#999999" points="1042.5,-20 994.25,-20 994.25,0 1042.5,0 1042.5,-20"/>
<text text-anchor="middle" x="1018.38" y="-6.5" font-family="Helvetica,sans-Serif" font-size="10.00">stdint.h</text>
</a>
</g>
</g>
<!-- Node10&#45;&gt;Node11 -->
<g id="edge12_Node000010_Node000011" class="edge">
<title>Node10&#45;&gt;Node11</title>
<g id="a_edge12_Node000010_Node000011"><a xlink:title=" ">
<path fill="none" stroke="#63b8ff" d="M595.99,-61.08C663.57,-53.41 817.78,-35.77 947.38,-20 958.91,-18.6 971.49,-17.02 982.82,-15.58"/>
<polygon fill="#63b8ff" stroke="#63b8ff" points="983.09,-19.07 992.56,-14.33 982.2,-12.13 983.09,-19.07"/>
</a>
</g>
</g>
<!-- Node12&#45;&gt;Node3 -->
<g id="edge19_Node000012_Node000003" class="edge">
<title>Node12&#45;&gt;Node3</title>
<g id="a_edge19_Node000012_Node000003"><a xlink:title=" ">
<path fill="none" stroke="#63b8ff" d="M1077.54,-111.62C1047.49,-92.63 979.19,-49.45 942.6,-26.31"/>
<polygon fill="#63b8ff" stroke="#63b8ff" points="944.77,-23.55 934.45,-21.16 941.03,-29.47 944.77,-23.55"/>
</a>
</g>
</g>
<!-- Node12&#45;&gt;Node6 -->
<g id="edge18_Node000012_Node000006" class="edge">
<title>Node12&#45;&gt;Node6</title>
<g id="a_edge18_Node000012_Node000006"><a xlink:title=" ">
<path fill="none" stroke="#63b8ff" d="M1069.9,-111.59C1048.09,-102.46 1014.93,-88.58 991.4,-78.73"/>
<polygon fill="#63b8ff" stroke="#63b8ff" points="993.01,-75.61 982.43,-74.98 990.3,-82.07 993.01,-75.61"/>
</a>
</g>
</g>
<!-- Node13 -->
<g id="Node000013" class="node">
<title>Node13</title>
<g id="a_Node000013"><a xlink:href="_i_n_a3221_8h.html" target="_top" xlink:title=" ">
<polygon fill="white" stroke="#666666" points="1178.25,-76 1074.5,-76 1074.5,-56 1178.25,-56 1178.25,-76"/>
<text text-anchor="middle" x="1126.38" y="-62.5" font-family="Helvetica,sans-Serif" font-size="10.00">INA3221/INA3221.h</text>
</a>
</g>
</g>
<!-- Node12&#45;&gt;Node13 -->
<g id="edge14_Node000012_Node000013" class="edge">
<title>Node12&#45;&gt;Node13</title>
<g id="a_edge14_Node000012_Node000013"><a xlink:title=" ">
<path fill="none" stroke="#63b8ff" d="M1098.3,-111.59C1102.73,-104.55 1108.95,-94.67 1114.41,-86"/>
<polygon fill="#63b8ff" stroke="#63b8ff" points="1117.35,-87.91 1119.71,-77.58 1111.42,-84.18 1117.35,-87.91"/>
</a>
</g>
</g>
<!-- Node15 -->
<g id="Node000015" class="node">
<title>Node15</title>
<g id="a_Node000015"><a xlink:title=" ">
<polygon fill="#e0e0e0" stroke="#999999" points="1248.25,-20 1168.5,-20 1168.5,0 1248.25,0 1248.25,-20"/>
<text text-anchor="middle" x="1208.38" y="-6.5" font-family="Helvetica,sans-Serif" font-size="10.00">hardware/i2c.h</text>
</a>
</g>
</g>
<!-- Node12&#45;&gt;Node15 -->
<g id="edge20_Node000012_Node000015" class="edge">
<title>Node12&#45;&gt;Node15</title>
<g id="a_edge20_Node000012_Node000015"><a xlink:title=" ">
<path fill="none" stroke="#63b8ff" d="M1128.78,-111.5C1148.58,-104.63 1172.08,-93.42 1187.38,-76 1198.28,-63.58 1203.53,-45.42 1206.06,-31.45"/>
<polygon fill="#63b8ff" stroke="#63b8ff" points="1209.52,-31.98 1207.48,-21.59 1202.59,-30.99 1209.52,-31.98"/>
</a>
</g>
</g>
<!-- Node16 -->
<g id="Node000016" class="node">
<title>Node16</title>
<g id="a_Node000016"><a xlink:title=" ">
<polygon fill="#e0e0e0" stroke="#999999" points="890.62,-76 822.12,-76 822.12,-56 890.62,-56 890.62,-76"/>
<text text-anchor="middle" x="856.38" y="-62.5" font-family="Helvetica,sans-Serif" font-size="10.00">pico/stdlib.h</text>
</a>
</g>
</g>
<!-- Node12&#45;&gt;Node16 -->
<g id="edge21_Node000012_Node000016" class="edge">
<title>Node12&#45;&gt;Node16</title>
<g id="a_edge21_Node000012_Node000016"><a xlink:title=" ">
<path fill="none" stroke="#63b8ff" d="M1051,-111.53C1009.25,-101.98 944.97,-87.27 901.83,-77.4"/>
<polygon fill="#63b8ff" stroke="#63b8ff" points="902.8,-74.03 892.27,-75.21 901.24,-80.86 902.8,-74.03"/>
</a>
</g>
</g>
<!-- Node17 -->
<g id="Node000017" class="node">
<title>Node17</title>
<g id="a_Node000017"><a xlink:title=" ">
<polygon fill="#e0e0e0" stroke="#999999" points="1306.5,-76 1234.25,-76 1234.25,-56 1306.5,-56 1306.5,-76"/>
<text text-anchor="middle" x="1270.38" y="-62.5" font-family="Helvetica,sans-Serif" font-size="10.00">pico/mutex.h</text>
</a>
</g>
</g>
<!-- Node12&#45;&gt;Node17 -->
<g id="edge22_Node000012_Node000017" class="edge">
<title>Node12&#45;&gt;Node17</title>
<g id="a_edge22_Node000012_Node000017"><a xlink:title=" ">
<path fill="none" stroke="#63b8ff" d="M1123.38,-111.59C1152.43,-102.78 1196.07,-89.54 1228.26,-79.78"/>
<polygon fill="#63b8ff" stroke="#63b8ff" points="1229.13,-83.17 1237.68,-76.92 1227.09,-76.47 1229.13,-83.17"/>
</a>
</g>
</g>
<!-- Node13&#45;&gt;Node11 -->
<g id="edge15_Node000013_Node000011" class="edge">
<title>Node13&#45;&gt;Node11</title>
<g id="a_edge15_Node000013_Node000011"><a xlink:title=" ">
<path fill="none" stroke="#63b8ff" d="M1107.56,-55.59C1091.02,-47.32 1066.66,-35.14 1047.58,-25.6"/>
<polygon fill="#63b8ff" stroke="#63b8ff" points="1049.2,-22.5 1038.69,-21.16 1046.07,-28.76 1049.2,-22.5"/>
</a>
</g>
</g>
<!-- Node14 -->
<g id="Node000014" class="node">
<title>Node14</title>
<g id="a_Node000014"><a xlink:title=" ">
<polygon fill="#e0e0e0" stroke="#999999" points="1150.12,-20 1096.62,-20 1096.62,0 1150.12,0 1150.12,-20"/>
<text text-anchor="middle" x="1123.38" y="-6.5" font-family="Helvetica,sans-Serif" font-size="10.00">iostream</text>
</a>
</g>
</g>
<!-- Node13&#45;&gt;Node14 -->
<g id="edge16_Node000013_Node000014" class="edge">
<title>Node13&#45;&gt;Node14</title>
<g id="a_edge16_Node000013_Node000014"><a xlink:title=" ">
<path fill="none" stroke="#63b8ff" d="M1125.85,-55.59C1125.49,-49.01 1124.98,-39.96 1124.53,-31.73"/>
<polygon fill="#63b8ff" stroke="#63b8ff" points="1128.02,-31.6 1123.98,-21.81 1121.04,-31.99 1128.02,-31.6"/>
</a>
</g>
</g>
<!-- Node13&#45;&gt;Node15 -->
<g id="edge17_Node000013_Node000015" class="edge">
<title>Node13&#45;&gt;Node15</title>
<g id="a_edge17_Node000013_Node000015"><a xlink:title=" ">
<path fill="none" stroke="#63b8ff" d="M1140.66,-55.59C1152.81,-47.59 1170.51,-35.93 1184.77,-26.54"/>
<polygon fill="#63b8ff" stroke="#63b8ff" points="1186.29,-29.73 1192.72,-21.31 1182.44,-23.89 1186.29,-29.73"/>
</a>
</g>
</g>
<!-- Node21&#45;&gt;Node3 -->
<g id="edge28_Node000021_Node000003" class="edge">
<title>Node21&#45;&gt;Node3</title>
<g id="a_edge28_Node000021_Node000003"><a xlink:title=" ">
<path fill="none" stroke="#63b8ff" d="M850.69,-111.51C829.4,-99.38 799.27,-77.39 813.38,-56 829.59,-31.42 862.32,-20.21 886.95,-15.14"/>
<polygon fill="#63b8ff" stroke="#63b8ff" points="887.23,-18.64 896.45,-13.43 885.99,-11.75 887.23,-18.64"/>
</a>
</g>
</g>
<!-- Node21&#45;&gt;Node10 -->
<g id="edge31_Node000021_Node000010" class="edge">
<title>Node21&#45;&gt;Node10</title>
<g id="a_edge31_Node000021_Node000010"><a xlink:title=" ">
<path fill="none" stroke="#63b8ff" d="M847.84,-114.17C845,-113.38 842.13,-112.63 839.38,-112 796.02,-102.03 673.83,-83.5 606.79,-73.61"/>
<polygon fill="#63b8ff" stroke="#63b8ff" points="607.64,-70.2 597.24,-72.21 606.62,-77.12 607.64,-70.2"/>
</a>
</g>
</g>
<!-- Node21&#45;&gt;Node16 -->
<g id="edge29_Node000021_Node000016" class="edge">
<title>Node21&#45;&gt;Node16</title>
<g id="a_edge29_Node000021_Node000016"><a xlink:title=" ">
<path fill="none" stroke="#63b8ff" d="M867.11,-111.59C865.51,-104.93 863.3,-95.75 861.3,-87.44"/>
<polygon fill="#63b8ff" stroke="#63b8ff" points="864.71,-86.67 858.97,-77.77 857.91,-88.31 864.71,-86.67"/>
</a>
</g>
</g>
<!-- Node22 -->
<g id="Node000022" class="node">
<title>Node22</title>
<g id="a_Node000022"><a xlink:title=" ">
<polygon fill="#e0e0e0" stroke="#999999" points="395,-20 349.75,-20 349.75,0 395,0 395,-20"/>
<text text-anchor="middle" x="372.38" y="-6.5" font-family="Helvetica,sans-Serif" font-size="10.00">stdio.h</text>
</a>
</g>
</g>
<!-- Node21&#45;&gt;Node22 -->
<g id="edge27_Node000021_Node000022" class="edge">
<title>Node21&#45;&gt;Node22</title>
<g id="a_edge27_Node000021_Node000022"><a xlink:title=" ">
<path fill="none" stroke="#63b8ff" d="M847.8,-114.31C844.98,-113.5 842.11,-112.71 839.38,-112 766.28,-93.14 746.56,-94.52 673.38,-76 642.42,-68.17 635.41,-63.49 604.38,-56 534.63,-39.16 451.91,-24.33 406.49,-16.62"/>
<polygon fill="#63b8ff" stroke="#63b8ff" points="407.18,-13.19 396.74,-14.98 406.02,-20.09 407.18,-13.19"/>
</a>
</g>
</g>
<!-- Node23 -->
<g id="Node000023" class="node">
<title>Node23</title>
<g id="a_Node000023"><a xlink:title=" ">
<polygon fill="#e0e0e0" stroke="#999999" points="766.12,-76 682.62,-76 682.62,-56 766.12,-56 766.12,-76"/>
<text text-anchor="middle" x="724.38" y="-62.5" font-family="Helvetica,sans-Serif" font-size="10.00">hardware/uart.h</text>
</a>
</g>
</g>
<!-- Node21&#45;&gt;Node23 -->
<g id="edge30_Node000021_Node000023" class="edge">
<title>Node21&#45;&gt;Node23</title>
<g id="a_edge30_Node000021_Node000023"><a xlink:title=" ">
<path fill="none" stroke="#63b8ff" d="M847.98,-113.03C824.99,-104.47 788.06,-90.72 760.54,-80.47"/>
<polygon fill="#63b8ff" stroke="#63b8ff" points="761.78,-77.19 751.19,-76.98 759.33,-83.75 761.78,-77.19"/>
</a>
</g>
</g>
<!-- Node26&#45;&gt;Node10 -->
<g id="edge44_Node000026_Node000010" class="edge">
<title>Node26&#45;&gt;Node10</title>
<g id="a_edge44_Node000026_Node000010"><a xlink:title=" ">
<path fill="none" stroke="#63b8ff" d="M319.75,-111.53C375.25,-101.3 462.85,-85.16 515.93,-75.38"/>
<polygon fill="#63b8ff" stroke="#63b8ff" points="516.34,-78.86 525.54,-73.6 515.07,-71.97 516.34,-78.86"/>
</a>
</g>
</g>
<!-- Node26&#45;&gt;Node16 -->
<g id="edge35_Node000026_Node000016" class="edge">
<title>Node26&#45;&gt;Node16</title>
<g id="a_edge35_Node000026_Node000016"><a xlink:title=" ">
<path fill="none" stroke="#63b8ff" d="M324.68,-116.41C418.29,-108.69 611.83,-92.34 775.38,-76 786.78,-74.86 799.08,-73.54 810.56,-72.27"/>
<polygon fill="#63b8ff" stroke="#63b8ff" points="810.65,-75.78 820.2,-71.19 809.87,-68.82 810.65,-75.78"/>
</a>
</g>
</g>
<!-- Node27 -->
<g id="Node000027" class="node">
<title>Node27</title>
<g id="a_Node000027"><a xlink:title=" ">
<polygon fill="#e0e0e0" stroke="#999999" points="325.62,-76 233.12,-76 233.12,-56 325.62,-56 325.62,-76"/>
<text text-anchor="middle" x="279.38" y="-62.5" font-family="Helvetica,sans-Serif" font-size="10.00">pico/binary_info.h</text>
</a>
</g>
</g>
<!-- Node26&#45;&gt;Node27 -->
<g id="edge36_Node000026_Node000027" class="edge">
<title>Node26&#45;&gt;Node27</title>
<g id="a_edge36_Node000026_Node000027"><a xlink:title=" ">
<path fill="none" stroke="#63b8ff" d="M270.29,-111.59C271.65,-104.93 273.52,-95.75 275.21,-87.44"/>
<polygon fill="#63b8ff" stroke="#63b8ff" points="278.61,-88.28 277.18,-77.78 271.75,-86.88 278.61,-88.28"/>
</a>
</g>
</g>
<!-- Node28 -->
<g id="Node000028" class="node">
<title>Node28</title>
<g id="a_Node000028"><a xlink:title=" ">
<polygon fill="#e0e0e0" stroke="#999999" points="428.88,-76 343.88,-76 343.88,-56 428.88,-56 428.88,-76"/>
<text text-anchor="middle" x="386.38" y="-62.5" font-family="Helvetica,sans-Serif" font-size="10.00">hardware/gpio.h</text>
</a>
</g>
</g>
<!-- Node26&#45;&gt;Node28 -->
<g id="edge37_Node000026_Node000028" class="edge">
<title>Node26&#45;&gt;Node28</title>
<g id="a_edge37_Node000026_Node000028"><a xlink:title=" ">
<path fill="none" stroke="#63b8ff" d="M288.93,-111.59C307.26,-103.21 334.36,-90.8 355.33,-81.21"/>
<polygon fill="#63b8ff" stroke="#63b8ff" points="356.65,-84.45 364.28,-77.11 353.73,-78.09 356.65,-84.45"/>
</a>
</g>
</g>
<!-- Node29 -->
<g id="Node000029" class="node">
<title>Node29</title>
<g id="a_Node000029"><a xlink:title=" ">
<polygon fill="#e0e0e0" stroke="#999999" points="149.25,-76 69.5,-76 69.5,-56 149.25,-56 149.25,-76"/>
<text text-anchor="middle" x="109.38" y="-62.5" font-family="Helvetica,sans-Serif" font-size="10.00">hardware/spi.h</text>
</a>
</g>
</g>
<!-- Node26&#45;&gt;Node29 -->
<g id="edge38_Node000026_Node000029" class="edge">
<title>Node26&#45;&gt;Node29</title>
<g id="a_edge38_Node000026_Node000029"><a xlink:title=" ">
<path fill="none" stroke="#63b8ff" d="M240.68,-111.59C215.07,-102.9 176.77,-89.89 148.13,-80.16"/>
<polygon fill="#63b8ff" stroke="#63b8ff" points="149.31,-76.87 138.72,-76.97 147.06,-83.5 149.31,-76.87"/>
</a>
</g>
</g>
<!-- Node30 -->
<g id="Node000030" class="node">
<title>Node30</title>
<g id="a_Node000030"><a xlink:title=" ">
<polygon fill="#e0e0e0" stroke="#999999" points="215.5,-76 167.25,-76 167.25,-56 215.5,-56 215.5,-76"/>
<text text-anchor="middle" x="191.38" y="-62.5" font-family="Helvetica,sans-Serif" font-size="10.00">string.h</text>
</a>
</g>
</g>
<!-- Node26&#45;&gt;Node30 -->
<g id="edge39_Node000026_Node000030" class="edge">
<title>Node26&#45;&gt;Node30</title>
<g id="a_edge39_Node000026_Node000030"><a xlink:title=" ">
<path fill="none" stroke="#63b8ff" d="M254.96,-111.59C243.77,-103.74 227.56,-92.38 214.32,-83.09"/>
<polygon fill="#63b8ff" stroke="#63b8ff" points="216.33,-80.22 206.13,-77.35 212.31,-85.96 216.33,-80.22"/>
</a>
</g>
</g>
<!-- Node31 -->
<g id="Node000031" class="node">
<title>Node31</title>
<g id="a_Node000031"><a xlink:href="_print_8h.html" target="_top" xlink:title=" ">
<polygon fill="white" stroke="#666666" points="51.62,-76 7.12,-76 7.12,-56 51.62,-56 51.62,-76"/>
<text text-anchor="middle" x="29.38" y="-62.5" font-family="Helvetica,sans-Serif" font-size="10.00">Print.h</text>
</a>
</g>
</g>
<!-- Node26&#45;&gt;Node31 -->
<g id="edge40_Node000026_Node000031" class="edge">
<title>Node26&#45;&gt;Node31</title>
<g id="a_edge40_Node000026_Node000031"><a xlink:title=" ">
<path fill="none" stroke="#63b8ff" d="M220.24,-111.57C180.42,-103.56 122.14,-91.31 63.05,-76.55"/>
<polygon fill="#63b8ff" stroke="#63b8ff" points="64.03,-73.19 53.48,-74.14 62.32,-79.98 64.03,-73.19"/>
</a>
</g>
</g>
<!-- Node31&#45;&gt;Node3 -->
<g id="edge43_Node000031_Node000003" class="edge">
<title>Node31&#45;&gt;Node3</title>
<g id="a_edge43_Node000031_Node000003"><a xlink:title=" ">
<path fill="none" stroke="#63b8ff" d="M51.92,-57.8C54.75,-57.1 57.61,-56.47 60.38,-56 224.04,-28.33 751.58,-14.76 886.64,-11.69"/>
<polygon fill="#63b8ff" stroke="#63b8ff" points="886.69,-15.19 896.61,-11.46 886.53,-8.19 886.69,-15.19"/>
</a>
</g>
</g>
<!-- Node31&#45;&gt;Node22 -->
<g id="edge42_Node000031_Node000022" class="edge">
<title>Node31&#45;&gt;Node22</title>
<g id="a_edge42_Node000031_Node000022"><a xlink:title=" ">
<path fill="none" stroke="#63b8ff" d="M51.97,-58.05C54.78,-57.3 57.64,-56.59 60.38,-56 160.25,-34.41 280.41,-20.37 338.14,-14.36"/>
<polygon fill="#63b8ff" stroke="#63b8ff" points="338.38,-17.85 347.97,-13.35 337.67,-10.89 338.38,-17.85"/>
</a>
</g>
</g>
<!-- Node32 -->
<g id="Node000032" class="node">
<title>Node32</title>
<g id="a_Node000032"><a xlink:title=" ">
<polygon fill="#e0e0e0" stroke="#999999" points="58.75,-20 0,-20 0,0 58.75,0 58.75,-20"/>
<text text-anchor="middle" x="29.38" y="-6.5" font-family="Helvetica,sans-Serif" font-size="10.00">inttypes.h</text>
</a>
</g>
</g>
<!-- Node31&#45;&gt;Node32 -->
<g id="edge41_Node000031_Node000032" class="edge">
<title>Node31&#45;&gt;Node32</title>
<g id="a_edge41_Node000031_Node000032"><a xlink:title=" ">
<path fill="none" stroke="#63b8ff" d="M29.38,-55.59C29.38,-49.01 29.38,-39.96 29.38,-31.73"/>
<polygon fill="#63b8ff" stroke="#63b8ff" points="32.88,-31.81 29.38,-21.81 25.88,-31.81 32.88,-31.81"/>
</a>
</g>
</g>
<!-- Node33&#45;&gt;Node3 -->
<g id="edge48_Node000033_Node000003" class="edge">
<title>Node33&#45;&gt;Node3</title>
<g id="a_edge48_Node000033_Node000003"><a xlink:title=" ">
<path fill="none" stroke="#63b8ff" d="M1138.27,-168.65C1179.35,-159.11 1229.91,-140.96 1207.38,-112 1167.39,-60.62 1126.92,-97.24 1065.38,-76 1062.41,-74.98 991.06,-43.31 948.87,-24.56"/>
<polygon fill="#63b8ff" stroke="#63b8ff" points="950.53,-21.47 939.97,-20.6 947.68,-27.86 950.53,-21.47"/>
</a>
</g>
</g>
<!-- Node33&#45;&gt;Node8 -->
<g id="edge47_Node000033_Node000008" class="edge">
<title>Node33&#45;&gt;Node8</title>
<g id="a_edge47_Node000033_Node000008"><a xlink:title=" ">
<path fill="none" stroke="#63b8ff" d="M1077.57,-167.59C1064.97,-159.59 1046.62,-147.93 1031.84,-138.54"/>
<polygon fill="#63b8ff" stroke="#63b8ff" points="1033.89,-135.7 1023.57,-133.29 1030.14,-141.61 1033.89,-135.7"/>
</a>
</g>
</g>
<!-- Node33&#45;&gt;Node12 -->
<g id="edge46_Node000033_Node000012" class="edge">
<title>Node33&#45;&gt;Node12</title>
<g id="a_edge46_Node000033_Node000012"><a xlink:title=" ">
<path fill="none" stroke="#63b8ff" d="M1092.38,-167.59C1092.38,-161.01 1092.38,-151.96 1092.38,-143.73"/>
<polygon fill="#63b8ff" stroke="#63b8ff" points="1095.88,-143.81 1092.38,-133.81 1088.88,-143.81 1095.88,-143.81"/>
</a>
</g>
</g>
<!-- Node33&#45;&gt;Node17 -->
<g id="edge49_Node000033_Node000017" class="edge">
<title>Node33&#45;&gt;Node17</title>
<g id="a_edge49_Node000033_Node000017"><a xlink:title=" ">
<path fill="none" stroke="#63b8ff" d="M1138.2,-172.92C1170.13,-167.92 1211.93,-156.79 1240.38,-132 1253.7,-120.39 1261.48,-101.63 1265.76,-87.23"/>
<polygon fill="#63b8ff" stroke="#63b8ff" points="1269.06,-88.45 1268.2,-77.89 1262.28,-86.69 1269.06,-88.45"/>
</a>
</g>
</g>
<!-- Node34&#45;&gt;Node3 -->
<g id="edge52_Node000034_Node000003" class="edge">
<title>Node34&#45;&gt;Node3</title>
<g id="a_edge52_Node000034_Node000003"><a xlink:title=" ">
<path fill="none" stroke="#63b8ff" d="M1334.65,-111.76C1334.52,-97.4 1331.95,-69.9 1315.38,-56 1258.84,-8.62 1058.6,-28.91 985.38,-20 973.7,-18.58 960.9,-16.89 949.65,-15.36"/>
<polygon fill="#63b8ff" stroke="#63b8ff" points="950.47,-11.94 940.09,-14.05 949.52,-18.88 950.47,-11.94"/>
</a>
</g>
</g>
<!-- Node34&#45;&gt;Node15 -->
<g id="edge55_Node000034_Node000015" class="edge">
<title>Node34&#45;&gt;Node15</title>
<g id="a_edge55_Node000034_Node000015"><a xlink:title=" ">
<path fill="none" stroke="#63b8ff" d="M1340.58,-111.65C1348.72,-98.1 1360.61,-72.79 1348.38,-56 1328.22,-28.35 1290.79,-17.31 1259.7,-13.08"/>
<polygon fill="#63b8ff" stroke="#63b8ff" points="1260.41,-9.64 1250.08,-11.98 1259.62,-16.59 1260.41,-9.64"/>
</a>
</g>
</g>
<!-- Node34&#45;&gt;Node16 -->
<g id="edge54_Node000034_Node000016" class="edge">
<title>Node34&#45;&gt;Node16</title>
<g id="a_edge54_Node000034_Node000016"><a xlink:title=" ">
<path fill="none" stroke="#63b8ff" d="M1304.47,-117.62C1223.46,-108.47 999.31,-83.15 902.21,-72.18"/>
<polygon fill="#63b8ff" stroke="#63b8ff" points="902.85,-68.73 892.52,-71.08 902.06,-75.68 902.85,-68.73"/>
</a>
</g>
</g>
<!-- Node35 -->
<g id="Node000035" class="node">
<title>Node35</title>
<g id="a_Node000035"><a xlink:title=" ">
<polygon fill="#e0e0e0" stroke="#999999" points="1438.25,-76 1400.5,-76 1400.5,-56 1438.25,-56 1438.25,-76"/>
<text text-anchor="middle" x="1419.38" y="-62.5" font-family="Helvetica,sans-Serif" font-size="10.00">array</text>
</a>
</g>
</g>
<!-- Node34&#45;&gt;Node35 -->
<g id="edge53_Node000034_Node000035" class="edge">
<title>Node34&#45;&gt;Node35</title>
<g id="a_edge53_Node000034_Node000035"><a xlink:title=" ">
<path fill="none" stroke="#63b8ff" d="M1349.18,-111.59C1361.78,-103.59 1380.13,-91.93 1394.91,-82.54"/>
<polygon fill="#63b8ff" stroke="#63b8ff" points="1396.61,-85.61 1403.18,-77.29 1392.86,-79.7 1396.61,-85.61"/>
</a>
</g>
</g>
</g>
</svg>
