<?xml version="1.0" encoding="UTF-8" standalone="no"?>
<!DOCTYPE svg PUBLIC "-//W3C//DTD SVG 1.1//EN"
 "http://www.w3.org/Graphics/SVG/1.1/DTD/svg11.dtd">
<!-- Generated by graphviz version 12.2.1 (20241206.2353)
 -->
<!-- Title: lib/comms/commands/clock_commands.cpp Pages: 1 -->
<!--zoomable 320 -->

<svg id="main" version="1.1" xmlns="http://www.w3.org/2000/svg" xmlns:xlink="http://www.w3.org/1999/xlink" xml:space="preserve" onload="init(evt)">

<style type="text/css"><![CDATA[
.node, .edge {opacity: 0.7;}
.node.selected, .edge.selected {opacity: 1;}
.edge:hover path { stroke: red; }
.edge:hover polygon { stroke: red; fill: red; }
]]></style>

<defs>
  <circle id="rim" cx="0" cy="0" r="7"/>
  <circle id="rim2" cx="0" cy="0" r="3.5"/>
  <g id="zoomPlus">
    <use xlink:href="#rim" fill="#404040"><set attributeName="fill" to="#808080" begin="zoomplus.mouseover" end="zoomplus.mouseout"/></use>
    <path d="M-4,0h8M0,-4v8" fill="none" stroke="white" stroke-width="1.5" pointer-events="none"/>
  </g>
  <g id="zoomMin">
    <use xlink:href="#rim" fill="#404040"><set attributeName="fill" to="#808080" begin="zoomminus.mouseover" end="zoomminus.mouseout"/></use>
    <path d="M-4,0h8" fill="none" stroke="white" stroke-width="1.5" pointer-events="none"/>
  </g>
  <g id="arrowUp" transform="translate(30 24)">
    <use xlink:href="#rim"/>
    <path pointer-events="none" fill="none" stroke="white" stroke-width="1.5" d="M0,-3.0v7 M-2.5,-0.5L0,-3.0L2.5,-0.5"/>
  </g>
  <g id="arrowRight" transform="rotate(90) translate(36 -43)">
    <use xlink:href="#rim"/>
    <path pointer-events="none" fill="none" stroke="white" stroke-width="1.5" d="M0,-3.0v7 M-2.5,-0.5L0,-3.0L2.5,-0.5"/>
  </g>
  <g id="arrowDown" transform="rotate(180) translate(-30 -48)">
    <use xlink:href="#rim"/>
    <path pointer-events="none" fill="none" stroke="white" stroke-width="1.5" d="M0,-3.0v7 M-2.5,-0.5L0,-3.0L2.5,-0.5"/>
  </g>
  <g id="arrowLeft" transform="rotate(270) translate(-36 17)">
    <use xlink:href="#rim"/>
    <path pointer-events="none" fill="none" stroke="white" stroke-width="1.5" d="M0,-3.0v7 M-2.5,-0.5L0,-3.0L2.5,-0.5"/>
  </g>
  <g id="resetDef">
    <use xlink:href="#rim2" fill="#404040"><set attributeName="fill" to="#808080" begin="reset.mouseover" end="reset.mouseout"/></use>
  </g>
</defs>
<script type="application/ecmascript">
var viewWidth = 1353;
var viewHeight = 320;
var sectionId = 'dynsection-0';
</script>
<script type="application/ecmascript" xlink:href="svg.min.js"/>
<svg id="graph" class="graph">
<g id="viewport">
<title>lib/comms/commands/clock_commands.cpp</title>
<!-- Node1 -->
<g id="Node000001" class="node">
<title>Node1</title>
<g id="a_Node000001"><a xlink:title=" ">
<polygon fill="#999999" stroke="#666666" points="1174.75,-312 1060.5,-312 1060.5,-280 1174.75,-280 1174.75,-312"/>
<text text-anchor="start" x="1068.5" y="-298.5" font-family="Helvetica,sans-Serif" font-size="10.00">lib/comms/commands</text>
<text text-anchor="middle" x="1117.62" y="-286.5" font-family="Helvetica,sans-Serif" font-size="10.00">/clock_commands.cpp</text>
</a>
</g>
</g>
<!-- Node2 -->
<g id="Node000002" class="node">
<title>Node2</title>
<g id="a_Node000002"><a xlink:href="communication_8h.html" target="_top" xlink:title=" ">
<polygon fill="white" stroke="#666666" points="667.75,-244 577.5,-244 577.5,-224 667.75,-224 667.75,-244"/>
<text text-anchor="middle" x="622.62" y="-230.5" font-family="Helvetica,sans-Serif" font-size="10.00">communication.h</text>
</a>
</g>
</g>
<!-- Node1&#45;&gt;Node2 -->
<g id="edge1_Node000001_Node000002" class="edge">
<title>Node1&#45;&gt;Node2</title>
<g id="a_edge1_Node000001_Node000002"><a xlink:title=" ">
<path fill="none" stroke="#63b8ff" d="M1060.36,-288.06C964.96,-276.5 774.61,-253.42 679.48,-241.89"/>
<polygon fill="#63b8ff" stroke="#63b8ff" points="679.94,-238.42 669.59,-240.69 679.1,-245.37 679.94,-238.42"/>
</a>
</g>
</g>
<!-- Node23 -->
<g id="Node000023" class="node">
<title>Node23</title>
<g id="a_Node000023"><a xlink:title=" ">
<polygon fill="#e0e0e0" stroke="#999999" points="1139.12,-132 1096.12,-132 1096.12,-112 1139.12,-112 1139.12,-132"/>
<text text-anchor="middle" x="1117.62" y="-118.5" font-family="Helvetica,sans-Serif" font-size="10.00">time.h</text>
</a>
</g>
</g>
<!-- Node1&#45;&gt;Node23 -->
<g id="edge49_Node000001_Node000023" class="edge">
<title>Node1&#45;&gt;Node23</title>
<g id="a_edge49_Node000001_Node000023"><a xlink:title=" ">
<path fill="none" stroke="#63b8ff" d="M1117.62,-279.74C1117.62,-248.69 1117.62,-178.18 1117.62,-143.31"/>
<polygon fill="#63b8ff" stroke="#63b8ff" points="1121.13,-143.72 1117.63,-133.72 1114.13,-143.72 1121.13,-143.72"/>
</a>
</g>
</g>
<!-- Node34 -->
<g id="Node000034" class="node">
<title>Node34</title>
<g id="a_Node000034"><a xlink:href="_d_s3231_8h.html" target="_top" xlink:title=" ">
<polygon fill="white" stroke="#666666" points="1345.38,-132 1285.88,-132 1285.88,-112 1345.38,-112 1345.38,-132"/>
<text text-anchor="middle" x="1315.62" y="-118.5" font-family="Helvetica,sans-Serif" font-size="10.00">DS3231.h</text>
</a>
</g>
</g>
<!-- Node1&#45;&gt;Node34 -->
<g id="edge50_Node000001_Node000034" class="edge">
<title>Node1&#45;&gt;Node34</title>
<g id="a_edge50_Node000001_Node000034"><a xlink:title=" ">
<path fill="none" stroke="#63b8ff" d="M1135.2,-279.74C1172.35,-247.46 1258.58,-172.55 1296.81,-139.35"/>
<polygon fill="#63b8ff" stroke="#63b8ff" points="1298.63,-142.4 1303.88,-133.2 1294.04,-137.12 1298.63,-142.4"/>
</a>
</g>
</g>
<!-- Node3 -->
<g id="Node000003" class="node">
<title>Node3</title>
<g id="a_Node000003"><a xlink:title=" ">
<polygon fill="#e0e0e0" stroke="#999999" points="928.62,-20 888.62,-20 888.62,0 928.62,0 928.62,-20"/>
<text text-anchor="middle" x="908.62" y="-6.5" font-family="Helvetica,sans-Serif" font-size="10.00">string</text>
</a>
</g>
</g>
<!-- Node2&#45;&gt;Node3 -->
<g id="edge2_Node000002_Node000003" class="edge">
<title>Node2&#45;&gt;Node3</title>
<g id="a_edge2_Node000002_Node000003"><a xlink:title=" ">
<path fill="none" stroke="#63b8ff" d="M577.45,-231.37C448.76,-225.63 91.34,-201.58 120.62,-112 130.21,-82.68 134.55,-70.77 161.62,-56 225.08,-21.38 742.76,-12.94 876.95,-11.33"/>
<polygon fill="#63b8ff" stroke="#63b8ff" points="876.9,-14.83 886.86,-11.22 876.82,-7.83 876.9,-14.83"/>
</a>
</g>
</g>
<!-- Node4 -->
<g id="Node000004" class="node">
<title>Node4</title>
<g id="a_Node000004"><a xlink:title=" ">
<polygon fill="#e0e0e0" stroke="#999999" points="173.12,-132 130.12,-132 130.12,-112 173.12,-112 173.12,-132"/>
<text text-anchor="middle" x="151.62" y="-118.5" font-family="Helvetica,sans-Serif" font-size="10.00">vector</text>
</a>
</g>
</g>
<!-- Node2&#45;&gt;Node4 -->
<g id="edge3_Node000002_Node000004" class="edge">
<title>Node2&#45;&gt;Node4</title>
<g id="a_edge3_Node000002_Node000004"><a xlink:title=" ">
<path fill="none" stroke="#63b8ff" d="M577.45,-223.52C499.37,-206.94 333.99,-170.97 184.34,-132.33"/>
<polygon fill="#63b8ff" stroke="#63b8ff" points="185.62,-129.05 175.06,-129.93 183.86,-135.82 185.62,-129.05"/>
</a>
</g>
</g>
<!-- Node5 -->
<g id="Node000005" class="node">
<title>Node5</title>
<g id="a_Node000005"><a xlink:href="protocol_8h.html" target="_top" xlink:title=" ">
<polygon fill="white" stroke="#666666" points="652,-188 593.25,-188 593.25,-168 652,-168 652,-188"/>
<text text-anchor="middle" x="622.62" y="-174.5" font-family="Helvetica,sans-Serif" font-size="10.00">protocol.h</text>
</a>
</g>
</g>
<!-- Node2&#45;&gt;Node5 -->
<g id="edge4_Node000002_Node000005" class="edge">
<title>Node2&#45;&gt;Node5</title>
<g id="a_edge4_Node000002_Node000005"><a xlink:title=" ">
<path fill="none" stroke="#63b8ff" d="M622.62,-223.59C622.62,-217.01 622.62,-207.96 622.62,-199.73"/>
<polygon fill="#63b8ff" stroke="#63b8ff" points="626.13,-199.81 622.63,-189.81 619.13,-199.81 626.13,-199.81"/>
</a>
</g>
</g>
<!-- Node32 -->
<g id="Node000032" class="node">
<title>Node32</title>
<g id="a_Node000032"><a xlink:href="event__manager_8h.html" target="_top" xlink:title=" ">
<polygon fill="white" stroke="#666666" points="1079.12,-188 988.12,-188 988.12,-168 1079.12,-168 1079.12,-188"/>
<text text-anchor="middle" x="1033.62" y="-174.5" font-family="Helvetica,sans-Serif" font-size="10.00">event_manager.h</text>
</a>
</g>
</g>
<!-- Node2&#45;&gt;Node32 -->
<g id="edge44_Node000002_Node000032" class="edge">
<title>Node2&#45;&gt;Node32</title>
<g id="a_edge44_Node000002_Node000032"><a xlink:title=" ">
<path fill="none" stroke="#63b8ff" d="M668.18,-227.01C743.56,-217.11 894.07,-197.34 976.46,-186.51"/>
<polygon fill="#63b8ff" stroke="#63b8ff" points="976.91,-189.98 986.37,-185.21 976,-183.04 976.91,-189.98"/>
</a>
</g>
</g>
<!-- Node5&#45;&gt;Node3 -->
<g id="edge5_Node000005_Node000003" class="edge">
<title>Node5&#45;&gt;Node3</title>
<g id="a_edge5_Node000005_Node000003"><a xlink:title=" ">
<path fill="none" stroke="#63b8ff" d="M652.19,-174.3C691.76,-169.8 763.37,-158.47 818.62,-132 854.87,-114.64 867.14,-109.31 889.62,-76 898.69,-62.57 903.5,-44.76 906.01,-31.18"/>
<polygon fill="#63b8ff" stroke="#63b8ff" points="909.42,-32.06 907.49,-21.64 902.5,-30.99 909.42,-32.06"/>
</a>
</g>
</g>
<!-- Node5&#45;&gt;Node4 -->
<g id="edge8_Node000005_Node000004" class="edge">
<title>Node5&#45;&gt;Node4</title>
<g id="a_edge8_Node000005_Node000004"><a xlink:title=" ">
<path fill="none" stroke="#63b8ff" d="M593,-175.82C523.33,-172.65 343.57,-162.19 184.45,-132"/>
<polygon fill="#63b8ff" stroke="#63b8ff" points="185.49,-128.64 175.01,-130.17 184.16,-135.51 185.49,-128.64"/>
</a>
</g>
</g>
<!-- Node6 -->
<g id="Node000006" class="node">
<title>Node6</title>
<g id="a_Node000006"><a xlink:title=" ">
<polygon fill="#e0e0e0" stroke="#999999" points="989,-76 954.25,-76 954.25,-56 989,-56 989,-76"/>
<text text-anchor="middle" x="971.62" y="-62.5" font-family="Helvetica,sans-Serif" font-size="10.00">map</text>
</a>
</g>
</g>
<!-- Node5&#45;&gt;Node6 -->
<g id="edge6_Node000005_Node000006" class="edge">
<title>Node5&#45;&gt;Node6</title>
<g id="a_edge6_Node000005_Node000006"><a xlink:title=" ">
<path fill="none" stroke="#63b8ff" d="M652.3,-175.57C700.38,-172.42 797.61,-162.49 873.62,-132 903.15,-120.15 933.05,-98.64 951.92,-83.63"/>
<polygon fill="#63b8ff" stroke="#63b8ff" points="954.01,-86.44 959.55,-77.4 949.59,-81.01 954.01,-86.44"/>
</a>
</g>
</g>
<!-- Node7 -->
<g id="Node000007" class="node">
<title>Node7</title>
<g id="a_Node000007"><a xlink:title=" ">
<polygon fill="#e0e0e0" stroke="#999999" points="309.62,-132 251.62,-132 251.62,-112 309.62,-112 309.62,-132"/>
<text text-anchor="middle" x="280.62" y="-118.5" font-family="Helvetica,sans-Serif" font-size="10.00">functional</text>
</a>
</g>
</g>
<!-- Node5&#45;&gt;Node7 -->
<g id="edge7_Node000005_Node000007" class="edge">
<title>Node5&#45;&gt;Node7</title>
<g id="a_edge7_Node000005_Node000007"><a xlink:title=" ">
<path fill="none" stroke="#63b8ff" d="M593.14,-173.49C540.53,-167.04 426.82,-152.28 321.21,-132.36"/>
<polygon fill="#63b8ff" stroke="#63b8ff" points="322,-128.95 311.52,-130.51 320.68,-135.82 322,-128.95"/>
</a>
</g>
</g>
<!-- Node8 -->
<g id="Node000008" class="node">
<title>Node8</title>
<g id="a_Node000008"><a xlink:title=" ">
<polygon fill="#e0e0e0" stroke="#999999" points="971.25,-132 926,-132 926,-112 971.25,-112 971.25,-132"/>
<text text-anchor="middle" x="948.62" y="-118.5" font-family="Helvetica,sans-Serif" font-size="10.00">cstdint</text>
</a>
</g>
</g>
<!-- Node5&#45;&gt;Node8 -->
<g id="edge9_Node000005_Node000008" class="edge">
<title>Node5&#45;&gt;Node8</title>
<g id="a_edge9_Node000005_Node000008"><a xlink:title=" ">
<path fill="none" stroke="#63b8ff" d="M652.31,-173.22C704.84,-166.34 817.5,-150.74 911.62,-132 912.62,-131.8 913.62,-131.6 914.64,-131.38"/>
<polygon fill="#63b8ff" stroke="#63b8ff" points="915.13,-134.86 924.12,-129.25 913.6,-128.03 915.13,-134.86"/>
</a>
</g>
</g>
<!-- Node9 -->
<g id="Node000009" class="node">
<title>Node9</title>
<g id="a_Node000009"><a xlink:title=" ">
<polygon fill="#e0e0e0" stroke="#999999" points="377.5,-132 327.75,-132 327.75,-112 377.5,-112 377.5,-132"/>
<text text-anchor="middle" x="352.62" y="-118.5" font-family="Helvetica,sans-Serif" font-size="10.00">iomanip</text>
</a>
</g>
</g>
<!-- Node5&#45;&gt;Node9 -->
<g id="edge10_Node000005_Node000009" class="edge">
<title>Node5&#45;&gt;Node9</title>
<g id="a_edge10_Node000005_Node000009"><a xlink:title=" ">
<path fill="none" stroke="#63b8ff" d="M593.05,-172.05C550.23,-164.73 468.24,-150.17 388.99,-132.41"/>
<polygon fill="#63b8ff" stroke="#63b8ff" points="389.83,-129.01 379.3,-130.22 388.28,-135.84 389.83,-129.01"/>
</a>
</g>
</g>
<!-- Node10 -->
<g id="Node000010" class="node">
<title>Node10</title>
<g id="a_Node000010"><a xlink:href="pin__config_8h.html" target="_top" xlink:title=" ">
<polygon fill="white" stroke="#666666" points="728.88,-76 660.38,-76 660.38,-56 728.88,-56 728.88,-76"/>
<text text-anchor="middle" x="694.62" y="-62.5" font-family="Helvetica,sans-Serif" font-size="10.00">pin_config.h</text>
</a>
</g>
</g>
<!-- Node5&#45;&gt;Node10 -->
<g id="edge11_Node000005_Node000010" class="edge">
<title>Node5&#45;&gt;Node10</title>
<g id="a_edge11_Node000005_Node000010"><a xlink:title=" ">
<path fill="none" stroke="#63b8ff" d="M652.25,-173.96C698.45,-168.53 784.29,-155.49 802.62,-132 808.1,-124.99 807.56,-119.4 802.62,-112 794.97,-100.52 765.05,-88.56 738.64,-79.86"/>
<polygon fill="#63b8ff" stroke="#63b8ff" points="740.02,-76.63 729.43,-76.92 737.89,-83.29 740.02,-76.63"/>
</a>
</g>
</g>
<!-- Node12 -->
<g id="Node000012" class="node">
<title>Node12</title>
<g id="a_Node000012"><a xlink:href="_power_manager_8h.html" target="_top" xlink:title=" ">
<polygon fill="white" stroke="#666666" points="1078.38,-132 988.88,-132 988.88,-112 1078.38,-112 1078.38,-132"/>
<text text-anchor="middle" x="1033.62" y="-118.5" font-family="Helvetica,sans-Serif" font-size="10.00">PowerManager.h</text>
</a>
</g>
</g>
<!-- Node5&#45;&gt;Node12 -->
<g id="edge13_Node000005_Node000012" class="edge">
<title>Node5&#45;&gt;Node12</title>
<g id="a_edge13_Node000005_Node000012"><a xlink:title=" ">
<path fill="none" stroke="#63b8ff" d="M652.39,-173.7C712.1,-166.98 851,-150.88 977.51,-132.41"/>
<polygon fill="#63b8ff" stroke="#63b8ff" points="977.66,-135.93 987.04,-131.01 976.64,-129 977.66,-135.93"/>
</a>
</g>
</g>
<!-- Node17 -->
<g id="Node000017" class="node">
<title>Node17</title>
<g id="a_Node000017"><a xlink:title=" ">
<polygon fill="#e0e0e0" stroke="#999999" points="437.75,-132 395.5,-132 395.5,-112 437.75,-112 437.75,-132"/>
<text text-anchor="middle" x="416.62" y="-118.5" font-family="Helvetica,sans-Serif" font-size="10.00">cstdio</text>
</a>
</g>
</g>
<!-- Node5&#45;&gt;Node17 -->
<g id="edge22_Node000005_Node000017" class="edge">
<title>Node5&#45;&gt;Node17</title>
<g id="a_edge22_Node000005_Node000017"><a xlink:title=" ">
<path fill="none" stroke="#63b8ff" d="M592.94,-169.81C560,-161.74 505.01,-148.01 449.05,-132.6"/>
<polygon fill="#63b8ff" stroke="#63b8ff" points="450.25,-129.3 439.68,-130 448.38,-136.04 450.25,-129.3"/>
</a>
</g>
</g>
<!-- Node18 -->
<g id="Node000018" class="node">
<title>Node18</title>
<g id="a_Node000018"><a xlink:title=" ">
<polygon fill="#e0e0e0" stroke="#999999" points="499.88,-132 455.38,-132 455.38,-112 499.88,-112 499.88,-132"/>
<text text-anchor="middle" x="477.62" y="-118.5" font-family="Helvetica,sans-Serif" font-size="10.00">cstdlib</text>
</a>
</g>
</g>
<!-- Node5&#45;&gt;Node18 -->
<g id="edge23_Node000005_Node000018" class="edge">
<title>Node5&#45;&gt;Node18</title>
<g id="a_edge23_Node000005_Node000018"><a xlink:title=" ">
<path fill="none" stroke="#63b8ff" d="M597.37,-167.59C573.37,-158.66 537.14,-145.17 510.82,-135.36"/>
<polygon fill="#63b8ff" stroke="#63b8ff" points="512.22,-132.15 501.63,-131.94 509.78,-138.71 512.22,-132.15"/>
</a>
</g>
</g>
<!-- Node19 -->
<g id="Node000019" class="node">
<title>Node19</title>
<g id="a_Node000019"><a xlink:title=" ">
<polygon fill="#e0e0e0" stroke="#999999" points="563.25,-132 518,-132 518,-112 563.25,-112 563.25,-132"/>
<text text-anchor="middle" x="540.62" y="-118.5" font-family="Helvetica,sans-Serif" font-size="10.00">cstring</text>
</a>
</g>
</g>
<!-- Node5&#45;&gt;Node19 -->
<g id="edge24_Node000005_Node000019" class="edge">
<title>Node5&#45;&gt;Node19</title>
<g id="a_edge24_Node000005_Node000019"><a xlink:title=" ">
<path fill="none" stroke="#63b8ff" d="M608.34,-167.59C596.19,-159.59 578.49,-147.93 564.23,-138.54"/>
<polygon fill="#63b8ff" stroke="#63b8ff" points="566.56,-135.89 556.28,-133.31 562.71,-141.73 566.56,-135.89"/>
</a>
</g>
</g>
<!-- Node20 -->
<g id="Node000020" class="node">
<title>Node20</title>
<g id="a_Node000020"><a xlink:href="utils_8h.html" target="_top" xlink:title=" ">
<polygon fill="white" stroke="#666666" points="233.75,-132 191.5,-132 191.5,-112 233.75,-112 233.75,-132"/>
<text text-anchor="middle" x="212.62" y="-118.5" font-family="Helvetica,sans-Serif" font-size="10.00">utils.h</text>
</a>
</g>
</g>
<!-- Node5&#45;&gt;Node20 -->
<g id="edge25_Node000005_Node000020" class="edge">
<title>Node5&#45;&gt;Node20</title>
<g id="a_edge25_Node000005_Node000020"><a xlink:title=" ">
<path fill="none" stroke="#63b8ff" d="M592.78,-175.23C530,-171.14 379.63,-159.38 245.04,-132.19"/>
<polygon fill="#63b8ff" stroke="#63b8ff" points="246.12,-128.84 235.62,-130.25 244.71,-135.69 246.12,-128.84"/>
</a>
</g>
</g>
<!-- Node5&#45;&gt;Node23 -->
<g id="edge31_Node000005_Node000023" class="edge">
<title>Node5&#45;&gt;Node23</title>
<g id="a_edge31_Node000005_Node000023"><a xlink:title=" ">
<path fill="none" stroke="#63b8ff" d="M652.29,-176.13C724.76,-173.59 916.59,-164.31 1084.51,-132.28"/>
<polygon fill="#63b8ff" stroke="#63b8ff" points="1085.16,-135.72 1094.31,-130.38 1083.82,-128.85 1085.16,-135.72"/>
</a>
</g>
</g>
<!-- Node24 -->
<g id="Node000024" class="node">
<title>Node24</title>
<g id="a_Node000024"><a xlink:href="build__number_8h.html" target="_top" xlink:title=" ">
<polygon fill="white" stroke="#666666" points="663.62,-132 581.62,-132 581.62,-112 663.62,-112 663.62,-132"/>
<text text-anchor="middle" x="622.62" y="-118.5" font-family="Helvetica,sans-Serif" font-size="10.00">build_number.h</text>
</a>
</g>
</g>
<!-- Node5&#45;&gt;Node24 -->
<g id="edge32_Node000005_Node000024" class="edge">
<title>Node5&#45;&gt;Node24</title>
<g id="a_edge32_Node000005_Node000024"><a xlink:title=" ">
<path fill="none" stroke="#63b8ff" d="M622.62,-167.59C622.62,-161.01 622.62,-151.96 622.62,-143.73"/>
<polygon fill="#63b8ff" stroke="#63b8ff" points="626.13,-143.81 622.63,-133.81 619.13,-143.81 626.13,-143.81"/>
</a>
</g>
</g>
<!-- Node25 -->
<g id="Node000025" class="node">
<title>Node25</title>
<g id="a_Node000025"><a xlink:href="_lo_ra-_r_p2040_8h.html" target="_top" xlink:title=" ">
<polygon fill="white" stroke="#666666" points="793.62,-132 681.62,-132 681.62,-112 793.62,-112 793.62,-132"/>
<text text-anchor="middle" x="737.62" y="-118.5" font-family="Helvetica,sans-Serif" font-size="10.00">LoRa/LoRa&#45;RP2040.h</text>
</a>
</g>
</g>
<!-- Node5&#45;&gt;Node25 -->
<g id="edge33_Node000005_Node000025" class="edge">
<title>Node5&#45;&gt;Node25</title>
<g id="a_edge33_Node000005_Node000025"><a xlink:title=" ">
<path fill="none" stroke="#63b8ff" d="M642.66,-167.59C660.44,-159.24 686.69,-146.92 707.09,-137.34"/>
<polygon fill="#63b8ff" stroke="#63b8ff" points="708.5,-140.54 716.07,-133.12 705.53,-134.21 708.5,-140.54"/>
</a>
</g>
</g>
<!-- Node11 -->
<g id="Node000011" class="node">
<title>Node11</title>
<g id="a_Node000011"><a xlink:title=" ">
<polygon fill="#e0e0e0" stroke="#999999" points="1067.75,-20 1019.5,-20 1019.5,0 1067.75,0 1067.75,-20"/>
<text text-anchor="middle" x="1043.62" y="-6.5" font-family="Helvetica,sans-Serif" font-size="10.00">stdint.h</text>
</a>
</g>
</g>
<!-- Node10&#45;&gt;Node11 -->
<g id="edge12_Node000010_Node000011" class="edge">
<title>Node10&#45;&gt;Node11</title>
<g id="a_edge12_Node000010_Node000011"><a xlink:title=" ">
<path fill="none" stroke="#63b8ff" d="M729.32,-57.55C732.13,-57.01 734.92,-56.48 737.62,-56 835.1,-38.65 950.9,-22.95 1008.07,-15.52"/>
<polygon fill="#63b8ff" stroke="#63b8ff" points="1008.38,-19.01 1017.85,-14.26 1007.48,-12.07 1008.38,-19.01"/>
</a>
</g>
</g>
<!-- Node12&#45;&gt;Node3 -->
<g id="edge19_Node000012_Node000003" class="edge">
<title>Node12&#45;&gt;Node3</title>
<g id="a_edge19_Node000012_Node000003"><a xlink:title=" ">
<path fill="none" stroke="#63b8ff" d="M1030.58,-111.93C1025.6,-98.27 1014.54,-72.29 997.62,-56 981.23,-40.21 958.2,-28.77 939.68,-21.38"/>
<polygon fill="#63b8ff" stroke="#63b8ff" points="941.11,-18.18 930.52,-17.93 938.64,-24.73 941.11,-18.18"/>
</a>
</g>
</g>
<!-- Node12&#45;&gt;Node6 -->
<g id="edge18_Node000012_Node000006" class="edge">
<title>Node12&#45;&gt;Node6</title>
<g id="a_edge18_Node000012_Node000006"><a xlink:title=" ">
<path fill="none" stroke="#63b8ff" d="M1022.83,-111.59C1014.02,-103.93 1001.37,-92.91 990.85,-83.75"/>
<polygon fill="#63b8ff" stroke="#63b8ff" points="993.28,-81.22 983.44,-77.29 988.68,-86.5 993.28,-81.22"/>
</a>
</g>
</g>
<!-- Node13 -->
<g id="Node000013" class="node">
<title>Node13</title>
<g id="a_Node000013"><a xlink:href="_i_n_a3221_8h.html" target="_top" xlink:title=" ">
<polygon fill="white" stroke="#666666" points="1238.5,-76 1134.75,-76 1134.75,-56 1238.5,-56 1238.5,-76"/>
<text text-anchor="middle" x="1186.62" y="-62.5" font-family="Helvetica,sans-Serif" font-size="10.00">INA3221/INA3221.h</text>
</a>
</g>
</g>
<!-- Node12&#45;&gt;Node13 -->
<g id="edge14_Node000012_Node000013" class="edge">
<title>Node12&#45;&gt;Node13</title>
<g id="a_edge14_Node000012_Node000013"><a xlink:title=" ">
<path fill="none" stroke="#63b8ff" d="M1060.28,-111.59C1084.81,-102.94 1121.45,-90 1148.97,-80.29"/>
<polygon fill="#63b8ff" stroke="#63b8ff" points="1150.07,-83.61 1158.34,-76.98 1147.74,-77.01 1150.07,-83.61"/>
</a>
</g>
</g>
<!-- Node15 -->
<g id="Node000015" class="node">
<title>Node15</title>
<g id="a_Node000015"><a xlink:title=" ">
<polygon fill="#e0e0e0" stroke="#999999" points="1308.5,-20 1228.75,-20 1228.75,0 1308.5,0 1308.5,-20"/>
<text text-anchor="middle" x="1268.62" y="-6.5" font-family="Helvetica,sans-Serif" font-size="10.00">hardware/i2c.h</text>
</a>
</g>
</g>
<!-- Node12&#45;&gt;Node15 -->
<g id="edge20_Node000012_Node000015" class="edge">
<title>Node12&#45;&gt;Node15</title>
<g id="a_edge20_Node000012_Node000015"><a xlink:title=" ">
<path fill="none" stroke="#63b8ff" d="M1078.86,-112.68C1139.77,-101.31 1241.33,-81.67 1247.62,-76 1260.17,-64.71 1265.26,-45.89 1267.3,-31.39"/>
<polygon fill="#63b8ff" stroke="#63b8ff" points="1270.77,-31.87 1268.28,-21.57 1263.8,-31.18 1270.77,-31.87"/>
</a>
</g>
</g>
<!-- Node16 -->
<g id="Node000016" class="node">
<title>Node16</title>
<g id="a_Node000016"><a xlink:title=" ">
<polygon fill="#e0e0e0" stroke="#999999" points="880.88,-76 812.38,-76 812.38,-56 880.88,-56 880.88,-76"/>
<text text-anchor="middle" x="846.62" y="-62.5" font-family="Helvetica,sans-Serif" font-size="10.00">pico/stdlib.h</text>
</a>
</g>
</g>
<!-- Node12&#45;&gt;Node16 -->
<g id="edge21_Node000012_Node000016" class="edge">
<title>Node12&#45;&gt;Node16</title>
<g id="a_edge21_Node000012_Node000016"><a xlink:title=" ">
<path fill="none" stroke="#63b8ff" d="M1001.05,-111.59C970.4,-102.74 924.28,-89.43 890.42,-79.65"/>
<polygon fill="#63b8ff" stroke="#63b8ff" points="891.48,-76.31 880.91,-76.9 889.54,-83.04 891.48,-76.31"/>
</a>
</g>
</g>
<!-- Node13&#45;&gt;Node11 -->
<g id="edge15_Node000013_Node000011" class="edge">
<title>Node13&#45;&gt;Node11</title>
<g id="a_edge15_Node000013_Node000011"><a xlink:title=" ">
<path fill="none" stroke="#63b8ff" d="M1161.72,-55.59C1138.75,-46.92 1104.43,-33.96 1078.69,-24.24"/>
<polygon fill="#63b8ff" stroke="#63b8ff" points="1080.26,-21.09 1069.66,-20.83 1077.78,-27.64 1080.26,-21.09"/>
</a>
</g>
</g>
<!-- Node14 -->
<g id="Node000014" class="node">
<title>Node14</title>
<g id="a_Node000014"><a xlink:title=" ">
<polygon fill="#e0e0e0" stroke="#999999" points="1210.38,-20 1156.88,-20 1156.88,0 1210.38,0 1210.38,-20"/>
<text text-anchor="middle" x="1183.62" y="-6.5" font-family="Helvetica,sans-Serif" font-size="10.00">iostream</text>
</a>
</g>
</g>
<!-- Node13&#45;&gt;Node14 -->
<g id="edge16_Node000013_Node000014" class="edge">
<title>Node13&#45;&gt;Node14</title>
<g id="a_edge16_Node000013_Node000014"><a xlink:title=" ">
<path fill="none" stroke="#63b8ff" d="M1186.1,-55.59C1185.74,-49.01 1185.23,-39.96 1184.78,-31.73"/>
<polygon fill="#63b8ff" stroke="#63b8ff" points="1188.27,-31.6 1184.23,-21.81 1181.29,-31.99 1188.27,-31.6"/>
</a>
</g>
</g>
<!-- Node13&#45;&gt;Node15 -->
<g id="edge17_Node000013_Node000015" class="edge">
<title>Node13&#45;&gt;Node15</title>
<g id="a_edge17_Node000013_Node000015"><a xlink:title=" ">
<path fill="none" stroke="#63b8ff" d="M1200.91,-55.59C1213.06,-47.59 1230.76,-35.93 1245.02,-26.54"/>
<polygon fill="#63b8ff" stroke="#63b8ff" points="1246.54,-29.73 1252.97,-21.31 1242.69,-23.89 1246.54,-29.73"/>
</a>
</g>
</g>
<!-- Node20&#45;&gt;Node3 -->
<g id="edge27_Node000020_Node000003" class="edge">
<title>Node20&#45;&gt;Node3</title>
<g id="a_edge27_Node000020_Node000003"><a xlink:title=" ">
<path fill="none" stroke="#63b8ff" d="M226.46,-111.66C249.16,-96.88 296.24,-68.5 340.62,-56 442.86,-27.21 773.27,-15.06 877.09,-11.89"/>
<polygon fill="#63b8ff" stroke="#63b8ff" points="876.93,-15.39 886.82,-11.6 876.72,-8.4 876.93,-15.39"/>
</a>
</g>
</g>
<!-- Node20&#45;&gt;Node10 -->
<g id="edge30_Node000020_Node000010" class="edge">
<title>Node20&#45;&gt;Node10</title>
<g id="a_edge30_Node000020_Node000010"><a xlink:title=" ">
<path fill="none" stroke="#63b8ff" d="M234.12,-113.98C236.96,-113.22 239.85,-112.53 242.62,-112 418.25,-78.29 469.09,-101.76 648.78,-76.25"/>
<polygon fill="#63b8ff" stroke="#63b8ff" points="649.06,-79.75 658.46,-74.84 648.06,-72.82 649.06,-79.75"/>
</a>
</g>
</g>
<!-- Node20&#45;&gt;Node16 -->
<g id="edge28_Node000020_Node000016" class="edge">
<title>Node20&#45;&gt;Node16</title>
<g id="a_edge28_Node000020_Node000016"><a xlink:title=" ">
<path fill="none" stroke="#63b8ff" d="M234.11,-113.92C236.95,-113.17 239.84,-112.5 242.62,-112 484.93,-68.47 554.04,-108.47 800.84,-76.18"/>
<polygon fill="#63b8ff" stroke="#63b8ff" points="801.02,-79.69 810.46,-74.9 800.09,-72.75 801.02,-79.69"/>
</a>
</g>
</g>
<!-- Node21 -->
<g id="Node000021" class="node">
<title>Node21</title>
<g id="a_Node000021"><a xlink:title=" ">
<polygon fill="#e0e0e0" stroke="#999999" points="45.25,-20 0,-20 0,0 45.25,0 45.25,-20"/>
<text text-anchor="middle" x="22.62" y="-6.5" font-family="Helvetica,sans-Serif" font-size="10.00">stdio.h</text>
</a>
</g>
</g>
<!-- Node20&#45;&gt;Node21 -->
<g id="edge26_Node000020_Node000021" class="edge">
<title>Node20&#45;&gt;Node21</title>
<g id="a_edge26_Node000020_Node000021"><a xlink:title=" ">
<path fill="none" stroke="#63b8ff" d="M191.3,-114.72C188.07,-113.79 184.76,-112.86 181.62,-112 119.66,-95.04 87.79,-120.68 41.62,-76 29.73,-64.49 25.17,-45.99 23.48,-31.66"/>
<polygon fill="#63b8ff" stroke="#63b8ff" points="26.99,-31.63 22.73,-21.93 20.01,-32.17 26.99,-31.63"/>
</a>
</g>
</g>
<!-- Node22 -->
<g id="Node000022" class="node">
<title>Node22</title>
<g id="a_Node000022"><a xlink:title=" ">
<polygon fill="#e0e0e0" stroke="#999999" points="254.38,-76 170.88,-76 170.88,-56 254.38,-56 254.38,-76"/>
<text text-anchor="middle" x="212.62" y="-62.5" font-family="Helvetica,sans-Serif" font-size="10.00">hardware/uart.h</text>
</a>
</g>
</g>
<!-- Node20&#45;&gt;Node22 -->
<g id="edge29_Node000020_Node000022" class="edge">
<title>Node20&#45;&gt;Node22</title>
<g id="a_edge29_Node000020_Node000022"><a xlink:title=" ">
<path fill="none" stroke="#63b8ff" d="M212.62,-111.59C212.62,-105.01 212.62,-95.96 212.62,-87.73"/>
<polygon fill="#63b8ff" stroke="#63b8ff" points="216.13,-87.81 212.63,-77.81 209.13,-87.81 216.13,-87.81"/>
</a>
</g>
</g>
<!-- Node25&#45;&gt;Node10 -->
<g id="edge43_Node000025_Node000010" class="edge">
<title>Node25&#45;&gt;Node10</title>
<g id="a_edge43_Node000025_Node000010"><a xlink:title=" ">
<path fill="none" stroke="#63b8ff" d="M730.13,-111.59C724.34,-104.32 716.14,-94.02 709.08,-85.15"/>
<polygon fill="#63b8ff" stroke="#63b8ff" points="711.94,-83.12 702.97,-77.48 706.46,-87.49 711.94,-83.12"/>
</a>
</g>
</g>
<!-- Node25&#45;&gt;Node16 -->
<g id="edge34_Node000025_Node000016" class="edge">
<title>Node25&#45;&gt;Node16</title>
<g id="a_edge34_Node000025_Node000016"><a xlink:title=" ">
<path fill="none" stroke="#63b8ff" d="M756.61,-111.59C773.39,-103.28 798.12,-91.03 817.41,-81.47"/>
<polygon fill="#63b8ff" stroke="#63b8ff" points="818.73,-84.73 826.13,-77.15 815.62,-78.45 818.73,-84.73"/>
</a>
</g>
</g>
<!-- Node26 -->
<g id="Node000026" class="node">
<title>Node26</title>
<g id="a_Node000026"><a xlink:title=" ">
<polygon fill="#e0e0e0" stroke="#999999" points="441.88,-76 349.38,-76 349.38,-56 441.88,-56 441.88,-76"/>
<text text-anchor="middle" x="395.62" y="-62.5" font-family="Helvetica,sans-Serif" font-size="10.00">pico/binary_info.h</text>
</a>
</g>
</g>
<!-- Node25&#45;&gt;Node26 -->
<g id="edge35_Node000025_Node000026" class="edge">
<title>Node25&#45;&gt;Node26</title>
<g id="a_edge35_Node000025_Node000026"><a xlink:title=" ">
<path fill="none" stroke="#63b8ff" d="M681.24,-112.27C625.79,-103.66 538.4,-90.03 453.31,-76.42"/>
<polygon fill="#63b8ff" stroke="#63b8ff" points="454.05,-73 443.63,-74.87 452.95,-79.91 454.05,-73"/>
</a>
</g>
</g>
<!-- Node27 -->
<g id="Node000027" class="node">
<title>Node27</title>
<g id="a_Node000027"><a xlink:title=" ">
<polygon fill="#e0e0e0" stroke="#999999" points="545.12,-76 460.12,-76 460.12,-56 545.12,-56 545.12,-76"/>
<text text-anchor="middle" x="502.62" y="-62.5" font-family="Helvetica,sans-Serif" font-size="10.00">hardware/gpio.h</text>
</a>
</g>
</g>
<!-- Node25&#45;&gt;Node27 -->
<g id="edge36_Node000025_Node000027" class="edge">
<title>Node25&#45;&gt;Node27</title>
<g id="a_edge36_Node000025_Node000027"><a xlink:title=" ">
<path fill="none" stroke="#63b8ff" d="M696.42,-111.53C657.03,-102.48 597.48,-88.8 554.79,-78.99"/>
<polygon fill="#63b8ff" stroke="#63b8ff" points="555.79,-75.62 545.26,-76.8 554.22,-82.45 555.79,-75.62"/>
</a>
</g>
</g>
<!-- Node28 -->
<g id="Node000028" class="node">
<title>Node28</title>
<g id="a_Node000028"><a xlink:title=" ">
<polygon fill="#e0e0e0" stroke="#999999" points="642.5,-76 562.75,-76 562.75,-56 642.5,-56 642.5,-76"/>
<text text-anchor="middle" x="602.62" y="-62.5" font-family="Helvetica,sans-Serif" font-size="10.00">hardware/spi.h</text>
</a>
</g>
</g>
<!-- Node25&#45;&gt;Node28 -->
<g id="edge37_Node000025_Node000028" class="edge">
<title>Node25&#45;&gt;Node28</title>
<g id="a_edge37_Node000025_Node000028"><a xlink:title=" ">
<path fill="none" stroke="#63b8ff" d="M714.11,-111.59C692.75,-103.05 660.99,-90.35 636.83,-80.68"/>
<polygon fill="#63b8ff" stroke="#63b8ff" points="638.31,-77.51 627.73,-77.04 635.71,-84.01 638.31,-77.51"/>
</a>
</g>
</g>
<!-- Node29 -->
<g id="Node000029" class="node">
<title>Node29</title>
<g id="a_Node000029"><a xlink:title=" ">
<polygon fill="#e0e0e0" stroke="#999999" points="794.75,-76 746.5,-76 746.5,-56 794.75,-56 794.75,-76"/>
<text text-anchor="middle" x="770.62" y="-62.5" font-family="Helvetica,sans-Serif" font-size="10.00">string.h</text>
</a>
</g>
</g>
<!-- Node25&#45;&gt;Node29 -->
<g id="edge38_Node000025_Node000029" class="edge">
<title>Node25&#45;&gt;Node29</title>
<g id="a_edge38_Node000025_Node000029"><a xlink:title=" ">
<path fill="none" stroke="#63b8ff" d="M743.37,-111.59C747.68,-104.55 753.72,-94.67 759.01,-86"/>
<polygon fill="#63b8ff" stroke="#63b8ff" points="761.93,-87.95 764.15,-77.59 755.95,-84.3 761.93,-87.95"/>
</a>
</g>
</g>
<!-- Node30 -->
<g id="Node000030" class="node">
<title>Node30</title>
<g id="a_Node000030"><a xlink:href="_print_8h.html" target="_top" xlink:title=" ">
<polygon fill="white" stroke="#666666" points="94.88,-76 50.38,-76 50.38,-56 94.88,-56 94.88,-76"/>
<text text-anchor="middle" x="72.62" y="-62.5" font-family="Helvetica,sans-Serif" font-size="10.00">Print.h</text>
</a>
</g>
</g>
<!-- Node25&#45;&gt;Node30 -->
<g id="edge39_Node000025_Node000030" class="edge">
<title>Node25&#45;&gt;Node30</title>
<g id="a_edge39_Node000025_Node000030"><a xlink:title=" ">
<path fill="none" stroke="#63b8ff" d="M681.28,-112.96C678.36,-112.62 675.46,-112.3 672.62,-112 446.18,-88.37 388.47,-95.46 161.62,-76 143.45,-74.44 123.21,-72.42 106.63,-70.68"/>
<polygon fill="#63b8ff" stroke="#63b8ff" points="107.1,-67.21 96.79,-69.64 106.37,-74.18 107.1,-67.21"/>
</a>
</g>
</g>
<!-- Node30&#45;&gt;Node3 -->
<g id="edge42_Node000030_Node000003" class="edge">
<title>Node30&#45;&gt;Node3</title>
<g id="a_edge42_Node000030_Node000003"><a xlink:title=" ">
<path fill="none" stroke="#63b8ff" d="M95.35,-58.63C99.72,-57.6 104.29,-56.66 108.62,-56 404.94,-11.04 769.12,-9.88 877.07,-10.65"/>
<polygon fill="#63b8ff" stroke="#63b8ff" points="876.84,-14.14 886.87,-10.73 876.9,-7.14 876.84,-14.14"/>
</a>
</g>
</g>
<!-- Node30&#45;&gt;Node21 -->
<g id="edge41_Node000030_Node000021" class="edge">
<title>Node30&#45;&gt;Node21</title>
<g id="a_edge41_Node000030_Node000021"><a xlink:title=" ">
<path fill="none" stroke="#63b8ff" d="M63.92,-55.59C57.03,-48.16 47.23,-37.58 38.91,-28.58"/>
<polygon fill="#63b8ff" stroke="#63b8ff" points="41.63,-26.37 32.26,-21.41 36.49,-31.12 41.63,-26.37"/>
</a>
</g>
</g>
<!-- Node31 -->
<g id="Node000031" class="node">
<title>Node31</title>
<g id="a_Node000031"><a xlink:title=" ">
<polygon fill="#e0e0e0" stroke="#999999" points="122,-20 63.25,-20 63.25,0 122,0 122,-20"/>
<text text-anchor="middle" x="92.62" y="-6.5" font-family="Helvetica,sans-Serif" font-size="10.00">inttypes.h</text>
</a>
</g>
</g>
<!-- Node30&#45;&gt;Node31 -->
<g id="edge40_Node000030_Node000031" class="edge">
<title>Node30&#45;&gt;Node31</title>
<g id="a_edge40_Node000030_Node000031"><a xlink:title=" ">
<path fill="none" stroke="#63b8ff" d="M76.11,-55.59C78.63,-48.78 82.14,-39.32 85.27,-30.86"/>
<polygon fill="#63b8ff" stroke="#63b8ff" points="88.46,-32.31 88.66,-21.72 81.9,-29.88 88.46,-32.31"/>
</a>
</g>
</g>
<!-- Node32&#45;&gt;Node3 -->
<g id="edge47_Node000032_Node000003" class="edge">
<title>Node32&#45;&gt;Node3</title>
<g id="a_edge47_Node000032_Node000003"><a xlink:title=" ">
<path fill="none" stroke="#63b8ff" d="M1079.26,-169.21C1119.42,-160.18 1168.63,-142.49 1148.62,-112 1136.46,-93.45 1001.86,-43.97 939.72,-21.9"/>
<polygon fill="#63b8ff" stroke="#63b8ff" points="941.03,-18.65 930.44,-18.61 938.7,-25.25 941.03,-18.65"/>
</a>
</g>
</g>
<!-- Node32&#45;&gt;Node8 -->
<g id="edge46_Node000032_Node000008" class="edge">
<title>Node32&#45;&gt;Node8</title>
<g id="a_edge46_Node000032_Node000008"><a xlink:title=" ">
<path fill="none" stroke="#63b8ff" d="M1018.82,-167.59C1006.22,-159.59 987.87,-147.93 973.09,-138.54"/>
<polygon fill="#63b8ff" stroke="#63b8ff" points="975.14,-135.7 964.82,-133.29 971.39,-141.61 975.14,-135.7"/>
</a>
</g>
</g>
<!-- Node32&#45;&gt;Node12 -->
<g id="edge45_Node000032_Node000012" class="edge">
<title>Node32&#45;&gt;Node12</title>
<g id="a_edge45_Node000032_Node000012"><a xlink:title=" ">
<path fill="none" stroke="#63b8ff" d="M1033.62,-167.59C1033.62,-161.01 1033.62,-151.96 1033.62,-143.73"/>
<polygon fill="#63b8ff" stroke="#63b8ff" points="1037.13,-143.81 1033.63,-133.81 1030.13,-143.81 1037.13,-143.81"/>
</a>
</g>
</g>
<!-- Node33 -->
<g id="Node000033" class="node">
<title>Node33</title>
<g id="a_Node000033"><a xlink:title=" ">
<polygon fill="#e0e0e0" stroke="#999999" points="1267.75,-132 1195.5,-132 1195.5,-112 1267.75,-112 1267.75,-132"/>
<text text-anchor="middle" x="1231.62" y="-118.5" font-family="Helvetica,sans-Serif" font-size="10.00">pico/mutex.h</text>
</a>
</g>
</g>
<!-- Node32&#45;&gt;Node33 -->
<g id="edge48_Node000032_Node000033" class="edge">
<title>Node32&#45;&gt;Node33</title>
<g id="a_edge48_Node000032_Node000033"><a xlink:title=" ">
<path fill="none" stroke="#63b8ff" d="M1068.11,-167.59C1100.85,-158.67 1150.25,-145.19 1186.18,-135.39"/>
<polygon fill="#63b8ff" stroke="#63b8ff" points="1186.68,-138.89 1195.41,-132.88 1184.84,-132.13 1186.68,-138.89"/>
</a>
</g>
</g>
<!-- Node34&#45;&gt;Node3 -->
<g id="edge51_Node000034_Node000003" class="edge">
<title>Node34&#45;&gt;Node3</title>
<g id="a_edge51_Node000034_Node000003"><a xlink:title=" ">
<path fill="none" stroke="#63b8ff" d="M1285.77,-114.1C1234.21,-102.15 1133.23,-78.64 1125.62,-76 1105.71,-69.09 1102.47,-63.11 1082.62,-56 1033.94,-38.55 975.35,-24.83 940.09,-17.33"/>
<polygon fill="#63b8ff" stroke="#63b8ff" points="941.07,-13.95 930.56,-15.33 939.63,-20.81 941.07,-13.95"/>
</a>
</g>
</g>
<!-- Node34&#45;&gt;Node15 -->
<g id="edge54_Node000034_Node000015" class="edge">
<title>Node34&#45;&gt;Node15</title>
<g id="a_edge54_Node000034_Node000015"><a xlink:title=" ">
<path fill="none" stroke="#63b8ff" d="M1324.33,-111.84C1335.48,-98.94 1352.17,-74.89 1341.62,-56 1333.99,-42.33 1320.31,-32.29 1306.83,-25.21"/>
<polygon fill="#63b8ff" stroke="#63b8ff" points="1308.57,-22.17 1298.04,-21.02 1305.56,-28.48 1308.57,-22.17"/>
</a>
</g>
</g>
<!-- Node34&#45;&gt;Node16 -->
<g id="edge53_Node000034_Node000016" class="edge">
<title>Node34&#45;&gt;Node16</title>
<g id="a_edge53_Node000034_Node000016"><a xlink:title=" ">
<path fill="none" stroke="#63b8ff" d="M1285.46,-113.66C1282.49,-113.05 1279.5,-112.48 1276.62,-112 1239.42,-105.78 995.55,-81.59 892.48,-71.48"/>
<polygon fill="#63b8ff" stroke="#63b8ff" points="893.01,-68.01 882.72,-70.52 892.33,-74.98 893.01,-68.01"/>
</a>
</g>
</g>
<!-- Node35 -->
<g id="Node000035" class="node">
<title>Node35</title>
<g id="a_Node000035"><a xlink:title=" ">
<polygon fill="#e0e0e0" stroke="#999999" points="1332.5,-76 1294.75,-76 1294.75,-56 1332.5,-56 1332.5,-76"/>
<text text-anchor="middle" x="1313.62" y="-62.5" font-family="Helvetica,sans-Serif" font-size="10.00">array</text>
</a>
</g>
</g>
<!-- Node34&#45;&gt;Node35 -->
<g id="edge52_Node000034_Node000035" class="edge">
<title>Node34&#45;&gt;Node35</title>
<g id="a_edge52_Node000034_Node000035"><a xlink:title=" ">
<path fill="none" stroke="#63b8ff" d="M1315.28,-111.59C1315.03,-105.01 1314.7,-95.96 1314.39,-87.73"/>
<polygon fill="#63b8ff" stroke="#63b8ff" points="1317.89,-87.67 1314.03,-77.81 1310.9,-87.93 1317.89,-87.67"/>
</a>
</g>
</g>
</g>
</svg>

<g id="navigator" transform="translate(0 0)" fill="#404254">
  <rect fill="#f2f5e9" fill-opacity="0.5" stroke="#606060" stroke-width=".5" x="0" y="0" width="60" height="60"/>
  <use id="zoomplus" xlink:href="#zoomPlus" x="17" y="9" onmousedown="handleZoom(evt,'in')"/>
  <use id="zoomminus" xlink:href="#zoomMin" x="42" y="9" onmousedown="handleZoom(evt,'out')"/>
  <use id="reset" xlink:href="#resetDef" x="30" y="36" onmousedown="handleReset()"/>
   <use id="arrowup" xlink:href="#arrowUp" x="0" y="0" onmousedown="handlePan(0,-1)"/>
  <use id="arrowright" xlink:href="#arrowRight" x="0" y="0" onmousedown="handlePan(1,0)"/>
  <use id="arrowdown" xlink:href="#arrowDown" x="0" y="0" onmousedown="handlePan(0,1)"/>
  <use id="arrowleft" xlink:href="#arrowLeft" x="0" y="0" onmousedown="handlePan(-1,0)"/>
</g>
<svg viewBox="0 0 15 15" width="100%" height="30px" preserveAspectRatio="xMaxYMin meet">
 <g id="arrow_out" transform="scale(0.3 0.3)">
  <a xlink:href="clock__commands_8cpp__incl_org.svg" target="_base">
   <rect id="button" ry="5" rx="5" y="6" x="6" height="38" width="38"
        fill="#f2f5e9" fill-opacity="0.5" stroke="#606060" stroke-width="1.0"/>
   <path id="arrow"
     d="M 11.500037,31.436501 C 11.940474,20.09759 22.043105,11.32322 32.158766,21.979434 L 37.068811,17.246167 C 37.068811,17.246167 37.088388,32 37.088388,32 L 22.160133,31.978069 C 22.160133,31.978069 26.997745,27.140456 26.997745,27.140456 C 18.528582,18.264221 13.291696,25.230495 11.500037,31.436501 z"
     style="fill:#404040;"/>
  </a>
 </g>
</svg>

<style type='text/css'>
<![CDATA[
[data-mouse-over-selected='false'] { opacity: 0.7; }
[data-mouse-over-selected='true']  { opacity: 1.0; }
]]>
</style>
<script type="application/ecmascript"><![CDATA[
document.addEventListener('DOMContentLoaded', (event) => {
  highlightEdges();
  highlightAdjacentNodes();
});
]]></script>
</svg>
