<?xml version="1.0" encoding="UTF-8" standalone="no"?>
<!DOCTYPE svg PUBLIC "-//W3C//DTD SVG 1.1//EN"
 "http://www.w3.org/Graphics/SVG/1.1/DTD/svg11.dtd">
<!-- Generated by graphviz version 12.2.1 (20241206.2353)
 -->
<!-- Title: lib/comms/commands/commands.h Pages: 1 -->
<!--zoomable 264 -->

<svg id="main" version="1.1" xmlns="http://www.w3.org/2000/svg" xmlns:xlink="http://www.w3.org/1999/xlink" xml:space="preserve" onload="init(evt)">

<style type="text/css"><![CDATA[
.node, .edge {opacity: 0.7;}
.node.selected, .edge.selected {opacity: 1;}
.edge:hover path { stroke: red; }
.edge:hover polygon { stroke: red; fill: red; }
]]></style>

<defs>
  <circle id="rim" cx="0" cy="0" r="7"/>
  <circle id="rim2" cx="0" cy="0" r="3.5"/>
  <g id="zoomPlus">
    <use xlink:href="#rim" fill="#404040"><set attributeName="fill" to="#808080" begin="zoomplus.mouseover" end="zoomplus.mouseout"/></use>
    <path d="M-4,0h8M0,-4v8" fill="none" stroke="white" stroke-width="1.5" pointer-events="none"/>
  </g>
  <g id="zoomMin">
    <use xlink:href="#rim" fill="#404040"><set attributeName="fill" to="#808080" begin="zoomminus.mouseover" end="zoomminus.mouseout"/></use>
    <path d="M-4,0h8" fill="none" stroke="white" stroke-width="1.5" pointer-events="none"/>
  </g>
  <g id="arrowUp" transform="translate(30 24)">
    <use xlink:href="#rim"/>
    <path pointer-events="none" fill="none" stroke="white" stroke-width="1.5" d="M0,-3.0v7 M-2.5,-0.5L0,-3.0L2.5,-0.5"/>
  </g>
  <g id="arrowRight" transform="rotate(90) translate(36 -43)">
    <use xlink:href="#rim"/>
    <path pointer-events="none" fill="none" stroke="white" stroke-width="1.5" d="M0,-3.0v7 M-2.5,-0.5L0,-3.0L2.5,-0.5"/>
  </g>
  <g id="arrowDown" transform="rotate(180) translate(-30 -48)">
    <use xlink:href="#rim"/>
    <path pointer-events="none" fill="none" stroke="white" stroke-width="1.5" d="M0,-3.0v7 M-2.5,-0.5L0,-3.0L2.5,-0.5"/>
  </g>
  <g id="arrowLeft" transform="rotate(270) translate(-36 17)">
    <use xlink:href="#rim"/>
    <path pointer-events="none" fill="none" stroke="white" stroke-width="1.5" d="M0,-3.0v7 M-2.5,-0.5L0,-3.0L2.5,-0.5"/>
  </g>
  <g id="resetDef">
    <use xlink:href="#rim2" fill="#404040"><set attributeName="fill" to="#808080" begin="reset.mouseover" end="reset.mouseout"/></use>
  </g>
</defs>
<script type="application/ecmascript">
var viewWidth = 1285;
var viewHeight = 264;
var sectionId = 'dynsection-0';
</script>
<script type="application/ecmascript" xlink:href="svg.min.js"/>
<svg id="graph" class="graph">
<g id="viewport">
<title>lib/comms/commands/commands.h</title>
<!-- Node1 -->
<g id="Node000001" class="node">
<title>Node1</title>
<g id="a_Node000001"><a xlink:title=" ">
<polygon fill="#999999" stroke="#666666" points="929.12,-256 817.12,-256 817.12,-224 929.12,-224 929.12,-256"/>
<text text-anchor="start" x="825.12" y="-242.5" font-family="Helvetica,sans-Serif" font-size="10.00">lib/comms/commands</text>
<text text-anchor="middle" x="873.12" y="-230.5" font-family="Helvetica,sans-Serif" font-size="10.00">/commands.h</text>
</a>
</g>
</g>
<!-- Node2 -->
<g id="Node000002" class="node">
<title>Node2</title>
<g id="a_Node000002"><a xlink:title=" ">
<polygon fill="#e0e0e0" stroke="#999999" points="810.12,-20 770.12,-20 770.12,0 810.12,0 810.12,-20"/>
<text text-anchor="middle" x="790.12" y="-6.5" font-family="Helvetica,sans-Serif" font-size="10.00">string</text>
</a>
</g>
</g>
<!-- Node1&#45;&gt;Node2 -->
<g id="edge1_Node000001_Node000002" class="edge">
<title>Node1&#45;&gt;Node2</title>
<g id="a_edge1_Node000001_Node000002"><a xlink:title=" ">
<path fill="none" stroke="#63b8ff" d="M897.41,-223.7C945.56,-191.5 1044.57,-114.86 997.12,-56 975.45,-29.1 874.11,-17.45 821.7,-13.15"/>
<polygon fill="#63b8ff" stroke="#63b8ff" points="822.16,-9.67 811.92,-12.39 821.62,-16.65 822.16,-9.67"/>
</a>
</g>
</g>
<!-- Node3 -->
<g id="Node000003" class="node">
<title>Node3</title>
<g id="a_Node000003"><a xlink:title=" ">
<polygon fill="#e0e0e0" stroke="#999999" points="195.12,-132 137.12,-132 137.12,-112 195.12,-112 195.12,-132"/>
<text text-anchor="middle" x="166.12" y="-118.5" font-family="Helvetica,sans-Serif" font-size="10.00">functional</text>
</a>
</g>
</g>
<!-- Node1&#45;&gt;Node3 -->
<g id="edge2_Node000001_Node000003" class="edge">
<title>Node1&#45;&gt;Node3</title>
<g id="a_edge2_Node000001_Node000003"><a xlink:title=" ">
<path fill="none" stroke="#63b8ff" d="M816.93,-231.44C703.39,-215.87 438.43,-177.95 206.55,-132.37"/>
<polygon fill="#63b8ff" stroke="#63b8ff" points="207.51,-128.99 197.02,-130.49 206.15,-135.86 207.51,-128.99"/>
</a>
</g>
</g>
<!-- Node4 -->
<g id="Node000004" class="node">
<title>Node4</title>
<g id="a_Node000004"><a xlink:title=" ">
<polygon fill="#e0e0e0" stroke="#999999" points="1276.5,-76 1241.75,-76 1241.75,-56 1276.5,-56 1276.5,-76"/>
<text text-anchor="middle" x="1259.12" y="-62.5" font-family="Helvetica,sans-Serif" font-size="10.00">map</text>
</a>
</g>
</g>
<!-- Node1&#45;&gt;Node4 -->
<g id="edge3_Node000001_Node000004" class="edge">
<title>Node1&#45;&gt;Node4</title>
<g id="a_edge3_Node000001_Node000004"><a xlink:title=" ">
<path fill="none" stroke="#63b8ff" d="M929.62,-231.87C1000.51,-220.62 1123.19,-193.38 1209.12,-132 1225.93,-120 1239.74,-100.73 1248.56,-86.29"/>
<polygon fill="#63b8ff" stroke="#63b8ff" points="1251.55,-88.1 1253.53,-77.69 1245.49,-84.59 1251.55,-88.1"/>
</a>
</g>
</g>
<!-- Node5 -->
<g id="Node000005" class="node">
<title>Node5</title>
<g id="a_Node000005"><a xlink:href="protocol_8h.html" target="_top" xlink:title=" ">
<polygon fill="white" stroke="#666666" points="716.5,-188 657.75,-188 657.75,-168 716.5,-168 716.5,-188"/>
<text text-anchor="middle" x="687.12" y="-174.5" font-family="Helvetica,sans-Serif" font-size="10.00">protocol.h</text>
</a>
</g>
</g>
<!-- Node1&#45;&gt;Node5 -->
<g id="edge4_Node000001_Node000005" class="edge">
<title>Node1&#45;&gt;Node5</title>
<g id="a_edge4_Node000001_Node000005"><a xlink:title=" ">
<path fill="none" stroke="#63b8ff" d="M825.23,-223.55C794.91,-213.77 756.17,-201.27 727.43,-192"/>
<polygon fill="#63b8ff" stroke="#63b8ff" points="728.6,-188.7 718,-188.96 726.45,-195.36 728.6,-188.7"/>
</a>
</g>
</g>
<!-- Node5&#45;&gt;Node2 -->
<g id="edge5_Node000005_Node000002" class="edge">
<title>Node5&#45;&gt;Node2</title>
<g id="a_edge5_Node000005_Node000002"><a xlink:title=" ">
<path fill="none" stroke="#63b8ff" d="M657.46,-177.46C586.28,-177.85 408.95,-174.46 372.12,-132 366.3,-125.28 366.63,-118.98 372.12,-112 396.51,-81.02 665.26,-32.4 758.5,-16.34"/>
<polygon fill="#63b8ff" stroke="#63b8ff" points="758.95,-19.81 768.22,-14.68 757.77,-12.92 758.95,-19.81"/>
</a>
</g>
</g>
<!-- Node5&#45;&gt;Node3 -->
<g id="edge7_Node000005_Node000003" class="edge">
<title>Node5&#45;&gt;Node3</title>
<g id="a_edge7_Node000005_Node000003"><a xlink:title=" ">
<path fill="none" stroke="#63b8ff" d="M657.26,-175.67C582.82,-172.05 382.91,-160.44 206.8,-132.22"/>
<polygon fill="#63b8ff" stroke="#63b8ff" points="207.43,-128.78 197,-130.63 206.3,-135.69 207.43,-128.78"/>
</a>
</g>
</g>
<!-- Node5&#45;&gt;Node4 -->
<g id="edge6_Node000005_Node000004" class="edge">
<title>Node5&#45;&gt;Node4</title>
<g id="a_edge6_Node000005_Node000004"><a xlink:title=" ">
<path fill="none" stroke="#63b8ff" d="M716.88,-176.51C809.82,-174.62 1093.59,-166.14 1178.12,-132 1204.12,-121.5 1228.42,-99.78 1243.49,-84.34"/>
<polygon fill="#63b8ff" stroke="#63b8ff" points="1245.9,-86.89 1250.21,-77.21 1240.8,-82.09 1245.9,-86.89"/>
</a>
</g>
</g>
<!-- Node6 -->
<g id="Node000006" class="node">
<title>Node6</title>
<g id="a_Node000006"><a xlink:title=" ">
<polygon fill="#e0e0e0" stroke="#999999" points="424.62,-132 381.62,-132 381.62,-112 424.62,-112 424.62,-132"/>
<text text-anchor="middle" x="403.12" y="-118.5" font-family="Helvetica,sans-Serif" font-size="10.00">vector</text>
</a>
</g>
</g>
<!-- Node5&#45;&gt;Node6 -->
<g id="edge8_Node000005_Node000006" class="edge">
<title>Node5&#45;&gt;Node6</title>
<g id="a_edge8_Node000005_Node000006"><a xlink:title=" ">
<path fill="none" stroke="#63b8ff" d="M657.56,-172.9C611.96,-166.34 521.52,-152.35 436.19,-132.52"/>
<polygon fill="#63b8ff" stroke="#63b8ff" points="437.01,-129.12 426.47,-130.23 435.4,-135.93 437.01,-129.12"/>
</a>
</g>
</g>
<!-- Node7 -->
<g id="Node000007" class="node">
<title>Node7</title>
<g id="a_Node000007"><a xlink:title=" ">
<polygon fill="#e0e0e0" stroke="#999999" points="487.75,-132 442.5,-132 442.5,-112 487.75,-112 487.75,-132"/>
<text text-anchor="middle" x="465.12" y="-118.5" font-family="Helvetica,sans-Serif" font-size="10.00">cstdint</text>
</a>
</g>
</g>
<!-- Node5&#45;&gt;Node7 -->
<g id="edge9_Node000005_Node000007" class="edge">
<title>Node5&#45;&gt;Node7</title>
<g id="a_edge9_Node000005_Node000007"><a xlink:title=" ">
<path fill="none" stroke="#63b8ff" d="M657.41,-170.37C622.06,-162.38 560.99,-148.33 499.28,-132.48"/>
<polygon fill="#63b8ff" stroke="#63b8ff" points="500.19,-129.1 489.63,-129.98 498.44,-135.87 500.19,-129.1"/>
</a>
</g>
</g>
<!-- Node8 -->
<g id="Node000008" class="node">
<title>Node8</title>
<g id="a_Node000008"><a xlink:title=" ">
<polygon fill="#e0e0e0" stroke="#999999" points="556,-132 506.25,-132 506.25,-112 556,-112 556,-132"/>
<text text-anchor="middle" x="531.12" y="-118.5" font-family="Helvetica,sans-Serif" font-size="10.00">iomanip</text>
</a>
</g>
</g>
<!-- Node5&#45;&gt;Node8 -->
<g id="edge10_Node000005_Node000008" class="edge">
<title>Node5&#45;&gt;Node8</title>
<g id="a_edge10_Node000005_Node000008"><a xlink:title=" ">
<path fill="none" stroke="#63b8ff" d="M659.95,-167.59C634.21,-158.68 595.39,-145.25 567.1,-135.45"/>
<polygon fill="#63b8ff" stroke="#63b8ff" points="568.46,-132.22 557.87,-132.26 566.17,-138.84 568.46,-132.22"/>
</a>
</g>
</g>
<!-- Node9 -->
<g id="Node000009" class="node">
<title>Node9</title>
<g id="a_Node000009"><a xlink:href="pin__config_8h.html" target="_top" xlink:title=" ">
<polygon fill="white" stroke="#666666" points="988.38,-76 919.88,-76 919.88,-56 988.38,-56 988.38,-76"/>
<text text-anchor="middle" x="954.12" y="-62.5" font-family="Helvetica,sans-Serif" font-size="10.00">pin_config.h</text>
</a>
</g>
</g>
<!-- Node5&#45;&gt;Node9 -->
<g id="edge11_Node000005_Node000009" class="edge">
<title>Node5&#45;&gt;Node9</title>
<g id="a_edge11_Node000005_Node000009"><a xlink:title=" ">
<path fill="none" stroke="#63b8ff" d="M716.9,-176.96C783.16,-176.16 939.5,-170.18 972.12,-132 983.27,-118.96 975.77,-99.57 967.31,-85.36"/>
<polygon fill="#63b8ff" stroke="#63b8ff" points="970.48,-83.8 962.07,-77.36 964.62,-87.64 970.48,-83.8"/>
</a>
</g>
</g>
<!-- Node11 -->
<g id="Node000011" class="node">
<title>Node11</title>
<g id="a_Node000011"><a xlink:href="_power_manager_8h.html" target="_top" xlink:title=" ">
<polygon fill="white" stroke="#666666" points="1168.88,-132 1079.38,-132 1079.38,-112 1168.88,-112 1168.88,-132"/>
<text text-anchor="middle" x="1124.12" y="-118.5" font-family="Helvetica,sans-Serif" font-size="10.00">PowerManager.h</text>
</a>
</g>
</g>
<!-- Node5&#45;&gt;Node11 -->
<g id="edge13_Node000005_Node000011" class="edge">
<title>Node5&#45;&gt;Node11</title>
<g id="a_edge13_Node000005_Node000011"><a xlink:title=" ">
<path fill="none" stroke="#63b8ff" d="M716.82,-173.33C788.92,-164.42 974.21,-141.53 1067.98,-129.94"/>
<polygon fill="#63b8ff" stroke="#63b8ff" points="1068.22,-133.43 1077.71,-128.73 1067.36,-126.49 1068.22,-133.43"/>
</a>
</g>
</g>
<!-- Node16 -->
<g id="Node000016" class="node">
<title>Node16</title>
<g id="a_Node000016"><a xlink:title=" ">
<polygon fill="#e0e0e0" stroke="#999999" points="616.25,-132 574,-132 574,-112 616.25,-112 616.25,-132"/>
<text text-anchor="middle" x="595.12" y="-118.5" font-family="Helvetica,sans-Serif" font-size="10.00">cstdio</text>
</a>
</g>
</g>
<!-- Node5&#45;&gt;Node16 -->
<g id="edge22_Node000005_Node000016" class="edge">
<title>Node5&#45;&gt;Node16</title>
<g id="a_edge22_Node000005_Node000016"><a xlink:title=" ">
<path fill="none" stroke="#63b8ff" d="M671.1,-167.59C657.33,-159.51 637.22,-147.71 621.15,-138.27"/>
<polygon fill="#63b8ff" stroke="#63b8ff" points="622.98,-135.29 612.58,-133.25 619.43,-141.33 622.98,-135.29"/>
</a>
</g>
</g>
<!-- Node17 -->
<g id="Node000017" class="node">
<title>Node17</title>
<g id="a_Node000017"><a xlink:title=" ">
<polygon fill="#e0e0e0" stroke="#999999" points="678.38,-132 633.88,-132 633.88,-112 678.38,-112 678.38,-132"/>
<text text-anchor="middle" x="656.12" y="-118.5" font-family="Helvetica,sans-Serif" font-size="10.00">cstdlib</text>
</a>
</g>
</g>
<!-- Node5&#45;&gt;Node17 -->
<g id="edge23_Node000005_Node000017" class="edge">
<title>Node5&#45;&gt;Node17</title>
<g id="a_edge23_Node000005_Node000017"><a xlink:title=" ">
<path fill="none" stroke="#63b8ff" d="M681.73,-167.59C677.68,-160.55 672.01,-150.67 667.03,-142"/>
<polygon fill="#63b8ff" stroke="#63b8ff" points="670.23,-140.54 662.22,-133.61 664.16,-144.03 670.23,-140.54"/>
</a>
</g>
</g>
<!-- Node18 -->
<g id="Node000018" class="node">
<title>Node18</title>
<g id="a_Node000018"><a xlink:title=" ">
<polygon fill="#e0e0e0" stroke="#999999" points="741.75,-132 696.5,-132 696.5,-112 741.75,-112 741.75,-132"/>
<text text-anchor="middle" x="719.12" y="-118.5" font-family="Helvetica,sans-Serif" font-size="10.00">cstring</text>
</a>
</g>
</g>
<!-- Node5&#45;&gt;Node18 -->
<g id="edge24_Node000005_Node000018" class="edge">
<title>Node5&#45;&gt;Node18</title>
<g id="a_edge24_Node000005_Node000018"><a xlink:title=" ">
<path fill="none" stroke="#63b8ff" d="M692.7,-167.59C696.87,-160.55 702.73,-150.67 707.87,-142"/>
<polygon fill="#63b8ff" stroke="#63b8ff" points="710.76,-143.99 712.84,-133.6 704.73,-140.42 710.76,-143.99"/>
</a>
</g>
</g>
<!-- Node19 -->
<g id="Node000019" class="node">
<title>Node19</title>
<g id="a_Node000019"><a xlink:href="utils_8h.html" target="_top" xlink:title=" ">
<polygon fill="white" stroke="#666666" points="963.25,-132 921,-132 921,-112 963.25,-112 963.25,-132"/>
<text text-anchor="middle" x="942.12" y="-118.5" font-family="Helvetica,sans-Serif" font-size="10.00">utils.h</text>
</a>
</g>
</g>
<!-- Node5&#45;&gt;Node19 -->
<g id="edge25_Node000005_Node000019" class="edge">
<title>Node5&#45;&gt;Node19</title>
<g id="a_edge25_Node000005_Node000019"><a xlink:title=" ">
<path fill="none" stroke="#63b8ff" d="M716.81,-171.98C758.01,-164.82 835.08,-150.71 909.59,-132.46"/>
<polygon fill="#63b8ff" stroke="#63b8ff" points="910.23,-135.9 919.09,-130.1 908.54,-129.11 910.23,-135.9"/>
</a>
</g>
</g>
<!-- Node22 -->
<g id="Node000022" class="node">
<title>Node22</title>
<g id="a_Node000022"><a xlink:title=" ">
<polygon fill="#e0e0e0" stroke="#999999" points="802.62,-132 759.62,-132 759.62,-112 802.62,-112 802.62,-132"/>
<text text-anchor="middle" x="781.12" y="-118.5" font-family="Helvetica,sans-Serif" font-size="10.00">time.h</text>
</a>
</g>
</g>
<!-- Node5&#45;&gt;Node22 -->
<g id="edge31_Node000005_Node000022" class="edge">
<title>Node5&#45;&gt;Node22</title>
<g id="a_edge31_Node000005_Node000022"><a xlink:title=" ">
<path fill="none" stroke="#63b8ff" d="M703.5,-167.59C717.7,-159.44 738.51,-147.48 755.01,-138"/>
<polygon fill="#63b8ff" stroke="#63b8ff" points="756.38,-141.25 763.31,-133.23 752.9,-135.18 756.38,-141.25"/>
</a>
</g>
</g>
<!-- Node23 -->
<g id="Node000023" class="node">
<title>Node23</title>
<g id="a_Node000023"><a xlink:href="build__number_8h.html" target="_top" xlink:title=" ">
<polygon fill="white" stroke="#666666" points="903.12,-132 821.12,-132 821.12,-112 903.12,-112 903.12,-132"/>
<text text-anchor="middle" x="862.12" y="-118.5" font-family="Helvetica,sans-Serif" font-size="10.00">build_number.h</text>
</a>
</g>
</g>
<!-- Node5&#45;&gt;Node23 -->
<g id="edge32_Node000005_Node000023" class="edge">
<title>Node5&#45;&gt;Node23</title>
<g id="a_edge32_Node000005_Node000023"><a xlink:title=" ">
<path fill="none" stroke="#63b8ff" d="M716.81,-167.84C745.34,-159.04 788.7,-145.66 820.63,-135.8"/>
<polygon fill="#63b8ff" stroke="#63b8ff" points="821.44,-139.22 829.96,-132.92 819.38,-132.53 821.44,-139.22"/>
</a>
</g>
</g>
<!-- Node24 -->
<g id="Node000024" class="node">
<title>Node24</title>
<g id="a_Node000024"><a xlink:href="_lo_ra-_r_p2040_8h.html" target="_top" xlink:title=" ">
<polygon fill="white" stroke="#666666" points="325.12,-132 213.12,-132 213.12,-112 325.12,-112 325.12,-132"/>
<text text-anchor="middle" x="269.12" y="-118.5" font-family="Helvetica,sans-Serif" font-size="10.00">LoRa/LoRa&#45;RP2040.h</text>
</a>
</g>
</g>
<!-- Node5&#45;&gt;Node24 -->
<g id="edge33_Node000005_Node000024" class="edge">
<title>Node5&#45;&gt;Node24</title>
<g id="a_edge33_Node000005_Node000024"><a xlink:title=" ">
<path fill="none" stroke="#63b8ff" d="M657.4,-173.16C590.97,-164.58 429.09,-143.67 336.69,-131.73"/>
<polygon fill="#63b8ff" stroke="#63b8ff" points="337.37,-128.29 327,-130.48 336.47,-135.23 337.37,-128.29"/>
</a>
</g>
</g>
<!-- Node10 -->
<g id="Node000010" class="node">
<title>Node10</title>
<g id="a_Node000010"><a xlink:title=" ">
<polygon fill="#e0e0e0" stroke="#999999" points="1031.25,-20 983,-20 983,0 1031.25,0 1031.25,-20"/>
<text text-anchor="middle" x="1007.12" y="-6.5" font-family="Helvetica,sans-Serif" font-size="10.00">stdint.h</text>
</a>
</g>
</g>
<!-- Node9&#45;&gt;Node10 -->
<g id="edge12_Node000009_Node000010" class="edge">
<title>Node9&#45;&gt;Node10</title>
<g id="a_edge12_Node000009_Node000010"><a xlink:title=" ">
<path fill="none" stroke="#63b8ff" d="M963.36,-55.59C970.73,-48.08 981.26,-37.35 990.14,-28.3"/>
<polygon fill="#63b8ff" stroke="#63b8ff" points="992.43,-30.97 996.94,-21.38 987.44,-26.06 992.43,-30.97"/>
</a>
</g>
</g>
<!-- Node11&#45;&gt;Node2 -->
<g id="edge19_Node000011_Node000002" class="edge">
<title>Node11&#45;&gt;Node2</title>
<g id="a_edge19_Node000011_Node000002"><a xlink:title=" ">
<path fill="none" stroke="#63b8ff" d="M1113.73,-111.57C1097.27,-97.19 1063.64,-69.98 1030.12,-56 959.4,-26.5 868.89,-16.22 821.8,-12.73"/>
<polygon fill="#63b8ff" stroke="#63b8ff" points="822.26,-9.25 812.04,-12.07 821.78,-16.24 822.26,-9.25"/>
</a>
</g>
</g>
<!-- Node11&#45;&gt;Node4 -->
<g id="edge18_Node000011_Node000004" class="edge">
<title>Node11&#45;&gt;Node4</title>
<g id="a_edge18_Node000011_Node000004"><a xlink:title=" ">
<path fill="none" stroke="#63b8ff" d="M1147.64,-111.59C1170.83,-102.32 1206.29,-88.13 1230.97,-78.26"/>
<polygon fill="#63b8ff" stroke="#63b8ff" points="1232.08,-81.59 1240.06,-74.63 1229.48,-75.09 1232.08,-81.59"/>
</a>
</g>
</g>
<!-- Node12 -->
<g id="Node000012" class="node">
<title>Node12</title>
<g id="a_Node000012"><a xlink:href="_i_n_a3221_8h.html" target="_top" xlink:title=" ">
<polygon fill="white" stroke="#666666" points="1186,-76 1082.25,-76 1082.25,-56 1186,-56 1186,-76"/>
<text text-anchor="middle" x="1134.12" y="-62.5" font-family="Helvetica,sans-Serif" font-size="10.00">INA3221/INA3221.h</text>
</a>
</g>
</g>
<!-- Node11&#45;&gt;Node12 -->
<g id="edge14_Node000011_Node000012" class="edge">
<title>Node11&#45;&gt;Node12</title>
<g id="a_edge14_Node000011_Node000012"><a xlink:title=" ">
<path fill="none" stroke="#63b8ff" d="M1125.87,-111.59C1127.1,-104.93 1128.8,-95.75 1130.34,-87.44"/>
<polygon fill="#63b8ff" stroke="#63b8ff" points="1133.75,-88.26 1132.13,-77.79 1126.87,-86.98 1133.75,-88.26"/>
</a>
</g>
</g>
<!-- Node14 -->
<g id="Node000014" class="node">
<title>Node14</title>
<g id="a_Node000014"><a xlink:title=" ">
<polygon fill="#e0e0e0" stroke="#999999" points="1254,-20 1174.25,-20 1174.25,0 1254,0 1254,-20"/>
<text text-anchor="middle" x="1214.12" y="-6.5" font-family="Helvetica,sans-Serif" font-size="10.00">hardware/i2c.h</text>
</a>
</g>
</g>
<!-- Node11&#45;&gt;Node14 -->
<g id="edge20_Node000011_Node000014" class="edge">
<title>Node11&#45;&gt;Node14</title>
<g id="a_edge20_Node000011_Node000014"><a xlink:title=" ">
<path fill="none" stroke="#63b8ff" d="M1147.42,-111.55C1163.04,-104.08 1182.93,-92.21 1195.12,-76 1204.87,-63.05 1209.63,-45.21 1211.94,-31.49"/>
<polygon fill="#63b8ff" stroke="#63b8ff" points="1215.38,-32.19 1213.26,-21.81 1208.45,-31.25 1215.38,-32.19"/>
</a>
</g>
</g>
<!-- Node15 -->
<g id="Node000015" class="node">
<title>Node15</title>
<g id="a_Node000015"><a xlink:title=" ">
<polygon fill="#e0e0e0" stroke="#999999" points="762.38,-76 693.88,-76 693.88,-56 762.38,-56 762.38,-76"/>
<text text-anchor="middle" x="728.12" y="-62.5" font-family="Helvetica,sans-Serif" font-size="10.00">pico/stdlib.h</text>
</a>
</g>
</g>
<!-- Node11&#45;&gt;Node15 -->
<g id="edge21_Node000011_Node000015" class="edge">
<title>Node11&#45;&gt;Node15</title>
<g id="a_edge21_Node000011_Node000015"><a xlink:title=" ">
<path fill="none" stroke="#63b8ff" d="M1079.08,-114.86C1003.11,-104.5 850.33,-83.66 773.88,-73.24"/>
<polygon fill="#63b8ff" stroke="#63b8ff" points="774.61,-69.81 764.23,-71.92 773.66,-76.74 774.61,-69.81"/>
</a>
</g>
</g>
<!-- Node12&#45;&gt;Node10 -->
<g id="edge15_Node000012_Node000010" class="edge">
<title>Node12&#45;&gt;Node10</title>
<g id="a_edge15_Node000012_Node000010"><a xlink:title=" ">
<path fill="none" stroke="#63b8ff" d="M1112,-55.59C1092.09,-47.13 1062.57,-34.58 1039.92,-24.94"/>
<polygon fill="#63b8ff" stroke="#63b8ff" points="1041.38,-21.76 1030.81,-21.07 1038.65,-28.21 1041.38,-21.76"/>
</a>
</g>
</g>
<!-- Node13 -->
<g id="Node000013" class="node">
<title>Node13</title>
<g id="a_Node000013"><a xlink:title=" ">
<polygon fill="#e0e0e0" stroke="#999999" points="1155.88,-20 1102.38,-20 1102.38,0 1155.88,0 1155.88,-20"/>
<text text-anchor="middle" x="1129.12" y="-6.5" font-family="Helvetica,sans-Serif" font-size="10.00">iostream</text>
</a>
</g>
</g>
<!-- Node12&#45;&gt;Node13 -->
<g id="edge16_Node000012_Node000013" class="edge">
<title>Node12&#45;&gt;Node13</title>
<g id="a_edge16_Node000012_Node000013"><a xlink:title=" ">
<path fill="none" stroke="#63b8ff" d="M1133.25,-55.59C1132.64,-49.01 1131.81,-39.96 1131.04,-31.73"/>
<polygon fill="#63b8ff" stroke="#63b8ff" points="1134.53,-31.44 1130.13,-21.81 1127.56,-32.09 1134.53,-31.44"/>
</a>
</g>
</g>
<!-- Node12&#45;&gt;Node14 -->
<g id="edge17_Node000012_Node000014" class="edge">
<title>Node12&#45;&gt;Node14</title>
<g id="a_edge17_Node000012_Node000014"><a xlink:title=" ">
<path fill="none" stroke="#63b8ff" d="M1148.06,-55.59C1159.8,-47.67 1176.86,-36.16 1190.69,-26.82"/>
<polygon fill="#63b8ff" stroke="#63b8ff" points="1192.5,-29.82 1198.83,-21.33 1188.58,-24.02 1192.5,-29.82"/>
</a>
</g>
</g>
<!-- Node19&#45;&gt;Node2 -->
<g id="edge27_Node000019_Node000002" class="edge">
<title>Node19&#45;&gt;Node2</title>
<g id="a_edge27_Node000019_Node000002"><a xlink:title=" ">
<path fill="none" stroke="#63b8ff" d="M920.67,-114.31C884.08,-102.82 813.12,-80.17 809.12,-76 797.67,-64.06 793.07,-45.59 791.25,-31.39"/>
<polygon fill="#63b8ff" stroke="#63b8ff" points="794.76,-31.44 790.39,-21.79 787.79,-32.06 794.76,-31.44"/>
</a>
</g>
</g>
<!-- Node19&#45;&gt;Node9 -->
<g id="edge30_Node000019_Node000009" class="edge">
<title>Node19&#45;&gt;Node9</title>
<g id="a_edge30_Node000019_Node000009"><a xlink:title=" ">
<path fill="none" stroke="#63b8ff" d="M944.22,-111.59C945.7,-104.93 947.74,-95.75 949.58,-87.44"/>
<polygon fill="#63b8ff" stroke="#63b8ff" points="952.98,-88.3 951.73,-77.78 946.14,-86.78 952.98,-88.3"/>
</a>
</g>
</g>
<!-- Node19&#45;&gt;Node15 -->
<g id="edge28_Node000019_Node000015" class="edge">
<title>Node19&#45;&gt;Node15</title>
<g id="a_edge28_Node000019_Node000015"><a xlink:title=" ">
<path fill="none" stroke="#63b8ff" d="M920.53,-114.38C917.71,-113.55 914.85,-112.74 912.12,-112 865.25,-99.25 811.21,-86.23 773.88,-77.5"/>
<polygon fill="#63b8ff" stroke="#63b8ff" points="774.86,-74.13 764.33,-75.27 773.27,-80.95 774.86,-74.13"/>
</a>
</g>
</g>
<!-- Node20 -->
<g id="Node000020" class="node">
<title>Node20</title>
<g id="a_Node000020"><a xlink:title=" ">
<polygon fill="#e0e0e0" stroke="#999999" points="587.75,-20 542.5,-20 542.5,0 587.75,0 587.75,-20"/>
<text text-anchor="middle" x="565.12" y="-6.5" font-family="Helvetica,sans-Serif" font-size="10.00">stdio.h</text>
</a>
</g>
</g>
<!-- Node19&#45;&gt;Node20 -->
<g id="edge26_Node000019_Node000020" class="edge">
<title>Node19&#45;&gt;Node20</title>
<g id="a_edge26_Node000019_Node000020"><a xlink:title=" ">
<path fill="none" stroke="#63b8ff" d="M920.59,-114.16C917.76,-113.37 914.88,-112.63 912.12,-112 812.54,-89.27 781.87,-108.8 685.12,-76 649.36,-63.87 611.6,-41.65 588.21,-26.6"/>
<polygon fill="#63b8ff" stroke="#63b8ff" points="590.36,-23.83 580.08,-21.28 586.53,-29.68 590.36,-23.83"/>
</a>
</g>
</g>
<!-- Node21 -->
<g id="Node000021" class="node">
<title>Node21</title>
<g id="a_Node000021"><a xlink:title=" ">
<polygon fill="#e0e0e0" stroke="#999999" points="901.88,-76 818.38,-76 818.38,-56 901.88,-56 901.88,-76"/>
<text text-anchor="middle" x="860.12" y="-62.5" font-family="Helvetica,sans-Serif" font-size="10.00">hardware/uart.h</text>
</a>
</g>
</g>
<!-- Node19&#45;&gt;Node21 -->
<g id="edge29_Node000019_Node000021" class="edge">
<title>Node19&#45;&gt;Node21</title>
<g id="a_edge29_Node000019_Node000021"><a xlink:title=" ">
<path fill="none" stroke="#63b8ff" d="M927.84,-111.59C915.69,-103.59 897.99,-91.93 883.73,-82.54"/>
<polygon fill="#63b8ff" stroke="#63b8ff" points="886.06,-79.89 875.78,-77.31 882.21,-85.73 886.06,-79.89"/>
</a>
</g>
</g>
<!-- Node24&#45;&gt;Node9 -->
<g id="edge43_Node000024_Node000009" class="edge">
<title>Node24&#45;&gt;Node9</title>
<g id="a_edge43_Node000024_Node000009"><a xlink:title=" ">
<path fill="none" stroke="#63b8ff" d="M325.51,-115.86C340.64,-114.54 357,-113.17 372.12,-112 607.76,-93.84 671.3,-108.21 908.06,-76.25"/>
<polygon fill="#63b8ff" stroke="#63b8ff" points="908.53,-79.71 917.96,-74.89 907.58,-72.78 908.53,-79.71"/>
</a>
</g>
</g>
<!-- Node24&#45;&gt;Node15 -->
<g id="edge34_Node000024_Node000015" class="edge">
<title>Node24&#45;&gt;Node15</title>
<g id="a_edge34_Node000024_Node000015"><a xlink:title=" ">
<path fill="none" stroke="#63b8ff" d="M325.41,-114.38C417.2,-103.58 597.39,-82.38 682.08,-72.42"/>
<polygon fill="#63b8ff" stroke="#63b8ff" points="682.35,-75.91 691.88,-71.26 681.53,-68.96 682.35,-75.91"/>
</a>
</g>
</g>
<!-- Node25 -->
<g id="Node000025" class="node">
<title>Node25</title>
<g id="a_Node000025"><a xlink:title=" ">
<polygon fill="#e0e0e0" stroke="#999999" points="158.38,-76 65.88,-76 65.88,-56 158.38,-56 158.38,-76"/>
<text text-anchor="middle" x="112.12" y="-62.5" font-family="Helvetica,sans-Serif" font-size="10.00">pico/binary_info.h</text>
</a>
</g>
</g>
<!-- Node24&#45;&gt;Node25 -->
<g id="edge35_Node000024_Node000025" class="edge">
<title>Node24&#45;&gt;Node25</title>
<g id="a_edge35_Node000024_Node000025"><a xlink:title=" ">
<path fill="none" stroke="#63b8ff" d="M241.78,-111.59C216.49,-102.9 178.67,-89.89 150.39,-80.16"/>
<polygon fill="#63b8ff" stroke="#63b8ff" points="151.71,-76.91 141.12,-76.97 149.43,-83.53 151.71,-76.91"/>
</a>
</g>
</g>
<!-- Node26 -->
<g id="Node000026" class="node">
<title>Node26</title>
<g id="a_Node000026"><a xlink:title=" ">
<polygon fill="#e0e0e0" stroke="#999999" points="261.62,-76 176.62,-76 176.62,-56 261.62,-56 261.62,-76"/>
<text text-anchor="middle" x="219.12" y="-62.5" font-family="Helvetica,sans-Serif" font-size="10.00">hardware/gpio.h</text>
</a>
</g>
</g>
<!-- Node24&#45;&gt;Node26 -->
<g id="edge36_Node000024_Node000026" class="edge">
<title>Node24&#45;&gt;Node26</title>
<g id="a_edge36_Node000024_Node000026"><a xlink:title=" ">
<path fill="none" stroke="#63b8ff" d="M260.42,-111.59C253.53,-104.16 243.73,-93.58 235.41,-84.58"/>
<polygon fill="#63b8ff" stroke="#63b8ff" points="238.13,-82.37 228.76,-77.41 232.99,-87.12 238.13,-82.37"/>
</a>
</g>
</g>
<!-- Node27 -->
<g id="Node000027" class="node">
<title>Node27</title>
<g id="a_Node000027"><a xlink:title=" ">
<polygon fill="#e0e0e0" stroke="#999999" points="359,-76 279.25,-76 279.25,-56 359,-56 359,-76"/>
<text text-anchor="middle" x="319.12" y="-62.5" font-family="Helvetica,sans-Serif" font-size="10.00">hardware/spi.h</text>
</a>
</g>
</g>
<!-- Node24&#45;&gt;Node27 -->
<g id="edge37_Node000024_Node000027" class="edge">
<title>Node24&#45;&gt;Node27</title>
<g id="a_edge37_Node000024_Node000027"><a xlink:title=" ">
<path fill="none" stroke="#63b8ff" d="M277.83,-111.59C284.72,-104.16 294.52,-93.58 302.84,-84.58"/>
<polygon fill="#63b8ff" stroke="#63b8ff" points="305.26,-87.12 309.49,-77.41 300.12,-82.37 305.26,-87.12"/>
</a>
</g>
</g>
<!-- Node28 -->
<g id="Node000028" class="node">
<title>Node28</title>
<g id="a_Node000028"><a xlink:title=" ">
<polygon fill="#e0e0e0" stroke="#999999" points="48.25,-76 0,-76 0,-56 48.25,-56 48.25,-76"/>
<text text-anchor="middle" x="24.12" y="-62.5" font-family="Helvetica,sans-Serif" font-size="10.00">string.h</text>
</a>
</g>
</g>
<!-- Node24&#45;&gt;Node28 -->
<g id="edge38_Node000024_Node000028" class="edge">
<title>Node24&#45;&gt;Node28</title>
<g id="a_edge38_Node000024_Node000028"><a xlink:title=" ">
<path fill="none" stroke="#63b8ff" d="M220.53,-111.51C179.89,-103.38 120.13,-91.01 59.52,-76.48"/>
<polygon fill="#63b8ff" stroke="#63b8ff" points="60.61,-73.14 50.06,-74.2 58.96,-79.95 60.61,-73.14"/>
</a>
</g>
</g>
<!-- Node29 -->
<g id="Node000029" class="node">
<title>Node29</title>
<g id="a_Node000029"><a xlink:href="_print_8h.html" target="_top" xlink:title=" ">
<polygon fill="white" stroke="#666666" points="421.38,-76 376.88,-76 376.88,-56 421.38,-56 421.38,-76"/>
<text text-anchor="middle" x="399.12" y="-62.5" font-family="Helvetica,sans-Serif" font-size="10.00">Print.h</text>
</a>
</g>
</g>
<!-- Node24&#45;&gt;Node29 -->
<g id="edge39_Node000024_Node000029" class="edge">
<title>Node24&#45;&gt;Node29</title>
<g id="a_edge39_Node000024_Node000029"><a xlink:title=" ">
<path fill="none" stroke="#63b8ff" d="M291.77,-111.59C312.37,-103.04 343.02,-90.31 366.3,-80.63"/>
<polygon fill="#63b8ff" stroke="#63b8ff" points="367.45,-83.95 375.34,-76.88 364.76,-77.48 367.45,-83.95"/>
</a>
</g>
</g>
<!-- Node29&#45;&gt;Node2 -->
<g id="edge42_Node000029_Node000002" class="edge">
<title>Node29&#45;&gt;Node2</title>
<g id="a_edge42_Node000029_Node000002"><a xlink:title=" ">
<path fill="none" stroke="#63b8ff" d="M421.5,-58.97C425.99,-57.88 430.69,-56.83 435.12,-56 553.62,-33.76 696.46,-19.38 758.65,-13.72"/>
<polygon fill="#63b8ff" stroke="#63b8ff" points="758.82,-17.22 768.47,-12.84 758.2,-10.25 758.82,-17.22"/>
</a>
</g>
</g>
<!-- Node29&#45;&gt;Node20 -->
<g id="edge41_Node000029_Node000020" class="edge">
<title>Node29&#45;&gt;Node20</title>
<g id="a_edge41_Node000029_Node000020"><a xlink:title=" ">
<path fill="none" stroke="#63b8ff" d="M421.86,-57.6C450.14,-48.41 498.66,-32.62 531.31,-22"/>
<polygon fill="#63b8ff" stroke="#63b8ff" points="532.27,-25.37 540.69,-18.95 530.1,-18.71 532.27,-25.37"/>
</a>
</g>
</g>
<!-- Node30 -->
<g id="Node000030" class="node">
<title>Node30</title>
<g id="a_Node000030"><a xlink:title=" ">
<polygon fill="#e0e0e0" stroke="#999999" points="428.5,-20 369.75,-20 369.75,0 428.5,0 428.5,-20"/>
<text text-anchor="middle" x="399.12" y="-6.5" font-family="Helvetica,sans-Serif" font-size="10.00">inttypes.h</text>
</a>
</g>
</g>
<!-- Node29&#45;&gt;Node30 -->
<g id="edge40_Node000029_Node000030" class="edge">
<title>Node29&#45;&gt;Node30</title>
<g id="a_edge40_Node000029_Node000030"><a xlink:title=" ">
<path fill="none" stroke="#63b8ff" d="M399.12,-55.59C399.12,-49.01 399.12,-39.96 399.12,-31.73"/>
<polygon fill="#63b8ff" stroke="#63b8ff" points="402.63,-31.81 399.13,-21.81 395.63,-31.81 402.63,-31.81"/>
</a>
</g>
</g>
</g>
</svg>

<g id="navigator" transform="translate(0 0)" fill="#404254">
  <rect fill="#f2f5e9" fill-opacity="0.5" stroke="#606060" stroke-width=".5" x="0" y="0" width="60" height="60"/>
  <use id="zoomplus" xlink:href="#zoomPlus" x="17" y="9" onmousedown="handleZoom(evt,'in')"/>
  <use id="zoomminus" xlink:href="#zoomMin" x="42" y="9" onmousedown="handleZoom(evt,'out')"/>
  <use id="reset" xlink:href="#resetDef" x="30" y="36" onmousedown="handleReset()"/>
   <use id="arrowup" xlink:href="#arrowUp" x="0" y="0" onmousedown="handlePan(0,-1)"/>
  <use id="arrowright" xlink:href="#arrowRight" x="0" y="0" onmousedown="handlePan(1,0)"/>
  <use id="arrowdown" xlink:href="#arrowDown" x="0" y="0" onmousedown="handlePan(0,1)"/>
  <use id="arrowleft" xlink:href="#arrowLeft" x="0" y="0" onmousedown="handlePan(-1,0)"/>
</g>
<svg viewBox="0 0 15 15" width="100%" height="30px" preserveAspectRatio="xMaxYMin meet">
 <g id="arrow_out" transform="scale(0.3 0.3)">
  <a xlink:href="commands_8h__incl_org.svg" target="_base">
   <rect id="button" ry="5" rx="5" y="6" x="6" height="38" width="38"
        fill="#f2f5e9" fill-opacity="0.5" stroke="#606060" stroke-width="1.0"/>
   <path id="arrow"
     d="M 11.500037,31.436501 C 11.940474,20.09759 22.043105,11.32322 32.158766,21.979434 L 37.068811,17.246167 C 37.068811,17.246167 37.088388,32 37.088388,32 L 22.160133,31.978069 C 22.160133,31.978069 26.997745,27.140456 26.997745,27.140456 C 18.528582,18.264221 13.291696,25.230495 11.500037,31.436501 z"
     style="fill:#404040;"/>
  </a>
 </g>
</svg>

<style type='text/css'>
<![CDATA[
[data-mouse-over-selected='false'] { opacity: 0.7; }
[data-mouse-over-selected='true']  { opacity: 1.0; }
]]>
</style>
<script type="application/ecmascript"><![CDATA[
document.addEventListener('DOMContentLoaded', (event) => {
  highlightEdges();
  highlightAdjacentNodes();
});
]]></script>
</svg>
