<?xml version="1.0" encoding="UTF-8" standalone="no"?>
<!DOCTYPE svg PUBLIC "-//W3C//DTD SVG 1.1//EN"
 "http://www.w3.org/Graphics/SVG/1.1/DTD/svg11.dtd">
<!-- Generated by graphviz version 12.2.1 (20241206.2353)
 -->
<!-- Title: frame_decode Pages: 1 -->
<svg width="455pt" height="135pt"
 viewBox="0.00 0.00 455.25 135.00" xmlns="http://www.w3.org/2000/svg" xmlns:xlink="http://www.w3.org/1999/xlink">
<g id="graph0" class="graph" transform="scale(1 1) rotate(0) translate(4 131)">
<title>frame_decode</title>
<!-- Node1 -->
<g id="Node000001" class="node">
<title>Node1</title>
<g id="a_Node000001"><a xlink:title="Converts a string into a Frame instance.">
<polygon fill="#999999" stroke="#666666" points="447.25,-70 369.75,-70 369.75,-50 447.25,-50 447.25,-70"/>
<text text-anchor="middle" x="408.5" y="-56.5" font-family="Helvetica,sans-Serif" font-size="10.00">frame_decode</text>
</a>
</g>
</g>
<!-- Node2 -->
<g id="Node000002" class="node">
<title>Node2</title>
<g id="a_Node000002"><a xlink:href="frame_8cpp.html#a8b9c5fd031b899c6c7867adcde4ac11f" target="_top" xlink:title="Executes a command based on the command key and the parameter.">
<polygon fill="white" stroke="#666666" points="307.88,-108 227.38,-108 227.38,-88 307.88,-88 307.88,-108"/>
<text text-anchor="middle" x="267.62" y="-94.5" font-family="Helvetica,sans-Serif" font-size="10.00">frame_process</text>
</a>
</g>
</g>
<!-- Node1&#45;&gt;Node2 -->
<g id="edge1_Node000001_Node000002" class="edge">
<title>Node1&#45;&gt;Node2</title>
<g id="a_edge1_Node000001_Node000002"><a xlink:title=" ">
<path fill="none" stroke="#63b8ff" d="M358.63,-73.37C341.53,-78.05 322.6,-83.23 306.53,-87.63"/>
<polygon fill="#63b8ff" stroke="#63b8ff" points="359.37,-76.8 368.09,-70.78 357.52,-70.05 359.37,-76.8"/>
</a>
</g>
</g>
<!-- Node6 -->
<g id="Node000006" class="node">
<title>Node6</title>
<g id="a_Node000006"><a xlink:href="test__frame__coding_8cpp.html#a75deef6947cf7117a58214b4298ecec9" target="_top" xlink:title=" ">
<polygon fill="white" stroke="#666666" points="331.5,-70 203.75,-70 203.75,-50 331.5,-50 331.5,-70"/>
<text text-anchor="middle" x="267.62" y="-56.5" font-family="Helvetica,sans-Serif" font-size="10.00">test_frame_decode_basic</text>
</a>
</g>
</g>
<!-- Node1&#45;&gt;Node6 -->
<g id="edge6_Node000001_Node000006" class="edge">
<title>Node1&#45;&gt;Node6</title>
<g id="a_edge6_Node000001_Node000006"><a xlink:title=" ">
<path fill="none" stroke="#63b8ff" d="M358.25,-60C349.72,-60 340.74,-60 331.9,-60"/>
<polygon fill="#63b8ff" stroke="#63b8ff" points="358.04,-63.5 368.04,-60 358.04,-56.5 358.04,-63.5"/>
</a>
</g>
</g>
<!-- Node8 -->
<g id="Node000008" class="node">
<title>Node8</title>
<g id="a_Node000008"><a xlink:href="test__frame__coding_8cpp.html#a054000b3d2c0abb2e13b9109ae0969ef" target="_top" xlink:title=" ">
<polygon fill="white" stroke="#666666" points="333.75,-32 201.5,-32 201.5,0 333.75,0 333.75,-32"/>
<text text-anchor="start" x="209.5" y="-18.5" font-family="Helvetica,sans-Serif" font-size="10.00">test_frame_decode_invalid</text>
<text text-anchor="middle" x="267.62" y="-6.5" font-family="Helvetica,sans-Serif" font-size="10.00">_header</text>
</a>
</g>
</g>
<!-- Node1&#45;&gt;Node8 -->
<g id="edge8_Node000001_Node000008" class="edge">
<title>Node1&#45;&gt;Node8</title>
<g id="a_edge8_Node000001_Node000008"><a xlink:title=" ">
<path fill="none" stroke="#63b8ff" d="M363.95,-46.2C350.19,-41.84 334.85,-36.98 320.57,-32.46"/>
<polygon fill="#63b8ff" stroke="#63b8ff" points="362.56,-49.43 373.15,-49.12 364.67,-42.76 362.56,-49.43"/>
</a>
</g>
</g>
<!-- Node3 -->
<g id="Node000003" class="node">
<title>Node3</title>
<g id="a_Node000003"><a xlink:href="receive_8cpp.html#a14ffba44d46e00b23bd72bdb3a4d58d1" target="_top" xlink:title="Handles UART input.">
<polygon fill="white" stroke="#666666" points="165.5,-127 73,-127 73,-107 165.5,-107 165.5,-127"/>
<text text-anchor="middle" x="119.25" y="-113.5" font-family="Helvetica,sans-Serif" font-size="10.00">handle_uart_input</text>
</a>
</g>
</g>
<!-- Node2&#45;&gt;Node3 -->
<g id="edge2_Node000002_Node000003" class="edge">
<title>Node2&#45;&gt;Node3</title>
<g id="a_edge2_Node000002_Node000003"><a xlink:title=" ">
<path fill="none" stroke="#63b8ff" d="M216.04,-104.57C199.73,-106.68 181.77,-109.01 165.85,-111.08"/>
<polygon fill="#63b8ff" stroke="#63b8ff" points="216.05,-108.09 225.51,-103.34 215.15,-101.15 216.05,-108.09"/>
</a>
</g>
</g>
<!-- Node5 -->
<g id="Node000005" class="node">
<title>Node5</title>
<g id="a_Node000005"><a xlink:href="receive_8cpp.html#a3f494105dee3a08e1244febc81982517" target="_top" xlink:title="Callback function for handling received LoRa packets.">
<polygon fill="white" stroke="#666666" points="150.88,-89 87.62,-89 87.62,-69 150.88,-69 150.88,-89"/>
<text text-anchor="middle" x="119.25" y="-75.5" font-family="Helvetica,sans-Serif" font-size="10.00">on_receive</text>
</a>
</g>
</g>
<!-- Node2&#45;&gt;Node5 -->
<g id="edge4_Node000002_Node000005" class="edge">
<title>Node2&#45;&gt;Node5</title>
<g id="a_edge4_Node000002_Node000005"><a xlink:title=" ">
<path fill="none" stroke="#63b8ff" d="M215.73,-91.39C194.19,-88.6 169.81,-85.43 151.07,-83"/>
<polygon fill="#63b8ff" stroke="#63b8ff" points="215.15,-94.85 225.51,-92.66 216.05,-87.91 215.15,-94.85"/>
</a>
</g>
</g>
<!-- Node4 -->
<g id="Node000004" class="node">
<title>Node4</title>
<g id="a_Node000004"><a xlink:href="main_8cpp.html#ae66f6b31b5ad750f1fe042a706a4e3d4" target="_top" xlink:title=" ">
<polygon fill="white" stroke="#666666" points="37,-108 0,-108 0,-88 37,-88 37,-108"/>
<text text-anchor="middle" x="18.5" y="-94.5" font-family="Helvetica,sans-Serif" font-size="10.00">main</text>
</a>
</g>
</g>
<!-- Node3&#45;&gt;Node4 -->
<g id="edge3_Node000003_Node000004" class="edge">
<title>Node3&#45;&gt;Node4</title>
<g id="a_edge3_Node000003_Node000004"><a xlink:title=" ">
<path fill="none" stroke="#63b8ff" d="M61.47,-106.08C52.72,-104.39 44.3,-102.77 37.31,-101.43"/>
<polygon fill="#63b8ff" stroke="#63b8ff" points="60.67,-109.48 71.15,-107.94 61.99,-102.61 60.67,-109.48"/>
</a>
</g>
</g>
<!-- Node5&#45;&gt;Node4 -->
<g id="edge5_Node000005_Node000004" class="edge">
<title>Node5&#45;&gt;Node4</title>
<g id="a_edge5_Node000005_Node000004"><a xlink:title=" ">
<path fill="none" stroke="#63b8ff" d="M76.15,-87.1C62.58,-89.71 48.27,-92.46 37.42,-94.55"/>
<polygon fill="#63b8ff" stroke="#63b8ff" points="76.63,-90.57 85.79,-85.25 75.31,-83.7 76.63,-90.57"/>
</a>
</g>
</g>
<!-- Node7 -->
<g id="Node000007" class="node">
<title>Node7</title>
<g id="a_Node000007"><a xlink:href="test__runner_8cpp.html#a840291bc02cba5474a4cb46a9b9566fe" target="_top" xlink:title=" ">
<polygon fill="white" stroke="#666666" points="137.75,-48 100.75,-48 100.75,-28 137.75,-28 137.75,-48"/>
<text text-anchor="middle" x="119.25" y="-34.5" font-family="Helvetica,sans-Serif" font-size="10.00">main</text>
</a>
</g>
</g>
<!-- Node6&#45;&gt;Node7 -->
<g id="edge7_Node000006_Node000007" class="edge">
<title>Node6&#45;&gt;Node7</title>
<g id="a_edge7_Node000006_Node000007"><a xlink:title=" ">
<path fill="none" stroke="#63b8ff" d="M192.05,-48.79C171.82,-45.75 151.72,-42.73 137.95,-40.66"/>
<polygon fill="#63b8ff" stroke="#63b8ff" points="191.37,-52.23 201.78,-50.25 192.41,-45.31 191.37,-52.23"/>
</a>
</g>
</g>
<!-- Node8&#45;&gt;Node7 -->
<g id="edge9_Node000008_Node000007" class="edge">
<title>Node8&#45;&gt;Node7</title>
<g id="a_edge9_Node000008_Node000007"><a xlink:title=" ">
<path fill="none" stroke="#63b8ff" d="M189.98,-27.52C170.47,-30.45 151.29,-33.33 138,-35.33"/>
<polygon fill="#63b8ff" stroke="#63b8ff" points="190.28,-31.01 199.65,-26.07 189.24,-24.09 190.28,-31.01"/>
</a>
</g>
</g>
</g>
</svg>
