<?xml version="1.0" encoding="UTF-8" standalone="no"?>
<!DOCTYPE svg PUBLIC "-//W3C//DTD SVG 1.1//EN"
 "http://www.w3.org/Graphics/SVG/1.1/DTD/svg11.dtd">
<!-- Generated by graphviz version 12.2.1 (20241206.2353)
 -->
<!-- Title: frame_process Pages: 1 -->
<svg width="674pt" height="192pt"
 viewBox="0.00 0.00 673.75 192.00" xmlns="http://www.w3.org/2000/svg" xmlns:xlink="http://www.w3.org/1999/xlink">
<g id="graph0" class="graph" transform="scale(1 1) rotate(0) translate(4 188)">
<title>frame_process</title>
<!-- Node1 -->
<g id="Node000001" class="node">
<title>Node1</title>
<g id="a_Node000001"><a xlink:title="Executes a command based on the command key and the parameter.">
<polygon fill="#999999" stroke="#666666" points="80.5,-115 0,-115 0,-95 80.5,-95 80.5,-115"/>
<text text-anchor="middle" x="40.25" y="-101.5" font-family="Helvetica,sans-Serif" font-size="10.00">frame_process</text>
</a>
</g>
</g>
<!-- Node2 -->
<g id="Node000002" class="node">
<title>Node2</title>
<g id="a_Node000002"><a xlink:href="group___command_system.html#ga52e8963095eccdf1045309bf31b4d705" target="_top" xlink:title="Executes a command based on its key.">
<polygon fill="white" stroke="#666666" points="215,-134 116.5,-134 116.5,-114 215,-114 215,-134"/>
<text text-anchor="middle" x="165.75" y="-120.5" font-family="Helvetica,sans-Serif" font-size="10.00">execute_command</text>
</a>
</g>
</g>
<!-- Node1&#45;&gt;Node2 -->
<g id="edge1_Node000001_Node000002" class="edge">
<title>Node1&#45;&gt;Node2</title>
<g id="a_edge1_Node000001_Node000002"><a xlink:title=" ">
<path fill="none" stroke="#63b8ff" d="M80.67,-111.06C88.43,-112.26 96.74,-113.54 105,-114.81"/>
<polygon fill="#63b8ff" stroke="#63b8ff" points="104.27,-118.24 114.69,-116.3 105.34,-111.32 104.27,-118.24"/>
</a>
</g>
</g>
<!-- Node3 -->
<g id="Node000003" class="node">
<title>Node3</title>
<g id="a_Node000003"><a xlink:href="frame_8cpp.html#a29170691faa10727d607a73861cacbeb" target="_top" xlink:title="Builds a Frame instance.">
<polygon fill="white" stroke="#666666" points="345.38,-153 279.12,-153 279.12,-133 345.38,-133 345.38,-153"/>
<text text-anchor="middle" x="312.25" y="-139.5" font-family="Helvetica,sans-Serif" font-size="10.00">frame_build</text>
</a>
</g>
</g>
<!-- Node1&#45;&gt;Node3 -->
<g id="edge4_Node000001_Node000003" class="edge">
<title>Node1&#45;&gt;Node3</title>
<g id="a_edge4_Node000001_Node000003"><a xlink:title=" ">
<path fill="none" stroke="#63b8ff" d="M56.56,-115.44C71.21,-124.76 94.29,-137.71 116.5,-143 167.24,-155.08 227.55,-152.6 267.47,-148.72"/>
<polygon fill="#63b8ff" stroke="#63b8ff" points="267.58,-152.23 277.16,-147.71 266.85,-145.27 267.58,-152.23"/>
</a>
</g>
</g>
<!-- Node5 -->
<g id="Node000005" class="node">
<title>Node5</title>
<g id="a_Node000005"><a xlink:href="frame_8cpp.html#a0b3438ff642c0934321101e1f0b8d82d" target="_top" xlink:title="Converts a string into a Frame instance.">
<polygon fill="white" stroke="#666666" points="204.5,-58 127,-58 127,-38 204.5,-38 204.5,-58"/>
<text text-anchor="middle" x="165.75" y="-44.5" font-family="Helvetica,sans-Serif" font-size="10.00">frame_decode</text>
</a>
</g>
</g>
<!-- Node1&#45;&gt;Node5 -->
<g id="edge5_Node000001_Node000005" class="edge">
<title>Node1&#45;&gt;Node5</title>
<g id="a_edge5_Node000001_Node000005"><a xlink:title=" ">
<path fill="none" stroke="#63b8ff" d="M63.9,-94.55C82.96,-85.75 110.47,-73.05 131.94,-63.14"/>
<polygon fill="#63b8ff" stroke="#63b8ff" points="133.25,-66.39 140.87,-59.02 130.32,-60.04 133.25,-66.39"/>
</a>
</g>
</g>
<!-- Node6 -->
<g id="Node000006" class="node">
<title>Node6</title>
<g id="a_Node000006"><a xlink:href="send_8cpp.html#ae6c6f3b673e7e83306da7ea2458d3241" target="_top" xlink:title="Sends a Frame using LoRa.">
<polygon fill="white" stroke="#666666" points="345.75,-96 278.75,-96 278.75,-76 345.75,-76 345.75,-96"/>
<text text-anchor="middle" x="312.25" y="-82.5" font-family="Helvetica,sans-Serif" font-size="10.00">send_frame</text>
</a>
</g>
</g>
<!-- Node1&#45;&gt;Node6 -->
<g id="edge14_Node000001_Node000006" class="edge">
<title>Node1&#45;&gt;Node6</title>
<g id="a_edge14_Node000001_Node000006"><a xlink:title=" ">
<path fill="none" stroke="#63b8ff" d="M80.8,-102.22C130.4,-98.73 215.19,-92.76 266.93,-89.12"/>
<polygon fill="#63b8ff" stroke="#63b8ff" points="267.15,-92.61 276.88,-88.42 266.66,-85.63 267.15,-92.61"/>
</a>
</g>
</g>
<!-- Node2&#45;&gt;Node3 -->
<g id="edge2_Node000002_Node000003" class="edge">
<title>Node2&#45;&gt;Node3</title>
<g id="a_edge2_Node000002_Node000003"><a xlink:title=" ">
<path fill="none" stroke="#63b8ff" d="M215.27,-130.38C232.32,-132.62 251.36,-135.13 267.96,-137.31"/>
<polygon fill="#63b8ff" stroke="#63b8ff" points="267.13,-140.73 277.5,-138.56 268.04,-133.79 267.13,-140.73"/>
</a>
</g>
</g>
<!-- Node4 -->
<g id="Node000004" class="node">
<title>Node4</title>
<g id="a_Node000004"><a xlink:href="utils__converters_8cpp.html#a29531ed9ad98ab78384a8a2f37f4e77d" target="_top" xlink:title="Converts a ValueUnit to a string.">
<polygon fill="white" stroke="#666666" points="507.25,-184 409.5,-184 409.5,-152 507.25,-152 507.25,-184"/>
<text text-anchor="start" x="417.5" y="-170.5" font-family="Helvetica,sans-Serif" font-size="10.00">value_unit_type_to</text>
<text text-anchor="middle" x="458.38" y="-158.5" font-family="Helvetica,sans-Serif" font-size="10.00">_string</text>
</a>
</g>
</g>
<!-- Node3&#45;&gt;Node4 -->
<g id="edge3_Node000003_Node000004" class="edge">
<title>Node3&#45;&gt;Node4</title>
<g id="a_edge3_Node000003_Node000004"><a xlink:title=" ">
<path fill="none" stroke="#63b8ff" d="M345.59,-148.61C361.05,-151.29 380.06,-154.59 397.99,-157.7"/>
<polygon fill="#63b8ff" stroke="#63b8ff" points="397.32,-161.14 407.77,-159.4 398.52,-154.24 397.32,-161.14"/>
</a>
</g>
</g>
<!-- Node5&#45;&gt;Node3 -->
<g id="edge6_Node000005_Node000003" class="edge">
<title>Node5&#45;&gt;Node3</title>
<g id="a_edge6_Node000005_Node000003"><a xlink:title=" ">
<path fill="none" stroke="#63b8ff" d="M181.87,-58.44C198.66,-69.99 226.61,-89.06 251,-105 262.06,-112.23 274.39,-120.04 284.99,-126.69"/>
<polygon fill="#63b8ff" stroke="#63b8ff" points="282.92,-129.53 293.25,-131.86 286.63,-123.59 282.92,-129.53"/>
</a>
</g>
</g>
<!-- Node5&#45;&gt;Node6 -->
<g id="edge7_Node000005_Node000006" class="edge">
<title>Node5&#45;&gt;Node6</title>
<g id="a_edge7_Node000005_Node000006"><a xlink:title=" ">
<path fill="none" stroke="#63b8ff" d="M204.72,-57.98C223.96,-63.04 247.42,-69.22 267.43,-74.48"/>
<polygon fill="#63b8ff" stroke="#63b8ff" points="266.42,-77.83 276.98,-76.99 268.2,-71.06 266.42,-77.83"/>
</a>
</g>
</g>
<!-- Node10 -->
<g id="Node000010" class="node">
<title>Node10</title>
<g id="a_Node000010"><a xlink:href="utils_8cpp.html#acd86977d05fa330749958ace0f2798de" target="_top" xlink:title="Prints a message to the UART with a timestamp and core number.">
<polygon fill="white" stroke="#666666" points="632.75,-77 576.25,-77 576.25,-57 632.75,-57 632.75,-77"/>
<text text-anchor="middle" x="604.5" y="-63.5" font-family="Helvetica,sans-Serif" font-size="10.00">uart_print</text>
</a>
</g>
</g>
<!-- Node5&#45;&gt;Node10 -->
<g id="edge13_Node000005_Node000010" class="edge">
<title>Node5&#45;&gt;Node10</title>
<g id="a_edge13_Node000005_Node000010"><a xlink:title=" ">
<path fill="none" stroke="#63b8ff" d="M204.74,-49.65C287.03,-53.23 481.01,-61.67 564.34,-65.3"/>
<polygon fill="#63b8ff" stroke="#63b8ff" points="564.15,-68.79 574.29,-65.73 564.46,-61.8 564.15,-68.79"/>
</a>
</g>
</g>
<!-- Node11 -->
<g id="Node000011" class="node">
<title>Node11</title>
<g id="a_Node000011"><a xlink:href="utils__converters_8cpp.html#a4e9ddea19ddd04177180c2dfae26b15b" target="_top" xlink:title="Converts a string to an OperationType.">
<polygon fill="white" stroke="#666666" points="373.5,-20 251,-20 251,0 373.5,0 373.5,-20"/>
<text text-anchor="middle" x="312.25" y="-6.5" font-family="Helvetica,sans-Serif" font-size="10.00">string_to_operation_type</text>
</a>
</g>
</g>
<!-- Node5&#45;&gt;Node11 -->
<g id="edge12_Node000005_Node000011" class="edge">
<title>Node5&#45;&gt;Node11</title>
<g id="a_edge12_Node000005_Node000011"><a xlink:title=" ">
<path fill="none" stroke="#63b8ff" d="M204.72,-38.02C221.75,-33.54 242.1,-28.19 260.42,-23.37"/>
<polygon fill="#63b8ff" stroke="#63b8ff" points="261.28,-26.76 270.06,-20.83 259.49,-19.99 261.28,-26.76"/>
</a>
</g>
</g>
<!-- Node7 -->
<g id="Node000007" class="node">
<title>Node7</title>
<g id="a_Node000007"><a xlink:href="frame_8cpp.html#a3ae6df528775be58890bf406c906a056" target="_top" xlink:title="Encodes a Frame instance into a string.">
<polygon fill="white" stroke="#666666" points="497.12,-134 419.62,-134 419.62,-114 497.12,-114 497.12,-134"/>
<text text-anchor="middle" x="458.38" y="-120.5" font-family="Helvetica,sans-Serif" font-size="10.00">frame_encode</text>
</a>
</g>
</g>
<!-- Node6&#45;&gt;Node7 -->
<g id="edge8_Node000006_Node000007" class="edge">
<title>Node6&#45;&gt;Node7</title>
<g id="a_edge8_Node000006_Node000007"><a xlink:title=" ">
<path fill="none" stroke="#63b8ff" d="M345.95,-94.62C364.31,-99.46 387.59,-105.6 408.12,-111.01"/>
<polygon fill="#63b8ff" stroke="#63b8ff" points="407.16,-114.38 417.72,-113.55 408.95,-107.61 407.16,-114.38"/>
</a>
</g>
</g>
<!-- Node9 -->
<g id="Node000009" class="node">
<title>Node9</title>
<g id="a_Node000009"><a xlink:href="send_8cpp.html#a42881e6476e0ce51ee9f6a99a7318d3b" target="_top" xlink:title="Sends a message using LoRa.">
<polygon fill="white" stroke="#666666" points="499.38,-96 417.38,-96 417.38,-76 499.38,-76 499.38,-96"/>
<text text-anchor="middle" x="458.38" y="-82.5" font-family="Helvetica,sans-Serif" font-size="10.00">send_message</text>
</a>
</g>
</g>
<!-- Node6&#45;&gt;Node9 -->
<g id="edge10_Node000006_Node000009" class="edge">
<title>Node6&#45;&gt;Node9</title>
<g id="a_edge10_Node000006_Node000009"><a xlink:title=" ">
<path fill="none" stroke="#63b8ff" d="M345.95,-86C363.59,-86 385.76,-86 405.67,-86"/>
<polygon fill="#63b8ff" stroke="#63b8ff" points="405.57,-89.5 415.57,-86 405.57,-82.5 405.57,-89.5"/>
</a>
</g>
</g>
<!-- Node8 -->
<g id="Node000008" class="node">
<title>Node8</title>
<g id="a_Node000008"><a xlink:href="utils__converters_8cpp.html#ab218e62029b4451e910d8caf0fd05804" target="_top" xlink:title="Converts an OperationType to a string.">
<polygon fill="white" stroke="#666666" points="665.75,-134 543.25,-134 543.25,-114 665.75,-114 665.75,-134"/>
<text text-anchor="middle" x="604.5" y="-120.5" font-family="Helvetica,sans-Serif" font-size="10.00">operation_type_to_string</text>
</a>
</g>
</g>
<!-- Node7&#45;&gt;Node8 -->
<g id="edge9_Node000007_Node000008" class="edge">
<title>Node7&#45;&gt;Node8</title>
<g id="a_edge9_Node000007_Node000008"><a xlink:title=" ">
<path fill="none" stroke="#63b8ff" d="M497.62,-124C508.11,-124 519.84,-124 531.56,-124"/>
<polygon fill="#63b8ff" stroke="#63b8ff" points="531.24,-127.5 541.24,-124 531.24,-120.5 531.24,-127.5"/>
</a>
</g>
</g>
<!-- Node9&#45;&gt;Node10 -->
<g id="edge11_Node000009_Node000010" class="edge">
<title>Node9&#45;&gt;Node10</title>
<g id="a_edge11_Node000009_Node000010"><a xlink:title=" ">
<path fill="none" stroke="#63b8ff" d="M499.52,-80.71C519.85,-78.03 544.43,-74.79 564.59,-72.13"/>
<polygon fill="#63b8ff" stroke="#63b8ff" points="564.92,-75.62 574.38,-70.84 564,-68.68 564.92,-75.62"/>
</a>
</g>
</g>
</g>
</svg>
