<?xml version="1.0" encoding="UTF-8" standalone="no"?>
<!DOCTYPE svg PUBLIC "-//W3C//DTD SVG 1.1//EN"
 "http://www.w3.org/Graphics/SVG/1.1/DTD/svg11.dtd">
<!-- Generated by graphviz version 12.2.1 (20241206.2353)
 -->
<!-- Title: frame_encode Pages: 1 -->
<svg width="806pt" height="292pt"
 viewBox="0.00 0.00 806.00 291.97" xmlns="http://www.w3.org/2000/svg" xmlns:xlink="http://www.w3.org/1999/xlink">
<g id="graph0" class="graph" transform="scale(1 1) rotate(0) translate(4 287.97)">
<title>frame_encode</title>
<!-- Node1 -->
<g id="Node000001" class="node">
<title>Node1</title>
<g id="a_Node000001"><a xlink:title="Encodes a Frame instance into a string.">
<polygon fill="#999999" stroke="#666666" points="798,-58 720.5,-58 720.5,-38 798,-38 798,-58"/>
<text text-anchor="middle" x="759.25" y="-44.5" font-family="Helvetica,sans-Serif" font-size="10.00">frame_encode</text>
</a>
</g>
</g>
<!-- Node2 -->
<g id="Node000002" class="node">
<title>Node2</title>
<g id="a_Node000002"><a xlink:href="send_8cpp.html#ae6c6f3b673e7e83306da7ea2458d3241" target="_top" xlink:title="Sends a Frame using LoRa.">
<polygon fill="white" stroke="#666666" points="654.12,-172 587.12,-172 587.12,-152 654.12,-152 654.12,-172"/>
<text text-anchor="middle" x="620.62" y="-158.5" font-family="Helvetica,sans-Serif" font-size="10.00">send_frame</text>
</a>
</g>
</g>
<!-- Node1&#45;&gt;Node2 -->
<g id="edge1_Node000001_Node000002" class="edge">
<title>Node1&#45;&gt;Node2</title>
<g id="a_edge1_Node000001_Node000002"><a xlink:title=" ">
<path fill="none" stroke="#63b8ff" d="M737.63,-65.21C708.81,-89.26 657.39,-132.16 633.92,-151.74"/>
<polygon fill="#63b8ff" stroke="#63b8ff" points="739.53,-68.18 744.96,-59.09 735.04,-62.81 739.53,-68.18"/>
</a>
</g>
</g>
<!-- Node8 -->
<g id="Node000008" class="node">
<title>Node8</title>
<g id="a_Node000008"><a xlink:href="test__frame__coding_8cpp.html#a75deef6947cf7117a58214b4298ecec9" target="_top" xlink:title=" ">
<polygon fill="white" stroke="#666666" points="331.5,-58 203.75,-58 203.75,-38 331.5,-38 331.5,-58"/>
<text text-anchor="middle" x="267.62" y="-44.5" font-family="Helvetica,sans-Serif" font-size="10.00">test_frame_decode_basic</text>
</a>
</g>
</g>
<!-- Node1&#45;&gt;Node8 -->
<g id="edge18_Node000001_Node000008" class="edge">
<title>Node1&#45;&gt;Node8</title>
<g id="a_edge18_Node000001_Node000008"><a xlink:title=" ">
<path fill="none" stroke="#63b8ff" d="M708.8,-48C619.3,-48 430.61,-48 331.88,-48"/>
<polygon fill="#63b8ff" stroke="#63b8ff" points="708.72,-51.5 718.72,-48 708.72,-44.5 708.72,-51.5"/>
</a>
</g>
</g>
<!-- Node14 -->
<g id="Node000014" class="node">
<title>Node14</title>
<g id="a_Node000014"><a xlink:href="test__frame__coding_8cpp.html#a85d94957544c2947761ccefd9bf74540" target="_top" xlink:title=" ">
<polygon fill="white" stroke="#666666" points="684.5,-20 556.75,-20 556.75,0 684.5,0 684.5,-20"/>
<text text-anchor="middle" x="620.62" y="-6.5" font-family="Helvetica,sans-Serif" font-size="10.00">test_frame_encode_basic</text>
</a>
</g>
</g>
<!-- Node1&#45;&gt;Node14 -->
<g id="edge19_Node000001_Node000014" class="edge">
<title>Node1&#45;&gt;Node14</title>
<g id="a_edge19_Node000001_Node000014"><a xlink:title=" ">
<path fill="none" stroke="#63b8ff" d="M709.91,-34.55C693.25,-29.92 674.86,-24.81 659.2,-20.45"/>
<polygon fill="#63b8ff" stroke="#63b8ff" points="708.52,-37.8 719.1,-37.11 710.4,-31.06 708.52,-37.8"/>
</a>
</g>
</g>
<!-- Node3 -->
<g id="Node000003" class="node">
<title>Node3</title>
<g id="a_Node000003"><a xlink:href="frame_8cpp.html#a0b3438ff642c0934321101e1f0b8d82d" target="_top" xlink:title="Converts a string into a Frame instance.">
<polygon fill="white" stroke="#666666" points="484,-96 406.5,-96 406.5,-76 484,-76 484,-96"/>
<text text-anchor="middle" x="445.25" y="-82.5" font-family="Helvetica,sans-Serif" font-size="10.00">frame_decode</text>
</a>
</g>
</g>
<!-- Node2&#45;&gt;Node3 -->
<g id="edge2_Node000002_Node000003" class="edge">
<title>Node2&#45;&gt;Node3</title>
<g id="a_edge2_Node000002_Node000003"><a xlink:title=" ">
<path fill="none" stroke="#63b8ff" d="M594.97,-145.24C575.53,-132.66 547.35,-115.82 520.75,-105 509.25,-100.32 496.28,-96.54 484.41,-93.61"/>
<polygon fill="#63b8ff" stroke="#63b8ff" points="593,-148.13 603.28,-150.71 596.85,-142.29 593,-148.13"/>
</a>
</g>
</g>
<!-- Node4 -->
<g id="Node000004" class="node">
<title>Node4</title>
<g id="a_Node000004"><a xlink:href="frame_8cpp.html#a8b9c5fd031b899c6c7867adcde4ac11f" target="_top" xlink:title="Executes a command based on the command key and the parameter.">
<polygon fill="white" stroke="#666666" points="307.88,-159 227.38,-159 227.38,-139 307.88,-139 307.88,-159"/>
<text text-anchor="middle" x="267.62" y="-145.5" font-family="Helvetica,sans-Serif" font-size="10.00">frame_process</text>
</a>
</g>
</g>
<!-- Node2&#45;&gt;Node4 -->
<g id="edge12_Node000002_Node000004" class="edge">
<title>Node2&#45;&gt;Node4</title>
<g id="a_edge12_Node000002_Node000004"><a xlink:title=" ">
<path fill="none" stroke="#63b8ff" d="M575.62,-160.37C506.72,-157.82 374.42,-152.92 308.29,-150.47"/>
<polygon fill="#63b8ff" stroke="#63b8ff" points="575.28,-163.86 585.41,-160.73 575.54,-156.86 575.28,-163.86"/>
</a>
</g>
</g>
<!-- Node6 -->
<g id="Node000006" class="node">
<title>Node6</title>
<g id="a_Node000006"><a xlink:href="main_8cpp.html#ae66f6b31b5ad750f1fe042a706a4e3d4" target="_top" xlink:title=" ">
<polygon fill="white" stroke="#666666" points="37,-210 0,-210 0,-190 37,-190 37,-210"/>
<text text-anchor="middle" x="18.5" y="-196.5" font-family="Helvetica,sans-Serif" font-size="10.00">main</text>
</a>
</g>
</g>
<!-- Node2&#45;&gt;Node6 -->
<g id="edge16_Node000002_Node000006" class="edge">
<title>Node2&#45;&gt;Node6</title>
<g id="a_edge16_Node000002_Node000006"><a xlink:title=" ">
<path fill="none" stroke="#63b8ff" d="M606.57,-181.54C589.84,-204.63 558.45,-241.82 520.75,-257 343.22,-328.46 103.59,-236.41 37.19,-207.91"/>
<polygon fill="#63b8ff" stroke="#63b8ff" points="609.28,-183.78 612.14,-173.58 603.54,-179.77 609.28,-183.78"/>
</a>
</g>
</g>
<!-- Node11 -->
<g id="Node000011" class="node">
<title>Node11</title>
<g id="a_Node000011"><a xlink:href="group___diagnostic_commands.html#ga3ab5723218b68d3ac5cd864e00ed157a" target="_top" xlink:title="Reboot system to USB firmware loader.">
<polygon fill="white" stroke="#666666" points="520.75,-134 369.75,-134 369.75,-114 520.75,-114 520.75,-134"/>
<text text-anchor="middle" x="445.25" y="-120.5" font-family="Helvetica,sans-Serif" font-size="10.00">handle_enter_bootloader_mode</text>
</a>
</g>
</g>
<!-- Node2&#45;&gt;Node11 -->
<g id="edge13_Node000002_Node000011" class="edge">
<title>Node2&#45;&gt;Node11</title>
<g id="a_edge13_Node000002_Node000011"><a xlink:title=" ">
<path fill="none" stroke="#63b8ff" d="M576.04,-152.45C551.09,-146.98 519.74,-140.11 494.11,-134.49"/>
<polygon fill="#63b8ff" stroke="#63b8ff" points="575.02,-155.81 585.54,-154.53 576.52,-148.97 575.02,-155.81"/>
</a>
</g>
</g>
<!-- Node12 -->
<g id="Node000012" class="node">
<title>Node12</title>
<g id="a_Node000012"><a xlink:href="main_8cpp.html#a8fa5379b5bec497b881cec19f2b38779" target="_top" xlink:title=" ">
<polygon fill="white" stroke="#666666" points="303.38,-219 231.88,-219 231.88,-199 303.38,-199 303.38,-219"/>
<text text-anchor="middle" x="267.62" y="-205.5" font-family="Helvetica,sans-Serif" font-size="10.00">init_systems</text>
</a>
</g>
</g>
<!-- Node2&#45;&gt;Node12 -->
<g id="edge14_Node000002_Node000012" class="edge">
<title>Node2&#45;&gt;Node12</title>
<g id="a_edge14_Node000002_Node000012"><a xlink:title=" ">
<path fill="none" stroke="#63b8ff" d="M575.79,-167.87C505.31,-177.31 368.17,-195.67 303.71,-204.3"/>
<polygon fill="#63b8ff" stroke="#63b8ff" points="575.97,-171.38 585.42,-166.58 575.04,-164.44 575.97,-171.38"/>
</a>
</g>
</g>
<!-- Node13 -->
<g id="Node000013" class="node">
<title>Node13</title>
<g id="a_Node000013"><a xlink:href="frame_8cpp.html#af49224563adb4bf0b91daa5ab78120ca" target="_top" xlink:title="Sends the event register value to the ground station.">
<polygon fill="white" stroke="#666666" points="478.38,-248 412.12,-248 412.12,-228 478.38,-228 478.38,-248"/>
<text text-anchor="middle" x="445.25" y="-234.5" font-family="Helvetica,sans-Serif" font-size="10.00">send_event</text>
</a>
</g>
</g>
<!-- Node2&#45;&gt;Node13 -->
<g id="edge17_Node000002_Node000013" class="edge">
<title>Node2&#45;&gt;Node13</title>
<g id="a_edge17_Node000002_Node000013"><a xlink:title=" ">
<path fill="none" stroke="#63b8ff" d="M592.48,-177.91C572.95,-188.94 545.76,-203.49 520.75,-214 507.22,-219.69 491.85,-224.85 478.59,-228.91"/>
<polygon fill="#63b8ff" stroke="#63b8ff" points="593.95,-181.1 600.9,-173.09 590.48,-175.02 593.95,-181.1"/>
</a>
</g>
</g>
<!-- Node3&#45;&gt;Node4 -->
<g id="edge3_Node000003_Node000004" class="edge">
<title>Node3&#45;&gt;Node4</title>
<g id="a_edge3_Node000003_Node000004"><a xlink:title=" ">
<path fill="none" stroke="#63b8ff" d="M395.02,-97.36C386.52,-99.66 377.83,-102.23 369.75,-105 341.49,-114.68 310.12,-128.9 289.93,-138.53"/>
<polygon fill="#63b8ff" stroke="#63b8ff" points="395.74,-100.79 404.54,-94.88 393.98,-94.02 395.74,-100.79"/>
</a>
</g>
</g>
<!-- Node3&#45;&gt;Node8 -->
<g id="edge8_Node000003_Node000008" class="edge">
<title>Node3&#45;&gt;Node8</title>
<g id="a_edge8_Node000003_Node000008"><a xlink:title=" ">
<path fill="none" stroke="#63b8ff" d="M394.97,-75.34C370.6,-70.06 341.29,-63.72 317.03,-58.47"/>
<polygon fill="#63b8ff" stroke="#63b8ff" points="394.15,-78.74 404.66,-77.43 395.63,-71.9 394.15,-78.74"/>
</a>
</g>
</g>
<!-- Node10 -->
<g id="Node000010" class="node">
<title>Node10</title>
<g id="a_Node000010"><a xlink:href="test__frame__coding_8cpp.html#a054000b3d2c0abb2e13b9109ae0969ef" target="_top" xlink:title=" ">
<polygon fill="white" stroke="#666666" points="333.75,-108 201.5,-108 201.5,-76 333.75,-76 333.75,-108"/>
<text text-anchor="start" x="209.5" y="-94.5" font-family="Helvetica,sans-Serif" font-size="10.00">test_frame_decode_invalid</text>
<text text-anchor="middle" x="267.62" y="-82.5" font-family="Helvetica,sans-Serif" font-size="10.00">_header</text>
</a>
</g>
</g>
<!-- Node3&#45;&gt;Node10 -->
<g id="edge10_Node000003_Node000010" class="edge">
<title>Node3&#45;&gt;Node10</title>
<g id="a_edge10_Node000003_Node000010"><a xlink:title=" ">
<path fill="none" stroke="#63b8ff" d="M394.81,-87.69C375.92,-88.33 354.09,-89.08 333.95,-89.77"/>
<polygon fill="#63b8ff" stroke="#63b8ff" points="394.75,-91.19 404.63,-87.35 394.52,-84.2 394.75,-91.19"/>
</a>
</g>
</g>
<!-- Node5 -->
<g id="Node000005" class="node">
<title>Node5</title>
<g id="a_Node000005"><a xlink:href="receive_8cpp.html#a14ffba44d46e00b23bd72bdb3a4d58d1" target="_top" xlink:title="Handles UART input.">
<polygon fill="white" stroke="#666666" points="165.5,-191 73,-191 73,-171 165.5,-171 165.5,-191"/>
<text text-anchor="middle" x="119.25" y="-177.5" font-family="Helvetica,sans-Serif" font-size="10.00">handle_uart_input</text>
</a>
</g>
</g>
<!-- Node4&#45;&gt;Node5 -->
<g id="edge4_Node000004_Node000005" class="edge">
<title>Node4&#45;&gt;Node5</title>
<g id="a_edge4_Node000004_Node000005"><a xlink:title=" ">
<path fill="none" stroke="#63b8ff" d="M216.04,-160.06C199.73,-163.62 181.77,-167.55 165.85,-171.03"/>
<polygon fill="#63b8ff" stroke="#63b8ff" points="216.51,-163.54 225.54,-157.98 215.02,-156.7 216.51,-163.54"/>
</a>
</g>
</g>
<!-- Node7 -->
<g id="Node000007" class="node">
<title>Node7</title>
<g id="a_Node000007"><a xlink:href="receive_8cpp.html#a3f494105dee3a08e1244febc81982517" target="_top" xlink:title="Callback function for handling received LoRa packets.">
<polygon fill="white" stroke="#666666" points="150.88,-153 87.62,-153 87.62,-133 150.88,-133 150.88,-153"/>
<text text-anchor="middle" x="119.25" y="-139.5" font-family="Helvetica,sans-Serif" font-size="10.00">on_receive</text>
</a>
</g>
</g>
<!-- Node4&#45;&gt;Node7 -->
<g id="edge6_Node000004_Node000007" class="edge">
<title>Node4&#45;&gt;Node7</title>
<g id="a_edge6_Node000004_Node000007"><a xlink:title=" ">
<path fill="none" stroke="#63b8ff" d="M215.73,-146.91C194.19,-146.03 169.81,-145.03 151.07,-144.26"/>
<polygon fill="#63b8ff" stroke="#63b8ff" points="215.37,-150.4 225.5,-147.31 215.65,-143.41 215.37,-150.4"/>
</a>
</g>
</g>
<!-- Node5&#45;&gt;Node6 -->
<g id="edge5_Node000005_Node000006" class="edge">
<title>Node5&#45;&gt;Node6</title>
<g id="a_edge5_Node000005_Node000006"><a xlink:title=" ">
<path fill="none" stroke="#63b8ff" d="M61.47,-191.92C52.72,-193.61 44.3,-195.23 37.31,-196.57"/>
<polygon fill="#63b8ff" stroke="#63b8ff" points="61.99,-195.39 71.15,-190.06 60.67,-188.52 61.99,-195.39"/>
</a>
</g>
</g>
<!-- Node7&#45;&gt;Node6 -->
<g id="edge7_Node000007_Node000006" class="edge">
<title>Node7&#45;&gt;Node6</title>
<g id="a_edge7_Node000007_Node000006"><a xlink:title=" ">
<path fill="none" stroke="#63b8ff" d="M80.72,-157.99C78.07,-159.28 75.48,-160.62 73,-162 58.26,-170.2 42.69,-181.62 32.16,-189.79"/>
<polygon fill="#63b8ff" stroke="#63b8ff" points="81.97,-161.27 89.61,-153.93 79.06,-154.9 81.97,-161.27"/>
</a>
</g>
</g>
<!-- Node9 -->
<g id="Node000009" class="node">
<title>Node9</title>
<g id="a_Node000009"><a xlink:href="test__runner_8cpp.html#a840291bc02cba5474a4cb46a9b9566fe" target="_top" xlink:title=" ">
<polygon fill="white" stroke="#666666" points="137.75,-58 100.75,-58 100.75,-38 137.75,-38 137.75,-58"/>
<text text-anchor="middle" x="119.25" y="-44.5" font-family="Helvetica,sans-Serif" font-size="10.00">main</text>
</a>
</g>
</g>
<!-- Node8&#45;&gt;Node9 -->
<g id="edge9_Node000008_Node000009" class="edge">
<title>Node8&#45;&gt;Node9</title>
<g id="a_edge9_Node000008_Node000009"><a xlink:title=" ">
<path fill="none" stroke="#63b8ff" d="M191.77,-48C171.63,-48 151.65,-48 137.95,-48"/>
<polygon fill="#63b8ff" stroke="#63b8ff" points="191.76,-51.5 201.76,-48 191.76,-44.5 191.76,-51.5"/>
</a>
</g>
</g>
<!-- Node10&#45;&gt;Node9 -->
<g id="edge11_Node000010_Node000009" class="edge">
<title>Node10&#45;&gt;Node9</title>
<g id="a_edge11_Node000010_Node000009"><a xlink:title=" ">
<path fill="none" stroke="#63b8ff" d="M201.23,-72.34C178.07,-65.38 153.85,-58.1 138,-53.34"/>
<polygon fill="#63b8ff" stroke="#63b8ff" points="200.09,-75.65 210.67,-75.18 202.1,-68.95 200.09,-75.65"/>
</a>
</g>
</g>
<!-- Node12&#45;&gt;Node6 -->
<g id="edge15_Node000012_Node000006" class="edge">
<title>Node12&#45;&gt;Node6</title>
<g id="a_edge15_Node000012_Node000006"><a xlink:title=" ">
<path fill="none" stroke="#63b8ff" d="M220.22,-207.31C164.88,-205.29 75.09,-202.02 37.23,-200.65"/>
<polygon fill="#63b8ff" stroke="#63b8ff" points="219.85,-210.8 229.97,-207.66 220.1,-203.8 219.85,-210.8"/>
</a>
</g>
</g>
<!-- Node14&#45;&gt;Node9 -->
<g id="edge20_Node000014_Node000009" class="edge">
<title>Node14&#45;&gt;Node9</title>
<g id="a_edge20_Node000014_Node000009"><a xlink:title=" ">
<path fill="none" stroke="#63b8ff" d="M545.15,-9.26C461.23,-9.38 320.95,-12.46 201.5,-29 179.4,-32.06 154.49,-38.31 138.14,-42.81"/>
<polygon fill="#63b8ff" stroke="#63b8ff" points="545.09,-12.76 555.09,-9.26 545.09,-5.76 545.09,-12.76"/>
</a>
</g>
</g>
</g>
</svg>
