<?xml version="1.0" encoding="UTF-8" standalone="no"?>
<!DOCTYPE svg PUBLIC "-//W3C//DTD SVG 1.1//EN"
 "http://www.w3.org/Graphics/SVG/1.1/DTD/svg11.dtd">
<!-- Generated by graphviz version 12.2.1 (20241206.2353)
 -->
<!-- Title: on_receive Pages: 1 -->
<svg width="773pt" height="185pt"
 viewBox="0.00 0.00 773.00 184.88" xmlns="http://www.w3.org/2000/svg" xmlns:xlink="http://www.w3.org/1999/xlink">
<g id="graph0" class="graph" transform="scale(1 1) rotate(0) translate(4 180.88)">
<title>on_receive</title>
<!-- Node1 -->
<g id="Node000001" class="node">
<title>Node1</title>
<g id="a_Node000001"><a xlink:title="Callback function for handling received LoRa packets.">
<polygon fill="#999999" stroke="#666666" points="63.25,-51.88 0,-51.88 0,-31.88 63.25,-31.88 63.25,-51.88"/>
<text text-anchor="middle" x="31.62" y="-38.38" font-family="Helvetica,sans-Serif" font-size="10.00">on_receive</text>
</a>
</g>
</g>
<!-- Node2 -->
<g id="Node000002" class="node">
<title>Node2</title>
<g id="a_Node000002"><a xlink:href="frame_8cpp.html#a8b9c5fd031b899c6c7867adcde4ac11f" target="_top" xlink:title="Executes a command based on the command key and the parameter.">
<polygon fill="white" stroke="#666666" points="179.75,-91.88 99.25,-91.88 99.25,-71.88 179.75,-71.88 179.75,-91.88"/>
<text text-anchor="middle" x="139.5" y="-78.38" font-family="Helvetica,sans-Serif" font-size="10.00">frame_process</text>
</a>
</g>
</g>
<!-- Node1&#45;&gt;Node2 -->
<g id="edge1_Node000001_Node000002" class="edge">
<title>Node1&#45;&gt;Node2</title>
<g id="a_edge1_Node000001_Node000002"><a xlink:title=" ">
<path fill="none" stroke="#63b8ff" d="M60.17,-52.28C72.32,-56.87 86.82,-62.35 100.03,-67.34"/>
<polygon fill="#63b8ff" stroke="#63b8ff" points="98.72,-70.59 109.31,-70.85 101.2,-64.04 98.72,-70.59"/>
</a>
</g>
</g>
<!-- Node11 -->
<g id="Node000011" class="node">
<title>Node11</title>
<g id="a_Node000011"><a xlink:href="utils_8cpp.html#acd86977d05fa330749958ace0f2798de" target="_top" xlink:title="Prints a message to the UART with a timestamp and core number.">
<polygon fill="white" stroke="#666666" points="732,-100.88 675.5,-100.88 675.5,-80.88 732,-80.88 732,-100.88"/>
<text text-anchor="middle" x="703.75" y="-87.38" font-family="Helvetica,sans-Serif" font-size="10.00">uart_print</text>
</a>
</g>
</g>
<!-- Node1&#45;&gt;Node11 -->
<g id="edge16_Node000001_Node000011" class="edge">
<title>Node1&#45;&gt;Node11</title>
<g id="a_edge16_Node000001_Node000011"><a xlink:title=" ">
<path fill="none" stroke="#63b8ff" d="M63.41,-33.32C107.48,-21.84 191.29,-2.88 264,-2.88 264,-2.88 264,-2.88 412.5,-2.88 499.13,-2.88 525.41,8.63 606.5,-21.88 636.76,-33.26 666.17,-56.7 684.35,-73.08"/>
<polygon fill="#63b8ff" stroke="#63b8ff" points="681.5,-75.22 691.21,-79.45 686.26,-70.08 681.5,-75.22"/>
</a>
</g>
</g>
<!-- Node3 -->
<g id="Node000003" class="node">
<title>Node3</title>
<g id="a_Node000003"><a xlink:href="group___command_system.html#ga52e8963095eccdf1045309bf31b4d705" target="_top" xlink:title="Executes a command based on its key.">
<polygon fill="white" stroke="#666666" points="314.25,-91.88 215.75,-91.88 215.75,-71.88 314.25,-71.88 314.25,-91.88"/>
<text text-anchor="middle" x="265" y="-78.38" font-family="Helvetica,sans-Serif" font-size="10.00">execute_command</text>
</a>
</g>
</g>
<!-- Node2&#45;&gt;Node3 -->
<g id="edge2_Node000002_Node000003" class="edge">
<title>Node2&#45;&gt;Node3</title>
<g id="a_edge2_Node000002_Node000003"><a xlink:title=" ">
<path fill="none" stroke="#63b8ff" d="M179.92,-81.88C187.59,-81.88 195.8,-81.88 203.97,-81.88"/>
<polygon fill="#63b8ff" stroke="#63b8ff" points="203.92,-85.38 213.92,-81.88 203.92,-78.38 203.92,-85.38"/>
</a>
</g>
</g>
<!-- Node4 -->
<g id="Node000004" class="node">
<title>Node4</title>
<g id="a_Node000004"><a xlink:href="frame_8cpp.html#a29170691faa10727d607a73861cacbeb" target="_top" xlink:title="Builds a Frame instance.">
<polygon fill="white" stroke="#666666" points="444.62,-59.88 378.38,-59.88 378.38,-39.88 444.62,-39.88 444.62,-59.88"/>
<text text-anchor="middle" x="411.5" y="-46.38" font-family="Helvetica,sans-Serif" font-size="10.00">frame_build</text>
</a>
</g>
</g>
<!-- Node2&#45;&gt;Node4 -->
<g id="edge5_Node000002_Node000004" class="edge">
<title>Node2&#45;&gt;Node4</title>
<g id="a_edge5_Node000002_Node000004"><a xlink:title=" ">
<path fill="none" stroke="#63b8ff" d="M176.21,-71.46C188.62,-68.21 202.71,-64.94 215.75,-62.88 267.12,-54.74 326.9,-51.69 366.54,-50.55"/>
<polygon fill="#63b8ff" stroke="#63b8ff" points="366.49,-54.05 376.4,-50.3 366.31,-47.05 366.49,-54.05"/>
</a>
</g>
</g>
<!-- Node6 -->
<g id="Node000006" class="node">
<title>Node6</title>
<g id="a_Node000006"><a xlink:href="frame_8cpp.html#a0b3438ff642c0934321101e1f0b8d82d" target="_top" xlink:title="Converts a string into a Frame instance.">
<polygon fill="white" stroke="#666666" points="303.75,-129.88 226.25,-129.88 226.25,-109.88 303.75,-109.88 303.75,-129.88"/>
<text text-anchor="middle" x="265" y="-116.38" font-family="Helvetica,sans-Serif" font-size="10.00">frame_decode</text>
</a>
</g>
</g>
<!-- Node2&#45;&gt;Node6 -->
<g id="edge6_Node000002_Node000006" class="edge">
<title>Node2&#45;&gt;Node6</title>
<g id="a_edge6_Node000002_Node000006"><a xlink:title=" ">
<path fill="none" stroke="#63b8ff" d="M174.57,-92.36C188.34,-96.6 204.43,-101.55 219.13,-106.07"/>
<polygon fill="#63b8ff" stroke="#63b8ff" points="218,-109.38 228.59,-108.98 220.06,-102.69 218,-109.38"/>
</a>
</g>
</g>
<!-- Node7 -->
<g id="Node000007" class="node">
<title>Node7</title>
<g id="a_Node000007"><a xlink:href="send_8cpp.html#ae6c6f3b673e7e83306da7ea2458d3241" target="_top" xlink:title="Sends a Frame using LoRa.">
<polygon fill="white" stroke="#666666" points="445,-176.88 378,-176.88 378,-156.88 445,-156.88 445,-176.88"/>
<text text-anchor="middle" x="411.5" y="-163.38" font-family="Helvetica,sans-Serif" font-size="10.00">send_frame</text>
</a>
</g>
</g>
<!-- Node2&#45;&gt;Node7 -->
<g id="edge15_Node000002_Node000007" class="edge">
<title>Node2&#45;&gt;Node7</title>
<g id="a_edge15_Node000002_Node000007"><a xlink:title=" ">
<path fill="none" stroke="#63b8ff" d="M150.62,-92.29C164.13,-105.5 189.43,-127.89 215.75,-138.88 264.66,-159.3 325.84,-165.25 366.44,-166.77"/>
<polygon fill="#63b8ff" stroke="#63b8ff" points="366.21,-170.27 376.31,-167.06 366.42,-163.27 366.21,-170.27"/>
</a>
</g>
</g>
<!-- Node3&#45;&gt;Node4 -->
<g id="edge3_Node000003_Node000004" class="edge">
<title>Node3&#45;&gt;Node4</title>
<g id="a_edge3_Node000003_Node000004"><a xlink:title=" ">
<path fill="none" stroke="#63b8ff" d="M313.31,-71.4C330.73,-67.54 350.36,-63.19 367.39,-59.42"/>
<polygon fill="#63b8ff" stroke="#63b8ff" points="367.67,-62.95 376.68,-57.37 366.16,-56.11 367.67,-62.95"/>
</a>
</g>
</g>
<!-- Node5 -->
<g id="Node000005" class="node">
<title>Node5</title>
<g id="a_Node000005"><a xlink:href="utils__converters_8cpp.html#a29531ed9ad98ab78384a8a2f37f4e77d" target="_top" xlink:title="Converts a ValueUnit to a string.">
<polygon fill="white" stroke="#666666" points="606.5,-62.88 508.75,-62.88 508.75,-30.88 606.5,-30.88 606.5,-62.88"/>
<text text-anchor="start" x="516.75" y="-49.38" font-family="Helvetica,sans-Serif" font-size="10.00">value_unit_type_to</text>
<text text-anchor="middle" x="557.62" y="-37.38" font-family="Helvetica,sans-Serif" font-size="10.00">_string</text>
</a>
</g>
</g>
<!-- Node4&#45;&gt;Node5 -->
<g id="edge4_Node000004_Node000005" class="edge">
<title>Node4&#45;&gt;Node5</title>
<g id="a_edge4_Node000004_Node000005"><a xlink:title=" ">
<path fill="none" stroke="#63b8ff" d="M444.84,-49.2C460.3,-48.88 479.31,-48.49 497.24,-48.11"/>
<polygon fill="#63b8ff" stroke="#63b8ff" points="497.07,-51.62 507,-47.91 496.93,-44.62 497.07,-51.62"/>
</a>
</g>
</g>
<!-- Node6&#45;&gt;Node4 -->
<g id="edge7_Node000006_Node000004" class="edge">
<title>Node6&#45;&gt;Node4</title>
<g id="a_edge7_Node000006_Node000004"><a xlink:title=" ">
<path fill="none" stroke="#63b8ff" d="M295.53,-109.4C301.82,-106.85 308.35,-103.96 314.25,-100.88 331.29,-91.97 333.42,-86.17 350.25,-76.88 357.92,-72.64 366.39,-68.52 374.49,-64.83"/>
<polygon fill="#63b8ff" stroke="#63b8ff" points="375.72,-68.12 383.45,-60.87 372.89,-61.72 375.72,-68.12"/>
</a>
</g>
</g>
<!-- Node6&#45;&gt;Node7 -->
<g id="edge8_Node000006_Node000007" class="edge">
<title>Node6&#45;&gt;Node7</title>
<g id="a_edge8_Node000006_Node000007"><a xlink:title=" ">
<path fill="none" stroke="#63b8ff" d="M297.17,-130.36C313.04,-135.67 332.65,-142.18 350.25,-147.88 355.65,-149.63 361.34,-151.45 366.97,-153.24"/>
<polygon fill="#63b8ff" stroke="#63b8ff" points="365.6,-156.47 376.19,-156.16 367.72,-149.8 365.6,-156.47"/>
</a>
</g>
</g>
<!-- Node6&#45;&gt;Node11 -->
<g id="edge14_Node000006_Node000011" class="edge">
<title>Node6&#45;&gt;Node11</title>
<g id="a_edge14_Node000006_Node000011"><a xlink:title=" ">
<path fill="none" stroke="#63b8ff" d="M304.11,-114.83C318.54,-113.05 335.13,-111.18 350.25,-109.88 464.07,-100.06 599.02,-94.47 663.99,-92.15"/>
<polygon fill="#63b8ff" stroke="#63b8ff" points="663.9,-95.65 673.77,-91.81 663.66,-88.66 663.9,-95.65"/>
</a>
</g>
</g>
<!-- Node12 -->
<g id="Node000012" class="node">
<title>Node12</title>
<g id="a_Node000012"><a xlink:href="utils__converters_8cpp.html#a4e9ddea19ddd04177180c2dfae26b15b" target="_top" xlink:title="Converts a string to an OperationType.">
<polygon fill="white" stroke="#666666" points="472.75,-138.88 350.25,-138.88 350.25,-118.88 472.75,-118.88 472.75,-138.88"/>
<text text-anchor="middle" x="411.5" y="-125.38" font-family="Helvetica,sans-Serif" font-size="10.00">string_to_operation_type</text>
</a>
</g>
</g>
<!-- Node6&#45;&gt;Node12 -->
<g id="edge13_Node000006_Node000012" class="edge">
<title>Node6&#45;&gt;Node12</title>
<g id="a_edge13_Node000006_Node000012"><a xlink:title=" ">
<path fill="none" stroke="#63b8ff" d="M303.97,-122.24C314.61,-122.9 326.55,-123.65 338.48,-124.39"/>
<polygon fill="#63b8ff" stroke="#63b8ff" points="338.16,-127.88 348.36,-125.01 338.6,-120.89 338.16,-127.88"/>
</a>
</g>
</g>
<!-- Node8 -->
<g id="Node000008" class="node">
<title>Node8</title>
<g id="a_Node000008"><a xlink:href="frame_8cpp.html#a3ae6df528775be58890bf406c906a056" target="_top" xlink:title="Encodes a Frame instance into a string.">
<polygon fill="white" stroke="#666666" points="596.38,-176.88 518.88,-176.88 518.88,-156.88 596.38,-156.88 596.38,-176.88"/>
<text text-anchor="middle" x="557.62" y="-163.38" font-family="Helvetica,sans-Serif" font-size="10.00">frame_encode</text>
</a>
</g>
</g>
<!-- Node7&#45;&gt;Node8 -->
<g id="edge9_Node000007_Node000008" class="edge">
<title>Node7&#45;&gt;Node8</title>
<g id="a_edge9_Node000007_Node000008"><a xlink:title=" ">
<path fill="none" stroke="#63b8ff" d="M445.2,-166.88C463.48,-166.88 486.63,-166.88 507.08,-166.88"/>
<polygon fill="#63b8ff" stroke="#63b8ff" points="506.92,-170.38 516.92,-166.88 506.92,-163.38 506.92,-170.38"/>
</a>
</g>
</g>
<!-- Node10 -->
<g id="Node000010" class="node">
<title>Node10</title>
<g id="a_Node000010"><a xlink:href="send_8cpp.html#a42881e6476e0ce51ee9f6a99a7318d3b" target="_top" xlink:title="Sends a message using LoRa.">
<polygon fill="white" stroke="#666666" points="598.62,-138.88 516.62,-138.88 516.62,-118.88 598.62,-118.88 598.62,-138.88"/>
<text text-anchor="middle" x="557.62" y="-125.38" font-family="Helvetica,sans-Serif" font-size="10.00">send_message</text>
</a>
</g>
</g>
<!-- Node7&#45;&gt;Node10 -->
<g id="edge11_Node000007_Node000010" class="edge">
<title>Node7&#45;&gt;Node10</title>
<g id="a_edge11_Node000007_Node000010"><a xlink:title=" ">
<path fill="none" stroke="#63b8ff" d="M445.2,-158.25C463.14,-153.52 485.78,-147.56 505.95,-142.24"/>
<polygon fill="#63b8ff" stroke="#63b8ff" points="506.62,-145.68 515.4,-139.75 504.84,-138.91 506.62,-145.68"/>
</a>
</g>
</g>
<!-- Node9 -->
<g id="Node000009" class="node">
<title>Node9</title>
<g id="a_Node000009"><a xlink:href="utils__converters_8cpp.html#ab218e62029b4451e910d8caf0fd05804" target="_top" xlink:title="Converts an OperationType to a string.">
<polygon fill="white" stroke="#666666" points="765,-176.88 642.5,-176.88 642.5,-156.88 765,-156.88 765,-176.88"/>
<text text-anchor="middle" x="703.75" y="-163.38" font-family="Helvetica,sans-Serif" font-size="10.00">operation_type_to_string</text>
</a>
</g>
</g>
<!-- Node8&#45;&gt;Node9 -->
<g id="edge10_Node000008_Node000009" class="edge">
<title>Node8&#45;&gt;Node9</title>
<g id="a_edge10_Node000008_Node000009"><a xlink:title=" ">
<path fill="none" stroke="#63b8ff" d="M596.87,-166.88C607.36,-166.88 619.09,-166.88 630.81,-166.88"/>
<polygon fill="#63b8ff" stroke="#63b8ff" points="630.49,-170.38 640.49,-166.88 630.49,-163.38 630.49,-170.38"/>
</a>
</g>
</g>
<!-- Node10&#45;&gt;Node11 -->
<g id="edge12_Node000010_Node000011" class="edge">
<title>Node10&#45;&gt;Node11</title>
<g id="a_edge12_Node000010_Node000011"><a xlink:title=" ">
<path fill="none" stroke="#63b8ff" d="M598.39,-118.39C618.96,-112.97 643.96,-106.38 664.34,-101"/>
<polygon fill="#63b8ff" stroke="#63b8ff" points="665.18,-104.4 673.96,-98.47 663.4,-97.63 665.18,-104.4"/>
</a>
</g>
</g>
</g>
</svg>
