<?xml version="1.0" encoding="UTF-8" standalone="no"?>
<!DOCTYPE svg PUBLIC "-//W3C//DTD SVG 1.1//EN"
 "http://www.w3.org/Graphics/SVG/1.1/DTD/svg11.dtd">
<!-- Generated by graphviz version 12.2.1 (20241206.2353)
 -->
<!-- Title: onReceive Pages: 1 -->
<!--zoomable 173 -->

<svg id="main" version="1.1" xmlns="http://www.w3.org/2000/svg" xmlns:xlink="http://www.w3.org/1999/xlink" xml:space="preserve" onload="init(evt)">

<style type="text/css"><![CDATA[
.node, .edge {opacity: 0.7;}
.node.selected, .edge.selected {opacity: 1;}
.edge:hover path { stroke: red; }
.edge:hover polygon { stroke: red; fill: red; }
]]></style>

<defs>
  <circle id="rim" cx="0" cy="0" r="7"/>
  <circle id="rim2" cx="0" cy="0" r="3.5"/>
  <g id="zoomPlus">
    <use xlink:href="#rim" fill="#404040"><set attributeName="fill" to="#808080" begin="zoomplus.mouseover" end="zoomplus.mouseout"/></use>
    <path d="M-4,0h8M0,-4v8" fill="none" stroke="white" stroke-width="1.5" pointer-events="none"/>
  </g>
  <g id="zoomMin">
    <use xlink:href="#rim" fill="#404040"><set attributeName="fill" to="#808080" begin="zoomminus.mouseover" end="zoomminus.mouseout"/></use>
    <path d="M-4,0h8" fill="none" stroke="white" stroke-width="1.5" pointer-events="none"/>
  </g>
  <g id="arrowUp" transform="translate(30 24)">
    <use xlink:href="#rim"/>
    <path pointer-events="none" fill="none" stroke="white" stroke-width="1.5" d="M0,-3.0v7 M-2.5,-0.5L0,-3.0L2.5,-0.5"/>
  </g>
  <g id="arrowRight" transform="rotate(90) translate(36 -43)">
    <use xlink:href="#rim"/>
    <path pointer-events="none" fill="none" stroke="white" stroke-width="1.5" d="M0,-3.0v7 M-2.5,-0.5L0,-3.0L2.5,-0.5"/>
  </g>
  <g id="arrowDown" transform="rotate(180) translate(-30 -48)">
    <use xlink:href="#rim"/>
    <path pointer-events="none" fill="none" stroke="white" stroke-width="1.5" d="M0,-3.0v7 M-2.5,-0.5L0,-3.0L2.5,-0.5"/>
  </g>
  <g id="arrowLeft" transform="rotate(270) translate(-36 17)">
    <use xlink:href="#rim"/>
    <path pointer-events="none" fill="none" stroke="white" stroke-width="1.5" d="M0,-3.0v7 M-2.5,-0.5L0,-3.0L2.5,-0.5"/>
  </g>
  <g id="resetDef">
    <use xlink:href="#rim2" fill="#404040"><set attributeName="fill" to="#808080" begin="reset.mouseover" end="reset.mouseout"/></use>
  </g>
</defs>
<script type="application/ecmascript">
var viewWidth = 786;
var viewHeight = 173;
var sectionId = 'dynsection-5';
</script>
<script type="application/ecmascript" xlink:href="svg.min.js"/>
<svg id="graph" class="graph">
<g id="viewport">
<title>onReceive</title>
<!-- Node1 -->
<g id="Node000001" class="node">
<title>Node1</title>
<g id="a_Node000001"><a xlink:title="Callback function for handling received LoRa packets.">
<polygon fill="#999999" stroke="#666666" points="62.5,-50.59 0,-50.59 0,-30.59 62.5,-30.59 62.5,-50.59"/>
<text text-anchor="middle" x="31.25" y="-37.09" font-family="Helvetica,sans-Serif" font-size="10.00">onReceive</text>
</a>
</g>
</g>
<!-- Node2 -->
<g id="Node000002" class="node">
<title>Node2</title>
<g id="a_Node000002"><a xlink:href="frame_8cpp.html#a8b9407b2f579031cf4b705f1ac03ac31" target="_top" xlink:title="Executes a command based on the command key and the parameter.">
<polygon fill="white" stroke="#666666" points="197.75,-88.59 98.5,-88.59 98.5,-68.59 197.75,-68.59 197.75,-88.59"/>
<text text-anchor="middle" x="148.12" y="-75.09" font-family="Helvetica,sans-Serif" font-size="10.00">processFrameData</text>
</a>
</g>
</g>
<!-- Node1&#45;&gt;Node2 -->
<g id="edge1_Node000001_Node000002" class="edge">
<title>Node1&#45;&gt;Node2</title>
<g id="a_edge1_Node000001_Node000002"><a xlink:title=" ">
<path fill="none" stroke="#63b8ff" d="M62.73,-50.67C75.64,-54.94 90.88,-59.98 104.85,-64.6"/>
<polygon fill="#63b8ff" stroke="#63b8ff" points="103.67,-67.9 114.26,-67.72 105.87,-61.25 103.67,-67.9"/>
</a>
</g>
</g>
<!-- Node10 -->
<g id="Node000010" class="node">
<title>Node10</title>
<g id="a_Node000010"><a xlink:href="utils_8cpp.html#aacbcecbe6b5428e3571b06ab2104e706" target="_top" xlink:title="Prints a message to the UART with a timestamp and core number.">
<polygon fill="white" stroke="#666666" points="747.75,-88.59 695,-88.59 695,-68.59 747.75,-68.59 747.75,-88.59"/>
<text text-anchor="middle" x="721.38" y="-75.09" font-family="Helvetica,sans-Serif" font-size="10.00">uartPrint</text>
</a>
</g>
</g>
<!-- Node1&#45;&gt;Node10 -->
<g id="edge16_Node000001_Node000010" class="edge">
<title>Node1&#45;&gt;Node10</title>
<g id="a_edge16_Node000001_Node000010"><a xlink:title=" ">
<path fill="none" stroke="#63b8ff" d="M62.98,-32.8C109.66,-21.69 201.36,-2.59 280.5,-2.59 280.5,-2.59 280.5,-2.59 423,-2.59 514.94,-2.59 541.86,7.76 629,-21.59 655.16,-30.4 681.54,-48.01 699.19,-61.33"/>
<polygon fill="#63b8ff" stroke="#63b8ff" points="696.8,-63.91 706.84,-67.29 701.09,-58.38 696.8,-63.91"/>
</a>
</g>
</g>
<!-- Node3 -->
<g id="Node000003" class="node">
<title>Node3</title>
<g id="a_Node000003"><a xlink:href="frame_8cpp.html#a5f43260949ee244d3ee66068eb1d7fc1" target="_top" xlink:title="Builds a Frame instance.">
<polygon fill="white" stroke="#666666" points="454,-50.59 390,-50.59 390,-30.59 454,-30.59 454,-50.59"/>
<text text-anchor="middle" x="422" y="-37.09" font-family="Helvetica,sans-Serif" font-size="10.00">buildFrame</text>
</a>
</g>
</g>
<!-- Node2&#45;&gt;Node3 -->
<g id="edge2_Node000002_Node000003" class="edge">
<title>Node2&#45;&gt;Node3</title>
<g id="a_edge2_Node000002_Node000003"><a xlink:title=" ">
<path fill="none" stroke="#63b8ff" d="M198.22,-74.73C234.54,-71.56 285.13,-66.46 329.25,-59.59 345.55,-57.05 363.33,-53.54 378.86,-50.23"/>
<polygon fill="#63b8ff" stroke="#63b8ff" points="379.21,-53.73 388.24,-48.19 377.72,-46.89 379.21,-53.73"/>
</a>
</g>
</g>
<!-- Node5 -->
<g id="Node000005" class="node">
<title>Node5</title>
<g id="a_Node000005"><a xlink:href="frame_8cpp.html#a8f34bc31494430539db21206f084d39d" target="_top" xlink:title="Converts a string into a Frame instance.">
<polygon fill="white" stroke="#666666" points="319.12,-126.59 243.88,-126.59 243.88,-106.59 319.12,-106.59 319.12,-126.59"/>
<text text-anchor="middle" x="281.5" y="-113.09" font-family="Helvetica,sans-Serif" font-size="10.00">decodeFrame</text>
</a>
</g>
</g>
<!-- Node2&#45;&gt;Node5 -->
<g id="edge4_Node000002_Node000005" class="edge">
<title>Node2&#45;&gt;Node5</title>
<g id="a_edge4_Node000002_Node000005"><a xlink:title=" ">
<path fill="none" stroke="#63b8ff" d="M185.37,-89.07C200.31,-93.39 217.8,-98.45 233.68,-103.04"/>
<polygon fill="#63b8ff" stroke="#63b8ff" points="232.34,-106.3 242.92,-105.72 234.28,-99.58 232.34,-106.3"/>
</a>
</g>
</g>
<!-- Node6 -->
<g id="Node000006" class="node">
<title>Node6</title>
<g id="a_Node000006"><a xlink:href="send_8cpp.html#a752e7cc27f52d4ba064e691b3e240ed8" target="_top" xlink:title="Sends a Frame using LoRa.">
<polygon fill="white" stroke="#666666" points="454.38,-164.59 389.62,-164.59 389.62,-144.59 454.38,-144.59 454.38,-164.59"/>
<text text-anchor="middle" x="422" y="-151.09" font-family="Helvetica,sans-Serif" font-size="10.00">sendFrame</text>
</a>
</g>
</g>
<!-- Node2&#45;&gt;Node6 -->
<g id="edge15_Node000002_Node000006" class="edge">
<title>Node2&#45;&gt;Node6</title>
<g id="a_edge15_Node000002_Node000006"><a xlink:title=" ">
<path fill="none" stroke="#63b8ff" d="M160.42,-88.93C175.76,-102.28 204.6,-125.05 233.75,-135.59 280.95,-152.65 338.93,-156.08 377.75,-156.09"/>
<polygon fill="#63b8ff" stroke="#63b8ff" points="377.67,-159.59 387.64,-156.01 377.61,-152.59 377.67,-159.59"/>
</a>
</g>
</g>
<!-- Node12 -->
<g id="Node000012" class="node">
<title>Node12</title>
<g id="a_Node000012"><a xlink:href="group___command_system.html#ga1907d400d2c8d8d054ba95bcf43276ea" target="_top" xlink:title="Executes a command based on its key.">
<polygon fill="white" stroke="#666666" points="329.25,-50.59 233.75,-50.59 233.75,-30.59 329.25,-30.59 329.25,-50.59"/>
<text text-anchor="middle" x="281.5" y="-37.09" font-family="Helvetica,sans-Serif" font-size="10.00">executeCommand</text>
</a>
</g>
</g>
<!-- Node2&#45;&gt;Node12 -->
<g id="edge13_Node000002_Node000012" class="edge">
<title>Node2&#45;&gt;Node12</title>
<g id="a_edge13_Node000002_Node000012"><a xlink:title=" ">
<path fill="none" stroke="#63b8ff" d="M185.37,-68.1C200.31,-63.78 217.8,-58.72 233.68,-54.13"/>
<polygon fill="#63b8ff" stroke="#63b8ff" points="234.28,-57.6 242.92,-51.46 232.34,-50.87 234.28,-57.6"/>
</a>
</g>
</g>
<!-- Node4 -->
<g id="Node000004" class="node">
<title>Node4</title>
<g id="a_Node000004"><a xlink:href="utils__converters_8cpp.html#ab4cb9e6b491bd7711c69c9167a2b9286" target="_top" xlink:title="Converts a ValueUnit to a string.">
<polygon fill="white" stroke="#666666" points="629,-50.59 514.75,-50.59 514.75,-30.59 629,-30.59 629,-50.59"/>
<text text-anchor="middle" x="571.88" y="-37.09" font-family="Helvetica,sans-Serif" font-size="10.00">valueUnitTypeToString</text>
</a>
</g>
</g>
<!-- Node3&#45;&gt;Node4 -->
<g id="edge3_Node000003_Node000004" class="edge">
<title>Node3&#45;&gt;Node4</title>
<g id="a_edge3_Node000003_Node000004"><a xlink:title=" ">
<path fill="none" stroke="#63b8ff" d="M454.36,-40.59C468.69,-40.59 486.25,-40.59 503.35,-40.59"/>
<polygon fill="#63b8ff" stroke="#63b8ff" points="502.97,-44.09 512.97,-40.59 502.97,-37.09 502.97,-44.09"/>
</a>
</g>
</g>
<!-- Node5&#45;&gt;Node3 -->
<g id="edge5_Node000005_Node000003" class="edge">
<title>Node5&#45;&gt;Node3</title>
<g id="a_edge5_Node000005_Node000003"><a xlink:title=" ">
<path fill="none" stroke="#63b8ff" d="M304.85,-106.18C312.74,-102.23 321.56,-97.49 329.25,-92.59 346.34,-81.69 347.8,-74.9 365.25,-64.59 370.64,-61.4 376.52,-58.41 382.39,-55.68"/>
<polygon fill="#63b8ff" stroke="#63b8ff" points="383.69,-58.93 391.43,-51.69 380.86,-52.53 383.69,-58.93"/>
</a>
</g>
</g>
<!-- Node5&#45;&gt;Node6 -->
<g id="edge6_Node000005_Node000006" class="edge">
<title>Node5&#45;&gt;Node6</title>
<g id="a_edge6_Node000005_Node000006"><a xlink:title=" ">
<path fill="none" stroke="#63b8ff" d="M319.62,-126.77C337.75,-131.75 359.66,-137.76 378.47,-142.92"/>
<polygon fill="#63b8ff" stroke="#63b8ff" points="377.39,-146.25 387.96,-145.52 379.24,-139.5 377.39,-146.25"/>
</a>
</g>
</g>
<!-- Node5&#45;&gt;Node10 -->
<g id="edge12_Node000005_Node000010" class="edge">
<title>Node5&#45;&gt;Node10</title>
<g id="a_edge12_Node000005_Node000010"><a xlink:title=" ">
<path fill="none" stroke="#63b8ff" d="M319.32,-106.7C333.57,-103.25 350.07,-99.72 365.25,-97.59 480.66,-81.37 618.94,-78.74 683.62,-78.47"/>
<polygon fill="#63b8ff" stroke="#63b8ff" points="683.32,-81.98 693.31,-78.45 683.3,-74.98 683.32,-81.98"/>
</a>
</g>
</g>
<!-- Node11 -->
<g id="Node000011" class="node">
<title>Node11</title>
<g id="a_Node000011"><a xlink:href="utils__converters_8cpp.html#a245c34d9f7072236b66e9352a9d3466e" target="_top" xlink:title="Converts a string to an OperationType.">
<polygon fill="white" stroke="#666666" points="478.75,-126.59 365.25,-126.59 365.25,-106.59 478.75,-106.59 478.75,-126.59"/>
<text text-anchor="middle" x="422" y="-113.09" font-family="Helvetica,sans-Serif" font-size="10.00">stringToOperationType</text>
</a>
</g>
</g>
<!-- Node5&#45;&gt;Node11 -->
<g id="edge11_Node000005_Node000011" class="edge">
<title>Node5&#45;&gt;Node11</title>
<g id="a_edge11_Node000005_Node000011"><a xlink:title=" ">
<path fill="none" stroke="#63b8ff" d="M319.62,-116.59C330.18,-116.59 342.03,-116.59 353.8,-116.59"/>
<polygon fill="#63b8ff" stroke="#63b8ff" points="353.5,-120.09 363.5,-116.59 353.5,-113.09 353.5,-120.09"/>
</a>
</g>
</g>
<!-- Node7 -->
<g id="Node000007" class="node">
<title>Node7</title>
<g id="a_Node000007"><a xlink:href="frame_8cpp.html#ab53898fb6f45dfc657837a665a070959" target="_top" xlink:title="Encodes a Frame instance into a string.">
<polygon fill="white" stroke="#666666" points="609.5,-164.59 534.25,-164.59 534.25,-144.59 609.5,-144.59 609.5,-164.59"/>
<text text-anchor="middle" x="571.88" y="-151.09" font-family="Helvetica,sans-Serif" font-size="10.00">encodeFrame</text>
</a>
</g>
</g>
<!-- Node6&#45;&gt;Node7 -->
<g id="edge7_Node000006_Node000007" class="edge">
<title>Node6&#45;&gt;Node7</title>
<g id="a_edge7_Node000006_Node000007"><a xlink:title=" ">
<path fill="none" stroke="#63b8ff" d="M454.72,-154.59C474.52,-154.59 500.4,-154.59 522.7,-154.59"/>
<polygon fill="#63b8ff" stroke="#63b8ff" points="522.47,-158.09 532.47,-154.59 522.47,-151.09 522.47,-158.09"/>
</a>
</g>
</g>
<!-- Node9 -->
<g id="Node000009" class="node">
<title>Node9</title>
<g id="a_Node000009"><a xlink:href="send_8cpp.html#adcc720dc971ce8b237b26df434b65bb2" target="_top" xlink:title="Sends a message using LoRa.">
<polygon fill="white" stroke="#666666" points="610.25,-126.59 533.5,-126.59 533.5,-106.59 610.25,-106.59 610.25,-126.59"/>
<text text-anchor="middle" x="571.88" y="-113.09" font-family="Helvetica,sans-Serif" font-size="10.00">sendMessage</text>
</a>
</g>
</g>
<!-- Node6&#45;&gt;Node9 -->
<g id="edge9_Node000006_Node000009" class="edge">
<title>Node6&#45;&gt;Node9</title>
<g id="a_edge9_Node000006_Node000009"><a xlink:title=" ">
<path fill="none" stroke="#63b8ff" d="M454.72,-146.43C474.4,-141.38 500.07,-134.78 522.27,-129.08"/>
<polygon fill="#63b8ff" stroke="#63b8ff" points="522.9,-132.53 531.72,-126.65 521.16,-125.75 522.9,-132.53"/>
</a>
</g>
</g>
<!-- Node8 -->
<g id="Node000008" class="node">
<title>Node8</title>
<g id="a_Node000008"><a xlink:href="utils__converters_8cpp.html#a82a11ce999902359454fa904a13ae297" target="_top" xlink:title="Converts an OperationType to a string.">
<polygon fill="white" stroke="#666666" points="777.75,-164.59 665,-164.59 665,-144.59 777.75,-144.59 777.75,-164.59"/>
<text text-anchor="middle" x="721.38" y="-151.09" font-family="Helvetica,sans-Serif" font-size="10.00">operationTypeToString</text>
</a>
</g>
</g>
<!-- Node7&#45;&gt;Node8 -->
<g id="edge8_Node000007_Node000008" class="edge">
<title>Node7&#45;&gt;Node8</title>
<g id="a_edge8_Node000007_Node000008"><a xlink:title=" ">
<path fill="none" stroke="#63b8ff" d="M609.71,-154.59C622.97,-154.59 638.38,-154.59 653.4,-154.59"/>
<polygon fill="#63b8ff" stroke="#63b8ff" points="653.26,-158.09 663.26,-154.59 653.26,-151.09 653.26,-158.09"/>
</a>
</g>
</g>
<!-- Node9&#45;&gt;Node10 -->
<g id="edge10_Node000009_Node000010" class="edge">
<title>Node9&#45;&gt;Node10</title>
<g id="a_edge10_Node000009_Node000010"><a xlink:title=" ">
<path fill="none" stroke="#63b8ff" d="M610.48,-106.9C633.01,-101.09 661.52,-93.75 683.86,-87.99"/>
<polygon fill="#63b8ff" stroke="#63b8ff" points="684.63,-91.41 693.44,-85.52 682.89,-84.63 684.63,-91.41"/>
</a>
</g>
</g>
<!-- Node12&#45;&gt;Node3 -->
<g id="edge14_Node000012_Node000003" class="edge">
<title>Node12&#45;&gt;Node3</title>
<g id="a_edge14_Node000012_Node000003"><a xlink:title=" ">
<path fill="none" stroke="#63b8ff" d="M329.39,-40.59C345.27,-40.59 362.92,-40.59 378.44,-40.59"/>
<polygon fill="#63b8ff" stroke="#63b8ff" points="378.33,-44.09 388.33,-40.59 378.33,-37.09 378.33,-44.09"/>
</a>
</g>
</g>
</g>
</svg>

<g id="navigator" transform="translate(0 0)" fill="#404254">
  <rect fill="#f2f5e9" fill-opacity="0.5" stroke="#606060" stroke-width=".5" x="0" y="0" width="60" height="60"/>
  <use id="zoomplus" xlink:href="#zoomPlus" x="17" y="9" onmousedown="handleZoom(evt,'in')"/>
  <use id="zoomminus" xlink:href="#zoomMin" x="42" y="9" onmousedown="handleZoom(evt,'out')"/>
  <use id="reset" xlink:href="#resetDef" x="30" y="36" onmousedown="handleReset()"/>
   <use id="arrowup" xlink:href="#arrowUp" x="0" y="0" onmousedown="handlePan(0,-1)"/>
  <use id="arrowright" xlink:href="#arrowRight" x="0" y="0" onmousedown="handlePan(1,0)"/>
  <use id="arrowdown" xlink:href="#arrowDown" x="0" y="0" onmousedown="handlePan(0,1)"/>
  <use id="arrowleft" xlink:href="#arrowLeft" x="0" y="0" onmousedown="handlePan(-1,0)"/>
</g>
<svg viewBox="0 0 15 15" width="100%" height="30px" preserveAspectRatio="xMaxYMin meet">
 <g id="arrow_out" transform="scale(0.3 0.3)">
  <a xlink:href="communication_8h_a54817002e33761dc61558b1138749dfb_cgraph_org.svg" target="_base">
   <rect id="button" ry="5" rx="5" y="6" x="6" height="38" width="38"
        fill="#f2f5e9" fill-opacity="0.5" stroke="#606060" stroke-width="1.0"/>
   <path id="arrow"
     d="M 11.500037,31.436501 C 11.940474,20.09759 22.043105,11.32322 32.158766,21.979434 L 37.068811,17.246167 C 37.068811,17.246167 37.088388,32 37.088388,32 L 22.160133,31.978069 C 22.160133,31.978069 26.997745,27.140456 26.997745,27.140456 C 18.528582,18.264221 13.291696,25.230495 11.500037,31.436501 z"
     style="fill:#404040;"/>
  </a>
 </g>
</svg>

<style type='text/css'>
<![CDATA[
[data-mouse-over-selected='false'] { opacity: 0.7; }
[data-mouse-over-selected='true']  { opacity: 1.0; }
]]>
</style>
<script type="application/ecmascript"><![CDATA[
document.addEventListener('DOMContentLoaded', (event) => {
  highlightEdges();
  highlightAdjacentNodes();
});
]]></script>
</svg>
