<?xml version="1.0" encoding="UTF-8" standalone="no"?>
<!DOCTYPE svg PUBLIC "-//W3C//DTD SVG 1.1//EN"
 "http://www.w3.org/Graphics/SVG/1.1/DTD/svg11.dtd">
<!-- Generated by graphviz version 12.2.1 (20241206.2353)
 -->
<!-- Title: lib/comms/communication.h Pages: 1 -->
<svg width="1715pt" height="152pt"
 viewBox="0.00 0.00 1715.38 152.00" xmlns="http://www.w3.org/2000/svg" xmlns:xlink="http://www.w3.org/1999/xlink">
<g id="graph0" class="graph" transform="scale(1 1) rotate(0) translate(4 148)">
<title>lib/comms/communication.h</title>
<!-- Node1 -->
<g id="Node000001" class="node">
<title>Node1</title>
<g id="a_Node000001"><a xlink:title=" ">
<polygon fill="#999999" stroke="#666666" points="885.25,-144 747,-144 747,-124 885.25,-124 885.25,-144"/>
<text text-anchor="middle" x="816.12" y="-130.5" font-family="Helvetica,sans-Serif" font-size="10.00">lib/comms/communication.h</text>
</a>
</g>
</g>
<!-- Node2 -->
<g id="Node000002" class="node">
<title>Node2</title>
<g id="a_Node000002"><a xlink:href="includes_8h.html" target="_top" xlink:title=" ">
<polygon fill="white" stroke="#666666" points="60.25,-82 0,-82 0,-62 60.25,-62 60.25,-82"/>
<text text-anchor="middle" x="30.12" y="-68.5" font-family="Helvetica,sans-Serif" font-size="10.00">includes.h</text>
</a>
</g>
</g>
<!-- Node1&#45;&gt;Node2 -->
<g id="edge1_Node000001_Node000002" class="edge">
<title>Node1&#45;&gt;Node2</title>
<g id="a_edge1_Node000001_Node000002"><a xlink:title=" ">
<path fill="none" stroke="#63b8ff" d="M735.55,-131.26C569.5,-127.17 194.25,-115.15 69.12,-88 63.17,-86.71 56.92,-84.65 51.22,-82.46"/>
<polygon fill="#63b8ff" stroke="#63b8ff" points="735.07,-134.75 745.15,-131.49 735.24,-127.75 735.07,-134.75"/>
</a>
</g>
</g>
<!-- Node4 -->
<g id="Node000004" class="node">
<title>Node4</title>
<g id="a_Node000004"><a xlink:href="clock__commands_8cpp.html" target="_top" xlink:title=" ">
<polygon fill="white" stroke="#666666" points="192.25,-88 78,-88 78,-56 192.25,-56 192.25,-88"/>
<text text-anchor="start" x="86" y="-74.5" font-family="Helvetica,sans-Serif" font-size="10.00">lib/comms/commands</text>
<text text-anchor="middle" x="135.12" y="-62.5" font-family="Helvetica,sans-Serif" font-size="10.00">/clock_commands.cpp</text>
</a>
</g>
</g>
<!-- Node1&#45;&gt;Node4 -->
<g id="edge3_Node000001_Node000004" class="edge">
<title>Node1&#45;&gt;Node4</title>
<g id="a_edge3_Node000001_Node000004"><a xlink:title=" ">
<path fill="none" stroke="#63b8ff" d="M735.15,-130.95C617.13,-127.09 391.21,-116.39 201.12,-88 198.34,-87.58 195.49,-87.11 192.62,-86.6"/>
<polygon fill="#63b8ff" stroke="#63b8ff" points="734.96,-134.45 745.06,-131.27 735.18,-127.45 734.96,-134.45"/>
</a>
</g>
</g>
<!-- Node5 -->
<g id="Node000005" class="node">
<title>Node5</title>
<g id="a_Node000005"><a xlink:href="commands_8cpp.html" target="_top" xlink:title=" ">
<polygon fill="white" stroke="#666666" points="322.12,-88 210.12,-88 210.12,-56 322.12,-56 322.12,-88"/>
<text text-anchor="start" x="218.12" y="-74.5" font-family="Helvetica,sans-Serif" font-size="10.00">lib/comms/commands</text>
<text text-anchor="middle" x="266.12" y="-62.5" font-family="Helvetica,sans-Serif" font-size="10.00">/commands.cpp</text>
</a>
</g>
</g>
<!-- Node1&#45;&gt;Node5 -->
<g id="edge4_Node000001_Node000005" class="edge">
<title>Node1&#45;&gt;Node5</title>
<g id="a_edge4_Node000001_Node000005"><a xlink:title=" ">
<path fill="none" stroke="#63b8ff" d="M735.25,-128.83C638.64,-123.07 472.32,-110.74 331.12,-88 328.27,-87.54 325.35,-87.03 322.4,-86.47"/>
<polygon fill="#63b8ff" stroke="#63b8ff" points="734.99,-132.32 745.17,-129.41 735.4,-125.33 734.99,-132.32"/>
</a>
</g>
</g>
<!-- Node6 -->
<g id="Node000006" class="node">
<title>Node6</title>
<g id="a_Node000006"><a xlink:href="diagnostic__commands_8cpp.html" target="_top" xlink:title=" ">
<polygon fill="white" stroke="#666666" points="475.75,-88 340.5,-88 340.5,-56 475.75,-56 475.75,-88"/>
<text text-anchor="start" x="348.5" y="-74.5" font-family="Helvetica,sans-Serif" font-size="10.00">lib/comms/commands</text>
<text text-anchor="middle" x="408.12" y="-62.5" font-family="Helvetica,sans-Serif" font-size="10.00">/diagnostic_commands.cpp</text>
</a>
</g>
</g>
<!-- Node1&#45;&gt;Node6 -->
<g id="edge5_Node000001_Node000006" class="edge">
<title>Node1&#45;&gt;Node6</title>
<g id="a_edge5_Node000001_Node000006"><a xlink:title=" ">
<path fill="none" stroke="#63b8ff" d="M735.2,-123.31C668.06,-114.96 570.18,-102.05 485.12,-88 482.17,-87.51 479.15,-87 476.11,-86.46"/>
<polygon fill="#63b8ff" stroke="#63b8ff" points="734.67,-126.77 745.03,-124.53 735.53,-119.83 734.67,-126.77"/>
</a>
</g>
</g>
<!-- Node7 -->
<g id="Node000007" class="node">
<title>Node7</title>
<g id="a_Node000007"><a xlink:href="event__commands_8cpp.html" target="_top" xlink:title=" ">
<polygon fill="white" stroke="#666666" points="608.62,-88 493.62,-88 493.62,-56 608.62,-56 608.62,-88"/>
<text text-anchor="start" x="501.62" y="-74.5" font-family="Helvetica,sans-Serif" font-size="10.00">lib/comms/commands</text>
<text text-anchor="middle" x="551.12" y="-62.5" font-family="Helvetica,sans-Serif" font-size="10.00">/event_commands.cpp</text>
</a>
</g>
</g>
<!-- Node1&#45;&gt;Node7 -->
<g id="edge6_Node000001_Node000007" class="edge">
<title>Node1&#45;&gt;Node7</title>
<g id="a_edge6_Node000001_Node000007"><a xlink:title=" ">
<path fill="none" stroke="#63b8ff" d="M763.23,-121.02C718.58,-110.91 654.77,-96.47 608.82,-86.06"/>
<polygon fill="#63b8ff" stroke="#63b8ff" points="762.43,-124.43 772.95,-123.22 763.97,-117.6 762.43,-124.43"/>
</a>
</g>
</g>
<!-- Node8 -->
<g id="Node000008" class="node">
<title>Node8</title>
<g id="a_Node000008"><a xlink:href="gps__commands_8cpp.html" target="_top" xlink:title=" ">
<polygon fill="white" stroke="#666666" points="739.12,-88 627.12,-88 627.12,-56 739.12,-56 739.12,-88"/>
<text text-anchor="start" x="635.12" y="-74.5" font-family="Helvetica,sans-Serif" font-size="10.00">lib/comms/commands</text>
<text text-anchor="middle" x="683.12" y="-62.5" font-family="Helvetica,sans-Serif" font-size="10.00">/gps_commands.cpp</text>
</a>
</g>
</g>
<!-- Node1&#45;&gt;Node8 -->
<g id="edge7_Node000001_Node000008" class="edge">
<title>Node1&#45;&gt;Node8</title>
<g id="a_edge7_Node000001_Node000008"><a xlink:title=" ">
<path fill="none" stroke="#63b8ff" d="M785.09,-119C764.83,-109.86 738.35,-97.92 717.46,-88.49"/>
<polygon fill="#63b8ff" stroke="#63b8ff" points="783.41,-122.08 793.96,-123 786.29,-115.7 783.41,-122.08"/>
</a>
</g>
</g>
<!-- Node9 -->
<g id="Node000009" class="node">
<title>Node9</title>
<g id="a_Node000009"><a xlink:href="power__commands_8cpp.html" target="_top" xlink:title=" ">
<polygon fill="white" stroke="#666666" points="874.75,-88 757.5,-88 757.5,-56 874.75,-56 874.75,-88"/>
<text text-anchor="start" x="765.5" y="-74.5" font-family="Helvetica,sans-Serif" font-size="10.00">lib/comms/commands</text>
<text text-anchor="middle" x="816.12" y="-62.5" font-family="Helvetica,sans-Serif" font-size="10.00">/power_commands.cpp</text>
</a>
</g>
</g>
<!-- Node1&#45;&gt;Node9 -->
<g id="edge8_Node000001_Node000009" class="edge">
<title>Node1&#45;&gt;Node9</title>
<g id="a_edge8_Node000001_Node000009"><a xlink:title=" ">
<path fill="none" stroke="#63b8ff" d="M816.12,-112.31C816.12,-104.37 816.12,-95.46 816.12,-88.14"/>
<polygon fill="#63b8ff" stroke="#63b8ff" points="812.63,-112.11 816.13,-122.11 819.63,-112.11 812.63,-112.11"/>
</a>
</g>
</g>
<!-- Node10 -->
<g id="Node000010" class="node">
<title>Node10</title>
<g id="a_Node000010"><a xlink:href="communication_8cpp.html" target="_top" xlink:title=" ">
<polygon fill="white" stroke="#666666" points="1041.5,-82 892.75,-82 892.75,-62 1041.5,-62 1041.5,-82"/>
<text text-anchor="middle" x="967.12" y="-68.5" font-family="Helvetica,sans-Serif" font-size="10.00">lib/comms/communication.cpp</text>
</a>
</g>
</g>
<!-- Node1&#45;&gt;Node10 -->
<g id="edge9_Node000001_Node000010" class="edge">
<title>Node1&#45;&gt;Node10</title>
<g id="a_edge9_Node000001_Node000010"><a xlink:title=" ">
<path fill="none" stroke="#63b8ff" d="M850.41,-119.38C878.92,-108.05 918.72,-92.23 943.7,-82.31"/>
<polygon fill="#63b8ff" stroke="#63b8ff" points="849.13,-116.12 841.13,-123.07 851.71,-122.63 849.13,-116.12"/>
</a>
</g>
</g>
<!-- Node11 -->
<g id="Node000011" class="node">
<title>Node11</title>
<g id="a_Node000011"><a xlink:href="frame_8cpp.html" target="_top" xlink:title="Implements functions for encoding, decoding, building, and processing Frames.">
<polygon fill="white" stroke="#666666" points="1166.88,-82 1059.38,-82 1059.38,-62 1166.88,-62 1166.88,-82"/>
<text text-anchor="middle" x="1113.12" y="-68.5" font-family="Helvetica,sans-Serif" font-size="10.00">lib/comms/frame.cpp</text>
</a>
</g>
</g>
<!-- Node1&#45;&gt;Node11 -->
<g id="edge10_Node000001_Node000011" class="edge">
<title>Node1&#45;&gt;Node11</title>
<g id="a_edge10_Node000001_Node000011"><a xlink:title=" ">
<path fill="none" stroke="#63b8ff" d="M880.03,-121.49C927.16,-112.81 992.77,-100.34 1050.12,-88 1058.04,-86.3 1066.48,-84.37 1074.54,-82.47"/>
<polygon fill="#63b8ff" stroke="#63b8ff" points="879.46,-118.04 870.26,-123.28 880.72,-124.92 879.46,-118.04"/>
</a>
</g>
</g>
<!-- Node12 -->
<g id="Node000012" class="node">
<title>Node12</title>
<g id="a_Node000012"><a xlink:href="receive_8cpp.html" target="_top" xlink:title="Implements functions for receiving and processing data, including LoRa and UART input.">
<polygon fill="white" stroke="#666666" points="1299.25,-82 1185,-82 1185,-62 1299.25,-62 1299.25,-82"/>
<text text-anchor="middle" x="1242.12" y="-68.5" font-family="Helvetica,sans-Serif" font-size="10.00">lib/comms/receive.cpp</text>
</a>
</g>
</g>
<!-- Node1&#45;&gt;Node12 -->
<g id="edge11_Node000001_Node000012" class="edge">
<title>Node1&#45;&gt;Node12</title>
<g id="a_edge11_Node000001_Node000012"><a xlink:title=" ">
<path fill="none" stroke="#63b8ff" d="M896.86,-125.22C970.05,-117.62 1080.73,-104.76 1176.12,-88 1185.04,-86.43 1194.56,-84.45 1203.52,-82.45"/>
<polygon fill="#63b8ff" stroke="#63b8ff" points="896.54,-121.74 886.95,-126.24 897.25,-128.7 896.54,-121.74"/>
</a>
</g>
</g>
<!-- Node13 -->
<g id="Node000013" class="node">
<title>Node13</title>
<g id="a_Node000013"><a xlink:href="send_8cpp.html" target="_top" xlink:title="Implements functions for sending data, including LoRa messages and Frames.">
<polygon fill="white" stroke="#666666" points="1421,-82 1317.25,-82 1317.25,-62 1421,-62 1421,-82"/>
<text text-anchor="middle" x="1369.12" y="-68.5" font-family="Helvetica,sans-Serif" font-size="10.00">lib/comms/send.cpp</text>
</a>
</g>
</g>
<!-- Node1&#45;&gt;Node13 -->
<g id="edge12_Node000001_Node000013" class="edge">
<title>Node1&#45;&gt;Node13</title>
<g id="a_edge12_Node000001_Node000013"><a xlink:title=" ">
<path fill="none" stroke="#63b8ff" d="M896.67,-129.34C994.51,-124.05 1164.3,-112.12 1308.12,-88 1316.73,-86.56 1325.91,-84.55 1334.47,-82.47"/>
<polygon fill="#63b8ff" stroke="#63b8ff" points="896.71,-125.84 886.91,-129.86 897.08,-132.83 896.71,-125.84"/>
</a>
</g>
</g>
<!-- Node14 -->
<g id="Node000014" class="node">
<title>Node14</title>
<g id="a_Node000014"><a xlink:href="utils__converters_8cpp.html" target="_top" xlink:title="Implements utility functions for converting between different data types.">
<polygon fill="white" stroke="#666666" points="1591,-82 1439.25,-82 1439.25,-62 1591,-62 1591,-82"/>
<text text-anchor="middle" x="1515.12" y="-68.5" font-family="Helvetica,sans-Serif" font-size="10.00">lib/comms/utils_converters.cpp</text>
</a>
</g>
</g>
<!-- Node1&#45;&gt;Node14 -->
<g id="edge13_Node000001_Node000014" class="edge">
<title>Node1&#45;&gt;Node14</title>
<g id="a_edge13_Node000001_Node000014"><a xlink:title=" ">
<path fill="none" stroke="#63b8ff" d="M896.8,-129.7C1014.42,-124.3 1239.72,-111.72 1430.12,-88 1441.87,-86.54 1454.46,-84.55 1466.26,-82.5"/>
<polygon fill="#63b8ff" stroke="#63b8ff" points="896.75,-126.2 886.92,-130.15 897.07,-133.19 896.75,-126.2"/>
</a>
</g>
</g>
<!-- Node15 -->
<g id="Node000015" class="node">
<title>Node15</title>
<g id="a_Node000015"><a xlink:href="event__manager_8cpp.html" target="_top" xlink:title="Implements the event management system for the Kubisat firmware.">
<polygon fill="white" stroke="#666666" points="1707.38,-88 1608.88,-88 1608.88,-56 1707.38,-56 1707.38,-88"/>
<text text-anchor="start" x="1616.88" y="-74.5" font-family="Helvetica,sans-Serif" font-size="10.00">lib/eventman/event</text>
<text text-anchor="middle" x="1658.12" y="-62.5" font-family="Helvetica,sans-Serif" font-size="10.00">_manager.cpp</text>
</a>
</g>
</g>
<!-- Node1&#45;&gt;Node15 -->
<g id="edge14_Node000001_Node000015" class="edge">
<title>Node1&#45;&gt;Node15</title>
<g id="a_edge14_Node000001_Node000015"><a xlink:title=" ">
<path fill="none" stroke="#63b8ff" d="M896.79,-133.55C1039.52,-133.38 1345.54,-127.83 1600.12,-88 1602.9,-87.57 1605.73,-87.06 1608.58,-86.49"/>
<polygon fill="#63b8ff" stroke="#63b8ff" points="897.07,-130.05 887.07,-133.55 897.07,-137.05 897.07,-130.05"/>
</a>
</g>
</g>
<!-- Node3 -->
<g id="Node000003" class="node">
<title>Node3</title>
<g id="a_Node000003"><a xlink:href="main_8cpp.html" target="_top" xlink:title=" ">
<polygon fill="white" stroke="#666666" points="58,-20 2.25,-20 2.25,0 58,0 58,-20"/>
<text text-anchor="middle" x="30.12" y="-6.5" font-family="Helvetica,sans-Serif" font-size="10.00">main.cpp</text>
</a>
</g>
</g>
<!-- Node2&#45;&gt;Node3 -->
<g id="edge2_Node000002_Node000003" class="edge">
<title>Node2&#45;&gt;Node3</title>
<g id="a_edge2_Node000002_Node000003"><a xlink:title=" ">
<path fill="none" stroke="#63b8ff" d="M30.12,-50.25C30.12,-39.97 30.12,-28.09 30.12,-20.11"/>
<polygon fill="#63b8ff" stroke="#63b8ff" points="26.63,-50.11 30.13,-60.11 33.63,-50.11 26.63,-50.11"/>
</a>
</g>
</g>
</g>
</svg>
