<?xml version="1.0" encoding="UTF-8" standalone="no"?>
<!DOCTYPE svg PUBLIC "-//W3C//DTD SVG 1.1//EN"
 "http://www.w3.org/Graphics/SVG/1.1/DTD/svg11.dtd">
<!-- Generated by graphviz version 12.2.1 (20241206.2353)
 -->
<!-- Title: handle_list_files Pages: 1 -->
<svg width="489pt" height="116pt"
 viewBox="0.00 0.00 489.00 116.00" xmlns="http://www.w3.org/2000/svg" xmlns:xlink="http://www.w3.org/1999/xlink">
<g id="graph0" class="graph" transform="scale(1 1) rotate(0) translate(4 112)">
<title>handle_list_files</title>
<!-- Node1 -->
<g id="Node000001" class="node">
<title>Node1</title>
<g id="a_Node000001"><a xlink:title="Handles the list files command.">
<polygon fill="#999999" stroke="#666666" points="85.75,-77 0,-77 0,-57 85.75,-57 85.75,-77"/>
<text text-anchor="middle" x="42.88" y="-63.5" font-family="Helvetica,sans-Serif" font-size="10.00">handle_list_files</text>
</a>
</g>
</g>
<!-- Node2 -->
<g id="Node000002" class="node">
<title>Node2</title>
<g id="a_Node000002"><a xlink:href="frame_8cpp.html#a29170691faa10727d607a73861cacbeb" target="_top" xlink:title="Builds a Frame instance.">
<polygon fill="white" stroke="#666666" points="188.38,-99 122.12,-99 122.12,-79 188.38,-79 188.38,-99"/>
<text text-anchor="middle" x="155.25" y="-85.5" font-family="Helvetica,sans-Serif" font-size="10.00">frame_build</text>
</a>
</g>
</g>
<!-- Node1&#45;&gt;Node2 -->
<g id="edge1_Node000001_Node000002" class="edge">
<title>Node1&#45;&gt;Node2</title>
<g id="a_edge1_Node000001_Node000002"><a xlink:title=" ">
<path fill="none" stroke="#63b8ff" d="M86.23,-75.44C94.25,-77.04 102.65,-78.71 110.7,-80.32"/>
<polygon fill="#63b8ff" stroke="#63b8ff" points="109.8,-83.71 120.29,-82.23 111.17,-76.84 109.8,-83.71"/>
</a>
</g>
</g>
<!-- Node4 -->
<g id="Node000004" class="node">
<title>Node4</title>
<g id="a_Node000004"><a xlink:href="send_8cpp.html#ae6c6f3b673e7e83306da7ea2458d3241" target="_top" xlink:title="Sends a Frame using LoRa.">
<polygon fill="white" stroke="#666666" points="188.75,-58 121.75,-58 121.75,-38 188.75,-38 188.75,-58"/>
<text text-anchor="middle" x="155.25" y="-44.5" font-family="Helvetica,sans-Serif" font-size="10.00">send_frame</text>
</a>
</g>
</g>
<!-- Node1&#45;&gt;Node4 -->
<g id="edge3_Node000001_Node000004" class="edge">
<title>Node1&#45;&gt;Node4</title>
<g id="a_edge3_Node000001_Node000004"><a xlink:title=" ">
<path fill="none" stroke="#63b8ff" d="M86.23,-59.71C94.08,-58.36 102.28,-56.95 110.18,-55.59"/>
<polygon fill="#63b8ff" stroke="#63b8ff" points="110.68,-59.05 119.94,-53.91 109.49,-52.15 110.68,-59.05"/>
</a>
</g>
</g>
<!-- Node3 -->
<g id="Node000003" class="node">
<title>Node3</title>
<g id="a_Node000003"><a xlink:href="utils__converters_8cpp.html#a29531ed9ad98ab78384a8a2f37f4e77d" target="_top" xlink:title="Converts a ValueUnit to a string.">
<polygon fill="white" stroke="#666666" points="322.5,-108 224.75,-108 224.75,-76 322.5,-76 322.5,-108"/>
<text text-anchor="start" x="232.75" y="-94.5" font-family="Helvetica,sans-Serif" font-size="10.00">value_unit_type_to</text>
<text text-anchor="middle" x="273.62" y="-82.5" font-family="Helvetica,sans-Serif" font-size="10.00">_string</text>
</a>
</g>
</g>
<!-- Node2&#45;&gt;Node3 -->
<g id="edge2_Node000002_Node000003" class="edge">
<title>Node2&#45;&gt;Node3</title>
<g id="a_edge2_Node000002_Node000003"><a xlink:title=" ">
<path fill="none" stroke="#63b8ff" d="M188.67,-89.84C196.25,-90.03 204.56,-90.25 212.92,-90.46"/>
<polygon fill="#63b8ff" stroke="#63b8ff" points="212.68,-93.96 222.76,-90.71 212.86,-86.96 212.68,-93.96"/>
</a>
</g>
</g>
<!-- Node5 -->
<g id="Node000005" class="node">
<title>Node5</title>
<g id="a_Node000005"><a xlink:href="frame_8cpp.html#a3ae6df528775be58890bf406c906a056" target="_top" xlink:title="Encodes a Frame instance into a string.">
<polygon fill="white" stroke="#666666" points="312.38,-58 234.88,-58 234.88,-38 312.38,-38 312.38,-58"/>
<text text-anchor="middle" x="273.62" y="-44.5" font-family="Helvetica,sans-Serif" font-size="10.00">frame_encode</text>
</a>
</g>
</g>
<!-- Node4&#45;&gt;Node5 -->
<g id="edge4_Node000004_Node000005" class="edge">
<title>Node4&#45;&gt;Node5</title>
<g id="a_edge4_Node000004_Node000005"><a xlink:title=" ">
<path fill="none" stroke="#63b8ff" d="M188.98,-48C199.57,-48 211.55,-48 223.08,-48"/>
<polygon fill="#63b8ff" stroke="#63b8ff" points="222.87,-51.5 232.87,-48 222.87,-44.5 222.87,-51.5"/>
</a>
</g>
</g>
<!-- Node7 -->
<g id="Node000007" class="node">
<title>Node7</title>
<g id="a_Node000007"><a xlink:href="send_8cpp.html#a42881e6476e0ce51ee9f6a99a7318d3b" target="_top" xlink:title="Sends a message using LoRa.">
<polygon fill="white" stroke="#666666" points="314.62,-20 232.62,-20 232.62,0 314.62,0 314.62,-20"/>
<text text-anchor="middle" x="273.62" y="-6.5" font-family="Helvetica,sans-Serif" font-size="10.00">send_message</text>
</a>
</g>
</g>
<!-- Node4&#45;&gt;Node7 -->
<g id="edge6_Node000004_Node000007" class="edge">
<title>Node4&#45;&gt;Node7</title>
<g id="a_edge6_Node000004_Node000007"><a xlink:title=" ">
<path fill="none" stroke="#63b8ff" d="M188.36,-37.52C201.2,-33.32 216.19,-28.43 229.93,-23.94"/>
<polygon fill="#63b8ff" stroke="#63b8ff" points="230.76,-27.35 239.18,-20.92 228.59,-20.7 230.76,-27.35"/>
</a>
</g>
</g>
<!-- Node6 -->
<g id="Node000006" class="node">
<title>Node6</title>
<g id="a_Node000006"><a xlink:href="utils__converters_8cpp.html#ab218e62029b4451e910d8caf0fd05804" target="_top" xlink:title="Converts an OperationType to a string.">
<polygon fill="white" stroke="#666666" points="481,-58 358.5,-58 358.5,-38 481,-38 481,-58"/>
<text text-anchor="middle" x="419.75" y="-44.5" font-family="Helvetica,sans-Serif" font-size="10.00">operation_type_to_string</text>
</a>
</g>
</g>
<!-- Node5&#45;&gt;Node6 -->
<g id="edge5_Node000005_Node000006" class="edge">
<title>Node5&#45;&gt;Node6</title>
<g id="a_edge5_Node000005_Node000006"><a xlink:title=" ">
<path fill="none" stroke="#63b8ff" d="M312.87,-48C323.36,-48 335.09,-48 346.81,-48"/>
<polygon fill="#63b8ff" stroke="#63b8ff" points="346.49,-51.5 356.49,-48 346.49,-44.5 346.49,-51.5"/>
</a>
</g>
</g>
<!-- Node8 -->
<g id="Node000008" class="node">
<title>Node8</title>
<g id="a_Node000008"><a xlink:href="utils_8cpp.html#acd86977d05fa330749958ace0f2798de" target="_top" xlink:title="Prints a message to the UART with a timestamp and core number.">
<polygon fill="white" stroke="#666666" points="448,-20 391.5,-20 391.5,0 448,0 448,-20"/>
<text text-anchor="middle" x="419.75" y="-6.5" font-family="Helvetica,sans-Serif" font-size="10.00">uart_print</text>
</a>
</g>
</g>
<!-- Node7&#45;&gt;Node8 -->
<g id="edge7_Node000007_Node000008" class="edge">
<title>Node7&#45;&gt;Node8</title>
<g id="a_edge7_Node000007_Node000008"><a xlink:title=" ">
<path fill="none" stroke="#63b8ff" d="M314.77,-10C335.1,-10 359.68,-10 379.84,-10"/>
<polygon fill="#63b8ff" stroke="#63b8ff" points="379.61,-13.5 389.61,-10 379.61,-6.5 379.61,-13.5"/>
</a>
</g>
</g>
</g>
</svg>
