<?xml version="1.0" encoding="UTF-8" standalone="no"?>
<!DOCTYPE svg PUBLIC "-//W3C//DTD SVG 1.1//EN"
 "http://www.w3.org/Graphics/SVG/1.1/DTD/svg11.dtd">
<!-- Generated by graphviz version 12.2.1 (20241206.2353)
 -->
<!-- Title: initialize_radio Pages: 1 -->
<svg width="219pt" height="66pt"
 viewBox="0.00 0.00 219.25 66.00" xmlns="http://www.w3.org/2000/svg" xmlns:xlink="http://www.w3.org/1999/xlink">
<g id="graph0" class="graph" transform="scale(1 1) rotate(0) translate(4 62)">
<title>initialize_radio</title>
<!-- Node1 -->
<g id="Node000001" class="node">
<title>Node1</title>
<g id="a_Node000001"><a xlink:title="Initializes the LoRa radio module.">
<polygon fill="#999999" stroke="#666666" points="77.5,-39 0,-39 0,-19 77.5,-19 77.5,-39"/>
<text text-anchor="middle" x="38.75" y="-25.5" font-family="Helvetica,sans-Serif" font-size="10.00">initialize_radio</text>
</a>
</g>
</g>
<!-- Node2 -->
<g id="Node000002" class="node">
<title>Node2</title>
<g id="a_Node000002"><a xlink:href="class_event_emitter.html#a539d733505f9a793439a9cfc4f2af079" target="_top" xlink:title="Emits an event.">
<polygon fill="white" stroke="#666666" points="211.25,-58 113.5,-58 113.5,-38 211.25,-38 211.25,-58"/>
<text text-anchor="middle" x="162.38" y="-44.5" font-family="Helvetica,sans-Serif" font-size="10.00">EventEmitter::emit</text>
</a>
</g>
</g>
<!-- Node1&#45;&gt;Node2 -->
<g id="edge1_Node000001_Node000002" class="edge">
<title>Node1&#45;&gt;Node2</title>
<g id="a_edge1_Node000001_Node000002"><a xlink:title=" ">
<path fill="none" stroke="#63b8ff" d="M77.9,-34.96C85.48,-36.14 93.6,-37.41 101.7,-38.68"/>
<polygon fill="#63b8ff" stroke="#63b8ff" points="101.15,-42.13 111.57,-40.22 102.23,-35.22 101.15,-42.13"/>
</a>
</g>
</g>
<!-- Node3 -->
<g id="Node000003" class="node">
<title>Node3</title>
<g id="a_Node000003"><a xlink:href="utils_8cpp.html#acd86977d05fa330749958ace0f2798de" target="_top" xlink:title="Prints a message to the UART with a timestamp and core number.">
<polygon fill="white" stroke="#666666" points="190.62,-20 134.12,-20 134.12,0 190.62,0 190.62,-20"/>
<text text-anchor="middle" x="162.38" y="-6.5" font-family="Helvetica,sans-Serif" font-size="10.00">uart_print</text>
</a>
</g>
</g>
<!-- Node1&#45;&gt;Node3 -->
<g id="edge2_Node000001_Node000003" class="edge">
<title>Node1&#45;&gt;Node3</title>
<g id="a_edge2_Node000001_Node000003"><a xlink:title=" ">
<path fill="none" stroke="#63b8ff" d="M77.9,-23.04C92.19,-20.81 108.43,-18.27 122.77,-16.03"/>
<polygon fill="#63b8ff" stroke="#63b8ff" points="122.94,-19.55 132.28,-14.54 121.86,-12.63 122.94,-19.55"/>
</a>
</g>
</g>
</g>
</svg>
