<?xml version="1.0" encoding="UTF-8" standalone="no"?>
<!DOCTYPE svg PUBLIC "-//W3C//DTD SVG 1.1//EN"
 "http://www.w3.org/Graphics/SVG/1.1/DTD/svg11.dtd">
<!-- Generated by graphviz version 12.2.1 (20241206.2353)
 -->
<!-- Title: lib/comms/communication.h Pages: 1 -->
<!--zoomable 164 -->

<svg id="main" version="1.1" xmlns="http://www.w3.org/2000/svg" xmlns:xlink="http://www.w3.org/1999/xlink" xml:space="preserve" onload="init(evt)">

<style type="text/css"><![CDATA[
.node, .edge {opacity: 0.7;}
.node.selected, .edge.selected {opacity: 1;}
.edge:hover path { stroke: red; }
.edge:hover polygon { stroke: red; fill: red; }
]]></style>

<defs>
  <circle id="rim" cx="0" cy="0" r="7"/>
  <circle id="rim2" cx="0" cy="0" r="3.5"/>
  <g id="zoomPlus">
    <use xlink:href="#rim" fill="#404040"><set attributeName="fill" to="#808080" begin="zoomplus.mouseover" end="zoomplus.mouseout"/></use>
    <path d="M-4,0h8M0,-4v8" fill="none" stroke="white" stroke-width="1.5" pointer-events="none"/>
  </g>
  <g id="zoomMin">
    <use xlink:href="#rim" fill="#404040"><set attributeName="fill" to="#808080" begin="zoomminus.mouseover" end="zoomminus.mouseout"/></use>
    <path d="M-4,0h8" fill="none" stroke="white" stroke-width="1.5" pointer-events="none"/>
  </g>
  <g id="arrowUp" transform="translate(30 24)">
    <use xlink:href="#rim"/>
    <path pointer-events="none" fill="none" stroke="white" stroke-width="1.5" d="M0,-3.0v7 M-2.5,-0.5L0,-3.0L2.5,-0.5"/>
  </g>
  <g id="arrowRight" transform="rotate(90) translate(36 -43)">
    <use xlink:href="#rim"/>
    <path pointer-events="none" fill="none" stroke="white" stroke-width="1.5" d="M0,-3.0v7 M-2.5,-0.5L0,-3.0L2.5,-0.5"/>
  </g>
  <g id="arrowDown" transform="rotate(180) translate(-30 -48)">
    <use xlink:href="#rim"/>
    <path pointer-events="none" fill="none" stroke="white" stroke-width="1.5" d="M0,-3.0v7 M-2.5,-0.5L0,-3.0L2.5,-0.5"/>
  </g>
  <g id="arrowLeft" transform="rotate(270) translate(-36 17)">
    <use xlink:href="#rim"/>
    <path pointer-events="none" fill="none" stroke="white" stroke-width="1.5" d="M0,-3.0v7 M-2.5,-0.5L0,-3.0L2.5,-0.5"/>
  </g>
  <g id="resetDef">
    <use xlink:href="#rim2" fill="#404040"><set attributeName="fill" to="#808080" begin="reset.mouseover" end="reset.mouseout"/></use>
  </g>
</defs>
<script type="application/ecmascript">
var viewWidth = 2151;
var viewHeight = 164;
var sectionId = 'dynsection-1';
</script>
<script type="application/ecmascript" xlink:href="svg.min.js"/>
<svg id="graph" class="graph">
<g id="viewport">
<title>lib/comms/communication.h</title>
<!-- Node1 -->
<g id="Node000001" class="node">
<title>Node1</title>
<g id="a_Node000001"><a xlink:title=" ">
<polygon fill="#999999" stroke="#666666" points="1035.25,-156 897,-156 897,-136 1035.25,-136 1035.25,-156"/>
<text text-anchor="middle" x="966.12" y="-142.5" font-family="Helvetica,sans-Serif" font-size="10.00">lib/comms/communication.h</text>
</a>
</g>
</g>
<!-- Node2 -->
<g id="Node000002" class="node">
<title>Node2</title>
<g id="a_Node000002"><a xlink:href="includes_8h.html" target="_top" xlink:title=" ">
<polygon fill="white" stroke="#666666" points="60.25,-94 0,-94 0,-74 60.25,-74 60.25,-94"/>
<text text-anchor="middle" x="30.12" y="-80.5" font-family="Helvetica,sans-Serif" font-size="10.00">includes.h</text>
</a>
</g>
</g>
<!-- Node1&#45;&gt;Node2 -->
<g id="edge1_Node000001_Node000002" class="edge">
<title>Node1&#45;&gt;Node2</title>
<g id="a_edge1_Node000001_Node000002"><a xlink:title=" ">
<path fill="none" stroke="#63b8ff" d="M885.52,-144.21C695.45,-141.84 223.66,-132.72 69.12,-100 63.02,-98.71 56.62,-96.59 50.8,-94.35"/>
<polygon fill="#63b8ff" stroke="#63b8ff" points="885.26,-147.71 895.3,-144.33 885.34,-140.71 885.26,-147.71"/>
</a>
</g>
</g>
<!-- Node4 -->
<g id="Node000004" class="node">
<title>Node4</title>
<g id="a_Node000004"><a xlink:href="clock__commands_8cpp.html" target="_top" xlink:title=" ">
<polygon fill="white" stroke="#666666" points="192.25,-100 78,-100 78,-68 192.25,-68 192.25,-100"/>
<text text-anchor="start" x="86" y="-86.5" font-family="Helvetica,sans-Serif" font-size="10.00">lib/comms/commands</text>
<text text-anchor="middle" x="135.12" y="-74.5" font-family="Helvetica,sans-Serif" font-size="10.00">/clock_commands.cpp</text>
</a>
</g>
</g>
<!-- Node1&#45;&gt;Node4 -->
<g id="edge3_Node000001_Node000004" class="edge">
<title>Node1&#45;&gt;Node4</title>
<g id="a_edge3_Node000001_Node000004"><a xlink:title=" ">
<path fill="none" stroke="#63b8ff" d="M885.21,-144.61C745.14,-142.95 448.71,-135.17 201.12,-100 198.33,-99.6 195.48,-99.15 192.61,-98.65"/>
<polygon fill="#63b8ff" stroke="#63b8ff" points="885.1,-148.11 895.14,-144.72 885.18,-141.11 885.1,-148.11"/>
</a>
</g>
</g>
<!-- Node5 -->
<g id="Node000005" class="node">
<title>Node5</title>
<g id="a_Node000005"><a xlink:href="commands_8cpp.html" target="_top" xlink:title=" ">
<polygon fill="white" stroke="#666666" points="322.12,-100 210.12,-100 210.12,-68 322.12,-68 322.12,-100"/>
<text text-anchor="start" x="218.12" y="-86.5" font-family="Helvetica,sans-Serif" font-size="10.00">lib/comms/commands</text>
<text text-anchor="middle" x="266.12" y="-74.5" font-family="Helvetica,sans-Serif" font-size="10.00">/commands.cpp</text>
</a>
</g>
</g>
<!-- Node1&#45;&gt;Node5 -->
<g id="edge4_Node000001_Node000005" class="edge">
<title>Node1&#45;&gt;Node5</title>
<g id="a_edge4_Node000001_Node000005"><a xlink:title=" ">
<path fill="none" stroke="#63b8ff" d="M885.32,-143.31C764.25,-139.86 528.86,-129.64 331.12,-100 328.26,-99.57 325.34,-99.08 322.39,-98.55"/>
<polygon fill="#63b8ff" stroke="#63b8ff" points="885.07,-146.8 895.16,-143.58 885.26,-139.8 885.07,-146.8"/>
</a>
</g>
</g>
<!-- Node6 -->
<g id="Node000006" class="node">
<title>Node6</title>
<g id="a_Node000006"><a xlink:href="diagnostic__commands_8cpp.html" target="_top" xlink:title=" ">
<polygon fill="white" stroke="#666666" points="475.75,-100 340.5,-100 340.5,-68 475.75,-68 475.75,-100"/>
<text text-anchor="start" x="348.5" y="-86.5" font-family="Helvetica,sans-Serif" font-size="10.00">lib/comms/commands</text>
<text text-anchor="middle" x="408.12" y="-74.5" font-family="Helvetica,sans-Serif" font-size="10.00">/diagnostic_commands.cpp</text>
</a>
</g>
</g>
<!-- Node1&#45;&gt;Node6 -->
<g id="edge5_Node000001_Node000006" class="edge">
<title>Node1&#45;&gt;Node6</title>
<g id="a_edge5_Node000001_Node000006"><a xlink:title=" ">
<path fill="none" stroke="#63b8ff" d="M885.46,-139.99C789.5,-133.44 624.59,-120.37 484.12,-100 481.46,-99.61 478.75,-99.2 476.02,-98.76"/>
<polygon fill="#63b8ff" stroke="#63b8ff" points="885.1,-143.47 895.31,-140.65 885.57,-136.49 885.1,-143.47"/>
</a>
</g>
</g>
<!-- Node7 -->
<g id="Node000007" class="node">
<title>Node7</title>
<g id="a_Node000007"><a xlink:href="event__commands_8cpp.html" target="_top" xlink:title=" ">
<polygon fill="white" stroke="#666666" points="608.62,-100 493.62,-100 493.62,-68 608.62,-68 608.62,-100"/>
<text text-anchor="start" x="501.62" y="-86.5" font-family="Helvetica,sans-Serif" font-size="10.00">lib/comms/commands</text>
<text text-anchor="middle" x="551.12" y="-74.5" font-family="Helvetica,sans-Serif" font-size="10.00">/event_commands.cpp</text>
</a>
</g>
</g>
<!-- Node1&#45;&gt;Node7 -->
<g id="edge6_Node000001_Node000007" class="edge">
<title>Node1&#45;&gt;Node7</title>
<g id="a_edge6_Node000001_Node000007"><a xlink:title=" ">
<path fill="none" stroke="#63b8ff" d="M885.47,-136.69C814.73,-128.9 709.24,-116.06 618.12,-100 615.07,-99.46 611.95,-98.88 608.8,-98.26"/>
<polygon fill="#63b8ff" stroke="#63b8ff" points="884.69,-140.13 895.01,-137.73 885.45,-133.17 884.69,-140.13"/>
</a>
</g>
</g>
<!-- Node8 -->
<g id="Node000008" class="node">
<title>Node8</title>
<g id="a_Node000008"><a xlink:href="gps__commands_8cpp.html" target="_top" xlink:title=" ">
<polygon fill="white" stroke="#666666" points="739.12,-100 627.12,-100 627.12,-68 739.12,-68 739.12,-100"/>
<text text-anchor="start" x="635.12" y="-86.5" font-family="Helvetica,sans-Serif" font-size="10.00">lib/comms/commands</text>
<text text-anchor="middle" x="683.12" y="-74.5" font-family="Helvetica,sans-Serif" font-size="10.00">/gps_commands.cpp</text>
</a>
</g>
</g>
<!-- Node1&#45;&gt;Node8 -->
<g id="edge7_Node000001_Node000008" class="edge">
<title>Node1&#45;&gt;Node8</title>
<g id="a_edge7_Node000001_Node000008"><a xlink:title=" ">
<path fill="none" stroke="#63b8ff" d="M907.8,-133.34C863.85,-124.47 802.13,-111.8 748.12,-100 745.3,-99.38 742.4,-98.74 739.48,-98.09"/>
<polygon fill="#63b8ff" stroke="#63b8ff" points="906.88,-136.73 917.37,-135.27 908.26,-129.87 906.88,-136.73"/>
</a>
</g>
</g>
<!-- Node9 -->
<g id="Node000009" class="node">
<title>Node9</title>
<g id="a_Node000009"><a xlink:href="power__commands_8cpp.html" target="_top" xlink:title=" ">
<polygon fill="white" stroke="#666666" points="874.75,-100 757.5,-100 757.5,-68 874.75,-68 874.75,-100"/>
<text text-anchor="start" x="765.5" y="-86.5" font-family="Helvetica,sans-Serif" font-size="10.00">lib/comms/commands</text>
<text text-anchor="middle" x="816.12" y="-74.5" font-family="Helvetica,sans-Serif" font-size="10.00">/power_commands.cpp</text>
</a>
</g>
</g>
<!-- Node1&#45;&gt;Node9 -->
<g id="edge8_Node000001_Node000009" class="edge">
<title>Node1&#45;&gt;Node9</title>
<g id="a_edge8_Node000001_Node000009"><a xlink:title=" ">
<path fill="none" stroke="#63b8ff" d="M932.07,-131.38C909.1,-122.19 878.74,-110.05 854.85,-100.49"/>
<polygon fill="#63b8ff" stroke="#63b8ff" points="930.7,-134.6 941.28,-135.06 933.3,-128.1 930.7,-134.6"/>
</a>
</g>
</g>
<!-- Node10 -->
<g id="Node000010" class="node">
<title>Node10</title>
<g id="a_Node000010"><a xlink:href="storage__commands__utils_8cpp.html" target="_top" xlink:title=" ">
<polygon fill="white" stroke="#666666" points="1039.38,-100 892.88,-100 892.88,-68 1039.38,-68 1039.38,-100"/>
<text text-anchor="start" x="900.88" y="-86.5" font-family="Helvetica,sans-Serif" font-size="10.00">lib/comms/commands</text>
<text text-anchor="middle" x="966.12" y="-74.5" font-family="Helvetica,sans-Serif" font-size="10.00">/storage_commands_utils.cpp</text>
</a>
</g>
</g>
<!-- Node1&#45;&gt;Node10 -->
<g id="edge9_Node000001_Node000010" class="edge">
<title>Node1&#45;&gt;Node10</title>
<g id="a_edge9_Node000001_Node000010"><a xlink:title=" ">
<path fill="none" stroke="#63b8ff" d="M966.12,-124.31C966.12,-116.37 966.12,-107.46 966.12,-100.14"/>
<polygon fill="#63b8ff" stroke="#63b8ff" points="962.63,-124.11 966.13,-134.11 969.63,-124.11 962.63,-124.11"/>
</a>
</g>
</g>
<!-- Node11 -->
<g id="Node000011" class="node">
<title>Node11</title>
<g id="a_Node000011"><a xlink:href="communication_8cpp.html" target="_top" xlink:title=" ">
<polygon fill="white" stroke="#666666" points="1206.5,-94 1057.75,-94 1057.75,-74 1206.5,-74 1206.5,-94"/>
<text text-anchor="middle" x="1132.12" y="-80.5" font-family="Helvetica,sans-Serif" font-size="10.00">lib/comms/communication.cpp</text>
</a>
</g>
</g>
<!-- Node1&#45;&gt;Node11 -->
<g id="edge10_Node000001_Node000011" class="edge">
<title>Node1&#45;&gt;Node11</title>
<g id="a_edge10_Node000001_Node000011"><a xlink:title=" ">
<path fill="none" stroke="#63b8ff" d="M1002.54,-131.84C1033.85,-120.52 1078.24,-104.47 1106.1,-94.41"/>
<polygon fill="#63b8ff" stroke="#63b8ff" points="1001.7,-128.42 993.49,-135.11 1004.08,-135 1001.7,-128.42"/>
</a>
</g>
</g>
<!-- Node12 -->
<g id="Node000012" class="node">
<title>Node12</title>
<g id="a_Node000012"><a xlink:href="frame_8cpp.html" target="_top" xlink:title="Implements functions for encoding, decoding, building, and processing Frames.">
<polygon fill="white" stroke="#666666" points="1331.88,-94 1224.38,-94 1224.38,-74 1331.88,-74 1331.88,-94"/>
<text text-anchor="middle" x="1278.12" y="-80.5" font-family="Helvetica,sans-Serif" font-size="10.00">lib/comms/frame.cpp</text>
</a>
</g>
</g>
<!-- Node1&#45;&gt;Node12 -->
<g id="edge11_Node000001_Node000012" class="edge">
<title>Node1&#45;&gt;Node12</title>
<g id="a_edge11_Node000001_Node000012"><a xlink:title=" ">
<path fill="none" stroke="#63b8ff" d="M1035,-133.6C1085.1,-125.05 1154.49,-112.69 1215.12,-100 1223.16,-98.32 1231.73,-96.38 1239.89,-94.46"/>
<polygon fill="#63b8ff" stroke="#63b8ff" points="1034.43,-130.15 1025.15,-135.27 1035.6,-137.05 1034.43,-130.15"/>
</a>
</g>
</g>
<!-- Node13 -->
<g id="Node000013" class="node">
<title>Node13</title>
<g id="a_Node000013"><a xlink:href="receive_8cpp.html" target="_top" xlink:title="Implements functions for receiving and processing data, including LoRa and UART input.">
<polygon fill="white" stroke="#666666" points="1464.25,-94 1350,-94 1350,-74 1464.25,-74 1464.25,-94"/>
<text text-anchor="middle" x="1407.12" y="-80.5" font-family="Helvetica,sans-Serif" font-size="10.00">lib/comms/receive.cpp</text>
</a>
</g>
</g>
<!-- Node1&#45;&gt;Node13 -->
<g id="edge12_Node000001_Node000013" class="edge">
<title>Node1&#45;&gt;Node13</title>
<g id="a_edge12_Node000001_Node000013"><a xlink:title=" ">
<path fill="none" stroke="#63b8ff" d="M1046.96,-137.75C1123.14,-130.34 1240.34,-117.45 1341.12,-100 1350.04,-98.46 1359.56,-96.48 1368.52,-94.48"/>
<polygon fill="#63b8ff" stroke="#63b8ff" points="1046.68,-134.26 1037.06,-138.71 1047.35,-141.23 1046.68,-134.26"/>
</a>
</g>
</g>
<!-- Node14 -->
<g id="Node000014" class="node">
<title>Node14</title>
<g id="a_Node000014"><a xlink:href="send_8cpp.html" target="_top" xlink:title="Implements functions for sending data, including LoRa messages and Frames.">
<polygon fill="white" stroke="#666666" points="1586,-94 1482.25,-94 1482.25,-74 1586,-74 1586,-94"/>
<text text-anchor="middle" x="1534.12" y="-80.5" font-family="Helvetica,sans-Serif" font-size="10.00">lib/comms/send.cpp</text>
</a>
</g>
</g>
<!-- Node1&#45;&gt;Node14 -->
<g id="edge13_Node000001_Node000014" class="edge">
<title>Node1&#45;&gt;Node14</title>
<g id="a_edge13_Node000001_Node000014"><a xlink:title=" ">
<path fill="none" stroke="#63b8ff" d="M1046.7,-141.65C1147.11,-136.6 1323.72,-124.85 1473.12,-100 1481.73,-98.57 1490.92,-96.57 1499.48,-94.49"/>
<polygon fill="#63b8ff" stroke="#63b8ff" points="1046.76,-138.14 1036.94,-142.13 1047.1,-145.13 1046.76,-138.14"/>
</a>
</g>
</g>
<!-- Node15 -->
<g id="Node000015" class="node">
<title>Node15</title>
<g id="a_Node000015"><a xlink:href="utils__converters_8cpp.html" target="_top" xlink:title="Implements utility functions for converting between different data types.">
<polygon fill="white" stroke="#666666" points="1756,-94 1604.25,-94 1604.25,-74 1756,-74 1756,-94"/>
<text text-anchor="middle" x="1680.12" y="-80.5" font-family="Helvetica,sans-Serif" font-size="10.00">lib/comms/utils_converters.cpp</text>
</a>
</g>
</g>
<!-- Node1&#45;&gt;Node15 -->
<g id="edge14_Node000001_Node000015" class="edge">
<title>Node1&#45;&gt;Node15</title>
<g id="a_edge14_Node000001_Node000015"><a xlink:title=" ">
<path fill="none" stroke="#63b8ff" d="M1046.95,-141.89C1166.93,-136.67 1399.08,-124.24 1595.12,-100 1607.02,-98.53 1619.78,-96.51 1631.71,-94.43"/>
<polygon fill="#63b8ff" stroke="#63b8ff" points="1047.05,-138.38 1037.21,-142.31 1047.35,-145.38 1047.05,-138.38"/>
</a>
</g>
</g>
<!-- Node16 -->
<g id="Node000016" class="node">
<title>Node16</title>
<g id="a_Node000016"><a xlink:href="event__manager_8cpp.html" target="_top" xlink:title="Implements the event management system for the Kubisat firmware.">
<polygon fill="white" stroke="#666666" points="1872.38,-100 1773.88,-100 1773.88,-68 1872.38,-68 1872.38,-100"/>
<text text-anchor="start" x="1781.88" y="-86.5" font-family="Helvetica,sans-Serif" font-size="10.00">lib/eventman/event</text>
<text text-anchor="middle" x="1823.12" y="-74.5" font-family="Helvetica,sans-Serif" font-size="10.00">_manager.cpp</text>
</a>
</g>
</g>
<!-- Node1&#45;&gt;Node16 -->
<g id="edge15_Node000001_Node000016" class="edge">
<title>Node1&#45;&gt;Node16</title>
<g id="a_edge15_Node000001_Node000016"><a xlink:title=" ">
<path fill="none" stroke="#63b8ff" d="M1046.93,-145.68C1191.79,-145.74 1504.83,-140.58 1765.12,-100 1767.9,-99.57 1770.73,-99.06 1773.59,-98.5"/>
<polygon fill="#63b8ff" stroke="#63b8ff" points="1047.06,-142.18 1037.05,-145.67 1047.05,-149.18 1047.06,-142.18"/>
</a>
</g>
</g>
<!-- Node17 -->
<g id="Node000017" class="node">
<title>Node17</title>
<g id="a_Node000017"><a xlink:href="test__frame__common_8h.html" target="_top" xlink:title=" ">
<polygon fill="white" stroke="#666666" points="2007.75,-100 1890.5,-100 1890.5,-68 2007.75,-68 2007.75,-100"/>
<text text-anchor="start" x="1898.5" y="-86.5" font-family="Helvetica,sans-Serif" font-size="10.00">test/comms/test_frame</text>
<text text-anchor="middle" x="1949.12" y="-74.5" font-family="Helvetica,sans-Serif" font-size="10.00">_common.h</text>
</a>
</g>
</g>
<!-- Node1&#45;&gt;Node17 -->
<g id="edge16_Node000001_Node000017" class="edge">
<title>Node1&#45;&gt;Node17</title>
<g id="a_edge16_Node000001_Node000017"><a xlink:title=" ">
<path fill="none" stroke="#63b8ff" d="M1046.79,-145.57C1206.72,-145.69 1574.97,-141 1881.12,-100 1884.12,-99.6 1887.18,-99.13 1890.26,-98.62"/>
<polygon fill="#63b8ff" stroke="#63b8ff" points="1047.16,-142.07 1037.16,-145.55 1047.15,-149.07 1047.16,-142.07"/>
</a>
</g>
</g>
<!-- Node3 -->
<g id="Node000003" class="node">
<title>Node3</title>
<g id="a_Node000003"><a xlink:href="main_8cpp.html" target="_top" xlink:title=" ">
<polygon fill="white" stroke="#666666" points="58,-26 2.25,-26 2.25,-6 58,-6 58,-26"/>
<text text-anchor="middle" x="30.12" y="-12.5" font-family="Helvetica,sans-Serif" font-size="10.00">main.cpp</text>
</a>
</g>
</g>
<!-- Node2&#45;&gt;Node3 -->
<g id="edge2_Node000002_Node000003" class="edge">
<title>Node2&#45;&gt;Node3</title>
<g id="a_edge2_Node000002_Node000003"><a xlink:title=" ">
<path fill="none" stroke="#63b8ff" d="M30.12,-62.28C30.12,-50.27 30.12,-35.74 30.12,-26.44"/>
<polygon fill="#63b8ff" stroke="#63b8ff" points="26.63,-62.03 30.13,-72.03 33.63,-62.03 26.63,-62.03"/>
</a>
</g>
</g>
<!-- Node18 -->
<g id="Node000018" class="node">
<title>Node18</title>
<g id="a_Node000018"><a xlink:href="test__converters_8cpp.html" target="_top" xlink:title=" ">
<polygon fill="white" stroke="#666666" points="1872.62,-26 1715.62,-26 1715.62,-6 1872.62,-6 1872.62,-26"/>
<text text-anchor="middle" x="1794.12" y="-12.5" font-family="Helvetica,sans-Serif" font-size="10.00">test/comms/test_converters.cpp</text>
</a>
</g>
</g>
<!-- Node17&#45;&gt;Node18 -->
<g id="edge17_Node000017_Node000018" class="edge">
<title>Node17&#45;&gt;Node18</title>
<g id="a_edge17_Node000017_Node000018"><a xlink:title=" ">
<path fill="none" stroke="#63b8ff" d="M1902.23,-63.03C1873.73,-50.9 1838.66,-35.96 1816.34,-26.46"/>
<polygon fill="#63b8ff" stroke="#63b8ff" points="1900.82,-66.24 1911.39,-66.93 1903.56,-59.79 1900.82,-66.24"/>
</a>
</g>
</g>
<!-- Node19 -->
<g id="Node000019" class="node">
<title>Node19</title>
<g id="a_Node000019"><a xlink:href="test__frame__build_8cpp.html" target="_top" xlink:title=" ">
<polygon fill="white" stroke="#666666" points="2007.75,-32 1890.5,-32 1890.5,0 2007.75,0 2007.75,-32"/>
<text text-anchor="start" x="1898.5" y="-18.5" font-family="Helvetica,sans-Serif" font-size="10.00">test/comms/test_frame</text>
<text text-anchor="middle" x="1949.12" y="-6.5" font-family="Helvetica,sans-Serif" font-size="10.00">_build.cpp</text>
</a>
</g>
</g>
<!-- Node17&#45;&gt;Node19 -->
<g id="edge18_Node000017_Node000019" class="edge">
<title>Node17&#45;&gt;Node19</title>
<g id="a_edge18_Node000017_Node000019"><a xlink:title=" ">
<path fill="none" stroke="#63b8ff" d="M1949.12,-56.31C1949.12,-48.12 1949.12,-39.38 1949.12,-32.22"/>
<polygon fill="#63b8ff" stroke="#63b8ff" points="1945.63,-56.18 1949.13,-66.18 1952.63,-56.18 1945.63,-56.18"/>
</a>
</g>
</g>
<!-- Node20 -->
<g id="Node000020" class="node">
<title>Node20</title>
<g id="a_Node000020"><a xlink:href="test__frame__coding_8cpp.html" target="_top" xlink:title=" ">
<polygon fill="white" stroke="#666666" points="2142.75,-32 2025.5,-32 2025.5,0 2142.75,0 2142.75,-32"/>
<text text-anchor="start" x="2033.5" y="-18.5" font-family="Helvetica,sans-Serif" font-size="10.00">test/comms/test_frame</text>
<text text-anchor="middle" x="2084.12" y="-6.5" font-family="Helvetica,sans-Serif" font-size="10.00">_coding.cpp</text>
</a>
</g>
</g>
<!-- Node17&#45;&gt;Node20 -->
<g id="edge19_Node000017_Node000020" class="edge">
<title>Node17&#45;&gt;Node20</title>
<g id="a_edge19_Node000017_Node000020"><a xlink:title=" ">
<path fill="none" stroke="#63b8ff" d="M1991.11,-62.47C2011,-52.75 2034.34,-41.34 2052.67,-32.38"/>
<polygon fill="#63b8ff" stroke="#63b8ff" points="1989.58,-59.32 1982.14,-66.86 1992.66,-65.61 1989.58,-59.32"/>
</a>
</g>
</g>
</g>
</svg>

<g id="navigator" transform="translate(0 0)" fill="#404254">
  <rect fill="#f2f5e9" fill-opacity="0.5" stroke="#606060" stroke-width=".5" x="0" y="0" width="60" height="60"/>
  <use id="zoomplus" xlink:href="#zoomPlus" x="17" y="9" onmousedown="handleZoom(evt,'in')"/>
  <use id="zoomminus" xlink:href="#zoomMin" x="42" y="9" onmousedown="handleZoom(evt,'out')"/>
  <use id="reset" xlink:href="#resetDef" x="30" y="36" onmousedown="handleReset()"/>
   <use id="arrowup" xlink:href="#arrowUp" x="0" y="0" onmousedown="handlePan(0,-1)"/>
  <use id="arrowright" xlink:href="#arrowRight" x="0" y="0" onmousedown="handlePan(1,0)"/>
  <use id="arrowdown" xlink:href="#arrowDown" x="0" y="0" onmousedown="handlePan(0,1)"/>
  <use id="arrowleft" xlink:href="#arrowLeft" x="0" y="0" onmousedown="handlePan(-1,0)"/>
</g>
<svg viewBox="0 0 15 15" width="100%" height="30px" preserveAspectRatio="xMaxYMin meet">
 <g id="arrow_out" transform="scale(0.3 0.3)">
  <a xlink:href="communication_8h__dep__incl_org.svg" target="_base">
   <rect id="button" ry="5" rx="5" y="6" x="6" height="38" width="38"
        fill="#f2f5e9" fill-opacity="0.5" stroke="#606060" stroke-width="1.0"/>
   <path id="arrow"
     d="M 11.500037,31.436501 C 11.940474,20.09759 22.043105,11.32322 32.158766,21.979434 L 37.068811,17.246167 C 37.068811,17.246167 37.088388,32 37.088388,32 L 22.160133,31.978069 C 22.160133,31.978069 26.997745,27.140456 26.997745,27.140456 C 18.528582,18.264221 13.291696,25.230495 11.500037,31.436501 z"
     style="fill:#404040;"/>
  </a>
 </g>
</svg>

<style type='text/css'>
<![CDATA[
[data-mouse-over-selected='false'] { opacity: 0.7; }
[data-mouse-over-selected='true']  { opacity: 1.0; }
]]>
</style>
<script type="application/ecmascript"><![CDATA[
document.addEventListener('DOMContentLoaded', (event) => {
  highlightEdges();
  highlightAdjacentNodes();
});
]]></script>
</svg>
