<?xml version="1.0" encoding="UTF-8" standalone="no"?>
<!DOCTYPE svg PUBLIC "-//W3C//DTD SVG 1.1//EN"
 "http://www.w3.org/Graphics/SVG/1.1/DTD/svg11.dtd">
<!-- Generated by graphviz version 12.2.1 (20241206.2353)
 -->
<!-- Title: sendEventRegister Pages: 1 -->
<svg width="507pt" height="104pt"
 viewBox="0.00 0.00 507.00 104.00" xmlns="http://www.w3.org/2000/svg" xmlns:xlink="http://www.w3.org/1999/xlink">
<g id="graph0" class="graph" transform="scale(1 1) rotate(0) translate(4 100)">
<title>sendEventRegister</title>
<!-- Node1 -->
<g id="Node000001" class="node">
<title>Node1</title>
<g id="a_Node000001"><a xlink:title="Sends the event register value to the ground station.">
<polygon fill="#999999" stroke="#666666" points="99.25,-77 0,-77 0,-57 99.25,-57 99.25,-77"/>
<text text-anchor="middle" x="49.62" y="-63.5" font-family="Helvetica,sans-Serif" font-size="10.00">sendEventRegister</text>
</a>
</g>
</g>
<!-- Node2 -->
<g id="Node000002" class="node">
<title>Node2</title>
<g id="a_Node000002"><a xlink:href="frame_8cpp.html#a5f43260949ee244d3ee66068eb1d7fc1" target="_top" xlink:title="Builds a Frame instance.">
<polygon fill="white" stroke="#666666" points="199.62,-96 135.62,-96 135.62,-76 199.62,-76 199.62,-96"/>
<text text-anchor="middle" x="167.62" y="-82.5" font-family="Helvetica,sans-Serif" font-size="10.00">buildFrame</text>
</a>
</g>
</g>
<!-- Node1&#45;&gt;Node2 -->
<g id="edge1_Node000001_Node000002" class="edge">
<title>Node1&#45;&gt;Node2</title>
<g id="a_edge1_Node000001_Node000002"><a xlink:title=" ">
<path fill="none" stroke="#63b8ff" d="M99.48,-75C107.64,-76.34 116.04,-77.71 124.02,-79.02"/>
<polygon fill="#63b8ff" stroke="#63b8ff" points="123.41,-82.47 133.84,-80.63 124.54,-75.56 123.41,-82.47"/>
</a>
</g>
</g>
<!-- Node4 -->
<g id="Node000004" class="node">
<title>Node4</title>
<g id="a_Node000004"><a xlink:href="send_8cpp.html#a752e7cc27f52d4ba064e691b3e240ed8" target="_top" xlink:title="Sends a Frame using LoRa.">
<polygon fill="white" stroke="#666666" points="200,-58 135.25,-58 135.25,-38 200,-38 200,-58"/>
<text text-anchor="middle" x="167.62" y="-44.5" font-family="Helvetica,sans-Serif" font-size="10.00">sendFrame</text>
</a>
</g>
</g>
<!-- Node1&#45;&gt;Node4 -->
<g id="edge3_Node000001_Node000004" class="edge">
<title>Node1&#45;&gt;Node4</title>
<g id="a_edge3_Node000001_Node000004"><a xlink:title=" ">
<path fill="none" stroke="#63b8ff" d="M99.48,-59C107.55,-57.68 115.87,-56.31 123.78,-55.02"/>
<polygon fill="#63b8ff" stroke="#63b8ff" points="124.2,-58.5 133.5,-53.42 123.07,-51.59 124.2,-58.5"/>
</a>
</g>
</g>
<!-- Node3 -->
<g id="Node000003" class="node">
<title>Node3</title>
<g id="a_Node000003"><a xlink:href="utils__converters_8cpp.html#ab4cb9e6b491bd7711c69c9167a2b9286" target="_top" xlink:title="Converts a ValueUnit to a string.">
<polygon fill="white" stroke="#666666" points="350.25,-96 236,-96 236,-76 350.25,-76 350.25,-96"/>
<text text-anchor="middle" x="293.12" y="-82.5" font-family="Helvetica,sans-Serif" font-size="10.00">valueUnitTypeToString</text>
</a>
</g>
</g>
<!-- Node2&#45;&gt;Node3 -->
<g id="edge2_Node000002_Node000003" class="edge">
<title>Node2&#45;&gt;Node3</title>
<g id="a_edge2_Node000002_Node000003"><a xlink:title=" ">
<path fill="none" stroke="#63b8ff" d="M200.11,-86C207.58,-86 215.83,-86 224.24,-86"/>
<polygon fill="#63b8ff" stroke="#63b8ff" points="224.22,-89.5 234.22,-86 224.22,-82.5 224.22,-89.5"/>
</a>
</g>
</g>
<!-- Node5 -->
<g id="Node000005" class="node">
<title>Node5</title>
<g id="a_Node000005"><a xlink:href="frame_8cpp.html#ab53898fb6f45dfc657837a665a070959" target="_top" xlink:title="Encodes a Frame instance into a string.">
<polygon fill="white" stroke="#666666" points="330.75,-58 255.5,-58 255.5,-38 330.75,-38 330.75,-58"/>
<text text-anchor="middle" x="293.12" y="-44.5" font-family="Helvetica,sans-Serif" font-size="10.00">encodeFrame</text>
</a>
</g>
</g>
<!-- Node4&#45;&gt;Node5 -->
<g id="edge4_Node000004_Node000005" class="edge">
<title>Node4&#45;&gt;Node5</title>
<g id="a_edge4_Node000004_Node000005"><a xlink:title=" ">
<path fill="none" stroke="#63b8ff" d="M200.43,-48C213.63,-48 229.23,-48 243.79,-48"/>
<polygon fill="#63b8ff" stroke="#63b8ff" points="243.66,-51.5 253.66,-48 243.66,-44.5 243.66,-51.5"/>
</a>
</g>
</g>
<!-- Node7 -->
<g id="Node000007" class="node">
<title>Node7</title>
<g id="a_Node000007"><a xlink:href="send_8cpp.html#adcc720dc971ce8b237b26df434b65bb2" target="_top" xlink:title="Sends a message using LoRa.">
<polygon fill="white" stroke="#666666" points="331.5,-20 254.75,-20 254.75,0 331.5,0 331.5,-20"/>
<text text-anchor="middle" x="293.12" y="-6.5" font-family="Helvetica,sans-Serif" font-size="10.00">sendMessage</text>
</a>
</g>
</g>
<!-- Node4&#45;&gt;Node7 -->
<g id="edge6_Node000004_Node000007" class="edge">
<title>Node4&#45;&gt;Node7</title>
<g id="a_edge6_Node000004_Node000007"><a xlink:title=" ">
<path fill="none" stroke="#63b8ff" d="M200.43,-38.21C214.69,-33.83 231.77,-28.57 247.29,-23.79"/>
<polygon fill="#63b8ff" stroke="#63b8ff" points="248.29,-27.15 256.82,-20.86 246.23,-20.46 248.29,-27.15"/>
</a>
</g>
</g>
<!-- Node6 -->
<g id="Node000006" class="node">
<title>Node6</title>
<g id="a_Node000006"><a xlink:href="utils__converters_8cpp.html#a82a11ce999902359454fa904a13ae297" target="_top" xlink:title="Converts an OperationType to a string.">
<polygon fill="white" stroke="#666666" points="499,-58 386.25,-58 386.25,-38 499,-38 499,-58"/>
<text text-anchor="middle" x="442.62" y="-44.5" font-family="Helvetica,sans-Serif" font-size="10.00">operationTypeToString</text>
</a>
</g>
</g>
<!-- Node5&#45;&gt;Node6 -->
<g id="edge5_Node000005_Node000006" class="edge">
<title>Node5&#45;&gt;Node6</title>
<g id="a_edge5_Node000005_Node000006"><a xlink:title=" ">
<path fill="none" stroke="#63b8ff" d="M330.96,-48C344.22,-48 359.63,-48 374.65,-48"/>
<polygon fill="#63b8ff" stroke="#63b8ff" points="374.51,-51.5 384.51,-48 374.51,-44.5 374.51,-51.5"/>
</a>
</g>
</g>
<!-- Node8 -->
<g id="Node000008" class="node">
<title>Node8</title>
<g id="a_Node000008"><a xlink:href="utils_8cpp.html#aacbcecbe6b5428e3571b06ab2104e706" target="_top" xlink:title="Prints a message to the UART with a timestamp and core number.">
<polygon fill="white" stroke="#666666" points="469,-20 416.25,-20 416.25,0 469,0 469,-20"/>
<text text-anchor="middle" x="442.62" y="-6.5" font-family="Helvetica,sans-Serif" font-size="10.00">uartPrint</text>
</a>
</g>
</g>
<!-- Node7&#45;&gt;Node8 -->
<g id="edge7_Node000007_Node000008" class="edge">
<title>Node7&#45;&gt;Node8</title>
<g id="a_edge7_Node000007_Node000008"><a xlink:title=" ">
<path fill="none" stroke="#63b8ff" d="M331.73,-10C354.16,-10 382.51,-10 404.8,-10"/>
<polygon fill="#63b8ff" stroke="#63b8ff" points="404.65,-13.5 414.65,-10 404.65,-6.5 404.65,-13.5"/>
</a>
</g>
</g>
</g>
</svg>
