<?xml version="1.0" encoding="UTF-8" standalone="no"?>
<!DOCTYPE svg PUBLIC "-//W3C//DTD SVG 1.1//EN"
 "http://www.w3.org/Graphics/SVG/1.1/DTD/svg11.dtd">
<!-- Generated by graphviz version 12.2.1 (20241206.2353)
 -->
<!-- Title: handle_file_download Pages: 1 -->
<svg width="551pt" height="199pt"
 viewBox="0.00 0.00 550.50 199.00" xmlns="http://www.w3.org/2000/svg" xmlns:xlink="http://www.w3.org/1999/xlink">
<g id="graph0" class="graph" transform="scale(1 1) rotate(0) translate(4 195)">
<title>handle_file_download</title>
<!-- Node1 -->
<g id="Node000001" class="node">
<title>Node1</title>
<g id="a_Node000001"><a xlink:title="Handles the file download command.">
<polygon fill="#999999" stroke="#666666" points="109,-115 0,-115 0,-95 109,-95 109,-115"/>
<text text-anchor="middle" x="54.5" y="-101.5" font-family="Helvetica,sans-Serif" font-size="10.00">handle_file_download</text>
</a>
</g>
</g>
<!-- Node2 -->
<g id="Node000002" class="node">
<title>Node2</title>
<g id="a_Node000002"><a xlink:href="storage__commands__utils_8cpp.html#aa0dd13ce993361195ed229abcea90fcb" target="_top" xlink:title=" ">
<polygon fill="white" stroke="#666666" points="250.25,-191 145,-191 145,-171 250.25,-171 250.25,-191"/>
<text text-anchor="middle" x="197.62" y="-177.5" font-family="Helvetica,sans-Serif" font-size="10.00">calculate_checksum</text>
</a>
</g>
</g>
<!-- Node1&#45;&gt;Node2 -->
<g id="edge1_Node000001_Node000002" class="edge">
<title>Node1&#45;&gt;Node2</title>
<g id="a_edge1_Node000001_Node000002"><a xlink:title=" ">
<path fill="none" stroke="#63b8ff" d="M69.82,-115.49C87.03,-127.77 117.1,-148.18 145,-162 148.07,-163.52 151.29,-164.99 154.56,-166.38"/>
<polygon fill="#63b8ff" stroke="#63b8ff" points="153.06,-169.55 163.65,-170.04 155.67,-163.06 153.06,-169.55"/>
</a>
</g>
</g>
<!-- Node3 -->
<g id="Node000003" class="node">
<title>Node3</title>
<g id="a_Node000003"><a xlink:href="frame_8cpp.html#a29170691faa10727d607a73861cacbeb" target="_top" xlink:title="Builds a Frame instance.">
<polygon fill="white" stroke="#666666" points="230.75,-153 164.5,-153 164.5,-133 230.75,-133 230.75,-153"/>
<text text-anchor="middle" x="197.62" y="-139.5" font-family="Helvetica,sans-Serif" font-size="10.00">frame_build</text>
</a>
</g>
</g>
<!-- Node1&#45;&gt;Node3 -->
<g id="edge2_Node000001_Node000003" class="edge">
<title>Node1&#45;&gt;Node3</title>
<g id="a_edge2_Node000001_Node000003"><a xlink:title=" ">
<path fill="none" stroke="#63b8ff" d="M94.44,-115.48C112.63,-120.38 134.36,-126.23 153.09,-131.28"/>
<polygon fill="#63b8ff" stroke="#63b8ff" points="151.99,-134.61 162.56,-133.83 153.81,-127.85 151.99,-134.61"/>
</a>
</g>
</g>
<!-- Node5 -->
<g id="Node000005" class="node">
<title>Node5</title>
<g id="a_Node000005"><a xlink:href="storage__commands__utils_8cpp.html#afe02e67e9718e3283fd1a69ac3f80ac6" target="_top" xlink:title=" ">
<polygon fill="white" stroke="#666666" points="231.88,-115 163.38,-115 163.38,-95 231.88,-95 231.88,-115"/>
<text text-anchor="middle" x="197.62" y="-101.5" font-family="Helvetica,sans-Serif" font-size="10.00">receive_ack</text>
</a>
</g>
</g>
<!-- Node1&#45;&gt;Node5 -->
<g id="edge4_Node000001_Node000005" class="edge">
<title>Node1&#45;&gt;Node5</title>
<g id="a_edge4_Node000001_Node000005"><a xlink:title=" ">
<path fill="none" stroke="#63b8ff" d="M109.26,-105C123.23,-105 138.14,-105 151.62,-105"/>
<polygon fill="#63b8ff" stroke="#63b8ff" points="151.52,-108.5 161.52,-105 151.52,-101.5 151.52,-108.5"/>
</a>
</g>
</g>
<!-- Node6 -->
<g id="Node000006" class="node">
<title>Node6</title>
<g id="a_Node000006"><a xlink:href="storage__commands__utils_8cpp.html#a0c8a983fe2a522885fb4509f566f6ab6" target="_top" xlink:title=" ">
<polygon fill="white" stroke="#666666" points="242.38,-77 152.88,-77 152.88,-57 242.38,-57 242.38,-77"/>
<text text-anchor="middle" x="197.62" y="-63.5" font-family="Helvetica,sans-Serif" font-size="10.00">send_data_block</text>
</a>
</g>
</g>
<!-- Node1&#45;&gt;Node6 -->
<g id="edge5_Node000001_Node000006" class="edge">
<title>Node1&#45;&gt;Node6</title>
<g id="a_edge5_Node000001_Node000006"><a xlink:title=" ">
<path fill="none" stroke="#63b8ff" d="M94.44,-94.52C110.63,-90.15 129.63,-85.04 146.83,-80.41"/>
<polygon fill="#63b8ff" stroke="#63b8ff" points="147.61,-83.82 156.35,-77.84 145.79,-77.06 147.61,-83.82"/>
</a>
</g>
</g>
<!-- Node7 -->
<g id="Node000007" class="node">
<title>Node7</title>
<g id="a_Node000007"><a xlink:href="send_8cpp.html#ae6c6f3b673e7e83306da7ea2458d3241" target="_top" xlink:title="Sends a Frame using LoRa.">
<polygon fill="white" stroke="#666666" points="231.12,-39 164.12,-39 164.12,-19 231.12,-19 231.12,-39"/>
<text text-anchor="middle" x="197.62" y="-25.5" font-family="Helvetica,sans-Serif" font-size="10.00">send_frame</text>
</a>
</g>
</g>
<!-- Node1&#45;&gt;Node7 -->
<g id="edge6_Node000001_Node000007" class="edge">
<title>Node1&#45;&gt;Node7</title>
<g id="a_edge6_Node000001_Node000007"><a xlink:title=" ">
<path fill="none" stroke="#63b8ff" d="M69.82,-94.51C87.03,-82.23 117.1,-61.82 145,-48 148.07,-46.48 151.29,-45.01 154.56,-43.62"/>
<polygon fill="#63b8ff" stroke="#63b8ff" points="155.67,-46.94 163.65,-39.96 153.06,-40.45 155.67,-46.94"/>
</a>
</g>
</g>
<!-- Node4 -->
<g id="Node000004" class="node">
<title>Node4</title>
<g id="a_Node000004"><a xlink:href="utils__converters_8cpp.html#a29531ed9ad98ab78384a8a2f37f4e77d" target="_top" xlink:title="Converts a ValueUnit to a string.">
<polygon fill="white" stroke="#666666" points="384,-159 286.25,-159 286.25,-127 384,-127 384,-159"/>
<text text-anchor="start" x="294.25" y="-145.5" font-family="Helvetica,sans-Serif" font-size="10.00">value_unit_type_to</text>
<text text-anchor="middle" x="335.12" y="-133.5" font-family="Helvetica,sans-Serif" font-size="10.00">_string</text>
</a>
</g>
</g>
<!-- Node3&#45;&gt;Node4 -->
<g id="edge3_Node000003_Node000004" class="edge">
<title>Node3&#45;&gt;Node4</title>
<g id="a_edge3_Node000003_Node000004"><a xlink:title=" ">
<path fill="none" stroke="#63b8ff" d="M231.08,-143C244.12,-143 259.58,-143 274.51,-143"/>
<polygon fill="#63b8ff" stroke="#63b8ff" points="274.25,-146.5 284.25,-143 274.25,-139.5 274.25,-146.5"/>
</a>
</g>
</g>
<!-- Node8 -->
<g id="Node000008" class="node">
<title>Node8</title>
<g id="a_Node000008"><a xlink:href="frame_8cpp.html#a3ae6df528775be58890bf406c906a056" target="_top" xlink:title="Encodes a Frame instance into a string.">
<polygon fill="white" stroke="#666666" points="373.88,-58 296.38,-58 296.38,-38 373.88,-38 373.88,-58"/>
<text text-anchor="middle" x="335.12" y="-44.5" font-family="Helvetica,sans-Serif" font-size="10.00">frame_encode</text>
</a>
</g>
</g>
<!-- Node7&#45;&gt;Node8 -->
<g id="edge7_Node000007_Node000008" class="edge">
<title>Node7&#45;&gt;Node8</title>
<g id="a_edge7_Node000007_Node000008"><a xlink:title=" ">
<path fill="none" stroke="#63b8ff" d="M231.43,-33.6C247.49,-35.85 267.16,-38.61 284.97,-41.11"/>
<polygon fill="#63b8ff" stroke="#63b8ff" points="284.46,-44.57 294.85,-42.49 285.44,-37.64 284.46,-44.57"/>
</a>
</g>
</g>
<!-- Node10 -->
<g id="Node000010" class="node">
<title>Node10</title>
<g id="a_Node000010"><a xlink:href="send_8cpp.html#a42881e6476e0ce51ee9f6a99a7318d3b" target="_top" xlink:title="Sends a message using LoRa.">
<polygon fill="white" stroke="#666666" points="376.12,-20 294.12,-20 294.12,0 376.12,0 376.12,-20"/>
<text text-anchor="middle" x="335.12" y="-6.5" font-family="Helvetica,sans-Serif" font-size="10.00">send_message</text>
</a>
</g>
</g>
<!-- Node7&#45;&gt;Node10 -->
<g id="edge9_Node000007_Node000010" class="edge">
<title>Node7&#45;&gt;Node10</title>
<g id="a_edge9_Node000007_Node000010"><a xlink:title=" ">
<path fill="none" stroke="#63b8ff" d="M231.43,-24.4C246.78,-22.25 265.44,-19.63 282.61,-17.22"/>
<polygon fill="#63b8ff" stroke="#63b8ff" points="282.72,-20.74 292.14,-15.89 281.75,-13.81 282.72,-20.74"/>
</a>
</g>
</g>
<!-- Node9 -->
<g id="Node000009" class="node">
<title>Node9</title>
<g id="a_Node000009"><a xlink:href="utils__converters_8cpp.html#ab218e62029b4451e910d8caf0fd05804" target="_top" xlink:title="Converts an OperationType to a string.">
<polygon fill="white" stroke="#666666" points="542.5,-58 420,-58 420,-38 542.5,-38 542.5,-58"/>
<text text-anchor="middle" x="481.25" y="-44.5" font-family="Helvetica,sans-Serif" font-size="10.00">operation_type_to_string</text>
</a>
</g>
</g>
<!-- Node8&#45;&gt;Node9 -->
<g id="edge8_Node000008_Node000009" class="edge">
<title>Node8&#45;&gt;Node9</title>
<g id="a_edge8_Node000008_Node000009"><a xlink:title=" ">
<path fill="none" stroke="#63b8ff" d="M374.37,-48C384.86,-48 396.59,-48 408.31,-48"/>
<polygon fill="#63b8ff" stroke="#63b8ff" points="407.99,-51.5 417.99,-48 407.99,-44.5 407.99,-51.5"/>
</a>
</g>
</g>
<!-- Node11 -->
<g id="Node000011" class="node">
<title>Node11</title>
<g id="a_Node000011"><a xlink:href="utils_8cpp.html#acd86977d05fa330749958ace0f2798de" target="_top" xlink:title="Prints a message to the UART with a timestamp and core number.">
<polygon fill="white" stroke="#666666" points="509.5,-20 453,-20 453,0 509.5,0 509.5,-20"/>
<text text-anchor="middle" x="481.25" y="-6.5" font-family="Helvetica,sans-Serif" font-size="10.00">uart_print</text>
</a>
</g>
</g>
<!-- Node10&#45;&gt;Node11 -->
<g id="edge10_Node000010_Node000011" class="edge">
<title>Node10&#45;&gt;Node11</title>
<g id="a_edge10_Node000010_Node000011"><a xlink:title=" ">
<path fill="none" stroke="#63b8ff" d="M376.27,-10C396.6,-10 421.18,-10 441.34,-10"/>
<polygon fill="#63b8ff" stroke="#63b8ff" points="441.11,-13.5 451.11,-10 441.11,-6.5 441.11,-13.5"/>
</a>
</g>
</g>
</g>
</svg>
