<?xml version="1.0" encoding="UTF-8" standalone="no"?>
<!DOCTYPE svg PUBLIC "-//W3C//DTD SVG 1.1//EN"
 "http://www.w3.org/Graphics/SVG/1.1/DTD/svg11.dtd">
<!-- Generated by graphviz version 12.2.1 (20241206.2353)
 -->
<!-- Title: initializeRadio Pages: 1 -->
<svg width="219pt" height="66pt"
 viewBox="0.00 0.00 218.50 66.00" xmlns="http://www.w3.org/2000/svg" xmlns:xlink="http://www.w3.org/1999/xlink">
<g id="graph0" class="graph" transform="scale(1 1) rotate(0) translate(4 62)">
<title>initializeRadio</title>
<!-- Node1 -->
<g id="Node000001" class="node">
<title>Node1</title>
<g id="a_Node000001"><a xlink:title="Initializes the LoRa radio module.">
<polygon fill="#999999" stroke="#666666" points="76.75,-39 0,-39 0,-19 76.75,-19 76.75,-39"/>
<text text-anchor="middle" x="38.38" y="-25.5" font-family="Helvetica,sans-Serif" font-size="10.00">initializeRadio</text>
</a>
</g>
</g>
<!-- Node2 -->
<g id="Node000002" class="node">
<title>Node2</title>
<g id="a_Node000002"><a xlink:href="class_event_emitter.html#a539d733505f9a793439a9cfc4f2af079" target="_top" xlink:title="Emits an event.">
<polygon fill="white" stroke="#666666" points="210.5,-58 112.75,-58 112.75,-38 210.5,-38 210.5,-58"/>
<text text-anchor="middle" x="161.62" y="-44.5" font-family="Helvetica,sans-Serif" font-size="10.00">EventEmitter::emit</text>
</a>
</g>
</g>
<!-- Node1&#45;&gt;Node2 -->
<g id="edge1_Node000001_Node000002" class="edge">
<title>Node1&#45;&gt;Node2</title>
<g id="a_edge1_Node000001_Node000002"><a xlink:title=" ">
<path fill="none" stroke="#63b8ff" d="M77.07,-34.91C84.82,-36.12 93.14,-37.43 101.44,-38.73"/>
<polygon fill="#63b8ff" stroke="#63b8ff" points="100.75,-42.16 111.17,-40.25 101.83,-35.24 100.75,-42.16"/>
</a>
</g>
</g>
<!-- Node3 -->
<g id="Node000003" class="node">
<title>Node3</title>
<g id="a_Node000003"><a xlink:href="utils_8cpp.html#aacbcecbe6b5428e3571b06ab2104e706" target="_top" xlink:title="Prints a message to the UART with a timestamp and core number.">
<polygon fill="white" stroke="#666666" points="188,-20 135.25,-20 135.25,0 188,0 188,-20"/>
<text text-anchor="middle" x="161.62" y="-6.5" font-family="Helvetica,sans-Serif" font-size="10.00">uartPrint</text>
</a>
</g>
</g>
<!-- Node1&#45;&gt;Node3 -->
<g id="edge2_Node000001_Node000003" class="edge">
<title>Node1&#45;&gt;Node3</title>
<g id="a_edge2_Node000001_Node000003"><a xlink:title=" ">
<path fill="none" stroke="#63b8ff" d="M77.07,-23.09C91.89,-20.77 108.84,-18.12 123.58,-15.8"/>
<polygon fill="#63b8ff" stroke="#63b8ff" points="124.02,-19.28 133.36,-14.27 122.94,-12.36 124.02,-19.28"/>
</a>
</g>
</g>
</g>
</svg>
