<?xml version="1.0" encoding="UTF-8" standalone="no"?>
<!DOCTYPE svg PUBLIC "-//W3C//DTD SVG 1.1//EN"
 "http://www.w3.org/Graphics/SVG/1.1/DTD/svg11.dtd">
<!-- Generated by graphviz version 12.2.1 (20241206.2353)
 -->
<!-- Title: lib/comms/communication.cpp Pages: 1 -->
<svg width="1419pt" height="308pt"
 viewBox="0.00 0.00 1419.17 308.00" xmlns="http://www.w3.org/2000/svg" xmlns:xlink="http://www.w3.org/1999/xlink">
<g id="graph0" class="graph" transform="scale(1 1) rotate(0) translate(4 304)">
<title>lib/comms/communication.cpp</title>
<!-- Node1 -->
<g id="Node000001" class="node">
<title>Node1</title>
<g id="a_Node000001"><a xlink:title=" ">
<polygon fill="#999999" stroke="#666666" points="492.25,-300 343.5,-300 343.5,-280 492.25,-280 492.25,-300"/>
<text text-anchor="middle" x="417.88" y="-286.5" font-family="Helvetica,sans-Serif" font-size="10.00">lib/comms/communication.cpp</text>
</a>
</g>
</g>
<!-- Node2 -->
<g id="Node000002" class="node">
<title>Node2</title>
<g id="a_Node000002"><a xlink:href="communication_8h.html" target="_top" xlink:title=" ">
<polygon fill="white" stroke="#666666" points="463,-244 372.75,-244 372.75,-224 463,-224 463,-244"/>
<text text-anchor="middle" x="417.88" y="-230.5" font-family="Helvetica,sans-Serif" font-size="10.00">communication.h</text>
</a>
</g>
</g>
<!-- Node1&#45;&gt;Node2 -->
<g id="edge1_Node000001_Node000002" class="edge">
<title>Node1&#45;&gt;Node2</title>
<g id="a_edge1_Node000001_Node000002"><a xlink:title=" ">
<path fill="none" stroke="#63b8ff" d="M417.88,-279.59C417.88,-273.01 417.88,-263.96 417.88,-255.73"/>
<polygon fill="#63b8ff" stroke="#63b8ff" points="421.38,-255.81 417.88,-245.81 414.38,-255.81 421.38,-255.81"/>
</a>
</g>
</g>
<!-- Node3 -->
<g id="Node000003" class="node">
<title>Node3</title>
<g id="a_Node000003"><a xlink:title=" ">
<polygon fill="#e0e0e0" stroke="#999999" points="510.88,-20 470.88,-20 470.88,0 510.88,0 510.88,-20"/>
<text text-anchor="middle" x="490.88" y="-6.5" font-family="Helvetica,sans-Serif" font-size="10.00">string</text>
</a>
</g>
</g>
<!-- Node2&#45;&gt;Node3 -->
<g id="edge2_Node000002_Node000003" class="edge">
<title>Node2&#45;&gt;Node3</title>
<g id="a_edge2_Node000002_Node000003"><a xlink:title=" ">
<path fill="none" stroke="#63b8ff" d="M372.26,-228.31C288,-217.75 121.16,-186.93 173.88,-112 207.48,-64.23 385.83,-28.9 459.25,-16.17"/>
<polygon fill="#63b8ff" stroke="#63b8ff" points="459.74,-19.64 469.01,-14.51 458.56,-12.74 459.74,-19.64"/>
</a>
</g>
</g>
<!-- Node4 -->
<g id="Node000004" class="node">
<title>Node4</title>
<g id="a_Node000004"><a xlink:title=" ">
<polygon fill="#e0e0e0" stroke="#999999" points="524.38,-132 481.38,-132 481.38,-112 524.38,-112 524.38,-132"/>
<text text-anchor="middle" x="502.88" y="-118.5" font-family="Helvetica,sans-Serif" font-size="10.00">vector</text>
</a>
</g>
</g>
<!-- Node2&#45;&gt;Node4 -->
<g id="edge3_Node000002_Node000004" class="edge">
<title>Node2&#45;&gt;Node4</title>
<g id="a_edge3_Node000002_Node000004"><a xlink:title=" ">
<path fill="none" stroke="#63b8ff" d="M425.12,-223.62C439.17,-205.44 470.35,-165.09 488.67,-141.38"/>
<polygon fill="#63b8ff" stroke="#63b8ff" points="491.38,-143.61 494.72,-133.55 485.84,-139.33 491.38,-143.61"/>
</a>
</g>
</g>
<!-- Node5 -->
<g id="Node000005" class="node">
<title>Node5</title>
<g id="a_Node000005"><a xlink:href="protocol_8h.html" target="_top" xlink:title=" ">
<polygon fill="white" stroke="#666666" points="791.25,-188 732.5,-188 732.5,-168 791.25,-168 791.25,-188"/>
<text text-anchor="middle" x="761.88" y="-174.5" font-family="Helvetica,sans-Serif" font-size="10.00">protocol.h</text>
</a>
</g>
</g>
<!-- Node2&#45;&gt;Node5 -->
<g id="edge4_Node000002_Node000005" class="edge">
<title>Node2&#45;&gt;Node5</title>
<g id="a_edge4_Node000002_Node000005"><a xlink:title=" ">
<path fill="none" stroke="#63b8ff" d="M463.2,-225.88C530.53,-215.32 655.96,-195.63 720.76,-185.45"/>
<polygon fill="#63b8ff" stroke="#63b8ff" points="721.3,-188.91 730.64,-183.9 720.21,-182 721.3,-188.91"/>
</a>
</g>
</g>
<!-- Node32 -->
<g id="Node000032" class="node">
<title>Node32</title>
<g id="a_Node000032"><a xlink:href="event__manager_8h.html" target="_top" xlink:title=" ">
<polygon fill="white" stroke="#666666" points="379.38,-188 288.38,-188 288.38,-168 379.38,-168 379.38,-188"/>
<text text-anchor="middle" x="333.88" y="-174.5" font-family="Helvetica,sans-Serif" font-size="10.00">event_manager.h</text>
</a>
</g>
</g>
<!-- Node2&#45;&gt;Node32 -->
<g id="edge44_Node000002_Node000032" class="edge">
<title>Node2&#45;&gt;Node32</title>
<g id="a_edge44_Node000002_Node000032"><a xlink:title=" ">
<path fill="none" stroke="#63b8ff" d="M403.24,-223.59C390.79,-215.59 372.66,-203.93 358.05,-194.54"/>
<polygon fill="#63b8ff" stroke="#63b8ff" points="360.2,-191.76 349.89,-189.3 356.41,-197.65 360.2,-191.76"/>
</a>
</g>
</g>
<!-- Node5&#45;&gt;Node3 -->
<g id="edge5_Node000005_Node000003" class="edge">
<title>Node5&#45;&gt;Node3</title>
<g id="a_edge5_Node000005_Node000003"><a xlink:title=" ">
<path fill="none" stroke="#63b8ff" d="M732.08,-176.65C692.13,-174.79 620.59,-166.44 571.88,-132 539.06,-108.8 545.42,-89.27 522.88,-56 516.9,-47.18 510.09,-37.54 504.29,-29.46"/>
<polygon fill="#63b8ff" stroke="#63b8ff" points="507.2,-27.51 498.5,-21.45 501.52,-31.61 507.2,-27.51"/>
</a>
</g>
</g>
<!-- Node5&#45;&gt;Node4 -->
<g id="edge8_Node000005_Node000004" class="edge">
<title>Node5&#45;&gt;Node4</title>
<g id="a_edge8_Node000005_Node000004"><a xlink:title=" ">
<path fill="none" stroke="#63b8ff" d="M732.2,-171.46C689.39,-163.37 607.84,-147.57 538.88,-132 537.71,-131.74 536.53,-131.47 535.34,-131.19"/>
<polygon fill="#63b8ff" stroke="#63b8ff" points="536.55,-127.88 526.01,-128.94 534.91,-134.69 536.55,-127.88"/>
</a>
</g>
</g>
<!-- Node6 -->
<g id="Node000006" class="node">
<title>Node6</title>
<g id="a_Node000006"><a xlink:title=" ">
<polygon fill="#e0e0e0" stroke="#999999" points="514.25,-76 479.5,-76 479.5,-56 514.25,-56 514.25,-76"/>
<text text-anchor="middle" x="496.88" y="-62.5" font-family="Helvetica,sans-Serif" font-size="10.00">map</text>
</a>
</g>
</g>
<!-- Node5&#45;&gt;Node6 -->
<g id="edge6_Node000005_Node000006" class="edge">
<title>Node5&#45;&gt;Node6</title>
<g id="a_edge6_Node000005_Node000006"><a xlink:title=" ">
<path fill="none" stroke="#63b8ff" d="M791.53,-177.62C864.54,-178.23 1043.12,-173.65 986.88,-112 971.23,-94.85 628.74,-74.37 525.85,-68.59"/>
<polygon fill="#63b8ff" stroke="#63b8ff" points="526.22,-65.11 516.04,-68.04 525.83,-72.09 526.22,-65.11"/>
</a>
</g>
</g>
<!-- Node7 -->
<g id="Node000007" class="node">
<title>Node7</title>
<g id="a_Node000007"><a xlink:title=" ">
<polygon fill="#e0e0e0" stroke="#999999" points="1319.88,-132 1261.88,-132 1261.88,-112 1319.88,-112 1319.88,-132"/>
<text text-anchor="middle" x="1290.88" y="-118.5" font-family="Helvetica,sans-Serif" font-size="10.00">functional</text>
</a>
</g>
</g>
<!-- Node5&#45;&gt;Node7 -->
<g id="edge7_Node000005_Node000007" class="edge">
<title>Node5&#45;&gt;Node7</title>
<g id="a_edge7_Node000005_Node000007"><a xlink:title=" ">
<path fill="none" stroke="#63b8ff" d="M791.67,-175.74C866.93,-172.23 1070.88,-160.82 1250.27,-132.21"/>
<polygon fill="#63b8ff" stroke="#63b8ff" points="1250.69,-135.69 1260.01,-130.63 1249.57,-128.78 1250.69,-135.69"/>
</a>
</g>
</g>
<!-- Node8 -->
<g id="Node000008" class="node">
<title>Node8</title>
<g id="a_Node000008"><a xlink:title=" ">
<polygon fill="#e0e0e0" stroke="#999999" points="356.5,-132 311.25,-132 311.25,-112 356.5,-112 356.5,-132"/>
<text text-anchor="middle" x="333.88" y="-118.5" font-family="Helvetica,sans-Serif" font-size="10.00">cstdint</text>
</a>
</g>
</g>
<!-- Node5&#45;&gt;Node8 -->
<g id="edge9_Node000005_Node000008" class="edge">
<title>Node5&#45;&gt;Node8</title>
<g id="a_edge9_Node000005_Node000008"><a xlink:title=" ">
<path fill="none" stroke="#63b8ff" d="M732.23,-175.36C667.55,-171.43 508.89,-159.79 367.78,-132.3"/>
<polygon fill="#63b8ff" stroke="#63b8ff" points="368.77,-128.93 358.28,-130.42 367.4,-135.8 368.77,-128.93"/>
</a>
</g>
</g>
<!-- Node9 -->
<g id="Node000009" class="node">
<title>Node9</title>
<g id="a_Node000009"><a xlink:title=" ">
<polygon fill="#e0e0e0" stroke="#999999" points="630.75,-132 581,-132 581,-112 630.75,-112 630.75,-132"/>
<text text-anchor="middle" x="605.88" y="-118.5" font-family="Helvetica,sans-Serif" font-size="10.00">iomanip</text>
</a>
</g>
</g>
<!-- Node5&#45;&gt;Node9 -->
<g id="edge10_Node000005_Node000009" class="edge">
<title>Node5&#45;&gt;Node9</title>
<g id="a_edge10_Node000005_Node000009"><a xlink:title=" ">
<path fill="none" stroke="#63b8ff" d="M734.7,-167.59C708.96,-158.68 670.14,-145.25 641.85,-135.45"/>
<polygon fill="#63b8ff" stroke="#63b8ff" points="643.21,-132.22 632.62,-132.26 640.92,-138.84 643.21,-132.22"/>
</a>
</g>
</g>
<!-- Node10 -->
<g id="Node000010" class="node">
<title>Node10</title>
<g id="a_Node000010"><a xlink:href="pin__config_8h.html" target="_top" xlink:title=" ">
<polygon fill="white" stroke="#666666" points="1195.12,-76 1126.62,-76 1126.62,-56 1195.12,-56 1195.12,-76"/>
<text text-anchor="middle" x="1160.88" y="-62.5" font-family="Helvetica,sans-Serif" font-size="10.00">pin_config.h</text>
</a>
</g>
</g>
<!-- Node5&#45;&gt;Node10 -->
<g id="edge11_Node000005_Node000010" class="edge">
<title>Node5&#45;&gt;Node10</title>
<g id="a_edge11_Node000005_Node000010"><a xlink:title=" ">
<path fill="none" stroke="#63b8ff" d="M791.69,-175.72C878.99,-171.67 1129.54,-157.9 1154.88,-132 1166.03,-120.6 1166.73,-102.08 1165.1,-87.72"/>
<polygon fill="#63b8ff" stroke="#63b8ff" points="1168.57,-87.26 1163.52,-77.95 1161.66,-88.38 1168.57,-87.26"/>
</a>
</g>
</g>
<!-- Node12 -->
<g id="Node000012" class="node">
<title>Node12</title>
<g id="a_Node000012"><a xlink:href="_power_manager_8h.html" target="_top" xlink:title=" ">
<polygon fill="white" stroke="#666666" points="463.62,-132 374.12,-132 374.12,-112 463.62,-112 463.62,-132"/>
<text text-anchor="middle" x="418.88" y="-118.5" font-family="Helvetica,sans-Serif" font-size="10.00">PowerManager.h</text>
</a>
</g>
</g>
<!-- Node5&#45;&gt;Node12 -->
<g id="edge13_Node000005_Node000012" class="edge">
<title>Node5&#45;&gt;Node12</title>
<g id="a_edge13_Node000005_Node000012"><a xlink:title=" ">
<path fill="none" stroke="#63b8ff" d="M732.32,-172.5C681.88,-164.81 575.66,-148.51 475.22,-132.36"/>
<polygon fill="#63b8ff" stroke="#63b8ff" points="475.87,-128.92 465.44,-130.79 474.76,-135.84 475.87,-128.92"/>
</a>
</g>
</g>
<!-- Node17 -->
<g id="Node000017" class="node">
<title>Node17</title>
<g id="a_Node000017"><a xlink:title=" ">
<polygon fill="#e0e0e0" stroke="#999999" points="691,-132 648.75,-132 648.75,-112 691,-112 691,-132"/>
<text text-anchor="middle" x="669.88" y="-118.5" font-family="Helvetica,sans-Serif" font-size="10.00">cstdio</text>
</a>
</g>
</g>
<!-- Node5&#45;&gt;Node17 -->
<g id="edge22_Node000005_Node000017" class="edge">
<title>Node5&#45;&gt;Node17</title>
<g id="a_edge22_Node000005_Node000017"><a xlink:title=" ">
<path fill="none" stroke="#63b8ff" d="M745.85,-167.59C732.08,-159.51 711.97,-147.71 695.9,-138.27"/>
<polygon fill="#63b8ff" stroke="#63b8ff" points="697.73,-135.29 687.33,-133.25 694.18,-141.33 697.73,-135.29"/>
</a>
</g>
</g>
<!-- Node18 -->
<g id="Node000018" class="node">
<title>Node18</title>
<g id="a_Node000018"><a xlink:title=" ">
<polygon fill="#e0e0e0" stroke="#999999" points="753.12,-132 708.62,-132 708.62,-112 753.12,-112 753.12,-132"/>
<text text-anchor="middle" x="730.88" y="-118.5" font-family="Helvetica,sans-Serif" font-size="10.00">cstdlib</text>
</a>
</g>
</g>
<!-- Node5&#45;&gt;Node18 -->
<g id="edge23_Node000005_Node000018" class="edge">
<title>Node5&#45;&gt;Node18</title>
<g id="a_edge23_Node000005_Node000018"><a xlink:title=" ">
<path fill="none" stroke="#63b8ff" d="M756.48,-167.59C752.43,-160.55 746.76,-150.67 741.78,-142"/>
<polygon fill="#63b8ff" stroke="#63b8ff" points="744.98,-140.54 736.97,-133.61 738.91,-144.03 744.98,-140.54"/>
</a>
</g>
</g>
<!-- Node19 -->
<g id="Node000019" class="node">
<title>Node19</title>
<g id="a_Node000019"><a xlink:title=" ">
<polygon fill="#e0e0e0" stroke="#999999" points="816.5,-132 771.25,-132 771.25,-112 816.5,-112 816.5,-132"/>
<text text-anchor="middle" x="793.88" y="-118.5" font-family="Helvetica,sans-Serif" font-size="10.00">cstring</text>
</a>
</g>
</g>
<!-- Node5&#45;&gt;Node19 -->
<g id="edge24_Node000005_Node000019" class="edge">
<title>Node5&#45;&gt;Node19</title>
<g id="a_edge24_Node000005_Node000019"><a xlink:title=" ">
<path fill="none" stroke="#63b8ff" d="M767.45,-167.59C771.62,-160.55 777.48,-150.67 782.62,-142"/>
<polygon fill="#63b8ff" stroke="#63b8ff" points="785.51,-143.99 787.59,-133.6 779.48,-140.42 785.51,-143.99"/>
</a>
</g>
</g>
<!-- Node20 -->
<g id="Node000020" class="node">
<title>Node20</title>
<g id="a_Node000020"><a xlink:href="utils_8h.html" target="_top" xlink:title=" ">
<polygon fill="white" stroke="#666666" points="1244,-132 1201.75,-132 1201.75,-112 1244,-112 1244,-132"/>
<text text-anchor="middle" x="1222.88" y="-118.5" font-family="Helvetica,sans-Serif" font-size="10.00">utils.h</text>
</a>
</g>
</g>
<!-- Node5&#45;&gt;Node20 -->
<g id="edge25_Node000005_Node000020" class="edge">
<title>Node5&#45;&gt;Node20</title>
<g id="a_edge25_Node000005_Node000020"><a xlink:title=" ">
<path fill="none" stroke="#63b8ff" d="M791.52,-175.37C861.16,-171.21 1040.4,-158.6 1187.88,-132 1188.71,-131.85 1189.55,-131.69 1190.4,-131.52"/>
<polygon fill="#63b8ff" stroke="#63b8ff" points="1191.05,-134.96 1200.04,-129.35 1189.51,-128.14 1191.05,-134.96"/>
</a>
</g>
</g>
<!-- Node23 -->
<g id="Node000023" class="node">
<title>Node23</title>
<g id="a_Node000023"><a xlink:title=" ">
<polygon fill="#e0e0e0" stroke="#999999" points="877.38,-132 834.38,-132 834.38,-112 877.38,-112 877.38,-132"/>
<text text-anchor="middle" x="855.88" y="-118.5" font-family="Helvetica,sans-Serif" font-size="10.00">time.h</text>
</a>
</g>
</g>
<!-- Node5&#45;&gt;Node23 -->
<g id="edge31_Node000005_Node000023" class="edge">
<title>Node5&#45;&gt;Node23</title>
<g id="a_edge31_Node000005_Node000023"><a xlink:title=" ">
<path fill="none" stroke="#63b8ff" d="M778.25,-167.59C792.45,-159.44 813.26,-147.48 829.76,-138"/>
<polygon fill="#63b8ff" stroke="#63b8ff" points="831.13,-141.25 838.06,-133.23 827.65,-135.18 831.13,-141.25"/>
</a>
</g>
</g>
<!-- Node24 -->
<g id="Node000024" class="node">
<title>Node24</title>
<g id="a_Node000024"><a xlink:href="build__number_8h.html" target="_top" xlink:title=" ">
<polygon fill="white" stroke="#666666" points="977.88,-132 895.88,-132 895.88,-112 977.88,-112 977.88,-132"/>
<text text-anchor="middle" x="936.88" y="-118.5" font-family="Helvetica,sans-Serif" font-size="10.00">build_number.h</text>
</a>
</g>
</g>
<!-- Node5&#45;&gt;Node24 -->
<g id="edge32_Node000005_Node000024" class="edge">
<title>Node5&#45;&gt;Node24</title>
<g id="a_edge32_Node000005_Node000024"><a xlink:title=" ">
<path fill="none" stroke="#63b8ff" d="M791.56,-167.84C820.09,-159.04 863.45,-145.66 895.38,-135.8"/>
<polygon fill="#63b8ff" stroke="#63b8ff" points="896.19,-139.22 904.71,-132.92 894.13,-132.53 896.19,-139.22"/>
</a>
</g>
</g>
<!-- Node25 -->
<g id="Node000025" class="node">
<title>Node25</title>
<g id="a_Node000025"><a xlink:href="_lo_ra-_r_p2040_8h.html" target="_top" xlink:title=" ">
<polygon fill="white" stroke="#666666" points="1145.88,-132 1033.88,-132 1033.88,-112 1145.88,-112 1145.88,-132"/>
<text text-anchor="middle" x="1089.88" y="-118.5" font-family="Helvetica,sans-Serif" font-size="10.00">LoRa/LoRa&#45;RP2040.h</text>
</a>
</g>
</g>
<!-- Node5&#45;&gt;Node25 -->
<g id="edge33_Node000005_Node000025" class="edge">
<title>Node5&#45;&gt;Node25</title>
<g id="a_edge33_Node000005_Node000025"><a xlink:title=" ">
<path fill="none" stroke="#63b8ff" d="M791.56,-172.11C843.43,-163.57 951.76,-145.74 1022.61,-134.07"/>
<polygon fill="#63b8ff" stroke="#63b8ff" points="1022.85,-137.58 1032.15,-132.5 1021.72,-130.67 1022.85,-137.58"/>
</a>
</g>
</g>
<!-- Node11 -->
<g id="Node000011" class="node">
<title>Node11</title>
<g id="a_Node000011"><a xlink:title=" ">
<polygon fill="#e0e0e0" stroke="#999999" points="366,-20 317.75,-20 317.75,0 366,0 366,-20"/>
<text text-anchor="middle" x="341.88" y="-6.5" font-family="Helvetica,sans-Serif" font-size="10.00">stdint.h</text>
</a>
</g>
</g>
<!-- Node10&#45;&gt;Node11 -->
<g id="edge12_Node000010_Node000011" class="edge">
<title>Node10&#45;&gt;Node11</title>
<g id="a_edge12_Node000010_Node000011"><a xlink:title=" ">
<path fill="none" stroke="#63b8ff" d="M1126.37,-57.44C1123.17,-56.89 1119.97,-56.4 1116.88,-56 827.72,-18.69 752.81,-38.9 461.88,-20 433.52,-18.16 401.42,-15.73 377.56,-13.86"/>
<polygon fill="#63b8ff" stroke="#63b8ff" points="377.98,-10.39 367.74,-13.09 377.43,-17.36 377.98,-10.39"/>
</a>
</g>
</g>
<!-- Node12&#45;&gt;Node3 -->
<g id="edge19_Node000012_Node000003" class="edge">
<title>Node12&#45;&gt;Node3</title>
<g id="a_edge19_Node000012_Node000003"><a xlink:title=" ">
<path fill="none" stroke="#63b8ff" d="M425.01,-111.62C436.86,-93.52 463.09,-53.45 478.63,-29.7"/>
<polygon fill="#63b8ff" stroke="#63b8ff" points="481.37,-31.91 483.92,-21.62 475.52,-28.07 481.37,-31.91"/>
</a>
</g>
</g>
<!-- Node12&#45;&gt;Node6 -->
<g id="edge18_Node000012_Node000006" class="edge">
<title>Node12&#45;&gt;Node6</title>
<g id="a_edge18_Node000012_Node000006"><a xlink:title=" ">
<path fill="none" stroke="#63b8ff" d="M432.46,-111.59C443.91,-103.67 460.54,-92.16 474.03,-82.82"/>
<polygon fill="#63b8ff" stroke="#63b8ff" points="475.71,-85.91 481.94,-77.34 471.72,-80.16 475.71,-85.91"/>
</a>
</g>
</g>
<!-- Node13 -->
<g id="Node000013" class="node">
<title>Node13</title>
<g id="a_Node000013"><a xlink:href="_i_n_a3221_8h.html" target="_top" xlink:title=" ">
<polygon fill="white" stroke="#666666" points="171.75,-76 68,-76 68,-56 171.75,-56 171.75,-76"/>
<text text-anchor="middle" x="119.88" y="-62.5" font-family="Helvetica,sans-Serif" font-size="10.00">INA3221/INA3221.h</text>
</a>
</g>
</g>
<!-- Node12&#45;&gt;Node13 -->
<g id="edge14_Node000012_Node000013" class="edge">
<title>Node12&#45;&gt;Node13</title>
<g id="a_edge14_Node000012_Node000013"><a xlink:title=" ">
<path fill="none" stroke="#63b8ff" d="M373.79,-112.86C323.09,-103.7 240.38,-88.76 183.21,-78.44"/>
<polygon fill="#63b8ff" stroke="#63b8ff" points="184.08,-75.04 173.62,-76.71 182.84,-81.93 184.08,-75.04"/>
</a>
</g>
</g>
<!-- Node15 -->
<g id="Node000015" class="node">
<title>Node15</title>
<g id="a_Node000015"><a xlink:title=" ">
<polygon fill="#e0e0e0" stroke="#999999" points="79.75,-20 0,-20 0,0 79.75,0 79.75,-20"/>
<text text-anchor="middle" x="39.88" y="-6.5" font-family="Helvetica,sans-Serif" font-size="10.00">hardware/i2c.h</text>
</a>
</g>
</g>
<!-- Node12&#45;&gt;Node15 -->
<g id="edge20_Node000012_Node000015" class="edge">
<title>Node12&#45;&gt;Node15</title>
<g id="a_edge20_Node000012_Node000015"><a xlink:title=" ">
<path fill="none" stroke="#63b8ff" d="M373.79,-113.18C371.12,-112.77 368.46,-112.37 365.88,-112 297.88,-102.25 111.34,-120.33 58.88,-76 46.09,-65.2 41.65,-46.32 40.23,-31.68"/>
<polygon fill="#63b8ff" stroke="#63b8ff" points="43.72,-31.53 39.7,-21.73 36.73,-31.9 43.72,-31.53"/>
</a>
</g>
</g>
<!-- Node16 -->
<g id="Node000016" class="node">
<title>Node16</title>
<g id="a_Node000016"><a xlink:title=" ">
<polygon fill="#e0e0e0" stroke="#999999" points="1108.12,-76 1039.62,-76 1039.62,-56 1108.12,-56 1108.12,-76"/>
<text text-anchor="middle" x="1073.88" y="-62.5" font-family="Helvetica,sans-Serif" font-size="10.00">pico/stdlib.h</text>
</a>
</g>
</g>
<!-- Node12&#45;&gt;Node16 -->
<g id="edge21_Node000012_Node000016" class="edge">
<title>Node12&#45;&gt;Node16</title>
<g id="a_edge21_Node000012_Node000016"><a xlink:title=" ">
<path fill="none" stroke="#63b8ff" d="M463.91,-113.15C466.94,-112.73 469.95,-112.34 472.88,-112 716.14,-83.95 782.69,-108.79 1028.15,-76.19"/>
<polygon fill="#63b8ff" stroke="#63b8ff" points="1028.27,-79.7 1037.71,-74.9 1027.34,-72.77 1028.27,-79.7"/>
</a>
</g>
</g>
<!-- Node13&#45;&gt;Node11 -->
<g id="edge15_Node000013_Node000011" class="edge">
<title>Node13&#45;&gt;Node11</title>
<g id="a_edge15_Node000013_Node000011"><a xlink:title=" ">
<path fill="none" stroke="#63b8ff" d="M158.8,-55.53C200.45,-45.4 265.95,-29.47 306.28,-19.66"/>
<polygon fill="#63b8ff" stroke="#63b8ff" points="307.08,-23.07 315.96,-17.3 305.42,-16.27 307.08,-23.07"/>
</a>
</g>
</g>
<!-- Node14 -->
<g id="Node000014" class="node">
<title>Node14</title>
<g id="a_Node000014"><a xlink:title=" ">
<polygon fill="#e0e0e0" stroke="#999999" points="151.62,-20 98.12,-20 98.12,0 151.62,0 151.62,-20"/>
<text text-anchor="middle" x="124.88" y="-6.5" font-family="Helvetica,sans-Serif" font-size="10.00">iostream</text>
</a>
</g>
</g>
<!-- Node13&#45;&gt;Node14 -->
<g id="edge16_Node000013_Node000014" class="edge">
<title>Node13&#45;&gt;Node14</title>
<g id="a_edge16_Node000013_Node000014"><a xlink:title=" ">
<path fill="none" stroke="#63b8ff" d="M120.75,-55.59C121.36,-49.01 122.19,-39.96 122.96,-31.73"/>
<polygon fill="#63b8ff" stroke="#63b8ff" points="126.44,-32.09 123.87,-21.81 119.47,-31.44 126.44,-32.09"/>
</a>
</g>
</g>
<!-- Node13&#45;&gt;Node15 -->
<g id="edge17_Node000013_Node000015" class="edge">
<title>Node13&#45;&gt;Node15</title>
<g id="a_edge17_Node000013_Node000015"><a xlink:title=" ">
<path fill="none" stroke="#63b8ff" d="M105.94,-55.59C94.2,-47.67 77.14,-36.16 63.31,-26.82"/>
<polygon fill="#63b8ff" stroke="#63b8ff" points="65.42,-24.02 55.17,-21.33 61.5,-29.82 65.42,-24.02"/>
</a>
</g>
</g>
<!-- Node20&#45;&gt;Node3 -->
<g id="edge27_Node000020_Node000003" class="edge">
<title>Node20&#45;&gt;Node3</title>
<g id="a_edge27_Node000020_Node000003"><a xlink:title=" ">
<path fill="none" stroke="#63b8ff" d="M1223.22,-111.67C1223.19,-97.18 1220.77,-69.51 1203.88,-56 1150.1,-12.99 653.11,-10.74 522.3,-10.9"/>
<polygon fill="#63b8ff" stroke="#63b8ff" points="522.65,-7.39 512.66,-10.91 522.67,-14.39 522.65,-7.39"/>
</a>
</g>
</g>
<!-- Node20&#45;&gt;Node10 -->
<g id="edge30_Node000020_Node000010" class="edge">
<title>Node20&#45;&gt;Node10</title>
<g id="a_edge30_Node000020_Node000010"><a xlink:title=" ">
<path fill="none" stroke="#63b8ff" d="M1212.08,-111.59C1203.27,-103.93 1190.62,-92.91 1180.1,-83.75"/>
<polygon fill="#63b8ff" stroke="#63b8ff" points="1182.53,-81.22 1172.69,-77.29 1177.93,-86.5 1182.53,-81.22"/>
</a>
</g>
</g>
<!-- Node20&#45;&gt;Node16 -->
<g id="edge28_Node000020_Node000016" class="edge">
<title>Node20&#45;&gt;Node16</title>
<g id="a_edge28_Node000020_Node000016"><a xlink:title=" ">
<path fill="none" stroke="#63b8ff" d="M1201.53,-113.26C1177.87,-104.69 1139.3,-90.71 1110.73,-80.36"/>
<polygon fill="#63b8ff" stroke="#63b8ff" points="1111.96,-77.08 1101.37,-76.96 1109.58,-83.66 1111.96,-77.08"/>
</a>
</g>
</g>
<!-- Node21 -->
<g id="Node000021" class="node">
<title>Node21</title>
<g id="a_Node000021"><a xlink:title=" ">
<polygon fill="#e0e0e0" stroke="#999999" points="1406.5,-20 1361.25,-20 1361.25,0 1406.5,0 1406.5,-20"/>
<text text-anchor="middle" x="1383.88" y="-6.5" font-family="Helvetica,sans-Serif" font-size="10.00">stdio.h</text>
</a>
</g>
</g>
<!-- Node20&#45;&gt;Node21 -->
<g id="edge26_Node000020_Node000021" class="edge">
<title>Node20&#45;&gt;Node21</title>
<g id="a_edge26_Node000020_Node000021"><a xlink:title=" ">
<path fill="none" stroke="#63b8ff" d="M1244.46,-114.35C1247.28,-113.54 1250.14,-112.73 1252.88,-112 1320.36,-93.96 1362.5,-130.76 1405.88,-76 1416.59,-62.47 1408.14,-43.44 1398.78,-29.47"/>
<polygon fill="#63b8ff" stroke="#63b8ff" points="1401.7,-27.54 1392.96,-21.56 1396.06,-31.69 1401.7,-27.54"/>
</a>
</g>
</g>
<!-- Node22 -->
<g id="Node000022" class="node">
<title>Node22</title>
<g id="a_Node000022"><a xlink:title=" ">
<polygon fill="#e0e0e0" stroke="#999999" points="1396.62,-76 1313.12,-76 1313.12,-56 1396.62,-56 1396.62,-76"/>
<text text-anchor="middle" x="1354.88" y="-62.5" font-family="Helvetica,sans-Serif" font-size="10.00">hardware/uart.h</text>
</a>
</g>
</g>
<!-- Node20&#45;&gt;Node22 -->
<g id="edge29_Node000020_Node000022" class="edge">
<title>Node20&#45;&gt;Node22</title>
<g id="a_edge29_Node000020_Node000022"><a xlink:title=" ">
<path fill="none" stroke="#63b8ff" d="M1244.38,-112.2C1265.28,-103.65 1297.34,-90.54 1321.55,-80.63"/>
<polygon fill="#63b8ff" stroke="#63b8ff" points="1322.72,-83.94 1330.65,-76.91 1320.07,-77.46 1322.72,-83.94"/>
</a>
</g>
</g>
<!-- Node25&#45;&gt;Node10 -->
<g id="edge43_Node000025_Node000010" class="edge">
<title>Node25&#45;&gt;Node10</title>
<g id="a_edge43_Node000025_Node000010"><a xlink:title=" ">
<path fill="none" stroke="#63b8ff" d="M1102.24,-111.59C1112.52,-103.77 1127.39,-92.46 1139.59,-83.19"/>
<polygon fill="#63b8ff" stroke="#63b8ff" points="1141.6,-86.05 1147.44,-77.21 1137.37,-80.48 1141.6,-86.05"/>
</a>
</g>
</g>
<!-- Node25&#45;&gt;Node16 -->
<g id="edge34_Node000025_Node000016" class="edge">
<title>Node25&#45;&gt;Node16</title>
<g id="a_edge34_Node000025_Node000016"><a xlink:title=" ">
<path fill="none" stroke="#63b8ff" d="M1087.09,-111.59C1085.09,-104.86 1082.33,-95.53 1079.85,-87.15"/>
<polygon fill="#63b8ff" stroke="#63b8ff" points="1083.26,-86.34 1077.06,-77.75 1076.55,-88.33 1083.26,-86.34"/>
</a>
</g>
</g>
<!-- Node26 -->
<g id="Node000026" class="node">
<title>Node26</title>
<g id="a_Node000026"><a xlink:title=" ">
<polygon fill="#e0e0e0" stroke="#999999" points="918.12,-76 825.62,-76 825.62,-56 918.12,-56 918.12,-76"/>
<text text-anchor="middle" x="871.88" y="-62.5" font-family="Helvetica,sans-Serif" font-size="10.00">pico/binary_info.h</text>
</a>
</g>
</g>
<!-- Node25&#45;&gt;Node26 -->
<g id="edge35_Node000025_Node000026" class="edge">
<title>Node25&#45;&gt;Node26</title>
<g id="a_edge35_Node000025_Node000026"><a xlink:title=" ">
<path fill="none" stroke="#63b8ff" d="M1051.65,-111.53C1015.34,-102.54 960.57,-88.97 921.03,-79.18"/>
<polygon fill="#63b8ff" stroke="#63b8ff" points="922.07,-75.83 911.52,-76.82 920.39,-82.62 922.07,-75.83"/>
</a>
</g>
</g>
<!-- Node27 -->
<g id="Node000027" class="node">
<title>Node27</title>
<g id="a_Node000027"><a xlink:title=" ">
<polygon fill="#e0e0e0" stroke="#999999" points="1021.38,-76 936.38,-76 936.38,-56 1021.38,-56 1021.38,-76"/>
<text text-anchor="middle" x="978.88" y="-62.5" font-family="Helvetica,sans-Serif" font-size="10.00">hardware/gpio.h</text>
</a>
</g>
</g>
<!-- Node25&#45;&gt;Node27 -->
<g id="edge36_Node000025_Node000027" class="edge">
<title>Node25&#45;&gt;Node27</title>
<g id="a_edge36_Node000025_Node000027"><a xlink:title=" ">
<path fill="none" stroke="#63b8ff" d="M1070.54,-111.59C1053.46,-103.28 1028.27,-91.03 1008.62,-81.47"/>
<polygon fill="#63b8ff" stroke="#63b8ff" points="1010.25,-78.37 999.72,-77.14 1007.18,-84.66 1010.25,-78.37"/>
</a>
</g>
</g>
<!-- Node28 -->
<g id="Node000028" class="node">
<title>Node28</title>
<g id="a_Node000028"><a xlink:title=" ">
<polygon fill="#e0e0e0" stroke="#999999" points="741.75,-76 662,-76 662,-56 741.75,-56 741.75,-76"/>
<text text-anchor="middle" x="701.88" y="-62.5" font-family="Helvetica,sans-Serif" font-size="10.00">hardware/spi.h</text>
</a>
</g>
</g>
<!-- Node25&#45;&gt;Node28 -->
<g id="edge37_Node000025_Node000028" class="edge">
<title>Node25&#45;&gt;Node28</title>
<g id="a_edge37_Node000025_Node000028"><a xlink:title=" ">
<path fill="none" stroke="#63b8ff" d="M1033.45,-113.67C951.61,-103.01 804.85,-83.81 753.57,-76.29"/>
<polygon fill="#63b8ff" stroke="#63b8ff" points="754.13,-72.84 743.72,-74.8 753.08,-79.76 754.13,-72.84"/>
</a>
</g>
</g>
<!-- Node29 -->
<g id="Node000029" class="node">
<title>Node29</title>
<g id="a_Node000029"><a xlink:title=" ">
<polygon fill="#e0e0e0" stroke="#999999" points="808,-76 759.75,-76 759.75,-56 808,-56 808,-76"/>
<text text-anchor="middle" x="783.88" y="-62.5" font-family="Helvetica,sans-Serif" font-size="10.00">string.h</text>
</a>
</g>
</g>
<!-- Node25&#45;&gt;Node29 -->
<g id="edge38_Node000025_Node000029" class="edge">
<title>Node25&#45;&gt;Node29</title>
<g id="a_edge38_Node000025_Node000029"><a xlink:title=" ">
<path fill="none" stroke="#63b8ff" d="M1033.61,-113.45C980.68,-105.96 899.01,-93.42 819.51,-76.4"/>
<polygon fill="#63b8ff" stroke="#63b8ff" points="820.31,-72.99 809.79,-74.29 818.82,-79.83 820.31,-72.99"/>
</a>
</g>
</g>
<!-- Node30 -->
<g id="Node000030" class="node">
<title>Node30</title>
<g id="a_Node000030"><a xlink:href="_print_8h.html" target="_top" xlink:title=" ">
<polygon fill="white" stroke="#666666" points="1295.12,-76 1250.62,-76 1250.62,-56 1295.12,-56 1295.12,-76"/>
<text text-anchor="middle" x="1272.88" y="-62.5" font-family="Helvetica,sans-Serif" font-size="10.00">Print.h</text>
</a>
</g>
</g>
<!-- Node25&#45;&gt;Node30 -->
<g id="edge39_Node000025_Node000030" class="edge">
<title>Node25&#45;&gt;Node30</title>
<g id="a_edge39_Node000025_Node000030"><a xlink:title=" ">
<path fill="none" stroke="#63b8ff" d="M1121.75,-111.59C1154.78,-101.85 1206.17,-86.68 1239.68,-76.8"/>
<polygon fill="#63b8ff" stroke="#63b8ff" points="1240.25,-80.28 1248.85,-74.09 1238.27,-73.56 1240.25,-80.28"/>
</a>
</g>
</g>
<!-- Node30&#45;&gt;Node3 -->
<g id="edge42_Node000030_Node000003" class="edge">
<title>Node30&#45;&gt;Node3</title>
<g id="a_edge42_Node000030_Node000003"><a xlink:title=" ">
<path fill="none" stroke="#63b8ff" d="M1250.15,-58.65C1245.77,-57.61 1241.2,-56.67 1236.88,-56 962.68,-13.83 626.13,-10.71 522.64,-10.83"/>
<polygon fill="#63b8ff" stroke="#63b8ff" points="522.7,-7.33 512.71,-10.85 522.72,-14.33 522.7,-7.33"/>
</a>
</g>
</g>
<!-- Node30&#45;&gt;Node21 -->
<g id="edge41_Node000030_Node000021" class="edge">
<title>Node30&#45;&gt;Node21</title>
<g id="a_edge41_Node000030_Node000021"><a xlink:title=" ">
<path fill="none" stroke="#63b8ff" d="M1292.21,-55.59C1309.29,-47.28 1334.48,-35.03 1354.13,-25.47"/>
<polygon fill="#63b8ff" stroke="#63b8ff" points="1355.57,-28.66 1363.03,-21.14 1352.5,-22.37 1355.57,-28.66"/>
</a>
</g>
</g>
<!-- Node31 -->
<g id="Node000031" class="node">
<title>Node31</title>
<g id="a_Node000031"><a xlink:title=" ">
<polygon fill="#e0e0e0" stroke="#999999" points="1302.25,-20 1243.5,-20 1243.5,0 1302.25,0 1302.25,-20"/>
<text text-anchor="middle" x="1272.88" y="-6.5" font-family="Helvetica,sans-Serif" font-size="10.00">inttypes.h</text>
</a>
</g>
</g>
<!-- Node30&#45;&gt;Node31 -->
<g id="edge40_Node000030_Node000031" class="edge">
<title>Node30&#45;&gt;Node31</title>
<g id="a_edge40_Node000030_Node000031"><a xlink:title=" ">
<path fill="none" stroke="#63b8ff" d="M1272.88,-55.59C1272.88,-49.01 1272.88,-39.96 1272.88,-31.73"/>
<polygon fill="#63b8ff" stroke="#63b8ff" points="1276.38,-31.81 1272.88,-21.81 1269.38,-31.81 1276.38,-31.81"/>
</a>
</g>
</g>
<!-- Node32&#45;&gt;Node3 -->
<g id="edge47_Node000032_Node000003" class="edge">
<title>Node32&#45;&gt;Node3</title>
<g id="a_edge47_Node000032_Node000003"><a xlink:title=" ">
<path fill="none" stroke="#63b8ff" d="M323.57,-167.92C310.33,-155.13 290.36,-131.2 301.88,-112 336.2,-54.73 415.28,-28.12 459.5,-17.33"/>
<polygon fill="#63b8ff" stroke="#63b8ff" points="460.03,-20.8 468.99,-15.14 458.46,-13.98 460.03,-20.8"/>
</a>
</g>
</g>
<!-- Node32&#45;&gt;Node8 -->
<g id="edge46_Node000032_Node000008" class="edge">
<title>Node32&#45;&gt;Node8</title>
<g id="a_edge46_Node000032_Node000008"><a xlink:title=" ">
<path fill="none" stroke="#63b8ff" d="M333.88,-167.59C333.88,-161.01 333.88,-151.96 333.88,-143.73"/>
<polygon fill="#63b8ff" stroke="#63b8ff" points="337.38,-143.81 333.88,-133.81 330.38,-143.81 337.38,-143.81"/>
</a>
</g>
</g>
<!-- Node32&#45;&gt;Node12 -->
<g id="edge45_Node000032_Node000012" class="edge">
<title>Node32&#45;&gt;Node12</title>
<g id="a_edge45_Node000032_Node000012"><a xlink:title=" ">
<path fill="none" stroke="#63b8ff" d="M348.68,-167.59C361.28,-159.59 379.63,-147.93 394.41,-138.54"/>
<polygon fill="#63b8ff" stroke="#63b8ff" points="396.11,-141.61 402.68,-133.29 392.36,-135.7 396.11,-141.61"/>
</a>
</g>
</g>
<!-- Node33 -->
<g id="Node000033" class="node">
<title>Node33</title>
<g id="a_Node000033"><a xlink:title=" ">
<polygon fill="#e0e0e0" stroke="#999999" points="255,-132 182.75,-132 182.75,-112 255,-112 255,-132"/>
<text text-anchor="middle" x="218.88" y="-118.5" font-family="Helvetica,sans-Serif" font-size="10.00">pico/mutex.h</text>
</a>
</g>
</g>
<!-- Node32&#45;&gt;Node33 -->
<g id="edge48_Node000032_Node000033" class="edge">
<title>Node32&#45;&gt;Node33</title>
<g id="a_edge48_Node000032_Node000033"><a xlink:title=" ">
<path fill="none" stroke="#63b8ff" d="M313.84,-167.59C296.06,-159.24 269.81,-146.92 249.41,-137.34"/>
<polygon fill="#63b8ff" stroke="#63b8ff" points="250.97,-134.21 240.43,-133.12 248,-140.54 250.97,-134.21"/>
</a>
</g>
</g>
</g>
</svg>
