<?xml version="1.0" encoding="UTF-8" standalone="no"?>
<!DOCTYPE svg PUBLIC "-//W3C//DTD SVG 1.1//EN"
 "http://www.w3.org/Graphics/SVG/1.1/DTD/svg11.dtd">
<!-- Generated by graphviz version 12.2.1 (20241206.2353)
 -->
<!-- Title: lib/comms/commands/commands.h Pages: 1 -->
<svg width="1262pt" height="264pt"
 viewBox="0.00 0.00 1262.10 264.00" xmlns="http://www.w3.org/2000/svg" xmlns:xlink="http://www.w3.org/1999/xlink">
<g id="graph0" class="graph" transform="scale(1 1) rotate(0) translate(4 260)">
<title>lib/comms/commands/commands.h</title>
<!-- Node1 -->
<g id="Node000001" class="node">
<title>Node1</title>
<g id="a_Node000001"><a xlink:title=" ">
<polygon fill="#999999" stroke="#666666" points="402.5,-256 290.5,-256 290.5,-224 402.5,-224 402.5,-256"/>
<text text-anchor="start" x="298.5" y="-242.5" font-family="Helvetica,sans-Serif" font-size="10.00">lib/comms/commands</text>
<text text-anchor="middle" x="346.5" y="-230.5" font-family="Helvetica,sans-Serif" font-size="10.00">/commands.h</text>
</a>
</g>
</g>
<!-- Node2 -->
<g id="Node000002" class="node">
<title>Node2</title>
<g id="a_Node000002"><a xlink:title=" ">
<polygon fill="#e0e0e0" stroke="#999999" points="770.5,-20 730.5,-20 730.5,0 770.5,0 770.5,-20"/>
<text text-anchor="middle" x="750.5" y="-6.5" font-family="Helvetica,sans-Serif" font-size="10.00">string</text>
</a>
</g>
</g>
<!-- Node1&#45;&gt;Node2 -->
<g id="edge1_Node000001_Node000002" class="edge">
<title>Node1&#45;&gt;Node2</title>
<g id="a_edge1_Node000001_Node000002"><a xlink:title=" ">
<path fill="none" stroke="#63b8ff" d="M402.91,-238.15C583.81,-234.1 1143.64,-210.7 1247.5,-76 1309.84,4.85 892.48,-35 791.5,-20 788.43,-19.54 785.24,-18.99 782.07,-18.38"/>
<polygon fill="#63b8ff" stroke="#63b8ff" points="782.82,-14.97 772.31,-16.35 781.39,-21.82 782.82,-14.97"/>
</a>
</g>
</g>
<!-- Node3 -->
<g id="Node000003" class="node">
<title>Node3</title>
<g id="a_Node000003"><a xlink:title=" ">
<polygon fill="#e0e0e0" stroke="#999999" points="71.5,-132 13.5,-132 13.5,-112 71.5,-112 71.5,-132"/>
<text text-anchor="middle" x="42.5" y="-118.5" font-family="Helvetica,sans-Serif" font-size="10.00">functional</text>
</a>
</g>
</g>
<!-- Node1&#45;&gt;Node3 -->
<g id="edge2_Node000001_Node000003" class="edge">
<title>Node1&#45;&gt;Node3</title>
<g id="a_edge2_Node000001_Node000003"><a xlink:title=" ">
<path fill="none" stroke="#63b8ff" d="M306.13,-223.6C246.17,-200.72 134.55,-158.13 77.72,-136.44"/>
<polygon fill="#63b8ff" stroke="#63b8ff" points="79.12,-133.23 68.53,-132.93 76.62,-139.77 79.12,-133.23"/>
</a>
</g>
</g>
<!-- Node4 -->
<g id="Node000004" class="node">
<title>Node4</title>
<g id="a_Node000004"><a xlink:title=" ">
<polygon fill="#e0e0e0" stroke="#999999" points="102.87,-76 68.12,-76 68.12,-56 102.87,-56 102.87,-76"/>
<text text-anchor="middle" x="85.5" y="-62.5" font-family="Helvetica,sans-Serif" font-size="10.00">map</text>
</a>
</g>
</g>
<!-- Node1&#45;&gt;Node4 -->
<g id="edge3_Node000001_Node000004" class="edge">
<title>Node1&#45;&gt;Node4</title>
<g id="a_edge3_Node000001_Node000004"><a xlink:title=" ">
<path fill="none" stroke="#63b8ff" d="M290.2,-229.78C201.99,-214.03 37.8,-179.03 4.5,-132 -12.96,-107.34 27.15,-87.11 56.94,-76.08"/>
<polygon fill="#63b8ff" stroke="#63b8ff" points="58,-79.42 66.28,-72.81 55.69,-72.81 58,-79.42"/>
</a>
</g>
</g>
<!-- Node5 -->
<g id="Node000005" class="node">
<title>Node5</title>
<g id="a_Node000005"><a xlink:href="protocol_8h.html" target="_top" xlink:title=" ">
<polygon fill="white" stroke="#666666" points="485.87,-188 427.12,-188 427.12,-168 485.87,-168 485.87,-188"/>
<text text-anchor="middle" x="456.5" y="-174.5" font-family="Helvetica,sans-Serif" font-size="10.00">protocol.h</text>
</a>
</g>
</g>
<!-- Node1&#45;&gt;Node5 -->
<g id="edge4_Node000001_Node000005" class="edge">
<title>Node1&#45;&gt;Node5</title>
<g id="a_edge4_Node000001_Node000005"><a xlink:title=" ">
<path fill="none" stroke="#63b8ff" d="M374.83,-223.55C391.69,-214.35 412.98,-202.74 429.59,-193.68"/>
<polygon fill="#63b8ff" stroke="#63b8ff" points="430.82,-196.99 437.92,-189.13 427.47,-190.85 430.82,-196.99"/>
</a>
</g>
</g>
<!-- Node5&#45;&gt;Node2 -->
<g id="edge5_Node000005_Node000002" class="edge">
<title>Node5&#45;&gt;Node2</title>
<g id="a_edge5_Node000005_Node000002"><a xlink:title=" ">
<path fill="none" stroke="#63b8ff" d="M486.18,-176.5C550.67,-174.77 700.52,-166.98 734.5,-132 760.37,-105.36 758.32,-58.49 754.45,-31.57"/>
<polygon fill="#63b8ff" stroke="#63b8ff" points="757.94,-31.22 752.83,-21.94 751.04,-32.38 757.94,-31.22"/>
</a>
</g>
</g>
<!-- Node5&#45;&gt;Node3 -->
<g id="edge7_Node000005_Node000003" class="edge">
<title>Node5&#45;&gt;Node3</title>
<g id="a_edge7_Node000005_Node000003"><a xlink:title=" ">
<path fill="none" stroke="#63b8ff" d="M427.04,-174.29C364.1,-168.32 211.93,-152.86 85.5,-132 84.51,-131.84 83.51,-131.67 82.5,-131.49"/>
<polygon fill="#63b8ff" stroke="#63b8ff" points="83.54,-128.13 73.07,-129.72 82.25,-135 83.54,-128.13"/>
</a>
</g>
</g>
<!-- Node5&#45;&gt;Node4 -->
<g id="edge6_Node000005_Node000004" class="edge">
<title>Node5&#45;&gt;Node4</title>
<g id="a_edge6_Node000005_Node000004"><a xlink:title=" ">
<path fill="none" stroke="#63b8ff" d="M426.69,-176.51C353.6,-174.78 167.82,-166.96 118.5,-132 103.51,-121.37 94.91,-101.89 90.27,-87.02"/>
<polygon fill="#63b8ff" stroke="#63b8ff" points="93.76,-86.52 87.75,-77.8 87.01,-88.37 93.76,-86.52"/>
</a>
</g>
</g>
<!-- Node6 -->
<g id="Node000006" class="node">
<title>Node6</title>
<g id="a_Node000006"><a xlink:title=" ">
<polygon fill="#e0e0e0" stroke="#999999" points="725,-132 682,-132 682,-112 725,-112 725,-132"/>
<text text-anchor="middle" x="703.5" y="-118.5" font-family="Helvetica,sans-Serif" font-size="10.00">vector</text>
</a>
</g>
</g>
<!-- Node5&#45;&gt;Node6 -->
<g id="edge8_Node000005_Node000006" class="edge">
<title>Node5&#45;&gt;Node6</title>
<g id="a_edge8_Node000005_Node000006"><a xlink:title=" ">
<path fill="none" stroke="#63b8ff" d="M486.36,-171.53C526.15,-164.09 598.96,-149.9 670.53,-132.33"/>
<polygon fill="#63b8ff" stroke="#63b8ff" points="671.21,-135.77 680.07,-129.97 669.52,-128.98 671.21,-135.77"/>
</a>
</g>
</g>
<!-- Node7 -->
<g id="Node000007" class="node">
<title>Node7</title>
<g id="a_Node000007"><a xlink:title=" ">
<polygon fill="#e0e0e0" stroke="#999999" points="827.12,-132 781.87,-132 781.87,-112 827.12,-112 827.12,-132"/>
<text text-anchor="middle" x="804.5" y="-118.5" font-family="Helvetica,sans-Serif" font-size="10.00">cstdint</text>
</a>
</g>
</g>
<!-- Node5&#45;&gt;Node7 -->
<g id="edge9_Node000005_Node000007" class="edge">
<title>Node5&#45;&gt;Node7</title>
<g id="a_edge9_Node000005_Node000007"><a xlink:title=" ">
<path fill="none" stroke="#63b8ff" d="M486.24,-173.65C541.78,-167.18 664.93,-151.85 767.5,-132 768.49,-131.81 769.5,-131.61 770.51,-131.4"/>
<polygon fill="#63b8ff" stroke="#63b8ff" points="771,-134.87 780,-129.29 769.48,-128.04 771,-134.87"/>
</a>
</g>
</g>
<!-- Node8 -->
<g id="Node000008" class="node">
<title>Node8</title>
<g id="a_Node000008"><a xlink:title=" ">
<polygon fill="#e0e0e0" stroke="#999999" points="895.37,-132 845.62,-132 845.62,-112 895.37,-112 895.37,-132"/>
<text text-anchor="middle" x="870.5" y="-118.5" font-family="Helvetica,sans-Serif" font-size="10.00">iomanip</text>
</a>
</g>
</g>
<!-- Node5&#45;&gt;Node8 -->
<g id="edge10_Node000005_Node000008" class="edge">
<title>Node5&#45;&gt;Node8</title>
<g id="a_edge10_Node000005_Node000008"><a xlink:title=" ">
<path fill="none" stroke="#63b8ff" d="M486.28,-174.91C548.93,-170.2 699.09,-157.33 834.38,-132.16"/>
<polygon fill="#63b8ff" stroke="#63b8ff" points="834.67,-135.66 843.85,-130.36 833.37,-128.78 834.67,-135.66"/>
</a>
</g>
</g>
<!-- Node9 -->
<g id="Node000009" class="node">
<title>Node9</title>
<g id="a_Node000009"><a xlink:href="pin__config_8h.html" target="_top" xlink:title=" ">
<polygon fill="white" stroke="#666666" points="582.75,-76 514.25,-76 514.25,-56 582.75,-56 582.75,-76"/>
<text text-anchor="middle" x="548.5" y="-62.5" font-family="Helvetica,sans-Serif" font-size="10.00">pin_config.h</text>
</a>
</g>
</g>
<!-- Node5&#45;&gt;Node9 -->
<g id="edge11_Node000005_Node000009" class="edge">
<title>Node5&#45;&gt;Node9</title>
<g id="a_edge11_Node000005_Node000009"><a xlink:title=" ">
<path fill="none" stroke="#63b8ff" d="M452.54,-167.76C447.46,-154.33 440.53,-129.17 451.5,-112 462.99,-94 483.75,-83.09 503.12,-76.53"/>
<polygon fill="#63b8ff" stroke="#63b8ff" points="503.98,-79.93 512.53,-73.67 501.94,-73.23 503.98,-79.93"/>
</a>
</g>
</g>
<!-- Node11 -->
<g id="Node000011" class="node">
<title>Node11</title>
<g id="a_Node000011"><a xlink:href="_power_manager_8h.html" target="_top" xlink:title=" ">
<polygon fill="white" stroke="#666666" points="217.25,-132 127.75,-132 127.75,-112 217.25,-112 217.25,-132"/>
<text text-anchor="middle" x="172.5" y="-118.5" font-family="Helvetica,sans-Serif" font-size="10.00">PowerManager.h</text>
</a>
</g>
</g>
<!-- Node5&#45;&gt;Node11 -->
<g id="edge13_Node000005_Node000011" class="edge">
<title>Node5&#45;&gt;Node11</title>
<g id="a_edge13_Node000005_Node000011"><a xlink:title=" ">
<path fill="none" stroke="#63b8ff" d="M426.64,-171.32C379.75,-162.41 288.06,-144.97 228.58,-133.66"/>
<polygon fill="#63b8ff" stroke="#63b8ff" points="229.47,-130.27 218.99,-131.84 228.16,-137.15 229.47,-130.27"/>
</a>
</g>
</g>
<!-- Node17 -->
<g id="Node000017" class="node">
<title>Node17</title>
<g id="a_Node000017"><a xlink:title=" ">
<polygon fill="#e0e0e0" stroke="#999999" points="277.62,-132 235.37,-132 235.37,-112 277.62,-112 277.62,-132"/>
<text text-anchor="middle" x="256.5" y="-118.5" font-family="Helvetica,sans-Serif" font-size="10.00">cstdio</text>
</a>
</g>
</g>
<!-- Node5&#45;&gt;Node17 -->
<g id="edge23_Node000005_Node000017" class="edge">
<title>Node5&#45;&gt;Node17</title>
<g id="a_edge23_Node000005_Node000017"><a xlink:title=" ">
<path fill="none" stroke="#63b8ff" d="M426.63,-169.41C394.81,-161.25 342.7,-147.7 289.18,-132.69"/>
<polygon fill="#63b8ff" stroke="#63b8ff" points="290.13,-129.33 279.56,-129.98 288.24,-136.07 290.13,-129.33"/>
</a>
</g>
</g>
<!-- Node18 -->
<g id="Node000018" class="node">
<title>Node18</title>
<g id="a_Node000018"><a xlink:title=" ">
<polygon fill="#e0e0e0" stroke="#999999" points="339.75,-132 295.25,-132 295.25,-112 339.75,-112 339.75,-132"/>
<text text-anchor="middle" x="317.5" y="-118.5" font-family="Helvetica,sans-Serif" font-size="10.00">cstdlib</text>
</a>
</g>
</g>
<!-- Node5&#45;&gt;Node18 -->
<g id="edge24_Node000005_Node000018" class="edge">
<title>Node5&#45;&gt;Node18</title>
<g id="a_edge24_Node000005_Node000018"><a xlink:title=" ">
<path fill="none" stroke="#63b8ff" d="M432.29,-167.59C409.66,-158.8 375.68,-145.6 350.56,-135.84"/>
<polygon fill="#63b8ff" stroke="#63b8ff" points="352.05,-132.67 341.46,-132.31 349.52,-139.19 352.05,-132.67"/>
</a>
</g>
</g>
<!-- Node19 -->
<g id="Node000019" class="node">
<title>Node19</title>
<g id="a_Node000019"><a xlink:title=" ">
<polygon fill="#e0e0e0" stroke="#999999" points="403.12,-132 357.87,-132 357.87,-112 403.12,-112 403.12,-132"/>
<text text-anchor="middle" x="380.5" y="-118.5" font-family="Helvetica,sans-Serif" font-size="10.00">cstring</text>
</a>
</g>
</g>
<!-- Node5&#45;&gt;Node19 -->
<g id="edge25_Node000005_Node000019" class="edge">
<title>Node5&#45;&gt;Node19</title>
<g id="a_edge25_Node000005_Node000019"><a xlink:title=" ">
<path fill="none" stroke="#63b8ff" d="M443.26,-167.59C432.21,-159.74 416.22,-148.38 403.14,-139.09"/>
<polygon fill="#63b8ff" stroke="#63b8ff" points="405.25,-136.3 395.07,-133.36 401.2,-142 405.25,-136.3"/>
</a>
</g>
</g>
<!-- Node20 -->
<g id="Node000020" class="node">
<title>Node20</title>
<g id="a_Node000020"><a xlink:href="utils_8h.html" target="_top" xlink:title=" ">
<polygon fill="white" stroke="#666666" points="663.62,-132 621.37,-132 621.37,-112 663.62,-112 663.62,-132"/>
<text text-anchor="middle" x="642.5" y="-118.5" font-family="Helvetica,sans-Serif" font-size="10.00">utils.h</text>
</a>
</g>
</g>
<!-- Node5&#45;&gt;Node20 -->
<g id="edge26_Node000005_Node000020" class="edge">
<title>Node5&#45;&gt;Node20</title>
<g id="a_edge26_Node000005_Node000020"><a xlink:title=" ">
<path fill="none" stroke="#63b8ff" d="M486.14,-168.55C515.33,-160.21 561.48,-146.96 609.87,-132.75"/>
<polygon fill="#63b8ff" stroke="#63b8ff" points="610.82,-136.12 619.42,-129.94 608.84,-129.41 610.82,-136.12"/>
</a>
</g>
</g>
<!-- Node23 -->
<g id="Node000023" class="node">
<title>Node23</title>
<g id="a_Node000023"><a xlink:title=" ">
<polygon fill="#e0e0e0" stroke="#999999" points="503,-132 460,-132 460,-112 503,-112 503,-132"/>
<text text-anchor="middle" x="481.5" y="-118.5" font-family="Helvetica,sans-Serif" font-size="10.00">time.h</text>
</a>
</g>
</g>
<!-- Node5&#45;&gt;Node23 -->
<g id="edge32_Node000005_Node000023" class="edge">
<title>Node5&#45;&gt;Node23</title>
<g id="a_edge32_Node000005_Node000023"><a xlink:title=" ">
<path fill="none" stroke="#63b8ff" d="M460.85,-167.59C464.04,-160.7 468.49,-151.1 472.44,-142.57"/>
<polygon fill="#63b8ff" stroke="#63b8ff" points="475.53,-144.22 476.56,-133.67 469.18,-141.28 475.53,-144.22"/>
</a>
</g>
</g>
<!-- Node24 -->
<g id="Node000024" class="node">
<title>Node24</title>
<g id="a_Node000024"><a xlink:href="build__number_8h.html" target="_top" xlink:title=" ">
<polygon fill="white" stroke="#666666" points="603.5,-132 521.5,-132 521.5,-112 603.5,-112 603.5,-132"/>
<text text-anchor="middle" x="562.5" y="-118.5" font-family="Helvetica,sans-Serif" font-size="10.00">build_number.h</text>
</a>
</g>
</g>
<!-- Node5&#45;&gt;Node24 -->
<g id="edge33_Node000005_Node000024" class="edge">
<title>Node5&#45;&gt;Node24</title>
<g id="a_edge33_Node000005_Node000024"><a xlink:title=" ">
<path fill="none" stroke="#63b8ff" d="M474.96,-167.59C491.2,-159.32 515.1,-147.14 533.83,-137.6"/>
<polygon fill="#63b8ff" stroke="#63b8ff" points="535.22,-140.82 542.54,-133.17 532.04,-134.59 535.22,-140.82"/>
</a>
</g>
</g>
<!-- Node25 -->
<g id="Node000025" class="node">
<title>Node25</title>
<g id="a_Node000025"><a xlink:href="_lo_ra-_r_p2040_8h.html" target="_top" xlink:title=" ">
<polygon fill="white" stroke="#666666" points="1025.5,-132 913.5,-132 913.5,-112 1025.5,-112 1025.5,-132"/>
<text text-anchor="middle" x="969.5" y="-118.5" font-family="Helvetica,sans-Serif" font-size="10.00">LoRa/LoRa&#45;RP2040.h</text>
</a>
</g>
</g>
<!-- Node5&#45;&gt;Node25 -->
<g id="edge34_Node000005_Node000025" class="edge">
<title>Node5&#45;&gt;Node25</title>
<g id="a_edge34_Node000005_Node000025"><a xlink:title=" ">
<path fill="none" stroke="#63b8ff" d="M486.16,-174.41C556.41,-168.19 738.69,-151.56 901.92,-132.27"/>
<polygon fill="#63b8ff" stroke="#63b8ff" points="902.12,-135.77 911.64,-131.11 901.3,-128.82 902.12,-135.77"/>
</a>
</g>
</g>
<!-- Node10 -->
<g id="Node000010" class="node">
<title>Node10</title>
<g id="a_Node000010"><a xlink:title=" ">
<polygon fill="#e0e0e0" stroke="#999999" points="489.62,-20 441.37,-20 441.37,0 489.62,0 489.62,-20"/>
<text text-anchor="middle" x="465.5" y="-6.5" font-family="Helvetica,sans-Serif" font-size="10.00">stdint.h</text>
</a>
</g>
</g>
<!-- Node9&#45;&gt;Node10 -->
<g id="edge12_Node000009_Node000010" class="edge">
<title>Node9&#45;&gt;Node10</title>
<g id="a_edge12_Node000009_Node000010"><a xlink:title=" ">
<path fill="none" stroke="#63b8ff" d="M534.04,-55.59C521.74,-47.59 503.82,-35.93 489.39,-26.54"/>
<polygon fill="#63b8ff" stroke="#63b8ff" points="491.63,-23.82 481.34,-21.3 487.81,-29.69 491.63,-23.82"/>
</a>
</g>
</g>
<!-- Node11&#45;&gt;Node2 -->
<g id="edge19_Node000011_Node000002" class="edge">
<title>Node11&#45;&gt;Node2</title>
<g id="a_edge19_Node000011_Node000002"><a xlink:title=" ">
<path fill="none" stroke="#63b8ff" d="M207.04,-111.62C269.72,-94.63 397.7,-60.14 418.5,-56 527.91,-34.22 659.72,-19.82 718.96,-13.96"/>
<polygon fill="#63b8ff" stroke="#63b8ff" points="719.02,-17.47 728.64,-13.02 718.34,-10.51 719.02,-17.47"/>
</a>
</g>
</g>
<!-- Node11&#45;&gt;Node4 -->
<g id="edge18_Node000011_Node000004" class="edge">
<title>Node11&#45;&gt;Node4</title>
<g id="a_edge18_Node000011_Node000004"><a xlink:title=" ">
<path fill="none" stroke="#63b8ff" d="M157.34,-111.59C144.45,-103.59 125.67,-91.93 110.54,-82.54"/>
<polygon fill="#63b8ff" stroke="#63b8ff" points="112.4,-79.58 102.06,-77.28 108.71,-85.53 112.4,-79.58"/>
</a>
</g>
</g>
<!-- Node12 -->
<g id="Node000012" class="node">
<title>Node12</title>
<g id="a_Node000012"><a xlink:href="_i_n_a3221_8h.html" target="_top" xlink:title=" ">
<polygon fill="white" stroke="#666666" points="224.37,-76 120.62,-76 120.62,-56 224.37,-56 224.37,-76"/>
<text text-anchor="middle" x="172.5" y="-62.5" font-family="Helvetica,sans-Serif" font-size="10.00">INA3221/INA3221.h</text>
</a>
</g>
</g>
<!-- Node11&#45;&gt;Node12 -->
<g id="edge14_Node000011_Node000012" class="edge">
<title>Node11&#45;&gt;Node12</title>
<g id="a_edge14_Node000011_Node000012"><a xlink:title=" ">
<path fill="none" stroke="#63b8ff" d="M172.5,-111.59C172.5,-105.01 172.5,-95.96 172.5,-87.73"/>
<polygon fill="#63b8ff" stroke="#63b8ff" points="176,-87.81 172.5,-77.81 169,-87.81 176,-87.81"/>
</a>
</g>
</g>
<!-- Node14 -->
<g id="Node000014" class="node">
<title>Node14</title>
<g id="a_Node000014"><a xlink:title=" ">
<polygon fill="#e0e0e0" stroke="#999999" points="340.37,-20 260.62,-20 260.62,0 340.37,0 340.37,-20"/>
<text text-anchor="middle" x="300.5" y="-6.5" font-family="Helvetica,sans-Serif" font-size="10.00">hardware/i2c.h</text>
</a>
</g>
</g>
<!-- Node11&#45;&gt;Node14 -->
<g id="edge20_Node000011_Node000014" class="edge">
<title>Node11&#45;&gt;Node14</title>
<g id="a_edge20_Node000011_Node000014"><a xlink:title=" ">
<path fill="none" stroke="#63b8ff" d="M217.4,-113.67C257.12,-106.16 310.7,-93.16 323.5,-76 333.86,-62.1 325.13,-43.12 315.6,-29.26"/>
<polygon fill="#63b8ff" stroke="#63b8ff" points="318.51,-27.3 309.69,-21.43 312.92,-31.52 318.51,-27.3"/>
</a>
</g>
</g>
<!-- Node15 -->
<g id="Node000015" class="node">
<title>Node15</title>
<g id="a_Node000015"><a xlink:title=" ">
<polygon fill="#e0e0e0" stroke="#999999" points="495.75,-76 427.25,-76 427.25,-56 495.75,-56 495.75,-76"/>
<text text-anchor="middle" x="461.5" y="-62.5" font-family="Helvetica,sans-Serif" font-size="10.00">pico/stdlib.h</text>
</a>
</g>
</g>
<!-- Node11&#45;&gt;Node15 -->
<g id="edge21_Node000011_Node000015" class="edge">
<title>Node11&#45;&gt;Node15</title>
<g id="a_edge21_Node000011_Node000015"><a xlink:title=" ">
<path fill="none" stroke="#63b8ff" d="M217.65,-112.56C271.75,-102.45 361.85,-85.62 416.07,-75.49"/>
<polygon fill="#63b8ff" stroke="#63b8ff" points="416.39,-78.99 425.58,-73.71 415.11,-72.11 416.39,-78.99"/>
</a>
</g>
</g>
<!-- Node16 -->
<g id="Node000016" class="node">
<title>Node16</title>
<g id="a_Node000016"><a xlink:title=" ">
<polygon fill="#e0e0e0" stroke="#999999" points="314.62,-76 242.37,-76 242.37,-56 314.62,-56 314.62,-76"/>
<text text-anchor="middle" x="278.5" y="-62.5" font-family="Helvetica,sans-Serif" font-size="10.00">pico/mutex.h</text>
</a>
</g>
</g>
<!-- Node11&#45;&gt;Node16 -->
<g id="edge22_Node000011_Node000016" class="edge">
<title>Node11&#45;&gt;Node16</title>
<g id="a_edge22_Node000011_Node000016"><a xlink:title=" ">
<path fill="none" stroke="#63b8ff" d="M190.96,-111.59C207.2,-103.32 231.1,-91.14 249.83,-81.6"/>
<polygon fill="#63b8ff" stroke="#63b8ff" points="251.22,-84.82 258.54,-77.17 248.04,-78.59 251.22,-84.82"/>
</a>
</g>
</g>
<!-- Node12&#45;&gt;Node10 -->
<g id="edge15_Node000012_Node000010" class="edge">
<title>Node12&#45;&gt;Node10</title>
<g id="a_edge15_Node000012_Node000010"><a xlink:title=" ">
<path fill="none" stroke="#63b8ff" d="M223.87,-55.53C282.95,-44.64 378.39,-27.05 429.86,-17.57"/>
<polygon fill="#63b8ff" stroke="#63b8ff" points="430.36,-21.03 439.56,-15.78 429.09,-14.15 430.36,-21.03"/>
</a>
</g>
</g>
<!-- Node13 -->
<g id="Node000013" class="node">
<title>Node13</title>
<g id="a_Node000013"><a xlink:title=" ">
<polygon fill="#e0e0e0" stroke="#999999" points="199.25,-20 145.75,-20 145.75,0 199.25,0 199.25,-20"/>
<text text-anchor="middle" x="172.5" y="-6.5" font-family="Helvetica,sans-Serif" font-size="10.00">iostream</text>
</a>
</g>
</g>
<!-- Node12&#45;&gt;Node13 -->
<g id="edge16_Node000012_Node000013" class="edge">
<title>Node12&#45;&gt;Node13</title>
<g id="a_edge16_Node000012_Node000013"><a xlink:title=" ">
<path fill="none" stroke="#63b8ff" d="M172.5,-55.59C172.5,-49.01 172.5,-39.96 172.5,-31.73"/>
<polygon fill="#63b8ff" stroke="#63b8ff" points="176,-31.81 172.5,-21.81 169,-31.81 176,-31.81"/>
</a>
</g>
</g>
<!-- Node12&#45;&gt;Node14 -->
<g id="edge17_Node000012_Node000014" class="edge">
<title>Node12&#45;&gt;Node14</title>
<g id="a_edge17_Node000012_Node000014"><a xlink:title=" ">
<path fill="none" stroke="#63b8ff" d="M194.79,-55.59C214.86,-47.13 244.62,-34.58 267.45,-24.94"/>
<polygon fill="#63b8ff" stroke="#63b8ff" points="268.78,-28.18 276.63,-21.07 266.06,-21.73 268.78,-28.18"/>
</a>
</g>
</g>
<!-- Node20&#45;&gt;Node2 -->
<g id="edge28_Node000020_Node000002" class="edge">
<title>Node20&#45;&gt;Node2</title>
<g id="a_edge28_Node000020_Node000002"><a xlink:title=" ">
<path fill="none" stroke="#63b8ff" d="M653.81,-111.74C664.4,-102.9 680.49,-89.05 693.5,-76 708.68,-60.78 724.71,-42.24 735.9,-28.86"/>
<polygon fill="#63b8ff" stroke="#63b8ff" points="738.46,-31.26 742.14,-21.32 733.06,-26.8 738.46,-31.26"/>
</a>
</g>
</g>
<!-- Node20&#45;&gt;Node9 -->
<g id="edge31_Node000020_Node000009" class="edge">
<title>Node20&#45;&gt;Node9</title>
<g id="a_edge31_Node000020_Node000009"><a xlink:title=" ">
<path fill="none" stroke="#63b8ff" d="M626.12,-111.59C611.92,-103.44 591.12,-91.48 574.62,-82"/>
<polygon fill="#63b8ff" stroke="#63b8ff" points="576.73,-79.18 566.31,-77.23 573.24,-85.25 576.73,-79.18"/>
</a>
</g>
</g>
<!-- Node20&#45;&gt;Node15 -->
<g id="edge29_Node000020_Node000015" class="edge">
<title>Node20&#45;&gt;Node15</title>
<g id="a_edge29_Node000020_Node000015"><a xlink:title=" ">
<path fill="none" stroke="#63b8ff" d="M621.19,-114.6C618.27,-113.73 615.31,-112.84 612.5,-112 576.01,-101.09 534.55,-88.74 504.32,-79.74"/>
<polygon fill="#63b8ff" stroke="#63b8ff" points="505.35,-76.39 494.77,-76.9 503.35,-83.1 505.35,-76.39"/>
</a>
</g>
</g>
<!-- Node21 -->
<g id="Node000021" class="node">
<title>Node21</title>
<g id="a_Node000021"><a xlink:title=" ">
<polygon fill="#e0e0e0" stroke="#999999" points="846.12,-20 800.87,-20 800.87,0 846.12,0 846.12,-20"/>
<text text-anchor="middle" x="823.5" y="-6.5" font-family="Helvetica,sans-Serif" font-size="10.00">stdio.h</text>
</a>
</g>
</g>
<!-- Node20&#45;&gt;Node21 -->
<g id="edge27_Node000020_Node000021" class="edge">
<title>Node20&#45;&gt;Node21</title>
<g id="a_edge27_Node000020_Node000021"><a xlink:title=" ">
<path fill="none" stroke="#63b8ff" d="M657.93,-111.62C689.19,-92.63 760.23,-49.45 798.3,-26.31"/>
<polygon fill="#63b8ff" stroke="#63b8ff" points="800.08,-29.33 806.81,-21.14 796.45,-23.34 800.08,-29.33"/>
</a>
</g>
</g>
<!-- Node22 -->
<g id="Node000022" class="node">
<title>Node22</title>
<g id="a_Node000022"><a xlink:title=" ">
<polygon fill="#e0e0e0" stroke="#999999" points="684.25,-76 600.75,-76 600.75,-56 684.25,-56 684.25,-76"/>
<text text-anchor="middle" x="642.5" y="-62.5" font-family="Helvetica,sans-Serif" font-size="10.00">hardware/uart.h</text>
</a>
</g>
</g>
<!-- Node20&#45;&gt;Node22 -->
<g id="edge30_Node000020_Node000022" class="edge">
<title>Node20&#45;&gt;Node22</title>
<g id="a_edge30_Node000020_Node000022"><a xlink:title=" ">
<path fill="none" stroke="#63b8ff" d="M642.5,-111.59C642.5,-105.01 642.5,-95.96 642.5,-87.73"/>
<polygon fill="#63b8ff" stroke="#63b8ff" points="646,-87.81 642.5,-77.81 639,-87.81 646,-87.81"/>
</a>
</g>
</g>
<!-- Node25&#45;&gt;Node9 -->
<g id="edge44_Node000025_Node000009" class="edge">
<title>Node25&#45;&gt;Node9</title>
<g id="a_edge44_Node000025_Node000009"><a xlink:title=" ">
<path fill="none" stroke="#63b8ff" d="M913.14,-113.12C910.22,-112.73 907.32,-112.36 904.5,-112 769.24,-94.86 731.69,-98.17 594.55,-76.37"/>
<polygon fill="#63b8ff" stroke="#63b8ff" points="595.1,-72.92 584.67,-74.78 593.99,-79.83 595.1,-72.92"/>
</a>
</g>
</g>
<!-- Node25&#45;&gt;Node15 -->
<g id="edge35_Node000025_Node000015" class="edge">
<title>Node25&#45;&gt;Node15</title>
<g id="a_edge35_Node000025_Node000015"><a xlink:title=" ">
<path fill="none" stroke="#63b8ff" d="M913.15,-113.03C910.22,-112.67 907.33,-112.32 904.5,-112 731.22,-92.2 683.6,-101.48 507.27,-76.08"/>
<polygon fill="#63b8ff" stroke="#63b8ff" points="507.92,-72.64 497.52,-74.66 506.91,-79.57 507.92,-72.64"/>
</a>
</g>
</g>
<!-- Node26 -->
<g id="Node000026" class="node">
<title>Node26</title>
<g id="a_Node000026"><a xlink:title=" ">
<polygon fill="#e0e0e0" stroke="#999999" points="1037.75,-76 945.25,-76 945.25,-56 1037.75,-56 1037.75,-76"/>
<text text-anchor="middle" x="991.5" y="-62.5" font-family="Helvetica,sans-Serif" font-size="10.00">pico/binary_info.h</text>
</a>
</g>
</g>
<!-- Node25&#45;&gt;Node26 -->
<g id="edge36_Node000025_Node000026" class="edge">
<title>Node25&#45;&gt;Node26</title>
<g id="a_edge36_Node000025_Node000026"><a xlink:title=" ">
<path fill="none" stroke="#63b8ff" d="M973.33,-111.59C976.11,-104.78 979.96,-95.32 983.41,-86.86"/>
<polygon fill="#63b8ff" stroke="#63b8ff" points="986.61,-88.28 987.14,-77.7 980.12,-85.64 986.61,-88.28"/>
</a>
</g>
</g>
<!-- Node27 -->
<g id="Node000027" class="node">
<title>Node27</title>
<g id="a_Node000027"><a xlink:title=" ">
<polygon fill="#e0e0e0" stroke="#999999" points="1141,-76 1056,-76 1056,-56 1141,-56 1141,-76"/>
<text text-anchor="middle" x="1098.5" y="-62.5" font-family="Helvetica,sans-Serif" font-size="10.00">hardware/gpio.h</text>
</a>
</g>
</g>
<!-- Node25&#45;&gt;Node27 -->
<g id="edge37_Node000025_Node000027" class="edge">
<title>Node25&#45;&gt;Node27</title>
<g id="a_edge37_Node000025_Node000027"><a xlink:title=" ">
<path fill="none" stroke="#63b8ff" d="M991.97,-111.59C1012.28,-103.09 1042.45,-90.46 1065.5,-80.81"/>
<polygon fill="#63b8ff" stroke="#63b8ff" points="1066.58,-84.15 1074.46,-77.06 1063.88,-77.7 1066.58,-84.15"/>
</a>
</g>
</g>
<!-- Node28 -->
<g id="Node000028" class="node">
<title>Node28</title>
<g id="a_Node000028"><a xlink:title=" ">
<polygon fill="#e0e0e0" stroke="#999999" points="1238.37,-76 1158.62,-76 1158.62,-56 1238.37,-56 1238.37,-76"/>
<text text-anchor="middle" x="1198.5" y="-62.5" font-family="Helvetica,sans-Serif" font-size="10.00">hardware/spi.h</text>
</a>
</g>
</g>
<!-- Node25&#45;&gt;Node28 -->
<g id="edge38_Node000025_Node000028" class="edge">
<title>Node25&#45;&gt;Node28</title>
<g id="a_edge38_Node000025_Node000028"><a xlink:title=" ">
<path fill="none" stroke="#63b8ff" d="M1009.65,-111.53C1047.95,-102.5 1105.82,-88.85 1147.4,-79.05"/>
<polygon fill="#63b8ff" stroke="#63b8ff" points="1147.99,-82.51 1156.92,-76.8 1146.38,-75.69 1147.99,-82.51"/>
</a>
</g>
</g>
<!-- Node29 -->
<g id="Node000029" class="node">
<title>Node29</title>
<g id="a_Node000029"><a xlink:title=" ">
<polygon fill="#e0e0e0" stroke="#999999" points="864.62,-76 816.37,-76 816.37,-56 864.62,-56 864.62,-76"/>
<text text-anchor="middle" x="840.5" y="-62.5" font-family="Helvetica,sans-Serif" font-size="10.00">string.h</text>
</a>
</g>
</g>
<!-- Node25&#45;&gt;Node29 -->
<g id="edge39_Node000025_Node000029" class="edge">
<title>Node25&#45;&gt;Node29</title>
<g id="a_edge39_Node000025_Node000029"><a xlink:title=" ">
<path fill="none" stroke="#63b8ff" d="M947.03,-111.59C926.71,-103.09 896.54,-90.46 873.49,-80.81"/>
<polygon fill="#63b8ff" stroke="#63b8ff" points="875.12,-77.7 864.54,-77.06 872.41,-84.15 875.12,-77.7"/>
</a>
</g>
</g>
<!-- Node30 -->
<g id="Node000030" class="node">
<title>Node30</title>
<g id="a_Node000030"><a xlink:href="_print_8h.html" target="_top" xlink:title=" ">
<polygon fill="white" stroke="#666666" points="926.75,-76 882.25,-76 882.25,-56 926.75,-56 926.75,-76"/>
<text text-anchor="middle" x="904.5" y="-62.5" font-family="Helvetica,sans-Serif" font-size="10.00">Print.h</text>
</a>
</g>
</g>
<!-- Node25&#45;&gt;Node30 -->
<g id="edge40_Node000025_Node000030" class="edge">
<title>Node25&#45;&gt;Node30</title>
<g id="a_edge40_Node000025_Node000030"><a xlink:title=" ">
<path fill="none" stroke="#63b8ff" d="M958.18,-111.59C948.85,-103.85 935.42,-92.69 924.32,-83.47"/>
<polygon fill="#63b8ff" stroke="#63b8ff" points="926.78,-80.96 916.85,-77.27 922.31,-86.35 926.78,-80.96"/>
</a>
</g>
</g>
<!-- Node30&#45;&gt;Node2 -->
<g id="edge43_Node000030_Node000002" class="edge">
<title>Node30&#45;&gt;Node2</title>
<g id="a_edge43_Node000030_Node000002"><a xlink:title=" ">
<path fill="none" stroke="#63b8ff" d="M881.77,-57.03C855.21,-47.72 811.12,-32.26 781.45,-21.85"/>
<polygon fill="#63b8ff" stroke="#63b8ff" points="782.88,-18.64 772.28,-18.64 780.56,-25.25 782.88,-18.64"/>
</a>
</g>
</g>
<!-- Node30&#45;&gt;Node21 -->
<g id="edge42_Node000030_Node000021" class="edge">
<title>Node30&#45;&gt;Node21</title>
<g id="a_edge42_Node000030_Node000021"><a xlink:title=" ">
<path fill="none" stroke="#63b8ff" d="M890.39,-55.59C878.5,-47.67 861.23,-36.16 847.22,-26.82"/>
<polygon fill="#63b8ff" stroke="#63b8ff" points="849.24,-23.95 838.98,-21.32 845.36,-29.78 849.24,-23.95"/>
</a>
</g>
</g>
<!-- Node31 -->
<g id="Node000031" class="node">
<title>Node31</title>
<g id="a_Node000031"><a xlink:title=" ">
<polygon fill="#e0e0e0" stroke="#999999" points="933.87,-20 875.12,-20 875.12,0 933.87,0 933.87,-20"/>
<text text-anchor="middle" x="904.5" y="-6.5" font-family="Helvetica,sans-Serif" font-size="10.00">inttypes.h</text>
</a>
</g>
</g>
<!-- Node30&#45;&gt;Node31 -->
<g id="edge41_Node000030_Node000031" class="edge">
<title>Node30&#45;&gt;Node31</title>
<g id="a_edge41_Node000030_Node000031"><a xlink:title=" ">
<path fill="none" stroke="#63b8ff" d="M904.5,-55.59C904.5,-49.01 904.5,-39.96 904.5,-31.73"/>
<polygon fill="#63b8ff" stroke="#63b8ff" points="908,-31.81 904.5,-21.81 901,-31.81 908,-31.81"/>
</a>
</g>
</g>
</g>
</svg>
