<?xml version="1.0" encoding="UTF-8" standalone="no"?>
<!DOCTYPE svg PUBLIC "-//W3C//DTD SVG 1.1//EN"
 "http://www.w3.org/Graphics/SVG/1.1/DTD/svg11.dtd">
<!-- Generated by graphviz version 12.2.1 (20241206.2353)
 -->
<!-- Title: lib/comms/commands/commands.cpp Pages: 1 -->
<svg width="1547pt" height="320pt"
 viewBox="0.00 0.00 1546.50 320.00" xmlns="http://www.w3.org/2000/svg" xmlns:xlink="http://www.w3.org/1999/xlink">
<g id="graph0" class="graph" transform="scale(1 1) rotate(0) translate(4 316)">
<title>lib/comms/commands/commands.cpp</title>
<!-- Node1 -->
<g id="Node000001" class="node">
<title>Node1</title>
<g id="a_Node000001"><a xlink:title=" ">
<polygon fill="#999999" stroke="#666666" points="1032.38,-312 920.38,-312 920.38,-280 1032.38,-280 1032.38,-312"/>
<text text-anchor="start" x="928.38" y="-298.5" font-family="Helvetica,sans-Serif" font-size="10.00">lib/comms/commands</text>
<text text-anchor="middle" x="976.38" y="-286.5" font-family="Helvetica,sans-Serif" font-size="10.00">/commands.cpp</text>
</a>
</g>
</g>
<!-- Node2 -->
<g id="Node000002" class="node">
<title>Node2</title>
<g id="a_Node000002"><a xlink:href="commands_8h.html" target="_top" xlink:title=" ">
<polygon fill="white" stroke="#666666" points="915.5,-244 843.25,-244 843.25,-224 915.5,-224 915.5,-244"/>
<text text-anchor="middle" x="879.38" y="-230.5" font-family="Helvetica,sans-Serif" font-size="10.00">commands.h</text>
</a>
</g>
</g>
<!-- Node1&#45;&gt;Node2 -->
<g id="edge1_Node000001_Node000002" class="edge">
<title>Node1&#45;&gt;Node2</title>
<g id="a_edge1_Node000001_Node000002"><a xlink:title=" ">
<path fill="none" stroke="#63b8ff" d="M951.4,-279.55C936.94,-270.61 918.81,-259.39 904.35,-250.45"/>
<polygon fill="#63b8ff" stroke="#63b8ff" points="906.22,-247.49 895.87,-245.2 902.54,-253.44 906.22,-247.49"/>
</a>
</g>
</g>
<!-- Node33 -->
<g id="Node000033" class="node">
<title>Node33</title>
<g id="a_Node000033"><a xlink:href="communication_8h.html" target="_top" xlink:title=" ">
<polygon fill="white" stroke="#666666" points="1159.5,-244 1069.25,-244 1069.25,-224 1159.5,-224 1159.5,-244"/>
<text text-anchor="middle" x="1114.38" y="-230.5" font-family="Helvetica,sans-Serif" font-size="10.00">communication.h</text>
</a>
</g>
</g>
<!-- Node1&#45;&gt;Node33 -->
<g id="edge46_Node000001_Node000033" class="edge">
<title>Node1&#45;&gt;Node33</title>
<g id="a_edge46_Node000001_Node000033"><a xlink:title=" ">
<path fill="none" stroke="#63b8ff" d="M1011.91,-279.55C1033.68,-270.09 1061.3,-258.08 1082.38,-248.91"/>
<polygon fill="#63b8ff" stroke="#63b8ff" points="1083.57,-252.21 1091.35,-245.01 1080.78,-245.79 1083.57,-252.21"/>
</a>
</g>
</g>
<!-- Node3 -->
<g id="Node000003" class="node">
<title>Node3</title>
<g id="a_Node000003"><a xlink:title=" ">
<polygon fill="#e0e0e0" stroke="#999999" points="1046.38,-20 1006.38,-20 1006.38,0 1046.38,0 1046.38,-20"/>
<text text-anchor="middle" x="1026.38" y="-6.5" font-family="Helvetica,sans-Serif" font-size="10.00">string</text>
</a>
</g>
</g>
<!-- Node2&#45;&gt;Node3 -->
<g id="edge2_Node000002_Node000003" class="edge">
<title>Node2&#45;&gt;Node3</title>
<g id="a_edge2_Node000002_Node000003"><a xlink:title=" ">
<path fill="none" stroke="#63b8ff" d="M842.85,-230.4C725.98,-221.29 371.51,-187.24 418.38,-112 480.12,-12.88 878.58,-9.36 994.68,-10.48"/>
<polygon fill="#63b8ff" stroke="#63b8ff" points="994.36,-13.97 1004.4,-10.59 994.45,-6.97 994.36,-13.97"/>
</a>
</g>
</g>
<!-- Node4 -->
<g id="Node000004" class="node">
<title>Node4</title>
<g id="a_Node000004"><a xlink:title=" ">
<polygon fill="#e0e0e0" stroke="#999999" points="485.38,-132 427.38,-132 427.38,-112 485.38,-112 485.38,-132"/>
<text text-anchor="middle" x="456.38" y="-118.5" font-family="Helvetica,sans-Serif" font-size="10.00">functional</text>
</a>
</g>
</g>
<!-- Node2&#45;&gt;Node4 -->
<g id="edge3_Node000002_Node000004" class="edge">
<title>Node2&#45;&gt;Node4</title>
<g id="a_edge3_Node000002_Node000004"><a xlink:title=" ">
<path fill="none" stroke="#63b8ff" d="M842.94,-223.53C764.26,-203.07 578.94,-154.87 496.79,-133.51"/>
<polygon fill="#63b8ff" stroke="#63b8ff" points="497.7,-130.13 487.14,-131 495.94,-136.91 497.7,-130.13"/>
</a>
</g>
</g>
<!-- Node5 -->
<g id="Node000005" class="node">
<title>Node5</title>
<g id="a_Node000005"><a xlink:title=" ">
<polygon fill="#e0e0e0" stroke="#999999" points="1174.75,-76 1140,-76 1140,-56 1174.75,-56 1174.75,-76"/>
<text text-anchor="middle" x="1157.38" y="-62.5" font-family="Helvetica,sans-Serif" font-size="10.00">map</text>
</a>
</g>
</g>
<!-- Node2&#45;&gt;Node5 -->
<g id="edge4_Node000002_Node000005" class="edge">
<title>Node2&#45;&gt;Node5</title>
<g id="a_edge4_Node000002_Node000005"><a xlink:title=" ">
<path fill="none" stroke="#63b8ff" d="M915.9,-230.2C973.99,-223.67 1086.84,-202.18 1145.38,-132 1155.62,-119.72 1158.27,-101.55 1158.55,-87.54"/>
<polygon fill="#63b8ff" stroke="#63b8ff" points="1162.05,-87.57 1158.33,-77.65 1155.05,-87.72 1162.05,-87.57"/>
</a>
</g>
</g>
<!-- Node6 -->
<g id="Node000006" class="node">
<title>Node6</title>
<g id="a_Node000006"><a xlink:href="protocol_8h.html" target="_top" xlink:title=" ">
<polygon fill="white" stroke="#666666" points="908.75,-188 850,-188 850,-168 908.75,-168 908.75,-188"/>
<text text-anchor="middle" x="879.38" y="-174.5" font-family="Helvetica,sans-Serif" font-size="10.00">protocol.h</text>
</a>
</g>
</g>
<!-- Node2&#45;&gt;Node6 -->
<g id="edge5_Node000002_Node000006" class="edge">
<title>Node2&#45;&gt;Node6</title>
<g id="a_edge5_Node000002_Node000006"><a xlink:title=" ">
<path fill="none" stroke="#63b8ff" d="M879.38,-223.59C879.38,-217.01 879.38,-207.96 879.38,-199.73"/>
<polygon fill="#63b8ff" stroke="#63b8ff" points="882.88,-199.81 879.38,-189.81 875.88,-199.81 882.88,-199.81"/>
</a>
</g>
</g>
<!-- Node6&#45;&gt;Node3 -->
<g id="edge6_Node000006_Node000003" class="edge">
<title>Node6&#45;&gt;Node3</title>
<g id="a_edge6_Node000006_Node000003"><a xlink:title=" ">
<path fill="none" stroke="#63b8ff" d="M909.15,-171.55C933.09,-165.68 966,-154.05 986.38,-132 1012.44,-103.79 1021.55,-58.2 1024.71,-31.77"/>
<polygon fill="#63b8ff" stroke="#63b8ff" points="1028.18,-32.3 1025.69,-22 1021.21,-31.61 1028.18,-32.3"/>
</a>
</g>
</g>
<!-- Node6&#45;&gt;Node4 -->
<g id="edge8_Node000006_Node000004" class="edge">
<title>Node6&#45;&gt;Node4</title>
<g id="a_edge8_Node000006_Node000004"><a xlink:title=" ">
<path fill="none" stroke="#63b8ff" d="M849.74,-174.72C786.65,-169.61 634.25,-155.93 496.89,-132.26"/>
<polygon fill="#63b8ff" stroke="#63b8ff" points="497.71,-128.85 487.25,-130.58 496.5,-135.75 497.71,-128.85"/>
</a>
</g>
</g>
<!-- Node6&#45;&gt;Node5 -->
<g id="edge7_Node000006_Node000005" class="edge">
<title>Node6&#45;&gt;Node5</title>
<g id="a_edge7_Node000006_Node000005"><a xlink:title=" ">
<path fill="none" stroke="#63b8ff" d="M909.15,-170.88C942,-163.63 996.08,-150.2 1040.38,-132 1074.11,-118.14 1110.46,-96.84 1133.54,-82.43"/>
<polygon fill="#63b8ff" stroke="#63b8ff" points="1135.29,-85.47 1141.87,-77.16 1131.55,-79.55 1135.29,-85.47"/>
</a>
</g>
</g>
<!-- Node7 -->
<g id="Node000007" class="node">
<title>Node7</title>
<g id="a_Node000007"><a xlink:title=" ">
<polygon fill="#e0e0e0" stroke="#999999" points="1135.88,-132 1092.88,-132 1092.88,-112 1135.88,-112 1135.88,-132"/>
<text text-anchor="middle" x="1114.38" y="-118.5" font-family="Helvetica,sans-Serif" font-size="10.00">vector</text>
</a>
</g>
</g>
<!-- Node6&#45;&gt;Node7 -->
<g id="edge9_Node000006_Node000007" class="edge">
<title>Node6&#45;&gt;Node7</title>
<g id="a_edge9_Node000006_Node000007"><a xlink:title=" ">
<path fill="none" stroke="#63b8ff" d="M909.09,-170.5C948.03,-161.93 1018.42,-146.27 1078.38,-132 1079.53,-131.72 1080.71,-131.44 1081.91,-131.15"/>
<polygon fill="#63b8ff" stroke="#63b8ff" points="1082.35,-134.65 1091.22,-128.87 1080.68,-127.85 1082.35,-134.65"/>
</a>
</g>
</g>
<!-- Node8 -->
<g id="Node000008" class="node">
<title>Node8</title>
<g id="a_Node000008"><a xlink:title=" ">
<polygon fill="#e0e0e0" stroke="#999999" points="1276,-132 1230.75,-132 1230.75,-112 1276,-112 1276,-132"/>
<text text-anchor="middle" x="1253.38" y="-118.5" font-family="Helvetica,sans-Serif" font-size="10.00">cstdint</text>
</a>
</g>
</g>
<!-- Node6&#45;&gt;Node8 -->
<g id="edge10_Node000006_Node000008" class="edge">
<title>Node6&#45;&gt;Node8</title>
<g id="a_edge10_Node000006_Node000008"><a xlink:title=" ">
<path fill="none" stroke="#63b8ff" d="M909.03,-172.72C977.61,-162.82 1146.79,-138.39 1219.39,-127.91"/>
<polygon fill="#63b8ff" stroke="#63b8ff" points="1219.69,-131.4 1229.09,-126.51 1218.69,-124.47 1219.69,-131.4"/>
</a>
</g>
</g>
<!-- Node9 -->
<g id="Node000009" class="node">
<title>Node9</title>
<g id="a_Node000009"><a xlink:title=" ">
<polygon fill="#e0e0e0" stroke="#999999" points="613.25,-132 563.5,-132 563.5,-112 613.25,-112 613.25,-132"/>
<text text-anchor="middle" x="588.38" y="-118.5" font-family="Helvetica,sans-Serif" font-size="10.00">iomanip</text>
</a>
</g>
</g>
<!-- Node6&#45;&gt;Node9 -->
<g id="edge11_Node000006_Node000009" class="edge">
<title>Node6&#45;&gt;Node9</title>
<g id="a_edge11_Node000006_Node000009"><a xlink:title=" ">
<path fill="none" stroke="#63b8ff" d="M849.53,-172.62C803.43,-165.68 711.92,-151.17 624.73,-132.36"/>
<polygon fill="#63b8ff" stroke="#63b8ff" points="625.56,-128.96 615.05,-130.25 624.07,-135.8 625.56,-128.96"/>
</a>
</g>
</g>
<!-- Node10 -->
<g id="Node000010" class="node">
<title>Node10</title>
<g id="a_Node000010"><a xlink:href="pin__config_8h.html" target="_top" xlink:title=" ">
<polygon fill="white" stroke="#666666" points="628.62,-76 560.12,-76 560.12,-56 628.62,-56 628.62,-76"/>
<text text-anchor="middle" x="594.38" y="-62.5" font-family="Helvetica,sans-Serif" font-size="10.00">pin_config.h</text>
</a>
</g>
</g>
<!-- Node6&#45;&gt;Node10 -->
<g id="edge12_Node000006_Node000010" class="edge">
<title>Node6&#45;&gt;Node10</title>
<g id="a_edge12_Node000006_Node000010"><a xlink:title=" ">
<path fill="none" stroke="#63b8ff" d="M909.24,-168.57C943.28,-157.53 991.52,-136.67 969.38,-112 921.94,-59.14 728.35,-85.12 640.26,-76.01"/>
<polygon fill="#63b8ff" stroke="#63b8ff" points="640.92,-72.57 630.56,-74.76 640.02,-79.51 640.92,-72.57"/>
</a>
</g>
</g>
<!-- Node12 -->
<g id="Node000012" class="node">
<title>Node12</title>
<g id="a_Node000012"><a xlink:href="_power_manager_8h.html" target="_top" xlink:title=" ">
<polygon fill="white" stroke="#666666" points="1383.12,-132 1293.62,-132 1293.62,-112 1383.12,-112 1383.12,-132"/>
<text text-anchor="middle" x="1338.38" y="-118.5" font-family="Helvetica,sans-Serif" font-size="10.00">PowerManager.h</text>
</a>
</g>
</g>
<!-- Node6&#45;&gt;Node12 -->
<g id="edge14_Node000006_Node000012" class="edge">
<title>Node6&#45;&gt;Node12</title>
<g id="a_edge14_Node000006_Node000012"><a xlink:title=" ">
<path fill="none" stroke="#63b8ff" d="M909.25,-174.29C974.83,-168.2 1136.6,-152.49 1281.97,-132.42"/>
<polygon fill="#63b8ff" stroke="#63b8ff" points="1282.38,-135.89 1291.8,-131.05 1281.41,-128.96 1282.38,-135.89"/>
</a>
</g>
</g>
<!-- Node18 -->
<g id="Node000018" class="node">
<title>Node18</title>
<g id="a_Node000018"><a xlink:title=" ">
<polygon fill="#e0e0e0" stroke="#999999" points="673.5,-132 631.25,-132 631.25,-112 673.5,-112 673.5,-132"/>
<text text-anchor="middle" x="652.38" y="-118.5" font-family="Helvetica,sans-Serif" font-size="10.00">cstdio</text>
</a>
</g>
</g>
<!-- Node6&#45;&gt;Node18 -->
<g id="edge24_Node000006_Node000018" class="edge">
<title>Node6&#45;&gt;Node18</title>
<g id="a_edge24_Node000006_Node000018"><a xlink:title=" ">
<path fill="none" stroke="#63b8ff" d="M849.52,-170.83C812.91,-163.13 748.74,-149.17 685.01,-132.57"/>
<polygon fill="#63b8ff" stroke="#63b8ff" points="685.98,-129.21 675.42,-130.05 684.2,-135.98 685.98,-129.21"/>
</a>
</g>
</g>
<!-- Node19 -->
<g id="Node000019" class="node">
<title>Node19</title>
<g id="a_Node000019"><a xlink:title=" ">
<polygon fill="#e0e0e0" stroke="#999999" points="735.62,-132 691.12,-132 691.12,-112 735.62,-112 735.62,-132"/>
<text text-anchor="middle" x="713.38" y="-118.5" font-family="Helvetica,sans-Serif" font-size="10.00">cstdlib</text>
</a>
</g>
</g>
<!-- Node6&#45;&gt;Node19 -->
<g id="edge25_Node000006_Node000019" class="edge">
<title>Node6&#45;&gt;Node19</title>
<g id="a_edge25_Node000006_Node000019"><a xlink:title=" ">
<path fill="none" stroke="#63b8ff" d="M850.46,-167.59C821.63,-158.22 777.38,-143.82 747,-133.94"/>
<polygon fill="#63b8ff" stroke="#63b8ff" points="748.13,-130.63 737.54,-130.86 745.96,-137.28 748.13,-130.63"/>
</a>
</g>
</g>
<!-- Node20 -->
<g id="Node000020" class="node">
<title>Node20</title>
<g id="a_Node000020"><a xlink:title=" ">
<polygon fill="#e0e0e0" stroke="#999999" points="799,-132 753.75,-132 753.75,-112 799,-112 799,-132"/>
<text text-anchor="middle" x="776.38" y="-118.5" font-family="Helvetica,sans-Serif" font-size="10.00">cstring</text>
</a>
</g>
</g>
<!-- Node6&#45;&gt;Node20 -->
<g id="edge26_Node000006_Node000020" class="edge">
<title>Node6&#45;&gt;Node20</title>
<g id="a_edge26_Node000006_Node000020"><a xlink:title=" ">
<path fill="none" stroke="#63b8ff" d="M861.43,-167.59C845.73,-159.36 822.64,-147.26 804.49,-137.74"/>
<polygon fill="#63b8ff" stroke="#63b8ff" points="806.28,-134.73 795.8,-133.18 803.03,-140.93 806.28,-134.73"/>
</a>
</g>
</g>
<!-- Node21 -->
<g id="Node000021" class="node">
<title>Node21</title>
<g id="a_Node000021"><a xlink:href="utils_8h.html" target="_top" xlink:title=" ">
<polygon fill="white" stroke="#666666" points="545.5,-132 503.25,-132 503.25,-112 545.5,-112 545.5,-132"/>
<text text-anchor="middle" x="524.38" y="-118.5" font-family="Helvetica,sans-Serif" font-size="10.00">utils.h</text>
</a>
</g>
</g>
<!-- Node6&#45;&gt;Node21 -->
<g id="edge27_Node000006_Node000021" class="edge">
<title>Node6&#45;&gt;Node21</title>
<g id="a_edge27_Node000006_Node000021"><a xlink:title=" ">
<path fill="none" stroke="#63b8ff" d="M849.53,-174.42C793.82,-169.27 670.11,-156.28 557.15,-132.32"/>
<polygon fill="#63b8ff" stroke="#63b8ff" points="557.89,-128.9 547.38,-130.21 556.42,-135.74 557.89,-128.9"/>
</a>
</g>
</g>
<!-- Node24 -->
<g id="Node000024" class="node">
<title>Node24</title>
<g id="a_Node000024"><a xlink:title=" ">
<polygon fill="#e0e0e0" stroke="#999999" points="859.88,-132 816.88,-132 816.88,-112 859.88,-112 859.88,-132"/>
<text text-anchor="middle" x="838.38" y="-118.5" font-family="Helvetica,sans-Serif" font-size="10.00">time.h</text>
</a>
</g>
</g>
<!-- Node6&#45;&gt;Node24 -->
<g id="edge33_Node000006_Node000024" class="edge">
<title>Node6&#45;&gt;Node24</title>
<g id="a_edge33_Node000006_Node000024"><a xlink:title=" ">
<path fill="none" stroke="#63b8ff" d="M872.23,-167.59C866.77,-160.39 859.05,-150.23 852.37,-141.43"/>
<polygon fill="#63b8ff" stroke="#63b8ff" points="855.18,-139.35 846.35,-133.5 849.61,-143.58 855.18,-139.35"/>
</a>
</g>
</g>
<!-- Node25 -->
<g id="Node000025" class="node">
<title>Node25</title>
<g id="a_Node000025"><a xlink:href="build__number_8h.html" target="_top" xlink:title=" ">
<polygon fill="white" stroke="#666666" points="960.38,-132 878.38,-132 878.38,-112 960.38,-112 960.38,-132"/>
<text text-anchor="middle" x="919.38" y="-118.5" font-family="Helvetica,sans-Serif" font-size="10.00">build_number.h</text>
</a>
</g>
</g>
<!-- Node6&#45;&gt;Node25 -->
<g id="edge34_Node000006_Node000025" class="edge">
<title>Node6&#45;&gt;Node25</title>
<g id="a_edge34_Node000006_Node000025"><a xlink:title=" ">
<path fill="none" stroke="#63b8ff" d="M886.34,-167.59C891.68,-160.39 899.2,-150.23 905.72,-141.43"/>
<polygon fill="#63b8ff" stroke="#63b8ff" points="908.45,-143.63 911.59,-133.51 902.82,-139.47 908.45,-143.63"/>
</a>
</g>
</g>
<!-- Node26 -->
<g id="Node000026" class="node">
<title>Node26</title>
<g id="a_Node000026"><a xlink:href="_lo_ra-_r_p2040_8h.html" target="_top" xlink:title=" ">
<polygon fill="white" stroke="#666666" points="364.38,-132 252.38,-132 252.38,-112 364.38,-112 364.38,-132"/>
<text text-anchor="middle" x="308.38" y="-118.5" font-family="Helvetica,sans-Serif" font-size="10.00">LoRa/LoRa&#45;RP2040.h</text>
</a>
</g>
</g>
<!-- Node6&#45;&gt;Node26 -->
<g id="edge35_Node000006_Node000026" class="edge">
<title>Node6&#45;&gt;Node26</title>
<g id="a_edge35_Node000006_Node000026"><a xlink:title=" ">
<path fill="none" stroke="#63b8ff" d="M849.88,-174.21C762.07,-165.91 500.76,-141.19 376.06,-129.4"/>
<polygon fill="#63b8ff" stroke="#63b8ff" points="376.58,-125.93 366.3,-128.48 375.92,-132.9 376.58,-125.93"/>
</a>
</g>
</g>
<!-- Node11 -->
<g id="Node000011" class="node">
<title>Node11</title>
<g id="a_Node000011"><a xlink:title=" ">
<polygon fill="#e0e0e0" stroke="#999999" points="1210.5,-20 1162.25,-20 1162.25,0 1210.5,0 1210.5,-20"/>
<text text-anchor="middle" x="1186.38" y="-6.5" font-family="Helvetica,sans-Serif" font-size="10.00">stdint.h</text>
</a>
</g>
</g>
<!-- Node10&#45;&gt;Node11 -->
<g id="edge13_Node000010_Node000011" class="edge">
<title>Node10&#45;&gt;Node11</title>
<g id="a_edge13_Node000010_Node000011"><a xlink:title=" ">
<path fill="none" stroke="#63b8ff" d="M629.04,-57.36C631.85,-56.86 634.66,-56.39 637.38,-56 687.99,-48.66 1037.39,-22.16 1150.87,-13.65"/>
<polygon fill="#63b8ff" stroke="#63b8ff" points="1150.79,-17.17 1160.5,-12.93 1150.26,-10.19 1150.79,-17.17"/>
</a>
</g>
</g>
<!-- Node12&#45;&gt;Node3 -->
<g id="edge20_Node000012_Node000003" class="edge">
<title>Node12&#45;&gt;Node3</title>
<g id="a_edge20_Node000012_Node000003"><a xlink:title=" ">
<path fill="none" stroke="#63b8ff" d="M1323.93,-111.71C1301.66,-97.77 1257.24,-71.43 1216.38,-56 1162.34,-35.6 1096.07,-22.42 1057.79,-15.89"/>
<polygon fill="#63b8ff" stroke="#63b8ff" points="1058.78,-12.5 1048.34,-14.32 1057.64,-19.41 1058.78,-12.5"/>
</a>
</g>
</g>
<!-- Node12&#45;&gt;Node5 -->
<g id="edge19_Node000012_Node000005" class="edge">
<title>Node12&#45;&gt;Node5</title>
<g id="a_edge19_Node000012_Node000005"><a xlink:title=" ">
<path fill="none" stroke="#63b8ff" d="M1306.85,-111.59C1272.6,-101.38 1218.4,-85.2 1185.53,-75.4"/>
<polygon fill="#63b8ff" stroke="#63b8ff" points="1186.9,-72.16 1176.31,-72.65 1184.9,-78.86 1186.9,-72.16"/>
</a>
</g>
</g>
<!-- Node13 -->
<g id="Node000013" class="node">
<title>Node13</title>
<g id="a_Node000013"><a xlink:href="_i_n_a3221_8h.html" target="_top" xlink:title=" ">
<polygon fill="white" stroke="#666666" points="1410.25,-76 1306.5,-76 1306.5,-56 1410.25,-56 1410.25,-76"/>
<text text-anchor="middle" x="1358.38" y="-62.5" font-family="Helvetica,sans-Serif" font-size="10.00">INA3221/INA3221.h</text>
</a>
</g>
</g>
<!-- Node12&#45;&gt;Node13 -->
<g id="edge15_Node000012_Node000013" class="edge">
<title>Node12&#45;&gt;Node13</title>
<g id="a_edge15_Node000012_Node000013"><a xlink:title=" ">
<path fill="none" stroke="#63b8ff" d="M1341.86,-111.59C1344.38,-104.78 1347.89,-95.32 1351.02,-86.86"/>
<polygon fill="#63b8ff" stroke="#63b8ff" points="1354.21,-88.31 1354.41,-77.72 1347.65,-85.88 1354.21,-88.31"/>
</a>
</g>
</g>
<!-- Node15 -->
<g id="Node000015" class="node">
<title>Node15</title>
<g id="a_Node000015"><a xlink:title=" ">
<polygon fill="#e0e0e0" stroke="#999999" points="1478.25,-20 1398.5,-20 1398.5,0 1478.25,0 1478.25,-20"/>
<text text-anchor="middle" x="1438.38" y="-6.5" font-family="Helvetica,sans-Serif" font-size="10.00">hardware/i2c.h</text>
</a>
</g>
</g>
<!-- Node12&#45;&gt;Node15 -->
<g id="edge21_Node000012_Node000015" class="edge">
<title>Node12&#45;&gt;Node15</title>
<g id="a_edge21_Node000012_Node000015"><a xlink:title=" ">
<path fill="none" stroke="#63b8ff" d="M1366.86,-111.56C1384.36,-104.38 1405.92,-92.84 1419.38,-76 1429.49,-63.34 1434.22,-45.47 1436.43,-31.68"/>
<polygon fill="#63b8ff" stroke="#63b8ff" points="1439.88,-32.27 1437.65,-21.91 1432.94,-31.4 1439.88,-32.27"/>
</a>
</g>
</g>
<!-- Node16 -->
<g id="Node000016" class="node">
<title>Node16</title>
<g id="a_Node000016"><a xlink:title=" ">
<polygon fill="#e0e0e0" stroke="#999999" points="816.62,-76 748.12,-76 748.12,-56 816.62,-56 816.62,-76"/>
<text text-anchor="middle" x="782.38" y="-62.5" font-family="Helvetica,sans-Serif" font-size="10.00">pico/stdlib.h</text>
</a>
</g>
</g>
<!-- Node12&#45;&gt;Node16 -->
<g id="edge22_Node000012_Node000016" class="edge">
<title>Node12&#45;&gt;Node16</title>
<g id="a_edge22_Node000012_Node000016"><a xlink:title=" ">
<path fill="none" stroke="#63b8ff" d="M1293.31,-113.1C1290.63,-112.71 1287.97,-112.34 1285.38,-112 1117.49,-90.27 916.72,-75.72 828.17,-69.88"/>
<polygon fill="#63b8ff" stroke="#63b8ff" points="828.65,-66.4 818.44,-69.25 828.19,-73.39 828.65,-66.4"/>
</a>
</g>
</g>
<!-- Node17 -->
<g id="Node000017" class="node">
<title>Node17</title>
<g id="a_Node000017"><a xlink:title=" ">
<polygon fill="#e0e0e0" stroke="#999999" points="1538.5,-76 1466.25,-76 1466.25,-56 1538.5,-56 1538.5,-76"/>
<text text-anchor="middle" x="1502.38" y="-62.5" font-family="Helvetica,sans-Serif" font-size="10.00">pico/mutex.h</text>
</a>
</g>
</g>
<!-- Node12&#45;&gt;Node17 -->
<g id="edge23_Node000012_Node000017" class="edge">
<title>Node12&#45;&gt;Node17</title>
<g id="a_edge23_Node000012_Node000017"><a xlink:title=" ">
<path fill="none" stroke="#63b8ff" d="M1366.94,-111.59C1393.47,-102.86 1433.21,-89.77 1462.79,-80.03"/>
<polygon fill="#63b8ff" stroke="#63b8ff" points="1463.74,-83.4 1472.15,-76.95 1461.55,-76.76 1463.74,-83.4"/>
</a>
</g>
</g>
<!-- Node13&#45;&gt;Node11 -->
<g id="edge16_Node000013_Node000011" class="edge">
<title>Node13&#45;&gt;Node11</title>
<g id="a_edge16_Node000013_Node000011"><a xlink:title=" ">
<path fill="none" stroke="#63b8ff" d="M1328.41,-55.59C1298.76,-46.28 1253.34,-32.03 1221.89,-22.15"/>
<polygon fill="#63b8ff" stroke="#63b8ff" points="1223.02,-18.84 1212.43,-19.18 1220.92,-25.51 1223.02,-18.84"/>
</a>
</g>
</g>
<!-- Node14 -->
<g id="Node000014" class="node">
<title>Node14</title>
<g id="a_Node000014"><a xlink:title=" ">
<polygon fill="#e0e0e0" stroke="#999999" points="1380.12,-20 1326.62,-20 1326.62,0 1380.12,0 1380.12,-20"/>
<text text-anchor="middle" x="1353.38" y="-6.5" font-family="Helvetica,sans-Serif" font-size="10.00">iostream</text>
</a>
</g>
</g>
<!-- Node13&#45;&gt;Node14 -->
<g id="edge17_Node000013_Node000014" class="edge">
<title>Node13&#45;&gt;Node14</title>
<g id="a_edge17_Node000013_Node000014"><a xlink:title=" ">
<path fill="none" stroke="#63b8ff" d="M1357.5,-55.59C1356.89,-49.01 1356.06,-39.96 1355.29,-31.73"/>
<polygon fill="#63b8ff" stroke="#63b8ff" points="1358.78,-31.44 1354.38,-21.81 1351.81,-32.09 1358.78,-31.44"/>
</a>
</g>
</g>
<!-- Node13&#45;&gt;Node15 -->
<g id="edge18_Node000013_Node000015" class="edge">
<title>Node13&#45;&gt;Node15</title>
<g id="a_edge18_Node000013_Node000015"><a xlink:title=" ">
<path fill="none" stroke="#63b8ff" d="M1372.31,-55.59C1384.05,-47.67 1401.11,-36.16 1414.94,-26.82"/>
<polygon fill="#63b8ff" stroke="#63b8ff" points="1416.75,-29.82 1423.08,-21.33 1412.83,-24.02 1416.75,-29.82"/>
</a>
</g>
</g>
<!-- Node21&#45;&gt;Node3 -->
<g id="edge29_Node000021_Node000003" class="edge">
<title>Node21&#45;&gt;Node3</title>
<g id="a_edge29_Node000021_Node000003"><a xlink:title=" ">
<path fill="none" stroke="#63b8ff" d="M525.29,-111.64C527.25,-97.09 533.28,-69.35 551.38,-56 586.96,-29.74 893.83,-15.97 994.52,-12.13"/>
<polygon fill="#63b8ff" stroke="#63b8ff" points="994.63,-15.63 1004.49,-11.76 994.37,-8.64 994.63,-15.63"/>
</a>
</g>
</g>
<!-- Node21&#45;&gt;Node10 -->
<g id="edge32_Node000021_Node000010" class="edge">
<title>Node21&#45;&gt;Node10</title>
<g id="a_edge32_Node000021_Node000010"><a xlink:title=" ">
<path fill="none" stroke="#63b8ff" d="M536.57,-111.59C546.71,-103.77 561.37,-92.46 573.39,-83.19"/>
<polygon fill="#63b8ff" stroke="#63b8ff" points="575.34,-86.1 581.12,-77.22 571.07,-80.56 575.34,-86.1"/>
</a>
</g>
</g>
<!-- Node21&#45;&gt;Node16 -->
<g id="edge30_Node000021_Node000016" class="edge">
<title>Node21&#45;&gt;Node16</title>
<g id="a_edge30_Node000021_Node000016"><a xlink:title=" ">
<path fill="none" stroke="#63b8ff" d="M545.93,-114.25C548.76,-113.45 551.63,-112.68 554.38,-112 632.21,-92.8 655.3,-92.56 736.37,-76.57"/>
<polygon fill="#63b8ff" stroke="#63b8ff" points="737.05,-80 746.17,-74.61 735.67,-73.14 737.05,-80"/>
</a>
</g>
</g>
<!-- Node22 -->
<g id="Node000022" class="node">
<title>Node22</title>
<g id="a_Node000022"><a xlink:title=" ">
<polygon fill="#e0e0e0" stroke="#999999" points="320,-20 274.75,-20 274.75,0 320,0 320,-20"/>
<text text-anchor="middle" x="297.38" y="-6.5" font-family="Helvetica,sans-Serif" font-size="10.00">stdio.h</text>
</a>
</g>
</g>
<!-- Node21&#45;&gt;Node22 -->
<g id="edge28_Node000021_Node000022" class="edge">
<title>Node21&#45;&gt;Node22</title>
<g id="a_edge28_Node000021_Node000022"><a xlink:title=" ">
<path fill="none" stroke="#63b8ff" d="M514.16,-111.56C498.64,-97.66 467.7,-71.65 437.38,-56 403.02,-38.28 360.34,-25.78 331.19,-18.52"/>
<polygon fill="#63b8ff" stroke="#63b8ff" points="332.36,-15.2 321.82,-16.26 330.72,-22.01 332.36,-15.2"/>
</a>
</g>
</g>
<!-- Node23 -->
<g id="Node000023" class="node">
<title>Node23</title>
<g id="a_Node000023"><a xlink:title=" ">
<polygon fill="#e0e0e0" stroke="#999999" points="730.12,-76 646.62,-76 646.62,-56 730.12,-56 730.12,-76"/>
<text text-anchor="middle" x="688.38" y="-62.5" font-family="Helvetica,sans-Serif" font-size="10.00">hardware/uart.h</text>
</a>
</g>
</g>
<!-- Node21&#45;&gt;Node23 -->
<g id="edge31_Node000021_Node000023" class="edge">
<title>Node21&#45;&gt;Node23</title>
<g id="a_edge31_Node000021_Node000023"><a xlink:title=" ">
<path fill="none" stroke="#63b8ff" d="M545.82,-113.94C571.91,-105.35 616.5,-90.67 648.87,-80.01"/>
<polygon fill="#63b8ff" stroke="#63b8ff" points="649.92,-83.35 658.32,-76.89 647.73,-76.7 649.92,-83.35"/>
</a>
</g>
</g>
<!-- Node26&#45;&gt;Node10 -->
<g id="edge45_Node000026_Node000010" class="edge">
<title>Node26&#45;&gt;Node10</title>
<g id="a_edge45_Node000026_Node000010"><a xlink:title=" ">
<path fill="none" stroke="#63b8ff" d="M358.52,-111.53C412.29,-101.38 496.91,-85.4 548.83,-75.6"/>
<polygon fill="#63b8ff" stroke="#63b8ff" points="549.36,-79.06 558.54,-73.77 548.06,-72.18 549.36,-79.06"/>
</a>
</g>
</g>
<!-- Node26&#45;&gt;Node16 -->
<g id="edge36_Node000026_Node000016" class="edge">
<title>Node26&#45;&gt;Node16</title>
<g id="a_edge36_Node000026_Node000016"><a xlink:title=" ">
<path fill="none" stroke="#63b8ff" d="M364.68,-115.84C460.1,-106.99 650.84,-88.77 736.56,-76.26"/>
<polygon fill="#63b8ff" stroke="#63b8ff" points="736.84,-79.76 746.2,-74.8 735.79,-72.84 736.84,-79.76"/>
</a>
</g>
</g>
<!-- Node27 -->
<g id="Node000027" class="node">
<title>Node27</title>
<g id="a_Node000027"><a xlink:title=" ">
<polygon fill="#e0e0e0" stroke="#999999" points="428.62,-76 336.12,-76 336.12,-56 428.62,-56 428.62,-76"/>
<text text-anchor="middle" x="382.38" y="-62.5" font-family="Helvetica,sans-Serif" font-size="10.00">pico/binary_info.h</text>
</a>
</g>
</g>
<!-- Node26&#45;&gt;Node27 -->
<g id="edge37_Node000026_Node000027" class="edge">
<title>Node26&#45;&gt;Node27</title>
<g id="a_edge37_Node000026_Node000027"><a xlink:title=" ">
<path fill="none" stroke="#63b8ff" d="M321.26,-111.59C332.09,-103.7 347.79,-92.24 360.56,-82.92"/>
<polygon fill="#63b8ff" stroke="#63b8ff" points="362.4,-85.91 368.41,-77.19 358.27,-80.26 362.4,-85.91"/>
</a>
</g>
</g>
<!-- Node28 -->
<g id="Node000028" class="node">
<title>Node28</title>
<g id="a_Node000028"><a xlink:title=" ">
<polygon fill="#e0e0e0" stroke="#999999" points="154.88,-76 69.88,-76 69.88,-56 154.88,-56 154.88,-76"/>
<text text-anchor="middle" x="112.38" y="-62.5" font-family="Helvetica,sans-Serif" font-size="10.00">hardware/gpio.h</text>
</a>
</g>
</g>
<!-- Node26&#45;&gt;Node28 -->
<g id="edge38_Node000026_Node000028" class="edge">
<title>Node26&#45;&gt;Node28</title>
<g id="a_edge38_Node000026_Node000028"><a xlink:title=" ">
<path fill="none" stroke="#63b8ff" d="M274.23,-111.59C241.97,-102.71 193.35,-89.31 157.82,-79.52"/>
<polygon fill="#63b8ff" stroke="#63b8ff" points="158.81,-76.16 148.24,-76.88 156.95,-82.91 158.81,-76.16"/>
</a>
</g>
</g>
<!-- Node29 -->
<g id="Node000029" class="node">
<title>Node29</title>
<g id="a_Node000029"><a xlink:title=" ">
<polygon fill="#e0e0e0" stroke="#999999" points="252.25,-76 172.5,-76 172.5,-56 252.25,-56 252.25,-76"/>
<text text-anchor="middle" x="212.38" y="-62.5" font-family="Helvetica,sans-Serif" font-size="10.00">hardware/spi.h</text>
</a>
</g>
</g>
<!-- Node26&#45;&gt;Node29 -->
<g id="edge39_Node000026_Node000029" class="edge">
<title>Node26&#45;&gt;Node29</title>
<g id="a_edge39_Node000026_Node000029"><a xlink:title=" ">
<path fill="none" stroke="#63b8ff" d="M291.65,-111.59C277.15,-103.44 255.9,-91.48 239.05,-82"/>
<polygon fill="#63b8ff" stroke="#63b8ff" points="240.98,-79.07 230.55,-77.22 237.55,-85.17 240.98,-79.07"/>
</a>
</g>
</g>
<!-- Node30 -->
<g id="Node000030" class="node">
<title>Node30</title>
<g id="a_Node000030"><a xlink:title=" ">
<polygon fill="#e0e0e0" stroke="#999999" points="318.5,-76 270.25,-76 270.25,-56 318.5,-56 318.5,-76"/>
<text text-anchor="middle" x="294.38" y="-62.5" font-family="Helvetica,sans-Serif" font-size="10.00">string.h</text>
</a>
</g>
</g>
<!-- Node26&#45;&gt;Node30 -->
<g id="edge40_Node000026_Node000030" class="edge">
<title>Node26&#45;&gt;Node30</title>
<g id="a_edge40_Node000026_Node000030"><a xlink:title=" ">
<path fill="none" stroke="#63b8ff" d="M305.94,-111.59C304.21,-104.93 301.83,-95.75 299.67,-87.44"/>
<polygon fill="#63b8ff" stroke="#63b8ff" points="303.06,-86.56 297.17,-77.76 296.29,-88.32 303.06,-86.56"/>
</a>
</g>
</g>
<!-- Node31 -->
<g id="Node000031" class="node">
<title>Node31</title>
<g id="a_Node000031"><a xlink:href="_print_8h.html" target="_top" xlink:title=" ">
<polygon fill="white" stroke="#666666" points="51.62,-76 7.12,-76 7.12,-56 51.62,-56 51.62,-76"/>
<text text-anchor="middle" x="29.38" y="-62.5" font-family="Helvetica,sans-Serif" font-size="10.00">Print.h</text>
</a>
</g>
</g>
<!-- Node26&#45;&gt;Node31 -->
<g id="edge41_Node000026_Node000031" class="edge">
<title>Node26&#45;&gt;Node31</title>
<g id="a_edge41_Node000026_Node000031"><a xlink:title=" ">
<path fill="none" stroke="#63b8ff" d="M251.89,-112.45C203.87,-104.8 132.89,-92.6 62.78,-76.39"/>
<polygon fill="#63b8ff" stroke="#63b8ff" points="64,-73.08 53.46,-74.2 62.4,-79.89 64,-73.08"/>
</a>
</g>
</g>
<!-- Node31&#45;&gt;Node3 -->
<g id="edge44_Node000031_Node000003" class="edge">
<title>Node31&#45;&gt;Node3</title>
<g id="a_edge44_Node000031_Node000003"><a xlink:title=" ">
<path fill="none" stroke="#63b8ff" d="M51.92,-57.79C54.74,-57.08 57.61,-56.46 60.38,-56 246.44,-25.1 850.01,-13.78 994.9,-11.47"/>
<polygon fill="#63b8ff" stroke="#63b8ff" points="994.55,-14.97 1004.5,-11.32 994.44,-7.98 994.55,-14.97"/>
</a>
</g>
</g>
<!-- Node31&#45;&gt;Node22 -->
<g id="edge43_Node000031_Node000022" class="edge">
<title>Node31&#45;&gt;Node22</title>
<g id="a_edge43_Node000031_Node000022"><a xlink:title=" ">
<path fill="none" stroke="#63b8ff" d="M52,-58.16C54.81,-57.39 57.65,-56.65 60.38,-56 131.94,-38.86 216.91,-24.05 263.17,-16.44"/>
<polygon fill="#63b8ff" stroke="#63b8ff" points="263.54,-19.93 272.85,-14.87 262.42,-13.02 263.54,-19.93"/>
</a>
</g>
</g>
<!-- Node32 -->
<g id="Node000032" class="node">
<title>Node32</title>
<g id="a_Node000032"><a xlink:title=" ">
<polygon fill="#e0e0e0" stroke="#999999" points="58.75,-20 0,-20 0,0 58.75,0 58.75,-20"/>
<text text-anchor="middle" x="29.38" y="-6.5" font-family="Helvetica,sans-Serif" font-size="10.00">inttypes.h</text>
</a>
</g>
</g>
<!-- Node31&#45;&gt;Node32 -->
<g id="edge42_Node000031_Node000032" class="edge">
<title>Node31&#45;&gt;Node32</title>
<g id="a_edge42_Node000031_Node000032"><a xlink:title=" ">
<path fill="none" stroke="#63b8ff" d="M29.38,-55.59C29.38,-49.01 29.38,-39.96 29.38,-31.73"/>
<polygon fill="#63b8ff" stroke="#63b8ff" points="32.88,-31.81 29.38,-21.81 25.88,-31.81 32.88,-31.81"/>
</a>
</g>
</g>
<!-- Node33&#45;&gt;Node3 -->
<g id="edge47_Node000033_Node000003" class="edge">
<title>Node33&#45;&gt;Node3</title>
<g id="a_edge47_Node000033_Node000003"><a xlink:title=" ">
<path fill="none" stroke="#63b8ff" d="M1123.9,-223.67C1151.23,-195.78 1225.26,-111.58 1183.38,-56 1168.31,-36.01 1099.34,-22.19 1057.99,-15.53"/>
<polygon fill="#63b8ff" stroke="#63b8ff" points="1058.54,-12.08 1048.12,-14.01 1057.47,-19 1058.54,-12.08"/>
</a>
</g>
</g>
<!-- Node33&#45;&gt;Node6 -->
<g id="edge49_Node000033_Node000006" class="edge">
<title>Node33&#45;&gt;Node6</title>
<g id="a_edge49_Node000033_Node000006"><a xlink:title=" ">
<path fill="none" stroke="#63b8ff" d="M1073.17,-223.53C1030.13,-213.64 963.01,-198.22 920.13,-188.36"/>
<polygon fill="#63b8ff" stroke="#63b8ff" points="920.99,-184.97 910.46,-186.14 919.42,-191.79 920.99,-184.97"/>
</a>
</g>
</g>
<!-- Node33&#45;&gt;Node7 -->
<g id="edge48_Node000033_Node000007" class="edge">
<title>Node33&#45;&gt;Node7</title>
<g id="a_edge48_Node000033_Node000007"><a xlink:title=" ">
<path fill="none" stroke="#63b8ff" d="M1114.38,-223.62C1114.38,-206.01 1114.38,-167.59 1114.38,-143.65"/>
<polygon fill="#63b8ff" stroke="#63b8ff" points="1117.88,-143.87 1114.38,-133.87 1110.88,-143.87 1117.88,-143.87"/>
</a>
</g>
</g>
<!-- Node34 -->
<g id="Node000034" class="node">
<title>Node34</title>
<g id="a_Node000034"><a xlink:href="event__manager_8h.html" target="_top" xlink:title=" ">
<polygon fill="white" stroke="#666666" points="1383.88,-188 1292.88,-188 1292.88,-168 1383.88,-168 1383.88,-188"/>
<text text-anchor="middle" x="1338.38" y="-174.5" font-family="Helvetica,sans-Serif" font-size="10.00">event_manager.h</text>
</a>
</g>
</g>
<!-- Node33&#45;&gt;Node34 -->
<g id="edge50_Node000033_Node000034" class="edge">
<title>Node33&#45;&gt;Node34</title>
<g id="a_edge50_Node000033_Node000034"><a xlink:title=" ">
<path fill="none" stroke="#63b8ff" d="M1153.65,-223.53C1191.04,-214.52 1247.48,-200.91 1288.13,-191.11"/>
<polygon fill="#63b8ff" stroke="#63b8ff" points="1288.77,-194.56 1297.67,-188.81 1287.13,-187.75 1288.77,-194.56"/>
</a>
</g>
</g>
<!-- Node34&#45;&gt;Node3 -->
<g id="edge53_Node000034_Node000003" class="edge">
<title>Node34&#45;&gt;Node3</title>
<g id="a_edge53_Node000034_Node000003"><a xlink:title=" ">
<path fill="none" stroke="#63b8ff" d="M1356.27,-167.52C1377.07,-155.23 1406.8,-132.89 1392.38,-112 1366.72,-74.84 1339.2,-93.01 1297.38,-76 1276.72,-67.6 1272.65,-62.67 1251.38,-56 1183.97,-34.87 1101.99,-21.42 1057.96,-15.15"/>
<polygon fill="#63b8ff" stroke="#63b8ff" points="1058.48,-11.69 1048.1,-13.78 1057.52,-18.62 1058.48,-11.69"/>
</a>
</g>
</g>
<!-- Node34&#45;&gt;Node8 -->
<g id="edge52_Node000034_Node000008" class="edge">
<title>Node34&#45;&gt;Node8</title>
<g id="a_edge52_Node000034_Node000008"><a xlink:title=" ">
<path fill="none" stroke="#63b8ff" d="M1323.57,-167.59C1310.97,-159.59 1292.62,-147.93 1277.84,-138.54"/>
<polygon fill="#63b8ff" stroke="#63b8ff" points="1279.89,-135.7 1269.57,-133.29 1276.14,-141.61 1279.89,-135.7"/>
</a>
</g>
</g>
<!-- Node34&#45;&gt;Node12 -->
<g id="edge51_Node000034_Node000012" class="edge">
<title>Node34&#45;&gt;Node12</title>
<g id="a_edge51_Node000034_Node000012"><a xlink:title=" ">
<path fill="none" stroke="#63b8ff" d="M1338.38,-167.59C1338.38,-161.01 1338.38,-151.96 1338.38,-143.73"/>
<polygon fill="#63b8ff" stroke="#63b8ff" points="1341.88,-143.81 1338.38,-133.81 1334.88,-143.81 1341.88,-143.81"/>
</a>
</g>
</g>
<!-- Node34&#45;&gt;Node17 -->
<g id="edge54_Node000034_Node000017" class="edge">
<title>Node34&#45;&gt;Node17</title>
<g id="a_edge54_Node000034_Node000017"><a xlink:title=" ">
<path fill="none" stroke="#63b8ff" d="M1359.86,-167.53C1377.94,-159.19 1404.17,-146.17 1425.38,-132 1447.06,-117.51 1469.59,-97.86 1484.64,-83.96"/>
<polygon fill="#63b8ff" stroke="#63b8ff" points="1486.96,-86.59 1491.86,-77.19 1482.17,-81.48 1486.96,-86.59"/>
</a>
</g>
</g>
</g>
</svg>
