<?xml version="1.0" encoding="UTF-8" standalone="no"?>
<!DOCTYPE svg PUBLIC "-//W3C//DTD SVG 1.1//EN"
 "http://www.w3.org/Graphics/SVG/1.1/DTD/svg11.dtd">
<!-- Generated by graphviz version 12.2.1 (20241206.2353)
 -->
<!-- Title: handle_uart_input Pages: 1 -->
<svg width="802pt" height="185pt"
 viewBox="0.00 0.00 802.25 184.88" xmlns="http://www.w3.org/2000/svg" xmlns:xlink="http://www.w3.org/1999/xlink">
<g id="graph0" class="graph" transform="scale(1 1) rotate(0) translate(4 180.88)">
<title>handle_uart_input</title>
<!-- Node1 -->
<g id="Node000001" class="node">
<title>Node1</title>
<g id="a_Node000001"><a xlink:title="Handles UART input.">
<polygon fill="#999999" stroke="#666666" points="92.5,-51.88 0,-51.88 0,-31.88 92.5,-31.88 92.5,-51.88"/>
<text text-anchor="middle" x="46.25" y="-38.38" font-family="Helvetica,sans-Serif" font-size="10.00">handle_uart_input</text>
</a>
</g>
</g>
<!-- Node2 -->
<g id="Node000002" class="node">
<title>Node2</title>
<g id="a_Node000002"><a xlink:href="frame_8cpp.html#a8b9c5fd031b899c6c7867adcde4ac11f" target="_top" xlink:title="Executes a command based on the command key and the parameter.">
<polygon fill="white" stroke="#666666" points="209,-91.88 128.5,-91.88 128.5,-71.88 209,-71.88 209,-91.88"/>
<text text-anchor="middle" x="168.75" y="-78.38" font-family="Helvetica,sans-Serif" font-size="10.00">frame_process</text>
</a>
</g>
</g>
<!-- Node1&#45;&gt;Node2 -->
<g id="edge1_Node000001_Node000002" class="edge">
<title>Node1&#45;&gt;Node2</title>
<g id="a_edge1_Node000001_Node000002"><a xlink:title=" ">
<path fill="none" stroke="#63b8ff" d="M78.6,-52.28C92.85,-57.01 109.93,-62.68 125.31,-67.79"/>
<polygon fill="#63b8ff" stroke="#63b8ff" points="124.11,-71.08 134.71,-70.91 126.32,-64.43 124.11,-71.08"/>
</a>
</g>
</g>
<!-- Node11 -->
<g id="Node000011" class="node">
<title>Node11</title>
<g id="a_Node000011"><a xlink:href="utils_8cpp.html#acd86977d05fa330749958ace0f2798de" target="_top" xlink:title="Prints a message to the UART with a timestamp and core number.">
<polygon fill="white" stroke="#666666" points="761.25,-100.88 704.75,-100.88 704.75,-80.88 761.25,-80.88 761.25,-100.88"/>
<text text-anchor="middle" x="733" y="-87.38" font-family="Helvetica,sans-Serif" font-size="10.00">uart_print</text>
</a>
</g>
</g>
<!-- Node1&#45;&gt;Node11 -->
<g id="edge16_Node000001_Node000011" class="edge">
<title>Node1&#45;&gt;Node11</title>
<g id="a_edge16_Node000001_Node000011"><a xlink:title=" ">
<path fill="none" stroke="#63b8ff" d="M87.85,-31.42C136.37,-19.87 220.17,-2.88 293.25,-2.88 293.25,-2.88 293.25,-2.88 441.75,-2.88 528.38,-2.88 554.66,8.63 635.75,-21.88 666.01,-33.26 695.42,-56.7 713.6,-73.08"/>
<polygon fill="#63b8ff" stroke="#63b8ff" points="710.75,-75.22 720.46,-79.45 715.51,-70.08 710.75,-75.22"/>
</a>
</g>
</g>
<!-- Node3 -->
<g id="Node000003" class="node">
<title>Node3</title>
<g id="a_Node000003"><a xlink:href="group___command_system.html#ga52e8963095eccdf1045309bf31b4d705" target="_top" xlink:title="Executes a command based on its key.">
<polygon fill="white" stroke="#666666" points="343.5,-91.88 245,-91.88 245,-71.88 343.5,-71.88 343.5,-91.88"/>
<text text-anchor="middle" x="294.25" y="-78.38" font-family="Helvetica,sans-Serif" font-size="10.00">execute_command</text>
</a>
</g>
</g>
<!-- Node2&#45;&gt;Node3 -->
<g id="edge2_Node000002_Node000003" class="edge">
<title>Node2&#45;&gt;Node3</title>
<g id="a_edge2_Node000002_Node000003"><a xlink:title=" ">
<path fill="none" stroke="#63b8ff" d="M209.17,-81.88C216.84,-81.88 225.05,-81.88 233.22,-81.88"/>
<polygon fill="#63b8ff" stroke="#63b8ff" points="233.17,-85.38 243.17,-81.88 233.17,-78.38 233.17,-85.38"/>
</a>
</g>
</g>
<!-- Node4 -->
<g id="Node000004" class="node">
<title>Node4</title>
<g id="a_Node000004"><a xlink:href="frame_8cpp.html#a29170691faa10727d607a73861cacbeb" target="_top" xlink:title="Builds a Frame instance.">
<polygon fill="white" stroke="#666666" points="473.88,-59.88 407.62,-59.88 407.62,-39.88 473.88,-39.88 473.88,-59.88"/>
<text text-anchor="middle" x="440.75" y="-46.38" font-family="Helvetica,sans-Serif" font-size="10.00">frame_build</text>
</a>
</g>
</g>
<!-- Node2&#45;&gt;Node4 -->
<g id="edge5_Node000002_Node000004" class="edge">
<title>Node2&#45;&gt;Node4</title>
<g id="a_edge5_Node000002_Node000004"><a xlink:title=" ">
<path fill="none" stroke="#63b8ff" d="M205.46,-71.46C217.87,-68.21 231.96,-64.94 245,-62.88 296.37,-54.74 356.15,-51.69 395.79,-50.55"/>
<polygon fill="#63b8ff" stroke="#63b8ff" points="395.74,-54.05 405.65,-50.3 395.56,-47.05 395.74,-54.05"/>
</a>
</g>
</g>
<!-- Node6 -->
<g id="Node000006" class="node">
<title>Node6</title>
<g id="a_Node000006"><a xlink:href="frame_8cpp.html#a0b3438ff642c0934321101e1f0b8d82d" target="_top" xlink:title="Converts a string into a Frame instance.">
<polygon fill="white" stroke="#666666" points="333,-129.88 255.5,-129.88 255.5,-109.88 333,-109.88 333,-129.88"/>
<text text-anchor="middle" x="294.25" y="-116.38" font-family="Helvetica,sans-Serif" font-size="10.00">frame_decode</text>
</a>
</g>
</g>
<!-- Node2&#45;&gt;Node6 -->
<g id="edge6_Node000002_Node000006" class="edge">
<title>Node2&#45;&gt;Node6</title>
<g id="a_edge6_Node000002_Node000006"><a xlink:title=" ">
<path fill="none" stroke="#63b8ff" d="M203.82,-92.36C217.59,-96.6 233.68,-101.55 248.38,-106.07"/>
<polygon fill="#63b8ff" stroke="#63b8ff" points="247.25,-109.38 257.84,-108.98 249.31,-102.69 247.25,-109.38"/>
</a>
</g>
</g>
<!-- Node7 -->
<g id="Node000007" class="node">
<title>Node7</title>
<g id="a_Node000007"><a xlink:href="send_8cpp.html#ae6c6f3b673e7e83306da7ea2458d3241" target="_top" xlink:title="Sends a Frame using LoRa.">
<polygon fill="white" stroke="#666666" points="474.25,-176.88 407.25,-176.88 407.25,-156.88 474.25,-156.88 474.25,-176.88"/>
<text text-anchor="middle" x="440.75" y="-163.38" font-family="Helvetica,sans-Serif" font-size="10.00">send_frame</text>
</a>
</g>
</g>
<!-- Node2&#45;&gt;Node7 -->
<g id="edge15_Node000002_Node000007" class="edge">
<title>Node2&#45;&gt;Node7</title>
<g id="a_edge15_Node000002_Node000007"><a xlink:title=" ">
<path fill="none" stroke="#63b8ff" d="M179.87,-92.29C193.38,-105.5 218.68,-127.89 245,-138.88 293.91,-159.3 355.09,-165.25 395.69,-166.77"/>
<polygon fill="#63b8ff" stroke="#63b8ff" points="395.46,-170.27 405.56,-167.06 395.67,-163.27 395.46,-170.27"/>
</a>
</g>
</g>
<!-- Node3&#45;&gt;Node4 -->
<g id="edge3_Node000003_Node000004" class="edge">
<title>Node3&#45;&gt;Node4</title>
<g id="a_edge3_Node000003_Node000004"><a xlink:title=" ">
<path fill="none" stroke="#63b8ff" d="M342.56,-71.4C359.98,-67.54 379.61,-63.19 396.64,-59.42"/>
<polygon fill="#63b8ff" stroke="#63b8ff" points="396.92,-62.95 405.93,-57.37 395.41,-56.11 396.92,-62.95"/>
</a>
</g>
</g>
<!-- Node5 -->
<g id="Node000005" class="node">
<title>Node5</title>
<g id="a_Node000005"><a xlink:href="utils__converters_8cpp.html#a29531ed9ad98ab78384a8a2f37f4e77d" target="_top" xlink:title="Converts a ValueUnit to a string.">
<polygon fill="white" stroke="#666666" points="635.75,-62.88 538,-62.88 538,-30.88 635.75,-30.88 635.75,-62.88"/>
<text text-anchor="start" x="546" y="-49.38" font-family="Helvetica,sans-Serif" font-size="10.00">value_unit_type_to</text>
<text text-anchor="middle" x="586.88" y="-37.38" font-family="Helvetica,sans-Serif" font-size="10.00">_string</text>
</a>
</g>
</g>
<!-- Node4&#45;&gt;Node5 -->
<g id="edge4_Node000004_Node000005" class="edge">
<title>Node4&#45;&gt;Node5</title>
<g id="a_edge4_Node000004_Node000005"><a xlink:title=" ">
<path fill="none" stroke="#63b8ff" d="M474.09,-49.2C489.55,-48.88 508.56,-48.49 526.49,-48.11"/>
<polygon fill="#63b8ff" stroke="#63b8ff" points="526.32,-51.62 536.25,-47.91 526.18,-44.62 526.32,-51.62"/>
</a>
</g>
</g>
<!-- Node6&#45;&gt;Node4 -->
<g id="edge7_Node000006_Node000004" class="edge">
<title>Node6&#45;&gt;Node4</title>
<g id="a_edge7_Node000006_Node000004"><a xlink:title=" ">
<path fill="none" stroke="#63b8ff" d="M324.78,-109.4C331.07,-106.85 337.6,-103.96 343.5,-100.88 360.54,-91.97 362.67,-86.17 379.5,-76.88 387.17,-72.64 395.64,-68.52 403.74,-64.83"/>
<polygon fill="#63b8ff" stroke="#63b8ff" points="404.97,-68.12 412.7,-60.87 402.14,-61.72 404.97,-68.12"/>
</a>
</g>
</g>
<!-- Node6&#45;&gt;Node7 -->
<g id="edge8_Node000006_Node000007" class="edge">
<title>Node6&#45;&gt;Node7</title>
<g id="a_edge8_Node000006_Node000007"><a xlink:title=" ">
<path fill="none" stroke="#63b8ff" d="M326.42,-130.36C342.29,-135.67 361.9,-142.18 379.5,-147.88 384.9,-149.63 390.59,-151.45 396.22,-153.24"/>
<polygon fill="#63b8ff" stroke="#63b8ff" points="394.85,-156.47 405.44,-156.16 396.97,-149.8 394.85,-156.47"/>
</a>
</g>
</g>
<!-- Node6&#45;&gt;Node11 -->
<g id="edge14_Node000006_Node000011" class="edge">
<title>Node6&#45;&gt;Node11</title>
<g id="a_edge14_Node000006_Node000011"><a xlink:title=" ">
<path fill="none" stroke="#63b8ff" d="M333.36,-114.83C347.79,-113.05 364.38,-111.18 379.5,-109.88 493.32,-100.06 628.27,-94.47 693.24,-92.15"/>
<polygon fill="#63b8ff" stroke="#63b8ff" points="693.15,-95.65 703.02,-91.81 692.91,-88.66 693.15,-95.65"/>
</a>
</g>
</g>
<!-- Node12 -->
<g id="Node000012" class="node">
<title>Node12</title>
<g id="a_Node000012"><a xlink:href="utils__converters_8cpp.html#a4e9ddea19ddd04177180c2dfae26b15b" target="_top" xlink:title="Converts a string to an OperationType.">
<polygon fill="white" stroke="#666666" points="502,-138.88 379.5,-138.88 379.5,-118.88 502,-118.88 502,-138.88"/>
<text text-anchor="middle" x="440.75" y="-125.38" font-family="Helvetica,sans-Serif" font-size="10.00">string_to_operation_type</text>
</a>
</g>
</g>
<!-- Node6&#45;&gt;Node12 -->
<g id="edge13_Node000006_Node000012" class="edge">
<title>Node6&#45;&gt;Node12</title>
<g id="a_edge13_Node000006_Node000012"><a xlink:title=" ">
<path fill="none" stroke="#63b8ff" d="M333.22,-122.24C343.86,-122.9 355.8,-123.65 367.73,-124.39"/>
<polygon fill="#63b8ff" stroke="#63b8ff" points="367.41,-127.88 377.61,-125.01 367.85,-120.89 367.41,-127.88"/>
</a>
</g>
</g>
<!-- Node8 -->
<g id="Node000008" class="node">
<title>Node8</title>
<g id="a_Node000008"><a xlink:href="frame_8cpp.html#a3ae6df528775be58890bf406c906a056" target="_top" xlink:title="Encodes a Frame instance into a string.">
<polygon fill="white" stroke="#666666" points="625.62,-176.88 548.12,-176.88 548.12,-156.88 625.62,-156.88 625.62,-176.88"/>
<text text-anchor="middle" x="586.88" y="-163.38" font-family="Helvetica,sans-Serif" font-size="10.00">frame_encode</text>
</a>
</g>
</g>
<!-- Node7&#45;&gt;Node8 -->
<g id="edge9_Node000007_Node000008" class="edge">
<title>Node7&#45;&gt;Node8</title>
<g id="a_edge9_Node000007_Node000008"><a xlink:title=" ">
<path fill="none" stroke="#63b8ff" d="M474.45,-166.88C492.73,-166.88 515.88,-166.88 536.33,-166.88"/>
<polygon fill="#63b8ff" stroke="#63b8ff" points="536.17,-170.38 546.17,-166.88 536.17,-163.38 536.17,-170.38"/>
</a>
</g>
</g>
<!-- Node10 -->
<g id="Node000010" class="node">
<title>Node10</title>
<g id="a_Node000010"><a xlink:href="send_8cpp.html#a42881e6476e0ce51ee9f6a99a7318d3b" target="_top" xlink:title="Sends a message using LoRa.">
<polygon fill="white" stroke="#666666" points="627.88,-138.88 545.88,-138.88 545.88,-118.88 627.88,-118.88 627.88,-138.88"/>
<text text-anchor="middle" x="586.88" y="-125.38" font-family="Helvetica,sans-Serif" font-size="10.00">send_message</text>
</a>
</g>
</g>
<!-- Node7&#45;&gt;Node10 -->
<g id="edge11_Node000007_Node000010" class="edge">
<title>Node7&#45;&gt;Node10</title>
<g id="a_edge11_Node000007_Node000010"><a xlink:title=" ">
<path fill="none" stroke="#63b8ff" d="M474.45,-158.25C492.39,-153.52 515.03,-147.56 535.2,-142.24"/>
<polygon fill="#63b8ff" stroke="#63b8ff" points="535.87,-145.68 544.65,-139.75 534.09,-138.91 535.87,-145.68"/>
</a>
</g>
</g>
<!-- Node9 -->
<g id="Node000009" class="node">
<title>Node9</title>
<g id="a_Node000009"><a xlink:href="utils__converters_8cpp.html#ab218e62029b4451e910d8caf0fd05804" target="_top" xlink:title="Converts an OperationType to a string.">
<polygon fill="white" stroke="#666666" points="794.25,-176.88 671.75,-176.88 671.75,-156.88 794.25,-156.88 794.25,-176.88"/>
<text text-anchor="middle" x="733" y="-163.38" font-family="Helvetica,sans-Serif" font-size="10.00">operation_type_to_string</text>
</a>
</g>
</g>
<!-- Node8&#45;&gt;Node9 -->
<g id="edge10_Node000008_Node000009" class="edge">
<title>Node8&#45;&gt;Node9</title>
<g id="a_edge10_Node000008_Node000009"><a xlink:title=" ">
<path fill="none" stroke="#63b8ff" d="M626.12,-166.88C636.61,-166.88 648.34,-166.88 660.06,-166.88"/>
<polygon fill="#63b8ff" stroke="#63b8ff" points="659.74,-170.38 669.74,-166.88 659.74,-163.38 659.74,-170.38"/>
</a>
</g>
</g>
<!-- Node10&#45;&gt;Node11 -->
<g id="edge12_Node000010_Node000011" class="edge">
<title>Node10&#45;&gt;Node11</title>
<g id="a_edge12_Node000010_Node000011"><a xlink:title=" ">
<path fill="none" stroke="#63b8ff" d="M627.64,-118.39C648.21,-112.97 673.21,-106.38 693.59,-101"/>
<polygon fill="#63b8ff" stroke="#63b8ff" points="694.43,-104.4 703.21,-98.47 692.65,-97.63 694.43,-104.4"/>
</a>
</g>
</g>
</g>
</svg>
