<?xml version="1.0" encoding="UTF-8" standalone="no"?>
<!DOCTYPE svg PUBLIC "-//W3C//DTD SVG 1.1//EN"
 "http://www.w3.org/Graphics/SVG/1.1/DTD/svg11.dtd">
<!-- Generated by graphviz version 12.2.1 (20241206.2353)
 -->
<!-- Title: lib/comms/commands/diagnostic_commands.cpp Pages: 1 -->
<svg width="1674pt" height="320pt"
 viewBox="0.00 0.00 1673.50 320.00" xmlns="http://www.w3.org/2000/svg" xmlns:xlink="http://www.w3.org/1999/xlink">
<g id="graph0" class="graph" transform="scale(1 1) rotate(0) translate(4 316)">
<title>lib/comms/commands/diagnostic_commands.cpp</title>
<!-- Node1 -->
<g id="Node000001" class="node">
<title>Node1</title>
<g id="a_Node000001"><a xlink:title=" ">
<polygon fill="#999999" stroke="#666666" points="1196.75,-312 1061.5,-312 1061.5,-280 1196.75,-280 1196.75,-312"/>
<text text-anchor="start" x="1069.5" y="-298.5" font-family="Helvetica,sans-Serif" font-size="10.00">lib/comms/commands</text>
<text text-anchor="middle" x="1129.12" y="-286.5" font-family="Helvetica,sans-Serif" font-size="10.00">/diagnostic_commands.cpp</text>
</a>
</g>
</g>
<!-- Node2 -->
<g id="Node000002" class="node">
<title>Node2</title>
<g id="a_Node000002"><a xlink:href="communication_8h.html" target="_top" xlink:title=" ">
<polygon fill="white" stroke="#666666" points="431.25,-244 341,-244 341,-224 431.25,-224 431.25,-244"/>
<text text-anchor="middle" x="386.12" y="-230.5" font-family="Helvetica,sans-Serif" font-size="10.00">communication.h</text>
</a>
</g>
</g>
<!-- Node1&#45;&gt;Node2 -->
<g id="edge1_Node000001_Node000002" class="edge">
<title>Node1&#45;&gt;Node2</title>
<g id="a_edge1_Node000001_Node000002"><a xlink:title=" ">
<path fill="none" stroke="#63b8ff" d="M1061.22,-289.52C915.89,-277.78 577.04,-250.42 442.57,-239.56"/>
<polygon fill="#63b8ff" stroke="#63b8ff" points="443.1,-236.09 432.85,-238.77 442.54,-243.07 443.1,-236.09"/>
</a>
</g>
</g>
<!-- Node16 -->
<g id="Node000016" class="node">
<title>Node16</title>
<g id="a_Node000016"><a xlink:title=" ">
<polygon fill="#e0e0e0" stroke="#999999" points="1218.38,-76 1149.88,-76 1149.88,-56 1218.38,-56 1218.38,-76"/>
<text text-anchor="middle" x="1184.12" y="-62.5" font-family="Helvetica,sans-Serif" font-size="10.00">pico/stdlib.h</text>
</a>
</g>
</g>
<!-- Node1&#45;&gt;Node16 -->
<g id="edge55_Node000001_Node000016" class="edge">
<title>Node1&#45;&gt;Node16</title>
<g id="a_edge55_Node000001_Node000016"><a xlink:title=" ">
<path fill="none" stroke="#63b8ff" d="M1132.82,-279.69C1142.46,-239.71 1168.4,-132.21 1179.25,-87.22"/>
<polygon fill="#63b8ff" stroke="#63b8ff" points="1182.58,-88.32 1181.53,-77.78 1175.78,-86.68 1182.58,-88.32"/>
</a>
</g>
</g>
<!-- Node34 -->
<g id="Node000034" class="node">
<title>Node34</title>
<g id="a_Node000034"><a xlink:href="commands_8h.html" target="_top" xlink:title=" ">
<polygon fill="white" stroke="#666666" points="1118.25,-244 1046,-244 1046,-224 1118.25,-224 1118.25,-244"/>
<text text-anchor="middle" x="1082.12" y="-230.5" font-family="Helvetica,sans-Serif" font-size="10.00">commands.h</text>
</a>
</g>
</g>
<!-- Node1&#45;&gt;Node34 -->
<g id="edge50_Node000001_Node000034" class="edge">
<title>Node1&#45;&gt;Node34</title>
<g id="a_edge50_Node000001_Node000034"><a xlink:title=" ">
<path fill="none" stroke="#63b8ff" d="M1117.02,-279.55C1110.77,-271.56 1103.09,-261.76 1096.53,-253.39"/>
<polygon fill="#63b8ff" stroke="#63b8ff" points="1099.35,-251.31 1090.43,-245.6 1093.84,-255.63 1099.35,-251.31"/>
</a>
</g>
</g>
<!-- Node35 -->
<g id="Node000035" class="node">
<title>Node35</title>
<g id="a_Node000035"><a xlink:title=" ">
<polygon fill="#e0e0e0" stroke="#999999" points="1285.38,-244 1204.88,-244 1204.88,-224 1285.38,-224 1285.38,-244"/>
<text text-anchor="middle" x="1245.12" y="-230.5" font-family="Helvetica,sans-Serif" font-size="10.00">pico/bootrom.h</text>
</a>
</g>
</g>
<!-- Node1&#45;&gt;Node35 -->
<g id="edge56_Node000001_Node000035" class="edge">
<title>Node1&#45;&gt;Node35</title>
<g id="a_edge56_Node000001_Node000035"><a xlink:title=" ">
<path fill="none" stroke="#63b8ff" d="M1159,-279.55C1176.79,-270.35 1199.23,-258.74 1216.75,-249.68"/>
<polygon fill="#63b8ff" stroke="#63b8ff" points="1218.32,-252.81 1225.59,-245.1 1215.1,-246.59 1218.32,-252.81"/>
</a>
</g>
</g>
<!-- Node3 -->
<g id="Node000003" class="node">
<title>Node3</title>
<g id="a_Node000003"><a xlink:title=" ">
<polygon fill="#e0e0e0" stroke="#999999" points="840.12,-20 800.12,-20 800.12,0 840.12,0 840.12,-20"/>
<text text-anchor="middle" x="820.12" y="-6.5" font-family="Helvetica,sans-Serif" font-size="10.00">string</text>
</a>
</g>
</g>
<!-- Node2&#45;&gt;Node3 -->
<g id="edge2_Node000002_Node000003" class="edge">
<title>Node2&#45;&gt;Node3</title>
<g id="a_edge2_Node000002_Node000003"><a xlink:title=" ">
<path fill="none" stroke="#63b8ff" d="M378.9,-223.67C362.83,-201.72 327.63,-146.1 355.12,-112 410.07,-43.85 692.74,-19.31 788.42,-12.89"/>
<polygon fill="#63b8ff" stroke="#63b8ff" points="788.38,-16.4 798.13,-12.26 787.92,-9.41 788.38,-16.4"/>
</a>
</g>
</g>
<!-- Node4 -->
<g id="Node000004" class="node">
<title>Node4</title>
<g id="a_Node000004"><a xlink:title=" ">
<polygon fill="#e0e0e0" stroke="#999999" points="407.62,-132 364.62,-132 364.62,-112 407.62,-112 407.62,-132"/>
<text text-anchor="middle" x="386.12" y="-118.5" font-family="Helvetica,sans-Serif" font-size="10.00">vector</text>
</a>
</g>
</g>
<!-- Node2&#45;&gt;Node4 -->
<g id="edge3_Node000002_Node000004" class="edge">
<title>Node2&#45;&gt;Node4</title>
<g id="a_edge3_Node000002_Node000004"><a xlink:title=" ">
<path fill="none" stroke="#63b8ff" d="M386.12,-223.62C386.12,-206.01 386.12,-167.59 386.12,-143.65"/>
<polygon fill="#63b8ff" stroke="#63b8ff" points="389.63,-143.87 386.13,-133.87 382.63,-143.87 389.63,-143.87"/>
</a>
</g>
</g>
<!-- Node5 -->
<g id="Node000005" class="node">
<title>Node5</title>
<g id="a_Node000005"><a xlink:href="protocol_8h.html" target="_top" xlink:title=" ">
<polygon fill="white" stroke="#666666" points="721.5,-188 662.75,-188 662.75,-168 721.5,-168 721.5,-188"/>
<text text-anchor="middle" x="692.12" y="-174.5" font-family="Helvetica,sans-Serif" font-size="10.00">protocol.h</text>
</a>
</g>
</g>
<!-- Node2&#45;&gt;Node5 -->
<g id="edge4_Node000002_Node000005" class="edge">
<title>Node2&#45;&gt;Node5</title>
<g id="a_edge4_Node000002_Node000005"><a xlink:title=" ">
<path fill="none" stroke="#63b8ff" d="M431.61,-224.97C491.11,-214.47 594.47,-196.23 651.48,-186.17"/>
<polygon fill="#63b8ff" stroke="#63b8ff" points="651.84,-189.66 661.08,-184.48 650.62,-182.77 651.84,-189.66"/>
</a>
</g>
</g>
<!-- Node33 -->
<g id="Node000033" class="node">
<title>Node33</title>
<g id="a_Node000033"><a xlink:href="event__manager_8h.html" target="_top" xlink:title=" ">
<polygon fill="white" stroke="#666666" points="223.62,-188 132.62,-188 132.62,-168 223.62,-168 223.62,-188"/>
<text text-anchor="middle" x="178.12" y="-174.5" font-family="Helvetica,sans-Serif" font-size="10.00">event_manager.h</text>
</a>
</g>
</g>
<!-- Node2&#45;&gt;Node33 -->
<g id="edge45_Node000002_Node000033" class="edge">
<title>Node2&#45;&gt;Node33</title>
<g id="a_edge45_Node000002_Node000033"><a xlink:title=" ">
<path fill="none" stroke="#63b8ff" d="M349.89,-223.59C315.36,-214.63 263.16,-201.08 225.38,-191.27"/>
<polygon fill="#63b8ff" stroke="#63b8ff" points="226.66,-187.99 216.1,-188.86 224.9,-194.76 226.66,-187.99"/>
</a>
</g>
</g>
<!-- Node5&#45;&gt;Node3 -->
<g id="edge5_Node000005_Node000003" class="edge">
<title>Node5&#45;&gt;Node3</title>
<g id="a_edge5_Node000005_Node000003"><a xlink:title=" ">
<path fill="none" stroke="#63b8ff" d="M721.94,-175.29C775.6,-171.52 884.99,-160.46 908.12,-132 940.45,-92.25 865.03,-107.57 839.12,-76 828.85,-63.47 824.13,-45.6 821.96,-31.76"/>
<polygon fill="#63b8ff" stroke="#63b8ff" points="825.45,-31.47 820.79,-21.96 818.5,-32.31 825.45,-31.47"/>
</a>
</g>
</g>
<!-- Node5&#45;&gt;Node4 -->
<g id="edge8_Node000005_Node000004" class="edge">
<title>Node5&#45;&gt;Node4</title>
<g id="a_edge8_Node000005_Node000004"><a xlink:title=" ">
<path fill="none" stroke="#63b8ff" d="M662.42,-172.84C612.54,-165.68 508.9,-150.05 422.12,-132 420.96,-131.76 419.77,-131.5 418.58,-131.24"/>
<polygon fill="#63b8ff" stroke="#63b8ff" points="419.77,-127.92 409.24,-129.05 418.17,-134.74 419.77,-127.92"/>
</a>
</g>
</g>
<!-- Node6 -->
<g id="Node000006" class="node">
<title>Node6</title>
<g id="a_Node000006"><a xlink:title=" ">
<polygon fill="#e0e0e0" stroke="#999999" points="778.5,-76 743.75,-76 743.75,-56 778.5,-56 778.5,-76"/>
<text text-anchor="middle" x="761.12" y="-62.5" font-family="Helvetica,sans-Serif" font-size="10.00">map</text>
</a>
</g>
</g>
<!-- Node5&#45;&gt;Node6 -->
<g id="edge6_Node000005_Node000006" class="edge">
<title>Node5&#45;&gt;Node6</title>
<g id="a_edge6_Node000005_Node000006"><a xlink:title=" ">
<path fill="none" stroke="#63b8ff" d="M706.4,-167.54C717.65,-159.39 732.93,-146.63 742.12,-132 750.65,-118.43 755.48,-100.89 758.14,-87.45"/>
<polygon fill="#63b8ff" stroke="#63b8ff" points="761.52,-88.43 759.76,-77.98 754.62,-87.25 761.52,-88.43"/>
</a>
</g>
</g>
<!-- Node7 -->
<g id="Node000007" class="node">
<title>Node7</title>
<g id="a_Node000007"><a xlink:title=" ">
<polygon fill="#e0e0e0" stroke="#999999" points="1111.12,-132 1053.12,-132 1053.12,-112 1111.12,-112 1111.12,-132"/>
<text text-anchor="middle" x="1082.12" y="-118.5" font-family="Helvetica,sans-Serif" font-size="10.00">functional</text>
</a>
</g>
</g>
<!-- Node5&#45;&gt;Node7 -->
<g id="edge7_Node000005_Node000007" class="edge">
<title>Node5&#45;&gt;Node7</title>
<g id="a_edge7_Node000005_Node000007"><a xlink:title=" ">
<path fill="none" stroke="#63b8ff" d="M721.96,-174.26C781.05,-168.6 917.33,-154.41 1041.52,-132.31"/>
<polygon fill="#63b8ff" stroke="#63b8ff" points="1042.02,-135.77 1051.24,-130.55 1040.78,-128.89 1042.02,-135.77"/>
</a>
</g>
</g>
<!-- Node8 -->
<g id="Node000008" class="node">
<title>Node8</title>
<g id="a_Node000008"><a xlink:title=" ">
<polygon fill="#e0e0e0" stroke="#999999" points="200.75,-132 155.5,-132 155.5,-112 200.75,-112 200.75,-132"/>
<text text-anchor="middle" x="178.12" y="-118.5" font-family="Helvetica,sans-Serif" font-size="10.00">cstdint</text>
</a>
</g>
</g>
<!-- Node5&#45;&gt;Node8 -->
<g id="edge9_Node000005_Node000008" class="edge">
<title>Node5&#45;&gt;Node8</title>
<g id="a_edge9_Node000005_Node000008"><a xlink:title=" ">
<path fill="none" stroke="#63b8ff" d="M662.45,-176.19C588.03,-173.75 387.4,-164.61 212.26,-132.29"/>
<polygon fill="#63b8ff" stroke="#63b8ff" points="212.99,-128.86 202.52,-130.45 211.7,-135.74 212.99,-128.86"/>
</a>
</g>
</g>
<!-- Node9 -->
<g id="Node000009" class="node">
<title>Node9</title>
<g id="a_Node000009"><a xlink:title=" ">
<polygon fill="#e0e0e0" stroke="#999999" points="839,-132 789.25,-132 789.25,-112 839,-112 839,-132"/>
<text text-anchor="middle" x="814.12" y="-118.5" font-family="Helvetica,sans-Serif" font-size="10.00">iomanip</text>
</a>
</g>
</g>
<!-- Node5&#45;&gt;Node9 -->
<g id="edge10_Node000005_Node000009" class="edge">
<title>Node5&#45;&gt;Node9</title>
<g id="a_edge10_Node000005_Node000009"><a xlink:title=" ">
<path fill="none" stroke="#63b8ff" d="M713.38,-167.59C732.41,-159.17 760.6,-146.69 782.33,-137.07"/>
<polygon fill="#63b8ff" stroke="#63b8ff" points="783.6,-140.34 791.32,-133.09 780.76,-133.94 783.6,-140.34"/>
</a>
</g>
</g>
<!-- Node10 -->
<g id="Node000010" class="node">
<title>Node10</title>
<g id="a_Node000010"><a xlink:href="pin__config_8h.html" target="_top" xlink:title=" ">
<polygon fill="white" stroke="#666666" points="916.38,-76 847.88,-76 847.88,-56 916.38,-56 916.38,-76"/>
<text text-anchor="middle" x="882.12" y="-62.5" font-family="Helvetica,sans-Serif" font-size="10.00">pin_config.h</text>
</a>
</g>
</g>
<!-- Node5&#45;&gt;Node10 -->
<g id="edge11_Node000005_Node000010" class="edge">
<title>Node5&#45;&gt;Node10</title>
<g id="a_edge11_Node000005_Node000010"><a xlink:title=" ">
<path fill="none" stroke="#63b8ff" d="M662.6,-175.91C605.05,-173.1 481.17,-163.45 455.12,-132 449.46,-125.15 449.18,-118.61 455.12,-112 458.3,-108.48 726.46,-82.1 836.15,-71.44"/>
<polygon fill="#63b8ff" stroke="#63b8ff" points="836.36,-74.94 845.98,-70.49 835.69,-67.97 836.36,-74.94"/>
</a>
</g>
</g>
<!-- Node12 -->
<g id="Node000012" class="node">
<title>Node12</title>
<g id="a_Node000012"><a xlink:href="_power_manager_8h.html" target="_top" xlink:title=" ">
<polygon fill="white" stroke="#666666" points="307.88,-132 218.38,-132 218.38,-112 307.88,-112 307.88,-132"/>
<text text-anchor="middle" x="263.12" y="-118.5" font-family="Helvetica,sans-Serif" font-size="10.00">PowerManager.h</text>
</a>
</g>
</g>
<!-- Node5&#45;&gt;Node12 -->
<g id="edge13_Node000005_Node000012" class="edge">
<title>Node5&#45;&gt;Node12</title>
<g id="a_edge13_Node000005_Node000012"><a xlink:title=" ">
<path fill="none" stroke="#63b8ff" d="M662.3,-173.25C591.42,-164.32 411.92,-141.73 319.71,-130.12"/>
<polygon fill="#63b8ff" stroke="#63b8ff" points="320.23,-126.66 309.87,-128.88 319.36,-133.61 320.23,-126.66"/>
</a>
</g>
</g>
<!-- Node18 -->
<g id="Node000018" class="node">
<title>Node18</title>
<g id="a_Node000018"><a xlink:title=" ">
<polygon fill="#e0e0e0" stroke="#999999" points="899.25,-132 857,-132 857,-112 899.25,-112 899.25,-132"/>
<text text-anchor="middle" x="878.12" y="-118.5" font-family="Helvetica,sans-Serif" font-size="10.00">cstdio</text>
</a>
</g>
</g>
<!-- Node5&#45;&gt;Node18 -->
<g id="edge23_Node000005_Node000018" class="edge">
<title>Node5&#45;&gt;Node18</title>
<g id="a_edge23_Node000005_Node000018"><a xlink:title=" ">
<path fill="none" stroke="#63b8ff" d="M721.77,-168.55C750.96,-160.21 797.11,-146.96 845.49,-132.75"/>
<polygon fill="#63b8ff" stroke="#63b8ff" points="846.44,-136.12 855.05,-129.94 844.47,-129.41 846.44,-136.12"/>
</a>
</g>
</g>
<!-- Node19 -->
<g id="Node000019" class="node">
<title>Node19</title>
<g id="a_Node000019"><a xlink:title=" ">
<polygon fill="#e0e0e0" stroke="#999999" points="508.38,-132 463.88,-132 463.88,-112 508.38,-112 508.38,-132"/>
<text text-anchor="middle" x="486.12" y="-118.5" font-family="Helvetica,sans-Serif" font-size="10.00">cstdlib</text>
</a>
</g>
</g>
<!-- Node5&#45;&gt;Node19 -->
<g id="edge24_Node000005_Node000019" class="edge">
<title>Node5&#45;&gt;Node19</title>
<g id="a_edge24_Node000005_Node000019"><a xlink:title=" ">
<path fill="none" stroke="#63b8ff" d="M662.33,-169.63C629.62,-161.49 575.3,-147.77 519.88,-132.7"/>
<polygon fill="#63b8ff" stroke="#63b8ff" points="520.82,-129.33 510.25,-130.07 518.97,-136.08 520.82,-129.33"/>
</a>
</g>
</g>
<!-- Node20 -->
<g id="Node000020" class="node">
<title>Node20</title>
<g id="a_Node000020"><a xlink:title=" ">
<polygon fill="#e0e0e0" stroke="#999999" points="571.75,-132 526.5,-132 526.5,-112 571.75,-112 571.75,-132"/>
<text text-anchor="middle" x="549.12" y="-118.5" font-family="Helvetica,sans-Serif" font-size="10.00">cstring</text>
</a>
</g>
</g>
<!-- Node5&#45;&gt;Node20 -->
<g id="edge25_Node000005_Node000020" class="edge">
<title>Node5&#45;&gt;Node20</title>
<g id="a_edge25_Node000005_Node000020"><a xlink:title=" ">
<path fill="none" stroke="#63b8ff" d="M667.22,-167.59C643.69,-158.71 608.24,-145.32 582.33,-135.54"/>
<polygon fill="#63b8ff" stroke="#63b8ff" points="583.87,-132.38 573.28,-132.12 581.4,-138.93 583.87,-132.38"/>
</a>
</g>
</g>
<!-- Node21 -->
<g id="Node000021" class="node">
<title>Node21</title>
<g id="a_Node000021"><a xlink:href="utils_8h.html" target="_top" xlink:title=" ">
<polygon fill="white" stroke="#666666" points="1035.25,-132 993,-132 993,-112 1035.25,-112 1035.25,-132"/>
<text text-anchor="middle" x="1014.12" y="-118.5" font-family="Helvetica,sans-Serif" font-size="10.00">utils.h</text>
</a>
</g>
</g>
<!-- Node5&#45;&gt;Node21 -->
<g id="edge26_Node000005_Node000021" class="edge">
<title>Node5&#45;&gt;Node21</title>
<g id="a_edge26_Node000005_Node000021"><a xlink:title=" ">
<path fill="none" stroke="#63b8ff" d="M721.84,-172.02C782.25,-161.89 918.95,-138.96 981.62,-128.45"/>
<polygon fill="#63b8ff" stroke="#63b8ff" points="982,-131.94 991.29,-126.83 980.85,-125.03 982,-131.94"/>
</a>
</g>
</g>
<!-- Node24 -->
<g id="Node000024" class="node">
<title>Node24</title>
<g id="a_Node000024"><a xlink:title=" ">
<polygon fill="#e0e0e0" stroke="#999999" points="632.62,-132 589.62,-132 589.62,-112 632.62,-112 632.62,-132"/>
<text text-anchor="middle" x="611.12" y="-118.5" font-family="Helvetica,sans-Serif" font-size="10.00">time.h</text>
</a>
</g>
</g>
<!-- Node5&#45;&gt;Node24 -->
<g id="edge32_Node000005_Node000024" class="edge">
<title>Node5&#45;&gt;Node24</title>
<g id="a_edge32_Node000005_Node000024"><a xlink:title=" ">
<path fill="none" stroke="#63b8ff" d="M678.02,-167.59C666.13,-159.67 648.86,-148.16 634.85,-138.82"/>
<polygon fill="#63b8ff" stroke="#63b8ff" points="636.87,-135.95 626.6,-133.32 632.98,-141.78 636.87,-135.95"/>
</a>
</g>
</g>
<!-- Node25 -->
<g id="Node000025" class="node">
<title>Node25</title>
<g id="a_Node000025"><a xlink:href="build__number_8h.html" target="_top" xlink:title=" ">
<polygon fill="white" stroke="#666666" points="733.12,-132 651.12,-132 651.12,-112 733.12,-112 733.12,-132"/>
<text text-anchor="middle" x="692.12" y="-118.5" font-family="Helvetica,sans-Serif" font-size="10.00">build_number.h</text>
</a>
</g>
</g>
<!-- Node5&#45;&gt;Node25 -->
<g id="edge33_Node000005_Node000025" class="edge">
<title>Node5&#45;&gt;Node25</title>
<g id="a_edge33_Node000005_Node000025"><a xlink:title=" ">
<path fill="none" stroke="#63b8ff" d="M692.12,-167.59C692.12,-161.01 692.12,-151.96 692.12,-143.73"/>
<polygon fill="#63b8ff" stroke="#63b8ff" points="695.63,-143.81 692.13,-133.81 688.63,-143.81 695.63,-143.81"/>
</a>
</g>
</g>
<!-- Node26 -->
<g id="Node000026" class="node">
<title>Node26</title>
<g id="a_Node000026"><a xlink:href="_lo_ra-_r_p2040_8h.html" target="_top" xlink:title=" ">
<polygon fill="white" stroke="#666666" points="1373.12,-132 1261.12,-132 1261.12,-112 1373.12,-112 1373.12,-132"/>
<text text-anchor="middle" x="1317.12" y="-118.5" font-family="Helvetica,sans-Serif" font-size="10.00">LoRa/LoRa&#45;RP2040.h</text>
</a>
</g>
</g>
<!-- Node5&#45;&gt;Node26 -->
<g id="edge34_Node000005_Node000026" class="edge">
<title>Node5&#45;&gt;Node26</title>
<g id="a_edge34_Node000005_Node000026"><a xlink:title=" ">
<path fill="none" stroke="#63b8ff" d="M721.85,-174.43C816.85,-166.22 1114.74,-140.49 1249.6,-128.83"/>
<polygon fill="#63b8ff" stroke="#63b8ff" points="1249.8,-132.33 1259.46,-127.98 1249.2,-125.36 1249.8,-132.33"/>
</a>
</g>
</g>
<!-- Node11 -->
<g id="Node000011" class="node">
<title>Node11</title>
<g id="a_Node000011"><a xlink:title=" ">
<polygon fill="#e0e0e0" stroke="#999999" points="530.25,-20 482,-20 482,0 530.25,0 530.25,-20"/>
<text text-anchor="middle" x="506.12" y="-6.5" font-family="Helvetica,sans-Serif" font-size="10.00">stdint.h</text>
</a>
</g>
</g>
<!-- Node10&#45;&gt;Node11 -->
<g id="edge12_Node000010_Node000011" class="edge">
<title>Node10&#45;&gt;Node11</title>
<g id="a_edge12_Node000010_Node000011"><a xlink:title=" ">
<path fill="none" stroke="#63b8ff" d="M847.43,-60.02C776.13,-49.78 613.82,-26.47 541.74,-16.12"/>
<polygon fill="#63b8ff" stroke="#63b8ff" points="542.47,-12.68 532.08,-14.73 541.48,-19.61 542.47,-12.68"/>
</a>
</g>
</g>
<!-- Node12&#45;&gt;Node3 -->
<g id="edge19_Node000012_Node000003" class="edge">
<title>Node12&#45;&gt;Node3</title>
<g id="a_edge19_Node000012_Node000003"><a xlink:title=" ">
<path fill="none" stroke="#63b8ff" d="M268.25,-111.91C277.1,-97.22 296.75,-68.63 322.12,-56 363.8,-35.25 685.35,-17.68 788.43,-12.53"/>
<polygon fill="#63b8ff" stroke="#63b8ff" points="788.56,-16.02 798.38,-12.04 788.22,-9.03 788.56,-16.02"/>
</a>
</g>
</g>
<!-- Node12&#45;&gt;Node6 -->
<g id="edge18_Node000012_Node000006" class="edge">
<title>Node12&#45;&gt;Node6</title>
<g id="a_edge18_Node000012_Node000006"><a xlink:title=" ">
<path fill="none" stroke="#63b8ff" d="M308.2,-116.11C408.73,-105.21 649,-79.16 732.19,-70.14"/>
<polygon fill="#63b8ff" stroke="#63b8ff" points="732.43,-73.63 742,-69.07 731.68,-66.67 732.43,-73.63"/>
</a>
</g>
</g>
<!-- Node13 -->
<g id="Node000013" class="node">
<title>Node13</title>
<g id="a_Node000013"><a xlink:href="_i_n_a3221_8h.html" target="_top" xlink:title=" ">
<polygon fill="white" stroke="#666666" points="232,-76 128.25,-76 128.25,-56 232,-56 232,-76"/>
<text text-anchor="middle" x="180.12" y="-62.5" font-family="Helvetica,sans-Serif" font-size="10.00">INA3221/INA3221.h</text>
</a>
</g>
</g>
<!-- Node12&#45;&gt;Node13 -->
<g id="edge14_Node000012_Node000013" class="edge">
<title>Node12&#45;&gt;Node13</title>
<g id="a_edge14_Node000012_Node000013"><a xlink:title=" ">
<path fill="none" stroke="#63b8ff" d="M248.67,-111.59C236.37,-103.59 218.45,-91.93 204.02,-82.54"/>
<polygon fill="#63b8ff" stroke="#63b8ff" points="206.25,-79.82 195.96,-77.3 202.44,-85.69 206.25,-79.82"/>
</a>
</g>
</g>
<!-- Node15 -->
<g id="Node000015" class="node">
<title>Node15</title>
<g id="a_Node000015"><a xlink:title=" ">
<polygon fill="#e0e0e0" stroke="#999999" points="140,-20 60.25,-20 60.25,0 140,0 140,-20"/>
<text text-anchor="middle" x="100.12" y="-6.5" font-family="Helvetica,sans-Serif" font-size="10.00">hardware/i2c.h</text>
</a>
</g>
</g>
<!-- Node12&#45;&gt;Node15 -->
<g id="edge20_Node000012_Node000015" class="edge">
<title>Node12&#45;&gt;Node15</title>
<g id="a_edge20_Node000012_Node000015"><a xlink:title=" ">
<path fill="none" stroke="#63b8ff" d="M218.04,-111.79C181.22,-103.41 133.07,-90.21 119.12,-76 107.53,-64.19 102.94,-45.71 101.16,-31.48"/>
<polygon fill="#63b8ff" stroke="#63b8ff" points="104.68,-31.5 100.34,-21.83 97.7,-32.09 104.68,-31.5"/>
</a>
</g>
</g>
<!-- Node12&#45;&gt;Node16 -->
<g id="edge21_Node000012_Node000016" class="edge">
<title>Node12&#45;&gt;Node16</title>
<g id="a_edge21_Node000012_Node000016"><a xlink:title=" ">
<path fill="none" stroke="#63b8ff" d="M308.01,-116.18C322.98,-114.69 339.76,-113.14 355.12,-112 670.22,-88.61 749.79,-95.92 1065.12,-76 1089.23,-74.48 1116.05,-72.48 1138.12,-70.75"/>
<polygon fill="#63b8ff" stroke="#63b8ff" points="1138.31,-74.24 1148,-69.97 1137.76,-67.26 1138.31,-74.24"/>
</a>
</g>
</g>
<!-- Node17 -->
<g id="Node000017" class="node">
<title>Node17</title>
<g id="a_Node000017"><a xlink:title=" ">
<polygon fill="#e0e0e0" stroke="#999999" points="72.25,-76 0,-76 0,-56 72.25,-56 72.25,-76"/>
<text text-anchor="middle" x="36.12" y="-62.5" font-family="Helvetica,sans-Serif" font-size="10.00">pico/mutex.h</text>
</a>
</g>
</g>
<!-- Node12&#45;&gt;Node17 -->
<g id="edge22_Node000012_Node000017" class="edge">
<title>Node12&#45;&gt;Node17</title>
<g id="a_edge22_Node000012_Node000017"><a xlink:title=" ">
<path fill="none" stroke="#63b8ff" d="M223.32,-111.53C184.39,-102.27 125.07,-88.16 83.67,-78.31"/>
<polygon fill="#63b8ff" stroke="#63b8ff" points="84.51,-74.91 73.97,-76 82.89,-81.72 84.51,-74.91"/>
</a>
</g>
</g>
<!-- Node13&#45;&gt;Node11 -->
<g id="edge15_Node000013_Node000011" class="edge">
<title>Node13&#45;&gt;Node11</title>
<g id="a_edge15_Node000013_Node000011"><a xlink:title=" ">
<path fill="none" stroke="#63b8ff" d="M232.14,-56.38C298.91,-45.32 412.98,-26.43 470.6,-16.88"/>
<polygon fill="#63b8ff" stroke="#63b8ff" points="470.88,-20.39 480.18,-15.3 469.74,-13.48 470.88,-20.39"/>
</a>
</g>
</g>
<!-- Node14 -->
<g id="Node000014" class="node">
<title>Node14</title>
<g id="a_Node000014"><a xlink:title=" ">
<polygon fill="#e0e0e0" stroke="#999999" points="211.88,-20 158.38,-20 158.38,0 211.88,0 211.88,-20"/>
<text text-anchor="middle" x="185.12" y="-6.5" font-family="Helvetica,sans-Serif" font-size="10.00">iostream</text>
</a>
</g>
</g>
<!-- Node13&#45;&gt;Node14 -->
<g id="edge16_Node000013_Node000014" class="edge">
<title>Node13&#45;&gt;Node14</title>
<g id="a_edge16_Node000013_Node000014"><a xlink:title=" ">
<path fill="none" stroke="#63b8ff" d="M181,-55.59C181.61,-49.01 182.44,-39.96 183.21,-31.73"/>
<polygon fill="#63b8ff" stroke="#63b8ff" points="186.69,-32.09 184.12,-21.81 179.72,-31.44 186.69,-32.09"/>
</a>
</g>
</g>
<!-- Node13&#45;&gt;Node15 -->
<g id="edge17_Node000013_Node000015" class="edge">
<title>Node13&#45;&gt;Node15</title>
<g id="a_edge17_Node000013_Node000015"><a xlink:title=" ">
<path fill="none" stroke="#63b8ff" d="M166.19,-55.59C154.45,-47.67 137.39,-36.16 123.56,-26.82"/>
<polygon fill="#63b8ff" stroke="#63b8ff" points="125.67,-24.02 115.42,-21.33 121.75,-29.82 125.67,-24.02"/>
</a>
</g>
</g>
<!-- Node21&#45;&gt;Node3 -->
<g id="edge28_Node000021_Node000003" class="edge">
<title>Node21&#45;&gt;Node3</title>
<g id="a_edge28_Node000021_Node000003"><a xlink:title=" ">
<path fill="none" stroke="#63b8ff" d="M1003.16,-111.72C986.89,-98.26 955.05,-73.05 925.12,-56 901.32,-42.44 872.62,-30.4 851.25,-22.2"/>
<polygon fill="#63b8ff" stroke="#63b8ff" points="852.52,-18.94 841.92,-18.7 850.05,-25.49 852.52,-18.94"/>
</a>
</g>
</g>
<!-- Node21&#45;&gt;Node10 -->
<g id="edge31_Node000021_Node000010" class="edge">
<title>Node21&#45;&gt;Node10</title>
<g id="a_edge31_Node000021_Node000010"><a xlink:title=" ">
<path fill="none" stroke="#63b8ff" d="M992.62,-112.2C971.72,-103.65 939.66,-90.54 915.45,-80.63"/>
<polygon fill="#63b8ff" stroke="#63b8ff" points="916.93,-77.46 906.35,-76.91 914.28,-83.94 916.93,-77.46"/>
</a>
</g>
</g>
<!-- Node21&#45;&gt;Node16 -->
<g id="edge29_Node000021_Node000016" class="edge">
<title>Node21&#45;&gt;Node16</title>
<g id="a_edge29_Node000021_Node000016"><a xlink:title=" ">
<path fill="none" stroke="#63b8ff" d="M1035.66,-114.16C1062.71,-105.57 1109.68,-90.65 1143.56,-79.89"/>
<polygon fill="#63b8ff" stroke="#63b8ff" points="1144.59,-83.23 1153.06,-76.87 1142.47,-76.56 1144.59,-83.23"/>
</a>
</g>
</g>
<!-- Node22 -->
<g id="Node000022" class="node">
<title>Node22</title>
<g id="a_Node000022"><a xlink:title=" ">
<polygon fill="#e0e0e0" stroke="#999999" points="1366.75,-20 1321.5,-20 1321.5,0 1366.75,0 1366.75,-20"/>
<text text-anchor="middle" x="1344.12" y="-6.5" font-family="Helvetica,sans-Serif" font-size="10.00">stdio.h</text>
</a>
</g>
</g>
<!-- Node21&#45;&gt;Node22 -->
<g id="edge27_Node000021_Node000022" class="edge">
<title>Node21&#45;&gt;Node22</title>
<g id="a_edge27_Node000021_Node000022"><a xlink:title=" ">
<path fill="none" stroke="#63b8ff" d="M1029.19,-111.67C1052.41,-97.68 1098.71,-71.27 1141.12,-56 1198.62,-35.3 1268.85,-22.3 1309.82,-15.87"/>
<polygon fill="#63b8ff" stroke="#63b8ff" points="1310.21,-19.35 1319.57,-14.38 1309.15,-12.43 1310.21,-19.35"/>
</a>
</g>
</g>
<!-- Node23 -->
<g id="Node000023" class="node">
<title>Node23</title>
<g id="a_Node000023"><a xlink:title=" ">
<polygon fill="#e0e0e0" stroke="#999999" points="1055.88,-76 972.38,-76 972.38,-56 1055.88,-56 1055.88,-76"/>
<text text-anchor="middle" x="1014.12" y="-62.5" font-family="Helvetica,sans-Serif" font-size="10.00">hardware/uart.h</text>
</a>
</g>
</g>
<!-- Node21&#45;&gt;Node23 -->
<g id="edge30_Node000021_Node000023" class="edge">
<title>Node21&#45;&gt;Node23</title>
<g id="a_edge30_Node000021_Node000023"><a xlink:title=" ">
<path fill="none" stroke="#63b8ff" d="M1014.12,-111.59C1014.12,-105.01 1014.12,-95.96 1014.12,-87.73"/>
<polygon fill="#63b8ff" stroke="#63b8ff" points="1017.63,-87.81 1014.13,-77.81 1010.63,-87.81 1017.63,-87.81"/>
</a>
</g>
</g>
<!-- Node26&#45;&gt;Node10 -->
<g id="edge44_Node000026_Node000010" class="edge">
<title>Node26&#45;&gt;Node10</title>
<g id="a_edge44_Node000026_Node000010"><a xlink:title=" ">
<path fill="none" stroke="#63b8ff" d="M1260.7,-114C1173.61,-103.18 1008.11,-82.64 927.94,-72.69"/>
<polygon fill="#63b8ff" stroke="#63b8ff" points="928.6,-69.24 918.25,-71.48 927.74,-76.19 928.6,-69.24"/>
</a>
</g>
</g>
<!-- Node26&#45;&gt;Node16 -->
<g id="edge35_Node000026_Node000016" class="edge">
<title>Node26&#45;&gt;Node16</title>
<g id="a_edge35_Node000026_Node000016"><a xlink:title=" ">
<path fill="none" stroke="#63b8ff" d="M1293.96,-111.59C1272.92,-103.05 1241.63,-90.35 1217.82,-80.68"/>
<polygon fill="#63b8ff" stroke="#63b8ff" points="1219.46,-77.57 1208.87,-77.05 1216.82,-84.05 1219.46,-77.57"/>
</a>
</g>
</g>
<!-- Node27 -->
<g id="Node000027" class="node">
<title>Node27</title>
<g id="a_Node000027"><a xlink:title=" ">
<polygon fill="#e0e0e0" stroke="#999999" points="1492.38,-76 1399.88,-76 1399.88,-56 1492.38,-56 1492.38,-76"/>
<text text-anchor="middle" x="1446.12" y="-62.5" font-family="Helvetica,sans-Serif" font-size="10.00">pico/binary_info.h</text>
</a>
</g>
</g>
<!-- Node26&#45;&gt;Node27 -->
<g id="edge36_Node000026_Node000027" class="edge">
<title>Node26&#45;&gt;Node27</title>
<g id="a_edge36_Node000026_Node000027"><a xlink:title=" ">
<path fill="none" stroke="#63b8ff" d="M1339.6,-111.59C1359.91,-103.09 1390.08,-90.46 1413.13,-80.81"/>
<polygon fill="#63b8ff" stroke="#63b8ff" points="1414.21,-84.15 1422.08,-77.06 1411.51,-77.7 1414.21,-84.15"/>
</a>
</g>
</g>
<!-- Node28 -->
<g id="Node000028" class="node">
<title>Node28</title>
<g id="a_Node000028"><a xlink:title=" ">
<polygon fill="#e0e0e0" stroke="#999999" points="1595.62,-76 1510.62,-76 1510.62,-56 1595.62,-56 1595.62,-76"/>
<text text-anchor="middle" x="1553.12" y="-62.5" font-family="Helvetica,sans-Serif" font-size="10.00">hardware/gpio.h</text>
</a>
</g>
</g>
<!-- Node26&#45;&gt;Node28 -->
<g id="edge37_Node000026_Node000028" class="edge">
<title>Node26&#45;&gt;Node28</title>
<g id="a_edge37_Node000026_Node000028"><a xlink:title=" ">
<path fill="none" stroke="#63b8ff" d="M1358.5,-111.53C1398.06,-102.48 1457.87,-88.8 1500.73,-78.99"/>
<polygon fill="#63b8ff" stroke="#63b8ff" points="1501.35,-82.44 1510.32,-76.79 1499.79,-75.61 1501.35,-82.44"/>
</a>
</g>
</g>
<!-- Node29 -->
<g id="Node000029" class="node">
<title>Node29</title>
<g id="a_Node000029"><a xlink:title=" ">
<polygon fill="#e0e0e0" stroke="#999999" points="1316,-76 1236.25,-76 1236.25,-56 1316,-56 1316,-76"/>
<text text-anchor="middle" x="1276.12" y="-62.5" font-family="Helvetica,sans-Serif" font-size="10.00">hardware/spi.h</text>
</a>
</g>
</g>
<!-- Node26&#45;&gt;Node29 -->
<g id="edge38_Node000026_Node000029" class="edge">
<title>Node26&#45;&gt;Node29</title>
<g id="a_edge38_Node000026_Node000029"><a xlink:title=" ">
<path fill="none" stroke="#63b8ff" d="M1309.98,-111.59C1304.52,-104.39 1296.8,-94.23 1290.12,-85.43"/>
<polygon fill="#63b8ff" stroke="#63b8ff" points="1292.93,-83.35 1284.1,-77.5 1287.36,-87.58 1292.93,-83.35"/>
</a>
</g>
</g>
<!-- Node30 -->
<g id="Node000030" class="node">
<title>Node30</title>
<g id="a_Node000030"><a xlink:title=" ">
<polygon fill="#e0e0e0" stroke="#999999" points="1382.25,-76 1334,-76 1334,-56 1382.25,-56 1382.25,-76"/>
<text text-anchor="middle" x="1358.12" y="-62.5" font-family="Helvetica,sans-Serif" font-size="10.00">string.h</text>
</a>
</g>
</g>
<!-- Node26&#45;&gt;Node30 -->
<g id="edge39_Node000026_Node000030" class="edge">
<title>Node26&#45;&gt;Node30</title>
<g id="a_edge39_Node000026_Node000030"><a xlink:title=" ">
<path fill="none" stroke="#63b8ff" d="M1324.27,-111.59C1329.73,-104.39 1337.45,-94.23 1344.13,-85.43"/>
<polygon fill="#63b8ff" stroke="#63b8ff" points="1346.89,-87.58 1350.15,-77.5 1341.32,-83.35 1346.89,-87.58"/>
</a>
</g>
</g>
<!-- Node31 -->
<g id="Node000031" class="node">
<title>Node31</title>
<g id="a_Node000031"><a xlink:href="_print_8h.html" target="_top" xlink:title=" ">
<polygon fill="white" stroke="#666666" points="1658.38,-76 1613.88,-76 1613.88,-56 1658.38,-56 1658.38,-76"/>
<text text-anchor="middle" x="1636.12" y="-62.5" font-family="Helvetica,sans-Serif" font-size="10.00">Print.h</text>
</a>
</g>
</g>
<!-- Node26&#45;&gt;Node31 -->
<g id="edge40_Node000026_Node000031" class="edge">
<title>Node26&#45;&gt;Node31</title>
<g id="a_edge40_Node000026_Node000031"><a xlink:title=" ">
<path fill="none" stroke="#63b8ff" d="M1373.54,-114.35C1429.44,-107.27 1517.67,-94.81 1602.4,-76.38"/>
<polygon fill="#63b8ff" stroke="#63b8ff" points="1603.04,-79.83 1612.05,-74.25 1601.53,-72.99 1603.04,-79.83"/>
</a>
</g>
</g>
<!-- Node31&#45;&gt;Node3 -->
<g id="edge43_Node000031_Node000003" class="edge">
<title>Node31&#45;&gt;Node3</title>
<g id="a_edge43_Node000031_Node000003"><a xlink:title=" ">
<path fill="none" stroke="#63b8ff" d="M1613.58,-57.82C1610.75,-57.11 1607.89,-56.47 1605.12,-56 1456.38,-30.48 978.94,-15.47 851.59,-11.86"/>
<polygon fill="#63b8ff" stroke="#63b8ff" points="851.99,-8.37 841.9,-11.59 851.8,-15.36 851.99,-8.37"/>
</a>
</g>
</g>
<!-- Node31&#45;&gt;Node22 -->
<g id="edge42_Node000031_Node000022" class="edge">
<title>Node31&#45;&gt;Node22</title>
<g id="a_edge42_Node000031_Node000022"><a xlink:title=" ">
<path fill="none" stroke="#63b8ff" d="M1613.51,-58.12C1610.7,-57.36 1607.86,-56.63 1605.12,-56 1524.45,-37.4 1428.14,-22.7 1378.1,-15.62"/>
<polygon fill="#63b8ff" stroke="#63b8ff" points="1378.88,-12.19 1368.49,-14.27 1377.91,-19.13 1378.88,-12.19"/>
</a>
</g>
</g>
<!-- Node32 -->
<g id="Node000032" class="node">
<title>Node32</title>
<g id="a_Node000032"><a xlink:title=" ">
<polygon fill="#e0e0e0" stroke="#999999" points="1665.5,-20 1606.75,-20 1606.75,0 1665.5,0 1665.5,-20"/>
<text text-anchor="middle" x="1636.12" y="-6.5" font-family="Helvetica,sans-Serif" font-size="10.00">inttypes.h</text>
</a>
</g>
</g>
<!-- Node31&#45;&gt;Node32 -->
<g id="edge41_Node000031_Node000032" class="edge">
<title>Node31&#45;&gt;Node32</title>
<g id="a_edge41_Node000031_Node000032"><a xlink:title=" ">
<path fill="none" stroke="#63b8ff" d="M1636.12,-55.59C1636.12,-49.01 1636.12,-39.96 1636.12,-31.73"/>
<polygon fill="#63b8ff" stroke="#63b8ff" points="1639.63,-31.81 1636.13,-21.81 1632.63,-31.81 1639.63,-31.81"/>
</a>
</g>
</g>
<!-- Node33&#45;&gt;Node3 -->
<g id="edge48_Node000033_Node000003" class="edge">
<title>Node33&#45;&gt;Node3</title>
<g id="a_edge48_Node000033_Node000003"><a xlink:title=" ">
<path fill="none" stroke="#63b8ff" d="M167.48,-167.71C153.84,-154.65 133.4,-130.42 146.12,-112 171.78,-74.84 198.94,-92.1 241.12,-76 264.26,-67.17 268.99,-61.55 293.12,-56 477.17,-13.65 705.63,-10.3 788.36,-10.62"/>
<polygon fill="#63b8ff" stroke="#63b8ff" points="788.17,-14.12 798.19,-10.69 788.21,-7.12 788.17,-14.12"/>
</a>
</g>
</g>
<!-- Node33&#45;&gt;Node8 -->
<g id="edge47_Node000033_Node000008" class="edge">
<title>Node33&#45;&gt;Node8</title>
<g id="a_edge47_Node000033_Node000008"><a xlink:title=" ">
<path fill="none" stroke="#63b8ff" d="M178.12,-167.59C178.12,-161.01 178.12,-151.96 178.12,-143.73"/>
<polygon fill="#63b8ff" stroke="#63b8ff" points="181.63,-143.81 178.13,-133.81 174.63,-143.81 181.63,-143.81"/>
</a>
</g>
</g>
<!-- Node33&#45;&gt;Node12 -->
<g id="edge46_Node000033_Node000012" class="edge">
<title>Node33&#45;&gt;Node12</title>
<g id="a_edge46_Node000033_Node000012"><a xlink:title=" ">
<path fill="none" stroke="#63b8ff" d="M192.93,-167.59C205.53,-159.59 223.88,-147.93 238.66,-138.54"/>
<polygon fill="#63b8ff" stroke="#63b8ff" points="240.36,-141.61 246.93,-133.29 236.61,-135.7 240.36,-141.61"/>
</a>
</g>
</g>
<!-- Node33&#45;&gt;Node17 -->
<g id="edge49_Node000033_Node000017" class="edge">
<title>Node33&#45;&gt;Node17</title>
<g id="a_edge49_Node000033_Node000017"><a xlink:title=" ">
<path fill="none" stroke="#63b8ff" d="M163.64,-167.55C150.28,-158.7 130.02,-144.93 113.12,-132 92.65,-116.33 70.22,-97.15 54.88,-83.7"/>
<polygon fill="#63b8ff" stroke="#63b8ff" points="57.28,-81.15 47.46,-77.16 52.64,-86.4 57.28,-81.15"/>
</a>
</g>
</g>
<!-- Node34&#45;&gt;Node3 -->
<g id="edge51_Node000034_Node000003" class="edge">
<title>Node34&#45;&gt;Node3</title>
<g id="a_edge51_Node000034_Node000003"><a xlink:title=" ">
<path fill="none" stroke="#63b8ff" d="M1089.4,-223.71C1104.55,-203.18 1136.71,-152.56 1120.12,-112 1106.92,-79.71 1095.94,-72.36 1065.12,-56 995.4,-18.99 900.55,-11.88 851.85,-10.85"/>
<polygon fill="#63b8ff" stroke="#63b8ff" points="852.07,-7.35 842.02,-10.72 851.98,-14.35 852.07,-7.35"/>
</a>
</g>
</g>
<!-- Node34&#45;&gt;Node5 -->
<g id="edge54_Node000034_Node000005" class="edge">
<title>Node34&#45;&gt;Node5</title>
<g id="a_edge54_Node000034_Node000005"><a xlink:title=" ">
<path fill="none" stroke="#63b8ff" d="M1045.78,-227.97C972.94,-217.88 809.51,-195.25 733.04,-184.66"/>
<polygon fill="#63b8ff" stroke="#63b8ff" points="733.86,-181.25 723.47,-183.34 732.9,-188.18 733.86,-181.25"/>
</a>
</g>
</g>
<!-- Node34&#45;&gt;Node6 -->
<g id="edge53_Node000034_Node000006" class="edge">
<title>Node34&#45;&gt;Node6</title>
<g id="a_edge53_Node000034_Node000006"><a xlink:title=" ">
<path fill="none" stroke="#63b8ff" d="M1071.48,-223.79C1045.35,-201.6 975.31,-144.65 908.12,-112 869.13,-93.05 820.44,-80.03 790.05,-73.05"/>
<polygon fill="#63b8ff" stroke="#63b8ff" points="790.99,-69.67 780.46,-70.91 789.46,-76.5 790.99,-69.67"/>
</a>
</g>
</g>
<!-- Node34&#45;&gt;Node7 -->
<g id="edge52_Node000034_Node000007" class="edge">
<title>Node34&#45;&gt;Node7</title>
<g id="a_edge52_Node000034_Node000007"><a xlink:title=" ">
<path fill="none" stroke="#63b8ff" d="M1082.12,-223.62C1082.12,-206.01 1082.12,-167.59 1082.12,-143.65"/>
<polygon fill="#63b8ff" stroke="#63b8ff" points="1085.63,-143.87 1082.13,-133.87 1078.63,-143.87 1085.63,-143.87"/>
</a>
</g>
</g>
</g>
</svg>
