<?xml version="1.0" encoding="UTF-8" standalone="no"?>
<!DOCTYPE svg PUBLIC "-//W3C//DTD SVG 1.1//EN"
 "http://www.w3.org/Graphics/SVG/1.1/DTD/svg11.dtd">
<!-- Generated by graphviz version 12.2.1 (20241206.2353)
 -->
<!-- Title: lib/comms/commands/diagnostic_commands.cpp Pages: 1 -->
<svg width="1558pt" height="320pt"
 viewBox="0.00 0.00 1557.50 320.00" xmlns="http://www.w3.org/2000/svg" xmlns:xlink="http://www.w3.org/1999/xlink">
<g id="graph0" class="graph" transform="scale(1 1) rotate(0) translate(4 316)">
<title>lib/comms/commands/diagnostic_commands.cpp</title>
<!-- Node1 -->
<g id="Node000001" class="node">
<title>Node1</title>
<g id="a_Node000001"><a xlink:title=" ">
<polygon fill="#999999" stroke="#666666" points="696.5,-312 561.25,-312 561.25,-280 696.5,-280 696.5,-312"/>
<text text-anchor="start" x="569.25" y="-298.5" font-family="Helvetica,sans-Serif" font-size="10.00">lib/comms/commands</text>
<text text-anchor="middle" x="628.88" y="-286.5" font-family="Helvetica,sans-Serif" font-size="10.00">/diagnostic_commands.cpp</text>
</a>
</g>
</g>
<!-- Node2 -->
<g id="Node000002" class="node">
<title>Node2</title>
<g id="a_Node000002"><a xlink:href="communication_8h.html" target="_top" xlink:title=" ">
<polygon fill="white" stroke="#666666" points="625,-244 534.75,-244 534.75,-224 625,-224 625,-244"/>
<text text-anchor="middle" x="579.88" y="-230.5" font-family="Helvetica,sans-Serif" font-size="10.00">communication.h</text>
</a>
</g>
</g>
<!-- Node1&#45;&gt;Node2 -->
<g id="edge1_Node000001_Node000002" class="edge">
<title>Node1&#45;&gt;Node2</title>
<g id="a_edge1_Node000001_Node000002"><a xlink:title=" ">
<path fill="none" stroke="#63b8ff" d="M616.26,-279.55C609.66,-271.48 601.56,-261.55 594.67,-253.12"/>
<polygon fill="#63b8ff" stroke="#63b8ff" points="597.55,-251.11 588.52,-245.58 592.13,-255.54 597.55,-251.11"/>
</a>
</g>
</g>
<!-- Node16 -->
<g id="Node000016" class="node">
<title>Node16</title>
<g id="a_Node000016"><a xlink:title=" ">
<polygon fill="#e0e0e0" stroke="#999999" points="665.12,-76 596.62,-76 596.62,-56 665.12,-56 665.12,-76"/>
<text text-anchor="middle" x="630.88" y="-62.5" font-family="Helvetica,sans-Serif" font-size="10.00">pico/stdlib.h</text>
</a>
</g>
</g>
<!-- Node1&#45;&gt;Node16 -->
<g id="edge54_Node000001_Node000016" class="edge">
<title>Node1&#45;&gt;Node16</title>
<g id="a_edge54_Node000001_Node000016"><a xlink:title=" ">
<path fill="none" stroke="#63b8ff" d="M579.5,-279.6C560.58,-271.59 540.13,-260.03 525.88,-244 485.13,-198.2 449.52,-161.35 485.88,-112 508.39,-81.44 551.46,-71.02 584.84,-67.75"/>
<polygon fill="#63b8ff" stroke="#63b8ff" points="584.98,-71.25 594.68,-66.99 584.44,-64.28 584.98,-71.25"/>
</a>
</g>
</g>
<!-- Node34 -->
<g id="Node000034" class="node">
<title>Node34</title>
<g id="a_Node000034"><a xlink:href="commands_8h.html" target="_top" xlink:title=" ">
<polygon fill="white" stroke="#666666" points="768,-244 695.75,-244 695.75,-224 768,-224 768,-244"/>
<text text-anchor="middle" x="731.88" y="-230.5" font-family="Helvetica,sans-Serif" font-size="10.00">commands.h</text>
</a>
</g>
</g>
<!-- Node1&#45;&gt;Node34 -->
<g id="edge49_Node000001_Node000034" class="edge">
<title>Node1&#45;&gt;Node34</title>
<g id="a_edge49_Node000001_Node000034"><a xlink:title=" ">
<path fill="none" stroke="#63b8ff" d="M655.4,-279.55C670.9,-270.52 690.38,-259.17 705.8,-250.19"/>
<polygon fill="#63b8ff" stroke="#63b8ff" points="707.54,-253.23 714.42,-245.17 704.01,-247.18 707.54,-253.23"/>
</a>
</g>
</g>
<!-- Node35 -->
<g id="Node000035" class="node">
<title>Node35</title>
<g id="a_Node000035"><a xlink:title=" ">
<polygon fill="#e0e0e0" stroke="#999999" points="866.12,-244 785.62,-244 785.62,-224 866.12,-224 866.12,-244"/>
<text text-anchor="middle" x="825.88" y="-230.5" font-family="Helvetica,sans-Serif" font-size="10.00">pico/bootrom.h</text>
</a>
</g>
</g>
<!-- Node1&#45;&gt;Node35 -->
<g id="edge55_Node000001_Node000035" class="edge">
<title>Node1&#45;&gt;Node35</title>
<g id="a_edge55_Node000001_Node000035"><a xlink:title=" ">
<path fill="none" stroke="#63b8ff" d="M679.61,-279.55C712,-269.68 753.48,-257.05 783.99,-247.76"/>
<polygon fill="#63b8ff" stroke="#63b8ff" points="784.7,-251.2 793.25,-244.94 782.66,-244.5 784.7,-251.2"/>
</a>
</g>
</g>
<!-- Node3 -->
<g id="Node000003" class="node">
<title>Node3</title>
<g id="a_Node000003"><a xlink:title=" ">
<polygon fill="#e0e0e0" stroke="#999999" points="1268.88,-20 1228.88,-20 1228.88,0 1268.88,0 1268.88,-20"/>
<text text-anchor="middle" x="1248.88" y="-6.5" font-family="Helvetica,sans-Serif" font-size="10.00">string</text>
</a>
</g>
</g>
<!-- Node2&#45;&gt;Node3 -->
<g id="edge2_Node000002_Node000003" class="edge">
<title>Node2&#45;&gt;Node3</title>
<g id="a_edge2_Node000002_Node000003"><a xlink:title=" ">
<path fill="none" stroke="#63b8ff" d="M534.45,-228.03C419.65,-214.49 130.04,-173.79 173.88,-112 217.47,-50.55 259.93,-70.44 333.88,-56 508.49,-21.89 1076.75,-13.03 1217.25,-11.34"/>
<polygon fill="#63b8ff" stroke="#63b8ff" points="1216.95,-14.84 1226.91,-11.23 1216.87,-7.84 1216.95,-14.84"/>
</a>
</g>
</g>
<!-- Node4 -->
<g id="Node000004" class="node">
<title>Node4</title>
<g id="a_Node000004"><a xlink:title=" ">
<polygon fill="#e0e0e0" stroke="#999999" points="601.38,-132 558.38,-132 558.38,-112 601.38,-112 601.38,-132"/>
<text text-anchor="middle" x="579.88" y="-118.5" font-family="Helvetica,sans-Serif" font-size="10.00">vector</text>
</a>
</g>
</g>
<!-- Node2&#45;&gt;Node4 -->
<g id="edge3_Node000002_Node000004" class="edge">
<title>Node2&#45;&gt;Node4</title>
<g id="a_edge3_Node000002_Node000004"><a xlink:title=" ">
<path fill="none" stroke="#63b8ff" d="M579.88,-223.62C579.88,-206.01 579.88,-167.59 579.88,-143.65"/>
<polygon fill="#63b8ff" stroke="#63b8ff" points="583.38,-143.87 579.88,-133.87 576.38,-143.87 583.38,-143.87"/>
</a>
</g>
</g>
<!-- Node5 -->
<g id="Node000005" class="node">
<title>Node5</title>
<g id="a_Node000005"><a xlink:href="protocol_8h.html" target="_top" xlink:title=" ">
<polygon fill="white" stroke="#666666" points="814.25,-188 755.5,-188 755.5,-168 814.25,-168 814.25,-188"/>
<text text-anchor="middle" x="784.88" y="-174.5" font-family="Helvetica,sans-Serif" font-size="10.00">protocol.h</text>
</a>
</g>
</g>
<!-- Node2&#45;&gt;Node5 -->
<g id="edge4_Node000002_Node000005" class="edge">
<title>Node2&#45;&gt;Node5</title>
<g id="a_edge4_Node000002_Node000005"><a xlink:title=" ">
<path fill="none" stroke="#63b8ff" d="M615.58,-223.59C651.45,-214.15 706.64,-199.61 744.18,-189.72"/>
<polygon fill="#63b8ff" stroke="#63b8ff" points="744.98,-193.13 753.76,-187.2 743.2,-186.36 744.98,-193.13"/>
</a>
</g>
</g>
<!-- Node32 -->
<g id="Node000032" class="node">
<title>Node32</title>
<g id="a_Node000032"><a xlink:href="event__manager_8h.html" target="_top" xlink:title=" ">
<polygon fill="white" stroke="#666666" points="400.38,-188 309.38,-188 309.38,-168 400.38,-168 400.38,-188"/>
<text text-anchor="middle" x="354.88" y="-174.5" font-family="Helvetica,sans-Serif" font-size="10.00">event_manager.h</text>
</a>
</g>
</g>
<!-- Node2&#45;&gt;Node32 -->
<g id="edge44_Node000002_Node000032" class="edge">
<title>Node2&#45;&gt;Node32</title>
<g id="a_edge44_Node000002_Node000032"><a xlink:title=" ">
<path fill="none" stroke="#63b8ff" d="M540.43,-223.53C502.87,-214.52 446.18,-200.91 405.35,-191.11"/>
<polygon fill="#63b8ff" stroke="#63b8ff" points="406.29,-187.74 395.75,-188.81 404.66,-194.55 406.29,-187.74"/>
</a>
</g>
</g>
<!-- Node5&#45;&gt;Node3 -->
<g id="edge5_Node000005_Node000003" class="edge">
<title>Node5&#45;&gt;Node3</title>
<g id="a_edge5_Node000005_Node000003"><a xlink:title=" ">
<path fill="none" stroke="#63b8ff" d="M814.59,-176.1C909.65,-172.94 1201.8,-160.92 1231.88,-132 1258.8,-106.11 1256.73,-58.58 1252.81,-31.43"/>
<polygon fill="#63b8ff" stroke="#63b8ff" points="1256.29,-31.01 1251.17,-21.73 1249.39,-32.17 1256.29,-31.01"/>
</a>
</g>
</g>
<!-- Node5&#45;&gt;Node4 -->
<g id="edge8_Node000005_Node000004" class="edge">
<title>Node5&#45;&gt;Node4</title>
<g id="a_edge8_Node000005_Node000004"><a xlink:title=" ">
<path fill="none" stroke="#63b8ff" d="M755.07,-169.15C717.25,-159.19 652.22,-142.06 612.92,-131.71"/>
<polygon fill="#63b8ff" stroke="#63b8ff" points="613.87,-128.34 603.31,-129.17 612.09,-135.11 613.87,-128.34"/>
</a>
</g>
</g>
<!-- Node6 -->
<g id="Node000006" class="node">
<title>Node6</title>
<g id="a_Node000006"><a xlink:title=" ">
<polygon fill="#e0e0e0" stroke="#999999" points="484.25,-76 449.5,-76 449.5,-56 484.25,-56 484.25,-76"/>
<text text-anchor="middle" x="466.88" y="-62.5" font-family="Helvetica,sans-Serif" font-size="10.00">map</text>
</a>
</g>
</g>
<!-- Node5&#45;&gt;Node6 -->
<g id="edge6_Node000005_Node000006" class="edge">
<title>Node5&#45;&gt;Node6</title>
<g id="a_edge6_Node000005_Node000006"><a xlink:title=" ">
<path fill="none" stroke="#63b8ff" d="M760.67,-167.57C727.02,-154.55 664.14,-130.6 609.88,-112 570.49,-98.5 524.49,-84.3 495.52,-75.55"/>
<polygon fill="#63b8ff" stroke="#63b8ff" points="496.61,-72.22 486.03,-72.69 494.6,-78.92 496.61,-72.22"/>
</a>
</g>
</g>
<!-- Node7 -->
<g id="Node000007" class="node">
<title>Node7</title>
<g id="a_Node000007"><a xlink:title=" ">
<polygon fill="#e0e0e0" stroke="#999999" points="1396.88,-132 1338.88,-132 1338.88,-112 1396.88,-112 1396.88,-132"/>
<text text-anchor="middle" x="1367.88" y="-118.5" font-family="Helvetica,sans-Serif" font-size="10.00">functional</text>
</a>
</g>
</g>
<!-- Node5&#45;&gt;Node7 -->
<g id="edge7_Node000005_Node000007" class="edge">
<title>Node5&#45;&gt;Node7</title>
<g id="a_edge7_Node000005_Node000007"><a xlink:title=" ">
<path fill="none" stroke="#63b8ff" d="M814.6,-176.11C895.42,-173.37 1126.07,-163.35 1327.13,-132.21"/>
<polygon fill="#63b8ff" stroke="#63b8ff" points="1327.67,-135.66 1337.01,-130.65 1326.59,-128.75 1327.67,-135.66"/>
</a>
</g>
</g>
<!-- Node8 -->
<g id="Node000008" class="node">
<title>Node8</title>
<g id="a_Node000008"><a xlink:title=" ">
<polygon fill="#e0e0e0" stroke="#999999" points="540.5,-132 495.25,-132 495.25,-112 540.5,-112 540.5,-132"/>
<text text-anchor="middle" x="517.88" y="-118.5" font-family="Helvetica,sans-Serif" font-size="10.00">cstdint</text>
</a>
</g>
</g>
<!-- Node5&#45;&gt;Node8 -->
<g id="edge9_Node000005_Node000008" class="edge">
<title>Node5&#45;&gt;Node8</title>
<g id="a_edge9_Node000005_Node000008"><a xlink:title=" ">
<path fill="none" stroke="#63b8ff" d="M755.25,-172.27C712.37,-165.23 630.3,-151.02 551.87,-132.56"/>
<polygon fill="#63b8ff" stroke="#63b8ff" points="552.85,-129.19 542.31,-130.28 551.22,-136 552.85,-129.19"/>
</a>
</g>
</g>
<!-- Node9 -->
<g id="Node000009" class="node">
<title>Node9</title>
<g id="a_Node000009"><a xlink:title=" ">
<polygon fill="#e0e0e0" stroke="#999999" points="745.75,-132 696,-132 696,-112 745.75,-112 745.75,-132"/>
<text text-anchor="middle" x="720.88" y="-118.5" font-family="Helvetica,sans-Serif" font-size="10.00">iomanip</text>
</a>
</g>
</g>
<!-- Node5&#45;&gt;Node9 -->
<g id="edge10_Node000005_Node000009" class="edge">
<title>Node5&#45;&gt;Node9</title>
<g id="a_edge10_Node000005_Node000009"><a xlink:title=" ">
<path fill="none" stroke="#63b8ff" d="M773.73,-167.59C764.55,-159.85 751.32,-148.69 740.39,-139.47"/>
<polygon fill="#63b8ff" stroke="#63b8ff" points="742.95,-137.05 733.05,-133.27 738.44,-142.4 742.95,-137.05"/>
</a>
</g>
</g>
<!-- Node10 -->
<g id="Node000010" class="node">
<title>Node10</title>
<g id="a_Node000010"><a xlink:href="pin__config_8h.html" target="_top" xlink:title=" ">
<polygon fill="white" stroke="#666666" points="954.12,-76 885.62,-76 885.62,-56 954.12,-56 954.12,-76"/>
<text text-anchor="middle" x="919.88" y="-62.5" font-family="Helvetica,sans-Serif" font-size="10.00">pin_config.h</text>
</a>
</g>
</g>
<!-- Node5&#45;&gt;Node10 -->
<g id="edge11_Node000005_Node000010" class="edge">
<title>Node5&#45;&gt;Node10</title>
<g id="a_edge11_Node000005_Node000010"><a xlink:title=" ">
<path fill="none" stroke="#63b8ff" d="M755.12,-169.95C718.57,-159.91 664.03,-139.6 686.88,-112 712.32,-81.25 818.43,-83.76 874.21,-75.96"/>
<polygon fill="#63b8ff" stroke="#63b8ff" points="874.51,-79.45 883.8,-74.37 873.37,-72.55 874.51,-79.45"/>
</a>
</g>
</g>
<!-- Node12 -->
<g id="Node000012" class="node">
<title>Node12</title>
<g id="a_Node000012"><a xlink:href="_power_manager_8h.html" target="_top" xlink:title=" ">
<polygon fill="white" stroke="#666666" points="400.62,-132 311.12,-132 311.12,-112 400.62,-112 400.62,-132"/>
<text text-anchor="middle" x="355.88" y="-118.5" font-family="Helvetica,sans-Serif" font-size="10.00">PowerManager.h</text>
</a>
</g>
</g>
<!-- Node5&#45;&gt;Node12 -->
<g id="edge13_Node000005_Node000012" class="edge">
<title>Node5&#45;&gt;Node12</title>
<g id="a_edge13_Node000005_Node000012"><a xlink:title=" ">
<path fill="none" stroke="#63b8ff" d="M755.05,-173.25C684.17,-164.32 504.67,-141.73 412.46,-130.12"/>
<polygon fill="#63b8ff" stroke="#63b8ff" points="412.98,-126.66 402.62,-128.88 412.11,-133.61 412.98,-126.66"/>
</a>
</g>
</g>
<!-- Node17 -->
<g id="Node000017" class="node">
<title>Node17</title>
<g id="a_Node000017"><a xlink:title=" ">
<polygon fill="#e0e0e0" stroke="#999999" points="806,-132 763.75,-132 763.75,-112 806,-112 806,-132"/>
<text text-anchor="middle" x="784.88" y="-118.5" font-family="Helvetica,sans-Serif" font-size="10.00">cstdio</text>
</a>
</g>
</g>
<!-- Node5&#45;&gt;Node17 -->
<g id="edge22_Node000005_Node000017" class="edge">
<title>Node5&#45;&gt;Node17</title>
<g id="a_edge22_Node000005_Node000017"><a xlink:title=" ">
<path fill="none" stroke="#63b8ff" d="M784.88,-167.59C784.88,-161.01 784.88,-151.96 784.88,-143.73"/>
<polygon fill="#63b8ff" stroke="#63b8ff" points="788.38,-143.81 784.88,-133.81 781.38,-143.81 788.38,-143.81"/>
</a>
</g>
</g>
<!-- Node18 -->
<g id="Node000018" class="node">
<title>Node18</title>
<g id="a_Node000018"><a xlink:title=" ">
<polygon fill="#e0e0e0" stroke="#999999" points="868.12,-132 823.62,-132 823.62,-112 868.12,-112 868.12,-132"/>
<text text-anchor="middle" x="845.88" y="-118.5" font-family="Helvetica,sans-Serif" font-size="10.00">cstdlib</text>
</a>
</g>
</g>
<!-- Node5&#45;&gt;Node18 -->
<g id="edge23_Node000005_Node000018" class="edge">
<title>Node5&#45;&gt;Node18</title>
<g id="a_edge23_Node000005_Node000018"><a xlink:title=" ">
<path fill="none" stroke="#63b8ff" d="M795.5,-167.59C804.16,-159.93 816.61,-148.91 826.96,-139.75"/>
<polygon fill="#63b8ff" stroke="#63b8ff" points="829.07,-142.55 834.24,-133.3 824.43,-137.31 829.07,-142.55"/>
</a>
</g>
</g>
<!-- Node19 -->
<g id="Node000019" class="node">
<title>Node19</title>
<g id="a_Node000019"><a xlink:title=" ">
<polygon fill="#e0e0e0" stroke="#999999" points="931.5,-132 886.25,-132 886.25,-112 931.5,-112 931.5,-132"/>
<text text-anchor="middle" x="908.88" y="-118.5" font-family="Helvetica,sans-Serif" font-size="10.00">cstring</text>
</a>
</g>
</g>
<!-- Node5&#45;&gt;Node19 -->
<g id="edge24_Node000005_Node000019" class="edge">
<title>Node5&#45;&gt;Node19</title>
<g id="a_edge24_Node000005_Node000019"><a xlink:title=" ">
<path fill="none" stroke="#63b8ff" d="M806.47,-167.59C825.83,-159.17 854.48,-146.69 876.56,-137.07"/>
<polygon fill="#63b8ff" stroke="#63b8ff" points="877.95,-140.29 885.72,-133.08 875.15,-133.87 877.95,-140.29"/>
</a>
</g>
</g>
<!-- Node20 -->
<g id="Node000020" class="node">
<title>Node20</title>
<g id="a_Node000020"><a xlink:href="utils_8h.html" target="_top" xlink:title=" ">
<polygon fill="white" stroke="#666666" points="1321,-132 1278.75,-132 1278.75,-112 1321,-112 1321,-132"/>
<text text-anchor="middle" x="1299.88" y="-118.5" font-family="Helvetica,sans-Serif" font-size="10.00">utils.h</text>
</a>
</g>
</g>
<!-- Node5&#45;&gt;Node20 -->
<g id="edge25_Node000005_Node000020" class="edge">
<title>Node5&#45;&gt;Node20</title>
<g id="a_edge25_Node000005_Node000020"><a xlink:title=" ">
<path fill="none" stroke="#63b8ff" d="M814.59,-175.85C890.23,-172.57 1096.05,-161.43 1264.88,-132 1265.71,-131.85 1266.55,-131.7 1267.4,-131.54"/>
<polygon fill="#63b8ff" stroke="#63b8ff" points="1268.04,-134.98 1277.04,-129.39 1266.52,-128.15 1268.04,-134.98"/>
</a>
</g>
</g>
<!-- Node23 -->
<g id="Node000023" class="node">
<title>Node23</title>
<g id="a_Node000023"><a xlink:title=" ">
<polygon fill="#e0e0e0" stroke="#999999" points="992.38,-132 949.38,-132 949.38,-112 992.38,-112 992.38,-132"/>
<text text-anchor="middle" x="970.88" y="-118.5" font-family="Helvetica,sans-Serif" font-size="10.00">time.h</text>
</a>
</g>
</g>
<!-- Node5&#45;&gt;Node23 -->
<g id="edge31_Node000005_Node000023" class="edge">
<title>Node5&#45;&gt;Node23</title>
<g id="a_edge31_Node000005_Node000023"><a xlink:title=" ">
<path fill="none" stroke="#63b8ff" d="M814.52,-168.55C843.71,-160.21 889.86,-146.96 937.98,-132.83"/>
<polygon fill="#63b8ff" stroke="#63b8ff" points="938.87,-136.22 947.48,-130.04 936.89,-129.5 938.87,-136.22"/>
</a>
</g>
</g>
<!-- Node24 -->
<g id="Node000024" class="node">
<title>Node24</title>
<g id="a_Node000024"><a xlink:href="build__number_8h.html" target="_top" xlink:title=" ">
<polygon fill="white" stroke="#666666" points="1092.88,-132 1010.88,-132 1010.88,-112 1092.88,-112 1092.88,-132"/>
<text text-anchor="middle" x="1051.88" y="-118.5" font-family="Helvetica,sans-Serif" font-size="10.00">build_number.h</text>
</a>
</g>
</g>
<!-- Node5&#45;&gt;Node24 -->
<g id="edge32_Node000005_Node000024" class="edge">
<title>Node5&#45;&gt;Node24</title>
<g id="a_edge32_Node000005_Node000024"><a xlink:title=" ">
<path fill="none" stroke="#63b8ff" d="M814.73,-170.96C859.41,-161.93 944.33,-144.75 999.49,-133.59"/>
<polygon fill="#63b8ff" stroke="#63b8ff" points="999.85,-137.09 1008.96,-131.68 998.46,-130.23 999.85,-137.09"/>
</a>
</g>
</g>
<!-- Node25 -->
<g id="Node000025" class="node">
<title>Node25</title>
<g id="a_Node000025"><a xlink:href="_lo_ra-_r_p2040_8h.html" target="_top" xlink:title=" ">
<polygon fill="white" stroke="#666666" points="1222.88,-132 1110.88,-132 1110.88,-112 1222.88,-112 1222.88,-132"/>
<text text-anchor="middle" x="1166.88" y="-118.5" font-family="Helvetica,sans-Serif" font-size="10.00">LoRa/LoRa&#45;RP2040.h</text>
</a>
</g>
</g>
<!-- Node5&#45;&gt;Node25 -->
<g id="edge33_Node000005_Node000025" class="edge">
<title>Node5&#45;&gt;Node25</title>
<g id="a_edge33_Node000005_Node000025"><a xlink:title=" ">
<path fill="none" stroke="#63b8ff" d="M814.53,-172.81C875.29,-164.22 1015.23,-144.44 1099.32,-132.55"/>
<polygon fill="#63b8ff" stroke="#63b8ff" points="1099.64,-136.04 1109.05,-131.17 1098.66,-129.11 1099.64,-136.04"/>
</a>
</g>
</g>
<!-- Node11 -->
<g id="Node000011" class="node">
<title>Node11</title>
<g id="a_Node000011"><a xlink:title=" ">
<polygon fill="#e0e0e0" stroke="#999999" points="581,-20 532.75,-20 532.75,0 581,0 581,-20"/>
<text text-anchor="middle" x="556.88" y="-6.5" font-family="Helvetica,sans-Serif" font-size="10.00">stdint.h</text>
</a>
</g>
</g>
<!-- Node10&#45;&gt;Node11 -->
<g id="edge12_Node000010_Node000011" class="edge">
<title>Node10&#45;&gt;Node11</title>
<g id="a_edge12_Node000010_Node000011"><a xlink:title=" ">
<path fill="none" stroke="#63b8ff" d="M885.33,-57.72C882.14,-57.12 878.95,-56.53 875.88,-56 773.52,-38.33 651.8,-22.62 592.67,-15.32"/>
<polygon fill="#63b8ff" stroke="#63b8ff" points="593.22,-11.86 582.87,-14.12 592.37,-18.81 593.22,-11.86"/>
</a>
</g>
</g>
<!-- Node12&#45;&gt;Node3 -->
<g id="edge19_Node000012_Node000003" class="edge">
<title>Node12&#45;&gt;Node3</title>
<g id="a_edge19_Node000012_Node000003"><a xlink:title=" ">
<path fill="none" stroke="#63b8ff" d="M364.2,-111.77C378.28,-96.87 408.47,-67.99 440.88,-56 514.66,-28.71 1077.81,-14.73 1217.56,-11.66"/>
<polygon fill="#63b8ff" stroke="#63b8ff" points="1217.25,-15.16 1227.17,-11.45 1217.09,-8.16 1217.25,-15.16"/>
</a>
</g>
</g>
<!-- Node12&#45;&gt;Node6 -->
<g id="edge18_Node000012_Node000006" class="edge">
<title>Node12&#45;&gt;Node6</title>
<g id="a_edge18_Node000012_Node000006"><a xlink:title=" ">
<path fill="none" stroke="#63b8ff" d="M375.21,-111.59C392.82,-103.03 419.03,-90.28 438.92,-80.6"/>
<polygon fill="#63b8ff" stroke="#63b8ff" points="440.4,-83.77 447.86,-76.25 437.34,-77.48 440.4,-83.77"/>
</a>
</g>
</g>
<!-- Node13 -->
<g id="Node000013" class="node">
<title>Node13</title>
<g id="a_Node000013"><a xlink:href="_i_n_a3221_8h.html" target="_top" xlink:title=" ">
<polygon fill="white" stroke="#666666" points="171.75,-76 68,-76 68,-56 171.75,-56 171.75,-76"/>
<text text-anchor="middle" x="119.88" y="-62.5" font-family="Helvetica,sans-Serif" font-size="10.00">INA3221/INA3221.h</text>
</a>
</g>
</g>
<!-- Node12&#45;&gt;Node13 -->
<g id="edge14_Node000012_Node000013" class="edge">
<title>Node12&#45;&gt;Node13</title>
<g id="a_edge14_Node000012_Node000013"><a xlink:title=" ">
<path fill="none" stroke="#63b8ff" d="M314.5,-111.53C274.94,-102.48 215.13,-88.8 172.27,-78.99"/>
<polygon fill="#63b8ff" stroke="#63b8ff" points="173.21,-75.61 162.68,-76.79 171.65,-82.44 173.21,-75.61"/>
</a>
</g>
</g>
<!-- Node15 -->
<g id="Node000015" class="node">
<title>Node15</title>
<g id="a_Node000015"><a xlink:title=" ">
<polygon fill="#e0e0e0" stroke="#999999" points="79.75,-20 0,-20 0,0 79.75,0 79.75,-20"/>
<text text-anchor="middle" x="39.88" y="-6.5" font-family="Helvetica,sans-Serif" font-size="10.00">hardware/i2c.h</text>
</a>
</g>
</g>
<!-- Node12&#45;&gt;Node15 -->
<g id="edge20_Node000012_Node000015" class="edge">
<title>Node12&#45;&gt;Node15</title>
<g id="a_edge20_Node000012_Node000015"><a xlink:title=" ">
<path fill="none" stroke="#63b8ff" d="M310.92,-115.47C230.23,-105.38 68.29,-84.23 58.88,-76 46.28,-64.99 41.82,-46.13 40.34,-31.56"/>
<polygon fill="#63b8ff" stroke="#63b8ff" points="43.83,-31.45 39.76,-21.66 36.85,-31.85 43.83,-31.45"/>
</a>
</g>
</g>
<!-- Node12&#45;&gt;Node16 -->
<g id="edge21_Node000012_Node000016" class="edge">
<title>Node12&#45;&gt;Node16</title>
<g id="a_edge21_Node000012_Node000016"><a xlink:title=" ">
<path fill="none" stroke="#63b8ff" d="M400.98,-112.14C451.83,-102.16 534.08,-86.01 585.18,-75.97"/>
<polygon fill="#63b8ff" stroke="#63b8ff" points="585.59,-79.46 594.73,-74.1 584.24,-72.59 585.59,-79.46"/>
</a>
</g>
</g>
<!-- Node13&#45;&gt;Node11 -->
<g id="edge15_Node000013_Node000011" class="edge">
<title>Node13&#45;&gt;Node11</title>
<g id="a_edge15_Node000013_Node000011"><a xlink:title=" ">
<path fill="none" stroke="#63b8ff" d="M172.1,-57.81C176.76,-57.19 181.4,-56.58 185.88,-56 308.85,-40.16 454.97,-22.89 521.15,-15.15"/>
<polygon fill="#63b8ff" stroke="#63b8ff" points="521.52,-18.64 531.05,-14 520.71,-11.68 521.52,-18.64"/>
</a>
</g>
</g>
<!-- Node14 -->
<g id="Node000014" class="node">
<title>Node14</title>
<g id="a_Node000014"><a xlink:title=" ">
<polygon fill="#e0e0e0" stroke="#999999" points="151.62,-20 98.12,-20 98.12,0 151.62,0 151.62,-20"/>
<text text-anchor="middle" x="124.88" y="-6.5" font-family="Helvetica,sans-Serif" font-size="10.00">iostream</text>
</a>
</g>
</g>
<!-- Node13&#45;&gt;Node14 -->
<g id="edge16_Node000013_Node000014" class="edge">
<title>Node13&#45;&gt;Node14</title>
<g id="a_edge16_Node000013_Node000014"><a xlink:title=" ">
<path fill="none" stroke="#63b8ff" d="M120.75,-55.59C121.36,-49.01 122.19,-39.96 122.96,-31.73"/>
<polygon fill="#63b8ff" stroke="#63b8ff" points="126.44,-32.09 123.87,-21.81 119.47,-31.44 126.44,-32.09"/>
</a>
</g>
</g>
<!-- Node13&#45;&gt;Node15 -->
<g id="edge17_Node000013_Node000015" class="edge">
<title>Node13&#45;&gt;Node15</title>
<g id="a_edge17_Node000013_Node000015"><a xlink:title=" ">
<path fill="none" stroke="#63b8ff" d="M105.94,-55.59C94.2,-47.67 77.14,-36.16 63.31,-26.82"/>
<polygon fill="#63b8ff" stroke="#63b8ff" points="65.42,-24.02 55.17,-21.33 61.5,-29.82 65.42,-24.02"/>
</a>
</g>
</g>
<!-- Node20&#45;&gt;Node3 -->
<g id="edge27_Node000020_Node000003" class="edge">
<title>Node20&#45;&gt;Node3</title>
<g id="a_edge27_Node000020_Node000003"><a xlink:title=" ">
<path fill="none" stroke="#63b8ff" d="M1295.53,-111.62C1287.25,-93.76 1269.06,-54.53 1257.99,-30.67"/>
<polygon fill="#63b8ff" stroke="#63b8ff" points="1261.23,-29.33 1253.85,-21.73 1254.88,-32.27 1261.23,-29.33"/>
</a>
</g>
</g>
<!-- Node20&#45;&gt;Node10 -->
<g id="edge30_Node000020_Node000010" class="edge">
<title>Node20&#45;&gt;Node10</title>
<g id="a_edge30_Node000020_Node000010"><a xlink:title=" ">
<path fill="none" stroke="#63b8ff" d="M1278.4,-118.14C1212.79,-109.42 1016.69,-83.31 965.66,-75.99"/>
<polygon fill="#63b8ff" stroke="#63b8ff" points="966.33,-72.55 955.92,-74.52 965.28,-79.47 966.33,-72.55"/>
</a>
</g>
</g>
<!-- Node20&#45;&gt;Node16 -->
<g id="edge28_Node000020_Node000016" class="edge">
<title>Node20&#45;&gt;Node16</title>
<g id="a_edge28_Node000020_Node000016"><a xlink:title=" ">
<path fill="none" stroke="#63b8ff" d="M1278.47,-117.85C1265.1,-115.96 1247.51,-113.62 1231.88,-112 1124.23,-100.86 798.13,-78.34 676.91,-70.11"/>
<polygon fill="#63b8ff" stroke="#63b8ff" points="677.22,-66.62 667,-69.43 676.74,-73.6 677.22,-66.62"/>
</a>
</g>
</g>
<!-- Node21 -->
<g id="Node000021" class="node">
<title>Node21</title>
<g id="a_Node000021"><a xlink:title=" ">
<polygon fill="#e0e0e0" stroke="#999999" points="1549.5,-20 1504.25,-20 1504.25,0 1549.5,0 1549.5,-20"/>
<text text-anchor="middle" x="1526.88" y="-6.5" font-family="Helvetica,sans-Serif" font-size="10.00">stdio.h</text>
</a>
</g>
</g>
<!-- Node20&#45;&gt;Node21 -->
<g id="edge26_Node000020_Node000021" class="edge">
<title>Node20&#45;&gt;Node21</title>
<g id="a_edge26_Node000020_Node000021"><a xlink:title=" ">
<path fill="none" stroke="#63b8ff" d="M1321.44,-114.27C1324.27,-113.47 1327.13,-112.69 1329.88,-112 1408.17,-92.38 1448.43,-130.6 1507.88,-76 1520.2,-64.68 1524.69,-45.86 1526.25,-31.37"/>
<polygon fill="#63b8ff" stroke="#63b8ff" points="1529.73,-31.78 1526.89,-21.57 1522.75,-31.32 1529.73,-31.78"/>
</a>
</g>
</g>
<!-- Node22 -->
<g id="Node000022" class="node">
<title>Node22</title>
<g id="a_Node000022"><a xlink:title=" ">
<polygon fill="#e0e0e0" stroke="#999999" points="1398.62,-76 1315.12,-76 1315.12,-56 1398.62,-56 1398.62,-76"/>
<text text-anchor="middle" x="1356.88" y="-62.5" font-family="Helvetica,sans-Serif" font-size="10.00">hardware/uart.h</text>
</a>
</g>
</g>
<!-- Node20&#45;&gt;Node22 -->
<g id="edge29_Node000020_Node000022" class="edge">
<title>Node20&#45;&gt;Node22</title>
<g id="a_edge29_Node000020_Node000022"><a xlink:title=" ">
<path fill="none" stroke="#63b8ff" d="M1309.8,-111.59C1317.81,-104.01 1329.29,-93.13 1338.91,-84.02"/>
<polygon fill="#63b8ff" stroke="#63b8ff" points="1341.11,-86.76 1345.96,-77.34 1336.29,-81.68 1341.11,-86.76"/>
</a>
</g>
</g>
<!-- Node25&#45;&gt;Node10 -->
<g id="edge43_Node000025_Node000010" class="edge">
<title>Node25&#45;&gt;Node10</title>
<g id="a_edge43_Node000025_Node000010"><a xlink:title=" ">
<path fill="none" stroke="#63b8ff" d="M1123.57,-111.53C1079.28,-101.85 1010.74,-86.86 965.59,-76.99"/>
<polygon fill="#63b8ff" stroke="#63b8ff" points="966.36,-73.58 955.84,-74.86 964.86,-80.42 966.36,-73.58"/>
</a>
</g>
</g>
<!-- Node25&#45;&gt;Node16 -->
<g id="edge34_Node000025_Node000016" class="edge">
<title>Node25&#45;&gt;Node16</title>
<g id="a_edge34_Node000025_Node000016"><a xlink:title=" ">
<path fill="none" stroke="#63b8ff" d="M1110.52,-113.05C1107.6,-112.68 1104.7,-112.33 1101.88,-112 946.38,-93.82 761.37,-77.77 676.96,-70.75"/>
<polygon fill="#63b8ff" stroke="#63b8ff" points="677.26,-67.26 667.01,-69.93 676.68,-74.24 677.26,-67.26"/>
</a>
</g>
</g>
<!-- Node26 -->
<g id="Node000026" class="node">
<title>Node26</title>
<g id="a_Node000026"><a xlink:title=" ">
<polygon fill="#e0e0e0" stroke="#999999" points="867.12,-76 774.62,-76 774.62,-56 867.12,-56 867.12,-76"/>
<text text-anchor="middle" x="820.88" y="-62.5" font-family="Helvetica,sans-Serif" font-size="10.00">pico/binary_info.h</text>
</a>
</g>
</g>
<!-- Node25&#45;&gt;Node26 -->
<g id="edge35_Node000025_Node000026" class="edge">
<title>Node25&#45;&gt;Node26</title>
<g id="a_edge35_Node000025_Node000026"><a xlink:title=" ">
<path fill="none" stroke="#63b8ff" d="M1110.45,-112.34C1054.4,-103.71 965.67,-90 878.76,-76.29"/>
<polygon fill="#63b8ff" stroke="#63b8ff" points="879.54,-72.87 869.12,-74.77 878.45,-79.79 879.54,-72.87"/>
</a>
</g>
</g>
<!-- Node27 -->
<g id="Node000027" class="node">
<title>Node27</title>
<g id="a_Node000027"><a xlink:title=" ">
<polygon fill="#e0e0e0" stroke="#999999" points="1057.38,-76 972.38,-76 972.38,-56 1057.38,-56 1057.38,-76"/>
<text text-anchor="middle" x="1014.88" y="-62.5" font-family="Helvetica,sans-Serif" font-size="10.00">hardware/gpio.h</text>
</a>
</g>
</g>
<!-- Node25&#45;&gt;Node27 -->
<g id="edge36_Node000025_Node000027" class="edge">
<title>Node25&#45;&gt;Node27</title>
<g id="a_edge36_Node000025_Node000027"><a xlink:title=" ">
<path fill="none" stroke="#63b8ff" d="M1140.4,-111.59C1116.03,-102.94 1079.62,-90 1052.29,-80.29"/>
<polygon fill="#63b8ff" stroke="#63b8ff" points="1053.58,-77.04 1042.98,-76.99 1051.24,-83.63 1053.58,-77.04"/>
</a>
</g>
</g>
<!-- Node28 -->
<g id="Node000028" class="node">
<title>Node28</title>
<g id="a_Node000028"><a xlink:title=" ">
<polygon fill="#e0e0e0" stroke="#999999" points="1154.75,-76 1075,-76 1075,-56 1154.75,-56 1154.75,-76"/>
<text text-anchor="middle" x="1114.88" y="-62.5" font-family="Helvetica,sans-Serif" font-size="10.00">hardware/spi.h</text>
</a>
</g>
</g>
<!-- Node25&#45;&gt;Node28 -->
<g id="edge37_Node000025_Node000028" class="edge">
<title>Node25&#45;&gt;Node28</title>
<g id="a_edge37_Node000025_Node000028"><a xlink:title=" ">
<path fill="none" stroke="#63b8ff" d="M1157.82,-111.59C1150.66,-104.16 1140.47,-93.58 1131.81,-84.58"/>
<polygon fill="#63b8ff" stroke="#63b8ff" points="1134.34,-82.16 1124.88,-77.39 1129.29,-87.02 1134.34,-82.16"/>
</a>
</g>
</g>
<!-- Node29 -->
<g id="Node000029" class="node">
<title>Node29</title>
<g id="a_Node000029"><a xlink:title=" ">
<polygon fill="#e0e0e0" stroke="#999999" points="1221,-76 1172.75,-76 1172.75,-56 1221,-56 1221,-76"/>
<text text-anchor="middle" x="1196.88" y="-62.5" font-family="Helvetica,sans-Serif" font-size="10.00">string.h</text>
</a>
</g>
</g>
<!-- Node25&#45;&gt;Node29 -->
<g id="edge38_Node000025_Node000029" class="edge">
<title>Node25&#45;&gt;Node29</title>
<g id="a_edge38_Node000025_Node000029"><a xlink:title=" ">
<path fill="none" stroke="#63b8ff" d="M1172.1,-111.59C1175.97,-104.63 1181.38,-94.89 1186.16,-86.29"/>
<polygon fill="#63b8ff" stroke="#63b8ff" points="1189.18,-88.06 1190.97,-77.62 1183.06,-84.66 1189.18,-88.06"/>
</a>
</g>
</g>
<!-- Node30 -->
<g id="Node000030" class="node">
<title>Node30</title>
<g id="a_Node000030"><a xlink:href="_print_8h.html" target="_top" xlink:title=" ">
<polygon fill="white" stroke="#666666" points="1499.12,-76 1454.62,-76 1454.62,-56 1499.12,-56 1499.12,-76"/>
<text text-anchor="middle" x="1476.88" y="-62.5" font-family="Helvetica,sans-Serif" font-size="10.00">Print.h</text>
</a>
</g>
</g>
<!-- Node25&#45;&gt;Node30 -->
<g id="edge39_Node000025_Node000030" class="edge">
<title>Node25&#45;&gt;Node30</title>
<g id="a_edge39_Node000025_Node000030"><a xlink:title=" ">
<path fill="none" stroke="#63b8ff" d="M1221.23,-111.53C1285.32,-100.37 1389.85,-82.16 1443.22,-72.86"/>
<polygon fill="#63b8ff" stroke="#63b8ff" points="1443.67,-76.34 1452.92,-71.17 1442.47,-69.44 1443.67,-76.34"/>
</a>
</g>
</g>
<!-- Node30&#45;&gt;Node3 -->
<g id="edge42_Node000030_Node000003" class="edge">
<title>Node30&#45;&gt;Node3</title>
<g id="a_edge42_Node000030_Node000003"><a xlink:title=" ">
<path fill="none" stroke="#63b8ff" d="M1454.42,-59.33C1449.94,-58.22 1445.26,-57.06 1440.88,-56 1384.33,-42.31 1318.26,-26.97 1280.22,-18.2"/>
<polygon fill="#63b8ff" stroke="#63b8ff" points="1281.36,-14.87 1270.83,-16.04 1279.79,-21.69 1281.36,-14.87"/>
</a>
</g>
</g>
<!-- Node30&#45;&gt;Node21 -->
<g id="edge41_Node000030_Node000021" class="edge">
<title>Node30&#45;&gt;Node21</title>
<g id="a_edge41_Node000030_Node000021"><a xlink:title=" ">
<path fill="none" stroke="#63b8ff" d="M1485.58,-55.59C1492.47,-48.16 1502.27,-37.58 1510.59,-28.58"/>
<polygon fill="#63b8ff" stroke="#63b8ff" points="1513.01,-31.12 1517.24,-21.41 1507.87,-26.37 1513.01,-31.12"/>
</a>
</g>
</g>
<!-- Node31 -->
<g id="Node000031" class="node">
<title>Node31</title>
<g id="a_Node000031"><a xlink:title=" ">
<polygon fill="#e0e0e0" stroke="#999999" points="1486.25,-20 1427.5,-20 1427.5,0 1486.25,0 1486.25,-20"/>
<text text-anchor="middle" x="1456.88" y="-6.5" font-family="Helvetica,sans-Serif" font-size="10.00">inttypes.h</text>
</a>
</g>
</g>
<!-- Node30&#45;&gt;Node31 -->
<g id="edge40_Node000030_Node000031" class="edge">
<title>Node30&#45;&gt;Node31</title>
<g id="a_edge40_Node000030_Node000031"><a xlink:title=" ">
<path fill="none" stroke="#63b8ff" d="M1473.39,-55.59C1470.87,-48.78 1467.36,-39.32 1464.23,-30.86"/>
<polygon fill="#63b8ff" stroke="#63b8ff" points="1467.6,-29.88 1460.84,-21.72 1461.04,-32.31 1467.6,-29.88"/>
</a>
</g>
</g>
<!-- Node32&#45;&gt;Node3 -->
<g id="edge47_Node000032_Node000003" class="edge">
<title>Node32&#45;&gt;Node3</title>
<g id="a_edge47_Node000032_Node000003"><a xlink:title=" ">
<path fill="none" stroke="#63b8ff" d="M337.43,-167.59C317.52,-155.54 289.26,-133.63 301.88,-112 327.34,-68.33 352.35,-70.16 400.88,-56 558.36,-10.05 1082.91,-9.98 1217.29,-10.75"/>
<polygon fill="#63b8ff" stroke="#63b8ff" points="1217.18,-14.25 1227.2,-10.81 1217.23,-7.25 1217.18,-14.25"/>
</a>
</g>
</g>
<!-- Node32&#45;&gt;Node8 -->
<g id="edge46_Node000032_Node000008" class="edge">
<title>Node32&#45;&gt;Node8</title>
<g id="a_edge46_Node000032_Node000008"><a xlink:title=" ">
<path fill="none" stroke="#63b8ff" d="M383.27,-167.59C411.33,-158.3 454.28,-144.07 484.09,-134.19"/>
<polygon fill="#63b8ff" stroke="#63b8ff" points="484.98,-137.59 493.37,-131.12 482.78,-130.94 484.98,-137.59"/>
</a>
</g>
</g>
<!-- Node32&#45;&gt;Node12 -->
<g id="edge45_Node000032_Node000012" class="edge">
<title>Node32&#45;&gt;Node12</title>
<g id="a_edge45_Node000032_Node000012"><a xlink:title=" ">
<path fill="none" stroke="#63b8ff" d="M355.05,-167.59C355.17,-161.01 355.34,-151.96 355.49,-143.73"/>
<polygon fill="#63b8ff" stroke="#63b8ff" points="358.99,-143.87 355.67,-133.81 351.99,-143.75 358.99,-143.87"/>
</a>
</g>
</g>
<!-- Node33 -->
<g id="Node000033" class="node">
<title>Node33</title>
<g id="a_Node000033"><a xlink:title=" ">
<polygon fill="#e0e0e0" stroke="#999999" points="255,-132 182.75,-132 182.75,-112 255,-112 255,-132"/>
<text text-anchor="middle" x="218.88" y="-118.5" font-family="Helvetica,sans-Serif" font-size="10.00">pico/mutex.h</text>
</a>
</g>
</g>
<!-- Node32&#45;&gt;Node33 -->
<g id="edge48_Node000032_Node000033" class="edge">
<title>Node32&#45;&gt;Node33</title>
<g id="a_edge48_Node000032_Node000033"><a xlink:title=" ">
<path fill="none" stroke="#63b8ff" d="M331.19,-167.59C309.67,-159.05 277.67,-146.35 253.33,-136.68"/>
<polygon fill="#63b8ff" stroke="#63b8ff" points="254.74,-133.48 244.16,-133.04 252.16,-139.98 254.74,-133.48"/>
</a>
</g>
</g>
<!-- Node34&#45;&gt;Node3 -->
<g id="edge50_Node000034_Node000003" class="edge">
<title>Node34&#45;&gt;Node3</title>
<g id="a_edge50_Node000034_Node000003"><a xlink:title=" ">
<path fill="none" stroke="#63b8ff" d="M768.18,-225.49C771.12,-224.96 774.04,-224.45 776.88,-224 916.37,-201.72 1312.84,-238.3 1405.88,-132 1428.13,-106.57 1428.26,-82.95 1407.88,-56 1392.53,-35.7 1322.09,-21.93 1280.29,-15.38"/>
<polygon fill="#63b8ff" stroke="#63b8ff" points="1280.99,-11.95 1270.58,-13.92 1279.94,-18.87 1280.99,-11.95"/>
</a>
</g>
</g>
<!-- Node34&#45;&gt;Node5 -->
<g id="edge53_Node000034_Node000005" class="edge">
<title>Node34&#45;&gt;Node5</title>
<g id="a_edge53_Node000034_Node000005"><a xlink:title=" ">
<path fill="none" stroke="#63b8ff" d="M741.11,-223.59C748.48,-216.08 759.01,-205.35 767.89,-196.3"/>
<polygon fill="#63b8ff" stroke="#63b8ff" points="770.18,-198.97 774.69,-189.38 765.19,-194.06 770.18,-198.97"/>
</a>
</g>
</g>
<!-- Node34&#45;&gt;Node6 -->
<g id="edge52_Node000034_Node000006" class="edge">
<title>Node34&#45;&gt;Node6</title>
<g id="a_edge52_Node000034_Node000006"><a xlink:title=" ">
<path fill="none" stroke="#63b8ff" d="M695.3,-228.07C641.6,-218.88 541.78,-194.11 485.88,-132 474.92,-119.82 470.26,-101.64 468.29,-87.61"/>
<polygon fill="#63b8ff" stroke="#63b8ff" points="471.77,-87.27 467.28,-77.67 464.81,-87.97 471.77,-87.27"/>
</a>
</g>
</g>
<!-- Node34&#45;&gt;Node7 -->
<g id="edge51_Node000034_Node000007" class="edge">
<title>Node34&#45;&gt;Node7</title>
<g id="a_edge51_Node000034_Node000007"><a xlink:title=" ">
<path fill="none" stroke="#63b8ff" d="M768.2,-225.63C771.14,-225.07 774.05,-224.52 776.88,-224 1018.36,-179.78 1083.72,-181.13 1327.47,-132.38"/>
<polygon fill="#63b8ff" stroke="#63b8ff" points="1327.86,-135.87 1336.98,-130.47 1326.48,-129.01 1327.86,-135.87"/>
</a>
</g>
</g>
</g>
</svg>
