<?xml version="1.0" encoding="UTF-8" standalone="no"?>
<!DOCTYPE svg PUBLIC "-//W3C//DTD SVG 1.1//EN"
 "http://www.w3.org/Graphics/SVG/1.1/DTD/svg11.dtd">
<!-- Generated by graphviz version 12.2.1 (20241206.2353)
 -->
<!-- Title: lib/comms/commands/event_commands.cpp Pages: 1 -->
<!--zoomable 320 -->

<svg id="main" version="1.1" xmlns="http://www.w3.org/2000/svg" xmlns:xlink="http://www.w3.org/1999/xlink" xml:space="preserve" onload="init(evt)">

<style type="text/css"><![CDATA[
.node, .edge {opacity: 0.7;}
.node.selected, .edge.selected {opacity: 1;}
.edge:hover path { stroke: red; }
.edge:hover polygon { stroke: red; fill: red; }
]]></style>

<defs>
  <circle id="rim" cx="0" cy="0" r="7"/>
  <circle id="rim2" cx="0" cy="0" r="3.5"/>
  <g id="zoomPlus">
    <use xlink:href="#rim" fill="#404040"><set attributeName="fill" to="#808080" begin="zoomplus.mouseover" end="zoomplus.mouseout"/></use>
    <path d="M-4,0h8M0,-4v8" fill="none" stroke="white" stroke-width="1.5" pointer-events="none"/>
  </g>
  <g id="zoomMin">
    <use xlink:href="#rim" fill="#404040"><set attributeName="fill" to="#808080" begin="zoomminus.mouseover" end="zoomminus.mouseout"/></use>
    <path d="M-4,0h8" fill="none" stroke="white" stroke-width="1.5" pointer-events="none"/>
  </g>
  <g id="arrowUp" transform="translate(30 24)">
    <use xlink:href="#rim"/>
    <path pointer-events="none" fill="none" stroke="white" stroke-width="1.5" d="M0,-3.0v7 M-2.5,-0.5L0,-3.0L2.5,-0.5"/>
  </g>
  <g id="arrowRight" transform="rotate(90) translate(36 -43)">
    <use xlink:href="#rim"/>
    <path pointer-events="none" fill="none" stroke="white" stroke-width="1.5" d="M0,-3.0v7 M-2.5,-0.5L0,-3.0L2.5,-0.5"/>
  </g>
  <g id="arrowDown" transform="rotate(180) translate(-30 -48)">
    <use xlink:href="#rim"/>
    <path pointer-events="none" fill="none" stroke="white" stroke-width="1.5" d="M0,-3.0v7 M-2.5,-0.5L0,-3.0L2.5,-0.5"/>
  </g>
  <g id="arrowLeft" transform="rotate(270) translate(-36 17)">
    <use xlink:href="#rim"/>
    <path pointer-events="none" fill="none" stroke="white" stroke-width="1.5" d="M0,-3.0v7 M-2.5,-0.5L0,-3.0L2.5,-0.5"/>
  </g>
  <g id="resetDef">
    <use xlink:href="#rim2" fill="#404040"><set attributeName="fill" to="#808080" begin="reset.mouseover" end="reset.mouseout"/></use>
  </g>
</defs>
<script type="application/ecmascript">
var viewWidth = 1217;
var viewHeight = 320;
var sectionId = 'dynsection-0';
</script>
<script type="application/ecmascript" xlink:href="svg.min.js"/>
<svg id="graph" class="graph">
<g id="viewport">
<title>lib/comms/commands/event_commands.cpp</title>
<!-- Node1 -->
<g id="Node000001" class="node">
<title>Node1</title>
<g id="a_Node000001"><a xlink:title=" ">
<polygon fill="#999999" stroke="#666666" points="1010.12,-312 895.12,-312 895.12,-280 1010.12,-280 1010.12,-312"/>
<text text-anchor="start" x="903.12" y="-298.5" font-family="Helvetica,sans-Serif" font-size="10.00">lib/comms/commands</text>
<text text-anchor="middle" x="952.62" y="-286.5" font-family="Helvetica,sans-Serif" font-size="10.00">/event_commands.cpp</text>
</a>
</g>
</g>
<!-- Node2 -->
<g id="Node000002" class="node">
<title>Node2</title>
<g id="a_Node000002"><a xlink:href="communication_8h.html" target="_top" xlink:title=" ">
<polygon fill="white" stroke="#666666" points="924.75,-244 834.5,-244 834.5,-224 924.75,-224 924.75,-244"/>
<text text-anchor="middle" x="879.62" y="-230.5" font-family="Helvetica,sans-Serif" font-size="10.00">communication.h</text>
</a>
</g>
</g>
<!-- Node1&#45;&gt;Node2 -->
<g id="edge1_Node000001_Node000002" class="edge">
<title>Node1&#45;&gt;Node2</title>
<g id="a_edge1_Node000001_Node000002"><a xlink:title=" ">
<path fill="none" stroke="#63b8ff" d="M933.83,-279.55C923.37,-270.95 910.36,-260.26 899.7,-251.5"/>
<polygon fill="#63b8ff" stroke="#63b8ff" points="902.19,-249.01 892.24,-245.37 897.74,-254.42 902.19,-249.01"/>
</a>
</g>
</g>
<!-- Node32 -->
<g id="Node000032" class="node">
<title>Node32</title>
<g id="a_Node000032"><a xlink:href="event__manager_8h.html" target="_top" xlink:title=" ">
<polygon fill="white" stroke="#666666" points="1035.12,-188 944.12,-188 944.12,-168 1035.12,-168 1035.12,-188"/>
<text text-anchor="middle" x="989.62" y="-174.5" font-family="Helvetica,sans-Serif" font-size="10.00">event_manager.h</text>
</a>
</g>
</g>
<!-- Node1&#45;&gt;Node32 -->
<g id="edge49_Node000001_Node000032" class="edge">
<title>Node1&#45;&gt;Node32</title>
<g id="a_edge49_Node000001_Node000032"><a xlink:title=" ">
<path fill="none" stroke="#63b8ff" d="M956.18,-279.61C959.66,-265.12 965.34,-242.89 971.62,-224 974.41,-215.62 977.94,-206.55 981.13,-198.77"/>
<polygon fill="#63b8ff" stroke="#63b8ff" points="984.34,-200.16 984.99,-189.58 977.89,-197.45 984.34,-200.16"/>
</a>
</g>
</g>
<!-- Node34 -->
<g id="Node000034" class="node">
<title>Node34</title>
<g id="a_Node000034"><a xlink:title=" ">
<polygon fill="#e0e0e0" stroke="#999999" points="1032.25,-244 981,-244 981,-224 1032.25,-224 1032.25,-244"/>
<text text-anchor="middle" x="1006.62" y="-230.5" font-family="Helvetica,sans-Serif" font-size="10.00">sstream</text>
</a>
</g>
</g>
<!-- Node1&#45;&gt;Node34 -->
<g id="edge50_Node000001_Node000034" class="edge">
<title>Node1&#45;&gt;Node34</title>
<g id="a_edge50_Node000001_Node000034"><a xlink:title=" ">
<path fill="none" stroke="#63b8ff" d="M966.53,-279.55C973.88,-271.39 982.92,-261.33 990.57,-252.84"/>
<polygon fill="#63b8ff" stroke="#63b8ff" points="993.06,-255.31 997.15,-245.53 987.85,-250.62 993.06,-255.31"/>
</a>
</g>
</g>
<!-- Node3 -->
<g id="Node000003" class="node">
<title>Node3</title>
<g id="a_Node000003"><a xlink:title=" ">
<polygon fill="#e0e0e0" stroke="#999999" points="525.62,-20 485.62,-20 485.62,0 525.62,0 525.62,-20"/>
<text text-anchor="middle" x="505.62" y="-6.5" font-family="Helvetica,sans-Serif" font-size="10.00">string</text>
</a>
</g>
</g>
<!-- Node2&#45;&gt;Node3 -->
<g id="edge2_Node000002_Node000003" class="edge">
<title>Node2&#45;&gt;Node3</title>
<g id="a_edge2_Node000002_Node000003"><a xlink:title=" ">
<path fill="none" stroke="#63b8ff" d="M834.14,-232.63C680.48,-230.61 183.07,-217.45 52.62,-132 28.46,-116.17 27.23,-103.87 19.62,-76 17.29,-67.42 13.64,-62.57 19.62,-56 50.24,-22.42 370.84,-13.52 473.91,-11.52"/>
<polygon fill="#63b8ff" stroke="#63b8ff" points="473.92,-15.02 483.85,-11.33 473.79,-8.02 473.92,-15.02"/>
</a>
</g>
</g>
<!-- Node4 -->
<g id="Node000004" class="node">
<title>Node4</title>
<g id="a_Node000004"><a xlink:title=" ">
<polygon fill="#e0e0e0" stroke="#999999" points="901.12,-132 858.12,-132 858.12,-112 901.12,-112 901.12,-132"/>
<text text-anchor="middle" x="879.62" y="-118.5" font-family="Helvetica,sans-Serif" font-size="10.00">vector</text>
</a>
</g>
</g>
<!-- Node2&#45;&gt;Node4 -->
<g id="edge3_Node000002_Node000004" class="edge">
<title>Node2&#45;&gt;Node4</title>
<g id="a_edge3_Node000002_Node000004"><a xlink:title=" ">
<path fill="none" stroke="#63b8ff" d="M879.62,-223.62C879.62,-206.01 879.62,-167.59 879.62,-143.65"/>
<polygon fill="#63b8ff" stroke="#63b8ff" points="883.13,-143.87 879.63,-133.87 876.13,-143.87 883.13,-143.87"/>
</a>
</g>
</g>
<!-- Node5 -->
<g id="Node000005" class="node">
<title>Node5</title>
<g id="a_Node000005"><a xlink:href="protocol_8h.html" target="_top" xlink:title=" ">
<polygon fill="white" stroke="#666666" points="652,-188 593.25,-188 593.25,-168 652,-168 652,-188"/>
<text text-anchor="middle" x="622.62" y="-174.5" font-family="Helvetica,sans-Serif" font-size="10.00">protocol.h</text>
</a>
</g>
</g>
<!-- Node2&#45;&gt;Node5 -->
<g id="edge4_Node000002_Node000005" class="edge">
<title>Node2&#45;&gt;Node5</title>
<g id="a_edge4_Node000002_Node000005"><a xlink:title=" ">
<path fill="none" stroke="#63b8ff" d="M834.56,-223.53C786.26,-213.38 710.23,-197.41 663.57,-187.6"/>
<polygon fill="#63b8ff" stroke="#63b8ff" points="664.37,-184.19 653.86,-185.56 662.93,-191.04 664.37,-184.19"/>
</a>
</g>
</g>
<!-- Node2&#45;&gt;Node32 -->
<g id="edge44_Node000002_Node000032" class="edge">
<title>Node2&#45;&gt;Node32</title>
<g id="a_edge44_Node000002_Node000032"><a xlink:title=" ">
<path fill="none" stroke="#63b8ff" d="M898.79,-223.59C915.72,-215.28 940.67,-203.03 960.15,-193.47"/>
<polygon fill="#63b8ff" stroke="#63b8ff" points="961.52,-196.7 968.96,-189.15 958.44,-190.41 961.52,-196.7"/>
</a>
</g>
</g>
<!-- Node5&#45;&gt;Node3 -->
<g id="edge5_Node000005_Node000003" class="edge">
<title>Node5&#45;&gt;Node3</title>
<g id="a_edge5_Node000005_Node000003"><a xlink:title=" ">
<path fill="none" stroke="#63b8ff" d="M652.38,-177.74C687.6,-176.8 744.95,-169.19 772.62,-132 792.79,-104.9 794.43,-81.79 772.62,-56 742.83,-20.76 601.67,-13.11 537.51,-11.45"/>
<polygon fill="#63b8ff" stroke="#63b8ff" points="537.7,-7.95 527.63,-11.23 537.55,-14.95 537.7,-7.95"/>
</a>
</g>
</g>
<!-- Node5&#45;&gt;Node4 -->
<g id="edge8_Node000005_Node000004" class="edge">
<title>Node5&#45;&gt;Node4</title>
<g id="a_edge8_Node000005_Node000004"><a xlink:title=" ">
<path fill="none" stroke="#63b8ff" d="M652.38,-171.37C694.91,-163.23 775.46,-147.45 843.62,-132 844.79,-131.74 845.97,-131.46 847.16,-131.19"/>
<polygon fill="#63b8ff" stroke="#63b8ff" points="847.59,-134.68 856.49,-128.94 845.95,-127.88 847.59,-134.68"/>
</a>
</g>
</g>
<!-- Node6 -->
<g id="Node000006" class="node">
<title>Node6</title>
<g id="a_Node000006"><a xlink:title=" ">
<polygon fill="#e0e0e0" stroke="#999999" points="923,-76 888.25,-76 888.25,-56 923,-56 923,-76"/>
<text text-anchor="middle" x="905.62" y="-62.5" font-family="Helvetica,sans-Serif" font-size="10.00">map</text>
</a>
</g>
</g>
<!-- Node5&#45;&gt;Node6 -->
<g id="edge6_Node000005_Node000006" class="edge">
<title>Node5&#45;&gt;Node6</title>
<g id="a_edge6_Node000005_Node000006"><a xlink:title=" ">
<path fill="none" stroke="#63b8ff" d="M652.45,-172.82C689.51,-166.92 754.14,-154.3 805.62,-132 835.07,-119.24 865.52,-98.11 884.96,-83.42"/>
<polygon fill="#63b8ff" stroke="#63b8ff" points="887.08,-86.2 892.86,-77.32 882.8,-80.66 887.08,-86.2"/>
</a>
</g>
</g>
<!-- Node7 -->
<g id="Node000007" class="node">
<title>Node7</title>
<g id="a_Node000007"><a xlink:title=" ">
<polygon fill="#e0e0e0" stroke="#999999" points="695.62,-132 637.62,-132 637.62,-112 695.62,-112 695.62,-132"/>
<text text-anchor="middle" x="666.62" y="-118.5" font-family="Helvetica,sans-Serif" font-size="10.00">functional</text>
</a>
</g>
</g>
<!-- Node5&#45;&gt;Node7 -->
<g id="edge7_Node000005_Node000007" class="edge">
<title>Node5&#45;&gt;Node7</title>
<g id="a_edge7_Node000005_Node000007"><a xlink:title=" ">
<path fill="none" stroke="#63b8ff" d="M630.29,-167.59C636.22,-160.32 644.61,-150.02 651.84,-141.15"/>
<polygon fill="#63b8ff" stroke="#63b8ff" points="654.49,-143.43 658.09,-133.47 649.06,-139.01 654.49,-143.43"/>
</a>
</g>
</g>
<!-- Node8 -->
<g id="Node000008" class="node">
<title>Node8</title>
<g id="a_Node000008"><a xlink:title=" ">
<polygon fill="#e0e0e0" stroke="#999999" points="964.25,-132 919,-132 919,-112 964.25,-112 964.25,-132"/>
<text text-anchor="middle" x="941.62" y="-118.5" font-family="Helvetica,sans-Serif" font-size="10.00">cstdint</text>
</a>
</g>
</g>
<!-- Node5&#45;&gt;Node8 -->
<g id="edge9_Node000005_Node000008" class="edge">
<title>Node5&#45;&gt;Node8</title>
<g id="a_edge9_Node000005_Node000008"><a xlink:title=" ">
<path fill="none" stroke="#63b8ff" d="M652.29,-173.63C702.88,-167.62 809.21,-153.81 907.65,-132.45"/>
<polygon fill="#63b8ff" stroke="#63b8ff" points="908.2,-135.91 917.21,-130.34 906.69,-129.08 908.2,-135.91"/>
</a>
</g>
</g>
<!-- Node9 -->
<g id="Node000009" class="node">
<title>Node9</title>
<g id="a_Node000009"><a xlink:title=" ">
<polygon fill="#e0e0e0" stroke="#999999" points="763.5,-132 713.75,-132 713.75,-112 763.5,-112 763.5,-132"/>
<text text-anchor="middle" x="738.62" y="-118.5" font-family="Helvetica,sans-Serif" font-size="10.00">iomanip</text>
</a>
</g>
</g>
<!-- Node5&#45;&gt;Node9 -->
<g id="edge10_Node000005_Node000009" class="edge">
<title>Node5&#45;&gt;Node9</title>
<g id="a_edge10_Node000005_Node000009"><a xlink:title=" ">
<path fill="none" stroke="#63b8ff" d="M642.83,-167.59C660.85,-159.21 687.49,-146.8 708.11,-137.21"/>
<polygon fill="#63b8ff" stroke="#63b8ff" points="709.3,-140.51 716.89,-133.12 706.35,-134.17 709.3,-140.51"/>
</a>
</g>
</g>
<!-- Node10 -->
<g id="Node000010" class="node">
<title>Node10</title>
<g id="a_Node000010"><a xlink:href="pin__config_8h.html" target="_top" xlink:title=" ">
<polygon fill="white" stroke="#666666" points="298.88,-76 230.38,-76 230.38,-56 298.88,-56 298.88,-76"/>
<text text-anchor="middle" x="264.62" y="-62.5" font-family="Helvetica,sans-Serif" font-size="10.00">pin_config.h</text>
</a>
</g>
</g>
<!-- Node5&#45;&gt;Node10 -->
<g id="edge11_Node000005_Node000010" class="edge">
<title>Node5&#45;&gt;Node10</title>
<g id="a_edge11_Node000005_Node000010"><a xlink:title=" ">
<path fill="none" stroke="#63b8ff" d="M592.82,-176.43C493.81,-174.25 180.42,-164.77 150.62,-132 125.99,-104.9 177.25,-86.2 218.8,-76.04"/>
<polygon fill="#63b8ff" stroke="#63b8ff" points="219.49,-79.48 228.44,-73.81 217.91,-72.66 219.49,-79.48"/>
</a>
</g>
</g>
<!-- Node12 -->
<g id="Node000012" class="node">
<title>Node12</title>
<g id="a_Node000012"><a xlink:href="_power_manager_8h.html" target="_top" xlink:title=" ">
<polygon fill="white" stroke="#666666" points="1071.38,-132 981.88,-132 981.88,-112 1071.38,-112 1071.38,-132"/>
<text text-anchor="middle" x="1026.62" y="-118.5" font-family="Helvetica,sans-Serif" font-size="10.00">PowerManager.h</text>
</a>
</g>
</g>
<!-- Node5&#45;&gt;Node12 -->
<g id="edge13_Node000005_Node000012" class="edge">
<title>Node5&#45;&gt;Node12</title>
<g id="a_edge13_Node000005_Node000012"><a xlink:title=" ">
<path fill="none" stroke="#63b8ff" d="M652.27,-173.61C711,-166.81 846.57,-150.68 970.37,-132.44"/>
<polygon fill="#63b8ff" stroke="#63b8ff" points="970.66,-135.94 980.04,-131.01 969.64,-129.01 970.66,-135.94"/>
</a>
</g>
</g>
<!-- Node17 -->
<g id="Node000017" class="node">
<title>Node17</title>
<g id="a_Node000017"><a xlink:title=" ">
<polygon fill="#e0e0e0" stroke="#999999" points="201.75,-132 159.5,-132 159.5,-112 201.75,-112 201.75,-132"/>
<text text-anchor="middle" x="180.62" y="-118.5" font-family="Helvetica,sans-Serif" font-size="10.00">cstdio</text>
</a>
</g>
</g>
<!-- Node5&#45;&gt;Node17 -->
<g id="edge22_Node000005_Node000017" class="edge">
<title>Node5&#45;&gt;Node17</title>
<g id="a_edge22_Node000005_Node000017"><a xlink:title=" ">
<path fill="none" stroke="#63b8ff" d="M592.86,-175.62C526.32,-172.13 360.38,-161.23 213.15,-132.18"/>
<polygon fill="#63b8ff" stroke="#63b8ff" points="214.11,-128.8 203.62,-130.26 212.73,-135.67 214.11,-128.8"/>
</a>
</g>
</g>
<!-- Node18 -->
<g id="Node000018" class="node">
<title>Node18</title>
<g id="a_Node000018"><a xlink:title=" ">
<polygon fill="#e0e0e0" stroke="#999999" points="263.88,-132 219.38,-132 219.38,-112 263.88,-112 263.88,-132"/>
<text text-anchor="middle" x="241.62" y="-118.5" font-family="Helvetica,sans-Serif" font-size="10.00">cstdlib</text>
</a>
</g>
</g>
<!-- Node5&#45;&gt;Node18 -->
<g id="edge23_Node000005_Node000018" class="edge">
<title>Node5&#45;&gt;Node18</title>
<g id="a_edge23_Node000005_Node000018"><a xlink:title=" ">
<path fill="none" stroke="#63b8ff" d="M592.87,-174.74C533.94,-169.92 398.15,-157.18 275.3,-132.28"/>
<polygon fill="#63b8ff" stroke="#63b8ff" points="276.19,-128.89 265.69,-130.3 274.78,-135.75 276.19,-128.89"/>
</a>
</g>
</g>
<!-- Node19 -->
<g id="Node000019" class="node">
<title>Node19</title>
<g id="a_Node000019"><a xlink:title=" ">
<polygon fill="#e0e0e0" stroke="#999999" points="327.25,-132 282,-132 282,-112 327.25,-112 327.25,-132"/>
<text text-anchor="middle" x="304.62" y="-118.5" font-family="Helvetica,sans-Serif" font-size="10.00">cstring</text>
</a>
</g>
</g>
<!-- Node5&#45;&gt;Node19 -->
<g id="edge24_Node000005_Node000019" class="edge">
<title>Node5&#45;&gt;Node19</title>
<g id="a_edge24_Node000005_Node000019"><a xlink:title=" ">
<path fill="none" stroke="#63b8ff" d="M592.77,-173.48C542.39,-167.3 437.16,-153.29 338.66,-132.22"/>
<polygon fill="#63b8ff" stroke="#63b8ff" points="339.61,-128.84 329.09,-130.14 338.12,-135.68 339.61,-128.84"/>
</a>
</g>
</g>
<!-- Node20 -->
<g id="Node000020" class="node">
<title>Node20</title>
<g id="a_Node000020"><a xlink:href="utils_8h.html" target="_top" xlink:title=" ">
<polygon fill="white" stroke="#666666" points="103.75,-132 61.5,-132 61.5,-112 103.75,-112 103.75,-132"/>
<text text-anchor="middle" x="82.62" y="-118.5" font-family="Helvetica,sans-Serif" font-size="10.00">utils.h</text>
</a>
</g>
</g>
<!-- Node5&#45;&gt;Node20 -->
<g id="edge25_Node000005_Node000020" class="edge">
<title>Node5&#45;&gt;Node20</title>
<g id="a_edge25_Node000005_Node000020"><a xlink:title=" ">
<path fill="none" stroke="#63b8ff" d="M592.81,-176.04C514.43,-173.14 296.33,-162.73 117.62,-132 116.79,-131.86 115.95,-131.7 115.1,-131.54"/>
<polygon fill="#63b8ff" stroke="#63b8ff" points="115.97,-128.15 105.45,-129.41 114.46,-134.99 115.97,-128.15"/>
</a>
</g>
</g>
<!-- Node23 -->
<g id="Node000023" class="node">
<title>Node23</title>
<g id="a_Node000023"><a xlink:title=" ">
<polygon fill="#e0e0e0" stroke="#999999" points="519.12,-132 476.12,-132 476.12,-112 519.12,-112 519.12,-132"/>
<text text-anchor="middle" x="497.62" y="-118.5" font-family="Helvetica,sans-Serif" font-size="10.00">time.h</text>
</a>
</g>
</g>
<!-- Node5&#45;&gt;Node23 -->
<g id="edge31_Node000005_Node000023" class="edge">
<title>Node5&#45;&gt;Node23</title>
<g id="a_edge31_Node000005_Node000023"><a xlink:title=" ">
<path fill="none" stroke="#63b8ff" d="M600.85,-167.59C581.26,-159.13 552.2,-146.58 529.9,-136.94"/>
<polygon fill="#63b8ff" stroke="#63b8ff" points="531.53,-133.83 520.96,-133.08 528.75,-140.26 531.53,-133.83"/>
</a>
</g>
</g>
<!-- Node24 -->
<g id="Node000024" class="node">
<title>Node24</title>
<g id="a_Node000024"><a xlink:href="build__number_8h.html" target="_top" xlink:title=" ">
<polygon fill="white" stroke="#666666" points="619.62,-132 537.62,-132 537.62,-112 619.62,-112 619.62,-132"/>
<text text-anchor="middle" x="578.62" y="-118.5" font-family="Helvetica,sans-Serif" font-size="10.00">build_number.h</text>
</a>
</g>
</g>
<!-- Node5&#45;&gt;Node24 -->
<g id="edge32_Node000005_Node000024" class="edge">
<title>Node5&#45;&gt;Node24</title>
<g id="a_edge32_Node000005_Node000024"><a xlink:title=" ">
<path fill="none" stroke="#63b8ff" d="M614.96,-167.59C609.03,-160.32 600.64,-150.02 593.41,-141.15"/>
<polygon fill="#63b8ff" stroke="#63b8ff" points="596.19,-139.01 587.16,-133.47 590.76,-143.43 596.19,-139.01"/>
</a>
</g>
</g>
<!-- Node25 -->
<g id="Node000025" class="node">
<title>Node25</title>
<g id="a_Node000025"><a xlink:href="_lo_ra-_r_p2040_8h.html" target="_top" xlink:title=" ">
<polygon fill="white" stroke="#666666" points="457.62,-132 345.62,-132 345.62,-112 457.62,-112 457.62,-132"/>
<text text-anchor="middle" x="401.62" y="-118.5" font-family="Helvetica,sans-Serif" font-size="10.00">LoRa/LoRa&#45;RP2040.h</text>
</a>
</g>
</g>
<!-- Node5&#45;&gt;Node25 -->
<g id="edge33_Node000005_Node000025" class="edge">
<title>Node5&#45;&gt;Node25</title>
<g id="a_edge33_Node000005_Node000025"><a xlink:title=" ">
<path fill="none" stroke="#63b8ff" d="M592.82,-169.72C556.51,-160.85 494.64,-145.73 451.14,-135.1"/>
<polygon fill="#63b8ff" stroke="#63b8ff" points="452.24,-131.76 441.7,-132.79 450.58,-138.56 452.24,-131.76"/>
</a>
</g>
</g>
<!-- Node11 -->
<g id="Node000011" class="node">
<title>Node11</title>
<g id="a_Node000011"><a xlink:title=" ">
<polygon fill="#e0e0e0" stroke="#999999" points="846.75,-20 798.5,-20 798.5,0 846.75,0 846.75,-20"/>
<text text-anchor="middle" x="822.62" y="-6.5" font-family="Helvetica,sans-Serif" font-size="10.00">stdint.h</text>
</a>
</g>
</g>
<!-- Node10&#45;&gt;Node11 -->
<g id="edge12_Node000010_Node000011" class="edge">
<title>Node10&#45;&gt;Node11</title>
<g id="a_edge12_Node000010_Node000011"><a xlink:title=" ">
<path fill="none" stroke="#63b8ff" d="M299.15,-57.55C302.34,-56.98 305.54,-56.45 308.62,-56 487.11,-30.02 702.79,-17.07 786.75,-12.72"/>
<polygon fill="#63b8ff" stroke="#63b8ff" points="786.84,-16.22 796.65,-12.22 786.49,-9.23 786.84,-16.22"/>
</a>
</g>
</g>
<!-- Node12&#45;&gt;Node3 -->
<g id="edge19_Node000012_Node000003" class="edge">
<title>Node12&#45;&gt;Node3</title>
<g id="a_edge19_Node000012_Node000003"><a xlink:title=" ">
<path fill="none" stroke="#63b8ff" d="M1016.76,-111.72C1000.48,-97.03 966.32,-68.77 931.62,-56 859.04,-29.29 623.19,-16.28 537.29,-12.34"/>
<polygon fill="#63b8ff" stroke="#63b8ff" points="537.63,-8.85 527.48,-11.9 537.31,-15.84 537.63,-8.85"/>
</a>
</g>
</g>
<!-- Node12&#45;&gt;Node6 -->
<g id="edge18_Node000012_Node000006" class="edge">
<title>Node12&#45;&gt;Node6</title>
<g id="a_edge18_Node000012_Node000006"><a xlink:title=" ">
<path fill="none" stroke="#63b8ff" d="M1005.55,-111.59C985.62,-102.7 955.59,-89.3 933.65,-79.51"/>
<polygon fill="#63b8ff" stroke="#63b8ff" points="935.26,-76.39 924.7,-75.51 932.4,-82.78 935.26,-76.39"/>
</a>
</g>
</g>
<!-- Node13 -->
<g id="Node000013" class="node">
<title>Node13</title>
<g id="a_Node000013"><a xlink:href="_i_n_a3221_8h.html" target="_top" xlink:title=" ">
<polygon fill="white" stroke="#666666" points="1140.5,-76 1036.75,-76 1036.75,-56 1140.5,-56 1140.5,-76"/>
<text text-anchor="middle" x="1088.62" y="-62.5" font-family="Helvetica,sans-Serif" font-size="10.00">INA3221/INA3221.h</text>
</a>
</g>
</g>
<!-- Node12&#45;&gt;Node13 -->
<g id="edge14_Node000012_Node000013" class="edge">
<title>Node12&#45;&gt;Node13</title>
<g id="a_edge14_Node000012_Node000013"><a xlink:title=" ">
<path fill="none" stroke="#63b8ff" d="M1037.42,-111.59C1046.23,-103.93 1058.88,-92.91 1069.4,-83.75"/>
<polygon fill="#63b8ff" stroke="#63b8ff" points="1071.57,-86.5 1076.81,-77.29 1066.97,-81.22 1071.57,-86.5"/>
</a>
</g>
</g>
<!-- Node15 -->
<g id="Node000015" class="node">
<title>Node15</title>
<g id="a_Node000015"><a xlink:title=" ">
<polygon fill="#e0e0e0" stroke="#999999" points="1208.5,-20 1128.75,-20 1128.75,0 1208.5,0 1208.5,-20"/>
<text text-anchor="middle" x="1168.62" y="-6.5" font-family="Helvetica,sans-Serif" font-size="10.00">hardware/i2c.h</text>
</a>
</g>
</g>
<!-- Node12&#45;&gt;Node15 -->
<g id="edge20_Node000012_Node000015" class="edge">
<title>Node12&#45;&gt;Node15</title>
<g id="a_edge20_Node000012_Node000015"><a xlink:title=" ">
<path fill="none" stroke="#63b8ff" d="M1071.71,-114.78C1097.78,-108.94 1129.35,-97.67 1149.62,-76 1160.93,-63.92 1165.55,-45.47 1167.42,-31.31"/>
<polygon fill="#63b8ff" stroke="#63b8ff" points="1170.86,-32.03 1168.3,-21.74 1163.89,-31.38 1170.86,-32.03"/>
</a>
</g>
</g>
<!-- Node16 -->
<g id="Node000016" class="node">
<title>Node16</title>
<g id="a_Node000016"><a xlink:title=" ">
<polygon fill="#e0e0e0" stroke="#999999" points="599.88,-76 531.38,-76 531.38,-56 599.88,-56 599.88,-76"/>
<text text-anchor="middle" x="565.62" y="-62.5" font-family="Helvetica,sans-Serif" font-size="10.00">pico/stdlib.h</text>
</a>
</g>
</g>
<!-- Node12&#45;&gt;Node16 -->
<g id="edge21_Node000012_Node000016" class="edge">
<title>Node12&#45;&gt;Node16</title>
<g id="a_edge21_Node000012_Node000016"><a xlink:title=" ">
<path fill="none" stroke="#63b8ff" d="M981.55,-113.13C978.87,-112.73 976.22,-112.35 973.62,-112 815.69,-90.83 771.71,-100.28 611.53,-76.3"/>
<polygon fill="#63b8ff" stroke="#63b8ff" points="612.21,-72.86 601.8,-74.82 611.16,-79.78 612.21,-72.86"/>
</a>
</g>
</g>
<!-- Node13&#45;&gt;Node11 -->
<g id="edge15_Node000013_Node000011" class="edge">
<title>Node13&#45;&gt;Node11</title>
<g id="a_edge15_Node000013_Node000011"><a xlink:title=" ">
<path fill="none" stroke="#63b8ff" d="M1041.99,-55.53C989.65,-44.91 905.89,-27.9 858.45,-18.27"/>
<polygon fill="#63b8ff" stroke="#63b8ff" points="859.19,-14.85 848.69,-16.29 857.8,-21.71 859.19,-14.85"/>
</a>
</g>
</g>
<!-- Node14 -->
<g id="Node000014" class="node">
<title>Node14</title>
<g id="a_Node000014"><a xlink:title=" ">
<polygon fill="#e0e0e0" stroke="#999999" points="1110.38,-20 1056.88,-20 1056.88,0 1110.38,0 1110.38,-20"/>
<text text-anchor="middle" x="1083.62" y="-6.5" font-family="Helvetica,sans-Serif" font-size="10.00">iostream</text>
</a>
</g>
</g>
<!-- Node13&#45;&gt;Node14 -->
<g id="edge16_Node000013_Node000014" class="edge">
<title>Node13&#45;&gt;Node14</title>
<g id="a_edge16_Node000013_Node000014"><a xlink:title=" ">
<path fill="none" stroke="#63b8ff" d="M1087.75,-55.59C1087.14,-49.01 1086.31,-39.96 1085.54,-31.73"/>
<polygon fill="#63b8ff" stroke="#63b8ff" points="1089.03,-31.44 1084.63,-21.81 1082.06,-32.09 1089.03,-31.44"/>
</a>
</g>
</g>
<!-- Node13&#45;&gt;Node15 -->
<g id="edge17_Node000013_Node000015" class="edge">
<title>Node13&#45;&gt;Node15</title>
<g id="a_edge17_Node000013_Node000015"><a xlink:title=" ">
<path fill="none" stroke="#63b8ff" d="M1102.56,-55.59C1114.3,-47.67 1131.36,-36.16 1145.19,-26.82"/>
<polygon fill="#63b8ff" stroke="#63b8ff" points="1147,-29.82 1153.33,-21.33 1143.08,-24.02 1147,-29.82"/>
</a>
</g>
</g>
<!-- Node20&#45;&gt;Node3 -->
<g id="edge27_Node000020_Node000003" class="edge">
<title>Node20&#45;&gt;Node3</title>
<g id="a_edge27_Node000020_Node000003"><a xlink:title=" ">
<path fill="none" stroke="#63b8ff" d="M104.09,-111.92C124.67,-103.1 156.51,-89.16 183.62,-76 200.8,-67.67 203.51,-62.02 221.62,-56 310.18,-26.57 420.85,-16.13 474.11,-12.63"/>
<polygon fill="#63b8ff" stroke="#63b8ff" points="474.19,-16.13 483.96,-12.03 473.76,-9.15 474.19,-16.13"/>
</a>
</g>
</g>
<!-- Node20&#45;&gt;Node10 -->
<g id="edge30_Node000020_Node000010" class="edge">
<title>Node20&#45;&gt;Node10</title>
<g id="a_edge30_Node000020_Node000010"><a xlink:title=" ">
<path fill="none" stroke="#63b8ff" d="M104.22,-114.59C133.06,-106.04 184.8,-90.68 221.73,-79.73"/>
<polygon fill="#63b8ff" stroke="#63b8ff" points="222.62,-83.11 231.21,-76.91 220.63,-76.4 222.62,-83.11"/>
</a>
</g>
</g>
<!-- Node20&#45;&gt;Node16 -->
<g id="edge28_Node000020_Node000016" class="edge">
<title>Node20&#45;&gt;Node16</title>
<g id="a_edge28_Node000020_Node000016"><a xlink:title=" ">
<path fill="none" stroke="#63b8ff" d="M104.04,-117.97C117.42,-116.13 135.01,-113.79 150.62,-112 311.67,-93.53 355.92,-100.32 520.11,-76.06"/>
<polygon fill="#63b8ff" stroke="#63b8ff" points="520.23,-79.58 529.6,-74.64 519.19,-72.66 520.23,-79.58"/>
</a>
</g>
</g>
<!-- Node21 -->
<g id="Node000021" class="node">
<title>Node21</title>
<g id="a_Node000021"><a xlink:title=" ">
<polygon fill="#e0e0e0" stroke="#999999" points="45.25,-20 0,-20 0,0 45.25,0 45.25,-20"/>
<text text-anchor="middle" x="22.62" y="-6.5" font-family="Helvetica,sans-Serif" font-size="10.00">stdio.h</text>
</a>
</g>
</g>
<!-- Node20&#45;&gt;Node21 -->
<g id="edge26_Node000020_Node000021" class="edge">
<title>Node20&#45;&gt;Node21</title>
<g id="a_edge26_Node000020_Node000021"><a xlink:title=" ">
<path fill="none" stroke="#63b8ff" d="M61.16,-112.12C46.53,-104.79 28.3,-92.85 19.62,-76 12.58,-62.31 13.89,-44.78 16.65,-31.37"/>
<polygon fill="#63b8ff" stroke="#63b8ff" points="19.98,-32.47 19.03,-21.91 13.19,-30.76 19.98,-32.47"/>
</a>
</g>
</g>
<!-- Node22 -->
<g id="Node000022" class="node">
<title>Node22</title>
<g id="a_Node000022"><a xlink:title=" ">
<polygon fill="#e0e0e0" stroke="#999999" points="112.38,-76 28.88,-76 28.88,-56 112.38,-56 112.38,-76"/>
<text text-anchor="middle" x="70.62" y="-62.5" font-family="Helvetica,sans-Serif" font-size="10.00">hardware/uart.h</text>
</a>
</g>
</g>
<!-- Node20&#45;&gt;Node22 -->
<g id="edge29_Node000020_Node000022" class="edge">
<title>Node20&#45;&gt;Node22</title>
<g id="a_edge29_Node000020_Node000022"><a xlink:title=" ">
<path fill="none" stroke="#63b8ff" d="M80.53,-111.59C79.05,-104.93 77.01,-95.75 75.17,-87.44"/>
<polygon fill="#63b8ff" stroke="#63b8ff" points="78.61,-86.78 73.02,-77.78 71.77,-88.3 78.61,-86.78"/>
</a>
</g>
</g>
<!-- Node25&#45;&gt;Node10 -->
<g id="edge43_Node000025_Node000010" class="edge">
<title>Node25&#45;&gt;Node10</title>
<g id="a_edge43_Node000025_Node000010"><a xlink:title=" ">
<path fill="none" stroke="#63b8ff" d="M377.76,-111.59C356.09,-103.05 323.86,-90.35 299.33,-80.68"/>
<polygon fill="#63b8ff" stroke="#63b8ff" points="300.67,-77.45 290.08,-77.03 298.1,-83.96 300.67,-77.45"/>
</a>
</g>
</g>
<!-- Node25&#45;&gt;Node16 -->
<g id="edge34_Node000025_Node000016" class="edge">
<title>Node25&#45;&gt;Node16</title>
<g id="a_edge34_Node000025_Node000016"><a xlink:title=" ">
<path fill="none" stroke="#63b8ff" d="M430.19,-111.59C456.72,-102.86 496.46,-89.77 526.04,-80.03"/>
<polygon fill="#63b8ff" stroke="#63b8ff" points="526.99,-83.4 535.4,-76.95 524.8,-76.76 526.99,-83.4"/>
</a>
</g>
</g>
<!-- Node26 -->
<g id="Node000026" class="node">
<title>Node26</title>
<g id="a_Node000026"><a xlink:title=" ">
<polygon fill="#e0e0e0" stroke="#999999" points="409.88,-76 317.38,-76 317.38,-56 409.88,-56 409.88,-76"/>
<text text-anchor="middle" x="363.62" y="-62.5" font-family="Helvetica,sans-Serif" font-size="10.00">pico/binary_info.h</text>
</a>
</g>
</g>
<!-- Node25&#45;&gt;Node26 -->
<g id="edge35_Node000025_Node000026" class="edge">
<title>Node25&#45;&gt;Node26</title>
<g id="a_edge35_Node000025_Node000026"><a xlink:title=" ">
<path fill="none" stroke="#63b8ff" d="M395.01,-111.59C389.94,-104.39 382.79,-94.23 376.6,-85.43"/>
<polygon fill="#63b8ff" stroke="#63b8ff" points="379.66,-83.7 371.04,-77.54 373.93,-87.73 379.66,-83.7"/>
</a>
</g>
</g>
<!-- Node27 -->
<g id="Node000027" class="node">
<title>Node27</title>
<g id="a_Node000027"><a xlink:title=" ">
<polygon fill="#e0e0e0" stroke="#999999" points="513.12,-76 428.12,-76 428.12,-56 513.12,-56 513.12,-76"/>
<text text-anchor="middle" x="470.62" y="-62.5" font-family="Helvetica,sans-Serif" font-size="10.00">hardware/gpio.h</text>
</a>
</g>
</g>
<!-- Node25&#45;&gt;Node27 -->
<g id="edge36_Node000025_Node000027" class="edge">
<title>Node25&#45;&gt;Node27</title>
<g id="a_edge36_Node000025_Node000027"><a xlink:title=" ">
<path fill="none" stroke="#63b8ff" d="M413.64,-111.59C423.64,-103.77 438.09,-92.46 449.93,-83.19"/>
<polygon fill="#63b8ff" stroke="#63b8ff" points="451.83,-86.15 457.55,-77.23 447.52,-80.64 451.83,-86.15"/>
</a>
</g>
</g>
<!-- Node28 -->
<g id="Node000028" class="node">
<title>Node28</title>
<g id="a_Node000028"><a xlink:title=" ">
<polygon fill="#e0e0e0" stroke="#999999" points="763.5,-76 683.75,-76 683.75,-56 763.5,-56 763.5,-76"/>
<text text-anchor="middle" x="723.62" y="-62.5" font-family="Helvetica,sans-Serif" font-size="10.00">hardware/spi.h</text>
</a>
</g>
</g>
<!-- Node25&#45;&gt;Node28 -->
<g id="edge37_Node000025_Node000028" class="edge">
<title>Node25&#45;&gt;Node28</title>
<g id="a_edge37_Node000025_Node000028"><a xlink:title=" ">
<path fill="none" stroke="#63b8ff" d="M457.88,-112.03C510.63,-103.56 592.02,-90.31 671.99,-76.44"/>
<polygon fill="#63b8ff" stroke="#63b8ff" points="672.52,-79.9 681.77,-74.73 671.32,-73 672.52,-79.9"/>
</a>
</g>
</g>
<!-- Node29 -->
<g id="Node000029" class="node">
<title>Node29</title>
<g id="a_Node000029"><a xlink:title=" ">
<polygon fill="#e0e0e0" stroke="#999999" points="665.75,-76 617.5,-76 617.5,-56 665.75,-56 665.75,-76"/>
<text text-anchor="middle" x="641.62" y="-62.5" font-family="Helvetica,sans-Serif" font-size="10.00">string.h</text>
</a>
</g>
</g>
<!-- Node25&#45;&gt;Node29 -->
<g id="edge38_Node000025_Node000029" class="edge">
<title>Node25&#45;&gt;Node29</title>
<g id="a_edge38_Node000025_Node000029"><a xlink:title=" ">
<path fill="none" stroke="#63b8ff" d="M448.65,-111.51C488.24,-103.35 546.63,-90.94 606.05,-76.54"/>
<polygon fill="#63b8ff" stroke="#63b8ff" points="606.8,-79.96 615.68,-74.19 605.14,-73.16 606.8,-79.96"/>
</a>
</g>
</g>
<!-- Node30 -->
<g id="Node000030" class="node">
<title>Node30</title>
<g id="a_Node000030"><a xlink:href="_print_8h.html" target="_top" xlink:title=" ">
<polygon fill="white" stroke="#666666" points="174.88,-76 130.38,-76 130.38,-56 174.88,-56 174.88,-76"/>
<text text-anchor="middle" x="152.62" y="-62.5" font-family="Helvetica,sans-Serif" font-size="10.00">Print.h</text>
</a>
</g>
</g>
<!-- Node25&#45;&gt;Node30 -->
<g id="edge39_Node000025_Node000030" class="edge">
<title>Node25&#45;&gt;Node30</title>
<g id="a_edge39_Node000025_Node000030"><a xlink:title=" ">
<path fill="none" stroke="#63b8ff" d="M357.97,-111.53C309.06,-100.93 230.82,-83.96 186.37,-74.32"/>
<polygon fill="#63b8ff" stroke="#63b8ff" points="187.31,-70.94 176.79,-72.24 185.82,-77.78 187.31,-70.94"/>
</a>
</g>
</g>
<!-- Node30&#45;&gt;Node3 -->
<g id="edge42_Node000030_Node000003" class="edge">
<title>Node30&#45;&gt;Node3</title>
<g id="a_edge42_Node000030_Node000003"><a xlink:title=" ">
<path fill="none" stroke="#63b8ff" d="M175.01,-59.02C179.5,-57.93 184.2,-56.86 188.62,-56 292.53,-35.69 417.28,-20.7 474.36,-14.35"/>
<polygon fill="#63b8ff" stroke="#63b8ff" points="474.41,-17.86 483.97,-13.29 473.65,-10.9 474.41,-17.86"/>
</a>
</g>
</g>
<!-- Node30&#45;&gt;Node21 -->
<g id="edge41_Node000030_Node000021" class="edge">
<title>Node30&#45;&gt;Node21</title>
<g id="a_edge41_Node000030_Node000021"><a xlink:title=" ">
<path fill="none" stroke="#63b8ff" d="M129.98,-55.59C109.51,-47.09 79.11,-34.46 55.88,-24.81"/>
<polygon fill="#63b8ff" stroke="#63b8ff" points="57.42,-21.66 46.84,-21.06 54.74,-28.13 57.42,-21.66"/>
</a>
</g>
</g>
<!-- Node31 -->
<g id="Node000031" class="node">
<title>Node31</title>
<g id="a_Node000031"><a xlink:title=" ">
<polygon fill="#e0e0e0" stroke="#999999" points="182,-20 123.25,-20 123.25,0 182,0 182,-20"/>
<text text-anchor="middle" x="152.62" y="-6.5" font-family="Helvetica,sans-Serif" font-size="10.00">inttypes.h</text>
</a>
</g>
</g>
<!-- Node30&#45;&gt;Node31 -->
<g id="edge40_Node000030_Node000031" class="edge">
<title>Node30&#45;&gt;Node31</title>
<g id="a_edge40_Node000030_Node000031"><a xlink:title=" ">
<path fill="none" stroke="#63b8ff" d="M152.62,-55.59C152.62,-49.01 152.62,-39.96 152.62,-31.73"/>
<polygon fill="#63b8ff" stroke="#63b8ff" points="156.13,-31.81 152.63,-21.81 149.13,-31.81 156.13,-31.81"/>
</a>
</g>
</g>
<!-- Node32&#45;&gt;Node3 -->
<g id="edge47_Node000032_Node000003" class="edge">
<title>Node32&#45;&gt;Node3</title>
<g id="a_edge47_Node000032_Node000003"><a xlink:title=" ">
<path fill="none" stroke="#63b8ff" d="M1025.4,-167.52C1057.5,-157.1 1097.18,-138.28 1080.62,-112 1065.26,-87.61 991.39,-63.75 963.62,-56 807.99,-12.56 612.42,-9.67 537.14,-10.37"/>
<polygon fill="#63b8ff" stroke="#63b8ff" points="537.19,-6.87 527.23,-10.5 537.27,-13.87 537.19,-6.87"/>
</a>
</g>
</g>
<!-- Node32&#45;&gt;Node8 -->
<g id="edge46_Node000032_Node000008" class="edge">
<title>Node32&#45;&gt;Node8</title>
<g id="a_edge46_Node000032_Node000008"><a xlink:title=" ">
<path fill="none" stroke="#63b8ff" d="M981.26,-167.59C974.73,-160.24 965.44,-149.8 957.51,-140.87"/>
<polygon fill="#63b8ff" stroke="#63b8ff" points="960.16,-138.58 950.9,-133.43 954.92,-143.23 960.16,-138.58"/>
</a>
</g>
</g>
<!-- Node32&#45;&gt;Node12 -->
<g id="edge45_Node000032_Node000012" class="edge">
<title>Node32&#45;&gt;Node12</title>
<g id="a_edge45_Node000032_Node000012"><a xlink:title=" ">
<path fill="none" stroke="#63b8ff" d="M996.07,-167.59C1000.95,-160.47 1007.82,-150.45 1013.8,-141.72"/>
<polygon fill="#63b8ff" stroke="#63b8ff" points="1016.63,-143.77 1019.4,-133.55 1010.86,-139.82 1016.63,-143.77"/>
</a>
</g>
</g>
<!-- Node33 -->
<g id="Node000033" class="node">
<title>Node33</title>
<g id="a_Node000033"><a xlink:title=" ">
<polygon fill="#e0e0e0" stroke="#999999" points="1199.75,-132 1127.5,-132 1127.5,-112 1199.75,-112 1199.75,-132"/>
<text text-anchor="middle" x="1163.62" y="-118.5" font-family="Helvetica,sans-Serif" font-size="10.00">pico/mutex.h</text>
</a>
</g>
</g>
<!-- Node32&#45;&gt;Node33 -->
<g id="edge48_Node000032_Node000033" class="edge">
<title>Node32&#45;&gt;Node33</title>
<g id="a_edge48_Node000032_Node000033"><a xlink:title=" ">
<path fill="none" stroke="#63b8ff" d="M1019.93,-167.59C1048.33,-158.78 1090.99,-145.54 1122.46,-135.78"/>
<polygon fill="#63b8ff" stroke="#63b8ff" points="1123.12,-139.23 1131.63,-132.93 1121.05,-132.55 1123.12,-139.23"/>
</a>
</g>
</g>
</g>
</svg>

<g id="navigator" transform="translate(0 0)" fill="#404254">
  <rect fill="#f2f5e9" fill-opacity="0.5" stroke="#606060" stroke-width=".5" x="0" y="0" width="60" height="60"/>
  <use id="zoomplus" xlink:href="#zoomPlus" x="17" y="9" onmousedown="handleZoom(evt,'in')"/>
  <use id="zoomminus" xlink:href="#zoomMin" x="42" y="9" onmousedown="handleZoom(evt,'out')"/>
  <use id="reset" xlink:href="#resetDef" x="30" y="36" onmousedown="handleReset()"/>
   <use id="arrowup" xlink:href="#arrowUp" x="0" y="0" onmousedown="handlePan(0,-1)"/>
  <use id="arrowright" xlink:href="#arrowRight" x="0" y="0" onmousedown="handlePan(1,0)"/>
  <use id="arrowdown" xlink:href="#arrowDown" x="0" y="0" onmousedown="handlePan(0,1)"/>
  <use id="arrowleft" xlink:href="#arrowLeft" x="0" y="0" onmousedown="handlePan(-1,0)"/>
</g>
<svg viewBox="0 0 15 15" width="100%" height="30px" preserveAspectRatio="xMaxYMin meet">
 <g id="arrow_out" transform="scale(0.3 0.3)">
  <a xlink:href="event__commands_8cpp__incl_org.svg" target="_base">
   <rect id="button" ry="5" rx="5" y="6" x="6" height="38" width="38"
        fill="#f2f5e9" fill-opacity="0.5" stroke="#606060" stroke-width="1.0"/>
   <path id="arrow"
     d="M 11.500037,31.436501 C 11.940474,20.09759 22.043105,11.32322 32.158766,21.979434 L 37.068811,17.246167 C 37.068811,17.246167 37.088388,32 37.088388,32 L 22.160133,31.978069 C 22.160133,31.978069 26.997745,27.140456 26.997745,27.140456 C 18.528582,18.264221 13.291696,25.230495 11.500037,31.436501 z"
     style="fill:#404040;"/>
  </a>
 </g>
</svg>

<style type='text/css'>
<![CDATA[
[data-mouse-over-selected='false'] { opacity: 0.7; }
[data-mouse-over-selected='true']  { opacity: 1.0; }
]]>
</style>
<script type="application/ecmascript"><![CDATA[
document.addEventListener('DOMContentLoaded', (event) => {
  highlightEdges();
  highlightAdjacentNodes();
});
]]></script>
</svg>
