<?xml version="1.0" encoding="UTF-8" standalone="no"?>
<!DOCTYPE svg PUBLIC "-//W3C//DTD SVG 1.1//EN"
 "http://www.w3.org/Graphics/SVG/1.1/DTD/svg11.dtd">
<!-- Generated by graphviz version 12.2.1 (20241206.2353)
 -->
<!-- Title: lib/eventman/event_manager.h Pages: 1 -->
<svg width="1851pt" height="232pt"
 viewBox="0.00 0.00 1851.38 232.00" xmlns="http://www.w3.org/2000/svg" xmlns:xlink="http://www.w3.org/1999/xlink">
<g id="graph0" class="graph" transform="scale(1 1) rotate(0) translate(4 228)">
<title>lib/eventman/event_manager.h</title>
<!-- Node1 -->
<g id="Node000001" class="node">
<title>Node1</title>
<g id="a_Node000001"><a xlink:title=" ">
<polygon fill="#999999" stroke="#666666" points="896.38,-224 797.88,-224 797.88,-192 896.38,-192 896.38,-224"/>
<text text-anchor="start" x="805.88" y="-210.5" font-family="Helvetica,sans-Serif" font-size="10.00">lib/eventman/event</text>
<text text-anchor="middle" x="847.12" y="-198.5" font-family="Helvetica,sans-Serif" font-size="10.00">_manager.h</text>
</a>
</g>
</g>
<!-- Node2 -->
<g id="Node000002" class="node">
<title>Node2</title>
<g id="a_Node000002"><a xlink:href="includes_8h.html" target="_top" xlink:title=" ">
<polygon fill="white" stroke="#666666" points="60.25,-94 0,-94 0,-74 60.25,-74 60.25,-94"/>
<text text-anchor="middle" x="30.12" y="-80.5" font-family="Helvetica,sans-Serif" font-size="10.00">includes.h</text>
</a>
</g>
</g>
<!-- Node1&#45;&gt;Node2 -->
<g id="edge1_Node000001_Node000002" class="edge">
<title>Node1&#45;&gt;Node2</title>
<g id="a_edge1_Node000001_Node000002"><a xlink:title=" ">
<path fill="none" stroke="#63b8ff" d="M786.19,-203.76C653.83,-195.6 330.96,-169.67 70.12,-100 64.39,-98.47 58.34,-96.43 52.72,-94.35"/>
<polygon fill="#63b8ff" stroke="#63b8ff" points="785.95,-207.25 796.14,-204.36 786.37,-200.26 785.95,-207.25"/>
</a>
</g>
</g>
<!-- Node4 -->
<g id="Node000004" class="node">
<title>Node4</title>
<g id="a_Node000004"><a xlink:href="event__commands_8cpp.html" target="_top" xlink:title=" ">
<polygon fill="white" stroke="#666666" points="193.62,-100 78.62,-100 78.62,-68 193.62,-68 193.62,-100"/>
<text text-anchor="start" x="86.62" y="-86.5" font-family="Helvetica,sans-Serif" font-size="10.00">lib/comms/commands</text>
<text text-anchor="middle" x="136.12" y="-74.5" font-family="Helvetica,sans-Serif" font-size="10.00">/event_commands.cpp</text>
</a>
</g>
</g>
<!-- Node1&#45;&gt;Node4 -->
<g id="edge3_Node000001_Node000004" class="edge">
<title>Node1&#45;&gt;Node4</title>
<g id="a_edge3_Node000001_Node000004"><a xlink:title=" ">
<path fill="none" stroke="#63b8ff" d="M786.28,-198.13C671.62,-181.15 415.88,-141.98 202.12,-100 199.47,-99.48 196.76,-98.93 194.03,-98.36"/>
<polygon fill="#63b8ff" stroke="#63b8ff" points="785.68,-201.58 796.09,-199.58 786.71,-194.66 785.68,-201.58"/>
</a>
</g>
</g>
<!-- Node5 -->
<g id="Node000005" class="node">
<title>Node5</title>
<g id="a_Node000005"><a xlink:href="communication_8h.html" target="_top" xlink:title=" ">
<polygon fill="white" stroke="#666666" points="916.25,-156 778,-156 778,-136 916.25,-136 916.25,-156"/>
<text text-anchor="middle" x="847.12" y="-142.5" font-family="Helvetica,sans-Serif" font-size="10.00">lib/comms/communication.h</text>
</a>
</g>
</g>
<!-- Node1&#45;&gt;Node5 -->
<g id="edge4_Node000001_Node000005" class="edge">
<title>Node1&#45;&gt;Node5</title>
<g id="a_edge4_Node000001_Node000005"><a xlink:title=" ">
<path fill="none" stroke="#63b8ff" d="M847.12,-180.08C847.12,-171.6 847.12,-162.8 847.12,-156.41"/>
<polygon fill="#63b8ff" stroke="#63b8ff" points="843.63,-180.03 847.13,-190.03 850.63,-180.03 843.63,-180.03"/>
</a>
</g>
</g>
<!-- Node16 -->
<g id="Node000016" class="node">
<title>Node16</title>
<g id="a_Node000016"><a xlink:href="event__manager_8cpp.html" target="_top" xlink:title="Implements the event management system for the Kubisat firmware.">
<polygon fill="white" stroke="#666666" points="1843.38,-100 1744.88,-100 1744.88,-68 1843.38,-68 1843.38,-100"/>
<text text-anchor="start" x="1752.88" y="-86.5" font-family="Helvetica,sans-Serif" font-size="10.00">lib/eventman/event</text>
<text text-anchor="middle" x="1794.12" y="-74.5" font-family="Helvetica,sans-Serif" font-size="10.00">_manager.cpp</text>
</a>
</g>
</g>
<!-- Node1&#45;&gt;Node16 -->
<g id="edge22_Node000001_Node000016" class="edge">
<title>Node1&#45;&gt;Node16</title>
<g id="a_edge22_Node000001_Node000016"><a xlink:title=" ">
<path fill="none" stroke="#63b8ff" d="M880.45,-185.43C911.44,-165.57 954.14,-138.76 963.12,-136 1127.52,-85.53 1566.09,-125.67 1736.12,-100 1738.9,-99.58 1741.74,-99.08 1744.59,-98.53"/>
<polygon fill="#63b8ff" stroke="#63b8ff" points="878.65,-182.43 872.13,-190.78 882.43,-188.31 878.65,-182.43"/>
</a>
</g>
</g>
<!-- Node21 -->
<g id="Node000021" class="node">
<title>Node21</title>
<g id="a_Node000021"><a xlink:href="gps__collector_8cpp.html" target="_top" xlink:title=" ">
<polygon fill="white" stroke="#666666" points="1114.12,-156 972.12,-156 972.12,-136 1114.12,-136 1114.12,-156"/>
<text text-anchor="middle" x="1043.12" y="-142.5" font-family="Helvetica,sans-Serif" font-size="10.00">lib/location/gps_collector.cpp</text>
</a>
</g>
</g>
<!-- Node1&#45;&gt;Node21 -->
<g id="edge23_Node000001_Node000021" class="edge">
<title>Node1&#45;&gt;Node21</title>
<g id="a_edge23_Node000001_Node000021"><a xlink:title=" ">
<path fill="none" stroke="#63b8ff" d="M907.78,-188.43C942.35,-177.85 984.22,-165.03 1012.15,-156.48"/>
<polygon fill="#63b8ff" stroke="#63b8ff" points="906.82,-185.06 898.28,-191.34 908.87,-191.76 906.82,-185.06"/>
</a>
</g>
</g>
<!-- Node3 -->
<g id="Node000003" class="node">
<title>Node3</title>
<g id="a_Node000003"><a xlink:href="main_8cpp.html" target="_top" xlink:title=" ">
<polygon fill="white" stroke="#666666" points="58,-26 2.25,-26 2.25,-6 58,-6 58,-26"/>
<text text-anchor="middle" x="30.12" y="-12.5" font-family="Helvetica,sans-Serif" font-size="10.00">main.cpp</text>
</a>
</g>
</g>
<!-- Node2&#45;&gt;Node3 -->
<g id="edge2_Node000002_Node000003" class="edge">
<title>Node2&#45;&gt;Node3</title>
<g id="a_edge2_Node000002_Node000003"><a xlink:title=" ">
<path fill="none" stroke="#63b8ff" d="M30.12,-62.28C30.12,-50.27 30.12,-35.74 30.12,-26.44"/>
<polygon fill="#63b8ff" stroke="#63b8ff" points="26.63,-62.03 30.13,-72.03 33.63,-62.03 26.63,-62.03"/>
</a>
</g>
</g>
<!-- Node5&#45;&gt;Node2 -->
<g id="edge5_Node000005_Node000002" class="edge">
<title>Node5&#45;&gt;Node2</title>
<g id="a_edge5_Node000005_Node000002"><a xlink:title=" ">
<path fill="none" stroke="#63b8ff" d="M766.21,-143.39C595.01,-139.48 201.13,-127.69 70.12,-100 64.03,-98.71 57.63,-96.65 51.78,-94.47"/>
<polygon fill="#63b8ff" stroke="#63b8ff" points="766.06,-146.89 776.14,-143.61 766.22,-139.89 766.06,-146.89"/>
</a>
</g>
</g>
<!-- Node5&#45;&gt;Node4 -->
<g id="edge9_Node000005_Node000004" class="edge">
<title>Node5&#45;&gt;Node4</title>
<g id="a_edge9_Node000005_Node000004"><a xlink:title=" ">
<path fill="none" stroke="#63b8ff" d="M766.33,-140.92C618.23,-133.18 308.73,-115.74 202.12,-100 199.45,-99.61 196.73,-99.16 193.98,-98.68"/>
<polygon fill="#63b8ff" stroke="#63b8ff" points="765.89,-144.4 776.06,-141.43 766.25,-137.41 765.89,-144.4"/>
</a>
</g>
</g>
<!-- Node6 -->
<g id="Node000006" class="node">
<title>Node6</title>
<g id="a_Node000006"><a xlink:href="clock__commands_8cpp.html" target="_top" xlink:title=" ">
<polygon fill="white" stroke="#666666" points="631.25,-100 517,-100 517,-68 631.25,-68 631.25,-100"/>
<text text-anchor="start" x="525" y="-86.5" font-family="Helvetica,sans-Serif" font-size="10.00">lib/comms/commands</text>
<text text-anchor="middle" x="574.12" y="-74.5" font-family="Helvetica,sans-Serif" font-size="10.00">/clock_commands.cpp</text>
</a>
</g>
</g>
<!-- Node5&#45;&gt;Node6 -->
<g id="edge6_Node000005_Node000006" class="edge">
<title>Node5&#45;&gt;Node6</title>
<g id="a_edge6_Node000005_Node000006"><a xlink:title=" ">
<path fill="none" stroke="#63b8ff" d="M792.05,-133.18C750.33,-124.18 691.59,-111.44 640.12,-100 637.37,-99.39 634.56,-98.76 631.71,-98.12"/>
<polygon fill="#63b8ff" stroke="#63b8ff" points="791.09,-136.55 801.6,-135.23 792.57,-129.71 791.09,-136.55"/>
</a>
</g>
</g>
<!-- Node7 -->
<g id="Node000007" class="node">
<title>Node7</title>
<g id="a_Node000007"><a xlink:href="commands_8cpp.html" target="_top" xlink:title=" ">
<polygon fill="white" stroke="#666666" points="761.12,-100 649.12,-100 649.12,-68 761.12,-68 761.12,-100"/>
<text text-anchor="start" x="657.12" y="-86.5" font-family="Helvetica,sans-Serif" font-size="10.00">lib/comms/commands</text>
<text text-anchor="middle" x="705.12" y="-74.5" font-family="Helvetica,sans-Serif" font-size="10.00">/commands.cpp</text>
</a>
</g>
</g>
<!-- Node5&#45;&gt;Node7 -->
<g id="edge7_Node000005_Node000007" class="edge">
<title>Node5&#45;&gt;Node7</title>
<g id="a_edge7_Node000005_Node000007"><a xlink:title=" ">
<path fill="none" stroke="#63b8ff" d="M814.59,-131.25C792.88,-122.08 764.3,-110 741.79,-100.49"/>
<polygon fill="#63b8ff" stroke="#63b8ff" points="812.97,-134.37 823.54,-135.04 815.69,-127.92 812.97,-134.37"/>
</a>
</g>
</g>
<!-- Node8 -->
<g id="Node000008" class="node">
<title>Node8</title>
<g id="a_Node000008"><a xlink:href="diagnostic__commands_8cpp.html" target="_top" xlink:title=" ">
<polygon fill="white" stroke="#666666" points="914.75,-100 779.5,-100 779.5,-68 914.75,-68 914.75,-100"/>
<text text-anchor="start" x="787.5" y="-86.5" font-family="Helvetica,sans-Serif" font-size="10.00">lib/comms/commands</text>
<text text-anchor="middle" x="847.12" y="-74.5" font-family="Helvetica,sans-Serif" font-size="10.00">/diagnostic_commands.cpp</text>
</a>
</g>
</g>
<!-- Node5&#45;&gt;Node8 -->
<g id="edge8_Node000005_Node000008" class="edge">
<title>Node5&#45;&gt;Node8</title>
<g id="a_edge8_Node000005_Node000008"><a xlink:title=" ">
<path fill="none" stroke="#63b8ff" d="M847.12,-124.31C847.12,-116.37 847.12,-107.46 847.12,-100.14"/>
<polygon fill="#63b8ff" stroke="#63b8ff" points="843.63,-124.11 847.13,-134.11 850.63,-124.11 843.63,-124.11"/>
</a>
</g>
</g>
<!-- Node9 -->
<g id="Node000009" class="node">
<title>Node9</title>
<g id="a_Node000009"><a xlink:href="gps__commands_8cpp.html" target="_top" xlink:title=" ">
<polygon fill="white" stroke="#666666" points="1045.12,-100 933.12,-100 933.12,-68 1045.12,-68 1045.12,-100"/>
<text text-anchor="start" x="941.12" y="-86.5" font-family="Helvetica,sans-Serif" font-size="10.00">lib/comms/commands</text>
<text text-anchor="middle" x="989.12" y="-74.5" font-family="Helvetica,sans-Serif" font-size="10.00">/gps_commands.cpp</text>
</a>
</g>
</g>
<!-- Node5&#45;&gt;Node9 -->
<g id="edge10_Node000005_Node000009" class="edge">
<title>Node5&#45;&gt;Node9</title>
<g id="a_edge10_Node000005_Node000009"><a xlink:title=" ">
<path fill="none" stroke="#63b8ff" d="M879.66,-131.25C901.37,-122.08 929.95,-110 952.46,-100.49"/>
<polygon fill="#63b8ff" stroke="#63b8ff" points="878.56,-127.92 870.71,-135.04 881.28,-134.37 878.56,-127.92"/>
</a>
</g>
</g>
<!-- Node10 -->
<g id="Node000010" class="node">
<title>Node10</title>
<g id="a_Node000010"><a xlink:href="power__commands_8cpp.html" target="_top" xlink:title=" ">
<polygon fill="white" stroke="#666666" points="1180.75,-100 1063.5,-100 1063.5,-68 1180.75,-68 1180.75,-100"/>
<text text-anchor="start" x="1071.5" y="-86.5" font-family="Helvetica,sans-Serif" font-size="10.00">lib/comms/commands</text>
<text text-anchor="middle" x="1122.12" y="-74.5" font-family="Helvetica,sans-Serif" font-size="10.00">/power_commands.cpp</text>
</a>
</g>
</g>
<!-- Node5&#45;&gt;Node10 -->
<g id="edge11_Node000005_Node000010" class="edge">
<title>Node5&#45;&gt;Node10</title>
<g id="a_edge11_Node000005_Node000010"><a xlink:title=" ">
<path fill="none" stroke="#63b8ff" d="M901.78,-133.17C943.51,-124.12 1002.46,-111.31 1054.12,-100 1057.08,-99.35 1060.1,-98.69 1063.16,-98.02"/>
<polygon fill="#63b8ff" stroke="#63b8ff" points="901.26,-129.7 892.23,-135.24 902.74,-136.54 901.26,-129.7"/>
</a>
</g>
</g>
<!-- Node11 -->
<g id="Node000011" class="node">
<title>Node11</title>
<g id="a_Node000011"><a xlink:href="communication_8cpp.html" target="_top" xlink:title=" ">
<polygon fill="white" stroke="#666666" points="1347.5,-94 1198.75,-94 1198.75,-74 1347.5,-74 1347.5,-94"/>
<text text-anchor="middle" x="1273.12" y="-80.5" font-family="Helvetica,sans-Serif" font-size="10.00">lib/comms/communication.cpp</text>
</a>
</g>
</g>
<!-- Node5&#45;&gt;Node11 -->
<g id="edge12_Node000005_Node000011" class="edge">
<title>Node5&#45;&gt;Node11</title>
<g id="a_edge12_Node000005_Node000011"><a xlink:title=" ">
<path fill="none" stroke="#63b8ff" d="M927.88,-135.52C997.49,-127.09 1100.61,-113.95 1190.12,-100 1200.83,-98.33 1212.28,-96.37 1223.16,-94.43"/>
<polygon fill="#63b8ff" stroke="#63b8ff" points="927.59,-132.03 918.08,-136.71 928.42,-138.98 927.59,-132.03"/>
</a>
</g>
</g>
<!-- Node12 -->
<g id="Node000012" class="node">
<title>Node12</title>
<g id="a_Node000012"><a xlink:href="frame_8cpp.html" target="_top" xlink:title="Implements functions for encoding, decoding, building, and processing Frames.">
<polygon fill="white" stroke="#666666" points="1472.88,-94 1365.38,-94 1365.38,-74 1472.88,-74 1472.88,-94"/>
<text text-anchor="middle" x="1419.12" y="-80.5" font-family="Helvetica,sans-Serif" font-size="10.00">lib/comms/frame.cpp</text>
</a>
</g>
</g>
<!-- Node5&#45;&gt;Node12 -->
<g id="edge13_Node000005_Node000012" class="edge">
<title>Node5&#45;&gt;Node12</title>
<g id="a_edge13_Node000005_Node000012"><a xlink:title=" ">
<path fill="none" stroke="#63b8ff" d="M927.6,-136.25C928.44,-136.16 929.29,-136.08 930.12,-136 1119.26,-117.76 1168.51,-130.09 1356.12,-100 1365.12,-98.56 1374.73,-96.53 1383.66,-94.42"/>
<polygon fill="#63b8ff" stroke="#63b8ff" points="927.51,-132.74 917.91,-137.21 928.21,-139.7 927.51,-132.74"/>
</a>
</g>
</g>
<!-- Node13 -->
<g id="Node000013" class="node">
<title>Node13</title>
<g id="a_Node000013"><a xlink:href="receive_8cpp.html" target="_top" xlink:title="Implements functions for receiving and processing data, including LoRa and UART input.">
<polygon fill="white" stroke="#666666" points="1605.25,-94 1491,-94 1491,-74 1605.25,-74 1605.25,-94"/>
<text text-anchor="middle" x="1548.12" y="-80.5" font-family="Helvetica,sans-Serif" font-size="10.00">lib/comms/receive.cpp</text>
</a>
</g>
</g>
<!-- Node5&#45;&gt;Node13 -->
<g id="edge14_Node000005_Node000013" class="edge">
<title>Node5&#45;&gt;Node13</title>
<g id="a_edge14_Node000005_Node000013"><a xlink:title=" ">
<path fill="none" stroke="#63b8ff" d="M927.59,-136.22C928.44,-136.15 929.29,-136.07 930.12,-136 1175.06,-114.74 1238.83,-135.35 1482.12,-100 1491.66,-98.61 1501.86,-96.58 1511.32,-94.45"/>
<polygon fill="#63b8ff" stroke="#63b8ff" points="927.53,-132.71 917.9,-137.12 928.18,-139.68 927.53,-132.71"/>
</a>
</g>
</g>
<!-- Node14 -->
<g id="Node000014" class="node">
<title>Node14</title>
<g id="a_Node000014"><a xlink:href="send_8cpp.html" target="_top" xlink:title="Implements functions for sending data, including LoRa messages and Frames.">
<polygon fill="white" stroke="#666666" points="1727,-94 1623.25,-94 1623.25,-74 1727,-74 1727,-94"/>
<text text-anchor="middle" x="1675.12" y="-80.5" font-family="Helvetica,sans-Serif" font-size="10.00">lib/comms/send.cpp</text>
</a>
</g>
</g>
<!-- Node5&#45;&gt;Node14 -->
<g id="edge15_Node000005_Node000014" class="edge">
<title>Node5&#45;&gt;Node14</title>
<g id="a_edge15_Node000005_Node000014"><a xlink:title=" ">
<path fill="none" stroke="#63b8ff" d="M927.59,-136.21C928.44,-136.14 929.29,-136.07 930.12,-136 1233.56,-111.58 1312.98,-144.54 1614.12,-100 1623.08,-98.68 1632.64,-96.63 1641.47,-94.48"/>
<polygon fill="#63b8ff" stroke="#63b8ff" points="927.55,-132.7 917.9,-137.07 928.17,-139.67 927.55,-132.7"/>
</a>
</g>
</g>
<!-- Node15 -->
<g id="Node000015" class="node">
<title>Node15</title>
<g id="a_Node000015"><a xlink:href="utils__converters_8cpp.html" target="_top" xlink:title="Implements utility functions for converting between different data types.">
<polygon fill="white" stroke="#666666" points="363,-94 211.25,-94 211.25,-74 363,-74 363,-94"/>
<text text-anchor="middle" x="287.12" y="-80.5" font-family="Helvetica,sans-Serif" font-size="10.00">lib/comms/utils_converters.cpp</text>
</a>
</g>
</g>
<!-- Node5&#45;&gt;Node15 -->
<g id="edge16_Node000005_Node000015" class="edge">
<title>Node5&#45;&gt;Node15</title>
<g id="a_edge16_Node000005_Node000015"><a xlink:title=" ">
<path fill="none" stroke="#63b8ff" d="M766.49,-139.34C671.81,-132.24 510.16,-118.69 372.12,-100 360.69,-98.45 348.45,-96.48 336.91,-94.47"/>
<polygon fill="#63b8ff" stroke="#63b8ff" points="765.96,-142.81 776.19,-140.06 766.48,-135.83 765.96,-142.81"/>
</a>
</g>
</g>
<!-- Node5&#45;&gt;Node16 -->
<g id="edge17_Node000005_Node000016" class="edge">
<title>Node5&#45;&gt;Node16</title>
<g id="a_edge17_Node000005_Node000016"><a xlink:title=" ">
<path fill="none" stroke="#63b8ff" d="M927.59,-136.2C928.44,-136.13 929.28,-136.06 930.12,-136 1287.66,-108.66 1381.51,-153.18 1736.12,-100 1738.9,-99.58 1741.74,-99.09 1744.59,-98.53"/>
<polygon fill="#63b8ff" stroke="#63b8ff" points="927.56,-132.69 917.89,-137.03 928.16,-139.66 927.56,-132.69"/>
</a>
</g>
</g>
<!-- Node17 -->
<g id="Node000017" class="node">
<title>Node17</title>
<g id="a_Node000017"><a xlink:href="test__frame__common_8h.html" target="_top" xlink:title=" ">
<polygon fill="white" stroke="#666666" points="498.75,-100 381.5,-100 381.5,-68 498.75,-68 498.75,-100"/>
<text text-anchor="start" x="389.5" y="-86.5" font-family="Helvetica,sans-Serif" font-size="10.00">test/comms/test_frame</text>
<text text-anchor="middle" x="440.12" y="-74.5" font-family="Helvetica,sans-Serif" font-size="10.00">_common.h</text>
</a>
</g>
</g>
<!-- Node5&#45;&gt;Node17 -->
<g id="edge18_Node000005_Node000017" class="edge">
<title>Node5&#45;&gt;Node17</title>
<g id="a_edge18_Node000005_Node000017"><a xlink:title=" ">
<path fill="none" stroke="#63b8ff" d="M766.52,-136.26C697.65,-128.32 596.05,-115.5 508.12,-100 505.15,-99.48 502.1,-98.91 499.04,-98.32"/>
<polygon fill="#63b8ff" stroke="#63b8ff" points="765.88,-139.71 776.21,-137.37 766.67,-132.75 765.88,-139.71"/>
</a>
</g>
</g>
<!-- Node18 -->
<g id="Node000018" class="node">
<title>Node18</title>
<g id="a_Node000018"><a xlink:href="test__converters_8cpp.html" target="_top" xlink:title=" ">
<polygon fill="white" stroke="#666666" points="363.62,-26 206.62,-26 206.62,-6 363.62,-6 363.62,-26"/>
<text text-anchor="middle" x="285.12" y="-12.5" font-family="Helvetica,sans-Serif" font-size="10.00">test/comms/test_converters.cpp</text>
</a>
</g>
</g>
<!-- Node17&#45;&gt;Node18 -->
<g id="edge19_Node000017_Node000018" class="edge">
<title>Node17&#45;&gt;Node18</title>
<g id="a_edge19_Node000017_Node000018"><a xlink:title=" ">
<path fill="none" stroke="#63b8ff" d="M393.23,-63.03C364.73,-50.9 329.66,-35.96 307.34,-26.46"/>
<polygon fill="#63b8ff" stroke="#63b8ff" points="391.82,-66.24 402.39,-66.93 394.56,-59.79 391.82,-66.24"/>
</a>
</g>
</g>
<!-- Node19 -->
<g id="Node000019" class="node">
<title>Node19</title>
<g id="a_Node000019"><a xlink:href="test__frame__build_8cpp.html" target="_top" xlink:title=" ">
<polygon fill="white" stroke="#666666" points="498.75,-32 381.5,-32 381.5,0 498.75,0 498.75,-32"/>
<text text-anchor="start" x="389.5" y="-18.5" font-family="Helvetica,sans-Serif" font-size="10.00">test/comms/test_frame</text>
<text text-anchor="middle" x="440.12" y="-6.5" font-family="Helvetica,sans-Serif" font-size="10.00">_build.cpp</text>
</a>
</g>
</g>
<!-- Node17&#45;&gt;Node19 -->
<g id="edge20_Node000017_Node000019" class="edge">
<title>Node17&#45;&gt;Node19</title>
<g id="a_edge20_Node000017_Node000019"><a xlink:title=" ">
<path fill="none" stroke="#63b8ff" d="M440.12,-56.31C440.12,-48.12 440.12,-39.38 440.12,-32.22"/>
<polygon fill="#63b8ff" stroke="#63b8ff" points="436.63,-56.18 440.13,-66.18 443.63,-56.18 436.63,-56.18"/>
</a>
</g>
</g>
<!-- Node20 -->
<g id="Node000020" class="node">
<title>Node20</title>
<g id="a_Node000020"><a xlink:href="test__frame__coding_8cpp.html" target="_top" xlink:title=" ">
<polygon fill="white" stroke="#666666" points="633.75,-32 516.5,-32 516.5,0 633.75,0 633.75,-32"/>
<text text-anchor="start" x="524.5" y="-18.5" font-family="Helvetica,sans-Serif" font-size="10.00">test/comms/test_frame</text>
<text text-anchor="middle" x="575.12" y="-6.5" font-family="Helvetica,sans-Serif" font-size="10.00">_coding.cpp</text>
</a>
</g>
</g>
<!-- Node17&#45;&gt;Node20 -->
<g id="edge21_Node000017_Node000020" class="edge">
<title>Node17&#45;&gt;Node20</title>
<g id="a_edge21_Node000017_Node000020"><a xlink:title=" ">
<path fill="none" stroke="#63b8ff" d="M482.11,-62.47C502,-52.75 525.34,-41.34 543.67,-32.38"/>
<polygon fill="#63b8ff" stroke="#63b8ff" points="480.58,-59.32 473.14,-66.86 483.66,-65.61 480.58,-59.32"/>
</a>
</g>
</g>
</g>
</svg>
