<?xml version="1.0" encoding="UTF-8" standalone="no"?>
<!DOCTYPE svg PUBLIC "-//W3C//DTD SVG 1.1//EN"
 "http://www.w3.org/Graphics/SVG/1.1/DTD/svg11.dtd">
<!-- Generated by graphviz version 12.2.1 (20241206.2353)
 -->
<!-- Title: lib/eventman/event_manager.h Pages: 1 -->
<svg width="1715pt" height="220pt"
 viewBox="0.00 0.00 1715.38 220.00" xmlns="http://www.w3.org/2000/svg" xmlns:xlink="http://www.w3.org/1999/xlink">
<g id="graph0" class="graph" transform="scale(1 1) rotate(0) translate(4 216)">
<title>lib/eventman/event_manager.h</title>
<!-- Node1 -->
<g id="Node000001" class="node">
<title>Node1</title>
<g id="a_Node000001"><a xlink:title=" ">
<polygon fill="#999999" stroke="#666666" points="831.38,-212 732.88,-212 732.88,-180 831.38,-180 831.38,-212"/>
<text text-anchor="start" x="740.88" y="-198.5" font-family="Helvetica,sans-Serif" font-size="10.00">lib/eventman/event</text>
<text text-anchor="middle" x="782.12" y="-186.5" font-family="Helvetica,sans-Serif" font-size="10.00">_manager.h</text>
</a>
</g>
</g>
<!-- Node2 -->
<g id="Node000002" class="node">
<title>Node2</title>
<g id="a_Node000002"><a xlink:href="includes_8h.html" target="_top" xlink:title=" ">
<polygon fill="white" stroke="#666666" points="60.25,-82 0,-82 0,-62 60.25,-62 60.25,-82"/>
<text text-anchor="middle" x="30.12" y="-68.5" font-family="Helvetica,sans-Serif" font-size="10.00">includes.h</text>
</a>
</g>
</g>
<!-- Node1&#45;&gt;Node2 -->
<g id="edge1_Node000001_Node000002" class="edge">
<title>Node1&#45;&gt;Node2</title>
<g id="a_edge1_Node000001_Node000002"><a xlink:title=" ">
<path fill="none" stroke="#63b8ff" d="M721.27,-190.86C596.83,-181.32 305.13,-153.37 69.12,-88 63.67,-86.49 57.92,-84.51 52.56,-82.48"/>
<polygon fill="#63b8ff" stroke="#63b8ff" points="720.68,-194.33 730.92,-191.59 721.21,-187.35 720.68,-194.33"/>
</a>
</g>
</g>
<!-- Node4 -->
<g id="Node000004" class="node">
<title>Node4</title>
<g id="a_Node000004"><a xlink:href="event__commands_8cpp.html" target="_top" xlink:title=" ">
<polygon fill="white" stroke="#666666" points="193.62,-88 78.62,-88 78.62,-56 193.62,-56 193.62,-88"/>
<text text-anchor="start" x="86.62" y="-74.5" font-family="Helvetica,sans-Serif" font-size="10.00">lib/comms/commands</text>
<text text-anchor="middle" x="136.12" y="-62.5" font-family="Helvetica,sans-Serif" font-size="10.00">/event_commands.cpp</text>
</a>
</g>
</g>
<!-- Node1&#45;&gt;Node4 -->
<g id="edge3_Node000001_Node000004" class="edge">
<title>Node1&#45;&gt;Node4</title>
<g id="a_edge3_Node000001_Node000004"><a xlink:title=" ">
<path fill="none" stroke="#63b8ff" d="M721.66,-184.69C616.01,-166.48 391.06,-126.88 202.12,-88 199.48,-87.46 196.77,-86.89 194.04,-86.3"/>
<polygon fill="#63b8ff" stroke="#63b8ff" points="720.78,-188.09 731.23,-186.33 721.97,-181.19 720.78,-188.09"/>
</a>
</g>
</g>
<!-- Node5 -->
<g id="Node000005" class="node">
<title>Node5</title>
<g id="a_Node000005"><a xlink:href="communication_8h.html" target="_top" xlink:title=" ">
<polygon fill="white" stroke="#666666" points="851.25,-144 713,-144 713,-124 851.25,-124 851.25,-144"/>
<text text-anchor="middle" x="782.12" y="-130.5" font-family="Helvetica,sans-Serif" font-size="10.00">lib/comms/communication.h</text>
</a>
</g>
</g>
<!-- Node1&#45;&gt;Node5 -->
<g id="edge4_Node000001_Node000005" class="edge">
<title>Node1&#45;&gt;Node5</title>
<g id="a_edge4_Node000001_Node000005"><a xlink:title=" ">
<path fill="none" stroke="#63b8ff" d="M782.12,-168.08C782.12,-159.6 782.12,-150.8 782.12,-144.41"/>
<polygon fill="#63b8ff" stroke="#63b8ff" points="778.63,-168.03 782.13,-178.03 785.63,-168.03 778.63,-168.03"/>
</a>
</g>
</g>
<!-- Node16 -->
<g id="Node000016" class="node">
<title>Node16</title>
<g id="a_Node000016"><a xlink:href="event__manager_8cpp.html" target="_top" xlink:title="Implements the event management system for the Kubisat firmware.">
<polygon fill="white" stroke="#666666" points="1707.38,-88 1608.88,-88 1608.88,-56 1707.38,-56 1707.38,-88"/>
<text text-anchor="start" x="1616.88" y="-74.5" font-family="Helvetica,sans-Serif" font-size="10.00">lib/eventman/event</text>
<text text-anchor="middle" x="1658.12" y="-62.5" font-family="Helvetica,sans-Serif" font-size="10.00">_manager.cpp</text>
</a>
</g>
</g>
<!-- Node1&#45;&gt;Node16 -->
<g id="edge18_Node000001_Node000016" class="edge">
<title>Node1&#45;&gt;Node16</title>
<g id="a_edge18_Node000001_Node000016"><a xlink:title=" ">
<path fill="none" stroke="#63b8ff" d="M815.45,-173.44C846.44,-153.58 889.14,-126.78 898.12,-124 1047.34,-77.8 1445.72,-111.68 1600.12,-88 1602.9,-87.57 1605.74,-87.07 1608.59,-86.51"/>
<polygon fill="#63b8ff" stroke="#63b8ff" points="813.65,-170.43 807.13,-178.78 817.44,-176.32 813.65,-170.43"/>
</a>
</g>
</g>
<!-- Node17 -->
<g id="Node000017" class="node">
<title>Node17</title>
<g id="a_Node000017"><a xlink:href="gps__collector_8cpp.html" target="_top" xlink:title=" ">
<polygon fill="white" stroke="#666666" points="1049.12,-144 907.12,-144 907.12,-124 1049.12,-124 1049.12,-144"/>
<text text-anchor="middle" x="978.12" y="-130.5" font-family="Helvetica,sans-Serif" font-size="10.00">lib/location/gps_collector.cpp</text>
</a>
</g>
</g>
<!-- Node1&#45;&gt;Node17 -->
<g id="edge19_Node000001_Node000017" class="edge">
<title>Node1&#45;&gt;Node17</title>
<g id="a_edge19_Node000001_Node000017"><a xlink:title=" ">
<path fill="none" stroke="#63b8ff" d="M842.78,-176.43C877.35,-165.85 919.22,-153.03 947.15,-144.48"/>
<polygon fill="#63b8ff" stroke="#63b8ff" points="841.82,-173.06 833.28,-179.34 843.87,-179.76 841.82,-173.06"/>
</a>
</g>
</g>
<!-- Node3 -->
<g id="Node000003" class="node">
<title>Node3</title>
<g id="a_Node000003"><a xlink:href="main_8cpp.html" target="_top" xlink:title=" ">
<polygon fill="white" stroke="#666666" points="58,-20 2.25,-20 2.25,0 58,0 58,-20"/>
<text text-anchor="middle" x="30.12" y="-6.5" font-family="Helvetica,sans-Serif" font-size="10.00">main.cpp</text>
</a>
</g>
</g>
<!-- Node2&#45;&gt;Node3 -->
<g id="edge2_Node000002_Node000003" class="edge">
<title>Node2&#45;&gt;Node3</title>
<g id="a_edge2_Node000002_Node000003"><a xlink:title=" ">
<path fill="none" stroke="#63b8ff" d="M30.12,-50.25C30.12,-39.97 30.12,-28.09 30.12,-20.11"/>
<polygon fill="#63b8ff" stroke="#63b8ff" points="26.63,-50.11 30.13,-60.11 33.63,-50.11 26.63,-50.11"/>
</a>
</g>
</g>
<!-- Node5&#45;&gt;Node2 -->
<g id="edge5_Node000005_Node000002" class="edge">
<title>Node5&#45;&gt;Node2</title>
<g id="a_edge5_Node000005_Node000002"><a xlink:title=" ">
<path fill="none" stroke="#63b8ff" d="M701.47,-130.99C541.13,-126.48 187.61,-113.89 69.12,-88 63.17,-86.7 56.93,-84.64 51.22,-82.45"/>
<polygon fill="#63b8ff" stroke="#63b8ff" points="701.07,-134.48 711.16,-131.26 701.26,-127.48 701.07,-134.48"/>
</a>
</g>
</g>
<!-- Node5&#45;&gt;Node4 -->
<g id="edge9_Node000005_Node000004" class="edge">
<title>Node5&#45;&gt;Node4</title>
<g id="a_edge9_Node000005_Node000004"><a xlink:title=" ">
<path fill="none" stroke="#63b8ff" d="M701.32,-130.46C588.87,-126.07 379.04,-114.82 202.12,-88 199.45,-87.59 196.73,-87.14 193.98,-86.65"/>
<polygon fill="#63b8ff" stroke="#63b8ff" points="700.92,-133.94 711.05,-130.83 701.19,-126.95 700.92,-133.94"/>
</a>
</g>
</g>
<!-- Node6 -->
<g id="Node000006" class="node">
<title>Node6</title>
<g id="a_Node000006"><a xlink:href="clock__commands_8cpp.html" target="_top" xlink:title=" ">
<polygon fill="white" stroke="#666666" points="495.25,-88 381,-88 381,-56 495.25,-56 495.25,-88"/>
<text text-anchor="start" x="389" y="-74.5" font-family="Helvetica,sans-Serif" font-size="10.00">lib/comms/commands</text>
<text text-anchor="middle" x="438.12" y="-62.5" font-family="Helvetica,sans-Serif" font-size="10.00">/clock_commands.cpp</text>
</a>
</g>
</g>
<!-- Node5&#45;&gt;Node6 -->
<g id="edge6_Node000005_Node000006" class="edge">
<title>Node5&#45;&gt;Node6</title>
<g id="a_edge6_Node000005_Node000006"><a xlink:title=" ">
<path fill="none" stroke="#63b8ff" d="M704.96,-121.84C649.04,-113.43 571.7,-101.13 504.12,-88 501.36,-87.46 498.53,-86.89 495.67,-86.3"/>
<polygon fill="#63b8ff" stroke="#63b8ff" points="704.3,-125.28 714.7,-123.3 705.33,-118.36 704.3,-125.28"/>
</a>
</g>
</g>
<!-- Node7 -->
<g id="Node000007" class="node">
<title>Node7</title>
<g id="a_Node000007"><a xlink:href="commands_8cpp.html" target="_top" xlink:title=" ">
<polygon fill="white" stroke="#666666" points="625.12,-88 513.12,-88 513.12,-56 625.12,-56 625.12,-88"/>
<text text-anchor="start" x="521.12" y="-74.5" font-family="Helvetica,sans-Serif" font-size="10.00">lib/comms/commands</text>
<text text-anchor="middle" x="569.12" y="-62.5" font-family="Helvetica,sans-Serif" font-size="10.00">/commands.cpp</text>
</a>
</g>
</g>
<!-- Node5&#45;&gt;Node7 -->
<g id="edge7_Node000005_Node000007" class="edge">
<title>Node5&#45;&gt;Node7</title>
<g id="a_edge7_Node000005_Node000007"><a xlink:title=" ">
<path fill="none" stroke="#63b8ff" d="M738.14,-120.61C705.08,-111.3 659.58,-98.48 624.12,-88.49"/>
<polygon fill="#63b8ff" stroke="#63b8ff" points="736.81,-123.87 747.39,-123.21 738.71,-117.13 736.81,-123.87"/>
</a>
</g>
</g>
<!-- Node8 -->
<g id="Node000008" class="node">
<title>Node8</title>
<g id="a_Node000008"><a xlink:href="diagnostic__commands_8cpp.html" target="_top" xlink:title=" ">
<polygon fill="white" stroke="#666666" points="778.75,-88 643.5,-88 643.5,-56 778.75,-56 778.75,-88"/>
<text text-anchor="start" x="651.5" y="-74.5" font-family="Helvetica,sans-Serif" font-size="10.00">lib/comms/commands</text>
<text text-anchor="middle" x="711.12" y="-62.5" font-family="Helvetica,sans-Serif" font-size="10.00">/diagnostic_commands.cpp</text>
</a>
</g>
</g>
<!-- Node5&#45;&gt;Node8 -->
<g id="edge8_Node000005_Node000008" class="edge">
<title>Node5&#45;&gt;Node8</title>
<g id="a_edge8_Node000005_Node000008"><a xlink:title=" ">
<path fill="none" stroke="#63b8ff" d="M762.3,-116.24C751.96,-107.51 739.4,-96.9 729.32,-88.37"/>
<polygon fill="#63b8ff" stroke="#63b8ff" points="759.98,-118.87 769.88,-122.65 764.5,-113.52 759.98,-118.87"/>
</a>
</g>
</g>
<!-- Node9 -->
<g id="Node000009" class="node">
<title>Node9</title>
<g id="a_Node000009"><a xlink:href="gps__commands_8cpp.html" target="_top" xlink:title=" ">
<polygon fill="white" stroke="#666666" points="909.12,-88 797.12,-88 797.12,-56 909.12,-56 909.12,-88"/>
<text text-anchor="start" x="805.12" y="-74.5" font-family="Helvetica,sans-Serif" font-size="10.00">lib/comms/commands</text>
<text text-anchor="middle" x="853.12" y="-62.5" font-family="Helvetica,sans-Serif" font-size="10.00">/gps_commands.cpp</text>
</a>
</g>
</g>
<!-- Node5&#45;&gt;Node9 -->
<g id="edge10_Node000005_Node000009" class="edge">
<title>Node5&#45;&gt;Node9</title>
<g id="a_edge10_Node000005_Node000009"><a xlink:title=" ">
<path fill="none" stroke="#63b8ff" d="M801.95,-116.24C812.29,-107.51 824.85,-96.9 834.93,-88.37"/>
<polygon fill="#63b8ff" stroke="#63b8ff" points="799.75,-113.52 794.37,-122.65 804.27,-118.87 799.75,-113.52"/>
</a>
</g>
</g>
<!-- Node10 -->
<g id="Node000010" class="node">
<title>Node10</title>
<g id="a_Node000010"><a xlink:href="power__commands_8cpp.html" target="_top" xlink:title=" ">
<polygon fill="white" stroke="#666666" points="1044.75,-88 927.5,-88 927.5,-56 1044.75,-56 1044.75,-88"/>
<text text-anchor="start" x="935.5" y="-74.5" font-family="Helvetica,sans-Serif" font-size="10.00">lib/comms/commands</text>
<text text-anchor="middle" x="986.12" y="-62.5" font-family="Helvetica,sans-Serif" font-size="10.00">/power_commands.cpp</text>
</a>
</g>
</g>
<!-- Node5&#45;&gt;Node10 -->
<g id="edge11_Node000005_Node000010" class="edge">
<title>Node5&#45;&gt;Node10</title>
<g id="a_edge11_Node000005_Node000010"><a xlink:title=" ">
<path fill="none" stroke="#63b8ff" d="M824.66,-120.49C856.29,-111.19 899.64,-98.44 933.46,-88.49"/>
<polygon fill="#63b8ff" stroke="#63b8ff" points="824.06,-117.02 815.45,-123.2 826.03,-123.73 824.06,-117.02"/>
</a>
</g>
</g>
<!-- Node11 -->
<g id="Node000011" class="node">
<title>Node11</title>
<g id="a_Node000011"><a xlink:href="communication_8cpp.html" target="_top" xlink:title=" ">
<polygon fill="white" stroke="#666666" points="1211.5,-82 1062.75,-82 1062.75,-62 1211.5,-62 1211.5,-82"/>
<text text-anchor="middle" x="1137.12" y="-68.5" font-family="Helvetica,sans-Serif" font-size="10.00">lib/comms/communication.cpp</text>
</a>
</g>
</g>
<!-- Node5&#45;&gt;Node11 -->
<g id="edge12_Node000005_Node000011" class="edge">
<title>Node5&#45;&gt;Node11</title>
<g id="a_edge12_Node000005_Node000011"><a xlink:title=" ">
<path fill="none" stroke="#63b8ff" d="M852.42,-121.66C907.37,-112.73 985.66,-99.85 1054.12,-88 1064.23,-86.25 1075.01,-84.34 1085.34,-82.48"/>
<polygon fill="#63b8ff" stroke="#63b8ff" points="851.87,-118.21 842.56,-123.27 852.99,-125.12 851.87,-118.21"/>
</a>
</g>
</g>
<!-- Node12 -->
<g id="Node000012" class="node">
<title>Node12</title>
<g id="a_Node000012"><a xlink:href="frame_8cpp.html" target="_top" xlink:title="Implements functions for encoding, decoding, building, and processing Frames.">
<polygon fill="white" stroke="#666666" points="1336.88,-82 1229.38,-82 1229.38,-62 1336.88,-62 1336.88,-82"/>
<text text-anchor="middle" x="1283.12" y="-68.5" font-family="Helvetica,sans-Serif" font-size="10.00">lib/comms/frame.cpp</text>
</a>
</g>
</g>
<!-- Node5&#45;&gt;Node12 -->
<g id="edge13_Node000005_Node000012" class="edge">
<title>Node5&#45;&gt;Node12</title>
<g id="a_edge13_Node000005_Node000012"><a xlink:title=" ">
<path fill="none" stroke="#63b8ff" d="M862.6,-124.27C863.44,-124.18 864.29,-124.09 865.12,-124 1022.85,-107.45 1063.75,-114.42 1220.12,-88 1228.88,-86.52 1238.24,-84.53 1246.98,-82.47"/>
<polygon fill="#63b8ff" stroke="#63b8ff" points="862.49,-120.76 852.92,-125.29 863.23,-127.72 862.49,-120.76"/>
</a>
</g>
</g>
<!-- Node13 -->
<g id="Node000013" class="node">
<title>Node13</title>
<g id="a_Node000013"><a xlink:href="receive_8cpp.html" target="_top" xlink:title="Implements functions for receiving and processing data, including LoRa and UART input.">
<polygon fill="white" stroke="#666666" points="1469.25,-82 1355,-82 1355,-62 1469.25,-62 1469.25,-82"/>
<text text-anchor="middle" x="1412.12" y="-68.5" font-family="Helvetica,sans-Serif" font-size="10.00">lib/comms/receive.cpp</text>
</a>
</g>
</g>
<!-- Node5&#45;&gt;Node13 -->
<g id="edge14_Node000005_Node000013" class="edge">
<title>Node5&#45;&gt;Node13</title>
<g id="a_edge14_Node000005_Node000013"><a xlink:title=" ">
<path fill="none" stroke="#63b8ff" d="M862.59,-124.23C863.44,-124.15 864.29,-124.08 865.12,-124 1078.61,-104.44 1134.13,-119.84 1346.12,-88 1355.54,-86.59 1365.6,-84.57 1374.96,-82.46"/>
<polygon fill="#63b8ff" stroke="#63b8ff" points="862.52,-120.72 852.91,-125.17 863.2,-127.69 862.52,-120.72"/>
</a>
</g>
</g>
<!-- Node14 -->
<g id="Node000014" class="node">
<title>Node14</title>
<g id="a_Node000014"><a xlink:href="send_8cpp.html" target="_top" xlink:title="Implements functions for sending data, including LoRa messages and Frames.">
<polygon fill="white" stroke="#666666" points="1591,-82 1487.25,-82 1487.25,-62 1591,-62 1591,-82"/>
<text text-anchor="middle" x="1539.12" y="-68.5" font-family="Helvetica,sans-Serif" font-size="10.00">lib/comms/send.cpp</text>
</a>
</g>
</g>
<!-- Node5&#45;&gt;Node14 -->
<g id="edge15_Node000005_Node000014" class="edge">
<title>Node5&#45;&gt;Node14</title>
<g id="a_edge15_Node000005_Node000014"><a xlink:title=" ">
<path fill="none" stroke="#63b8ff" d="M862.59,-124.21C863.44,-124.14 864.29,-124.07 865.12,-124 1137.09,-101.28 1208.27,-128.75 1478.12,-88 1487.08,-86.65 1496.63,-84.6 1505.47,-82.44"/>
<polygon fill="#63b8ff" stroke="#63b8ff" points="862.54,-120.7 852.9,-125.09 863.17,-127.68 862.54,-120.7"/>
</a>
</g>
</g>
<!-- Node15 -->
<g id="Node000015" class="node">
<title>Node15</title>
<g id="a_Node000015"><a xlink:href="utils__converters_8cpp.html" target="_top" xlink:title="Implements utility functions for converting between different data types.">
<polygon fill="white" stroke="#666666" points="363,-82 211.25,-82 211.25,-62 363,-62 363,-82"/>
<text text-anchor="middle" x="287.12" y="-68.5" font-family="Helvetica,sans-Serif" font-size="10.00">lib/comms/utils_converters.cpp</text>
</a>
</g>
</g>
<!-- Node5&#45;&gt;Node15 -->
<g id="edge16_Node000005_Node000015" class="edge">
<title>Node5&#45;&gt;Node15</title>
<g id="a_edge16_Node000005_Node000015"><a xlink:title=" ">
<path fill="none" stroke="#63b8ff" d="M701.32,-125.7C618.49,-117.86 486.04,-104.28 372.12,-88 360.85,-86.39 348.78,-84.41 337.38,-82.43"/>
<polygon fill="#63b8ff" stroke="#63b8ff" points="700.88,-129.18 711.17,-126.63 701.54,-122.21 700.88,-129.18"/>
</a>
</g>
</g>
<!-- Node5&#45;&gt;Node16 -->
<g id="edge17_Node000005_Node000016" class="edge">
<title>Node5&#45;&gt;Node16</title>
<g id="a_edge17_Node000005_Node000016"><a xlink:title=" ">
<path fill="none" stroke="#63b8ff" d="M862.59,-124.2C863.44,-124.13 864.29,-124.07 865.12,-124 1191.18,-98.36 1276.79,-137.2 1600.12,-88 1602.9,-87.58 1605.74,-87.08 1608.59,-86.52"/>
<polygon fill="#63b8ff" stroke="#63b8ff" points="862.55,-120.69 852.9,-125.05 863.16,-127.67 862.55,-120.69"/>
</a>
</g>
</g>
</g>
</svg>
