<?xml version="1.0" encoding="UTF-8" standalone="no"?>
<!DOCTYPE svg PUBLIC "-//W3C//DTD SVG 1.1//EN"
 "http://www.w3.org/Graphics/SVG/1.1/DTD/svg11.dtd">
<!-- Generated by graphviz version 12.2.1 (20241206.2353)
 -->
<!-- Title: lib/eventman/event_manager.cpp Pages: 1 -->
<svg width="1459pt" height="320pt"
 viewBox="0.00 0.00 1458.62 320.00" xmlns="http://www.w3.org/2000/svg" xmlns:xlink="http://www.w3.org/1999/xlink">
<g id="graph0" class="graph" transform="scale(1 1) rotate(0) translate(4 316)">
<title>lib/eventman/event_manager.cpp</title>
<!-- Node1 -->
<g id="Node000001" class="node">
<title>Node1</title>
<g id="a_Node000001"><a xlink:title="Implements the event management system for the Kubisat firmware.">
<polygon fill="#999999" stroke="#666666" points="794,-312 695.5,-312 695.5,-280 794,-280 794,-312"/>
<text text-anchor="start" x="703.5" y="-298.5" font-family="Helvetica,sans-Serif" font-size="10.00">lib/eventman/event</text>
<text text-anchor="middle" x="744.75" y="-286.5" font-family="Helvetica,sans-Serif" font-size="10.00">_manager.cpp</text>
</a>
</g>
</g>
<!-- Node2 -->
<g id="Node000002" class="node">
<title>Node2</title>
<g id="a_Node000002"><a xlink:href="event__manager_8h.html" target="_top" xlink:title=" ">
<polygon fill="white" stroke="#666666" points="352.25,-188 261.25,-188 261.25,-168 352.25,-168 352.25,-188"/>
<text text-anchor="middle" x="306.75" y="-174.5" font-family="Helvetica,sans-Serif" font-size="10.00">event_manager.h</text>
</a>
</g>
</g>
<!-- Node1&#45;&gt;Node2 -->
<g id="edge1_Node000001_Node000002" class="edge">
<title>Node1&#45;&gt;Node2</title>
<g id="a_edge1_Node000001_Node000002"><a xlink:title=" ">
<path fill="none" stroke="#63b8ff" d="M695.36,-281.92C610.12,-259.34 436.56,-213.38 353.32,-191.33"/>
<polygon fill="#63b8ff" stroke="#63b8ff" points="354.46,-188.01 343.89,-188.84 352.66,-194.78 354.46,-188.01"/>
</a>
</g>
</g>
<!-- Node13 -->
<g id="Node000013" class="node">
<title>Node13</title>
<g id="a_Node000013"><a xlink:title=" ">
<polygon fill="#e0e0e0" stroke="#999999" points="414.88,-132 372.62,-132 372.62,-112 414.88,-112 414.88,-132"/>
<text text-anchor="middle" x="393.75" y="-118.5" font-family="Helvetica,sans-Serif" font-size="10.00">cstdio</text>
</a>
</g>
</g>
<!-- Node1&#45;&gt;Node13 -->
<g id="edge15_Node000001_Node000013" class="edge">
<title>Node1&#45;&gt;Node13</title>
<g id="a_edge15_Node000001_Node000013"><a xlink:title=" ">
<path fill="none" stroke="#63b8ff" d="M713.29,-279.58C645.87,-246.55 488.27,-169.32 422.93,-137.3"/>
<polygon fill="#63b8ff" stroke="#63b8ff" points="424.79,-134.31 414.27,-133.05 421.71,-140.6 424.79,-134.31"/>
</a>
</g>
</g>
<!-- Node14 -->
<g id="Node000014" class="node">
<title>Node14</title>
<g id="a_Node000014"><a xlink:href="protocol_8h.html" target="_top" xlink:title=" ">
<polygon fill="white" stroke="#666666" points="717.12,-188 658.38,-188 658.38,-168 717.12,-168 717.12,-188"/>
<text text-anchor="middle" x="687.75" y="-174.5" font-family="Helvetica,sans-Serif" font-size="10.00">protocol.h</text>
</a>
</g>
</g>
<!-- Node1&#45;&gt;Node14 -->
<g id="edge16_Node000001_Node000014" class="edge">
<title>Node1&#45;&gt;Node14</title>
<g id="a_edge16_Node000001_Node000014"><a xlink:title=" ">
<path fill="none" stroke="#63b8ff" d="M737.3,-279.84C727.08,-259.03 708.69,-221.61 697.42,-198.67"/>
<polygon fill="#63b8ff" stroke="#63b8ff" points="700.61,-197.23 693.05,-189.8 694.32,-200.31 700.61,-197.23"/>
</a>
</g>
</g>
<!-- Node21 -->
<g id="Node000021" class="node">
<title>Node21</title>
<g id="a_Node000021"><a xlink:href="utils_8h.html" target="_top" xlink:title=" ">
<polygon fill="white" stroke="#666666" points="1019.88,-132 977.62,-132 977.62,-112 1019.88,-112 1019.88,-132"/>
<text text-anchor="middle" x="998.75" y="-118.5" font-family="Helvetica,sans-Serif" font-size="10.00">utils.h</text>
</a>
</g>
</g>
<!-- Node1&#45;&gt;Node21 -->
<g id="edge54_Node000001_Node000021" class="edge">
<title>Node1&#45;&gt;Node21</title>
<g id="a_edge54_Node000001_Node000021"><a xlink:title=" ">
<path fill="none" stroke="#63b8ff" d="M745.33,-279.63C746.71,-263.9 751.09,-239.61 764.75,-224 792.62,-192.16 909.45,-151.52 966.76,-133"/>
<polygon fill="#63b8ff" stroke="#63b8ff" points="967.49,-136.45 975.95,-130.07 965.35,-129.78 967.49,-136.45"/>
</a>
</g>
</g>
<!-- Node33 -->
<g id="Node000033" class="node">
<title>Node33</title>
<g id="a_Node000033"><a xlink:title=" ">
<polygon fill="#e0e0e0" stroke="#999999" points="858.25,-244 773.25,-244 773.25,-224 858.25,-224 858.25,-244"/>
<text text-anchor="middle" x="815.75" y="-230.5" font-family="Helvetica,sans-Serif" font-size="10.00">pico/multicore.h</text>
</a>
</g>
</g>
<!-- Node1&#45;&gt;Node33 -->
<g id="edge48_Node000001_Node000033" class="edge">
<title>Node1&#45;&gt;Node33</title>
<g id="a_edge48_Node000001_Node000033"><a xlink:title=" ">
<path fill="none" stroke="#63b8ff" d="M763.03,-279.55C773.1,-271.04 785.6,-260.48 795.91,-251.77"/>
<polygon fill="#63b8ff" stroke="#63b8ff" points="798.08,-254.51 803.46,-245.38 793.56,-249.17 798.08,-254.51"/>
</a>
</g>
</g>
<!-- Node34 -->
<g id="Node000034" class="node">
<title>Node34</title>
<g id="a_Node000034"><a xlink:href="communication_8h.html" target="_top" xlink:title=" ">
<polygon fill="white" stroke="#666666" points="966.88,-244 876.62,-244 876.62,-224 966.88,-224 966.88,-244"/>
<text text-anchor="middle" x="921.75" y="-230.5" font-family="Helvetica,sans-Serif" font-size="10.00">communication.h</text>
</a>
</g>
</g>
<!-- Node1&#45;&gt;Node34 -->
<g id="edge49_Node000001_Node000034" class="edge">
<title>Node1&#45;&gt;Node34</title>
<g id="a_edge49_Node000001_Node000034"><a xlink:title=" ">
<path fill="none" stroke="#63b8ff" d="M790.33,-279.55C819.05,-269.81 855.72,-257.38 883.03,-248.13"/>
<polygon fill="#63b8ff" stroke="#63b8ff" points="883.96,-251.51 892.3,-244.98 881.71,-244.88 883.96,-251.51"/>
</a>
</g>
</g>
<!-- Node35 -->
<g id="Node000035" class="node">
<title>Node35</title>
<g id="a_Node000035"><a xlink:href="_d_s3231_8h.html" target="_top" xlink:title=" ">
<polygon fill="white" stroke="#666666" points="1334.5,-132 1275,-132 1275,-112 1334.5,-112 1334.5,-132"/>
<text text-anchor="middle" x="1304.75" y="-118.5" font-family="Helvetica,sans-Serif" font-size="10.00">DS3231.h</text>
</a>
</g>
</g>
<!-- Node1&#45;&gt;Node35 -->
<g id="edge55_Node000001_Node000035" class="edge">
<title>Node1&#45;&gt;Node35</title>
<g id="a_edge55_Node000001_Node000035"><a xlink:title=" ">
<path fill="none" stroke="#63b8ff" d="M794.12,-289.54C907.77,-276.22 1184.07,-239.35 1260.75,-188 1277.35,-176.88 1289.37,-157.18 1296.61,-142.37"/>
<polygon fill="#63b8ff" stroke="#63b8ff" points="1299.64,-144.15 1300.59,-133.6 1293.27,-141.26 1299.64,-144.15"/>
</a>
</g>
</g>
<!-- Node3 -->
<g id="Node000003" class="node">
<title>Node3</title>
<g id="a_Node000003"><a xlink:href="_power_manager_8h.html" target="_top" xlink:title=" ">
<polygon fill="white" stroke="#666666" points="214.5,-132 125,-132 125,-112 214.5,-112 214.5,-132"/>
<text text-anchor="middle" x="169.75" y="-118.5" font-family="Helvetica,sans-Serif" font-size="10.00">PowerManager.h</text>
</a>
</g>
</g>
<!-- Node2&#45;&gt;Node3 -->
<g id="edge2_Node000002_Node000003" class="edge">
<title>Node2&#45;&gt;Node3</title>
<g id="a_edge2_Node000002_Node000003"><a xlink:title=" ">
<path fill="none" stroke="#63b8ff" d="M282.89,-167.59C261.21,-159.05 228.98,-146.35 204.46,-136.68"/>
<polygon fill="#63b8ff" stroke="#63b8ff" points="205.79,-133.45 195.21,-133.03 203.23,-139.96 205.79,-133.45"/>
</a>
</g>
</g>
<!-- Node9 -->
<g id="Node000009" class="node">
<title>Node9</title>
<g id="a_Node000009"><a xlink:title=" ">
<polygon fill="#e0e0e0" stroke="#999999" points="624.75,-20 584.75,-20 584.75,0 624.75,0 624.75,-20"/>
<text text-anchor="middle" x="604.75" y="-6.5" font-family="Helvetica,sans-Serif" font-size="10.00">string</text>
</a>
</g>
</g>
<!-- Node2&#45;&gt;Node9 -->
<g id="edge13_Node000002_Node000009" class="edge">
<title>Node2&#45;&gt;Node9</title>
<g id="a_edge13_Node000002_Node000009"><a xlink:title=" ">
<path fill="none" stroke="#63b8ff" d="M302.1,-167.59C296.11,-153.97 287.79,-128.56 299.75,-112 332.62,-66.49 502.37,-30.1 573.42,-16.63"/>
<polygon fill="#63b8ff" stroke="#63b8ff" points="573.65,-20.15 582.84,-14.87 572.37,-13.27 573.65,-20.15"/>
</a>
</g>
</g>
<!-- Node11 -->
<g id="Node000011" class="node">
<title>Node11</title>
<g id="a_Node000011"><a xlink:title=" ">
<polygon fill="#e0e0e0" stroke="#999999" points="278.88,-76 206.62,-76 206.62,-56 278.88,-56 278.88,-76"/>
<text text-anchor="middle" x="242.75" y="-62.5" font-family="Helvetica,sans-Serif" font-size="10.00">pico/mutex.h</text>
</a>
</g>
</g>
<!-- Node2&#45;&gt;Node11 -->
<g id="edge14_Node000002_Node000011" class="edge">
<title>Node2&#45;&gt;Node11</title>
<g id="a_edge14_Node000002_Node000011"><a xlink:title=" ">
<path fill="none" stroke="#63b8ff" d="M296.35,-167.5C287.49,-158.94 274.92,-145.63 266.75,-132 258.32,-117.94 252.06,-100.43 248.06,-87.13"/>
<polygon fill="#63b8ff" stroke="#63b8ff" points="251.5,-86.44 245.42,-77.77 244.76,-88.34 251.5,-86.44"/>
</a>
</g>
</g>
<!-- Node12 -->
<g id="Node000012" class="node">
<title>Node12</title>
<g id="a_Node000012"><a xlink:title=" ">
<polygon fill="#e0e0e0" stroke="#999999" points="354.38,-132 309.12,-132 309.12,-112 354.38,-112 354.38,-132"/>
<text text-anchor="middle" x="331.75" y="-118.5" font-family="Helvetica,sans-Serif" font-size="10.00">cstdint</text>
</a>
</g>
</g>
<!-- Node2&#45;&gt;Node12 -->
<g id="edge12_Node000002_Node000012" class="edge">
<title>Node2&#45;&gt;Node12</title>
<g id="a_edge12_Node000002_Node000012"><a xlink:title=" ">
<path fill="none" stroke="#63b8ff" d="M311.1,-167.59C314.3,-160.7 318.74,-151.1 322.69,-142.57"/>
<polygon fill="#63b8ff" stroke="#63b8ff" points="325.78,-144.22 326.81,-133.67 319.43,-141.28 325.78,-144.22"/>
</a>
</g>
</g>
<!-- Node4 -->
<g id="Node000004" class="node">
<title>Node4</title>
<g id="a_Node000004"><a xlink:href="_i_n_a3221_8h.html" target="_top" xlink:title=" ">
<polygon fill="white" stroke="#666666" points="112.62,-76 8.88,-76 8.88,-56 112.62,-56 112.62,-76"/>
<text text-anchor="middle" x="60.75" y="-62.5" font-family="Helvetica,sans-Serif" font-size="10.00">INA3221/INA3221.h</text>
</a>
</g>
</g>
<!-- Node3&#45;&gt;Node4 -->
<g id="edge3_Node000003_Node000004" class="edge">
<title>Node3&#45;&gt;Node4</title>
<g id="a_edge3_Node000003_Node000004"><a xlink:title=" ">
<path fill="none" stroke="#63b8ff" d="M150.76,-111.59C133.99,-103.28 109.26,-91.03 89.96,-81.47"/>
<polygon fill="#63b8ff" stroke="#63b8ff" points="91.76,-78.45 81.24,-77.15 88.65,-84.73 91.76,-78.45"/>
</a>
</g>
</g>
<!-- Node7 -->
<g id="Node000007" class="node">
<title>Node7</title>
<g id="a_Node000007"><a xlink:title=" ">
<polygon fill="#e0e0e0" stroke="#999999" points="217.62,-20 137.88,-20 137.88,0 217.62,0 217.62,-20"/>
<text text-anchor="middle" x="177.75" y="-6.5" font-family="Helvetica,sans-Serif" font-size="10.00">hardware/i2c.h</text>
</a>
</g>
</g>
<!-- Node3&#45;&gt;Node7 -->
<g id="edge9_Node000003_Node000007" class="edge">
<title>Node3&#45;&gt;Node7</title>
<g id="a_edge9_Node000003_Node000007"><a xlink:title=" ">
<path fill="none" stroke="#63b8ff" d="M167.77,-111.7C165.37,-99.05 161.96,-75.72 164.75,-56 165.92,-47.76 168.23,-38.91 170.58,-31.26"/>
<polygon fill="#63b8ff" stroke="#63b8ff" points="173.86,-32.52 173.69,-21.92 167.21,-30.31 173.86,-32.52"/>
</a>
</g>
</g>
<!-- Node8 -->
<g id="Node000008" class="node">
<title>Node8</title>
<g id="a_Node000008"><a xlink:title=" ">
<polygon fill="#e0e0e0" stroke="#999999" points="332.12,-76 297.38,-76 297.38,-56 332.12,-56 332.12,-76"/>
<text text-anchor="middle" x="314.75" y="-62.5" font-family="Helvetica,sans-Serif" font-size="10.00">map</text>
</a>
</g>
</g>
<!-- Node3&#45;&gt;Node8 -->
<g id="edge7_Node000003_Node000008" class="edge">
<title>Node3&#45;&gt;Node8</title>
<g id="a_edge7_Node000003_Node000008"><a xlink:title=" ">
<path fill="none" stroke="#63b8ff" d="M195.01,-111.59C220.57,-102.08 260,-87.39 286.56,-77.5"/>
<polygon fill="#63b8ff" stroke="#63b8ff" points="287.51,-80.88 295.66,-74.11 285.07,-74.32 287.51,-80.88"/>
</a>
</g>
</g>
<!-- Node3&#45;&gt;Node9 -->
<g id="edge8_Node000003_Node000009" class="edge">
<title>Node3&#45;&gt;Node9</title>
<g id="a_edge8_Node000003_Node000009"><a xlink:title=" ">
<path fill="none" stroke="#63b8ff" d="M170.84,-111.66C173.06,-97.14 179.58,-69.45 197.75,-56 257.05,-12.12 487.7,-9.81 572.9,-10.51"/>
<polygon fill="#63b8ff" stroke="#63b8ff" points="572.82,-14.01 582.86,-10.61 572.9,-7.01 572.82,-14.01"/>
</a>
</g>
</g>
<!-- Node10 -->
<g id="Node000010" class="node">
<title>Node10</title>
<g id="a_Node000010"><a xlink:title=" ">
<polygon fill="#e0e0e0" stroke="#999999" points="841,-76 772.5,-76 772.5,-56 841,-56 841,-76"/>
<text text-anchor="middle" x="806.75" y="-62.5" font-family="Helvetica,sans-Serif" font-size="10.00">pico/stdlib.h</text>
</a>
</g>
</g>
<!-- Node3&#45;&gt;Node10 -->
<g id="edge10_Node000003_Node000010" class="edge">
<title>Node3&#45;&gt;Node10</title>
<g id="a_edge10_Node000003_Node000010"><a xlink:title=" ">
<path fill="none" stroke="#63b8ff" d="M214.9,-117.74C340.26,-108.68 687.75,-83.4 761.01,-75.94"/>
<polygon fill="#63b8ff" stroke="#63b8ff" points="761.05,-79.46 770.58,-74.83 760.25,-72.5 761.05,-79.46"/>
</a>
</g>
</g>
<!-- Node3&#45;&gt;Node11 -->
<g id="edge11_Node000003_Node000011" class="edge">
<title>Node3&#45;&gt;Node11</title>
<g id="a_edge11_Node000003_Node000011"><a xlink:title=" ">
<path fill="none" stroke="#63b8ff" d="M182.47,-111.59C193.14,-103.7 208.63,-92.24 221.23,-82.92"/>
<polygon fill="#63b8ff" stroke="#63b8ff" points="223.01,-85.96 228.96,-77.2 218.84,-80.33 223.01,-85.96"/>
</a>
</g>
</g>
<!-- Node5 -->
<g id="Node000005" class="node">
<title>Node5</title>
<g id="a_Node000005"><a xlink:title=" ">
<polygon fill="#e0e0e0" stroke="#999999" points="119.88,-20 71.62,-20 71.62,0 119.88,0 119.88,-20"/>
<text text-anchor="middle" x="95.75" y="-6.5" font-family="Helvetica,sans-Serif" font-size="10.00">stdint.h</text>
</a>
</g>
</g>
<!-- Node4&#45;&gt;Node5 -->
<g id="edge4_Node000004_Node000005" class="edge">
<title>Node4&#45;&gt;Node5</title>
<g id="a_edge4_Node000004_Node000005"><a xlink:title=" ">
<path fill="none" stroke="#63b8ff" d="M66.85,-55.59C71.46,-48.47 77.96,-38.45 83.62,-29.72"/>
<polygon fill="#63b8ff" stroke="#63b8ff" points="86.4,-31.86 88.9,-21.57 80.52,-28.06 86.4,-31.86"/>
</a>
</g>
</g>
<!-- Node6 -->
<g id="Node000006" class="node">
<title>Node6</title>
<g id="a_Node000006"><a xlink:title=" ">
<polygon fill="#e0e0e0" stroke="#999999" points="53.5,-20 0,-20 0,0 53.5,0 53.5,-20"/>
<text text-anchor="middle" x="26.75" y="-6.5" font-family="Helvetica,sans-Serif" font-size="10.00">iostream</text>
</a>
</g>
</g>
<!-- Node4&#45;&gt;Node6 -->
<g id="edge5_Node000004_Node000006" class="edge">
<title>Node4&#45;&gt;Node6</title>
<g id="a_edge5_Node000004_Node000006"><a xlink:title=" ">
<path fill="none" stroke="#63b8ff" d="M54.83,-55.59C50.39,-48.55 44.17,-38.67 38.71,-30"/>
<polygon fill="#63b8ff" stroke="#63b8ff" points="41.7,-28.18 33.41,-21.58 35.78,-31.91 41.7,-28.18"/>
</a>
</g>
</g>
<!-- Node4&#45;&gt;Node7 -->
<g id="edge6_Node000004_Node000007" class="edge">
<title>Node4&#45;&gt;Node7</title>
<g id="a_edge6_Node000004_Node000007"><a xlink:title=" ">
<path fill="none" stroke="#63b8ff" d="M81.13,-55.59C99.31,-47.21 126.18,-34.8 146.97,-25.21"/>
<polygon fill="#63b8ff" stroke="#63b8ff" points="148.22,-28.48 155.84,-21.11 145.29,-22.13 148.22,-28.48"/>
</a>
</g>
</g>
<!-- Node14&#45;&gt;Node3 -->
<g id="edge25_Node000014_Node000003" class="edge">
<title>Node14&#45;&gt;Node3</title>
<g id="a_edge25_Node000014_Node000003"><a xlink:title=" ">
<path fill="none" stroke="#63b8ff" d="M658.04,-173.9C574.36,-165.18 335.72,-140.3 226.08,-128.87"/>
<polygon fill="#63b8ff" stroke="#63b8ff" points="226.75,-125.42 216.44,-127.87 226.03,-132.39 226.75,-125.42"/>
</a>
</g>
</g>
<!-- Node14&#45;&gt;Node8 -->
<g id="edge18_Node000014_Node000008" class="edge">
<title>Node14&#45;&gt;Node8</title>
<g id="a_edge18_Node000014_Node000008"><a xlink:title=" ">
<path fill="none" stroke="#63b8ff" d="M658.22,-173.24C615.3,-167.26 533.51,-153.98 466.75,-132 446.73,-125.41 443.05,-120.47 423.75,-112 396.61,-100.09 365.31,-87.26 343.23,-78.36"/>
<polygon fill="#63b8ff" stroke="#63b8ff" points="344.59,-75.13 334,-74.65 341.98,-81.63 344.59,-75.13"/>
</a>
</g>
</g>
<!-- Node14&#45;&gt;Node9 -->
<g id="edge17_Node000014_Node000009" class="edge">
<title>Node14&#45;&gt;Node9</title>
<g id="a_edge17_Node000014_Node000009"><a xlink:title=" ">
<path fill="none" stroke="#63b8ff" d="M657.99,-174.28C610.05,-169.22 519.13,-156.57 499.75,-132 478.83,-105.48 481.16,-84.2 499.75,-56 515.96,-31.42 548.69,-20.21 573.32,-15.14"/>
<polygon fill="#63b8ff" stroke="#63b8ff" points="573.61,-18.64 582.83,-13.43 572.37,-11.75 573.61,-18.64"/>
</a>
</g>
</g>
<!-- Node14&#45;&gt;Node12 -->
<g id="edge21_Node000014_Node000012" class="edge">
<title>Node14&#45;&gt;Node12</title>
<g id="a_edge21_Node000014_Node000012"><a xlink:title=" ">
<path fill="none" stroke="#63b8ff" d="M658.03,-174.24C602.5,-168.79 479.07,-155.31 365.67,-132.14"/>
<polygon fill="#63b8ff" stroke="#63b8ff" points="366.71,-128.78 356.21,-130.17 365.29,-135.64 366.71,-128.78"/>
</a>
</g>
</g>
<!-- Node14&#45;&gt;Node13 -->
<g id="edge26_Node000014_Node000013" class="edge">
<title>Node14&#45;&gt;Node13</title>
<g id="a_edge26_Node000014_Node000013"><a xlink:title=" ">
<path fill="none" stroke="#63b8ff" d="M658.08,-172.63C609.79,-165.35 511.29,-149.75 428.75,-132 427.92,-131.82 427.08,-131.64 426.24,-131.45"/>
<polygon fill="#63b8ff" stroke="#63b8ff" points="427.17,-128.07 416.63,-129.15 425.54,-134.88 427.17,-128.07"/>
</a>
</g>
</g>
<!-- Node15 -->
<g id="Node000015" class="node">
<title>Node15</title>
<g id="a_Node000015"><a xlink:title=" ">
<polygon fill="#e0e0e0" stroke="#999999" points="566.75,-132 508.75,-132 508.75,-112 566.75,-112 566.75,-132"/>
<text text-anchor="middle" x="537.75" y="-118.5" font-family="Helvetica,sans-Serif" font-size="10.00">functional</text>
</a>
</g>
</g>
<!-- Node14&#45;&gt;Node15 -->
<g id="edge19_Node000014_Node000015" class="edge">
<title>Node14&#45;&gt;Node15</title>
<g id="a_edge19_Node000014_Node000015"><a xlink:title=" ">
<path fill="none" stroke="#63b8ff" d="M661.62,-167.59C637.57,-158.94 601.65,-146 574.67,-136.29"/>
<polygon fill="#63b8ff" stroke="#63b8ff" points="576.1,-133.09 565.51,-132.99 573.73,-139.67 576.1,-133.09"/>
</a>
</g>
</g>
<!-- Node16 -->
<g id="Node000016" class="node">
<title>Node16</title>
<g id="a_Node000016"><a xlink:title=" ">
<polygon fill="#e0e0e0" stroke="#999999" points="1211.25,-132 1168.25,-132 1168.25,-112 1211.25,-112 1211.25,-132"/>
<text text-anchor="middle" x="1189.75" y="-118.5" font-family="Helvetica,sans-Serif" font-size="10.00">vector</text>
</a>
</g>
</g>
<!-- Node14&#45;&gt;Node16 -->
<g id="edge20_Node000014_Node000016" class="edge">
<title>Node14&#45;&gt;Node16</title>
<g id="a_edge20_Node000014_Node000016"><a xlink:title=" ">
<path fill="none" stroke="#63b8ff" d="M717.51,-176.09C790.69,-173.44 985.35,-163.93 1156.61,-132.04"/>
<polygon fill="#63b8ff" stroke="#63b8ff" points="1157.2,-135.49 1166.37,-130.19 1155.89,-128.61 1157.2,-135.49"/>
</a>
</g>
</g>
<!-- Node17 -->
<g id="Node000017" class="node">
<title>Node17</title>
<g id="a_Node000017"><a xlink:title=" ">
<polygon fill="#e0e0e0" stroke="#999999" points="634.62,-132 584.88,-132 584.88,-112 634.62,-112 634.62,-132"/>
<text text-anchor="middle" x="609.75" y="-118.5" font-family="Helvetica,sans-Serif" font-size="10.00">iomanip</text>
</a>
</g>
</g>
<!-- Node14&#45;&gt;Node17 -->
<g id="edge22_Node000014_Node000017" class="edge">
<title>Node14&#45;&gt;Node17</title>
<g id="a_edge22_Node000014_Node000017"><a xlink:title=" ">
<path fill="none" stroke="#63b8ff" d="M674.16,-167.59C662.71,-159.67 646.09,-148.16 632.59,-138.82"/>
<polygon fill="#63b8ff" stroke="#63b8ff" points="634.9,-136.16 624.69,-133.34 630.92,-141.91 634.9,-136.16"/>
</a>
</g>
</g>
<!-- Node18 -->
<g id="Node000018" class="node">
<title>Node18</title>
<g id="a_Node000018"><a xlink:href="pin__config_8h.html" target="_top" xlink:title=" ">
<polygon fill="white" stroke="#666666" points="577,-76 508.5,-76 508.5,-56 577,-56 577,-76"/>
<text text-anchor="middle" x="542.75" y="-62.5" font-family="Helvetica,sans-Serif" font-size="10.00">pin_config.h</text>
</a>
</g>
</g>
<!-- Node14&#45;&gt;Node18 -->
<g id="edge23_Node000014_Node000018" class="edge">
<title>Node14&#45;&gt;Node18</title>
<g id="a_edge23_Node000014_Node000018"><a xlink:title=" ">
<path fill="none" stroke="#63b8ff" d="M683.61,-167.84C676.98,-154.06 662.76,-127.93 643.75,-112 626.94,-97.92 605.03,-87.44 585.91,-80.16"/>
<polygon fill="#63b8ff" stroke="#63b8ff" points="587.35,-76.96 576.75,-76.85 584.97,-83.54 587.35,-76.96"/>
</a>
</g>
</g>
<!-- Node19 -->
<g id="Node000019" class="node">
<title>Node19</title>
<g id="a_Node000019"><a xlink:title=" ">
<polygon fill="#e0e0e0" stroke="#999999" points="735,-132 690.5,-132 690.5,-112 735,-112 735,-132"/>
<text text-anchor="middle" x="712.75" y="-118.5" font-family="Helvetica,sans-Serif" font-size="10.00">cstdlib</text>
</a>
</g>
</g>
<!-- Node14&#45;&gt;Node19 -->
<g id="edge27_Node000014_Node000019" class="edge">
<title>Node14&#45;&gt;Node19</title>
<g id="a_edge27_Node000014_Node000019"><a xlink:title=" ">
<path fill="none" stroke="#63b8ff" d="M692.1,-167.59C695.3,-160.7 699.74,-151.1 703.69,-142.57"/>
<polygon fill="#63b8ff" stroke="#63b8ff" points="706.78,-144.22 707.81,-133.67 700.43,-141.28 706.78,-144.22"/>
</a>
</g>
</g>
<!-- Node20 -->
<g id="Node000020" class="node">
<title>Node20</title>
<g id="a_Node000020"><a xlink:title=" ">
<polygon fill="#e0e0e0" stroke="#999999" points="798.38,-132 753.12,-132 753.12,-112 798.38,-112 798.38,-132"/>
<text text-anchor="middle" x="775.75" y="-118.5" font-family="Helvetica,sans-Serif" font-size="10.00">cstring</text>
</a>
</g>
</g>
<!-- Node14&#45;&gt;Node20 -->
<g id="edge28_Node000014_Node000020" class="edge">
<title>Node14&#45;&gt;Node20</title>
<g id="a_edge28_Node000014_Node000020"><a xlink:title=" ">
<path fill="none" stroke="#63b8ff" d="M703.08,-167.59C716.25,-159.51 735.48,-147.71 750.86,-138.27"/>
<polygon fill="#63b8ff" stroke="#63b8ff" points="752.32,-141.48 759.01,-133.27 748.66,-135.52 752.32,-141.48"/>
</a>
</g>
</g>
<!-- Node14&#45;&gt;Node21 -->
<g id="edge29_Node000014_Node000021" class="edge">
<title>Node14&#45;&gt;Node21</title>
<g id="a_edge29_Node000014_Node000021"><a xlink:title=" ">
<path fill="none" stroke="#63b8ff" d="M717.32,-170.58C721.81,-169.68 726.4,-168.78 730.75,-168 832.54,-149.66 862.4,-155.03 966.25,-132.3"/>
<polygon fill="#63b8ff" stroke="#63b8ff" points="966.74,-135.78 975.74,-130.19 965.22,-128.94 966.74,-135.78"/>
</a>
</g>
</g>
<!-- Node24 -->
<g id="Node000024" class="node">
<title>Node24</title>
<g id="a_Node000024"><a xlink:title=" ">
<polygon fill="#e0e0e0" stroke="#999999" points="859.25,-132 816.25,-132 816.25,-112 859.25,-112 859.25,-132"/>
<text text-anchor="middle" x="837.75" y="-118.5" font-family="Helvetica,sans-Serif" font-size="10.00">time.h</text>
</a>
</g>
</g>
<!-- Node14&#45;&gt;Node24 -->
<g id="edge35_Node000014_Node000024" class="edge">
<title>Node14&#45;&gt;Node24</title>
<g id="a_edge35_Node000014_Node000024"><a xlink:title=" ">
<path fill="none" stroke="#63b8ff" d="M713.88,-167.59C739.26,-158.46 777.86,-144.56 805.21,-134.71"/>
<polygon fill="#63b8ff" stroke="#63b8ff" points="806.17,-138.09 814.39,-131.41 803.8,-131.5 806.17,-138.09"/>
</a>
</g>
</g>
<!-- Node25 -->
<g id="Node000025" class="node">
<title>Node25</title>
<g id="a_Node000025"><a xlink:href="build__number_8h.html" target="_top" xlink:title=" ">
<polygon fill="white" stroke="#666666" points="959.75,-132 877.75,-132 877.75,-112 959.75,-112 959.75,-132"/>
<text text-anchor="middle" x="918.75" y="-118.5" font-family="Helvetica,sans-Serif" font-size="10.00">build_number.h</text>
</a>
</g>
</g>
<!-- Node14&#45;&gt;Node25 -->
<g id="edge36_Node000014_Node000025" class="edge">
<title>Node14&#45;&gt;Node25</title>
<g id="a_edge36_Node000014_Node000025"><a xlink:title=" ">
<path fill="none" stroke="#63b8ff" d="M717.48,-170.05C755.3,-161.21 821.24,-145.79 867.3,-135.03"/>
<polygon fill="#63b8ff" stroke="#63b8ff" points="867.85,-138.49 876.79,-132.81 866.26,-131.68 867.85,-138.49"/>
</a>
</g>
</g>
<!-- Node26 -->
<g id="Node000026" class="node">
<title>Node26</title>
<g id="a_Node000026"><a xlink:href="_lo_ra-_r_p2040_8h.html" target="_top" xlink:title=" ">
<polygon fill="white" stroke="#666666" points="1149.75,-132 1037.75,-132 1037.75,-112 1149.75,-112 1149.75,-132"/>
<text text-anchor="middle" x="1093.75" y="-118.5" font-family="Helvetica,sans-Serif" font-size="10.00">LoRa/LoRa&#45;RP2040.h</text>
</a>
</g>
</g>
<!-- Node14&#45;&gt;Node26 -->
<g id="edge37_Node000014_Node000026" class="edge">
<title>Node14&#45;&gt;Node26</title>
<g id="a_edge37_Node000014_Node000026"><a xlink:title=" ">
<path fill="none" stroke="#63b8ff" d="M717.41,-173.15C774.82,-165.69 905.43,-148.64 1026.11,-132.35"/>
<polygon fill="#63b8ff" stroke="#63b8ff" points="1026.44,-135.84 1035.88,-131.03 1025.5,-128.9 1026.44,-135.84"/>
</a>
</g>
</g>
<!-- Node18&#45;&gt;Node5 -->
<g id="edge24_Node000018_Node000005" class="edge">
<title>Node18&#45;&gt;Node5</title>
<g id="a_edge24_Node000018_Node000005"><a xlink:title=" ">
<path fill="none" stroke="#63b8ff" d="M508.13,-63.09C438.51,-58.85 276.48,-47 131.46,-20.24"/>
<polygon fill="#63b8ff" stroke="#63b8ff" points="132.12,-16.8 121.65,-18.4 130.83,-23.68 132.12,-16.8"/>
</a>
</g>
</g>
<!-- Node21&#45;&gt;Node9 -->
<g id="edge31_Node000021_Node000009" class="edge">
<title>Node21&#45;&gt;Node9</title>
<g id="a_edge31_Node000021_Node000009"><a xlink:title=" ">
<path fill="none" stroke="#63b8ff" d="M977.24,-114.05C974.4,-113.28 971.52,-112.57 968.75,-112 830.72,-83.64 776.08,-145.93 653.75,-76 635.58,-65.62 622.04,-45.5 613.85,-30.38"/>
<polygon fill="#63b8ff" stroke="#63b8ff" points="617.16,-29.17 609.52,-21.82 610.91,-32.33 617.16,-29.17"/>
</a>
</g>
</g>
<!-- Node21&#45;&gt;Node10 -->
<g id="edge32_Node000021_Node000010" class="edge">
<title>Node21&#45;&gt;Node10</title>
<g id="a_edge32_Node000021_Node000010"><a xlink:title=" ">
<path fill="none" stroke="#63b8ff" d="M977.14,-114.46C974.32,-113.62 971.47,-112.78 968.75,-112 929.49,-100.66 884.72,-88.27 852.21,-79.36"/>
<polygon fill="#63b8ff" stroke="#63b8ff" points="853.28,-76.02 842.71,-76.76 851.44,-82.78 853.28,-76.02"/>
</a>
</g>
</g>
<!-- Node21&#45;&gt;Node18 -->
<g id="edge34_Node000021_Node000018" class="edge">
<title>Node21&#45;&gt;Node18</title>
<g id="a_edge34_Node000021_Node000018"><a xlink:title=" ">
<path fill="none" stroke="#63b8ff" d="M977.25,-114C974.41,-113.24 971.52,-112.54 968.75,-112 803.13,-79.6 757.86,-99.57 590.75,-76 589.93,-75.88 589.11,-75.76 588.27,-75.64"/>
<polygon fill="#63b8ff" stroke="#63b8ff" points="589.22,-72.25 578.79,-74.11 588.1,-79.16 589.22,-72.25"/>
</a>
</g>
</g>
<!-- Node22 -->
<g id="Node000022" class="node">
<title>Node22</title>
<g id="a_Node000022"><a xlink:title=" ">
<polygon fill="#e0e0e0" stroke="#999999" points="1007.38,-20 962.12,-20 962.12,0 1007.38,0 1007.38,-20"/>
<text text-anchor="middle" x="984.75" y="-6.5" font-family="Helvetica,sans-Serif" font-size="10.00">stdio.h</text>
</a>
</g>
</g>
<!-- Node21&#45;&gt;Node22 -->
<g id="edge30_Node000021_Node000022" class="edge">
<title>Node21&#45;&gt;Node22</title>
<g id="a_edge30_Node000021_Node000022"><a xlink:title=" ">
<path fill="none" stroke="#63b8ff" d="M977.24,-114.05C974.4,-113.28 971.52,-112.57 968.75,-112 901.49,-98.08 707.4,-127.32 661.75,-76 655.84,-69.36 655.91,-62.71 661.75,-56 698.97,-13.23 875.66,-9.84 950.8,-10.39"/>
<polygon fill="#63b8ff" stroke="#63b8ff" points="950.4,-13.89 960.44,-10.49 950.48,-6.89 950.4,-13.89"/>
</a>
</g>
</g>
<!-- Node23 -->
<g id="Node000023" class="node">
<title>Node23</title>
<g id="a_Node000023"><a xlink:title=" ">
<polygon fill="#e0e0e0" stroke="#999999" points="754.5,-76 671,-76 671,-56 754.5,-56 754.5,-76"/>
<text text-anchor="middle" x="712.75" y="-62.5" font-family="Helvetica,sans-Serif" font-size="10.00">hardware/uart.h</text>
</a>
</g>
</g>
<!-- Node21&#45;&gt;Node23 -->
<g id="edge33_Node000021_Node000023" class="edge">
<title>Node21&#45;&gt;Node23</title>
<g id="a_edge33_Node000021_Node000023"><a xlink:title=" ">
<path fill="none" stroke="#63b8ff" d="M977.2,-114.21C974.37,-113.41 971.5,-112.65 968.75,-112 882.17,-91.48 856.77,-91.97 765.89,-76.35"/>
<polygon fill="#63b8ff" stroke="#63b8ff" points="766.72,-72.94 756.27,-74.68 765.52,-79.84 766.72,-72.94"/>
</a>
</g>
</g>
<!-- Node26&#45;&gt;Node10 -->
<g id="edge38_Node000026_Node000010" class="edge">
<title>Node26&#45;&gt;Node10</title>
<g id="a_edge38_Node000026_Node000010"><a xlink:title=" ">
<path fill="none" stroke="#63b8ff" d="M1041.08,-111.54C994.23,-103.06 923.55,-90.1 852.3,-76.27"/>
<polygon fill="#63b8ff" stroke="#63b8ff" points="853.3,-72.9 842.81,-74.42 851.96,-79.77 853.3,-72.9"/>
</a>
</g>
</g>
<!-- Node26&#45;&gt;Node18 -->
<g id="edge47_Node000026_Node000018" class="edge">
<title>Node26&#45;&gt;Node18</title>
<g id="a_edge47_Node000026_Node000018"><a xlink:title=" ">
<path fill="none" stroke="#63b8ff" d="M1037.4,-113.04C1034.48,-112.68 1031.58,-112.33 1028.75,-112 867.36,-93.36 675.1,-77.4 588.75,-70.56"/>
<polygon fill="#63b8ff" stroke="#63b8ff" points="589.03,-67.07 578.79,-69.78 588.48,-74.05 589.03,-67.07"/>
</a>
</g>
</g>
<!-- Node27 -->
<g id="Node000027" class="node">
<title>Node27</title>
<g id="a_Node000027"><a xlink:title=" ">
<polygon fill="#e0e0e0" stroke="#999999" points="952,-76 859.5,-76 859.5,-56 952,-56 952,-76"/>
<text text-anchor="middle" x="905.75" y="-62.5" font-family="Helvetica,sans-Serif" font-size="10.00">pico/binary_info.h</text>
</a>
</g>
</g>
<!-- Node26&#45;&gt;Node27 -->
<g id="edge39_Node000026_Node000027" class="edge">
<title>Node26&#45;&gt;Node27</title>
<g id="a_edge39_Node000026_Node000027"><a xlink:title=" ">
<path fill="none" stroke="#63b8ff" d="M1061,-111.59C1030.19,-102.74 983.83,-89.43 949.78,-79.65"/>
<polygon fill="#63b8ff" stroke="#63b8ff" points="950.78,-76.29 940.21,-76.9 948.85,-83.02 950.78,-76.29"/>
</a>
</g>
</g>
<!-- Node28 -->
<g id="Node000028" class="node">
<title>Node28</title>
<g id="a_Node000028"><a xlink:title=" ">
<polygon fill="#e0e0e0" stroke="#999999" points="1055.25,-76 970.25,-76 970.25,-56 1055.25,-56 1055.25,-76"/>
<text text-anchor="middle" x="1012.75" y="-62.5" font-family="Helvetica,sans-Serif" font-size="10.00">hardware/gpio.h</text>
</a>
</g>
</g>
<!-- Node26&#45;&gt;Node28 -->
<g id="edge40_Node000026_Node000028" class="edge">
<title>Node26&#45;&gt;Node28</title>
<g id="a_edge40_Node000026_Node000028"><a xlink:title=" ">
<path fill="none" stroke="#63b8ff" d="M1079.64,-111.59C1067.75,-103.67 1050.48,-92.16 1036.47,-82.82"/>
<polygon fill="#63b8ff" stroke="#63b8ff" points="1038.49,-79.95 1028.23,-77.32 1034.61,-85.78 1038.49,-79.95"/>
</a>
</g>
</g>
<!-- Node29 -->
<g id="Node000029" class="node">
<title>Node29</title>
<g id="a_Node000029"><a xlink:title=" ">
<polygon fill="#e0e0e0" stroke="#999999" points="1152.62,-76 1072.88,-76 1072.88,-56 1152.62,-56 1152.62,-76"/>
<text text-anchor="middle" x="1112.75" y="-62.5" font-family="Helvetica,sans-Serif" font-size="10.00">hardware/spi.h</text>
</a>
</g>
</g>
<!-- Node26&#45;&gt;Node29 -->
<g id="edge41_Node000026_Node000029" class="edge">
<title>Node26&#45;&gt;Node29</title>
<g id="a_edge41_Node000026_Node000029"><a xlink:title=" ">
<path fill="none" stroke="#63b8ff" d="M1097.06,-111.59C1099.43,-104.86 1102.71,-95.53 1105.66,-87.15"/>
<polygon fill="#63b8ff" stroke="#63b8ff" points="1108.96,-88.32 1108.98,-77.73 1102.36,-86 1108.96,-88.32"/>
</a>
</g>
</g>
<!-- Node30 -->
<g id="Node000030" class="node">
<title>Node30</title>
<g id="a_Node000030"><a xlink:title=" ">
<polygon fill="#e0e0e0" stroke="#999999" points="1218.88,-76 1170.62,-76 1170.62,-56 1218.88,-56 1218.88,-76"/>
<text text-anchor="middle" x="1194.75" y="-62.5" font-family="Helvetica,sans-Serif" font-size="10.00">string.h</text>
</a>
</g>
</g>
<!-- Node26&#45;&gt;Node30 -->
<g id="edge42_Node000026_Node000030" class="edge">
<title>Node26&#45;&gt;Node30</title>
<g id="a_edge42_Node000026_Node000030"><a xlink:title=" ">
<path fill="none" stroke="#63b8ff" d="M1111.34,-111.59C1126.67,-103.4 1149.17,-91.37 1166.94,-81.87"/>
<polygon fill="#63b8ff" stroke="#63b8ff" points="1168.52,-84.99 1175.69,-77.19 1165.22,-78.82 1168.52,-84.99"/>
</a>
</g>
</g>
<!-- Node31 -->
<g id="Node000031" class="node">
<title>Node31</title>
<g id="a_Node000031"><a xlink:href="_print_8h.html" target="_top" xlink:title=" ">
<polygon fill="white" stroke="#666666" points="1395,-76 1350.5,-76 1350.5,-56 1395,-56 1395,-76"/>
<text text-anchor="middle" x="1372.75" y="-62.5" font-family="Helvetica,sans-Serif" font-size="10.00">Print.h</text>
</a>
</g>
</g>
<!-- Node26&#45;&gt;Node31 -->
<g id="edge43_Node000026_Node000031" class="edge">
<title>Node26&#45;&gt;Node31</title>
<g id="a_edge43_Node000026_Node000031"><a xlink:title=" ">
<path fill="none" stroke="#63b8ff" d="M1142.67,-111.53C1198.97,-100.63 1289.97,-83.02 1338.95,-73.54"/>
<polygon fill="#63b8ff" stroke="#63b8ff" points="1339.53,-77 1348.68,-71.66 1338.2,-70.12 1339.53,-77"/>
</a>
</g>
</g>
<!-- Node31&#45;&gt;Node9 -->
<g id="edge46_Node000031_Node000009" class="edge">
<title>Node31&#45;&gt;Node9</title>
<g id="a_edge46_Node000031_Node000009"><a xlink:title=" ">
<path fill="none" stroke="#63b8ff" d="M1350.03,-58.65C1345.65,-57.62 1341.08,-56.67 1336.75,-56 1198.52,-34.66 758.4,-16.8 636.38,-12.17"/>
<polygon fill="#63b8ff" stroke="#63b8ff" points="636.6,-8.68 626.48,-11.8 636.34,-15.67 636.6,-8.68"/>
</a>
</g>
</g>
<!-- Node31&#45;&gt;Node22 -->
<g id="edge45_Node000031_Node000022" class="edge">
<title>Node31&#45;&gt;Node22</title>
<g id="a_edge45_Node000031_Node000022"><a xlink:title=" ">
<path fill="none" stroke="#63b8ff" d="M1350.37,-58.97C1345.88,-57.89 1341.18,-56.83 1336.75,-56 1221,-34.21 1081.82,-19.87 1018.76,-14"/>
<polygon fill="#63b8ff" stroke="#63b8ff" points="1019.33,-10.54 1009.05,-13.11 1018.69,-17.51 1019.33,-10.54"/>
</a>
</g>
</g>
<!-- Node32 -->
<g id="Node000032" class="node">
<title>Node32</title>
<g id="a_Node000032"><a xlink:title=" ">
<polygon fill="#e0e0e0" stroke="#999999" points="1402.12,-20 1343.38,-20 1343.38,0 1402.12,0 1402.12,-20"/>
<text text-anchor="middle" x="1372.75" y="-6.5" font-family="Helvetica,sans-Serif" font-size="10.00">inttypes.h</text>
</a>
</g>
</g>
<!-- Node31&#45;&gt;Node32 -->
<g id="edge44_Node000031_Node000032" class="edge">
<title>Node31&#45;&gt;Node32</title>
<g id="a_edge44_Node000031_Node000032"><a xlink:title=" ">
<path fill="none" stroke="#63b8ff" d="M1372.75,-55.59C1372.75,-49.01 1372.75,-39.96 1372.75,-31.73"/>
<polygon fill="#63b8ff" stroke="#63b8ff" points="1376.25,-31.81 1372.75,-21.81 1369.25,-31.81 1376.25,-31.81"/>
</a>
</g>
</g>
<!-- Node34&#45;&gt;Node2 -->
<g id="edge53_Node000034_Node000002" class="edge">
<title>Node34&#45;&gt;Node2</title>
<g id="a_edge53_Node000034_Node000002"><a xlink:title=" ">
<path fill="none" stroke="#63b8ff" d="M876.42,-225.16C873.49,-224.74 870.58,-224.35 867.75,-224 684.26,-201.39 465.55,-187.62 363.92,-181.97"/>
<polygon fill="#63b8ff" stroke="#63b8ff" points="364.39,-178.49 354.21,-181.44 364,-185.48 364.39,-178.49"/>
</a>
</g>
</g>
<!-- Node34&#45;&gt;Node9 -->
<g id="edge50_Node000034_Node000009" class="edge">
<title>Node34&#45;&gt;Node9</title>
<g id="a_edge50_Node000034_Node000009"><a xlink:title=" ">
<path fill="none" stroke="#63b8ff" d="M967.35,-224.96C1071.67,-204.78 1312.4,-146.99 1227.75,-56 1207.4,-34.13 760.27,-16.56 636.34,-12.1"/>
<polygon fill="#63b8ff" stroke="#63b8ff" points="636.7,-8.61 626.58,-11.75 636.45,-15.61 636.7,-8.61"/>
</a>
</g>
</g>
<!-- Node34&#45;&gt;Node14 -->
<g id="edge52_Node000034_Node000014" class="edge">
<title>Node34&#45;&gt;Node14</title>
<g id="a_edge52_Node000034_Node000014"><a xlink:title=" ">
<path fill="none" stroke="#63b8ff" d="M880.72,-223.53C837.98,-213.67 771.4,-198.3 728.69,-188.45"/>
<polygon fill="#63b8ff" stroke="#63b8ff" points="729.59,-185.06 719.06,-186.22 728.01,-191.88 729.59,-185.06"/>
</a>
</g>
</g>
<!-- Node34&#45;&gt;Node16 -->
<g id="edge51_Node000034_Node000016" class="edge">
<title>Node34&#45;&gt;Node16</title>
<g id="a_edge51_Node000034_Node000016"><a xlink:title=" ">
<path fill="none" stroke="#63b8ff" d="M944.6,-223.62C992.32,-204.03 1102.7,-158.73 1157.57,-136.21"/>
<polygon fill="#63b8ff" stroke="#63b8ff" points="1158.76,-139.5 1166.68,-132.47 1156.1,-133.03 1158.76,-139.5"/>
</a>
</g>
</g>
<!-- Node35&#45;&gt;Node7 -->
<g id="edge59_Node000035_Node000007" class="edge">
<title>Node35&#45;&gt;Node7</title>
<g id="a_edge59_Node000035_Node000007"><a xlink:title=" ">
<path fill="none" stroke="#63b8ff" d="M1297.43,-111.73C1284.98,-96.78 1258.06,-67.83 1227.75,-56 1180.85,-37.7 434.32,-17.51 229.42,-12.29"/>
<polygon fill="#63b8ff" stroke="#63b8ff" points="229.71,-8.79 219.62,-12.04 229.53,-15.79 229.71,-8.79"/>
</a>
</g>
</g>
<!-- Node35&#45;&gt;Node9 -->
<g id="edge56_Node000035_Node000009" class="edge">
<title>Node35&#45;&gt;Node9</title>
<g id="a_edge56_Node000035_Node000009"><a xlink:title=" ">
<path fill="none" stroke="#63b8ff" d="M1307.14,-111.92C1310.26,-97.76 1313.69,-70.54 1298.75,-56 1274.7,-32.6 769.07,-15.91 636.4,-11.92"/>
<polygon fill="#63b8ff" stroke="#63b8ff" points="636.7,-8.42 626.6,-11.63 636.49,-15.42 636.7,-8.42"/>
</a>
</g>
</g>
<!-- Node35&#45;&gt;Node10 -->
<g id="edge58_Node000035_Node000010" class="edge">
<title>Node35&#45;&gt;Node10</title>
<g id="a_edge58_Node000035_Node000010"><a xlink:title=" ">
<path fill="none" stroke="#63b8ff" d="M1274.82,-117.72C1258.79,-115.98 1238.7,-113.83 1220.75,-112 1059.92,-95.56 1016,-100.37 852.24,-76.06"/>
<polygon fill="#63b8ff" stroke="#63b8ff" points="853.18,-72.66 842.77,-74.64 852.14,-79.59 853.18,-72.66"/>
</a>
</g>
</g>
<!-- Node36 -->
<g id="Node000036" class="node">
<title>Node36</title>
<g id="a_Node000036"><a xlink:title=" ">
<polygon fill="#e0e0e0" stroke="#999999" points="1450.62,-76 1412.88,-76 1412.88,-56 1450.62,-56 1450.62,-76"/>
<text text-anchor="middle" x="1431.75" y="-62.5" font-family="Helvetica,sans-Serif" font-size="10.00">array</text>
</a>
</g>
</g>
<!-- Node35&#45;&gt;Node36 -->
<g id="edge57_Node000035_Node000036" class="edge">
<title>Node35&#45;&gt;Node36</title>
<g id="a_edge57_Node000035_Node000036"><a xlink:title=" ">
<path fill="none" stroke="#63b8ff" d="M1326.87,-111.59C1347.64,-102.76 1378.86,-89.49 1401.84,-79.72"/>
<polygon fill="#63b8ff" stroke="#63b8ff" points="1403.15,-82.96 1410.98,-75.83 1400.41,-76.52 1403.15,-82.96"/>
</a>
</g>
</g>
</g>
</svg>
