<?xml version="1.0" encoding="UTF-8" standalone="no"?>
<!DOCTYPE svg PUBLIC "-//W3C//DTD SVG 1.1//EN"
 "http://www.w3.org/Graphics/SVG/1.1/DTD/svg11.dtd">
<!-- Generated by graphviz version 12.2.1 (20241206.2353)
 -->
<!-- Title: lib/comms/commands/event_commands.cpp Pages: 1 -->
<svg width="1235pt" height="320pt"
 viewBox="0.00 0.00 1234.50 320.00" xmlns="http://www.w3.org/2000/svg" xmlns:xlink="http://www.w3.org/1999/xlink">
<g id="graph0" class="graph" transform="scale(1 1) rotate(0) translate(4 316)">
<title>lib/comms/commands/event_commands.cpp</title>
<!-- Node1 -->
<g id="Node000001" class="node">
<title>Node1</title>
<g id="a_Node000001"><a xlink:title=" ">
<polygon fill="#999999" stroke="#666666" points="1204.38,-312 1089.38,-312 1089.38,-280 1204.38,-280 1204.38,-312"/>
<text text-anchor="start" x="1097.38" y="-298.5" font-family="Helvetica,sans-Serif" font-size="10.00">lib/comms/commands</text>
<text text-anchor="middle" x="1146.88" y="-286.5" font-family="Helvetica,sans-Serif" font-size="10.00">/event_commands.cpp</text>
</a>
</g>
</g>
<!-- Node2 -->
<g id="Node000002" class="node">
<title>Node2</title>
<g id="a_Node000002"><a xlink:href="communication_8h.html" target="_top" xlink:title=" ">
<polygon fill="white" stroke="#666666" points="1119,-244 1028.75,-244 1028.75,-224 1119,-224 1119,-244"/>
<text text-anchor="middle" x="1073.88" y="-230.5" font-family="Helvetica,sans-Serif" font-size="10.00">communication.h</text>
</a>
</g>
</g>
<!-- Node1&#45;&gt;Node2 -->
<g id="edge1_Node000001_Node000002" class="edge">
<title>Node1&#45;&gt;Node2</title>
<g id="a_edge1_Node000001_Node000002"><a xlink:title=" ">
<path fill="none" stroke="#63b8ff" d="M1128.08,-279.55C1117.62,-270.95 1104.61,-260.26 1093.95,-251.5"/>
<polygon fill="#63b8ff" stroke="#63b8ff" points="1096.44,-249.01 1086.49,-245.37 1091.99,-254.42 1096.44,-249.01"/>
</a>
</g>
</g>
<!-- Node33 -->
<g id="Node000033" class="node">
<title>Node33</title>
<g id="a_Node000033"><a xlink:href="event__manager_8h.html" target="_top" xlink:title=" ">
<polygon fill="white" stroke="#666666" points="1192.38,-188 1101.38,-188 1101.38,-168 1192.38,-168 1192.38,-188"/>
<text text-anchor="middle" x="1146.88" y="-174.5" font-family="Helvetica,sans-Serif" font-size="10.00">event_manager.h</text>
</a>
</g>
</g>
<!-- Node1&#45;&gt;Node33 -->
<g id="edge50_Node000001_Node000033" class="edge">
<title>Node1&#45;&gt;Node33</title>
<g id="a_edge50_Node000001_Node000033"><a xlink:title=" ">
<path fill="none" stroke="#63b8ff" d="M1146.88,-279.84C1146.88,-259.41 1146.88,-222.97 1146.88,-199.95"/>
<polygon fill="#63b8ff" stroke="#63b8ff" points="1150.38,-199.95 1146.88,-189.95 1143.38,-199.95 1150.38,-199.95"/>
</a>
</g>
</g>
<!-- Node34 -->
<g id="Node000034" class="node">
<title>Node34</title>
<g id="a_Node000034"><a xlink:title=" ">
<polygon fill="#e0e0e0" stroke="#999999" points="1226.5,-244 1175.25,-244 1175.25,-224 1226.5,-224 1226.5,-244"/>
<text text-anchor="middle" x="1200.88" y="-230.5" font-family="Helvetica,sans-Serif" font-size="10.00">sstream</text>
</a>
</g>
</g>
<!-- Node1&#45;&gt;Node34 -->
<g id="edge51_Node000001_Node000034" class="edge">
<title>Node1&#45;&gt;Node34</title>
<g id="a_edge51_Node000001_Node000034"><a xlink:title=" ">
<path fill="none" stroke="#63b8ff" d="M1160.78,-279.55C1168.13,-271.39 1177.17,-261.33 1184.82,-252.84"/>
<polygon fill="#63b8ff" stroke="#63b8ff" points="1187.31,-255.31 1191.4,-245.53 1182.1,-250.62 1187.31,-255.31"/>
</a>
</g>
</g>
<!-- Node3 -->
<g id="Node000003" class="node">
<title>Node3</title>
<g id="a_Node000003"><a xlink:title=" ">
<polygon fill="#e0e0e0" stroke="#999999" points="1117.88,-20 1077.88,-20 1077.88,0 1117.88,0 1117.88,-20"/>
<text text-anchor="middle" x="1097.88" y="-6.5" font-family="Helvetica,sans-Serif" font-size="10.00">string</text>
</a>
</g>
</g>
<!-- Node2&#45;&gt;Node3 -->
<g id="edge2_Node000002_Node000003" class="edge">
<title>Node2&#45;&gt;Node3</title>
<g id="a_edge2_Node000002_Node000003"><a xlink:title=" ">
<path fill="none" stroke="#63b8ff" d="M1119.42,-228.76C1147.46,-223.67 1181.77,-212.49 1201.88,-188 1217.83,-168.57 1208.09,-157.08 1209.88,-132 1212.38,-96.8 1210.83,-81.91 1186.88,-56 1171.23,-39.08 1147.79,-27.58 1128.89,-20.45"/>
<polygon fill="#63b8ff" stroke="#63b8ff" points="1130.12,-17.18 1119.53,-17.16 1127.8,-23.78 1130.12,-17.18"/>
</a>
</g>
</g>
<!-- Node4 -->
<g id="Node000004" class="node">
<title>Node4</title>
<g id="a_Node000004"><a xlink:title=" ">
<polygon fill="#e0e0e0" stroke="#999999" points="960.38,-132 917.38,-132 917.38,-112 960.38,-112 960.38,-132"/>
<text text-anchor="middle" x="938.88" y="-118.5" font-family="Helvetica,sans-Serif" font-size="10.00">vector</text>
</a>
</g>
</g>
<!-- Node2&#45;&gt;Node4 -->
<g id="edge3_Node000002_Node000004" class="edge">
<title>Node2&#45;&gt;Node4</title>
<g id="a_edge3_Node000002_Node000004"><a xlink:title=" ">
<path fill="none" stroke="#63b8ff" d="M1062.36,-223.62C1039.45,-204.95 987.86,-162.92 959.14,-139.52"/>
<polygon fill="#63b8ff" stroke="#63b8ff" points="961.49,-136.91 951.53,-133.31 957.07,-142.34 961.49,-136.91"/>
</a>
</g>
</g>
<!-- Node5 -->
<g id="Node000005" class="node">
<title>Node5</title>
<g id="a_Node000005"><a xlink:href="protocol_8h.html" target="_top" xlink:title=" ">
<polygon fill="white" stroke="#666666" points="758.25,-188 699.5,-188 699.5,-168 758.25,-168 758.25,-188"/>
<text text-anchor="middle" x="728.88" y="-174.5" font-family="Helvetica,sans-Serif" font-size="10.00">protocol.h</text>
</a>
</g>
</g>
<!-- Node2&#45;&gt;Node5 -->
<g id="edge4_Node000002_Node000005" class="edge">
<title>Node2&#45;&gt;Node5</title>
<g id="a_edge4_Node000002_Node000005"><a xlink:title=" ">
<path fill="none" stroke="#63b8ff" d="M1028.42,-225.88C960.75,-215.29 834.57,-195.54 769.7,-185.39"/>
<polygon fill="#63b8ff" stroke="#63b8ff" points="770.62,-181.99 760.2,-183.9 769.54,-188.91 770.62,-181.99"/>
</a>
</g>
</g>
<!-- Node2&#45;&gt;Node33 -->
<g id="edge45_Node000002_Node000033" class="edge">
<title>Node2&#45;&gt;Node33</title>
<g id="a_edge45_Node000002_Node000033"><a xlink:title=" ">
<path fill="none" stroke="#63b8ff" d="M1086.59,-223.59C1097.27,-215.7 1112.75,-204.24 1125.36,-194.92"/>
<polygon fill="#63b8ff" stroke="#63b8ff" points="1127.13,-197.96 1133.09,-189.2 1122.97,-192.33 1127.13,-197.96"/>
</a>
</g>
</g>
<!-- Node5&#45;&gt;Node3 -->
<g id="edge5_Node000005_Node000003" class="edge">
<title>Node5&#45;&gt;Node3</title>
<g id="a_edge5_Node000005_Node000003"><a xlink:title=" ">
<path fill="none" stroke="#63b8ff" d="M758.69,-175.64C832.37,-171.88 1021.1,-159.74 1076.88,-132 1108.11,-116.47 1118.67,-108.29 1131.88,-76 1138.69,-59.34 1127.61,-41.25 1116.32,-28.4"/>
<polygon fill="#63b8ff" stroke="#63b8ff" points="1119.17,-26.32 1109.73,-21.52 1114.12,-31.16 1119.17,-26.32"/>
</a>
</g>
</g>
<!-- Node5&#45;&gt;Node4 -->
<g id="edge8_Node000005_Node000004" class="edge">
<title>Node5&#45;&gt;Node4</title>
<g id="a_edge8_Node000005_Node000004"><a xlink:title=" ">
<path fill="none" stroke="#63b8ff" d="M758.61,-170.01C792.22,-162.02 848.84,-148.27 905.92,-132.73"/>
<polygon fill="#63b8ff" stroke="#63b8ff" points="906.78,-136.12 915.49,-130.1 904.92,-129.37 906.78,-136.12"/>
</a>
</g>
</g>
<!-- Node6 -->
<g id="Node000006" class="node">
<title>Node6</title>
<g id="a_Node000006"><a xlink:title=" ">
<polygon fill="#e0e0e0" stroke="#999999" points="797.25,-76 762.5,-76 762.5,-56 797.25,-56 797.25,-76"/>
<text text-anchor="middle" x="779.88" y="-62.5" font-family="Helvetica,sans-Serif" font-size="10.00">map</text>
</a>
</g>
</g>
<!-- Node5&#45;&gt;Node6 -->
<g id="edge6_Node000005_Node000006" class="edge">
<title>Node5&#45;&gt;Node6</title>
<g id="a_edge6_Node000005_Node000006"><a xlink:title=" ">
<path fill="none" stroke="#63b8ff" d="M725.09,-167.63C720.42,-154.49 714.08,-130.15 722.88,-112 729.13,-99.1 741.07,-88.78 752.41,-81.3"/>
<polygon fill="#63b8ff" stroke="#63b8ff" points="754.03,-84.41 760.77,-76.24 750.41,-78.42 754.03,-84.41"/>
</a>
</g>
</g>
<!-- Node7 -->
<g id="Node000007" class="node">
<title>Node7</title>
<g id="a_Node000007"><a xlink:title=" ">
<polygon fill="#e0e0e0" stroke="#999999" points="509.88,-132 451.88,-132 451.88,-112 509.88,-112 509.88,-132"/>
<text text-anchor="middle" x="480.88" y="-118.5" font-family="Helvetica,sans-Serif" font-size="10.00">functional</text>
</a>
</g>
</g>
<!-- Node5&#45;&gt;Node7 -->
<g id="edge7_Node000005_Node000007" class="edge">
<title>Node5&#45;&gt;Node7</title>
<g id="a_edge7_Node000005_Node000007"><a xlink:title=" ">
<path fill="none" stroke="#63b8ff" d="M699.45,-170.59C655.17,-160.95 571.28,-142.68 521.29,-131.8"/>
<polygon fill="#63b8ff" stroke="#63b8ff" points="522.25,-128.43 511.74,-129.72 520.76,-135.27 522.25,-128.43"/>
</a>
</g>
</g>
<!-- Node8 -->
<g id="Node000008" class="node">
<title>Node8</title>
<g id="a_Node000008"><a xlink:title=" ">
<polygon fill="#e0e0e0" stroke="#999999" points="1169.5,-132 1124.25,-132 1124.25,-112 1169.5,-112 1169.5,-132"/>
<text text-anchor="middle" x="1146.88" y="-118.5" font-family="Helvetica,sans-Serif" font-size="10.00">cstdint</text>
</a>
</g>
</g>
<!-- Node5&#45;&gt;Node8 -->
<g id="edge9_Node000005_Node000008" class="edge">
<title>Node5&#45;&gt;Node8</title>
<g id="a_edge9_Node000005_Node000008"><a xlink:title=" ">
<path fill="none" stroke="#63b8ff" d="M758.7,-174.71C823.15,-169.51 980.08,-155.36 1109.88,-132 1110.87,-131.82 1111.88,-131.63 1112.9,-131.43"/>
<polygon fill="#63b8ff" stroke="#63b8ff" points="1113.36,-134.91 1122.4,-129.37 1111.88,-128.07 1113.36,-134.91"/>
</a>
</g>
</g>
<!-- Node9 -->
<g id="Node000009" class="node">
<title>Node9</title>
<g id="a_Node000009"><a xlink:title=" ">
<polygon fill="#e0e0e0" stroke="#999999" points="615.75,-132 566,-132 566,-112 615.75,-112 615.75,-132"/>
<text text-anchor="middle" x="590.88" y="-118.5" font-family="Helvetica,sans-Serif" font-size="10.00">iomanip</text>
</a>
</g>
</g>
<!-- Node5&#45;&gt;Node9 -->
<g id="edge10_Node000005_Node000009" class="edge">
<title>Node5&#45;&gt;Node9</title>
<g id="a_edge10_Node000005_Node000009"><a xlink:title=" ">
<path fill="none" stroke="#63b8ff" d="M704.84,-167.59C682.91,-159.01 650.25,-146.23 625.5,-136.55"/>
<polygon fill="#63b8ff" stroke="#63b8ff" points="627.1,-133.42 616.51,-133.03 624.55,-139.93 627.1,-133.42"/>
</a>
</g>
</g>
<!-- Node10 -->
<g id="Node000010" class="node">
<title>Node10</title>
<g id="a_Node000010"><a xlink:href="pin__config_8h.html" target="_top" xlink:title=" ">
<polygon fill="white" stroke="#666666" points="518.12,-76 449.62,-76 449.62,-56 518.12,-56 518.12,-76"/>
<text text-anchor="middle" x="483.88" y="-62.5" font-family="Helvetica,sans-Serif" font-size="10.00">pin_config.h</text>
</a>
</g>
</g>
<!-- Node5&#45;&gt;Node10 -->
<g id="edge11_Node000005_Node000010" class="edge">
<title>Node5&#45;&gt;Node10</title>
<g id="a_edge11_Node000005_Node000010"><a xlink:title=" ">
<path fill="none" stroke="#63b8ff" d="M699.03,-173.52C663.45,-168.42 603,-156.7 556.88,-132 534.33,-119.92 513.03,-99.54 499.32,-84.81"/>
<polygon fill="#63b8ff" stroke="#63b8ff" points="502.13,-82.7 492.84,-77.62 496.93,-87.39 502.13,-82.7"/>
</a>
</g>
</g>
<!-- Node12 -->
<g id="Node000012" class="node">
<title>Node12</title>
<g id="a_Node000012"><a xlink:href="_power_manager_8h.html" target="_top" xlink:title=" ">
<polygon fill="white" stroke="#666666" points="1067.62,-132 978.12,-132 978.12,-112 1067.62,-112 1067.62,-132"/>
<text text-anchor="middle" x="1022.88" y="-118.5" font-family="Helvetica,sans-Serif" font-size="10.00">PowerManager.h</text>
</a>
</g>
</g>
<!-- Node5&#45;&gt;Node12 -->
<g id="edge13_Node000005_Node000012" class="edge">
<title>Node5&#45;&gt;Node12</title>
<g id="a_edge13_Node000005_Node000012"><a xlink:title=" ">
<path fill="none" stroke="#63b8ff" d="M758.68,-171.53C807.33,-162.59 904.58,-144.73 966.55,-133.35"/>
<polygon fill="#63b8ff" stroke="#63b8ff" points="967,-136.82 976.2,-131.57 965.73,-129.94 967,-136.82"/>
</a>
</g>
</g>
<!-- Node18 -->
<g id="Node000018" class="node">
<title>Node18</title>
<g id="a_Node000018"><a xlink:title=" ">
<polygon fill="#e0e0e0" stroke="#999999" points="774,-132 731.75,-132 731.75,-112 774,-112 774,-132"/>
<text text-anchor="middle" x="752.88" y="-118.5" font-family="Helvetica,sans-Serif" font-size="10.00">cstdio</text>
</a>
</g>
</g>
<!-- Node5&#45;&gt;Node18 -->
<g id="edge23_Node000005_Node000018" class="edge">
<title>Node5&#45;&gt;Node18</title>
<g id="a_edge23_Node000005_Node000018"><a xlink:title=" ">
<path fill="none" stroke="#63b8ff" d="M733.06,-167.59C736.12,-160.7 740.39,-151.1 744.18,-142.57"/>
<polygon fill="#63b8ff" stroke="#63b8ff" points="747.26,-144.24 748.13,-133.68 740.87,-141.4 747.26,-144.24"/>
</a>
</g>
</g>
<!-- Node19 -->
<g id="Node000019" class="node">
<title>Node19</title>
<g id="a_Node000019"><a xlink:title=" ">
<polygon fill="#e0e0e0" stroke="#999999" points="836.12,-132 791.62,-132 791.62,-112 836.12,-112 836.12,-132"/>
<text text-anchor="middle" x="813.88" y="-118.5" font-family="Helvetica,sans-Serif" font-size="10.00">cstdlib</text>
</a>
</g>
</g>
<!-- Node5&#45;&gt;Node19 -->
<g id="edge24_Node000005_Node000019" class="edge">
<title>Node5&#45;&gt;Node19</title>
<g id="a_edge24_Node000005_Node000019"><a xlink:title=" ">
<path fill="none" stroke="#63b8ff" d="M743.68,-167.59C756.28,-159.59 774.63,-147.93 789.41,-138.54"/>
<polygon fill="#63b8ff" stroke="#63b8ff" points="791.11,-141.61 797.68,-133.29 787.36,-135.7 791.11,-141.61"/>
</a>
</g>
</g>
<!-- Node20 -->
<g id="Node000020" class="node">
<title>Node20</title>
<g id="a_Node000020"><a xlink:title=" ">
<polygon fill="#e0e0e0" stroke="#999999" points="899.5,-132 854.25,-132 854.25,-112 899.5,-112 899.5,-132"/>
<text text-anchor="middle" x="876.88" y="-118.5" font-family="Helvetica,sans-Serif" font-size="10.00">cstring</text>
</a>
</g>
</g>
<!-- Node5&#45;&gt;Node20 -->
<g id="edge25_Node000005_Node000020" class="edge">
<title>Node5&#45;&gt;Node20</title>
<g id="a_edge25_Node000005_Node000020"><a xlink:title=" ">
<path fill="none" stroke="#63b8ff" d="M754.65,-167.59C779.26,-158.62 816.46,-145.04 843.35,-135.23"/>
<polygon fill="#63b8ff" stroke="#63b8ff" points="844.2,-138.65 852.4,-131.93 841.81,-132.07 844.2,-138.65"/>
</a>
</g>
</g>
<!-- Node21 -->
<g id="Node000021" class="node">
<title>Node21</title>
<g id="a_Node000021"><a xlink:href="utils_8h.html" target="_top" xlink:title=" ">
<polygon fill="white" stroke="#666666" points="676,-132 633.75,-132 633.75,-112 676,-112 676,-132"/>
<text text-anchor="middle" x="654.88" y="-118.5" font-family="Helvetica,sans-Serif" font-size="10.00">utils.h</text>
</a>
</g>
</g>
<!-- Node5&#45;&gt;Node21 -->
<g id="edge26_Node000005_Node000021" class="edge">
<title>Node5&#45;&gt;Node21</title>
<g id="a_edge26_Node000005_Node000021"><a xlink:title=" ">
<path fill="none" stroke="#63b8ff" d="M715.99,-167.59C705.16,-159.7 689.46,-148.24 676.69,-138.92"/>
<polygon fill="#63b8ff" stroke="#63b8ff" points="678.98,-136.26 668.84,-133.19 674.85,-141.91 678.98,-136.26"/>
</a>
</g>
</g>
<!-- Node24 -->
<g id="Node000024" class="node">
<title>Node24</title>
<g id="a_Node000024"><a xlink:title=" ">
<polygon fill="#e0e0e0" stroke="#999999" points="333.38,-132 290.38,-132 290.38,-112 333.38,-112 333.38,-132"/>
<text text-anchor="middle" x="311.88" y="-118.5" font-family="Helvetica,sans-Serif" font-size="10.00">time.h</text>
</a>
</g>
</g>
<!-- Node5&#45;&gt;Node24 -->
<g id="edge32_Node000005_Node000024" class="edge">
<title>Node5&#45;&gt;Node24</title>
<g id="a_edge32_Node000005_Node000024"><a xlink:title=" ">
<path fill="none" stroke="#63b8ff" d="M699.07,-175.22C635.64,-171.08 482.51,-159.17 344.92,-132.08"/>
<polygon fill="#63b8ff" stroke="#63b8ff" points="345.76,-128.68 335.26,-130.15 344.38,-135.54 345.76,-128.68"/>
</a>
</g>
</g>
<!-- Node25 -->
<g id="Node000025" class="node">
<title>Node25</title>
<g id="a_Node000025"><a xlink:href="build__number_8h.html" target="_top" xlink:title=" ">
<polygon fill="white" stroke="#666666" points="433.88,-132 351.88,-132 351.88,-112 433.88,-112 433.88,-132"/>
<text text-anchor="middle" x="392.88" y="-118.5" font-family="Helvetica,sans-Serif" font-size="10.00">build_number.h</text>
</a>
</g>
</g>
<!-- Node5&#45;&gt;Node25 -->
<g id="edge33_Node000005_Node000025" class="edge">
<title>Node5&#45;&gt;Node25</title>
<g id="a_edge33_Node000005_Node000025"><a xlink:title=" ">
<path fill="none" stroke="#63b8ff" d="M699.2,-172.55C649.09,-164.99 544.24,-148.97 445.42,-132.4"/>
<polygon fill="#63b8ff" stroke="#63b8ff" points="446.27,-128.99 435.83,-130.79 445.11,-135.9 446.27,-128.99"/>
</a>
</g>
</g>
<!-- Node26 -->
<g id="Node000026" class="node">
<title>Node26</title>
<g id="a_Node000026"><a xlink:href="_lo_ra-_r_p2040_8h.html" target="_top" xlink:title=" ">
<polygon fill="white" stroke="#666666" points="271.88,-132 159.88,-132 159.88,-112 271.88,-112 271.88,-132"/>
<text text-anchor="middle" x="215.88" y="-118.5" font-family="Helvetica,sans-Serif" font-size="10.00">LoRa/LoRa&#45;RP2040.h</text>
</a>
</g>
</g>
<!-- Node5&#45;&gt;Node26 -->
<g id="edge34_Node000005_Node000026" class="edge">
<title>Node5&#45;&gt;Node26</title>
<g id="a_edge34_Node000005_Node000026"><a xlink:title=" ">
<path fill="none" stroke="#63b8ff" d="M699.21,-174.41C628.97,-168.19 446.68,-151.56 283.45,-132.27"/>
<polygon fill="#63b8ff" stroke="#63b8ff" points="284.07,-128.82 273.73,-131.11 283.25,-135.77 284.07,-128.82"/>
</a>
</g>
</g>
<!-- Node11 -->
<g id="Node000011" class="node">
<title>Node11</title>
<g id="a_Node000011"><a xlink:title=" ">
<polygon fill="#e0e0e0" stroke="#999999" points="712,-20 663.75,-20 663.75,0 712,0 712,-20"/>
<text text-anchor="middle" x="687.88" y="-6.5" font-family="Helvetica,sans-Serif" font-size="10.00">stdint.h</text>
</a>
</g>
</g>
<!-- Node10&#45;&gt;Node11 -->
<g id="edge12_Node000010_Node000011" class="edge">
<title>Node10&#45;&gt;Node11</title>
<g id="a_edge12_Node000010_Node000011"><a xlink:title=" ">
<path fill="none" stroke="#63b8ff" d="M518.48,-55.84C555.77,-45.97 614.82,-30.34 652.44,-20.38"/>
<polygon fill="#63b8ff" stroke="#63b8ff" points="653.14,-23.82 661.91,-17.87 651.35,-17.05 653.14,-23.82"/>
</a>
</g>
</g>
<!-- Node12&#45;&gt;Node3 -->
<g id="edge19_Node000012_Node000003" class="edge">
<title>Node12&#45;&gt;Node3</title>
<g id="a_edge19_Node000012_Node000003"><a xlink:title=" ">
<path fill="none" stroke="#63b8ff" d="M1023.8,-111.87C1025.5,-98.58 1030.12,-73.59 1041.88,-56 1049.62,-44.41 1061.28,-34.36 1071.96,-26.72"/>
<polygon fill="#63b8ff" stroke="#63b8ff" points="1073.75,-29.73 1080.09,-21.24 1069.84,-23.92 1073.75,-29.73"/>
</a>
</g>
</g>
<!-- Node12&#45;&gt;Node6 -->
<g id="edge18_Node000012_Node000006" class="edge">
<title>Node12&#45;&gt;Node6</title>
<g id="a_edge18_Node000012_Node000006"><a xlink:title=" ">
<path fill="none" stroke="#63b8ff" d="M978.01,-113.44C936.26,-106.02 872.16,-93.65 808.69,-76.52"/>
<polygon fill="#63b8ff" stroke="#63b8ff" points="809.71,-73.17 799.14,-73.9 807.86,-79.92 809.71,-73.17"/>
</a>
</g>
</g>
<!-- Node13 -->
<g id="Node000013" class="node">
<title>Node13</title>
<g id="a_Node000013"><a xlink:href="_i_n_a3221_8h.html" target="_top" xlink:title=" ">
<polygon fill="white" stroke="#666666" points="918.75,-76 815,-76 815,-56 918.75,-56 918.75,-76"/>
<text text-anchor="middle" x="866.88" y="-62.5" font-family="Helvetica,sans-Serif" font-size="10.00">INA3221/INA3221.h</text>
</a>
</g>
</g>
<!-- Node12&#45;&gt;Node13 -->
<g id="edge14_Node000012_Node000013" class="edge">
<title>Node12&#45;&gt;Node13</title>
<g id="a_edge14_Node000012_Node000013"><a xlink:title=" ">
<path fill="none" stroke="#63b8ff" d="M995.7,-111.59C970.58,-102.9 932.99,-89.89 904.9,-80.16"/>
<polygon fill="#63b8ff" stroke="#63b8ff" points="906.29,-76.94 895.69,-76.97 904,-83.55 906.29,-76.94"/>
</a>
</g>
</g>
<!-- Node15 -->
<g id="Node000015" class="node">
<title>Node15</title>
<g id="a_Node000015"><a xlink:title=" ">
<polygon fill="#e0e0e0" stroke="#999999" points="1007.75,-20 928,-20 928,0 1007.75,0 1007.75,-20"/>
<text text-anchor="middle" x="967.88" y="-6.5" font-family="Helvetica,sans-Serif" font-size="10.00">hardware/i2c.h</text>
</a>
</g>
</g>
<!-- Node12&#45;&gt;Node15 -->
<g id="edge20_Node000012_Node000015" class="edge">
<title>Node12&#45;&gt;Node15</title>
<g id="a_edge20_Node000012_Node000015"><a xlink:title=" ">
<path fill="none" stroke="#63b8ff" d="M1018.19,-111.62C1009.22,-93.68 989.46,-54.17 977.55,-30.35"/>
<polygon fill="#63b8ff" stroke="#63b8ff" points="980.83,-29.09 973.23,-21.71 974.57,-32.22 980.83,-29.09"/>
</a>
</g>
</g>
<!-- Node16 -->
<g id="Node000016" class="node">
<title>Node16</title>
<g id="a_Node000016"><a xlink:title=" ">
<polygon fill="#e0e0e0" stroke="#999999" points="744.12,-76 675.62,-76 675.62,-56 744.12,-56 744.12,-76"/>
<text text-anchor="middle" x="709.88" y="-62.5" font-family="Helvetica,sans-Serif" font-size="10.00">pico/stdlib.h</text>
</a>
</g>
</g>
<!-- Node12&#45;&gt;Node16 -->
<g id="edge21_Node000012_Node000016" class="edge">
<title>Node12&#45;&gt;Node16</title>
<g id="a_edge21_Node000012_Node000016"><a xlink:title=" ">
<path fill="none" stroke="#63b8ff" d="M977.78,-113.48C912.01,-102.5 794.11,-82.82 755.67,-76.18"/>
<polygon fill="#63b8ff" stroke="#63b8ff" points="756.39,-72.75 745.93,-74.46 755.17,-79.64 756.39,-72.75"/>
</a>
</g>
</g>
<!-- Node17 -->
<g id="Node000017" class="node">
<title>Node17</title>
<g id="a_Node000017"><a xlink:title=" ">
<polygon fill="#e0e0e0" stroke="#999999" points="1123,-76 1050.75,-76 1050.75,-56 1123,-56 1123,-76"/>
<text text-anchor="middle" x="1086.88" y="-62.5" font-family="Helvetica,sans-Serif" font-size="10.00">pico/mutex.h</text>
</a>
</g>
</g>
<!-- Node12&#45;&gt;Node17 -->
<g id="edge22_Node000012_Node000017" class="edge">
<title>Node12&#45;&gt;Node17</title>
<g id="a_edge22_Node000012_Node000017"><a xlink:title=" ">
<path fill="none" stroke="#63b8ff" d="M1034.02,-111.59C1043.2,-103.85 1056.43,-92.69 1067.36,-83.47"/>
<polygon fill="#63b8ff" stroke="#63b8ff" points="1069.31,-86.4 1074.7,-77.27 1064.8,-81.05 1069.31,-86.4"/>
</a>
</g>
</g>
<!-- Node13&#45;&gt;Node11 -->
<g id="edge15_Node000013_Node000011" class="edge">
<title>Node13&#45;&gt;Node11</title>
<g id="a_edge15_Node000013_Node000011"><a xlink:title=" ">
<path fill="none" stroke="#63b8ff" d="M835.7,-55.59C804.34,-46.13 756.05,-31.57 723.27,-21.68"/>
<polygon fill="#63b8ff" stroke="#63b8ff" points="724.41,-18.37 713.83,-18.83 722.39,-25.07 724.41,-18.37"/>
</a>
</g>
</g>
<!-- Node14 -->
<g id="Node000014" class="node">
<title>Node14</title>
<g id="a_Node000014"><a xlink:title=" ">
<polygon fill="#e0e0e0" stroke="#999999" points="893.62,-20 840.12,-20 840.12,0 893.62,0 893.62,-20"/>
<text text-anchor="middle" x="866.88" y="-6.5" font-family="Helvetica,sans-Serif" font-size="10.00">iostream</text>
</a>
</g>
</g>
<!-- Node13&#45;&gt;Node14 -->
<g id="edge16_Node000013_Node000014" class="edge">
<title>Node13&#45;&gt;Node14</title>
<g id="a_edge16_Node000013_Node000014"><a xlink:title=" ">
<path fill="none" stroke="#63b8ff" d="M866.88,-55.59C866.88,-49.01 866.88,-39.96 866.88,-31.73"/>
<polygon fill="#63b8ff" stroke="#63b8ff" points="870.38,-31.81 866.88,-21.81 863.38,-31.81 870.38,-31.81"/>
</a>
</g>
</g>
<!-- Node13&#45;&gt;Node15 -->
<g id="edge17_Node000013_Node000015" class="edge">
<title>Node13&#45;&gt;Node15</title>
<g id="a_edge17_Node000013_Node000015"><a xlink:title=" ">
<path fill="none" stroke="#63b8ff" d="M884.47,-55.59C899.8,-47.4 922.29,-35.37 940.06,-25.87"/>
<polygon fill="#63b8ff" stroke="#63b8ff" points="941.64,-28.99 948.81,-21.19 938.34,-22.82 941.64,-28.99"/>
</a>
</g>
</g>
<!-- Node21&#45;&gt;Node3 -->
<g id="edge28_Node000021_Node000003" class="edge">
<title>Node21&#45;&gt;Node3</title>
<g id="a_edge28_Node000021_Node000003"><a xlink:title=" ">
<path fill="none" stroke="#63b8ff" d="M676.18,-118.06C731.73,-110.29 880,-88.96 927.88,-76 977.75,-62.5 1033.27,-39.73 1066.87,-25.04"/>
<polygon fill="#63b8ff" stroke="#63b8ff" points="1068.27,-28.24 1076,-21 1065.44,-21.84 1068.27,-28.24"/>
</a>
</g>
</g>
<!-- Node21&#45;&gt;Node10 -->
<g id="edge31_Node000021_Node000010" class="edge">
<title>Node21&#45;&gt;Node10</title>
<g id="a_edge31_Node000021_Node000010"><a xlink:title=" ">
<path fill="none" stroke="#63b8ff" d="M633.56,-114.27C606.34,-105.67 558.65,-90.61 524.41,-79.8"/>
<polygon fill="#63b8ff" stroke="#63b8ff" points="525.84,-76.58 515.25,-76.91 523.73,-83.26 525.84,-76.58"/>
</a>
</g>
</g>
<!-- Node21&#45;&gt;Node16 -->
<g id="edge29_Node000021_Node000016" class="edge">
<title>Node21&#45;&gt;Node16</title>
<g id="a_edge29_Node000021_Node000016"><a xlink:title=" ">
<path fill="none" stroke="#63b8ff" d="M664.46,-111.59C672.11,-104.08 683.03,-93.35 692.25,-84.3"/>
<polygon fill="#63b8ff" stroke="#63b8ff" points="694.64,-86.86 699.32,-77.36 689.74,-81.87 694.64,-86.86"/>
</a>
</g>
</g>
<!-- Node22 -->
<g id="Node000022" class="node">
<title>Node22</title>
<g id="a_Node000022"><a xlink:title=" ">
<polygon fill="#e0e0e0" stroke="#999999" points="535.5,-20 490.25,-20 490.25,0 535.5,0 535.5,-20"/>
<text text-anchor="middle" x="512.88" y="-6.5" font-family="Helvetica,sans-Serif" font-size="10.00">stdio.h</text>
</a>
</g>
</g>
<!-- Node21&#45;&gt;Node22 -->
<g id="edge27_Node000021_Node000022" class="edge">
<title>Node21&#45;&gt;Node22</title>
<g id="a_edge27_Node000021_Node000022"><a xlink:title=" ">
<path fill="none" stroke="#63b8ff" d="M633.36,-113.32C614.12,-105.76 585.8,-92.91 564.88,-76 548.75,-62.97 534.37,-44.13 524.84,-30.09"/>
<polygon fill="#63b8ff" stroke="#63b8ff" points="527.78,-28.19 519.38,-21.73 521.92,-32.01 527.78,-28.19"/>
</a>
</g>
</g>
<!-- Node23 -->
<g id="Node000023" class="node">
<title>Node23</title>
<g id="a_Node000023"><a xlink:title=" ">
<polygon fill="#e0e0e0" stroke="#999999" points="657.62,-76 574.12,-76 574.12,-56 657.62,-56 657.62,-76"/>
<text text-anchor="middle" x="615.88" y="-62.5" font-family="Helvetica,sans-Serif" font-size="10.00">hardware/uart.h</text>
</a>
</g>
</g>
<!-- Node21&#45;&gt;Node23 -->
<g id="edge30_Node000021_Node000023" class="edge">
<title>Node21&#45;&gt;Node23</title>
<g id="a_edge30_Node000021_Node000023"><a xlink:title=" ">
<path fill="none" stroke="#63b8ff" d="M648.08,-111.59C642.88,-104.39 635.54,-94.23 629.19,-85.43"/>
<polygon fill="#63b8ff" stroke="#63b8ff" points="632.17,-83.58 623.48,-77.53 626.49,-87.68 632.17,-83.58"/>
</a>
</g>
</g>
<!-- Node26&#45;&gt;Node10 -->
<g id="edge44_Node000026_Node000010" class="edge">
<title>Node26&#45;&gt;Node10</title>
<g id="a_edge44_Node000026_Node000010"><a xlink:title=" ">
<path fill="none" stroke="#63b8ff" d="M263.08,-111.57C306.03,-102.97 371.48,-89.85 438.15,-76.34"/>
<polygon fill="#63b8ff" stroke="#63b8ff" points="438.7,-79.8 447.81,-74.39 437.31,-72.94 438.7,-79.8"/>
</a>
</g>
</g>
<!-- Node26&#45;&gt;Node16 -->
<g id="edge35_Node000026_Node000016" class="edge">
<title>Node26&#45;&gt;Node16</title>
<g id="a_edge35_Node000026_Node000016"><a xlink:title=" ">
<path fill="none" stroke="#63b8ff" d="M272.23,-113.04C275.15,-112.68 278.05,-112.33 280.88,-112 448.35,-92.61 494.53,-101.3 663.87,-76.3"/>
<polygon fill="#63b8ff" stroke="#63b8ff" points="664.33,-79.77 673.71,-74.83 663.3,-72.85 664.33,-79.77"/>
</a>
</g>
</g>
<!-- Node27 -->
<g id="Node000027" class="node">
<title>Node27</title>
<g id="a_Node000027"><a xlink:title=" ">
<polygon fill="#e0e0e0" stroke="#999999" points="359.12,-76 266.62,-76 266.62,-56 359.12,-56 359.12,-76"/>
<text text-anchor="middle" x="312.88" y="-62.5" font-family="Helvetica,sans-Serif" font-size="10.00">pico/binary_info.h</text>
</a>
</g>
</g>
<!-- Node26&#45;&gt;Node27 -->
<g id="edge36_Node000026_Node000027" class="edge">
<title>Node26&#45;&gt;Node27</title>
<g id="a_edge36_Node000026_Node000027"><a xlink:title=" ">
<path fill="none" stroke="#63b8ff" d="M232.77,-111.59C247.42,-103.44 268.9,-91.48 285.92,-82"/>
<polygon fill="#63b8ff" stroke="#63b8ff" points="287.49,-85.14 294.52,-77.22 284.08,-79.02 287.49,-85.14"/>
</a>
</g>
</g>
<!-- Node28 -->
<g id="Node000028" class="node">
<title>Node28</title>
<g id="a_Node000028"><a xlink:title=" ">
<polygon fill="#e0e0e0" stroke="#999999" points="182.38,-76 97.38,-76 97.38,-56 182.38,-56 182.38,-76"/>
<text text-anchor="middle" x="139.88" y="-62.5" font-family="Helvetica,sans-Serif" font-size="10.00">hardware/gpio.h</text>
</a>
</g>
</g>
<!-- Node26&#45;&gt;Node28 -->
<g id="edge37_Node000026_Node000028" class="edge">
<title>Node26&#45;&gt;Node28</title>
<g id="a_edge37_Node000026_Node000028"><a xlink:title=" ">
<path fill="none" stroke="#63b8ff" d="M202.64,-111.59C191.59,-103.74 175.59,-92.38 162.52,-83.09"/>
<polygon fill="#63b8ff" stroke="#63b8ff" points="164.63,-80.3 154.45,-77.36 160.57,-86 164.63,-80.3"/>
</a>
</g>
</g>
<!-- Node29 -->
<g id="Node000029" class="node">
<title>Node29</title>
<g id="a_Node000029"><a xlink:title=" ">
<polygon fill="#e0e0e0" stroke="#999999" points="79.75,-76 0,-76 0,-56 79.75,-56 79.75,-76"/>
<text text-anchor="middle" x="39.88" y="-62.5" font-family="Helvetica,sans-Serif" font-size="10.00">hardware/spi.h</text>
</a>
</g>
</g>
<!-- Node26&#45;&gt;Node29 -->
<g id="edge38_Node000026_Node000029" class="edge">
<title>Node26&#45;&gt;Node29</title>
<g id="a_edge38_Node000026_Node000029"><a xlink:title=" ">
<path fill="none" stroke="#63b8ff" d="M185.22,-111.59C156.5,-102.78 113.34,-89.54 81.51,-79.78"/>
<polygon fill="#63b8ff" stroke="#63b8ff" points="82.8,-76.51 72.22,-76.92 80.75,-83.2 82.8,-76.51"/>
</a>
</g>
</g>
<!-- Node30 -->
<g id="Node000030" class="node">
<title>Node30</title>
<g id="a_Node000030"><a xlink:title=" ">
<polygon fill="#e0e0e0" stroke="#999999" points="249,-76 200.75,-76 200.75,-56 249,-56 249,-76"/>
<text text-anchor="middle" x="224.88" y="-62.5" font-family="Helvetica,sans-Serif" font-size="10.00">string.h</text>
</a>
</g>
</g>
<!-- Node26&#45;&gt;Node30 -->
<g id="edge39_Node000026_Node000030" class="edge">
<title>Node26&#45;&gt;Node30</title>
<g id="a_edge39_Node000026_Node000030"><a xlink:title=" ">
<path fill="none" stroke="#63b8ff" d="M217.44,-111.59C218.55,-104.93 220.08,-95.75 221.47,-87.44"/>
<polygon fill="#63b8ff" stroke="#63b8ff" points="224.88,-88.23 223.08,-77.79 217.98,-87.08 224.88,-88.23"/>
</a>
</g>
</g>
<!-- Node31 -->
<g id="Node000031" class="node">
<title>Node31</title>
<g id="a_Node000031"><a xlink:href="_print_8h.html" target="_top" xlink:title=" ">
<polygon fill="white" stroke="#666666" points="431.12,-76 386.62,-76 386.62,-56 431.12,-56 431.12,-76"/>
<text text-anchor="middle" x="408.88" y="-62.5" font-family="Helvetica,sans-Serif" font-size="10.00">Print.h</text>
</a>
</g>
</g>
<!-- Node26&#45;&gt;Node31 -->
<g id="edge40_Node000026_Node000031" class="edge">
<title>Node26&#45;&gt;Node31</title>
<g id="a_edge40_Node000026_Node000031"><a xlink:title=" ">
<path fill="none" stroke="#63b8ff" d="M249.49,-111.59C284.87,-101.7 340.21,-86.21 375.5,-76.34"/>
<polygon fill="#63b8ff" stroke="#63b8ff" points="376.05,-79.82 384.74,-73.75 374.17,-73.08 376.05,-79.82"/>
</a>
</g>
</g>
<!-- Node31&#45;&gt;Node3 -->
<g id="edge43_Node000031_Node000003" class="edge">
<title>Node31&#45;&gt;Node3</title>
<g id="a_edge43_Node000031_Node000003"><a xlink:title=" ">
<path fill="none" stroke="#63b8ff" d="M431.47,-58.01C434.6,-57.22 437.8,-56.52 440.88,-56 693.75,-13.04 761.34,-42.17 1016.88,-20 1033.23,-18.58 1051.39,-16.6 1066.36,-14.86"/>
<polygon fill="#63b8ff" stroke="#63b8ff" points="1066.57,-18.36 1076.09,-13.71 1065.75,-11.41 1066.57,-18.36"/>
</a>
</g>
</g>
<!-- Node31&#45;&gt;Node22 -->
<g id="edge42_Node000031_Node000022" class="edge">
<title>Node31&#45;&gt;Node22</title>
<g id="a_edge42_Node000031_Node000022"><a xlink:title=" ">
<path fill="none" stroke="#63b8ff" d="M426.99,-55.59C442.85,-47.36 466.16,-35.26 484.49,-25.74"/>
<polygon fill="#63b8ff" stroke="#63b8ff" points="486.01,-28.89 493.27,-21.18 482.79,-22.68 486.01,-28.89"/>
</a>
</g>
</g>
<!-- Node32 -->
<g id="Node000032" class="node">
<title>Node32</title>
<g id="a_Node000032"><a xlink:title=" ">
<polygon fill="#e0e0e0" stroke="#999999" points="438.25,-20 379.5,-20 379.5,0 438.25,0 438.25,-20"/>
<text text-anchor="middle" x="408.88" y="-6.5" font-family="Helvetica,sans-Serif" font-size="10.00">inttypes.h</text>
</a>
</g>
</g>
<!-- Node31&#45;&gt;Node32 -->
<g id="edge41_Node000031_Node000032" class="edge">
<title>Node31&#45;&gt;Node32</title>
<g id="a_edge41_Node000031_Node000032"><a xlink:title=" ">
<path fill="none" stroke="#63b8ff" d="M408.88,-55.59C408.88,-49.01 408.88,-39.96 408.88,-31.73"/>
<polygon fill="#63b8ff" stroke="#63b8ff" points="412.38,-31.81 408.88,-21.81 405.38,-31.81 412.38,-31.81"/>
</a>
</g>
</g>
<!-- Node33&#45;&gt;Node3 -->
<g id="edge48_Node000033_Node000003" class="edge">
<title>Node33&#45;&gt;Node3</title>
<g id="a_edge48_Node000033_Node000003"><a xlink:title=" ">
<path fill="none" stroke="#63b8ff" d="M1162.17,-167.69C1173.57,-159.79 1188.25,-147.3 1194.88,-132 1198.41,-123.84 1197.04,-120.62 1194.88,-112 1188,-84.61 1183.82,-76.93 1164.88,-56 1154.04,-44.03 1139.39,-33.72 1126.55,-26"/>
<polygon fill="#63b8ff" stroke="#63b8ff" points="1128.48,-23.07 1118.06,-21.14 1125,-29.15 1128.48,-23.07"/>
</a>
</g>
</g>
<!-- Node33&#45;&gt;Node8 -->
<g id="edge47_Node000033_Node000008" class="edge">
<title>Node33&#45;&gt;Node8</title>
<g id="a_edge47_Node000033_Node000008"><a xlink:title=" ">
<path fill="none" stroke="#63b8ff" d="M1146.88,-167.59C1146.88,-161.01 1146.88,-151.96 1146.88,-143.73"/>
<polygon fill="#63b8ff" stroke="#63b8ff" points="1150.38,-143.81 1146.88,-133.81 1143.38,-143.81 1150.38,-143.81"/>
</a>
</g>
</g>
<!-- Node33&#45;&gt;Node12 -->
<g id="edge46_Node000033_Node000012" class="edge">
<title>Node33&#45;&gt;Node12</title>
<g id="a_edge46_Node000033_Node000012"><a xlink:title=" ">
<path fill="none" stroke="#63b8ff" d="M1125.28,-167.59C1105.92,-159.17 1077.27,-146.69 1055.19,-137.07"/>
<polygon fill="#63b8ff" stroke="#63b8ff" points="1056.6,-133.87 1046.03,-133.08 1053.8,-140.29 1056.6,-133.87"/>
</a>
</g>
</g>
<!-- Node33&#45;&gt;Node17 -->
<g id="edge49_Node000033_Node000017" class="edge">
<title>Node33&#45;&gt;Node17</title>
<g id="a_edge49_Node000033_Node000017"><a xlink:title=" ">
<path fill="none" stroke="#63b8ff" d="M1157.28,-167.86C1170.63,-155 1190.73,-130.99 1178.88,-112 1168.82,-95.89 1151.13,-85.38 1133.94,-78.62"/>
<polygon fill="#63b8ff" stroke="#63b8ff" points="1135.39,-75.42 1124.8,-75.38 1133.05,-82.02 1135.39,-75.42"/>
</a>
</g>
</g>
</g>
</svg>
