<?xml version="1.0" encoding="UTF-8" standalone="no"?>
<!DOCTYPE svg PUBLIC "-//W3C//DTD SVG 1.1//EN"
 "http://www.w3.org/Graphics/SVG/1.1/DTD/svg11.dtd">
<!-- Generated by graphviz version 12.2.1 (20241206.2353)
 -->
<!-- Title: lib/eventman/event_manager.h Pages: 1 -->
<svg width="517pt" height="208pt"
 viewBox="0.00 0.00 517.25 208.00" xmlns="http://www.w3.org/2000/svg" xmlns:xlink="http://www.w3.org/1999/xlink">
<g id="graph0" class="graph" transform="scale(1 1) rotate(0) translate(4 204)">
<title>lib/eventman/event_manager.h</title>
<!-- Node1 -->
<g id="Node000001" class="node">
<title>Node1</title>
<g id="a_Node000001"><a xlink:title=" ">
<polygon fill="#999999" stroke="#666666" points="419.38,-200 320.88,-200 320.88,-168 419.38,-168 419.38,-200"/>
<text text-anchor="start" x="328.88" y="-186.5" font-family="Helvetica,sans-Serif" font-size="10.00">lib/eventman/event</text>
<text text-anchor="middle" x="370.12" y="-174.5" font-family="Helvetica,sans-Serif" font-size="10.00">_manager.h</text>
</a>
</g>
</g>
<!-- Node2 -->
<g id="Node000002" class="node">
<title>Node2</title>
<g id="a_Node000002"><a xlink:href="_power_manager_8h.html" target="_top" xlink:title=" ">
<polygon fill="white" stroke="#666666" points="299.88,-132 210.38,-132 210.38,-112 299.88,-112 299.88,-132"/>
<text text-anchor="middle" x="255.12" y="-118.5" font-family="Helvetica,sans-Serif" font-size="10.00">PowerManager.h</text>
</a>
</g>
</g>
<!-- Node1&#45;&gt;Node2 -->
<g id="edge1_Node000001_Node000002" class="edge">
<title>Node1&#45;&gt;Node2</title>
<g id="a_edge1_Node000001_Node000002"><a xlink:title=" ">
<path fill="none" stroke="#63b8ff" d="M340.51,-167.55C322.87,-158.35 300.62,-146.74 283.25,-137.68"/>
<polygon fill="#63b8ff" stroke="#63b8ff" points="284.98,-134.63 274.5,-133.11 281.75,-140.84 284.98,-134.63"/>
</a>
</g>
</g>
<!-- Node8 -->
<g id="Node000008" class="node">
<title>Node8</title>
<g id="a_Node000008"><a xlink:title=" ">
<polygon fill="#e0e0e0" stroke="#999999" points="383.12,-76 343.12,-76 343.12,-56 383.12,-56 383.12,-76"/>
<text text-anchor="middle" x="363.12" y="-62.5" font-family="Helvetica,sans-Serif" font-size="10.00">string</text>
</a>
</g>
</g>
<!-- Node1&#45;&gt;Node8 -->
<g id="edge11_Node000001_Node000008" class="edge">
<title>Node1&#45;&gt;Node8</title>
<g id="a_edge11_Node000001_Node000008"><a xlink:title=" ">
<path fill="none" stroke="#63b8ff" d="M367.93,-167.86C366.57,-157.74 364.93,-144.1 364.12,-132 363.14,-117.14 362.9,-100.32 362.91,-87.51"/>
<polygon fill="#63b8ff" stroke="#63b8ff" points="366.41,-87.8 362.96,-77.78 359.41,-87.76 366.41,-87.8"/>
</a>
</g>
</g>
<!-- Node10 -->
<g id="Node000010" class="node">
<title>Node10</title>
<g id="a_Node000010"><a xlink:title=" ">
<polygon fill="#e0e0e0" stroke="#999999" points="418.75,-132 373.5,-132 373.5,-112 418.75,-112 418.75,-132"/>
<text text-anchor="middle" x="396.12" y="-118.5" font-family="Helvetica,sans-Serif" font-size="10.00">cstdint</text>
</a>
</g>
</g>
<!-- Node1&#45;&gt;Node10 -->
<g id="edge10_Node000001_Node000010" class="edge">
<title>Node1&#45;&gt;Node10</title>
<g id="a_edge10_Node000001_Node000010"><a xlink:title=" ">
<path fill="none" stroke="#63b8ff" d="M376.82,-167.55C380.09,-160 384.07,-150.82 387.56,-142.77"/>
<polygon fill="#63b8ff" stroke="#63b8ff" points="390.68,-144.36 391.45,-133.8 384.26,-141.58 390.68,-144.36"/>
</a>
</g>
</g>
<!-- Node11 -->
<g id="Node000011" class="node">
<title>Node11</title>
<g id="a_Node000011"><a xlink:title=" ">
<polygon fill="#e0e0e0" stroke="#999999" points="509.25,-132 437,-132 437,-112 509.25,-112 509.25,-132"/>
<text text-anchor="middle" x="473.12" y="-118.5" font-family="Helvetica,sans-Serif" font-size="10.00">pico/mutex.h</text>
</a>
</g>
</g>
<!-- Node1&#45;&gt;Node11 -->
<g id="edge12_Node000001_Node000011" class="edge">
<title>Node1&#45;&gt;Node11</title>
<g id="a_edge12_Node000001_Node000011"><a xlink:title=" ">
<path fill="none" stroke="#63b8ff" d="M396.65,-167.55C412.15,-158.52 431.63,-147.17 447.05,-138.19"/>
<polygon fill="#63b8ff" stroke="#63b8ff" points="448.79,-141.23 455.67,-133.17 445.26,-135.18 448.79,-141.23"/>
</a>
</g>
</g>
<!-- Node3 -->
<g id="Node000003" class="node">
<title>Node3</title>
<g id="a_Node000003"><a xlink:href="_i_n_a3221_8h.html" target="_top" xlink:title=" ">
<polygon fill="white" stroke="#666666" points="147,-76 43.25,-76 43.25,-56 147,-56 147,-76"/>
<text text-anchor="middle" x="95.12" y="-62.5" font-family="Helvetica,sans-Serif" font-size="10.00">INA3221/INA3221.h</text>
</a>
</g>
</g>
<!-- Node2&#45;&gt;Node3 -->
<g id="edge2_Node000002_Node000003" class="edge">
<title>Node2&#45;&gt;Node3</title>
<g id="a_edge2_Node000002_Node000003"><a xlink:title=" ">
<path fill="none" stroke="#63b8ff" d="M227.26,-111.59C201.37,-102.86 162.6,-89.77 133.74,-80.03"/>
<polygon fill="#63b8ff" stroke="#63b8ff" points="135.24,-76.85 124.65,-76.96 133,-83.48 135.24,-76.85"/>
</a>
</g>
</g>
<!-- Node6 -->
<g id="Node000006" class="node">
<title>Node6</title>
<g id="a_Node000006"><a xlink:title=" ">
<polygon fill="#e0e0e0" stroke="#999999" points="218,-20 138.25,-20 138.25,0 218,0 218,-20"/>
<text text-anchor="middle" x="178.12" y="-6.5" font-family="Helvetica,sans-Serif" font-size="10.00">hardware/i2c.h</text>
</a>
</g>
</g>
<!-- Node2&#45;&gt;Node6 -->
<g id="edge8_Node000002_Node000006" class="edge">
<title>Node2&#45;&gt;Node6</title>
<g id="a_edge8_Node000002_Node000006"><a xlink:title=" ">
<path fill="none" stroke="#63b8ff" d="M236.72,-111.63C223.26,-103.86 205.58,-91.56 195.12,-76 186.16,-62.66 181.92,-44.84 179.92,-31.24"/>
<polygon fill="#63b8ff" stroke="#63b8ff" points="183.44,-31.21 178.81,-21.68 176.48,-32.02 183.44,-31.21"/>
</a>
</g>
</g>
<!-- Node7 -->
<g id="Node000007" class="node">
<title>Node7</title>
<g id="a_Node000007"><a xlink:title=" ">
<polygon fill="#e0e0e0" stroke="#999999" points="238.5,-76 203.75,-76 203.75,-56 238.5,-56 238.5,-76"/>
<text text-anchor="middle" x="221.12" y="-62.5" font-family="Helvetica,sans-Serif" font-size="10.00">map</text>
</a>
</g>
</g>
<!-- Node2&#45;&gt;Node7 -->
<g id="edge6_Node000002_Node000007" class="edge">
<title>Node2&#45;&gt;Node7</title>
<g id="a_edge6_Node000002_Node000007"><a xlink:title=" ">
<path fill="none" stroke="#63b8ff" d="M249.2,-111.59C244.77,-104.55 238.55,-94.67 233.09,-86"/>
<polygon fill="#63b8ff" stroke="#63b8ff" points="236.08,-84.18 227.79,-77.58 230.15,-87.91 236.08,-84.18"/>
</a>
</g>
</g>
<!-- Node2&#45;&gt;Node8 -->
<g id="edge7_Node000002_Node000008" class="edge">
<title>Node2&#45;&gt;Node8</title>
<g id="a_edge7_Node000002_Node000008"><a xlink:title=" ">
<path fill="none" stroke="#63b8ff" d="M273.94,-111.59C290.48,-103.32 314.84,-91.14 333.92,-81.6"/>
<polygon fill="#63b8ff" stroke="#63b8ff" points="335.43,-84.76 342.81,-77.16 332.3,-78.5 335.43,-84.76"/>
</a>
</g>
</g>
<!-- Node9 -->
<g id="Node000009" class="node">
<title>Node9</title>
<g id="a_Node000009"><a xlink:title=" ">
<polygon fill="#e0e0e0" stroke="#999999" points="325.38,-76 256.88,-76 256.88,-56 325.38,-56 325.38,-76"/>
<text text-anchor="middle" x="291.12" y="-62.5" font-family="Helvetica,sans-Serif" font-size="10.00">pico/stdlib.h</text>
</a>
</g>
</g>
<!-- Node2&#45;&gt;Node9 -->
<g id="edge9_Node000002_Node000009" class="edge">
<title>Node2&#45;&gt;Node9</title>
<g id="a_edge9_Node000002_Node000009"><a xlink:title=" ">
<path fill="none" stroke="#63b8ff" d="M261.4,-111.59C266.14,-104.47 272.82,-94.45 278.65,-85.72"/>
<polygon fill="#63b8ff" stroke="#63b8ff" points="281.45,-87.82 284.09,-77.56 275.63,-83.94 281.45,-87.82"/>
</a>
</g>
</g>
<!-- Node4 -->
<g id="Node000004" class="node">
<title>Node4</title>
<g id="a_Node000004"><a xlink:title=" ">
<polygon fill="#e0e0e0" stroke="#999999" points="48.25,-20 0,-20 0,0 48.25,0 48.25,-20"/>
<text text-anchor="middle" x="24.12" y="-6.5" font-family="Helvetica,sans-Serif" font-size="10.00">stdint.h</text>
</a>
</g>
</g>
<!-- Node3&#45;&gt;Node4 -->
<g id="edge3_Node000003_Node000004" class="edge">
<title>Node3&#45;&gt;Node4</title>
<g id="a_edge3_Node000003_Node000004"><a xlink:title=" ">
<path fill="none" stroke="#63b8ff" d="M82.76,-55.59C72.48,-47.77 57.61,-36.46 45.41,-27.19"/>
<polygon fill="#63b8ff" stroke="#63b8ff" points="47.63,-24.48 37.56,-21.21 43.4,-30.05 47.63,-24.48"/>
</a>
</g>
</g>
<!-- Node5 -->
<g id="Node000005" class="node">
<title>Node5</title>
<g id="a_Node000005"><a xlink:title=" ">
<polygon fill="#e0e0e0" stroke="#999999" points="119.88,-20 66.38,-20 66.38,0 119.88,0 119.88,-20"/>
<text text-anchor="middle" x="93.12" y="-6.5" font-family="Helvetica,sans-Serif" font-size="10.00">iostream</text>
</a>
</g>
</g>
<!-- Node3&#45;&gt;Node5 -->
<g id="edge4_Node000003_Node000005" class="edge">
<title>Node3&#45;&gt;Node5</title>
<g id="a_edge4_Node000003_Node000005"><a xlink:title=" ">
<path fill="none" stroke="#63b8ff" d="M94.78,-55.59C94.53,-49.01 94.2,-39.96 93.89,-31.73"/>
<polygon fill="#63b8ff" stroke="#63b8ff" points="97.39,-31.67 93.53,-21.81 90.4,-31.93 97.39,-31.67"/>
</a>
</g>
</g>
<!-- Node3&#45;&gt;Node6 -->
<g id="edge5_Node000003_Node000006" class="edge">
<title>Node3&#45;&gt;Node6</title>
<g id="a_edge5_Node000003_Node000006"><a xlink:title=" ">
<path fill="none" stroke="#63b8ff" d="M109.58,-55.59C121.88,-47.59 139.8,-35.93 154.23,-26.54"/>
<polygon fill="#63b8ff" stroke="#63b8ff" points="155.81,-29.69 162.29,-21.3 152,-23.82 155.81,-29.69"/>
</a>
</g>
</g>
</g>
</svg>
