<?xml version="1.0" encoding="UTF-8" standalone="no"?>
<!DOCTYPE svg PUBLIC "-//W3C//DTD SVG 1.1//EN"
 "http://www.w3.org/Graphics/SVG/1.1/DTD/svg11.dtd">
<!-- Generated by graphviz version 12.2.1 (20241206.2353)
 -->
<!-- Title: lib/eventman/event_manager.cpp Pages: 1 -->
<!--zoomable 320 -->

<svg id="main" version="1.1" xmlns="http://www.w3.org/2000/svg" xmlns:xlink="http://www.w3.org/1999/xlink" xml:space="preserve" onload="init(evt)">

<style type="text/css"><![CDATA[
.node, .edge {opacity: 0.7;}
.node.selected, .edge.selected {opacity: 1;}
.edge:hover path { stroke: red; }
.edge:hover polygon { stroke: red; fill: red; }
]]></style>

<defs>
  <circle id="rim" cx="0" cy="0" r="7"/>
  <circle id="rim2" cx="0" cy="0" r="3.5"/>
  <g id="zoomPlus">
    <use xlink:href="#rim" fill="#404040"><set attributeName="fill" to="#808080" begin="zoomplus.mouseover" end="zoomplus.mouseout"/></use>
    <path d="M-4,0h8M0,-4v8" fill="none" stroke="white" stroke-width="1.5" pointer-events="none"/>
  </g>
  <g id="zoomMin">
    <use xlink:href="#rim" fill="#404040"><set attributeName="fill" to="#808080" begin="zoomminus.mouseover" end="zoomminus.mouseout"/></use>
    <path d="M-4,0h8" fill="none" stroke="white" stroke-width="1.5" pointer-events="none"/>
  </g>
  <g id="arrowUp" transform="translate(30 24)">
    <use xlink:href="#rim"/>
    <path pointer-events="none" fill="none" stroke="white" stroke-width="1.5" d="M0,-3.0v7 M-2.5,-0.5L0,-3.0L2.5,-0.5"/>
  </g>
  <g id="arrowRight" transform="rotate(90) translate(36 -43)">
    <use xlink:href="#rim"/>
    <path pointer-events="none" fill="none" stroke="white" stroke-width="1.5" d="M0,-3.0v7 M-2.5,-0.5L0,-3.0L2.5,-0.5"/>
  </g>
  <g id="arrowDown" transform="rotate(180) translate(-30 -48)">
    <use xlink:href="#rim"/>
    <path pointer-events="none" fill="none" stroke="white" stroke-width="1.5" d="M0,-3.0v7 M-2.5,-0.5L0,-3.0L2.5,-0.5"/>
  </g>
  <g id="arrowLeft" transform="rotate(270) translate(-36 17)">
    <use xlink:href="#rim"/>
    <path pointer-events="none" fill="none" stroke="white" stroke-width="1.5" d="M0,-3.0v7 M-2.5,-0.5L0,-3.0L2.5,-0.5"/>
  </g>
  <g id="resetDef">
    <use xlink:href="#rim2" fill="#404040"><set attributeName="fill" to="#808080" begin="reset.mouseover" end="reset.mouseout"/></use>
  </g>
</defs>
<script type="application/ecmascript">
var viewWidth = 1426;
var viewHeight = 320;
var sectionId = 'dynsection-0';
</script>
<script type="application/ecmascript" xlink:href="svg.min.js"/>
<svg id="graph" class="graph">
<g id="viewport">
<title>lib/eventman/event_manager.cpp</title>
<!-- Node1 -->
<g id="Node000001" class="node">
<title>Node1</title>
<g id="a_Node000001"><a xlink:title="Implements the event management system for the Kubisat firmware.">
<polygon fill="#999999" stroke="#666666" points="851.38,-312 752.88,-312 752.88,-280 851.38,-280 851.38,-312"/>
<text text-anchor="start" x="760.88" y="-298.5" font-family="Helvetica,sans-Serif" font-size="10.00">lib/eventman/event</text>
<text text-anchor="middle" x="802.12" y="-286.5" font-family="Helvetica,sans-Serif" font-size="10.00">_manager.cpp</text>
</a>
</g>
</g>
<!-- Node2 -->
<g id="Node000002" class="node">
<title>Node2</title>
<g id="a_Node000002"><a xlink:href="event__manager_8h.html" target="_top" xlink:title=" ">
<polygon fill="white" stroke="#666666" points="359.62,-188 268.62,-188 268.62,-168 359.62,-168 359.62,-188"/>
<text text-anchor="middle" x="314.12" y="-174.5" font-family="Helvetica,sans-Serif" font-size="10.00">event_manager.h</text>
</a>
</g>
</g>
<!-- Node1&#45;&gt;Node2 -->
<g id="edge1_Node000001_Node000002" class="edge">
<title>Node1&#45;&gt;Node2</title>
<g id="a_edge1_Node000001_Node000002"><a xlink:title=" ">
<path fill="none" stroke="#63b8ff" d="M752.55,-292.75C682.94,-288.49 552.9,-276.56 447.12,-244 407.62,-231.84 365.25,-209.3 339.22,-194.23"/>
<polygon fill="#63b8ff" stroke="#63b8ff" points="341.13,-191.29 330.74,-189.23 337.58,-197.32 341.13,-191.29"/>
</a>
</g>
</g>
<!-- Node13 -->
<g id="Node000013" class="node">
<title>Node13</title>
<g id="a_Node000013"><a xlink:title=" ">
<polygon fill="#e0e0e0" stroke="#999999" points="1257.25,-132 1215,-132 1215,-112 1257.25,-112 1257.25,-132"/>
<text text-anchor="middle" x="1236.12" y="-118.5" font-family="Helvetica,sans-Serif" font-size="10.00">cstdio</text>
</a>
</g>
</g>
<!-- Node1&#45;&gt;Node13 -->
<g id="edge15_Node000001_Node000013" class="edge">
<title>Node1&#45;&gt;Node13</title>
<g id="a_edge15_Node000001_Node000013"><a xlink:title=" ">
<path fill="none" stroke="#63b8ff" d="M807.5,-279.61C818.55,-248.91 844.43,-181.79 864.12,-168 924.1,-126.01 1114.28,-145.24 1203.49,-131.92"/>
<polygon fill="#63b8ff" stroke="#63b8ff" points="1203.88,-135.41 1213.13,-130.24 1202.67,-128.51 1203.88,-135.41"/>
</a>
</g>
</g>
<!-- Node14 -->
<g id="Node000014" class="node">
<title>Node14</title>
<g id="a_Node000014"><a xlink:href="protocol_8h.html" target="_top" xlink:title=" ">
<polygon fill="white" stroke="#666666" points="774.5,-188 715.75,-188 715.75,-168 774.5,-168 774.5,-188"/>
<text text-anchor="middle" x="745.12" y="-174.5" font-family="Helvetica,sans-Serif" font-size="10.00">protocol.h</text>
</a>
</g>
</g>
<!-- Node1&#45;&gt;Node14 -->
<g id="edge16_Node000001_Node000014" class="edge">
<title>Node1&#45;&gt;Node14</title>
<g id="a_edge16_Node000001_Node000014"><a xlink:title=" ">
<path fill="none" stroke="#63b8ff" d="M794.67,-279.84C784.45,-259.03 766.06,-221.61 754.79,-198.67"/>
<polygon fill="#63b8ff" stroke="#63b8ff" points="757.98,-197.23 750.43,-189.8 751.7,-200.31 757.98,-197.23"/>
</a>
</g>
</g>
<!-- Node21 -->
<g id="Node000021" class="node">
<title>Node21</title>
<g id="a_Node000021"><a xlink:href="utils_8h.html" target="_top" xlink:title=" ">
<polygon fill="white" stroke="#666666" points="823.25,-132 781,-132 781,-112 823.25,-112 823.25,-132"/>
<text text-anchor="middle" x="802.12" y="-118.5" font-family="Helvetica,sans-Serif" font-size="10.00">utils.h</text>
</a>
</g>
</g>
<!-- Node1&#45;&gt;Node21 -->
<g id="edge54_Node000001_Node000021" class="edge">
<title>Node1&#45;&gt;Node21</title>
<g id="a_edge54_Node000001_Node000021"><a xlink:title=" ">
<path fill="none" stroke="#63b8ff" d="M802.12,-279.74C802.12,-248.69 802.12,-178.18 802.12,-143.31"/>
<polygon fill="#63b8ff" stroke="#63b8ff" points="805.63,-143.72 802.13,-133.72 798.63,-143.72 805.63,-143.72"/>
</a>
</g>
</g>
<!-- Node33 -->
<g id="Node000033" class="node">
<title>Node33</title>
<g id="a_Node000033"><a xlink:title=" ">
<polygon fill="#e0e0e0" stroke="#999999" points="991.62,-244 906.62,-244 906.62,-224 991.62,-224 991.62,-244"/>
<text text-anchor="middle" x="949.12" y="-230.5" font-family="Helvetica,sans-Serif" font-size="10.00">pico/multicore.h</text>
</a>
</g>
</g>
<!-- Node1&#45;&gt;Node33 -->
<g id="edge48_Node000001_Node000033" class="edge">
<title>Node1&#45;&gt;Node33</title>
<g id="a_edge48_Node000001_Node000033"><a xlink:title=" ">
<path fill="none" stroke="#63b8ff" d="M839.98,-279.55C863.37,-270 893.13,-257.86 915.65,-248.66"/>
<polygon fill="#63b8ff" stroke="#63b8ff" points="916.74,-252 924.67,-244.98 914.09,-245.52 916.74,-252"/>
</a>
</g>
</g>
<!-- Node34 -->
<g id="Node000034" class="node">
<title>Node34</title>
<g id="a_Node000034"><a xlink:href="communication_8h.html" target="_top" xlink:title=" ">
<polygon fill="white" stroke="#666666" points="546.25,-244 456,-244 456,-224 546.25,-224 546.25,-244"/>
<text text-anchor="middle" x="501.12" y="-230.5" font-family="Helvetica,sans-Serif" font-size="10.00">communication.h</text>
</a>
</g>
</g>
<!-- Node1&#45;&gt;Node34 -->
<g id="edge49_Node000001_Node000034" class="edge">
<title>Node1&#45;&gt;Node34</title>
<g id="a_edge49_Node000001_Node000034"><a xlink:title=" ">
<path fill="none" stroke="#63b8ff" d="M752.42,-285.09C698.84,-274.41 613.71,-257.44 557.63,-246.26"/>
<polygon fill="#63b8ff" stroke="#63b8ff" points="558.44,-242.86 547.95,-244.33 557.07,-249.72 558.44,-242.86"/>
</a>
</g>
</g>
<!-- Node35 -->
<g id="Node000035" class="node">
<title>Node35</title>
<g id="a_Node000035"><a xlink:href="_d_s3231_8h.html" target="_top" xlink:title=" ">
<polygon fill="white" stroke="#666666" points="1334.88,-132 1275.38,-132 1275.38,-112 1334.88,-112 1334.88,-132"/>
<text text-anchor="middle" x="1305.12" y="-118.5" font-family="Helvetica,sans-Serif" font-size="10.00">DS3231.h</text>
</a>
</g>
</g>
<!-- Node1&#45;&gt;Node35 -->
<g id="edge55_Node000001_Node000035" class="edge">
<title>Node1&#45;&gt;Node35</title>
<g id="a_edge55_Node000001_Node000035"><a xlink:title=" ">
<path fill="none" stroke="#63b8ff" d="M818.49,-279.69C836.62,-263.55 867.37,-238.48 898.12,-224 914.93,-216.09 1163.8,-156.55 1263.89,-132.77"/>
<polygon fill="#63b8ff" stroke="#63b8ff" points="1264.66,-136.19 1273.59,-130.47 1263.05,-129.38 1264.66,-136.19"/>
</a>
</g>
</g>
<!-- Node3 -->
<g id="Node000003" class="node">
<title>Node3</title>
<g id="a_Node000003"><a xlink:href="_power_manager_8h.html" target="_top" xlink:title=" ">
<polygon fill="white" stroke="#666666" points="312.88,-132 223.38,-132 223.38,-112 312.88,-112 312.88,-132"/>
<text text-anchor="middle" x="268.12" y="-118.5" font-family="Helvetica,sans-Serif" font-size="10.00">PowerManager.h</text>
</a>
</g>
</g>
<!-- Node2&#45;&gt;Node3 -->
<g id="edge2_Node000002_Node000003" class="edge">
<title>Node2&#45;&gt;Node3</title>
<g id="a_edge2_Node000002_Node000003"><a xlink:title=" ">
<path fill="none" stroke="#63b8ff" d="M306.11,-167.59C299.85,-160.24 290.95,-149.8 283.34,-140.87"/>
<polygon fill="#63b8ff" stroke="#63b8ff" points="286.18,-138.79 277.03,-133.45 280.85,-143.33 286.18,-138.79"/>
</a>
</g>
</g>
<!-- Node9 -->
<g id="Node000009" class="node">
<title>Node9</title>
<g id="a_Node000009"><a xlink:title=" ">
<polygon fill="#e0e0e0" stroke="#999999" points="634.12,-20 594.12,-20 594.12,0 634.12,0 634.12,-20"/>
<text text-anchor="middle" x="614.12" y="-6.5" font-family="Helvetica,sans-Serif" font-size="10.00">string</text>
</a>
</g>
</g>
<!-- Node2&#45;&gt;Node9 -->
<g id="edge13_Node000002_Node000009" class="edge">
<title>Node2&#45;&gt;Node9</title>
<g id="a_edge13_Node000002_Node000009"><a xlink:title=" ">
<path fill="none" stroke="#63b8ff" d="M315.83,-167.62C320.53,-144.56 335.98,-84.87 374.12,-56 406.55,-31.46 525.17,-18.43 582.58,-13.44"/>
<polygon fill="#63b8ff" stroke="#63b8ff" points="582.67,-16.94 592.34,-12.62 582.08,-9.97 582.67,-16.94"/>
</a>
</g>
</g>
<!-- Node11 -->
<g id="Node000011" class="node">
<title>Node11</title>
<g id="a_Node000011"><a xlink:title=" ">
<polygon fill="#e0e0e0" stroke="#999999" points="72.25,-76 0,-76 0,-56 72.25,-56 72.25,-76"/>
<text text-anchor="middle" x="36.12" y="-62.5" font-family="Helvetica,sans-Serif" font-size="10.00">pico/mutex.h</text>
</a>
</g>
</g>
<!-- Node2&#45;&gt;Node11 -->
<g id="edge14_Node000002_Node000011" class="edge">
<title>Node2&#45;&gt;Node11</title>
<g id="a_edge14_Node000002_Node000011"><a xlink:title=" ">
<path fill="none" stroke="#63b8ff" d="M290.42,-167.62C241.18,-148.14 127.66,-103.22 70.43,-80.57"/>
<polygon fill="#63b8ff" stroke="#63b8ff" points="71.76,-77.34 61.17,-76.91 69.19,-83.85 71.76,-77.34"/>
</a>
</g>
</g>
<!-- Node12 -->
<g id="Node000012" class="node">
<title>Node12</title>
<g id="a_Node000012"><a xlink:title=" ">
<polygon fill="#e0e0e0" stroke="#999999" points="461.75,-132 416.5,-132 416.5,-112 461.75,-112 461.75,-132"/>
<text text-anchor="middle" x="439.12" y="-118.5" font-family="Helvetica,sans-Serif" font-size="10.00">cstdint</text>
</a>
</g>
</g>
<!-- Node2&#45;&gt;Node12 -->
<g id="edge12_Node000002_Node000012" class="edge">
<title>Node2&#45;&gt;Node12</title>
<g id="a_edge12_Node000002_Node000012"><a xlink:title=" ">
<path fill="none" stroke="#63b8ff" d="M335.9,-167.59C355.49,-159.13 384.55,-146.58 406.85,-136.94"/>
<polygon fill="#63b8ff" stroke="#63b8ff" points="408,-140.26 415.79,-133.08 405.22,-133.83 408,-140.26"/>
</a>
</g>
</g>
<!-- Node4 -->
<g id="Node000004" class="node">
<title>Node4</title>
<g id="a_Node000004"><a xlink:href="_i_n_a3221_8h.html" target="_top" xlink:title=" ">
<polygon fill="white" stroke="#666666" points="194,-76 90.25,-76 90.25,-56 194,-56 194,-76"/>
<text text-anchor="middle" x="142.12" y="-62.5" font-family="Helvetica,sans-Serif" font-size="10.00">INA3221/INA3221.h</text>
</a>
</g>
</g>
<!-- Node3&#45;&gt;Node4 -->
<g id="edge3_Node000003_Node000004" class="edge">
<title>Node3&#45;&gt;Node4</title>
<g id="a_edge3_Node000003_Node000004"><a xlink:title=" ">
<path fill="none" stroke="#63b8ff" d="M246.18,-111.59C226.42,-103.13 197.13,-90.58 174.66,-80.94"/>
<polygon fill="#63b8ff" stroke="#63b8ff" points="176.21,-77.8 165.63,-77.08 173.45,-84.23 176.21,-77.8"/>
</a>
</g>
</g>
<!-- Node7 -->
<g id="Node000007" class="node">
<title>Node7</title>
<g id="a_Node000007"><a xlink:title=" ">
<polygon fill="#e0e0e0" stroke="#999999" points="298,-20 218.25,-20 218.25,0 298,0 298,-20"/>
<text text-anchor="middle" x="258.12" y="-6.5" font-family="Helvetica,sans-Serif" font-size="10.00">hardware/i2c.h</text>
</a>
</g>
</g>
<!-- Node3&#45;&gt;Node7 -->
<g id="edge9_Node000003_Node000007" class="edge">
<title>Node3&#45;&gt;Node7</title>
<g id="a_edge9_Node000003_Node000007"><a xlink:title=" ">
<path fill="none" stroke="#63b8ff" d="M262.08,-111.82C256.68,-103.04 249.18,-89.22 246.12,-76 242.64,-60.93 246.15,-43.72 250.25,-30.79"/>
<polygon fill="#63b8ff" stroke="#63b8ff" points="253.42,-32.33 253.5,-21.74 246.83,-29.97 253.42,-32.33"/>
</a>
</g>
</g>
<!-- Node8 -->
<g id="Node000008" class="node">
<title>Node8</title>
<g id="a_Node000008"><a xlink:title=" ">
<polygon fill="#e0e0e0" stroke="#999999" points="322.5,-76 287.75,-76 287.75,-56 322.5,-56 322.5,-76"/>
<text text-anchor="middle" x="305.12" y="-62.5" font-family="Helvetica,sans-Serif" font-size="10.00">map</text>
</a>
</g>
</g>
<!-- Node3&#45;&gt;Node8 -->
<g id="edge7_Node000003_Node000008" class="edge">
<title>Node3&#45;&gt;Node8</title>
<g id="a_edge7_Node000003_Node000008"><a xlink:title=" ">
<path fill="none" stroke="#63b8ff" d="M274.57,-111.59C279.45,-104.47 286.32,-94.45 292.3,-85.72"/>
<polygon fill="#63b8ff" stroke="#63b8ff" points="295.13,-87.77 297.9,-77.55 289.36,-83.82 295.13,-87.77"/>
</a>
</g>
</g>
<!-- Node3&#45;&gt;Node9 -->
<g id="edge8_Node000003_Node000009" class="edge">
<title>Node3&#45;&gt;Node9</title>
<g id="a_edge8_Node000003_Node000009"><a xlink:title=" ">
<path fill="none" stroke="#63b8ff" d="M266.65,-111.94C264.92,-97.81 263.98,-70.63 279.12,-56 321.89,-14.67 506.99,-10.58 582.18,-10.66"/>
<polygon fill="#63b8ff" stroke="#63b8ff" points="582.15,-14.16 592.16,-10.71 582.18,-7.16 582.15,-14.16"/>
</a>
</g>
</g>
<!-- Node10 -->
<g id="Node000010" class="node">
<title>Node10</title>
<g id="a_Node000010"><a xlink:title=" ">
<polygon fill="#e0e0e0" stroke="#999999" points="748.38,-76 679.88,-76 679.88,-56 748.38,-56 748.38,-76"/>
<text text-anchor="middle" x="714.12" y="-62.5" font-family="Helvetica,sans-Serif" font-size="10.00">pico/stdlib.h</text>
</a>
</g>
</g>
<!-- Node3&#45;&gt;Node10 -->
<g id="edge10_Node000003_Node000010" class="edge">
<title>Node3&#45;&gt;Node10</title>
<g id="a_edge10_Node000003_Node000010"><a xlink:title=" ">
<path fill="none" stroke="#63b8ff" d="M313.34,-115.53C398.67,-105.19 582.53,-82.93 668.31,-72.55"/>
<polygon fill="#63b8ff" stroke="#63b8ff" points="668.49,-76.05 678,-71.37 667.65,-69.1 668.49,-76.05"/>
</a>
</g>
</g>
<!-- Node3&#45;&gt;Node11 -->
<g id="edge11_Node000003_Node000011" class="edge">
<title>Node3&#45;&gt;Node11</title>
<g id="a_edge11_Node000003_Node000011"><a xlink:title=" ">
<path fill="none" stroke="#63b8ff" d="M227.45,-111.53C187.33,-102.19 126.04,-87.93 83.69,-78.07"/>
<polygon fill="#63b8ff" stroke="#63b8ff" points="84.56,-74.68 74.03,-75.82 82.97,-81.5 84.56,-74.68"/>
</a>
</g>
</g>
<!-- Node5 -->
<g id="Node000005" class="node">
<title>Node5</title>
<g id="a_Node000005"><a xlink:title=" ">
<polygon fill="#e0e0e0" stroke="#999999" points="200.25,-20 152,-20 152,0 200.25,0 200.25,-20"/>
<text text-anchor="middle" x="176.12" y="-6.5" font-family="Helvetica,sans-Serif" font-size="10.00">stdint.h</text>
</a>
</g>
</g>
<!-- Node4&#45;&gt;Node5 -->
<g id="edge4_Node000004_Node000005" class="edge">
<title>Node4&#45;&gt;Node5</title>
<g id="a_edge4_Node000004_Node000005"><a xlink:title=" ">
<path fill="none" stroke="#63b8ff" d="M148.05,-55.59C152.48,-48.55 158.7,-38.67 164.16,-30"/>
<polygon fill="#63b8ff" stroke="#63b8ff" points="167.1,-31.91 169.46,-21.58 161.17,-28.18 167.1,-31.91"/>
</a>
</g>
</g>
<!-- Node6 -->
<g id="Node000006" class="node">
<title>Node6</title>
<g id="a_Node000006"><a xlink:title=" ">
<polygon fill="#e0e0e0" stroke="#999999" points="133.88,-20 80.38,-20 80.38,0 133.88,0 133.88,-20"/>
<text text-anchor="middle" x="107.12" y="-6.5" font-family="Helvetica,sans-Serif" font-size="10.00">iostream</text>
</a>
</g>
</g>
<!-- Node4&#45;&gt;Node6 -->
<g id="edge5_Node000004_Node000006" class="edge">
<title>Node4&#45;&gt;Node6</title>
<g id="a_edge5_Node000004_Node000006"><a xlink:title=" ">
<path fill="none" stroke="#63b8ff" d="M136.03,-55.59C131.41,-48.47 124.92,-38.45 119.26,-29.72"/>
<polygon fill="#63b8ff" stroke="#63b8ff" points="122.35,-28.06 113.97,-21.57 116.48,-31.86 122.35,-28.06"/>
</a>
</g>
</g>
<!-- Node4&#45;&gt;Node7 -->
<g id="edge6_Node000004_Node000007" class="edge">
<title>Node4&#45;&gt;Node7</title>
<g id="a_edge6_Node000004_Node000007"><a xlink:title=" ">
<path fill="none" stroke="#63b8ff" d="M162.33,-55.59C180.35,-47.21 206.99,-34.8 227.61,-25.21"/>
<polygon fill="#63b8ff" stroke="#63b8ff" points="228.8,-28.51 236.39,-21.12 225.85,-22.17 228.8,-28.51"/>
</a>
</g>
</g>
<!-- Node14&#45;&gt;Node3 -->
<g id="edge25_Node000014_Node000003" class="edge">
<title>Node14&#45;&gt;Node3</title>
<g id="a_edge25_Node000014_Node000003"><a xlink:title=" ">
<path fill="none" stroke="#63b8ff" d="M715.29,-173.62C637.22,-164.78 425.98,-140.87 324.3,-129.36"/>
<polygon fill="#63b8ff" stroke="#63b8ff" points="324.88,-125.9 314.55,-128.26 324.1,-132.86 324.88,-125.9"/>
</a>
</g>
</g>
<!-- Node14&#45;&gt;Node8 -->
<g id="edge18_Node000014_Node000008" class="edge">
<title>Node14&#45;&gt;Node8</title>
<g id="a_edge18_Node000014_Node000008"><a xlink:title=" ">
<path fill="none" stroke="#63b8ff" d="M715.47,-170C682.38,-161.93 627.39,-147.73 581.12,-132 558.85,-124.43 554.65,-118.76 532.12,-112 462.31,-91.04 377.43,-77.19 333.91,-70.89"/>
<polygon fill="#63b8ff" stroke="#63b8ff" points="334.67,-67.47 324.27,-69.53 333.69,-74.4 334.67,-67.47"/>
</a>
</g>
</g>
<!-- Node14&#45;&gt;Node9 -->
<g id="edge17_Node000014_Node000009" class="edge">
<title>Node14&#45;&gt;Node9</title>
<g id="a_edge17_Node000014_Node000009"><a xlink:title=" ">
<path fill="none" stroke="#63b8ff" d="M774.97,-173.5C817.48,-167.92 897.48,-155.19 962.12,-132 980.09,-125.55 982.36,-118.96 1000.12,-112 1060.22,-88.45 1177.75,-103.57 1134.12,-56 1101.06,-19.95 753.82,-12.7 645.93,-11.31"/>
<polygon fill="#63b8ff" stroke="#63b8ff" points="646.11,-7.81 636.07,-11.2 646.02,-14.81 646.11,-7.81"/>
</a>
</g>
</g>
<!-- Node14&#45;&gt;Node12 -->
<g id="edge21_Node000014_Node000012" class="edge">
<title>Node14&#45;&gt;Node12</title>
<g id="a_edge21_Node000014_Node000012"><a xlink:title=" ">
<path fill="none" stroke="#63b8ff" d="M715.32,-173.21C666.69,-166.8 567.1,-152.67 473.24,-132.25"/>
<polygon fill="#63b8ff" stroke="#63b8ff" points="474.12,-128.86 463.6,-130.12 472.61,-135.7 474.12,-128.86"/>
</a>
</g>
</g>
<!-- Node14&#45;&gt;Node13 -->
<g id="edge26_Node000014_Node000013" class="edge">
<title>Node14&#45;&gt;Node13</title>
<g id="a_edge26_Node000014_Node000013"><a xlink:title=" ">
<path fill="none" stroke="#63b8ff" d="M774.74,-173.59C790.07,-171.86 809.09,-169.75 826.12,-168 991.25,-151.01 1037.65,-163.95 1203.52,-132.16"/>
<polygon fill="#63b8ff" stroke="#63b8ff" points="1203.99,-135.64 1213.14,-130.29 1202.65,-128.77 1203.99,-135.64"/>
</a>
</g>
</g>
<!-- Node15 -->
<g id="Node000015" class="node">
<title>Node15</title>
<g id="a_Node000015"><a xlink:title=" ">
<polygon fill="#e0e0e0" stroke="#999999" points="1067.12,-132 1009.12,-132 1009.12,-112 1067.12,-112 1067.12,-132"/>
<text text-anchor="middle" x="1038.12" y="-118.5" font-family="Helvetica,sans-Serif" font-size="10.00">functional</text>
</a>
</g>
</g>
<!-- Node14&#45;&gt;Node15 -->
<g id="edge19_Node000014_Node000015" class="edge">
<title>Node14&#45;&gt;Node15</title>
<g id="a_edge19_Node000014_Node000015"><a xlink:title=" ">
<path fill="none" stroke="#63b8ff" d="M774.81,-171.94C821.68,-163.88 915.69,-147.46 995.12,-132 996.11,-131.81 997.1,-131.61 998.11,-131.42"/>
<polygon fill="#63b8ff" stroke="#63b8ff" points="998.41,-134.92 1007.52,-129.51 997.02,-128.06 998.41,-134.92"/>
</a>
</g>
</g>
<!-- Node16 -->
<g id="Node000016" class="node">
<title>Node16</title>
<g id="a_Node000016"><a xlink:title=" ">
<polygon fill="#e0e0e0" stroke="#999999" points="522.62,-132 479.62,-132 479.62,-112 522.62,-112 522.62,-132"/>
<text text-anchor="middle" x="501.12" y="-118.5" font-family="Helvetica,sans-Serif" font-size="10.00">vector</text>
</a>
</g>
</g>
<!-- Node14&#45;&gt;Node16 -->
<g id="edge20_Node000014_Node000016" class="edge">
<title>Node14&#45;&gt;Node16</title>
<g id="a_edge20_Node000014_Node000016"><a xlink:title=" ">
<path fill="none" stroke="#63b8ff" d="M715.44,-170.89C675.02,-162.5 600.45,-146.76 537.12,-132 535.96,-131.73 534.78,-131.45 533.59,-131.17"/>
<polygon fill="#63b8ff" stroke="#63b8ff" points="534.81,-127.86 524.27,-128.9 533.16,-134.66 534.81,-127.86"/>
</a>
</g>
</g>
<!-- Node17 -->
<g id="Node000017" class="node">
<title>Node17</title>
<g id="a_Node000017"><a xlink:title=" ">
<polygon fill="#e0e0e0" stroke="#999999" points="1135,-132 1085.25,-132 1085.25,-112 1135,-112 1135,-132"/>
<text text-anchor="middle" x="1110.12" y="-118.5" font-family="Helvetica,sans-Serif" font-size="10.00">iomanip</text>
</a>
</g>
</g>
<!-- Node14&#45;&gt;Node17 -->
<g id="edge22_Node000014_Node000017" class="edge">
<title>Node14&#45;&gt;Node17</title>
<g id="a_edge22_Node000014_Node000017"><a xlink:title=" ">
<path fill="none" stroke="#63b8ff" d="M774.91,-173.43C841.39,-165.39 1001.18,-145.64 1074.04,-132.14"/>
<polygon fill="#63b8ff" stroke="#63b8ff" points="1074.31,-135.65 1083.47,-130.32 1072.99,-128.78 1074.31,-135.65"/>
</a>
</g>
</g>
<!-- Node18 -->
<g id="Node000018" class="node">
<title>Node18</title>
<g id="a_Node000018"><a xlink:href="pin__config_8h.html" target="_top" xlink:title=" ">
<polygon fill="white" stroke="#666666" points="586.38,-76 517.88,-76 517.88,-56 586.38,-56 586.38,-76"/>
<text text-anchor="middle" x="552.12" y="-62.5" font-family="Helvetica,sans-Serif" font-size="10.00">pin_config.h</text>
</a>
</g>
</g>
<!-- Node14&#45;&gt;Node18 -->
<g id="edge23_Node000014_Node000018" class="edge">
<title>Node14&#45;&gt;Node18</title>
<g id="a_edge23_Node000014_Node000018"><a xlink:title=" ">
<path fill="none" stroke="#63b8ff" d="M715.28,-172.03C686.06,-166.1 641.23,-154.1 608.12,-132 589.98,-119.89 574.27,-100.36 564.14,-85.87"/>
<polygon fill="#63b8ff" stroke="#63b8ff" points="567.11,-84.01 558.65,-77.64 561.29,-87.9 567.11,-84.01"/>
</a>
</g>
</g>
<!-- Node19 -->
<g id="Node000019" class="node">
<title>Node19</title>
<g id="a_Node000019"><a xlink:title=" ">
<polygon fill="#e0e0e0" stroke="#999999" points="1197.38,-132 1152.88,-132 1152.88,-112 1197.38,-112 1197.38,-132"/>
<text text-anchor="middle" x="1175.12" y="-118.5" font-family="Helvetica,sans-Serif" font-size="10.00">cstdlib</text>
</a>
</g>
</g>
<!-- Node14&#45;&gt;Node19 -->
<g id="edge27_Node000014_Node000019" class="edge">
<title>Node14&#45;&gt;Node19</title>
<g id="a_edge27_Node000014_Node000019"><a xlink:title=" ">
<path fill="none" stroke="#63b8ff" d="M774.73,-173.69C857.25,-164.48 1086.95,-138.79 1141.36,-131.67"/>
<polygon fill="#63b8ff" stroke="#63b8ff" points="1141.66,-135.16 1151.05,-130.26 1140.65,-128.24 1141.66,-135.16"/>
</a>
</g>
</g>
<!-- Node20 -->
<g id="Node000020" class="node">
<title>Node20</title>
<g id="a_Node000020"><a xlink:title=" ">
<polygon fill="#e0e0e0" stroke="#999999" points="662.75,-132 617.5,-132 617.5,-112 662.75,-112 662.75,-132"/>
<text text-anchor="middle" x="640.12" y="-118.5" font-family="Helvetica,sans-Serif" font-size="10.00">cstring</text>
</a>
</g>
</g>
<!-- Node14&#45;&gt;Node20 -->
<g id="edge28_Node000014_Node000020" class="edge">
<title>Node14&#45;&gt;Node20</title>
<g id="a_edge28_Node000014_Node000020"><a xlink:title=" ">
<path fill="none" stroke="#63b8ff" d="M726.84,-167.59C710.82,-159.36 687.29,-147.26 668.78,-137.74"/>
<polygon fill="#63b8ff" stroke="#63b8ff" points="670.4,-134.63 659.9,-133.17 667.2,-140.86 670.4,-134.63"/>
</a>
</g>
</g>
<!-- Node14&#45;&gt;Node21 -->
<g id="edge29_Node000014_Node000021" class="edge">
<title>Node14&#45;&gt;Node21</title>
<g id="a_edge29_Node000014_Node000021"><a xlink:title=" ">
<path fill="none" stroke="#63b8ff" d="M755.05,-167.59C763.06,-160.01 774.54,-149.13 784.16,-140.02"/>
<polygon fill="#63b8ff" stroke="#63b8ff" points="786.36,-142.76 791.21,-133.34 781.54,-137.68 786.36,-142.76"/>
</a>
</g>
</g>
<!-- Node24 -->
<g id="Node000024" class="node">
<title>Node24</title>
<g id="a_Node000024"><a xlink:title=" ">
<polygon fill="#e0e0e0" stroke="#999999" points="1417.62,-76 1374.62,-76 1374.62,-56 1417.62,-56 1417.62,-76"/>
<text text-anchor="middle" x="1396.12" y="-62.5" font-family="Helvetica,sans-Serif" font-size="10.00">time.h</text>
</a>
</g>
</g>
<!-- Node14&#45;&gt;Node24 -->
<g id="edge35_Node000014_Node000024" class="edge">
<title>Node14&#45;&gt;Node24</title>
<g id="a_edge35_Node000014_Node000024"><a xlink:title=" ">
<path fill="none" stroke="#63b8ff" d="M774.71,-176.16C888.4,-172.73 1293.45,-158.74 1344.12,-132 1363.26,-121.91 1377.79,-101.4 1386.57,-86.1"/>
<polygon fill="#63b8ff" stroke="#63b8ff" points="1389.57,-87.91 1391.21,-77.44 1383.4,-84.6 1389.57,-87.91"/>
</a>
</g>
</g>
<!-- Node25 -->
<g id="Node000025" class="node">
<title>Node25</title>
<g id="a_Node000025"><a xlink:href="build__number_8h.html" target="_top" xlink:title=" ">
<polygon fill="white" stroke="#666666" points="763.12,-132 681.12,-132 681.12,-112 763.12,-112 763.12,-132"/>
<text text-anchor="middle" x="722.12" y="-118.5" font-family="Helvetica,sans-Serif" font-size="10.00">build_number.h</text>
</a>
</g>
</g>
<!-- Node14&#45;&gt;Node25 -->
<g id="edge36_Node000014_Node000025" class="edge">
<title>Node14&#45;&gt;Node25</title>
<g id="a_edge36_Node000014_Node000025"><a xlink:title=" ">
<path fill="none" stroke="#63b8ff" d="M741.12,-167.59C738.22,-160.78 734.19,-151.32 730.58,-142.86"/>
<polygon fill="#63b8ff" stroke="#63b8ff" points="733.82,-141.52 726.68,-133.69 727.38,-144.26 733.82,-141.52"/>
</a>
</g>
</g>
<!-- Node26 -->
<g id="Node000026" class="node">
<title>Node26</title>
<g id="a_Node000026"><a xlink:href="_lo_ra-_r_p2040_8h.html" target="_top" xlink:title=" ">
<polygon fill="white" stroke="#666666" points="953.12,-132 841.12,-132 841.12,-112 953.12,-112 953.12,-132"/>
<text text-anchor="middle" x="897.12" y="-118.5" font-family="Helvetica,sans-Serif" font-size="10.00">LoRa/LoRa&#45;RP2040.h</text>
</a>
</g>
</g>
<!-- Node14&#45;&gt;Node26 -->
<g id="edge37_Node000014_Node000026" class="edge">
<title>Node14&#45;&gt;Node26</title>
<g id="a_edge37_Node000014_Node000026"><a xlink:title=" ">
<path fill="none" stroke="#63b8ff" d="M771.6,-167.59C795.97,-158.94 832.38,-146 859.71,-136.29"/>
<polygon fill="#63b8ff" stroke="#63b8ff" points="860.76,-139.63 869.02,-132.99 858.42,-133.04 860.76,-139.63"/>
</a>
</g>
</g>
<!-- Node18&#45;&gt;Node5 -->
<g id="edge24_Node000018_Node000005" class="edge">
<title>Node18&#45;&gt;Node5</title>
<g id="a_edge24_Node000018_Node000005"><a xlink:title=" ">
<path fill="none" stroke="#63b8ff" d="M517.44,-57.47C514.63,-56.94 511.83,-56.45 509.12,-56 380.24,-34.82 342.95,-45.13 211.82,-20.27"/>
<polygon fill="#63b8ff" stroke="#63b8ff" points="212.51,-16.84 202.03,-18.37 211.18,-23.71 212.51,-16.84"/>
</a>
</g>
</g>
<!-- Node21&#45;&gt;Node9 -->
<g id="edge31_Node000021_Node000009" class="edge">
<title>Node21&#45;&gt;Node9</title>
<g id="a_edge31_Node000021_Node000009"><a xlink:title=" ">
<path fill="none" stroke="#63b8ff" d="M780.75,-114.45C743,-102.83 668.06,-79.51 663.12,-76 646.43,-64.11 632.93,-44.83 624.35,-30.35"/>
<polygon fill="#63b8ff" stroke="#63b8ff" points="627.47,-28.75 619.53,-21.73 621.36,-32.17 627.47,-28.75"/>
</a>
</g>
</g>
<!-- Node21&#45;&gt;Node10 -->
<g id="edge32_Node000021_Node000010" class="edge">
<title>Node21&#45;&gt;Node10</title>
<g id="a_edge32_Node000021_Node000010"><a xlink:title=" ">
<path fill="none" stroke="#63b8ff" d="M786.8,-111.59C773.63,-103.51 754.39,-91.71 739.02,-82.27"/>
<polygon fill="#63b8ff" stroke="#63b8ff" points="741.22,-79.52 730.86,-77.27 737.56,-85.48 741.22,-79.52"/>
</a>
</g>
</g>
<!-- Node21&#45;&gt;Node18 -->
<g id="edge34_Node000021_Node000018" class="edge">
<title>Node21&#45;&gt;Node18</title>
<g id="a_edge34_Node000021_Node000018"><a xlink:title=" ">
<path fill="none" stroke="#63b8ff" d="M780.56,-114.28C777.73,-113.47 774.87,-112.69 772.12,-112 739.74,-103.85 652.18,-86.45 597.79,-75.84"/>
<polygon fill="#63b8ff" stroke="#63b8ff" points="598.69,-72.45 588.21,-73.97 597.35,-79.32 598.69,-72.45"/>
</a>
</g>
</g>
<!-- Node22 -->
<g id="Node000022" class="node">
<title>Node22</title>
<g id="a_Node000022"><a xlink:title=" ">
<polygon fill="#e0e0e0" stroke="#999999" points="964.75,-20 919.5,-20 919.5,0 964.75,0 964.75,-20"/>
<text text-anchor="middle" x="942.12" y="-6.5" font-family="Helvetica,sans-Serif" font-size="10.00">stdio.h</text>
</a>
</g>
</g>
<!-- Node21&#45;&gt;Node22 -->
<g id="edge30_Node000021_Node000022" class="edge">
<title>Node21&#45;&gt;Node22</title>
<g id="a_edge30_Node000021_Node000022"><a xlink:title=" ">
<path fill="none" stroke="#63b8ff" d="M780.58,-114.32C744.26,-102.95 674.43,-80.62 671.12,-76 665.96,-68.77 665.38,-62.78 671.12,-56 701.1,-20.64 841.82,-13.03 907.81,-11.42"/>
<polygon fill="#63b8ff" stroke="#63b8ff" points="907.78,-14.92 917.71,-11.21 907.63,-7.92 907.78,-14.92"/>
</a>
</g>
</g>
<!-- Node23 -->
<g id="Node000023" class="node">
<title>Node23</title>
<g id="a_Node000023"><a xlink:title=" ">
<polygon fill="#e0e0e0" stroke="#999999" points="499.88,-76 416.38,-76 416.38,-56 499.88,-56 499.88,-76"/>
<text text-anchor="middle" x="458.12" y="-62.5" font-family="Helvetica,sans-Serif" font-size="10.00">hardware/uart.h</text>
</a>
</g>
</g>
<!-- Node21&#45;&gt;Node23 -->
<g id="edge33_Node000021_Node000023" class="edge">
<title>Node21&#45;&gt;Node23</title>
<g id="a_edge33_Node000021_Node000023"><a xlink:title=" ">
<path fill="none" stroke="#63b8ff" d="M780.6,-114.11C777.77,-113.33 774.89,-112.6 772.12,-112 660.32,-87.73 627.65,-93.84 511.28,-76.26"/>
<polygon fill="#63b8ff" stroke="#63b8ff" points="512.04,-72.84 501.62,-74.78 510.97,-79.76 512.04,-72.84"/>
</a>
</g>
</g>
<!-- Node26&#45;&gt;Node10 -->
<g id="edge38_Node000026_Node000010" class="edge">
<title>Node26&#45;&gt;Node10</title>
<g id="a_edge38_Node000026_Node000010"><a xlink:title=" ">
<path fill="none" stroke="#63b8ff" d="M865.25,-111.59C835.26,-102.74 790.12,-89.43 756.99,-79.65"/>
<polygon fill="#63b8ff" stroke="#63b8ff" points="758.28,-76.38 747.7,-76.91 756.3,-83.09 758.28,-76.38"/>
</a>
</g>
</g>
<!-- Node26&#45;&gt;Node18 -->
<g id="edge47_Node000026_Node000018" class="edge">
<title>Node26&#45;&gt;Node18</title>
<g id="a_edge47_Node000026_Node000018"><a xlink:title=" ">
<path fill="none" stroke="#63b8ff" d="M840.93,-112.2C773.16,-101.6 660.57,-83.97 597.86,-74.16"/>
<polygon fill="#63b8ff" stroke="#63b8ff" points="598.67,-70.74 588.25,-72.65 597.59,-77.66 598.67,-70.74"/>
</a>
</g>
</g>
<!-- Node27 -->
<g id="Node000027" class="node">
<title>Node27</title>
<g id="a_Node000027"><a xlink:title=" ">
<polygon fill="#e0e0e0" stroke="#999999" points="1125.38,-76 1032.88,-76 1032.88,-56 1125.38,-56 1125.38,-76"/>
<text text-anchor="middle" x="1079.12" y="-62.5" font-family="Helvetica,sans-Serif" font-size="10.00">pico/binary_info.h</text>
</a>
</g>
</g>
<!-- Node26&#45;&gt;Node27 -->
<g id="edge39_Node000026_Node000027" class="edge">
<title>Node26&#45;&gt;Node27</title>
<g id="a_edge39_Node000026_Node000027"><a xlink:title=" ">
<path fill="none" stroke="#63b8ff" d="M928.83,-111.59C958.66,-102.74 1003.54,-89.43 1036.5,-79.65"/>
<polygon fill="#63b8ff" stroke="#63b8ff" points="1037.13,-83.11 1045.72,-76.91 1035.14,-76.4 1037.13,-83.11"/>
</a>
</g>
</g>
<!-- Node28 -->
<g id="Node000028" class="node">
<title>Node28</title>
<g id="a_Node000028"><a xlink:title=" ">
<polygon fill="#e0e0e0" stroke="#999999" points="851.62,-76 766.62,-76 766.62,-56 851.62,-56 851.62,-76"/>
<text text-anchor="middle" x="809.12" y="-62.5" font-family="Helvetica,sans-Serif" font-size="10.00">hardware/gpio.h</text>
</a>
</g>
</g>
<!-- Node26&#45;&gt;Node28 -->
<g id="edge40_Node000026_Node000028" class="edge">
<title>Node26&#45;&gt;Node28</title>
<g id="a_edge40_Node000026_Node000028"><a xlink:title=" ">
<path fill="none" stroke="#63b8ff" d="M881.8,-111.59C868.63,-103.51 849.39,-91.71 834.02,-82.27"/>
<polygon fill="#63b8ff" stroke="#63b8ff" points="836.22,-79.52 825.86,-77.27 832.56,-85.48 836.22,-79.52"/>
</a>
</g>
</g>
<!-- Node29 -->
<g id="Node000029" class="node">
<title>Node29</title>
<g id="a_Node000029"><a xlink:title=" ">
<polygon fill="#e0e0e0" stroke="#999999" points="949,-76 869.25,-76 869.25,-56 949,-56 949,-76"/>
<text text-anchor="middle" x="909.12" y="-62.5" font-family="Helvetica,sans-Serif" font-size="10.00">hardware/spi.h</text>
</a>
</g>
</g>
<!-- Node26&#45;&gt;Node29 -->
<g id="edge41_Node000026_Node000029" class="edge">
<title>Node26&#45;&gt;Node29</title>
<g id="a_edge41_Node000026_Node000029"><a xlink:title=" ">
<path fill="none" stroke="#63b8ff" d="M899.22,-111.59C900.7,-104.93 902.74,-95.75 904.58,-87.44"/>
<polygon fill="#63b8ff" stroke="#63b8ff" points="907.98,-88.3 906.73,-77.78 901.14,-86.78 907.98,-88.3"/>
</a>
</g>
</g>
<!-- Node30 -->
<g id="Node000030" class="node">
<title>Node30</title>
<g id="a_Node000030"><a xlink:title=" ">
<polygon fill="#e0e0e0" stroke="#999999" points="1015.25,-76 967,-76 967,-56 1015.25,-56 1015.25,-76"/>
<text text-anchor="middle" x="991.12" y="-62.5" font-family="Helvetica,sans-Serif" font-size="10.00">string.h</text>
</a>
</g>
</g>
<!-- Node26&#45;&gt;Node30 -->
<g id="edge42_Node000026_Node000030" class="edge">
<title>Node26&#45;&gt;Node30</title>
<g id="a_edge42_Node000026_Node000030"><a xlink:title=" ">
<path fill="none" stroke="#63b8ff" d="M913.5,-111.59C927.7,-103.44 948.51,-91.48 965.01,-82"/>
<polygon fill="#63b8ff" stroke="#63b8ff" points="966.38,-85.25 973.31,-77.23 962.9,-79.18 966.38,-85.25"/>
</a>
</g>
</g>
<!-- Node31 -->
<g id="Node000031" class="node">
<title>Node31</title>
<g id="a_Node000031"><a xlink:href="_print_8h.html" target="_top" xlink:title=" ">
<polygon fill="white" stroke="#666666" points="1301.38,-76 1256.88,-76 1256.88,-56 1301.38,-56 1301.38,-76"/>
<text text-anchor="middle" x="1279.12" y="-62.5" font-family="Helvetica,sans-Serif" font-size="10.00">Print.h</text>
</a>
</g>
</g>
<!-- Node26&#45;&gt;Node31 -->
<g id="edge43_Node000026_Node000031" class="edge">
<title>Node26&#45;&gt;Node31</title>
<g id="a_edge43_Node000026_Node000031"><a xlink:title=" ">
<path fill="none" stroke="#63b8ff" d="M953.49,-113.03C1033.99,-101.65 1179.39,-81.1 1245.17,-71.8"/>
<polygon fill="#63b8ff" stroke="#63b8ff" points="1245.59,-75.28 1255,-70.41 1244.61,-68.34 1245.59,-75.28"/>
</a>
</g>
</g>
<!-- Node31&#45;&gt;Node9 -->
<g id="edge46_Node000031_Node000009" class="edge">
<title>Node31&#45;&gt;Node9</title>
<g id="a_edge46_Node000031_Node000009"><a xlink:title=" ">
<path fill="none" stroke="#63b8ff" d="M1256.39,-58.68C1252.02,-57.65 1247.45,-56.69 1243.12,-56 1016.01,-19.77 738.09,-12.7 645.67,-11.33"/>
<polygon fill="#63b8ff" stroke="#63b8ff" points="645.93,-7.83 635.88,-11.2 645.83,-14.83 645.93,-7.83"/>
</a>
</g>
</g>
<!-- Node31&#45;&gt;Node22 -->
<g id="edge45_Node000031_Node000022" class="edge">
<title>Node31&#45;&gt;Node22</title>
<g id="a_edge45_Node000031_Node000022"><a xlink:title=" ">
<path fill="none" stroke="#63b8ff" d="M1256.73,-59.05C1252.24,-57.95 1247.55,-56.88 1243.12,-56 1147.05,-36.86 1032.27,-21.84 976.26,-15.01"/>
<polygon fill="#63b8ff" stroke="#63b8ff" points="976.76,-11.55 966.41,-13.82 975.92,-18.5 976.76,-11.55"/>
</a>
</g>
</g>
<!-- Node32 -->
<g id="Node000032" class="node">
<title>Node32</title>
<g id="a_Node000032"><a xlink:title=" ">
<polygon fill="#e0e0e0" stroke="#999999" points="1308.5,-20 1249.75,-20 1249.75,0 1308.5,0 1308.5,-20"/>
<text text-anchor="middle" x="1279.12" y="-6.5" font-family="Helvetica,sans-Serif" font-size="10.00">inttypes.h</text>
</a>
</g>
</g>
<!-- Node31&#45;&gt;Node32 -->
<g id="edge44_Node000031_Node000032" class="edge">
<title>Node31&#45;&gt;Node32</title>
<g id="a_edge44_Node000031_Node000032"><a xlink:title=" ">
<path fill="none" stroke="#63b8ff" d="M1279.12,-55.59C1279.12,-49.01 1279.12,-39.96 1279.12,-31.73"/>
<polygon fill="#63b8ff" stroke="#63b8ff" points="1282.63,-31.81 1279.13,-21.81 1275.63,-31.81 1282.63,-31.81"/>
</a>
</g>
</g>
<!-- Node34&#45;&gt;Node2 -->
<g id="edge53_Node000034_Node000002" class="edge">
<title>Node34&#45;&gt;Node2</title>
<g id="a_edge53_Node000034_Node000002"><a xlink:title=" ">
<path fill="none" stroke="#63b8ff" d="M468.55,-223.59C437.9,-214.74 391.78,-201.43 357.92,-191.65"/>
<polygon fill="#63b8ff" stroke="#63b8ff" points="358.98,-188.31 348.41,-188.9 357.04,-195.04 358.98,-188.31"/>
</a>
</g>
</g>
<!-- Node34&#45;&gt;Node9 -->
<g id="edge50_Node000034_Node000009" class="edge">
<title>Node34&#45;&gt;Node9</title>
<g id="a_edge50_Node000034_Node000009"><a xlink:title=" ">
<path fill="none" stroke="#63b8ff" d="M489.16,-223.81C454.79,-196.34 361.06,-113.16 407.12,-56 428.8,-29.1 530.14,-17.45 582.55,-13.15"/>
<polygon fill="#63b8ff" stroke="#63b8ff" points="582.63,-16.65 592.33,-12.39 582.09,-9.67 582.63,-16.65"/>
</a>
</g>
</g>
<!-- Node34&#45;&gt;Node14 -->
<g id="edge52_Node000034_Node000014" class="edge">
<title>Node34&#45;&gt;Node14</title>
<g id="a_edge52_Node000034_Node000014"><a xlink:title=" ">
<path fill="none" stroke="#63b8ff" d="M543.91,-223.53C589.17,-213.51 660.06,-197.83 704.49,-187.99"/>
<polygon fill="#63b8ff" stroke="#63b8ff" points="704.98,-191.47 713.98,-185.89 703.46,-184.64 704.98,-191.47"/>
</a>
</g>
</g>
<!-- Node34&#45;&gt;Node16 -->
<g id="edge51_Node000034_Node000016" class="edge">
<title>Node34&#45;&gt;Node16</title>
<g id="a_edge51_Node000034_Node000016"><a xlink:title=" ">
<path fill="none" stroke="#63b8ff" d="M501.12,-223.62C501.12,-206.01 501.12,-167.59 501.12,-143.65"/>
<polygon fill="#63b8ff" stroke="#63b8ff" points="504.63,-143.87 501.13,-133.87 497.63,-143.87 504.63,-143.87"/>
</a>
</g>
</g>
<!-- Node35&#45;&gt;Node7 -->
<g id="edge59_Node000035_Node000007" class="edge">
<title>Node35&#45;&gt;Node7</title>
<g id="a_edge59_Node000035_Node000007"><a xlink:title=" ">
<path fill="none" stroke="#63b8ff" d="M1282.78,-111.5C1243.54,-95.01 1163.65,-62.21 1134.12,-56 1053.68,-39.08 485.79,-18.69 309.92,-12.72"/>
<polygon fill="#63b8ff" stroke="#63b8ff" points="310.05,-9.22 299.94,-12.38 309.81,-16.22 310.05,-9.22"/>
</a>
</g>
</g>
<!-- Node35&#45;&gt;Node9 -->
<g id="edge56_Node000035_Node000009" class="edge">
<title>Node35&#45;&gt;Node9</title>
<g id="a_edge56_Node000035_Node000009"><a xlink:title=" ">
<path fill="none" stroke="#63b8ff" d="M1294.69,-111.61C1277.48,-96.75 1241.41,-68.27 1205.12,-56 1100,-20.44 752.49,-12.86 645.65,-11.35"/>
<polygon fill="#63b8ff" stroke="#63b8ff" points="645.96,-7.85 635.92,-11.22 645.87,-14.85 645.96,-7.85"/>
</a>
</g>
</g>
<!-- Node35&#45;&gt;Node10 -->
<g id="edge58_Node000035_Node000010" class="edge">
<title>Node35&#45;&gt;Node10</title>
<g id="a_edge58_Node000035_Node000010"><a xlink:title=" ">
<path fill="none" stroke="#63b8ff" d="M1274.98,-113.55C1272,-112.97 1269.01,-112.43 1266.12,-112 1045.89,-78.99 984.34,-105.85 759.8,-76.02"/>
<polygon fill="#63b8ff" stroke="#63b8ff" points="760.52,-72.58 750.14,-74.71 759.58,-79.52 760.52,-72.58"/>
</a>
</g>
</g>
<!-- Node35&#45;&gt;Node24 -->
<g id="edge60_Node000035_Node000024" class="edge">
<title>Node35&#45;&gt;Node24</title>
<g id="a_edge60_Node000035_Node000024"><a xlink:title=" ">
<path fill="none" stroke="#63b8ff" d="M1320.98,-111.59C1334.59,-103.51 1354.49,-91.71 1370.39,-82.27"/>
<polygon fill="#63b8ff" stroke="#63b8ff" points="1372.03,-85.37 1378.85,-77.25 1368.46,-79.35 1372.03,-85.37"/>
</a>
</g>
</g>
<!-- Node36 -->
<g id="Node000036" class="node">
<title>Node36</title>
<g id="a_Node000036"><a xlink:title=" ">
<polygon fill="#e0e0e0" stroke="#999999" points="1357,-76 1319.25,-76 1319.25,-56 1357,-56 1357,-76"/>
<text text-anchor="middle" x="1338.12" y="-62.5" font-family="Helvetica,sans-Serif" font-size="10.00">array</text>
</a>
</g>
</g>
<!-- Node35&#45;&gt;Node36 -->
<g id="edge57_Node000035_Node000036" class="edge">
<title>Node35&#45;&gt;Node36</title>
<g id="a_edge57_Node000035_Node000036"><a xlink:title=" ">
<path fill="none" stroke="#63b8ff" d="M1310.87,-111.59C1315.18,-104.55 1321.22,-94.67 1326.51,-86"/>
<polygon fill="#63b8ff" stroke="#63b8ff" points="1329.43,-87.95 1331.65,-77.59 1323.45,-84.3 1329.43,-87.95"/>
</a>
</g>
</g>
</g>
</svg>

<g id="navigator" transform="translate(0 0)" fill="#404254">
  <rect fill="#f2f5e9" fill-opacity="0.5" stroke="#606060" stroke-width=".5" x="0" y="0" width="60" height="60"/>
  <use id="zoomplus" xlink:href="#zoomPlus" x="17" y="9" onmousedown="handleZoom(evt,'in')"/>
  <use id="zoomminus" xlink:href="#zoomMin" x="42" y="9" onmousedown="handleZoom(evt,'out')"/>
  <use id="reset" xlink:href="#resetDef" x="30" y="36" onmousedown="handleReset()"/>
   <use id="arrowup" xlink:href="#arrowUp" x="0" y="0" onmousedown="handlePan(0,-1)"/>
  <use id="arrowright" xlink:href="#arrowRight" x="0" y="0" onmousedown="handlePan(1,0)"/>
  <use id="arrowdown" xlink:href="#arrowDown" x="0" y="0" onmousedown="handlePan(0,1)"/>
  <use id="arrowleft" xlink:href="#arrowLeft" x="0" y="0" onmousedown="handlePan(-1,0)"/>
</g>
<svg viewBox="0 0 15 15" width="100%" height="30px" preserveAspectRatio="xMaxYMin meet">
 <g id="arrow_out" transform="scale(0.3 0.3)">
  <a xlink:href="event__manager_8cpp__incl_org.svg" target="_base">
   <rect id="button" ry="5" rx="5" y="6" x="6" height="38" width="38"
        fill="#f2f5e9" fill-opacity="0.5" stroke="#606060" stroke-width="1.0"/>
   <path id="arrow"
     d="M 11.500037,31.436501 C 11.940474,20.09759 22.043105,11.32322 32.158766,21.979434 L 37.068811,17.246167 C 37.068811,17.246167 37.088388,32 37.088388,32 L 22.160133,31.978069 C 22.160133,31.978069 26.997745,27.140456 26.997745,27.140456 C 18.528582,18.264221 13.291696,25.230495 11.500037,31.436501 z"
     style="fill:#404040;"/>
  </a>
 </g>
</svg>

<style type='text/css'>
<![CDATA[
[data-mouse-over-selected='false'] { opacity: 0.7; }
[data-mouse-over-selected='true']  { opacity: 1.0; }
]]>
</style>
<script type="application/ecmascript"><![CDATA[
document.addEventListener('DOMContentLoaded', (event) => {
  highlightEdges();
  highlightAdjacentNodes();
});
]]></script>
</svg>
