<?xml version="1.0" encoding="UTF-8" standalone="no"?>
<!DOCTYPE svg PUBLIC "-//W3C//DTD SVG 1.1//EN"
 "http://www.w3.org/Graphics/SVG/1.1/DTD/svg11.dtd">
<!-- Generated by graphviz version 12.2.1 (20241206.2353)
 -->
<!-- Title: lib/eventman/event_manager.h Pages: 1 -->
<svg width="451pt" height="208pt"
 viewBox="0.00 0.00 451.00 208.00" xmlns="http://www.w3.org/2000/svg" xmlns:xlink="http://www.w3.org/1999/xlink">
<g id="graph0" class="graph" transform="scale(1 1) rotate(0) translate(4 204)">
<title>lib/eventman/event_manager.h</title>
<!-- Node1 -->
<g id="Node000001" class="node">
<title>Node1</title>
<g id="a_Node000001"><a xlink:title=" ">
<polygon fill="#999999" stroke="#666666" points="399.62,-200 301.12,-200 301.12,-168 399.62,-168 399.62,-200"/>
<text text-anchor="start" x="309.12" y="-186.5" font-family="Helvetica,sans-Serif" font-size="10.00">lib/eventman/event</text>
<text text-anchor="middle" x="350.38" y="-174.5" font-family="Helvetica,sans-Serif" font-size="10.00">_manager.h</text>
</a>
</g>
</g>
<!-- Node2 -->
<g id="Node000002" class="node">
<title>Node2</title>
<g id="a_Node000002"><a xlink:href="_power_manager_8h.html" target="_top" xlink:title=" ">
<polygon fill="white" stroke="#666666" points="303.12,-132 213.62,-132 213.62,-112 303.12,-112 303.12,-132"/>
<text text-anchor="middle" x="258.38" y="-118.5" font-family="Helvetica,sans-Serif" font-size="10.00">PowerManager.h</text>
</a>
</g>
</g>
<!-- Node1&#45;&gt;Node2 -->
<g id="edge1_Node000001_Node000002" class="edge">
<title>Node1&#45;&gt;Node2</title>
<g id="a_edge1_Node000001_Node000002"><a xlink:title=" ">
<path fill="none" stroke="#63b8ff" d="M326.68,-167.55C312.97,-158.61 295.78,-147.39 282.07,-138.45"/>
<polygon fill="#63b8ff" stroke="#63b8ff" points="284.36,-135.77 274.07,-133.23 280.53,-141.63 284.36,-135.77"/>
</a>
</g>
</g>
<!-- Node8 -->
<g id="Node000008" class="node">
<title>Node8</title>
<g id="a_Node000008"><a xlink:title=" ">
<polygon fill="#e0e0e0" stroke="#999999" points="339.38,-76 299.38,-76 299.38,-56 339.38,-56 339.38,-76"/>
<text text-anchor="middle" x="319.38" y="-62.5" font-family="Helvetica,sans-Serif" font-size="10.00">string</text>
</a>
</g>
</g>
<!-- Node1&#45;&gt;Node8 -->
<g id="edge12_Node000001_Node000008" class="edge">
<title>Node1&#45;&gt;Node8</title>
<g id="a_edge12_Node000001_Node000008"><a xlink:title=" ">
<path fill="none" stroke="#63b8ff" d="M346.32,-167.84C340.81,-147.22 330.95,-110.29 324.8,-87.31"/>
<polygon fill="#63b8ff" stroke="#63b8ff" points="328.25,-86.66 322.29,-77.9 321.49,-88.46 328.25,-86.66"/>
</a>
</g>
</g>
<!-- Node10 -->
<g id="Node000010" class="node">
<title>Node10</title>
<g id="a_Node000010"><a xlink:title=" ">
<polygon fill="#e0e0e0" stroke="#999999" points="429.5,-76 357.25,-76 357.25,-56 429.5,-56 429.5,-76"/>
<text text-anchor="middle" x="393.38" y="-62.5" font-family="Helvetica,sans-Serif" font-size="10.00">pico/mutex.h</text>
</a>
</g>
</g>
<!-- Node1&#45;&gt;Node10 -->
<g id="edge13_Node000001_Node000010" class="edge">
<title>Node1&#45;&gt;Node10</title>
<g id="a_edge13_Node000001_Node000010"><a xlink:title=" ">
<path fill="none" stroke="#63b8ff" d="M356,-167.84C363.67,-147.13 377.45,-109.95 385.97,-86.99"/>
<polygon fill="#63b8ff" stroke="#63b8ff" points="389.16,-88.45 389.35,-77.86 382.59,-86.02 389.16,-88.45"/>
</a>
</g>
</g>
<!-- Node11 -->
<g id="Node000011" class="node">
<title>Node11</title>
<g id="a_Node000011"><a xlink:title=" ">
<polygon fill="#e0e0e0" stroke="#999999" points="443,-132 397.75,-132 397.75,-112 443,-112 443,-132"/>
<text text-anchor="middle" x="420.38" y="-118.5" font-family="Helvetica,sans-Serif" font-size="10.00">cstdint</text>
</a>
</g>
</g>
<!-- Node1&#45;&gt;Node11 -->
<g id="edge11_Node000001_Node000011" class="edge">
<title>Node1&#45;&gt;Node11</title>
<g id="a_edge11_Node000001_Node000011"><a xlink:title=" ">
<path fill="none" stroke="#63b8ff" d="M368.4,-167.55C378.33,-159.04 390.65,-148.48 400.81,-139.77"/>
<polygon fill="#63b8ff" stroke="#63b8ff" points="402.94,-142.56 408.25,-133.39 398.38,-137.24 402.94,-142.56"/>
</a>
</g>
</g>
<!-- Node3 -->
<g id="Node000003" class="node">
<title>Node3</title>
<g id="a_Node000003"><a xlink:href="_i_n_a3221_8h.html" target="_top" xlink:title=" ">
<polygon fill="white" stroke="#666666" points="243.25,-76 139.5,-76 139.5,-56 243.25,-56 243.25,-76"/>
<text text-anchor="middle" x="191.38" y="-62.5" font-family="Helvetica,sans-Serif" font-size="10.00">INA3221/INA3221.h</text>
</a>
</g>
</g>
<!-- Node2&#45;&gt;Node3 -->
<g id="edge2_Node000002_Node000003" class="edge">
<title>Node2&#45;&gt;Node3</title>
<g id="a_edge2_Node000002_Node000003"><a xlink:title=" ">
<path fill="none" stroke="#63b8ff" d="M246.7,-111.59C237.1,-103.85 223.25,-92.69 211.81,-83.47"/>
<polygon fill="#63b8ff" stroke="#63b8ff" points="214.07,-80.8 204.09,-77.25 209.68,-86.25 214.07,-80.8"/>
</a>
</g>
</g>
<!-- Node6 -->
<g id="Node000006" class="node">
<title>Node6</title>
<g id="a_Node000006"><a xlink:title=" ">
<polygon fill="#e0e0e0" stroke="#999999" points="312.25,-20 232.5,-20 232.5,0 312.25,0 312.25,-20"/>
<text text-anchor="middle" x="272.38" y="-6.5" font-family="Helvetica,sans-Serif" font-size="10.00">hardware/i2c.h</text>
</a>
</g>
</g>
<!-- Node2&#45;&gt;Node6 -->
<g id="edge8_Node000002_Node000006" class="edge">
<title>Node2&#45;&gt;Node6</title>
<g id="a_edge8_Node000002_Node000006"><a xlink:title=" ">
<path fill="none" stroke="#63b8ff" d="M259.57,-111.62C261.81,-94.01 266.7,-55.59 269.75,-31.65"/>
<polygon fill="#63b8ff" stroke="#63b8ff" points="273.2,-32.22 270.99,-21.86 266.26,-31.33 273.2,-32.22"/>
</a>
</g>
</g>
<!-- Node7 -->
<g id="Node000007" class="node">
<title>Node7</title>
<g id="a_Node000007"><a xlink:title=" ">
<polygon fill="#e0e0e0" stroke="#999999" points="34.75,-76 0,-76 0,-56 34.75,-56 34.75,-76"/>
<text text-anchor="middle" x="17.38" y="-62.5" font-family="Helvetica,sans-Serif" font-size="10.00">map</text>
</a>
</g>
</g>
<!-- Node2&#45;&gt;Node7 -->
<g id="edge6_Node000002_Node000007" class="edge">
<title>Node2&#45;&gt;Node7</title>
<g id="a_edge6_Node000002_Node000007"><a xlink:title=" ">
<path fill="none" stroke="#63b8ff" d="M213.34,-113.08C172.17,-105.5 109.42,-93.09 46.01,-76.18"/>
<polygon fill="#63b8ff" stroke="#63b8ff" points="47.03,-72.83 36.47,-73.59 45.2,-79.59 47.03,-72.83"/>
</a>
</g>
</g>
<!-- Node2&#45;&gt;Node8 -->
<g id="edge7_Node000002_Node000008" class="edge">
<title>Node2&#45;&gt;Node8</title>
<g id="a_edge7_Node000002_Node000008"><a xlink:title=" ">
<path fill="none" stroke="#63b8ff" d="M269,-111.59C277.66,-103.93 290.11,-92.91 300.46,-83.75"/>
<polygon fill="#63b8ff" stroke="#63b8ff" points="302.57,-86.55 307.74,-77.3 297.93,-81.31 302.57,-86.55"/>
</a>
</g>
</g>
<!-- Node9 -->
<g id="Node000009" class="node">
<title>Node9</title>
<g id="a_Node000009"><a xlink:title=" ">
<polygon fill="#e0e0e0" stroke="#999999" points="121.62,-76 53.12,-76 53.12,-56 121.62,-56 121.62,-76"/>
<text text-anchor="middle" x="87.38" y="-62.5" font-family="Helvetica,sans-Serif" font-size="10.00">pico/stdlib.h</text>
</a>
</g>
</g>
<!-- Node2&#45;&gt;Node9 -->
<g id="edge9_Node000002_Node000009" class="edge">
<title>Node2&#45;&gt;Node9</title>
<g id="a_edge9_Node000002_Node000009"><a xlink:title=" ">
<path fill="none" stroke="#63b8ff" d="M228.59,-111.59C200.81,-102.82 159.12,-89.66 128.24,-79.9"/>
<polygon fill="#63b8ff" stroke="#63b8ff" points="129.43,-76.61 118.84,-76.94 127.32,-83.28 129.43,-76.61"/>
</a>
</g>
</g>
<!-- Node2&#45;&gt;Node10 -->
<g id="edge10_Node000002_Node000010" class="edge">
<title>Node2&#45;&gt;Node10</title>
<g id="a_edge10_Node000002_Node000010"><a xlink:title=" ">
<path fill="none" stroke="#63b8ff" d="M281.89,-111.59C303.25,-103.05 335.01,-90.35 359.17,-80.68"/>
<polygon fill="#63b8ff" stroke="#63b8ff" points="360.29,-84.01 368.27,-77.04 357.69,-77.51 360.29,-84.01"/>
</a>
</g>
</g>
<!-- Node4 -->
<g id="Node000004" class="node">
<title>Node4</title>
<g id="a_Node000004"><a xlink:title=" ">
<polygon fill="#e0e0e0" stroke="#999999" points="214.5,-20 166.25,-20 166.25,0 214.5,0 214.5,-20"/>
<text text-anchor="middle" x="190.38" y="-6.5" font-family="Helvetica,sans-Serif" font-size="10.00">stdint.h</text>
</a>
</g>
</g>
<!-- Node3&#45;&gt;Node4 -->
<g id="edge3_Node000003_Node000004" class="edge">
<title>Node3&#45;&gt;Node4</title>
<g id="a_edge3_Node000003_Node000004"><a xlink:title=" ">
<path fill="none" stroke="#63b8ff" d="M191.2,-55.59C191.08,-49.01 190.91,-39.96 190.76,-31.73"/>
<polygon fill="#63b8ff" stroke="#63b8ff" points="194.26,-31.75 190.58,-21.81 187.26,-31.87 194.26,-31.75"/>
</a>
</g>
</g>
<!-- Node5 -->
<g id="Node000005" class="node">
<title>Node5</title>
<g id="a_Node000005"><a xlink:title=" ">
<polygon fill="#e0e0e0" stroke="#999999" points="148.12,-20 94.62,-20 94.62,0 148.12,0 148.12,-20"/>
<text text-anchor="middle" x="121.38" y="-6.5" font-family="Helvetica,sans-Serif" font-size="10.00">iostream</text>
</a>
</g>
</g>
<!-- Node3&#45;&gt;Node5 -->
<g id="edge4_Node000003_Node000005" class="edge">
<title>Node3&#45;&gt;Node5</title>
<g id="a_edge4_Node000003_Node000005"><a xlink:title=" ">
<path fill="none" stroke="#63b8ff" d="M179.18,-55.59C169.04,-47.77 154.38,-36.46 142.36,-27.19"/>
<polygon fill="#63b8ff" stroke="#63b8ff" points="144.68,-24.56 134.63,-21.22 140.41,-30.1 144.68,-24.56"/>
</a>
</g>
</g>
<!-- Node3&#45;&gt;Node6 -->
<g id="edge5_Node000003_Node000006" class="edge">
<title>Node3&#45;&gt;Node6</title>
<g id="a_edge5_Node000003_Node000006"><a xlink:title=" ">
<path fill="none" stroke="#63b8ff" d="M205.48,-55.59C217.37,-47.67 234.64,-36.16 248.65,-26.82"/>
<polygon fill="#63b8ff" stroke="#63b8ff" points="250.52,-29.78 256.9,-21.32 246.63,-23.95 250.52,-29.78"/>
</a>
</g>
</g>
</g>
</svg>
