<?xml version="1.0" encoding="UTF-8" standalone="no"?>
<!DOCTYPE svg PUBLIC "-//W3C//DTD SVG 1.1//EN"
 "http://www.w3.org/Graphics/SVG/1.1/DTD/svg11.dtd">
<!-- Generated by graphviz version 12.2.1 (20241206.2353)
 -->
<!-- Title: check_power_events Pages: 1 -->
<svg width="482pt" height="192pt"
 viewBox="0.00 0.00 482.00 192.00" xmlns="http://www.w3.org/2000/svg" xmlns:xlink="http://www.w3.org/1999/xlink">
<g id="graph0" class="graph" transform="scale(1 1) rotate(0) translate(4 188)">
<title>check_power_events</title>
<!-- Node1 -->
<g id="Node000001" class="node">
<title>Node1</title>
<g id="a_Node000001"><a xlink:title="Checks power statuses and triggers events based on voltage trends.">
<polygon fill="#999999" stroke="#666666" points="108.25,-102 0,-102 0,-82 108.25,-82 108.25,-102"/>
<text text-anchor="middle" x="54.12" y="-88.5" font-family="Helvetica,sans-Serif" font-size="10.00">check_power_events</text>
</a>
</g>
</g>
<!-- Node2 -->
<g id="Node000002" class="node">
<title>Node2</title>
<g id="a_Node000002"><a xlink:href="class_event_emitter.html#a539d733505f9a793439a9cfc4f2af079" target="_top" xlink:title="Emits an event.">
<polygon fill="white" stroke="#666666" points="272,-184 174.25,-184 174.25,-164 272,-164 272,-184"/>
<text text-anchor="middle" x="223.12" y="-170.5" font-family="Helvetica,sans-Serif" font-size="10.00">EventEmitter::emit</text>
</a>
</g>
</g>
<!-- Node1&#45;&gt;Node2 -->
<g id="edge1_Node000001_Node000002" class="edge">
<title>Node1&#45;&gt;Node2</title>
<g id="a_edge1_Node000001_Node000002"><a xlink:title=" ">
<path fill="none" stroke="#63b8ff" d="M66.63,-102.32C82.81,-116.3 113.73,-141.1 144.25,-155 150.17,-157.7 156.53,-160.04 162.97,-162.08"/>
<polygon fill="#63b8ff" stroke="#63b8ff" points="161.78,-165.37 172.36,-164.79 163.72,-158.65 161.78,-165.37"/>
</a>
</g>
</g>
<!-- Node3 -->
<g id="Node000003" class="node">
<title>Node3</title>
<g id="a_Node000003"><a xlink:href="class_power_manager.html#a746a5447e25915240923157db1c6faf6" target="_top" xlink:title=" ">
<polygon fill="white" stroke="#666666" points="299.75,-146 146.5,-146 146.5,-126 299.75,-126 299.75,-146"/>
<text text-anchor="middle" x="223.12" y="-132.5" font-family="Helvetica,sans-Serif" font-size="10.00">PowerManager::get_voltage_5v</text>
</a>
</g>
</g>
<!-- Node1&#45;&gt;Node3 -->
<g id="edge2_Node000001_Node000003" class="edge">
<title>Node1&#45;&gt;Node3</title>
<g id="a_edge2_Node000001_Node000003"><a xlink:title=" ">
<path fill="none" stroke="#63b8ff" d="M91.47,-102.5C107.6,-107.08 126.84,-112.44 144.25,-117 151.58,-118.92 159.31,-120.88 166.94,-122.78"/>
<polygon fill="#63b8ff" stroke="#63b8ff" points="165.97,-126.15 176.52,-125.15 167.65,-119.35 165.97,-126.15"/>
</a>
</g>
</g>
<!-- Node4 -->
<g id="Node000004" class="node">
<title>Node4</title>
<g id="a_Node000004"><a xlink:href="class_power_manager.html#a3682b0fca1bb98fd44740714895cc9dd" target="_top" xlink:title=" ">
<polygon fill="white" stroke="#666666" points="291.5,-108 154.75,-108 154.75,-76 291.5,-76 291.5,-108"/>
<text text-anchor="start" x="162.75" y="-94.5" font-family="Helvetica,sans-Serif" font-size="10.00">PowerManager::is_charging</text>
<text text-anchor="middle" x="223.12" y="-82.5" font-family="Helvetica,sans-Serif" font-size="10.00">_solar</text>
</a>
</g>
</g>
<!-- Node1&#45;&gt;Node4 -->
<g id="edge3_Node000001_Node000004" class="edge">
<title>Node1&#45;&gt;Node4</title>
<g id="a_edge3_Node000001_Node000004"><a xlink:title=" ">
<path fill="none" stroke="#63b8ff" d="M108.42,-92C119.49,-92 131.38,-92 143.14,-92"/>
<polygon fill="#63b8ff" stroke="#63b8ff" points="142.84,-95.5 152.84,-92 142.84,-88.5 142.84,-95.5"/>
</a>
</g>
</g>
<!-- Node6 -->
<g id="Node000006" class="node">
<title>Node6</title>
<g id="a_Node000006"><a xlink:href="class_power_manager.html#a80bb34a3f9cd27d753252c66402c6a91" target="_top" xlink:title=" ">
<polygon fill="white" stroke="#666666" points="302,-58 144.25,-58 144.25,-38 302,-38 302,-58"/>
<text text-anchor="middle" x="223.12" y="-44.5" font-family="Helvetica,sans-Serif" font-size="10.00">PowerManager::is_charging_usb</text>
</a>
</g>
</g>
<!-- Node1&#45;&gt;Node6 -->
<g id="edge5_Node000001_Node000006" class="edge">
<title>Node1&#45;&gt;Node6</title>
<g id="a_edge5_Node000001_Node000006"><a xlink:title=" ">
<path fill="none" stroke="#63b8ff" d="M91.47,-81.5C107.6,-76.92 126.84,-71.56 144.25,-67 151.58,-65.08 159.31,-63.12 166.94,-61.22"/>
<polygon fill="#63b8ff" stroke="#63b8ff" points="167.65,-64.65 176.52,-58.85 165.97,-57.85 167.65,-64.65"/>
</a>
</g>
</g>
<!-- Node8 -->
<g id="Node000008" class="node">
<title>Node8</title>
<g id="a_Node000008"><a xlink:href="utils_8cpp.html#acd86977d05fa330749958ace0f2798de" target="_top" xlink:title="Prints a message to the UART with a timestamp and core number.">
<polygon fill="white" stroke="#666666" points="251.38,-20 194.88,-20 194.88,0 251.38,0 251.38,-20"/>
<text text-anchor="middle" x="223.12" y="-6.5" font-family="Helvetica,sans-Serif" font-size="10.00">uart_print</text>
</a>
</g>
</g>
<!-- Node1&#45;&gt;Node8 -->
<g id="edge7_Node000001_Node000008" class="edge">
<title>Node1&#45;&gt;Node8</title>
<g id="a_edge7_Node000001_Node000008"><a xlink:title=" ">
<path fill="none" stroke="#63b8ff" d="M66.63,-81.68C82.81,-67.7 113.73,-42.9 144.25,-29 156.59,-23.38 170.82,-19.28 183.72,-16.37"/>
<polygon fill="#63b8ff" stroke="#63b8ff" points="184.06,-19.87 193.14,-14.41 182.64,-13.02 184.06,-19.87"/>
</a>
</g>
</g>
<!-- Node5 -->
<g id="Node000005" class="node">
<title>Node5</title>
<g id="a_Node000005"><a xlink:href="class_power_manager.html#a16aad5c184599bdec47218d4d774ffb1" target="_top" xlink:title=" ">
<polygon fill="white" stroke="#666666" points="474,-111 338,-111 338,-79 474,-79 474,-111"/>
<text text-anchor="start" x="346" y="-97.5" font-family="Helvetica,sans-Serif" font-size="10.00">PowerManager::get_current</text>
<text text-anchor="middle" x="406" y="-85.5" font-family="Helvetica,sans-Serif" font-size="10.00">_charge_solar</text>
</a>
</g>
</g>
<!-- Node4&#45;&gt;Node5 -->
<g id="edge4_Node000004_Node000005" class="edge">
<title>Node4&#45;&gt;Node5</title>
<g id="a_edge4_Node000004_Node000005"><a xlink:title=" ">
<path fill="none" stroke="#63b8ff" d="M291.99,-93.13C303.19,-93.31 314.89,-93.51 326.33,-93.7"/>
<polygon fill="#63b8ff" stroke="#63b8ff" points="326.09,-97.19 336.14,-93.86 326.2,-90.19 326.09,-97.19"/>
</a>
</g>
</g>
<!-- Node7 -->
<g id="Node000007" class="node">
<title>Node7</title>
<g id="a_Node000007"><a xlink:href="class_power_manager.html#a2a97c08eae2bd717d95839533a52c09f" target="_top" xlink:title=" ">
<polygon fill="white" stroke="#666666" points="474,-61 338,-61 338,-29 474,-29 474,-61"/>
<text text-anchor="start" x="346" y="-47.5" font-family="Helvetica,sans-Serif" font-size="10.00">PowerManager::get_current</text>
<text text-anchor="middle" x="406" y="-35.5" font-family="Helvetica,sans-Serif" font-size="10.00">_charge_usb</text>
</a>
</g>
</g>
<!-- Node6&#45;&gt;Node7 -->
<g id="edge6_Node000006_Node000007" class="edge">
<title>Node6&#45;&gt;Node7</title>
<g id="a_edge6_Node000006_Node000007"><a xlink:title=" ">
<path fill="none" stroke="#63b8ff" d="M302.41,-46.7C310.3,-46.57 318.31,-46.44 326.21,-46.31"/>
<polygon fill="#63b8ff" stroke="#63b8ff" points="326.21,-49.81 336.15,-46.14 326.09,-42.81 326.21,-49.81"/>
</a>
</g>
</g>
</g>
</svg>
