<?xml version="1.0" encoding="UTF-8" standalone="no"?>
<!DOCTYPE svg PUBLIC "-//W3C//DTD SVG 1.1//EN"
 "http://www.w3.org/Graphics/SVG/1.1/DTD/svg11.dtd">
<!-- Generated by graphviz version 12.2.1 (20241206.2353)
 -->
<!-- Title: lib/eventman/event_manager.cpp Pages: 1 -->
<!--zoomable 320 -->

<svg id="main" version="1.1" xmlns="http://www.w3.org/2000/svg" xmlns:xlink="http://www.w3.org/1999/xlink" xml:space="preserve" onload="init(evt)">

<style type="text/css"><![CDATA[
.node, .edge {opacity: 0.7;}
.node.selected, .edge.selected {opacity: 1;}
.edge:hover path { stroke: red; }
.edge:hover polygon { stroke: red; fill: red; }
]]></style>

<defs>
  <circle id="rim" cx="0" cy="0" r="7"/>
  <circle id="rim2" cx="0" cy="0" r="3.5"/>
  <g id="zoomPlus">
    <use xlink:href="#rim" fill="#404040"><set attributeName="fill" to="#808080" begin="zoomplus.mouseover" end="zoomplus.mouseout"/></use>
    <path d="M-4,0h8M0,-4v8" fill="none" stroke="white" stroke-width="1.5" pointer-events="none"/>
  </g>
  <g id="zoomMin">
    <use xlink:href="#rim" fill="#404040"><set attributeName="fill" to="#808080" begin="zoomminus.mouseover" end="zoomminus.mouseout"/></use>
    <path d="M-4,0h8" fill="none" stroke="white" stroke-width="1.5" pointer-events="none"/>
  </g>
  <g id="arrowUp" transform="translate(30 24)">
    <use xlink:href="#rim"/>
    <path pointer-events="none" fill="none" stroke="white" stroke-width="1.5" d="M0,-3.0v7 M-2.5,-0.5L0,-3.0L2.5,-0.5"/>
  </g>
  <g id="arrowRight" transform="rotate(90) translate(36 -43)">
    <use xlink:href="#rim"/>
    <path pointer-events="none" fill="none" stroke="white" stroke-width="1.5" d="M0,-3.0v7 M-2.5,-0.5L0,-3.0L2.5,-0.5"/>
  </g>
  <g id="arrowDown" transform="rotate(180) translate(-30 -48)">
    <use xlink:href="#rim"/>
    <path pointer-events="none" fill="none" stroke="white" stroke-width="1.5" d="M0,-3.0v7 M-2.5,-0.5L0,-3.0L2.5,-0.5"/>
  </g>
  <g id="arrowLeft" transform="rotate(270) translate(-36 17)">
    <use xlink:href="#rim"/>
    <path pointer-events="none" fill="none" stroke="white" stroke-width="1.5" d="M0,-3.0v7 M-2.5,-0.5L0,-3.0L2.5,-0.5"/>
  </g>
  <g id="resetDef">
    <use xlink:href="#rim2" fill="#404040"><set attributeName="fill" to="#808080" begin="reset.mouseover" end="reset.mouseout"/></use>
  </g>
</defs>
<script type="application/ecmascript">
var viewWidth = 1388;
var viewHeight = 320;
var sectionId = 'dynsection-0';
</script>
<script type="application/ecmascript" xlink:href="svg.min.js"/>
<svg id="graph" class="graph">
<g id="viewport">
<title>lib/eventman/event_manager.cpp</title>
<!-- Node1 -->
<g id="Node000001" class="node">
<title>Node1</title>
<g id="a_Node000001"><a xlink:title="Implements the event management system for the Kubisat firmware.">
<polygon fill="#999999" stroke="#666666" points="485.72,-312 387.22,-312 387.22,-280 485.72,-280 485.72,-312"/>
<text text-anchor="start" x="395.22" y="-298.5" font-family="Helvetica,sans-Serif" font-size="10.00">lib/eventman/event</text>
<text text-anchor="middle" x="436.47" y="-286.5" font-family="Helvetica,sans-Serif" font-size="10.00">_manager.cpp</text>
</a>
</g>
</g>
<!-- Node2 -->
<g id="Node000002" class="node">
<title>Node2</title>
<g id="a_Node000002"><a xlink:href="event__manager_8h.html" target="_top" xlink:title=" ">
<polygon fill="white" stroke="#666666" points="508.97,-188 417.97,-188 417.97,-168 508.97,-168 508.97,-188"/>
<text text-anchor="middle" x="463.47" y="-174.5" font-family="Helvetica,sans-Serif" font-size="10.00">event_manager.h</text>
</a>
</g>
</g>
<!-- Node1&#45;&gt;Node2 -->
<g id="edge1_Node000001_Node000002" class="edge">
<title>Node1&#45;&gt;Node2</title>
<g id="a_edge1_Node000001_Node000002"><a xlink:title=" ">
<path fill="none" stroke="#63b8ff" d="M440,-279.84C444.77,-259.32 453.31,-222.63 458.66,-199.62"/>
<polygon fill="#63b8ff" stroke="#63b8ff" points="462.07,-200.44 460.93,-189.91 455.25,-198.86 462.07,-200.44"/>
</a>
</g>
</g>
<!-- Node13 -->
<g id="Node000013" class="node">
<title>Node13</title>
<g id="a_Node000013"><a xlink:title=" ">
<polygon fill="#e0e0e0" stroke="#999999" points="265.59,-132 223.34,-132 223.34,-112 265.59,-112 265.59,-132"/>
<text text-anchor="middle" x="244.47" y="-118.5" font-family="Helvetica,sans-Serif" font-size="10.00">cstdio</text>
</a>
</g>
</g>
<!-- Node1&#45;&gt;Node13 -->
<g id="edge14_Node000001_Node000013" class="edge">
<title>Node1&#45;&gt;Node13</title>
<g id="a_edge14_Node000001_Node000013"><a xlink:title=" ">
<path fill="none" stroke="#63b8ff" d="M419.43,-279.74C383.55,-247.6 300.48,-173.18 263.19,-139.77"/>
<polygon fill="#63b8ff" stroke="#63b8ff" points="265.66,-137.28 255.87,-133.22 260.99,-142.5 265.66,-137.28"/>
</a>
</g>
</g>
<!-- Node14 -->
<g id="Node000014" class="node">
<title>Node14</title>
<g id="a_Node000014"><a xlink:href="protocol_8h.html" target="_top" xlink:title=" ">
<polygon fill="white" stroke="#666666" points="723.84,-188 665.09,-188 665.09,-168 723.84,-168 723.84,-188"/>
<text text-anchor="middle" x="694.47" y="-174.5" font-family="Helvetica,sans-Serif" font-size="10.00">protocol.h</text>
</a>
</g>
</g>
<!-- Node1&#45;&gt;Node14 -->
<g id="edge15_Node000001_Node000014" class="edge">
<title>Node1&#45;&gt;Node14</title>
<g id="a_edge15_Node000001_Node000014"><a xlink:title=" ">
<path fill="none" stroke="#63b8ff" d="M475.2,-279.58C499.54,-269.74 531.51,-256.51 559.47,-244 596.56,-227.39 638.67,-206.84 665.85,-193.35"/>
<polygon fill="#63b8ff" stroke="#63b8ff" points="667.09,-196.64 674.48,-189.05 663.97,-190.38 667.09,-196.64"/>
</a>
</g>
</g>
<!-- Node21 -->
<g id="Node000021" class="node">
<title>Node21</title>
<g id="a_Node000021"><a xlink:href="utils_8h.html" target="_top" xlink:title=" ">
<polygon fill="white" stroke="#666666" points="433.59,-132 391.34,-132 391.34,-112 433.59,-112 433.59,-132"/>
<text text-anchor="middle" x="412.47" y="-118.5" font-family="Helvetica,sans-Serif" font-size="10.00">utils.h</text>
</a>
</g>
</g>
<!-- Node1&#45;&gt;Node21 -->
<g id="edge53_Node000001_Node000021" class="edge">
<title>Node1&#45;&gt;Node21</title>
<g id="a_edge53_Node000001_Node000021"><a xlink:title=" ">
<path fill="none" stroke="#63b8ff" d="M431.31,-279.64C424.7,-259.06 413.6,-221.27 409.47,-188 408.37,-179.18 409.17,-176.88 409.47,-168 409.73,-160.08 410.25,-151.39 410.79,-143.77"/>
<polygon fill="#63b8ff" stroke="#63b8ff" points="414.28,-144.04 411.55,-133.81 407.3,-143.51 414.28,-144.04"/>
</a>
</g>
</g>
<!-- Node33 -->
<g id="Node000033" class="node">
<title>Node33</title>
<g id="a_Node000033"><a xlink:title=" ">
<polygon fill="#e0e0e0" stroke="#999999" points="549.97,-244 464.97,-244 464.97,-224 549.97,-224 549.97,-244"/>
<text text-anchor="middle" x="507.47" y="-230.5" font-family="Helvetica,sans-Serif" font-size="10.00">pico/multicore.h</text>
</a>
</g>
</g>
<!-- Node1&#45;&gt;Node33 -->
<g id="edge47_Node000001_Node000033" class="edge">
<title>Node1&#45;&gt;Node33</title>
<g id="a_edge47_Node000001_Node000033"><a xlink:title=" ">
<path fill="none" stroke="#63b8ff" d="M454.75,-279.55C464.82,-271.04 477.32,-260.48 487.62,-251.77"/>
<polygon fill="#63b8ff" stroke="#63b8ff" points="489.8,-254.51 495.18,-245.38 485.28,-249.17 489.8,-254.51"/>
</a>
</g>
</g>
<!-- Node34 -->
<g id="Node000034" class="node">
<title>Node34</title>
<g id="a_Node000034"><a xlink:href="communication_8h.html" target="_top" xlink:title=" ">
<polygon fill="white" stroke="#666666" points="739.59,-244 649.34,-244 649.34,-224 739.59,-224 739.59,-244"/>
<text text-anchor="middle" x="694.47" y="-230.5" font-family="Helvetica,sans-Serif" font-size="10.00">communication.h</text>
</a>
</g>
</g>
<!-- Node1&#45;&gt;Node34 -->
<g id="edge48_Node000001_Node000034" class="edge">
<title>Node1&#45;&gt;Node34</title>
<g id="a_edge48_Node000001_Node000034"><a xlink:title=" ">
<path fill="none" stroke="#63b8ff" d="M486.21,-283.43C531.16,-272.98 597.08,-257.65 642.66,-247.05"/>
<polygon fill="#63b8ff" stroke="#63b8ff" points="643.36,-250.48 652.31,-244.8 641.77,-243.66 643.36,-250.48"/>
</a>
</g>
</g>
<!-- Node35 -->
<g id="Node000035" class="node">
<title>Node35</title>
<g id="a_Node000035"><a xlink:href="_d_s3231_8h.html" target="_top" xlink:title=" ">
<polygon fill="white" stroke="#666666" points="115.22,-132 55.72,-132 55.72,-112 115.22,-112 115.22,-132"/>
<text text-anchor="middle" x="85.47" y="-118.5" font-family="Helvetica,sans-Serif" font-size="10.00">DS3231.h</text>
</a>
</g>
</g>
<!-- Node1&#45;&gt;Node35 -->
<g id="edge54_Node000001_Node000035" class="edge">
<title>Node1&#45;&gt;Node35</title>
<g id="a_edge54_Node000001_Node000035"><a xlink:title=" ">
<path fill="none" stroke="#63b8ff" d="M405.01,-279.58C337.58,-246.55 179.98,-169.32 114.65,-137.3"/>
<polygon fill="#63b8ff" stroke="#63b8ff" points="116.5,-134.31 105.98,-133.05 113.42,-140.6 116.5,-134.31"/>
</a>
</g>
</g>
<!-- Node3 -->
<g id="Node000003" class="node">
<title>Node3</title>
<g id="a_Node000003"><a xlink:href="_power_manager_8h.html" target="_top" xlink:title=" ">
<polygon fill="white" stroke="#666666" points="373.22,-132 283.72,-132 283.72,-112 373.22,-112 373.22,-132"/>
<text text-anchor="middle" x="328.47" y="-118.5" font-family="Helvetica,sans-Serif" font-size="10.00">PowerManager.h</text>
</a>
</g>
</g>
<!-- Node2&#45;&gt;Node3 -->
<g id="edge2_Node000002_Node000003" class="edge">
<title>Node2&#45;&gt;Node3</title>
<g id="a_edge2_Node000002_Node000003"><a xlink:title=" ">
<path fill="none" stroke="#63b8ff" d="M439.95,-167.59C418.59,-159.05 386.83,-146.35 362.67,-136.68"/>
<polygon fill="#63b8ff" stroke="#63b8ff" points="364.15,-133.51 353.57,-133.04 361.55,-140.01 364.15,-133.51"/>
</a>
</g>
</g>
<!-- Node9 -->
<g id="Node000009" class="node">
<title>Node9</title>
<g id="a_Node000009"><a xlink:title=" ">
<polygon fill="#e0e0e0" stroke="#999999" points="698.47,-20 658.47,-20 658.47,0 698.47,0 698.47,-20"/>
<text text-anchor="middle" x="678.47" y="-6.5" font-family="Helvetica,sans-Serif" font-size="10.00">string</text>
</a>
</g>
</g>
<!-- Node2&#45;&gt;Node9 -->
<g id="edge12_Node000002_Node000009" class="edge">
<title>Node2&#45;&gt;Node9</title>
<g id="a_edge12_Node000002_Node000009"><a xlink:title=" ">
<path fill="none" stroke="#63b8ff" d="M463.04,-167.96C462.91,-153.87 464.86,-126.73 480.47,-112 539.47,-56.29 599.67,-130.86 659.47,-76 671.79,-64.69 676.29,-45.87 677.85,-31.38"/>
<polygon fill="#63b8ff" stroke="#63b8ff" points="681.33,-31.78 678.49,-21.57 674.34,-31.32 681.33,-31.78"/>
</a>
</g>
</g>
<!-- Node11 -->
<g id="Node000011" class="node">
<title>Node11</title>
<g id="a_Node000011"><a xlink:title=" ">
<polygon fill="#e0e0e0" stroke="#999999" points="535.09,-132 489.84,-132 489.84,-112 535.09,-112 535.09,-132"/>
<text text-anchor="middle" x="512.47" y="-118.5" font-family="Helvetica,sans-Serif" font-size="10.00">cstdint</text>
</a>
</g>
</g>
<!-- Node2&#45;&gt;Node11 -->
<g id="edge11_Node000002_Node000011" class="edge">
<title>Node2&#45;&gt;Node11</title>
<g id="a_edge11_Node000002_Node000011"><a xlink:title=" ">
<path fill="none" stroke="#63b8ff" d="M472,-167.59C478.75,-160.16 488.35,-149.58 496.51,-140.58"/>
<polygon fill="#63b8ff" stroke="#63b8ff" points="498.88,-143.18 503.01,-133.42 493.7,-138.47 498.88,-143.18"/>
</a>
</g>
</g>
<!-- Node12 -->
<g id="Node000012" class="node">
<title>Node12</title>
<g id="a_Node000012"><a xlink:title=" ">
<polygon fill="#e0e0e0" stroke="#999999" points="205.59,-132 133.34,-132 133.34,-112 205.59,-112 205.59,-132"/>
<text text-anchor="middle" x="169.47" y="-118.5" font-family="Helvetica,sans-Serif" font-size="10.00">pico/mutex.h</text>
</a>
</g>
</g>
<!-- Node2&#45;&gt;Node12 -->
<g id="edge13_Node000002_Node000012" class="edge">
<title>Node2&#45;&gt;Node12</title>
<g id="a_edge13_Node000002_Node000012"><a xlink:title=" ">
<path fill="none" stroke="#63b8ff" d="M417.53,-168.96C369.87,-160.56 292.88,-146.83 216.99,-132.45"/>
<polygon fill="#63b8ff" stroke="#63b8ff" points="217.77,-129.04 207.29,-130.61 216.46,-135.92 217.77,-129.04"/>
</a>
</g>
</g>
<!-- Node4 -->
<g id="Node000004" class="node">
<title>Node4</title>
<g id="a_Node000004"><a xlink:href="_i_n_a3221_8h.html" target="_top" xlink:title=" ">
<polygon fill="white" stroke="#666666" points="210.34,-76 106.59,-76 106.59,-56 210.34,-56 210.34,-76"/>
<text text-anchor="middle" x="158.47" y="-62.5" font-family="Helvetica,sans-Serif" font-size="10.00">INA3221/INA3221.h</text>
</a>
</g>
</g>
<!-- Node3&#45;&gt;Node4 -->
<g id="edge3_Node000003_Node000004" class="edge">
<title>Node3&#45;&gt;Node4</title>
<g id="a_edge3_Node000003_Node000004"><a xlink:title=" ">
<path fill="none" stroke="#63b8ff" d="M298.85,-111.59C271.23,-102.82 229.79,-89.66 199.09,-79.9"/>
<polygon fill="#63b8ff" stroke="#63b8ff" points="200.34,-76.63 189.75,-76.94 198.22,-83.3 200.34,-76.63"/>
</a>
</g>
</g>
<!-- Node7 -->
<g id="Node000007" class="node">
<title>Node7</title>
<g id="a_Node000007"><a xlink:title=" ">
<polygon fill="#e0e0e0" stroke="#999999" points="115.34,-20 35.59,-20 35.59,0 115.34,0 115.34,-20"/>
<text text-anchor="middle" x="75.47" y="-6.5" font-family="Helvetica,sans-Serif" font-size="10.00">hardware/i2c.h</text>
</a>
</g>
</g>
<!-- Node3&#45;&gt;Node7 -->
<g id="edge9_Node000003_Node000007" class="edge">
<title>Node3&#45;&gt;Node7</title>
<g id="a_edge9_Node000003_Node000007"><a xlink:title=" ">
<path fill="none" stroke="#63b8ff" d="M283.47,-113.43C218.27,-102.28 104.46,-82.12 97.47,-76 84.7,-64.84 79.33,-46 77.08,-31.47"/>
<polygon fill="#63b8ff" stroke="#63b8ff" points="80.56,-31.16 75.96,-21.61 73.61,-31.94 80.56,-31.16"/>
</a>
</g>
</g>
<!-- Node8 -->
<g id="Node000008" class="node">
<title>Node8</title>
<g id="a_Node000008"><a xlink:title=" ">
<polygon fill="#e0e0e0" stroke="#999999" points="526.84,-76 492.09,-76 492.09,-56 526.84,-56 526.84,-76"/>
<text text-anchor="middle" x="509.47" y="-62.5" font-family="Helvetica,sans-Serif" font-size="10.00">map</text>
</a>
</g>
</g>
<!-- Node3&#45;&gt;Node8 -->
<g id="edge7_Node000003_Node000008" class="edge">
<title>Node3&#45;&gt;Node8</title>
<g id="a_edge7_Node000003_Node000008"><a xlink:title=" ">
<path fill="none" stroke="#63b8ff" d="M362.79,-111.57C391.96,-103.45 435.19,-91.12 480.64,-76.8"/>
<polygon fill="#63b8ff" stroke="#63b8ff" points="481.69,-80.14 490.16,-73.77 479.57,-73.47 481.69,-80.14"/>
</a>
</g>
</g>
<!-- Node3&#45;&gt;Node9 -->
<g id="edge8_Node000003_Node000009" class="edge">
<title>Node3&#45;&gt;Node9</title>
<g id="a_edge8_Node000003_Node000009"><a xlink:title=" ">
<path fill="none" stroke="#63b8ff" d="M317.46,-111.72C302.79,-98.24 280.33,-73.02 295.47,-56 318.7,-29.87 559.1,-16.42 646.73,-12.35"/>
<polygon fill="#63b8ff" stroke="#63b8ff" points="646.7,-15.86 656.53,-11.91 646.38,-8.87 646.7,-15.86"/>
</a>
</g>
</g>
<!-- Node10 -->
<g id="Node000010" class="node">
<title>Node10</title>
<g id="a_Node000010"><a xlink:title=" ">
<polygon fill="#e0e0e0" stroke="#999999" points="372.72,-76 304.22,-76 304.22,-56 372.72,-56 372.72,-76"/>
<text text-anchor="middle" x="338.47" y="-62.5" font-family="Helvetica,sans-Serif" font-size="10.00">pico/stdlib.h</text>
</a>
</g>
</g>
<!-- Node3&#45;&gt;Node10 -->
<g id="edge10_Node000003_Node000010" class="edge">
<title>Node3&#45;&gt;Node10</title>
<g id="a_edge10_Node000003_Node000010"><a xlink:title=" ">
<path fill="none" stroke="#63b8ff" d="M330.21,-111.59C331.44,-104.93 333.14,-95.75 334.68,-87.44"/>
<polygon fill="#63b8ff" stroke="#63b8ff" points="338.09,-88.26 336.47,-77.79 331.21,-86.98 338.09,-88.26"/>
</a>
</g>
</g>
<!-- Node5 -->
<g id="Node000005" class="node">
<title>Node5</title>
<g id="a_Node000005"><a xlink:title=" ">
<polygon fill="#e0e0e0" stroke="#999999" points="447.59,-20 399.34,-20 399.34,0 447.59,0 447.59,-20"/>
<text text-anchor="middle" x="423.47" y="-6.5" font-family="Helvetica,sans-Serif" font-size="10.00">stdint.h</text>
</a>
</g>
</g>
<!-- Node4&#45;&gt;Node5 -->
<g id="edge4_Node000004_Node000005" class="edge">
<title>Node4&#45;&gt;Node5</title>
<g id="a_edge4_Node000004_Node000005"><a xlink:title=" ">
<path fill="none" stroke="#63b8ff" d="M204.93,-55.53C257.06,-44.91 340.51,-27.9 387.78,-18.27"/>
<polygon fill="#63b8ff" stroke="#63b8ff" points="388.39,-21.72 397.49,-16.29 386.99,-14.86 388.39,-21.72"/>
</a>
</g>
</g>
<!-- Node6 -->
<g id="Node000006" class="node">
<title>Node6</title>
<g id="a_Node000006"><a xlink:title=" ">
<polygon fill="#e0e0e0" stroke="#999999" points="187.22,-20 133.72,-20 133.72,0 187.22,0 187.22,-20"/>
<text text-anchor="middle" x="160.47" y="-6.5" font-family="Helvetica,sans-Serif" font-size="10.00">iostream</text>
</a>
</g>
</g>
<!-- Node4&#45;&gt;Node6 -->
<g id="edge5_Node000004_Node000006" class="edge">
<title>Node4&#45;&gt;Node6</title>
<g id="a_edge5_Node000004_Node000006"><a xlink:title=" ">
<path fill="none" stroke="#63b8ff" d="M158.81,-55.59C159.06,-49.01 159.39,-39.96 159.7,-31.73"/>
<polygon fill="#63b8ff" stroke="#63b8ff" points="163.19,-31.93 160.06,-21.81 156.2,-31.67 163.19,-31.93"/>
</a>
</g>
</g>
<!-- Node4&#45;&gt;Node7 -->
<g id="edge6_Node000004_Node000007" class="edge">
<title>Node4&#45;&gt;Node7</title>
<g id="a_edge6_Node000004_Node000007"><a xlink:title=" ">
<path fill="none" stroke="#63b8ff" d="M144.01,-55.59C131.71,-47.59 113.79,-35.93 99.36,-26.54"/>
<polygon fill="#63b8ff" stroke="#63b8ff" points="101.6,-23.82 91.3,-21.3 97.78,-29.69 101.6,-23.82"/>
</a>
</g>
</g>
<!-- Node14&#45;&gt;Node3 -->
<g id="edge24_Node000014_Node000003" class="edge">
<title>Node14&#45;&gt;Node3</title>
<g id="a_edge24_Node000014_Node000003"><a xlink:title=" ">
<path fill="none" stroke="#63b8ff" d="M664.75,-172.93C611.08,-165.55 494.13,-149.23 384.77,-132.33"/>
<polygon fill="#63b8ff" stroke="#63b8ff" points="385.45,-128.89 375.03,-130.82 384.38,-135.81 385.45,-128.89"/>
</a>
</g>
</g>
<!-- Node14&#45;&gt;Node8 -->
<g id="edge17_Node000014_Node000008" class="edge">
<title>Node14&#45;&gt;Node8</title>
<g id="a_edge17_Node000014_Node000008"><a xlink:title=" ">
<path fill="none" stroke="#63b8ff" d="M675.63,-167.64C658.23,-158.85 631.77,-145.12 609.47,-132 582.56,-116.18 552.67,-96.45 532.64,-82.91"/>
<polygon fill="#63b8ff" stroke="#63b8ff" points="534.62,-80.02 524.38,-77.29 530.68,-85.81 534.62,-80.02"/>
</a>
</g>
</g>
<!-- Node14&#45;&gt;Node9 -->
<g id="edge16_Node000014_Node000009" class="edge">
<title>Node14&#45;&gt;Node9</title>
<g id="a_edge16_Node000014_Node000009"><a xlink:title=" ">
<path fill="none" stroke="#63b8ff" d="M720.69,-167.66C736.44,-160.52 755.19,-148.99 764.47,-132 768.72,-124.2 767.54,-120.34 764.47,-112 751.51,-76.79 720.22,-45.5 699.18,-27.39"/>
<polygon fill="#63b8ff" stroke="#63b8ff" points="701.69,-24.93 691.76,-21.22 697.21,-30.31 701.69,-24.93"/>
</a>
</g>
</g>
<!-- Node14&#45;&gt;Node11 -->
<g id="edge20_Node000014_Node000011" class="edge">
<title>Node14&#45;&gt;Node11</title>
<g id="a_edge20_Node000014_Node000011"><a xlink:title=" ">
<path fill="none" stroke="#63b8ff" d="M664.82,-168.2C632.33,-158.56 580.31,-143.13 546.27,-133.03"/>
<polygon fill="#63b8ff" stroke="#63b8ff" points="547.5,-129.74 536.91,-130.25 545.5,-136.45 547.5,-129.74"/>
</a>
</g>
</g>
<!-- Node14&#45;&gt;Node13 -->
<g id="edge25_Node000014_Node000013" class="edge">
<title>Node14&#45;&gt;Node13</title>
<g id="a_edge25_Node000014_Node000013"><a xlink:title=" ">
<path fill="none" stroke="#63b8ff" d="M664.64,-175.7C597.16,-172.35 427.51,-161.69 277.22,-132.22"/>
<polygon fill="#63b8ff" stroke="#63b8ff" points="277.95,-128.8 267.46,-130.27 276.58,-135.66 277.95,-128.8"/>
</a>
</g>
</g>
<!-- Node15 -->
<g id="Node000015" class="node">
<title>Node15</title>
<g id="a_Node000015"><a xlink:title=" ">
<polygon fill="#e0e0e0" stroke="#999999" points="687.47,-132 629.47,-132 629.47,-112 687.47,-112 687.47,-132"/>
<text text-anchor="middle" x="658.47" y="-118.5" font-family="Helvetica,sans-Serif" font-size="10.00">functional</text>
</a>
</g>
</g>
<!-- Node14&#45;&gt;Node15 -->
<g id="edge18_Node000014_Node000015" class="edge">
<title>Node14&#45;&gt;Node15</title>
<g id="a_edge18_Node000014_Node000015"><a xlink:title=" ">
<path fill="none" stroke="#63b8ff" d="M688.19,-167.59C683.45,-160.47 676.77,-150.45 670.94,-141.72"/>
<polygon fill="#63b8ff" stroke="#63b8ff" points="673.96,-139.94 665.5,-133.56 668.14,-143.82 673.96,-139.94"/>
</a>
</g>
</g>
<!-- Node16 -->
<g id="Node000016" class="node">
<title>Node16</title>
<g id="a_Node000016"><a xlink:title=" ">
<polygon fill="#e0e0e0" stroke="#999999" points="1271.97,-132 1228.97,-132 1228.97,-112 1271.97,-112 1271.97,-132"/>
<text text-anchor="middle" x="1250.47" y="-118.5" font-family="Helvetica,sans-Serif" font-size="10.00">vector</text>
</a>
</g>
</g>
<!-- Node14&#45;&gt;Node16 -->
<g id="edge19_Node000014_Node000016" class="edge">
<title>Node14&#45;&gt;Node16</title>
<g id="a_edge19_Node000014_Node000016"><a xlink:title=" ">
<path fill="none" stroke="#63b8ff" d="M724.05,-176.5C802.86,-174.74 1024.42,-167 1217.37,-132"/>
<polygon fill="#63b8ff" stroke="#63b8ff" points="1217.89,-135.47 1227.09,-130.21 1216.62,-128.58 1217.89,-135.47"/>
</a>
</g>
</g>
<!-- Node17 -->
<g id="Node000017" class="node">
<title>Node17</title>
<g id="a_Node000017"><a xlink:title=" ">
<polygon fill="#e0e0e0" stroke="#999999" points="755.34,-132 705.59,-132 705.59,-112 755.34,-112 755.34,-132"/>
<text text-anchor="middle" x="730.47" y="-118.5" font-family="Helvetica,sans-Serif" font-size="10.00">iomanip</text>
</a>
</g>
</g>
<!-- Node14&#45;&gt;Node17 -->
<g id="edge21_Node000014_Node000017" class="edge">
<title>Node14&#45;&gt;Node17</title>
<g id="a_edge21_Node000014_Node000017"><a xlink:title=" ">
<path fill="none" stroke="#63b8ff" d="M700.74,-167.59C705.49,-160.47 712.16,-150.45 717.99,-141.72"/>
<polygon fill="#63b8ff" stroke="#63b8ff" points="720.79,-143.82 723.43,-133.56 714.97,-139.94 720.79,-143.82"/>
</a>
</g>
</g>
<!-- Node18 -->
<g id="Node000018" class="node">
<title>Node18</title>
<g id="a_Node000018"><a xlink:href="pin__config_8h.html" target="_top" xlink:title=" ">
<polygon fill="white" stroke="#666666" points="650.72,-76 582.22,-76 582.22,-56 650.72,-56 650.72,-76"/>
<text text-anchor="middle" x="616.47" y="-62.5" font-family="Helvetica,sans-Serif" font-size="10.00">pin_config.h</text>
</a>
</g>
</g>
<!-- Node14&#45;&gt;Node18 -->
<g id="edge22_Node000014_Node000018" class="edge">
<title>Node14&#45;&gt;Node18</title>
<g id="a_edge22_Node000014_Node000018"><a xlink:title=" ">
<path fill="none" stroke="#63b8ff" d="M666.42,-167.52C650.07,-160.43 630.72,-148.99 620.47,-132 612.42,-118.66 611.87,-100.85 613.09,-87.24"/>
<polygon fill="#63b8ff" stroke="#63b8ff" points="616.51,-88.05 614.34,-77.68 609.57,-87.14 616.51,-88.05"/>
</a>
</g>
</g>
<!-- Node19 -->
<g id="Node000019" class="node">
<title>Node19</title>
<g id="a_Node000019"><a xlink:title=" ">
<polygon fill="#e0e0e0" stroke="#999999" points="855.72,-132 811.22,-132 811.22,-112 855.72,-112 855.72,-132"/>
<text text-anchor="middle" x="833.47" y="-118.5" font-family="Helvetica,sans-Serif" font-size="10.00">cstdlib</text>
</a>
</g>
</g>
<!-- Node14&#45;&gt;Node19 -->
<g id="edge26_Node000014_Node000019" class="edge">
<title>Node14&#45;&gt;Node19</title>
<g id="a_edge26_Node000014_Node000019"><a xlink:title=" ">
<path fill="none" stroke="#63b8ff" d="M718.68,-167.59C741.31,-158.8 775.28,-145.6 800.41,-135.84"/>
<polygon fill="#63b8ff" stroke="#63b8ff" points="801.45,-139.19 809.5,-132.31 798.91,-132.67 801.45,-139.19"/>
</a>
</g>
</g>
<!-- Node20 -->
<g id="Node000020" class="node">
<title>Node20</title>
<g id="a_Node000020"><a xlink:title=" ">
<polygon fill="#e0e0e0" stroke="#999999" points="919.09,-132 873.84,-132 873.84,-112 919.09,-112 919.09,-132"/>
<text text-anchor="middle" x="896.47" y="-118.5" font-family="Helvetica,sans-Serif" font-size="10.00">cstring</text>
</a>
</g>
</g>
<!-- Node14&#45;&gt;Node20 -->
<g id="edge27_Node000014_Node000020" class="edge">
<title>Node14&#45;&gt;Node20</title>
<g id="a_edge27_Node000014_Node000020"><a xlink:title=" ">
<path fill="none" stroke="#63b8ff" d="M724.29,-169.25C756.14,-160.95 808.37,-147.24 862.55,-132.49"/>
<polygon fill="#63b8ff" stroke="#63b8ff" points="863.22,-135.94 871.94,-129.93 861.38,-129.19 863.22,-135.94"/>
</a>
</g>
</g>
<!-- Node14&#45;&gt;Node21 -->
<g id="edge28_Node000014_Node000021" class="edge">
<title>Node14&#45;&gt;Node21</title>
<g id="a_edge28_Node000014_Node000021"><a xlink:title=" ">
<path fill="none" stroke="#63b8ff" d="M664.82,-171.32C611.59,-161.13 500.25,-139.81 445,-129.23"/>
<polygon fill="#63b8ff" stroke="#63b8ff" points="445.75,-125.81 435.27,-127.37 444.44,-132.69 445.75,-125.81"/>
</a>
</g>
</g>
<!-- Node24 -->
<g id="Node000024" class="node">
<title>Node24</title>
<g id="a_Node000024"><a xlink:title=" ">
<polygon fill="#e0e0e0" stroke="#999999" points="979.97,-132 936.97,-132 936.97,-112 979.97,-112 979.97,-132"/>
<text text-anchor="middle" x="958.47" y="-118.5" font-family="Helvetica,sans-Serif" font-size="10.00">time.h</text>
</a>
</g>
</g>
<!-- Node14&#45;&gt;Node24 -->
<g id="edge34_Node000014_Node000024" class="edge">
<title>Node14&#45;&gt;Node24</title>
<g id="a_edge34_Node000014_Node000024"><a xlink:title=" ">
<path fill="none" stroke="#63b8ff" d="M724.23,-172.27C766.88,-165.28 848.03,-151.19 925.65,-132.51"/>
<polygon fill="#63b8ff" stroke="#63b8ff" points="926.23,-135.97 935.11,-130.2 924.57,-129.17 926.23,-135.97"/>
</a>
</g>
</g>
<!-- Node25 -->
<g id="Node000025" class="node">
<title>Node25</title>
<g id="a_Node000025"><a xlink:href="build__number_8h.html" target="_top" xlink:title=" ">
<polygon fill="white" stroke="#666666" points="1080.47,-132 998.47,-132 998.47,-112 1080.47,-112 1080.47,-132"/>
<text text-anchor="middle" x="1039.47" y="-118.5" font-family="Helvetica,sans-Serif" font-size="10.00">build_number.h</text>
</a>
</g>
</g>
<!-- Node14&#45;&gt;Node25 -->
<g id="edge35_Node000014_Node000025" class="edge">
<title>Node14&#45;&gt;Node25</title>
<g id="a_edge35_Node000014_Node000025"><a xlink:title=" ">
<path fill="none" stroke="#63b8ff" d="M724.24,-172.73C775.63,-165.29 884.6,-149.28 986.86,-132.4"/>
<polygon fill="#63b8ff" stroke="#63b8ff" points="987.22,-135.89 996.52,-130.8 986.08,-128.98 987.22,-135.89"/>
</a>
</g>
</g>
<!-- Node26 -->
<g id="Node000026" class="node">
<title>Node26</title>
<g id="a_Node000026"><a xlink:href="_lo_ra-_r_p2040_8h.html" target="_top" xlink:title=" ">
<polygon fill="white" stroke="#666666" points="1210.47,-132 1098.47,-132 1098.47,-112 1210.47,-112 1210.47,-132"/>
<text text-anchor="middle" x="1154.47" y="-118.5" font-family="Helvetica,sans-Serif" font-size="10.00">LoRa/LoRa&#45;RP2040.h</text>
</a>
</g>
</g>
<!-- Node14&#45;&gt;Node26 -->
<g id="edge36_Node000014_Node000026" class="edge">
<title>Node14&#45;&gt;Node26</title>
<g id="a_edge36_Node000014_Node000026"><a xlink:title=" ">
<path fill="none" stroke="#63b8ff" d="M724.23,-173.86C788.43,-167.03 944.98,-150.08 1087.03,-132.28"/>
<polygon fill="#63b8ff" stroke="#63b8ff" points="1087.12,-135.8 1096.6,-131.08 1086.25,-128.85 1087.12,-135.8"/>
</a>
</g>
</g>
<!-- Node18&#45;&gt;Node5 -->
<g id="edge23_Node000018_Node000005" class="edge">
<title>Node18&#45;&gt;Node5</title>
<g id="a_edge23_Node000018_Node000005"><a xlink:title=" ">
<path fill="none" stroke="#63b8ff" d="M582.85,-55.59C548.06,-45.86 493.95,-30.72 458.61,-20.83"/>
<polygon fill="#63b8ff" stroke="#63b8ff" points="459.87,-17.55 449.3,-18.23 457.99,-24.29 459.87,-17.55"/>
</a>
</g>
</g>
<!-- Node21&#45;&gt;Node9 -->
<g id="edge30_Node000021_Node000009" class="edge">
<title>Node21&#45;&gt;Node9</title>
<g id="a_edge30_Node000021_Node000009"><a xlink:title=" ">
<path fill="none" stroke="#63b8ff" d="M433.7,-114.2C458.49,-106.03 500.55,-91.49 535.47,-76 552.91,-68.26 556.24,-64.21 573.47,-56 598.05,-44.28 626.47,-32.19 647.54,-23.49"/>
<polygon fill="#63b8ff" stroke="#63b8ff" points="648.8,-26.76 656.72,-19.73 646.14,-20.28 648.8,-26.76"/>
</a>
</g>
</g>
<!-- Node21&#45;&gt;Node10 -->
<g id="edge31_Node000021_Node000010" class="edge">
<title>Node21&#45;&gt;Node10</title>
<g id="a_edge31_Node000021_Node000010"><a xlink:title=" ">
<path fill="none" stroke="#63b8ff" d="M399.58,-111.59C388.75,-103.7 373.05,-92.24 360.28,-82.92"/>
<polygon fill="#63b8ff" stroke="#63b8ff" points="362.57,-80.26 352.43,-77.19 358.44,-85.91 362.57,-80.26"/>
</a>
</g>
</g>
<!-- Node21&#45;&gt;Node18 -->
<g id="edge33_Node000021_Node000018" class="edge">
<title>Node21&#45;&gt;Node18</title>
<g id="a_edge33_Node000021_Node000018"><a xlink:title=" ">
<path fill="none" stroke="#63b8ff" d="M433.91,-115.32C466.21,-106.77 528.11,-90.39 570.81,-79.08"/>
<polygon fill="#63b8ff" stroke="#63b8ff" points="571.53,-82.51 580.3,-76.57 569.74,-75.75 571.53,-82.51"/>
</a>
</g>
</g>
<!-- Node22 -->
<g id="Node000022" class="node">
<title>Node22</title>
<g id="a_Node000022"><a xlink:title=" ">
<polygon fill="#e0e0e0" stroke="#999999" points="1047.09,-20 1001.84,-20 1001.84,0 1047.09,0 1047.09,-20"/>
<text text-anchor="middle" x="1024.47" y="-6.5" font-family="Helvetica,sans-Serif" font-size="10.00">stdio.h</text>
</a>
</g>
</g>
<!-- Node21&#45;&gt;Node22 -->
<g id="edge29_Node000021_Node000022" class="edge">
<title>Node21&#45;&gt;Node22</title>
<g id="a_edge29_Node000021_Node000022"><a xlink:title=" ">
<path fill="none" stroke="#63b8ff" d="M433.89,-117.15C524.72,-100.82 878.52,-37.23 990.37,-17.13"/>
<polygon fill="#63b8ff" stroke="#63b8ff" points="990.9,-20.59 1000.12,-15.38 989.66,-13.7 990.9,-20.59"/>
</a>
</g>
</g>
<!-- Node23 -->
<g id="Node000023" class="node">
<title>Node23</title>
<g id="a_Node000023"><a xlink:title=" ">
<polygon fill="#e0e0e0" stroke="#999999" points="474.22,-76 390.72,-76 390.72,-56 474.22,-56 474.22,-76"/>
<text text-anchor="middle" x="432.47" y="-62.5" font-family="Helvetica,sans-Serif" font-size="10.00">hardware/uart.h</text>
</a>
</g>
</g>
<!-- Node21&#45;&gt;Node23 -->
<g id="edge32_Node000021_Node000023" class="edge">
<title>Node21&#45;&gt;Node23</title>
<g id="a_edge32_Node000021_Node000023"><a xlink:title=" ">
<path fill="none" stroke="#63b8ff" d="M415.95,-111.59C418.47,-104.78 421.98,-95.32 425.11,-86.86"/>
<polygon fill="#63b8ff" stroke="#63b8ff" points="428.3,-88.31 428.5,-77.72 421.74,-85.88 428.3,-88.31"/>
</a>
</g>
</g>
<!-- Node26&#45;&gt;Node10 -->
<g id="edge37_Node000026_Node000010" class="edge">
<title>Node26&#45;&gt;Node10</title>
<g id="a_edge37_Node000026_Node000010"><a xlink:title=" ">
<path fill="none" stroke="#63b8ff" d="M1098.13,-112.9C1095.2,-112.57 1092.3,-112.27 1089.47,-112 779.46,-82.71 695.89,-115.61 384.3,-76.17"/>
<polygon fill="#63b8ff" stroke="#63b8ff" points="384.99,-72.73 374.62,-74.93 384.1,-79.67 384.99,-72.73"/>
</a>
</g>
</g>
<!-- Node26&#45;&gt;Node18 -->
<g id="edge46_Node000026_Node000018" class="edge">
<title>Node26&#45;&gt;Node18</title>
<g id="a_edge46_Node000026_Node000018"><a xlink:title=" ">
<path fill="none" stroke="#63b8ff" d="M1098.11,-113.05C1095.19,-112.68 1092.29,-112.33 1089.47,-112 932.96,-93.73 746.67,-77.67 662.17,-70.69"/>
<polygon fill="#63b8ff" stroke="#63b8ff" points="662.7,-67.23 652.45,-69.9 662.13,-74.2 662.7,-67.23"/>
</a>
</g>
</g>
<!-- Node27 -->
<g id="Node000027" class="node">
<title>Node27</title>
<g id="a_Node000027"><a xlink:title=" ">
<polygon fill="#e0e0e0" stroke="#999999" points="1272.72,-76 1180.22,-76 1180.22,-56 1272.72,-56 1272.72,-76"/>
<text text-anchor="middle" x="1226.47" y="-62.5" font-family="Helvetica,sans-Serif" font-size="10.00">pico/binary_info.h</text>
</a>
</g>
</g>
<!-- Node26&#45;&gt;Node27 -->
<g id="edge38_Node000026_Node000027" class="edge">
<title>Node26&#45;&gt;Node27</title>
<g id="a_edge38_Node000026_Node000027"><a xlink:title=" ">
<path fill="none" stroke="#63b8ff" d="M1167.01,-111.59C1177.43,-103.77 1192.51,-92.46 1204.88,-83.19"/>
<polygon fill="#63b8ff" stroke="#63b8ff" points="1206.96,-86.01 1212.86,-77.21 1202.76,-80.41 1206.96,-86.01"/>
</a>
</g>
</g>
<!-- Node28 -->
<g id="Node000028" class="node">
<title>Node28</title>
<g id="a_Node000028"><a xlink:title=" ">
<polygon fill="#e0e0e0" stroke="#999999" points="998.97,-76 913.97,-76 913.97,-56 998.97,-56 998.97,-76"/>
<text text-anchor="middle" x="956.47" y="-62.5" font-family="Helvetica,sans-Serif" font-size="10.00">hardware/gpio.h</text>
</a>
</g>
</g>
<!-- Node26&#45;&gt;Node28 -->
<g id="edge39_Node000026_Node000028" class="edge">
<title>Node26&#45;&gt;Node28</title>
<g id="a_edge39_Node000026_Node000028"><a xlink:title=" ">
<path fill="none" stroke="#63b8ff" d="M1119.98,-111.59C1087.24,-102.67 1037.84,-89.19 1001.91,-79.39"/>
<polygon fill="#63b8ff" stroke="#63b8ff" points="1003.25,-76.13 992.68,-76.88 1001.41,-82.89 1003.25,-76.13"/>
</a>
</g>
</g>
<!-- Node29 -->
<g id="Node000029" class="node">
<title>Node29</title>
<g id="a_Node000029"><a xlink:title=" ">
<polygon fill="#e0e0e0" stroke="#999999" points="1096.34,-76 1016.59,-76 1016.59,-56 1096.34,-56 1096.34,-76"/>
<text text-anchor="middle" x="1056.47" y="-62.5" font-family="Helvetica,sans-Serif" font-size="10.00">hardware/spi.h</text>
</a>
</g>
</g>
<!-- Node26&#45;&gt;Node29 -->
<g id="edge40_Node000026_Node000029" class="edge">
<title>Node26&#45;&gt;Node29</title>
<g id="a_edge40_Node000026_Node000029"><a xlink:title=" ">
<path fill="none" stroke="#63b8ff" d="M1137.4,-111.59C1122.59,-103.44 1100.9,-91.48 1083.7,-82"/>
<polygon fill="#63b8ff" stroke="#63b8ff" points="1085.44,-78.97 1074.99,-77.21 1082.06,-85.1 1085.44,-78.97"/>
</a>
</g>
</g>
<!-- Node30 -->
<g id="Node000030" class="node">
<title>Node30</title>
<g id="a_Node000030"><a xlink:title=" ">
<polygon fill="#e0e0e0" stroke="#999999" points="1162.59,-76 1114.34,-76 1114.34,-56 1162.59,-56 1162.59,-76"/>
<text text-anchor="middle" x="1138.47" y="-62.5" font-family="Helvetica,sans-Serif" font-size="10.00">string.h</text>
</a>
</g>
</g>
<!-- Node26&#45;&gt;Node30 -->
<g id="edge41_Node000026_Node000030" class="edge">
<title>Node26&#45;&gt;Node30</title>
<g id="a_edge41_Node000026_Node000030"><a xlink:title=" ">
<path fill="none" stroke="#63b8ff" d="M1151.68,-111.59C1149.68,-104.86 1146.92,-95.53 1144.44,-87.15"/>
<polygon fill="#63b8ff" stroke="#63b8ff" points="1147.85,-86.34 1141.65,-77.75 1141.14,-88.33 1147.85,-86.34"/>
</a>
</g>
</g>
<!-- Node31 -->
<g id="Node000031" class="node">
<title>Node31</title>
<g id="a_Node000031"><a xlink:href="_print_8h.html" target="_top" xlink:title=" ">
<polygon fill="white" stroke="#666666" points="1372.72,-76 1328.22,-76 1328.22,-56 1372.72,-56 1372.72,-76"/>
<text text-anchor="middle" x="1350.47" y="-62.5" font-family="Helvetica,sans-Serif" font-size="10.00">Print.h</text>
</a>
</g>
</g>
<!-- Node26&#45;&gt;Node31 -->
<g id="edge42_Node000026_Node000031" class="edge">
<title>Node26&#45;&gt;Node31</title>
<g id="a_edge42_Node000026_Node000031"><a xlink:title=" ">
<path fill="none" stroke="#63b8ff" d="M1188.61,-111.59C1224.63,-101.67 1281.05,-86.13 1316.86,-76.26"/>
<polygon fill="#63b8ff" stroke="#63b8ff" points="1317.55,-79.7 1326.26,-73.67 1315.69,-72.95 1317.55,-79.7"/>
</a>
</g>
</g>
<!-- Node31&#45;&gt;Node9 -->
<g id="edge45_Node000031_Node000009" class="edge">
<title>Node31&#45;&gt;Node9</title>
<g id="a_edge45_Node000031_Node000009"><a xlink:title=" ">
<path fill="none" stroke="#63b8ff" d="M1327.74,-58.68C1323.36,-57.65 1318.79,-56.69 1314.47,-56 1084.82,-19.46 803.81,-12.59 710.36,-11.3"/>
<polygon fill="#63b8ff" stroke="#63b8ff" points="710.49,-7.8 700.45,-11.17 710.4,-14.8 710.49,-7.8"/>
</a>
</g>
</g>
<!-- Node31&#45;&gt;Node22 -->
<g id="edge44_Node000031_Node000022" class="edge">
<title>Node31&#45;&gt;Node22</title>
<g id="a_edge44_Node000031_Node000022"><a xlink:title=" ">
<path fill="none" stroke="#63b8ff" d="M1328.07,-59.07C1323.58,-57.97 1318.89,-56.89 1314.47,-56 1222.77,-37.46 1113.42,-22.37 1058.92,-15.31"/>
<polygon fill="#63b8ff" stroke="#63b8ff" points="1059.39,-11.84 1049.03,-14.04 1058.5,-18.79 1059.39,-11.84"/>
</a>
</g>
</g>
<!-- Node32 -->
<g id="Node000032" class="node">
<title>Node32</title>
<g id="a_Node000032"><a xlink:title=" ">
<polygon fill="#e0e0e0" stroke="#999999" points="1379.84,-20 1321.09,-20 1321.09,0 1379.84,0 1379.84,-20"/>
<text text-anchor="middle" x="1350.47" y="-6.5" font-family="Helvetica,sans-Serif" font-size="10.00">inttypes.h</text>
</a>
</g>
</g>
<!-- Node31&#45;&gt;Node32 -->
<g id="edge43_Node000031_Node000032" class="edge">
<title>Node31&#45;&gt;Node32</title>
<g id="a_edge43_Node000031_Node000032"><a xlink:title=" ">
<path fill="none" stroke="#63b8ff" d="M1350.47,-55.59C1350.47,-49.01 1350.47,-39.96 1350.47,-31.73"/>
<polygon fill="#63b8ff" stroke="#63b8ff" points="1353.97,-31.81 1350.47,-21.81 1346.97,-31.81 1353.97,-31.81"/>
</a>
</g>
</g>
<!-- Node34&#45;&gt;Node2 -->
<g id="edge52_Node000034_Node000002" class="edge">
<title>Node34&#45;&gt;Node2</title>
<g id="a_edge52_Node000034_Node000002"><a xlink:title=" ">
<path fill="none" stroke="#63b8ff" d="M653.96,-223.53C615.32,-214.5 556.95,-200.85 515.01,-191.05"/>
<polygon fill="#63b8ff" stroke="#63b8ff" points="515.93,-187.67 505.39,-188.8 514.33,-194.49 515.93,-187.67"/>
</a>
</g>
</g>
<!-- Node34&#45;&gt;Node9 -->
<g id="edge49_Node000034_Node000009" class="edge">
<title>Node34&#45;&gt;Node9</title>
<g id="a_edge49_Node000034_Node000009"><a xlink:title=" ">
<path fill="none" stroke="#63b8ff" d="M739.86,-233.7C902.66,-234.84 1439.32,-226.08 1281.47,-56 1261.85,-34.87 831.77,-16.86 710.21,-12.18"/>
<polygon fill="#63b8ff" stroke="#63b8ff" points="710.44,-8.69 700.32,-11.81 710.18,-15.68 710.44,-8.69"/>
</a>
</g>
</g>
<!-- Node34&#45;&gt;Node14 -->
<g id="edge51_Node000034_Node000014" class="edge">
<title>Node34&#45;&gt;Node14</title>
<g id="a_edge51_Node000034_Node000014"><a xlink:title=" ">
<path fill="none" stroke="#63b8ff" d="M694.47,-223.59C694.47,-217.01 694.47,-207.96 694.47,-199.73"/>
<polygon fill="#63b8ff" stroke="#63b8ff" points="697.97,-199.81 694.47,-189.81 690.97,-199.81 697.97,-199.81"/>
</a>
</g>
</g>
<!-- Node34&#45;&gt;Node16 -->
<g id="edge50_Node000034_Node000016" class="edge">
<title>Node34&#45;&gt;Node16</title>
<g id="a_edge50_Node000034_Node000016"><a xlink:title=" ">
<path fill="none" stroke="#63b8ff" d="M740.06,-225.69C829.71,-211 1035.28,-175.77 1217.39,-132.32"/>
<polygon fill="#63b8ff" stroke="#63b8ff" points="1218.14,-135.74 1227.05,-130 1216.5,-128.93 1218.14,-135.74"/>
</a>
</g>
</g>
<!-- Node35&#45;&gt;Node7 -->
<g id="edge58_Node000035_Node000007" class="edge">
<title>Node35&#45;&gt;Node7</title>
<g id="a_edge58_Node000035_Node000007"><a xlink:title=" ">
<path fill="none" stroke="#63b8ff" d="M55.31,-112.99C36.82,-106.35 14.63,-94.87 3.47,-76 -9.01,-54.92 15.94,-36.81 39.81,-25.1"/>
<polygon fill="#63b8ff" stroke="#63b8ff" points="41.21,-28.31 48.84,-20.96 38.29,-21.95 41.21,-28.31"/>
</a>
</g>
</g>
<!-- Node35&#45;&gt;Node9 -->
<g id="edge55_Node000035_Node000009" class="edge">
<title>Node35&#45;&gt;Node9</title>
<g id="a_edge55_Node000035_Node000009"><a xlink:title=" ">
<path fill="none" stroke="#63b8ff" d="M113.65,-111.54C164.8,-94.43 269.26,-59.73 286.47,-56 418.5,-27.37 579.76,-16.14 646.84,-12.5"/>
<polygon fill="#63b8ff" stroke="#63b8ff" points="646.93,-16 656.73,-11.98 646.57,-9.01 646.93,-16"/>
</a>
</g>
</g>
<!-- Node35&#45;&gt;Node10 -->
<g id="edge57_Node000035_Node000010" class="edge">
<title>Node35&#45;&gt;Node10</title>
<g id="a_edge57_Node000035_Node000010"><a xlink:title=" ">
<path fill="none" stroke="#63b8ff" d="M115.69,-113.96C118.65,-113.29 121.62,-112.63 124.47,-112 182.49,-99.2 249.56,-85.23 292.92,-76.31"/>
<polygon fill="#63b8ff" stroke="#63b8ff" points="293.38,-79.79 302.47,-74.35 291.97,-72.93 293.38,-79.79"/>
</a>
</g>
</g>
<!-- Node36 -->
<g id="Node000036" class="node">
<title>Node36</title>
<g id="a_Node000036"><a xlink:title=" ">
<polygon fill="#e0e0e0" stroke="#999999" points="50.34,-76 12.59,-76 12.59,-56 50.34,-56 50.34,-76"/>
<text text-anchor="middle" x="31.47" y="-62.5" font-family="Helvetica,sans-Serif" font-size="10.00">array</text>
</a>
</g>
</g>
<!-- Node35&#45;&gt;Node36 -->
<g id="edge56_Node000035_Node000036" class="edge">
<title>Node35&#45;&gt;Node36</title>
<g id="a_edge56_Node000035_Node000036"><a xlink:title=" ">
<path fill="none" stroke="#63b8ff" d="M76.06,-111.59C68.55,-104.08 57.82,-93.35 48.77,-84.3"/>
<polygon fill="#63b8ff" stroke="#63b8ff" points="51.38,-81.96 41.83,-77.37 46.43,-86.91 51.38,-81.96"/>
</a>
</g>
</g>
</g>
</svg>

<g id="navigator" transform="translate(0 0)" fill="#404254">
  <rect fill="#f2f5e9" fill-opacity="0.5" stroke="#606060" stroke-width=".5" x="0" y="0" width="60" height="60"/>
  <use id="zoomplus" xlink:href="#zoomPlus" x="17" y="9" onmousedown="handleZoom(evt,'in')"/>
  <use id="zoomminus" xlink:href="#zoomMin" x="42" y="9" onmousedown="handleZoom(evt,'out')"/>
  <use id="reset" xlink:href="#resetDef" x="30" y="36" onmousedown="handleReset()"/>
   <use id="arrowup" xlink:href="#arrowUp" x="0" y="0" onmousedown="handlePan(0,-1)"/>
  <use id="arrowright" xlink:href="#arrowRight" x="0" y="0" onmousedown="handlePan(1,0)"/>
  <use id="arrowdown" xlink:href="#arrowDown" x="0" y="0" onmousedown="handlePan(0,1)"/>
  <use id="arrowleft" xlink:href="#arrowLeft" x="0" y="0" onmousedown="handlePan(-1,0)"/>
</g>
<svg viewBox="0 0 15 15" width="100%" height="30px" preserveAspectRatio="xMaxYMin meet">
 <g id="arrow_out" transform="scale(0.3 0.3)">
  <a xlink:href="event__manager_8cpp__incl_org.svg" target="_base">
   <rect id="button" ry="5" rx="5" y="6" x="6" height="38" width="38"
        fill="#f2f5e9" fill-opacity="0.5" stroke="#606060" stroke-width="1.0"/>
   <path id="arrow"
     d="M 11.500037,31.436501 C 11.940474,20.09759 22.043105,11.32322 32.158766,21.979434 L 37.068811,17.246167 C 37.068811,17.246167 37.088388,32 37.088388,32 L 22.160133,31.978069 C 22.160133,31.978069 26.997745,27.140456 26.997745,27.140456 C 18.528582,18.264221 13.291696,25.230495 11.500037,31.436501 z"
     style="fill:#404040;"/>
  </a>
 </g>
</svg>

<style type='text/css'>
<![CDATA[
[data-mouse-over-selected='false'] { opacity: 0.7; }
[data-mouse-over-selected='true']  { opacity: 1.0; }
]]>
</style>
<script type="application/ecmascript"><![CDATA[
document.addEventListener('DOMContentLoaded', (event) => {
  highlightEdges();
  highlightAdjacentNodes();
});
]]></script>
</svg>
