<?xml version="1.0" encoding="UTF-8" standalone="no"?>
<!DOCTYPE svg PUBLIC "-//W3C//DTD SVG 1.1//EN"
 "http://www.w3.org/Graphics/SVG/1.1/DTD/svg11.dtd">
<!-- Generated by graphviz version 12.2.1 (20241206.2353)
 -->
<!-- Title: checkPowerEvents Pages: 1 -->
<svg width="477pt" height="180pt"
 viewBox="0.00 0.00 476.75 180.00" xmlns="http://www.w3.org/2000/svg" xmlns:xlink="http://www.w3.org/1999/xlink">
<g id="graph0" class="graph" transform="scale(1 1) rotate(0) translate(4 176)">
<title>checkPowerEvents</title>
<!-- Node1 -->
<g id="Node000001" class="node">
<title>Node1</title>
<g id="a_Node000001"><a xlink:title="Checks power statuses and triggers events based on voltage trends.">
<polygon fill="#999999" stroke="#666666" points="100.75,-96 0,-96 0,-76 100.75,-76 100.75,-96"/>
<text text-anchor="middle" x="50.38" y="-82.5" font-family="Helvetica,sans-Serif" font-size="10.00">checkPowerEvents</text>
</a>
</g>
</g>
<!-- Node2 -->
<g id="Node000002" class="node">
<title>Node2</title>
<g id="a_Node000002"><a xlink:href="class_event_emitter.html#a539d733505f9a793439a9cfc4f2af079" target="_top" xlink:title="Emits an event.">
<polygon fill="white" stroke="#666666" points="267.12,-172 169.38,-172 169.38,-152 267.12,-152 267.12,-172"/>
<text text-anchor="middle" x="218.25" y="-158.5" font-family="Helvetica,sans-Serif" font-size="10.00">EventEmitter::emit</text>
</a>
</g>
</g>
<!-- Node1&#45;&gt;Node2 -->
<g id="edge1_Node000001_Node000002" class="edge">
<title>Node1&#45;&gt;Node2</title>
<g id="a_edge1_Node000001_Node000002"><a xlink:title=" ">
<path fill="none" stroke="#63b8ff" d="M63.84,-96.43C79.76,-109.25 108.64,-130.77 136.75,-143 143.48,-145.93 150.74,-148.44 158.04,-150.6"/>
<polygon fill="#63b8ff" stroke="#63b8ff" points="157.06,-153.96 167.63,-153.19 158.89,-147.2 157.06,-153.96"/>
</a>
</g>
</g>
<!-- Node3 -->
<g id="Node000003" class="node">
<title>Node3</title>
<g id="a_Node000003"><a xlink:href="class_power_manager.html#ae0e4303ddaba328047fb40d8d925c7dd" target="_top" xlink:title=" ">
<polygon fill="white" stroke="#666666" points="290.75,-134 145.75,-134 145.75,-114 290.75,-114 290.75,-134"/>
<text text-anchor="middle" x="218.25" y="-120.5" font-family="Helvetica,sans-Serif" font-size="10.00">PowerManager::getVoltage5V</text>
</a>
</g>
</g>
<!-- Node1&#45;&gt;Node3 -->
<g id="edge2_Node000001_Node000003" class="edge">
<title>Node1&#45;&gt;Node3</title>
<g id="a_edge2_Node000001_Node000003"><a xlink:title=" ">
<path fill="none" stroke="#63b8ff" d="M97.14,-96.48C116.72,-100.97 139.79,-106.25 160.44,-110.99"/>
<polygon fill="#63b8ff" stroke="#63b8ff" points="159.63,-114.39 170.16,-113.21 161.19,-107.57 159.63,-114.39"/>
</a>
</g>
</g>
<!-- Node4 -->
<g id="Node000004" class="node">
<title>Node4</title>
<g id="a_Node000004"><a xlink:href="class_power_manager.html#a33ea0aaa75b4654b0ee05250119bf083" target="_top" xlink:title=" ">
<polygon fill="white" stroke="#666666" points="290.75,-96 145.75,-96 145.75,-76 290.75,-76 290.75,-96"/>
<text text-anchor="middle" x="218.25" y="-82.5" font-family="Helvetica,sans-Serif" font-size="10.00">PowerManager::isSolarActive</text>
</a>
</g>
</g>
<!-- Node1&#45;&gt;Node4 -->
<g id="edge3_Node000001_Node000004" class="edge">
<title>Node1&#45;&gt;Node4</title>
<g id="a_edge3_Node000001_Node000004"><a xlink:title=" ">
<path fill="none" stroke="#63b8ff" d="M101.14,-86C111.59,-86 122.88,-86 134.18,-86"/>
<polygon fill="#63b8ff" stroke="#63b8ff" points="133.93,-89.5 143.93,-86 133.93,-82.5 133.93,-89.5"/>
</a>
</g>
</g>
<!-- Node6 -->
<g id="Node000006" class="node">
<title>Node6</title>
<g id="a_Node000006"><a xlink:href="class_power_manager.html#a0548ae14a668bb06e4cc13e0295ad5c8" target="_top" xlink:title=" ">
<polygon fill="white" stroke="#666666" points="299.75,-58 136.75,-58 136.75,-38 299.75,-38 299.75,-58"/>
<text text-anchor="middle" x="218.25" y="-44.5" font-family="Helvetica,sans-Serif" font-size="10.00">PowerManager::isUSBConnected</text>
</a>
</g>
</g>
<!-- Node1&#45;&gt;Node6 -->
<g id="edge5_Node000001_Node000006" class="edge">
<title>Node1&#45;&gt;Node6</title>
<g id="a_edge5_Node000001_Node000006"><a xlink:title=" ">
<path fill="none" stroke="#63b8ff" d="M97.14,-75.52C116.72,-71.03 139.79,-65.75 160.44,-61.01"/>
<polygon fill="#63b8ff" stroke="#63b8ff" points="161.19,-64.43 170.16,-58.79 159.63,-57.61 161.19,-64.43"/>
</a>
</g>
</g>
<!-- Node8 -->
<g id="Node000008" class="node">
<title>Node8</title>
<g id="a_Node000008"><a xlink:href="utils_8cpp.html#aacbcecbe6b5428e3571b06ab2104e706" target="_top" xlink:title="Prints a message to the UART with a timestamp and core number.">
<polygon fill="white" stroke="#666666" points="244.62,-20 191.88,-20 191.88,0 244.62,0 244.62,-20"/>
<text text-anchor="middle" x="218.25" y="-6.5" font-family="Helvetica,sans-Serif" font-size="10.00">uartPrint</text>
</a>
</g>
</g>
<!-- Node1&#45;&gt;Node8 -->
<g id="edge7_Node000001_Node000008" class="edge">
<title>Node1&#45;&gt;Node8</title>
<g id="a_edge7_Node000001_Node000008"><a xlink:title=" ">
<path fill="none" stroke="#63b8ff" d="M63.84,-75.57C79.76,-62.75 108.64,-41.23 136.75,-29 150.43,-23.05 166.27,-18.8 180.26,-15.85"/>
<polygon fill="#63b8ff" stroke="#63b8ff" points="180.85,-19.3 190,-13.96 179.52,-12.43 180.85,-19.3"/>
</a>
</g>
</g>
<!-- Node5 -->
<g id="Node000005" class="node">
<title>Node5</title>
<g id="a_Node000005"><a xlink:href="class_power_manager.html#a097734aac2bcc228d6cf22c00e3acb1a" target="_top" xlink:title=" ">
<polygon fill="white" stroke="#666666" points="468.75,-108 335.75,-108 335.75,-76 468.75,-76 468.75,-108"/>
<text text-anchor="start" x="343.75" y="-94.5" font-family="Helvetica,sans-Serif" font-size="10.00">PowerManager::getCurrent</text>
<text text-anchor="middle" x="402.25" y="-82.5" font-family="Helvetica,sans-Serif" font-size="10.00">ChargeSolar</text>
</a>
</g>
</g>
<!-- Node4&#45;&gt;Node5 -->
<g id="edge4_Node000004_Node000005" class="edge">
<title>Node4&#45;&gt;Node5</title>
<g id="a_edge4_Node000004_Node000005"><a xlink:title=" ">
<path fill="none" stroke="#63b8ff" d="M291.18,-88.37C302.02,-88.73 313.24,-89.1 324.18,-89.46"/>
<polygon fill="#63b8ff" stroke="#63b8ff" points="323.84,-92.95 333.95,-89.78 324.07,-85.95 323.84,-92.95"/>
</a>
</g>
</g>
<!-- Node7 -->
<g id="Node000007" class="node">
<title>Node7</title>
<g id="a_Node000007"><a xlink:href="class_power_manager.html#a3f9587ee81469642a2e595ef3805e801" target="_top" xlink:title=" ">
<polygon fill="white" stroke="#666666" points="468.75,-58 335.75,-58 335.75,-26 468.75,-26 468.75,-58"/>
<text text-anchor="start" x="343.75" y="-44.5" font-family="Helvetica,sans-Serif" font-size="10.00">PowerManager::getCurrent</text>
<text text-anchor="middle" x="402.25" y="-32.5" font-family="Helvetica,sans-Serif" font-size="10.00">ChargeUSB</text>
</a>
</g>
</g>
<!-- Node6&#45;&gt;Node7 -->
<g id="edge6_Node000006_Node000007" class="edge">
<title>Node6&#45;&gt;Node7</title>
<g id="a_edge6_Node000006_Node000007"><a xlink:title=" ">
<path fill="none" stroke="#63b8ff" d="M300.14,-45.33C308.05,-45.07 316.06,-44.81 323.93,-44.55"/>
<polygon fill="#63b8ff" stroke="#63b8ff" points="323.95,-48.05 333.83,-44.22 323.72,-41.05 323.95,-48.05"/>
</a>
</g>
</g>
</g>
</svg>
