<?xml version="1.0" encoding="UTF-8" standalone="no"?>
<!DOCTYPE svg PUBLIC "-//W3C//DTD SVG 1.1//EN"
 "http://www.w3.org/Graphics/SVG/1.1/DTD/svg11.dtd">
<!-- Generated by graphviz version 12.2.1 (20241206.2353)
 -->
<!-- Title: lib/eventman/event_manager.cpp Pages: 1 -->
<!--zoomable 320 -->

<svg id="main" version="1.1" xmlns="http://www.w3.org/2000/svg" xmlns:xlink="http://www.w3.org/1999/xlink" xml:space="preserve" onload="init(evt)">

<style type="text/css"><![CDATA[
.node, .edge {opacity: 0.7;}
.node.selected, .edge.selected {opacity: 1;}
.edge:hover path { stroke: red; }
.edge:hover polygon { stroke: red; fill: red; }
]]></style>

<defs>
  <circle id="rim" cx="0" cy="0" r="7"/>
  <circle id="rim2" cx="0" cy="0" r="3.5"/>
  <g id="zoomPlus">
    <use xlink:href="#rim" fill="#404040"><set attributeName="fill" to="#808080" begin="zoomplus.mouseover" end="zoomplus.mouseout"/></use>
    <path d="M-4,0h8M0,-4v8" fill="none" stroke="white" stroke-width="1.5" pointer-events="none"/>
  </g>
  <g id="zoomMin">
    <use xlink:href="#rim" fill="#404040"><set attributeName="fill" to="#808080" begin="zoomminus.mouseover" end="zoomminus.mouseout"/></use>
    <path d="M-4,0h8" fill="none" stroke="white" stroke-width="1.5" pointer-events="none"/>
  </g>
  <g id="arrowUp" transform="translate(30 24)">
    <use xlink:href="#rim"/>
    <path pointer-events="none" fill="none" stroke="white" stroke-width="1.5" d="M0,-3.0v7 M-2.5,-0.5L0,-3.0L2.5,-0.5"/>
  </g>
  <g id="arrowRight" transform="rotate(90) translate(36 -43)">
    <use xlink:href="#rim"/>
    <path pointer-events="none" fill="none" stroke="white" stroke-width="1.5" d="M0,-3.0v7 M-2.5,-0.5L0,-3.0L2.5,-0.5"/>
  </g>
  <g id="arrowDown" transform="rotate(180) translate(-30 -48)">
    <use xlink:href="#rim"/>
    <path pointer-events="none" fill="none" stroke="white" stroke-width="1.5" d="M0,-3.0v7 M-2.5,-0.5L0,-3.0L2.5,-0.5"/>
  </g>
  <g id="arrowLeft" transform="rotate(270) translate(-36 17)">
    <use xlink:href="#rim"/>
    <path pointer-events="none" fill="none" stroke="white" stroke-width="1.5" d="M0,-3.0v7 M-2.5,-0.5L0,-3.0L2.5,-0.5"/>
  </g>
  <g id="resetDef">
    <use xlink:href="#rim2" fill="#404040"><set attributeName="fill" to="#808080" begin="reset.mouseover" end="reset.mouseout"/></use>
  </g>
</defs>
<script type="application/ecmascript">
var viewWidth = 1403;
var viewHeight = 320;
var sectionId = 'dynsection-0';
</script>
<script type="application/ecmascript" xlink:href="svg.min.js"/>
<svg id="graph" class="graph">
<g id="viewport">
<title>lib/eventman/event_manager.cpp</title>
<!-- Node1 -->
<g id="Node000001" class="node">
<title>Node1</title>
<g id="a_Node000001"><a xlink:title="Implements the event management system for the Kubisat firmware.">
<polygon fill="#999999" stroke="#666666" points="859.38,-312 760.88,-312 760.88,-280 859.38,-280 859.38,-312"/>
<text text-anchor="start" x="768.88" y="-298.5" font-family="Helvetica,sans-Serif" font-size="10.00">lib/eventman/event</text>
<text text-anchor="middle" x="810.12" y="-286.5" font-family="Helvetica,sans-Serif" font-size="10.00">_manager.cpp</text>
</a>
</g>
</g>
<!-- Node2 -->
<g id="Node000002" class="node">
<title>Node2</title>
<g id="a_Node000002"><a xlink:href="event__manager_8h.html" target="_top" xlink:title=" ">
<polygon fill="white" stroke="#666666" points="355.62,-188 264.62,-188 264.62,-168 355.62,-168 355.62,-188"/>
<text text-anchor="middle" x="310.12" y="-174.5" font-family="Helvetica,sans-Serif" font-size="10.00">event_manager.h</text>
</a>
</g>
</g>
<!-- Node1&#45;&gt;Node2 -->
<g id="edge1_Node000001_Node000002" class="edge">
<title>Node1&#45;&gt;Node2</title>
<g id="a_edge1_Node000001_Node000002"><a xlink:title=" ">
<path fill="none" stroke="#63b8ff" d="M760.64,-294.67C685.5,-292.8 539.01,-283.81 422.12,-244 388.32,-232.49 353.35,-210.24 331.67,-195.01"/>
<polygon fill="#63b8ff" stroke="#63b8ff" points="333.82,-192.24 323.66,-189.25 329.74,-197.93 333.82,-192.24"/>
</a>
</g>
</g>
<!-- Node13 -->
<g id="Node000013" class="node">
<title>Node13</title>
<g id="a_Node000013"><a xlink:title=" ">
<polygon fill="#e0e0e0" stroke="#999999" points="1348.25,-132 1306,-132 1306,-112 1348.25,-112 1348.25,-132"/>
<text text-anchor="middle" x="1327.12" y="-118.5" font-family="Helvetica,sans-Serif" font-size="10.00">cstdio</text>
</a>
</g>
</g>
<!-- Node1&#45;&gt;Node13 -->
<g id="edge15_Node000001_Node000013" class="edge">
<title>Node1&#45;&gt;Node13</title>
<g id="a_edge15_Node000001_Node000013"><a xlink:title=" ">
<path fill="none" stroke="#63b8ff" d="M830.67,-279.56C852.88,-263.55 889.87,-238.82 925.12,-224 1078.77,-159.44 1130.62,-176.15 1294.57,-132.58"/>
<polygon fill="#63b8ff" stroke="#63b8ff" points="1295.33,-136 1304.07,-130.01 1293.5,-129.24 1295.33,-136"/>
</a>
</g>
</g>
<!-- Node14 -->
<g id="Node000014" class="node">
<title>Node14</title>
<g id="a_Node000014"><a xlink:href="protocol_8h.html" target="_top" xlink:title=" ">
<polygon fill="white" stroke="#666666" points="839.5,-188 780.75,-188 780.75,-168 839.5,-168 839.5,-188"/>
<text text-anchor="middle" x="810.12" y="-174.5" font-family="Helvetica,sans-Serif" font-size="10.00">protocol.h</text>
</a>
</g>
</g>
<!-- Node1&#45;&gt;Node14 -->
<g id="edge16_Node000001_Node000014" class="edge">
<title>Node1&#45;&gt;Node14</title>
<g id="a_edge16_Node000001_Node000014"><a xlink:title=" ">
<path fill="none" stroke="#63b8ff" d="M810.12,-279.84C810.12,-259.41 810.12,-222.97 810.12,-199.95"/>
<polygon fill="#63b8ff" stroke="#63b8ff" points="813.63,-199.95 810.13,-189.95 806.63,-199.95 813.63,-199.95"/>
</a>
</g>
</g>
<!-- Node21 -->
<g id="Node000021" class="node">
<title>Node21</title>
<g id="a_Node000021"><a xlink:href="utils_8h.html" target="_top" xlink:title=" ">
<polygon fill="white" stroke="#666666" points="1288.25,-132 1246,-132 1246,-112 1288.25,-112 1288.25,-132"/>
<text text-anchor="middle" x="1267.12" y="-118.5" font-family="Helvetica,sans-Serif" font-size="10.00">utils.h</text>
</a>
</g>
</g>
<!-- Node1&#45;&gt;Node21 -->
<g id="edge54_Node000001_Node000021" class="edge">
<title>Node1&#45;&gt;Node21</title>
<g id="a_edge54_Node000001_Node000021"><a xlink:title=" ">
<path fill="none" stroke="#63b8ff" d="M814.92,-279.67C824.46,-252.03 848.63,-194.25 891.12,-168 954.13,-129.08 1144.4,-145.62 1234.38,-131.96"/>
<polygon fill="#63b8ff" stroke="#63b8ff" points="1234.88,-135.42 1244.13,-130.24 1233.67,-128.53 1234.88,-135.42"/>
</a>
</g>
</g>
<!-- Node33 -->
<g id="Node000033" class="node">
<title>Node33</title>
<g id="a_Node000033"><a xlink:title=" ">
<polygon fill="#e0e0e0" stroke="#999999" points="1018.62,-244 933.62,-244 933.62,-224 1018.62,-224 1018.62,-244"/>
<text text-anchor="middle" x="976.12" y="-230.5" font-family="Helvetica,sans-Serif" font-size="10.00">pico/multicore.h</text>
</a>
</g>
</g>
<!-- Node1&#45;&gt;Node33 -->
<g id="edge48_Node000001_Node000033" class="edge">
<title>Node1&#45;&gt;Node33</title>
<g id="a_edge48_Node000001_Node000033"><a xlink:title=" ">
<path fill="none" stroke="#63b8ff" d="M852.87,-279.55C879.65,-269.87 913.8,-257.53 939.37,-248.29"/>
<polygon fill="#63b8ff" stroke="#63b8ff" points="940.46,-251.61 948.67,-244.92 938.08,-245.03 940.46,-251.61"/>
</a>
</g>
</g>
<!-- Node34 -->
<g id="Node000034" class="node">
<title>Node34</title>
<g id="a_Node000034"><a xlink:href="communication_8h.html" target="_top" xlink:title=" ">
<polygon fill="white" stroke="#666666" points="521.25,-244 431,-244 431,-224 521.25,-224 521.25,-244"/>
<text text-anchor="middle" x="476.12" y="-230.5" font-family="Helvetica,sans-Serif" font-size="10.00">communication.h</text>
</a>
</g>
</g>
<!-- Node1&#45;&gt;Node34 -->
<g id="edge49_Node000001_Node000034" class="edge">
<title>Node1&#45;&gt;Node34</title>
<g id="a_edge49_Node000001_Node000034"><a xlink:title=" ">
<path fill="none" stroke="#63b8ff" d="M760.48,-286.08C699.62,-275.15 596.72,-256.66 532.81,-245.18"/>
<polygon fill="#63b8ff" stroke="#63b8ff" points="533.69,-241.79 523.23,-243.46 532.46,-248.68 533.69,-241.79"/>
</a>
</g>
</g>
<!-- Node35 -->
<g id="Node000035" class="node">
<title>Node35</title>
<g id="a_Node000035"><a xlink:href="_d_s3231_8h.html" target="_top" xlink:title=" ">
<polygon fill="white" stroke="#666666" points="613.88,-132 554.38,-132 554.38,-112 613.88,-112 613.88,-132"/>
<text text-anchor="middle" x="584.12" y="-118.5" font-family="Helvetica,sans-Serif" font-size="10.00">DS3231.h</text>
</a>
</g>
</g>
<!-- Node1&#45;&gt;Node35 -->
<g id="edge55_Node000001_Node000035" class="edge">
<title>Node1&#45;&gt;Node35</title>
<g id="a_edge55_Node000001_Node000035"><a xlink:title=" ">
<path fill="none" stroke="#63b8ff" d="M790.07,-279.74C747.68,-247.47 649.28,-172.59 605.64,-139.37"/>
<polygon fill="#63b8ff" stroke="#63b8ff" points="607.77,-136.6 597.69,-133.33 603.53,-142.17 607.77,-136.6"/>
</a>
</g>
</g>
<!-- Node3 -->
<g id="Node000003" class="node">
<title>Node3</title>
<g id="a_Node000003"><a xlink:href="_power_manager_8h.html" target="_top" xlink:title=" ">
<polygon fill="white" stroke="#666666" points="397.88,-132 308.38,-132 308.38,-112 397.88,-112 397.88,-132"/>
<text text-anchor="middle" x="353.12" y="-118.5" font-family="Helvetica,sans-Serif" font-size="10.00">PowerManager.h</text>
</a>
</g>
</g>
<!-- Node2&#45;&gt;Node3 -->
<g id="edge2_Node000002_Node000003" class="edge">
<title>Node2&#45;&gt;Node3</title>
<g id="a_edge2_Node000002_Node000003"><a xlink:title=" ">
<path fill="none" stroke="#63b8ff" d="M317.62,-167.59C323.41,-160.32 331.61,-150.02 338.67,-141.15"/>
<polygon fill="#63b8ff" stroke="#63b8ff" points="341.29,-143.49 344.78,-133.48 335.81,-139.12 341.29,-143.49"/>
</a>
</g>
</g>
<!-- Node9 -->
<g id="Node000009" class="node">
<title>Node9</title>
<g id="a_Node000009"><a xlink:title=" ">
<polygon fill="#e0e0e0" stroke="#999999" points="540.12,-20 500.12,-20 500.12,0 540.12,0 540.12,-20"/>
<text text-anchor="middle" x="520.12" y="-6.5" font-family="Helvetica,sans-Serif" font-size="10.00">string</text>
</a>
</g>
</g>
<!-- Node2&#45;&gt;Node9 -->
<g id="edge13_Node000002_Node000009" class="edge">
<title>Node2&#45;&gt;Node9</title>
<g id="a_edge13_Node000002_Node000009"><a xlink:title=" ">
<path fill="none" stroke="#63b8ff" d="M283.67,-167.55C256.9,-156.4 221.43,-136.28 236.12,-112 263.16,-67.34 420.56,-30.94 488.7,-17.06"/>
<polygon fill="#63b8ff" stroke="#63b8ff" points="489.36,-20.5 498.48,-15.1 487.99,-13.63 489.36,-20.5"/>
</a>
</g>
</g>
<!-- Node11 -->
<g id="Node000011" class="node">
<title>Node11</title>
<g id="a_Node000011"><a xlink:title=" ">
<polygon fill="#e0e0e0" stroke="#999999" points="72.25,-76 0,-76 0,-56 72.25,-56 72.25,-76"/>
<text text-anchor="middle" x="36.12" y="-62.5" font-family="Helvetica,sans-Serif" font-size="10.00">pico/mutex.h</text>
</a>
</g>
</g>
<!-- Node2&#45;&gt;Node11 -->
<g id="edge14_Node000002_Node000011" class="edge">
<title>Node2&#45;&gt;Node11</title>
<g id="a_edge14_Node000002_Node000011"><a xlink:title=" ">
<path fill="none" stroke="#63b8ff" d="M286.76,-167.62C238.23,-148.14 126.34,-103.22 69.93,-80.57"/>
<polygon fill="#63b8ff" stroke="#63b8ff" points="71.42,-77.4 60.83,-76.92 68.81,-83.89 71.42,-77.4"/>
</a>
</g>
</g>
<!-- Node12 -->
<g id="Node000012" class="node">
<title>Node12</title>
<g id="a_Node000012"><a xlink:title=" ">
<polygon fill="#e0e0e0" stroke="#999999" points="290.75,-132 245.5,-132 245.5,-112 290.75,-112 290.75,-132"/>
<text text-anchor="middle" x="268.12" y="-118.5" font-family="Helvetica,sans-Serif" font-size="10.00">cstdint</text>
</a>
</g>
</g>
<!-- Node2&#45;&gt;Node12 -->
<g id="edge12_Node000002_Node000012" class="edge">
<title>Node2&#45;&gt;Node12</title>
<g id="a_edge12_Node000002_Node000012"><a xlink:title=" ">
<path fill="none" stroke="#63b8ff" d="M302.81,-167.59C297.15,-160.32 289.14,-150.02 282.24,-141.15"/>
<polygon fill="#63b8ff" stroke="#63b8ff" points="285.19,-139.24 276.29,-133.49 279.66,-143.54 285.19,-139.24"/>
</a>
</g>
</g>
<!-- Node4 -->
<g id="Node000004" class="node">
<title>Node4</title>
<g id="a_Node000004"><a xlink:href="_i_n_a3221_8h.html" target="_top" xlink:title=" ">
<polygon fill="white" stroke="#666666" points="270,-76 166.25,-76 166.25,-56 270,-56 270,-76"/>
<text text-anchor="middle" x="218.12" y="-62.5" font-family="Helvetica,sans-Serif" font-size="10.00">INA3221/INA3221.h</text>
</a>
</g>
</g>
<!-- Node3&#45;&gt;Node4 -->
<g id="edge3_Node000003_Node000004" class="edge">
<title>Node3&#45;&gt;Node4</title>
<g id="a_edge3_Node000003_Node000004"><a xlink:title=" ">
<path fill="none" stroke="#63b8ff" d="M329.61,-111.59C308.25,-103.05 276.49,-90.35 252.33,-80.68"/>
<polygon fill="#63b8ff" stroke="#63b8ff" points="253.81,-77.51 243.23,-77.04 251.21,-84.01 253.81,-77.51"/>
</a>
</g>
</g>
<!-- Node7 -->
<g id="Node000007" class="node">
<title>Node7</title>
<g id="a_Node000007"><a xlink:title=" ">
<polygon fill="#e0e0e0" stroke="#999999" points="175,-20 95.25,-20 95.25,0 175,0 175,-20"/>
<text text-anchor="middle" x="135.12" y="-6.5" font-family="Helvetica,sans-Serif" font-size="10.00">hardware/i2c.h</text>
</a>
</g>
</g>
<!-- Node3&#45;&gt;Node7 -->
<g id="edge9_Node000003_Node000007" class="edge">
<title>Node3&#45;&gt;Node7</title>
<g id="a_edge9_Node000003_Node000007"><a xlink:title=" ">
<path fill="none" stroke="#63b8ff" d="M308.06,-112.88C242.19,-100.92 127.06,-79.57 124.12,-76 113.68,-63.31 118.42,-44.4 124.59,-30.24"/>
<polygon fill="#63b8ff" stroke="#63b8ff" points="127.63,-32 128.91,-21.48 121.35,-28.9 127.63,-32"/>
</a>
</g>
</g>
<!-- Node8 -->
<g id="Node000008" class="node">
<title>Node8</title>
<g id="a_Node000008"><a xlink:title=" ">
<polygon fill="#e0e0e0" stroke="#999999" points="398.5,-76 363.75,-76 363.75,-56 398.5,-56 398.5,-76"/>
<text text-anchor="middle" x="381.12" y="-62.5" font-family="Helvetica,sans-Serif" font-size="10.00">map</text>
</a>
</g>
</g>
<!-- Node3&#45;&gt;Node8 -->
<g id="edge7_Node000003_Node000008" class="edge">
<title>Node3&#45;&gt;Node8</title>
<g id="a_edge7_Node000003_Node000008"><a xlink:title=" ">
<path fill="none" stroke="#63b8ff" d="M358,-111.59C361.62,-104.63 366.67,-94.89 371.12,-86.29"/>
<polygon fill="#63b8ff" stroke="#63b8ff" points="374.11,-88.13 375.61,-77.64 367.9,-84.91 374.11,-88.13"/>
</a>
</g>
</g>
<!-- Node3&#45;&gt;Node9 -->
<g id="edge8_Node000003_Node000009" class="edge">
<title>Node3&#45;&gt;Node9</title>
<g id="a_edge8_Node000003_Node000009"><a xlink:title=" ">
<path fill="none" stroke="#63b8ff" d="M350.34,-111.89C346.76,-98.18 342.4,-72.14 355.12,-56 371.55,-35.17 445.44,-21.49 488.57,-15.13"/>
<polygon fill="#63b8ff" stroke="#63b8ff" points="488.94,-18.62 498.35,-13.75 487.95,-11.69 488.94,-18.62"/>
</a>
</g>
</g>
<!-- Node10 -->
<g id="Node000010" class="node">
<title>Node10</title>
<g id="a_Node000010"><a xlink:title=" ">
<polygon fill="#e0e0e0" stroke="#999999" points="678.38,-76 609.88,-76 609.88,-56 678.38,-56 678.38,-76"/>
<text text-anchor="middle" x="644.12" y="-62.5" font-family="Helvetica,sans-Serif" font-size="10.00">pico/stdlib.h</text>
</a>
</g>
</g>
<!-- Node3&#45;&gt;Node10 -->
<g id="edge10_Node000003_Node000010" class="edge">
<title>Node3&#45;&gt;Node10</title>
<g id="a_edge10_Node000003_Node000010"><a xlink:title=" ">
<path fill="none" stroke="#63b8ff" d="M398.25,-113.08C445.49,-104.72 522.12,-90.98 598.32,-76.31"/>
<polygon fill="#63b8ff" stroke="#63b8ff" points="598.91,-79.76 608.07,-74.43 597.58,-72.89 598.91,-79.76"/>
</a>
</g>
</g>
<!-- Node3&#45;&gt;Node11 -->
<g id="edge11_Node000003_Node000011" class="edge">
<title>Node3&#45;&gt;Node11</title>
<g id="a_edge11_Node000003_Node000011"><a xlink:title=" ">
<path fill="none" stroke="#63b8ff" d="M308.02,-113.34C305.35,-112.88 302.7,-112.44 300.12,-112 205.03,-95.93 181.14,-92.54 86.12,-76 85.31,-75.86 84.49,-75.71 83.66,-75.57"/>
<polygon fill="#63b8ff" stroke="#63b8ff" points="84.66,-72.19 74.2,-73.9 83.44,-79.08 84.66,-72.19"/>
</a>
</g>
</g>
<!-- Node5 -->
<g id="Node000005" class="node">
<title>Node5</title>
<g id="a_Node000005"><a xlink:title=" ">
<polygon fill="#e0e0e0" stroke="#999999" points="397.25,-20 349,-20 349,0 397.25,0 397.25,-20"/>
<text text-anchor="middle" x="373.12" y="-6.5" font-family="Helvetica,sans-Serif" font-size="10.00">stdint.h</text>
</a>
</g>
</g>
<!-- Node4&#45;&gt;Node5 -->
<g id="edge4_Node000004_Node000005" class="edge">
<title>Node4&#45;&gt;Node5</title>
<g id="a_edge4_Node000004_Node000005"><a xlink:title=" ">
<path fill="none" stroke="#63b8ff" d="M245.12,-55.59C271,-46.58 310.19,-32.92 338.39,-23.1"/>
<polygon fill="#63b8ff" stroke="#63b8ff" points="339.26,-26.5 347.55,-19.91 336.96,-19.89 339.26,-26.5"/>
</a>
</g>
</g>
<!-- Node6 -->
<g id="Node000006" class="node">
<title>Node6</title>
<g id="a_Node000006"><a xlink:title=" ">
<polygon fill="#e0e0e0" stroke="#999999" points="246.88,-20 193.38,-20 193.38,0 246.88,0 246.88,-20"/>
<text text-anchor="middle" x="220.12" y="-6.5" font-family="Helvetica,sans-Serif" font-size="10.00">iostream</text>
</a>
</g>
</g>
<!-- Node4&#45;&gt;Node6 -->
<g id="edge5_Node000004_Node000006" class="edge">
<title>Node4&#45;&gt;Node6</title>
<g id="a_edge5_Node000004_Node000006"><a xlink:title=" ">
<path fill="none" stroke="#63b8ff" d="M218.47,-55.59C218.72,-49.01 219.05,-39.96 219.36,-31.73"/>
<polygon fill="#63b8ff" stroke="#63b8ff" points="222.85,-31.93 219.72,-21.81 215.86,-31.67 222.85,-31.93"/>
</a>
</g>
</g>
<!-- Node4&#45;&gt;Node7 -->
<g id="edge6_Node000004_Node000007" class="edge">
<title>Node4&#45;&gt;Node7</title>
<g id="a_edge6_Node000004_Node000007"><a xlink:title=" ">
<path fill="none" stroke="#63b8ff" d="M203.67,-55.59C191.37,-47.59 173.45,-35.93 159.02,-26.54"/>
<polygon fill="#63b8ff" stroke="#63b8ff" points="161.25,-23.82 150.96,-21.3 157.44,-29.69 161.25,-23.82"/>
</a>
</g>
</g>
<!-- Node14&#45;&gt;Node3 -->
<g id="edge25_Node000014_Node000003" class="edge">
<title>Node14&#45;&gt;Node3</title>
<g id="a_edge25_Node000014_Node000003"><a xlink:title=" ">
<path fill="none" stroke="#63b8ff" d="M780.49,-173.5C705.53,-164.64 507.38,-141.23 409.49,-129.66"/>
<polygon fill="#63b8ff" stroke="#63b8ff" points="410.19,-126.22 399.85,-128.52 409.37,-133.17 410.19,-126.22"/>
</a>
</g>
</g>
<!-- Node14&#45;&gt;Node8 -->
<g id="edge18_Node000014_Node000008" class="edge">
<title>Node14&#45;&gt;Node8</title>
<g id="a_edge18_Node000014_Node000008"><a xlink:title=" ">
<path fill="none" stroke="#63b8ff" d="M780.4,-174.92C730.61,-170.79 627.71,-159.46 545.12,-132 526.64,-125.85 523.99,-119.76 506.12,-112 473.65,-97.9 435.18,-84.53 409.58,-76.08"/>
<polygon fill="#63b8ff" stroke="#63b8ff" points="410.82,-72.81 400.23,-73.03 408.65,-79.46 410.82,-72.81"/>
</a>
</g>
</g>
<!-- Node14&#45;&gt;Node9 -->
<g id="edge17_Node000014_Node000009" class="edge">
<title>Node14&#45;&gt;Node9</title>
<g id="a_edge17_Node000014_Node000009"><a xlink:title=" ">
<path fill="none" stroke="#63b8ff" d="M826.73,-167.74C858.17,-150.23 923.73,-113.85 929.12,-112 1024.96,-79.1 1219.17,-130.16 1150.12,-56 1109.08,-11.92 674.46,-10.36 552.05,-10.8"/>
<polygon fill="#63b8ff" stroke="#63b8ff" points="552.07,-7.3 542.08,-10.84 552.1,-14.3 552.07,-7.3"/>
</a>
</g>
</g>
<!-- Node14&#45;&gt;Node12 -->
<g id="edge21_Node000014_Node000012" class="edge">
<title>Node14&#45;&gt;Node12</title>
<g id="a_edge21_Node000014_Node000012"><a xlink:title=" ">
<path fill="none" stroke="#63b8ff" d="M780.47,-176.4C703.06,-174.42 488.49,-166.19 302.13,-132.25"/>
<polygon fill="#63b8ff" stroke="#63b8ff" points="302.99,-128.85 292.52,-130.46 301.71,-135.73 302.99,-128.85"/>
</a>
</g>
</g>
<!-- Node14&#45;&gt;Node13 -->
<g id="edge26_Node000014_Node000013" class="edge">
<title>Node14&#45;&gt;Node13</title>
<g id="a_edge26_Node000014_Node000013"><a xlink:title=" ">
<path fill="none" stroke="#63b8ff" d="M839.73,-173.55C855.06,-171.81 874.09,-169.7 891.12,-168 1067.68,-150.37 1117.21,-165.55 1294.33,-132.18"/>
<polygon fill="#63b8ff" stroke="#63b8ff" points="1294.97,-135.62 1304.14,-130.3 1293.66,-128.75 1294.97,-135.62"/>
</a>
</g>
</g>
<!-- Node15 -->
<g id="Node000015" class="node">
<title>Node15</title>
<g id="a_Node000015"><a xlink:title=" ">
<polygon fill="#e0e0e0" stroke="#999999" points="1160.12,-132 1102.12,-132 1102.12,-112 1160.12,-112 1160.12,-132"/>
<text text-anchor="middle" x="1131.12" y="-118.5" font-family="Helvetica,sans-Serif" font-size="10.00">functional</text>
</a>
</g>
</g>
<!-- Node14&#45;&gt;Node15 -->
<g id="edge19_Node000014_Node000015" class="edge">
<title>Node14&#45;&gt;Node15</title>
<g id="a_edge19_Node000014_Node000015"><a xlink:title=" ">
<path fill="none" stroke="#63b8ff" d="M839.69,-170.58C844.18,-169.67 848.77,-168.78 853.12,-168 955.76,-149.58 985.28,-152.24 1090.59,-132.35"/>
<polygon fill="#63b8ff" stroke="#63b8ff" points="1091.07,-135.82 1100.23,-130.51 1089.75,-128.95 1091.07,-135.82"/>
</a>
</g>
</g>
<!-- Node16 -->
<g id="Node000016" class="node">
<title>Node16</title>
<g id="a_Node000016"><a xlink:title=" ">
<polygon fill="#e0e0e0" stroke="#999999" points="497.62,-132 454.62,-132 454.62,-112 497.62,-112 497.62,-132"/>
<text text-anchor="middle" x="476.12" y="-118.5" font-family="Helvetica,sans-Serif" font-size="10.00">vector</text>
</a>
</g>
</g>
<!-- Node14&#45;&gt;Node16 -->
<g id="edge20_Node000014_Node000016" class="edge">
<title>Node14&#45;&gt;Node16</title>
<g id="a_edge20_Node000014_Node000016"><a xlink:title=" ">
<path fill="none" stroke="#63b8ff" d="M780.35,-173.46C726.54,-166.84 609.61,-151.5 512.12,-132 510.96,-131.77 509.77,-131.52 508.57,-131.26"/>
<polygon fill="#63b8ff" stroke="#63b8ff" points="509.76,-127.94 499.23,-129.1 508.18,-134.76 509.76,-127.94"/>
</a>
</g>
</g>
<!-- Node17 -->
<g id="Node000017" class="node">
<title>Node17</title>
<g id="a_Node000017"><a xlink:title=" ">
<polygon fill="#e0e0e0" stroke="#999999" points="1228,-132 1178.25,-132 1178.25,-112 1228,-112 1228,-132"/>
<text text-anchor="middle" x="1203.12" y="-118.5" font-family="Helvetica,sans-Serif" font-size="10.00">iomanip</text>
</a>
</g>
</g>
<!-- Node14&#45;&gt;Node17 -->
<g id="edge22_Node000014_Node000017" class="edge">
<title>Node14&#45;&gt;Node17</title>
<g id="a_edge22_Node000014_Node000017"><a xlink:title=" ">
<path fill="none" stroke="#63b8ff" d="M839.67,-170.44C844.16,-169.55 848.76,-168.7 853.12,-168 989.13,-146.07 1028.24,-157.53 1166.92,-132.16"/>
<polygon fill="#63b8ff" stroke="#63b8ff" points="1167.29,-135.65 1176.48,-130.37 1166.01,-128.77 1167.29,-135.65"/>
</a>
</g>
</g>
<!-- Node18 -->
<g id="Node000018" class="node">
<title>Node18</title>
<g id="a_Node000018"><a xlink:href="pin__config_8h.html" target="_top" xlink:title=" ">
<polygon fill="white" stroke="#666666" points="1141.38,-76 1072.88,-76 1072.88,-56 1141.38,-56 1141.38,-76"/>
<text text-anchor="middle" x="1107.12" y="-62.5" font-family="Helvetica,sans-Serif" font-size="10.00">pin_config.h</text>
</a>
</g>
</g>
<!-- Node14&#45;&gt;Node18 -->
<g id="edge23_Node000014_Node000018" class="edge">
<title>Node14&#45;&gt;Node18</title>
<g id="a_edge23_Node000014_Node000018"><a xlink:title=" ">
<path fill="none" stroke="#63b8ff" d="M809.93,-167.85C810.15,-153.6 812.85,-126.25 829.12,-112 866.62,-79.17 996.24,-84.62 1061.41,-76.12"/>
<polygon fill="#63b8ff" stroke="#63b8ff" points="1061.58,-79.64 1070.93,-74.66 1060.51,-72.72 1061.58,-79.64"/>
</a>
</g>
</g>
<!-- Node19 -->
<g id="Node000019" class="node">
<title>Node19</title>
<g id="a_Node000019"><a xlink:title=" ">
<polygon fill="#e0e0e0" stroke="#999999" points="882.38,-132 837.88,-132 837.88,-112 882.38,-112 882.38,-132"/>
<text text-anchor="middle" x="860.12" y="-118.5" font-family="Helvetica,sans-Serif" font-size="10.00">cstdlib</text>
</a>
</g>
</g>
<!-- Node14&#45;&gt;Node19 -->
<g id="edge27_Node000014_Node000019" class="edge">
<title>Node14&#45;&gt;Node19</title>
<g id="a_edge27_Node000014_Node000019"><a xlink:title=" ">
<path fill="none" stroke="#63b8ff" d="M818.83,-167.59C825.72,-160.16 835.52,-149.58 843.84,-140.58"/>
<polygon fill="#63b8ff" stroke="#63b8ff" points="846.26,-143.12 850.49,-133.41 841.12,-138.37 846.26,-143.12"/>
</a>
</g>
</g>
<!-- Node20 -->
<g id="Node000020" class="node">
<title>Node20</title>
<g id="a_Node000020"><a xlink:title=" ">
<polygon fill="#e0e0e0" stroke="#999999" points="983.75,-132 938.5,-132 938.5,-112 983.75,-112 983.75,-132"/>
<text text-anchor="middle" x="961.12" y="-118.5" font-family="Helvetica,sans-Serif" font-size="10.00">cstring</text>
</a>
</g>
</g>
<!-- Node14&#45;&gt;Node20 -->
<g id="edge28_Node000014_Node000020" class="edge">
<title>Node14&#45;&gt;Node20</title>
<g id="a_edge28_Node000014_Node000020"><a xlink:title=" ">
<path fill="none" stroke="#63b8ff" d="M836.43,-167.59C861.68,-158.56 899.93,-144.88 927.41,-135.06"/>
<polygon fill="#63b8ff" stroke="#63b8ff" points="928.43,-138.41 936.66,-131.75 926.07,-131.82 928.43,-138.41"/>
</a>
</g>
</g>
<!-- Node14&#45;&gt;Node21 -->
<g id="edge29_Node000014_Node000021" class="edge">
<title>Node14&#45;&gt;Node21</title>
<g id="a_edge29_Node000014_Node000021"><a xlink:title=" ">
<path fill="none" stroke="#63b8ff" d="M839.65,-170.36C844.15,-169.48 848.75,-168.66 853.12,-168 1018.98,-142.95 1066.83,-163.85 1234.41,-132.17"/>
<polygon fill="#63b8ff" stroke="#63b8ff" points="1234.98,-135.62 1244.14,-130.29 1233.65,-128.75 1234.98,-135.62"/>
</a>
</g>
</g>
<!-- Node24 -->
<g id="Node000024" class="node">
<title>Node24</title>
<g id="a_Node000024"><a xlink:title=" ">
<polygon fill="#e0e0e0" stroke="#999999" points="591.62,-76 548.62,-76 548.62,-56 591.62,-56 591.62,-76"/>
<text text-anchor="middle" x="570.12" y="-62.5" font-family="Helvetica,sans-Serif" font-size="10.00">time.h</text>
</a>
</g>
</g>
<!-- Node14&#45;&gt;Node24 -->
<g id="edge35_Node000014_Node000024" class="edge">
<title>Node14&#45;&gt;Node24</title>
<g id="a_edge35_Node000014_Node000024"><a xlink:title=" ">
<path fill="none" stroke="#63b8ff" d="M780.5,-171.06C749.64,-164.2 700.41,-151.31 661.12,-132 634.51,-118.92 607.27,-98.32 589.61,-83.82"/>
<polygon fill="#63b8ff" stroke="#63b8ff" points="591.93,-81.19 582.02,-77.45 587.43,-86.56 591.93,-81.19"/>
</a>
</g>
</g>
<!-- Node25 -->
<g id="Node000025" class="node">
<title>Node25</title>
<g id="a_Node000025"><a xlink:href="build__number_8h.html" target="_top" xlink:title=" ">
<polygon fill="white" stroke="#666666" points="1084.12,-132 1002.12,-132 1002.12,-112 1084.12,-112 1084.12,-132"/>
<text text-anchor="middle" x="1043.12" y="-118.5" font-family="Helvetica,sans-Serif" font-size="10.00">build_number.h</text>
</a>
</g>
</g>
<!-- Node14&#45;&gt;Node25 -->
<g id="edge36_Node000014_Node000025" class="edge">
<title>Node14&#45;&gt;Node25</title>
<g id="a_edge36_Node000014_Node000025"><a xlink:title=" ">
<path fill="none" stroke="#63b8ff" d="M839.63,-170.16C877.76,-161.33 944.76,-145.8 991.42,-134.98"/>
<polygon fill="#63b8ff" stroke="#63b8ff" points="992.09,-138.42 1001.05,-132.75 990.51,-131.6 992.09,-138.42"/>
</a>
</g>
</g>
<!-- Node26 -->
<g id="Node000026" class="node">
<title>Node26</title>
<g id="a_Node000026"><a xlink:href="_lo_ra-_r_p2040_8h.html" target="_top" xlink:title=" ">
<polygon fill="white" stroke="#666666" points="782.12,-132 670.12,-132 670.12,-112 782.12,-112 782.12,-132"/>
<text text-anchor="middle" x="726.12" y="-118.5" font-family="Helvetica,sans-Serif" font-size="10.00">LoRa/LoRa&#45;RP2040.h</text>
</a>
</g>
</g>
<!-- Node14&#45;&gt;Node26 -->
<g id="edge37_Node000014_Node000026" class="edge">
<title>Node14&#45;&gt;Node26</title>
<g id="a_edge37_Node000014_Node000026"><a xlink:title=" ">
<path fill="none" stroke="#63b8ff" d="M795.49,-167.59C783.04,-159.59 764.91,-147.93 750.3,-138.54"/>
<polygon fill="#63b8ff" stroke="#63b8ff" points="752.45,-135.76 742.14,-133.3 748.66,-141.65 752.45,-135.76"/>
</a>
</g>
</g>
<!-- Node18&#45;&gt;Node5 -->
<g id="edge24_Node000018_Node000005" class="edge">
<title>Node18&#45;&gt;Node5</title>
<g id="a_edge24_Node000018_Node000005"><a xlink:title=" ">
<path fill="none" stroke="#63b8ff" d="M1072.47,-57.3C1069.65,-56.81 1066.85,-56.37 1064.12,-56 811.26,-21.77 745.68,-37.7 491.12,-20 463.55,-18.08 432.36,-15.69 408.98,-13.86"/>
<polygon fill="#63b8ff" stroke="#63b8ff" points="409.28,-10.37 399.03,-13.08 408.73,-17.35 409.28,-10.37"/>
</a>
</g>
</g>
<!-- Node21&#45;&gt;Node9 -->
<g id="edge31_Node000021_Node000009" class="edge">
<title>Node21&#45;&gt;Node9</title>
<g id="a_edge31_Node000021_Node000009"><a xlink:title=" ">
<path fill="none" stroke="#63b8ff" d="M1258.91,-111.81C1245,-96.98 1215.19,-68.18 1183.12,-56 1065.56,-11.32 667.32,-10.11 551.79,-10.73"/>
<polygon fill="#63b8ff" stroke="#63b8ff" points="552.1,-7.23 542.12,-10.79 552.15,-14.23 552.1,-7.23"/>
</a>
</g>
</g>
<!-- Node21&#45;&gt;Node10 -->
<g id="edge32_Node000021_Node000010" class="edge">
<title>Node21&#45;&gt;Node10</title>
<g id="a_edge32_Node000021_Node000010"><a xlink:title=" ">
<path fill="none" stroke="#63b8ff" d="M1245.64,-113.92C1242.8,-113.17 1239.91,-112.5 1237.12,-112 999.69,-69.19 931.88,-107.96 690.06,-76.21"/>
<polygon fill="#63b8ff" stroke="#63b8ff" points="690.66,-72.76 680.29,-74.89 689.73,-79.69 690.66,-72.76"/>
</a>
</g>
</g>
<!-- Node21&#45;&gt;Node18 -->
<g id="edge34_Node000021_Node000018" class="edge">
<title>Node21&#45;&gt;Node18</title>
<g id="a_edge34_Node000021_Node000018"><a xlink:title=" ">
<path fill="none" stroke="#63b8ff" d="M1245.55,-113.72C1219.99,-105.09 1176.93,-90.56 1145.61,-79.99"/>
<polygon fill="#63b8ff" stroke="#63b8ff" points="1147.1,-76.8 1136.5,-76.92 1144.86,-83.43 1147.1,-76.8"/>
</a>
</g>
</g>
<!-- Node22 -->
<g id="Node000022" class="node">
<title>Node22</title>
<g id="a_Node000022"><a xlink:title=" ">
<polygon fill="#e0e0e0" stroke="#999999" points="1390.75,-20 1345.5,-20 1345.5,0 1390.75,0 1390.75,-20"/>
<text text-anchor="middle" x="1368.12" y="-6.5" font-family="Helvetica,sans-Serif" font-size="10.00">stdio.h</text>
</a>
</g>
</g>
<!-- Node21&#45;&gt;Node22 -->
<g id="edge30_Node000021_Node000022" class="edge">
<title>Node21&#45;&gt;Node22</title>
<g id="a_edge30_Node000021_Node000022"><a xlink:title=" ">
<path fill="none" stroke="#63b8ff" d="M1288.6,-114.61C1322.22,-104.39 1384.08,-84.64 1390.12,-76 1400.01,-61.86 1391.67,-42.91 1382.56,-29.12"/>
<polygon fill="#63b8ff" stroke="#63b8ff" points="1385.63,-27.4 1376.93,-21.36 1379.97,-31.51 1385.63,-27.4"/>
</a>
</g>
</g>
<!-- Node23 -->
<g id="Node000023" class="node">
<title>Node23</title>
<g id="a_Node000023"><a xlink:title=" ">
<polygon fill="#e0e0e0" stroke="#999999" points="1380.88,-76 1297.38,-76 1297.38,-56 1380.88,-56 1380.88,-76"/>
<text text-anchor="middle" x="1339.12" y="-62.5" font-family="Helvetica,sans-Serif" font-size="10.00">hardware/uart.h</text>
</a>
</g>
</g>
<!-- Node21&#45;&gt;Node23 -->
<g id="edge33_Node000021_Node000023" class="edge">
<title>Node21&#45;&gt;Node23</title>
<g id="a_edge33_Node000021_Node000023"><a xlink:title=" ">
<path fill="none" stroke="#63b8ff" d="M1279.67,-111.59C1290.09,-103.77 1305.17,-92.46 1317.54,-83.19"/>
<polygon fill="#63b8ff" stroke="#63b8ff" points="1319.62,-86.01 1325.52,-77.21 1315.42,-80.41 1319.62,-86.01"/>
</a>
</g>
</g>
<!-- Node26&#45;&gt;Node10 -->
<g id="edge38_Node000026_Node000010" class="edge">
<title>Node26&#45;&gt;Node10</title>
<g id="a_edge38_Node000026_Node000010"><a xlink:title=" ">
<path fill="none" stroke="#63b8ff" d="M711.84,-111.59C699.69,-103.59 681.99,-91.93 667.73,-82.54"/>
<polygon fill="#63b8ff" stroke="#63b8ff" points="670.06,-79.89 659.78,-77.31 666.21,-85.73 670.06,-79.89"/>
</a>
</g>
</g>
<!-- Node26&#45;&gt;Node18 -->
<g id="edge47_Node000026_Node000018" class="edge">
<title>Node26&#45;&gt;Node18</title>
<g id="a_edge47_Node000026_Node000018"><a xlink:title=" ">
<path fill="none" stroke="#63b8ff" d="M782.39,-113.74C864.01,-103.18 1010.36,-84.11 1061.2,-76.3"/>
<polygon fill="#63b8ff" stroke="#63b8ff" points="1061.62,-79.78 1070.94,-74.73 1060.51,-72.87 1061.62,-79.78"/>
</a>
</g>
</g>
<!-- Node27 -->
<g id="Node000027" class="node">
<title>Node27</title>
<g id="a_Node000027"><a xlink:title=" ">
<polygon fill="#e0e0e0" stroke="#999999" points="854.38,-76 761.88,-76 761.88,-56 854.38,-56 854.38,-76"/>
<text text-anchor="middle" x="808.12" y="-62.5" font-family="Helvetica,sans-Serif" font-size="10.00">pico/binary_info.h</text>
</a>
</g>
</g>
<!-- Node26&#45;&gt;Node27 -->
<g id="edge39_Node000026_Node000027" class="edge">
<title>Node26&#45;&gt;Node27</title>
<g id="a_edge39_Node000026_Node000027"><a xlink:title=" ">
<path fill="none" stroke="#63b8ff" d="M740.41,-111.59C752.56,-103.59 770.26,-91.93 784.52,-82.54"/>
<polygon fill="#63b8ff" stroke="#63b8ff" points="786.04,-85.73 792.47,-77.31 782.19,-79.89 786.04,-85.73"/>
</a>
</g>
</g>
<!-- Node28 -->
<g id="Node000028" class="node">
<title>Node28</title>
<g id="a_Node000028"><a xlink:title=" ">
<polygon fill="#e0e0e0" stroke="#999999" points="957.62,-76 872.62,-76 872.62,-56 957.62,-56 957.62,-76"/>
<text text-anchor="middle" x="915.12" y="-62.5" font-family="Helvetica,sans-Serif" font-size="10.00">hardware/gpio.h</text>
</a>
</g>
</g>
<!-- Node26&#45;&gt;Node28 -->
<g id="edge40_Node000026_Node000028" class="edge">
<title>Node26&#45;&gt;Node28</title>
<g id="a_edge40_Node000026_Node000028"><a xlink:title=" ">
<path fill="none" stroke="#63b8ff" d="M759.05,-111.59C790.16,-102.71 837.04,-89.31 871.3,-79.52"/>
<polygon fill="#63b8ff" stroke="#63b8ff" points="871.84,-83.01 880.49,-76.9 869.91,-76.28 871.84,-83.01"/>
</a>
</g>
</g>
<!-- Node29 -->
<g id="Node000029" class="node">
<title>Node29</title>
<g id="a_Node000029"><a xlink:title=" ">
<polygon fill="#e0e0e0" stroke="#999999" points="1055,-76 975.25,-76 975.25,-56 1055,-56 1055,-76"/>
<text text-anchor="middle" x="1015.12" y="-62.5" font-family="Helvetica,sans-Serif" font-size="10.00">hardware/spi.h</text>
</a>
</g>
</g>
<!-- Node26&#45;&gt;Node29 -->
<g id="edge41_Node000026_Node000029" class="edge">
<title>Node26&#45;&gt;Node29</title>
<g id="a_edge41_Node000026_Node000029"><a xlink:title=" ">
<path fill="none" stroke="#63b8ff" d="M776.9,-111.53C823.2,-102.89 893.82,-89.71 963.6,-76.66"/>
<polygon fill="#63b8ff" stroke="#63b8ff" points="964.12,-80.12 973.31,-74.84 962.83,-73.24 964.12,-80.12"/>
</a>
</g>
</g>
<!-- Node30 -->
<g id="Node000030" class="node">
<title>Node30</title>
<g id="a_Node000030"><a xlink:title=" ">
<polygon fill="#e0e0e0" stroke="#999999" points="744.25,-76 696,-76 696,-56 744.25,-56 744.25,-76"/>
<text text-anchor="middle" x="720.12" y="-62.5" font-family="Helvetica,sans-Serif" font-size="10.00">string.h</text>
</a>
</g>
</g>
<!-- Node26&#45;&gt;Node30 -->
<g id="edge42_Node000026_Node000030" class="edge">
<title>Node26&#45;&gt;Node30</title>
<g id="a_edge42_Node000026_Node000030"><a xlink:title=" ">
<path fill="none" stroke="#63b8ff" d="M725.08,-111.59C724.35,-105.01 723.34,-95.96 722.43,-87.73"/>
<polygon fill="#63b8ff" stroke="#63b8ff" points="725.91,-87.35 721.33,-77.8 718.95,-88.13 725.91,-87.35"/>
</a>
</g>
</g>
<!-- Node31 -->
<g id="Node000031" class="node">
<title>Node31</title>
<g id="a_Node000031"><a xlink:href="_print_8h.html" target="_top" xlink:title=" ">
<polygon fill="white" stroke="#666666" points="1279.38,-76 1234.88,-76 1234.88,-56 1279.38,-56 1279.38,-76"/>
<text text-anchor="middle" x="1257.12" y="-62.5" font-family="Helvetica,sans-Serif" font-size="10.00">Print.h</text>
</a>
</g>
</g>
<!-- Node26&#45;&gt;Node31 -->
<g id="edge43_Node000026_Node000031" class="edge">
<title>Node26&#45;&gt;Node31</title>
<g id="a_edge43_Node000026_Node000031"><a xlink:title=" ">
<path fill="none" stroke="#63b8ff" d="M782.45,-115.27C892.69,-104.06 1133.95,-79.53 1223.12,-70.46"/>
<polygon fill="#63b8ff" stroke="#63b8ff" points="1223.33,-73.96 1232.92,-69.46 1222.62,-66.99 1223.33,-73.96"/>
</a>
</g>
</g>
<!-- Node31&#45;&gt;Node9 -->
<g id="edge46_Node000031_Node000009" class="edge">
<title>Node31&#45;&gt;Node9</title>
<g id="a_edge46_Node000031_Node000009"><a xlink:title=" ">
<path fill="none" stroke="#63b8ff" d="M1234.4,-58.66C1230.02,-57.63 1225.45,-56.67 1221.12,-56 964.91,-16.09 650.71,-11.43 551.6,-11"/>
<polygon fill="#63b8ff" stroke="#63b8ff" points="551.87,-7.5 541.86,-10.97 551.85,-14.5 551.87,-7.5"/>
</a>
</g>
</g>
<!-- Node31&#45;&gt;Node22 -->
<g id="edge45_Node000031_Node000022" class="edge">
<title>Node31&#45;&gt;Node22</title>
<g id="a_edge45_Node000031_Node000022"><a xlink:title=" ">
<path fill="none" stroke="#63b8ff" d="M1276.46,-55.59C1293.54,-47.28 1318.73,-35.03 1338.38,-25.47"/>
<polygon fill="#63b8ff" stroke="#63b8ff" points="1339.82,-28.66 1347.28,-21.14 1336.75,-22.37 1339.82,-28.66"/>
</a>
</g>
</g>
<!-- Node32 -->
<g id="Node000032" class="node">
<title>Node32</title>
<g id="a_Node000032"><a xlink:title=" ">
<polygon fill="#e0e0e0" stroke="#999999" points="1286.5,-20 1227.75,-20 1227.75,0 1286.5,0 1286.5,-20"/>
<text text-anchor="middle" x="1257.12" y="-6.5" font-family="Helvetica,sans-Serif" font-size="10.00">inttypes.h</text>
</a>
</g>
</g>
<!-- Node31&#45;&gt;Node32 -->
<g id="edge44_Node000031_Node000032" class="edge">
<title>Node31&#45;&gt;Node32</title>
<g id="a_edge44_Node000031_Node000032"><a xlink:title=" ">
<path fill="none" stroke="#63b8ff" d="M1257.12,-55.59C1257.12,-49.01 1257.12,-39.96 1257.12,-31.73"/>
<polygon fill="#63b8ff" stroke="#63b8ff" points="1260.63,-31.81 1257.13,-21.81 1253.63,-31.81 1260.63,-31.81"/>
</a>
</g>
</g>
<!-- Node34&#45;&gt;Node2 -->
<g id="edge53_Node000034_Node000002" class="edge">
<title>Node34&#45;&gt;Node2</title>
<g id="a_edge53_Node000034_Node000002"><a xlink:title=" ">
<path fill="none" stroke="#63b8ff" d="M447.21,-223.59C420.36,-214.86 380.13,-201.77 350.19,-192.03"/>
<polygon fill="#63b8ff" stroke="#63b8ff" points="351.3,-188.71 340.7,-188.95 349.13,-195.37 351.3,-188.71"/>
</a>
</g>
</g>
<!-- Node34&#45;&gt;Node9 -->
<g id="edge50_Node000034_Node000009" class="edge">
<title>Node34&#45;&gt;Node9</title>
<g id="a_edge50_Node000034_Node000009"><a xlink:title=" ">
<path fill="none" stroke="#63b8ff" d="M470.58,-223.83C454.78,-196.38 412.69,-113.28 445.12,-56 454.64,-39.2 473.2,-27.99 489.48,-20.96"/>
<polygon fill="#63b8ff" stroke="#63b8ff" points="490.3,-24.4 498.32,-17.48 487.73,-17.88 490.3,-24.4"/>
</a>
</g>
</g>
<!-- Node34&#45;&gt;Node14 -->
<g id="edge52_Node000034_Node000014" class="edge">
<title>Node34&#45;&gt;Node14</title>
<g id="a_edge52_Node000034_Node000014"><a xlink:title=" ">
<path fill="none" stroke="#63b8ff" d="M521.52,-225.66C587,-215.07 706.98,-195.68 769.62,-185.55"/>
<polygon fill="#63b8ff" stroke="#63b8ff" points="769.82,-189.06 779.13,-184.01 768.7,-182.15 769.82,-189.06"/>
</a>
</g>
</g>
<!-- Node34&#45;&gt;Node16 -->
<g id="edge51_Node000034_Node000016" class="edge">
<title>Node34&#45;&gt;Node16</title>
<g id="a_edge51_Node000034_Node000016"><a xlink:title=" ">
<path fill="none" stroke="#63b8ff" d="M476.12,-223.62C476.12,-206.01 476.12,-167.59 476.12,-143.65"/>
<polygon fill="#63b8ff" stroke="#63b8ff" points="479.63,-143.87 476.13,-133.87 472.63,-143.87 479.63,-143.87"/>
</a>
</g>
</g>
<!-- Node35&#45;&gt;Node7 -->
<g id="edge59_Node000035_Node000007" class="edge">
<title>Node35&#45;&gt;Node7</title>
<g id="a_edge59_Node000035_Node000007"><a xlink:title=" ">
<path fill="none" stroke="#63b8ff" d="M554.13,-117.45C539.63,-115.76 521.98,-113.73 506.12,-112 428.62,-103.53 218.06,-124.64 157.12,-76 143.74,-65.32 138.45,-46.14 136.38,-31.37"/>
<polygon fill="#63b8ff" stroke="#63b8ff" points="139.91,-31.41 135.45,-21.79 132.94,-32.09 139.91,-31.41"/>
</a>
</g>
</g>
<!-- Node35&#45;&gt;Node9 -->
<g id="edge56_Node000035_Node000009" class="edge">
<title>Node35&#45;&gt;Node9</title>
<g id="a_edge56_Node000035_Node000009"><a xlink:title=" ">
<path fill="none" stroke="#63b8ff" d="M571.71,-111.58C561.57,-103.26 547.57,-90.26 539.12,-76 531.04,-62.36 526.2,-45.04 523.43,-31.72"/>
<polygon fill="#63b8ff" stroke="#63b8ff" points="526.88,-31.11 521.64,-21.9 519.99,-32.37 526.88,-31.11"/>
</a>
</g>
</g>
<!-- Node35&#45;&gt;Node10 -->
<g id="edge58_Node000035_Node000010" class="edge">
<title>Node35&#45;&gt;Node10</title>
<g id="a_edge58_Node000035_Node000010"><a xlink:title=" ">
<path fill="none" stroke="#63b8ff" d="M594.58,-111.59C603.09,-103.93 615.34,-92.91 625.52,-83.75"/>
<polygon fill="#63b8ff" stroke="#63b8ff" points="627.58,-86.6 632.67,-77.31 622.89,-81.4 627.58,-86.6"/>
</a>
</g>
</g>
<!-- Node35&#45;&gt;Node11 -->
<g id="edge61_Node000035_Node000011" class="edge">
<title>Node35&#45;&gt;Node11</title>
<g id="a_edge61_Node000035_Node000011"><a xlink:title=" ">
<path fill="none" stroke="#63b8ff" d="M554.14,-117.39C539.64,-115.69 521.99,-113.66 506.12,-112 336.52,-94.23 293.84,-92.68 124.12,-76 111,-74.71 96.79,-73.27 83.68,-71.93"/>
<polygon fill="#63b8ff" stroke="#63b8ff" points="84.32,-68.48 74.02,-70.94 83.61,-75.44 84.32,-68.48"/>
</a>
</g>
</g>
<!-- Node35&#45;&gt;Node24 -->
<g id="edge60_Node000035_Node000024" class="edge">
<title>Node35&#45;&gt;Node24</title>
<g id="a_edge60_Node000035_Node000024"><a xlink:title=" ">
<path fill="none" stroke="#63b8ff" d="M581.69,-111.59C579.96,-104.93 577.58,-95.75 575.42,-87.44"/>
<polygon fill="#63b8ff" stroke="#63b8ff" points="578.81,-86.56 572.92,-77.76 572.04,-88.32 578.81,-86.56"/>
</a>
</g>
</g>
<!-- Node36 -->
<g id="Node000036" class="node">
<title>Node36</title>
<g id="a_Node000036"><a xlink:title=" ">
<polygon fill="#e0e0e0" stroke="#999999" points="492,-76 454.25,-76 454.25,-56 492,-56 492,-76"/>
<text text-anchor="middle" x="473.12" y="-62.5" font-family="Helvetica,sans-Serif" font-size="10.00">array</text>
</a>
</g>
</g>
<!-- Node35&#45;&gt;Node36 -->
<g id="edge57_Node000035_Node000036" class="edge">
<title>Node35&#45;&gt;Node36</title>
<g id="a_edge57_Node000035_Node000036"><a xlink:title=" ">
<path fill="none" stroke="#63b8ff" d="M564.79,-111.59C547.6,-103.23 522.21,-90.88 502.51,-81.3"/>
<polygon fill="#63b8ff" stroke="#63b8ff" points="504.12,-78.19 493.6,-76.96 501.06,-84.48 504.12,-78.19"/>
</a>
</g>
</g>
</g>
</svg>

<g id="navigator" transform="translate(0 0)" fill="#404254">
  <rect fill="#f2f5e9" fill-opacity="0.5" stroke="#606060" stroke-width=".5" x="0" y="0" width="60" height="60"/>
  <use id="zoomplus" xlink:href="#zoomPlus" x="17" y="9" onmousedown="handleZoom(evt,'in')"/>
  <use id="zoomminus" xlink:href="#zoomMin" x="42" y="9" onmousedown="handleZoom(evt,'out')"/>
  <use id="reset" xlink:href="#resetDef" x="30" y="36" onmousedown="handleReset()"/>
   <use id="arrowup" xlink:href="#arrowUp" x="0" y="0" onmousedown="handlePan(0,-1)"/>
  <use id="arrowright" xlink:href="#arrowRight" x="0" y="0" onmousedown="handlePan(1,0)"/>
  <use id="arrowdown" xlink:href="#arrowDown" x="0" y="0" onmousedown="handlePan(0,1)"/>
  <use id="arrowleft" xlink:href="#arrowLeft" x="0" y="0" onmousedown="handlePan(-1,0)"/>
</g>
<svg viewBox="0 0 15 15" width="100%" height="30px" preserveAspectRatio="xMaxYMin meet">
 <g id="arrow_out" transform="scale(0.3 0.3)">
  <a xlink:href="event__manager_8cpp__incl_org.svg" target="_base">
   <rect id="button" ry="5" rx="5" y="6" x="6" height="38" width="38"
        fill="#f2f5e9" fill-opacity="0.5" stroke="#606060" stroke-width="1.0"/>
   <path id="arrow"
     d="M 11.500037,31.436501 C 11.940474,20.09759 22.043105,11.32322 32.158766,21.979434 L 37.068811,17.246167 C 37.068811,17.246167 37.088388,32 37.088388,32 L 22.160133,31.978069 C 22.160133,31.978069 26.997745,27.140456 26.997745,27.140456 C 18.528582,18.264221 13.291696,25.230495 11.500037,31.436501 z"
     style="fill:#404040;"/>
  </a>
 </g>
</svg>

<style type='text/css'>
<![CDATA[
[data-mouse-over-selected='false'] { opacity: 0.7; }
[data-mouse-over-selected='true']  { opacity: 1.0; }
]]>
</style>
<script type="application/ecmascript"><![CDATA[
document.addEventListener('DOMContentLoaded', (event) => {
  highlightEdges();
  highlightAdjacentNodes();
});
]]></script>
</svg>
