<?xml version="1.0" encoding="UTF-8" standalone="no"?>
<!DOCTYPE svg PUBLIC "-//W3C//DTD SVG 1.1//EN"
 "http://www.w3.org/Graphics/SVG/1.1/DTD/svg11.dtd">
<!-- Generated by graphviz version 12.2.1 (20241206.2353)
 -->
<!-- Title: frame_encode Pages: 1 -->
<!--zoomable 370 -->

<svg id="main" version="1.1" xmlns="http://www.w3.org/2000/svg" xmlns:xlink="http://www.w3.org/1999/xlink" xml:space="preserve" onload="init(evt)">

<style type="text/css"><![CDATA[
.node, .edge {opacity: 0.7;}
.node.selected, .edge.selected {opacity: 1;}
.edge:hover path { stroke: red; }
.edge:hover polygon { stroke: red; fill: red; }
]]></style>

<defs>
  <circle id="rim" cx="0" cy="0" r="7"/>
  <circle id="rim2" cx="0" cy="0" r="3.5"/>
  <g id="zoomPlus">
    <use xlink:href="#rim" fill="#404040"><set attributeName="fill" to="#808080" begin="zoomplus.mouseover" end="zoomplus.mouseout"/></use>
    <path d="M-4,0h8M0,-4v8" fill="none" stroke="white" stroke-width="1.5" pointer-events="none"/>
  </g>
  <g id="zoomMin">
    <use xlink:href="#rim" fill="#404040"><set attributeName="fill" to="#808080" begin="zoomminus.mouseover" end="zoomminus.mouseout"/></use>
    <path d="M-4,0h8" fill="none" stroke="white" stroke-width="1.5" pointer-events="none"/>
  </g>
  <g id="arrowUp" transform="translate(30 24)">
    <use xlink:href="#rim"/>
    <path pointer-events="none" fill="none" stroke="white" stroke-width="1.5" d="M0,-3.0v7 M-2.5,-0.5L0,-3.0L2.5,-0.5"/>
  </g>
  <g id="arrowRight" transform="rotate(90) translate(36 -43)">
    <use xlink:href="#rim"/>
    <path pointer-events="none" fill="none" stroke="white" stroke-width="1.5" d="M0,-3.0v7 M-2.5,-0.5L0,-3.0L2.5,-0.5"/>
  </g>
  <g id="arrowDown" transform="rotate(180) translate(-30 -48)">
    <use xlink:href="#rim"/>
    <path pointer-events="none" fill="none" stroke="white" stroke-width="1.5" d="M0,-3.0v7 M-2.5,-0.5L0,-3.0L2.5,-0.5"/>
  </g>
  <g id="arrowLeft" transform="rotate(270) translate(-36 17)">
    <use xlink:href="#rim"/>
    <path pointer-events="none" fill="none" stroke="white" stroke-width="1.5" d="M0,-3.0v7 M-2.5,-0.5L0,-3.0L2.5,-0.5"/>
  </g>
  <g id="resetDef">
    <use xlink:href="#rim2" fill="#404040"><set attributeName="fill" to="#808080" begin="reset.mouseover" end="reset.mouseout"/></use>
  </g>
</defs>
<script type="application/ecmascript">
var viewWidth = 806;
var viewHeight = 370;
var sectionId = 'dynsection-2';
</script>
<script type="application/ecmascript" xlink:href="svg.min.js"/>
<svg id="graph" class="graph">
<g id="viewport">
<title>frame_encode</title>
<!-- Node1 -->
<g id="Node000001" class="node">
<title>Node1</title>
<g id="a_Node000001"><a xlink:title="Encodes a Frame instance into a string.">
<polygon fill="#999999" stroke="#666666" points="798,-58 720.5,-58 720.5,-38 798,-38 798,-58"/>
<text text-anchor="middle" x="759.25" y="-44.5" font-family="Helvetica,sans-Serif" font-size="10.00">frame_encode</text>
</a>
</g>
</g>
<!-- Node2 -->
<g id="Node000002" class="node">
<title>Node2</title>
<g id="a_Node000002"><a xlink:href="send_8cpp.html#ae6c6f3b673e7e83306da7ea2458d3241" target="_top" xlink:title="Sends a Frame using LoRa.">
<polygon fill="white" stroke="#666666" points="654.12,-210 587.12,-210 587.12,-190 654.12,-190 654.12,-210"/>
<text text-anchor="middle" x="620.62" y="-196.5" font-family="Helvetica,sans-Serif" font-size="10.00">send_frame</text>
</a>
</g>
</g>
<!-- Node1&#45;&gt;Node2 -->
<g id="edge1_Node000001_Node000002" class="edge">
<title>Node1&#45;&gt;Node2</title>
<g id="a_edge1_Node000001_Node000002"><a xlink:title=" ">
<path fill="none" stroke="#63b8ff" d="M741.49,-66.65C712.36,-99.06 653.33,-164.72 630.72,-189.88"/>
<polygon fill="#63b8ff" stroke="#63b8ff" points="743.77,-69.35 747.85,-59.57 738.56,-64.67 743.77,-69.35"/>
</a>
</g>
</g>
<!-- Node8 -->
<g id="Node000008" class="node">
<title>Node8</title>
<g id="a_Node000008"><a xlink:href="test__frame__coding_8cpp.html#a75deef6947cf7117a58214b4298ecec9" target="_top" xlink:title=" ">
<polygon fill="white" stroke="#666666" points="331.5,-70 203.75,-70 203.75,-50 331.5,-50 331.5,-70"/>
<text text-anchor="middle" x="267.62" y="-56.5" font-family="Helvetica,sans-Serif" font-size="10.00">test_frame_decode_basic</text>
</a>
</g>
</g>
<!-- Node1&#45;&gt;Node8 -->
<g id="edge20_Node000001_Node000008" class="edge">
<title>Node1&#45;&gt;Node8</title>
<g id="a_edge20_Node000001_Node000008"><a xlink:title=" ">
<path fill="none" stroke="#63b8ff" d="M708.8,-49.21C619.3,-51.41 430.61,-56.03 331.88,-58.45"/>
<polygon fill="#63b8ff" stroke="#63b8ff" points="708.81,-52.71 718.72,-48.97 708.64,-45.71 708.81,-52.71"/>
</a>
</g>
</g>
<!-- Node16 -->
<g id="Node000016" class="node">
<title>Node16</title>
<g id="a_Node000016"><a xlink:href="test__frame__coding_8cpp.html#a85d94957544c2947761ccefd9bf74540" target="_top" xlink:title=" ">
<polygon fill="white" stroke="#666666" points="684.5,-20 556.75,-20 556.75,0 684.5,0 684.5,-20"/>
<text text-anchor="middle" x="620.62" y="-6.5" font-family="Helvetica,sans-Serif" font-size="10.00">test_frame_encode_basic</text>
</a>
</g>
</g>
<!-- Node1&#45;&gt;Node16 -->
<g id="edge21_Node000001_Node000016" class="edge">
<title>Node1&#45;&gt;Node16</title>
<g id="a_edge21_Node000001_Node000016"><a xlink:title=" ">
<path fill="none" stroke="#63b8ff" d="M709.91,-34.55C693.25,-29.92 674.86,-24.81 659.2,-20.45"/>
<polygon fill="#63b8ff" stroke="#63b8ff" points="708.52,-37.8 719.1,-37.11 710.4,-31.06 708.52,-37.8"/>
</a>
</g>
</g>
<!-- Node3 -->
<g id="Node000003" class="node">
<title>Node3</title>
<g id="a_Node000003"><a xlink:href="frame_8cpp.html#a0b3438ff642c0934321101e1f0b8d82d" target="_top" xlink:title="Converts a string into a Frame instance.">
<polygon fill="white" stroke="#666666" points="484,-172 406.5,-172 406.5,-152 484,-152 484,-172"/>
<text text-anchor="middle" x="445.25" y="-158.5" font-family="Helvetica,sans-Serif" font-size="10.00">frame_decode</text>
</a>
</g>
</g>
<!-- Node2&#45;&gt;Node3 -->
<g id="edge2_Node000002_Node000003" class="edge">
<title>Node2&#45;&gt;Node3</title>
<g id="a_edge2_Node000002_Node000003"><a xlink:title=" ">
<path fill="none" stroke="#63b8ff" d="M575.88,-190.41C547.72,-184.24 511.46,-176.29 484.46,-170.37"/>
<polygon fill="#63b8ff" stroke="#63b8ff" points="575.02,-193.81 585.54,-192.53 576.52,-186.97 575.02,-193.81"/>
</a>
</g>
</g>
<!-- Node4 -->
<g id="Node000004" class="node">
<title>Node4</title>
<g id="a_Node000004"><a xlink:href="frame_8cpp.html#a8b9c5fd031b899c6c7867adcde4ac11f" target="_top" xlink:title="Executes a command based on the command key and the parameter.">
<polygon fill="white" stroke="#666666" points="307.88,-191 227.38,-191 227.38,-171 307.88,-171 307.88,-191"/>
<text text-anchor="middle" x="267.62" y="-177.5" font-family="Helvetica,sans-Serif" font-size="10.00">frame_process</text>
</a>
</g>
</g>
<!-- Node2&#45;&gt;Node4 -->
<g id="edge12_Node000002_Node000004" class="edge">
<title>Node2&#45;&gt;Node4</title>
<g id="a_edge12_Node000002_Node000004"><a xlink:title=" ">
<path fill="none" stroke="#63b8ff" d="M575.62,-197.62C506.72,-193.89 374.42,-186.73 308.29,-183.15"/>
<polygon fill="#63b8ff" stroke="#63b8ff" points="575.23,-201.1 585.41,-198.15 575.61,-194.11 575.23,-201.1"/>
</a>
</g>
</g>
<!-- Node6 -->
<g id="Node000006" class="node">
<title>Node6</title>
<g id="a_Node000006"><a xlink:href="main_8cpp.html#ae66f6b31b5ad750f1fe042a706a4e3d4" target="_top" xlink:title=" ">
<polygon fill="white" stroke="#666666" points="37,-229 0,-229 0,-209 37,-209 37,-229"/>
<text text-anchor="middle" x="18.5" y="-215.5" font-family="Helvetica,sans-Serif" font-size="10.00">main</text>
</a>
</g>
</g>
<!-- Node2&#45;&gt;Node6 -->
<g id="edge18_Node000002_Node000006" class="edge">
<title>Node2&#45;&gt;Node6</title>
<g id="a_edge18_Node000002_Node000006"><a xlink:title=" ">
<path fill="none" stroke="#63b8ff" d="M575.38,-202.5C494.19,-206.95 315.93,-216.04 165.5,-219 119.38,-219.91 65.04,-219.53 37.48,-219.23"/>
<polygon fill="#63b8ff" stroke="#63b8ff" points="575.57,-206 585.36,-201.95 575.18,-199.01 575.57,-206"/>
</a>
</g>
</g>
<!-- Node11 -->
<g id="Node000011" class="node">
<title>Node11</title>
<g id="a_Node000011"><a xlink:href="group___diagnostic_commands.html#ga3ab5723218b68d3ac5cd864e00ed157a" target="_top" xlink:title="Reboot system to USB firmware loader.">
<polygon fill="white" stroke="#666666" points="520.75,-134 369.75,-134 369.75,-114 520.75,-114 520.75,-134"/>
<text text-anchor="middle" x="445.25" y="-120.5" font-family="Helvetica,sans-Serif" font-size="10.00">handle_enter_bootloader_mode</text>
</a>
</g>
</g>
<!-- Node2&#45;&gt;Node11 -->
<g id="edge13_Node000002_Node000011" class="edge">
<title>Node2&#45;&gt;Node11</title>
<g id="a_edge13_Node000002_Node000011"><a xlink:title=" ">
<path fill="none" stroke="#63b8ff" d="M594.97,-183.24C575.53,-170.66 547.35,-153.82 520.75,-143 512.71,-139.73 503.95,-136.9 495.36,-134.49"/>
<polygon fill="#63b8ff" stroke="#63b8ff" points="593,-186.13 603.28,-188.71 596.85,-180.29 593,-186.13"/>
</a>
</g>
</g>
<!-- Node12 -->
<g id="Node000012" class="node">
<title>Node12</title>
<g id="a_Node000012"><a xlink:href="storage__commands_8cpp.html#a1ebbe9d6a73f10f9887975fe4f968aad" target="_top" xlink:title="Handles the file download command.">
<polygon fill="white" stroke="#666666" points="499.75,-96 390.75,-96 390.75,-76 499.75,-76 499.75,-96"/>
<text text-anchor="middle" x="445.25" y="-82.5" font-family="Helvetica,sans-Serif" font-size="10.00">handle_file_download</text>
</a>
</g>
</g>
<!-- Node2&#45;&gt;Node12 -->
<g id="edge14_Node000002_Node000012" class="edge">
<title>Node2&#45;&gt;Node12</title>
<g id="a_edge14_Node000002_Node000012"><a xlink:title=" ">
<path fill="none" stroke="#63b8ff" d="M604.8,-180.69C587.12,-159.01 555.57,-124.37 520.75,-105 514.33,-101.43 507.24,-98.52 500.05,-96.15"/>
<polygon fill="#63b8ff" stroke="#63b8ff" points="602,-182.79 610.96,-188.44 607.48,-178.44 602,-182.79"/>
</a>
</g>
</g>
<!-- Node13 -->
<g id="Node000013" class="node">
<title>Node13</title>
<g id="a_Node000013"><a xlink:href="storage__commands_8cpp.html#acc768cf94aac4e11301443f30529b738" target="_top" xlink:title="Handles the list files command.">
<polygon fill="white" stroke="#666666" points="488.12,-362 402.38,-362 402.38,-342 488.12,-342 488.12,-362"/>
<text text-anchor="middle" x="445.25" y="-348.5" font-family="Helvetica,sans-Serif" font-size="10.00">handle_list_files</text>
</a>
</g>
</g>
<!-- Node2&#45;&gt;Node13 -->
<g id="edge15_Node000002_Node000013" class="edge">
<title>Node2&#45;&gt;Node13</title>
<g id="a_edge15_Node000002_Node000013"><a xlink:title=" ">
<path fill="none" stroke="#63b8ff" d="M610.05,-220.53C595.21,-250.07 563.79,-304.14 520.75,-333 511.22,-339.39 499.68,-343.63 488.56,-346.45"/>
<polygon fill="#63b8ff" stroke="#63b8ff" points="613.2,-222.07 614.42,-211.55 606.9,-219.02 613.2,-222.07"/>
</a>
</g>
</g>
<!-- Node14 -->
<g id="Node000014" class="node">
<title>Node14</title>
<g id="a_Node000014"><a xlink:href="main_8cpp.html#a8fa5379b5bec497b881cec19f2b38779" target="_top" xlink:title=" ">
<polygon fill="white" stroke="#666666" points="303.38,-286 231.88,-286 231.88,-266 303.38,-266 303.38,-286"/>
<text text-anchor="middle" x="267.62" y="-272.5" font-family="Helvetica,sans-Serif" font-size="10.00">init_systems</text>
</a>
</g>
</g>
<!-- Node2&#45;&gt;Node14 -->
<g id="edge16_Node000002_Node000014" class="edge">
<title>Node2&#45;&gt;Node14</title>
<g id="a_edge16_Node000002_Node000014"><a xlink:title=" ">
<path fill="none" stroke="#63b8ff" d="M594.82,-216.55C575.49,-228.55 547.54,-244.02 520.75,-252 445.74,-274.35 353.15,-277.22 303.69,-276.9"/>
<polygon fill="#63b8ff" stroke="#63b8ff" points="596.52,-219.61 603.07,-211.29 592.75,-213.71 596.52,-219.61"/>
</a>
</g>
</g>
<!-- Node15 -->
<g id="Node000015" class="node">
<title>Node15</title>
<g id="a_Node000015"><a xlink:href="frame_8cpp.html#af49224563adb4bf0b91daa5ab78120ca" target="_top" xlink:title="Sends the event register value to the ground station.">
<polygon fill="white" stroke="#666666" points="478.38,-324 412.12,-324 412.12,-304 478.38,-304 478.38,-324"/>
<text text-anchor="middle" x="445.25" y="-310.5" font-family="Helvetica,sans-Serif" font-size="10.00">send_event</text>
</a>
</g>
</g>
<!-- Node2&#45;&gt;Node15 -->
<g id="edge19_Node000002_Node000015" class="edge">
<title>Node2&#45;&gt;Node15</title>
<g id="a_edge19_Node000002_Node000015"><a xlink:title=" ">
<path fill="none" stroke="#63b8ff" d="M603.51,-218.84C585.3,-239.05 553.84,-270.83 520.75,-290 507.82,-297.49 492.24,-302.98 478.68,-306.8"/>
<polygon fill="#63b8ff" stroke="#63b8ff" points="605.92,-221.4 609.91,-211.59 600.67,-216.77 605.92,-221.4"/>
</a>
</g>
</g>
<!-- Node3&#45;&gt;Node4 -->
<g id="edge3_Node000003_Node000004" class="edge">
<title>Node3&#45;&gt;Node4</title>
<g id="a_edge3_Node000003_Node000004"><a xlink:title=" ">
<path fill="none" stroke="#63b8ff" d="M394.82,-167.35C367.42,-170.31 333.82,-173.95 308.18,-176.72"/>
<polygon fill="#63b8ff" stroke="#63b8ff" points="395.07,-170.84 404.64,-166.29 394.32,-163.88 395.07,-170.84"/>
</a>
</g>
</g>
<!-- Node3&#45;&gt;Node8 -->
<g id="edge8_Node000003_Node000008" class="edge">
<title>Node3&#45;&gt;Node8</title>
<g id="a_edge8_Node000003_Node000008"><a xlink:title=" ">
<path fill="none" stroke="#63b8ff" d="M395.01,-154C386.2,-151.32 377.4,-147.75 369.75,-143 348.87,-130.03 352.36,-117.06 333.75,-101 319.79,-88.95 301.96,-77.98 288.48,-70.42"/>
<polygon fill="#63b8ff" stroke="#63b8ff" points="394.05,-157.37 404.61,-156.55 395.85,-150.6 394.05,-157.37"/>
</a>
</g>
</g>
<!-- Node10 -->
<g id="Node000010" class="node">
<title>Node10</title>
<g id="a_Node000010"><a xlink:href="test__frame__coding_8cpp.html#a054000b3d2c0abb2e13b9109ae0969ef" target="_top" xlink:title=" ">
<polygon fill="white" stroke="#666666" points="333.75,-142 201.5,-142 201.5,-110 333.75,-110 333.75,-142"/>
<text text-anchor="start" x="209.5" y="-128.5" font-family="Helvetica,sans-Serif" font-size="10.00">test_frame_decode_invalid</text>
<text text-anchor="middle" x="267.62" y="-116.5" font-family="Helvetica,sans-Serif" font-size="10.00">_header</text>
</a>
</g>
</g>
<!-- Node3&#45;&gt;Node10 -->
<g id="edge10_Node000003_Node000010" class="edge">
<title>Node3&#45;&gt;Node10</title>
<g id="a_edge10_Node000003_Node000010"><a xlink:title=" ">
<path fill="none" stroke="#63b8ff" d="M395.07,-151.92C376.13,-148.04 354.19,-143.54 333.95,-139.39"/>
<polygon fill="#63b8ff" stroke="#63b8ff" points="394.16,-155.31 404.66,-153.88 395.57,-148.45 394.16,-155.31"/>
</a>
</g>
</g>
<!-- Node5 -->
<g id="Node000005" class="node">
<title>Node5</title>
<g id="a_Node000005"><a xlink:href="receive_8cpp.html#a14ffba44d46e00b23bd72bdb3a4d58d1" target="_top" xlink:title="Handles UART input.">
<polygon fill="white" stroke="#666666" points="165.5,-172 73,-172 73,-152 165.5,-152 165.5,-172"/>
<text text-anchor="middle" x="119.25" y="-158.5" font-family="Helvetica,sans-Serif" font-size="10.00">handle_uart_input</text>
</a>
</g>
</g>
<!-- Node4&#45;&gt;Node5 -->
<g id="edge4_Node000004_Node000005" class="edge">
<title>Node4&#45;&gt;Node5</title>
<g id="a_edge4_Node000004_Node000005"><a xlink:title=" ">
<path fill="none" stroke="#63b8ff" d="M216.04,-174.43C199.73,-172.32 181.77,-169.99 165.85,-167.92"/>
<polygon fill="#63b8ff" stroke="#63b8ff" points="215.15,-177.85 225.51,-175.66 216.05,-170.91 215.15,-177.85"/>
</a>
</g>
</g>
<!-- Node7 -->
<g id="Node000007" class="node">
<title>Node7</title>
<g id="a_Node000007"><a xlink:href="receive_8cpp.html#a3f494105dee3a08e1244febc81982517" target="_top" xlink:title="Callback function for handling received LoRa packets.">
<polygon fill="white" stroke="#666666" points="150.88,-210 87.62,-210 87.62,-190 150.88,-190 150.88,-210"/>
<text text-anchor="middle" x="119.25" y="-196.5" font-family="Helvetica,sans-Serif" font-size="10.00">on_receive</text>
</a>
</g>
</g>
<!-- Node4&#45;&gt;Node7 -->
<g id="edge6_Node000004_Node000007" class="edge">
<title>Node4&#45;&gt;Node7</title>
<g id="a_edge6_Node000004_Node000007"><a xlink:title=" ">
<path fill="none" stroke="#63b8ff" d="M215.73,-187.61C194.19,-190.4 169.81,-193.57 151.07,-196"/>
<polygon fill="#63b8ff" stroke="#63b8ff" points="216.05,-191.09 225.51,-186.34 215.15,-184.15 216.05,-191.09"/>
</a>
</g>
</g>
<!-- Node5&#45;&gt;Node6 -->
<g id="edge5_Node000005_Node000006" class="edge">
<title>Node5&#45;&gt;Node6</title>
<g id="a_edge5_Node000005_Node000006"><a xlink:title=" ">
<path fill="none" stroke="#63b8ff" d="M80.72,-176.99C78.07,-178.28 75.48,-179.62 73,-181 58.26,-189.2 42.69,-200.62 32.16,-208.79"/>
<polygon fill="#63b8ff" stroke="#63b8ff" points="81.97,-180.27 89.61,-172.93 79.06,-173.9 81.97,-180.27"/>
</a>
</g>
</g>
<!-- Node7&#45;&gt;Node6 -->
<g id="edge7_Node000007_Node000006" class="edge">
<title>Node7&#45;&gt;Node6</title>
<g id="a_edge7_Node000007_Node000006"><a xlink:title=" ">
<path fill="none" stroke="#63b8ff" d="M76.15,-208.1C62.58,-210.71 48.27,-213.46 37.42,-215.55"/>
<polygon fill="#63b8ff" stroke="#63b8ff" points="76.63,-211.57 85.79,-206.25 75.31,-204.7 76.63,-211.57"/>
</a>
</g>
</g>
<!-- Node9 -->
<g id="Node000009" class="node">
<title>Node9</title>
<g id="a_Node000009"><a xlink:href="test__runner_8cpp.html#a840291bc02cba5474a4cb46a9b9566fe" target="_top" xlink:title=" ">
<polygon fill="white" stroke="#666666" points="137.75,-70 100.75,-70 100.75,-50 137.75,-50 137.75,-70"/>
<text text-anchor="middle" x="119.25" y="-56.5" font-family="Helvetica,sans-Serif" font-size="10.00">main</text>
</a>
</g>
</g>
<!-- Node8&#45;&gt;Node9 -->
<g id="edge9_Node000008_Node000009" class="edge">
<title>Node8&#45;&gt;Node9</title>
<g id="a_edge9_Node000008_Node000009"><a xlink:title=" ">
<path fill="none" stroke="#63b8ff" d="M191.77,-60C171.63,-60 151.65,-60 137.95,-60"/>
<polygon fill="#63b8ff" stroke="#63b8ff" points="191.76,-63.5 201.76,-60 191.76,-56.5 191.76,-63.5"/>
</a>
</g>
</g>
<!-- Node10&#45;&gt;Node9 -->
<g id="edge11_Node000010_Node000009" class="edge">
<title>Node10&#45;&gt;Node9</title>
<g id="a_edge11_Node000010_Node000009"><a xlink:title=" ">
<path fill="none" stroke="#63b8ff" d="M219.74,-104.86C191.96,-92.33 158.34,-77.17 138.16,-68.07"/>
<polygon fill="#63b8ff" stroke="#63b8ff" points="218.13,-107.97 228.69,-108.89 221.01,-101.59 218.13,-107.97"/>
</a>
</g>
</g>
<!-- Node14&#45;&gt;Node6 -->
<g id="edge17_Node000014_Node000006" class="edge">
<title>Node14&#45;&gt;Node6</title>
<g id="a_edge17_Node000014_Node000006"><a xlink:title=" ">
<path fill="none" stroke="#63b8ff" d="M220.41,-275.78C180.37,-274.3 121.43,-269.02 73,-252 58.17,-246.79 43.1,-237 32.75,-229.43"/>
<polygon fill="#63b8ff" stroke="#63b8ff" points="220.07,-279.27 230.17,-276.06 220.28,-272.27 220.07,-279.27"/>
</a>
</g>
</g>
<!-- Node16&#45;&gt;Node9 -->
<g id="edge22_Node000016_Node000009" class="edge">
<title>Node16&#45;&gt;Node9</title>
<g id="a_edge22_Node000016_Node000009"><a xlink:title=" ">
<path fill="none" stroke="#63b8ff" d="M545.13,-12.03C461.2,-15.12 320.9,-22.73 201.5,-41 179.45,-44.37 154.52,-50.57 138.16,-54.96"/>
<polygon fill="#63b8ff" stroke="#63b8ff" points="545.21,-15.53 555.08,-11.67 544.96,-8.53 545.21,-15.53"/>
</a>
</g>
</g>
</g>
</svg>

<g id="navigator" transform="translate(0 0)" fill="#404254">
  <rect fill="#f2f5e9" fill-opacity="0.5" stroke="#606060" stroke-width=".5" x="0" y="0" width="60" height="60"/>
  <use id="zoomplus" xlink:href="#zoomPlus" x="17" y="9" onmousedown="handleZoom(evt,'in')"/>
  <use id="zoomminus" xlink:href="#zoomMin" x="42" y="9" onmousedown="handleZoom(evt,'out')"/>
  <use id="reset" xlink:href="#resetDef" x="30" y="36" onmousedown="handleReset()"/>
   <use id="arrowup" xlink:href="#arrowUp" x="0" y="0" onmousedown="handlePan(0,-1)"/>
  <use id="arrowright" xlink:href="#arrowRight" x="0" y="0" onmousedown="handlePan(1,0)"/>
  <use id="arrowdown" xlink:href="#arrowDown" x="0" y="0" onmousedown="handlePan(0,1)"/>
  <use id="arrowleft" xlink:href="#arrowLeft" x="0" y="0" onmousedown="handlePan(-1,0)"/>
</g>
<svg viewBox="0 0 15 15" width="100%" height="30px" preserveAspectRatio="xMaxYMin meet">
 <g id="arrow_out" transform="scale(0.3 0.3)">
  <a xlink:href="frame_8cpp_a3ae6df528775be58890bf406c906a056_icgraph_org.svg" target="_base">
   <rect id="button" ry="5" rx="5" y="6" x="6" height="38" width="38"
        fill="#f2f5e9" fill-opacity="0.5" stroke="#606060" stroke-width="1.0"/>
   <path id="arrow"
     d="M 11.500037,31.436501 C 11.940474,20.09759 22.043105,11.32322 32.158766,21.979434 L 37.068811,17.246167 C 37.068811,17.246167 37.088388,32 37.088388,32 L 22.160133,31.978069 C 22.160133,31.978069 26.997745,27.140456 26.997745,27.140456 C 18.528582,18.264221 13.291696,25.230495 11.500037,31.436501 z"
     style="fill:#404040;"/>
  </a>
 </g>
</svg>

<style type='text/css'>
<![CDATA[
[data-mouse-over-selected='false'] { opacity: 0.7; }
[data-mouse-over-selected='true']  { opacity: 1.0; }
]]>
</style>
<script type="application/ecmascript"><![CDATA[
document.addEventListener('DOMContentLoaded', (event) => {
  highlightEdges();
  highlightAdjacentNodes();
});
]]></script>
</svg>
