<?xml version="1.0" encoding="UTF-8" standalone="no"?>
<!DOCTYPE svg PUBLIC "-//W3C//DTD SVG 1.1//EN"
 "http://www.w3.org/Graphics/SVG/1.1/DTD/svg11.dtd">
<!-- Generated by graphviz version 12.2.1 (20241206.2353)
 -->
<!-- Title: processFrameData Pages: 1 -->
<svg width="301pt" height="66pt"
 viewBox="0.00 0.00 301.25 66.00" xmlns="http://www.w3.org/2000/svg" xmlns:xlink="http://www.w3.org/1999/xlink">
<g id="graph0" class="graph" transform="scale(1 1) rotate(0) translate(4 62)">
<title>processFrameData</title>
<!-- Node1 -->
<g id="Node000001" class="node">
<title>Node1</title>
<g id="a_Node000001"><a xlink:title="Executes a command based on the command key and the parameter.">
<polygon fill="#999999" stroke="#666666" points="293.25,-39 194,-39 194,-19 293.25,-19 293.25,-39"/>
<text text-anchor="middle" x="243.62" y="-25.5" font-family="Helvetica,sans-Serif" font-size="10.00">processFrameData</text>
</a>
</g>
</g>
<!-- Node2 -->
<g id="Node000002" class="node">
<title>Node2</title>
<g id="a_Node000002"><a xlink:href="receive_8cpp.html#ac5e175a6a1482f700f9aee0b727b924f" target="_top" xlink:title="Handles UART input.">
<polygon fill="white" stroke="#666666" points="158,-58 73,-58 73,-38 158,-38 158,-58"/>
<text text-anchor="middle" x="115.5" y="-44.5" font-family="Helvetica,sans-Serif" font-size="10.00">handleUartInput</text>
</a>
</g>
</g>
<!-- Node1&#45;&gt;Node2 -->
<g id="edge1_Node000001_Node000002" class="edge">
<title>Node1&#45;&gt;Node2</title>
<g id="a_edge1_Node000001_Node000002"><a xlink:title=" ">
<path fill="none" stroke="#63b8ff" d="M182.19,-38.1C174.12,-39.32 165.99,-40.54 158.33,-41.7"/>
<polygon fill="#63b8ff" stroke="#63b8ff" points="182.64,-41.58 192,-36.63 181.59,-34.65 182.64,-41.58"/>
</a>
</g>
</g>
<!-- Node4 -->
<g id="Node000004" class="node">
<title>Node4</title>
<g id="a_Node000004"><a xlink:href="receive_8cpp.html#a54817002e33761dc61558b1138749dfb" target="_top" xlink:title="Callback function for handling received LoRa packets.">
<polygon fill="white" stroke="#666666" points="146.75,-20 84.25,-20 84.25,0 146.75,0 146.75,-20"/>
<text text-anchor="middle" x="115.5" y="-6.5" font-family="Helvetica,sans-Serif" font-size="10.00">onReceive</text>
</a>
</g>
</g>
<!-- Node1&#45;&gt;Node4 -->
<g id="edge3_Node000001_Node000004" class="edge">
<title>Node1&#45;&gt;Node4</title>
<g id="a_edge3_Node000001_Node000004"><a xlink:title=" ">
<path fill="none" stroke="#63b8ff" d="M182.36,-19.92C170.14,-18.08 157.77,-16.22 147.1,-14.61"/>
<polygon fill="#63b8ff" stroke="#63b8ff" points="181.59,-23.35 192,-21.37 182.64,-16.42 181.59,-23.35"/>
</a>
</g>
</g>
<!-- Node3 -->
<g id="Node000003" class="node">
<title>Node3</title>
<g id="a_Node000003"><a xlink:href="main_8cpp.html#ae66f6b31b5ad750f1fe042a706a4e3d4" target="_top" xlink:title=" ">
<polygon fill="white" stroke="#666666" points="37,-39 0,-39 0,-19 37,-19 37,-39"/>
<text text-anchor="middle" x="18.5" y="-25.5" font-family="Helvetica,sans-Serif" font-size="10.00">main</text>
</a>
</g>
</g>
<!-- Node2&#45;&gt;Node3 -->
<g id="edge2_Node000002_Node000003" class="edge">
<title>Node2&#45;&gt;Node3</title>
<g id="a_edge2_Node000002_Node000003"><a xlink:title=" ">
<path fill="none" stroke="#63b8ff" d="M61.53,-37.41C52.86,-35.67 44.44,-33.99 37.44,-32.59"/>
<polygon fill="#63b8ff" stroke="#63b8ff" points="60.58,-40.78 71.07,-39.31 61.95,-33.92 60.58,-40.78"/>
</a>
</g>
</g>
<!-- Node4&#45;&gt;Node3 -->
<g id="edge4_Node000004_Node000003" class="edge">
<title>Node4&#45;&gt;Node3</title>
<g id="a_edge4_Node000004_Node000003"><a xlink:title=" ">
<path fill="none" stroke="#63b8ff" d="M72.74,-18.35C60.29,-20.84 47.31,-23.44 37.28,-25.44"/>
<polygon fill="#63b8ff" stroke="#63b8ff" points="73.31,-21.81 82.43,-16.41 71.94,-14.94 73.31,-21.81"/>
</a>
</g>
</g>
</g>
</svg>
