<?xml version="1.0" encoding="UTF-8" standalone="no"?>
<!DOCTYPE svg PUBLIC "-//W3C//DTD SVG 1.1//EN"
 "http://www.w3.org/Graphics/SVG/1.1/DTD/svg11.dtd">
<!-- Generated by graphviz version 12.2.1 (20241206.2353)
 -->
<!-- Title: frame_build Pages: 1 -->
<svg width="636pt" height="1168pt"
 viewBox="0.00 0.00 635.50 1167.97" xmlns="http://www.w3.org/2000/svg" xmlns:xlink="http://www.w3.org/1999/xlink">
<g id="graph0" class="graph" transform="scale(1 1) rotate(0) translate(4 1163.97)">
<title>frame_build</title>
<!-- Node1 -->
<g id="Node000001" class="node">
<title>Node1</title>
<g id="a_Node000001"><a xlink:title="Builds a Frame instance.">
<polygon fill="#999999" stroke="#666666" points="627.5,-594 561.25,-594 561.25,-574 627.5,-574 627.5,-594"/>
<text text-anchor="middle" x="594.38" y="-580.5" font-family="Helvetica,sans-Serif" font-size="10.00">frame_build</text>
</a>
</g>
</g>
<!-- Node2 -->
<g id="Node000002" class="node">
<title>Node2</title>
<g id="a_Node000002"><a xlink:href="group___command_system.html#ga52e8963095eccdf1045309bf31b4d705" target="_top" xlink:title="Executes a command based on its key.">
<polygon fill="white" stroke="#666666" points="496.75,-1068 398.25,-1068 398.25,-1048 496.75,-1048 496.75,-1068"/>
<text text-anchor="middle" x="447.5" y="-1054.5" font-family="Helvetica,sans-Serif" font-size="10.00">execute_command</text>
</a>
</g>
</g>
<!-- Node1&#45;&gt;Node2 -->
<g id="edge1_Node000001_Node000002" class="edge">
<title>Node1&#45;&gt;Node2</title>
<g id="a_edge1_Node000001_Node000002"><a xlink:title=" ">
<path fill="none" stroke="#63b8ff" d="M593.04,-605.84C591.35,-686.8 581.47,-968.46 525.25,-1034 517.98,-1042.48 507.76,-1048 497.14,-1051.59"/>
<polygon fill="#63b8ff" stroke="#63b8ff" points="596.53,-606.02 593.22,-595.96 589.54,-605.9 596.53,-606.02"/>
</a>
</g>
</g>
<!-- Node3 -->
<g id="Node000003" class="node">
<title>Node3</title>
<g id="a_Node000003"><a xlink:href="frame_8cpp.html#a8b9c5fd031b899c6c7867adcde4ac11f" target="_top" xlink:title="Executes a command based on the command key and the parameter.">
<polygon fill="white" stroke="#666666" points="307.88,-1087 227.38,-1087 227.38,-1067 307.88,-1067 307.88,-1087"/>
<text text-anchor="middle" x="267.62" y="-1073.5" font-family="Helvetica,sans-Serif" font-size="10.00">frame_process</text>
</a>
</g>
</g>
<!-- Node1&#45;&gt;Node3 -->
<g id="edge13_Node000001_Node000003" class="edge">
<title>Node1&#45;&gt;Node3</title>
<g id="a_edge13_Node000001_Node000003"><a xlink:title=" ">
<path fill="none" stroke="#63b8ff" d="M592.03,-605.73C586.15,-696.93 561.45,-1045.45 525.25,-1077 460.59,-1133.34 348.07,-1104.95 296.22,-1087.4"/>
<polygon fill="#63b8ff" stroke="#63b8ff" points="595.51,-606.13 592.65,-595.93 588.52,-605.69 595.51,-606.13"/>
</a>
</g>
</g>
<!-- Node5 -->
<g id="Node000005" class="node">
<title>Node5</title>
<g id="a_Node000005"><a xlink:href="main_8cpp.html#ae66f6b31b5ad750f1fe042a706a4e3d4" target="_top" xlink:title=" ">
<polygon fill="white" stroke="#666666" points="37,-1096 0,-1096 0,-1076 37,-1076 37,-1096"/>
<text text-anchor="middle" x="18.5" y="-1082.5" font-family="Helvetica,sans-Serif" font-size="10.00">main</text>
</a>
</g>
</g>
<!-- Node1&#45;&gt;Node5 -->
<g id="edge36_Node000001_Node000005" class="edge">
<title>Node1&#45;&gt;Node5</title>
<g id="a_edge36_Node000001_Node000005"><a xlink:title=" ">
<path fill="none" stroke="#63b8ff" d="M592.18,-605.53C586.76,-699.84 563,-1073.33 525.25,-1108 407.38,-1216.27 325.51,-1120.44 165.5,-1124 124.4,-1124.91 112.17,-1136.49 73,-1124 56.07,-1118.6 39.91,-1105.67 29.86,-1096.39"/>
<polygon fill="#63b8ff" stroke="#63b8ff" points="595.67,-605.83 592.74,-595.65 588.68,-605.44 595.67,-605.83"/>
</a>
</g>
</g>
<!-- Node7 -->
<g id="Node000007" class="node">
<title>Node7</title>
<g id="a_Node000007"><a xlink:href="frame_8cpp.html#a0b3438ff642c0934321101e1f0b8d82d" target="_top" xlink:title="Converts a string into a Frame instance.">
<polygon fill="white" stroke="#666666" points="486.25,-992 408.75,-992 408.75,-972 486.25,-972 486.25,-992"/>
<text text-anchor="middle" x="447.5" y="-978.5" font-family="Helvetica,sans-Serif" font-size="10.00">frame_decode</text>
</a>
</g>
</g>
<!-- Node1&#45;&gt;Node7 -->
<g id="edge7_Node000001_Node000007" class="edge">
<title>Node1&#45;&gt;Node7</title>
<g id="a_edge7_Node000001_Node000007"><a xlink:title=" ">
<path fill="none" stroke="#63b8ff" d="M592.31,-605.53C588.37,-677 572.26,-904.82 525.25,-958 515.45,-969.09 500.6,-975.11 486.58,-978.36"/>
<polygon fill="#63b8ff" stroke="#63b8ff" points="595.79,-606.1 592.82,-595.93 588.8,-605.73 595.79,-606.1"/>
</a>
</g>
</g>
<!-- Node11 -->
<g id="Node000011" class="node">
<title>Node11</title>
<g id="a_Node000011"><a xlink:href="group___event_commands.html#gaaa3951cee1a13c3f497c96c0f3be9f95" target="_top" xlink:title="Handler for getting total number of events in the log.">
<polygon fill="white" stroke="#666666" points="508.38,-840 386.62,-840 386.62,-820 508.38,-820 508.38,-840"/>
<text text-anchor="middle" x="447.5" y="-826.5" font-family="Helvetica,sans-Serif" font-size="10.00">hadnle_get_event_count</text>
</a>
</g>
</g>
<!-- Node1&#45;&gt;Node11 -->
<g id="edge14_Node000001_Node000011" class="edge">
<title>Node1&#45;&gt;Node11</title>
<g id="a_edge14_Node000001_Node000011"><a xlink:title=" ">
<path fill="none" stroke="#63b8ff" d="M593.54,-605.7C592.65,-650.79 583.95,-755.1 525.25,-811 520.48,-815.54 514.8,-819.05 508.72,-821.75"/>
<polygon fill="#63b8ff" stroke="#63b8ff" points="597.04,-605.94 593.61,-595.92 590.04,-605.89 597.04,-605.94"/>
</a>
</g>
</g>
<!-- Node12 -->
<g id="Node000012" class="node">
<title>Node12</title>
<g id="a_Node000012"><a xlink:href="group___clock_commands.html#gae0bd51ede980e34daf37928a625bd170" target="_top" xlink:title="Handler for getting and setting clock synchronization interval.">
<polygon fill="white" stroke="#666666" points="515.5,-802 379.5,-802 379.5,-782 515.5,-782 515.5,-802"/>
<text text-anchor="middle" x="447.5" y="-788.5" font-family="Helvetica,sans-Serif" font-size="10.00">handle_clock_sync_interval</text>
</a>
</g>
</g>
<!-- Node1&#45;&gt;Node12 -->
<g id="edge15_Node000001_Node000012" class="edge">
<title>Node1&#45;&gt;Node12</title>
<g id="a_edge15_Node000001_Node000012"><a xlink:title=" ">
<path fill="none" stroke="#63b8ff" d="M591.99,-605.81C588.28,-645.24 574.69,-728.41 525.25,-773 521.48,-776.4 517.19,-779.22 512.62,-781.54"/>
<polygon fill="#63b8ff" stroke="#63b8ff" points="595.47,-606.2 592.78,-595.95 588.49,-605.64 595.47,-606.2"/>
</a>
</g>
</g>
<!-- Node13 -->
<g id="Node000013" class="node">
<title>Node13</title>
<g id="a_Node000013"><a xlink:href="group___g_p_s_commands.html#ga3e4c6db6e933a1ff77f3ac52ce1c44be" target="_top" xlink:title="Handler for enabling GPS transparent mode (UART pass&#45;through)">
<polygon fill="white" stroke="#666666" points="508,-764 387,-764 387,-732 508,-732 508,-764"/>
<text text-anchor="start" x="395" y="-750.5" font-family="Helvetica,sans-Serif" font-size="10.00">handle_enable_gps_uart</text>
<text text-anchor="middle" x="447.5" y="-738.5" font-family="Helvetica,sans-Serif" font-size="10.00">_passthrough</text>
</a>
</g>
</g>
<!-- Node1&#45;&gt;Node13 -->
<g id="edge16_Node000001_Node000013" class="edge">
<title>Node1&#45;&gt;Node13</title>
<g id="a_edge16_Node000001_Node000013"><a xlink:title=" ">
<path fill="none" stroke="#63b8ff" d="M588.49,-605.45C580.47,-635.89 561.63,-691.41 525.25,-723 520.28,-727.32 514.54,-730.89 508.49,-733.85"/>
<polygon fill="#63b8ff" stroke="#63b8ff" points="591.85,-606.44 590.85,-595.9 585.05,-604.77 591.85,-606.44"/>
</a>
</g>
</g>
<!-- Node14 -->
<g id="Node000014" class="node">
<title>Node14</title>
<g id="a_Node000014"><a xlink:href="group___diagnostic_commands.html#ga3ab5723218b68d3ac5cd864e00ed157a" target="_top" xlink:title="Reboot system to USB firmware loader.">
<polygon fill="white" stroke="#666666" points="523,-714 372,-714 372,-694 523,-694 523,-714"/>
<text text-anchor="middle" x="447.5" y="-700.5" font-family="Helvetica,sans-Serif" font-size="10.00">handle_enter_bootloader_mode</text>
</a>
</g>
</g>
<!-- Node1&#45;&gt;Node14 -->
<g id="edge17_Node000001_Node000014" class="edge">
<title>Node1&#45;&gt;Node14</title>
<g id="a_edge17_Node000001_Node000014"><a xlink:title=" ">
<path fill="none" stroke="#63b8ff" d="M584.86,-604.87C574.33,-628.03 554.17,-664.79 525.25,-685 520.3,-688.46 514.78,-691.29 509.04,-693.61"/>
<polygon fill="#63b8ff" stroke="#63b8ff" points="588.01,-606.4 588.77,-595.84 581.59,-603.62 588.01,-606.4"/>
</a>
</g>
</g>
<!-- Node15 -->
<g id="Node000015" class="node">
<title>Node15</title>
<g id="a_Node000015"><a xlink:href="group___diagnostic_commands.html#ga517fbfd05cbec86489314348cb3f9995" target="_top" xlink:title="Get firmware build version.">
<polygon fill="white" stroke="#666666" points="510.25,-676 384.75,-676 384.75,-656 510.25,-656 510.25,-676"/>
<text text-anchor="middle" x="447.5" y="-662.5" font-family="Helvetica,sans-Serif" font-size="10.00">handle_get_build_version</text>
</a>
</g>
</g>
<!-- Node1&#45;&gt;Node15 -->
<g id="edge18_Node000001_Node000015" class="edge">
<title>Node1&#45;&gt;Node15</title>
<g id="a_edge18_Node000001_Node000015"><a xlink:title=" ">
<path fill="none" stroke="#63b8ff" d="M577.92,-602.71C565.2,-616.91 545.95,-635.84 525.25,-647 518.85,-650.45 511.8,-653.29 504.66,-655.62"/>
<polygon fill="#63b8ff" stroke="#63b8ff" points="580.4,-605.19 584.3,-595.34 575.11,-600.61 580.4,-605.19"/>
</a>
</g>
</g>
<!-- Node16 -->
<g id="Node000016" class="node">
<title>Node16</title>
<g id="a_Node000016"><a xlink:href="group___diagnostic_commands.html#ga74736b8d0e49df14f97e3e20cd3418c7" target="_top" xlink:title="Handler for listing all available commands on UART.">
<polygon fill="white" stroke="#666666" points="514.75,-638 380.25,-638 380.25,-618 514.75,-618 514.75,-638"/>
<text text-anchor="middle" x="447.5" y="-624.5" font-family="Helvetica,sans-Serif" font-size="10.00">handle_get_commands_list</text>
</a>
</g>
</g>
<!-- Node1&#45;&gt;Node16 -->
<g id="edge19_Node000001_Node000016" class="edge">
<title>Node1&#45;&gt;Node16</title>
<g id="a_edge19_Node000001_Node000016"><a xlink:title=" ">
<path fill="none" stroke="#63b8ff" d="M556.57,-598.34C546.49,-602.04 535.51,-605.86 525.25,-609 515.27,-612.06 504.46,-614.97 494.18,-617.56"/>
<polygon fill="#63b8ff" stroke="#63b8ff" points="557.51,-601.72 565.66,-594.94 555.06,-595.17 557.51,-601.72"/>
</a>
</g>
</g>
<!-- Node17 -->
<g id="Node000017" class="node">
<title>Node17</title>
<g id="a_Node000017"><a xlink:href="group___power_commands.html#gacda455c78e43fa4ad2a93215b440c0ef" target="_top" xlink:title="Handler for getting solar panel charge current.">
<polygon fill="white" stroke="#666666" points="496.75,-600 398.25,-600 398.25,-568 496.75,-568 496.75,-600"/>
<text text-anchor="start" x="406.25" y="-586.5" font-family="Helvetica,sans-Serif" font-size="10.00">handle_get_current</text>
<text text-anchor="middle" x="447.5" y="-574.5" font-family="Helvetica,sans-Serif" font-size="10.00">_charge_solar</text>
</a>
</g>
</g>
<!-- Node1&#45;&gt;Node17 -->
<g id="edge20_Node000001_Node000017" class="edge">
<title>Node1&#45;&gt;Node17</title>
<g id="a_edge20_Node000001_Node000017"><a xlink:title=" ">
<path fill="none" stroke="#63b8ff" d="M549.81,-584C533.21,-584 514.19,-584 497.14,-584"/>
<polygon fill="#63b8ff" stroke="#63b8ff" points="549.35,-587.5 559.35,-584 549.35,-580.5 549.35,-587.5"/>
</a>
</g>
</g>
<!-- Node18 -->
<g id="Node000018" class="node">
<title>Node18</title>
<g id="a_Node000018"><a xlink:href="group___power_commands.html#gaf14f25e1c7a2f89881a0f9fbcb7f1807" target="_top" xlink:title="Handler for getting total charge current.">
<polygon fill="white" stroke="#666666" points="496.75,-550 398.25,-550 398.25,-518 496.75,-518 496.75,-550"/>
<text text-anchor="start" x="406.25" y="-536.5" font-family="Helvetica,sans-Serif" font-size="10.00">handle_get_current</text>
<text text-anchor="middle" x="447.5" y="-524.5" font-family="Helvetica,sans-Serif" font-size="10.00">_charge_total</text>
</a>
</g>
</g>
<!-- Node1&#45;&gt;Node18 -->
<g id="edge21_Node000001_Node000018" class="edge">
<title>Node1&#45;&gt;Node18</title>
<g id="a_edge21_Node000001_Node000018"><a xlink:title=" ">
<path fill="none" stroke="#63b8ff" d="M555.05,-569.65C545.35,-566.1 534.94,-562.35 525.25,-559 516.11,-555.84 506.33,-552.56 496.9,-549.47"/>
<polygon fill="#63b8ff" stroke="#63b8ff" points="553.6,-572.85 564.2,-573.03 556.02,-566.28 553.6,-572.85"/>
</a>
</g>
</g>
<!-- Node19 -->
<g id="Node000019" class="node">
<title>Node19</title>
<g id="a_Node000019"><a xlink:href="group___power_commands.html#ga6e5a897c92aaeae8b2fb25faa50bb19d" target="_top" xlink:title="Handler for getting USB charge current.">
<polygon fill="white" stroke="#666666" points="496.75,-500 398.25,-500 398.25,-468 496.75,-468 496.75,-500"/>
<text text-anchor="start" x="406.25" y="-486.5" font-family="Helvetica,sans-Serif" font-size="10.00">handle_get_current</text>
<text text-anchor="middle" x="447.5" y="-474.5" font-family="Helvetica,sans-Serif" font-size="10.00">_charge_usb</text>
</a>
</g>
</g>
<!-- Node1&#45;&gt;Node19 -->
<g id="edge22_Node000001_Node000019" class="edge">
<title>Node1&#45;&gt;Node19</title>
<g id="a_edge22_Node000001_Node000019"><a xlink:title=" ">
<path fill="none" stroke="#63b8ff" d="M580.34,-564.71C567.98,-547.81 547.97,-523.69 525.25,-509 516.66,-503.44 506.73,-499.02 496.92,-495.54"/>
<polygon fill="#63b8ff" stroke="#63b8ff" points="577.19,-566.32 585.82,-572.47 582.91,-562.29 577.19,-566.32"/>
</a>
</g>
</g>
<!-- Node20 -->
<g id="Node000020" class="node">
<title>Node20</title>
<g id="a_Node000020"><a xlink:href="group___power_commands.html#ga31c33c0ee51185939be5c642affdb6b8" target="_top" xlink:title="Handler for getting system current draw.">
<polygon fill="white" stroke="#666666" points="509.88,-450 385.12,-450 385.12,-430 509.88,-430 509.88,-450"/>
<text text-anchor="middle" x="447.5" y="-436.5" font-family="Helvetica,sans-Serif" font-size="10.00">handle_get_current_draw</text>
</a>
</g>
</g>
<!-- Node1&#45;&gt;Node20 -->
<g id="edge23_Node000001_Node000020" class="edge">
<title>Node1&#45;&gt;Node20</title>
<g id="a_edge23_Node000001_Node000020"><a xlink:title=" ">
<path fill="none" stroke="#63b8ff" d="M587.66,-562.78C578.96,-534.67 559.68,-485.57 525.25,-459 520.69,-455.48 515.55,-452.6 510.16,-450.25"/>
<polygon fill="#63b8ff" stroke="#63b8ff" points="584.27,-563.65 590.41,-572.28 590.99,-561.7 584.27,-563.65"/>
</a>
</g>
</g>
<!-- Node21 -->
<g id="Node000021" class="node">
<title>Node21</title>
<g id="a_Node000021"><a xlink:href="group___g_p_s_commands.html#ga617ca7e129f14b0ca4f0d6eb333cbf27" target="_top" xlink:title="Handler for retrieving GPS GGA (Global Positioning System Fix Data) data.">
<polygon fill="white" stroke="#666666" points="501.62,-412 393.38,-412 393.38,-392 501.62,-392 501.62,-412"/>
<text text-anchor="middle" x="447.5" y="-398.5" font-family="Helvetica,sans-Serif" font-size="10.00">handle_get_gga_data</text>
</a>
</g>
</g>
<!-- Node1&#45;&gt;Node21 -->
<g id="edge24_Node000001_Node000021" class="edge">
<title>Node1&#45;&gt;Node21</title>
<g id="a_edge24_Node000001_Node000021"><a xlink:title=" ">
<path fill="none" stroke="#63b8ff" d="M590.61,-562.51C584.92,-527.46 568.59,-458.16 525.25,-421 518.58,-415.28 510.45,-411.23 502,-408.38"/>
<polygon fill="#63b8ff" stroke="#63b8ff" points="587.12,-562.87 592.03,-572.26 594.05,-561.86 587.12,-562.87"/>
</a>
</g>
</g>
<!-- Node22 -->
<g id="Node000022" class="node">
<title>Node22</title>
<g id="a_Node000022"><a xlink:href="group___event_commands.html#ga9a7182db399c2b40ea66db5989d10471" target="_top" xlink:title="Handler for retrieving last N events from the event log.">
<polygon fill="white" stroke="#666666" points="506.88,-374 388.12,-374 388.12,-354 506.88,-354 506.88,-374"/>
<text text-anchor="middle" x="447.5" y="-360.5" font-family="Helvetica,sans-Serif" font-size="10.00">handle_get_last_events</text>
</a>
</g>
</g>
<!-- Node1&#45;&gt;Node22 -->
<g id="edge25_Node000001_Node000022" class="edge">
<title>Node1&#45;&gt;Node22</title>
<g id="a_edge25_Node000001_Node000022"><a xlink:title=" ">
<path fill="none" stroke="#63b8ff" d="M592.56,-562.55C589.8,-521.41 577.74,-431.26 525.25,-383 519.99,-378.17 513.71,-374.52 507.03,-371.76"/>
<polygon fill="#63b8ff" stroke="#63b8ff" points="589.06,-562.54 593.08,-572.34 596.05,-562.17 589.06,-562.54"/>
</a>
</g>
</g>
<!-- Node23 -->
<g id="Node000023" class="node">
<title>Node23</title>
<g id="a_Node000023"><a xlink:href="group___clock_commands.html#ga8fad2991aef05583a47a5b1072ffece0" target="_top" xlink:title="Handler for getting last clock sync time.">
<polygon fill="white" stroke="#666666" points="514.75,-336 380.25,-336 380.25,-316 514.75,-316 514.75,-336"/>
<text text-anchor="middle" x="447.5" y="-322.5" font-family="Helvetica,sans-Serif" font-size="10.00">handle_get_last_sync_time</text>
</a>
</g>
</g>
<!-- Node1&#45;&gt;Node23 -->
<g id="edge26_Node000001_Node000023" class="edge">
<title>Node1&#45;&gt;Node23</title>
<g id="a_edge26_Node000001_Node000023"><a xlink:title=" ">
<path fill="none" stroke="#63b8ff" d="M593.93,-562.14C593.87,-515.25 586.81,-404.45 525.25,-345 521.7,-341.57 517.62,-338.72 513.25,-336.37"/>
<polygon fill="#63b8ff" stroke="#63b8ff" points="590.43,-562.03 593.82,-572.06 597.43,-562.1 590.43,-562.03"/>
</a>
</g>
</g>
<!-- Node24 -->
<g id="Node000024" class="node">
<title>Node24</title>
<g id="a_Node000024"><a xlink:href="group___power_commands.html#ga847b0ed9bf4c252edb1440831739e1ca" target="_top" xlink:title="Handler for retrieving Power Manager IDs.">
<polygon fill="white" stroke="#666666" points="525.25,-298 369.75,-298 369.75,-278 525.25,-278 525.25,-298"/>
<text text-anchor="middle" x="447.5" y="-284.5" font-family="Helvetica,sans-Serif" font-size="10.00">handle_get_power_manager_ids</text>
</a>
</g>
</g>
<!-- Node1&#45;&gt;Node24 -->
<g id="edge27_Node000001_Node000024" class="edge">
<title>Node1&#45;&gt;Node24</title>
<g id="a_edge27_Node000001_Node000024"><a xlink:title=" ">
<path fill="none" stroke="#63b8ff" d="M590.95,-562.47C583.92,-503.87 561.68,-343.49 525.25,-307 521.86,-303.6 517.95,-300.77 513.75,-298.43"/>
<polygon fill="#63b8ff" stroke="#63b8ff" points="587.44,-562.6 592.08,-572.13 594.39,-561.79 587.44,-562.6"/>
</a>
</g>
</g>
<!-- Node25 -->
<g id="Node000025" class="node">
<title>Node25</title>
<g id="a_Node000025"><a xlink:href="group___g_p_s_commands.html#ga8e18759b90b7902e535f50aceae81f2e" target="_top" xlink:title="Handler for retrieving GPS RMC (Recommended Minimum Navigation) data.">
<polygon fill="white" stroke="#666666" points="502,-260 393,-260 393,-240 502,-240 502,-260"/>
<text text-anchor="middle" x="447.5" y="-246.5" font-family="Helvetica,sans-Serif" font-size="10.00">handle_get_rmc_data</text>
</a>
</g>
</g>
<!-- Node1&#45;&gt;Node25 -->
<g id="edge28_Node000001_Node000025" class="edge">
<title>Node1&#45;&gt;Node25</title>
<g id="a_edge28_Node000001_Node000025"><a xlink:title=" ">
<path fill="none" stroke="#63b8ff" d="M591.61,-562.12C585.98,-497.82 566.36,-311.35 525.25,-269 518.94,-262.5 510.78,-258.09 502.15,-255.12"/>
<polygon fill="#63b8ff" stroke="#63b8ff" points="588.12,-562.4 592.45,-572.07 595.1,-561.81 588.12,-562.4"/>
</a>
</g>
</g>
<!-- Node26 -->
<g id="Node000026" class="node">
<title>Node26</title>
<g id="a_Node000026"><a xlink:href="group___power_commands.html#ga24497d675dc02a7ec46ed0327a9de54a" target="_top" xlink:title="Handler for getting 5V rail voltage.">
<polygon fill="white" stroke="#666666" points="505.38,-222 389.62,-222 389.62,-202 505.38,-202 505.38,-222"/>
<text text-anchor="middle" x="447.5" y="-208.5" font-family="Helvetica,sans-Serif" font-size="10.00">handle_get_voltage_5v</text>
</a>
</g>
</g>
<!-- Node1&#45;&gt;Node26 -->
<g id="edge29_Node000001_Node000026" class="edge">
<title>Node1&#45;&gt;Node26</title>
<g id="a_edge29_Node000001_Node000026"><a xlink:title=" ">
<path fill="none" stroke="#63b8ff" d="M592.2,-562.69C587.97,-493.91 571.27,-279.47 525.25,-231 519.86,-225.33 513.07,-221.24 505.76,-218.31"/>
<polygon fill="#63b8ff" stroke="#63b8ff" points="588.68,-562.47 592.76,-572.25 595.67,-562.06 588.68,-562.47"/>
</a>
</g>
</g>
<!-- Node27 -->
<g id="Node000027" class="node">
<title>Node27</title>
<g id="a_Node000027"><a xlink:href="group___power_commands.html#ga06487ba124c57bc39009eb235ec8cab4" target="_top" xlink:title="Handler for getting battery voltage.">
<polygon fill="white" stroke="#666666" points="497.5,-184 397.5,-184 397.5,-152 497.5,-152 497.5,-184"/>
<text text-anchor="start" x="405.5" y="-170.5" font-family="Helvetica,sans-Serif" font-size="10.00">handle_get_voltage</text>
<text text-anchor="middle" x="447.5" y="-158.5" font-family="Helvetica,sans-Serif" font-size="10.00">_battery</text>
</a>
</g>
</g>
<!-- Node1&#45;&gt;Node27 -->
<g id="edge30_Node000001_Node000027" class="edge">
<title>Node1&#45;&gt;Node27</title>
<g id="a_edge30_Node000001_Node000027"><a xlink:title=" ">
<path fill="none" stroke="#63b8ff" d="M592.48,-562.49C588.99,-489 574,-249.24 525.25,-193 518.09,-184.74 508.17,-179.19 497.83,-175.47"/>
<polygon fill="#63b8ff" stroke="#63b8ff" points="588.97,-562.51 592.92,-572.35 595.97,-562.2 588.97,-562.51"/>
</a>
</g>
</g>
<!-- Node28 -->
<g id="Node000028" class="node">
<title>Node28</title>
<g id="a_Node000028"><a xlink:href="group___g_p_s_commands.html#ga926ab365cf351bb507a8c38066ee2eeb" target="_top" xlink:title="Handler for controlling GPS module power state.">
<polygon fill="white" stroke="#666666" points="512.12,-134 382.88,-134 382.88,-114 512.12,-114 512.12,-134"/>
<text text-anchor="middle" x="447.5" y="-120.5" font-family="Helvetica,sans-Serif" font-size="10.00">handle_gps_power_status</text>
</a>
</g>
</g>
<!-- Node1&#45;&gt;Node28 -->
<g id="edge31_Node000001_Node000028" class="edge">
<title>Node1&#45;&gt;Node28</title>
<g id="a_edge31_Node000001_Node000028"><a xlink:title=" ">
<path fill="none" stroke="#63b8ff" d="M593.09,-562.23C591.6,-482.17 582.32,-205.42 525.25,-143 521.54,-138.95 517.12,-135.7 512.3,-133.1"/>
<polygon fill="#63b8ff" stroke="#63b8ff" points="589.59,-562.25 593.25,-572.19 596.59,-562.14 589.59,-562.25"/>
</a>
</g>
</g>
<!-- Node29 -->
<g id="Node000029" class="node">
<title>Node29</title>
<g id="a_Node000029"><a xlink:href="group___clock_commands.html#gaece0975a9dd699742e1db5a411bcc93c" target="_top" xlink:title="Handler for getting and setting system time.">
<polygon fill="white" stroke="#666666" points="481.75,-96 413.25,-96 413.25,-76 481.75,-76 481.75,-96"/>
<text text-anchor="middle" x="447.5" y="-82.5" font-family="Helvetica,sans-Serif" font-size="10.00">handle_time</text>
</a>
</g>
</g>
<!-- Node1&#45;&gt;Node29 -->
<g id="edge32_Node000001_Node000029" class="edge">
<title>Node1&#45;&gt;Node29</title>
<g id="a_edge32_Node000001_Node000029"><a xlink:title=" ">
<path fill="none" stroke="#63b8ff" d="M593.39,-562.28C592.98,-477.95 587.18,-173.55 525.25,-105 514.39,-92.98 497.24,-88 481.9,-86.13"/>
<polygon fill="#63b8ff" stroke="#63b8ff" points="589.89,-562.16 593.41,-572.15 596.89,-562.14 589.89,-562.16"/>
</a>
</g>
</g>
<!-- Node30 -->
<g id="Node000030" class="node">
<title>Node30</title>
<g id="a_Node000030"><a xlink:href="group___clock_commands.html#ga026ff03f9aa86d2bd305090836f4a79a" target="_top" xlink:title="Handler for getting and setting timezone offset.">
<polygon fill="white" stroke="#666666" points="506.88,-58 388.12,-58 388.12,-38 506.88,-38 506.88,-58"/>
<text text-anchor="middle" x="447.5" y="-44.5" font-family="Helvetica,sans-Serif" font-size="10.00">handle_timezone_offset</text>
</a>
</g>
</g>
<!-- Node1&#45;&gt;Node30 -->
<g id="edge33_Node000001_Node000030" class="edge">
<title>Node1&#45;&gt;Node30</title>
<g id="a_edge33_Node000001_Node000030"><a xlink:title=" ">
<path fill="none" stroke="#63b8ff" d="M593.64,-562.28C594.26,-473.81 592.04,-141.7 525.25,-67 520.31,-61.47 514.04,-57.43 507.22,-54.5"/>
<polygon fill="#63b8ff" stroke="#63b8ff" points="590.14,-562.17 593.55,-572.2 597.14,-562.23 590.14,-562.17"/>
</a>
</g>
</g>
<!-- Node31 -->
<g id="Node000031" class="node">
<title>Node31</title>
<g id="a_Node000031"><a xlink:href="main_8cpp.html#a8fa5379b5bec497b881cec19f2b38779" target="_top" xlink:title=" ">
<polygon fill="white" stroke="#666666" points="303.38,-1049 231.88,-1049 231.88,-1029 303.38,-1029 303.38,-1049"/>
<text text-anchor="middle" x="267.62" y="-1035.5" font-family="Helvetica,sans-Serif" font-size="10.00">init_systems</text>
</a>
</g>
</g>
<!-- Node1&#45;&gt;Node31 -->
<g id="edge34_Node000001_Node000031" class="edge">
<title>Node1&#45;&gt;Node31</title>
<g id="a_edge34_Node000001_Node000031"><a xlink:title=" ">
<path fill="none" stroke="#63b8ff" d="M593.08,-605.26C591.55,-682.26 582.18,-944.92 525.25,-1001 494.53,-1031.27 366.17,-1037.51 303.44,-1038.74"/>
<polygon fill="#63b8ff" stroke="#63b8ff" points="596.57,-605.77 593.24,-595.71 589.57,-605.65 596.57,-605.77"/>
</a>
</g>
</g>
<!-- Node32 -->
<g id="Node000032" class="node">
<title>Node32</title>
<g id="a_Node000032"><a xlink:href="frame_8cpp.html#af49224563adb4bf0b91daa5ab78120ca" target="_top" xlink:title="Sends the event register value to the ground station.">
<polygon fill="white" stroke="#666666" points="480.62,-20 414.38,-20 414.38,0 480.62,0 480.62,-20"/>
<text text-anchor="middle" x="447.5" y="-6.5" font-family="Helvetica,sans-Serif" font-size="10.00">send_event</text>
</a>
</g>
</g>
<!-- Node1&#45;&gt;Node32 -->
<g id="edge37_Node000001_Node000032" class="edge">
<title>Node1&#45;&gt;Node32</title>
<g id="a_edge37_Node000001_Node000032"><a xlink:title=" ">
<path fill="none" stroke="#63b8ff" d="M593.85,-562.48C595.45,-470.32 596.97,-109.93 525.25,-29 514.23,-16.57 496.49,-11.64 480.83,-9.91"/>
<polygon fill="#63b8ff" stroke="#63b8ff" points="590.36,-562.28 593.66,-572.34 597.36,-562.42 590.36,-562.28"/>
</a>
</g>
</g>
<!-- Node33 -->
<g id="Node000033" class="node">
<title>Node33</title>
<g id="a_Node000033"><a xlink:href="test__frame__build_8cpp.html#a6293acd10886f2f4dfd46c0f9b4d3bb9" target="_top" xlink:title=" ">
<polygon fill="white" stroke="#666666" points="324,-923 211.25,-923 211.25,-903 324,-903 324,-923"/>
<text text-anchor="middle" x="267.62" y="-909.5" font-family="Helvetica,sans-Serif" font-size="10.00">test_frame_build_error</text>
</a>
</g>
</g>
<!-- Node1&#45;&gt;Node33 -->
<g id="edge38_Node000001_Node000033" class="edge">
<title>Node1&#45;&gt;Node33</title>
<g id="a_edge38_Node000001_Node000033"><a xlink:title=" ">
<path fill="none" stroke="#63b8ff" d="M592.04,-605.5C587.53,-670.27 570.55,-861.49 525.25,-900 463.22,-952.73 359.21,-936.89 304.6,-923.44"/>
<polygon fill="#63b8ff" stroke="#63b8ff" points="595.51,-606.03 592.68,-595.82 588.53,-605.57 595.51,-606.03"/>
</a>
</g>
</g>
<!-- Node34 -->
<g id="Node000034" class="node">
<title>Node34</title>
<g id="a_Node000034"><a xlink:href="test__frame__build_8cpp.html#a9fb40fc4c0a9cb36690dd62d5f497c22" target="_top" xlink:title=" ">
<polygon fill="white" stroke="#666666" points="322.12,-885 213.12,-885 213.12,-865 322.12,-865 322.12,-885"/>
<text text-anchor="middle" x="267.62" y="-871.5" font-family="Helvetica,sans-Serif" font-size="10.00">test_frame_build_info</text>
</a>
</g>
</g>
<!-- Node1&#45;&gt;Node34 -->
<g id="edge40_Node000001_Node000034" class="edge">
<title>Node1&#45;&gt;Node34</title>
<g id="a_edge40_Node000001_Node000034"><a xlink:title=" ">
<path fill="none" stroke="#63b8ff" d="M591.56,-605.4C585.95,-665.81 566.71,-835.49 525.25,-869 460.61,-921.25 353.95,-900.55 300.81,-885.47"/>
<polygon fill="#63b8ff" stroke="#63b8ff" points="595.02,-606.03 592.42,-595.76 588.04,-605.41 595.02,-606.03"/>
</a>
</g>
</g>
<!-- Node35 -->
<g id="Node000035" class="node">
<title>Node35</title>
<g id="a_Node000035"><a xlink:href="test__frame__build_8cpp.html#a8b9d79d3ab4010e537ada45e554dcd5b" target="_top" xlink:title=" ">
<polygon fill="white" stroke="#666666" points="332.62,-847 202.62,-847 202.62,-827 332.62,-827 332.62,-847"/>
<text text-anchor="middle" x="267.62" y="-833.5" font-family="Helvetica,sans-Serif" font-size="10.00">test_frame_build_success</text>
</a>
</g>
</g>
<!-- Node1&#45;&gt;Node35 -->
<g id="edge42_Node000001_Node000035" class="edge">
<title>Node1&#45;&gt;Node35</title>
<g id="a_edge42_Node000001_Node000035"><a xlink:title=" ">
<path fill="none" stroke="#63b8ff" d="M591.14,-605.83C584.73,-663.72 564.16,-818.83 525.25,-849 494.81,-872.61 388.59,-858.89 322.73,-847.47"/>
<polygon fill="#63b8ff" stroke="#63b8ff" points="594.61,-606.28 592.2,-595.96 587.65,-605.53 594.61,-606.28"/>
</a>
</g>
</g>
<!-- Node2&#45;&gt;Node3 -->
<g id="edge2_Node000002_Node000003" class="edge">
<title>Node2&#45;&gt;Node3</title>
<g id="a_edge2_Node000002_Node000003"><a xlink:title=" ">
<path fill="none" stroke="#63b8ff" d="M386.69,-1064.39C360.82,-1067.15 331.26,-1070.31 308.18,-1072.77"/>
<polygon fill="#63b8ff" stroke="#63b8ff" points="386.82,-1067.9 396.39,-1063.35 386.07,-1060.93 386.82,-1067.9"/>
</a>
</g>
</g>
<!-- Node4 -->
<g id="Node000004" class="node">
<title>Node4</title>
<g id="a_Node000004"><a xlink:href="receive_8cpp.html#a14ffba44d46e00b23bd72bdb3a4d58d1" target="_top" xlink:title="Handles UART input.">
<polygon fill="white" stroke="#666666" points="165.5,-1115 73,-1115 73,-1095 165.5,-1095 165.5,-1115"/>
<text text-anchor="middle" x="119.25" y="-1101.5" font-family="Helvetica,sans-Serif" font-size="10.00">handle_uart_input</text>
</a>
</g>
</g>
<!-- Node3&#45;&gt;Node4 -->
<g id="edge3_Node000003_Node000004" class="edge">
<title>Node3&#45;&gt;Node4</title>
<g id="a_edge3_Node000003_Node000004"><a xlink:title=" ">
<path fill="none" stroke="#63b8ff" d="M216.04,-1086.68C199.73,-1089.8 181.77,-1093.23 165.85,-1096.28"/>
<polygon fill="#63b8ff" stroke="#63b8ff" points="216.36,-1090.18 225.53,-1084.86 215.05,-1083.3 216.36,-1090.18"/>
</a>
</g>
</g>
<!-- Node6 -->
<g id="Node000006" class="node">
<title>Node6</title>
<g id="a_Node000006"><a xlink:href="receive_8cpp.html#a3f494105dee3a08e1244febc81982517" target="_top" xlink:title="Callback function for handling received LoRa packets.">
<polygon fill="white" stroke="#666666" points="150.88,-1077 87.62,-1077 87.62,-1057 150.88,-1057 150.88,-1077"/>
<text text-anchor="middle" x="119.25" y="-1063.5" font-family="Helvetica,sans-Serif" font-size="10.00">on_receive</text>
</a>
</g>
</g>
<!-- Node3&#45;&gt;Node6 -->
<g id="edge5_Node000003_Node000006" class="edge">
<title>Node3&#45;&gt;Node6</title>
<g id="a_edge5_Node000003_Node000006"><a xlink:title=" ">
<path fill="none" stroke="#63b8ff" d="M215.73,-1073.52C194.19,-1072.05 169.81,-1070.39 151.07,-1069.11"/>
<polygon fill="#63b8ff" stroke="#63b8ff" points="215.29,-1077 225.5,-1074.19 215.77,-1070.02 215.29,-1077"/>
</a>
</g>
</g>
<!-- Node4&#45;&gt;Node5 -->
<g id="edge4_Node000004_Node000005" class="edge">
<title>Node4&#45;&gt;Node5</title>
<g id="a_edge4_Node000004_Node000005"><a xlink:title=" ">
<path fill="none" stroke="#63b8ff" d="M61.47,-1094.08C52.72,-1092.39 44.3,-1090.77 37.31,-1089.43"/>
<polygon fill="#63b8ff" stroke="#63b8ff" points="60.67,-1097.48 71.15,-1095.94 61.99,-1090.61 60.67,-1097.48"/>
</a>
</g>
</g>
<!-- Node6&#45;&gt;Node5 -->
<g id="edge6_Node000006_Node000005" class="edge">
<title>Node6&#45;&gt;Node5</title>
<g id="a_edge6_Node000006_Node000005"><a xlink:title=" ">
<path fill="none" stroke="#63b8ff" d="M76.15,-1075.1C62.58,-1077.71 48.27,-1080.46 37.42,-1082.55"/>
<polygon fill="#63b8ff" stroke="#63b8ff" points="76.63,-1078.57 85.79,-1073.25 75.31,-1071.7 76.63,-1078.57"/>
</a>
</g>
</g>
<!-- Node7&#45;&gt;Node3 -->
<g id="edge8_Node000007_Node000003" class="edge">
<title>Node7&#45;&gt;Node3</title>
<g id="a_edge8_Node000007_Node000003"><a xlink:title=" ">
<path fill="none" stroke="#63b8ff" d="M425.07,-999.42C403.25,-1016.43 367.85,-1042.01 333.75,-1058 325.75,-1061.75 316.85,-1064.93 308.26,-1067.56"/>
<polygon fill="#63b8ff" stroke="#63b8ff" points="427.24,-1002.17 432.91,-993.22 422.89,-996.68 427.24,-1002.17"/>
</a>
</g>
</g>
<!-- Node8 -->
<g id="Node000008" class="node">
<title>Node8</title>
<g id="a_Node000008"><a xlink:href="test__frame__coding_8cpp.html#a75deef6947cf7117a58214b4298ecec9" target="_top" xlink:title=" ">
<polygon fill="white" stroke="#666666" points="331.5,-1011 203.75,-1011 203.75,-991 331.5,-991 331.5,-1011"/>
<text text-anchor="middle" x="267.62" y="-997.5" font-family="Helvetica,sans-Serif" font-size="10.00">test_frame_decode_basic</text>
</a>
</g>
</g>
<!-- Node7&#45;&gt;Node8 -->
<g id="edge9_Node000007_Node000008" class="edge">
<title>Node7&#45;&gt;Node8</title>
<g id="a_edge9_Node000007_Node000008"><a xlink:title=" ">
<path fill="none" stroke="#63b8ff" d="M396.92,-987.3C376.78,-989.45 353.26,-991.96 331.91,-994.24"/>
<polygon fill="#63b8ff" stroke="#63b8ff" points="397.26,-990.78 406.84,-986.24 396.52,-983.82 397.26,-990.78"/>
</a>
</g>
</g>
<!-- Node10 -->
<g id="Node000010" class="node">
<title>Node10</title>
<g id="a_Node000010"><a xlink:href="test__frame__coding_8cpp.html#a054000b3d2c0abb2e13b9109ae0969ef" target="_top" xlink:title=" ">
<polygon fill="white" stroke="#666666" points="333.75,-973 201.5,-973 201.5,-941 333.75,-941 333.75,-973"/>
<text text-anchor="start" x="209.5" y="-959.5" font-family="Helvetica,sans-Serif" font-size="10.00">test_frame_decode_invalid</text>
<text text-anchor="middle" x="267.62" y="-947.5" font-family="Helvetica,sans-Serif" font-size="10.00">_header</text>
</a>
</g>
</g>
<!-- Node7&#45;&gt;Node10 -->
<g id="edge11_Node000007_Node000010" class="edge">
<title>Node7&#45;&gt;Node10</title>
<g id="a_edge11_Node000007_Node000010"><a xlink:title=" ">
<path fill="none" stroke="#63b8ff" d="M396.97,-975.04C377.48,-972.3 354.83,-969.12 334.03,-966.19"/>
<polygon fill="#63b8ff" stroke="#63b8ff" points="396.45,-978.5 406.84,-976.43 397.43,-971.57 396.45,-978.5"/>
</a>
</g>
</g>
<!-- Node9 -->
<g id="Node000009" class="node">
<title>Node9</title>
<g id="a_Node000009"><a xlink:href="test__runner_8cpp.html#a840291bc02cba5474a4cb46a9b9566fe" target="_top" xlink:title=" ">
<polygon fill="white" stroke="#666666" points="137.75,-923 100.75,-923 100.75,-903 137.75,-903 137.75,-923"/>
<text text-anchor="middle" x="119.25" y="-909.5" font-family="Helvetica,sans-Serif" font-size="10.00">main</text>
</a>
</g>
</g>
<!-- Node8&#45;&gt;Node9 -->
<g id="edge10_Node000008_Node000009" class="edge">
<title>Node8&#45;&gt;Node9</title>
<g id="a_edge10_Node000008_Node000009"><a xlink:title=" ">
<path fill="none" stroke="#63b8ff" d="M210.93,-986.5C207.68,-985.12 204.51,-983.62 201.5,-982 172.17,-966.21 143.92,-938.51 129.73,-923.46"/>
<polygon fill="#63b8ff" stroke="#63b8ff" points="209.49,-989.7 220.08,-989.99 211.99,-983.16 209.49,-989.7"/>
</a>
</g>
</g>
<!-- Node10&#45;&gt;Node9 -->
<g id="edge12_Node000010_Node000009" class="edge">
<title>Node10&#45;&gt;Node9</title>
<g id="a_edge12_Node000010_Node000009"><a xlink:title=" ">
<path fill="none" stroke="#63b8ff" d="M201.23,-937.34C178.07,-930.38 153.85,-923.1 138,-918.34"/>
<polygon fill="#63b8ff" stroke="#63b8ff" points="200.09,-940.65 210.67,-940.18 202.1,-933.95 200.09,-940.65"/>
</a>
</g>
</g>
<!-- Node31&#45;&gt;Node5 -->
<g id="edge35_Node000031_Node000005" class="edge">
<title>Node31&#45;&gt;Node5</title>
<g id="a_edge35_Node000031_Node000005"><a xlink:title=" ">
<path fill="none" stroke="#63b8ff" d="M220.3,-1033.97C180.19,-1031.28 121.21,-1031.38 73,-1048 56.2,-1053.79 40.01,-1066.64 29.92,-1075.79"/>
<polygon fill="#63b8ff" stroke="#63b8ff" points="219.85,-1037.45 230.09,-1034.72 220.38,-1030.47 219.85,-1037.45"/>
</a>
</g>
</g>
<!-- Node33&#45;&gt;Node9 -->
<g id="edge39_Node000033_Node000009" class="edge">
<title>Node33&#45;&gt;Node9</title>
<g id="a_edge39_Node000033_Node000009"><a xlink:title=" ">
<path fill="none" stroke="#63b8ff" d="M199.51,-913C176.88,-913 153.47,-913 138.02,-913"/>
<polygon fill="#63b8ff" stroke="#63b8ff" points="199.36,-916.5 209.36,-913 199.36,-909.5 199.36,-916.5"/>
</a>
</g>
</g>
<!-- Node34&#45;&gt;Node9 -->
<g id="edge41_Node000034_Node000009" class="edge">
<title>Node34&#45;&gt;Node9</title>
<g id="a_edge41_Node000034_Node000009"><a xlink:title=" ">
<path fill="none" stroke="#63b8ff" d="M215.39,-888.3C188.43,-895.3 157.1,-903.43 137.97,-908.4"/>
<polygon fill="#63b8ff" stroke="#63b8ff" points="215.98,-891.77 224.77,-885.86 214.22,-884.99 215.98,-891.77"/>
</a>
</g>
</g>
<!-- Node35&#45;&gt;Node9 -->
<g id="edge43_Node000035_Node000009" class="edge">
<title>Node35&#45;&gt;Node9</title>
<g id="a_edge43_Node000035_Node000009"><a xlink:title=" ">
<path fill="none" stroke="#63b8ff" d="M212.97,-851.1C209.03,-852.61 205.17,-854.24 201.5,-856 174.94,-868.76 147.61,-889.9 132.39,-902.54"/>
<polygon fill="#63b8ff" stroke="#63b8ff" points="213.78,-854.53 222.06,-847.91 211.46,-847.92 213.78,-854.53"/>
</a>
</g>
</g>
</g>
</svg>
