<?xml version="1.0" encoding="UTF-8" standalone="no"?>
<!DOCTYPE svg PUBLIC "-//W3C//DTD SVG 1.1//EN"
 "http://www.w3.org/Graphics/SVG/1.1/DTD/svg11.dtd">
<!-- Generated by graphviz version 12.2.1 (20241206.2353)
 -->
<!-- Title: send_event Pages: 1 -->
<svg width="470pt" height="116pt"
 viewBox="0.00 0.00 469.50 116.00" xmlns="http://www.w3.org/2000/svg" xmlns:xlink="http://www.w3.org/1999/xlink">
<g id="graph0" class="graph" transform="scale(1 1) rotate(0) translate(4 112)">
<title>send_event</title>
<!-- Node1 -->
<g id="Node000001" class="node">
<title>Node1</title>
<g id="a_Node000001"><a xlink:title="Sends the event register value to the ground station.">
<polygon fill="#999999" stroke="#666666" points="66.25,-77 0,-77 0,-57 66.25,-57 66.25,-77"/>
<text text-anchor="middle" x="33.12" y="-63.5" font-family="Helvetica,sans-Serif" font-size="10.00">send_event</text>
</a>
</g>
</g>
<!-- Node2 -->
<g id="Node000002" class="node">
<title>Node2</title>
<g id="a_Node000002"><a xlink:href="frame_8cpp.html#a29170691faa10727d607a73861cacbeb" target="_top" xlink:title="Builds a Frame instance.">
<polygon fill="white" stroke="#666666" points="168.88,-99 102.62,-99 102.62,-79 168.88,-79 168.88,-99"/>
<text text-anchor="middle" x="135.75" y="-85.5" font-family="Helvetica,sans-Serif" font-size="10.00">frame_build</text>
</a>
</g>
</g>
<!-- Node1&#45;&gt;Node2 -->
<g id="edge1_Node000001_Node000002" class="edge">
<title>Node1&#45;&gt;Node2</title>
<g id="a_edge1_Node000001_Node000002"><a xlink:title=" ">
<path fill="none" stroke="#63b8ff" d="M66.52,-74.08C74.42,-75.81 82.99,-77.68 91.32,-79.5"/>
<polygon fill="#63b8ff" stroke="#63b8ff" points="90.42,-82.89 100.94,-81.61 91.92,-76.05 90.42,-82.89"/>
</a>
</g>
</g>
<!-- Node4 -->
<g id="Node000004" class="node">
<title>Node4</title>
<g id="a_Node000004"><a xlink:href="send_8cpp.html#ae6c6f3b673e7e83306da7ea2458d3241" target="_top" xlink:title="Sends a Frame using LoRa.">
<polygon fill="white" stroke="#666666" points="169.25,-58 102.25,-58 102.25,-38 169.25,-38 169.25,-58"/>
<text text-anchor="middle" x="135.75" y="-44.5" font-family="Helvetica,sans-Serif" font-size="10.00">send_frame</text>
</a>
</g>
</g>
<!-- Node1&#45;&gt;Node4 -->
<g id="edge3_Node000001_Node000004" class="edge">
<title>Node1&#45;&gt;Node4</title>
<g id="a_edge3_Node000001_Node000004"><a xlink:title=" ">
<path fill="none" stroke="#63b8ff" d="M66.52,-60.88C74.25,-59.42 82.63,-57.84 90.79,-56.3"/>
<polygon fill="#63b8ff" stroke="#63b8ff" points="91.41,-59.75 100.59,-54.45 90.11,-52.87 91.41,-59.75"/>
</a>
</g>
</g>
<!-- Node3 -->
<g id="Node000003" class="node">
<title>Node3</title>
<g id="a_Node000003"><a xlink:href="utils__converters_8cpp.html#a29531ed9ad98ab78384a8a2f37f4e77d" target="_top" xlink:title="Converts a ValueUnit to a string.">
<polygon fill="white" stroke="#666666" points="303,-108 205.25,-108 205.25,-76 303,-76 303,-108"/>
<text text-anchor="start" x="213.25" y="-94.5" font-family="Helvetica,sans-Serif" font-size="10.00">value_unit_type_to</text>
<text text-anchor="middle" x="254.12" y="-82.5" font-family="Helvetica,sans-Serif" font-size="10.00">_string</text>
</a>
</g>
</g>
<!-- Node2&#45;&gt;Node3 -->
<g id="edge2_Node000002_Node000003" class="edge">
<title>Node2&#45;&gt;Node3</title>
<g id="a_edge2_Node000002_Node000003"><a xlink:title=" ">
<path fill="none" stroke="#63b8ff" d="M169.17,-89.84C176.75,-90.03 185.06,-90.25 193.42,-90.46"/>
<polygon fill="#63b8ff" stroke="#63b8ff" points="193.18,-93.96 203.26,-90.71 193.36,-86.96 193.18,-93.96"/>
</a>
</g>
</g>
<!-- Node5 -->
<g id="Node000005" class="node">
<title>Node5</title>
<g id="a_Node000005"><a xlink:href="frame_8cpp.html#a3ae6df528775be58890bf406c906a056" target="_top" xlink:title="Encodes a Frame instance into a string.">
<polygon fill="white" stroke="#666666" points="292.88,-58 215.38,-58 215.38,-38 292.88,-38 292.88,-58"/>
<text text-anchor="middle" x="254.12" y="-44.5" font-family="Helvetica,sans-Serif" font-size="10.00">frame_encode</text>
</a>
</g>
</g>
<!-- Node4&#45;&gt;Node5 -->
<g id="edge4_Node000004_Node000005" class="edge">
<title>Node4&#45;&gt;Node5</title>
<g id="a_edge4_Node000004_Node000005"><a xlink:title=" ">
<path fill="none" stroke="#63b8ff" d="M169.48,-48C180.07,-48 192.05,-48 203.58,-48"/>
<polygon fill="#63b8ff" stroke="#63b8ff" points="203.37,-51.5 213.37,-48 203.37,-44.5 203.37,-51.5"/>
</a>
</g>
</g>
<!-- Node7 -->
<g id="Node000007" class="node">
<title>Node7</title>
<g id="a_Node000007"><a xlink:href="send_8cpp.html#a42881e6476e0ce51ee9f6a99a7318d3b" target="_top" xlink:title="Sends a message using LoRa.">
<polygon fill="white" stroke="#666666" points="295.12,-20 213.12,-20 213.12,0 295.12,0 295.12,-20"/>
<text text-anchor="middle" x="254.12" y="-6.5" font-family="Helvetica,sans-Serif" font-size="10.00">send_message</text>
</a>
</g>
</g>
<!-- Node4&#45;&gt;Node7 -->
<g id="edge6_Node000004_Node000007" class="edge">
<title>Node4&#45;&gt;Node7</title>
<g id="a_edge6_Node000004_Node000007"><a xlink:title=" ">
<path fill="none" stroke="#63b8ff" d="M168.86,-37.52C181.7,-33.32 196.69,-28.43 210.43,-23.94"/>
<polygon fill="#63b8ff" stroke="#63b8ff" points="211.26,-27.35 219.68,-20.92 209.09,-20.7 211.26,-27.35"/>
</a>
</g>
</g>
<!-- Node6 -->
<g id="Node000006" class="node">
<title>Node6</title>
<g id="a_Node000006"><a xlink:href="utils__converters_8cpp.html#ab218e62029b4451e910d8caf0fd05804" target="_top" xlink:title="Converts an OperationType to a string.">
<polygon fill="white" stroke="#666666" points="461.5,-58 339,-58 339,-38 461.5,-38 461.5,-58"/>
<text text-anchor="middle" x="400.25" y="-44.5" font-family="Helvetica,sans-Serif" font-size="10.00">operation_type_to_string</text>
</a>
</g>
</g>
<!-- Node5&#45;&gt;Node6 -->
<g id="edge5_Node000005_Node000006" class="edge">
<title>Node5&#45;&gt;Node6</title>
<g id="a_edge5_Node000005_Node000006"><a xlink:title=" ">
<path fill="none" stroke="#63b8ff" d="M293.37,-48C303.86,-48 315.59,-48 327.31,-48"/>
<polygon fill="#63b8ff" stroke="#63b8ff" points="326.99,-51.5 336.99,-48 326.99,-44.5 326.99,-51.5"/>
</a>
</g>
</g>
<!-- Node8 -->
<g id="Node000008" class="node">
<title>Node8</title>
<g id="a_Node000008"><a xlink:href="utils_8cpp.html#acd86977d05fa330749958ace0f2798de" target="_top" xlink:title="Prints a message to the UART with a timestamp and core number.">
<polygon fill="white" stroke="#666666" points="428.5,-20 372,-20 372,0 428.5,0 428.5,-20"/>
<text text-anchor="middle" x="400.25" y="-6.5" font-family="Helvetica,sans-Serif" font-size="10.00">uart_print</text>
</a>
</g>
</g>
<!-- Node7&#45;&gt;Node8 -->
<g id="edge7_Node000007_Node000008" class="edge">
<title>Node7&#45;&gt;Node8</title>
<g id="a_edge7_Node000007_Node000008"><a xlink:title=" ">
<path fill="none" stroke="#63b8ff" d="M295.27,-10C315.6,-10 340.18,-10 360.34,-10"/>
<polygon fill="#63b8ff" stroke="#63b8ff" points="360.11,-13.5 370.11,-10 360.11,-6.5 360.11,-13.5"/>
</a>
</g>
</g>
</g>
</svg>
