<?xml version="1.0" encoding="UTF-8" standalone="no"?>
<!DOCTYPE svg PUBLIC "-//W3C//DTD SVG 1.1//EN"
 "http://www.w3.org/Graphics/SVG/1.1/DTD/svg11.dtd">
<!-- Generated by graphviz version 12.2.1 (20241206.2353)
 -->
<!-- Title: frame_decode Pages: 1 -->
<svg width="536pt" height="192pt"
 viewBox="0.00 0.00 536.25 192.00" xmlns="http://www.w3.org/2000/svg" xmlns:xlink="http://www.w3.org/1999/xlink">
<g id="graph0" class="graph" transform="scale(1 1) rotate(0) translate(4 188)">
<title>frame_decode</title>
<!-- Node1 -->
<g id="Node000001" class="node">
<title>Node1</title>
<g id="a_Node000001"><a xlink:title="Converts a string into a Frame instance.">
<polygon fill="#999999" stroke="#666666" points="77.5,-77 0,-77 0,-57 77.5,-57 77.5,-77"/>
<text text-anchor="middle" x="38.75" y="-63.5" font-family="Helvetica,sans-Serif" font-size="10.00">frame_decode</text>
</a>
</g>
</g>
<!-- Node2 -->
<g id="Node000002" class="node">
<title>Node2</title>
<g id="a_Node000002"><a xlink:href="frame_8cpp.html#a29170691faa10727d607a73861cacbeb" target="_top" xlink:title="Builds a Frame instance.">
<polygon fill="white" stroke="#666666" points="207.88,-156 141.62,-156 141.62,-136 207.88,-136 207.88,-156"/>
<text text-anchor="middle" x="174.75" y="-142.5" font-family="Helvetica,sans-Serif" font-size="10.00">frame_build</text>
</a>
</g>
</g>
<!-- Node1&#45;&gt;Node2 -->
<g id="edge1_Node000001_Node000002" class="edge">
<title>Node1&#45;&gt;Node2</title>
<g id="a_edge1_Node000001_Node000002"><a xlink:title=" ">
<path fill="none" stroke="#63b8ff" d="M57.54,-77.49C80.3,-90.9 119.92,-114.26 146.49,-129.93"/>
<polygon fill="#63b8ff" stroke="#63b8ff" points="144.61,-132.88 155,-134.95 148.17,-126.85 144.61,-132.88"/>
</a>
</g>
</g>
<!-- Node4 -->
<g id="Node000004" class="node">
<title>Node4</title>
<g id="a_Node000004"><a xlink:href="send_8cpp.html#ae6c6f3b673e7e83306da7ea2458d3241" target="_top" xlink:title="Sends a Frame using LoRa.">
<polygon fill="white" stroke="#666666" points="208.25,-96 141.25,-96 141.25,-76 208.25,-76 208.25,-96"/>
<text text-anchor="middle" x="174.75" y="-82.5" font-family="Helvetica,sans-Serif" font-size="10.00">send_frame</text>
</a>
</g>
</g>
<!-- Node1&#45;&gt;Node4 -->
<g id="edge3_Node000001_Node000004" class="edge">
<title>Node1&#45;&gt;Node4</title>
<g id="a_edge3_Node000001_Node000004"><a xlink:title=" ">
<path fill="none" stroke="#63b8ff" d="M77.79,-72.39C94.01,-74.69 113.03,-77.39 129.85,-79.77"/>
<polygon fill="#63b8ff" stroke="#63b8ff" points="129.18,-83.22 139.57,-81.15 130.16,-76.28 129.18,-83.22"/>
</a>
</g>
</g>
<!-- Node8 -->
<g id="Node000008" class="node">
<title>Node8</title>
<g id="a_Node000008"><a xlink:href="utils_8cpp.html#acd86977d05fa330749958ace0f2798de" target="_top" xlink:title="Prints a message to the UART with a timestamp and core number.">
<polygon fill="white" stroke="#666666" points="495.25,-77 438.75,-77 438.75,-57 495.25,-57 495.25,-77"/>
<text text-anchor="middle" x="467" y="-63.5" font-family="Helvetica,sans-Serif" font-size="10.00">uart_print</text>
</a>
</g>
</g>
<!-- Node1&#45;&gt;Node8 -->
<g id="edge9_Node000001_Node000008" class="edge">
<title>Node1&#45;&gt;Node8</title>
<g id="a_edge9_Node000001_Node000008"><a xlink:title=" ">
<path fill="none" stroke="#63b8ff" d="M77.95,-67C158.6,-67 345.49,-67 426.91,-67"/>
<polygon fill="#63b8ff" stroke="#63b8ff" points="426.84,-70.5 436.84,-67 426.84,-63.5 426.84,-70.5"/>
</a>
</g>
</g>
<!-- Node9 -->
<g id="Node000009" class="node">
<title>Node9</title>
<g id="a_Node000009"><a xlink:href="utils__converters_8cpp.html#a4e9ddea19ddd04177180c2dfae26b15b" target="_top" xlink:title="Converts a string to an OperationType.">
<polygon fill="white" stroke="#666666" points="236,-20 113.5,-20 113.5,0 236,0 236,-20"/>
<text text-anchor="middle" x="174.75" y="-6.5" font-family="Helvetica,sans-Serif" font-size="10.00">string_to_operation_type</text>
</a>
</g>
</g>
<!-- Node1&#45;&gt;Node9 -->
<g id="edge8_Node000001_Node000009" class="edge">
<title>Node1&#45;&gt;Node9</title>
<g id="a_edge8_Node000001_Node000009"><a xlink:title=" ">
<path fill="none" stroke="#63b8ff" d="M62.24,-56.65C76.79,-50.02 96.19,-41.32 113.5,-34 120.9,-30.87 128.86,-27.62 136.49,-24.56"/>
<polygon fill="#63b8ff" stroke="#63b8ff" points="137.55,-27.9 145.55,-20.95 134.97,-21.4 137.55,-27.9"/>
</a>
</g>
</g>
<!-- Node3 -->
<g id="Node000003" class="node">
<title>Node3</title>
<g id="a_Node000003"><a xlink:href="utils__converters_8cpp.html#a29531ed9ad98ab78384a8a2f37f4e77d" target="_top" xlink:title="Converts a ValueUnit to a string.">
<polygon fill="white" stroke="#666666" points="369.75,-184 272,-184 272,-152 369.75,-152 369.75,-184"/>
<text text-anchor="start" x="280" y="-170.5" font-family="Helvetica,sans-Serif" font-size="10.00">value_unit_type_to</text>
<text text-anchor="middle" x="320.88" y="-158.5" font-family="Helvetica,sans-Serif" font-size="10.00">_string</text>
</a>
</g>
</g>
<!-- Node2&#45;&gt;Node3 -->
<g id="edge2_Node000002_Node000003" class="edge">
<title>Node2&#45;&gt;Node3</title>
<g id="a_edge2_Node000002_Node000003"><a xlink:title=" ">
<path fill="none" stroke="#63b8ff" d="M208.09,-150.94C223.55,-153.3 242.56,-156.2 260.49,-158.93"/>
<polygon fill="#63b8ff" stroke="#63b8ff" points="259.85,-162.38 270.27,-160.43 260.91,-155.46 259.85,-162.38"/>
</a>
</g>
</g>
<!-- Node5 -->
<g id="Node000005" class="node">
<title>Node5</title>
<g id="a_Node000005"><a xlink:href="frame_8cpp.html#a3ae6df528775be58890bf406c906a056" target="_top" xlink:title="Encodes a Frame instance into a string.">
<polygon fill="white" stroke="#666666" points="359.62,-134 282.12,-134 282.12,-114 359.62,-114 359.62,-134"/>
<text text-anchor="middle" x="320.88" y="-120.5" font-family="Helvetica,sans-Serif" font-size="10.00">frame_encode</text>
</a>
</g>
</g>
<!-- Node4&#45;&gt;Node5 -->
<g id="edge4_Node000004_Node000005" class="edge">
<title>Node4&#45;&gt;Node5</title>
<g id="a_edge4_Node000004_Node000005"><a xlink:title=" ">
<path fill="none" stroke="#63b8ff" d="M208.45,-94.62C226.81,-99.46 250.09,-105.6 270.62,-111.01"/>
<polygon fill="#63b8ff" stroke="#63b8ff" points="269.66,-114.38 280.22,-113.55 271.45,-107.61 269.66,-114.38"/>
</a>
</g>
</g>
<!-- Node7 -->
<g id="Node000007" class="node">
<title>Node7</title>
<g id="a_Node000007"><a xlink:href="send_8cpp.html#a42881e6476e0ce51ee9f6a99a7318d3b" target="_top" xlink:title="Sends a message using LoRa.">
<polygon fill="white" stroke="#666666" points="361.88,-96 279.88,-96 279.88,-76 361.88,-76 361.88,-96"/>
<text text-anchor="middle" x="320.88" y="-82.5" font-family="Helvetica,sans-Serif" font-size="10.00">send_message</text>
</a>
</g>
</g>
<!-- Node4&#45;&gt;Node7 -->
<g id="edge6_Node000004_Node000007" class="edge">
<title>Node4&#45;&gt;Node7</title>
<g id="a_edge6_Node000004_Node000007"><a xlink:title=" ">
<path fill="none" stroke="#63b8ff" d="M208.45,-86C226.09,-86 248.26,-86 268.17,-86"/>
<polygon fill="#63b8ff" stroke="#63b8ff" points="268.07,-89.5 278.07,-86 268.07,-82.5 268.07,-89.5"/>
</a>
</g>
</g>
<!-- Node6 -->
<g id="Node000006" class="node">
<title>Node6</title>
<g id="a_Node000006"><a xlink:href="utils__converters_8cpp.html#ab218e62029b4451e910d8caf0fd05804" target="_top" xlink:title="Converts an OperationType to a string.">
<polygon fill="white" stroke="#666666" points="528.25,-134 405.75,-134 405.75,-114 528.25,-114 528.25,-134"/>
<text text-anchor="middle" x="467" y="-120.5" font-family="Helvetica,sans-Serif" font-size="10.00">operation_type_to_string</text>
</a>
</g>
</g>
<!-- Node5&#45;&gt;Node6 -->
<g id="edge5_Node000005_Node000006" class="edge">
<title>Node5&#45;&gt;Node6</title>
<g id="a_edge5_Node000005_Node000006"><a xlink:title=" ">
<path fill="none" stroke="#63b8ff" d="M360.12,-124C370.61,-124 382.34,-124 394.06,-124"/>
<polygon fill="#63b8ff" stroke="#63b8ff" points="393.74,-127.5 403.74,-124 393.74,-120.5 393.74,-127.5"/>
</a>
</g>
</g>
<!-- Node7&#45;&gt;Node8 -->
<g id="edge7_Node000007_Node000008" class="edge">
<title>Node7&#45;&gt;Node8</title>
<g id="a_edge7_Node000007_Node000008"><a xlink:title=" ">
<path fill="none" stroke="#63b8ff" d="M362.02,-80.71C382.35,-78.03 406.93,-74.79 427.09,-72.13"/>
<polygon fill="#63b8ff" stroke="#63b8ff" points="427.42,-75.62 436.88,-70.84 426.5,-68.68 427.42,-75.62"/>
</a>
</g>
</g>
</g>
</svg>
