<?xml version="1.0" encoding="UTF-8" standalone="no"?>
<!DOCTYPE svg PUBLIC "-//W3C//DTD SVG 1.1//EN"
 "http://www.w3.org/Graphics/SVG/1.1/DTD/svg11.dtd">
<!-- Generated by graphviz version 12.2.1 (20241206.2353)
 -->
<!-- Title: frame_build Pages: 1 -->
<!--zoomable 1244 -->

<svg id="main" version="1.1" xmlns="http://www.w3.org/2000/svg" xmlns:xlink="http://www.w3.org/1999/xlink" xml:space="preserve" onload="init(evt)">

<style type="text/css"><![CDATA[
.node, .edge {opacity: 0.7;}
.node.selected, .edge.selected {opacity: 1;}
.edge:hover path { stroke: red; }
.edge:hover polygon { stroke: red; fill: red; }
]]></style>

<defs>
  <circle id="rim" cx="0" cy="0" r="7"/>
  <circle id="rim2" cx="0" cy="0" r="3.5"/>
  <g id="zoomPlus">
    <use xlink:href="#rim" fill="#404040"><set attributeName="fill" to="#808080" begin="zoomplus.mouseover" end="zoomplus.mouseout"/></use>
    <path d="M-4,0h8M0,-4v8" fill="none" stroke="white" stroke-width="1.5" pointer-events="none"/>
  </g>
  <g id="zoomMin">
    <use xlink:href="#rim" fill="#404040"><set attributeName="fill" to="#808080" begin="zoomminus.mouseover" end="zoomminus.mouseout"/></use>
    <path d="M-4,0h8" fill="none" stroke="white" stroke-width="1.5" pointer-events="none"/>
  </g>
  <g id="arrowUp" transform="translate(30 24)">
    <use xlink:href="#rim"/>
    <path pointer-events="none" fill="none" stroke="white" stroke-width="1.5" d="M0,-3.0v7 M-2.5,-0.5L0,-3.0L2.5,-0.5"/>
  </g>
  <g id="arrowRight" transform="rotate(90) translate(36 -43)">
    <use xlink:href="#rim"/>
    <path pointer-events="none" fill="none" stroke="white" stroke-width="1.5" d="M0,-3.0v7 M-2.5,-0.5L0,-3.0L2.5,-0.5"/>
  </g>
  <g id="arrowDown" transform="rotate(180) translate(-30 -48)">
    <use xlink:href="#rim"/>
    <path pointer-events="none" fill="none" stroke="white" stroke-width="1.5" d="M0,-3.0v7 M-2.5,-0.5L0,-3.0L2.5,-0.5"/>
  </g>
  <g id="arrowLeft" transform="rotate(270) translate(-36 17)">
    <use xlink:href="#rim"/>
    <path pointer-events="none" fill="none" stroke="white" stroke-width="1.5" d="M0,-3.0v7 M-2.5,-0.5L0,-3.0L2.5,-0.5"/>
  </g>
  <g id="resetDef">
    <use xlink:href="#rim2" fill="#404040"><set attributeName="fill" to="#808080" begin="reset.mouseover" end="reset.mouseout"/></use>
  </g>
</defs>
<script type="application/ecmascript">
var viewWidth = 636;
var viewHeight = 1244;
var sectionId = 'dynsection-9';
</script>
<script type="application/ecmascript" xlink:href="svg.min.js"/>
<svg id="graph" class="graph">
<g id="viewport">
<title>frame_build</title>
<!-- Node1 -->
<g id="Node000001" class="node">
<title>Node1</title>
<g id="a_Node000001"><a xlink:title="Builds a Frame instance.">
<polygon fill="#999999" stroke="#666666" points="627.5,-632 561.25,-632 561.25,-612 627.5,-612 627.5,-632"/>
<text text-anchor="middle" x="594.38" y="-618.5" font-family="Helvetica,sans-Serif" font-size="10.00">frame_build</text>
</a>
</g>
</g>
<!-- Node2 -->
<g id="Node000002" class="node">
<title>Node2</title>
<g id="a_Node000002"><a xlink:href="group___command_system.html#ga52e8963095eccdf1045309bf31b4d705" target="_top" xlink:title="Executes a command based on its key.">
<polygon fill="white" stroke="#666666" points="496.75,-1144 398.25,-1144 398.25,-1124 496.75,-1124 496.75,-1144"/>
<text text-anchor="middle" x="447.5" y="-1130.5" font-family="Helvetica,sans-Serif" font-size="10.00">execute_command</text>
</a>
</g>
</g>
<!-- Node1&#45;&gt;Node2 -->
<g id="edge1_Node000001_Node000002" class="edge">
<title>Node1&#45;&gt;Node2</title>
<g id="a_edge1_Node000001_Node000002"><a xlink:title=" ">
<path fill="none" stroke="#63b8ff" d="M593.32,-643.75C592.69,-728.86 586.16,-1038.16 525.25,-1110 518.03,-1118.52 507.82,-1124.06 497.21,-1127.65"/>
<polygon fill="#63b8ff" stroke="#63b8ff" points="596.82,-644.01 593.37,-633.99 589.82,-643.97 596.82,-644.01"/>
</a>
</g>
</g>
<!-- Node3 -->
<g id="Node000003" class="node">
<title>Node3</title>
<g id="a_Node000003"><a xlink:href="frame_8cpp.html#a8b9c5fd031b899c6c7867adcde4ac11f" target="_top" xlink:title="Executes a command based on the command key and the parameter.">
<polygon fill="white" stroke="#666666" points="307.88,-1163 227.38,-1163 227.38,-1143 307.88,-1143 307.88,-1163"/>
<text text-anchor="middle" x="267.62" y="-1149.5" font-family="Helvetica,sans-Serif" font-size="10.00">frame_process</text>
</a>
</g>
</g>
<!-- Node1&#45;&gt;Node3 -->
<g id="edge13_Node000001_Node000003" class="edge">
<title>Node1&#45;&gt;Node3</title>
<g id="a_edge13_Node000001_Node000003"><a xlink:title=" ">
<path fill="none" stroke="#63b8ff" d="M592.26,-643.57C587.12,-738.82 564.28,-1118.66 525.25,-1153 460.86,-1209.65 348.2,-1181.11 296.28,-1163.46"/>
<polygon fill="#63b8ff" stroke="#63b8ff" points="595.74,-643.98 592.78,-633.81 588.75,-643.61 595.74,-643.98"/>
</a>
</g>
</g>
<!-- Node5 -->
<g id="Node000005" class="node">
<title>Node5</title>
<g id="a_Node000005"><a xlink:href="main_8cpp.html#ae66f6b31b5ad750f1fe042a706a4e3d4" target="_top" xlink:title=" ">
<polygon fill="white" stroke="#666666" points="37,-1172 0,-1172 0,-1152 37,-1152 37,-1172"/>
<text text-anchor="middle" x="18.5" y="-1158.5" font-family="Helvetica,sans-Serif" font-size="10.00">main</text>
</a>
</g>
</g>
<!-- Node1&#45;&gt;Node5 -->
<g id="edge38_Node000001_Node000005" class="edge">
<title>Node1&#45;&gt;Node5</title>
<g id="a_edge38_Node000001_Node000005"><a xlink:title=" ">
<path fill="none" stroke="#63b8ff" d="M592.37,-643.83C587.58,-742.84 565.7,-1146.52 525.25,-1184 407.85,-1292.78 325.51,-1196.44 165.5,-1200 124.4,-1200.91 112.17,-1212.49 73,-1200 56.07,-1194.6 39.91,-1181.67 29.86,-1172.39"/>
<polygon fill="#63b8ff" stroke="#63b8ff" points="595.86,-644.06 592.84,-633.91 588.87,-643.73 595.86,-644.06"/>
</a>
</g>
</g>
<!-- Node7 -->
<g id="Node000007" class="node">
<title>Node7</title>
<g id="a_Node000007"><a xlink:href="frame_8cpp.html#a0b3438ff642c0934321101e1f0b8d82d" target="_top" xlink:title="Converts a string into a Frame instance.">
<polygon fill="white" stroke="#666666" points="486.25,-1068 408.75,-1068 408.75,-1048 486.25,-1048 486.25,-1068"/>
<text text-anchor="middle" x="447.5" y="-1054.5" font-family="Helvetica,sans-Serif" font-size="10.00">frame_decode</text>
</a>
</g>
</g>
<!-- Node1&#45;&gt;Node7 -->
<g id="edge7_Node000001_Node000007" class="edge">
<title>Node1&#45;&gt;Node7</title>
<g id="a_edge7_Node000001_Node000007"><a xlink:title=" ">
<path fill="none" stroke="#63b8ff" d="M592.71,-643.69C589.92,-720 576.86,-974.66 525.25,-1034 515.54,-1045.17 500.71,-1051.2 486.67,-1054.44"/>
<polygon fill="#63b8ff" stroke="#63b8ff" points="596.2,-643.94 593.04,-633.83 589.2,-643.7 596.2,-643.94"/>
</a>
</g>
</g>
<!-- Node11 -->
<g id="Node000011" class="node">
<title>Node11</title>
<g id="a_Node000011"><a xlink:href="group___event_commands.html#gaaa3951cee1a13c3f497c96c0f3be9f95" target="_top" xlink:title="Handler for getting total number of events in the log.">
<polygon fill="white" stroke="#666666" points="508.38,-916 386.62,-916 386.62,-896 508.38,-896 508.38,-916"/>
<text text-anchor="middle" x="447.5" y="-902.5" font-family="Helvetica,sans-Serif" font-size="10.00">hadnle_get_event_count</text>
</a>
</g>
</g>
<!-- Node1&#45;&gt;Node11 -->
<g id="edge14_Node000001_Node000011" class="edge">
<title>Node1&#45;&gt;Node11</title>
<g id="a_edge14_Node000001_Node000011"><a xlink:title=" ">
<path fill="none" stroke="#63b8ff" d="M590.72,-643.34C583.23,-700.02 560.22,-852.34 525.25,-887 520.47,-891.73 514.71,-895.35 508.52,-898.11"/>
<polygon fill="#63b8ff" stroke="#63b8ff" points="594.15,-644.08 591.95,-633.72 587.21,-643.19 594.15,-644.08"/>
</a>
</g>
</g>
<!-- Node12 -->
<g id="Node000012" class="node">
<title>Node12</title>
<g id="a_Node000012"><a xlink:href="group___clock_commands.html#gae0bd51ede980e34daf37928a625bd170" target="_top" xlink:title="Handler for getting and setting clock synchronization interval.">
<polygon fill="white" stroke="#666666" points="515.5,-878 379.5,-878 379.5,-858 515.5,-858 515.5,-878"/>
<text text-anchor="middle" x="447.5" y="-864.5" font-family="Helvetica,sans-Serif" font-size="10.00">handle_clock_sync_interval</text>
</a>
</g>
</g>
<!-- Node1&#45;&gt;Node12 -->
<g id="edge15_Node000001_Node000012" class="edge">
<title>Node1&#45;&gt;Node12</title>
<g id="a_edge15_Node000001_Node000012"><a xlink:title=" ">
<path fill="none" stroke="#63b8ff" d="M593.54,-643.7C592.65,-688.79 583.95,-793.1 525.25,-849 521.67,-852.41 517.58,-855.23 513.19,-857.57"/>
<polygon fill="#63b8ff" stroke="#63b8ff" points="597.04,-643.94 593.61,-633.92 590.04,-643.89 597.04,-643.94"/>
</a>
</g>
</g>
<!-- Node13 -->
<g id="Node000013" class="node">
<title>Node13</title>
<g id="a_Node000013"><a xlink:href="group___g_p_s_commands.html#ga3e4c6db6e933a1ff77f3ac52ce1c44be" target="_top" xlink:title="Handler for enabling GPS transparent mode (UART pass&#45;through)">
<polygon fill="white" stroke="#666666" points="508,-840 387,-840 387,-808 508,-808 508,-840"/>
<text text-anchor="start" x="395" y="-826.5" font-family="Helvetica,sans-Serif" font-size="10.00">handle_enable_gps_uart</text>
<text text-anchor="middle" x="447.5" y="-814.5" font-family="Helvetica,sans-Serif" font-size="10.00">_passthrough</text>
</a>
</g>
</g>
<!-- Node1&#45;&gt;Node13 -->
<g id="edge16_Node000001_Node000013" class="edge">
<title>Node1&#45;&gt;Node13</title>
<g id="a_edge16_Node000001_Node000013"><a xlink:title=" ">
<path fill="none" stroke="#63b8ff" d="M591,-643.9C585.82,-681.03 570.12,-756.43 525.25,-799 520.27,-803.73 514.38,-807.56 508.12,-810.67"/>
<polygon fill="#63b8ff" stroke="#63b8ff" points="594.47,-644.34 592.24,-633.98 587.53,-643.47 594.47,-644.34"/>
</a>
</g>
</g>
<!-- Node14 -->
<g id="Node000014" class="node">
<title>Node14</title>
<g id="a_Node000014"><a xlink:href="group___diagnostic_commands.html#ga3ab5723218b68d3ac5cd864e00ed157a" target="_top" xlink:title="Reboot system to USB firmware loader.">
<polygon fill="white" stroke="#666666" points="523,-790 372,-790 372,-770 523,-770 523,-790"/>
<text text-anchor="middle" x="447.5" y="-776.5" font-family="Helvetica,sans-Serif" font-size="10.00">handle_enter_bootloader_mode</text>
</a>
</g>
</g>
<!-- Node1&#45;&gt;Node14 -->
<g id="edge17_Node000001_Node000014" class="edge">
<title>Node1&#45;&gt;Node14</title>
<g id="a_edge17_Node000001_Node000014"><a xlink:title=" ">
<path fill="none" stroke="#63b8ff" d="M588.9,-643.36C581.32,-674.14 562.93,-730.6 525.25,-761 520.98,-764.45 516.17,-767.28 511.09,-769.61"/>
<polygon fill="#63b8ff" stroke="#63b8ff" points="592.29,-644.24 591.11,-633.71 585.47,-642.68 592.29,-644.24"/>
</a>
</g>
</g>
<!-- Node15 -->
<g id="Node000015" class="node">
<title>Node15</title>
<g id="a_Node000015"><a xlink:href="storage__commands_8cpp.html#a1ebbe9d6a73f10f9887975fe4f968aad" target="_top" xlink:title="Handles the file download command.">
<polygon fill="white" stroke="#666666" points="502,-752 393,-752 393,-732 502,-732 502,-752"/>
<text text-anchor="middle" x="447.5" y="-738.5" font-family="Helvetica,sans-Serif" font-size="10.00">handle_file_download</text>
</a>
</g>
</g>
<!-- Node1&#45;&gt;Node15 -->
<g id="edge18_Node000001_Node000015" class="edge">
<title>Node1&#45;&gt;Node15</title>
<g id="a_edge18_Node000001_Node000015"><a xlink:title=" ">
<path fill="none" stroke="#63b8ff" d="M584.86,-642.87C574.33,-666.03 554.17,-702.79 525.25,-723 518.39,-727.8 510.44,-731.39 502.31,-734.07"/>
<polygon fill="#63b8ff" stroke="#63b8ff" points="588.01,-644.4 588.77,-633.84 581.59,-641.62 588.01,-644.4"/>
</a>
</g>
</g>
<!-- Node16 -->
<g id="Node000016" class="node">
<title>Node16</title>
<g id="a_Node000016"><a xlink:href="group___diagnostic_commands.html#ga517fbfd05cbec86489314348cb3f9995" target="_top" xlink:title="Get firmware build version.">
<polygon fill="white" stroke="#666666" points="510.25,-714 384.75,-714 384.75,-694 510.25,-694 510.25,-714"/>
<text text-anchor="middle" x="447.5" y="-700.5" font-family="Helvetica,sans-Serif" font-size="10.00">handle_get_build_version</text>
</a>
</g>
</g>
<!-- Node1&#45;&gt;Node16 -->
<g id="edge19_Node000001_Node000016" class="edge">
<title>Node1&#45;&gt;Node16</title>
<g id="a_edge19_Node000001_Node000016"><a xlink:title=" ">
<path fill="none" stroke="#63b8ff" d="M577.92,-640.71C565.2,-654.91 545.95,-673.84 525.25,-685 518.85,-688.45 511.8,-691.29 504.66,-693.62"/>
<polygon fill="#63b8ff" stroke="#63b8ff" points="580.4,-643.19 584.3,-633.34 575.11,-638.61 580.4,-643.19"/>
</a>
</g>
</g>
<!-- Node17 -->
<g id="Node000017" class="node">
<title>Node17</title>
<g id="a_Node000017"><a xlink:href="group___diagnostic_commands.html#ga74736b8d0e49df14f97e3e20cd3418c7" target="_top" xlink:title="Handler for listing all available commands on UART.">
<polygon fill="white" stroke="#666666" points="514.75,-676 380.25,-676 380.25,-656 514.75,-656 514.75,-676"/>
<text text-anchor="middle" x="447.5" y="-662.5" font-family="Helvetica,sans-Serif" font-size="10.00">handle_get_commands_list</text>
</a>
</g>
</g>
<!-- Node1&#45;&gt;Node17 -->
<g id="edge20_Node000001_Node000017" class="edge">
<title>Node1&#45;&gt;Node17</title>
<g id="a_edge20_Node000001_Node000017"><a xlink:title=" ">
<path fill="none" stroke="#63b8ff" d="M556.57,-636.34C546.49,-640.04 535.51,-643.86 525.25,-647 515.27,-650.06 504.46,-652.97 494.18,-655.56"/>
<polygon fill="#63b8ff" stroke="#63b8ff" points="557.51,-639.72 565.66,-632.94 555.06,-633.17 557.51,-639.72"/>
</a>
</g>
</g>
<!-- Node18 -->
<g id="Node000018" class="node">
<title>Node18</title>
<g id="a_Node000018"><a xlink:href="group___power_commands.html#gacda455c78e43fa4ad2a93215b440c0ef" target="_top" xlink:title="Handler for getting solar panel charge current.">
<polygon fill="white" stroke="#666666" points="496.75,-638 398.25,-638 398.25,-606 496.75,-606 496.75,-638"/>
<text text-anchor="start" x="406.25" y="-624.5" font-family="Helvetica,sans-Serif" font-size="10.00">handle_get_current</text>
<text text-anchor="middle" x="447.5" y="-612.5" font-family="Helvetica,sans-Serif" font-size="10.00">_charge_solar</text>
</a>
</g>
</g>
<!-- Node1&#45;&gt;Node18 -->
<g id="edge21_Node000001_Node000018" class="edge">
<title>Node1&#45;&gt;Node18</title>
<g id="a_edge21_Node000001_Node000018"><a xlink:title=" ">
<path fill="none" stroke="#63b8ff" d="M549.81,-622C533.21,-622 514.19,-622 497.14,-622"/>
<polygon fill="#63b8ff" stroke="#63b8ff" points="549.35,-625.5 559.35,-622 549.35,-618.5 549.35,-625.5"/>
</a>
</g>
</g>
<!-- Node19 -->
<g id="Node000019" class="node">
<title>Node19</title>
<g id="a_Node000019"><a xlink:href="group___power_commands.html#gaf14f25e1c7a2f89881a0f9fbcb7f1807" target="_top" xlink:title="Handler for getting total charge current.">
<polygon fill="white" stroke="#666666" points="496.75,-588 398.25,-588 398.25,-556 496.75,-556 496.75,-588"/>
<text text-anchor="start" x="406.25" y="-574.5" font-family="Helvetica,sans-Serif" font-size="10.00">handle_get_current</text>
<text text-anchor="middle" x="447.5" y="-562.5" font-family="Helvetica,sans-Serif" font-size="10.00">_charge_total</text>
</a>
</g>
</g>
<!-- Node1&#45;&gt;Node19 -->
<g id="edge22_Node000001_Node000019" class="edge">
<title>Node1&#45;&gt;Node19</title>
<g id="a_edge22_Node000001_Node000019"><a xlink:title=" ">
<path fill="none" stroke="#63b8ff" d="M555.05,-607.65C545.35,-604.1 534.94,-600.35 525.25,-597 516.11,-593.84 506.33,-590.56 496.9,-587.47"/>
<polygon fill="#63b8ff" stroke="#63b8ff" points="553.6,-610.85 564.2,-611.03 556.02,-604.28 553.6,-610.85"/>
</a>
</g>
</g>
<!-- Node20 -->
<g id="Node000020" class="node">
<title>Node20</title>
<g id="a_Node000020"><a xlink:href="group___power_commands.html#ga6e5a897c92aaeae8b2fb25faa50bb19d" target="_top" xlink:title="Handler for getting USB charge current.">
<polygon fill="white" stroke="#666666" points="496.75,-538 398.25,-538 398.25,-506 496.75,-506 496.75,-538"/>
<text text-anchor="start" x="406.25" y="-524.5" font-family="Helvetica,sans-Serif" font-size="10.00">handle_get_current</text>
<text text-anchor="middle" x="447.5" y="-512.5" font-family="Helvetica,sans-Serif" font-size="10.00">_charge_usb</text>
</a>
</g>
</g>
<!-- Node1&#45;&gt;Node20 -->
<g id="edge23_Node000001_Node000020" class="edge">
<title>Node1&#45;&gt;Node20</title>
<g id="a_edge23_Node000001_Node000020"><a xlink:title=" ">
<path fill="none" stroke="#63b8ff" d="M580.34,-602.71C567.98,-585.81 547.97,-561.69 525.25,-547 516.66,-541.44 506.73,-537.02 496.92,-533.54"/>
<polygon fill="#63b8ff" stroke="#63b8ff" points="577.19,-604.32 585.82,-610.47 582.91,-600.29 577.19,-604.32"/>
</a>
</g>
</g>
<!-- Node21 -->
<g id="Node000021" class="node">
<title>Node21</title>
<g id="a_Node000021"><a xlink:href="group___power_commands.html#ga31c33c0ee51185939be5c642affdb6b8" target="_top" xlink:title="Handler for getting system current draw.">
<polygon fill="white" stroke="#666666" points="509.88,-488 385.12,-488 385.12,-468 509.88,-468 509.88,-488"/>
<text text-anchor="middle" x="447.5" y="-474.5" font-family="Helvetica,sans-Serif" font-size="10.00">handle_get_current_draw</text>
</a>
</g>
</g>
<!-- Node1&#45;&gt;Node21 -->
<g id="edge24_Node000001_Node000021" class="edge">
<title>Node1&#45;&gt;Node21</title>
<g id="a_edge24_Node000001_Node000021"><a xlink:title=" ">
<path fill="none" stroke="#63b8ff" d="M587.66,-600.78C578.96,-572.67 559.68,-523.57 525.25,-497 520.69,-493.48 515.55,-490.6 510.16,-488.25"/>
<polygon fill="#63b8ff" stroke="#63b8ff" points="584.27,-601.65 590.41,-610.28 590.99,-599.7 584.27,-601.65"/>
</a>
</g>
</g>
<!-- Node22 -->
<g id="Node000022" class="node">
<title>Node22</title>
<g id="a_Node000022"><a xlink:href="group___g_p_s_commands.html#ga617ca7e129f14b0ca4f0d6eb333cbf27" target="_top" xlink:title="Handler for retrieving GPS GGA (Global Positioning System Fix Data) data.">
<polygon fill="white" stroke="#666666" points="501.62,-450 393.38,-450 393.38,-430 501.62,-430 501.62,-450"/>
<text text-anchor="middle" x="447.5" y="-436.5" font-family="Helvetica,sans-Serif" font-size="10.00">handle_get_gga_data</text>
</a>
</g>
</g>
<!-- Node1&#45;&gt;Node22 -->
<g id="edge25_Node000001_Node000022" class="edge">
<title>Node1&#45;&gt;Node22</title>
<g id="a_edge25_Node000001_Node000022"><a xlink:title=" ">
<path fill="none" stroke="#63b8ff" d="M590.61,-600.51C584.92,-565.46 568.59,-496.16 525.25,-459 518.58,-453.28 510.45,-449.23 502,-446.38"/>
<polygon fill="#63b8ff" stroke="#63b8ff" points="587.12,-600.87 592.03,-610.26 594.05,-599.86 587.12,-600.87"/>
</a>
</g>
</g>
<!-- Node23 -->
<g id="Node000023" class="node">
<title>Node23</title>
<g id="a_Node000023"><a xlink:href="group___event_commands.html#ga9a7182db399c2b40ea66db5989d10471" target="_top" xlink:title="Handler for retrieving last N events from the event log.">
<polygon fill="white" stroke="#666666" points="506.88,-412 388.12,-412 388.12,-392 506.88,-392 506.88,-412"/>
<text text-anchor="middle" x="447.5" y="-398.5" font-family="Helvetica,sans-Serif" font-size="10.00">handle_get_last_events</text>
</a>
</g>
</g>
<!-- Node1&#45;&gt;Node23 -->
<g id="edge26_Node000001_Node000023" class="edge">
<title>Node1&#45;&gt;Node23</title>
<g id="a_edge26_Node000001_Node000023"><a xlink:title=" ">
<path fill="none" stroke="#63b8ff" d="M592.56,-600.55C589.8,-559.41 577.74,-469.26 525.25,-421 519.99,-416.17 513.71,-412.52 507.03,-409.76"/>
<polygon fill="#63b8ff" stroke="#63b8ff" points="589.06,-600.54 593.08,-610.34 596.05,-600.17 589.06,-600.54"/>
</a>
</g>
</g>
<!-- Node24 -->
<g id="Node000024" class="node">
<title>Node24</title>
<g id="a_Node000024"><a xlink:href="group___clock_commands.html#ga8fad2991aef05583a47a5b1072ffece0" target="_top" xlink:title="Handler for getting last clock sync time.">
<polygon fill="white" stroke="#666666" points="514.75,-374 380.25,-374 380.25,-354 514.75,-354 514.75,-374"/>
<text text-anchor="middle" x="447.5" y="-360.5" font-family="Helvetica,sans-Serif" font-size="10.00">handle_get_last_sync_time</text>
</a>
</g>
</g>
<!-- Node1&#45;&gt;Node24 -->
<g id="edge27_Node000001_Node000024" class="edge">
<title>Node1&#45;&gt;Node24</title>
<g id="a_edge27_Node000001_Node000024"><a xlink:title=" ">
<path fill="none" stroke="#63b8ff" d="M593.93,-600.14C593.87,-553.25 586.81,-442.45 525.25,-383 521.7,-379.57 517.62,-376.72 513.25,-374.37"/>
<polygon fill="#63b8ff" stroke="#63b8ff" points="590.43,-600.03 593.82,-610.06 597.43,-600.1 590.43,-600.03"/>
</a>
</g>
</g>
<!-- Node25 -->
<g id="Node000025" class="node">
<title>Node25</title>
<g id="a_Node000025"><a xlink:href="group___power_commands.html#ga847b0ed9bf4c252edb1440831739e1ca" target="_top" xlink:title="Handler for retrieving Power Manager IDs.">
<polygon fill="white" stroke="#666666" points="525.25,-336 369.75,-336 369.75,-316 525.25,-316 525.25,-336"/>
<text text-anchor="middle" x="447.5" y="-322.5" font-family="Helvetica,sans-Serif" font-size="10.00">handle_get_power_manager_ids</text>
</a>
</g>
</g>
<!-- Node1&#45;&gt;Node25 -->
<g id="edge28_Node000001_Node000025" class="edge">
<title>Node1&#45;&gt;Node25</title>
<g id="a_edge28_Node000001_Node000025"><a xlink:title=" ">
<path fill="none" stroke="#63b8ff" d="M590.95,-600.47C583.92,-541.87 561.68,-381.49 525.25,-345 521.86,-341.6 517.95,-338.77 513.75,-336.43"/>
<polygon fill="#63b8ff" stroke="#63b8ff" points="587.44,-600.6 592.08,-610.13 594.39,-599.79 587.44,-600.6"/>
</a>
</g>
</g>
<!-- Node26 -->
<g id="Node000026" class="node">
<title>Node26</title>
<g id="a_Node000026"><a xlink:href="group___g_p_s_commands.html#ga8e18759b90b7902e535f50aceae81f2e" target="_top" xlink:title="Handler for retrieving GPS RMC (Recommended Minimum Navigation) data.">
<polygon fill="white" stroke="#666666" points="502,-298 393,-298 393,-278 502,-278 502,-298"/>
<text text-anchor="middle" x="447.5" y="-284.5" font-family="Helvetica,sans-Serif" font-size="10.00">handle_get_rmc_data</text>
</a>
</g>
</g>
<!-- Node1&#45;&gt;Node26 -->
<g id="edge29_Node000001_Node000026" class="edge">
<title>Node1&#45;&gt;Node26</title>
<g id="a_edge29_Node000001_Node000026"><a xlink:title=" ">
<path fill="none" stroke="#63b8ff" d="M591.61,-600.12C585.98,-535.82 566.36,-349.35 525.25,-307 518.94,-300.5 510.78,-296.09 502.15,-293.12"/>
<polygon fill="#63b8ff" stroke="#63b8ff" points="588.12,-600.4 592.45,-610.07 595.1,-599.81 588.12,-600.4"/>
</a>
</g>
</g>
<!-- Node27 -->
<g id="Node000027" class="node">
<title>Node27</title>
<g id="a_Node000027"><a xlink:href="group___power_commands.html#ga24497d675dc02a7ec46ed0327a9de54a" target="_top" xlink:title="Handler for getting 5V rail voltage.">
<polygon fill="white" stroke="#666666" points="505.38,-260 389.62,-260 389.62,-240 505.38,-240 505.38,-260"/>
<text text-anchor="middle" x="447.5" y="-246.5" font-family="Helvetica,sans-Serif" font-size="10.00">handle_get_voltage_5v</text>
</a>
</g>
</g>
<!-- Node1&#45;&gt;Node27 -->
<g id="edge30_Node000001_Node000027" class="edge">
<title>Node1&#45;&gt;Node27</title>
<g id="a_edge30_Node000001_Node000027"><a xlink:title=" ">
<path fill="none" stroke="#63b8ff" d="M592.2,-600.69C587.97,-531.91 571.27,-317.47 525.25,-269 519.86,-263.33 513.07,-259.24 505.76,-256.31"/>
<polygon fill="#63b8ff" stroke="#63b8ff" points="588.68,-600.47 592.76,-610.25 595.67,-600.06 588.68,-600.47"/>
</a>
</g>
</g>
<!-- Node28 -->
<g id="Node000028" class="node">
<title>Node28</title>
<g id="a_Node000028"><a xlink:href="group___power_commands.html#ga06487ba124c57bc39009eb235ec8cab4" target="_top" xlink:title="Handler for getting battery voltage.">
<polygon fill="white" stroke="#666666" points="497.5,-222 397.5,-222 397.5,-190 497.5,-190 497.5,-222"/>
<text text-anchor="start" x="405.5" y="-208.5" font-family="Helvetica,sans-Serif" font-size="10.00">handle_get_voltage</text>
<text text-anchor="middle" x="447.5" y="-196.5" font-family="Helvetica,sans-Serif" font-size="10.00">_battery</text>
</a>
</g>
</g>
<!-- Node1&#45;&gt;Node28 -->
<g id="edge31_Node000001_Node000028" class="edge">
<title>Node1&#45;&gt;Node28</title>
<g id="a_edge31_Node000001_Node000028"><a xlink:title=" ">
<path fill="none" stroke="#63b8ff" d="M592.48,-600.49C588.99,-527 574,-287.24 525.25,-231 518.09,-222.74 508.17,-217.19 497.83,-213.47"/>
<polygon fill="#63b8ff" stroke="#63b8ff" points="588.97,-600.51 592.92,-610.35 595.97,-600.2 588.97,-600.51"/>
</a>
</g>
</g>
<!-- Node29 -->
<g id="Node000029" class="node">
<title>Node29</title>
<g id="a_Node000029"><a xlink:href="group___g_p_s_commands.html#ga926ab365cf351bb507a8c38066ee2eeb" target="_top" xlink:title="Handler for controlling GPS module power state.">
<polygon fill="white" stroke="#666666" points="512.12,-172 382.88,-172 382.88,-152 512.12,-152 512.12,-172"/>
<text text-anchor="middle" x="447.5" y="-158.5" font-family="Helvetica,sans-Serif" font-size="10.00">handle_gps_power_status</text>
</a>
</g>
</g>
<!-- Node1&#45;&gt;Node29 -->
<g id="edge32_Node000001_Node000029" class="edge">
<title>Node1&#45;&gt;Node29</title>
<g id="a_edge32_Node000001_Node000029"><a xlink:title=" ">
<path fill="none" stroke="#63b8ff" d="M593.09,-600.23C591.6,-520.17 582.32,-243.42 525.25,-181 521.54,-176.95 517.12,-173.7 512.3,-171.1"/>
<polygon fill="#63b8ff" stroke="#63b8ff" points="589.59,-600.25 593.25,-610.19 596.59,-600.14 589.59,-600.25"/>
</a>
</g>
</g>
<!-- Node30 -->
<g id="Node000030" class="node">
<title>Node30</title>
<g id="a_Node000030"><a xlink:href="storage__commands_8cpp.html#acc768cf94aac4e11301443f30529b738" target="_top" xlink:title="Handles the list files command.">
<polygon fill="white" stroke="#666666" points="490.38,-134 404.62,-134 404.62,-114 490.38,-114 490.38,-134"/>
<text text-anchor="middle" x="447.5" y="-120.5" font-family="Helvetica,sans-Serif" font-size="10.00">handle_list_files</text>
</a>
</g>
</g>
<!-- Node1&#45;&gt;Node30 -->
<g id="edge33_Node000001_Node000030" class="edge">
<title>Node1&#45;&gt;Node30</title>
<g id="a_edge33_Node000001_Node000030"><a xlink:title=" ">
<path fill="none" stroke="#63b8ff" d="M593.39,-600.28C592.98,-515.95 587.18,-211.55 525.25,-143 516.42,-133.22 503.41,-128.11 490.61,-125.53"/>
<polygon fill="#63b8ff" stroke="#63b8ff" points="589.89,-600.16 593.41,-610.15 596.89,-600.14 589.89,-600.16"/>
</a>
</g>
</g>
<!-- Node31 -->
<g id="Node000031" class="node">
<title>Node31</title>
<g id="a_Node000031"><a xlink:href="group___clock_commands.html#gaece0975a9dd699742e1db5a411bcc93c" target="_top" xlink:title="Handler for getting and setting system time.">
<polygon fill="white" stroke="#666666" points="481.75,-96 413.25,-96 413.25,-76 481.75,-76 481.75,-96"/>
<text text-anchor="middle" x="447.5" y="-82.5" font-family="Helvetica,sans-Serif" font-size="10.00">handle_time</text>
</a>
</g>
</g>
<!-- Node1&#45;&gt;Node31 -->
<g id="edge34_Node000001_Node000031" class="edge">
<title>Node1&#45;&gt;Node31</title>
<g id="a_edge34_Node000001_Node000031"><a xlink:title=" ">
<path fill="none" stroke="#63b8ff" d="M593.64,-600.28C594.26,-511.81 592.04,-179.7 525.25,-105 514.45,-92.93 497.3,-87.95 481.95,-86.08"/>
<polygon fill="#63b8ff" stroke="#63b8ff" points="590.14,-600.17 593.55,-610.2 597.14,-600.23 590.14,-600.17"/>
</a>
</g>
</g>
<!-- Node32 -->
<g id="Node000032" class="node">
<title>Node32</title>
<g id="a_Node000032"><a xlink:href="group___clock_commands.html#ga026ff03f9aa86d2bd305090836f4a79a" target="_top" xlink:title="Handler for getting and setting timezone offset.">
<polygon fill="white" stroke="#666666" points="506.88,-58 388.12,-58 388.12,-38 506.88,-38 506.88,-58"/>
<text text-anchor="middle" x="447.5" y="-44.5" font-family="Helvetica,sans-Serif" font-size="10.00">handle_timezone_offset</text>
</a>
</g>
</g>
<!-- Node1&#45;&gt;Node32 -->
<g id="edge35_Node000001_Node000032" class="edge">
<title>Node1&#45;&gt;Node32</title>
<g id="a_edge35_Node000001_Node000032"><a xlink:title=" ">
<path fill="none" stroke="#63b8ff" d="M593.85,-600.48C595.45,-508.32 596.97,-147.93 525.25,-67 520.33,-61.45 514.08,-57.4 507.26,-54.46"/>
<polygon fill="#63b8ff" stroke="#63b8ff" points="590.36,-600.28 593.66,-610.34 597.36,-600.42 590.36,-600.28"/>
</a>
</g>
</g>
<!-- Node33 -->
<g id="Node000033" class="node">
<title>Node33</title>
<g id="a_Node000033"><a xlink:href="main_8cpp.html#a8fa5379b5bec497b881cec19f2b38779" target="_top" xlink:title=" ">
<polygon fill="white" stroke="#666666" points="303.38,-1125 231.88,-1125 231.88,-1105 303.38,-1105 303.38,-1125"/>
<text text-anchor="middle" x="267.62" y="-1111.5" font-family="Helvetica,sans-Serif" font-size="10.00">init_systems</text>
</a>
</g>
</g>
<!-- Node1&#45;&gt;Node33 -->
<g id="edge36_Node000001_Node000033" class="edge">
<title>Node1&#45;&gt;Node33</title>
<g id="a_edge36_Node000001_Node000033"><a xlink:title=" ">
<path fill="none" stroke="#63b8ff" d="M593.4,-643.59C593.01,-725.44 587.22,-1015.13 525.25,-1077 494.73,-1107.47 366.27,-1113.62 303.48,-1114.78"/>
<polygon fill="#63b8ff" stroke="#63b8ff" points="596.9,-643.83 593.42,-633.82 589.9,-643.81 596.9,-643.83"/>
</a>
</g>
</g>
<!-- Node34 -->
<g id="Node000034" class="node">
<title>Node34</title>
<g id="a_Node000034"><a xlink:href="frame_8cpp.html#af49224563adb4bf0b91daa5ab78120ca" target="_top" xlink:title="Sends the event register value to the ground station.">
<polygon fill="white" stroke="#666666" points="480.62,-20 414.38,-20 414.38,0 480.62,0 480.62,-20"/>
<text text-anchor="middle" x="447.5" y="-6.5" font-family="Helvetica,sans-Serif" font-size="10.00">send_event</text>
</a>
</g>
</g>
<!-- Node1&#45;&gt;Node34 -->
<g id="edge39_Node000001_Node000034" class="edge">
<title>Node1&#45;&gt;Node34</title>
<g id="a_edge39_Node000001_Node000034"><a xlink:title=" ">
<path fill="none" stroke="#63b8ff" d="M592.32,-600.12C587.22,-498.18 563.76,-72.8 525.25,-29 514.28,-16.53 496.54,-11.6 480.87,-9.87"/>
<polygon fill="#63b8ff" stroke="#63b8ff" points="588.83,-600.28 592.81,-610.09 595.82,-599.94 588.83,-600.28"/>
</a>
</g>
</g>
<!-- Node35 -->
<g id="Node000035" class="node">
<title>Node35</title>
<g id="a_Node000035"><a xlink:href="test__frame__build_8cpp.html#a6293acd10886f2f4dfd46c0f9b4d3bb9" target="_top" xlink:title=" ">
<polygon fill="white" stroke="#666666" points="324,-999 211.25,-999 211.25,-979 324,-979 324,-999"/>
<text text-anchor="middle" x="267.62" y="-985.5" font-family="Helvetica,sans-Serif" font-size="10.00">test_frame_build_error</text>
</a>
</g>
</g>
<!-- Node1&#45;&gt;Node35 -->
<g id="edge40_Node000001_Node000035" class="edge">
<title>Node1&#45;&gt;Node35</title>
<g id="a_edge40_Node000001_Node000035"><a xlink:title=" ">
<path fill="none" stroke="#63b8ff" d="M592.42,-643.69C588.92,-712.73 574.25,-925.38 525.25,-969 466.17,-1021.59 366.11,-1011.02 309.98,-999.49"/>
<polygon fill="#63b8ff" stroke="#63b8ff" points="595.92,-643.88 592.9,-633.73 588.93,-643.55 595.92,-643.88"/>
</a>
</g>
</g>
<!-- Node36 -->
<g id="Node000036" class="node">
<title>Node36</title>
<g id="a_Node000036"><a xlink:href="test__frame__build_8cpp.html#a9fb40fc4c0a9cb36690dd62d5f497c22" target="_top" xlink:title=" ">
<polygon fill="white" stroke="#666666" points="322.12,-961 213.12,-961 213.12,-941 322.12,-941 322.12,-961"/>
<text text-anchor="middle" x="267.62" y="-947.5" font-family="Helvetica,sans-Serif" font-size="10.00">test_frame_build_info</text>
</a>
</g>
</g>
<!-- Node1&#45;&gt;Node36 -->
<g id="edge42_Node000001_Node000036" class="edge">
<title>Node1&#45;&gt;Node36</title>
<g id="a_edge42_Node000001_Node000036"><a xlink:title=" ">
<path fill="none" stroke="#63b8ff" d="M592.21,-643.66C588.15,-709.81 572.26,-907.08 525.25,-946 495.52,-970.62 388.49,-964.2 322.41,-957.49"/>
<polygon fill="#63b8ff" stroke="#63b8ff" points="595.7,-643.96 592.78,-633.77 588.71,-643.55 595.7,-643.96"/>
</a>
</g>
</g>
<!-- Node37 -->
<g id="Node000037" class="node">
<title>Node37</title>
<g id="a_Node000037"><a xlink:href="test__frame__build_8cpp.html#a8b9d79d3ab4010e537ada45e554dcd5b" target="_top" xlink:title=" ">
<polygon fill="white" stroke="#666666" points="332.62,-923 202.62,-923 202.62,-903 332.62,-903 332.62,-923"/>
<text text-anchor="middle" x="267.62" y="-909.5" font-family="Helvetica,sans-Serif" font-size="10.00">test_frame_build_success</text>
</a>
</g>
</g>
<!-- Node1&#45;&gt;Node37 -->
<g id="edge44_Node000001_Node000037" class="edge">
<title>Node1&#45;&gt;Node37</title>
<g id="a_edge44_Node000001_Node000037"><a xlink:title=" ">
<path fill="none" stroke="#63b8ff" d="M591.91,-643.53C587.14,-706.73 569.66,-889.47 525.25,-925 495.04,-949.17 387.9,-935.07 321.99,-923.47"/>
<polygon fill="#63b8ff" stroke="#63b8ff" points="595.39,-644 592.62,-633.77 588.41,-643.49 595.39,-644"/>
</a>
</g>
</g>
<!-- Node2&#45;&gt;Node3 -->
<g id="edge2_Node000002_Node000003" class="edge">
<title>Node2&#45;&gt;Node3</title>
<g id="a_edge2_Node000002_Node000003"><a xlink:title=" ">
<path fill="none" stroke="#63b8ff" d="M386.69,-1140.39C360.82,-1143.15 331.26,-1146.31 308.18,-1148.77"/>
<polygon fill="#63b8ff" stroke="#63b8ff" points="386.82,-1143.9 396.39,-1139.35 386.07,-1136.93 386.82,-1143.9"/>
</a>
</g>
</g>
<!-- Node4 -->
<g id="Node000004" class="node">
<title>Node4</title>
<g id="a_Node000004"><a xlink:href="receive_8cpp.html#a14ffba44d46e00b23bd72bdb3a4d58d1" target="_top" xlink:title="Handles UART input.">
<polygon fill="white" stroke="#666666" points="165.5,-1191 73,-1191 73,-1171 165.5,-1171 165.5,-1191"/>
<text text-anchor="middle" x="119.25" y="-1177.5" font-family="Helvetica,sans-Serif" font-size="10.00">handle_uart_input</text>
</a>
</g>
</g>
<!-- Node3&#45;&gt;Node4 -->
<g id="edge3_Node000003_Node000004" class="edge">
<title>Node3&#45;&gt;Node4</title>
<g id="a_edge3_Node000003_Node000004"><a xlink:title=" ">
<path fill="none" stroke="#63b8ff" d="M216.04,-1162.68C199.73,-1165.8 181.77,-1169.23 165.85,-1172.28"/>
<polygon fill="#63b8ff" stroke="#63b8ff" points="216.36,-1166.18 225.53,-1160.86 215.05,-1159.3 216.36,-1166.18"/>
</a>
</g>
</g>
<!-- Node6 -->
<g id="Node000006" class="node">
<title>Node6</title>
<g id="a_Node000006"><a xlink:href="receive_8cpp.html#a3f494105dee3a08e1244febc81982517" target="_top" xlink:title="Callback function for handling received LoRa packets.">
<polygon fill="white" stroke="#666666" points="150.88,-1153 87.62,-1153 87.62,-1133 150.88,-1133 150.88,-1153"/>
<text text-anchor="middle" x="119.25" y="-1139.5" font-family="Helvetica,sans-Serif" font-size="10.00">on_receive</text>
</a>
</g>
</g>
<!-- Node3&#45;&gt;Node6 -->
<g id="edge5_Node000003_Node000006" class="edge">
<title>Node3&#45;&gt;Node6</title>
<g id="a_edge5_Node000003_Node000006"><a xlink:title=" ">
<path fill="none" stroke="#63b8ff" d="M215.73,-1149.52C194.19,-1148.05 169.81,-1146.39 151.07,-1145.11"/>
<polygon fill="#63b8ff" stroke="#63b8ff" points="215.29,-1153 225.5,-1150.19 215.77,-1146.02 215.29,-1153"/>
</a>
</g>
</g>
<!-- Node4&#45;&gt;Node5 -->
<g id="edge4_Node000004_Node000005" class="edge">
<title>Node4&#45;&gt;Node5</title>
<g id="a_edge4_Node000004_Node000005"><a xlink:title=" ">
<path fill="none" stroke="#63b8ff" d="M61.47,-1170.08C52.72,-1168.39 44.3,-1166.77 37.31,-1165.43"/>
<polygon fill="#63b8ff" stroke="#63b8ff" points="60.67,-1173.48 71.15,-1171.94 61.99,-1166.61 60.67,-1173.48"/>
</a>
</g>
</g>
<!-- Node6&#45;&gt;Node5 -->
<g id="edge6_Node000006_Node000005" class="edge">
<title>Node6&#45;&gt;Node5</title>
<g id="a_edge6_Node000006_Node000005"><a xlink:title=" ">
<path fill="none" stroke="#63b8ff" d="M76.15,-1151.1C62.58,-1153.71 48.27,-1156.46 37.42,-1158.55"/>
<polygon fill="#63b8ff" stroke="#63b8ff" points="76.63,-1154.57 85.79,-1149.25 75.31,-1147.7 76.63,-1154.57"/>
</a>
</g>
</g>
<!-- Node7&#45;&gt;Node3 -->
<g id="edge8_Node000007_Node000003" class="edge">
<title>Node7&#45;&gt;Node3</title>
<g id="a_edge8_Node000007_Node000003"><a xlink:title=" ">
<path fill="none" stroke="#63b8ff" d="M425.07,-1075.42C403.25,-1092.43 367.85,-1118.01 333.75,-1134 325.75,-1137.75 316.85,-1140.93 308.26,-1143.56"/>
<polygon fill="#63b8ff" stroke="#63b8ff" points="427.24,-1078.17 432.91,-1069.22 422.89,-1072.68 427.24,-1078.17"/>
</a>
</g>
</g>
<!-- Node8 -->
<g id="Node000008" class="node">
<title>Node8</title>
<g id="a_Node000008"><a xlink:href="test__frame__coding_8cpp.html#a75deef6947cf7117a58214b4298ecec9" target="_top" xlink:title=" ">
<polygon fill="white" stroke="#666666" points="331.5,-1087 203.75,-1087 203.75,-1067 331.5,-1067 331.5,-1087"/>
<text text-anchor="middle" x="267.62" y="-1073.5" font-family="Helvetica,sans-Serif" font-size="10.00">test_frame_decode_basic</text>
</a>
</g>
</g>
<!-- Node7&#45;&gt;Node8 -->
<g id="edge9_Node000007_Node000008" class="edge">
<title>Node7&#45;&gt;Node8</title>
<g id="a_edge9_Node000007_Node000008"><a xlink:title=" ">
<path fill="none" stroke="#63b8ff" d="M396.92,-1063.3C376.78,-1065.45 353.26,-1067.96 331.91,-1070.24"/>
<polygon fill="#63b8ff" stroke="#63b8ff" points="397.26,-1066.78 406.84,-1062.24 396.52,-1059.82 397.26,-1066.78"/>
</a>
</g>
</g>
<!-- Node10 -->
<g id="Node000010" class="node">
<title>Node10</title>
<g id="a_Node000010"><a xlink:href="test__frame__coding_8cpp.html#a054000b3d2c0abb2e13b9109ae0969ef" target="_top" xlink:title=" ">
<polygon fill="white" stroke="#666666" points="333.75,-1049 201.5,-1049 201.5,-1017 333.75,-1017 333.75,-1049"/>
<text text-anchor="start" x="209.5" y="-1035.5" font-family="Helvetica,sans-Serif" font-size="10.00">test_frame_decode_invalid</text>
<text text-anchor="middle" x="267.62" y="-1023.5" font-family="Helvetica,sans-Serif" font-size="10.00">_header</text>
</a>
</g>
</g>
<!-- Node7&#45;&gt;Node10 -->
<g id="edge11_Node000007_Node000010" class="edge">
<title>Node7&#45;&gt;Node10</title>
<g id="a_edge11_Node000007_Node000010"><a xlink:title=" ">
<path fill="none" stroke="#63b8ff" d="M396.97,-1051.04C377.48,-1048.3 354.83,-1045.12 334.03,-1042.19"/>
<polygon fill="#63b8ff" stroke="#63b8ff" points="396.45,-1054.5 406.84,-1052.43 397.43,-1047.57 396.45,-1054.5"/>
</a>
</g>
</g>
<!-- Node9 -->
<g id="Node000009" class="node">
<title>Node9</title>
<g id="a_Node000009"><a xlink:href="test__runner_8cpp.html#a840291bc02cba5474a4cb46a9b9566fe" target="_top" xlink:title=" ">
<polygon fill="white" stroke="#666666" points="137.75,-999 100.75,-999 100.75,-979 137.75,-979 137.75,-999"/>
<text text-anchor="middle" x="119.25" y="-985.5" font-family="Helvetica,sans-Serif" font-size="10.00">main</text>
</a>
</g>
</g>
<!-- Node8&#45;&gt;Node9 -->
<g id="edge10_Node000008_Node000009" class="edge">
<title>Node8&#45;&gt;Node9</title>
<g id="a_edge10_Node000008_Node000009"><a xlink:title=" ">
<path fill="none" stroke="#63b8ff" d="M210.93,-1062.5C207.68,-1061.12 204.51,-1059.62 201.5,-1058 172.17,-1042.21 143.92,-1014.51 129.73,-999.46"/>
<polygon fill="#63b8ff" stroke="#63b8ff" points="209.49,-1065.7 220.08,-1065.99 211.99,-1059.16 209.49,-1065.7"/>
</a>
</g>
</g>
<!-- Node10&#45;&gt;Node9 -->
<g id="edge12_Node000010_Node000009" class="edge">
<title>Node10&#45;&gt;Node9</title>
<g id="a_edge12_Node000010_Node000009"><a xlink:title=" ">
<path fill="none" stroke="#63b8ff" d="M201.23,-1013.34C178.07,-1006.38 153.85,-999.1 138,-994.34"/>
<polygon fill="#63b8ff" stroke="#63b8ff" points="200.09,-1016.65 210.67,-1016.18 202.1,-1009.95 200.09,-1016.65"/>
</a>
</g>
</g>
<!-- Node33&#45;&gt;Node5 -->
<g id="edge37_Node000033_Node000005" class="edge">
<title>Node33&#45;&gt;Node5</title>
<g id="a_edge37_Node000033_Node000005"><a xlink:title=" ">
<path fill="none" stroke="#63b8ff" d="M220.3,-1109.97C180.19,-1107.28 121.21,-1107.38 73,-1124 56.2,-1129.79 40.01,-1142.64 29.92,-1151.79"/>
<polygon fill="#63b8ff" stroke="#63b8ff" points="219.85,-1113.45 230.09,-1110.72 220.38,-1106.47 219.85,-1113.45"/>
</a>
</g>
</g>
<!-- Node35&#45;&gt;Node9 -->
<g id="edge41_Node000035_Node000009" class="edge">
<title>Node35&#45;&gt;Node9</title>
<g id="a_edge41_Node000035_Node000009"><a xlink:title=" ">
<path fill="none" stroke="#63b8ff" d="M199.51,-989C176.88,-989 153.47,-989 138.02,-989"/>
<polygon fill="#63b8ff" stroke="#63b8ff" points="199.36,-992.5 209.36,-989 199.36,-985.5 199.36,-992.5"/>
</a>
</g>
</g>
<!-- Node36&#45;&gt;Node9 -->
<g id="edge43_Node000036_Node000009" class="edge">
<title>Node36&#45;&gt;Node9</title>
<g id="a_edge43_Node000036_Node000009"><a xlink:title=" ">
<path fill="none" stroke="#63b8ff" d="M215.39,-964.3C188.43,-971.3 157.1,-979.43 137.97,-984.4"/>
<polygon fill="#63b8ff" stroke="#63b8ff" points="215.98,-967.77 224.77,-961.86 214.22,-960.99 215.98,-967.77"/>
</a>
</g>
</g>
<!-- Node37&#45;&gt;Node9 -->
<g id="edge45_Node000037_Node000009" class="edge">
<title>Node37&#45;&gt;Node9</title>
<g id="a_edge45_Node000037_Node000009"><a xlink:title=" ">
<path fill="none" stroke="#63b8ff" d="M212.97,-927.1C209.03,-928.61 205.17,-930.24 201.5,-932 174.94,-944.76 147.61,-965.9 132.39,-978.54"/>
<polygon fill="#63b8ff" stroke="#63b8ff" points="213.78,-930.53 222.06,-923.91 211.46,-923.92 213.78,-930.53"/>
</a>
</g>
</g>
</g>
</svg>

<g id="navigator" transform="translate(0 0)" fill="#404254">
  <rect fill="#f2f5e9" fill-opacity="0.5" stroke="#606060" stroke-width=".5" x="0" y="0" width="60" height="60"/>
  <use id="zoomplus" xlink:href="#zoomPlus" x="17" y="9" onmousedown="handleZoom(evt,'in')"/>
  <use id="zoomminus" xlink:href="#zoomMin" x="42" y="9" onmousedown="handleZoom(evt,'out')"/>
  <use id="reset" xlink:href="#resetDef" x="30" y="36" onmousedown="handleReset()"/>
   <use id="arrowup" xlink:href="#arrowUp" x="0" y="0" onmousedown="handlePan(0,-1)"/>
  <use id="arrowright" xlink:href="#arrowRight" x="0" y="0" onmousedown="handlePan(1,0)"/>
  <use id="arrowdown" xlink:href="#arrowDown" x="0" y="0" onmousedown="handlePan(0,1)"/>
  <use id="arrowleft" xlink:href="#arrowLeft" x="0" y="0" onmousedown="handlePan(-1,0)"/>
</g>
<svg viewBox="0 0 15 15" width="100%" height="30px" preserveAspectRatio="xMaxYMin meet">
 <g id="arrow_out" transform="scale(0.3 0.3)">
  <a xlink:href="frame_8cpp_a29170691faa10727d607a73861cacbeb_icgraph_org.svg" target="_base">
   <rect id="button" ry="5" rx="5" y="6" x="6" height="38" width="38"
        fill="#f2f5e9" fill-opacity="0.5" stroke="#606060" stroke-width="1.0"/>
   <path id="arrow"
     d="M 11.500037,31.436501 C 11.940474,20.09759 22.043105,11.32322 32.158766,21.979434 L 37.068811,17.246167 C 37.068811,17.246167 37.088388,32 37.088388,32 L 22.160133,31.978069 C 22.160133,31.978069 26.997745,27.140456 26.997745,27.140456 C 18.528582,18.264221 13.291696,25.230495 11.500037,31.436501 z"
     style="fill:#404040;"/>
  </a>
 </g>
</svg>

<style type='text/css'>
<![CDATA[
[data-mouse-over-selected='false'] { opacity: 0.7; }
[data-mouse-over-selected='true']  { opacity: 1.0; }
]]>
</style>
<script type="application/ecmascript"><![CDATA[
document.addEventListener('DOMContentLoaded', (event) => {
  highlightEdges();
  highlightAdjacentNodes();
});
]]></script>
</svg>
