<?xml version="1.0" encoding="UTF-8" standalone="no"?>
<!DOCTYPE svg PUBLIC "-//W3C//DTD SVG 1.1//EN"
 "http://www.w3.org/Graphics/SVG/1.1/DTD/svg11.dtd">
<!-- Generated by graphviz version 12.2.1 (20241206.2353)
 -->
<!-- Title: lib/comms/commands/gps_commands.cpp Pages: 1 -->
<!--zoomable 332 -->

<svg id="main" version="1.1" xmlns="http://www.w3.org/2000/svg" xmlns:xlink="http://www.w3.org/1999/xlink" xml:space="preserve" onload="init(evt)">

<style type="text/css"><![CDATA[
.node, .edge {opacity: 0.7;}
.node.selected, .edge.selected {opacity: 1;}
.edge:hover path { stroke: red; }
.edge:hover polygon { stroke: red; fill: red; }
]]></style>

<defs>
  <circle id="rim" cx="0" cy="0" r="7"/>
  <circle id="rim2" cx="0" cy="0" r="3.5"/>
  <g id="zoomPlus">
    <use xlink:href="#rim" fill="#404040"><set attributeName="fill" to="#808080" begin="zoomplus.mouseover" end="zoomplus.mouseout"/></use>
    <path d="M-4,0h8M0,-4v8" fill="none" stroke="white" stroke-width="1.5" pointer-events="none"/>
  </g>
  <g id="zoomMin">
    <use xlink:href="#rim" fill="#404040"><set attributeName="fill" to="#808080" begin="zoomminus.mouseover" end="zoomminus.mouseout"/></use>
    <path d="M-4,0h8" fill="none" stroke="white" stroke-width="1.5" pointer-events="none"/>
  </g>
  <g id="arrowUp" transform="translate(30 24)">
    <use xlink:href="#rim"/>
    <path pointer-events="none" fill="none" stroke="white" stroke-width="1.5" d="M0,-3.0v7 M-2.5,-0.5L0,-3.0L2.5,-0.5"/>
  </g>
  <g id="arrowRight" transform="rotate(90) translate(36 -43)">
    <use xlink:href="#rim"/>
    <path pointer-events="none" fill="none" stroke="white" stroke-width="1.5" d="M0,-3.0v7 M-2.5,-0.5L0,-3.0L2.5,-0.5"/>
  </g>
  <g id="arrowDown" transform="rotate(180) translate(-30 -48)">
    <use xlink:href="#rim"/>
    <path pointer-events="none" fill="none" stroke="white" stroke-width="1.5" d="M0,-3.0v7 M-2.5,-0.5L0,-3.0L2.5,-0.5"/>
  </g>
  <g id="arrowLeft" transform="rotate(270) translate(-36 17)">
    <use xlink:href="#rim"/>
    <path pointer-events="none" fill="none" stroke="white" stroke-width="1.5" d="M0,-3.0v7 M-2.5,-0.5L0,-3.0L2.5,-0.5"/>
  </g>
  <g id="resetDef">
    <use xlink:href="#rim2" fill="#404040"><set attributeName="fill" to="#808080" begin="reset.mouseover" end="reset.mouseout"/></use>
  </g>
</defs>
<script type="application/ecmascript">
var viewWidth = 1486;
var viewHeight = 332;
var sectionId = 'dynsection-0';
</script>
<script type="application/ecmascript" xlink:href="svg.min.js"/>
<svg id="graph" class="graph">
<g id="viewport">
<title>lib/comms/commands/gps_commands.cpp</title>
<!-- Node1 -->
<g id="Node000001" class="node">
<title>Node1</title>
<g id="a_Node000001"><a xlink:title=" ">
<polygon fill="#999999" stroke="#666666" points="875.12,-324 763.12,-324 763.12,-292 875.12,-292 875.12,-324"/>
<text text-anchor="start" x="771.12" y="-310.5" font-family="Helvetica,sans-Serif" font-size="10.00">lib/comms/commands</text>
<text text-anchor="middle" x="819.12" y="-298.5" font-family="Helvetica,sans-Serif" font-size="10.00">/gps_commands.cpp</text>
</a>
</g>
</g>
<!-- Node2 -->
<g id="Node000002" class="node">
<title>Node2</title>
<g id="a_Node000002"><a xlink:href="communication_8h.html" target="_top" xlink:title=" ">
<polygon fill="white" stroke="#666666" points="864.25,-256 774,-256 774,-236 864.25,-236 864.25,-256"/>
<text text-anchor="middle" x="819.12" y="-242.5" font-family="Helvetica,sans-Serif" font-size="10.00">communication.h</text>
</a>
</g>
</g>
<!-- Node1&#45;&gt;Node2 -->
<g id="edge1_Node000001_Node000002" class="edge">
<title>Node1&#45;&gt;Node2</title>
<g id="a_edge1_Node000001_Node000002"><a xlink:title=" ">
<path fill="none" stroke="#63b8ff" d="M819.12,-291.55C819.12,-284.34 819.12,-275.66 819.12,-267.88"/>
<polygon fill="#63b8ff" stroke="#63b8ff" points="822.63,-267.92 819.13,-257.92 815.63,-267.92 822.63,-267.92"/>
</a>
</g>
</g>
<!-- Node34 -->
<g id="Node000034" class="node">
<title>Node34</title>
<g id="a_Node000034"><a xlink:href="gps__collector_8h.html" target="_top" xlink:title=" ">
<polygon fill="white" stroke="#666666" points="359.88,-144 228.38,-144 228.38,-124 359.88,-124 359.88,-144"/>
<text text-anchor="middle" x="294.12" y="-130.5" font-family="Helvetica,sans-Serif" font-size="10.00">lib/location/gps_collector.h</text>
</a>
</g>
</g>
<!-- Node1&#45;&gt;Node34 -->
<g id="edge50_Node000001_Node000034" class="edge">
<title>Node1&#45;&gt;Node34</title>
<g id="a_edge50_Node000001_Node000034"><a xlink:title=" ">
<path fill="none" stroke="#63b8ff" d="M763.04,-300.19C650.7,-285.68 402.99,-248.97 334.12,-200 318.45,-188.85 307.69,-169.44 301.31,-154.73"/>
<polygon fill="#63b8ff" stroke="#63b8ff" points="304.62,-153.59 297.68,-145.59 298.12,-156.17 304.62,-153.59"/>
</a>
</g>
</g>
<!-- Node37 -->
<g id="Node000037" class="node">
<title>Node37</title>
<g id="a_Node000037"><a xlink:title=" ">
<polygon fill="#e0e0e0" stroke="#999999" points="933.75,-256 882.5,-256 882.5,-236 933.75,-236 933.75,-256"/>
<text text-anchor="middle" x="908.12" y="-242.5" font-family="Helvetica,sans-Serif" font-size="10.00">sstream</text>
</a>
</g>
</g>
<!-- Node1&#45;&gt;Node37 -->
<g id="edge58_Node000001_Node000037" class="edge">
<title>Node1&#45;&gt;Node37</title>
<g id="a_edge58_Node000001_Node000037"><a xlink:title=" ">
<path fill="none" stroke="#63b8ff" d="M842.04,-291.55C855.18,-282.69 871.62,-271.61 884.82,-262.71"/>
<polygon fill="#63b8ff" stroke="#63b8ff" points="886.58,-265.75 892.91,-257.25 882.67,-259.94 886.58,-265.75"/>
</a>
</g>
</g>
<!-- Node3 -->
<g id="Node000003" class="node">
<title>Node3</title>
<g id="a_Node000003"><a xlink:title=" ">
<polygon fill="#e0e0e0" stroke="#999999" points="735.12,-20 695.12,-20 695.12,0 735.12,0 735.12,-20"/>
<text text-anchor="middle" x="715.12" y="-6.5" font-family="Helvetica,sans-Serif" font-size="10.00">string</text>
</a>
</g>
</g>
<!-- Node2&#45;&gt;Node3 -->
<g id="edge2_Node000002_Node000003" class="edge">
<title>Node2&#45;&gt;Node3</title>
<g id="a_edge2_Node000002_Node000003"><a xlink:title=" ">
<path fill="none" stroke="#63b8ff" d="M864.44,-236.62C960.61,-217.81 1173.49,-170.27 1137.12,-124 1095.29,-70.77 1054.12,-106.93 989.12,-88 946.75,-75.66 937.46,-68.47 895.12,-56 843.41,-40.76 782.37,-26.21 746.31,-17.96"/>
<polygon fill="#63b8ff" stroke="#63b8ff" points="747.52,-14.65 737,-15.85 745.97,-21.48 747.52,-14.65"/>
</a>
</g>
</g>
<!-- Node4 -->
<g id="Node000004" class="node">
<title>Node4</title>
<g id="a_Node000004"><a xlink:title=" ">
<polygon fill="#e0e0e0" stroke="#999999" points="1477.62,-20 1434.62,-20 1434.62,0 1477.62,0 1477.62,-20"/>
<text text-anchor="middle" x="1456.12" y="-6.5" font-family="Helvetica,sans-Serif" font-size="10.00">vector</text>
</a>
</g>
</g>
<!-- Node2&#45;&gt;Node4 -->
<g id="edge3_Node000002_Node000004" class="edge">
<title>Node2&#45;&gt;Node4</title>
<g id="a_edge3_Node000002_Node000004"><a xlink:title=" ">
<path fill="none" stroke="#63b8ff" d="M864.69,-237.37C985.88,-216.94 1310.08,-161.37 1356.12,-144 1401.98,-126.7 1425.44,-129.75 1451.12,-88 1461.53,-71.09 1461.56,-47.95 1459.74,-31.46"/>
<polygon fill="#63b8ff" stroke="#63b8ff" points="1463.25,-31.26 1458.35,-21.86 1456.32,-32.26 1463.25,-31.26"/>
</a>
</g>
</g>
<!-- Node5 -->
<g id="Node000005" class="node">
<title>Node5</title>
<g id="a_Node000005"><a xlink:href="protocol_8h.html" target="_top" xlink:title=" ">
<polygon fill="white" stroke="#666666" points="848.5,-200 789.75,-200 789.75,-180 848.5,-180 848.5,-200"/>
<text text-anchor="middle" x="819.12" y="-186.5" font-family="Helvetica,sans-Serif" font-size="10.00">protocol.h</text>
</a>
</g>
</g>
<!-- Node2&#45;&gt;Node5 -->
<g id="edge4_Node000002_Node000005" class="edge">
<title>Node2&#45;&gt;Node5</title>
<g id="a_edge4_Node000002_Node000005"><a xlink:title=" ">
<path fill="none" stroke="#63b8ff" d="M819.12,-235.59C819.12,-229.01 819.12,-219.96 819.12,-211.73"/>
<polygon fill="#63b8ff" stroke="#63b8ff" points="822.63,-211.81 819.13,-201.81 815.63,-211.81 822.63,-211.81"/>
</a>
</g>
</g>
<!-- Node33 -->
<g id="Node000033" class="node">
<title>Node33</title>
<g id="a_Node000033"><a xlink:href="event__manager_8h.html" target="_top" xlink:title=" ">
<polygon fill="white" stroke="#666666" points="433.62,-200 342.62,-200 342.62,-180 433.62,-180 433.62,-200"/>
<text text-anchor="middle" x="388.12" y="-186.5" font-family="Helvetica,sans-Serif" font-size="10.00">event_manager.h</text>
</a>
</g>
</g>
<!-- Node2&#45;&gt;Node33 -->
<g id="edge45_Node000002_Node000033" class="edge">
<title>Node2&#45;&gt;Node33</title>
<g id="a_edge45_Node000002_Node000033"><a xlink:title=" ">
<path fill="none" stroke="#63b8ff" d="M773.82,-239.32C694.7,-229.41 531.56,-208.97 444.98,-198.12"/>
<polygon fill="#63b8ff" stroke="#63b8ff" points="445.66,-194.68 435.3,-196.91 444.79,-201.63 445.66,-194.68"/>
</a>
</g>
</g>
<!-- Node5&#45;&gt;Node3 -->
<g id="edge5_Node000005_Node000003" class="edge">
<title>Node5&#45;&gt;Node3</title>
<g id="a_edge5_Node000005_Node000003"><a xlink:title=" ">
<path fill="none" stroke="#63b8ff" d="M848.93,-183.48C870.84,-177.69 899.14,-166.2 913.12,-144 917.86,-136.48 915.86,-132.46 913.12,-124 901.68,-88.55 894.45,-77.64 864.12,-56 828.73,-30.74 778.95,-19.45 746.86,-14.56"/>
<polygon fill="#63b8ff" stroke="#63b8ff" points="747.38,-11.1 736.99,-13.18 746.42,-18.03 747.38,-11.1"/>
</a>
</g>
</g>
<!-- Node5&#45;&gt;Node4 -->
<g id="edge8_Node000005_Node000004" class="edge">
<title>Node5&#45;&gt;Node4</title>
<g id="a_edge8_Node000005_Node000004"><a xlink:title=" ">
<path fill="none" stroke="#63b8ff" d="M848.75,-189.66C925.56,-190.64 1136.84,-188.73 1305.12,-144 1363.18,-128.57 1387.35,-132.11 1428.12,-88 1442.73,-72.2 1449.85,-48.18 1453.24,-31.18"/>
<polygon fill="#63b8ff" stroke="#63b8ff" points="1456.61,-32.19 1454.84,-21.75 1449.71,-31.02 1456.61,-32.19"/>
</a>
</g>
</g>
<!-- Node6 -->
<g id="Node000006" class="node">
<title>Node6</title>
<g id="a_Node000006"><a xlink:title=" ">
<polygon fill="#e0e0e0" stroke="#999999" points="322.5,-82 287.75,-82 287.75,-62 322.5,-62 322.5,-82"/>
<text text-anchor="middle" x="305.12" y="-68.5" font-family="Helvetica,sans-Serif" font-size="10.00">map</text>
</a>
</g>
</g>
<!-- Node5&#45;&gt;Node6 -->
<g id="edge6_Node000005_Node000006" class="edge">
<title>Node5&#45;&gt;Node6</title>
<g id="a_edge6_Node000005_Node000006"><a xlink:title=" ">
<path fill="none" stroke="#63b8ff" d="M789.58,-185.44C738.4,-179.01 630.12,-164.22 540.12,-144 508.97,-137 501.92,-132.42 471.12,-124 409.15,-107.06 390.61,-112.28 331.12,-88 330.77,-87.86 330.42,-87.71 330.06,-87.56"/>
<polygon fill="#63b8ff" stroke="#63b8ff" points="331.76,-84.49 321.25,-83.12 328.61,-90.74 331.76,-84.49"/>
</a>
</g>
</g>
<!-- Node7 -->
<g id="Node000007" class="node">
<title>Node7</title>
<g id="a_Node000007"><a xlink:title=" ">
<polygon fill="#e0e0e0" stroke="#999999" points="776.12,-144 718.12,-144 718.12,-124 776.12,-124 776.12,-144"/>
<text text-anchor="middle" x="747.12" y="-130.5" font-family="Helvetica,sans-Serif" font-size="10.00">functional</text>
</a>
</g>
</g>
<!-- Node5&#45;&gt;Node7 -->
<g id="edge7_Node000005_Node000007" class="edge">
<title>Node5&#45;&gt;Node7</title>
<g id="a_edge7_Node000005_Node000007"><a xlink:title=" ">
<path fill="none" stroke="#63b8ff" d="M806.58,-179.59C796.16,-171.77 781.08,-160.46 768.71,-151.19"/>
<polygon fill="#63b8ff" stroke="#63b8ff" points="770.83,-148.41 760.73,-145.21 766.63,-154.01 770.83,-148.41"/>
</a>
</g>
</g>
<!-- Node8 -->
<g id="Node000008" class="node">
<title>Node8</title>
<g id="a_Node000008"><a xlink:title=" ">
<polygon fill="#e0e0e0" stroke="#999999" points="461.75,-144 416.5,-144 416.5,-124 461.75,-124 461.75,-144"/>
<text text-anchor="middle" x="439.12" y="-130.5" font-family="Helvetica,sans-Serif" font-size="10.00">cstdint</text>
</a>
</g>
</g>
<!-- Node5&#45;&gt;Node8 -->
<g id="edge9_Node000005_Node000008" class="edge">
<title>Node5&#45;&gt;Node8</title>
<g id="a_edge9_Node000005_Node000008"><a xlink:title=" ">
<path fill="none" stroke="#63b8ff" d="M789.59,-186.21C730,-180.35 591.25,-165.49 476.12,-144 475.13,-143.81 474.12,-143.62 473.1,-143.41"/>
<polygon fill="#63b8ff" stroke="#63b8ff" points="474.13,-140.06 463.61,-141.33 472.63,-146.89 474.13,-140.06"/>
</a>
</g>
</g>
<!-- Node9 -->
<g id="Node000009" class="node">
<title>Node9</title>
<g id="a_Node000009"><a xlink:title=" ">
<polygon fill="#e0e0e0" stroke="#999999" points="844,-144 794.25,-144 794.25,-124 844,-124 844,-144"/>
<text text-anchor="middle" x="819.12" y="-130.5" font-family="Helvetica,sans-Serif" font-size="10.00">iomanip</text>
</a>
</g>
</g>
<!-- Node5&#45;&gt;Node9 -->
<g id="edge10_Node000005_Node000009" class="edge">
<title>Node5&#45;&gt;Node9</title>
<g id="a_edge10_Node000005_Node000009"><a xlink:title=" ">
<path fill="none" stroke="#63b8ff" d="M819.12,-179.59C819.12,-173.01 819.12,-163.96 819.12,-155.73"/>
<polygon fill="#63b8ff" stroke="#63b8ff" points="822.63,-155.81 819.13,-145.81 815.63,-155.81 822.63,-155.81"/>
</a>
</g>
</g>
<!-- Node10 -->
<g id="Node000010" class="node">
<title>Node10</title>
<g id="a_Node000010"><a xlink:href="pin__config_8h.html" target="_top" xlink:title=" ">
<polygon fill="white" stroke="#666666" points="726.38,-82 657.88,-82 657.88,-62 726.38,-62 726.38,-82"/>
<text text-anchor="middle" x="692.12" y="-68.5" font-family="Helvetica,sans-Serif" font-size="10.00">pin_config.h</text>
</a>
</g>
</g>
<!-- Node5&#45;&gt;Node10 -->
<g id="edge11_Node000005_Node000010" class="edge">
<title>Node5&#45;&gt;Node10</title>
<g id="a_edge11_Node000005_Node000010"><a xlink:title=" ">
<path fill="none" stroke="#63b8ff" d="M789.37,-188.68C725.54,-187.31 578.81,-180.2 548.12,-144 542.38,-137.22 542.99,-131.26 548.12,-124 551.29,-119.52 610.43,-99.56 651.93,-85.97"/>
<polygon fill="#63b8ff" stroke="#63b8ff" points="652.98,-89.31 661.4,-82.89 650.81,-82.66 652.98,-89.31"/>
</a>
</g>
</g>
<!-- Node12 -->
<g id="Node000012" class="node">
<title>Node12</title>
<g id="a_Node000012"><a xlink:href="_power_manager_8h.html" target="_top" xlink:title=" ">
<polygon fill="white" stroke="#666666" points="209.88,-144 120.38,-144 120.38,-124 209.88,-124 209.88,-144"/>
<text text-anchor="middle" x="165.12" y="-130.5" font-family="Helvetica,sans-Serif" font-size="10.00">PowerManager.h</text>
</a>
</g>
</g>
<!-- Node5&#45;&gt;Node12 -->
<g id="edge13_Node000005_Node000012" class="edge">
<title>Node5&#45;&gt;Node12</title>
<g id="a_edge13_Node000005_Node000012"><a xlink:title=" ">
<path fill="none" stroke="#63b8ff" d="M789.38,-187.72C703.22,-183.82 445.91,-170.74 221.5,-144.18"/>
<polygon fill="#63b8ff" stroke="#63b8ff" points="222.01,-140.71 211.67,-143 221.18,-147.66 222.01,-140.71"/>
</a>
</g>
</g>
<!-- Node18 -->
<g id="Node000018" class="node">
<title>Node18</title>
<g id="a_Node000018"><a xlink:title=" ">
<polygon fill="#e0e0e0" stroke="#999999" points="1002.25,-144 960,-144 960,-124 1002.25,-124 1002.25,-144"/>
<text text-anchor="middle" x="981.12" y="-130.5" font-family="Helvetica,sans-Serif" font-size="10.00">cstdio</text>
</a>
</g>
</g>
<!-- Node5&#45;&gt;Node18 -->
<g id="edge23_Node000005_Node000018" class="edge">
<title>Node5&#45;&gt;Node18</title>
<g id="a_edge23_Node000005_Node000018"><a xlink:title=" ">
<path fill="none" stroke="#63b8ff" d="M847.34,-179.59C875.8,-170.11 919.65,-155.49 949.32,-145.6"/>
<polygon fill="#63b8ff" stroke="#63b8ff" points="950.12,-149.02 958.5,-142.54 947.91,-142.38 950.12,-149.02"/>
</a>
</g>
</g>
<!-- Node19 -->
<g id="Node000019" class="node">
<title>Node19</title>
<g id="a_Node000019"><a xlink:title=" ">
<polygon fill="#e0e0e0" stroke="#999999" points="1064.38,-144 1019.88,-144 1019.88,-124 1064.38,-124 1064.38,-144"/>
<text text-anchor="middle" x="1042.12" y="-130.5" font-family="Helvetica,sans-Serif" font-size="10.00">cstdlib</text>
</a>
</g>
</g>
<!-- Node5&#45;&gt;Node19 -->
<g id="edge24_Node000005_Node000019" class="edge">
<title>Node5&#45;&gt;Node19</title>
<g id="a_edge24_Node000005_Node000019"><a xlink:title=" ">
<path fill="none" stroke="#63b8ff" d="M848.85,-182.54C884.54,-174.67 946.47,-160.68 1008.34,-144.64"/>
<polygon fill="#63b8ff" stroke="#63b8ff" points="1009.22,-148.02 1018.01,-142.11 1007.45,-141.25 1009.22,-148.02"/>
</a>
</g>
</g>
<!-- Node20 -->
<g id="Node000020" class="node">
<title>Node20</title>
<g id="a_Node000020"><a xlink:title=" ">
<polygon fill="#e0e0e0" stroke="#999999" points="1127.75,-144 1082.5,-144 1082.5,-124 1127.75,-124 1127.75,-144"/>
<text text-anchor="middle" x="1105.12" y="-130.5" font-family="Helvetica,sans-Serif" font-size="10.00">cstring</text>
</a>
</g>
</g>
<!-- Node5&#45;&gt;Node20 -->
<g id="edge25_Node000005_Node000020" class="edge">
<title>Node5&#45;&gt;Node20</title>
<g id="a_edge25_Node000005_Node000020"><a xlink:title=" ">
<path fill="none" stroke="#63b8ff" d="M848.65,-184.74C894.25,-177.95 984.75,-163.65 1071.07,-144.28"/>
<polygon fill="#63b8ff" stroke="#63b8ff" points="1071.67,-147.73 1080.65,-142.1 1070.12,-140.9 1071.67,-147.73"/>
</a>
</g>
</g>
<!-- Node21 -->
<g id="Node000021" class="node">
<title>Node21</title>
<g id="a_Node000021"><a xlink:href="utils_8h.html" target="_top" xlink:title=" ">
<polygon fill="white" stroke="#666666" points="904.25,-144 862,-144 862,-124 904.25,-124 904.25,-144"/>
<text text-anchor="middle" x="883.12" y="-130.5" font-family="Helvetica,sans-Serif" font-size="10.00">utils.h</text>
</a>
</g>
</g>
<!-- Node5&#45;&gt;Node21 -->
<g id="edge26_Node000005_Node000021" class="edge">
<title>Node5&#45;&gt;Node21</title>
<g id="a_edge26_Node000005_Node000021"><a xlink:title=" ">
<path fill="none" stroke="#63b8ff" d="M830.27,-179.59C839.45,-171.85 852.68,-160.69 863.61,-151.47"/>
<polygon fill="#63b8ff" stroke="#63b8ff" points="865.56,-154.4 870.95,-145.27 861.05,-149.05 865.56,-154.4"/>
</a>
</g>
</g>
<!-- Node24 -->
<g id="Node000024" class="node">
<title>Node24</title>
<g id="a_Node000024"><a xlink:title=" ">
<polygon fill="#e0e0e0" stroke="#999999" points="599.62,-144 556.62,-144 556.62,-124 599.62,-124 599.62,-144"/>
<text text-anchor="middle" x="578.12" y="-130.5" font-family="Helvetica,sans-Serif" font-size="10.00">time.h</text>
</a>
</g>
</g>
<!-- Node5&#45;&gt;Node24 -->
<g id="edge32_Node000005_Node000024" class="edge">
<title>Node5&#45;&gt;Node24</title>
<g id="a_edge32_Node000005_Node000024"><a xlink:title=" ">
<path fill="none" stroke="#63b8ff" d="M789.41,-183.33C750.66,-175.78 680.53,-161.61 611.2,-144.38"/>
<polygon fill="#63b8ff" stroke="#63b8ff" points="612.11,-141 601.56,-141.96 610.4,-147.79 612.11,-141"/>
</a>
</g>
</g>
<!-- Node25 -->
<g id="Node000025" class="node">
<title>Node25</title>
<g id="a_Node000025"><a xlink:href="build__number_8h.html" target="_top" xlink:title=" ">
<polygon fill="white" stroke="#666666" points="700.12,-144 618.12,-144 618.12,-124 700.12,-124 700.12,-144"/>
<text text-anchor="middle" x="659.12" y="-130.5" font-family="Helvetica,sans-Serif" font-size="10.00">build_number.h</text>
</a>
</g>
</g>
<!-- Node5&#45;&gt;Node25 -->
<g id="edge33_Node000005_Node000025" class="edge">
<title>Node5&#45;&gt;Node25</title>
<g id="a_edge33_Node000005_Node000025"><a xlink:title=" ">
<path fill="none" stroke="#63b8ff" d="M791.26,-179.59C765.37,-170.86 726.6,-157.77 697.74,-148.03"/>
<polygon fill="#63b8ff" stroke="#63b8ff" points="699.24,-144.85 688.65,-144.96 697,-151.48 699.24,-144.85"/>
</a>
</g>
</g>
<!-- Node26 -->
<g id="Node000026" class="node">
<title>Node26</title>
<g id="a_Node000026"><a xlink:href="_lo_ra-_r_p2040_8h.html" target="_top" xlink:title=" ">
<polygon fill="white" stroke="#666666" points="1296.12,-144 1184.12,-144 1184.12,-124 1296.12,-124 1296.12,-144"/>
<text text-anchor="middle" x="1240.12" y="-130.5" font-family="Helvetica,sans-Serif" font-size="10.00">LoRa/LoRa&#45;RP2040.h</text>
</a>
</g>
</g>
<!-- Node5&#45;&gt;Node26 -->
<g id="edge34_Node000005_Node000026" class="edge">
<title>Node5&#45;&gt;Node26</title>
<g id="a_edge34_Node000005_Node000026"><a xlink:title=" ">
<path fill="none" stroke="#63b8ff" d="M848.73,-185.2C915.57,-176.63 1079.57,-155.59 1172.69,-143.65"/>
<polygon fill="#63b8ff" stroke="#63b8ff" points="1172.98,-147.14 1182.45,-142.4 1172.09,-140.2 1172.98,-147.14"/>
</a>
</g>
</g>
<!-- Node11 -->
<g id="Node000011" class="node">
<title>Node11</title>
<g id="a_Node000011"><a xlink:title=" ">
<polygon fill="#e0e0e0" stroke="#999999" points="631.25,-20 583,-20 583,0 631.25,0 631.25,-20"/>
<text text-anchor="middle" x="607.12" y="-6.5" font-family="Helvetica,sans-Serif" font-size="10.00">stdint.h</text>
</a>
</g>
</g>
<!-- Node10&#45;&gt;Node11 -->
<g id="edge12_Node000010_Node000011" class="edge">
<title>Node10&#45;&gt;Node11</title>
<g id="a_edge12_Node000010_Node000011"><a xlink:title=" ">
<path fill="none" stroke="#63b8ff" d="M678.84,-61.62C665.62,-52.29 645.08,-37.79 629.37,-26.7"/>
<polygon fill="#63b8ff" stroke="#63b8ff" points="631.74,-24.09 621.55,-21.18 627.7,-29.81 631.74,-24.09"/>
</a>
</g>
</g>
<!-- Node12&#45;&gt;Node3 -->
<g id="edge19_Node000012_Node000003" class="edge">
<title>Node12&#45;&gt;Node3</title>
<g id="a_edge19_Node000012_Node000003"><a xlink:title=" ">
<path fill="none" stroke="#63b8ff" d="M182.84,-123.6C198.58,-115 221.99,-101.58 241.12,-88 259.13,-75.22 258.79,-64.59 279.12,-56 427.66,6.74 479.85,-37.61 640.12,-20 654.44,-18.43 670.28,-16.55 683.7,-14.91"/>
<polygon fill="#63b8ff" stroke="#63b8ff" points="683.76,-18.43 693.26,-13.74 682.91,-11.48 683.76,-18.43"/>
</a>
</g>
</g>
<!-- Node12&#45;&gt;Node6 -->
<g id="edge18_Node000012_Node000006" class="edge">
<title>Node12&#45;&gt;Node6</title>
<g id="a_edge18_Node000012_Node000006"><a xlink:title=" ">
<path fill="none" stroke="#63b8ff" d="M189.11,-123.57C211.31,-114.73 245.16,-100.97 274.12,-88 275.22,-87.51 276.33,-87.01 277.45,-86.49"/>
<polygon fill="#63b8ff" stroke="#63b8ff" points="278.58,-89.83 286.14,-82.39 275.6,-83.49 278.58,-89.83"/>
</a>
</g>
</g>
<!-- Node13 -->
<g id="Node000013" class="node">
<title>Node13</title>
<g id="a_Node000013"><a xlink:href="_i_n_a3221_8h.html" target="_top" xlink:title=" ">
<polygon fill="white" stroke="#666666" points="232,-82 128.25,-82 128.25,-62 232,-62 232,-82"/>
<text text-anchor="middle" x="180.12" y="-68.5" font-family="Helvetica,sans-Serif" font-size="10.00">INA3221/INA3221.h</text>
</a>
</g>
</g>
<!-- Node12&#45;&gt;Node13 -->
<g id="edge14_Node000012_Node000013" class="edge">
<title>Node12&#45;&gt;Node13</title>
<g id="a_edge14_Node000012_Node000013"><a xlink:title=" ">
<path fill="none" stroke="#63b8ff" d="M167.47,-123.62C169.51,-115.48 172.53,-103.39 175.11,-93.07"/>
<polygon fill="#63b8ff" stroke="#63b8ff" points="178.45,-94.13 177.48,-83.58 171.66,-92.43 178.45,-94.13"/>
</a>
</g>
</g>
<!-- Node15 -->
<g id="Node000015" class="node">
<title>Node15</title>
<g id="a_Node000015"><a xlink:title=" ">
<polygon fill="#e0e0e0" stroke="#999999" points="140,-20 60.25,-20 60.25,0 140,0 140,-20"/>
<text text-anchor="middle" x="100.12" y="-6.5" font-family="Helvetica,sans-Serif" font-size="10.00">hardware/i2c.h</text>
</a>
</g>
</g>
<!-- Node12&#45;&gt;Node15 -->
<g id="edge20_Node000012_Node000015" class="edge">
<title>Node12&#45;&gt;Node15</title>
<g id="a_edge20_Node000012_Node000015"><a xlink:title=" ">
<path fill="none" stroke="#63b8ff" d="M152.27,-123.73C141.8,-115.5 127.44,-102.55 119.12,-88 109.1,-70.45 104.32,-47.72 102.07,-31.51"/>
<polygon fill="#63b8ff" stroke="#63b8ff" points="105.56,-31.17 100.93,-21.64 98.6,-31.97 105.56,-31.17"/>
</a>
</g>
</g>
<!-- Node16 -->
<g id="Node000016" class="node">
<title>Node16</title>
<g id="a_Node000016"><a xlink:title=" ">
<polygon fill="#e0e0e0" stroke="#999999" points="828.38,-82 759.88,-82 759.88,-62 828.38,-62 828.38,-82"/>
<text text-anchor="middle" x="794.12" y="-68.5" font-family="Helvetica,sans-Serif" font-size="10.00">pico/stdlib.h</text>
</a>
</g>
</g>
<!-- Node12&#45;&gt;Node16 -->
<g id="edge21_Node000012_Node000016" class="edge">
<title>Node12&#45;&gt;Node16</title>
<g id="a_edge21_Node000012_Node000016"><a xlink:title=" ">
<path fill="none" stroke="#63b8ff" d="M210.16,-125.16C213.19,-124.74 216.2,-124.35 219.12,-124 447.43,-97.07 508.15,-124.47 735.12,-88 740.07,-87.21 745.21,-86.19 750.3,-85.06"/>
<polygon fill="#63b8ff" stroke="#63b8ff" points="750.87,-88.53 759.79,-82.81 749.26,-81.71 750.87,-88.53"/>
</a>
</g>
</g>
<!-- Node17 -->
<g id="Node000017" class="node">
<title>Node17</title>
<g id="a_Node000017"><a xlink:title=" ">
<polygon fill="#e0e0e0" stroke="#999999" points="72.25,-82 0,-82 0,-62 72.25,-62 72.25,-82"/>
<text text-anchor="middle" x="36.12" y="-68.5" font-family="Helvetica,sans-Serif" font-size="10.00">pico/mutex.h</text>
</a>
</g>
</g>
<!-- Node12&#45;&gt;Node17 -->
<g id="edge22_Node000012_Node000017" class="edge">
<title>Node12&#45;&gt;Node17</title>
<g id="a_edge22_Node000012_Node000017"><a xlink:title=" ">
<path fill="none" stroke="#63b8ff" d="M144.97,-123.62C123.95,-113.85 90.76,-98.41 66.55,-87.15"/>
<polygon fill="#63b8ff" stroke="#63b8ff" points="68.06,-83.99 57.51,-82.95 65.1,-90.34 68.06,-83.99"/>
</a>
</g>
</g>
<!-- Node13&#45;&gt;Node11 -->
<g id="edge15_Node000013_Node000011" class="edge">
<title>Node13&#45;&gt;Node11</title>
<g id="a_edge15_Node000013_Node000011"><a xlink:title=" ">
<path fill="none" stroke="#63b8ff" d="M218.73,-61.55C227.69,-59.54 237.21,-57.56 246.12,-56 364.71,-35.19 506.87,-20.42 571.73,-14.23"/>
<polygon fill="#63b8ff" stroke="#63b8ff" points="571.79,-17.74 581.41,-13.32 571.13,-10.77 571.79,-17.74"/>
</a>
</g>
</g>
<!-- Node14 -->
<g id="Node000014" class="node">
<title>Node14</title>
<g id="a_Node000014"><a xlink:title=" ">
<polygon fill="#e0e0e0" stroke="#999999" points="211.88,-20 158.38,-20 158.38,0 211.88,0 211.88,-20"/>
<text text-anchor="middle" x="185.12" y="-6.5" font-family="Helvetica,sans-Serif" font-size="10.00">iostream</text>
</a>
</g>
</g>
<!-- Node13&#45;&gt;Node14 -->
<g id="edge16_Node000013_Node000014" class="edge">
<title>Node13&#45;&gt;Node14</title>
<g id="a_edge16_Node000013_Node000014"><a xlink:title=" ">
<path fill="none" stroke="#63b8ff" d="M180.91,-61.62C181.58,-53.56 182.57,-41.65 183.42,-31.41"/>
<polygon fill="#63b8ff" stroke="#63b8ff" points="186.9,-31.88 184.24,-21.62 179.92,-31.3 186.9,-31.88"/>
</a>
</g>
</g>
<!-- Node13&#45;&gt;Node15 -->
<g id="edge17_Node000013_Node000015" class="edge">
<title>Node13&#45;&gt;Node15</title>
<g id="a_edge17_Node000013_Node000015"><a xlink:title=" ">
<path fill="none" stroke="#63b8ff" d="M167.62,-61.62C155.3,-52.38 136.21,-38.07 121.48,-27.01"/>
<polygon fill="#63b8ff" stroke="#63b8ff" points="123.85,-24.42 113.75,-21.22 119.65,-30.02 123.85,-24.42"/>
</a>
</g>
</g>
<!-- Node21&#45;&gt;Node3 -->
<g id="edge28_Node000021_Node000003" class="edge">
<title>Node21&#45;&gt;Node3</title>
<g id="a_edge28_Node000021_Node000003"><a xlink:title=" ">
<path fill="none" stroke="#63b8ff" d="M879.88,-123.55C873.9,-107.46 859.65,-74.7 837.12,-56 810.8,-34.14 772.88,-22.39 746.32,-16.44"/>
<polygon fill="#63b8ff" stroke="#63b8ff" points="747.34,-13.08 736.84,-14.48 745.92,-19.94 747.34,-13.08"/>
</a>
</g>
</g>
<!-- Node21&#45;&gt;Node10 -->
<g id="edge31_Node000021_Node000010" class="edge">
<title>Node21&#45;&gt;Node10</title>
<g id="a_edge31_Node000021_Node000010"><a xlink:title=" ">
<path fill="none" stroke="#63b8ff" d="M861.59,-126.23C830.53,-116.48 772.59,-98.28 733.19,-85.9"/>
<polygon fill="#63b8ff" stroke="#63b8ff" points="734.4,-82.61 723.81,-82.95 732.3,-89.29 734.4,-82.61"/>
</a>
</g>
</g>
<!-- Node21&#45;&gt;Node16 -->
<g id="edge29_Node000021_Node000016" class="edge">
<title>Node21&#45;&gt;Node16</title>
<g id="a_edge29_Node000021_Node000016"><a xlink:title=" ">
<path fill="none" stroke="#63b8ff" d="M869.22,-123.62C855.37,-114.29 833.87,-99.79 817.41,-88.7"/>
<polygon fill="#63b8ff" stroke="#63b8ff" points="819.44,-85.84 809.19,-83.16 815.52,-91.65 819.44,-85.84"/>
</a>
</g>
</g>
<!-- Node22 -->
<g id="Node000022" class="node">
<title>Node22</title>
<g id="a_Node000022"><a xlink:title=" ">
<polygon fill="#e0e0e0" stroke="#999999" points="1127.75,-20 1082.5,-20 1082.5,0 1127.75,0 1127.75,-20"/>
<text text-anchor="middle" x="1105.12" y="-6.5" font-family="Helvetica,sans-Serif" font-size="10.00">stdio.h</text>
</a>
</g>
</g>
<!-- Node21&#45;&gt;Node22 -->
<g id="edge27_Node000021_Node000022" class="edge">
<title>Node21&#45;&gt;Node22</title>
<g id="a_edge27_Node000021_Node000022"><a xlink:title=" ">
<path fill="none" stroke="#63b8ff" d="M893.94,-123.67C912.43,-108.06 951.78,-76.36 989.12,-56 1015.53,-41.6 1047.52,-29.56 1071.21,-21.56"/>
<polygon fill="#63b8ff" stroke="#63b8ff" points="1072.28,-24.9 1080.68,-18.44 1070.09,-18.25 1072.28,-24.9"/>
</a>
</g>
</g>
<!-- Node23 -->
<g id="Node000023" class="node">
<title>Node23</title>
<g id="a_Node000023"><a xlink:title=" ">
<polygon fill="#e0e0e0" stroke="#999999" points="601.88,-82 518.38,-82 518.38,-62 601.88,-62 601.88,-82"/>
<text text-anchor="middle" x="560.12" y="-68.5" font-family="Helvetica,sans-Serif" font-size="10.00">hardware/uart.h</text>
</a>
</g>
</g>
<!-- Node21&#45;&gt;Node23 -->
<g id="edge30_Node000021_Node000023" class="edge">
<title>Node21&#45;&gt;Node23</title>
<g id="a_edge30_Node000021_Node000023"><a xlink:title=" ">
<path fill="none" stroke="#63b8ff" d="M861.58,-126.2C858.75,-125.41 855.88,-124.65 853.12,-124 841.53,-121.26 694.35,-95.96 613.12,-82.06"/>
<polygon fill="#63b8ff" stroke="#63b8ff" points="614.06,-78.67 603.61,-80.43 612.88,-85.57 614.06,-78.67"/>
</a>
</g>
</g>
<!-- Node26&#45;&gt;Node10 -->
<g id="edge44_Node000026_Node000010" class="edge">
<title>Node26&#45;&gt;Node10</title>
<g id="a_edge44_Node000026_Node000010"><a xlink:title=" ">
<path fill="none" stroke="#63b8ff" d="M1183.65,-128.04C1059.49,-117.11 772.16,-91.62 751.12,-88 746.44,-87.19 741.58,-86.21 736.74,-85.13"/>
<polygon fill="#63b8ff" stroke="#63b8ff" points="737.64,-81.74 727.1,-82.84 736.02,-88.55 737.64,-81.74"/>
</a>
</g>
</g>
<!-- Node26&#45;&gt;Node16 -->
<g id="edge35_Node000026_Node000016" class="edge">
<title>Node26&#45;&gt;Node16</title>
<g id="a_edge35_Node000026_Node000016"><a xlink:title=" ">
<path fill="none" stroke="#63b8ff" d="M1183.64,-125.4C1094.29,-113.38 922.1,-90.22 839.93,-79.16"/>
<polygon fill="#63b8ff" stroke="#63b8ff" points="840.59,-75.72 830.21,-77.86 839.66,-82.66 840.59,-75.72"/>
</a>
</g>
</g>
<!-- Node27 -->
<g id="Node000027" class="node">
<title>Node27</title>
<g id="a_Node000027"><a xlink:title=" ">
<polygon fill="#e0e0e0" stroke="#999999" points="1156.38,-82 1063.88,-82 1063.88,-62 1156.38,-62 1156.38,-82"/>
<text text-anchor="middle" x="1110.12" y="-68.5" font-family="Helvetica,sans-Serif" font-size="10.00">pico/binary_info.h</text>
</a>
</g>
</g>
<!-- Node26&#45;&gt;Node27 -->
<g id="edge36_Node000026_Node000027" class="edge">
<title>Node26&#45;&gt;Node27</title>
<g id="a_edge36_Node000026_Node000027"><a xlink:title=" ">
<path fill="none" stroke="#63b8ff" d="M1219.81,-123.62C1198.54,-113.81 1164.88,-98.27 1140.46,-87"/>
<polygon fill="#63b8ff" stroke="#63b8ff" points="1142.22,-83.96 1131.67,-82.94 1139.28,-90.31 1142.22,-83.96"/>
</a>
</g>
</g>
<!-- Node28 -->
<g id="Node000028" class="node">
<title>Node28</title>
<g id="a_Node000028"><a xlink:title=" ">
<polygon fill="#e0e0e0" stroke="#999999" points="1259.62,-82 1174.62,-82 1174.62,-62 1259.62,-62 1259.62,-82"/>
<text text-anchor="middle" x="1217.12" y="-68.5" font-family="Helvetica,sans-Serif" font-size="10.00">hardware/gpio.h</text>
</a>
</g>
</g>
<!-- Node26&#45;&gt;Node28 -->
<g id="edge37_Node000026_Node000028" class="edge">
<title>Node26&#45;&gt;Node28</title>
<g id="a_edge37_Node000026_Node000028"><a xlink:title=" ">
<path fill="none" stroke="#63b8ff" d="M1236.53,-123.62C1233.37,-115.39 1228.67,-103.13 1224.69,-92.74"/>
<polygon fill="#63b8ff" stroke="#63b8ff" points="1228.01,-91.61 1221.16,-83.53 1221.47,-94.12 1228.01,-91.61"/>
</a>
</g>
</g>
<!-- Node29 -->
<g id="Node000029" class="node">
<title>Node29</title>
<g id="a_Node000029"><a xlink:title=" ">
<polygon fill="#e0e0e0" stroke="#999999" points="1357,-82 1277.25,-82 1277.25,-62 1357,-62 1357,-82"/>
<text text-anchor="middle" x="1317.12" y="-68.5" font-family="Helvetica,sans-Serif" font-size="10.00">hardware/spi.h</text>
</a>
</g>
</g>
<!-- Node26&#45;&gt;Node29 -->
<g id="edge38_Node000026_Node000029" class="edge">
<title>Node26&#45;&gt;Node29</title>
<g id="a_edge38_Node000026_Node000029"><a xlink:title=" ">
<path fill="none" stroke="#63b8ff" d="M1252.16,-123.62C1263.91,-114.47 1282.04,-100.34 1296.17,-89.33"/>
<polygon fill="#63b8ff" stroke="#63b8ff" points="1298.25,-92.15 1303.98,-83.24 1293.95,-86.63 1298.25,-92.15"/>
</a>
</g>
</g>
<!-- Node30 -->
<g id="Node000030" class="node">
<title>Node30</title>
<g id="a_Node000030"><a xlink:title=" ">
<polygon fill="#e0e0e0" stroke="#999999" points="1046.25,-82 998,-82 998,-62 1046.25,-62 1046.25,-82"/>
<text text-anchor="middle" x="1022.12" y="-68.5" font-family="Helvetica,sans-Serif" font-size="10.00">string.h</text>
</a>
</g>
</g>
<!-- Node26&#45;&gt;Node30 -->
<g id="edge39_Node000026_Node000030" class="edge">
<title>Node26&#45;&gt;Node30</title>
<g id="a_edge39_Node000026_Node000030"><a xlink:title=" ">
<path fill="none" stroke="#63b8ff" d="M1190.32,-123.54C1152.66,-115.75 1099.96,-103.49 1055.12,-88 1053.97,-87.6 1052.79,-87.17 1051.61,-86.73"/>
<polygon fill="#63b8ff" stroke="#63b8ff" points="1053.05,-83.53 1042.47,-82.93 1050.36,-90 1053.05,-83.53"/>
</a>
</g>
</g>
<!-- Node31 -->
<g id="Node000031" class="node">
<title>Node31</title>
<g id="a_Node000031"><a xlink:href="_print_8h.html" target="_top" xlink:title=" ">
<polygon fill="white" stroke="#666666" points="1419.38,-82 1374.88,-82 1374.88,-62 1419.38,-62 1419.38,-82"/>
<text text-anchor="middle" x="1397.12" y="-68.5" font-family="Helvetica,sans-Serif" font-size="10.00">Print.h</text>
</a>
</g>
</g>
<!-- Node26&#45;&gt;Node31 -->
<g id="edge40_Node000026_Node000031" class="edge">
<title>Node26&#45;&gt;Node31</title>
<g id="a_edge40_Node000026_Node000031"><a xlink:title=" ">
<path fill="none" stroke="#63b8ff" d="M1269.49,-123.51C1295.25,-114.95 1333.56,-101.65 1366.12,-88 1366.89,-87.68 1367.66,-87.35 1368.44,-87.01"/>
<polygon fill="#63b8ff" stroke="#63b8ff" points="1369.57,-90.34 1377.21,-83 1366.66,-83.98 1369.57,-90.34"/>
</a>
</g>
</g>
<!-- Node31&#45;&gt;Node3 -->
<g id="edge43_Node000031_Node000003" class="edge">
<title>Node31&#45;&gt;Node3</title>
<g id="a_edge43_Node000031_Node000003"><a xlink:title=" ">
<path fill="none" stroke="#63b8ff" d="M1380.52,-61.53C1375.98,-59.35 1370.98,-57.29 1366.12,-56 1247.02,-24.34 860.14,-13.99 746.68,-11.6"/>
<polygon fill="#63b8ff" stroke="#63b8ff" points="746.97,-8.1 736.9,-11.4 746.83,-15.1 746.97,-8.1"/>
</a>
</g>
</g>
<!-- Node31&#45;&gt;Node22 -->
<g id="edge42_Node000031_Node000022" class="edge">
<title>Node31&#45;&gt;Node22</title>
<g id="a_edge42_Node000031_Node000022"><a xlink:title=" ">
<path fill="none" stroke="#63b8ff" d="M1379.77,-61.55C1375.41,-59.48 1370.68,-57.46 1366.12,-56 1287.09,-30.62 1189.73,-18.66 1139.2,-13.81"/>
<polygon fill="#63b8ff" stroke="#63b8ff" points="1139.76,-10.35 1129.49,-12.92 1139.12,-17.32 1139.76,-10.35"/>
</a>
</g>
</g>
<!-- Node32 -->
<g id="Node000032" class="node">
<title>Node32</title>
<g id="a_Node000032"><a xlink:title=" ">
<polygon fill="#e0e0e0" stroke="#999999" points="1416.5,-20 1357.75,-20 1357.75,0 1416.5,0 1416.5,-20"/>
<text text-anchor="middle" x="1387.12" y="-6.5" font-family="Helvetica,sans-Serif" font-size="10.00">inttypes.h</text>
</a>
</g>
</g>
<!-- Node31&#45;&gt;Node32 -->
<g id="edge41_Node000031_Node000032" class="edge">
<title>Node31&#45;&gt;Node32</title>
<g id="a_edge41_Node000031_Node000032"><a xlink:title=" ">
<path fill="none" stroke="#63b8ff" d="M1395.56,-61.62C1394.22,-53.56 1392.23,-41.65 1390.53,-31.41"/>
<polygon fill="#63b8ff" stroke="#63b8ff" points="1393.99,-30.89 1388.89,-21.61 1387.08,-32.05 1393.99,-30.89"/>
</a>
</g>
</g>
<!-- Node33&#45;&gt;Node3 -->
<g id="edge48_Node000033_Node000003" class="edge">
<title>Node33&#45;&gt;Node3</title>
<g id="a_edge48_Node000033_Node000003"><a xlink:title=" ">
<path fill="none" stroke="#63b8ff" d="M387.96,-179.89C388.25,-165.7 391.01,-138.43 407.12,-124 475.7,-62.57 527.72,-126.99 611.12,-88 631.13,-78.65 631.54,-69.35 649.12,-56 662.64,-45.75 678.3,-35.02 690.98,-26.61"/>
<polygon fill="#63b8ff" stroke="#63b8ff" points="692.71,-29.66 699.14,-21.25 688.86,-23.81 692.71,-29.66"/>
</a>
</g>
</g>
<!-- Node33&#45;&gt;Node8 -->
<g id="edge47_Node000033_Node000008" class="edge">
<title>Node33&#45;&gt;Node8</title>
<g id="a_edge47_Node000033_Node000008"><a xlink:title=" ">
<path fill="none" stroke="#63b8ff" d="M397.01,-179.59C404.03,-172.16 414.03,-161.58 422.52,-152.58"/>
<polygon fill="#63b8ff" stroke="#63b8ff" points="424.98,-155.07 429.3,-145.4 419.89,-150.27 424.98,-155.07"/>
</a>
</g>
</g>
<!-- Node33&#45;&gt;Node12 -->
<g id="edge46_Node000033_Node000012" class="edge">
<title>Node33&#45;&gt;Node12</title>
<g id="a_edge46_Node000033_Node000012"><a xlink:title=" ">
<path fill="none" stroke="#63b8ff" d="M349.03,-179.53C311.8,-170.52 255.62,-156.91 215.15,-147.11"/>
<polygon fill="#63b8ff" stroke="#63b8ff" points="216.19,-143.77 205.65,-144.81 214.55,-150.57 216.19,-143.77"/>
</a>
</g>
</g>
<!-- Node33&#45;&gt;Node17 -->
<g id="edge49_Node000033_Node000017" class="edge">
<title>Node33&#45;&gt;Node17</title>
<g id="a_edge49_Node000033_Node000017"><a xlink:title=" ">
<path fill="none" stroke="#63b8ff" d="M342.24,-189.65C285.17,-188.68 186.12,-181.11 111.12,-144 86,-131.57 63.6,-107.85 49.96,-91.26"/>
<polygon fill="#63b8ff" stroke="#63b8ff" points="52.88,-89.31 43.92,-83.64 47.39,-93.65 52.88,-89.31"/>
</a>
</g>
</g>
<!-- Node34&#45;&gt;Node3 -->
<g id="edge51_Node000034_Node000003" class="edge">
<title>Node34&#45;&gt;Node3</title>
<g id="a_edge51_Node000034_Node000003"><a xlink:title=" ">
<path fill="none" stroke="#63b8ff" d="M360.14,-123.53C394.56,-116.81 436.57,-105.74 471.12,-88 490.77,-77.91 489.32,-65.75 509.12,-56 539.54,-41.03 633.79,-24.16 683.57,-15.98"/>
<polygon fill="#63b8ff" stroke="#63b8ff" points="684.11,-19.44 693.43,-14.38 682.99,-12.53 684.11,-19.44"/>
</a>
</g>
</g>
<!-- Node34&#45;&gt;Node10 -->
<g id="edge57_Node000034_Node000010" class="edge">
<title>Node34&#45;&gt;Node10</title>
<g id="a_edge57_Node000034_Node000010"><a xlink:title=" ">
<path fill="none" stroke="#63b8ff" d="M360.12,-124.46C424.33,-115.95 524.59,-102.15 611.12,-88 622.56,-86.13 634.86,-83.94 646.35,-81.82"/>
<polygon fill="#63b8ff" stroke="#63b8ff" points="646.82,-85.3 656.01,-80.02 645.53,-78.42 646.82,-85.3"/>
</a>
</g>
</g>
<!-- Node34&#45;&gt;Node23 -->
<g id="edge52_Node000034_Node000023" class="edge">
<title>Node34&#45;&gt;Node23</title>
<g id="a_edge52_Node000034_Node000023"><a xlink:title=" ">
<path fill="none" stroke="#63b8ff" d="M341.4,-123.58C384.07,-114.91 448.48,-101.4 504.12,-88 507.65,-87.15 511.29,-86.24 514.94,-85.31"/>
<polygon fill="#63b8ff" stroke="#63b8ff" points="515.58,-88.76 524.38,-82.86 513.82,-81.99 515.58,-88.76"/>
</a>
</g>
</g>
<!-- Node35 -->
<g id="Node000035" class="node">
<title>Node35</title>
<g id="a_Node000035"><a xlink:href="_n_m_e_a__data_8h.html" target="_top" xlink:title=" ">
<polygon fill="white" stroke="#666666" points="462,-88 340.25,-88 340.25,-56 462,-56 462,-88"/>
<text text-anchor="start" x="348.25" y="-74.5" font-family="Helvetica,sans-Serif" font-size="10.00">lib/location/NMEA/nmea</text>
<text text-anchor="middle" x="401.12" y="-62.5" font-family="Helvetica,sans-Serif" font-size="10.00">_data.h</text>
</a>
</g>
</g>
<!-- Node34&#45;&gt;Node35 -->
<g id="edge53_Node000034_Node000035" class="edge">
<title>Node34&#45;&gt;Node35</title>
<g id="a_edge53_Node000034_Node000035"><a xlink:title=" ">
<path fill="none" stroke="#63b8ff" d="M310.84,-123.62C324.96,-115.71 345.7,-104.08 363.75,-93.96"/>
<polygon fill="#63b8ff" stroke="#63b8ff" points="365.38,-97.06 372.39,-89.11 361.95,-90.95 365.38,-97.06"/>
</a>
</g>
</g>
<!-- Node35&#45;&gt;Node3 -->
<g id="edge55_Node000035_Node000003" class="edge">
<title>Node35&#45;&gt;Node3</title>
<g id="a_edge55_Node000035_Node000003"><a xlink:title=" ">
<path fill="none" stroke="#63b8ff" d="M462.1,-58.74C466.85,-57.81 471.56,-56.89 476.12,-56 550.32,-41.6 637.61,-25.33 683.4,-16.85"/>
<polygon fill="#63b8ff" stroke="#63b8ff" points="683.96,-20.31 693.16,-15.05 682.69,-13.43 683.96,-20.31"/>
</a>
</g>
</g>
<!-- Node35&#45;&gt;Node4 -->
<g id="edge54_Node000035_Node000004" class="edge">
<title>Node35&#45;&gt;Node4</title>
<g id="a_edge54_Node000035_Node000004"><a xlink:title=" ">
<path fill="none" stroke="#63b8ff" d="M462.4,-61.42C477.63,-59.33 493.95,-57.35 509.12,-56 911.28,-20.26 1020.99,-84.11 1423.19,-19.85"/>
<polygon fill="#63b8ff" stroke="#63b8ff" points="1423.45,-23.35 1432.77,-18.3 1422.34,-16.44 1423.45,-23.35"/>
</a>
</g>
</g>
<!-- Node36 -->
<g id="Node000036" class="node">
<title>Node36</title>
<g id="a_Node000036"><a xlink:title=" ">
<polygon fill="#e0e0e0" stroke="#999999" points="434.25,-20 368,-20 368,0 434.25,0 434.25,-20"/>
<text text-anchor="middle" x="401.12" y="-6.5" font-family="Helvetica,sans-Serif" font-size="10.00">pico/sync.h</text>
</a>
</g>
</g>
<!-- Node35&#45;&gt;Node36 -->
<g id="edge56_Node000035_Node000036" class="edge">
<title>Node35&#45;&gt;Node36</title>
<g id="a_edge56_Node000035_Node000036"><a xlink:title=" ">
<path fill="none" stroke="#63b8ff" d="M401.12,-55.55C401.12,-48.34 401.12,-39.66 401.12,-31.88"/>
<polygon fill="#63b8ff" stroke="#63b8ff" points="404.63,-31.92 401.13,-21.92 397.63,-31.92 404.63,-31.92"/>
</a>
</g>
</g>
</g>
</svg>

<g id="navigator" transform="translate(0 0)" fill="#404254">
  <rect fill="#f2f5e9" fill-opacity="0.5" stroke="#606060" stroke-width=".5" x="0" y="0" width="60" height="60"/>
  <use id="zoomplus" xlink:href="#zoomPlus" x="17" y="9" onmousedown="handleZoom(evt,'in')"/>
  <use id="zoomminus" xlink:href="#zoomMin" x="42" y="9" onmousedown="handleZoom(evt,'out')"/>
  <use id="reset" xlink:href="#resetDef" x="30" y="36" onmousedown="handleReset()"/>
   <use id="arrowup" xlink:href="#arrowUp" x="0" y="0" onmousedown="handlePan(0,-1)"/>
  <use id="arrowright" xlink:href="#arrowRight" x="0" y="0" onmousedown="handlePan(1,0)"/>
  <use id="arrowdown" xlink:href="#arrowDown" x="0" y="0" onmousedown="handlePan(0,1)"/>
  <use id="arrowleft" xlink:href="#arrowLeft" x="0" y="0" onmousedown="handlePan(-1,0)"/>
</g>
<svg viewBox="0 0 15 15" width="100%" height="30px" preserveAspectRatio="xMaxYMin meet">
 <g id="arrow_out" transform="scale(0.3 0.3)">
  <a xlink:href="gps__commands_8cpp__incl_org.svg" target="_base">
   <rect id="button" ry="5" rx="5" y="6" x="6" height="38" width="38"
        fill="#f2f5e9" fill-opacity="0.5" stroke="#606060" stroke-width="1.0"/>
   <path id="arrow"
     d="M 11.500037,31.436501 C 11.940474,20.09759 22.043105,11.32322 32.158766,21.979434 L 37.068811,17.246167 C 37.068811,17.246167 37.088388,32 37.088388,32 L 22.160133,31.978069 C 22.160133,31.978069 26.997745,27.140456 26.997745,27.140456 C 18.528582,18.264221 13.291696,25.230495 11.500037,31.436501 z"
     style="fill:#404040;"/>
  </a>
 </g>
</svg>

<style type='text/css'>
<![CDATA[
[data-mouse-over-selected='false'] { opacity: 0.7; }
[data-mouse-over-selected='true']  { opacity: 1.0; }
]]>
</style>
<script type="application/ecmascript"><![CDATA[
document.addEventListener('DOMContentLoaded', (event) => {
  highlightEdges();
  highlightAdjacentNodes();
});
]]></script>
</svg>
