<?xml version="1.0" encoding="UTF-8" standalone="no"?>
<!DOCTYPE svg PUBLIC "-//W3C//DTD SVG 1.1//EN"
 "http://www.w3.org/Graphics/SVG/1.1/DTD/svg11.dtd">
<!-- Generated by graphviz version 12.2.1 (20241206.2353)
 -->
<!-- Title: lib/location/gps_collector.cpp Pages: 1 -->
<!--zoomable 264 -->

<svg id="main" version="1.1" xmlns="http://www.w3.org/2000/svg" xmlns:xlink="http://www.w3.org/1999/xlink" xml:space="preserve" onload="init(evt)">

<style type="text/css"><![CDATA[
.node, .edge {opacity: 0.7;}
.node.selected, .edge.selected {opacity: 1;}
.edge:hover path { stroke: red; }
.edge:hover polygon { stroke: red; fill: red; }
]]></style>

<defs>
  <circle id="rim" cx="0" cy="0" r="7"/>
  <circle id="rim2" cx="0" cy="0" r="3.5"/>
  <g id="zoomPlus">
    <use xlink:href="#rim" fill="#404040"><set attributeName="fill" to="#808080" begin="zoomplus.mouseover" end="zoomplus.mouseout"/></use>
    <path d="M-4,0h8M0,-4v8" fill="none" stroke="white" stroke-width="1.5" pointer-events="none"/>
  </g>
  <g id="zoomMin">
    <use xlink:href="#rim" fill="#404040"><set attributeName="fill" to="#808080" begin="zoomminus.mouseover" end="zoomminus.mouseout"/></use>
    <path d="M-4,0h8" fill="none" stroke="white" stroke-width="1.5" pointer-events="none"/>
  </g>
  <g id="arrowUp" transform="translate(30 24)">
    <use xlink:href="#rim"/>
    <path pointer-events="none" fill="none" stroke="white" stroke-width="1.5" d="M0,-3.0v7 M-2.5,-0.5L0,-3.0L2.5,-0.5"/>
  </g>
  <g id="arrowRight" transform="rotate(90) translate(36 -43)">
    <use xlink:href="#rim"/>
    <path pointer-events="none" fill="none" stroke="white" stroke-width="1.5" d="M0,-3.0v7 M-2.5,-0.5L0,-3.0L2.5,-0.5"/>
  </g>
  <g id="arrowDown" transform="rotate(180) translate(-30 -48)">
    <use xlink:href="#rim"/>
    <path pointer-events="none" fill="none" stroke="white" stroke-width="1.5" d="M0,-3.0v7 M-2.5,-0.5L0,-3.0L2.5,-0.5"/>
  </g>
  <g id="arrowLeft" transform="rotate(270) translate(-36 17)">
    <use xlink:href="#rim"/>
    <path pointer-events="none" fill="none" stroke="white" stroke-width="1.5" d="M0,-3.0v7 M-2.5,-0.5L0,-3.0L2.5,-0.5"/>
  </g>
  <g id="resetDef">
    <use xlink:href="#rim2" fill="#404040"><set attributeName="fill" to="#808080" begin="reset.mouseover" end="reset.mouseout"/></use>
  </g>
</defs>
<script type="application/ecmascript">
var viewWidth = 915;
var viewHeight = 264;
var sectionId = 'dynsection-0';
</script>
<script type="application/ecmascript" xlink:href="svg.min.js"/>
<svg id="graph" class="graph">
<g id="viewport">
<title>lib/location/gps_collector.cpp</title>
<!-- Node1 -->
<g id="Node000001" class="node">
<title>Node1</title>
<g id="a_Node000001"><a xlink:title=" ">
<polygon fill="#999999" stroke="#666666" points="627.5,-256 485.5,-256 485.5,-236 627.5,-236 627.5,-256"/>
<text text-anchor="middle" x="556.5" y="-242.5" font-family="Helvetica,sans-Serif" font-size="10.00">lib/location/gps_collector.cpp</text>
</a>
</g>
</g>
<!-- Node2 -->
<g id="Node000002" class="node">
<title>Node2</title>
<g id="a_Node000002"><a xlink:href="gps__collector_8h.html" target="_top" xlink:title=" ">
<polygon fill="white" stroke="#666666" points="327.25,-200 195.75,-200 195.75,-180 327.25,-180 327.25,-200"/>
<text text-anchor="middle" x="261.5" y="-186.5" font-family="Helvetica,sans-Serif" font-size="10.00">lib/location/gps_collector.h</text>
</a>
</g>
</g>
<!-- Node1&#45;&gt;Node2 -->
<g id="edge1_Node000001_Node000002" class="edge">
<title>Node1&#45;&gt;Node2</title>
<g id="a_edge1_Node000001_Node000002"><a xlink:title=" ">
<path fill="none" stroke="#63b8ff" d="M504.78,-235.53C454.49,-226.33 378.02,-212.33 324.27,-202.49"/>
<polygon fill="#63b8ff" stroke="#63b8ff" points="325.12,-199.09 314.65,-200.73 323.86,-205.97 325.12,-199.09"/>
</a>
</g>
</g>
<!-- Node5 -->
<g id="Node000005" class="node">
<title>Node5</title>
<g id="a_Node000005"><a xlink:href="_n_m_e_a__data_8h.html" target="_top" xlink:title=" ">
<polygon fill="white" stroke="#666666" points="163.38,-144 41.62,-144 41.62,-112 163.38,-112 163.38,-144"/>
<text text-anchor="start" x="49.62" y="-130.5" font-family="Helvetica,sans-Serif" font-size="10.00">lib/location/NMEA/nmea</text>
<text text-anchor="middle" x="102.5" y="-118.5" font-family="Helvetica,sans-Serif" font-size="10.00">_data.h</text>
</a>
</g>
</g>
<!-- Node1&#45;&gt;Node5 -->
<g id="edge17_Node000001_Node000005" class="edge">
<title>Node1&#45;&gt;Node5</title>
<g id="a_edge17_Node000001_Node000005"><a xlink:title=" ">
<path fill="none" stroke="#63b8ff" d="M485.19,-241.18C393.12,-235.43 238.55,-222.71 186.5,-200 161.76,-189.21 138.73,-168.68 123.06,-152.47"/>
<polygon fill="#63b8ff" stroke="#63b8ff" points="125.99,-150.48 116.61,-145.56 120.88,-155.26 125.99,-150.48"/>
</a>
</g>
</g>
<!-- Node6 -->
<g id="Node000006" class="node">
<title>Node6</title>
<g id="a_Node000006"><a xlink:title=" ">
<polygon fill="#e0e0e0" stroke="#999999" points="43,-76 0,-76 0,-56 43,-56 43,-76"/>
<text text-anchor="middle" x="21.5" y="-62.5" font-family="Helvetica,sans-Serif" font-size="10.00">vector</text>
</a>
</g>
</g>
<!-- Node1&#45;&gt;Node6 -->
<g id="edge31_Node000001_Node000006" class="edge">
<title>Node1&#45;&gt;Node6</title>
<g id="a_edge31_Node000001_Node000006"><a xlink:title=" ">
<path fill="none" stroke="#63b8ff" d="M485.28,-244.12C403.32,-241.5 265.37,-232.16 151.5,-200 95.25,-184.11 67.24,-191.01 32.5,-144 20.54,-127.82 18.78,-104.38 19.39,-87.62"/>
<polygon fill="#63b8ff" stroke="#63b8ff" points="22.87,-88.07 20.09,-77.85 15.89,-87.58 22.87,-88.07"/>
</a>
</g>
</g>
<!-- Node10 -->
<g id="Node000010" class="node">
<title>Node10</title>
<g id="a_Node000010"><a xlink:href="utils_8h.html" target="_top" xlink:title=" ">
<polygon fill="white" stroke="#666666" points="446.62,-200 404.38,-200 404.38,-180 446.62,-180 446.62,-200"/>
<text text-anchor="middle" x="425.5" y="-186.5" font-family="Helvetica,sans-Serif" font-size="10.00">utils.h</text>
</a>
</g>
</g>
<!-- Node1&#45;&gt;Node10 -->
<g id="edge10_Node000001_Node000010" class="edge">
<title>Node1&#45;&gt;Node10</title>
<g id="a_edge10_Node000001_Node000010"><a xlink:title=" ">
<path fill="none" stroke="#63b8ff" d="M533.68,-235.59C512.54,-226.88 480.91,-213.84 457.3,-204.11"/>
<polygon fill="#63b8ff" stroke="#63b8ff" points="458.74,-200.91 448.16,-200.34 456.07,-207.39 458.74,-200.91"/>
</a>
</g>
</g>
<!-- Node13 -->
<g id="Node000013" class="node">
<title>Node13</title>
<g id="a_Node000013"><a xlink:title=" ">
<polygon fill="#e0e0e0" stroke="#999999" points="685.5,-200 621.5,-200 621.5,-180 685.5,-180 685.5,-200"/>
<text text-anchor="middle" x="653.5" y="-186.5" font-family="Helvetica,sans-Serif" font-size="10.00">pico/time.h</text>
</a>
</g>
</g>
<!-- Node1&#45;&gt;Node13 -->
<g id="edge16_Node000001_Node000013" class="edge">
<title>Node1&#45;&gt;Node13</title>
<g id="a_edge16_Node000001_Node000013"><a xlink:title=" ">
<path fill="none" stroke="#63b8ff" d="M573.4,-235.59C588.05,-227.44 609.52,-215.48 626.55,-206"/>
<polygon fill="#63b8ff" stroke="#63b8ff" points="628.11,-209.14 635.15,-201.22 624.71,-203.02 628.11,-209.14"/>
</a>
</g>
</g>
<!-- Node14 -->
<g id="Node000014" class="node">
<title>Node14</title>
<g id="a_Node000014"><a xlink:href="event__manager_8h.html" target="_top" xlink:title=" ">
<polygon fill="white" stroke="#666666" points="565,-200 474,-200 474,-180 565,-180 565,-200"/>
<text text-anchor="middle" x="519.5" y="-186.5" font-family="Helvetica,sans-Serif" font-size="10.00">event_manager.h</text>
</a>
</g>
</g>
<!-- Node1&#45;&gt;Node14 -->
<g id="edge18_Node000001_Node000014" class="edge">
<title>Node1&#45;&gt;Node14</title>
<g id="a_edge18_Node000001_Node000014"><a xlink:title=" ">
<path fill="none" stroke="#63b8ff" d="M550.06,-235.59C545.17,-228.47 538.31,-218.45 532.32,-209.72"/>
<polygon fill="#63b8ff" stroke="#63b8ff" points="535.27,-207.82 526.73,-201.55 529.49,-211.77 535.27,-207.82"/>
</a>
</g>
</g>
<!-- Node22 -->
<g id="Node000022" class="node">
<title>Node22</title>
<g id="a_Node000022"><a xlink:title=" ">
<polygon fill="#e0e0e0" stroke="#999999" points="743.5,-200 703.5,-200 703.5,-180 743.5,-180 743.5,-200"/>
<text text-anchor="middle" x="723.5" y="-186.5" font-family="Helvetica,sans-Serif" font-size="10.00">ctime</text>
</a>
</g>
</g>
<!-- Node1&#45;&gt;Node22 -->
<g id="edge32_Node000001_Node000022" class="edge">
<title>Node1&#45;&gt;Node22</title>
<g id="a_edge32_Node000001_Node000022"><a xlink:title=" ">
<path fill="none" stroke="#63b8ff" d="M585.59,-235.59C615.42,-225.95 661.66,-211 692.26,-201.1"/>
<polygon fill="#63b8ff" stroke="#63b8ff" points="693.27,-204.45 701.71,-198.05 691.12,-197.79 693.27,-204.45"/>
</a>
</g>
</g>
<!-- Node23 -->
<g id="Node000023" class="node">
<title>Node23</title>
<g id="a_Node000023"><a xlink:title=" ">
<polygon fill="#e0e0e0" stroke="#999999" points="807.12,-200 761.88,-200 761.88,-180 807.12,-180 807.12,-200"/>
<text text-anchor="middle" x="784.5" y="-186.5" font-family="Helvetica,sans-Serif" font-size="10.00">cstring</text>
</a>
</g>
</g>
<!-- Node1&#45;&gt;Node23 -->
<g id="edge33_Node000001_Node000023" class="edge">
<title>Node1&#45;&gt;Node23</title>
<g id="a_edge33_Node000001_Node000023"><a xlink:title=" ">
<path fill="none" stroke="#63b8ff" d="M600.63,-235.51C638.04,-227.32 693.37,-214.88 750.42,-200.44"/>
<polygon fill="#63b8ff" stroke="#63b8ff" points="751.17,-203.86 760,-198 749.44,-197.08 751.17,-203.86"/>
</a>
</g>
</g>
<!-- Node24 -->
<g id="Node000024" class="node">
<title>Node24</title>
<g id="a_Node000024"><a xlink:href="_d_s3231_8h.html" target="_top" xlink:title=" ">
<polygon fill="white" stroke="#666666" points="907.25,-138 847.75,-138 847.75,-118 907.25,-118 907.25,-138"/>
<text text-anchor="middle" x="877.5" y="-124.5" font-family="Helvetica,sans-Serif" font-size="10.00">DS3231.h</text>
</a>
</g>
</g>
<!-- Node1&#45;&gt;Node24 -->
<g id="edge34_Node000001_Node000024" class="edge">
<title>Node1&#45;&gt;Node24</title>
<g id="a_edge34_Node000001_Node000024"><a xlink:title=" ">
<path fill="none" stroke="#63b8ff" d="M561.62,-235.64C570.11,-221.09 588.56,-193.35 612.5,-180 701.33,-130.45 740.28,-170.4 838.5,-144 840.6,-143.44 842.75,-142.8 844.9,-142.11"/>
<polygon fill="#63b8ff" stroke="#63b8ff" points="845.79,-145.5 854.06,-138.89 843.47,-138.9 845.79,-145.5"/>
</a>
</g>
</g>
<!-- Node26 -->
<g id="Node000026" class="node">
<title>Node26</title>
<g id="a_Node000026"><a xlink:title=" ">
<polygon fill="#e0e0e0" stroke="#999999" points="876.12,-200 824.88,-200 824.88,-180 876.12,-180 876.12,-200"/>
<text text-anchor="middle" x="850.5" y="-186.5" font-family="Helvetica,sans-Serif" font-size="10.00">sstream</text>
</a>
</g>
</g>
<!-- Node1&#45;&gt;Node26 -->
<g id="edge39_Node000001_Node000026" class="edge">
<title>Node1&#45;&gt;Node26</title>
<g id="a_edge39_Node000001_Node000026"><a xlink:title=" ">
<path fill="none" stroke="#63b8ff" d="M620.38,-235.54C670.62,-227.74 742.59,-215.76 813.64,-200.49"/>
<polygon fill="#63b8ff" stroke="#63b8ff" points="814.06,-203.98 823.09,-198.44 812.57,-197.14 814.06,-203.98"/>
</a>
</g>
</g>
<!-- Node3 -->
<g id="Node000003" class="node">
<title>Node3</title>
<g id="a_Node000003"><a xlink:title=" ">
<polygon fill="#e0e0e0" stroke="#999999" points="436.5,-76 396.5,-76 396.5,-56 436.5,-56 436.5,-76"/>
<text text-anchor="middle" x="416.5" y="-62.5" font-family="Helvetica,sans-Serif" font-size="10.00">string</text>
</a>
</g>
</g>
<!-- Node2&#45;&gt;Node3 -->
<g id="edge2_Node000002_Node000003" class="edge">
<title>Node2&#45;&gt;Node3</title>
<g id="a_edge2_Node000002_Node000003"><a xlink:title=" ">
<path fill="none" stroke="#63b8ff" d="M244.77,-179.6C232.76,-171.8 217.49,-159.5 210.5,-144 204.65,-131.04 201.58,-123.08 210.5,-112 232.06,-85.22 332.92,-73.51 385.07,-69.17"/>
<polygon fill="#63b8ff" stroke="#63b8ff" points="385.11,-72.68 394.81,-68.41 384.56,-65.7 385.11,-72.68"/>
</a>
</g>
</g>
<!-- Node4 -->
<g id="Node000004" class="node">
<title>Node4</title>
<g id="a_Node000004"><a xlink:title=" ">
<polygon fill="#e0e0e0" stroke="#999999" points="303.25,-138 219.75,-138 219.75,-118 303.25,-118 303.25,-138"/>
<text text-anchor="middle" x="261.5" y="-124.5" font-family="Helvetica,sans-Serif" font-size="10.00">hardware/uart.h</text>
</a>
</g>
</g>
<!-- Node2&#45;&gt;Node4 -->
<g id="edge3_Node000002_Node000004" class="edge">
<title>Node2&#45;&gt;Node4</title>
<g id="a_edge3_Node000002_Node000004"><a xlink:title=" ">
<path fill="none" stroke="#63b8ff" d="M261.5,-179.62C261.5,-171.56 261.5,-159.65 261.5,-149.41"/>
<polygon fill="#63b8ff" stroke="#63b8ff" points="265,-149.63 261.5,-139.63 258,-149.63 265,-149.63"/>
</a>
</g>
</g>
<!-- Node2&#45;&gt;Node5 -->
<g id="edge4_Node000002_Node000005" class="edge">
<title>Node2&#45;&gt;Node5</title>
<g id="a_edge4_Node000002_Node000005"><a xlink:title=" ">
<path fill="none" stroke="#63b8ff" d="M236.66,-179.62C214.68,-171.33 181.91,-158.96 154.25,-148.53"/>
<polygon fill="#63b8ff" stroke="#63b8ff" points="155.56,-145.28 144.97,-145.02 153.09,-151.83 155.56,-145.28"/>
</a>
</g>
</g>
<!-- Node8 -->
<g id="Node000008" class="node">
<title>Node8</title>
<g id="a_Node000008"><a xlink:href="pin__config_8h.html" target="_top" xlink:title=" ">
<polygon fill="white" stroke="#666666" points="389.75,-138 321.25,-138 321.25,-118 389.75,-118 389.75,-138"/>
<text text-anchor="middle" x="355.5" y="-124.5" font-family="Helvetica,sans-Serif" font-size="10.00">pin_config.h</text>
</a>
</g>
</g>
<!-- Node2&#45;&gt;Node8 -->
<g id="edge8_Node000002_Node000008" class="edge">
<title>Node2&#45;&gt;Node8</title>
<g id="a_edge8_Node000002_Node000008"><a xlink:title=" ">
<path fill="none" stroke="#63b8ff" d="M276.19,-179.62C290.95,-170.2 313.95,-155.52 331.39,-144.39"/>
<polygon fill="#63b8ff" stroke="#63b8ff" points="333.09,-147.45 339.64,-139.12 329.33,-141.55 333.09,-147.45"/>
</a>
</g>
</g>
<!-- Node5&#45;&gt;Node3 -->
<g id="edge6_Node000005_Node000003" class="edge">
<title>Node5&#45;&gt;Node3</title>
<g id="a_edge6_Node000005_Node000003"><a xlink:title=" ">
<path fill="none" stroke="#63b8ff" d="M163.48,-114.74C168.22,-113.81 172.94,-112.89 177.5,-112 251.69,-97.6 338.98,-81.33 384.78,-72.85"/>
<polygon fill="#63b8ff" stroke="#63b8ff" points="385.34,-76.31 394.54,-71.05 384.07,-69.43 385.34,-76.31"/>
</a>
</g>
</g>
<!-- Node5&#45;&gt;Node6 -->
<g id="edge5_Node000005_Node000006" class="edge">
<title>Node5&#45;&gt;Node6</title>
<g id="a_edge5_Node000005_Node000006"><a xlink:title=" ">
<path fill="none" stroke="#63b8ff" d="M81.64,-111.55C69.92,-102.87 55.31,-92.04 43.42,-83.24"/>
<polygon fill="#63b8ff" stroke="#63b8ff" points="45.54,-80.45 35.42,-77.31 41.37,-86.07 45.54,-80.45"/>
</a>
</g>
</g>
<!-- Node7 -->
<g id="Node000007" class="node">
<title>Node7</title>
<g id="a_Node000007"><a xlink:title=" ">
<polygon fill="#e0e0e0" stroke="#999999" points="135.62,-76 69.38,-76 69.38,-56 135.62,-56 135.62,-76"/>
<text text-anchor="middle" x="102.5" y="-62.5" font-family="Helvetica,sans-Serif" font-size="10.00">pico/sync.h</text>
</a>
</g>
</g>
<!-- Node5&#45;&gt;Node7 -->
<g id="edge7_Node000005_Node000007" class="edge">
<title>Node5&#45;&gt;Node7</title>
<g id="a_edge7_Node000005_Node000007"><a xlink:title=" ">
<path fill="none" stroke="#63b8ff" d="M102.5,-111.55C102.5,-104.34 102.5,-95.66 102.5,-87.88"/>
<polygon fill="#63b8ff" stroke="#63b8ff" points="106,-87.92 102.5,-77.92 99,-87.92 106,-87.92"/>
</a>
</g>
</g>
<!-- Node9 -->
<g id="Node000009" class="node">
<title>Node9</title>
<g id="a_Node000009"><a xlink:title=" ">
<polygon fill="#e0e0e0" stroke="#999999" points="421.62,-20 373.38,-20 373.38,0 421.62,0 421.62,-20"/>
<text text-anchor="middle" x="397.5" y="-6.5" font-family="Helvetica,sans-Serif" font-size="10.00">stdint.h</text>
</a>
</g>
</g>
<!-- Node8&#45;&gt;Node9 -->
<g id="edge9_Node000008_Node000009" class="edge">
<title>Node8&#45;&gt;Node9</title>
<g id="a_edge9_Node000008_Node000009"><a xlink:title=" ">
<path fill="none" stroke="#63b8ff" d="M358.94,-117.51C365.77,-98.64 381.19,-56.05 390.32,-30.82"/>
<polygon fill="#63b8ff" stroke="#63b8ff" points="393.5,-32.32 393.62,-21.72 386.92,-29.93 393.5,-32.32"/>
</a>
</g>
</g>
<!-- Node10&#45;&gt;Node3 -->
<g id="edge12_Node000010_Node000003" class="edge">
<title>Node10&#45;&gt;Node3</title>
<g id="a_edge12_Node000010_Node000003"><a xlink:title=" ">
<path fill="none" stroke="#63b8ff" d="M424.82,-179.83C423.38,-160.31 419.99,-114.25 418.01,-87.4"/>
<polygon fill="#63b8ff" stroke="#63b8ff" points="421.52,-87.5 417.3,-77.79 414.54,-88.02 421.52,-87.5"/>
</a>
</g>
</g>
<!-- Node10&#45;&gt;Node4 -->
<g id="edge14_Node000010_Node000004" class="edge">
<title>Node10&#45;&gt;Node4</title>
<g id="a_edge14_Node000010_Node000004"><a xlink:title=" ">
<path fill="none" stroke="#63b8ff" d="M404.06,-181.16C377.07,-171.28 330.3,-154.17 297.72,-142.25"/>
<polygon fill="#63b8ff" stroke="#63b8ff" points="299.28,-139.1 288.69,-138.95 296.88,-145.67 299.28,-139.1"/>
</a>
</g>
</g>
<!-- Node10&#45;&gt;Node8 -->
<g id="edge15_Node000010_Node000008" class="edge">
<title>Node10&#45;&gt;Node8</title>
<g id="a_edge15_Node000010_Node000008"><a xlink:title=" ">
<path fill="none" stroke="#63b8ff" d="M414.56,-179.62C403.92,-170.5 387.52,-156.45 374.7,-145.46"/>
<polygon fill="#63b8ff" stroke="#63b8ff" points="377.15,-142.95 367.28,-139.1 372.6,-148.26 377.15,-142.95"/>
</a>
</g>
</g>
<!-- Node11 -->
<g id="Node000011" class="node">
<title>Node11</title>
<g id="a_Node000011"><a xlink:title=" ">
<polygon fill="#e0e0e0" stroke="#999999" points="491.12,-138 445.88,-138 445.88,-118 491.12,-118 491.12,-138"/>
<text text-anchor="middle" x="468.5" y="-124.5" font-family="Helvetica,sans-Serif" font-size="10.00">stdio.h</text>
</a>
</g>
</g>
<!-- Node10&#45;&gt;Node11 -->
<g id="edge11_Node000010_Node000011" class="edge">
<title>Node10&#45;&gt;Node11</title>
<g id="a_edge11_Node000010_Node000011"><a xlink:title=" ">
<path fill="none" stroke="#63b8ff" d="M432.22,-179.62C438.38,-171.03 447.67,-158.07 455.31,-147.41"/>
<polygon fill="#63b8ff" stroke="#63b8ff" points="458.11,-149.51 461.09,-139.34 452.42,-145.43 458.11,-149.51"/>
</a>
</g>
</g>
<!-- Node12 -->
<g id="Node000012" class="node">
<title>Node12</title>
<g id="a_Node000012"><a xlink:title=" ">
<polygon fill="#e0e0e0" stroke="#999999" points="734.75,-76 666.25,-76 666.25,-56 734.75,-56 734.75,-76"/>
<text text-anchor="middle" x="700.5" y="-62.5" font-family="Helvetica,sans-Serif" font-size="10.00">pico/stdlib.h</text>
</a>
</g>
</g>
<!-- Node10&#45;&gt;Node12 -->
<g id="edge13_Node000010_Node000012" class="edge">
<title>Node10&#45;&gt;Node12</title>
<g id="a_edge13_Node000010_Node000012"><a xlink:title=" ">
<path fill="none" stroke="#63b8ff" d="M447.07,-184.04C453.03,-182.7 459.51,-181.27 465.5,-180 545.74,-163 577.79,-188.8 646.5,-144 667.82,-130.1 683.19,-104.58 691.96,-86.75"/>
<polygon fill="#63b8ff" stroke="#63b8ff" points="695.12,-88.26 696.13,-77.71 688.76,-85.33 695.12,-88.26"/>
</a>
</g>
</g>
<!-- Node14&#45;&gt;Node3 -->
<g id="edge29_Node000014_Node000003" class="edge">
<title>Node14&#45;&gt;Node3</title>
<g id="a_edge29_Node000014_Node000003"><a xlink:title=" ">
<path fill="none" stroke="#63b8ff" d="M519.55,-179.67C519.15,-164.05 516.3,-132.33 500.5,-112 493.28,-102.71 468.16,-89.85 447.26,-80.26"/>
<polygon fill="#63b8ff" stroke="#63b8ff" points="448.76,-77.1 438.21,-76.2 445.9,-83.49 448.76,-77.1"/>
</a>
</g>
</g>
<!-- Node15 -->
<g id="Node000015" class="node">
<title>Node15</title>
<g id="a_Node000015"><a xlink:href="_power_manager_8h.html" target="_top" xlink:title=" ">
<polygon fill="white" stroke="#666666" points="637.25,-138 547.75,-138 547.75,-118 637.25,-118 637.25,-138"/>
<text text-anchor="middle" x="592.5" y="-124.5" font-family="Helvetica,sans-Serif" font-size="10.00">PowerManager.h</text>
</a>
</g>
</g>
<!-- Node14&#45;&gt;Node15 -->
<g id="edge19_Node000014_Node000015" class="edge">
<title>Node14&#45;&gt;Node15</title>
<g id="a_edge19_Node000014_Node000015"><a xlink:title=" ">
<path fill="none" stroke="#63b8ff" d="M530.91,-179.62C542.11,-170.41 559.44,-156.17 572.87,-145.14"/>
<polygon fill="#63b8ff" stroke="#63b8ff" points="574.74,-148.13 580.24,-139.07 570.3,-142.72 574.74,-148.13"/>
</a>
</g>
</g>
<!-- Node20 -->
<g id="Node000020" class="node">
<title>Node20</title>
<g id="a_Node000020"><a xlink:title=" ">
<polygon fill="#e0e0e0" stroke="#999999" points="739.12,-138 693.88,-138 693.88,-118 739.12,-118 739.12,-138"/>
<text text-anchor="middle" x="716.5" y="-124.5" font-family="Helvetica,sans-Serif" font-size="10.00">cstdint</text>
</a>
</g>
</g>
<!-- Node14&#45;&gt;Node20 -->
<g id="edge28_Node000014_Node000020" class="edge">
<title>Node14&#45;&gt;Node20</title>
<g id="a_edge28_Node000014_Node000020"><a xlink:title=" ">
<path fill="none" stroke="#63b8ff" d="M557.69,-179.53C590.34,-171.14 638.41,-158.06 679.5,-144 680.86,-143.53 682.25,-143.04 683.65,-142.54"/>
<polygon fill="#63b8ff" stroke="#63b8ff" points="684.84,-145.83 692.93,-138.99 682.34,-139.29 684.84,-145.83"/>
</a>
</g>
</g>
<!-- Node21 -->
<g id="Node000021" class="node">
<title>Node21</title>
<g id="a_Node000021"><a xlink:title=" ">
<polygon fill="#e0e0e0" stroke="#999999" points="829.62,-138 757.38,-138 757.38,-118 829.62,-118 829.62,-138"/>
<text text-anchor="middle" x="793.5" y="-124.5" font-family="Helvetica,sans-Serif" font-size="10.00">pico/mutex.h</text>
</a>
</g>
</g>
<!-- Node14&#45;&gt;Node21 -->
<g id="edge30_Node000014_Node000021" class="edge">
<title>Node14&#45;&gt;Node21</title>
<g id="a_edge30_Node000014_Node000021"><a xlink:title=" ">
<path fill="none" stroke="#63b8ff" d="M565.08,-181.81C611.57,-174.06 685.62,-160.59 748.5,-144 751.05,-143.33 753.67,-142.59 756.3,-141.81"/>
<polygon fill="#63b8ff" stroke="#63b8ff" points="757.08,-145.23 765.57,-138.9 754.99,-138.55 757.08,-145.23"/>
</a>
</g>
</g>
<!-- Node15&#45;&gt;Node3 -->
<g id="edge25_Node000015_Node000003" class="edge">
<title>Node15&#45;&gt;Node3</title>
<g id="a_edge25_Node000015_Node000003"><a xlink:title=" ">
<path fill="none" stroke="#63b8ff" d="M565,-117.62C533.12,-106.76 480.72,-88.89 447.44,-77.55"/>
<polygon fill="#63b8ff" stroke="#63b8ff" points="448.97,-74.37 438.38,-74.46 446.72,-81 448.97,-74.37"/>
</a>
</g>
</g>
<!-- Node15&#45;&gt;Node12 -->
<g id="edge27_Node000015_Node000012" class="edge">
<title>Node15&#45;&gt;Node12</title>
<g id="a_edge27_Node000015_Node000012"><a xlink:title=" ">
<path fill="none" stroke="#63b8ff" d="M609.38,-117.62C626.65,-108.03 653.76,-92.97 673.92,-81.77"/>
<polygon fill="#63b8ff" stroke="#63b8ff" points="675.38,-84.96 682.42,-77.04 671.98,-78.84 675.38,-84.96"/>
</a>
</g>
</g>
<!-- Node16 -->
<g id="Node000016" class="node">
<title>Node16</title>
<g id="a_Node000016"><a xlink:href="_i_n_a3221_8h.html" target="_top" xlink:title=" ">
<polygon fill="white" stroke="#666666" points="558.38,-76 454.62,-76 454.62,-56 558.38,-56 558.38,-76"/>
<text text-anchor="middle" x="506.5" y="-62.5" font-family="Helvetica,sans-Serif" font-size="10.00">INA3221/INA3221.h</text>
</a>
</g>
</g>
<!-- Node15&#45;&gt;Node16 -->
<g id="edge20_Node000015_Node000016" class="edge">
<title>Node15&#45;&gt;Node16</title>
<g id="a_edge20_Node000015_Node000016"><a xlink:title=" ">
<path fill="none" stroke="#63b8ff" d="M579.06,-117.62C565.68,-108.29 544.9,-93.79 529,-82.7"/>
<polygon fill="#63b8ff" stroke="#63b8ff" points="531.29,-80.03 521.08,-77.18 527.28,-85.77 531.29,-80.03"/>
</a>
</g>
</g>
<!-- Node18 -->
<g id="Node000018" class="node">
<title>Node18</title>
<g id="a_Node000018"><a xlink:title=" ">
<polygon fill="#e0e0e0" stroke="#999999" points="678.38,-20 598.62,-20 598.62,0 678.38,0 678.38,-20"/>
<text text-anchor="middle" x="638.5" y="-6.5" font-family="Helvetica,sans-Serif" font-size="10.00">hardware/i2c.h</text>
</a>
</g>
</g>
<!-- Node15&#45;&gt;Node18 -->
<g id="edge26_Node000015_Node000018" class="edge">
<title>Node15&#45;&gt;Node18</title>
<g id="a_edge26_Node000015_Node000018"><a xlink:title=" ">
<path fill="none" stroke="#63b8ff" d="M598.28,-117.5C604.2,-107.47 613.4,-91.04 619.5,-76 625.4,-61.47 630.31,-44.44 633.66,-31.45"/>
<polygon fill="#63b8ff" stroke="#63b8ff" points="637.01,-32.48 636.01,-21.93 630.21,-30.8 637.01,-32.48"/>
</a>
</g>
</g>
<!-- Node19 -->
<g id="Node000019" class="node">
<title>Node19</title>
<g id="a_Node000019"><a xlink:title=" ">
<polygon fill="#e0e0e0" stroke="#999999" points="610.88,-76 576.12,-76 576.12,-56 610.88,-56 610.88,-76"/>
<text text-anchor="middle" x="593.5" y="-62.5" font-family="Helvetica,sans-Serif" font-size="10.00">map</text>
</a>
</g>
</g>
<!-- Node15&#45;&gt;Node19 -->
<g id="edge24_Node000015_Node000019" class="edge">
<title>Node15&#45;&gt;Node19</title>
<g id="a_edge24_Node000015_Node000019"><a xlink:title=" ">
<path fill="none" stroke="#63b8ff" d="M592.66,-117.62C592.79,-109.56 592.99,-97.65 593.16,-87.41"/>
<polygon fill="#63b8ff" stroke="#63b8ff" points="596.66,-87.68 593.32,-77.63 589.66,-87.57 596.66,-87.68"/>
</a>
</g>
</g>
<!-- Node16&#45;&gt;Node9 -->
<g id="edge21_Node000016_Node000009" class="edge">
<title>Node16&#45;&gt;Node9</title>
<g id="a_edge21_Node000016_Node000009"><a xlink:title=" ">
<path fill="none" stroke="#63b8ff" d="M487.51,-55.59C470.74,-47.28 446.01,-35.03 426.71,-25.47"/>
<polygon fill="#63b8ff" stroke="#63b8ff" points="428.51,-22.45 417.99,-21.15 425.4,-28.73 428.51,-22.45"/>
</a>
</g>
</g>
<!-- Node17 -->
<g id="Node000017" class="node">
<title>Node17</title>
<g id="a_Node000017"><a xlink:title=" ">
<polygon fill="#e0e0e0" stroke="#999999" points="533.25,-20 479.75,-20 479.75,0 533.25,0 533.25,-20"/>
<text text-anchor="middle" x="506.5" y="-6.5" font-family="Helvetica,sans-Serif" font-size="10.00">iostream</text>
</a>
</g>
</g>
<!-- Node16&#45;&gt;Node17 -->
<g id="edge22_Node000016_Node000017" class="edge">
<title>Node16&#45;&gt;Node17</title>
<g id="a_edge22_Node000016_Node000017"><a xlink:title=" ">
<path fill="none" stroke="#63b8ff" d="M506.5,-55.59C506.5,-49.01 506.5,-39.96 506.5,-31.73"/>
<polygon fill="#63b8ff" stroke="#63b8ff" points="510,-31.81 506.5,-21.81 503,-31.81 510,-31.81"/>
</a>
</g>
</g>
<!-- Node16&#45;&gt;Node18 -->
<g id="edge23_Node000016_Node000018" class="edge">
<title>Node16&#45;&gt;Node18</title>
<g id="a_edge23_Node000016_Node000018"><a xlink:title=" ">
<path fill="none" stroke="#63b8ff" d="M529.49,-55.59C550.28,-47.09 581.15,-34.46 604.74,-24.81"/>
<polygon fill="#63b8ff" stroke="#63b8ff" points="606,-28.08 613.93,-21.05 603.35,-21.6 606,-28.08"/>
</a>
</g>
</g>
<!-- Node24&#45;&gt;Node3 -->
<g id="edge35_Node000024_Node000003" class="edge">
<title>Node24&#45;&gt;Node3</title>
<g id="a_edge35_Node000024_Node000003"><a xlink:title=" ">
<path fill="none" stroke="#63b8ff" d="M855.97,-117.5C850.38,-115.38 844.29,-113.35 838.5,-112 671.28,-72.98 619.69,-108.62 448.16,-76.12"/>
<polygon fill="#63b8ff" stroke="#63b8ff" points="448.93,-72.7 438.44,-74.22 447.59,-79.57 448.93,-72.7"/>
</a>
</g>
</g>
<!-- Node24&#45;&gt;Node12 -->
<g id="edge37_Node000024_Node000012" class="edge">
<title>Node24&#45;&gt;Node12</title>
<g id="a_edge37_Node000024_Node000012"><a xlink:title=" ">
<path fill="none" stroke="#63b8ff" d="M853.65,-117.6C848.66,-115.7 843.42,-113.75 838.5,-112 806.25,-100.55 769.39,-88.59 741.88,-79.87"/>
<polygon fill="#63b8ff" stroke="#63b8ff" points="743.11,-76.59 732.52,-76.92 741,-83.27 743.11,-76.59"/>
</a>
</g>
</g>
<!-- Node24&#45;&gt;Node18 -->
<g id="edge38_Node000024_Node000018" class="edge">
<title>Node24&#45;&gt;Node18</title>
<g id="a_edge38_Node000024_Node000018"><a xlink:title=" ">
<path fill="none" stroke="#63b8ff" d="M860.8,-117.58C835.68,-103.54 786.49,-76.56 743.5,-56 720.14,-44.83 693.31,-33.35 672.61,-24.78"/>
<polygon fill="#63b8ff" stroke="#63b8ff" points="674.08,-21.6 663.5,-21.04 671.42,-28.08 674.08,-21.6"/>
</a>
</g>
</g>
<!-- Node25 -->
<g id="Node000025" class="node">
<title>Node25</title>
<g id="a_Node000025"><a xlink:title=" ">
<polygon fill="#e0e0e0" stroke="#999999" points="896.38,-76 858.62,-76 858.62,-56 896.38,-56 896.38,-76"/>
<text text-anchor="middle" x="877.5" y="-62.5" font-family="Helvetica,sans-Serif" font-size="10.00">array</text>
</a>
</g>
</g>
<!-- Node24&#45;&gt;Node25 -->
<g id="edge36_Node000024_Node000025" class="edge">
<title>Node24&#45;&gt;Node25</title>
<g id="a_edge36_Node000024_Node000025"><a xlink:title=" ">
<path fill="none" stroke="#63b8ff" d="M877.5,-117.62C877.5,-109.56 877.5,-97.65 877.5,-87.41"/>
<polygon fill="#63b8ff" stroke="#63b8ff" points="881,-87.63 877.5,-77.63 874,-87.63 881,-87.63"/>
</a>
</g>
</g>
</g>
</svg>

<g id="navigator" transform="translate(0 0)" fill="#404254">
  <rect fill="#f2f5e9" fill-opacity="0.5" stroke="#606060" stroke-width=".5" x="0" y="0" width="60" height="60"/>
  <use id="zoomplus" xlink:href="#zoomPlus" x="17" y="9" onmousedown="handleZoom(evt,'in')"/>
  <use id="zoomminus" xlink:href="#zoomMin" x="42" y="9" onmousedown="handleZoom(evt,'out')"/>
  <use id="reset" xlink:href="#resetDef" x="30" y="36" onmousedown="handleReset()"/>
   <use id="arrowup" xlink:href="#arrowUp" x="0" y="0" onmousedown="handlePan(0,-1)"/>
  <use id="arrowright" xlink:href="#arrowRight" x="0" y="0" onmousedown="handlePan(1,0)"/>
  <use id="arrowdown" xlink:href="#arrowDown" x="0" y="0" onmousedown="handlePan(0,1)"/>
  <use id="arrowleft" xlink:href="#arrowLeft" x="0" y="0" onmousedown="handlePan(-1,0)"/>
</g>
<svg viewBox="0 0 15 15" width="100%" height="30px" preserveAspectRatio="xMaxYMin meet">
 <g id="arrow_out" transform="scale(0.3 0.3)">
  <a xlink:href="gps__collector_8cpp__incl_org.svg" target="_base">
   <rect id="button" ry="5" rx="5" y="6" x="6" height="38" width="38"
        fill="#f2f5e9" fill-opacity="0.5" stroke="#606060" stroke-width="1.0"/>
   <path id="arrow"
     d="M 11.500037,31.436501 C 11.940474,20.09759 22.043105,11.32322 32.158766,21.979434 L 37.068811,17.246167 C 37.068811,17.246167 37.088388,32 37.088388,32 L 22.160133,31.978069 C 22.160133,31.978069 26.997745,27.140456 26.997745,27.140456 C 18.528582,18.264221 13.291696,25.230495 11.500037,31.436501 z"
     style="fill:#404040;"/>
  </a>
 </g>
</svg>

<style type='text/css'>
<![CDATA[
[data-mouse-over-selected='false'] { opacity: 0.7; }
[data-mouse-over-selected='true']  { opacity: 1.0; }
]]>
</style>
<script type="application/ecmascript"><![CDATA[
document.addEventListener('DOMContentLoaded', (event) => {
  highlightEdges();
  highlightAdjacentNodes();
});
]]></script>
</svg>
