<?xml version="1.0" encoding="UTF-8" standalone="no"?>
<!DOCTYPE svg PUBLIC "-//W3C//DTD SVG 1.1//EN"
 "http://www.w3.org/Graphics/SVG/1.1/DTD/svg11.dtd">
<!-- Generated by graphviz version 12.2.1 (20241206.2353)
 -->
<!-- Title: lib/comms/commands/gps_commands.cpp Pages: 1 -->
<!--zoomable 332 -->

<svg id="main" version="1.1" xmlns="http://www.w3.org/2000/svg" xmlns:xlink="http://www.w3.org/1999/xlink" xml:space="preserve" onload="init(evt)">

<style type="text/css"><![CDATA[
.node, .edge {opacity: 0.7;}
.node.selected, .edge.selected {opacity: 1;}
.edge:hover path { stroke: red; }
.edge:hover polygon { stroke: red; fill: red; }
]]></style>

<defs>
  <circle id="rim" cx="0" cy="0" r="7"/>
  <circle id="rim2" cx="0" cy="0" r="3.5"/>
  <g id="zoomPlus">
    <use xlink:href="#rim" fill="#404040"><set attributeName="fill" to="#808080" begin="zoomplus.mouseover" end="zoomplus.mouseout"/></use>
    <path d="M-4,0h8M0,-4v8" fill="none" stroke="white" stroke-width="1.5" pointer-events="none"/>
  </g>
  <g id="zoomMin">
    <use xlink:href="#rim" fill="#404040"><set attributeName="fill" to="#808080" begin="zoomminus.mouseover" end="zoomminus.mouseout"/></use>
    <path d="M-4,0h8" fill="none" stroke="white" stroke-width="1.5" pointer-events="none"/>
  </g>
  <g id="arrowUp" transform="translate(30 24)">
    <use xlink:href="#rim"/>
    <path pointer-events="none" fill="none" stroke="white" stroke-width="1.5" d="M0,-3.0v7 M-2.5,-0.5L0,-3.0L2.5,-0.5"/>
  </g>
  <g id="arrowRight" transform="rotate(90) translate(36 -43)">
    <use xlink:href="#rim"/>
    <path pointer-events="none" fill="none" stroke="white" stroke-width="1.5" d="M0,-3.0v7 M-2.5,-0.5L0,-3.0L2.5,-0.5"/>
  </g>
  <g id="arrowDown" transform="rotate(180) translate(-30 -48)">
    <use xlink:href="#rim"/>
    <path pointer-events="none" fill="none" stroke="white" stroke-width="1.5" d="M0,-3.0v7 M-2.5,-0.5L0,-3.0L2.5,-0.5"/>
  </g>
  <g id="arrowLeft" transform="rotate(270) translate(-36 17)">
    <use xlink:href="#rim"/>
    <path pointer-events="none" fill="none" stroke="white" stroke-width="1.5" d="M0,-3.0v7 M-2.5,-0.5L0,-3.0L2.5,-0.5"/>
  </g>
  <g id="resetDef">
    <use xlink:href="#rim2" fill="#404040"><set attributeName="fill" to="#808080" begin="reset.mouseover" end="reset.mouseout"/></use>
  </g>
</defs>
<script type="application/ecmascript">
var viewWidth = 1477;
var viewHeight = 332;
var sectionId = 'dynsection-0';
</script>
<script type="application/ecmascript" xlink:href="svg.min.js"/>
<svg id="graph" class="graph">
<g id="viewport">
<title>lib/comms/commands/gps_commands.cpp</title>
<!-- Node1 -->
<g id="Node000001" class="node">
<title>Node1</title>
<g id="a_Node000001"><a xlink:title=" ">
<polygon fill="#999999" stroke="#666666" points="1180.88,-324 1068.88,-324 1068.88,-292 1180.88,-292 1180.88,-324"/>
<text text-anchor="start" x="1076.88" y="-310.5" font-family="Helvetica,sans-Serif" font-size="10.00">lib/comms/commands</text>
<text text-anchor="middle" x="1124.88" y="-298.5" font-family="Helvetica,sans-Serif" font-size="10.00">/gps_commands.cpp</text>
</a>
</g>
</g>
<!-- Node2 -->
<g id="Node000002" class="node">
<title>Node2</title>
<g id="a_Node000002"><a xlink:href="communication_8h.html" target="_top" xlink:title=" ">
<polygon fill="white" stroke="#666666" points="874,-256 783.75,-256 783.75,-236 874,-236 874,-256"/>
<text text-anchor="middle" x="828.88" y="-242.5" font-family="Helvetica,sans-Serif" font-size="10.00">communication.h</text>
</a>
</g>
</g>
<!-- Node1&#45;&gt;Node2 -->
<g id="edge1_Node000001_Node000002" class="edge">
<title>Node1&#45;&gt;Node2</title>
<g id="a_edge1_Node000001_Node000002"><a xlink:title=" ">
<path fill="none" stroke="#63b8ff" d="M1068.5,-295.57C1016,-284.93 938.12,-269.14 885.52,-258.48"/>
<polygon fill="#63b8ff" stroke="#63b8ff" points="886.35,-255.08 875.86,-256.52 884.96,-261.94 886.35,-255.08"/>
</a>
</g>
</g>
<!-- Node34 -->
<g id="Node000034" class="node">
<title>Node34</title>
<g id="a_Node000034"><a xlink:href="gps__collector_8h.html" target="_top" xlink:title=" ">
<polygon fill="white" stroke="#666666" points="1414.62,-144 1283.12,-144 1283.12,-124 1414.62,-124 1414.62,-144"/>
<text text-anchor="middle" x="1348.88" y="-130.5" font-family="Helvetica,sans-Serif" font-size="10.00">lib/location/gps_collector.h</text>
</a>
</g>
</g>
<!-- Node1&#45;&gt;Node34 -->
<g id="edge49_Node000001_Node000034" class="edge">
<title>Node1&#45;&gt;Node34</title>
<g id="a_edge49_Node000001_Node000034"><a xlink:title=" ">
<path fill="none" stroke="#63b8ff" d="M1125.37,-291.77C1126.64,-276.17 1130.76,-251.98 1143.88,-236 1182.91,-188.44 1249.87,-161.44 1296.61,-147.54"/>
<polygon fill="#63b8ff" stroke="#63b8ff" points="1297.32,-150.98 1305.98,-144.86 1295.4,-144.25 1297.32,-150.98"/>
</a>
</g>
</g>
<!-- Node37 -->
<g id="Node000037" class="node">
<title>Node37</title>
<g id="a_Node000037"><a xlink:title=" ">
<polygon fill="#e0e0e0" stroke="#999999" points="1204.5,-256 1153.25,-256 1153.25,-236 1204.5,-236 1204.5,-256"/>
<text text-anchor="middle" x="1178.88" y="-242.5" font-family="Helvetica,sans-Serif" font-size="10.00">sstream</text>
</a>
</g>
</g>
<!-- Node1&#45;&gt;Node37 -->
<g id="edge57_Node000001_Node000037" class="edge">
<title>Node1&#45;&gt;Node37</title>
<g id="a_edge57_Node000001_Node000037"><a xlink:title=" ">
<path fill="none" stroke="#63b8ff" d="M1138.78,-291.55C1146.13,-283.39 1155.17,-273.33 1162.82,-264.84"/>
<polygon fill="#63b8ff" stroke="#63b8ff" points="1165.31,-267.31 1169.4,-257.53 1160.1,-262.62 1165.31,-267.31"/>
</a>
</g>
</g>
<!-- Node3 -->
<g id="Node000003" class="node">
<title>Node3</title>
<g id="a_Node000003"><a xlink:title=" ">
<polygon fill="#e0e0e0" stroke="#999999" points="995.88,-20 955.88,-20 955.88,0 995.88,0 995.88,-20"/>
<text text-anchor="middle" x="975.88" y="-6.5" font-family="Helvetica,sans-Serif" font-size="10.00">string</text>
</a>
</g>
</g>
<!-- Node2&#45;&gt;Node3 -->
<g id="edge2_Node000002_Node000003" class="edge">
<title>Node2&#45;&gt;Node3</title>
<g id="a_edge2_Node000002_Node000003"><a xlink:title=" ">
<path fill="none" stroke="#63b8ff" d="M783.25,-244.89C625.4,-243.56 115.49,-231.04 178.88,-124 210.9,-69.92 242.54,-73.62 302.88,-56 425.55,-20.17 828.3,-12.72 944.33,-11.31"/>
<polygon fill="#63b8ff" stroke="#63b8ff" points="944.07,-14.81 954.03,-11.2 943.99,-7.81 944.07,-14.81"/>
</a>
</g>
</g>
<!-- Node4 -->
<g id="Node000004" class="node">
<title>Node4</title>
<g id="a_Node000004"><a xlink:title=" ">
<polygon fill="#e0e0e0" stroke="#999999" points="1464.38,-20 1421.38,-20 1421.38,0 1464.38,0 1464.38,-20"/>
<text text-anchor="middle" x="1442.88" y="-6.5" font-family="Helvetica,sans-Serif" font-size="10.00">vector</text>
</a>
</g>
</g>
<!-- Node2&#45;&gt;Node4 -->
<g id="edge3_Node000002_Node000004" class="edge">
<title>Node2&#45;&gt;Node4</title>
<g id="a_edge3_Node000002_Node000004"><a xlink:title=" ">
<path fill="none" stroke="#63b8ff" d="M874.41,-243.53C1001.94,-238.51 1358.97,-218.01 1444.88,-144 1475.12,-117.94 1471.16,-95.05 1462.88,-56 1461.01,-47.23 1457.33,-38.1 1453.62,-30.38"/>
<polygon fill="#63b8ff" stroke="#63b8ff" points="1456.78,-28.88 1449.07,-21.61 1450.57,-32.1 1456.78,-28.88"/>
</a>
</g>
</g>
<!-- Node5 -->
<g id="Node000005" class="node">
<title>Node5</title>
<g id="a_Node000005"><a xlink:href="protocol_8h.html" target="_top" xlink:title=" ">
<polygon fill="white" stroke="#666666" points="858.25,-200 799.5,-200 799.5,-180 858.25,-180 858.25,-200"/>
<text text-anchor="middle" x="828.88" y="-186.5" font-family="Helvetica,sans-Serif" font-size="10.00">protocol.h</text>
</a>
</g>
</g>
<!-- Node2&#45;&gt;Node5 -->
<g id="edge4_Node000002_Node000005" class="edge">
<title>Node2&#45;&gt;Node5</title>
<g id="a_edge4_Node000002_Node000005"><a xlink:title=" ">
<path fill="none" stroke="#63b8ff" d="M828.88,-235.59C828.88,-229.01 828.88,-219.96 828.88,-211.73"/>
<polygon fill="#63b8ff" stroke="#63b8ff" points="832.38,-211.81 828.88,-201.81 825.38,-211.81 832.38,-211.81"/>
</a>
</g>
</g>
<!-- Node32 -->
<g id="Node000032" class="node">
<title>Node32</title>
<g id="a_Node000032"><a xlink:href="event__manager_8h.html" target="_top" xlink:title=" ">
<polygon fill="white" stroke="#666666" points="406.38,-200 315.38,-200 315.38,-180 406.38,-180 406.38,-200"/>
<text text-anchor="middle" x="360.88" y="-186.5" font-family="Helvetica,sans-Serif" font-size="10.00">event_manager.h</text>
</a>
</g>
</g>
<!-- Node2&#45;&gt;Node32 -->
<g id="edge44_Node000002_Node000032" class="edge">
<title>Node2&#45;&gt;Node32</title>
<g id="a_edge44_Node000002_Node000032"><a xlink:title=" ">
<path fill="none" stroke="#63b8ff" d="M783.58,-239.77C697.8,-229.88 511.88,-208.42 417.82,-197.57"/>
<polygon fill="#63b8ff" stroke="#63b8ff" points="418.38,-194.11 408.05,-196.44 417.58,-201.07 418.38,-194.11"/>
</a>
</g>
</g>
<!-- Node5&#45;&gt;Node3 -->
<g id="edge5_Node000005_Node000003" class="edge">
<title>Node5&#45;&gt;Node3</title>
<g id="a_edge5_Node000005_Node000003"><a xlink:title=" ">
<path fill="none" stroke="#63b8ff" d="M829.11,-179.82C829.95,-166.01 833.49,-139.84 847.88,-124 876.84,-92.11 906.25,-117.25 937.88,-88 954.51,-72.61 964.79,-48.35 970.39,-31.18"/>
<polygon fill="#63b8ff" stroke="#63b8ff" points="973.68,-32.42 973.18,-21.83 966.97,-30.42 973.68,-32.42"/>
</a>
</g>
</g>
<!-- Node5&#45;&gt;Node4 -->
<g id="edge8_Node000005_Node000004" class="edge">
<title>Node5&#45;&gt;Node4</title>
<g id="a_edge8_Node000005_Node000004"><a xlink:title=" ">
<path fill="none" stroke="#63b8ff" d="M858.4,-188.89C972.75,-188.18 1382.27,-182.93 1423.88,-144 1454.57,-115.27 1451.46,-61.06 1446.93,-31.5"/>
<polygon fill="#63b8ff" stroke="#63b8ff" points="1450.44,-31.22 1445.26,-21.97 1443.54,-32.43 1450.44,-31.22"/>
</a>
</g>
</g>
<!-- Node6 -->
<g id="Node000006" class="node">
<title>Node6</title>
<g id="a_Node000006"><a xlink:title=" ">
<polygon fill="#e0e0e0" stroke="#999999" points="378.25,-82 343.5,-82 343.5,-62 378.25,-62 378.25,-82"/>
<text text-anchor="middle" x="360.88" y="-68.5" font-family="Helvetica,sans-Serif" font-size="10.00">map</text>
</a>
</g>
</g>
<!-- Node5&#45;&gt;Node6 -->
<g id="edge6_Node000005_Node000006" class="edge">
<title>Node5&#45;&gt;Node6</title>
<g id="a_edge6_Node000005_Node000006"><a xlink:title=" ">
<path fill="none" stroke="#63b8ff" d="M799.19,-186.07C747.25,-180.54 636.78,-167.03 545.88,-144 509.56,-134.8 420.91,-103.65 386.88,-88 386.65,-87.9 386.42,-87.79 386.2,-87.69"/>
<polygon fill="#63b8ff" stroke="#63b8ff" points="387.85,-84.6 377.37,-83.07 384.6,-90.8 387.85,-84.6"/>
</a>
</g>
</g>
<!-- Node7 -->
<g id="Node000007" class="node">
<title>Node7</title>
<g id="a_Node000007"><a xlink:title=" ">
<polygon fill="#e0e0e0" stroke="#999999" points="1136.88,-144 1078.88,-144 1078.88,-124 1136.88,-124 1136.88,-144"/>
<text text-anchor="middle" x="1107.88" y="-130.5" font-family="Helvetica,sans-Serif" font-size="10.00">functional</text>
</a>
</g>
</g>
<!-- Node5&#45;&gt;Node7 -->
<g id="edge7_Node000005_Node000007" class="edge">
<title>Node5&#45;&gt;Node7</title>
<g id="a_edge7_Node000005_Node000007"><a xlink:title=" ">
<path fill="none" stroke="#63b8ff" d="M858.65,-183.91C902.29,-176.36 986.45,-161.4 1067.55,-144.42"/>
<polygon fill="#63b8ff" stroke="#63b8ff" points="1067.9,-147.92 1076.97,-142.43 1066.46,-141.07 1067.9,-147.92"/>
</a>
</g>
</g>
<!-- Node8 -->
<g id="Node000008" class="node">
<title>Node8</title>
<g id="a_Node000008"><a xlink:title=" ">
<polygon fill="#e0e0e0" stroke="#999999" points="468.5,-144 423.25,-144 423.25,-124 468.5,-124 468.5,-144"/>
<text text-anchor="middle" x="445.88" y="-130.5" font-family="Helvetica,sans-Serif" font-size="10.00">cstdint</text>
</a>
</g>
</g>
<!-- Node5&#45;&gt;Node8 -->
<g id="edge9_Node000005_Node000008" class="edge">
<title>Node5&#45;&gt;Node8</title>
<g id="a_edge9_Node000005_Node000008"><a xlink:title=" ">
<path fill="none" stroke="#63b8ff" d="M799.08,-186.23C738.97,-180.41 599,-165.61 482.88,-144 481.88,-143.81 480.87,-143.62 479.85,-143.42"/>
<polygon fill="#63b8ff" stroke="#63b8ff" points="480.88,-140.06 470.36,-141.33 479.38,-146.9 480.88,-140.06"/>
</a>
</g>
</g>
<!-- Node9 -->
<g id="Node000009" class="node">
<title>Node9</title>
<g id="a_Node000009"><a xlink:title=" ">
<polygon fill="#e0e0e0" stroke="#999999" points="1204.75,-144 1155,-144 1155,-124 1204.75,-124 1204.75,-144"/>
<text text-anchor="middle" x="1179.88" y="-130.5" font-family="Helvetica,sans-Serif" font-size="10.00">iomanip</text>
</a>
</g>
</g>
<!-- Node5&#45;&gt;Node9 -->
<g id="edge10_Node000005_Node000009" class="edge">
<title>Node5&#45;&gt;Node9</title>
<g id="a_edge10_Node000005_Node000009"><a xlink:title=" ">
<path fill="none" stroke="#63b8ff" d="M858.35,-185.99C912.79,-180.18 1032.93,-166.19 1143.67,-144.24"/>
<polygon fill="#63b8ff" stroke="#63b8ff" points="1144.1,-147.72 1153.22,-142.32 1142.72,-140.86 1144.1,-147.72"/>
</a>
</g>
</g>
<!-- Node10 -->
<g id="Node000010" class="node">
<title>Node10</title>
<g id="a_Node000010"><a xlink:href="pin__config_8h.html" target="_top" xlink:title=" ">
<polygon fill="white" stroke="#666666" points="929.12,-82 860.62,-82 860.62,-62 929.12,-62 929.12,-82"/>
<text text-anchor="middle" x="894.88" y="-68.5" font-family="Helvetica,sans-Serif" font-size="10.00">pin_config.h</text>
</a>
</g>
</g>
<!-- Node5&#45;&gt;Node10 -->
<g id="edge11_Node000005_Node000010" class="edge">
<title>Node5&#45;&gt;Node10</title>
<g id="a_edge11_Node000005_Node000010"><a xlink:title=" ">
<path fill="none" stroke="#63b8ff" d="M799.17,-188.77C734.68,-187.56 585.12,-180.78 553.88,-144 548.12,-137.23 547.98,-130.65 553.88,-124 597.97,-74.24 786.06,-102.81 850.88,-88 853.63,-87.37 856.45,-86.63 859.27,-85.83"/>
<polygon fill="#63b8ff" stroke="#63b8ff" points="860.06,-89.25 868.56,-82.93 857.97,-82.57 860.06,-89.25"/>
</a>
</g>
</g>
<!-- Node12 -->
<g id="Node000012" class="node">
<title>Node12</title>
<g id="a_Node000012"><a xlink:href="_power_manager_8h.html" target="_top" xlink:title=" ">
<polygon fill="white" stroke="#666666" points="405.62,-144 316.12,-144 316.12,-124 405.62,-124 405.62,-144"/>
<text text-anchor="middle" x="360.88" y="-130.5" font-family="Helvetica,sans-Serif" font-size="10.00">PowerManager.h</text>
</a>
</g>
</g>
<!-- Node5&#45;&gt;Node12 -->
<g id="edge13_Node000005_Node000012" class="edge">
<title>Node5&#45;&gt;Node12</title>
<g id="a_edge13_Node000005_Node000012"><a xlink:title=" ">
<path fill="none" stroke="#63b8ff" d="M799.11,-186.39C732.51,-180.43 566.18,-164.79 417.11,-144.39"/>
<polygon fill="#63b8ff" stroke="#63b8ff" points="417.84,-140.95 407.45,-143.05 416.88,-147.89 417.84,-140.95"/>
</a>
</g>
</g>
<!-- Node17 -->
<g id="Node000017" class="node">
<title>Node17</title>
<g id="a_Node000017"><a xlink:title=" ">
<polygon fill="#e0e0e0" stroke="#999999" points="1265,-144 1222.75,-144 1222.75,-124 1265,-124 1265,-144"/>
<text text-anchor="middle" x="1243.88" y="-130.5" font-family="Helvetica,sans-Serif" font-size="10.00">cstdio</text>
</a>
</g>
</g>
<!-- Node5&#45;&gt;Node17 -->
<g id="edge22_Node000005_Node000017" class="edge">
<title>Node5&#45;&gt;Node17</title>
<g id="a_edge22_Node000005_Node000017"><a xlink:title=" ">
<path fill="none" stroke="#63b8ff" d="M858.62,-187.3C921.92,-183.31 1074.72,-171.69 1211.3,-144.21"/>
<polygon fill="#63b8ff" stroke="#63b8ff" points="1211.78,-147.69 1220.88,-142.25 1210.38,-140.83 1211.78,-147.69"/>
</a>
</g>
</g>
<!-- Node18 -->
<g id="Node000018" class="node">
<title>Node18</title>
<g id="a_Node000018"><a xlink:title=" ">
<polygon fill="#e0e0e0" stroke="#999999" points="607.12,-144 562.62,-144 562.62,-124 607.12,-124 607.12,-144"/>
<text text-anchor="middle" x="584.88" y="-130.5" font-family="Helvetica,sans-Serif" font-size="10.00">cstdlib</text>
</a>
</g>
</g>
<!-- Node5&#45;&gt;Node18 -->
<g id="edge23_Node000005_Node000018" class="edge">
<title>Node5&#45;&gt;Node18</title>
<g id="a_edge23_Node000005_Node000018"><a xlink:title=" ">
<path fill="none" stroke="#63b8ff" d="M799.08,-183.43C759.77,-175.93 688.2,-161.73 618.26,-144.46"/>
<polygon fill="#63b8ff" stroke="#63b8ff" points="619.53,-141.17 608.98,-142.15 617.83,-147.96 619.53,-141.17"/>
</a>
</g>
</g>
<!-- Node19 -->
<g id="Node000019" class="node">
<title>Node19</title>
<g id="a_Node000019"><a xlink:title=" ">
<polygon fill="#e0e0e0" stroke="#999999" points="670.5,-144 625.25,-144 625.25,-124 670.5,-124 670.5,-144"/>
<text text-anchor="middle" x="647.88" y="-130.5" font-family="Helvetica,sans-Serif" font-size="10.00">cstring</text>
</a>
</g>
</g>
<!-- Node5&#45;&gt;Node19 -->
<g id="edge24_Node000005_Node000019" class="edge">
<title>Node5&#45;&gt;Node19</title>
<g id="a_edge24_Node000005_Node000019"><a xlink:title=" ">
<path fill="none" stroke="#63b8ff" d="M799.39,-180.2C767.08,-170.56 715.35,-155.13 681.49,-145.03"/>
<polygon fill="#63b8ff" stroke="#63b8ff" points="682.78,-141.76 672.2,-142.26 680.78,-148.47 682.78,-141.76"/>
</a>
</g>
</g>
<!-- Node20 -->
<g id="Node000020" class="node">
<title>Node20</title>
<g id="a_Node000020"><a xlink:href="utils_8h.html" target="_top" xlink:title=" ">
<polygon fill="white" stroke="#666666" points="899,-144 856.75,-144 856.75,-124 899,-124 899,-144"/>
<text text-anchor="middle" x="877.88" y="-130.5" font-family="Helvetica,sans-Serif" font-size="10.00">utils.h</text>
</a>
</g>
</g>
<!-- Node5&#45;&gt;Node20 -->
<g id="edge25_Node000005_Node000020" class="edge">
<title>Node5&#45;&gt;Node20</title>
<g id="a_edge25_Node000005_Node000020"><a xlink:title=" ">
<path fill="none" stroke="#63b8ff" d="M837.41,-179.59C844.16,-172.16 853.76,-161.58 861.92,-152.58"/>
<polygon fill="#63b8ff" stroke="#63b8ff" points="864.29,-155.18 868.42,-145.42 859.11,-150.47 864.29,-155.18"/>
</a>
</g>
</g>
<!-- Node23 -->
<g id="Node000023" class="node">
<title>Node23</title>
<g id="a_Node000023"><a xlink:title=" ">
<polygon fill="#e0e0e0" stroke="#999999" points="960.38,-144 917.38,-144 917.38,-124 960.38,-124 960.38,-144"/>
<text text-anchor="middle" x="938.88" y="-130.5" font-family="Helvetica,sans-Serif" font-size="10.00">time.h</text>
</a>
</g>
</g>
<!-- Node5&#45;&gt;Node23 -->
<g id="edge31_Node000005_Node000023" class="edge">
<title>Node5&#45;&gt;Node23</title>
<g id="a_edge31_Node000005_Node000023"><a xlink:title=" ">
<path fill="none" stroke="#63b8ff" d="M848.04,-179.59C864.97,-171.28 889.92,-159.03 909.4,-149.47"/>
<polygon fill="#63b8ff" stroke="#63b8ff" points="910.77,-152.7 918.21,-145.15 907.69,-146.41 910.77,-152.7"/>
</a>
</g>
</g>
<!-- Node24 -->
<g id="Node000024" class="node">
<title>Node24</title>
<g id="a_Node000024"><a xlink:href="build__number_8h.html" target="_top" xlink:title=" ">
<polygon fill="white" stroke="#666666" points="1060.88,-144 978.88,-144 978.88,-124 1060.88,-124 1060.88,-144"/>
<text text-anchor="middle" x="1019.88" y="-130.5" font-family="Helvetica,sans-Serif" font-size="10.00">build_number.h</text>
</a>
</g>
</g>
<!-- Node5&#45;&gt;Node24 -->
<g id="edge32_Node000005_Node000024" class="edge">
<title>Node5&#45;&gt;Node24</title>
<g id="a_edge32_Node000005_Node000024"><a xlink:title=" ">
<path fill="none" stroke="#63b8ff" d="M858.72,-180.56C890.1,-171.69 939.8,-157.64 975.72,-147.48"/>
<polygon fill="#63b8ff" stroke="#63b8ff" points="976.26,-150.97 984.93,-144.88 974.36,-144.23 976.26,-150.97"/>
</a>
</g>
</g>
<!-- Node25 -->
<g id="Node000025" class="node">
<title>Node25</title>
<g id="a_Node000025"><a xlink:href="_lo_ra-_r_p2040_8h.html" target="_top" xlink:title=" ">
<polygon fill="white" stroke="#666666" points="800.88,-144 688.88,-144 688.88,-124 800.88,-124 800.88,-144"/>
<text text-anchor="middle" x="744.88" y="-130.5" font-family="Helvetica,sans-Serif" font-size="10.00">LoRa/LoRa&#45;RP2040.h</text>
</a>
</g>
</g>
<!-- Node5&#45;&gt;Node25 -->
<g id="edge33_Node000005_Node000025" class="edge">
<title>Node5&#45;&gt;Node25</title>
<g id="a_edge33_Node000005_Node000025"><a xlink:title=" ">
<path fill="none" stroke="#63b8ff" d="M814.24,-179.59C801.79,-171.59 783.66,-159.93 769.05,-150.54"/>
<polygon fill="#63b8ff" stroke="#63b8ff" points="771.2,-147.76 760.89,-145.3 767.41,-153.65 771.2,-147.76"/>
</a>
</g>
</g>
<!-- Node11 -->
<g id="Node000011" class="node">
<title>Node11</title>
<g id="a_Node000011"><a xlink:title=" ">
<polygon fill="#e0e0e0" stroke="#999999" points="569,-20 520.75,-20 520.75,0 569,0 569,-20"/>
<text text-anchor="middle" x="544.88" y="-6.5" font-family="Helvetica,sans-Serif" font-size="10.00">stdint.h</text>
</a>
</g>
</g>
<!-- Node10&#45;&gt;Node11 -->
<g id="edge12_Node000010_Node000011" class="edge">
<title>Node10&#45;&gt;Node11</title>
<g id="a_edge12_Node000010_Node000011"><a xlink:title=" ">
<path fill="none" stroke="#63b8ff" d="M869.98,-61.63C863.8,-59.55 857.15,-57.52 850.88,-56 754.64,-32.73 638.29,-19.63 580.72,-14.13"/>
<polygon fill="#63b8ff" stroke="#63b8ff" points="581.15,-10.66 570.87,-13.21 580.5,-17.62 581.15,-10.66"/>
</a>
</g>
</g>
<!-- Node12&#45;&gt;Node3 -->
<g id="edge19_Node000012_Node000003" class="edge">
<title>Node12&#45;&gt;Node3</title>
<g id="a_edge19_Node000012_Node000003"><a xlink:title=" ">
<path fill="none" stroke="#63b8ff" d="M352.52,-123.69C339.29,-107.83 316.79,-75.4 334.88,-56 355.88,-33.47 817.89,-16.32 944.2,-12.04"/>
<polygon fill="#63b8ff" stroke="#63b8ff" points="944.29,-15.53 954.16,-11.7 944.05,-8.54 944.29,-15.53"/>
</a>
</g>
</g>
<!-- Node12&#45;&gt;Node6 -->
<g id="edge18_Node000012_Node000006" class="edge">
<title>Node12&#45;&gt;Node6</title>
<g id="a_edge18_Node000012_Node000006"><a xlink:title=" ">
<path fill="none" stroke="#63b8ff" d="M360.88,-123.62C360.88,-115.56 360.88,-103.65 360.88,-93.41"/>
<polygon fill="#63b8ff" stroke="#63b8ff" points="364.38,-93.63 360.88,-83.63 357.38,-93.63 364.38,-93.63"/>
</a>
</g>
</g>
<!-- Node13 -->
<g id="Node000013" class="node">
<title>Node13</title>
<g id="a_Node000013"><a xlink:href="_i_n_a3221_8h.html" target="_top" xlink:title=" ">
<polygon fill="white" stroke="#666666" points="171.75,-82 68,-82 68,-62 171.75,-62 171.75,-82"/>
<text text-anchor="middle" x="119.88" y="-68.5" font-family="Helvetica,sans-Serif" font-size="10.00">INA3221/INA3221.h</text>
</a>
</g>
</g>
<!-- Node12&#45;&gt;Node13 -->
<g id="edge14_Node000012_Node000013" class="edge">
<title>Node12&#45;&gt;Node13</title>
<g id="a_edge14_Node000012_Node000013"><a xlink:title=" ">
<path fill="none" stroke="#63b8ff" d="M322.95,-123.56C281.41,-113.22 214.62,-96.59 169.07,-85.25"/>
<polygon fill="#63b8ff" stroke="#63b8ff" points="169.99,-81.87 159.44,-82.85 168.3,-88.66 169.99,-81.87"/>
</a>
</g>
</g>
<!-- Node15 -->
<g id="Node000015" class="node">
<title>Node15</title>
<g id="a_Node000015"><a xlink:title=" ">
<polygon fill="#e0e0e0" stroke="#999999" points="79.75,-20 0,-20 0,0 79.75,0 79.75,-20"/>
<text text-anchor="middle" x="39.88" y="-6.5" font-family="Helvetica,sans-Serif" font-size="10.00">hardware/i2c.h</text>
</a>
</g>
</g>
<!-- Node12&#45;&gt;Node15 -->
<g id="edge20_Node000012_Node000015" class="edge">
<title>Node12&#45;&gt;Node15</title>
<g id="a_edge20_Node000012_Node000015"><a xlink:title=" ">
<path fill="none" stroke="#63b8ff" d="M315.77,-127.61C233.88,-117.65 68.3,-96.57 58.88,-88 43.39,-73.9 39.6,-49.38 39.07,-31.79"/>
<polygon fill="#63b8ff" stroke="#63b8ff" points="42.57,-32 39.13,-21.98 35.57,-31.95 42.57,-32"/>
</a>
</g>
</g>
<!-- Node16 -->
<g id="Node000016" class="node">
<title>Node16</title>
<g id="a_Node000016"><a xlink:title=" ">
<polygon fill="#e0e0e0" stroke="#999999" points="842.12,-82 773.62,-82 773.62,-62 842.12,-62 842.12,-82"/>
<text text-anchor="middle" x="807.88" y="-68.5" font-family="Helvetica,sans-Serif" font-size="10.00">pico/stdlib.h</text>
</a>
</g>
</g>
<!-- Node12&#45;&gt;Node16 -->
<g id="edge21_Node000012_Node000016" class="edge">
<title>Node12&#45;&gt;Node16</title>
<g id="a_edge21_Node000012_Node000016"><a xlink:title=" ">
<path fill="none" stroke="#63b8ff" d="M405.95,-125.14C408.63,-124.74 411.29,-124.35 413.88,-124 568.82,-102.9 611.12,-121.44 763.88,-88 766.7,-87.38 769.6,-86.64 772.5,-85.83"/>
<polygon fill="#63b8ff" stroke="#63b8ff" points="773.53,-89.17 782.04,-82.86 771.45,-82.49 773.53,-89.17"/>
</a>
</g>
</g>
<!-- Node13&#45;&gt;Node11 -->
<g id="edge15_Node000013_Node000011" class="edge">
<title>Node13&#45;&gt;Node11</title>
<g id="a_edge15_Node000013_Node000011"><a xlink:title=" ">
<path fill="none" stroke="#63b8ff" d="M158.48,-61.55C167.44,-59.55 176.96,-57.57 185.88,-56 303.52,-35.31 444.48,-20.53 509.2,-14.29"/>
<polygon fill="#63b8ff" stroke="#63b8ff" points="509.24,-17.8 518.87,-13.37 508.58,-10.84 509.24,-17.8"/>
</a>
</g>
</g>
<!-- Node14 -->
<g id="Node000014" class="node">
<title>Node14</title>
<g id="a_Node000014"><a xlink:title=" ">
<polygon fill="#e0e0e0" stroke="#999999" points="151.62,-20 98.12,-20 98.12,0 151.62,0 151.62,-20"/>
<text text-anchor="middle" x="124.88" y="-6.5" font-family="Helvetica,sans-Serif" font-size="10.00">iostream</text>
</a>
</g>
</g>
<!-- Node13&#45;&gt;Node14 -->
<g id="edge16_Node000013_Node000014" class="edge">
<title>Node13&#45;&gt;Node14</title>
<g id="a_edge16_Node000013_Node000014"><a xlink:title=" ">
<path fill="none" stroke="#63b8ff" d="M120.66,-61.62C121.33,-53.56 122.32,-41.65 123.17,-31.41"/>
<polygon fill="#63b8ff" stroke="#63b8ff" points="126.65,-31.88 123.99,-21.62 119.67,-31.3 126.65,-31.88"/>
</a>
</g>
</g>
<!-- Node13&#45;&gt;Node15 -->
<g id="edge17_Node000013_Node000015" class="edge">
<title>Node13&#45;&gt;Node15</title>
<g id="a_edge17_Node000013_Node000015"><a xlink:title=" ">
<path fill="none" stroke="#63b8ff" d="M107.38,-61.62C95.05,-52.38 75.96,-38.07 61.23,-27.01"/>
<polygon fill="#63b8ff" stroke="#63b8ff" points="63.6,-24.42 53.5,-21.22 59.4,-30.02 63.6,-24.42"/>
</a>
</g>
</g>
<!-- Node20&#45;&gt;Node3 -->
<g id="edge27_Node000020_Node000003" class="edge">
<title>Node20&#45;&gt;Node3</title>
<g id="a_edge27_Node000020_Node000003"><a xlink:title=" ">
<path fill="none" stroke="#63b8ff" d="M899.43,-125.46C924.14,-116.34 962.36,-100.65 970.88,-88 981.96,-71.53 981.89,-48.32 979.86,-31.69"/>
<polygon fill="#63b8ff" stroke="#63b8ff" points="983.34,-31.31 978.32,-21.98 976.43,-32.41 983.34,-31.31"/>
</a>
</g>
</g>
<!-- Node20&#45;&gt;Node10 -->
<g id="edge30_Node000020_Node000010" class="edge">
<title>Node20&#45;&gt;Node10</title>
<g id="a_edge30_Node000020_Node000010"><a xlink:title=" ">
<path fill="none" stroke="#63b8ff" d="M880.53,-123.62C882.84,-115.48 886.26,-103.39 889.19,-93.07"/>
<polygon fill="#63b8ff" stroke="#63b8ff" points="892.52,-94.14 891.88,-83.57 885.79,-92.24 892.52,-94.14"/>
</a>
</g>
</g>
<!-- Node20&#45;&gt;Node16 -->
<g id="edge28_Node000020_Node000016" class="edge">
<title>Node20&#45;&gt;Node16</title>
<g id="a_edge28_Node000020_Node000016"><a xlink:title=" ">
<path fill="none" stroke="#63b8ff" d="M866.94,-123.62C856.29,-114.5 839.89,-100.45 827.08,-89.46"/>
<polygon fill="#63b8ff" stroke="#63b8ff" points="829.53,-86.95 819.66,-83.1 824.97,-92.26 829.53,-86.95"/>
</a>
</g>
</g>
<!-- Node21 -->
<g id="Node000021" class="node">
<title>Node21</title>
<g id="a_Node000021"><a xlink:title=" ">
<polygon fill="#e0e0e0" stroke="#999999" points="1155.5,-20 1110.25,-20 1110.25,0 1155.5,0 1155.5,-20"/>
<text text-anchor="middle" x="1132.88" y="-6.5" font-family="Helvetica,sans-Serif" font-size="10.00">stdio.h</text>
</a>
</g>
</g>
<!-- Node20&#45;&gt;Node21 -->
<g id="edge26_Node000020_Node000021" class="edge">
<title>Node20&#45;&gt;Node21</title>
<g id="a_edge26_Node000020_Node000021"><a xlink:title=" ">
<path fill="none" stroke="#63b8ff" d="M899.42,-126.2C902.25,-125.41 905.12,-124.65 907.88,-124 998.32,-102.61 1045.93,-151.42 1113.88,-88 1129.18,-73.71 1133.01,-49.22 1133.59,-31.7"/>
<polygon fill="#63b8ff" stroke="#63b8ff" points="1137.09,-31.92 1133.57,-21.93 1130.09,-31.94 1137.09,-31.92"/>
</a>
</g>
</g>
<!-- Node22 -->
<g id="Node000022" class="node">
<title>Node22</title>
<g id="a_Node000022"><a xlink:title=" ">
<polygon fill="#e0e0e0" stroke="#999999" points="1257.62,-82 1174.12,-82 1174.12,-62 1257.62,-62 1257.62,-82"/>
<text text-anchor="middle" x="1215.88" y="-68.5" font-family="Helvetica,sans-Serif" font-size="10.00">hardware/uart.h</text>
</a>
</g>
</g>
<!-- Node20&#45;&gt;Node22 -->
<g id="edge29_Node000020_Node000022" class="edge">
<title>Node20&#45;&gt;Node22</title>
<g id="a_edge29_Node000020_Node000022"><a xlink:title=" ">
<path fill="none" stroke="#63b8ff" d="M899.41,-126.14C902.24,-125.36 905.12,-124.62 907.88,-124 1012.7,-100.51 1041.22,-107.42 1146.88,-88 1152.17,-87.03 1157.68,-85.94 1163.18,-84.82"/>
<polygon fill="#63b8ff" stroke="#63b8ff" points="1163.82,-88.26 1172.89,-82.79 1162.38,-81.41 1163.82,-88.26"/>
</a>
</g>
</g>
<!-- Node25&#45;&gt;Node10 -->
<g id="edge43_Node000025_Node000010" class="edge">
<title>Node25&#45;&gt;Node10</title>
<g id="a_edge43_Node000025_Node000010"><a xlink:title=" ">
<path fill="none" stroke="#63b8ff" d="M768.31,-123.62C793.19,-113.67 832.74,-97.85 861,-86.55"/>
<polygon fill="#63b8ff" stroke="#63b8ff" points="862.21,-89.83 870.2,-82.87 859.61,-83.34 862.21,-89.83"/>
</a>
</g>
</g>
<!-- Node25&#45;&gt;Node16 -->
<g id="edge34_Node000025_Node000016" class="edge">
<title>Node25&#45;&gt;Node16</title>
<g id="a_edge34_Node000025_Node000016"><a xlink:title=" ">
<path fill="none" stroke="#63b8ff" d="M754.72,-123.62C764.21,-114.59 778.77,-100.72 790.26,-89.78"/>
<polygon fill="#63b8ff" stroke="#63b8ff" points="792.38,-92.59 797.21,-83.16 787.56,-87.52 792.38,-92.59"/>
</a>
</g>
</g>
<!-- Node26 -->
<g id="Node000026" class="node">
<title>Node26</title>
<g id="a_Node000026"><a xlink:title=" ">
<polygon fill="#e0e0e0" stroke="#999999" points="652.12,-82 559.62,-82 559.62,-62 652.12,-62 652.12,-82"/>
<text text-anchor="middle" x="605.88" y="-68.5" font-family="Helvetica,sans-Serif" font-size="10.00">pico/binary_info.h</text>
</a>
</g>
</g>
<!-- Node25&#45;&gt;Node26 -->
<g id="edge35_Node000025_Node000026" class="edge">
<title>Node25&#45;&gt;Node26</title>
<g id="a_edge35_Node000025_Node000026"><a xlink:title=" ">
<path fill="none" stroke="#63b8ff" d="M723.16,-123.62C700.31,-113.76 664.1,-98.13 637.96,-86.85"/>
<polygon fill="#63b8ff" stroke="#63b8ff" points="639.4,-83.66 628.83,-82.91 636.62,-90.09 639.4,-83.66"/>
</a>
</g>
</g>
<!-- Node27 -->
<g id="Node000027" class="node">
<title>Node27</title>
<g id="a_Node000027"><a xlink:title=" ">
<polygon fill="#e0e0e0" stroke="#999999" points="755.38,-82 670.38,-82 670.38,-62 755.38,-62 755.38,-82"/>
<text text-anchor="middle" x="712.88" y="-68.5" font-family="Helvetica,sans-Serif" font-size="10.00">hardware/gpio.h</text>
</a>
</g>
</g>
<!-- Node25&#45;&gt;Node27 -->
<g id="edge36_Node000025_Node000027" class="edge">
<title>Node25&#45;&gt;Node27</title>
<g id="a_edge36_Node000025_Node000027"><a xlink:title=" ">
<path fill="none" stroke="#63b8ff" d="M739.88,-123.62C735.39,-115.21 728.66,-102.6 723.05,-92.07"/>
<polygon fill="#63b8ff" stroke="#63b8ff" points="726.24,-90.62 718.45,-83.45 720.07,-93.92 726.24,-90.62"/>
</a>
</g>
</g>
<!-- Node28 -->
<g id="Node000028" class="node">
<title>Node28</title>
<g id="a_Node000028"><a xlink:title=" ">
<polygon fill="#e0e0e0" stroke="#999999" points="475.75,-82 396,-82 396,-62 475.75,-62 475.75,-82"/>
<text text-anchor="middle" x="435.88" y="-68.5" font-family="Helvetica,sans-Serif" font-size="10.00">hardware/spi.h</text>
</a>
</g>
</g>
<!-- Node25&#45;&gt;Node28 -->
<g id="edge37_Node000025_Node000028" class="edge">
<title>Node25&#45;&gt;Node28</title>
<g id="a_edge37_Node000025_Node000028"><a xlink:title=" ">
<path fill="none" stroke="#63b8ff" d="M688.53,-124.1C624.08,-113.77 522.58,-97 484.88,-88 481.89,-87.29 478.83,-86.5 475.76,-85.66"/>
<polygon fill="#63b8ff" stroke="#63b8ff" points="476.76,-82.31 466.18,-82.91 474.83,-89.04 476.76,-82.31"/>
</a>
</g>
</g>
<!-- Node29 -->
<g id="Node000029" class="node">
<title>Node29</title>
<g id="a_Node000029"><a xlink:title=" ">
<polygon fill="#e0e0e0" stroke="#999999" points="542,-82 493.75,-82 493.75,-62 542,-62 542,-82"/>
<text text-anchor="middle" x="517.88" y="-68.5" font-family="Helvetica,sans-Serif" font-size="10.00">string.h</text>
</a>
</g>
</g>
<!-- Node25&#45;&gt;Node29 -->
<g id="edge38_Node000025_Node000029" class="edge">
<title>Node25&#45;&gt;Node29</title>
<g id="a_edge38_Node000025_Node000029"><a xlink:title=" ">
<path fill="none" stroke="#63b8ff" d="M691.38,-123.57C651.97,-115.9 597.37,-103.78 550.88,-88 549.71,-87.61 548.54,-87.18 547.35,-86.74"/>
<polygon fill="#63b8ff" stroke="#63b8ff" points="548.79,-83.55 538.21,-82.96 546.11,-90.02 548.79,-83.55"/>
</a>
</g>
</g>
<!-- Node30 -->
<g id="Node000030" class="node">
<title>Node30</title>
<g id="a_Node000030"><a xlink:href="_print_8h.html" target="_top" xlink:title=" ">
<polygon fill="white" stroke="#666666" points="1105.12,-82 1060.62,-82 1060.62,-62 1105.12,-62 1105.12,-82"/>
<text text-anchor="middle" x="1082.88" y="-68.5" font-family="Helvetica,sans-Serif" font-size="10.00">Print.h</text>
</a>
</g>
</g>
<!-- Node25&#45;&gt;Node30 -->
<g id="edge39_Node000025_Node000030" class="edge">
<title>Node25&#45;&gt;Node30</title>
<g id="a_edge39_Node000025_Node000030"><a xlink:title=" ">
<path fill="none" stroke="#63b8ff" d="M798.06,-123.56C868.33,-111.09 990.06,-89.48 1048.98,-79.02"/>
<polygon fill="#63b8ff" stroke="#63b8ff" points="1049.5,-82.48 1058.74,-77.28 1048.28,-75.59 1049.5,-82.48"/>
</a>
</g>
</g>
<!-- Node30&#45;&gt;Node3 -->
<g id="edge42_Node000030_Node000003" class="edge">
<title>Node30&#45;&gt;Node3</title>
<g id="a_edge42_Node000030_Node000003"><a xlink:title=" ">
<path fill="none" stroke="#63b8ff" d="M1066.16,-61.62C1049.12,-52.07 1022.43,-37.11 1002.48,-25.92"/>
<polygon fill="#63b8ff" stroke="#63b8ff" points="1004.23,-22.89 993.8,-21.05 1000.81,-28.99 1004.23,-22.89"/>
</a>
</g>
</g>
<!-- Node30&#45;&gt;Node21 -->
<g id="edge41_Node000030_Node000021" class="edge">
<title>Node30&#45;&gt;Node21</title>
<g id="a_edge41_Node000030_Node000021"><a xlink:title=" ">
<path fill="none" stroke="#63b8ff" d="M1090.69,-61.62C1098,-52.86 1109.1,-39.53 1118.08,-28.75"/>
<polygon fill="#63b8ff" stroke="#63b8ff" points="1120.6,-31.2 1124.31,-21.28 1115.22,-26.72 1120.6,-31.2"/>
</a>
</g>
</g>
<!-- Node31 -->
<g id="Node000031" class="node">
<title>Node31</title>
<g id="a_Node000031"><a xlink:title=" ">
<polygon fill="#e0e0e0" stroke="#999999" points="1092.25,-20 1033.5,-20 1033.5,0 1092.25,0 1092.25,-20"/>
<text text-anchor="middle" x="1062.88" y="-6.5" font-family="Helvetica,sans-Serif" font-size="10.00">inttypes.h</text>
</a>
</g>
</g>
<!-- Node30&#45;&gt;Node31 -->
<g id="edge40_Node000030_Node000031" class="edge">
<title>Node30&#45;&gt;Node31</title>
<g id="a_edge40_Node000030_Node000031"><a xlink:title=" ">
<path fill="none" stroke="#63b8ff" d="M1079.75,-61.62C1077,-53.39 1072.92,-41.13 1069.45,-30.74"/>
<polygon fill="#63b8ff" stroke="#63b8ff" points="1072.87,-29.93 1066.39,-21.55 1066.23,-32.14 1072.87,-29.93"/>
</a>
</g>
</g>
<!-- Node32&#45;&gt;Node3 -->
<g id="edge47_Node000032_Node000003" class="edge">
<title>Node32&#45;&gt;Node3</title>
<g id="a_edge47_Node000032_Node000003"><a xlink:title=" ">
<path fill="none" stroke="#63b8ff" d="M342.66,-179.51C330.04,-171.82 314.23,-159.69 306.88,-144 294.96,-118.56 306.94,-70.19 323.88,-56 347.91,-35.86 816.85,-16.94 944.2,-12.16"/>
<polygon fill="#63b8ff" stroke="#63b8ff" points="944.05,-15.66 953.91,-11.8 943.79,-8.67 944.05,-15.66"/>
</a>
</g>
</g>
<!-- Node32&#45;&gt;Node8 -->
<g id="edge46_Node000032_Node000008" class="edge">
<title>Node32&#45;&gt;Node8</title>
<g id="a_edge46_Node000032_Node000008"><a xlink:title=" ">
<path fill="none" stroke="#63b8ff" d="M375.68,-179.59C388.28,-171.59 406.63,-159.93 421.41,-150.54"/>
<polygon fill="#63b8ff" stroke="#63b8ff" points="423.11,-153.61 429.68,-145.29 419.36,-147.7 423.11,-153.61"/>
</a>
</g>
</g>
<!-- Node32&#45;&gt;Node12 -->
<g id="edge45_Node000032_Node000012" class="edge">
<title>Node32&#45;&gt;Node12</title>
<g id="a_edge45_Node000032_Node000012"><a xlink:title=" ">
<path fill="none" stroke="#63b8ff" d="M360.88,-179.59C360.88,-173.01 360.88,-163.96 360.88,-155.73"/>
<polygon fill="#63b8ff" stroke="#63b8ff" points="364.38,-155.81 360.88,-145.81 357.38,-155.81 364.38,-155.81"/>
</a>
</g>
</g>
<!-- Node33 -->
<g id="Node000033" class="node">
<title>Node33</title>
<g id="a_Node000033"><a xlink:title=" ">
<polygon fill="#e0e0e0" stroke="#999999" points="260,-144 187.75,-144 187.75,-124 260,-124 260,-144"/>
<text text-anchor="middle" x="223.88" y="-130.5" font-family="Helvetica,sans-Serif" font-size="10.00">pico/mutex.h</text>
</a>
</g>
</g>
<!-- Node32&#45;&gt;Node33 -->
<g id="edge48_Node000032_Node000033" class="edge">
<title>Node32&#45;&gt;Node33</title>
<g id="a_edge48_Node000032_Node000033"><a xlink:title=" ">
<path fill="none" stroke="#63b8ff" d="M337.01,-179.59C315.34,-171.05 283.11,-158.35 258.58,-148.68"/>
<polygon fill="#63b8ff" stroke="#63b8ff" points="259.92,-145.45 249.33,-145.03 257.35,-151.96 259.92,-145.45"/>
</a>
</g>
</g>
<!-- Node34&#45;&gt;Node3 -->
<g id="edge50_Node000034_Node000003" class="edge">
<title>Node34&#45;&gt;Node3</title>
<g id="a_edge50_Node000034_Node000003"><a xlink:title=" ">
<path fill="none" stroke="#63b8ff" d="M1282.63,-124.04C1198.26,-112.47 1062.08,-93.2 1051.88,-88 1025.17,-74.4 1002.23,-47.83 988.73,-29.75"/>
<polygon fill="#63b8ff" stroke="#63b8ff" points="991.64,-27.8 982.97,-21.71 985.95,-31.88 991.64,-27.8"/>
</a>
</g>
</g>
<!-- Node34&#45;&gt;Node10 -->
<g id="edge56_Node000034_Node000010" class="edge">
<title>Node34&#45;&gt;Node10</title>
<g id="a_edge56_Node000034_Node000010"><a xlink:title=" ">
<path fill="none" stroke="#63b8ff" d="M1282.86,-124.28C1189.57,-111.95 1021.54,-89.74 940.73,-79.06"/>
<polygon fill="#63b8ff" stroke="#63b8ff" points="941.33,-75.61 930.96,-77.77 940.41,-82.55 941.33,-75.61"/>
</a>
</g>
</g>
<!-- Node34&#45;&gt;Node22 -->
<g id="edge51_Node000034_Node000022" class="edge">
<title>Node34&#45;&gt;Node22</title>
<g id="a_edge51_Node000034_Node000022"><a xlink:title=" ">
<path fill="none" stroke="#63b8ff" d="M1328.09,-123.62C1306.33,-113.81 1271.9,-98.27 1246.91,-87"/>
<polygon fill="#63b8ff" stroke="#63b8ff" points="1248.44,-83.85 1237.89,-82.93 1245.57,-90.23 1248.44,-83.85"/>
</a>
</g>
</g>
<!-- Node35 -->
<g id="Node000035" class="node">
<title>Node35</title>
<g id="a_Node000035"><a xlink:href="_n_m_e_a__data_8h.html" target="_top" xlink:title=" ">
<polygon fill="white" stroke="#666666" points="1409.75,-88 1288,-88 1288,-56 1409.75,-56 1409.75,-88"/>
<text text-anchor="start" x="1296" y="-74.5" font-family="Helvetica,sans-Serif" font-size="10.00">lib/location/NMEA/nmea</text>
<text text-anchor="middle" x="1348.88" y="-62.5" font-family="Helvetica,sans-Serif" font-size="10.00">_data.h</text>
</a>
</g>
</g>
<!-- Node34&#45;&gt;Node35 -->
<g id="edge52_Node000034_Node000035" class="edge">
<title>Node34&#45;&gt;Node35</title>
<g id="a_edge52_Node000034_Node000035"><a xlink:title=" ">
<path fill="none" stroke="#63b8ff" d="M1348.88,-123.62C1348.88,-117.1 1348.88,-108.05 1348.88,-99.4"/>
<polygon fill="#63b8ff" stroke="#63b8ff" points="1352.38,-99.65 1348.88,-89.65 1345.38,-99.65 1352.38,-99.65"/>
</a>
</g>
</g>
<!-- Node35&#45;&gt;Node3 -->
<g id="edge54_Node000035_Node000003" class="edge">
<title>Node35&#45;&gt;Node3</title>
<g id="a_edge54_Node000035_Node000003"><a xlink:title=" ">
<path fill="none" stroke="#63b8ff" d="M1287.57,-59.56C1280.6,-58.32 1273.59,-57.11 1266.88,-56 1159.6,-38.21 1132.14,-37.82 1024.88,-20 1019.3,-19.07 1013.38,-18.03 1007.66,-17"/>
<polygon fill="#63b8ff" stroke="#63b8ff" points="1008.31,-13.56 997.84,-15.19 1007.04,-20.45 1008.31,-13.56"/>
</a>
</g>
</g>
<!-- Node35&#45;&gt;Node4 -->
<g id="edge53_Node000035_Node000004" class="edge">
<title>Node35&#45;&gt;Node4</title>
<g id="a_edge53_Node000035_Node000004"><a xlink:title=" ">
<path fill="none" stroke="#63b8ff" d="M1373.08,-55.55C1387.09,-46.61 1404.66,-35.39 1418.67,-26.45"/>
<polygon fill="#63b8ff" stroke="#63b8ff" points="1420.31,-29.55 1426.86,-21.22 1416.55,-23.65 1420.31,-29.55"/>
</a>
</g>
</g>
<!-- Node36 -->
<g id="Node000036" class="node">
<title>Node36</title>
<g id="a_Node000036"><a xlink:title=" ">
<polygon fill="#e0e0e0" stroke="#999999" points="1382,-20 1315.75,-20 1315.75,0 1382,0 1382,-20"/>
<text text-anchor="middle" x="1348.88" y="-6.5" font-family="Helvetica,sans-Serif" font-size="10.00">pico/sync.h</text>
</a>
</g>
</g>
<!-- Node35&#45;&gt;Node36 -->
<g id="edge55_Node000035_Node000036" class="edge">
<title>Node35&#45;&gt;Node36</title>
<g id="a_edge55_Node000035_Node000036"><a xlink:title=" ">
<path fill="none" stroke="#63b8ff" d="M1348.88,-55.55C1348.88,-48.34 1348.88,-39.66 1348.88,-31.88"/>
<polygon fill="#63b8ff" stroke="#63b8ff" points="1352.38,-31.92 1348.88,-21.92 1345.38,-31.92 1352.38,-31.92"/>
</a>
</g>
</g>
</g>
</svg>

<g id="navigator" transform="translate(0 0)" fill="#404254">
  <rect fill="#f2f5e9" fill-opacity="0.5" stroke="#606060" stroke-width=".5" x="0" y="0" width="60" height="60"/>
  <use id="zoomplus" xlink:href="#zoomPlus" x="17" y="9" onmousedown="handleZoom(evt,'in')"/>
  <use id="zoomminus" xlink:href="#zoomMin" x="42" y="9" onmousedown="handleZoom(evt,'out')"/>
  <use id="reset" xlink:href="#resetDef" x="30" y="36" onmousedown="handleReset()"/>
   <use id="arrowup" xlink:href="#arrowUp" x="0" y="0" onmousedown="handlePan(0,-1)"/>
  <use id="arrowright" xlink:href="#arrowRight" x="0" y="0" onmousedown="handlePan(1,0)"/>
  <use id="arrowdown" xlink:href="#arrowDown" x="0" y="0" onmousedown="handlePan(0,1)"/>
  <use id="arrowleft" xlink:href="#arrowLeft" x="0" y="0" onmousedown="handlePan(-1,0)"/>
</g>
<svg viewBox="0 0 15 15" width="100%" height="30px" preserveAspectRatio="xMaxYMin meet">
 <g id="arrow_out" transform="scale(0.3 0.3)">
  <a xlink:href="gps__commands_8cpp__incl_org.svg" target="_base">
   <rect id="button" ry="5" rx="5" y="6" x="6" height="38" width="38"
        fill="#f2f5e9" fill-opacity="0.5" stroke="#606060" stroke-width="1.0"/>
   <path id="arrow"
     d="M 11.500037,31.436501 C 11.940474,20.09759 22.043105,11.32322 32.158766,21.979434 L 37.068811,17.246167 C 37.068811,17.246167 37.088388,32 37.088388,32 L 22.160133,31.978069 C 22.160133,31.978069 26.997745,27.140456 26.997745,27.140456 C 18.528582,18.264221 13.291696,25.230495 11.500037,31.436501 z"
     style="fill:#404040;"/>
  </a>
 </g>
</svg>

<style type='text/css'>
<![CDATA[
[data-mouse-over-selected='false'] { opacity: 0.7; }
[data-mouse-over-selected='true']  { opacity: 1.0; }
]]>
</style>
<script type="application/ecmascript"><![CDATA[
document.addEventListener('DOMContentLoaded', (event) => {
  highlightEdges();
  highlightAdjacentNodes();
});
]]></script>
</svg>
