<?xml version="1.0" encoding="UTF-8" standalone="no"?>
<!DOCTYPE svg PUBLIC "-//W3C//DTD SVG 1.1//EN"
 "http://www.w3.org/Graphics/SVG/1.1/DTD/svg11.dtd">
<!-- Generated by graphviz version 12.2.1 (20241206.2353)
 -->
<!-- Title: lib/location/gps_collector.h Pages: 1 -->
<svg width="332pt" height="152pt"
 viewBox="0.00 0.00 332.44 152.00" xmlns="http://www.w3.org/2000/svg" xmlns:xlink="http://www.w3.org/1999/xlink">

<svg id="main" version="1.1" xmlns="http://www.w3.org/2000/svg" xmlns:xlink="http://www.w3.org/1999/xlink" xml:space="preserve">

<style type="text/css"><![CDATA[
.node, .edge {opacity: 0.7;}
.node.selected, .edge.selected {opacity: 1;}
.edge:hover path { stroke: red; }
.edge:hover polygon { stroke: red; fill: red; }
]]></style>
<script type="application/ecmascript" xlink:href="svg.min.js"/>
<svg id="graph" class="graph">
<g id="graph0" class="graph" transform="scale(1 1) rotate(0) translate(4 148)">
<title>lib/location/gps_collector.h</title>
<!-- Node1 -->
<g id="Node000001" class="node">
<title>Node1</title>
<g id="a_Node000001"><a xlink:title=" ">
<polygon fill="#999999" stroke="#666666" points="181.94,-144 50.44,-144 50.44,-124 181.94,-124 181.94,-144"/>
<text text-anchor="middle" x="116.19" y="-130.5" font-family="Helvetica,sans-Serif" font-size="10.00">lib/location/gps_collector.h</text>
</a>
</g>
</g>
<!-- Node2 -->
<g id="Node000002" class="node">
<title>Node2</title>
<g id="a_Node000002"><a xlink:title=" ">
<polygon fill="#e0e0e0" stroke="#999999" points="54.19,-20 14.19,-20 14.19,0 54.19,0 54.19,-20"/>
<text text-anchor="middle" x="34.19" y="-6.5" font-family="Helvetica,sans-Serif" font-size="10.00">string</text>
</a>
</g>
</g>
<!-- Node1&#45;&gt;Node2 -->
<g id="edge1_Node000001_Node000002" class="edge">
<title>Node1&#45;&gt;Node2</title>
<g id="a_edge1_Node000001_Node000002"><a xlink:title=" ">
<path fill="none" stroke="#63b8ff" d="M59.21,-123.59C38.65,-117.14 17.51,-106.28 5.19,-88 -7.22,-69.58 6.14,-45.13 18.55,-28.77"/>
<polygon fill="#63b8ff" stroke="#63b8ff" points="20.99,-31.32 24.59,-21.35 15.56,-26.9 20.99,-31.32"/>
</a>
</g>
</g>
<!-- Node3 -->
<g id="Node000003" class="node">
<title>Node3</title>
<g id="a_Node000003"><a xlink:title=" ">
<polygon fill="#e0e0e0" stroke="#999999" points="97.94,-82 14.44,-82 14.44,-62 97.94,-62 97.94,-82"/>
<text text-anchor="middle" x="56.19" y="-68.5" font-family="Helvetica,sans-Serif" font-size="10.00">hardware/uart.h</text>
</a>
</g>
</g>
<!-- Node1&#45;&gt;Node3 -->
<g id="edge2_Node000001_Node000003" class="edge">
<title>Node1&#45;&gt;Node3</title>
<g id="a_edge2_Node000001_Node000003"><a xlink:title=" ">
<path fill="none" stroke="#63b8ff" d="M106.82,-123.62C97.87,-114.68 84.18,-100.99 73.29,-90.1"/>
<polygon fill="#63b8ff" stroke="#63b8ff" points="75.92,-87.78 66.37,-83.18 70.97,-92.73 75.92,-87.78"/>
</a>
</g>
</g>
<!-- Node4 -->
<g id="Node000004" class="node">
<title>Node4</title>
<g id="a_Node000004"><a xlink:href="_n_m_e_a__data_8h.html" target="_top" xlink:title=" ">
<polygon fill="white" stroke="#666666" points="238.07,-88 116.32,-88 116.32,-56 238.07,-56 238.07,-88"/>
<text text-anchor="start" x="124.32" y="-74.5" font-family="Helvetica,sans-Serif" font-size="10.00">lib/location/NMEA/nmea</text>
<text text-anchor="middle" x="177.19" y="-62.5" font-family="Helvetica,sans-Serif" font-size="10.00">_data.h</text>
</a>
</g>
</g>
<!-- Node1&#45;&gt;Node4 -->
<g id="edge3_Node000001_Node000004" class="edge">
<title>Node1&#45;&gt;Node4</title>
<g id="a_edge3_Node000001_Node000004"><a xlink:title=" ">
<path fill="none" stroke="#63b8ff" d="M125.72,-123.62C133.19,-116.28 143.9,-105.75 153.62,-96.19"/>
<polygon fill="#63b8ff" stroke="#63b8ff" points="156.04,-98.71 160.72,-89.2 151.14,-93.72 156.04,-98.71"/>
</a>
</g>
</g>
<!-- Node7 -->
<g id="Node000007" class="node">
<title>Node7</title>
<g id="a_Node000007"><a xlink:href="pin__config_8h.html" target="_top" xlink:title=" ">
<polygon fill="white" stroke="#666666" points="324.44,-82 255.94,-82 255.94,-62 324.44,-62 324.44,-82"/>
<text text-anchor="middle" x="290.19" y="-68.5" font-family="Helvetica,sans-Serif" font-size="10.00">pin_config.h</text>
</a>
</g>
</g>
<!-- Node1&#45;&gt;Node7 -->
<g id="edge7_Node000001_Node000007" class="edge">
<title>Node1&#45;&gt;Node7</title>
<g id="a_edge7_Node000001_Node000007"><a xlink:title=" ">
<path fill="none" stroke="#63b8ff" d="M143.81,-123.56C170.33,-114.48 211.51,-100.35 247.19,-88 248.99,-87.38 250.83,-86.74 252.69,-86.09"/>
<polygon fill="#63b8ff" stroke="#63b8ff" points="253.64,-89.47 261.93,-82.88 251.34,-82.86 253.64,-89.47"/>
</a>
</g>
</g>
<!-- Node4&#45;&gt;Node2 -->
<g id="edge5_Node000004_Node000002" class="edge">
<title>Node4&#45;&gt;Node2</title>
<g id="a_edge5_Node000004_Node000002"><a xlink:title=" ">
<path fill="none" stroke="#63b8ff" d="M140.36,-55.55C117,-45.75 87.12,-33.21 65.02,-23.93"/>
<polygon fill="#63b8ff" stroke="#63b8ff" points="66.52,-20.77 55.94,-20.13 63.81,-27.22 66.52,-20.77"/>
</a>
</g>
</g>
<!-- Node5 -->
<g id="Node000005" class="node">
<title>Node5</title>
<g id="a_Node000005"><a xlink:title=" ">
<polygon fill="#e0e0e0" stroke="#999999" points="144.69,-20 101.69,-20 101.69,0 144.69,0 144.69,-20"/>
<text text-anchor="middle" x="123.19" y="-6.5" font-family="Helvetica,sans-Serif" font-size="10.00">vector</text>
</a>
</g>
</g>
<!-- Node4&#45;&gt;Node5 -->
<g id="edge4_Node000004_Node000005" class="edge">
<title>Node4&#45;&gt;Node5</title>
<g id="a_edge4_Node000004_Node000005"><a xlink:title=" ">
<path fill="none" stroke="#63b8ff" d="M163.28,-55.55C155.94,-47.39 146.89,-37.33 139.25,-28.84"/>
<polygon fill="#63b8ff" stroke="#63b8ff" points="141.96,-26.62 132.67,-21.53 136.76,-31.31 141.96,-26.62"/>
</a>
</g>
</g>
<!-- Node6 -->
<g id="Node000006" class="node">
<title>Node6</title>
<g id="a_Node000006"><a xlink:title=" ">
<polygon fill="#e0e0e0" stroke="#999999" points="229.32,-20 163.07,-20 163.07,0 229.32,0 229.32,-20"/>
<text text-anchor="middle" x="196.19" y="-6.5" font-family="Helvetica,sans-Serif" font-size="10.00">pico/sync.h</text>
</a>
</g>
</g>
<!-- Node4&#45;&gt;Node6 -->
<g id="edge6_Node000004_Node000006" class="edge">
<title>Node4&#45;&gt;Node6</title>
<g id="a_edge6_Node000004_Node000006"><a xlink:title=" ">
<path fill="none" stroke="#63b8ff" d="M182.08,-55.55C184.42,-48.17 187.25,-39.24 189.76,-31.32"/>
<polygon fill="#63b8ff" stroke="#63b8ff" points="193.07,-32.44 192.75,-21.85 186.4,-30.33 193.07,-32.44"/>
</a>
</g>
</g>
<!-- Node8 -->
<g id="Node000008" class="node">
<title>Node8</title>
<g id="a_Node000008"><a xlink:title=" ">
<polygon fill="#e0e0e0" stroke="#999999" points="314.32,-20 266.07,-20 266.07,0 314.32,0 314.32,-20"/>
<text text-anchor="middle" x="290.19" y="-6.5" font-family="Helvetica,sans-Serif" font-size="10.00">stdint.h</text>
</a>
</g>
</g>
<!-- Node7&#45;&gt;Node8 -->
<g id="edge8_Node000007_Node000008" class="edge">
<title>Node7&#45;&gt;Node8</title>
<g id="a_edge8_Node000007_Node000008"><a xlink:title=" ">
<path fill="none" stroke="#63b8ff" d="M290.19,-61.62C290.19,-53.56 290.19,-41.65 290.19,-31.41"/>
<polygon fill="#63b8ff" stroke="#63b8ff" points="293.69,-31.63 290.19,-21.63 286.69,-31.63 293.69,-31.63"/>
</a>
</g>
</g>
</g>
</svg>
</svg>

<style type='text/css'>
<![CDATA[
[data-mouse-over-selected='false'] { opacity: 0.7; }
[data-mouse-over-selected='true']  { opacity: 1.0; }
]]>
</style>
<script type="application/ecmascript"><![CDATA[
document.addEventListener('DOMContentLoaded', (event) => {
  highlightEdges();
  highlightAdjacentNodes();
});
]]></script>
</svg>
