<?xml version="1.0" encoding="UTF-8" standalone="no"?>
<!DOCTYPE svg PUBLIC "-//W3C//DTD SVG 1.1//EN"
 "http://www.w3.org/Graphics/SVG/1.1/DTD/svg11.dtd">
<!-- Generated by graphviz version 12.2.1 (20241206.2353)
 -->
<!-- Title: lib/location/gps_collector.cpp Pages: 1 -->
<svg width="966pt" height="264pt"
 viewBox="0.00 0.00 966.00 264.00" xmlns="http://www.w3.org/2000/svg" xmlns:xlink="http://www.w3.org/1999/xlink">
<g id="graph0" class="graph" transform="scale(1 1) rotate(0) translate(4 260)">
<title>lib/location/gps_collector.cpp</title>
<!-- Node1 -->
<g id="Node000001" class="node">
<title>Node1</title>
<g id="a_Node000001"><a xlink:title=" ">
<polygon fill="#999999" stroke="#666666" points="627.5,-256 485.5,-256 485.5,-236 627.5,-236 627.5,-256"/>
<text text-anchor="middle" x="556.5" y="-242.5" font-family="Helvetica,sans-Serif" font-size="10.00">lib/location/gps_collector.cpp</text>
</a>
</g>
</g>
<!-- Node2 -->
<g id="Node000002" class="node">
<title>Node2</title>
<g id="a_Node000002"><a xlink:href="gps__collector_8h.html" target="_top" xlink:title=" ">
<polygon fill="white" stroke="#666666" points="327.25,-200 195.75,-200 195.75,-180 327.25,-180 327.25,-200"/>
<text text-anchor="middle" x="261.5" y="-186.5" font-family="Helvetica,sans-Serif" font-size="10.00">lib/location/gps_collector.h</text>
</a>
</g>
</g>
<!-- Node1&#45;&gt;Node2 -->
<g id="edge1_Node000001_Node000002" class="edge">
<title>Node1&#45;&gt;Node2</title>
<g id="a_edge1_Node000001_Node000002"><a xlink:title=" ">
<path fill="none" stroke="#63b8ff" d="M504.78,-235.53C454.49,-226.33 378.02,-212.33 324.27,-202.49"/>
<polygon fill="#63b8ff" stroke="#63b8ff" points="325.12,-199.09 314.65,-200.73 323.86,-205.97 325.12,-199.09"/>
</a>
</g>
</g>
<!-- Node5 -->
<g id="Node000005" class="node">
<title>Node5</title>
<g id="a_Node000005"><a xlink:href="_n_m_e_a__data_8h.html" target="_top" xlink:title=" ">
<polygon fill="white" stroke="#666666" points="163.38,-144 41.62,-144 41.62,-112 163.38,-112 163.38,-144"/>
<text text-anchor="start" x="49.62" y="-130.5" font-family="Helvetica,sans-Serif" font-size="10.00">lib/location/NMEA/nmea</text>
<text text-anchor="middle" x="102.5" y="-118.5" font-family="Helvetica,sans-Serif" font-size="10.00">_data.h</text>
</a>
</g>
</g>
<!-- Node1&#45;&gt;Node5 -->
<g id="edge17_Node000001_Node000005" class="edge">
<title>Node1&#45;&gt;Node5</title>
<g id="a_edge17_Node000001_Node000005"><a xlink:title=" ">
<path fill="none" stroke="#63b8ff" d="M485.19,-241.18C393.12,-235.43 238.55,-222.71 186.5,-200 161.76,-189.21 138.73,-168.68 123.06,-152.47"/>
<polygon fill="#63b8ff" stroke="#63b8ff" points="125.99,-150.48 116.61,-145.56 120.88,-155.26 125.99,-150.48"/>
</a>
</g>
</g>
<!-- Node6 -->
<g id="Node000006" class="node">
<title>Node6</title>
<g id="a_Node000006"><a xlink:title=" ">
<polygon fill="#e0e0e0" stroke="#999999" points="43,-76 0,-76 0,-56 43,-56 43,-76"/>
<text text-anchor="middle" x="21.5" y="-62.5" font-family="Helvetica,sans-Serif" font-size="10.00">vector</text>
</a>
</g>
</g>
<!-- Node1&#45;&gt;Node6 -->
<g id="edge32_Node000001_Node000006" class="edge">
<title>Node1&#45;&gt;Node6</title>
<g id="a_edge32_Node000001_Node000006"><a xlink:title=" ">
<path fill="none" stroke="#63b8ff" d="M485.28,-244.12C403.32,-241.5 265.37,-232.16 151.5,-200 95.25,-184.11 67.24,-191.01 32.5,-144 20.54,-127.82 18.78,-104.38 19.39,-87.62"/>
<polygon fill="#63b8ff" stroke="#63b8ff" points="22.87,-88.07 20.09,-77.85 15.89,-87.58 22.87,-88.07"/>
</a>
</g>
</g>
<!-- Node10 -->
<g id="Node000010" class="node">
<title>Node10</title>
<g id="a_Node000010"><a xlink:href="utils_8h.html" target="_top" xlink:title=" ">
<polygon fill="white" stroke="#666666" points="446.62,-200 404.38,-200 404.38,-180 446.62,-180 446.62,-200"/>
<text text-anchor="middle" x="425.5" y="-186.5" font-family="Helvetica,sans-Serif" font-size="10.00">utils.h</text>
</a>
</g>
</g>
<!-- Node1&#45;&gt;Node10 -->
<g id="edge10_Node000001_Node000010" class="edge">
<title>Node1&#45;&gt;Node10</title>
<g id="a_edge10_Node000001_Node000010"><a xlink:title=" ">
<path fill="none" stroke="#63b8ff" d="M533.68,-235.59C512.54,-226.88 480.91,-213.84 457.3,-204.11"/>
<polygon fill="#63b8ff" stroke="#63b8ff" points="458.74,-200.91 448.16,-200.34 456.07,-207.39 458.74,-200.91"/>
</a>
</g>
</g>
<!-- Node13 -->
<g id="Node000013" class="node">
<title>Node13</title>
<g id="a_Node000013"><a xlink:title=" ">
<polygon fill="#e0e0e0" stroke="#999999" points="685.5,-200 621.5,-200 621.5,-180 685.5,-180 685.5,-200"/>
<text text-anchor="middle" x="653.5" y="-186.5" font-family="Helvetica,sans-Serif" font-size="10.00">pico/time.h</text>
</a>
</g>
</g>
<!-- Node1&#45;&gt;Node13 -->
<g id="edge16_Node000001_Node000013" class="edge">
<title>Node1&#45;&gt;Node13</title>
<g id="a_edge16_Node000001_Node000013"><a xlink:title=" ">
<path fill="none" stroke="#63b8ff" d="M573.4,-235.59C588.05,-227.44 609.52,-215.48 626.55,-206"/>
<polygon fill="#63b8ff" stroke="#63b8ff" points="628.11,-209.14 635.15,-201.22 624.71,-203.02 628.11,-209.14"/>
</a>
</g>
</g>
<!-- Node14 -->
<g id="Node000014" class="node">
<title>Node14</title>
<g id="a_Node000014"><a xlink:href="event__manager_8h.html" target="_top" xlink:title=" ">
<polygon fill="white" stroke="#666666" points="565,-200 474,-200 474,-180 565,-180 565,-200"/>
<text text-anchor="middle" x="519.5" y="-186.5" font-family="Helvetica,sans-Serif" font-size="10.00">event_manager.h</text>
</a>
</g>
</g>
<!-- Node1&#45;&gt;Node14 -->
<g id="edge18_Node000001_Node000014" class="edge">
<title>Node1&#45;&gt;Node14</title>
<g id="a_edge18_Node000001_Node000014"><a xlink:title=" ">
<path fill="none" stroke="#63b8ff" d="M550.06,-235.59C545.17,-228.47 538.31,-218.45 532.32,-209.72"/>
<polygon fill="#63b8ff" stroke="#63b8ff" points="535.27,-207.82 526.73,-201.55 529.49,-211.77 535.27,-207.82"/>
</a>
</g>
</g>
<!-- Node22 -->
<g id="Node000022" class="node">
<title>Node22</title>
<g id="a_Node000022"><a xlink:title=" ">
<polygon fill="#e0e0e0" stroke="#999999" points="743.5,-200 703.5,-200 703.5,-180 743.5,-180 743.5,-200"/>
<text text-anchor="middle" x="723.5" y="-186.5" font-family="Helvetica,sans-Serif" font-size="10.00">ctime</text>
</a>
</g>
</g>
<!-- Node1&#45;&gt;Node22 -->
<g id="edge33_Node000001_Node000022" class="edge">
<title>Node1&#45;&gt;Node22</title>
<g id="a_edge33_Node000001_Node000022"><a xlink:title=" ">
<path fill="none" stroke="#63b8ff" d="M585.59,-235.59C615.42,-225.95 661.66,-211 692.26,-201.1"/>
<polygon fill="#63b8ff" stroke="#63b8ff" points="693.27,-204.45 701.71,-198.05 691.12,-197.79 693.27,-204.45"/>
</a>
</g>
</g>
<!-- Node23 -->
<g id="Node000023" class="node">
<title>Node23</title>
<g id="a_Node000023"><a xlink:title=" ">
<polygon fill="#e0e0e0" stroke="#999999" points="807.12,-200 761.88,-200 761.88,-180 807.12,-180 807.12,-200"/>
<text text-anchor="middle" x="784.5" y="-186.5" font-family="Helvetica,sans-Serif" font-size="10.00">cstring</text>
</a>
</g>
</g>
<!-- Node1&#45;&gt;Node23 -->
<g id="edge34_Node000001_Node000023" class="edge">
<title>Node1&#45;&gt;Node23</title>
<g id="a_edge34_Node000001_Node000023"><a xlink:title=" ">
<path fill="none" stroke="#63b8ff" d="M600.63,-235.51C638.04,-227.32 693.37,-214.88 750.42,-200.44"/>
<polygon fill="#63b8ff" stroke="#63b8ff" points="751.17,-203.86 760,-198 749.44,-197.08 751.17,-203.86"/>
</a>
</g>
</g>
<!-- Node24 -->
<g id="Node000024" class="node">
<title>Node24</title>
<g id="a_Node000024"><a xlink:href="_d_s3231_8h.html" target="_top" xlink:title=" ">
<polygon fill="white" stroke="#666666" points="855.25,-138 795.75,-138 795.75,-118 855.25,-118 855.25,-138"/>
<text text-anchor="middle" x="825.5" y="-124.5" font-family="Helvetica,sans-Serif" font-size="10.00">DS3231.h</text>
</a>
</g>
</g>
<!-- Node1&#45;&gt;Node24 -->
<g id="edge35_Node000001_Node000024" class="edge">
<title>Node1&#45;&gt;Node24</title>
<g id="a_edge35_Node000001_Node000024"><a xlink:title=" ">
<path fill="none" stroke="#63b8ff" d="M561.73,-235.82C570.36,-221.53 589.02,-194.13 612.5,-180 674.21,-142.86 700.63,-161.48 770.5,-144 775.04,-142.87 779.77,-141.64 784.48,-140.39"/>
<polygon fill="#63b8ff" stroke="#63b8ff" points="785.09,-143.85 793.84,-137.88 783.27,-137.09 785.09,-143.85"/>
</a>
</g>
</g>
<!-- Node27 -->
<g id="Node000027" class="node">
<title>Node27</title>
<g id="a_Node000027"><a xlink:title=" ">
<polygon fill="#e0e0e0" stroke="#999999" points="876.12,-200 824.88,-200 824.88,-180 876.12,-180 876.12,-200"/>
<text text-anchor="middle" x="850.5" y="-186.5" font-family="Helvetica,sans-Serif" font-size="10.00">sstream</text>
</a>
</g>
</g>
<!-- Node1&#45;&gt;Node27 -->
<g id="edge42_Node000001_Node000027" class="edge">
<title>Node1&#45;&gt;Node27</title>
<g id="a_edge42_Node000001_Node000027"><a xlink:title=" ">
<path fill="none" stroke="#63b8ff" d="M620.38,-235.54C670.62,-227.74 742.59,-215.76 813.64,-200.49"/>
<polygon fill="#63b8ff" stroke="#63b8ff" points="814.06,-203.98 823.09,-198.44 812.57,-197.14 814.06,-203.98"/>
</a>
</g>
</g>
<!-- Node3 -->
<g id="Node000003" class="node">
<title>Node3</title>
<g id="a_Node000003"><a xlink:title=" ">
<polygon fill="#e0e0e0" stroke="#999999" points="414.5,-76 374.5,-76 374.5,-56 414.5,-56 414.5,-76"/>
<text text-anchor="middle" x="394.5" y="-62.5" font-family="Helvetica,sans-Serif" font-size="10.00">string</text>
</a>
</g>
</g>
<!-- Node2&#45;&gt;Node3 -->
<g id="edge2_Node000002_Node000003" class="edge">
<title>Node2&#45;&gt;Node3</title>
<g id="a_edge2_Node000002_Node000003"><a xlink:title=" ">
<path fill="none" stroke="#63b8ff" d="M244.77,-179.6C232.76,-171.8 217.49,-159.5 210.5,-144 204.65,-131.04 201.72,-123.19 210.5,-112 229.12,-88.27 315.55,-75.44 363.03,-70.08"/>
<polygon fill="#63b8ff" stroke="#63b8ff" points="363.13,-73.59 372.7,-69.03 362.38,-66.63 363.13,-73.59"/>
</a>
</g>
</g>
<!-- Node4 -->
<g id="Node000004" class="node">
<title>Node4</title>
<g id="a_Node000004"><a xlink:title=" ">
<polygon fill="#e0e0e0" stroke="#999999" points="303.25,-138 219.75,-138 219.75,-118 303.25,-118 303.25,-138"/>
<text text-anchor="middle" x="261.5" y="-124.5" font-family="Helvetica,sans-Serif" font-size="10.00">hardware/uart.h</text>
</a>
</g>
</g>
<!-- Node2&#45;&gt;Node4 -->
<g id="edge3_Node000002_Node000004" class="edge">
<title>Node2&#45;&gt;Node4</title>
<g id="a_edge3_Node000002_Node000004"><a xlink:title=" ">
<path fill="none" stroke="#63b8ff" d="M261.5,-179.62C261.5,-171.56 261.5,-159.65 261.5,-149.41"/>
<polygon fill="#63b8ff" stroke="#63b8ff" points="265,-149.63 261.5,-139.63 258,-149.63 265,-149.63"/>
</a>
</g>
</g>
<!-- Node2&#45;&gt;Node5 -->
<g id="edge4_Node000002_Node000005" class="edge">
<title>Node2&#45;&gt;Node5</title>
<g id="a_edge4_Node000002_Node000005"><a xlink:title=" ">
<path fill="none" stroke="#63b8ff" d="M236.66,-179.62C214.68,-171.33 181.91,-158.96 154.25,-148.53"/>
<polygon fill="#63b8ff" stroke="#63b8ff" points="155.56,-145.28 144.97,-145.02 153.09,-151.83 155.56,-145.28"/>
</a>
</g>
</g>
<!-- Node8 -->
<g id="Node000008" class="node">
<title>Node8</title>
<g id="a_Node000008"><a xlink:href="pin__config_8h.html" target="_top" xlink:title=" ">
<polygon fill="white" stroke="#666666" points="389.75,-138 321.25,-138 321.25,-118 389.75,-118 389.75,-138"/>
<text text-anchor="middle" x="355.5" y="-124.5" font-family="Helvetica,sans-Serif" font-size="10.00">pin_config.h</text>
</a>
</g>
</g>
<!-- Node2&#45;&gt;Node8 -->
<g id="edge8_Node000002_Node000008" class="edge">
<title>Node2&#45;&gt;Node8</title>
<g id="a_edge8_Node000002_Node000008"><a xlink:title=" ">
<path fill="none" stroke="#63b8ff" d="M276.19,-179.62C290.95,-170.2 313.95,-155.52 331.39,-144.39"/>
<polygon fill="#63b8ff" stroke="#63b8ff" points="333.09,-147.45 339.64,-139.12 329.33,-141.55 333.09,-147.45"/>
</a>
</g>
</g>
<!-- Node5&#45;&gt;Node3 -->
<g id="edge6_Node000005_Node000003" class="edge">
<title>Node5&#45;&gt;Node3</title>
<g id="a_edge6_Node000005_Node000003"><a xlink:title=" ">
<path fill="none" stroke="#63b8ff" d="M163.71,-114.42C224.61,-101.91 315.62,-83.21 363.11,-73.45"/>
<polygon fill="#63b8ff" stroke="#63b8ff" points="363.63,-76.92 372.72,-71.48 362.22,-70.06 363.63,-76.92"/>
</a>
</g>
</g>
<!-- Node5&#45;&gt;Node6 -->
<g id="edge5_Node000005_Node000006" class="edge">
<title>Node5&#45;&gt;Node6</title>
<g id="a_edge5_Node000005_Node000006"><a xlink:title=" ">
<path fill="none" stroke="#63b8ff" d="M81.64,-111.55C69.92,-102.87 55.31,-92.04 43.42,-83.24"/>
<polygon fill="#63b8ff" stroke="#63b8ff" points="45.54,-80.45 35.42,-77.31 41.37,-86.07 45.54,-80.45"/>
</a>
</g>
</g>
<!-- Node7 -->
<g id="Node000007" class="node">
<title>Node7</title>
<g id="a_Node000007"><a xlink:title=" ">
<polygon fill="#e0e0e0" stroke="#999999" points="135.62,-76 69.38,-76 69.38,-56 135.62,-56 135.62,-76"/>
<text text-anchor="middle" x="102.5" y="-62.5" font-family="Helvetica,sans-Serif" font-size="10.00">pico/sync.h</text>
</a>
</g>
</g>
<!-- Node5&#45;&gt;Node7 -->
<g id="edge7_Node000005_Node000007" class="edge">
<title>Node5&#45;&gt;Node7</title>
<g id="a_edge7_Node000005_Node000007"><a xlink:title=" ">
<path fill="none" stroke="#63b8ff" d="M102.5,-111.55C102.5,-104.34 102.5,-95.66 102.5,-87.88"/>
<polygon fill="#63b8ff" stroke="#63b8ff" points="106,-87.92 102.5,-77.92 99,-87.92 106,-87.92"/>
</a>
</g>
</g>
<!-- Node9 -->
<g id="Node000009" class="node">
<title>Node9</title>
<g id="a_Node000009"><a xlink:title=" ">
<polygon fill="#e0e0e0" stroke="#999999" points="404.62,-20 356.38,-20 356.38,0 404.62,0 404.62,-20"/>
<text text-anchor="middle" x="380.5" y="-6.5" font-family="Helvetica,sans-Serif" font-size="10.00">stdint.h</text>
</a>
</g>
</g>
<!-- Node8&#45;&gt;Node9 -->
<g id="edge9_Node000008_Node000009" class="edge">
<title>Node8&#45;&gt;Node9</title>
<g id="a_edge9_Node000008_Node000009"><a xlink:title=" ">
<path fill="none" stroke="#63b8ff" d="M356.27,-117.71C357.51,-104.05 360.37,-77.81 365.5,-56 367.48,-47.59 370.35,-38.51 373.06,-30.73"/>
<polygon fill="#63b8ff" stroke="#63b8ff" points="376.26,-32.18 376.38,-21.59 369.68,-29.79 376.26,-32.18"/>
</a>
</g>
</g>
<!-- Node10&#45;&gt;Node3 -->
<g id="edge12_Node000010_Node000003" class="edge">
<title>Node10&#45;&gt;Node3</title>
<g id="a_edge12_Node000010_Node000003"><a xlink:title=" ">
<path fill="none" stroke="#63b8ff" d="M423.17,-179.83C418.21,-160.31 406.51,-114.25 399.68,-87.4"/>
<polygon fill="#63b8ff" stroke="#63b8ff" points="403.08,-86.57 397.23,-77.74 396.3,-88.3 403.08,-86.57"/>
</a>
</g>
</g>
<!-- Node10&#45;&gt;Node4 -->
<g id="edge14_Node000010_Node000004" class="edge">
<title>Node10&#45;&gt;Node4</title>
<g id="a_edge14_Node000010_Node000004"><a xlink:title=" ">
<path fill="none" stroke="#63b8ff" d="M404.06,-181.16C377.07,-171.28 330.3,-154.17 297.72,-142.25"/>
<polygon fill="#63b8ff" stroke="#63b8ff" points="299.28,-139.1 288.69,-138.95 296.88,-145.67 299.28,-139.1"/>
</a>
</g>
</g>
<!-- Node10&#45;&gt;Node8 -->
<g id="edge15_Node000010_Node000008" class="edge">
<title>Node10&#45;&gt;Node8</title>
<g id="a_edge15_Node000010_Node000008"><a xlink:title=" ">
<path fill="none" stroke="#63b8ff" d="M414.56,-179.62C403.92,-170.5 387.52,-156.45 374.7,-145.46"/>
<polygon fill="#63b8ff" stroke="#63b8ff" points="377.15,-142.95 367.28,-139.1 372.6,-148.26 377.15,-142.95"/>
</a>
</g>
</g>
<!-- Node11 -->
<g id="Node000011" class="node">
<title>Node11</title>
<g id="a_Node000011"><a xlink:title=" ">
<polygon fill="#e0e0e0" stroke="#999999" points="491.12,-138 445.88,-138 445.88,-118 491.12,-118 491.12,-138"/>
<text text-anchor="middle" x="468.5" y="-124.5" font-family="Helvetica,sans-Serif" font-size="10.00">stdio.h</text>
</a>
</g>
</g>
<!-- Node10&#45;&gt;Node11 -->
<g id="edge11_Node000010_Node000011" class="edge">
<title>Node10&#45;&gt;Node11</title>
<g id="a_edge11_Node000010_Node000011"><a xlink:title=" ">
<path fill="none" stroke="#63b8ff" d="M432.22,-179.62C438.38,-171.03 447.67,-158.07 455.31,-147.41"/>
<polygon fill="#63b8ff" stroke="#63b8ff" points="458.11,-149.51 461.09,-139.34 452.42,-145.43 458.11,-149.51"/>
</a>
</g>
</g>
<!-- Node12 -->
<g id="Node000012" class="node">
<title>Node12</title>
<g id="a_Node000012"><a xlink:title=" ">
<polygon fill="#e0e0e0" stroke="#999999" points="713.75,-76 645.25,-76 645.25,-56 713.75,-56 713.75,-76"/>
<text text-anchor="middle" x="679.5" y="-62.5" font-family="Helvetica,sans-Serif" font-size="10.00">pico/stdlib.h</text>
</a>
</g>
</g>
<!-- Node10&#45;&gt;Node12 -->
<g id="edge13_Node000010_Node000012" class="edge">
<title>Node10&#45;&gt;Node12</title>
<g id="a_edge13_Node000010_Node000012"><a xlink:title=" ">
<path fill="none" stroke="#63b8ff" d="M447.07,-184.04C453.03,-182.7 459.51,-181.27 465.5,-180 545.74,-163 582.78,-195.65 646.5,-144 663.86,-129.93 672.27,-105.02 676.22,-87.34"/>
<polygon fill="#63b8ff" stroke="#63b8ff" points="679.61,-88.21 678.05,-77.73 672.74,-86.9 679.61,-88.21"/>
</a>
</g>
</g>
<!-- Node14&#45;&gt;Node3 -->
<g id="edge30_Node000014_Node000003" class="edge">
<title>Node14&#45;&gt;Node3</title>
<g id="a_edge30_Node000014_Node000003"><a xlink:title=" ">
<path fill="none" stroke="#63b8ff" d="M519.74,-179.51C519.64,-163.65 517.2,-131.6 500.5,-112 490.36,-100.1 453.03,-85.94 425.52,-76.72"/>
<polygon fill="#63b8ff" stroke="#63b8ff" points="426.84,-73.47 416.25,-73.69 424.66,-80.12 426.84,-73.47"/>
</a>
</g>
</g>
<!-- Node15 -->
<g id="Node000015" class="node">
<title>Node15</title>
<g id="a_Node000015"><a xlink:href="_power_manager_8h.html" target="_top" xlink:title=" ">
<polygon fill="white" stroke="#666666" points="637.25,-138 547.75,-138 547.75,-118 637.25,-118 637.25,-138"/>
<text text-anchor="middle" x="592.5" y="-124.5" font-family="Helvetica,sans-Serif" font-size="10.00">PowerManager.h</text>
</a>
</g>
</g>
<!-- Node14&#45;&gt;Node15 -->
<g id="edge19_Node000014_Node000015" class="edge">
<title>Node14&#45;&gt;Node15</title>
<g id="a_edge19_Node000014_Node000015"><a xlink:title=" ">
<path fill="none" stroke="#63b8ff" d="M530.91,-179.62C542.11,-170.41 559.44,-156.17 572.87,-145.14"/>
<polygon fill="#63b8ff" stroke="#63b8ff" points="574.74,-148.13 580.24,-139.07 570.3,-142.72 574.74,-148.13"/>
</a>
</g>
</g>
<!-- Node20 -->
<g id="Node000020" class="node">
<title>Node20</title>
<g id="a_Node000020"><a xlink:title=" ">
<polygon fill="#e0e0e0" stroke="#999999" points="803.62,-76 731.38,-76 731.38,-56 803.62,-56 803.62,-76"/>
<text text-anchor="middle" x="767.5" y="-62.5" font-family="Helvetica,sans-Serif" font-size="10.00">pico/mutex.h</text>
</a>
</g>
</g>
<!-- Node14&#45;&gt;Node20 -->
<g id="edge31_Node000014_Node000020" class="edge">
<title>Node14&#45;&gt;Node20</title>
<g id="a_edge31_Node000014_Node000020"><a xlink:title=" ">
<path fill="none" stroke="#63b8ff" d="M565.24,-181.3C630.14,-170.2 741.86,-150.33 748.5,-144 763.58,-129.62 767.47,-105.33 768.13,-87.87"/>
<polygon fill="#63b8ff" stroke="#63b8ff" points="771.63,-87.89 768.15,-77.89 764.63,-87.88 771.63,-87.89"/>
</a>
</g>
</g>
<!-- Node21 -->
<g id="Node000021" class="node">
<title>Node21</title>
<g id="a_Node000021"><a xlink:title=" ">
<polygon fill="#e0e0e0" stroke="#999999" points="739.12,-138 693.88,-138 693.88,-118 739.12,-118 739.12,-138"/>
<text text-anchor="middle" x="716.5" y="-124.5" font-family="Helvetica,sans-Serif" font-size="10.00">cstdint</text>
</a>
</g>
</g>
<!-- Node14&#45;&gt;Node21 -->
<g id="edge29_Node000014_Node000021" class="edge">
<title>Node14&#45;&gt;Node21</title>
<g id="a_edge29_Node000014_Node000021"><a xlink:title=" ">
<path fill="none" stroke="#63b8ff" d="M557.69,-179.53C590.34,-171.14 638.41,-158.06 679.5,-144 680.86,-143.53 682.25,-143.04 683.65,-142.54"/>
<polygon fill="#63b8ff" stroke="#63b8ff" points="684.84,-145.83 692.93,-138.99 682.34,-139.29 684.84,-145.83"/>
</a>
</g>
</g>
<!-- Node15&#45;&gt;Node3 -->
<g id="edge25_Node000015_Node000003" class="edge">
<title>Node15&#45;&gt;Node3</title>
<g id="a_edge25_Node000015_Node000003"><a xlink:title=" ">
<path fill="none" stroke="#63b8ff" d="M561.02,-117.58C529.25,-108.06 478.5,-92.79 425.71,-76.66"/>
<polygon fill="#63b8ff" stroke="#63b8ff" points="426.81,-73.34 416.22,-73.76 424.76,-80.03 426.81,-73.34"/>
</a>
</g>
</g>
<!-- Node15&#45;&gt;Node12 -->
<g id="edge27_Node000015_Node000012" class="edge">
<title>Node15&#45;&gt;Node12</title>
<g id="a_edge27_Node000015_Node000012"><a xlink:title=" ">
<path fill="none" stroke="#63b8ff" d="M606.09,-117.62C619.63,-108.29 640.65,-93.79 656.74,-82.7"/>
<polygon fill="#63b8ff" stroke="#63b8ff" points="658.51,-85.73 664.76,-77.17 654.54,-79.96 658.51,-85.73"/>
</a>
</g>
</g>
<!-- Node16 -->
<g id="Node000016" class="node">
<title>Node16</title>
<g id="a_Node000016"><a xlink:href="_i_n_a3221_8h.html" target="_top" xlink:title=" ">
<polygon fill="white" stroke="#666666" points="536.38,-76 432.62,-76 432.62,-56 536.38,-56 536.38,-76"/>
<text text-anchor="middle" x="484.5" y="-62.5" font-family="Helvetica,sans-Serif" font-size="10.00">INA3221/INA3221.h</text>
</a>
</g>
</g>
<!-- Node15&#45;&gt;Node16 -->
<g id="edge20_Node000015_Node000016" class="edge">
<title>Node15&#45;&gt;Node16</title>
<g id="a_edge20_Node000015_Node000016"><a xlink:title=" ">
<path fill="none" stroke="#63b8ff" d="M575.62,-117.62C558.35,-108.03 531.24,-92.97 511.08,-81.77"/>
<polygon fill="#63b8ff" stroke="#63b8ff" points="513.02,-78.84 502.58,-77.04 509.62,-84.96 513.02,-78.84"/>
</a>
</g>
</g>
<!-- Node18 -->
<g id="Node000018" class="node">
<title>Node18</title>
<g id="a_Node000018"><a xlink:title=" ">
<polygon fill="#e0e0e0" stroke="#999999" points="606.38,-20 526.62,-20 526.62,0 606.38,0 606.38,-20"/>
<text text-anchor="middle" x="566.5" y="-6.5" font-family="Helvetica,sans-Serif" font-size="10.00">hardware/i2c.h</text>
</a>
</g>
</g>
<!-- Node15&#45;&gt;Node18 -->
<g id="edge26_Node000015_Node000018" class="edge">
<title>Node15&#45;&gt;Node18</title>
<g id="a_edge26_Node000015_Node000018"><a xlink:title=" ">
<path fill="none" stroke="#63b8ff" d="M590.37,-117.51C586.18,-98.81 576.77,-56.82 571.1,-31.51"/>
<polygon fill="#63b8ff" stroke="#63b8ff" points="574.52,-30.77 568.92,-21.78 567.69,-32.3 574.52,-30.77"/>
</a>
</g>
</g>
<!-- Node19 -->
<g id="Node000019" class="node">
<title>Node19</title>
<g id="a_Node000019"><a xlink:title=" ">
<polygon fill="#e0e0e0" stroke="#999999" points="626.88,-76 592.12,-76 592.12,-56 626.88,-56 626.88,-76"/>
<text text-anchor="middle" x="609.5" y="-62.5" font-family="Helvetica,sans-Serif" font-size="10.00">map</text>
</a>
</g>
</g>
<!-- Node15&#45;&gt;Node19 -->
<g id="edge24_Node000015_Node000019" class="edge">
<title>Node15&#45;&gt;Node19</title>
<g id="a_edge24_Node000015_Node000019"><a xlink:title=" ">
<path fill="none" stroke="#63b8ff" d="M595.16,-117.62C597.47,-109.48 600.89,-97.39 603.81,-87.07"/>
<polygon fill="#63b8ff" stroke="#63b8ff" points="607.15,-88.14 606.51,-77.57 600.41,-86.24 607.15,-88.14"/>
</a>
</g>
</g>
<!-- Node15&#45;&gt;Node20 -->
<g id="edge28_Node000015_Node000020" class="edge">
<title>Node15&#45;&gt;Node20</title>
<g id="a_edge28_Node000015_Node000020"><a xlink:title=" ">
<path fill="none" stroke="#63b8ff" d="M619.84,-117.62C649.29,-107.53 696.37,-91.39 729.43,-80.05"/>
<polygon fill="#63b8ff" stroke="#63b8ff" points="730.3,-83.45 738.63,-76.9 728.03,-76.83 730.3,-83.45"/>
</a>
</g>
</g>
<!-- Node16&#45;&gt;Node9 -->
<g id="edge21_Node000016_Node000009" class="edge">
<title>Node16&#45;&gt;Node9</title>
<g id="a_edge21_Node000016_Node000009"><a xlink:title=" ">
<path fill="none" stroke="#63b8ff" d="M466.38,-55.59C450.53,-47.36 427.22,-35.26 408.88,-25.74"/>
<polygon fill="#63b8ff" stroke="#63b8ff" points="410.59,-22.68 400.1,-21.18 407.36,-28.89 410.59,-22.68"/>
</a>
</g>
</g>
<!-- Node17 -->
<g id="Node000017" class="node">
<title>Node17</title>
<g id="a_Node000017"><a xlink:title=" ">
<polygon fill="#e0e0e0" stroke="#999999" points="508.25,-20 454.75,-20 454.75,0 508.25,0 508.25,-20"/>
<text text-anchor="middle" x="481.5" y="-6.5" font-family="Helvetica,sans-Serif" font-size="10.00">iostream</text>
</a>
</g>
</g>
<!-- Node16&#45;&gt;Node17 -->
<g id="edge22_Node000016_Node000017" class="edge">
<title>Node16&#45;&gt;Node17</title>
<g id="a_edge22_Node000016_Node000017"><a xlink:title=" ">
<path fill="none" stroke="#63b8ff" d="M483.98,-55.59C483.61,-49.01 483.11,-39.96 482.65,-31.73"/>
<polygon fill="#63b8ff" stroke="#63b8ff" points="486.15,-31.6 482.1,-21.81 479.16,-31.99 486.15,-31.6"/>
</a>
</g>
</g>
<!-- Node16&#45;&gt;Node18 -->
<g id="edge23_Node000016_Node000018" class="edge">
<title>Node16&#45;&gt;Node18</title>
<g id="a_edge23_Node000016_Node000018"><a xlink:title=" ">
<path fill="none" stroke="#63b8ff" d="M498.78,-55.59C510.94,-47.59 528.64,-35.93 542.9,-26.54"/>
<polygon fill="#63b8ff" stroke="#63b8ff" points="544.41,-29.73 550.84,-21.31 540.56,-23.89 544.41,-29.73"/>
</a>
</g>
</g>
<!-- Node24&#45;&gt;Node3 -->
<g id="edge36_Node000024_Node000003" class="edge">
<title>Node24&#45;&gt;Node3</title>
<g id="a_edge36_Node000024_Node000003"><a xlink:title=" ">
<path fill="none" stroke="#63b8ff" d="M795.61,-120.59C781.39,-117.69 764.12,-114.38 748.5,-112 608.48,-90.64 567.82,-104.9 426.24,-76.21"/>
<polygon fill="#63b8ff" stroke="#63b8ff" points="426.95,-72.79 416.45,-74.19 425.53,-79.64 426.95,-72.79"/>
</a>
</g>
</g>
<!-- Node24&#45;&gt;Node12 -->
<g id="edge38_Node000024_Node000012" class="edge">
<title>Node24&#45;&gt;Node12</title>
<g id="a_edge38_Node000024_Node000012"><a xlink:title=" ">
<path fill="none" stroke="#63b8ff" d="M802.69,-117.62C778.47,-107.67 739.98,-91.85 712.47,-80.55"/>
<polygon fill="#63b8ff" stroke="#63b8ff" points="714.13,-77.45 703.55,-76.88 711.47,-83.92 714.13,-77.45"/>
</a>
</g>
</g>
<!-- Node24&#45;&gt;Node18 -->
<g id="edge39_Node000024_Node000018" class="edge">
<title>Node24&#45;&gt;Node18</title>
<g id="a_edge39_Node000024_Node000018"><a xlink:title=" ">
<path fill="none" stroke="#63b8ff" d="M826.81,-117.67C828.38,-102.49 828.98,-72.48 812.5,-56 785.84,-29.34 682.11,-18.14 618.17,-13.7"/>
<polygon fill="#63b8ff" stroke="#63b8ff" points="618.44,-10.21 608.23,-13.04 617.98,-17.19 618.44,-10.21"/>
</a>
</g>
</g>
<!-- Node24&#45;&gt;Node20 -->
<g id="edge41_Node000024_Node000020" class="edge">
<title>Node24&#45;&gt;Node20</title>
<g id="a_edge41_Node000024_Node000020"><a xlink:title=" ">
<path fill="none" stroke="#63b8ff" d="M816.44,-117.62C807.79,-108.68 794.56,-94.99 784.03,-84.1"/>
<polygon fill="#63b8ff" stroke="#63b8ff" points="786.83,-81.96 777.36,-77.2 781.79,-86.82 786.83,-81.96"/>
</a>
</g>
</g>
<!-- Node25 -->
<g id="Node000025" class="node">
<title>Node25</title>
<g id="a_Node000025"><a xlink:title=" ">
<polygon fill="#e0e0e0" stroke="#999999" points="897.38,-76 859.62,-76 859.62,-56 897.38,-56 897.38,-76"/>
<text text-anchor="middle" x="878.5" y="-62.5" font-family="Helvetica,sans-Serif" font-size="10.00">array</text>
</a>
</g>
</g>
<!-- Node24&#45;&gt;Node25 -->
<g id="edge37_Node000024_Node000025" class="edge">
<title>Node24&#45;&gt;Node25</title>
<g id="a_edge37_Node000024_Node000025"><a xlink:title=" ">
<path fill="none" stroke="#63b8ff" d="M833.78,-117.62C841.61,-108.77 853.54,-95.26 863.11,-84.43"/>
<polygon fill="#63b8ff" stroke="#63b8ff" points="865.45,-87.06 869.45,-77.25 860.2,-82.42 865.45,-87.06"/>
</a>
</g>
</g>
<!-- Node26 -->
<g id="Node000026" class="node">
<title>Node26</title>
<g id="a_Node000026"><a xlink:title=" ">
<polygon fill="#e0e0e0" stroke="#999999" points="958,-76 915,-76 915,-56 958,-56 958,-76"/>
<text text-anchor="middle" x="936.5" y="-62.5" font-family="Helvetica,sans-Serif" font-size="10.00">time.h</text>
</a>
</g>
</g>
<!-- Node24&#45;&gt;Node26 -->
<g id="edge40_Node000024_Node000026" class="edge">
<title>Node24&#45;&gt;Node26</title>
<g id="a_edge40_Node000024_Node000026"><a xlink:title=" ">
<path fill="none" stroke="#63b8ff" d="M842.84,-117.62C860.6,-108.03 888.46,-92.97 909.18,-81.77"/>
<polygon fill="#63b8ff" stroke="#63b8ff" points="910.81,-84.86 917.95,-77.03 907.49,-78.71 910.81,-84.86"/>
</a>
</g>
</g>
</g>
</svg>
