<?xml version="1.0" encoding="UTF-8" standalone="no"?>
<!DOCTYPE svg PUBLIC "-//W3C//DTD SVG 1.1//EN"
 "http://www.w3.org/Graphics/SVG/1.1/DTD/svg11.dtd">
<!-- Generated by graphviz version 12.2.1 (20241206.2353)
 -->
<!-- Title: splitString Pages: 1 -->
<svg width="369pt" height="28pt"
 viewBox="0.00 0.00 369.00 28.00" xmlns="http://www.w3.org/2000/svg" xmlns:xlink="http://www.w3.org/1999/xlink">
<g id="graph0" class="graph" transform="scale(1 1) rotate(0) translate(4 24)">
<title>splitString</title>
<!-- Node1 -->
<g id="Node000001" class="node">
<title>Node1</title>
<g id="a_Node000001"><a xlink:title=" ">
<polygon fill="#999999" stroke="#666666" points="361,-20 301.5,-20 301.5,0 361,0 361,-20"/>
<text text-anchor="middle" x="331.25" y="-6.5" font-family="Helvetica,sans-Serif" font-size="10.00">splitString</text>
</a>
</g>
</g>
<!-- Node2 -->
<g id="Node000002" class="node">
<title>Node2</title>
<g id="a_Node000002"><a xlink:href="gps__collector_8cpp.html#ab15765c10e67396e1684c586b3f65345" target="_top" xlink:title=" ">
<polygon fill="white" stroke="#666666" points="265.5,-20 176,-20 176,0 265.5,0 265.5,-20"/>
<text text-anchor="middle" x="220.75" y="-6.5" font-family="Helvetica,sans-Serif" font-size="10.00">collect_gps_data</text>
</a>
</g>
</g>
<!-- Node1&#45;&gt;Node2 -->
<g id="edge1_Node000001_Node000002" class="edge">
<title>Node1&#45;&gt;Node2</title>
<g id="a_edge1_Node000001_Node000002"><a xlink:title=" ">
<path fill="none" stroke="#63b8ff" d="M289.67,-10C281.82,-10 273.56,-10 265.61,-10"/>
<polygon fill="#63b8ff" stroke="#63b8ff" points="289.66,-13.5 299.66,-10 289.66,-6.5 289.66,-13.5"/>
</a>
</g>
</g>
<!-- Node3 -->
<g id="Node000003" class="node">
<title>Node3</title>
<g id="a_Node000003"><a xlink:href="main_8cpp.html#a9f153132b8b4afad133b952111e18bd9" target="_top" xlink:title=" ">
<polygon fill="white" stroke="#666666" points="140,-20 73,-20 73,0 140,0 140,-20"/>
<text text-anchor="middle" x="106.5" y="-6.5" font-family="Helvetica,sans-Serif" font-size="10.00">core1_entry</text>
</a>
</g>
</g>
<!-- Node2&#45;&gt;Node3 -->
<g id="edge2_Node000002_Node000003" class="edge">
<title>Node2&#45;&gt;Node3</title>
<g id="a_edge2_Node000002_Node000003"><a xlink:title=" ">
<path fill="none" stroke="#63b8ff" d="M164.22,-10C156.03,-10 147.83,-10 140.31,-10"/>
<polygon fill="#63b8ff" stroke="#63b8ff" points="164.19,-13.5 174.19,-10 164.19,-6.5 164.19,-13.5"/>
</a>
</g>
</g>
<!-- Node4 -->
<g id="Node000004" class="node">
<title>Node4</title>
<g id="a_Node000004"><a xlink:href="main_8cpp.html#ae66f6b31b5ad750f1fe042a706a4e3d4" target="_top" xlink:title=" ">
<polygon fill="white" stroke="#666666" points="37,-20 0,-20 0,0 37,0 37,-20"/>
<text text-anchor="middle" x="18.5" y="-6.5" font-family="Helvetica,sans-Serif" font-size="10.00">main</text>
</a>
</g>
</g>
<!-- Node3&#45;&gt;Node4 -->
<g id="edge3_Node000003_Node000004" class="edge">
<title>Node3&#45;&gt;Node4</title>
<g id="a_edge3_Node000003_Node000004"><a xlink:title=" ">
<path fill="none" stroke="#63b8ff" d="M61.64,-10C52.94,-10 44.29,-10 37.11,-10"/>
<polygon fill="#63b8ff" stroke="#63b8ff" points="61.47,-13.5 71.47,-10 61.47,-6.5 61.47,-13.5"/>
</a>
</g>
</g>
</g>
</svg>
