<?xml version="1.0" encoding="UTF-8" standalone="no"?>
<!DOCTYPE svg PUBLIC "-//W3C//DTD SVG 1.1//EN"
 "http://www.w3.org/Graphics/SVG/1.1/DTD/svg11.dtd">
<!-- Generated by graphviz version 12.2.1 (20241206.2353)
 -->
<!-- Title: lib/location/gps_collector.cpp Pages: 1 -->
<!--zoomable 264 -->

<svg id="main" version="1.1" xmlns="http://www.w3.org/2000/svg" xmlns:xlink="http://www.w3.org/1999/xlink" xml:space="preserve" onload="init(evt)">

<style type="text/css"><![CDATA[
.node, .edge {opacity: 0.7;}
.node.selected, .edge.selected {opacity: 1;}
.edge:hover path { stroke: red; }
.edge:hover polygon { stroke: red; fill: red; }
]]></style>

<defs>
  <circle id="rim" cx="0" cy="0" r="7"/>
  <circle id="rim2" cx="0" cy="0" r="3.5"/>
  <g id="zoomPlus">
    <use xlink:href="#rim" fill="#404040"><set attributeName="fill" to="#808080" begin="zoomplus.mouseover" end="zoomplus.mouseout"/></use>
    <path d="M-4,0h8M0,-4v8" fill="none" stroke="white" stroke-width="1.5" pointer-events="none"/>
  </g>
  <g id="zoomMin">
    <use xlink:href="#rim" fill="#404040"><set attributeName="fill" to="#808080" begin="zoomminus.mouseover" end="zoomminus.mouseout"/></use>
    <path d="M-4,0h8" fill="none" stroke="white" stroke-width="1.5" pointer-events="none"/>
  </g>
  <g id="arrowUp" transform="translate(30 24)">
    <use xlink:href="#rim"/>
    <path pointer-events="none" fill="none" stroke="white" stroke-width="1.5" d="M0,-3.0v7 M-2.5,-0.5L0,-3.0L2.5,-0.5"/>
  </g>
  <g id="arrowRight" transform="rotate(90) translate(36 -43)">
    <use xlink:href="#rim"/>
    <path pointer-events="none" fill="none" stroke="white" stroke-width="1.5" d="M0,-3.0v7 M-2.5,-0.5L0,-3.0L2.5,-0.5"/>
  </g>
  <g id="arrowDown" transform="rotate(180) translate(-30 -48)">
    <use xlink:href="#rim"/>
    <path pointer-events="none" fill="none" stroke="white" stroke-width="1.5" d="M0,-3.0v7 M-2.5,-0.5L0,-3.0L2.5,-0.5"/>
  </g>
  <g id="arrowLeft" transform="rotate(270) translate(-36 17)">
    <use xlink:href="#rim"/>
    <path pointer-events="none" fill="none" stroke="white" stroke-width="1.5" d="M0,-3.0v7 M-2.5,-0.5L0,-3.0L2.5,-0.5"/>
  </g>
  <g id="resetDef">
    <use xlink:href="#rim2" fill="#404040"><set attributeName="fill" to="#808080" begin="reset.mouseover" end="reset.mouseout"/></use>
  </g>
</defs>
<script type="application/ecmascript">
var viewWidth = 950;
var viewHeight = 264;
var sectionId = 'dynsection-0';
</script>
<script type="application/ecmascript" xlink:href="svg.min.js"/>
<svg id="graph" class="graph">
<g id="viewport">
<title>lib/location/gps_collector.cpp</title>
<!-- Node1 -->
<g id="Node000001" class="node">
<title>Node1</title>
<g id="a_Node000001"><a xlink:title=" ">
<polygon fill="#999999" stroke="#666666" points="627.5,-256 485.5,-256 485.5,-236 627.5,-236 627.5,-256"/>
<text text-anchor="middle" x="556.5" y="-242.5" font-family="Helvetica,sans-Serif" font-size="10.00">lib/location/gps_collector.cpp</text>
</a>
</g>
</g>
<!-- Node2 -->
<g id="Node000002" class="node">
<title>Node2</title>
<g id="a_Node000002"><a xlink:href="gps__collector_8h.html" target="_top" xlink:title=" ">
<polygon fill="white" stroke="#666666" points="319.25,-200 187.75,-200 187.75,-180 319.25,-180 319.25,-200"/>
<text text-anchor="middle" x="253.5" y="-186.5" font-family="Helvetica,sans-Serif" font-size="10.00">lib/location/gps_collector.h</text>
</a>
</g>
</g>
<!-- Node1&#45;&gt;Node2 -->
<g id="edge1_Node000001_Node000002" class="edge">
<title>Node1&#45;&gt;Node2</title>
<g id="a_edge1_Node000001_Node000002"><a xlink:title=" ">
<path fill="none" stroke="#63b8ff" d="M503.37,-235.53C451.61,-226.31 372.85,-212.27 317.63,-202.43"/>
<polygon fill="#63b8ff" stroke="#63b8ff" points="318.51,-199.03 308.05,-200.72 317.29,-205.92 318.51,-199.03"/>
</a>
</g>
</g>
<!-- Node5 -->
<g id="Node000005" class="node">
<title>Node5</title>
<g id="a_Node000005"><a xlink:href="_n_m_e_a__data_8h.html" target="_top" xlink:title=" ">
<polygon fill="white" stroke="#666666" points="163.38,-144 41.62,-144 41.62,-112 163.38,-112 163.38,-144"/>
<text text-anchor="start" x="49.62" y="-130.5" font-family="Helvetica,sans-Serif" font-size="10.00">lib/location/NMEA/nmea</text>
<text text-anchor="middle" x="102.5" y="-118.5" font-family="Helvetica,sans-Serif" font-size="10.00">_data.h</text>
</a>
</g>
</g>
<!-- Node1&#45;&gt;Node5 -->
<g id="edge17_Node000001_Node000005" class="edge">
<title>Node1&#45;&gt;Node5</title>
<g id="a_edge17_Node000001_Node000005"><a xlink:title=" ">
<path fill="none" stroke="#63b8ff" d="M485.08,-241.79C391.03,-236.65 231.39,-224.57 178.5,-200 155.56,-189.34 134.98,-169.09 121.03,-152.94"/>
<polygon fill="#63b8ff" stroke="#63b8ff" points="124.05,-151.09 114.96,-145.64 118.66,-155.57 124.05,-151.09"/>
</a>
</g>
</g>
<!-- Node6 -->
<g id="Node000006" class="node">
<title>Node6</title>
<g id="a_Node000006"><a xlink:title=" ">
<polygon fill="#e0e0e0" stroke="#999999" points="43,-76 0,-76 0,-56 43,-56 43,-76"/>
<text text-anchor="middle" x="21.5" y="-62.5" font-family="Helvetica,sans-Serif" font-size="10.00">vector</text>
</a>
</g>
</g>
<!-- Node1&#45;&gt;Node6 -->
<g id="edge32_Node000001_Node000006" class="edge">
<title>Node1&#45;&gt;Node6</title>
<g id="a_edge32_Node000001_Node000006"><a xlink:title=" ">
<path fill="none" stroke="#63b8ff" d="M485.05,-244.6C402.07,-242.45 261.85,-233.54 146.5,-200 92.3,-184.24 65.67,-189.68 32.5,-144 20.68,-127.72 18.89,-104.3 19.46,-87.57"/>
<polygon fill="#63b8ff" stroke="#63b8ff" points="22.94,-88.04 20.13,-77.82 15.96,-87.56 22.94,-88.04"/>
</a>
</g>
</g>
<!-- Node10 -->
<g id="Node000010" class="node">
<title>Node10</title>
<g id="a_Node000010"><a xlink:href="utils_8h.html" target="_top" xlink:title=" ">
<polygon fill="white" stroke="#666666" points="446.62,-200 404.38,-200 404.38,-180 446.62,-180 446.62,-200"/>
<text text-anchor="middle" x="425.5" y="-186.5" font-family="Helvetica,sans-Serif" font-size="10.00">utils.h</text>
</a>
</g>
</g>
<!-- Node1&#45;&gt;Node10 -->
<g id="edge10_Node000001_Node000010" class="edge">
<title>Node1&#45;&gt;Node10</title>
<g id="a_edge10_Node000001_Node000010"><a xlink:title=" ">
<path fill="none" stroke="#63b8ff" d="M533.68,-235.59C512.54,-226.88 480.91,-213.84 457.3,-204.11"/>
<polygon fill="#63b8ff" stroke="#63b8ff" points="458.74,-200.91 448.16,-200.34 456.07,-207.39 458.74,-200.91"/>
</a>
</g>
</g>
<!-- Node13 -->
<g id="Node000013" class="node">
<title>Node13</title>
<g id="a_Node000013"><a xlink:title=" ">
<polygon fill="#e0e0e0" stroke="#999999" points="685.5,-200 621.5,-200 621.5,-180 685.5,-180 685.5,-200"/>
<text text-anchor="middle" x="653.5" y="-186.5" font-family="Helvetica,sans-Serif" font-size="10.00">pico/time.h</text>
</a>
</g>
</g>
<!-- Node1&#45;&gt;Node13 -->
<g id="edge16_Node000001_Node000013" class="edge">
<title>Node1&#45;&gt;Node13</title>
<g id="a_edge16_Node000001_Node000013"><a xlink:title=" ">
<path fill="none" stroke="#63b8ff" d="M573.4,-235.59C588.05,-227.44 609.52,-215.48 626.55,-206"/>
<polygon fill="#63b8ff" stroke="#63b8ff" points="628.11,-209.14 635.15,-201.22 624.71,-203.02 628.11,-209.14"/>
</a>
</g>
</g>
<!-- Node14 -->
<g id="Node000014" class="node">
<title>Node14</title>
<g id="a_Node000014"><a xlink:href="event__manager_8h.html" target="_top" xlink:title=" ">
<polygon fill="white" stroke="#666666" points="565,-200 474,-200 474,-180 565,-180 565,-200"/>
<text text-anchor="middle" x="519.5" y="-186.5" font-family="Helvetica,sans-Serif" font-size="10.00">event_manager.h</text>
</a>
</g>
</g>
<!-- Node1&#45;&gt;Node14 -->
<g id="edge18_Node000001_Node000014" class="edge">
<title>Node1&#45;&gt;Node14</title>
<g id="a_edge18_Node000001_Node000014"><a xlink:title=" ">
<path fill="none" stroke="#63b8ff" d="M550.06,-235.59C545.17,-228.47 538.31,-218.45 532.32,-209.72"/>
<polygon fill="#63b8ff" stroke="#63b8ff" points="535.27,-207.82 526.73,-201.55 529.49,-211.77 535.27,-207.82"/>
</a>
</g>
</g>
<!-- Node22 -->
<g id="Node000022" class="node">
<title>Node22</title>
<g id="a_Node000022"><a xlink:title=" ">
<polygon fill="#e0e0e0" stroke="#999999" points="743.5,-200 703.5,-200 703.5,-180 743.5,-180 743.5,-200"/>
<text text-anchor="middle" x="723.5" y="-186.5" font-family="Helvetica,sans-Serif" font-size="10.00">ctime</text>
</a>
</g>
</g>
<!-- Node1&#45;&gt;Node22 -->
<g id="edge33_Node000001_Node000022" class="edge">
<title>Node1&#45;&gt;Node22</title>
<g id="a_edge33_Node000001_Node000022"><a xlink:title=" ">
<path fill="none" stroke="#63b8ff" d="M585.59,-235.59C615.42,-225.95 661.66,-211 692.26,-201.1"/>
<polygon fill="#63b8ff" stroke="#63b8ff" points="693.27,-204.45 701.71,-198.05 691.12,-197.79 693.27,-204.45"/>
</a>
</g>
</g>
<!-- Node23 -->
<g id="Node000023" class="node">
<title>Node23</title>
<g id="a_Node000023"><a xlink:title=" ">
<polygon fill="#e0e0e0" stroke="#999999" points="807.12,-200 761.88,-200 761.88,-180 807.12,-180 807.12,-200"/>
<text text-anchor="middle" x="784.5" y="-186.5" font-family="Helvetica,sans-Serif" font-size="10.00">cstring</text>
</a>
</g>
</g>
<!-- Node1&#45;&gt;Node23 -->
<g id="edge34_Node000001_Node000023" class="edge">
<title>Node1&#45;&gt;Node23</title>
<g id="a_edge34_Node000001_Node000023"><a xlink:title=" ">
<path fill="none" stroke="#63b8ff" d="M600.63,-235.51C638.04,-227.32 693.37,-214.88 750.42,-200.44"/>
<polygon fill="#63b8ff" stroke="#63b8ff" points="751.17,-203.86 760,-198 749.44,-197.08 751.17,-203.86"/>
</a>
</g>
</g>
<!-- Node24 -->
<g id="Node000024" class="node">
<title>Node24</title>
<g id="a_Node000024"><a xlink:href="_d_s3231_8h.html" target="_top" xlink:title=" ">
<polygon fill="white" stroke="#666666" points="855.25,-138 795.75,-138 795.75,-118 855.25,-118 855.25,-138"/>
<text text-anchor="middle" x="825.5" y="-124.5" font-family="Helvetica,sans-Serif" font-size="10.00">DS3231.h</text>
</a>
</g>
</g>
<!-- Node1&#45;&gt;Node24 -->
<g id="edge35_Node000001_Node000024" class="edge">
<title>Node1&#45;&gt;Node24</title>
<g id="a_edge35_Node000001_Node000024"><a xlink:title=" ">
<path fill="none" stroke="#63b8ff" d="M561.74,-235.84C570.39,-221.58 589.07,-194.22 612.5,-180 672.22,-143.76 697.61,-160.47 765.5,-144 771.57,-142.53 777.97,-140.95 784.25,-139.39"/>
<polygon fill="#63b8ff" stroke="#63b8ff" points="784.98,-142.82 793.84,-137 783.29,-136.03 784.98,-142.82"/>
</a>
</g>
</g>
<!-- Node27 -->
<g id="Node000027" class="node">
<title>Node27</title>
<g id="a_Node000027"><a xlink:title=" ">
<polygon fill="#e0e0e0" stroke="#999999" points="876.12,-200 824.88,-200 824.88,-180 876.12,-180 876.12,-200"/>
<text text-anchor="middle" x="850.5" y="-186.5" font-family="Helvetica,sans-Serif" font-size="10.00">sstream</text>
</a>
</g>
</g>
<!-- Node1&#45;&gt;Node27 -->
<g id="edge41_Node000001_Node000027" class="edge">
<title>Node1&#45;&gt;Node27</title>
<g id="a_edge41_Node000001_Node000027"><a xlink:title=" ">
<path fill="none" stroke="#63b8ff" d="M620.38,-235.54C670.62,-227.74 742.59,-215.76 813.64,-200.49"/>
<polygon fill="#63b8ff" stroke="#63b8ff" points="814.06,-203.98 823.09,-198.44 812.57,-197.14 814.06,-203.98"/>
</a>
</g>
</g>
<!-- Node3 -->
<g id="Node000003" class="node">
<title>Node3</title>
<g id="a_Node000003"><a xlink:title=" ">
<polygon fill="#e0e0e0" stroke="#999999" points="399.5,-76 359.5,-76 359.5,-56 399.5,-56 399.5,-76"/>
<text text-anchor="middle" x="379.5" y="-62.5" font-family="Helvetica,sans-Serif" font-size="10.00">string</text>
</a>
</g>
</g>
<!-- Node2&#45;&gt;Node3 -->
<g id="edge2_Node000002_Node000003" class="edge">
<title>Node2&#45;&gt;Node3</title>
<g id="a_edge2_Node000002_Node000003"><a xlink:title=" ">
<path fill="none" stroke="#63b8ff" d="M241.43,-179.7C223.38,-164.67 193.24,-134.46 210.5,-112 227.15,-90.33 303.94,-76.89 348.06,-70.81"/>
<polygon fill="#63b8ff" stroke="#63b8ff" points="348.35,-74.31 357.8,-69.53 347.43,-67.37 348.35,-74.31"/>
</a>
</g>
</g>
<!-- Node4 -->
<g id="Node000004" class="node">
<title>Node4</title>
<g id="a_Node000004"><a xlink:title=" ">
<polygon fill="#e0e0e0" stroke="#999999" points="389.25,-138 305.75,-138 305.75,-118 389.25,-118 389.25,-138"/>
<text text-anchor="middle" x="347.5" y="-124.5" font-family="Helvetica,sans-Serif" font-size="10.00">hardware/uart.h</text>
</a>
</g>
</g>
<!-- Node2&#45;&gt;Node4 -->
<g id="edge3_Node000002_Node000004" class="edge">
<title>Node2&#45;&gt;Node4</title>
<g id="a_edge3_Node000002_Node000004"><a xlink:title=" ">
<path fill="none" stroke="#63b8ff" d="M268.19,-179.62C282.95,-170.2 305.95,-155.52 323.39,-144.39"/>
<polygon fill="#63b8ff" stroke="#63b8ff" points="325.09,-147.45 331.64,-139.12 321.33,-141.55 325.09,-147.45"/>
</a>
</g>
</g>
<!-- Node2&#45;&gt;Node5 -->
<g id="edge4_Node000002_Node000005" class="edge">
<title>Node2&#45;&gt;Node5</title>
<g id="a_edge4_Node000002_Node000005"><a xlink:title=" ">
<path fill="none" stroke="#63b8ff" d="M229.91,-179.62C209.13,-171.37 178.19,-159.07 152,-148.67"/>
<polygon fill="#63b8ff" stroke="#63b8ff" points="153.48,-145.49 142.89,-145.05 150.89,-151.99 153.48,-145.49"/>
</a>
</g>
</g>
<!-- Node8 -->
<g id="Node000008" class="node">
<title>Node8</title>
<g id="a_Node000008"><a xlink:href="pin__config_8h.html" target="_top" xlink:title=" ">
<polygon fill="white" stroke="#666666" points="287.75,-138 219.25,-138 219.25,-118 287.75,-118 287.75,-138"/>
<text text-anchor="middle" x="253.5" y="-124.5" font-family="Helvetica,sans-Serif" font-size="10.00">pin_config.h</text>
</a>
</g>
</g>
<!-- Node2&#45;&gt;Node8 -->
<g id="edge8_Node000002_Node000008" class="edge">
<title>Node2&#45;&gt;Node8</title>
<g id="a_edge8_Node000002_Node000008"><a xlink:title=" ">
<path fill="none" stroke="#63b8ff" d="M253.5,-179.62C253.5,-171.56 253.5,-159.65 253.5,-149.41"/>
<polygon fill="#63b8ff" stroke="#63b8ff" points="257,-149.63 253.5,-139.63 250,-149.63 257,-149.63"/>
</a>
</g>
</g>
<!-- Node5&#45;&gt;Node3 -->
<g id="edge6_Node000005_Node000003" class="edge">
<title>Node5&#45;&gt;Node3</title>
<g id="a_edge6_Node000005_Node000003"><a xlink:title=" ">
<path fill="none" stroke="#63b8ff" d="M163.63,-113.76C220.67,-101.4 303.49,-83.46 348.14,-73.79"/>
<polygon fill="#63b8ff" stroke="#63b8ff" points="348.64,-77.26 357.68,-71.73 347.16,-70.42 348.64,-77.26"/>
</a>
</g>
</g>
<!-- Node5&#45;&gt;Node6 -->
<g id="edge5_Node000005_Node000006" class="edge">
<title>Node5&#45;&gt;Node6</title>
<g id="a_edge5_Node000005_Node000006"><a xlink:title=" ">
<path fill="none" stroke="#63b8ff" d="M81.64,-111.55C69.92,-102.87 55.31,-92.04 43.42,-83.24"/>
<polygon fill="#63b8ff" stroke="#63b8ff" points="45.54,-80.45 35.42,-77.31 41.37,-86.07 45.54,-80.45"/>
</a>
</g>
</g>
<!-- Node7 -->
<g id="Node000007" class="node">
<title>Node7</title>
<g id="a_Node000007"><a xlink:title=" ">
<polygon fill="#e0e0e0" stroke="#999999" points="135.62,-76 69.38,-76 69.38,-56 135.62,-56 135.62,-76"/>
<text text-anchor="middle" x="102.5" y="-62.5" font-family="Helvetica,sans-Serif" font-size="10.00">pico/sync.h</text>
</a>
</g>
</g>
<!-- Node5&#45;&gt;Node7 -->
<g id="edge7_Node000005_Node000007" class="edge">
<title>Node5&#45;&gt;Node7</title>
<g id="a_edge7_Node000005_Node000007"><a xlink:title=" ">
<path fill="none" stroke="#63b8ff" d="M102.5,-111.55C102.5,-104.34 102.5,-95.66 102.5,-87.88"/>
<polygon fill="#63b8ff" stroke="#63b8ff" points="106,-87.92 102.5,-77.92 99,-87.92 106,-87.92"/>
</a>
</g>
</g>
<!-- Node9 -->
<g id="Node000009" class="node">
<title>Node9</title>
<g id="a_Node000009"><a xlink:title=" ">
<polygon fill="#e0e0e0" stroke="#999999" points="415.62,-20 367.38,-20 367.38,0 415.62,0 415.62,-20"/>
<text text-anchor="middle" x="391.5" y="-6.5" font-family="Helvetica,sans-Serif" font-size="10.00">stdint.h</text>
</a>
</g>
</g>
<!-- Node8&#45;&gt;Node9 -->
<g id="edge9_Node000008_Node000009" class="edge">
<title>Node8&#45;&gt;Node9</title>
<g id="a_edge9_Node000008_Node000009"><a xlink:title=" ">
<path fill="none" stroke="#63b8ff" d="M264.79,-117.51C288.26,-97.78 342.54,-52.15 371.86,-27.51"/>
<polygon fill="#63b8ff" stroke="#63b8ff" points="373.88,-30.39 379.28,-21.27 369.37,-25.03 373.88,-30.39"/>
</a>
</g>
</g>
<!-- Node10&#45;&gt;Node3 -->
<g id="edge12_Node000010_Node000003" class="edge">
<title>Node10&#45;&gt;Node3</title>
<g id="a_edge12_Node000010_Node000003"><a xlink:title=" ">
<path fill="none" stroke="#63b8ff" d="M422.52,-179.92C417.73,-165.46 407.89,-136.32 398.5,-112 395.26,-103.6 391.44,-94.43 388.08,-86.57"/>
<polygon fill="#63b8ff" stroke="#63b8ff" points="391.39,-85.41 384.2,-77.63 384.97,-88.2 391.39,-85.41"/>
</a>
</g>
</g>
<!-- Node10&#45;&gt;Node4 -->
<g id="edge14_Node000010_Node000004" class="edge">
<title>Node10&#45;&gt;Node4</title>
<g id="a_edge14_Node000010_Node000004"><a xlink:title=" ">
<path fill="none" stroke="#63b8ff" d="M413.31,-179.62C401.29,-170.38 382.68,-156.07 368.32,-145.01"/>
<polygon fill="#63b8ff" stroke="#63b8ff" points="370.86,-142.55 360.8,-139.23 366.59,-148.1 370.86,-142.55"/>
</a>
</g>
</g>
<!-- Node10&#45;&gt;Node8 -->
<g id="edge15_Node000010_Node000008" class="edge">
<title>Node10&#45;&gt;Node8</title>
<g id="a_edge15_Node000010_Node000008"><a xlink:title=" ">
<path fill="none" stroke="#63b8ff" d="M404.06,-181.52C375.87,-171.69 325.85,-154.24 291.24,-142.17"/>
<polygon fill="#63b8ff" stroke="#63b8ff" points="292.62,-138.94 282.03,-138.95 290.31,-145.55 292.62,-138.94"/>
</a>
</g>
</g>
<!-- Node11 -->
<g id="Node000011" class="node">
<title>Node11</title>
<g id="a_Node000011"><a xlink:title=" ">
<polygon fill="#e0e0e0" stroke="#999999" points="491.12,-138 445.88,-138 445.88,-118 491.12,-118 491.12,-138"/>
<text text-anchor="middle" x="468.5" y="-124.5" font-family="Helvetica,sans-Serif" font-size="10.00">stdio.h</text>
</a>
</g>
</g>
<!-- Node10&#45;&gt;Node11 -->
<g id="edge11_Node000010_Node000011" class="edge">
<title>Node10&#45;&gt;Node11</title>
<g id="a_edge11_Node000010_Node000011"><a xlink:title=" ">
<path fill="none" stroke="#63b8ff" d="M432.22,-179.62C438.38,-171.03 447.67,-158.07 455.31,-147.41"/>
<polygon fill="#63b8ff" stroke="#63b8ff" points="458.11,-149.51 461.09,-139.34 452.42,-145.43 458.11,-149.51"/>
</a>
</g>
</g>
<!-- Node12 -->
<g id="Node000012" class="node">
<title>Node12</title>
<g id="a_Node000012"><a xlink:title=" ">
<polygon fill="#e0e0e0" stroke="#999999" points="787.75,-76 719.25,-76 719.25,-56 787.75,-56 787.75,-76"/>
<text text-anchor="middle" x="753.5" y="-62.5" font-family="Helvetica,sans-Serif" font-size="10.00">pico/stdlib.h</text>
</a>
</g>
</g>
<!-- Node10&#45;&gt;Node12 -->
<g id="edge13_Node000010_Node000012" class="edge">
<title>Node10&#45;&gt;Node12</title>
<g id="a_edge13_Node000010_Node000012"><a xlink:title=" ">
<path fill="none" stroke="#63b8ff" d="M447.07,-184.04C453.03,-182.7 459.51,-181.27 465.5,-180 545.74,-163 572.58,-179.54 646.5,-144 666.4,-134.43 666.78,-125.17 684.5,-112 698.59,-101.53 715.03,-90.76 728.32,-82.38"/>
<polygon fill="#63b8ff" stroke="#63b8ff" points="729.87,-85.54 736.5,-77.28 726.16,-79.6 729.87,-85.54"/>
</a>
</g>
</g>
<!-- Node14&#45;&gt;Node3 -->
<g id="edge30_Node000014_Node000003" class="edge">
<title>Node14&#45;&gt;Node3</title>
<g id="a_edge30_Node000014_Node000003"><a xlink:title=" ">
<path fill="none" stroke="#63b8ff" d="M519.84,-179.68C519.9,-163.79 517.73,-131.32 500.5,-112 494.25,-104.99 444.35,-87.88 410.61,-76.89"/>
<polygon fill="#63b8ff" stroke="#63b8ff" points="411.91,-73.63 401.31,-73.89 409.75,-80.29 411.91,-73.63"/>
</a>
</g>
</g>
<!-- Node15 -->
<g id="Node000015" class="node">
<title>Node15</title>
<g id="a_Node000015"><a xlink:href="_power_manager_8h.html" target="_top" xlink:title=" ">
<polygon fill="white" stroke="#666666" points="637.25,-138 547.75,-138 547.75,-118 637.25,-118 637.25,-138"/>
<text text-anchor="middle" x="592.5" y="-124.5" font-family="Helvetica,sans-Serif" font-size="10.00">PowerManager.h</text>
</a>
</g>
</g>
<!-- Node14&#45;&gt;Node15 -->
<g id="edge19_Node000014_Node000015" class="edge">
<title>Node14&#45;&gt;Node15</title>
<g id="a_edge19_Node000014_Node000015"><a xlink:title=" ">
<path fill="none" stroke="#63b8ff" d="M530.91,-179.62C542.11,-170.41 559.44,-156.17 572.87,-145.14"/>
<polygon fill="#63b8ff" stroke="#63b8ff" points="574.74,-148.13 580.24,-139.07 570.3,-142.72 574.74,-148.13"/>
</a>
</g>
</g>
<!-- Node20 -->
<g id="Node000020" class="node">
<title>Node20</title>
<g id="a_Node000020"><a xlink:title=" ">
<polygon fill="#e0e0e0" stroke="#999999" points="701.62,-76 629.38,-76 629.38,-56 701.62,-56 701.62,-76"/>
<text text-anchor="middle" x="665.5" y="-62.5" font-family="Helvetica,sans-Serif" font-size="10.00">pico/mutex.h</text>
</a>
</g>
</g>
<!-- Node14&#45;&gt;Node20 -->
<g id="edge31_Node000014_Node000020" class="edge">
<title>Node14&#45;&gt;Node20</title>
<g id="a_edge31_Node000014_Node000020"><a xlink:title=" ">
<path fill="none" stroke="#63b8ff" d="M565.45,-181.5C630.61,-170.64 742.68,-151.08 748.5,-144 757.54,-133.02 755.78,-124.22 748.5,-112 740.07,-97.83 725.45,-87.85 710.8,-80.95"/>
<polygon fill="#63b8ff" stroke="#63b8ff" points="712.19,-77.74 701.62,-77.05 709.45,-84.18 712.19,-77.74"/>
</a>
</g>
</g>
<!-- Node21 -->
<g id="Node000021" class="node">
<title>Node21</title>
<g id="a_Node000021"><a xlink:title=" ">
<polygon fill="#e0e0e0" stroke="#999999" points="739.12,-138 693.88,-138 693.88,-118 739.12,-118 739.12,-138"/>
<text text-anchor="middle" x="716.5" y="-124.5" font-family="Helvetica,sans-Serif" font-size="10.00">cstdint</text>
</a>
</g>
</g>
<!-- Node14&#45;&gt;Node21 -->
<g id="edge29_Node000014_Node000021" class="edge">
<title>Node14&#45;&gt;Node21</title>
<g id="a_edge29_Node000014_Node000021"><a xlink:title=" ">
<path fill="none" stroke="#63b8ff" d="M557.69,-179.53C590.34,-171.14 638.41,-158.06 679.5,-144 680.86,-143.53 682.25,-143.04 683.65,-142.54"/>
<polygon fill="#63b8ff" stroke="#63b8ff" points="684.84,-145.83 692.93,-138.99 682.34,-139.29 684.84,-145.83"/>
</a>
</g>
</g>
<!-- Node15&#45;&gt;Node3 -->
<g id="edge25_Node000015_Node000003" class="edge">
<title>Node15&#45;&gt;Node3</title>
<g id="a_edge25_Node000015_Node000003"><a xlink:title=" ">
<path fill="none" stroke="#63b8ff" d="M557.13,-117.54C522.27,-108.14 467.21,-93.1 410.7,-76.58"/>
<polygon fill="#63b8ff" stroke="#63b8ff" points="411.79,-73.26 401.21,-73.8 409.82,-79.97 411.79,-73.26"/>
</a>
</g>
</g>
<!-- Node15&#45;&gt;Node12 -->
<g id="edge27_Node000015_Node000012" class="edge">
<title>Node15&#45;&gt;Node12</title>
<g id="a_edge27_Node000015_Node000012"><a xlink:title=" ">
<path fill="none" stroke="#63b8ff" d="M617.66,-117.62C644.52,-107.62 687.31,-91.67 717.68,-80.35"/>
<polygon fill="#63b8ff" stroke="#63b8ff" points="718.69,-83.71 726.84,-76.94 716.24,-77.15 718.69,-83.71"/>
</a>
</g>
</g>
<!-- Node16 -->
<g id="Node000016" class="node">
<title>Node16</title>
<g id="a_Node000016"><a xlink:href="_i_n_a3221_8h.html" target="_top" xlink:title=" ">
<polygon fill="white" stroke="#666666" points="573.38,-76 469.62,-76 469.62,-56 573.38,-56 573.38,-76"/>
<text text-anchor="middle" x="521.5" y="-62.5" font-family="Helvetica,sans-Serif" font-size="10.00">INA3221/INA3221.h</text>
</a>
</g>
</g>
<!-- Node15&#45;&gt;Node16 -->
<g id="edge20_Node000015_Node000016" class="edge">
<title>Node15&#45;&gt;Node16</title>
<g id="a_edge20_Node000015_Node000016"><a xlink:title=" ">
<path fill="none" stroke="#63b8ff" d="M581.41,-117.62C570.61,-108.5 553.98,-94.45 540.97,-83.46"/>
<polygon fill="#63b8ff" stroke="#63b8ff" points="543.34,-80.87 533.44,-77.09 538.82,-86.22 543.34,-80.87"/>
</a>
</g>
</g>
<!-- Node18 -->
<g id="Node000018" class="node">
<title>Node18</title>
<g id="a_Node000018"><a xlink:title=" ">
<polygon fill="#e0e0e0" stroke="#999999" points="643.38,-20 563.62,-20 563.62,0 643.38,0 643.38,-20"/>
<text text-anchor="middle" x="603.5" y="-6.5" font-family="Helvetica,sans-Serif" font-size="10.00">hardware/i2c.h</text>
</a>
</g>
</g>
<!-- Node15&#45;&gt;Node18 -->
<g id="edge26_Node000015_Node000018" class="edge">
<title>Node15&#45;&gt;Node18</title>
<g id="a_edge26_Node000015_Node000018"><a xlink:title=" ">
<path fill="none" stroke="#63b8ff" d="M593.4,-117.51C595.17,-98.81 599.15,-56.82 601.56,-31.51"/>
<polygon fill="#63b8ff" stroke="#63b8ff" points="605.02,-32.09 602.48,-21.81 598.05,-31.43 605.02,-32.09"/>
</a>
</g>
</g>
<!-- Node19 -->
<g id="Node000019" class="node">
<title>Node19</title>
<g id="a_Node000019"><a xlink:title=" ">
<polygon fill="#e0e0e0" stroke="#999999" points="451.88,-76 417.12,-76 417.12,-56 451.88,-56 451.88,-76"/>
<text text-anchor="middle" x="434.5" y="-62.5" font-family="Helvetica,sans-Serif" font-size="10.00">map</text>
</a>
</g>
</g>
<!-- Node15&#45;&gt;Node19 -->
<g id="edge24_Node000015_Node000019" class="edge">
<title>Node15&#45;&gt;Node19</title>
<g id="a_edge24_Node000015_Node000019"><a xlink:title=" ">
<path fill="none" stroke="#63b8ff" d="M567.81,-117.62C539.34,-106.81 492.62,-89.07 462.72,-77.72"/>
<polygon fill="#63b8ff" stroke="#63b8ff" points="464.17,-74.52 453.58,-74.25 461.69,-81.07 464.17,-74.52"/>
</a>
</g>
</g>
<!-- Node15&#45;&gt;Node20 -->
<g id="edge28_Node000015_Node000020" class="edge">
<title>Node15&#45;&gt;Node20</title>
<g id="a_edge28_Node000015_Node000020"><a xlink:title=" ">
<path fill="none" stroke="#63b8ff" d="M603.91,-117.62C615.11,-108.41 632.44,-94.17 645.87,-83.14"/>
<polygon fill="#63b8ff" stroke="#63b8ff" points="647.74,-86.13 653.24,-77.07 643.3,-80.72 647.74,-86.13"/>
</a>
</g>
</g>
<!-- Node16&#45;&gt;Node9 -->
<g id="edge21_Node000016_Node000009" class="edge">
<title>Node16&#45;&gt;Node9</title>
<g id="a_edge21_Node000016_Node000009"><a xlink:title=" ">
<path fill="none" stroke="#63b8ff" d="M498.86,-55.59C478.38,-47.09 447.98,-34.46 424.75,-24.81"/>
<polygon fill="#63b8ff" stroke="#63b8ff" points="426.3,-21.66 415.72,-21.06 423.61,-28.13 426.3,-21.66"/>
</a>
</g>
</g>
<!-- Node17 -->
<g id="Node000017" class="node">
<title>Node17</title>
<g id="a_Node000017"><a xlink:title=" ">
<polygon fill="#e0e0e0" stroke="#999999" points="545.25,-20 491.75,-20 491.75,0 545.25,0 545.25,-20"/>
<text text-anchor="middle" x="518.5" y="-6.5" font-family="Helvetica,sans-Serif" font-size="10.00">iostream</text>
</a>
</g>
</g>
<!-- Node16&#45;&gt;Node17 -->
<g id="edge22_Node000016_Node000017" class="edge">
<title>Node16&#45;&gt;Node17</title>
<g id="a_edge22_Node000016_Node000017"><a xlink:title=" ">
<path fill="none" stroke="#63b8ff" d="M520.98,-55.59C520.61,-49.01 520.11,-39.96 519.65,-31.73"/>
<polygon fill="#63b8ff" stroke="#63b8ff" points="523.15,-31.6 519.1,-21.81 516.16,-31.99 523.15,-31.6"/>
</a>
</g>
</g>
<!-- Node16&#45;&gt;Node18 -->
<g id="edge23_Node000016_Node000018" class="edge">
<title>Node16&#45;&gt;Node18</title>
<g id="a_edge23_Node000016_Node000018"><a xlink:title=" ">
<path fill="none" stroke="#63b8ff" d="M535.78,-55.59C547.94,-47.59 565.64,-35.93 579.9,-26.54"/>
<polygon fill="#63b8ff" stroke="#63b8ff" points="581.41,-29.73 587.84,-21.31 577.56,-23.89 581.41,-29.73"/>
</a>
</g>
</g>
<!-- Node24&#45;&gt;Node3 -->
<g id="edge36_Node000024_Node000003" class="edge">
<title>Node24&#45;&gt;Node3</title>
<g id="a_edge36_Node000024_Node000003"><a xlink:title=" ">
<path fill="none" stroke="#63b8ff" d="M795.25,-120.48C781.1,-117.59 763.99,-114.32 748.5,-112 601.75,-89.98 559.31,-105.88 410.84,-76.12"/>
<polygon fill="#63b8ff" stroke="#63b8ff" points="411.95,-72.77 401.45,-74.2 410.54,-79.63 411.95,-72.77"/>
</a>
</g>
</g>
<!-- Node24&#45;&gt;Node12 -->
<g id="edge38_Node000024_Node000012" class="edge">
<title>Node24&#45;&gt;Node12</title>
<g id="a_edge38_Node000024_Node000012"><a xlink:title=" ">
<path fill="none" stroke="#63b8ff" d="M814.25,-117.62C803.3,-108.5 786.43,-94.45 773.25,-83.46"/>
<polygon fill="#63b8ff" stroke="#63b8ff" points="775.52,-80.79 765.6,-77.08 771.04,-86.17 775.52,-80.79"/>
</a>
</g>
</g>
<!-- Node24&#45;&gt;Node18 -->
<g id="edge39_Node000024_Node000018" class="edge">
<title>Node24&#45;&gt;Node18</title>
<g id="a_edge39_Node000024_Node000018"><a xlink:title=" ">
<path fill="none" stroke="#63b8ff" d="M824.41,-117.58C822.11,-102.27 815.35,-72.07 796.5,-56 775.43,-38.03 704.56,-24.87 654.84,-17.57"/>
<polygon fill="#63b8ff" stroke="#63b8ff" points="655.53,-14.14 645.14,-16.19 654.54,-21.07 655.53,-14.14"/>
</a>
</g>
</g>
<!-- Node25 -->
<g id="Node000025" class="node">
<title>Node25</title>
<g id="a_Node000025"><a xlink:title=" ">
<polygon fill="#e0e0e0" stroke="#999999" points="881.38,-76 843.62,-76 843.62,-56 881.38,-56 881.38,-76"/>
<text text-anchor="middle" x="862.5" y="-62.5" font-family="Helvetica,sans-Serif" font-size="10.00">array</text>
</a>
</g>
</g>
<!-- Node24&#45;&gt;Node25 -->
<g id="edge37_Node000024_Node000025" class="edge">
<title>Node24&#45;&gt;Node25</title>
<g id="a_edge37_Node000024_Node000025"><a xlink:title=" ">
<path fill="none" stroke="#63b8ff" d="M831.28,-117.62C836.53,-109.12 844.41,-96.33 850.95,-85.74"/>
<polygon fill="#63b8ff" stroke="#63b8ff" points="853.82,-87.75 856.09,-77.4 847.86,-84.08 853.82,-87.75"/>
</a>
</g>
</g>
<!-- Node26 -->
<g id="Node000026" class="node">
<title>Node26</title>
<g id="a_Node000026"><a xlink:title=" ">
<polygon fill="#e0e0e0" stroke="#999999" points="942,-76 899,-76 899,-56 942,-56 942,-76"/>
<text text-anchor="middle" x="920.5" y="-62.5" font-family="Helvetica,sans-Serif" font-size="10.00">time.h</text>
</a>
</g>
</g>
<!-- Node24&#45;&gt;Node26 -->
<g id="edge40_Node000024_Node000026" class="edge">
<title>Node24&#45;&gt;Node26</title>
<g id="a_edge40_Node000024_Node000026"><a xlink:title=" ">
<path fill="none" stroke="#63b8ff" d="M840.34,-117.62C855.26,-108.2 878.51,-93.52 896.14,-82.39"/>
<polygon fill="#63b8ff" stroke="#63b8ff" points="897.89,-85.42 904.48,-77.12 894.16,-79.5 897.89,-85.42"/>
</a>
</g>
</g>
</g>
</svg>

<g id="navigator" transform="translate(0 0)" fill="#404254">
  <rect fill="#f2f5e9" fill-opacity="0.5" stroke="#606060" stroke-width=".5" x="0" y="0" width="60" height="60"/>
  <use id="zoomplus" xlink:href="#zoomPlus" x="17" y="9" onmousedown="handleZoom(evt,'in')"/>
  <use id="zoomminus" xlink:href="#zoomMin" x="42" y="9" onmousedown="handleZoom(evt,'out')"/>
  <use id="reset" xlink:href="#resetDef" x="30" y="36" onmousedown="handleReset()"/>
   <use id="arrowup" xlink:href="#arrowUp" x="0" y="0" onmousedown="handlePan(0,-1)"/>
  <use id="arrowright" xlink:href="#arrowRight" x="0" y="0" onmousedown="handlePan(1,0)"/>
  <use id="arrowdown" xlink:href="#arrowDown" x="0" y="0" onmousedown="handlePan(0,1)"/>
  <use id="arrowleft" xlink:href="#arrowLeft" x="0" y="0" onmousedown="handlePan(-1,0)"/>
</g>
<svg viewBox="0 0 15 15" width="100%" height="30px" preserveAspectRatio="xMaxYMin meet">
 <g id="arrow_out" transform="scale(0.3 0.3)">
  <a xlink:href="gps__collector_8cpp__incl_org.svg" target="_base">
   <rect id="button" ry="5" rx="5" y="6" x="6" height="38" width="38"
        fill="#f2f5e9" fill-opacity="0.5" stroke="#606060" stroke-width="1.0"/>
   <path id="arrow"
     d="M 11.500037,31.436501 C 11.940474,20.09759 22.043105,11.32322 32.158766,21.979434 L 37.068811,17.246167 C 37.068811,17.246167 37.088388,32 37.088388,32 L 22.160133,31.978069 C 22.160133,31.978069 26.997745,27.140456 26.997745,27.140456 C 18.528582,18.264221 13.291696,25.230495 11.500037,31.436501 z"
     style="fill:#404040;"/>
  </a>
 </g>
</svg>

<style type='text/css'>
<![CDATA[
[data-mouse-over-selected='false'] { opacity: 0.7; }
[data-mouse-over-selected='true']  { opacity: 1.0; }
]]>
</style>
<script type="application/ecmascript"><![CDATA[
document.addEventListener('DOMContentLoaded', (event) => {
  highlightEdges();
  highlightAdjacentNodes();
});
]]></script>
</svg>
