<?xml version="1.0" encoding="UTF-8" standalone="no"?>
<!DOCTYPE svg PUBLIC "-//W3C//DTD SVG 1.1//EN"
 "http://www.w3.org/Graphics/SVG/1.1/DTD/svg11.dtd">
<!-- Generated by graphviz version 12.2.1 (20241206.2353)
 -->
<!-- Title: handleTime Pages: 1 -->
<svg width="358pt" height="66pt"
 viewBox="0.00 0.00 358.25 66.00" xmlns="http://www.w3.org/2000/svg" xmlns:xlink="http://www.w3.org/1999/xlink">
<g id="graph0" class="graph" transform="scale(1 1) rotate(0) translate(4 62)">
<title>handleTime</title>
<!-- Node1 -->
<g id="Node000001" class="node">
<title>Node1</title>
<g id="a_Node000001"><a xlink:title="Handler for getting and setting system time.">
<polygon fill="#999999" stroke="#666666" points="66.25,-39 0,-39 0,-19 66.25,-19 66.25,-39"/>
<text text-anchor="middle" x="33.12" y="-25.5" font-family="Helvetica,sans-Serif" font-size="10.00">handleTime</text>
</a>
</g>
</g>
<!-- Node2 -->
<g id="Node000002" class="node">
<title>Node2</title>
<g id="a_Node000002"><a xlink:href="frame_8cpp.html#a5f43260949ee244d3ee66068eb1d7fc1" target="_top" xlink:title="Builds a Frame instance.">
<polygon fill="white" stroke="#666666" points="183.12,-58 119.12,-58 119.12,-38 183.12,-38 183.12,-58"/>
<text text-anchor="middle" x="151.12" y="-44.5" font-family="Helvetica,sans-Serif" font-size="10.00">buildFrame</text>
</a>
</g>
</g>
<!-- Node1&#45;&gt;Node2 -->
<g id="edge1_Node000001_Node000002" class="edge">
<title>Node1&#45;&gt;Node2</title>
<g id="a_edge1_Node000001_Node000002"><a xlink:title=" ">
<path fill="none" stroke="#63b8ff" d="M66.75,-34.34C79.52,-36.44 94.34,-38.86 107.91,-41.09"/>
<polygon fill="#63b8ff" stroke="#63b8ff" points="107.02,-44.49 117.45,-42.65 108.15,-37.58 107.02,-44.49"/>
</a>
</g>
</g>
<!-- Node4 -->
<g id="Node000004" class="node">
<title>Node4</title>
<g id="a_Node000004"><a xlink:href="class_event_emitter.html#a539d733505f9a793439a9cfc4f2af079" target="_top" xlink:title="Emits an event.">
<polygon fill="white" stroke="#666666" points="200,-20 102.25,-20 102.25,0 200,0 200,-20"/>
<text text-anchor="middle" x="151.12" y="-6.5" font-family="Helvetica,sans-Serif" font-size="10.00">EventEmitter::emit</text>
</a>
</g>
</g>
<!-- Node1&#45;&gt;Node4 -->
<g id="edge3_Node000001_Node000004" class="edge">
<title>Node1&#45;&gt;Node4</title>
<g id="a_edge3_Node000001_Node000004"><a xlink:title=" ">
<path fill="none" stroke="#63b8ff" d="M66.75,-23.66C74.3,-22.42 82.57,-21.06 90.88,-19.7"/>
<polygon fill="#63b8ff" stroke="#63b8ff" points="91.36,-23.17 100.67,-18.1 90.23,-16.26 91.36,-23.17"/>
</a>
</g>
</g>
<!-- Node3 -->
<g id="Node000003" class="node">
<title>Node3</title>
<g id="a_Node000003"><a xlink:href="utils__converters_8cpp.html#ab4cb9e6b491bd7711c69c9167a2b9286" target="_top" xlink:title="Converts a ValueUnit to a string.">
<polygon fill="white" stroke="#666666" points="350.25,-58 236,-58 236,-38 350.25,-38 350.25,-58"/>
<text text-anchor="middle" x="293.12" y="-44.5" font-family="Helvetica,sans-Serif" font-size="10.00">valueUnitTypeToString</text>
</a>
</g>
</g>
<!-- Node2&#45;&gt;Node3 -->
<g id="edge2_Node000002_Node000003" class="edge">
<title>Node2&#45;&gt;Node3</title>
<g id="a_edge2_Node000002_Node000003"><a xlink:title=" ">
<path fill="none" stroke="#63b8ff" d="M183.54,-48C195.69,-48 210.1,-48 224.38,-48"/>
<polygon fill="#63b8ff" stroke="#63b8ff" points="224.25,-51.5 234.25,-48 224.25,-44.5 224.25,-51.5"/>
</a>
</g>
</g>
</g>
</svg>
