<?xml version="1.0" encoding="UTF-8" standalone="no"?>
<!DOCTYPE svg PUBLIC "-//W3C//DTD SVG 1.1//EN"
 "http://www.w3.org/Graphics/SVG/1.1/DTD/svg11.dtd">
<!-- Generated by graphviz version 12.2.1 (20241206.2353)
 -->
<!-- Title: handle_get_build_version Pages: 1 -->
<svg width="370pt" height="40pt"
 viewBox="0.00 0.00 369.50 40.00" xmlns="http://www.w3.org/2000/svg" xmlns:xlink="http://www.w3.org/1999/xlink">
<g id="graph0" class="graph" transform="scale(1 1) rotate(0) translate(4 36)">
<title>handle_get_build_version</title>
<!-- Node1 -->
<g id="Node000001" class="node">
<title>Node1</title>
<g id="a_Node000001"><a xlink:title="Get firmware build version.">
<polygon fill="#999999" stroke="#666666" points="125.5,-26 0,-26 0,-6 125.5,-6 125.5,-26"/>
<text text-anchor="middle" x="62.75" y="-12.5" font-family="Helvetica,sans-Serif" font-size="10.00">handle_get_build_version</text>
</a>
</g>
</g>
<!-- Node2 -->
<g id="Node000002" class="node">
<title>Node2</title>
<g id="a_Node000002"><a xlink:href="frame_8cpp.html#a29170691faa10727d607a73861cacbeb" target="_top" xlink:title="Builds a Frame instance.">
<polygon fill="white" stroke="#666666" points="227.75,-26 161.5,-26 161.5,-6 227.75,-6 227.75,-26"/>
<text text-anchor="middle" x="194.62" y="-12.5" font-family="Helvetica,sans-Serif" font-size="10.00">frame_build</text>
</a>
</g>
</g>
<!-- Node1&#45;&gt;Node2 -->
<g id="edge1_Node000001_Node000002" class="edge">
<title>Node1&#45;&gt;Node2</title>
<g id="a_edge1_Node000001_Node000002"><a xlink:title=" ">
<path fill="none" stroke="#63b8ff" d="M125.64,-16C133.8,-16 142.02,-16 149.79,-16"/>
<polygon fill="#63b8ff" stroke="#63b8ff" points="149.65,-19.5 159.65,-16 149.65,-12.5 149.65,-19.5"/>
</a>
</g>
</g>
<!-- Node3 -->
<g id="Node000003" class="node">
<title>Node3</title>
<g id="a_Node000003"><a xlink:href="utils__converters_8cpp.html#a29531ed9ad98ab78384a8a2f37f4e77d" target="_top" xlink:title="Converts a ValueUnit to a string.">
<polygon fill="white" stroke="#666666" points="361.5,-32 263.75,-32 263.75,0 361.5,0 361.5,-32"/>
<text text-anchor="start" x="271.75" y="-18.5" font-family="Helvetica,sans-Serif" font-size="10.00">value_unit_type_to</text>
<text text-anchor="middle" x="312.62" y="-6.5" font-family="Helvetica,sans-Serif" font-size="10.00">_string</text>
</a>
</g>
</g>
<!-- Node2&#45;&gt;Node3 -->
<g id="edge2_Node000002_Node000003" class="edge">
<title>Node2&#45;&gt;Node3</title>
<g id="a_edge2_Node000002_Node000003"><a xlink:title=" ">
<path fill="none" stroke="#63b8ff" d="M228.25,-16C235.8,-16 244.07,-16 252.38,-16"/>
<polygon fill="#63b8ff" stroke="#63b8ff" points="252.15,-19.5 262.15,-16 252.15,-12.5 252.15,-19.5"/>
</a>
</g>
</g>
</g>
</svg>
