<?xml version="1.0" encoding="UTF-8" standalone="no"?>
<!DOCTYPE svg PUBLIC "-//W3C//DTD SVG 1.1//EN"
 "http://www.w3.org/Graphics/SVG/1.1/DTD/svg11.dtd">
<!-- Generated by graphviz version 12.2.1 (20241206.2353)
 -->
<!-- Title: handle_enter_bootloader_mode Pages: 1 -->
<svg width="554pt" height="135pt"
 viewBox="0.00 0.00 554.25 135.00" xmlns="http://www.w3.org/2000/svg" xmlns:xlink="http://www.w3.org/1999/xlink">
<g id="graph0" class="graph" transform="scale(1 1) rotate(0) translate(4 131)">
<title>handle_enter_bootloader_mode</title>
<!-- Node1 -->
<g id="Node000001" class="node">
<title>Node1</title>
<g id="a_Node000001"><a xlink:title="Reboot system to USB firmware loader.">
<polygon fill="#999999" stroke="#666666" points="151,-58 0,-58 0,-38 151,-38 151,-58"/>
<text text-anchor="middle" x="75.5" y="-44.5" font-family="Helvetica,sans-Serif" font-size="10.00">handle_enter_bootloader_mode</text>
</a>
</g>
</g>
<!-- Node2 -->
<g id="Node000002" class="node">
<title>Node2</title>
<g id="a_Node000002"><a xlink:href="frame_8cpp.html#a29170691faa10727d607a73861cacbeb" target="_top" xlink:title="Builds a Frame instance.">
<polygon fill="white" stroke="#666666" points="253.62,-108 187.38,-108 187.38,-88 253.62,-88 253.62,-108"/>
<text text-anchor="middle" x="220.5" y="-94.5" font-family="Helvetica,sans-Serif" font-size="10.00">frame_build</text>
</a>
</g>
</g>
<!-- Node1&#45;&gt;Node2 -->
<g id="edge1_Node000001_Node000002" class="edge">
<title>Node1&#45;&gt;Node2</title>
<g id="a_edge1_Node000001_Node000002"><a xlink:title=" ">
<path fill="none" stroke="#63b8ff" d="M106.48,-58.48C127.45,-65.82 155.72,-75.7 178.74,-83.75"/>
<polygon fill="#63b8ff" stroke="#63b8ff" points="177.54,-87.04 188.13,-87.03 179.85,-80.43 177.54,-87.04"/>
</a>
</g>
</g>
<!-- Node4 -->
<g id="Node000004" class="node">
<title>Node4</title>
<g id="a_Node000004"><a xlink:href="send_8cpp.html#ae6c6f3b673e7e83306da7ea2458d3241" target="_top" xlink:title="Sends a Frame using LoRa.">
<polygon fill="white" stroke="#666666" points="254,-58 187,-58 187,-38 254,-38 254,-58"/>
<text text-anchor="middle" x="220.5" y="-44.5" font-family="Helvetica,sans-Serif" font-size="10.00">send_frame</text>
</a>
</g>
</g>
<!-- Node1&#45;&gt;Node4 -->
<g id="edge3_Node000001_Node000004" class="edge">
<title>Node1&#45;&gt;Node4</title>
<g id="a_edge3_Node000001_Node000004"><a xlink:title=" ">
<path fill="none" stroke="#63b8ff" d="M151.35,-48C159.51,-48 167.61,-48 175.23,-48"/>
<polygon fill="#63b8ff" stroke="#63b8ff" points="175.22,-51.5 185.22,-48 175.22,-44.5 175.22,-51.5"/>
</a>
</g>
</g>
<!-- Node8 -->
<g id="Node000008" class="node">
<title>Node8</title>
<g id="a_Node000008"><a xlink:href="utils_8cpp.html#acd86977d05fa330749958ace0f2798de" target="_top" xlink:title="Prints a message to the UART with a timestamp and core number.">
<polygon fill="white" stroke="#666666" points="513.25,-20 456.75,-20 456.75,0 513.25,0 513.25,-20"/>
<text text-anchor="middle" x="485" y="-6.5" font-family="Helvetica,sans-Serif" font-size="10.00">uart_print</text>
</a>
</g>
</g>
<!-- Node1&#45;&gt;Node8 -->
<g id="edge8_Node000001_Node000008" class="edge">
<title>Node1&#45;&gt;Node8</title>
<g id="a_edge8_Node000001_Node000008"><a xlink:title=" ">
<path fill="none" stroke="#63b8ff" d="M121.59,-37.59C164.59,-28.23 231.31,-15.18 290,-10 343.51,-5.27 405.65,-6.44 444.9,-7.99"/>
<polygon fill="#63b8ff" stroke="#63b8ff" points="444.65,-11.48 454.79,-8.41 444.95,-4.48 444.65,-11.48"/>
</a>
</g>
</g>
<!-- Node3 -->
<g id="Node000003" class="node">
<title>Node3</title>
<g id="a_Node000003"><a xlink:href="utils__converters_8cpp.html#a29531ed9ad98ab78384a8a2f37f4e77d" target="_top" xlink:title="Converts a ValueUnit to a string.">
<polygon fill="white" stroke="#666666" points="387.75,-127 290,-127 290,-95 387.75,-95 387.75,-127"/>
<text text-anchor="start" x="298" y="-113.5" font-family="Helvetica,sans-Serif" font-size="10.00">value_unit_type_to</text>
<text text-anchor="middle" x="338.88" y="-101.5" font-family="Helvetica,sans-Serif" font-size="10.00">_string</text>
</a>
</g>
</g>
<!-- Node2&#45;&gt;Node3 -->
<g id="edge2_Node000002_Node000003" class="edge">
<title>Node2&#45;&gt;Node3</title>
<g id="a_edge2_Node000002_Node000003"><a xlink:title=" ">
<path fill="none" stroke="#63b8ff" d="M253.92,-101.62C261.5,-102.47 269.81,-103.4 278.17,-104.33"/>
<polygon fill="#63b8ff" stroke="#63b8ff" points="277.7,-107.8 288.02,-105.43 278.47,-100.84 277.7,-107.8"/>
</a>
</g>
</g>
<!-- Node5 -->
<g id="Node000005" class="node">
<title>Node5</title>
<g id="a_Node000005"><a xlink:href="frame_8cpp.html#a3ae6df528775be58890bf406c906a056" target="_top" xlink:title="Encodes a Frame instance into a string.">
<polygon fill="white" stroke="#666666" points="377.62,-77 300.12,-77 300.12,-57 377.62,-57 377.62,-77"/>
<text text-anchor="middle" x="338.88" y="-63.5" font-family="Helvetica,sans-Serif" font-size="10.00">frame_encode</text>
</a>
</g>
</g>
<!-- Node4&#45;&gt;Node5 -->
<g id="edge4_Node000004_Node000005" class="edge">
<title>Node4&#45;&gt;Node5</title>
<g id="a_edge4_Node000004_Node000005"><a xlink:title=" ">
<path fill="none" stroke="#63b8ff" d="M254.23,-53.34C264.82,-55.07 276.8,-57.03 288.33,-58.91"/>
<polygon fill="#63b8ff" stroke="#63b8ff" points="287.71,-62.36 298.14,-60.51 288.84,-55.45 287.71,-62.36"/>
</a>
</g>
</g>
<!-- Node7 -->
<g id="Node000007" class="node">
<title>Node7</title>
<g id="a_Node000007"><a xlink:href="send_8cpp.html#a42881e6476e0ce51ee9f6a99a7318d3b" target="_top" xlink:title="Sends a message using LoRa.">
<polygon fill="white" stroke="#666666" points="379.88,-39 297.88,-39 297.88,-19 379.88,-19 379.88,-39"/>
<text text-anchor="middle" x="338.88" y="-25.5" font-family="Helvetica,sans-Serif" font-size="10.00">send_message</text>
</a>
</g>
</g>
<!-- Node4&#45;&gt;Node7 -->
<g id="edge6_Node000004_Node000007" class="edge">
<title>Node4&#45;&gt;Node7</title>
<g id="a_edge6_Node000004_Node000007"><a xlink:title=" ">
<path fill="none" stroke="#63b8ff" d="M254.23,-42.66C264.21,-41.03 275.43,-39.2 286.34,-37.41"/>
<polygon fill="#63b8ff" stroke="#63b8ff" points="286.73,-40.9 296.03,-35.83 285.6,-33.99 286.73,-40.9"/>
</a>
</g>
</g>
<!-- Node6 -->
<g id="Node000006" class="node">
<title>Node6</title>
<g id="a_Node000006"><a xlink:href="utils__converters_8cpp.html#ab218e62029b4451e910d8caf0fd05804" target="_top" xlink:title="Converts an OperationType to a string.">
<polygon fill="white" stroke="#666666" points="546.25,-77 423.75,-77 423.75,-57 546.25,-57 546.25,-77"/>
<text text-anchor="middle" x="485" y="-63.5" font-family="Helvetica,sans-Serif" font-size="10.00">operation_type_to_string</text>
</a>
</g>
</g>
<!-- Node5&#45;&gt;Node6 -->
<g id="edge5_Node000005_Node000006" class="edge">
<title>Node5&#45;&gt;Node6</title>
<g id="a_edge5_Node000005_Node000006"><a xlink:title=" ">
<path fill="none" stroke="#63b8ff" d="M378.12,-67C388.61,-67 400.34,-67 412.06,-67"/>
<polygon fill="#63b8ff" stroke="#63b8ff" points="411.74,-70.5 421.74,-67 411.74,-63.5 411.74,-70.5"/>
</a>
</g>
</g>
<!-- Node7&#45;&gt;Node8 -->
<g id="edge7_Node000007_Node000008" class="edge">
<title>Node7&#45;&gt;Node8</title>
<g id="a_edge7_Node000007_Node000008"><a xlink:title=" ">
<path fill="none" stroke="#63b8ff" d="M380.02,-23.71C400.35,-21.03 424.93,-17.79 445.09,-15.13"/>
<polygon fill="#63b8ff" stroke="#63b8ff" points="445.42,-18.62 454.88,-13.84 444.5,-11.68 445.42,-18.62"/>
</a>
</g>
</g>
</g>
</svg>
