<?xml version="1.0" encoding="UTF-8" standalone="no"?>
<!DOCTYPE svg PUBLIC "-//W3C//DTD SVG 1.1//EN"
 "http://www.w3.org/Graphics/SVG/1.1/DTD/svg11.dtd">
<!-- Generated by graphviz version 12.2.1 (20241206.2353)
 -->
<!-- Title: handleGetRMCData Pages: 1 -->
<svg width="363pt" height="28pt"
 viewBox="0.00 0.00 362.75 28.00" xmlns="http://www.w3.org/2000/svg" xmlns:xlink="http://www.w3.org/1999/xlink">
<g id="graph0" class="graph" transform="scale(1 1) rotate(0) translate(4 24)">
<title>handleGetRMCData</title>
<!-- Node1 -->
<g id="Node000001" class="node">
<title>Node1</title>
<g id="a_Node000001"><a xlink:title="Handler for retrieving GPS RMC (Recommended Minimum Navigation) data.">
<polygon fill="#999999" stroke="#666666" points="104.5,-20 0,-20 0,0 104.5,0 104.5,-20"/>
<text text-anchor="middle" x="52.25" y="-6.5" font-family="Helvetica,sans-Serif" font-size="10.00">handleGetRMCData</text>
</a>
</g>
</g>
<!-- Node2 -->
<g id="Node000002" class="node">
<title>Node2</title>
<g id="a_Node000002"><a xlink:href="frame_8cpp.html#a5f43260949ee244d3ee66068eb1d7fc1" target="_top" xlink:title="Builds a Frame instance.">
<polygon fill="white" stroke="#666666" points="204.5,-20 140.5,-20 140.5,0 204.5,0 204.5,-20"/>
<text text-anchor="middle" x="172.5" y="-6.5" font-family="Helvetica,sans-Serif" font-size="10.00">buildFrame</text>
</a>
</g>
</g>
<!-- Node1&#45;&gt;Node2 -->
<g id="edge1_Node000001_Node000002" class="edge">
<title>Node1&#45;&gt;Node2</title>
<g id="a_edge1_Node000001_Node000002"><a xlink:title=" ">
<path fill="none" stroke="#63b8ff" d="M104.77,-10C112.79,-10 121,-10 128.79,-10"/>
<polygon fill="#63b8ff" stroke="#63b8ff" points="128.71,-13.5 138.71,-10 128.71,-6.5 128.71,-13.5"/>
</a>
</g>
</g>
<!-- Node3 -->
<g id="Node000003" class="node">
<title>Node3</title>
<g id="a_Node000003"><a xlink:href="utils__converters_8cpp.html#ab4cb9e6b491bd7711c69c9167a2b9286" target="_top" xlink:title="Converts a ValueUnit to a string.">
<polygon fill="white" stroke="#666666" points="354.75,-20 240.5,-20 240.5,0 354.75,0 354.75,-20"/>
<text text-anchor="middle" x="297.62" y="-6.5" font-family="Helvetica,sans-Serif" font-size="10.00">valueUnitTypeToString</text>
</a>
</g>
</g>
<!-- Node2&#45;&gt;Node3 -->
<g id="edge2_Node000002_Node000003" class="edge">
<title>Node2&#45;&gt;Node3</title>
<g id="a_edge2_Node000002_Node000003"><a xlink:title=" ">
<path fill="none" stroke="#63b8ff" d="M204.89,-10C212.33,-10 220.56,-10 228.94,-10"/>
<polygon fill="#63b8ff" stroke="#63b8ff" points="228.89,-13.5 238.89,-10 228.89,-6.5 228.89,-13.5"/>
</a>
</g>
</g>
</g>
</svg>
