<?xml version="1.0" encoding="UTF-8" standalone="no"?>
<!DOCTYPE svg PUBLIC "-//W3C//DTD SVG 1.1//EN"
 "http://www.w3.org/Graphics/SVG/1.1/DTD/svg11.dtd">
<!-- Generated by graphviz version 12.2.1 (20241206.2353)
 -->
<!-- Title: handle_gps_power_status Pages: 1 -->
<svg width="405pt" height="72pt"
 viewBox="0.00 0.00 404.75 72.00" xmlns="http://www.w3.org/2000/svg" xmlns:xlink="http://www.w3.org/1999/xlink">
<g id="graph0" class="graph" transform="scale(1 1) rotate(0) translate(4 68)">
<title>handle_gps_power_status</title>
<!-- Node1 -->
<g id="Node000001" class="node">
<title>Node1</title>
<g id="a_Node000001"><a xlink:title="Handler for controlling GPS module power state.">
<polygon fill="#999999" stroke="#666666" points="129.25,-45 0,-45 0,-25 129.25,-25 129.25,-45"/>
<text text-anchor="middle" x="64.62" y="-31.5" font-family="Helvetica,sans-Serif" font-size="10.00">handle_gps_power_status</text>
</a>
</g>
</g>
<!-- Node2 -->
<g id="Node000002" class="node">
<title>Node2</title>
<g id="a_Node000002"><a xlink:href="class_event_emitter.html#a539d733505f9a793439a9cfc4f2af079" target="_top" xlink:title="Emits an event.">
<polygon fill="white" stroke="#666666" points="263,-64 165.25,-64 165.25,-44 263,-44 263,-64"/>
<text text-anchor="middle" x="214.12" y="-50.5" font-family="Helvetica,sans-Serif" font-size="10.00">EventEmitter::emit</text>
</a>
</g>
</g>
<!-- Node1&#45;&gt;Node2 -->
<g id="edge1_Node000001_Node000002" class="edge">
<title>Node1&#45;&gt;Node2</title>
<g id="a_edge1_Node000001_Node000002"><a xlink:title=" ">
<path fill="none" stroke="#63b8ff" d="M129.46,-43.22C137.41,-44.25 145.52,-45.29 153.41,-46.31"/>
<polygon fill="#63b8ff" stroke="#63b8ff" points="152.89,-49.77 163.26,-47.58 153.79,-42.83 152.89,-49.77"/>
</a>
</g>
</g>
<!-- Node3 -->
<g id="Node000003" class="node">
<title>Node3</title>
<g id="a_Node000003"><a xlink:href="frame_8cpp.html#a29170691faa10727d607a73861cacbeb" target="_top" xlink:title="Builds a Frame instance.">
<polygon fill="white" stroke="#666666" points="247.25,-26 181,-26 181,-6 247.25,-6 247.25,-26"/>
<text text-anchor="middle" x="214.12" y="-12.5" font-family="Helvetica,sans-Serif" font-size="10.00">frame_build</text>
</a>
</g>
</g>
<!-- Node1&#45;&gt;Node3 -->
<g id="edge2_Node000001_Node000003" class="edge">
<title>Node1&#45;&gt;Node3</title>
<g id="a_edge2_Node000001_Node000003"><a xlink:title=" ">
<path fill="none" stroke="#63b8ff" d="M129.46,-26.78C143.05,-25.03 157.1,-23.22 169.72,-21.59"/>
<polygon fill="#63b8ff" stroke="#63b8ff" points="169.87,-25.1 179.34,-20.35 168.98,-18.16 169.87,-25.1"/>
</a>
</g>
</g>
<!-- Node4 -->
<g id="Node000004" class="node">
<title>Node4</title>
<g id="a_Node000004"><a xlink:href="utils__converters_8cpp.html#a29531ed9ad98ab78384a8a2f37f4e77d" target="_top" xlink:title="Converts a ValueUnit to a string.">
<polygon fill="white" stroke="#666666" points="396.75,-32 299,-32 299,0 396.75,0 396.75,-32"/>
<text text-anchor="start" x="307" y="-18.5" font-family="Helvetica,sans-Serif" font-size="10.00">value_unit_type_to</text>
<text text-anchor="middle" x="347.88" y="-6.5" font-family="Helvetica,sans-Serif" font-size="10.00">_string</text>
</a>
</g>
</g>
<!-- Node3&#45;&gt;Node4 -->
<g id="edge3_Node000003_Node000004" class="edge">
<title>Node3&#45;&gt;Node4</title>
<g id="a_edge3_Node000003_Node000004"><a xlink:title=" ">
<path fill="none" stroke="#63b8ff" d="M247.69,-16C259.66,-16 273.61,-16 287.21,-16"/>
<polygon fill="#63b8ff" stroke="#63b8ff" points="286.99,-19.5 296.99,-16 286.99,-12.5 286.99,-19.5"/>
</a>
</g>
</g>
</g>
</svg>
