<?xml version="1.0" encoding="UTF-8" standalone="no"?>
<!DOCTYPE svg PUBLIC "-//W3C//DTD SVG 1.1//EN"
 "http://www.w3.org/Graphics/SVG/1.1/DTD/svg11.dtd">
<!-- Generated by graphviz version 12.2.1 (20241206.2353)
 -->
<!-- Title: handleEnterBootloaderMode Pages: 1 -->
<!--zoomable 123 -->

<svg id="main" version="1.1" xmlns="http://www.w3.org/2000/svg" xmlns:xlink="http://www.w3.org/1999/xlink" xml:space="preserve" onload="init(evt)">

<style type="text/css"><![CDATA[
.node, .edge {opacity: 0.7;}
.node.selected, .edge.selected {opacity: 1;}
.edge:hover path { stroke: red; }
.edge:hover polygon { stroke: red; fill: red; }
]]></style>

<defs>
  <circle id="rim" cx="0" cy="0" r="7"/>
  <circle id="rim2" cx="0" cy="0" r="3.5"/>
  <g id="zoomPlus">
    <use xlink:href="#rim" fill="#404040"><set attributeName="fill" to="#808080" begin="zoomplus.mouseover" end="zoomplus.mouseout"/></use>
    <path d="M-4,0h8M0,-4v8" fill="none" stroke="white" stroke-width="1.5" pointer-events="none"/>
  </g>
  <g id="zoomMin">
    <use xlink:href="#rim" fill="#404040"><set attributeName="fill" to="#808080" begin="zoomminus.mouseover" end="zoomminus.mouseout"/></use>
    <path d="M-4,0h8" fill="none" stroke="white" stroke-width="1.5" pointer-events="none"/>
  </g>
  <g id="arrowUp" transform="translate(30 24)">
    <use xlink:href="#rim"/>
    <path pointer-events="none" fill="none" stroke="white" stroke-width="1.5" d="M0,-3.0v7 M-2.5,-0.5L0,-3.0L2.5,-0.5"/>
  </g>
  <g id="arrowRight" transform="rotate(90) translate(36 -43)">
    <use xlink:href="#rim"/>
    <path pointer-events="none" fill="none" stroke="white" stroke-width="1.5" d="M0,-3.0v7 M-2.5,-0.5L0,-3.0L2.5,-0.5"/>
  </g>
  <g id="arrowDown" transform="rotate(180) translate(-30 -48)">
    <use xlink:href="#rim"/>
    <path pointer-events="none" fill="none" stroke="white" stroke-width="1.5" d="M0,-3.0v7 M-2.5,-0.5L0,-3.0L2.5,-0.5"/>
  </g>
  <g id="arrowLeft" transform="rotate(270) translate(-36 17)">
    <use xlink:href="#rim"/>
    <path pointer-events="none" fill="none" stroke="white" stroke-width="1.5" d="M0,-3.0v7 M-2.5,-0.5L0,-3.0L2.5,-0.5"/>
  </g>
  <g id="resetDef">
    <use xlink:href="#rim2" fill="#404040"><set attributeName="fill" to="#808080" begin="reset.mouseover" end="reset.mouseout"/></use>
  </g>
</defs>
<script type="application/ecmascript">
var viewWidth = 546;
var viewHeight = 123;
var sectionId = 'dynsection-2';
</script>
<script type="application/ecmascript" xlink:href="svg.min.js"/>
<svg id="graph" class="graph">
<g id="viewport">
<title>handleEnterBootloaderMode</title>
<!-- Node1 -->
<g id="Node000001" class="node">
<title>Node1</title>
<g id="a_Node000001"><a xlink:title="Reboot system to USB firmware loader.">
<polygon fill="#999999" stroke="#666666" points="138.25,-58 0,-58 0,-38 138.25,-38 138.25,-58"/>
<text text-anchor="middle" x="69.12" y="-44.5" font-family="Helvetica,sans-Serif" font-size="10.00">handleEnterBootloaderMode</text>
</a>
</g>
</g>
<!-- Node2 -->
<g id="Node000002" class="node">
<title>Node2</title>
<g id="a_Node000002"><a xlink:href="frame_8cpp.html#a5f43260949ee244d3ee66068eb1d7fc1" target="_top" xlink:title="Builds a Frame instance.">
<polygon fill="white" stroke="#666666" points="238.62,-105 174.62,-105 174.62,-85 238.62,-85 238.62,-105"/>
<text text-anchor="middle" x="206.62" y="-91.5" font-family="Helvetica,sans-Serif" font-size="10.00">buildFrame</text>
</a>
</g>
</g>
<!-- Node1&#45;&gt;Node2 -->
<g id="edge1_Node000001_Node000002" class="edge">
<title>Node1&#45;&gt;Node2</title>
<g id="a_edge1_Node000001_Node000002"><a xlink:title=" ">
<path fill="none" stroke="#63b8ff" d="M100.2,-58.43C119.23,-65.03 144.08,-73.65 164.88,-80.87"/>
<polygon fill="#63b8ff" stroke="#63b8ff" points="163.61,-84.13 174.21,-84.1 165.91,-77.52 163.61,-84.13"/>
</a>
</g>
</g>
<!-- Node4 -->
<g id="Node000004" class="node">
<title>Node4</title>
<g id="a_Node000004"><a xlink:href="send_8cpp.html#a752e7cc27f52d4ba064e691b3e240ed8" target="_top" xlink:title="Sends a Frame using LoRa.">
<polygon fill="white" stroke="#666666" points="239,-58 174.25,-58 174.25,-38 239,-38 239,-58"/>
<text text-anchor="middle" x="206.62" y="-44.5" font-family="Helvetica,sans-Serif" font-size="10.00">sendFrame</text>
</a>
</g>
</g>
<!-- Node1&#45;&gt;Node4 -->
<g id="edge3_Node000001_Node000004" class="edge">
<title>Node1&#45;&gt;Node4</title>
<g id="a_edge3_Node000001_Node000004"><a xlink:title=" ">
<path fill="none" stroke="#63b8ff" d="M138.67,-48C146.77,-48 154.85,-48 162.46,-48"/>
<polygon fill="#63b8ff" stroke="#63b8ff" points="162.43,-51.5 172.43,-48 162.43,-44.5 162.43,-51.5"/>
</a>
</g>
</g>
<!-- Node8 -->
<g id="Node000008" class="node">
<title>Node8</title>
<g id="a_Node000008"><a xlink:href="utils_8cpp.html#aacbcecbe6b5428e3571b06ab2104e706" target="_top" xlink:title="Prints a message to the UART with a timestamp and core number.">
<polygon fill="white" stroke="#666666" points="508,-20 455.25,-20 455.25,0 508,0 508,-20"/>
<text text-anchor="middle" x="481.62" y="-6.5" font-family="Helvetica,sans-Serif" font-size="10.00">uartPrint</text>
</a>
</g>
</g>
<!-- Node1&#45;&gt;Node8 -->
<g id="edge8_Node000001_Node000008" class="edge">
<title>Node1&#45;&gt;Node8</title>
<g id="a_edge8_Node000001_Node000008"><a xlink:title=" ">
<path fill="none" stroke="#63b8ff" d="M113.76,-37.5C155.02,-28.15 218.8,-15.17 275,-10 333.72,-4.6 402.28,-6.17 443.53,-7.96"/>
<polygon fill="#63b8ff" stroke="#63b8ff" points="443.25,-11.45 453.4,-8.42 443.57,-4.46 443.25,-11.45"/>
</a>
</g>
</g>
<!-- Node3 -->
<g id="Node000003" class="node">
<title>Node3</title>
<g id="a_Node000003"><a xlink:href="utils__converters_8cpp.html#ab4cb9e6b491bd7711c69c9167a2b9286" target="_top" xlink:title="Converts a ValueUnit to a string.">
<polygon fill="white" stroke="#666666" points="389.25,-115 275,-115 275,-95 389.25,-95 389.25,-115"/>
<text text-anchor="middle" x="332.12" y="-101.5" font-family="Helvetica,sans-Serif" font-size="10.00">valueUnitTypeToString</text>
</a>
</g>
</g>
<!-- Node2&#45;&gt;Node3 -->
<g id="edge2_Node000002_Node000003" class="edge">
<title>Node2&#45;&gt;Node3</title>
<g id="a_edge2_Node000002_Node000003"><a xlink:title=" ">
<path fill="none" stroke="#63b8ff" d="M239.11,-97.55C246.66,-98.16 255.02,-98.84 263.52,-99.53"/>
<polygon fill="#63b8ff" stroke="#63b8ff" points="262.98,-102.99 273.23,-100.31 263.54,-96.02 262.98,-102.99"/>
</a>
</g>
</g>
<!-- Node5 -->
<g id="Node000005" class="node">
<title>Node5</title>
<g id="a_Node000005"><a xlink:href="frame_8cpp.html#ab53898fb6f45dfc657837a665a070959" target="_top" xlink:title="Encodes a Frame instance into a string.">
<polygon fill="white" stroke="#666666" points="369.75,-77 294.5,-77 294.5,-57 369.75,-57 369.75,-77"/>
<text text-anchor="middle" x="332.12" y="-63.5" font-family="Helvetica,sans-Serif" font-size="10.00">encodeFrame</text>
</a>
</g>
</g>
<!-- Node4&#45;&gt;Node5 -->
<g id="edge4_Node000004_Node000005" class="edge">
<title>Node4&#45;&gt;Node5</title>
<g id="a_edge4_Node000004_Node000005"><a xlink:title=" ">
<path fill="none" stroke="#63b8ff" d="M239.43,-52.89C252.76,-54.94 268.54,-57.37 283.22,-59.63"/>
<polygon fill="#63b8ff" stroke="#63b8ff" points="282.26,-63.02 292.68,-61.08 283.33,-56.1 282.26,-63.02"/>
</a>
</g>
</g>
<!-- Node7 -->
<g id="Node000007" class="node">
<title>Node7</title>
<g id="a_Node000007"><a xlink:href="send_8cpp.html#adcc720dc971ce8b237b26df434b65bb2" target="_top" xlink:title="Sends a message using LoRa.">
<polygon fill="white" stroke="#666666" points="370.5,-39 293.75,-39 293.75,-19 370.5,-19 370.5,-39"/>
<text text-anchor="middle" x="332.12" y="-25.5" font-family="Helvetica,sans-Serif" font-size="10.00">sendMessage</text>
</a>
</g>
</g>
<!-- Node4&#45;&gt;Node7 -->
<g id="edge6_Node000004_Node000007" class="edge">
<title>Node4&#45;&gt;Node7</title>
<g id="a_edge6_Node000004_Node000007"><a xlink:title=" ">
<path fill="none" stroke="#63b8ff" d="M239.43,-43.11C252.4,-41.11 267.7,-38.76 282.04,-36.55"/>
<polygon fill="#63b8ff" stroke="#63b8ff" points="282.43,-40.03 291.78,-35.05 281.36,-33.11 282.43,-40.03"/>
</a>
</g>
</g>
<!-- Node6 -->
<g id="Node000006" class="node">
<title>Node6</title>
<g id="a_Node000006"><a xlink:href="utils__converters_8cpp.html#a82a11ce999902359454fa904a13ae297" target="_top" xlink:title="Converts an OperationType to a string.">
<polygon fill="white" stroke="#666666" points="538,-77 425.25,-77 425.25,-57 538,-57 538,-77"/>
<text text-anchor="middle" x="481.62" y="-63.5" font-family="Helvetica,sans-Serif" font-size="10.00">operationTypeToString</text>
</a>
</g>
</g>
<!-- Node5&#45;&gt;Node6 -->
<g id="edge5_Node000005_Node000006" class="edge">
<title>Node5&#45;&gt;Node6</title>
<g id="a_edge5_Node000005_Node000006"><a xlink:title=" ">
<path fill="none" stroke="#63b8ff" d="M369.96,-67C383.22,-67 398.63,-67 413.65,-67"/>
<polygon fill="#63b8ff" stroke="#63b8ff" points="413.51,-70.5 423.51,-67 413.51,-63.5 413.51,-70.5"/>
</a>
</g>
</g>
<!-- Node7&#45;&gt;Node8 -->
<g id="edge7_Node000007_Node000008" class="edge">
<title>Node7&#45;&gt;Node8</title>
<g id="a_edge7_Node000007_Node000008"><a xlink:title=" ">
<path fill="none" stroke="#63b8ff" d="M370.73,-24.16C393.16,-21.27 421.51,-17.61 443.8,-14.74"/>
<polygon fill="#63b8ff" stroke="#63b8ff" points="444.19,-18.22 453.66,-13.47 443.29,-11.28 444.19,-18.22"/>
</a>
</g>
</g>
</g>
</svg>

<g id="navigator" transform="translate(0 0)" fill="#404254">
  <rect fill="#f2f5e9" fill-opacity="0.5" stroke="#606060" stroke-width=".5" x="0" y="0" width="60" height="60"/>
  <use id="zoomplus" xlink:href="#zoomPlus" x="17" y="9" onmousedown="handleZoom(evt,'in')"/>
  <use id="zoomminus" xlink:href="#zoomMin" x="42" y="9" onmousedown="handleZoom(evt,'out')"/>
  <use id="reset" xlink:href="#resetDef" x="30" y="36" onmousedown="handleReset()"/>
   <use id="arrowup" xlink:href="#arrowUp" x="0" y="0" onmousedown="handlePan(0,-1)"/>
  <use id="arrowright" xlink:href="#arrowRight" x="0" y="0" onmousedown="handlePan(1,0)"/>
  <use id="arrowdown" xlink:href="#arrowDown" x="0" y="0" onmousedown="handlePan(0,1)"/>
  <use id="arrowleft" xlink:href="#arrowLeft" x="0" y="0" onmousedown="handlePan(-1,0)"/>
</g>
<svg viewBox="0 0 15 15" width="100%" height="30px" preserveAspectRatio="xMaxYMin meet">
 <g id="arrow_out" transform="scale(0.3 0.3)">
  <a xlink:href="group___diagnostic_commands_ga3a6c6092cd01fd9c13ab429f4a34326d_cgraph_org.svg" target="_base">
   <rect id="button" ry="5" rx="5" y="6" x="6" height="38" width="38"
        fill="#f2f5e9" fill-opacity="0.5" stroke="#606060" stroke-width="1.0"/>
   <path id="arrow"
     d="M 11.500037,31.436501 C 11.940474,20.09759 22.043105,11.32322 32.158766,21.979434 L 37.068811,17.246167 C 37.068811,17.246167 37.088388,32 37.088388,32 L 22.160133,31.978069 C 22.160133,31.978069 26.997745,27.140456 26.997745,27.140456 C 18.528582,18.264221 13.291696,25.230495 11.500037,31.436501 z"
     style="fill:#404040;"/>
  </a>
 </g>
</svg>

<style type='text/css'>
<![CDATA[
[data-mouse-over-selected='false'] { opacity: 0.7; }
[data-mouse-over-selected='true']  { opacity: 1.0; }
]]>
</style>
<script type="application/ecmascript"><![CDATA[
document.addEventListener('DOMContentLoaded', (event) => {
  highlightEdges();
  highlightAdjacentNodes();
});
]]></script>
</svg>
