<?xml version="1.0" encoding="UTF-8" standalone="no"?>
<!DOCTYPE svg PUBLIC "-//W3C//DTD SVG 1.1//EN"
 "http://www.w3.org/Graphics/SVG/1.1/DTD/svg11.dtd">
<!-- Generated by graphviz version 12.2.1 (20241206.2353)
 -->
<!-- Title: handleGetPowerManagerIDs Pages: 1 -->
<svg width="400pt" height="28pt"
 viewBox="0.00 0.00 399.50 28.00" xmlns="http://www.w3.org/2000/svg" xmlns:xlink="http://www.w3.org/1999/xlink">
<g id="graph0" class="graph" transform="scale(1 1) rotate(0) translate(4 24)">
<title>handleGetPowerManagerIDs</title>
<!-- Node1 -->
<g id="Node000001" class="node">
<title>Node1</title>
<g id="a_Node000001"><a xlink:title="Handler for retrieving Power Manager IDs.">
<polygon fill="#999999" stroke="#666666" points="141.25,-20 0,-20 0,0 141.25,0 141.25,-20"/>
<text text-anchor="middle" x="70.62" y="-6.5" font-family="Helvetica,sans-Serif" font-size="10.00">handleGetPowerManagerIDs</text>
</a>
</g>
</g>
<!-- Node2 -->
<g id="Node000002" class="node">
<title>Node2</title>
<g id="a_Node000002"><a xlink:href="frame_8cpp.html#a5f43260949ee244d3ee66068eb1d7fc1" target="_top" xlink:title="Builds a Frame instance.">
<polygon fill="white" stroke="#666666" points="241.25,-20 177.25,-20 177.25,0 241.25,0 241.25,-20"/>
<text text-anchor="middle" x="209.25" y="-6.5" font-family="Helvetica,sans-Serif" font-size="10.00">buildFrame</text>
</a>
</g>
</g>
<!-- Node1&#45;&gt;Node2 -->
<g id="edge1_Node000001_Node000002" class="edge">
<title>Node1&#45;&gt;Node2</title>
<g id="a_edge1_Node000001_Node000002"><a xlink:title=" ">
<path fill="none" stroke="#63b8ff" d="M141.54,-10C149.82,-10 158.07,-10 165.81,-10"/>
<polygon fill="#63b8ff" stroke="#63b8ff" points="165.57,-13.5 175.57,-10 165.57,-6.5 165.57,-13.5"/>
</a>
</g>
</g>
<!-- Node3 -->
<g id="Node000003" class="node">
<title>Node3</title>
<g id="a_Node000003"><a xlink:href="utils__converters_8cpp.html#ab4cb9e6b491bd7711c69c9167a2b9286" target="_top" xlink:title="Converts a ValueUnit to a string.">
<polygon fill="white" stroke="#666666" points="391.5,-20 277.25,-20 277.25,0 391.5,0 391.5,-20"/>
<text text-anchor="middle" x="334.38" y="-6.5" font-family="Helvetica,sans-Serif" font-size="10.00">valueUnitTypeToString</text>
</a>
</g>
</g>
<!-- Node2&#45;&gt;Node3 -->
<g id="edge2_Node000002_Node000003" class="edge">
<title>Node2&#45;&gt;Node3</title>
<g id="a_edge2_Node000002_Node000003"><a xlink:title=" ">
<path fill="none" stroke="#63b8ff" d="M241.64,-10C249.08,-10 257.31,-10 265.69,-10"/>
<polygon fill="#63b8ff" stroke="#63b8ff" points="265.64,-13.5 275.64,-10 265.64,-6.5 265.64,-13.5"/>
</a>
</g>
</g>
</g>
</svg>
