<?xml version="1.0" encoding="UTF-8" standalone="no"?>
<!DOCTYPE svg PUBLIC "-//W3C//DTD SVG 1.1//EN"
 "http://www.w3.org/Graphics/SVG/1.1/DTD/svg11.dtd">
<!-- Generated by graphviz version 12.2.1 (20241206.2353)
 -->
<!-- Title: handle_get_commands_list Pages: 1 -->
<svg width="379pt" height="72pt"
 viewBox="0.00 0.00 378.50 72.00" xmlns="http://www.w3.org/2000/svg" xmlns:xlink="http://www.w3.org/1999/xlink">
<g id="graph0" class="graph" transform="scale(1 1) rotate(0) translate(4 68)">
<title>handle_get_commands_list</title>
<!-- Node1 -->
<g id="Node000001" class="node">
<title>Node1</title>
<g id="a_Node000001"><a xlink:title="Handler for listing all available commands on UART.">
<polygon fill="#999999" stroke="#666666" points="134.5,-39 0,-39 0,-19 134.5,-19 134.5,-39"/>
<text text-anchor="middle" x="67.25" y="-25.5" font-family="Helvetica,sans-Serif" font-size="10.00">handle_get_commands_list</text>
</a>
</g>
</g>
<!-- Node2 -->
<g id="Node000002" class="node">
<title>Node2</title>
<g id="a_Node000002"><a xlink:href="frame_8cpp.html#a29170691faa10727d607a73861cacbeb" target="_top" xlink:title="Builds a Frame instance.">
<polygon fill="white" stroke="#666666" points="236.75,-58 170.5,-58 170.5,-38 236.75,-38 236.75,-58"/>
<text text-anchor="middle" x="203.62" y="-44.5" font-family="Helvetica,sans-Serif" font-size="10.00">frame_build</text>
</a>
</g>
</g>
<!-- Node1&#45;&gt;Node2 -->
<g id="edge1_Node000001_Node000002" class="edge">
<title>Node1&#45;&gt;Node2</title>
<g id="a_edge1_Node000001_Node000002"><a xlink:title=" ">
<path fill="none" stroke="#63b8ff" d="M134.65,-38.39C142.82,-39.54 151,-40.7 158.71,-41.79"/>
<polygon fill="#63b8ff" stroke="#63b8ff" points="158.11,-45.24 168.5,-43.18 159.09,-38.31 158.11,-45.24"/>
</a>
</g>
</g>
<!-- Node4 -->
<g id="Node000004" class="node">
<title>Node4</title>
<g id="a_Node000004"><a xlink:href="utils_8cpp.html#acd86977d05fa330749958ace0f2798de" target="_top" xlink:title="Prints a message to the UART with a timestamp and core number.">
<polygon fill="white" stroke="#666666" points="231.88,-20 175.38,-20 175.38,0 231.88,0 231.88,-20"/>
<text text-anchor="middle" x="203.62" y="-6.5" font-family="Helvetica,sans-Serif" font-size="10.00">uart_print</text>
</a>
</g>
</g>
<!-- Node1&#45;&gt;Node4 -->
<g id="edge3_Node000001_Node000004" class="edge">
<title>Node1&#45;&gt;Node4</title>
<g id="a_edge3_Node000001_Node000004"><a xlink:title=" ">
<path fill="none" stroke="#63b8ff" d="M134.65,-19.61C144.69,-18.19 154.76,-16.77 163.95,-15.47"/>
<polygon fill="#63b8ff" stroke="#63b8ff" points="164.15,-18.98 173.56,-14.11 163.17,-12.04 164.15,-18.98"/>
</a>
</g>
</g>
<!-- Node3 -->
<g id="Node000003" class="node">
<title>Node3</title>
<g id="a_Node000003"><a xlink:href="utils__converters_8cpp.html#a29531ed9ad98ab78384a8a2f37f4e77d" target="_top" xlink:title="Converts a ValueUnit to a string.">
<polygon fill="white" stroke="#666666" points="370.5,-64 272.75,-64 272.75,-32 370.5,-32 370.5,-64"/>
<text text-anchor="start" x="280.75" y="-50.5" font-family="Helvetica,sans-Serif" font-size="10.00">value_unit_type_to</text>
<text text-anchor="middle" x="321.62" y="-38.5" font-family="Helvetica,sans-Serif" font-size="10.00">_string</text>
</a>
</g>
</g>
<!-- Node2&#45;&gt;Node3 -->
<g id="edge2_Node000002_Node000003" class="edge">
<title>Node2&#45;&gt;Node3</title>
<g id="a_edge2_Node000002_Node000003"><a xlink:title=" ">
<path fill="none" stroke="#63b8ff" d="M237.25,-48C244.8,-48 253.07,-48 261.38,-48"/>
<polygon fill="#63b8ff" stroke="#63b8ff" points="261.15,-51.5 271.15,-48 261.15,-44.5 261.15,-51.5"/>
</a>
</g>
</g>
</g>
</svg>
