<?xml version="1.0" encoding="UTF-8" standalone="no"?>
<!DOCTYPE svg PUBLIC "-//W3C//DTD SVG 1.1//EN"
 "http://www.w3.org/Graphics/SVG/1.1/DTD/svg11.dtd">
<!-- Generated by graphviz version 12.2.1 (20241206.2353)
 -->
<!-- Title: handle_time Pages: 1 -->
<svg width="344pt" height="104pt"
 viewBox="0.00 0.00 344.00 104.00" xmlns="http://www.w3.org/2000/svg" xmlns:xlink="http://www.w3.org/1999/xlink">

<svg id="main" version="1.1" xmlns="http://www.w3.org/2000/svg" xmlns:xlink="http://www.w3.org/1999/xlink" xml:space="preserve">

<style type="text/css"><![CDATA[
.node, .edge {opacity: 0.7;}
.node.selected, .edge.selected {opacity: 1;}
.edge:hover path { stroke: red; }
.edge:hover polygon { stroke: red; fill: red; }
]]></style>
<script type="application/ecmascript" xlink:href="svg.min.js"/>
<svg id="graph" class="graph">
<g id="graph0" class="graph" transform="scale(1 1) rotate(0) translate(4 100)">
<title>handle_time</title>
<!-- Node1 -->
<g id="Node000001" class="node">
<title>Node1</title>
<g id="a_Node000001"><a xlink:title="Handler for getting and setting system time.">
<polygon fill="#999999" stroke="#666666" points="68.5,-58 0,-58 0,-38 68.5,-38 68.5,-58"/>
<text text-anchor="middle" x="34.25" y="-44.5" font-family="Helvetica,sans-Serif" font-size="10.00">handle_time</text>
</a>
</g>
</g>
<!-- Node2 -->
<g id="Node000002" class="node">
<title>Node2</title>
<g id="a_Node000002"><a xlink:href="class_event_emitter.html#a539d733505f9a793439a9cfc4f2af079" target="_top" xlink:title="Emits an event.">
<polygon fill="white" stroke="#666666" points="202.25,-96 104.5,-96 104.5,-76 202.25,-76 202.25,-96"/>
<text text-anchor="middle" x="153.38" y="-82.5" font-family="Helvetica,sans-Serif" font-size="10.00">EventEmitter::emit</text>
</a>
</g>
</g>
<!-- Node1&#45;&gt;Node2 -->
<g id="edge1_Node000001_Node000002" class="edge">
<title>Node1&#45;&gt;Node2</title>
<g id="a_edge1_Node000001_Node000002"><a xlink:title=" ">
<path fill="none" stroke="#63b8ff" d="M67.56,-58.48C80.49,-62.68 95.58,-67.57 109.41,-72.06"/>
<polygon fill="#63b8ff" stroke="#63b8ff" points="108.13,-75.33 118.73,-75.08 110.29,-68.67 108.13,-75.33"/>
</a>
</g>
</g>
<!-- Node3 -->
<g id="Node000003" class="node">
<title>Node3</title>
<g id="a_Node000003"><a xlink:href="frame_8cpp.html#a29170691faa10727d607a73861cacbeb" target="_top" xlink:title="Builds a Frame instance.">
<polygon fill="white" stroke="#666666" points="186.5,-58 120.25,-58 120.25,-38 186.5,-38 186.5,-58"/>
<text text-anchor="middle" x="153.38" y="-44.5" font-family="Helvetica,sans-Serif" font-size="10.00">frame_build</text>
</a>
</g>
</g>
<!-- Node1&#45;&gt;Node3 -->
<g id="edge2_Node000001_Node000003" class="edge">
<title>Node1&#45;&gt;Node3</title>
<g id="a_edge2_Node000001_Node000003"><a xlink:title=" ">
<path fill="none" stroke="#63b8ff" d="M68.81,-48C81.26,-48 95.55,-48 108.76,-48"/>
<polygon fill="#63b8ff" stroke="#63b8ff" points="108.5,-51.5 118.5,-48 108.5,-44.5 108.5,-51.5"/>
</a>
</g>
</g>
<!-- Node5 -->
<g id="Node000005" class="node">
<title>Node5</title>
<g id="a_Node000005"><a xlink:href="utils_8cpp.html#acd86977d05fa330749958ace0f2798de" target="_top" xlink:title="Prints a message to the UART with a timestamp and core number.">
<polygon fill="white" stroke="#666666" points="181.62,-20 125.12,-20 125.12,0 181.62,0 181.62,-20"/>
<text text-anchor="middle" x="153.38" y="-6.5" font-family="Helvetica,sans-Serif" font-size="10.00">uart_print</text>
</a>
</g>
</g>
<!-- Node1&#45;&gt;Node5 -->
<g id="edge4_Node000001_Node000005" class="edge">
<title>Node1&#45;&gt;Node5</title>
<g id="a_edge4_Node000001_Node000005"><a xlink:title=" ">
<path fill="none" stroke="#63b8ff" d="M67.56,-37.52C82.06,-32.81 99.26,-27.23 114.36,-22.33"/>
<polygon fill="#63b8ff" stroke="#63b8ff" points="115.06,-25.79 123.49,-19.37 112.9,-19.13 115.06,-25.79"/>
</a>
</g>
</g>
<!-- Node4 -->
<g id="Node000004" class="node">
<title>Node4</title>
<g id="a_Node000004"><a xlink:href="utils__converters_8cpp.html#a29531ed9ad98ab78384a8a2f37f4e77d" target="_top" xlink:title="Converts a ValueUnit to a string.">
<polygon fill="white" stroke="#666666" points="336,-64 238.25,-64 238.25,-32 336,-32 336,-64"/>
<text text-anchor="start" x="246.25" y="-50.5" font-family="Helvetica,sans-Serif" font-size="10.00">value_unit_type_to</text>
<text text-anchor="middle" x="287.12" y="-38.5" font-family="Helvetica,sans-Serif" font-size="10.00">_string</text>
</a>
</g>
</g>
<!-- Node3&#45;&gt;Node4 -->
<g id="edge3_Node000003_Node000004" class="edge">
<title>Node3&#45;&gt;Node4</title>
<g id="a_edge3_Node000003_Node000004"><a xlink:title=" ">
<path fill="none" stroke="#63b8ff" d="M186.94,-48C198.91,-48 212.86,-48 226.46,-48"/>
<polygon fill="#63b8ff" stroke="#63b8ff" points="226.24,-51.5 236.24,-48 226.24,-44.5 226.24,-51.5"/>
</a>
</g>
</g>
</g>
</svg>
</svg>

<style type='text/css'>
<![CDATA[
[data-mouse-over-selected='false'] { opacity: 0.7; }
[data-mouse-over-selected='true']  { opacity: 1.0; }
]]>
</style>
<script type="application/ecmascript"><![CDATA[
document.addEventListener('DOMContentLoaded', (event) => {
  highlightEdges();
  highlightAdjacentNodes();
});
]]></script>
</svg>
