<?xml version="1.0" encoding="UTF-8" standalone="no"?>
<!DOCTYPE svg PUBLIC "-//W3C//DTD SVG 1.1//EN"
 "http://www.w3.org/Graphics/SVG/1.1/DTD/svg11.dtd">
<!-- Generated by graphviz version 12.2.1 (20241206.2353)
 -->
<!-- Title: Graphical Class Hierarchy Pages: 1 -->
<svg width="195pt" height="142pt"
 viewBox="0.00 0.00 194.50 142.00" xmlns="http://www.w3.org/2000/svg" xmlns:xlink="http://www.w3.org/1999/xlink">
<g id="graph0" class="graph" transform="scale(1 1) rotate(0) translate(4 138)">
<title>Graphical Class Hierarchy</title>
<!-- Node0 -->
<g id="Node000000" class="node">
<title>Node0</title>
<g id="a_Node000000"><a xlink:href="class_i_sensor.html" target="_top" xlink:title=" ">
<polygon fill="white" stroke="#666666" points="49.75,-77 0,-77 0,-57 49.75,-57 49.75,-77"/>
<text text-anchor="middle" x="24.88" y="-63.5" font-family="Helvetica,sans-Serif" font-size="10.00">ISensor</text>
</a>
</g>
</g>
<!-- Node1 -->
<g id="Node000001" class="node">
<title>Node1</title>
<g id="a_Node000001"><a xlink:href="class_b_h1750_wrapper.html" target="_top" xlink:title=" ">
<polygon fill="white" stroke="#666666" points="179.75,-134 92.5,-134 92.5,-114 179.75,-114 179.75,-134"/>
<text text-anchor="middle" x="136.12" y="-120.5" font-family="Helvetica,sans-Serif" font-size="10.00">BH1750Wrapper</text>
</a>
</g>
</g>
<!-- Node0&#45;&gt;Node1 -->
<g id="edge2_Node000000_Node000001" class="edge">
<title>Node0&#45;&gt;Node1</title>
<g id="a_edge2_Node000000_Node000001"><a xlink:title=" ">
<path fill="none" stroke="#63b8ff" d="M49.66,-83.63C60.4,-90.73 73.42,-98.79 85.75,-105 91.9,-108.1 98.69,-111.01 105.21,-113.58"/>
<polygon fill="#63b8ff" stroke="#63b8ff" points="51.66,-80.76 41.42,-78.06 47.74,-86.56 51.66,-80.76"/>
</a>
</g>
</g>
<!-- Node2 -->
<g id="Node000002" class="node">
<title>Node2</title>
<g id="a_Node000002"><a xlink:href="class_b_m_e280_wrapper.html" target="_top" xlink:title=" ">
<polygon fill="white" stroke="#666666" points="180.88,-96 91.38,-96 91.38,-76 180.88,-76 180.88,-96"/>
<text text-anchor="middle" x="136.12" y="-82.5" font-family="Helvetica,sans-Serif" font-size="10.00">BME280Wrapper</text>
</a>
</g>
</g>
<!-- Node0&#45;&gt;Node2 -->
<g id="edge3_Node000000_Node000002" class="edge">
<title>Node0&#45;&gt;Node2</title>
<g id="a_edge3_Node000000_Node000002"><a xlink:title=" ">
<path fill="none" stroke="#63b8ff" d="M61.22,-73.15C70.76,-74.81 81.21,-76.62 91.16,-78.35"/>
<polygon fill="#63b8ff" stroke="#63b8ff" points="62.06,-69.74 51.61,-71.48 60.86,-76.64 62.06,-69.74"/>
</a>
</g>
</g>
<!-- Node3 -->
<g id="Node000003" class="node">
<title>Node3</title>
<g id="a_Node000003"><a xlink:href="class_h_m_c5883_l_wrapper.html" target="_top" xlink:title=" ">
<polygon fill="white" stroke="#666666" points="186.5,-58 85.75,-58 85.75,-38 186.5,-38 186.5,-58"/>
<text text-anchor="middle" x="136.12" y="-44.5" font-family="Helvetica,sans-Serif" font-size="10.00">HMC5883LWrapper</text>
</a>
</g>
</g>
<!-- Node0&#45;&gt;Node3 -->
<g id="edge4_Node000000_Node000003" class="edge">
<title>Node0&#45;&gt;Node3</title>
<g id="a_edge4_Node000000_Node000003"><a xlink:title=" ">
<path fill="none" stroke="#63b8ff" d="M61.28,-60.84C68.99,-59.5 77.28,-58.06 85.43,-56.64"/>
<polygon fill="#63b8ff" stroke="#63b8ff" points="60.86,-57.36 51.61,-62.52 62.06,-64.26 60.86,-57.36"/>
</a>
</g>
</g>
<!-- Node4 -->
<g id="Node000004" class="node">
<title>Node4</title>
<g id="a_Node000004"><a xlink:href="class_m_p_u6050_wrapper.html" target="_top" xlink:title=" ">
<polygon fill="white" stroke="#666666" points="183.88,-20 88.38,-20 88.38,0 183.88,0 183.88,-20"/>
<text text-anchor="middle" x="136.12" y="-6.5" font-family="Helvetica,sans-Serif" font-size="10.00">MPU6050Wrapper</text>
</a>
</g>
</g>
<!-- Node0&#45;&gt;Node4 -->
<g id="edge5_Node000000_Node000004" class="edge">
<title>Node0&#45;&gt;Node4</title>
<g id="a_edge5_Node000000_Node000004"><a xlink:title=" ">
<path fill="none" stroke="#63b8ff" d="M49.66,-50.37C60.4,-43.27 73.42,-35.21 85.75,-29 91.9,-25.9 98.69,-22.99 105.21,-20.42"/>
<polygon fill="#63b8ff" stroke="#63b8ff" points="47.74,-47.44 41.42,-55.94 51.66,-53.24 47.74,-47.44"/>
</a>
</g>
</g>
</g>
</svg>
