<?xml version="1.0" encoding="UTF-8" standalone="no"?>
<!DOCTYPE svg PUBLIC "-//W3C//DTD SVG 1.1//EN"
 "http://www.w3.org/Graphics/SVG/1.1/DTD/svg11.dtd">
<!-- Generated by graphviz version 12.2.1 (20241206.2353)
 -->
<!-- Title: core1_entry Pages: 1 -->
<!--zoomable 230 -->

<svg id="main" version="1.1" xmlns="http://www.w3.org/2000/svg" xmlns:xlink="http://www.w3.org/1999/xlink" xml:space="preserve" onload="init(evt)">

<style type="text/css"><![CDATA[
.node, .edge {opacity: 0.7;}
.node.selected, .edge.selected {opacity: 1;}
.edge:hover path { stroke: red; }
.edge:hover polygon { stroke: red; fill: red; }
]]></style>

<defs>
  <circle id="rim" cx="0" cy="0" r="7"/>
  <circle id="rim2" cx="0" cy="0" r="3.5"/>
  <g id="zoomPlus">
    <use xlink:href="#rim" fill="#404040"><set attributeName="fill" to="#808080" begin="zoomplus.mouseover" end="zoomplus.mouseout"/></use>
    <path d="M-4,0h8M0,-4v8" fill="none" stroke="white" stroke-width="1.5" pointer-events="none"/>
  </g>
  <g id="zoomMin">
    <use xlink:href="#rim" fill="#404040"><set attributeName="fill" to="#808080" begin="zoomminus.mouseover" end="zoomminus.mouseout"/></use>
    <path d="M-4,0h8" fill="none" stroke="white" stroke-width="1.5" pointer-events="none"/>
  </g>
  <g id="arrowUp" transform="translate(30 24)">
    <use xlink:href="#rim"/>
    <path pointer-events="none" fill="none" stroke="white" stroke-width="1.5" d="M0,-3.0v7 M-2.5,-0.5L0,-3.0L2.5,-0.5"/>
  </g>
  <g id="arrowRight" transform="rotate(90) translate(36 -43)">
    <use xlink:href="#rim"/>
    <path pointer-events="none" fill="none" stroke="white" stroke-width="1.5" d="M0,-3.0v7 M-2.5,-0.5L0,-3.0L2.5,-0.5"/>
  </g>
  <g id="arrowDown" transform="rotate(180) translate(-30 -48)">
    <use xlink:href="#rim"/>
    <path pointer-events="none" fill="none" stroke="white" stroke-width="1.5" d="M0,-3.0v7 M-2.5,-0.5L0,-3.0L2.5,-0.5"/>
  </g>
  <g id="arrowLeft" transform="rotate(270) translate(-36 17)">
    <use xlink:href="#rim"/>
    <path pointer-events="none" fill="none" stroke="white" stroke-width="1.5" d="M0,-3.0v7 M-2.5,-0.5L0,-3.0L2.5,-0.5"/>
  </g>
  <g id="resetDef">
    <use xlink:href="#rim2" fill="#404040"><set attributeName="fill" to="#808080" begin="reset.mouseover" end="reset.mouseout"/></use>
  </g>
</defs>
<script type="application/ecmascript">
var viewWidth = 585;
var viewHeight = 230;
var sectionId = 'dynsection-1';
</script>
<script type="application/ecmascript" xlink:href="svg.min.js"/>
<svg id="graph" class="graph">
<g id="viewport">
<title>core1_entry</title>
<!-- Node1 -->
<g id="Node000001" class="node">
<title>Node1</title>
<g id="a_Node000001"><a xlink:title=" ">
<polygon fill="#999999" stroke="#666666" points="67,-58 0,-58 0,-38 67,-38 67,-58"/>
<text text-anchor="middle" x="33.5" y="-44.5" font-family="Helvetica,sans-Serif" font-size="10.00">core1_entry</text>
</a>
</g>
</g>
<!-- Node2 -->
<g id="Node000002" class="node">
<title>Node2</title>
<g id="a_Node000002"><a xlink:href="event__manager_8cpp.html#a3a1b3fdef7c62da5c917d3006cdc65dd" target="_top" xlink:title="Checks power statuses and triggers events based on voltage trends.">
<polygon fill="white" stroke="#666666" points="211.25,-118 103,-118 103,-98 211.25,-98 211.25,-118"/>
<text text-anchor="middle" x="157.12" y="-104.5" font-family="Helvetica,sans-Serif" font-size="10.00">check_power_events</text>
</a>
</g>
</g>
<!-- Node1&#45;&gt;Node2 -->
<g id="edge1_Node000001_Node000002" class="edge">
<title>Node1&#45;&gt;Node2</title>
<g id="a_edge1_Node000001_Node000002"><a xlink:title=" ">
<path fill="none" stroke="#63b8ff" d="M55.69,-58.45C74.87,-67.92 103.37,-81.98 125.12,-92.7"/>
<polygon fill="#63b8ff" stroke="#63b8ff" points="123.31,-95.71 133.82,-97 126.41,-89.44 123.31,-95.71"/>
</a>
</g>
</g>
<!-- Node9 -->
<g id="Node000009" class="node">
<title>Node9</title>
<g id="a_Node000009"><a xlink:href="utils_8cpp.html#acd86977d05fa330749958ace0f2798de" target="_top" xlink:title="Prints a message to the UART with a timestamp and core number.">
<polygon fill="white" stroke="#666666" points="354.38,-58 297.88,-58 297.88,-38 354.38,-38 354.38,-58"/>
<text text-anchor="middle" x="326.12" y="-44.5" font-family="Helvetica,sans-Serif" font-size="10.00">uart_print</text>
</a>
</g>
</g>
<!-- Node1&#45;&gt;Node9 -->
<g id="edge11_Node000001_Node000009" class="edge">
<title>Node1&#45;&gt;Node9</title>
<g id="a_edge11_Node000001_Node000009"><a xlink:title=" ">
<path fill="none" stroke="#63b8ff" d="M67.27,-48C121.3,-48 228.8,-48 286.46,-48"/>
<polygon fill="#63b8ff" stroke="#63b8ff" points="286.12,-51.5 296.12,-48 286.12,-44.5 286.12,-51.5"/>
</a>
</g>
</g>
<!-- Node10 -->
<g id="Node000010" class="node">
<title>Node10</title>
<g id="a_Node000010"><a xlink:href="gps__collector_8cpp.html#ab15765c10e67396e1684c586b3f65345" target="_top" xlink:title=" ">
<polygon fill="white" stroke="#666666" points="201.88,-20 112.38,-20 112.38,0 201.88,0 201.88,-20"/>
<text text-anchor="middle" x="157.12" y="-6.5" font-family="Helvetica,sans-Serif" font-size="10.00">collect_gps_data</text>
</a>
</g>
</g>
<!-- Node1&#45;&gt;Node10 -->
<g id="edge9_Node000001_Node000010" class="edge">
<title>Node1&#45;&gt;Node10</title>
<g id="a_edge9_Node000001_Node000010"><a xlink:title=" ">
<path fill="none" stroke="#63b8ff" d="M67.41,-37.72C81.09,-33.44 97.18,-28.42 111.86,-23.83"/>
<polygon fill="#63b8ff" stroke="#63b8ff" points="112.82,-27.2 121.32,-20.88 110.73,-20.52 112.82,-27.2"/>
</a>
</g>
</g>
<!-- Node3 -->
<g id="Node000003" class="node">
<title>Node3</title>
<g id="a_Node000003"><a xlink:href="class_event_emitter.html#a539d733505f9a793439a9cfc4f2af079" target="_top" xlink:title="Emits an event.">
<polygon fill="white" stroke="#666666" points="375,-222 277.25,-222 277.25,-202 375,-202 375,-222"/>
<text text-anchor="middle" x="326.12" y="-208.5" font-family="Helvetica,sans-Serif" font-size="10.00">EventEmitter::emit</text>
</a>
</g>
</g>
<!-- Node2&#45;&gt;Node3 -->
<g id="edge2_Node000002_Node000003" class="edge">
<title>Node2&#45;&gt;Node3</title>
<g id="a_edge2_Node000002_Node000003"><a xlink:title=" ">
<path fill="none" stroke="#63b8ff" d="M165.96,-118.43C180.11,-136.52 211.8,-173.61 247.25,-193 253.26,-196.29 259.84,-199.01 266.54,-201.27"/>
<polygon fill="#63b8ff" stroke="#63b8ff" points="265.08,-204.49 275.67,-204.01 267.1,-197.78 265.08,-204.49"/>
</a>
</g>
</g>
<!-- Node4 -->
<g id="Node000004" class="node">
<title>Node4</title>
<g id="a_Node000004"><a xlink:href="class_power_manager.html#a746a5447e25915240923157db1c6faf6" target="_top" xlink:title=" ">
<polygon fill="white" stroke="#666666" points="402.75,-184 249.5,-184 249.5,-164 402.75,-164 402.75,-184"/>
<text text-anchor="middle" x="326.12" y="-170.5" font-family="Helvetica,sans-Serif" font-size="10.00">PowerManager::get_voltage_5v</text>
</a>
</g>
</g>
<!-- Node2&#45;&gt;Node4 -->
<g id="edge3_Node000002_Node000004" class="edge">
<title>Node2&#45;&gt;Node4</title>
<g id="a_edge3_Node000002_Node000004"><a xlink:title=" ">
<path fill="none" stroke="#63b8ff" d="M174.96,-118.49C192.45,-129 220.91,-145.02 247.25,-155 252.48,-156.98 258,-158.81 263.57,-160.49"/>
<polygon fill="#63b8ff" stroke="#63b8ff" points="262.27,-163.76 272.85,-163.11 264.17,-157.02 262.27,-163.76"/>
</a>
</g>
</g>
<!-- Node5 -->
<g id="Node000005" class="node">
<title>Node5</title>
<g id="a_Node000005"><a xlink:href="class_power_manager.html#a3682b0fca1bb98fd44740714895cc9dd" target="_top" xlink:title=" ">
<polygon fill="white" stroke="#666666" points="394.5,-146 257.75,-146 257.75,-114 394.5,-114 394.5,-146"/>
<text text-anchor="start" x="265.75" y="-132.5" font-family="Helvetica,sans-Serif" font-size="10.00">PowerManager::is_charging</text>
<text text-anchor="middle" x="326.12" y="-120.5" font-family="Helvetica,sans-Serif" font-size="10.00">_solar</text>
</a>
</g>
</g>
<!-- Node2&#45;&gt;Node5 -->
<g id="edge4_Node000002_Node000005" class="edge">
<title>Node2&#45;&gt;Node5</title>
<g id="a_edge4_Node000002_Node000005"><a xlink:title=" ">
<path fill="none" stroke="#63b8ff" d="M211.42,-115.02C222.49,-116.48 234.38,-118.05 246.14,-119.6"/>
<polygon fill="#63b8ff" stroke="#63b8ff" points="245.48,-123.04 255.86,-120.87 246.4,-116.1 245.48,-123.04"/>
</a>
</g>
</g>
<!-- Node7 -->
<g id="Node000007" class="node">
<title>Node7</title>
<g id="a_Node000007"><a xlink:href="class_power_manager.html#a80bb34a3f9cd27d753252c66402c6a91" target="_top" xlink:title=" ">
<polygon fill="white" stroke="#666666" points="405,-96 247.25,-96 247.25,-76 405,-76 405,-96"/>
<text text-anchor="middle" x="326.12" y="-82.5" font-family="Helvetica,sans-Serif" font-size="10.00">PowerManager::is_charging_usb</text>
</a>
</g>
</g>
<!-- Node2&#45;&gt;Node7 -->
<g id="edge6_Node000002_Node000007" class="edge">
<title>Node2&#45;&gt;Node7</title>
<g id="a_edge6_Node000002_Node000007"><a xlink:title=" ">
<path fill="none" stroke="#63b8ff" d="M211.42,-100.98C219.17,-99.96 227.31,-98.89 235.54,-97.8"/>
<polygon fill="#63b8ff" stroke="#63b8ff" points="235.81,-101.3 245.27,-96.52 234.9,-94.36 235.81,-101.3"/>
</a>
</g>
</g>
<!-- Node2&#45;&gt;Node9 -->
<g id="edge8_Node000002_Node000009" class="edge">
<title>Node2&#45;&gt;Node9</title>
<g id="a_edge8_Node000002_Node000009"><a xlink:title=" ">
<path fill="none" stroke="#63b8ff" d="M177.85,-97.59C195.61,-88.54 222.64,-75.57 247.25,-67 259.83,-62.62 273.88,-58.86 286.56,-55.87"/>
<polygon fill="#63b8ff" stroke="#63b8ff" points="287.27,-59.29 296.25,-53.67 285.72,-52.47 287.27,-59.29"/>
</a>
</g>
</g>
<!-- Node6 -->
<g id="Node000006" class="node">
<title>Node6</title>
<g id="a_Node000006"><a xlink:href="class_power_manager.html#a16aad5c184599bdec47218d4d774ffb1" target="_top" xlink:title=" ">
<polygon fill="white" stroke="#666666" points="577,-149 441,-149 441,-117 577,-117 577,-149"/>
<text text-anchor="start" x="449" y="-135.5" font-family="Helvetica,sans-Serif" font-size="10.00">PowerManager::get_current</text>
<text text-anchor="middle" x="509" y="-123.5" font-family="Helvetica,sans-Serif" font-size="10.00">_charge_solar</text>
</a>
</g>
</g>
<!-- Node5&#45;&gt;Node6 -->
<g id="edge5_Node000005_Node000006" class="edge">
<title>Node5&#45;&gt;Node6</title>
<g id="a_edge5_Node000005_Node000006"><a xlink:title=" ">
<path fill="none" stroke="#63b8ff" d="M394.99,-131.13C406.19,-131.31 417.89,-131.51 429.33,-131.7"/>
<polygon fill="#63b8ff" stroke="#63b8ff" points="429.09,-135.19 439.14,-131.86 429.2,-128.19 429.09,-135.19"/>
</a>
</g>
</g>
<!-- Node8 -->
<g id="Node000008" class="node">
<title>Node8</title>
<g id="a_Node000008"><a xlink:href="class_power_manager.html#a2a97c08eae2bd717d95839533a52c09f" target="_top" xlink:title=" ">
<polygon fill="white" stroke="#666666" points="577,-99 441,-99 441,-67 577,-67 577,-99"/>
<text text-anchor="start" x="449" y="-85.5" font-family="Helvetica,sans-Serif" font-size="10.00">PowerManager::get_current</text>
<text text-anchor="middle" x="509" y="-73.5" font-family="Helvetica,sans-Serif" font-size="10.00">_charge_usb</text>
</a>
</g>
</g>
<!-- Node7&#45;&gt;Node8 -->
<g id="edge7_Node000007_Node000008" class="edge">
<title>Node7&#45;&gt;Node8</title>
<g id="a_edge7_Node000007_Node000008"><a xlink:title=" ">
<path fill="none" stroke="#63b8ff" d="M405.41,-84.7C413.3,-84.57 421.31,-84.44 429.21,-84.31"/>
<polygon fill="#63b8ff" stroke="#63b8ff" points="429.21,-87.81 439.15,-84.14 429.09,-80.81 429.21,-87.81"/>
</a>
</g>
</g>
<!-- Node11 -->
<g id="Node000011" class="node">
<title>Node11</title>
<g id="a_Node000011"><a xlink:href="gps__collector_8cpp.html#a0509cbb838eb47985372ff8889e507f5" target="_top" xlink:title=" ">
<polygon fill="white" stroke="#666666" points="355.88,-20 296.38,-20 296.38,0 355.88,0 355.88,-20"/>
<text text-anchor="middle" x="326.12" y="-6.5" font-family="Helvetica,sans-Serif" font-size="10.00">splitString</text>
</a>
</g>
</g>
<!-- Node10&#45;&gt;Node11 -->
<g id="edge10_Node000010_Node000011" class="edge">
<title>Node10&#45;&gt;Node11</title>
<g id="a_edge10_Node000010_Node000011"><a xlink:title=" ">
<path fill="none" stroke="#63b8ff" d="M202,-10C227.61,-10 259.7,-10 284.7,-10"/>
<polygon fill="#63b8ff" stroke="#63b8ff" points="284.47,-13.5 294.47,-10 284.47,-6.5 284.47,-13.5"/>
</a>
</g>
</g>
</g>
</svg>

<g id="navigator" transform="translate(0 0)" fill="#404254">
  <rect fill="#f2f5e9" fill-opacity="0.5" stroke="#606060" stroke-width=".5" x="0" y="0" width="60" height="60"/>
  <use id="zoomplus" xlink:href="#zoomPlus" x="17" y="9" onmousedown="handleZoom(evt,'in')"/>
  <use id="zoomminus" xlink:href="#zoomMin" x="42" y="9" onmousedown="handleZoom(evt,'out')"/>
  <use id="reset" xlink:href="#resetDef" x="30" y="36" onmousedown="handleReset()"/>
   <use id="arrowup" xlink:href="#arrowUp" x="0" y="0" onmousedown="handlePan(0,-1)"/>
  <use id="arrowright" xlink:href="#arrowRight" x="0" y="0" onmousedown="handlePan(1,0)"/>
  <use id="arrowdown" xlink:href="#arrowDown" x="0" y="0" onmousedown="handlePan(0,1)"/>
  <use id="arrowleft" xlink:href="#arrowLeft" x="0" y="0" onmousedown="handlePan(-1,0)"/>
</g>
<svg viewBox="0 0 15 15" width="100%" height="30px" preserveAspectRatio="xMaxYMin meet">
 <g id="arrow_out" transform="scale(0.3 0.3)">
  <a xlink:href="main_8cpp_a9f153132b8b4afad133b952111e18bd9_cgraph_org.svg" target="_base">
   <rect id="button" ry="5" rx="5" y="6" x="6" height="38" width="38"
        fill="#f2f5e9" fill-opacity="0.5" stroke="#606060" stroke-width="1.0"/>
   <path id="arrow"
     d="M 11.500037,31.436501 C 11.940474,20.09759 22.043105,11.32322 32.158766,21.979434 L 37.068811,17.246167 C 37.068811,17.246167 37.088388,32 37.088388,32 L 22.160133,31.978069 C 22.160133,31.978069 26.997745,27.140456 26.997745,27.140456 C 18.528582,18.264221 13.291696,25.230495 11.500037,31.436501 z"
     style="fill:#404040;"/>
  </a>
 </g>
</svg>

<style type='text/css'>
<![CDATA[
[data-mouse-over-selected='false'] { opacity: 0.7; }
[data-mouse-over-selected='true']  { opacity: 1.0; }
]]>
</style>
<script type="application/ecmascript"><![CDATA[
document.addEventListener('DOMContentLoaded', (event) => {
  highlightEdges();
  highlightAdjacentNodes();
});
]]></script>
</svg>
