<?xml version="1.0" encoding="UTF-8" standalone="no"?>
<!DOCTYPE svg PUBLIC "-//W3C//DTD SVG 1.1//EN"
 "http://www.w3.org/Graphics/SVG/1.1/DTD/svg11.dtd">
<!-- Generated by graphviz version 12.2.1 (20241206.2353)
 -->
<!-- Title: main Pages: 1 -->
<svg width="1101pt" height="546pt"
 viewBox="0.00 0.00 1100.50 546.00" xmlns="http://www.w3.org/2000/svg" xmlns:xlink="http://www.w3.org/1999/xlink">
<g id="graph0" class="graph" transform="scale(1 1) rotate(0) translate(4 542)">
<title>main</title>
<!-- Node1 -->
<g id="Node000001" class="node">
<title>Node1</title>
<g id="a_Node000001"><a xlink:title=" ">
<polygon fill="#999999" stroke="#666666" points="37,-244 0,-244 0,-224 37,-224 37,-244"/>
<text text-anchor="middle" x="18.5" y="-230.5" font-family="Helvetica,sans-Serif" font-size="10.00">main</text>
</a>
</g>
</g>
<!-- Node2 -->
<g id="Node000002" class="node">
<title>Node2</title>
<g id="a_Node000002"><a xlink:href="frame_8cpp.html#a5f43260949ee244d3ee66068eb1d7fc1" target="_top" xlink:title="Builds a Frame instance.">
<polygon fill="white" stroke="#666666" points="549.5,-320 485.5,-320 485.5,-300 549.5,-300 549.5,-320"/>
<text text-anchor="middle" x="517.5" y="-306.5" font-family="Helvetica,sans-Serif" font-size="10.00">buildFrame</text>
</a>
</g>
</g>
<!-- Node1&#45;&gt;Node2 -->
<g id="edge1_Node000001_Node000002" class="edge">
<title>Node1&#45;&gt;Node2</title>
<g id="a_edge1_Node000001_Node000002"><a xlink:title=" ">
<path fill="none" stroke="#63b8ff" d="M37.45,-236.34C63.87,-239.81 114.78,-246.6 158,-253 272.39,-269.94 406.97,-291.88 474.03,-302.95"/>
<polygon fill="#63b8ff" stroke="#63b8ff" points="473.43,-306.4 483.87,-304.57 474.58,-299.49 473.43,-306.4"/>
</a>
</g>
</g>
<!-- Node4 -->
<g id="Node000004" class="node">
<title>Node4</title>
<g id="a_Node000004"><a xlink:href="main_8cpp.html#a9f153132b8b4afad133b952111e18bd9" target="_top" xlink:title=" ">
<polygon fill="white" stroke="#666666" points="551,-130 484,-130 484,-110 551,-110 551,-130"/>
<text text-anchor="middle" x="517.5" y="-116.5" font-family="Helvetica,sans-Serif" font-size="10.00">core1_entry</text>
</a>
</g>
</g>
<!-- Node1&#45;&gt;Node4 -->
<g id="edge3_Node000001_Node000004" class="edge">
<title>Node1&#45;&gt;Node4</title>
<g id="a_edge3_Node000001_Node000004"><a xlink:title=" ">
<path fill="none" stroke="#63b8ff" d="M22.17,-223.63C27.82,-204.09 42.99,-162.17 73,-144 200.43,-66.88 388.06,-92.48 472.49,-109.69"/>
<polygon fill="#63b8ff" stroke="#63b8ff" points="471.71,-113.1 482.22,-111.74 473.16,-106.25 471.71,-113.1"/>
</a>
</g>
</g>
<!-- Node12 -->
<g id="Node000012" class="node">
<title>Node12</title>
<g id="a_Node000012"><a xlink:href="utils_8cpp.html#aacbcecbe6b5428e3571b06ab2104e706" target="_top" xlink:title="Prints a message to the UART with a timestamp and core number.">
<polygon fill="white" stroke="#666666" points="868.38,-282 815.62,-282 815.62,-262 868.38,-262 868.38,-282"/>
<text text-anchor="middle" x="842" y="-268.5" font-family="Helvetica,sans-Serif" font-size="10.00">uartPrint</text>
</a>
</g>
</g>
<!-- Node1&#45;&gt;Node12 -->
<g id="edge44_Node000001_Node000012" class="edge">
<title>Node1&#45;&gt;Node12</title>
<g id="a_edge44_Node000001_Node000012"><a xlink:title=" ">
<path fill="none" stroke="#63b8ff" d="M20.58,-244.1C23.98,-271.9 36.47,-351.01 73,-404 127.53,-483.1 146.55,-538 242.62,-538 242.62,-538 242.62,-538 518.5,-538 614.78,-538 650.43,-532.5 724.5,-471 750.21,-449.66 743.85,-433.97 760.5,-405 783.81,-364.46 812.44,-317.88 828.51,-292"/>
<polygon fill="#63b8ff" stroke="#63b8ff" points="831.46,-293.88 833.78,-283.54 825.52,-290.18 831.46,-293.88"/>
</a>
</g>
</g>
<!-- Node15 -->
<g id="Node000015" class="node">
<title>Node15</title>
<g id="a_Node000015"><a xlink:href="receive_8cpp.html#ac5e175a6a1482f700f9aee0b727b924f" target="_top" xlink:title="Handles UART input.">
<polygon fill="white" stroke="#666666" points="158,-358 73,-358 73,-338 158,-338 158,-358"/>
<text text-anchor="middle" x="115.5" y="-344.5" font-family="Helvetica,sans-Serif" font-size="10.00">handleUartInput</text>
</a>
</g>
</g>
<!-- Node1&#45;&gt;Node15 -->
<g id="edge15_Node000001_Node000015" class="edge">
<title>Node1&#45;&gt;Node15</title>
<g id="a_edge15_Node000001_Node000015"><a xlink:title=" ">
<path fill="none" stroke="#63b8ff" d="M27.93,-244.12C43.81,-263.17 78.36,-304.63 98.69,-329.02"/>
<polygon fill="#63b8ff" stroke="#63b8ff" points="95.89,-331.14 104.98,-336.58 101.27,-326.66 95.89,-331.14"/>
</a>
</g>
</g>
<!-- Node18 -->
<g id="Node000018" class="node">
<title>Node18</title>
<g id="a_Node000018"><a xlink:href="send_8cpp.html#a752e7cc27f52d4ba064e691b3e240ed8" target="_top" xlink:title="Sends a Frame using LoRa.">
<polygon fill="white" stroke="#666666" points="549.88,-434 485.12,-434 485.12,-414 549.88,-414 549.88,-434"/>
<text text-anchor="middle" x="517.5" y="-420.5" font-family="Helvetica,sans-Serif" font-size="10.00">sendFrame</text>
</a>
</g>
</g>
<!-- Node1&#45;&gt;Node18 -->
<g id="edge42_Node000001_Node000018" class="edge">
<title>Node1&#45;&gt;Node18</title>
<g id="a_edge42_Node000001_Node000018"><a xlink:title=" ">
<path fill="none" stroke="#63b8ff" d="M20.46,-244.13C23.4,-269.08 34.53,-333.87 73,-367 188.14,-466.17 386.51,-447.01 473.5,-432.49"/>
<polygon fill="#63b8ff" stroke="#63b8ff" points="474.03,-435.95 483.28,-430.79 472.83,-429.06 474.03,-435.95"/>
</a>
</g>
</g>
<!-- Node24 -->
<g id="Node000024" class="node">
<title>Node24</title>
<g id="a_Node000024"><a xlink:href="communication_8cpp.html#a520df448c1dc359f42111ac240081975" target="_top" xlink:title="Initializes the LoRa radio module.">
<polygon fill="white" stroke="#666666" points="705.75,-168 629,-168 629,-148 705.75,-148 705.75,-168"/>
<text text-anchor="middle" x="667.38" y="-154.5" font-family="Helvetica,sans-Serif" font-size="10.00">initializeRadio</text>
</a>
</g>
</g>
<!-- Node1&#45;&gt;Node24 -->
<g id="edge31_Node000001_Node000024" class="edge">
<title>Node1&#45;&gt;Node24</title>
<g id="a_edge31_Node000001_Node000024"><a xlink:title=" ">
<path fill="none" stroke="#63b8ff" d="M37.03,-223.59C73.79,-202.78 162.21,-158 242.62,-158 242.62,-158 242.62,-158 378,-158 462.07,-158 559.94,-158 617.32,-158"/>
<polygon fill="#63b8ff" stroke="#63b8ff" points="617.07,-161.5 627.07,-158 617.07,-154.5 617.07,-161.5"/>
</a>
</g>
</g>
<!-- Node25 -->
<g id="Node000025" class="node">
<title>Node25</title>
<g id="a_Node000025"><a xlink:href="main_8cpp.html#a21af2d50d7779336997d5f3456352431" target="_top" xlink:title=" ">
<polygon fill="white" stroke="#666666" points="410.88,-206 343.12,-206 343.12,-186 410.88,-186 410.88,-206"/>
<text text-anchor="middle" x="377" y="-192.5" font-family="Helvetica,sans-Serif" font-size="10.00">initSystems</text>
</a>
</g>
</g>
<!-- Node1&#45;&gt;Node25 -->
<g id="edge34_Node000001_Node000025" class="edge">
<title>Node1&#45;&gt;Node25</title>
<g id="a_edge34_Node000001_Node000025"><a xlink:title=" ">
<path fill="none" stroke="#63b8ff" d="M37.16,-228.54C47.51,-225.55 60.88,-222.05 73,-220 164.22,-204.58 272.6,-199.02 331.86,-197.05"/>
<polygon fill="#63b8ff" stroke="#63b8ff" points="331.64,-200.56 341.52,-196.75 331.42,-193.57 331.64,-200.56"/>
</a>
</g>
</g>
<!-- Node27 -->
<g id="Node000027" class="node">
<title>Node27</title>
<g id="a_Node000027"><a xlink:href="receive_8cpp.html#a54817002e33761dc61558b1138749dfb" target="_top" xlink:title="Callback function for handling received LoRa packets.">
<polygon fill="white" stroke="#666666" points="146.75,-282 84.25,-282 84.25,-262 146.75,-262 146.75,-282"/>
<text text-anchor="middle" x="115.5" y="-268.5" font-family="Helvetica,sans-Serif" font-size="10.00">onReceive</text>
</a>
</g>
</g>
<!-- Node1&#45;&gt;Node27 -->
<g id="edge39_Node000001_Node000027" class="edge">
<title>Node1&#45;&gt;Node27</title>
<g id="a_edge39_Node000001_Node000027"><a xlink:title=" ">
<path fill="none" stroke="#63b8ff" d="M37.37,-241.15C48.85,-245.74 64.17,-251.87 78.13,-257.45"/>
<polygon fill="#63b8ff" stroke="#63b8ff" points="76.47,-260.56 87.05,-261.02 79.07,-254.06 76.47,-260.56"/>
</a>
</g>
</g>
<!-- Node28 -->
<g id="Node000028" class="node">
<title>Node28</title>
<g id="a_Node000028"><a xlink:href="communication_8h.html#a877f9c1d3485cf1521bc13996d39c1fb" target="_top" xlink:title=" ">
<polygon fill="white" stroke="#666666" points="153.88,-92 77.12,-92 77.12,-72 153.88,-72 153.88,-92"/>
<text text-anchor="middle" x="115.5" y="-78.5" font-family="Helvetica,sans-Serif" font-size="10.00">sendMessage</text>
</a>
</g>
</g>
<!-- Node1&#45;&gt;Node28 -->
<g id="edge43_Node000001_Node000028" class="edge">
<title>Node1&#45;&gt;Node28</title>
<g id="a_edge43_Node000001_Node000028"><a xlink:title=" ">
<path fill="none" stroke="#63b8ff" d="M21.42,-223.85C26.28,-200.53 41.04,-142.36 73,-106 75.42,-103.25 78.23,-100.74 81.23,-98.46"/>
<polygon fill="#63b8ff" stroke="#63b8ff" points="82.87,-101.57 89.32,-93.16 79.04,-95.71 82.87,-101.57"/>
</a>
</g>
</g>
<!-- Node3 -->
<g id="Node000003" class="node">
<title>Node3</title>
<g id="a_Node000003"><a xlink:href="utils__converters_8cpp.html#ab4cb9e6b491bd7711c69c9167a2b9286" target="_top" xlink:title="Converts a ValueUnit to a string.">
<polygon fill="white" stroke="#666666" points="724.5,-320 610.25,-320 610.25,-300 724.5,-300 724.5,-320"/>
<text text-anchor="middle" x="667.38" y="-306.5" font-family="Helvetica,sans-Serif" font-size="10.00">valueUnitTypeToString</text>
</a>
</g>
</g>
<!-- Node2&#45;&gt;Node3 -->
<g id="edge2_Node000002_Node000003" class="edge">
<title>Node2&#45;&gt;Node3</title>
<g id="a_edge2_Node000002_Node000003"><a xlink:title=" ">
<path fill="none" stroke="#63b8ff" d="M549.86,-310C564.19,-310 581.75,-310 598.85,-310"/>
<polygon fill="#63b8ff" stroke="#63b8ff" points="598.47,-313.5 608.47,-310 598.47,-306.5 598.47,-313.5"/>
</a>
</g>
</g>
<!-- Node5 -->
<g id="Node000005" class="node">
<title>Node5</title>
<g id="a_Node000005"><a xlink:href="event__manager_8cpp.html#a467714d66058f52e4ac7aeb6df46b433" target="_top" xlink:title="Checks power statuses and triggers events based on voltage trends.">
<polygon fill="white" stroke="#666666" points="717.75,-92 617,-92 617,-72 717.75,-72 717.75,-92"/>
<text text-anchor="middle" x="667.38" y="-78.5" font-family="Helvetica,sans-Serif" font-size="10.00">checkPowerEvents</text>
</a>
</g>
</g>
<!-- Node4&#45;&gt;Node5 -->
<g id="edge4_Node000004_Node000005" class="edge">
<title>Node4&#45;&gt;Node5</title>
<g id="a_edge4_Node000004_Node000005"><a xlink:title=" ">
<path fill="none" stroke="#63b8ff" d="M551.32,-111.57C569.93,-106.78 593.63,-100.69 614.68,-95.28"/>
<polygon fill="#63b8ff" stroke="#63b8ff" points="615.45,-98.7 624.26,-92.82 613.71,-91.92 615.45,-98.7"/>
</a>
</g>
</g>
<!-- Node13 -->
<g id="Node000013" class="node">
<title>Node13</title>
<g id="a_Node000013"><a xlink:href="gps__collector_8cpp.html#abe46d88c89b1f730f6c9a230acac2a6a" target="_top" xlink:title=" ">
<polygon fill="white" stroke="#666666" points="710.62,-130 624.12,-130 624.12,-110 710.62,-110 710.62,-130"/>
<text text-anchor="middle" x="667.38" y="-116.5" font-family="Helvetica,sans-Serif" font-size="10.00">collectGPSData</text>
</a>
</g>
</g>
<!-- Node4&#45;&gt;Node13 -->
<g id="edge12_Node000004_Node000013" class="edge">
<title>Node4&#45;&gt;Node13</title>
<g id="a_edge12_Node000004_Node000013"><a xlink:title=" ">
<path fill="none" stroke="#63b8ff" d="M551.32,-120C569.25,-120 591.93,-120 612.39,-120"/>
<polygon fill="#63b8ff" stroke="#63b8ff" points="612.3,-123.5 622.3,-120 612.3,-116.5 612.3,-123.5"/>
</a>
</g>
</g>
<!-- Node6 -->
<g id="Node000006" class="node">
<title>Node6</title>
<g id="a_Node000006"><a xlink:href="class_event_emitter.html#a539d733505f9a793439a9cfc4f2af079" target="_top" xlink:title="Emits an event.">
<polygon fill="white" stroke="#666666" points="890.88,-149 793.12,-149 793.12,-129 890.88,-129 890.88,-149"/>
<text text-anchor="middle" x="842" y="-135.5" font-family="Helvetica,sans-Serif" font-size="10.00">EventEmitter::emit</text>
</a>
</g>
</g>
<!-- Node5&#45;&gt;Node6 -->
<g id="edge5_Node000005_Node000006" class="edge">
<title>Node5&#45;&gt;Node6</title>
<g id="a_edge5_Node000005_Node000006"><a xlink:title=" ">
<path fill="none" stroke="#63b8ff" d="M702.24,-92.49C709.66,-95.06 717.41,-97.95 724.5,-101 741.12,-108.15 743.56,-113.65 760.5,-120 767.29,-122.54 774.52,-124.82 781.77,-126.84"/>
<polygon fill="#63b8ff" stroke="#63b8ff" points="780.7,-130.18 791.26,-129.33 782.48,-123.41 780.7,-130.18"/>
</a>
</g>
</g>
<!-- Node7 -->
<g id="Node000007" class="node">
<title>Node7</title>
<g id="a_Node000007"><a xlink:href="class_power_manager.html#ae0e4303ddaba328047fb40d8d925c7dd" target="_top" xlink:title=" ">
<polygon fill="white" stroke="#666666" points="914.5,-111 769.5,-111 769.5,-91 914.5,-91 914.5,-111"/>
<text text-anchor="middle" x="842" y="-97.5" font-family="Helvetica,sans-Serif" font-size="10.00">PowerManager::getVoltage5V</text>
</a>
</g>
</g>
<!-- Node5&#45;&gt;Node7 -->
<g id="edge6_Node000005_Node000007" class="edge">
<title>Node5&#45;&gt;Node7</title>
<g id="a_edge6_Node000005_Node000007"><a xlink:title=" ">
<path fill="none" stroke="#63b8ff" d="M717.84,-87.44C730.3,-88.82 744.01,-90.32 757.63,-91.82"/>
<polygon fill="#63b8ff" stroke="#63b8ff" points="757.18,-95.3 767.51,-92.91 757.95,-88.34 757.18,-95.3"/>
</a>
</g>
</g>
<!-- Node8 -->
<g id="Node000008" class="node">
<title>Node8</title>
<g id="a_Node000008"><a xlink:href="class_power_manager.html#a33ea0aaa75b4654b0ee05250119bf083" target="_top" xlink:title=" ">
<polygon fill="white" stroke="#666666" points="914.5,-73 769.5,-73 769.5,-53 914.5,-53 914.5,-73"/>
<text text-anchor="middle" x="842" y="-59.5" font-family="Helvetica,sans-Serif" font-size="10.00">PowerManager::isSolarActive</text>
</a>
</g>
</g>
<!-- Node5&#45;&gt;Node8 -->
<g id="edge7_Node000005_Node000008" class="edge">
<title>Node5&#45;&gt;Node8</title>
<g id="a_edge7_Node000005_Node000008"><a xlink:title=" ">
<path fill="none" stroke="#63b8ff" d="M717.84,-76.56C730.3,-75.18 744.01,-73.68 757.63,-72.18"/>
<polygon fill="#63b8ff" stroke="#63b8ff" points="757.95,-75.66 767.51,-71.09 757.18,-68.7 757.95,-75.66"/>
</a>
</g>
</g>
<!-- Node10 -->
<g id="Node000010" class="node">
<title>Node10</title>
<g id="a_Node000010"><a xlink:href="class_power_manager.html#a0548ae14a668bb06e4cc13e0295ad5c8" target="_top" xlink:title=" ">
<polygon fill="white" stroke="#666666" points="923.5,-32 760.5,-32 760.5,-12 923.5,-12 923.5,-32"/>
<text text-anchor="middle" x="842" y="-18.5" font-family="Helvetica,sans-Serif" font-size="10.00">PowerManager::isUSBConnected</text>
</a>
</g>
</g>
<!-- Node5&#45;&gt;Node10 -->
<g id="edge9_Node000005_Node000010" class="edge">
<title>Node5&#45;&gt;Node10</title>
<g id="a_edge9_Node000005_Node000010"><a xlink:title=" ">
<path fill="none" stroke="#63b8ff" d="M691.54,-71.5C709.99,-63.37 736.6,-52.16 760.5,-44 769.27,-41 778.69,-38.13 787.88,-35.51"/>
<polygon fill="#63b8ff" stroke="#63b8ff" points="788.76,-38.9 797.46,-32.85 786.89,-32.15 788.76,-38.9"/>
</a>
</g>
</g>
<!-- Node5&#45;&gt;Node12 -->
<g id="edge11_Node000005_Node000012" class="edge">
<title>Node5&#45;&gt;Node12</title>
<g id="a_edge11_Node000005_Node000012"><a xlink:title=" ">
<path fill="none" stroke="#63b8ff" d="M712.28,-92.46C716.75,-94.76 720.95,-97.57 724.5,-101 756.99,-132.35 735.45,-158.44 760.5,-196 776.12,-219.42 800.22,-240.92 817.98,-255.03"/>
<polygon fill="#63b8ff" stroke="#63b8ff" points="815.36,-257.43 825.41,-260.78 819.64,-251.89 815.36,-257.43"/>
</a>
</g>
</g>
<!-- Node9 -->
<g id="Node000009" class="node">
<title>Node9</title>
<g id="a_Node000009"><a xlink:href="class_power_manager.html#a097734aac2bcc228d6cf22c00e3acb1a" target="_top" xlink:title=" ">
<polygon fill="white" stroke="#666666" points="1092.5,-82 959.5,-82 959.5,-50 1092.5,-50 1092.5,-82"/>
<text text-anchor="start" x="967.5" y="-68.5" font-family="Helvetica,sans-Serif" font-size="10.00">PowerManager::getCurrent</text>
<text text-anchor="middle" x="1026" y="-56.5" font-family="Helvetica,sans-Serif" font-size="10.00">ChargeSolar</text>
</a>
</g>
</g>
<!-- Node8&#45;&gt;Node9 -->
<g id="edge8_Node000008_Node000009" class="edge">
<title>Node8&#45;&gt;Node9</title>
<g id="a_edge8_Node000008_Node000009"><a xlink:title=" ">
<path fill="none" stroke="#63b8ff" d="M914.93,-64.19C925.77,-64.36 936.99,-64.55 947.93,-64.73"/>
<polygon fill="#63b8ff" stroke="#63b8ff" points="947.64,-68.23 957.7,-64.89 947.76,-61.23 947.64,-68.23"/>
</a>
</g>
</g>
<!-- Node11 -->
<g id="Node000011" class="node">
<title>Node11</title>
<g id="a_Node000011"><a xlink:href="class_power_manager.html#a3f9587ee81469642a2e595ef3805e801" target="_top" xlink:title=" ">
<polygon fill="white" stroke="#666666" points="1092.5,-32 959.5,-32 959.5,0 1092.5,0 1092.5,-32"/>
<text text-anchor="start" x="967.5" y="-18.5" font-family="Helvetica,sans-Serif" font-size="10.00">PowerManager::getCurrent</text>
<text text-anchor="middle" x="1026" y="-6.5" font-family="Helvetica,sans-Serif" font-size="10.00">ChargeUSB</text>
</a>
</g>
</g>
<!-- Node10&#45;&gt;Node11 -->
<g id="edge10_Node000010_Node000011" class="edge">
<title>Node10&#45;&gt;Node11</title>
<g id="a_edge10_Node000010_Node000011"><a xlink:title=" ">
<path fill="none" stroke="#63b8ff" d="M923.89,-19.33C931.8,-19.07 939.81,-18.81 947.68,-18.55"/>
<polygon fill="#63b8ff" stroke="#63b8ff" points="947.7,-22.05 957.58,-18.22 947.47,-15.05 947.7,-22.05"/>
</a>
</g>
</g>
<!-- Node13&#45;&gt;Node12 -->
<g id="edge14_Node000013_Node000012" class="edge">
<title>Node13&#45;&gt;Node12</title>
<g id="a_edge14_Node000013_Node000012"><a xlink:title=" ">
<path fill="none" stroke="#63b8ff" d="M709.91,-130.4C715.11,-132.73 720.14,-135.56 724.5,-139 748.04,-157.53 741.46,-172.87 760.5,-196 778.43,-217.79 802.27,-239.58 819.35,-254.21"/>
<polygon fill="#63b8ff" stroke="#63b8ff" points="817,-256.8 826.9,-260.57 821.51,-251.45 817,-256.8"/>
</a>
</g>
</g>
<!-- Node14 -->
<g id="Node000014" class="node">
<title>Node14</title>
<g id="a_Node000014"><a xlink:href="gps__collector_8cpp.html#a0509cbb838eb47985372ff8889e507f5" target="_top" xlink:title=" ">
<polygon fill="white" stroke="#666666" points="871.75,-187 812.25,-187 812.25,-167 871.75,-167 871.75,-187"/>
<text text-anchor="middle" x="842" y="-173.5" font-family="Helvetica,sans-Serif" font-size="10.00">splitString</text>
</a>
</g>
</g>
<!-- Node13&#45;&gt;Node14 -->
<g id="edge13_Node000013_Node000014" class="edge">
<title>Node13&#45;&gt;Node14</title>
<g id="a_edge13_Node000013_Node000014"><a xlink:title=" ">
<path fill="none" stroke="#63b8ff" d="M702.24,-130.49C709.66,-133.06 717.41,-135.95 724.5,-139 741.12,-146.15 743.56,-151.65 760.5,-158 773.29,-162.8 787.69,-166.65 800.74,-169.6"/>
<polygon fill="#63b8ff" stroke="#63b8ff" points="799.79,-172.98 810.3,-171.65 801.26,-166.13 799.79,-172.98"/>
</a>
</g>
</g>
<!-- Node15&#45;&gt;Node12 -->
<g id="edge30_Node000015_Node000012" class="edge">
<title>Node15&#45;&gt;Node12</title>
<g id="a_edge30_Node000015_Node000012"><a xlink:title=" ">
<path fill="none" stroke="#63b8ff" d="M146.08,-358.37C150.11,-359.87 154.17,-361.44 158,-363 256.56,-403.12 269.59,-462 376,-462 376,-462 376,-462 518.5,-462 610.44,-462 645.28,-489.67 724.5,-443 754.98,-425.05 807.51,-333.51 830.13,-292.24"/>
<polygon fill="#63b8ff" stroke="#63b8ff" points="833.13,-294.03 834.83,-283.58 826.98,-290.69 833.13,-294.03"/>
</a>
</g>
</g>
<!-- Node16 -->
<g id="Node000016" class="node">
<title>Node16</title>
<g id="a_Node000016"><a xlink:href="frame_8cpp.html#a8b9407b2f579031cf4b705f1ac03ac31" target="_top" xlink:title="Executes a command based on the command key and the parameter.">
<polygon fill="white" stroke="#666666" points="293.25,-358 194,-358 194,-338 293.25,-338 293.25,-358"/>
<text text-anchor="middle" x="243.62" y="-344.5" font-family="Helvetica,sans-Serif" font-size="10.00">processFrameData</text>
</a>
</g>
</g>
<!-- Node15&#45;&gt;Node16 -->
<g id="edge16_Node000015_Node000016" class="edge">
<title>Node15&#45;&gt;Node16</title>
<g id="a_edge16_Node000015_Node000016"><a xlink:title=" ">
<path fill="none" stroke="#63b8ff" d="M158.5,-348C166.19,-348 174.36,-348 182.47,-348"/>
<polygon fill="#63b8ff" stroke="#63b8ff" points="182.31,-351.5 192.31,-348 182.31,-344.5 182.31,-351.5"/>
</a>
</g>
</g>
<!-- Node16&#45;&gt;Node2 -->
<g id="edge17_Node000016_Node000002" class="edge">
<title>Node16&#45;&gt;Node2</title>
<g id="a_edge17_Node000016_Node000002"><a xlink:title=" ">
<path fill="none" stroke="#63b8ff" d="M286.62,-337.53C300.16,-334.43 315.28,-331.27 329.25,-329 378.65,-320.98 435.96,-315.75 474.04,-312.85"/>
<polygon fill="#63b8ff" stroke="#63b8ff" points="473.98,-316.37 483.7,-312.14 473.47,-309.38 473.98,-316.37"/>
</a>
</g>
</g>
<!-- Node17 -->
<g id="Node000017" class="node">
<title>Node17</title>
<g id="a_Node000017"><a xlink:href="frame_8cpp.html#a8f34bc31494430539db21206f084d39d" target="_top" xlink:title="Converts a string into a Frame instance.">
<polygon fill="white" stroke="#666666" points="414.62,-396 339.38,-396 339.38,-376 414.62,-376 414.62,-396"/>
<text text-anchor="middle" x="377" y="-382.5" font-family="Helvetica,sans-Serif" font-size="10.00">decodeFrame</text>
</a>
</g>
</g>
<!-- Node16&#45;&gt;Node17 -->
<g id="edge18_Node000016_Node000017" class="edge">
<title>Node16&#45;&gt;Node17</title>
<g id="a_edge18_Node000016_Node000017"><a xlink:title=" ">
<path fill="none" stroke="#63b8ff" d="M280.87,-358.48C295.81,-362.8 313.3,-367.86 329.18,-372.46"/>
<polygon fill="#63b8ff" stroke="#63b8ff" points="327.84,-375.71 338.42,-375.13 329.78,-368.99 327.84,-375.71"/>
</a>
</g>
</g>
<!-- Node16&#45;&gt;Node18 -->
<g id="edge29_Node000016_Node000018" class="edge">
<title>Node16&#45;&gt;Node18</title>
<g id="a_edge29_Node000016_Node000018"><a xlink:title=" ">
<path fill="none" stroke="#63b8ff" d="M255.92,-358.34C271.26,-371.69 300.1,-394.46 329.25,-405 376.45,-422.07 434.43,-425.49 473.25,-425.5"/>
<polygon fill="#63b8ff" stroke="#63b8ff" points="473.17,-429 483.14,-425.42 473.11,-422 473.17,-429"/>
</a>
</g>
</g>
<!-- Node23 -->
<g id="Node000023" class="node">
<title>Node23</title>
<g id="a_Node000023"><a xlink:href="group___command_system.html#ga1907d400d2c8d8d054ba95bcf43276ea" target="_top" xlink:title="Executes a command based on its key.">
<polygon fill="white" stroke="#666666" points="424.75,-358 329.25,-358 329.25,-338 424.75,-338 424.75,-358"/>
<text text-anchor="middle" x="377" y="-344.5" font-family="Helvetica,sans-Serif" font-size="10.00">executeCommand</text>
</a>
</g>
</g>
<!-- Node16&#45;&gt;Node23 -->
<g id="edge27_Node000016_Node000023" class="edge">
<title>Node16&#45;&gt;Node23</title>
<g id="a_edge27_Node000016_Node000023"><a xlink:title=" ">
<path fill="none" stroke="#63b8ff" d="M293.54,-348C301.29,-348 309.37,-348 317.31,-348"/>
<polygon fill="#63b8ff" stroke="#63b8ff" points="317.27,-351.5 327.27,-348 317.27,-344.5 317.27,-351.5"/>
</a>
</g>
</g>
<!-- Node17&#45;&gt;Node2 -->
<g id="edge19_Node000017_Node000002" class="edge">
<title>Node17&#45;&gt;Node2</title>
<g id="a_edge19_Node000017_Node000002"><a xlink:title=" ">
<path fill="none" stroke="#63b8ff" d="M409.14,-375.53C414.55,-373.1 419.98,-370.26 424.75,-367 443.96,-353.88 441.17,-341.56 460.75,-329 465.03,-326.25 469.75,-323.86 474.58,-321.78"/>
<polygon fill="#63b8ff" stroke="#63b8ff" points="475.68,-325.1 483.78,-318.27 473.18,-318.57 475.68,-325.1"/>
</a>
</g>
</g>
<!-- Node17&#45;&gt;Node12 -->
<g id="edge26_Node000017_Node000012" class="edge">
<title>Node17&#45;&gt;Node12</title>
<g id="a_edge26_Node000017_Node000012"><a xlink:title=" ">
<path fill="none" stroke="#63b8ff" d="M415.12,-384.08C454.75,-381.65 519.28,-376.56 574.25,-367 642.11,-355.2 659.83,-352.71 724.5,-329 755.85,-317.51 789.97,-300.2 813.13,-287.68"/>
<polygon fill="#63b8ff" stroke="#63b8ff" points="814.54,-290.9 821.63,-283.02 811.18,-284.76 814.54,-290.9"/>
</a>
</g>
</g>
<!-- Node17&#45;&gt;Node18 -->
<g id="edge20_Node000017_Node000018" class="edge">
<title>Node17&#45;&gt;Node18</title>
<g id="a_edge20_Node000017_Node000018"><a xlink:title=" ">
<path fill="none" stroke="#63b8ff" d="M415.12,-396.18C433.25,-401.16 455.16,-407.17 473.97,-412.33"/>
<polygon fill="#63b8ff" stroke="#63b8ff" points="472.89,-415.66 483.46,-414.94 474.74,-408.91 472.89,-415.66"/>
</a>
</g>
</g>
<!-- Node22 -->
<g id="Node000022" class="node">
<title>Node22</title>
<g id="a_Node000022"><a xlink:href="utils__converters_8cpp.html#a245c34d9f7072236b66e9352a9d3466e" target="_top" xlink:title="Converts a string to an OperationType.">
<polygon fill="white" stroke="#666666" points="574.25,-358 460.75,-358 460.75,-338 574.25,-338 574.25,-358"/>
<text text-anchor="middle" x="517.5" y="-344.5" font-family="Helvetica,sans-Serif" font-size="10.00">stringToOperationType</text>
</a>
</g>
</g>
<!-- Node17&#45;&gt;Node22 -->
<g id="edge25_Node000017_Node000022" class="edge">
<title>Node17&#45;&gt;Node22</title>
<g id="a_edge25_Node000017_Node000022"><a xlink:title=" ">
<path fill="none" stroke="#63b8ff" d="M415.12,-375.82C431.15,-371.42 450.15,-366.21 467.33,-361.49"/>
<polygon fill="#63b8ff" stroke="#63b8ff" points="468.14,-364.9 476.86,-358.88 466.29,-358.15 468.14,-364.9"/>
</a>
</g>
</g>
<!-- Node19 -->
<g id="Node000019" class="node">
<title>Node19</title>
<g id="a_Node000019"><a xlink:href="frame_8cpp.html#ab53898fb6f45dfc657837a665a070959" target="_top" xlink:title="Encodes a Frame instance into a string.">
<polygon fill="white" stroke="#666666" points="705,-434 629.75,-434 629.75,-414 705,-414 705,-434"/>
<text text-anchor="middle" x="667.38" y="-420.5" font-family="Helvetica,sans-Serif" font-size="10.00">encodeFrame</text>
</a>
</g>
</g>
<!-- Node18&#45;&gt;Node19 -->
<g id="edge21_Node000018_Node000019" class="edge">
<title>Node18&#45;&gt;Node19</title>
<g id="a_edge21_Node000018_Node000019"><a xlink:title=" ">
<path fill="none" stroke="#63b8ff" d="M550.22,-424C570.02,-424 595.9,-424 618.2,-424"/>
<polygon fill="#63b8ff" stroke="#63b8ff" points="617.97,-427.5 627.97,-424 617.97,-420.5 617.97,-427.5"/>
</a>
</g>
</g>
<!-- Node21 -->
<g id="Node000021" class="node">
<title>Node21</title>
<g id="a_Node000021"><a xlink:href="send_8cpp.html#adcc720dc971ce8b237b26df434b65bb2" target="_top" xlink:title="Sends a message using LoRa.">
<polygon fill="white" stroke="#666666" points="705.75,-396 629,-396 629,-376 705.75,-376 705.75,-396"/>
<text text-anchor="middle" x="667.38" y="-382.5" font-family="Helvetica,sans-Serif" font-size="10.00">sendMessage</text>
</a>
</g>
</g>
<!-- Node18&#45;&gt;Node21 -->
<g id="edge23_Node000018_Node000021" class="edge">
<title>Node18&#45;&gt;Node21</title>
<g id="a_edge23_Node000018_Node000021"><a xlink:title=" ">
<path fill="none" stroke="#63b8ff" d="M550.22,-415.85C569.9,-410.79 595.57,-404.2 617.77,-398.49"/>
<polygon fill="#63b8ff" stroke="#63b8ff" points="618.4,-401.94 627.22,-396.06 616.66,-395.16 618.4,-401.94"/>
</a>
</g>
</g>
<!-- Node20 -->
<g id="Node000020" class="node">
<title>Node20</title>
<g id="a_Node000020"><a xlink:href="utils__converters_8cpp.html#a82a11ce999902359454fa904a13ae297" target="_top" xlink:title="Converts an OperationType to a string.">
<polygon fill="white" stroke="#666666" points="898.38,-434 785.62,-434 785.62,-414 898.38,-414 898.38,-434"/>
<text text-anchor="middle" x="842" y="-420.5" font-family="Helvetica,sans-Serif" font-size="10.00">operationTypeToString</text>
</a>
</g>
</g>
<!-- Node19&#45;&gt;Node20 -->
<g id="edge22_Node000019_Node000020" class="edge">
<title>Node19&#45;&gt;Node20</title>
<g id="a_edge22_Node000019_Node000020"><a xlink:title=" ">
<path fill="none" stroke="#63b8ff" d="M705.41,-424C725.41,-424 750.73,-424 774.06,-424"/>
<polygon fill="#63b8ff" stroke="#63b8ff" points="773.81,-427.5 783.81,-424 773.81,-420.5 773.81,-427.5"/>
</a>
</g>
</g>
<!-- Node21&#45;&gt;Node12 -->
<g id="edge24_Node000021_Node000012" class="edge">
<title>Node21&#45;&gt;Node12</title>
<g id="a_edge24_Node000021_Node000012"><a xlink:title=" ">
<path fill="none" stroke="#63b8ff" d="M696.75,-375.51C705.85,-371.72 715.82,-367.1 724.5,-362 760.95,-340.6 798.92,-309.29 821.24,-289.8"/>
<polygon fill="#63b8ff" stroke="#63b8ff" points="823.49,-292.49 828.66,-283.24 818.85,-287.24 823.49,-292.49"/>
</a>
</g>
</g>
<!-- Node23&#45;&gt;Node2 -->
<g id="edge28_Node000023_Node000002" class="edge">
<title>Node23&#45;&gt;Node2</title>
<g id="a_edge28_Node000023_Node000002"><a xlink:title=" ">
<path fill="none" stroke="#63b8ff" d="M416.21,-337.52C434.25,-332.57 455.82,-326.65 474.34,-321.57"/>
<polygon fill="#63b8ff" stroke="#63b8ff" points="475.23,-324.95 483.95,-318.93 473.38,-318.2 475.23,-324.95"/>
</a>
</g>
</g>
<!-- Node24&#45;&gt;Node6 -->
<g id="edge32_Node000024_Node000006" class="edge">
<title>Node24&#45;&gt;Node6</title>
<g id="a_edge32_Node000024_Node000006"><a xlink:title=" ">
<path fill="none" stroke="#63b8ff" d="M705.83,-153.88C727.93,-151.44 756.4,-148.31 781.51,-145.55"/>
<polygon fill="#63b8ff" stroke="#63b8ff" points="781.71,-149.05 791.27,-144.47 780.95,-142.09 781.71,-149.05"/>
</a>
</g>
</g>
<!-- Node24&#45;&gt;Node12 -->
<g id="edge33_Node000024_Node000012" class="edge">
<title>Node24&#45;&gt;Node12</title>
<g id="a_edge33_Node000024_Node000012"><a xlink:title=" ">
<path fill="none" stroke="#63b8ff" d="M696.75,-168.49C705.85,-172.28 715.82,-176.9 724.5,-182 760.95,-203.4 798.92,-234.71 821.24,-254.2"/>
<polygon fill="#63b8ff" stroke="#63b8ff" points="818.85,-256.76 828.66,-260.76 823.49,-251.51 818.85,-256.76"/>
</a>
</g>
</g>
<!-- Node25&#45;&gt;Node2 -->
<g id="edge35_Node000025_Node000002" class="edge">
<title>Node25&#45;&gt;Node2</title>
<g id="a_edge35_Node000025_Node000002"><a xlink:title=" ">
<path fill="none" stroke="#63b8ff" d="M401.63,-206.4C409.3,-210.22 417.65,-214.88 424.75,-220 432.8,-225.81 474.02,-267.06 498.39,-291.65"/>
<polygon fill="#63b8ff" stroke="#63b8ff" points="495.63,-293.84 505.15,-298.49 500.61,-288.92 495.63,-293.84"/>
</a>
</g>
</g>
<!-- Node25&#45;&gt;Node12 -->
<g id="edge38_Node000025_Node000012" class="edge">
<title>Node25&#45;&gt;Node12</title>
<g id="a_edge38_Node000025_Node000012"><a xlink:title=" ">
<path fill="none" stroke="#63b8ff" d="M411.13,-198.05C450.26,-200.74 517.25,-206.18 574.25,-215 657.18,-227.83 753.11,-250.21 804.31,-262.77"/>
<polygon fill="#63b8ff" stroke="#63b8ff" points="803.41,-266.15 813.96,-265.15 805.09,-259.36 803.41,-266.15"/>
</a>
</g>
</g>
<!-- Node25&#45;&gt;Node18 -->
<g id="edge37_Node000025_Node000018" class="edge">
<title>Node25&#45;&gt;Node18</title>
<g id="a_edge37_Node000025_Node000018"><a xlink:title=" ">
<path fill="none" stroke="#63b8ff" d="M381.62,-206.26C391.62,-233.81 421.5,-311.14 460.75,-367 470.8,-381.3 484.49,-395.36 495.8,-405.93"/>
<polygon fill="#63b8ff" stroke="#63b8ff" points="493.36,-408.45 503.11,-412.59 498.07,-403.27 493.36,-408.45"/>
</a>
</g>
</g>
<!-- Node26 -->
<g id="Node000026" class="node">
<title>Node26</title>
<g id="a_Node000026"><a xlink:href="storage_8cpp.html#afb19e37469a751aa61de3dcd0c70b4b0" target="_top" xlink:title="Initializes the file system on the SD card.">
<polygon fill="white" stroke="#666666" points="538.62,-244 496.38,-244 496.38,-224 538.62,-224 538.62,-244"/>
<text text-anchor="middle" x="517.5" y="-230.5" font-family="Helvetica,sans-Serif" font-size="10.00">fs_init</text>
</a>
</g>
</g>
<!-- Node25&#45;&gt;Node26 -->
<g id="edge36_Node000025_Node000026" class="edge">
<title>Node25&#45;&gt;Node26</title>
<g id="a_edge36_Node000025_Node000026"><a xlink:title=" ">
<path fill="none" stroke="#63b8ff" d="M411.17,-205.1C433.56,-211.24 462.92,-219.3 484.96,-225.35"/>
<polygon fill="#63b8ff" stroke="#63b8ff" points="484.02,-228.72 494.59,-227.99 485.87,-221.97 484.02,-228.72"/>
</a>
</g>
</g>
<!-- Node27&#45;&gt;Node12 -->
<g id="edge41_Node000027_Node000012" class="edge">
<title>Node27&#45;&gt;Node12</title>
<g id="a_edge41_Node000027_Node000012"><a xlink:title=" ">
<path fill="none" stroke="#63b8ff" d="M146.86,-272C195.31,-272 293.1,-272 376,-272 376,-272 376,-272 518.5,-272 621.95,-272 744.07,-272 804.02,-272"/>
<polygon fill="#63b8ff" stroke="#63b8ff" points="803.98,-275.5 813.98,-272 803.98,-268.5 803.98,-275.5"/>
</a>
</g>
</g>
<!-- Node27&#45;&gt;Node16 -->
<g id="edge40_Node000027_Node000016" class="edge">
<title>Node27&#45;&gt;Node16</title>
<g id="a_edge40_Node000027_Node000016"><a xlink:title=" ">
<path fill="none" stroke="#63b8ff" d="M133.77,-282.41C154.91,-295.14 190.93,-316.85 215.71,-331.78"/>
<polygon fill="#63b8ff" stroke="#63b8ff" points="213.89,-334.77 224.26,-336.94 217.51,-328.78 213.89,-334.77"/>
</a>
</g>
</g>
</g>
</svg>
