<?xml version="1.0" encoding="UTF-8" standalone="no"?>
<!DOCTYPE svg PUBLIC "-//W3C//DTD SVG 1.1//EN"
 "http://www.w3.org/Graphics/SVG/1.1/DTD/svg11.dtd">
<!-- Generated by graphviz version 12.2.1 (20241206.2353)
 -->
<!-- Title: initSystems Pages: 1 -->
<svg width="488pt" height="256pt"
 viewBox="0.00 0.00 487.50 256.00" xmlns="http://www.w3.org/2000/svg" xmlns:xlink="http://www.w3.org/1999/xlink">

<svg id="main" version="1.1" xmlns="http://www.w3.org/2000/svg" xmlns:xlink="http://www.w3.org/1999/xlink" xml:space="preserve">

<style type="text/css"><![CDATA[
.node, .edge {opacity: 0.7;}
.node.selected, .edge.selected {opacity: 1;}
.edge:hover path { stroke: red; }
.edge:hover polygon { stroke: red; fill: red; }
]]></style>
<script type="application/ecmascript" xlink:href="svg.min.js"/>
<svg id="graph" class="graph">
<g id="graph0" class="graph" transform="scale(1 1) rotate(0) translate(4 252)">
<title>initSystems</title>
<!-- Node1 -->
<g id="Node000001" class="node">
<title>Node1</title>
<g id="a_Node000001"><a xlink:title=" ">
<polygon fill="#999999" stroke="#666666" points="67.75,-172 0,-172 0,-152 67.75,-152 67.75,-172"/>
<text text-anchor="middle" x="33.88" y="-158.5" font-family="Helvetica,sans-Serif" font-size="10.00">initSystems</text>
</a>
</g>
</g>
<!-- Node2 -->
<g id="Node000002" class="node">
<title>Node2</title>
<g id="a_Node000002"><a xlink:href="frame_8cpp.html#a5f43260949ee244d3ee66068eb1d7fc1" target="_top" xlink:title="Builds a Frame instance.">
<polygon fill="white" stroke="#666666" points="174.12,-248 110.12,-248 110.12,-228 174.12,-228 174.12,-248"/>
<text text-anchor="middle" x="142.12" y="-234.5" font-family="Helvetica,sans-Serif" font-size="10.00">buildFrame</text>
</a>
</g>
</g>
<!-- Node1&#45;&gt;Node2 -->
<g id="edge1_Node000001_Node000002" class="edge">
<title>Node1&#45;&gt;Node2</title>
<g id="a_edge1_Node000001_Node000002"><a xlink:title=" ">
<path fill="none" stroke="#63b8ff" d="M45.5,-172.07C58.56,-184.14 81.69,-204.52 103.75,-219 105.34,-220.04 106.99,-221.07 108.68,-222.08"/>
<polygon fill="#63b8ff" stroke="#63b8ff" points="106.77,-225.02 117.21,-226.8 110.16,-218.89 106.77,-225.02"/>
</a>
</g>
</g>
<!-- Node4 -->
<g id="Node000004" class="node">
<title>Node4</title>
<g id="a_Node000004"><a xlink:href="storage_8cpp.html#afb19e37469a751aa61de3dcd0c70b4b0" target="_top" xlink:title="Initializes the file system on the SD card.">
<polygon fill="white" stroke="#666666" points="163.25,-210 121,-210 121,-190 163.25,-190 163.25,-210"/>
<text text-anchor="middle" x="142.12" y="-196.5" font-family="Helvetica,sans-Serif" font-size="10.00">fs_init</text>
</a>
</g>
</g>
<!-- Node1&#45;&gt;Node4 -->
<g id="edge3_Node000001_Node000004" class="edge">
<title>Node1&#45;&gt;Node4</title>
<g id="a_edge3_Node000001_Node000004"><a xlink:title=" ">
<path fill="none" stroke="#63b8ff" d="M64.19,-172.48C78.48,-177.6 95.67,-183.74 110.18,-188.93"/>
<polygon fill="#63b8ff" stroke="#63b8ff" points="108.63,-192.1 119.23,-192.17 110.99,-185.51 108.63,-192.1"/>
</a>
</g>
</g>
<!-- Node5 -->
<g id="Node000005" class="node">
<title>Node5</title>
<g id="a_Node000005"><a xlink:href="utils_8cpp.html#aacbcecbe6b5428e3571b06ab2104e706" target="_top" xlink:title="Prints a message to the UART with a timestamp and core number.">
<polygon fill="white" stroke="#666666" points="449.5,-153 396.75,-153 396.75,-133 449.5,-133 449.5,-153"/>
<text text-anchor="middle" x="423.12" y="-139.5" font-family="Helvetica,sans-Serif" font-size="10.00">uartPrint</text>
</a>
</g>
</g>
<!-- Node1&#45;&gt;Node5 -->
<g id="edge13_Node000001_Node000005" class="edge">
<title>Node1&#45;&gt;Node5</title>
<g id="a_edge13_Node000001_Node000005"><a xlink:title=" ">
<path fill="none" stroke="#63b8ff" d="M68.23,-160.36C140.32,-156.83 310.23,-148.49 385.33,-144.81"/>
<polygon fill="#63b8ff" stroke="#63b8ff" points="385.21,-148.32 395.03,-144.33 384.87,-141.32 385.21,-148.32"/>
</a>
</g>
</g>
<!-- Node6 -->
<g id="Node000006" class="node">
<title>Node6</title>
<g id="a_Node000006"><a xlink:href="communication_8cpp.html#a520df448c1dc359f42111ac240081975" target="_top" xlink:title="Initializes the LoRa radio module.">
<polygon fill="white" stroke="#666666" points="180.5,-134 103.75,-134 103.75,-114 180.5,-114 180.5,-134"/>
<text text-anchor="middle" x="142.12" y="-120.5" font-family="Helvetica,sans-Serif" font-size="10.00">initializeRadio</text>
</a>
</g>
</g>
<!-- Node1&#45;&gt;Node6 -->
<g id="edge5_Node000001_Node000006" class="edge">
<title>Node1&#45;&gt;Node6</title>
<g id="a_edge5_Node000001_Node000006"><a xlink:title=" ">
<path fill="none" stroke="#63b8ff" d="M64.19,-151.52C75.69,-147.4 89.06,-142.62 101.4,-138.21"/>
<polygon fill="#63b8ff" stroke="#63b8ff" points="102.24,-141.62 110.48,-134.96 99.89,-135.03 102.24,-141.62"/>
</a>
</g>
</g>
<!-- Node8 -->
<g id="Node000008" class="node">
<title>Node8</title>
<g id="a_Node000008"><a xlink:href="send_8cpp.html#a752e7cc27f52d4ba064e691b3e240ed8" target="_top" xlink:title="Sends a Frame using LoRa.">
<polygon fill="white" stroke="#666666" points="174.5,-58 109.75,-58 109.75,-38 174.5,-38 174.5,-58"/>
<text text-anchor="middle" x="142.12" y="-44.5" font-family="Helvetica,sans-Serif" font-size="10.00">sendFrame</text>
</a>
</g>
</g>
<!-- Node1&#45;&gt;Node8 -->
<g id="edge8_Node000001_Node000008" class="edge">
<title>Node1&#45;&gt;Node8</title>
<g id="a_edge8_Node000001_Node000008"><a xlink:title=" ">
<path fill="none" stroke="#63b8ff" d="M44.3,-151.88C62.14,-132.75 101.05,-91 123.74,-66.65"/>
<polygon fill="#63b8ff" stroke="#63b8ff" points="126.27,-69.07 130.53,-59.37 121.15,-64.29 126.27,-69.07"/>
</a>
</g>
</g>
<!-- Node3 -->
<g id="Node000003" class="node">
<title>Node3</title>
<g id="a_Node000003"><a xlink:href="utils__converters_8cpp.html#ab4cb9e6b491bd7711c69c9167a2b9286" target="_top" xlink:title="Converts a ValueUnit to a string.">
<polygon fill="white" stroke="#666666" points="330.75,-248 216.5,-248 216.5,-228 330.75,-228 330.75,-248"/>
<text text-anchor="middle" x="273.62" y="-234.5" font-family="Helvetica,sans-Serif" font-size="10.00">valueUnitTypeToString</text>
</a>
</g>
</g>
<!-- Node2&#45;&gt;Node3 -->
<g id="edge2_Node000002_Node000003" class="edge">
<title>Node2&#45;&gt;Node3</title>
<g id="a_edge2_Node000002_Node000003"><a xlink:title=" ">
<path fill="none" stroke="#63b8ff" d="M174.47,-238C183.65,-238 194.07,-238 204.6,-238"/>
<polygon fill="#63b8ff" stroke="#63b8ff" points="204.5,-241.5 214.5,-238 204.5,-234.5 204.5,-241.5"/>
</a>
</g>
</g>
<!-- Node4&#45;&gt;Node5 -->
<g id="edge4_Node000004_Node000005" class="edge">
<title>Node4&#45;&gt;Node5</title>
<g id="a_edge4_Node000004_Node000005"><a xlink:title=" ">
<path fill="none" stroke="#63b8ff" d="M163.66,-198.85C198.46,-196.58 271.06,-190.41 330.75,-176 349.85,-171.39 370.48,-164.14 387.31,-157.61"/>
<polygon fill="#63b8ff" stroke="#63b8ff" points="388.35,-160.96 396.35,-154.02 385.76,-154.46 388.35,-160.96"/>
</a>
</g>
</g>
<!-- Node6&#45;&gt;Node5 -->
<g id="edge7_Node000006_Node000005" class="edge">
<title>Node6&#45;&gt;Node5</title>
<g id="a_edge7_Node000006_Node000005"><a xlink:title=" ">
<path fill="none" stroke="#63b8ff" d="M180.75,-126.56C234.27,-130.21 331.76,-136.85 385,-140.47"/>
<polygon fill="#63b8ff" stroke="#63b8ff" points="384.56,-143.95 394.77,-141.14 385.03,-136.97 384.56,-143.95"/>
</a>
</g>
</g>
<!-- Node7 -->
<g id="Node000007" class="node">
<title>Node7</title>
<g id="a_Node000007"><a xlink:href="class_event_emitter.html#a539d733505f9a793439a9cfc4f2af079" target="_top" xlink:title="Emits an event.">
<polygon fill="white" stroke="#666666" points="322.5,-96 224.75,-96 224.75,-76 322.5,-76 322.5,-96"/>
<text text-anchor="middle" x="273.62" y="-82.5" font-family="Helvetica,sans-Serif" font-size="10.00">EventEmitter::emit</text>
</a>
</g>
</g>
<!-- Node6&#45;&gt;Node7 -->
<g id="edge6_Node000006_Node000007" class="edge">
<title>Node6&#45;&gt;Node7</title>
<g id="a_edge6_Node000006_Node000007"><a xlink:title=" ">
<path fill="none" stroke="#63b8ff" d="M178.85,-113.52C193.43,-109.24 210.49,-104.23 226.02,-99.67"/>
<polygon fill="#63b8ff" stroke="#63b8ff" points="226.95,-103.05 235.56,-96.88 224.98,-96.33 226.95,-103.05"/>
</a>
</g>
</g>
<!-- Node9 -->
<g id="Node000009" class="node">
<title>Node9</title>
<g id="a_Node000009"><a xlink:href="frame_8cpp.html#ab53898fb6f45dfc657837a665a070959" target="_top" xlink:title="Encodes a Frame instance into a string.">
<polygon fill="white" stroke="#666666" points="311.25,-20 236,-20 236,0 311.25,0 311.25,-20"/>
<text text-anchor="middle" x="273.62" y="-6.5" font-family="Helvetica,sans-Serif" font-size="10.00">encodeFrame</text>
</a>
</g>
</g>
<!-- Node8&#45;&gt;Node9 -->
<g id="edge9_Node000008_Node000009" class="edge">
<title>Node8&#45;&gt;Node9</title>
<g id="a_edge9_Node000008_Node000009"><a xlink:title=" ">
<path fill="none" stroke="#63b8ff" d="M174.8,-38.7C190.28,-34.16 209.21,-28.61 226.27,-23.6"/>
<polygon fill="#63b8ff" stroke="#63b8ff" points="227.1,-27.01 235.71,-20.83 225.13,-20.29 227.1,-27.01"/>
</a>
</g>
</g>
<!-- Node11 -->
<g id="Node000011" class="node">
<title>Node11</title>
<g id="a_Node000011"><a xlink:href="send_8cpp.html#adcc720dc971ce8b237b26df434b65bb2" target="_top" xlink:title="Sends a message using LoRa.">
<polygon fill="white" stroke="#666666" points="312,-58 235.25,-58 235.25,-38 312,-38 312,-58"/>
<text text-anchor="middle" x="273.62" y="-44.5" font-family="Helvetica,sans-Serif" font-size="10.00">sendMessage</text>
</a>
</g>
</g>
<!-- Node8&#45;&gt;Node11 -->
<g id="edge11_Node000008_Node000011" class="edge">
<title>Node8&#45;&gt;Node11</title>
<g id="a_edge11_Node000008_Node000011"><a xlink:title=" ">
<path fill="none" stroke="#63b8ff" d="M174.8,-48C189.53,-48 207.37,-48 223.76,-48"/>
<polygon fill="#63b8ff" stroke="#63b8ff" points="223.31,-51.5 233.31,-48 223.31,-44.5 223.31,-51.5"/>
</a>
</g>
</g>
<!-- Node10 -->
<g id="Node000010" class="node">
<title>Node10</title>
<g id="a_Node000010"><a xlink:href="utils__converters_8cpp.html#a82a11ce999902359454fa904a13ae297" target="_top" xlink:title="Converts an OperationType to a string.">
<polygon fill="white" stroke="#666666" points="479.5,-20 366.75,-20 366.75,0 479.5,0 479.5,-20"/>
<text text-anchor="middle" x="423.12" y="-6.5" font-family="Helvetica,sans-Serif" font-size="10.00">operationTypeToString</text>
</a>
</g>
</g>
<!-- Node9&#45;&gt;Node10 -->
<g id="edge10_Node000009_Node000010" class="edge">
<title>Node9&#45;&gt;Node10</title>
<g id="a_edge10_Node000009_Node000010"><a xlink:title=" ">
<path fill="none" stroke="#63b8ff" d="M311.46,-10C324.72,-10 340.13,-10 355.15,-10"/>
<polygon fill="#63b8ff" stroke="#63b8ff" points="355.01,-13.5 365.01,-10 355.01,-6.5 355.01,-13.5"/>
</a>
</g>
</g>
<!-- Node11&#45;&gt;Node5 -->
<g id="edge12_Node000011_Node000005" class="edge">
<title>Node11&#45;&gt;Node5</title>
<g id="a_edge12_Node000011_Node000005"><a xlink:title=" ">
<path fill="none" stroke="#63b8ff" d="M311.99,-58.5C318.42,-60.9 324.91,-63.74 330.75,-67 358.96,-82.79 386.87,-107.72 404.28,-124.69"/>
<polygon fill="#63b8ff" stroke="#63b8ff" points="401.74,-127.1 411.3,-131.68 406.68,-122.14 401.74,-127.1"/>
</a>
</g>
</g>
</g>
</svg>
</svg>

<style type='text/css'>
<![CDATA[
[data-mouse-over-selected='false'] { opacity: 0.7; }
[data-mouse-over-selected='true']  { opacity: 1.0; }
]]>
</style>
<script type="application/ecmascript"><![CDATA[
document.addEventListener('DOMContentLoaded', (event) => {
  highlightEdges();
  highlightAdjacentNodes();
});
]]></script>
</svg>
