<?xml version="1.0" encoding="UTF-8" standalone="no"?>
<!DOCTYPE svg PUBLIC "-//W3C//DTD SVG 1.1//EN"
 "http://www.w3.org/Graphics/SVG/1.1/DTD/svg11.dtd">
<!-- Generated by graphviz version 12.2.1 (20241206.2353)
 -->
<!-- Title: initSystems Pages: 1 -->
<svg width="476pt" height="128pt"
 viewBox="0.00 0.00 475.50 128.33" xmlns="http://www.w3.org/2000/svg" xmlns:xlink="http://www.w3.org/1999/xlink">
<g id="graph0" class="graph" transform="scale(1 1) rotate(0) translate(4 124.33)">
<title>initSystems</title>
<!-- Node1 -->
<g id="Node000001" class="node">
<title>Node1</title>
<g id="a_Node000001"><a xlink:title=" ">
<polygon fill="#999999" stroke="#666666" points="67.75,-63.33 0,-63.33 0,-43.33 67.75,-43.33 67.75,-63.33"/>
<text text-anchor="middle" x="33.88" y="-49.83" font-family="Helvetica,sans-Serif" font-size="10.00">initSystems</text>
</a>
</g>
</g>
<!-- Node2 -->
<g id="Node000002" class="node">
<title>Node2</title>
<g id="a_Node000002"><a xlink:href="frame_8cpp.html#a5f43260949ee244d3ee66068eb1d7fc1" target="_top" xlink:title="Builds a Frame instance.">
<polygon fill="white" stroke="#666666" points="168.12,-120.33 104.12,-120.33 104.12,-100.33 168.12,-100.33 168.12,-120.33"/>
<text text-anchor="middle" x="136.12" y="-106.83" font-family="Helvetica,sans-Serif" font-size="10.00">buildFrame</text>
</a>
</g>
</g>
<!-- Node1&#45;&gt;Node2 -->
<g id="edge1_Node000001_Node000002" class="edge">
<title>Node1&#45;&gt;Node2</title>
<g id="a_edge1_Node000001_Node000002"><a xlink:title=" ">
<path fill="none" stroke="#63b8ff" d="M53.26,-63.79C68.38,-72.38 90.05,-84.7 107.29,-94.51"/>
<polygon fill="#63b8ff" stroke="#63b8ff" points="105.12,-97.29 115.54,-99.19 108.58,-91.21 105.12,-97.29"/>
</a>
</g>
</g>
<!-- Node4 -->
<g id="Node000004" class="node">
<title>Node4</title>
<g id="a_Node000004"><a xlink:href="storage_8cpp.html#afb19e37469a751aa61de3dcd0c70b4b0" target="_top" xlink:title="Initializes the file system on the SD card.">
<polygon fill="white" stroke="#666666" points="157.25,-82.33 115,-82.33 115,-62.33 157.25,-62.33 157.25,-82.33"/>
<text text-anchor="middle" x="136.12" y="-68.83" font-family="Helvetica,sans-Serif" font-size="10.00">fs_init</text>
</a>
</g>
</g>
<!-- Node1&#45;&gt;Node4 -->
<g id="edge3_Node000001_Node000004" class="edge">
<title>Node1&#45;&gt;Node4</title>
<g id="a_edge3_Node000001_Node000004"><a xlink:title=" ">
<path fill="none" stroke="#63b8ff" d="M67.98,-59.6C79.41,-61.77 92.18,-64.19 103.48,-66.33"/>
<polygon fill="#63b8ff" stroke="#63b8ff" points="102.66,-69.74 113.14,-68.16 103.96,-62.86 102.66,-69.74"/>
</a>
</g>
</g>
<!-- Node5 -->
<g id="Node000005" class="node">
<title>Node5</title>
<g id="a_Node000005"><a xlink:href="send_8cpp.html#a752e7cc27f52d4ba064e691b3e240ed8" target="_top" xlink:title="Sends a Frame using LoRa.">
<polygon fill="white" stroke="#666666" points="168.5,-44.33 103.75,-44.33 103.75,-24.33 168.5,-24.33 168.5,-44.33"/>
<text text-anchor="middle" x="136.12" y="-30.83" font-family="Helvetica,sans-Serif" font-size="10.00">sendFrame</text>
</a>
</g>
</g>
<!-- Node1&#45;&gt;Node5 -->
<g id="edge4_Node000001_Node000005" class="edge">
<title>Node1&#45;&gt;Node5</title>
<g id="a_edge4_Node000001_Node000005"><a xlink:title=" ">
<path fill="none" stroke="#63b8ff" d="M67.98,-47.06C75.73,-45.59 84.1,-44 92.21,-42.46"/>
<polygon fill="#63b8ff" stroke="#63b8ff" points="92.76,-45.92 101.93,-40.62 91.45,-39.05 92.76,-45.92"/>
</a>
</g>
</g>
<!-- Node9 -->
<g id="Node000009" class="node">
<title>Node9</title>
<g id="a_Node000009"><a xlink:href="utils_8cpp.html#aacbcecbe6b5428e3571b06ab2104e706" target="_top" xlink:title="Prints a message to the UART with a timestamp and core number.">
<polygon fill="white" stroke="#666666" points="437.5,-25.33 384.75,-25.33 384.75,-5.33 437.5,-5.33 437.5,-25.33"/>
<text text-anchor="middle" x="411.12" y="-11.83" font-family="Helvetica,sans-Serif" font-size="10.00">uartPrint</text>
</a>
</g>
</g>
<!-- Node1&#45;&gt;Node9 -->
<g id="edge9_Node000001_Node000009" class="edge">
<title>Node1&#45;&gt;Node9</title>
<g id="a_edge9_Node000001_Node000009"><a xlink:title=" ">
<path fill="none" stroke="#63b8ff" d="M48.75,-42.9C62.06,-33.59 83.12,-20.64 103.75,-15.33 198.44,9.06 315.13,-1.58 373.39,-9.52"/>
<polygon fill="#63b8ff" stroke="#63b8ff" points="372.68,-12.95 383.07,-10.89 373.66,-6.02 372.68,-12.95"/>
</a>
</g>
</g>
<!-- Node3 -->
<g id="Node000003" class="node">
<title>Node3</title>
<g id="a_Node000003"><a xlink:href="utils__converters_8cpp.html#ab4cb9e6b491bd7711c69c9167a2b9286" target="_top" xlink:title="Converts a ValueUnit to a string.">
<polygon fill="white" stroke="#666666" points="318.75,-120.33 204.5,-120.33 204.5,-100.33 318.75,-100.33 318.75,-120.33"/>
<text text-anchor="middle" x="261.62" y="-106.83" font-family="Helvetica,sans-Serif" font-size="10.00">valueUnitTypeToString</text>
</a>
</g>
</g>
<!-- Node2&#45;&gt;Node3 -->
<g id="edge2_Node000002_Node000003" class="edge">
<title>Node2&#45;&gt;Node3</title>
<g id="a_edge2_Node000002_Node000003"><a xlink:title=" ">
<path fill="none" stroke="#63b8ff" d="M168.61,-110.33C176.08,-110.33 184.33,-110.33 192.74,-110.33"/>
<polygon fill="#63b8ff" stroke="#63b8ff" points="192.72,-113.83 202.72,-110.33 192.72,-106.83 192.72,-113.83"/>
</a>
</g>
</g>
<!-- Node6 -->
<g id="Node000006" class="node">
<title>Node6</title>
<g id="a_Node000006"><a xlink:href="frame_8cpp.html#ab53898fb6f45dfc657837a665a070959" target="_top" xlink:title="Encodes a Frame instance into a string.">
<polygon fill="white" stroke="#666666" points="299.25,-82.33 224,-82.33 224,-62.33 299.25,-62.33 299.25,-82.33"/>
<text text-anchor="middle" x="261.62" y="-68.83" font-family="Helvetica,sans-Serif" font-size="10.00">encodeFrame</text>
</a>
</g>
</g>
<!-- Node5&#45;&gt;Node6 -->
<g id="edge5_Node000005_Node000006" class="edge">
<title>Node5&#45;&gt;Node6</title>
<g id="a_edge5_Node000005_Node000006"><a xlink:title=" ">
<path fill="none" stroke="#63b8ff" d="M168.93,-44.12C183.19,-48.5 200.27,-53.76 215.79,-58.54"/>
<polygon fill="#63b8ff" stroke="#63b8ff" points="214.73,-61.87 225.32,-61.47 216.79,-55.18 214.73,-61.87"/>
</a>
</g>
</g>
<!-- Node8 -->
<g id="Node000008" class="node">
<title>Node8</title>
<g id="a_Node000008"><a xlink:href="send_8cpp.html#adcc720dc971ce8b237b26df434b65bb2" target="_top" xlink:title="Sends a message using LoRa.">
<polygon fill="white" stroke="#666666" points="300,-44.33 223.25,-44.33 223.25,-24.33 300,-24.33 300,-44.33"/>
<text text-anchor="middle" x="261.62" y="-30.83" font-family="Helvetica,sans-Serif" font-size="10.00">sendMessage</text>
</a>
</g>
</g>
<!-- Node5&#45;&gt;Node8 -->
<g id="edge7_Node000005_Node000008" class="edge">
<title>Node5&#45;&gt;Node8</title>
<g id="a_edge7_Node000005_Node000008"><a xlink:title=" ">
<path fill="none" stroke="#63b8ff" d="M168.93,-34.33C181.9,-34.33 197.2,-34.33 211.54,-34.33"/>
<polygon fill="#63b8ff" stroke="#63b8ff" points="211.26,-37.83 221.26,-34.33 211.26,-30.83 211.26,-37.83"/>
</a>
</g>
</g>
<!-- Node7 -->
<g id="Node000007" class="node">
<title>Node7</title>
<g id="a_Node000007"><a xlink:href="utils__converters_8cpp.html#a82a11ce999902359454fa904a13ae297" target="_top" xlink:title="Converts an OperationType to a string.">
<polygon fill="white" stroke="#666666" points="467.5,-82.33 354.75,-82.33 354.75,-62.33 467.5,-62.33 467.5,-82.33"/>
<text text-anchor="middle" x="411.12" y="-68.83" font-family="Helvetica,sans-Serif" font-size="10.00">operationTypeToString</text>
</a>
</g>
</g>
<!-- Node6&#45;&gt;Node7 -->
<g id="edge6_Node000006_Node000007" class="edge">
<title>Node6&#45;&gt;Node7</title>
<g id="a_edge6_Node000006_Node000007"><a xlink:title=" ">
<path fill="none" stroke="#63b8ff" d="M299.46,-72.33C312.72,-72.33 328.13,-72.33 343.15,-72.33"/>
<polygon fill="#63b8ff" stroke="#63b8ff" points="343.01,-75.83 353.01,-72.33 343.01,-68.83 343.01,-75.83"/>
</a>
</g>
</g>
<!-- Node8&#45;&gt;Node9 -->
<g id="edge8_Node000008_Node000009" class="edge">
<title>Node8&#45;&gt;Node9</title>
<g id="a_edge8_Node000008_Node000009"><a xlink:title=" ">
<path fill="none" stroke="#63b8ff" d="M300.23,-29.49C322.66,-26.6 351.01,-22.95 373.3,-20.07"/>
<polygon fill="#63b8ff" stroke="#63b8ff" points="373.69,-23.55 383.16,-18.8 372.79,-16.61 373.69,-23.55"/>
</a>
</g>
</g>
</g>
</svg>
