<?xml version="1.0" encoding="UTF-8" standalone="no"?>
<!DOCTYPE svg PUBLIC "-//W3C//DTD SVG 1.1//EN"
 "http://www.w3.org/Graphics/SVG/1.1/DTD/svg11.dtd">
<!-- Generated by graphviz version 12.2.1 (20241206.2353)
 -->
<!-- Title: main Pages: 1 -->
<!--zoomable 589 -->

<svg id="main" version="1.1" xmlns="http://www.w3.org/2000/svg" xmlns:xlink="http://www.w3.org/1999/xlink" xml:space="preserve" onload="init(evt)">

<style type="text/css"><![CDATA[
.node, .edge {opacity: 0.7;}
.node.selected, .edge.selected {opacity: 1;}
.edge:hover path { stroke: red; }
.edge:hover polygon { stroke: red; fill: red; }
]]></style>

<defs>
  <circle id="rim" cx="0" cy="0" r="7"/>
  <circle id="rim2" cx="0" cy="0" r="3.5"/>
  <g id="zoomPlus">
    <use xlink:href="#rim" fill="#404040"><set attributeName="fill" to="#808080" begin="zoomplus.mouseover" end="zoomplus.mouseout"/></use>
    <path d="M-4,0h8M0,-4v8" fill="none" stroke="white" stroke-width="1.5" pointer-events="none"/>
  </g>
  <g id="zoomMin">
    <use xlink:href="#rim" fill="#404040"><set attributeName="fill" to="#808080" begin="zoomminus.mouseover" end="zoomminus.mouseout"/></use>
    <path d="M-4,0h8" fill="none" stroke="white" stroke-width="1.5" pointer-events="none"/>
  </g>
  <g id="arrowUp" transform="translate(30 24)">
    <use xlink:href="#rim"/>
    <path pointer-events="none" fill="none" stroke="white" stroke-width="1.5" d="M0,-3.0v7 M-2.5,-0.5L0,-3.0L2.5,-0.5"/>
  </g>
  <g id="arrowRight" transform="rotate(90) translate(36 -43)">
    <use xlink:href="#rim"/>
    <path pointer-events="none" fill="none" stroke="white" stroke-width="1.5" d="M0,-3.0v7 M-2.5,-0.5L0,-3.0L2.5,-0.5"/>
  </g>
  <g id="arrowDown" transform="rotate(180) translate(-30 -48)">
    <use xlink:href="#rim"/>
    <path pointer-events="none" fill="none" stroke="white" stroke-width="1.5" d="M0,-3.0v7 M-2.5,-0.5L0,-3.0L2.5,-0.5"/>
  </g>
  <g id="arrowLeft" transform="rotate(270) translate(-36 17)">
    <use xlink:href="#rim"/>
    <path pointer-events="none" fill="none" stroke="white" stroke-width="1.5" d="M0,-3.0v7 M-2.5,-0.5L0,-3.0L2.5,-0.5"/>
  </g>
  <g id="resetDef">
    <use xlink:href="#rim2" fill="#404040"><set attributeName="fill" to="#808080" begin="reset.mouseover" end="reset.mouseout"/></use>
  </g>
</defs>
<script type="application/ecmascript">
var viewWidth = 1101;
var viewHeight = 589;
var sectionId = 'dynsection-5';
</script>
<script type="application/ecmascript" xlink:href="svg.min.js"/>
<svg id="graph" class="graph">
<g id="viewport">
<title>main</title>
<!-- Node1 -->
<g id="Node000001" class="node">
<title>Node1</title>
<g id="a_Node000001"><a xlink:title=" ">
<polygon fill="#999999" stroke="#666666" points="37,-243.49 0,-243.49 0,-223.49 37,-223.49 37,-243.49"/>
<text text-anchor="middle" x="18.5" y="-229.99" font-family="Helvetica,sans-Serif" font-size="10.00">main</text>
</a>
</g>
</g>
<!-- Node2 -->
<g id="Node000002" class="node">
<title>Node2</title>
<g id="a_Node000002"><a xlink:href="frame_8cpp.html#a5f43260949ee244d3ee66068eb1d7fc1" target="_top" xlink:title="Builds a Frame instance.">
<polygon fill="white" stroke="#666666" points="549.5,-129.49 485.5,-129.49 485.5,-109.49 549.5,-109.49 549.5,-129.49"/>
<text text-anchor="middle" x="517.5" y="-115.99" font-family="Helvetica,sans-Serif" font-size="10.00">buildFrame</text>
</a>
</g>
</g>
<!-- Node1&#45;&gt;Node2 -->
<g id="edge1_Node000001_Node000002" class="edge">
<title>Node1&#45;&gt;Node2</title>
<g id="a_edge1_Node000001_Node000002"><a xlink:title=" ">
<path fill="none" stroke="#63b8ff" d="M26.58,-223.07C35.81,-210.27 53.13,-188.75 73,-176.49 174.11,-114.13 211.69,-117.56 329.25,-100.49 371.25,-94.4 382.53,-96.17 424.75,-100.49 441.16,-102.17 458.96,-105.5 474.48,-108.91"/>
<polygon fill="#63b8ff" stroke="#63b8ff" points="473.32,-112.24 483.85,-111.05 474.88,-105.41 473.32,-112.24"/>
</a>
</g>
</g>
<!-- Node4 -->
<g id="Node000004" class="node">
<title>Node4</title>
<g id="a_Node000004"><a xlink:href="main_8cpp.html#a9f153132b8b4afad133b952111e18bd9" target="_top" xlink:title=" ">
<polygon fill="white" stroke="#666666" points="551,-452.49 484,-452.49 484,-432.49 551,-432.49 551,-452.49"/>
<text text-anchor="middle" x="517.5" y="-438.99" font-family="Helvetica,sans-Serif" font-size="10.00">core1_entry</text>
</a>
</g>
</g>
<!-- Node1&#45;&gt;Node4 -->
<g id="edge3_Node000001_Node000004" class="edge">
<title>Node1&#45;&gt;Node4</title>
<g id="a_edge3_Node000001_Node000004"><a xlink:title=" ">
<path fill="none" stroke="#63b8ff" d="M23.38,-243.76C30.49,-261.19 47.29,-296.52 73,-315.49 197.63,-407.48 387.08,-432.96 472.27,-439.93"/>
<polygon fill="#63b8ff" stroke="#63b8ff" points="471.84,-443.4 482.08,-440.68 472.37,-436.42 471.84,-443.4"/>
</a>
</g>
</g>
<!-- Node12 -->
<g id="Node000012" class="node">
<title>Node12</title>
<g id="a_Node000012"><a xlink:href="utils_8cpp.html#aacbcecbe6b5428e3571b06ab2104e706" target="_top" xlink:title="Prints a message to the UART with a timestamp and core number.">
<polygon fill="white" stroke="#666666" points="868.38,-319.49 815.62,-319.49 815.62,-299.49 868.38,-299.49 868.38,-319.49"/>
<text text-anchor="middle" x="842" y="-305.99" font-family="Helvetica,sans-Serif" font-size="10.00">uartPrint</text>
</a>
</g>
</g>
<!-- Node1&#45;&gt;Node12 -->
<g id="edge42_Node000001_Node000012" class="edge">
<title>Node1&#45;&gt;Node12</title>
<g id="a_edge42_Node000001_Node000012"><a xlink:title=" ">
<path fill="none" stroke="#63b8ff" d="M23.51,-223.1C41.48,-178.5 119.12,-5.49 242.62,-5.49 242.62,-5.49 242.62,-5.49 518.5,-5.49 611.85,-5.49 659.27,20.29 724.5,-46.49 789.45,-112.98 710.83,-173.94 760.5,-252.49 771.72,-270.23 790.64,-284.05 807.33,-293.64"/>
<polygon fill="#63b8ff" stroke="#63b8ff" points="805.55,-296.65 816.01,-298.34 808.88,-290.5 805.55,-296.65"/>
</a>
</g>
</g>
<!-- Node15 -->
<g id="Node000015" class="node">
<title>Node15</title>
<g id="a_Node000015"><a xlink:href="receive_8cpp.html#ac5e175a6a1482f700f9aee0b727b924f" target="_top" xlink:title="Handles UART input.">
<polygon fill="white" stroke="#666666" points="158,-205.49 73,-205.49 73,-185.49 158,-185.49 158,-205.49"/>
<text text-anchor="middle" x="115.5" y="-191.99" font-family="Helvetica,sans-Serif" font-size="10.00">handleUartInput</text>
</a>
</g>
</g>
<!-- Node1&#45;&gt;Node15 -->
<g id="edge15_Node000001_Node000015" class="edge">
<title>Node1&#45;&gt;Node15</title>
<g id="a_edge15_Node000001_Node000015"><a xlink:title=" ">
<path fill="none" stroke="#63b8ff" d="M37.37,-226.35C48.85,-221.75 64.17,-215.63 78.13,-210.04"/>
<polygon fill="#63b8ff" stroke="#63b8ff" points="79.07,-213.44 87.05,-206.47 76.47,-206.94 79.07,-213.44"/>
</a>
</g>
</g>
<!-- Node18 -->
<g id="Node000018" class="node">
<title>Node18</title>
<g id="a_Node000018"><a xlink:href="send_8cpp.html#a752e7cc27f52d4ba064e691b3e240ed8" target="_top" xlink:title="Sends a Frame using LoRa.">
<polygon fill="white" stroke="#666666" points="549.88,-262.49 485.12,-262.49 485.12,-242.49 549.88,-242.49 549.88,-262.49"/>
<text text-anchor="middle" x="517.5" y="-248.99" font-family="Helvetica,sans-Serif" font-size="10.00">sendFrame</text>
</a>
</g>
</g>
<!-- Node1&#45;&gt;Node18 -->
<g id="edge41_Node000001_Node000018" class="edge">
<title>Node1&#45;&gt;Node18</title>
<g id="a_edge41_Node000001_Node000018"><a xlink:title=" ">
<path fill="none" stroke="#63b8ff" d="M37.41,-241.58C47.61,-245.75 60.76,-250.38 73,-252.49 218.19,-277.51 394.1,-265.13 473.7,-257.28"/>
<polygon fill="#63b8ff" stroke="#63b8ff" points="473.63,-260.81 483.22,-256.31 472.92,-253.84 473.63,-260.81"/>
</a>
</g>
</g>
<!-- Node24 -->
<g id="Node000024" class="node">
<title>Node24</title>
<g id="a_Node000024"><a xlink:href="main_8cpp.html#a21af2d50d7779336997d5f3456352431" target="_top" xlink:title=" ">
<polygon fill="white" stroke="#666666" points="410.88,-357.49 343.12,-357.49 343.12,-337.49 410.88,-337.49 410.88,-357.49"/>
<text text-anchor="middle" x="377" y="-343.99" font-family="Helvetica,sans-Serif" font-size="10.00">initSystems</text>
</a>
</g>
</g>
<!-- Node1&#45;&gt;Node24 -->
<g id="edge31_Node000001_Node000024" class="edge">
<title>Node1&#45;&gt;Node24</title>
<g id="a_edge31_Node000001_Node000024"><a xlink:title=" ">
<path fill="none" stroke="#63b8ff" d="M26.97,-243.67C36.33,-255.65 53.54,-275.2 73,-285.49 157.28,-330.07 270.41,-342.64 331.83,-346.15"/>
<polygon fill="#63b8ff" stroke="#63b8ff" points="331.36,-349.63 341.52,-346.65 331.71,-342.64 331.36,-349.63"/>
</a>
</g>
</g>
<!-- Node26 -->
<g id="Node000026" class="node">
<title>Node26</title>
<g id="a_Node000026"><a xlink:href="receive_8cpp.html#a54817002e33761dc61558b1138749dfb" target="_top" xlink:title="Callback function for handling received LoRa packets.">
<polygon fill="white" stroke="#666666" points="146.75,-243.49 84.25,-243.49 84.25,-223.49 146.75,-223.49 146.75,-243.49"/>
<text text-anchor="middle" x="115.5" y="-229.99" font-family="Helvetica,sans-Serif" font-size="10.00">onReceive</text>
</a>
</g>
</g>
<!-- Node1&#45;&gt;Node26 -->
<g id="edge38_Node000001_Node000026" class="edge">
<title>Node1&#45;&gt;Node26</title>
<g id="a_edge38_Node000001_Node000026"><a xlink:title=" ">
<path fill="none" stroke="#63b8ff" d="M37.37,-233.49C47.41,-233.49 60.39,-233.49 72.83,-233.49"/>
<polygon fill="#63b8ff" stroke="#63b8ff" points="72.49,-236.99 82.49,-233.49 72.49,-229.99 72.49,-236.99"/>
</a>
</g>
</g>
<!-- Node3 -->
<g id="Node000003" class="node">
<title>Node3</title>
<g id="a_Node000003"><a xlink:href="utils__converters_8cpp.html#ab4cb9e6b491bd7711c69c9167a2b9286" target="_top" xlink:title="Converts a ValueUnit to a string.">
<polygon fill="white" stroke="#666666" points="724.5,-129.49 610.25,-129.49 610.25,-109.49 724.5,-109.49 724.5,-129.49"/>
<text text-anchor="middle" x="667.38" y="-115.99" font-family="Helvetica,sans-Serif" font-size="10.00">valueUnitTypeToString</text>
</a>
</g>
</g>
<!-- Node2&#45;&gt;Node3 -->
<g id="edge2_Node000002_Node000003" class="edge">
<title>Node2&#45;&gt;Node3</title>
<g id="a_edge2_Node000002_Node000003"><a xlink:title=" ">
<path fill="none" stroke="#63b8ff" d="M549.86,-119.49C564.19,-119.49 581.75,-119.49 598.85,-119.49"/>
<polygon fill="#63b8ff" stroke="#63b8ff" points="598.47,-122.99 608.47,-119.49 598.47,-115.99 598.47,-122.99"/>
</a>
</g>
</g>
<!-- Node5 -->
<g id="Node000005" class="node">
<title>Node5</title>
<g id="a_Node000005"><a xlink:href="event__manager_8cpp.html#a467714d66058f52e4ac7aeb6df46b433" target="_top" xlink:title="Checks power statuses and triggers events based on voltage trends.">
<polygon fill="white" stroke="#666666" points="717.75,-509.49 617,-509.49 617,-489.49 717.75,-489.49 717.75,-509.49"/>
<text text-anchor="middle" x="667.38" y="-495.99" font-family="Helvetica,sans-Serif" font-size="10.00">checkPowerEvents</text>
</a>
</g>
</g>
<!-- Node4&#45;&gt;Node5 -->
<g id="edge4_Node000004_Node000005" class="edge">
<title>Node4&#45;&gt;Node5</title>
<g id="a_edge4_Node000004_Node000005"><a xlink:title=" ">
<path fill="none" stroke="#63b8ff" d="M542.47,-452.93C560.89,-460.83 587.01,-471.76 610.25,-480.49 614.58,-482.12 619.13,-483.77 623.67,-485.37"/>
<polygon fill="#63b8ff" stroke="#63b8ff" points="622.17,-488.55 632.76,-488.51 624.45,-481.93 622.17,-488.55"/>
</a>
</g>
</g>
<!-- Node4&#45;&gt;Node12 -->
<g id="edge14_Node000004_Node000012" class="edge">
<title>Node4&#45;&gt;Node12</title>
<g id="a_edge14_Node000004_Node000012"><a xlink:title=" ">
<path fill="none" stroke="#63b8ff" d="M551.41,-441.43C593.4,-438.97 667.4,-430.91 724.5,-404.49 764.89,-385.81 803.16,-349.87 824.21,-327.95"/>
<polygon fill="#63b8ff" stroke="#63b8ff" points="826.56,-330.56 830.86,-320.87 821.46,-325.77 826.56,-330.56"/>
</a>
</g>
</g>
<!-- Node13 -->
<g id="Node000013" class="node">
<title>Node13</title>
<g id="a_Node000013"><a xlink:href="gps__collector_8cpp.html#abe46d88c89b1f730f6c9a230acac2a6a" target="_top" xlink:title=" ">
<polygon fill="white" stroke="#666666" points="710.62,-471.49 624.12,-471.49 624.12,-451.49 710.62,-451.49 710.62,-471.49"/>
<text text-anchor="middle" x="667.38" y="-457.99" font-family="Helvetica,sans-Serif" font-size="10.00">collectGPSData</text>
</a>
</g>
</g>
<!-- Node4&#45;&gt;Node13 -->
<g id="edge12_Node000004_Node000013" class="edge">
<title>Node4&#45;&gt;Node13</title>
<g id="a_edge12_Node000004_Node000013"><a xlink:title=" ">
<path fill="none" stroke="#63b8ff" d="M551.32,-446.71C569.34,-449.03 592.14,-451.95 612.68,-454.59"/>
<polygon fill="#63b8ff" stroke="#63b8ff" points="611.95,-458.03 622.31,-455.83 612.84,-451.09 611.95,-458.03"/>
</a>
</g>
</g>
<!-- Node6 -->
<g id="Node000006" class="node">
<title>Node6</title>
<g id="a_Node000006"><a xlink:href="class_event_emitter.html#a539d733505f9a793439a9cfc4f2af079" target="_top" xlink:title="Emits an event.">
<polygon fill="white" stroke="#666666" points="890.88,-414.49 793.12,-414.49 793.12,-394.49 890.88,-394.49 890.88,-414.49"/>
<text text-anchor="middle" x="842" y="-400.99" font-family="Helvetica,sans-Serif" font-size="10.00">EventEmitter::emit</text>
</a>
</g>
</g>
<!-- Node5&#45;&gt;Node6 -->
<g id="edge5_Node000005_Node000006" class="edge">
<title>Node5&#45;&gt;Node6</title>
<g id="a_edge5_Node000005_Node000006"><a xlink:title=" ">
<path fill="none" stroke="#63b8ff" d="M709.08,-489.01C714.52,-486.68 719.83,-483.87 724.5,-480.49 746.1,-464.85 738.97,-448.23 760.5,-432.49 767.97,-427.03 776.6,-422.57 785.38,-418.94"/>
<polygon fill="#63b8ff" stroke="#63b8ff" points="786.53,-422.24 794.66,-415.45 784.07,-415.69 786.53,-422.24"/>
</a>
</g>
</g>
<!-- Node7 -->
<g id="Node000007" class="node">
<title>Node7</title>
<g id="a_Node000007"><a xlink:href="class_power_manager.html#ae0e4303ddaba328047fb40d8d925c7dd" target="_top" xlink:title=" ">
<polygon fill="white" stroke="#666666" points="914.5,-537.49 769.5,-537.49 769.5,-517.49 914.5,-517.49 914.5,-537.49"/>
<text text-anchor="middle" x="842" y="-523.99" font-family="Helvetica,sans-Serif" font-size="10.00">PowerManager::getVoltage5V</text>
</a>
</g>
</g>
<!-- Node5&#45;&gt;Node7 -->
<g id="edge6_Node000005_Node000007" class="edge">
<title>Node5&#45;&gt;Node7</title>
<g id="a_edge6_Node000005_Node000007"><a xlink:title=" ">
<path fill="none" stroke="#63b8ff" d="M717.84,-507.52C732.66,-509.92 749.25,-512.61 765.35,-515.22"/>
<polygon fill="#63b8ff" stroke="#63b8ff" points="764.45,-518.62 774.89,-516.77 765.58,-511.71 764.45,-518.62"/>
</a>
</g>
</g>
<!-- Node8 -->
<g id="Node000008" class="node">
<title>Node8</title>
<g id="a_Node000008"><a xlink:href="class_power_manager.html#a33ea0aaa75b4654b0ee05250119bf083" target="_top" xlink:title=" ">
<polygon fill="white" stroke="#666666" points="914.5,-499.49 769.5,-499.49 769.5,-479.49 914.5,-479.49 914.5,-499.49"/>
<text text-anchor="middle" x="842" y="-485.99" font-family="Helvetica,sans-Serif" font-size="10.00">PowerManager::isSolarActive</text>
</a>
</g>
</g>
<!-- Node5&#45;&gt;Node8 -->
<g id="edge7_Node000005_Node000008" class="edge">
<title>Node5&#45;&gt;Node8</title>
<g id="a_edge7_Node000005_Node000008"><a xlink:title=" ">
<path fill="none" stroke="#63b8ff" d="M717.84,-496.63C730.3,-495.91 744.01,-495.11 757.63,-494.32"/>
<polygon fill="#63b8ff" stroke="#63b8ff" points="757.72,-497.82 767.5,-493.75 757.31,-490.84 757.72,-497.82"/>
</a>
</g>
</g>
<!-- Node10 -->
<g id="Node000010" class="node">
<title>Node10</title>
<g id="a_Node000010"><a xlink:href="class_power_manager.html#a0548ae14a668bb06e4cc13e0295ad5c8" target="_top" xlink:title=" ">
<polygon fill="white" stroke="#666666" points="923.5,-575.49 760.5,-575.49 760.5,-555.49 923.5,-555.49 923.5,-575.49"/>
<text text-anchor="middle" x="842" y="-561.99" font-family="Helvetica,sans-Serif" font-size="10.00">PowerManager::isUSBConnected</text>
</a>
</g>
</g>
<!-- Node5&#45;&gt;Node10 -->
<g id="edge9_Node000005_Node000010" class="edge">
<title>Node5&#45;&gt;Node10</title>
<g id="a_edge9_Node000005_Node000010"><a xlink:title=" ">
<path fill="none" stroke="#63b8ff" d="M685.81,-509.99C703.92,-520.51 733.36,-536.53 760.5,-546.49 765.92,-548.48 771.63,-550.32 777.39,-551.99"/>
<polygon fill="#63b8ff" stroke="#63b8ff" points="776.47,-555.37 787.04,-554.63 778.31,-548.62 776.47,-555.37"/>
</a>
</g>
</g>
<!-- Node5&#45;&gt;Node12 -->
<g id="edge11_Node000005_Node000012" class="edge">
<title>Node5&#45;&gt;Node12</title>
<g id="a_edge11_Node000005_Node000012"><a xlink:title=" ">
<path fill="none" stroke="#63b8ff" d="M712.28,-489.04C716.75,-486.73 720.95,-483.92 724.5,-480.49 756.99,-449.14 735.45,-423.06 760.5,-385.49 776.12,-362.07 800.22,-340.57 817.98,-326.46"/>
<polygon fill="#63b8ff" stroke="#63b8ff" points="819.64,-329.6 825.41,-320.71 815.36,-324.06 819.64,-329.6"/>
</a>
</g>
</g>
<!-- Node9 -->
<g id="Node000009" class="node">
<title>Node9</title>
<g id="a_Node000009"><a xlink:href="class_power_manager.html#a097734aac2bcc228d6cf22c00e3acb1a" target="_top" xlink:title=" ">
<polygon fill="white" stroke="#666666" points="1092.5,-505.49 959.5,-505.49 959.5,-473.49 1092.5,-473.49 1092.5,-505.49"/>
<text text-anchor="start" x="967.5" y="-491.99" font-family="Helvetica,sans-Serif" font-size="10.00">PowerManager::getCurrent</text>
<text text-anchor="middle" x="1026" y="-479.99" font-family="Helvetica,sans-Serif" font-size="10.00">ChargeSolar</text>
</a>
</g>
</g>
<!-- Node8&#45;&gt;Node9 -->
<g id="edge8_Node000008_Node000009" class="edge">
<title>Node8&#45;&gt;Node9</title>
<g id="a_edge8_Node000008_Node000009"><a xlink:title=" ">
<path fill="none" stroke="#63b8ff" d="M914.93,-489.49C925.77,-489.49 936.99,-489.49 947.93,-489.49"/>
<polygon fill="#63b8ff" stroke="#63b8ff" points="947.7,-492.99 957.7,-489.49 947.7,-485.99 947.7,-492.99"/>
</a>
</g>
</g>
<!-- Node11 -->
<g id="Node000011" class="node">
<title>Node11</title>
<g id="a_Node000011"><a xlink:href="class_power_manager.html#a3f9587ee81469642a2e595ef3805e801" target="_top" xlink:title=" ">
<polygon fill="white" stroke="#666666" points="1092.5,-581.49 959.5,-581.49 959.5,-549.49 1092.5,-549.49 1092.5,-581.49"/>
<text text-anchor="start" x="967.5" y="-567.99" font-family="Helvetica,sans-Serif" font-size="10.00">PowerManager::getCurrent</text>
<text text-anchor="middle" x="1026" y="-555.99" font-family="Helvetica,sans-Serif" font-size="10.00">ChargeUSB</text>
</a>
</g>
</g>
<!-- Node10&#45;&gt;Node11 -->
<g id="edge10_Node000010_Node000011" class="edge">
<title>Node10&#45;&gt;Node11</title>
<g id="a_edge10_Node000010_Node000011"><a xlink:title=" ">
<path fill="none" stroke="#63b8ff" d="M923.89,-565.49C931.8,-565.49 939.81,-565.49 947.68,-565.49"/>
<polygon fill="#63b8ff" stroke="#63b8ff" points="947.58,-568.99 957.58,-565.49 947.58,-561.99 947.58,-568.99"/>
</a>
</g>
</g>
<!-- Node14 -->
<g id="Node000014" class="node">
<title>Node14</title>
<g id="a_Node000014"><a xlink:href="gps__collector_8cpp.html#a0509cbb838eb47985372ff8889e507f5" target="_top" xlink:title=" ">
<polygon fill="white" stroke="#666666" points="871.75,-461.49 812.25,-461.49 812.25,-441.49 871.75,-441.49 871.75,-461.49"/>
<text text-anchor="middle" x="842" y="-447.99" font-family="Helvetica,sans-Serif" font-size="10.00">splitString</text>
</a>
</g>
</g>
<!-- Node13&#45;&gt;Node14 -->
<g id="edge13_Node000013_Node000014" class="edge">
<title>Node13&#45;&gt;Node14</title>
<g id="a_edge13_Node000013_Node000014"><a xlink:title=" ">
<path fill="none" stroke="#63b8ff" d="M711.05,-459.02C738.36,-457.44 773.57,-455.4 800.46,-453.84"/>
<polygon fill="#63b8ff" stroke="#63b8ff" points="800.5,-457.35 810.28,-453.27 800.1,-450.36 800.5,-457.35"/>
</a>
</g>
</g>
<!-- Node15&#45;&gt;Node12 -->
<g id="edge30_Node000015_Node000012" class="edge">
<title>Node15&#45;&gt;Node12</title>
<g id="a_edge30_Node000015_Node000012"><a xlink:title=" ">
<path fill="none" stroke="#63b8ff" d="M132.79,-185.09C209.17,-137.77 535.95,48.61 724.5,-100.49 778.95,-143.56 721.67,-194.95 760.5,-252.49 772.32,-270.01 791.45,-283.88 808.09,-293.55"/>
<polygon fill="#63b8ff" stroke="#63b8ff" points="806.27,-296.55 816.72,-298.3 809.64,-290.41 806.27,-296.55"/>
</a>
</g>
</g>
<!-- Node16 -->
<g id="Node000016" class="node">
<title>Node16</title>
<g id="a_Node000016"><a xlink:href="frame_8cpp.html#a8b9407b2f579031cf4b705f1ac03ac31" target="_top" xlink:title="Executes a command based on the command key and the parameter.">
<polygon fill="white" stroke="#666666" points="293.25,-205.49 194,-205.49 194,-185.49 293.25,-185.49 293.25,-205.49"/>
<text text-anchor="middle" x="243.62" y="-191.99" font-family="Helvetica,sans-Serif" font-size="10.00">processFrameData</text>
</a>
</g>
</g>
<!-- Node15&#45;&gt;Node16 -->
<g id="edge16_Node000015_Node000016" class="edge">
<title>Node15&#45;&gt;Node16</title>
<g id="a_edge16_Node000015_Node000016"><a xlink:title=" ">
<path fill="none" stroke="#63b8ff" d="M158.5,-195.49C166.19,-195.49 174.36,-195.49 182.47,-195.49"/>
<polygon fill="#63b8ff" stroke="#63b8ff" points="182.31,-198.99 192.31,-195.49 182.31,-191.99 182.31,-198.99"/>
</a>
</g>
</g>
<!-- Node16&#45;&gt;Node2 -->
<g id="edge17_Node000016_Node000002" class="edge">
<title>Node16&#45;&gt;Node2</title>
<g id="a_edge17_Node000016_Node000002"><a xlink:title=" ">
<path fill="none" stroke="#63b8ff" d="M282.14,-185.01C332.49,-170.93 421.66,-146 474.3,-131.29"/>
<polygon fill="#63b8ff" stroke="#63b8ff" points="475.12,-134.7 483.81,-128.63 473.23,-127.95 475.12,-134.7"/>
</a>
</g>
</g>
<!-- Node17 -->
<g id="Node000017" class="node">
<title>Node17</title>
<g id="a_Node000017"><a xlink:href="frame_8cpp.html#a8f34bc31494430539db21206f084d39d" target="_top" xlink:title="Converts a string into a Frame instance.">
<polygon fill="white" stroke="#666666" points="414.62,-205.49 339.38,-205.49 339.38,-185.49 414.62,-185.49 414.62,-205.49"/>
<text text-anchor="middle" x="377" y="-191.99" font-family="Helvetica,sans-Serif" font-size="10.00">decodeFrame</text>
</a>
</g>
</g>
<!-- Node16&#45;&gt;Node17 -->
<g id="edge18_Node000016_Node000017" class="edge">
<title>Node16&#45;&gt;Node17</title>
<g id="a_edge18_Node000016_Node000017"><a xlink:title=" ">
<path fill="none" stroke="#63b8ff" d="M293.54,-195.49C304.7,-195.49 316.54,-195.49 327.67,-195.49"/>
<polygon fill="#63b8ff" stroke="#63b8ff" points="327.44,-198.99 337.44,-195.49 327.44,-191.99 327.44,-198.99"/>
</a>
</g>
</g>
<!-- Node16&#45;&gt;Node18 -->
<g id="edge29_Node000016_Node000018" class="edge">
<title>Node16&#45;&gt;Node18</title>
<g id="a_edge29_Node000016_Node000018"><a xlink:title=" ">
<path fill="none" stroke="#63b8ff" d="M290.26,-205.92C302.88,-208.75 316.59,-211.79 329.25,-214.49 378.64,-225.05 435.51,-236.49 473.5,-244.03"/>
<polygon fill="#63b8ff" stroke="#63b8ff" points="472.68,-247.43 483.17,-245.94 474.04,-240.57 472.68,-247.43"/>
</a>
</g>
</g>
<!-- Node23 -->
<g id="Node000023" class="node">
<title>Node23</title>
<g id="a_Node000023"><a xlink:href="group___command_system.html#ga1907d400d2c8d8d054ba95bcf43276ea" target="_top" xlink:title="Executes a command based on its key.">
<polygon fill="white" stroke="#666666" points="424.75,-129.49 329.25,-129.49 329.25,-109.49 424.75,-109.49 424.75,-129.49"/>
<text text-anchor="middle" x="377" y="-115.99" font-family="Helvetica,sans-Serif" font-size="10.00">executeCommand</text>
</a>
</g>
</g>
<!-- Node16&#45;&gt;Node23 -->
<g id="edge27_Node000016_Node000023" class="edge">
<title>Node16&#45;&gt;Node23</title>
<g id="a_edge27_Node000016_Node000023"><a xlink:title=" ">
<path fill="none" stroke="#63b8ff" d="M260.63,-185.15C277.48,-174.38 304.91,-157.19 329.25,-143.49 334.29,-140.66 339.7,-137.75 344.98,-134.99"/>
<polygon fill="#63b8ff" stroke="#63b8ff" points="346.23,-138.29 353.53,-130.6 343.03,-132.06 346.23,-138.29"/>
</a>
</g>
</g>
<!-- Node17&#45;&gt;Node2 -->
<g id="edge19_Node000017_Node000002" class="edge">
<title>Node17&#45;&gt;Node2</title>
<g id="a_edge19_Node000017_Node000002"><a xlink:title=" ">
<path fill="none" stroke="#63b8ff" d="M401.06,-185.19C408.84,-181.32 417.41,-176.6 424.75,-171.49 442.56,-159.09 442.08,-149.56 460.75,-138.49 465.07,-135.93 469.79,-133.65 474.59,-131.64"/>
<polygon fill="#63b8ff" stroke="#63b8ff" points="475.58,-135.01 483.7,-128.2 473.11,-128.46 475.58,-135.01"/>
</a>
</g>
</g>
<!-- Node17&#45;&gt;Node12 -->
<g id="edge26_Node000017_Node000012" class="edge">
<title>Node17&#45;&gt;Node12</title>
<g id="a_edge26_Node000017_Node000012"><a xlink:title=" ">
<path fill="none" stroke="#63b8ff" d="M415.02,-188.96C480.81,-179.16 620.9,-166.53 724.5,-214.49 745.61,-224.27 742.92,-237.25 760.5,-252.49 777.64,-267.36 798.61,-282.1 814.84,-292.87"/>
<polygon fill="#63b8ff" stroke="#63b8ff" points="812.71,-295.66 823,-298.2 816.54,-289.8 812.71,-295.66"/>
</a>
</g>
</g>
<!-- Node17&#45;&gt;Node18 -->
<g id="edge20_Node000017_Node000018" class="edge">
<title>Node17&#45;&gt;Node18</title>
<g id="a_edge20_Node000017_Node000018"><a xlink:title=" ">
<path fill="none" stroke="#63b8ff" d="M403.4,-205.95C425.07,-214.87 456.48,-227.79 480.7,-237.76"/>
<polygon fill="#63b8ff" stroke="#63b8ff" points="479.28,-240.96 489.86,-241.53 481.94,-234.49 479.28,-240.96"/>
</a>
</g>
</g>
<!-- Node22 -->
<g id="Node000022" class="node">
<title>Node22</title>
<g id="a_Node000022"><a xlink:href="utils__converters_8cpp.html#a245c34d9f7072236b66e9352a9d3466e" target="_top" xlink:title="Converts a string to an OperationType.">
<polygon fill="white" stroke="#666666" points="574.25,-167.49 460.75,-167.49 460.75,-147.49 574.25,-147.49 574.25,-167.49"/>
<text text-anchor="middle" x="517.5" y="-153.99" font-family="Helvetica,sans-Serif" font-size="10.00">stringToOperationType</text>
</a>
</g>
</g>
<!-- Node17&#45;&gt;Node22 -->
<g id="edge25_Node000017_Node000022" class="edge">
<title>Node17&#45;&gt;Node22</title>
<g id="a_edge25_Node000017_Node000022"><a xlink:title=" ">
<path fill="none" stroke="#63b8ff" d="M415.12,-185.31C431.15,-180.91 450.15,-175.7 467.33,-170.98"/>
<polygon fill="#63b8ff" stroke="#63b8ff" points="468.14,-174.39 476.86,-168.37 466.29,-167.64 468.14,-174.39"/>
</a>
</g>
</g>
<!-- Node19 -->
<g id="Node000019" class="node">
<title>Node19</title>
<g id="a_Node000019"><a xlink:href="frame_8cpp.html#ab53898fb6f45dfc657837a665a070959" target="_top" xlink:title="Encodes a Frame instance into a string.">
<polygon fill="white" stroke="#666666" points="705,-243.49 629.75,-243.49 629.75,-223.49 705,-223.49 705,-243.49"/>
<text text-anchor="middle" x="667.38" y="-229.99" font-family="Helvetica,sans-Serif" font-size="10.00">encodeFrame</text>
</a>
</g>
</g>
<!-- Node18&#45;&gt;Node19 -->
<g id="edge21_Node000018_Node000019" class="edge">
<title>Node18&#45;&gt;Node19</title>
<g id="a_edge21_Node000018_Node000019"><a xlink:title=" ">
<path fill="none" stroke="#63b8ff" d="M550.22,-248.42C570.02,-245.87 595.9,-242.55 618.2,-239.68"/>
<polygon fill="#63b8ff" stroke="#63b8ff" points="618.51,-243.17 627.99,-238.43 617.62,-236.23 618.51,-243.17"/>
</a>
</g>
</g>
<!-- Node21 -->
<g id="Node000021" class="node">
<title>Node21</title>
<g id="a_Node000021"><a xlink:href="send_8cpp.html#adcc720dc971ce8b237b26df434b65bb2" target="_top" xlink:title="Sends a message using LoRa.">
<polygon fill="white" stroke="#666666" points="705.75,-281.49 629,-281.49 629,-261.49 705.75,-261.49 705.75,-281.49"/>
<text text-anchor="middle" x="667.38" y="-267.99" font-family="Helvetica,sans-Serif" font-size="10.00">sendMessage</text>
</a>
</g>
</g>
<!-- Node18&#45;&gt;Node21 -->
<g id="edge23_Node000018_Node000021" class="edge">
<title>Node18&#45;&gt;Node21</title>
<g id="a_edge23_Node000018_Node000021"><a xlink:title=" ">
<path fill="none" stroke="#63b8ff" d="M550.22,-256.57C569.81,-259.09 595.33,-262.37 617.47,-265.21"/>
<polygon fill="#63b8ff" stroke="#63b8ff" points="616.82,-268.65 627.18,-266.46 617.71,-261.71 616.82,-268.65"/>
</a>
</g>
</g>
<!-- Node20 -->
<g id="Node000020" class="node">
<title>Node20</title>
<g id="a_Node000020"><a xlink:href="utils__converters_8cpp.html#a82a11ce999902359454fa904a13ae297" target="_top" xlink:title="Converts an OperationType to a string.">
<polygon fill="white" stroke="#666666" points="898.38,-243.49 785.62,-243.49 785.62,-223.49 898.38,-223.49 898.38,-243.49"/>
<text text-anchor="middle" x="842" y="-229.99" font-family="Helvetica,sans-Serif" font-size="10.00">operationTypeToString</text>
</a>
</g>
</g>
<!-- Node19&#45;&gt;Node20 -->
<g id="edge22_Node000019_Node000020" class="edge">
<title>Node19&#45;&gt;Node20</title>
<g id="a_edge22_Node000019_Node000020"><a xlink:title=" ">
<path fill="none" stroke="#63b8ff" d="M705.41,-233.49C725.41,-233.49 750.73,-233.49 774.06,-233.49"/>
<polygon fill="#63b8ff" stroke="#63b8ff" points="773.81,-236.99 783.81,-233.49 773.81,-229.99 773.81,-236.99"/>
</a>
</g>
</g>
<!-- Node21&#45;&gt;Node12 -->
<g id="edge24_Node000021_Node000012" class="edge">
<title>Node21&#45;&gt;Node12</title>
<g id="a_edge24_Node000021_Node000012"><a xlink:title=" ">
<path fill="none" stroke="#63b8ff" d="M705.83,-279.74C735.07,-286.18 775.46,-295.07 804.46,-301.45"/>
<polygon fill="#63b8ff" stroke="#63b8ff" points="803.36,-304.79 813.88,-303.52 804.87,-297.96 803.36,-304.79"/>
</a>
</g>
</g>
<!-- Node23&#45;&gt;Node2 -->
<g id="edge28_Node000023_Node000002" class="edge">
<title>Node23&#45;&gt;Node2</title>
<g id="a_edge28_Node000023_Node000002"><a xlink:title=" ">
<path fill="none" stroke="#63b8ff" d="M424.89,-119.49C440.77,-119.49 458.42,-119.49 473.94,-119.49"/>
<polygon fill="#63b8ff" stroke="#63b8ff" points="473.83,-122.99 483.83,-119.49 473.83,-115.99 473.83,-122.99"/>
</a>
</g>
</g>
<!-- Node24&#45;&gt;Node2 -->
<g id="edge32_Node000024_Node000002" class="edge">
<title>Node24&#45;&gt;Node2</title>
<g id="a_edge32_Node000024_Node000002"><a xlink:title=" ">
<path fill="none" stroke="#63b8ff" d="M381.53,-337.13C395.27,-297.01 445.21,-153.3 460.75,-138.49 464.75,-134.68 469.55,-131.63 474.62,-129.2"/>
<polygon fill="#63b8ff" stroke="#63b8ff" points="475.84,-132.48 483.86,-125.55 473.28,-125.96 475.84,-132.48"/>
</a>
</g>
</g>
<!-- Node24&#45;&gt;Node12 -->
<g id="edge37_Node000024_Node000012" class="edge">
<title>Node24&#45;&gt;Node12</title>
<g id="a_edge37_Node000024_Node000012"><a xlink:title=" ">
<path fill="none" stroke="#63b8ff" d="M411.01,-345.76C472.68,-342.41 609.54,-334.38 724.5,-323.49 751.1,-320.98 781.02,-317.36 803.87,-314.44"/>
<polygon fill="#63b8ff" stroke="#63b8ff" points="804.16,-317.93 813.63,-313.18 803.26,-310.99 804.16,-317.93"/>
</a>
</g>
</g>
<!-- Node24&#45;&gt;Node18 -->
<g id="edge36_Node000024_Node000018" class="edge">
<title>Node24&#45;&gt;Node18</title>
<g id="a_edge36_Node000024_Node000018"><a xlink:title=" ">
<path fill="none" stroke="#63b8ff" d="M393.09,-337.15C416.92,-320.8 463.5,-288.85 492.12,-269.21"/>
<polygon fill="#63b8ff" stroke="#63b8ff" points="493.92,-272.23 500.18,-263.68 489.96,-266.45 493.92,-272.23"/>
</a>
</g>
</g>
<!-- Node25 -->
<g id="Node000025" class="node">
<title>Node25</title>
<g id="a_Node000025"><a xlink:href="communication_8cpp.html#a520df448c1dc359f42111ac240081975" target="_top" xlink:title="Initializes the LoRa radio module.">
<polygon fill="white" stroke="#666666" points="705.75,-395.49 629,-395.49 629,-375.49 705.75,-375.49 705.75,-395.49"/>
<text text-anchor="middle" x="667.38" y="-381.99" font-family="Helvetica,sans-Serif" font-size="10.00">initializeRadio</text>
</a>
</g>
</g>
<!-- Node24&#45;&gt;Node25 -->
<g id="edge33_Node000024_Node000025" class="edge">
<title>Node24&#45;&gt;Node25</title>
<g id="a_edge33_Node000024_Node000025"><a xlink:title=" ">
<path fill="none" stroke="#63b8ff" d="M411.36,-353.54C426.42,-356.16 444.45,-359.16 460.75,-361.49 514.25,-369.14 575.84,-376.08 617.56,-380.51"/>
<polygon fill="#63b8ff" stroke="#63b8ff" points="616.96,-383.97 627.27,-381.53 617.69,-377 616.96,-383.97"/>
</a>
</g>
</g>
<!-- Node25&#45;&gt;Node6 -->
<g id="edge34_Node000025_Node000006" class="edge">
<title>Node25&#45;&gt;Node6</title>
<g id="a_edge34_Node000025_Node000006"><a xlink:title=" ">
<path fill="none" stroke="#63b8ff" d="M705.83,-389.62C727.93,-392.05 756.4,-395.18 781.51,-397.95"/>
<polygon fill="#63b8ff" stroke="#63b8ff" points="780.95,-401.4 791.27,-399.02 781.71,-394.45 780.95,-401.4"/>
</a>
</g>
</g>
<!-- Node25&#45;&gt;Node12 -->
<g id="edge35_Node000025_Node000012" class="edge">
<title>Node25&#45;&gt;Node12</title>
<g id="a_edge35_Node000025_Node000012"><a xlink:title=" ">
<path fill="none" stroke="#63b8ff" d="M693,-375.06C702.81,-370.88 714.21,-365.99 724.5,-361.49 752.53,-349.24 784.23,-335.07 807.48,-324.62"/>
<polygon fill="#63b8ff" stroke="#63b8ff" points="808.78,-327.88 816.46,-320.58 805.9,-321.49 808.78,-327.88"/>
</a>
</g>
</g>
<!-- Node26&#45;&gt;Node12 -->
<g id="edge40_Node000026_Node000012" class="edge">
<title>Node26&#45;&gt;Node12</title>
<g id="a_edge40_Node000026_Node000012"><a xlink:title=" ">
<path fill="none" stroke="#63b8ff" d="M147.09,-237.38C224.52,-247.13 434.64,-273.13 610.25,-290.49 678.55,-297.25 758.39,-303.44 803.99,-306.82"/>
<polygon fill="#63b8ff" stroke="#63b8ff" points="803.63,-310.3 813.86,-307.55 804.14,-303.32 803.63,-310.3"/>
</a>
</g>
</g>
<!-- Node26&#45;&gt;Node16 -->
<g id="edge39_Node000026_Node000016" class="edge">
<title>Node26&#45;&gt;Node16</title>
<g id="a_edge39_Node000026_Node000016"><a xlink:title=" ">
<path fill="none" stroke="#63b8ff" d="M147.03,-224.29C162.1,-219.75 180.59,-214.18 197.27,-209.16"/>
<polygon fill="#63b8ff" stroke="#63b8ff" points="197.91,-212.62 206.47,-206.39 195.89,-205.92 197.91,-212.62"/>
</a>
</g>
</g>
</g>
</svg>

<g id="navigator" transform="translate(0 0)" fill="#404254">
  <rect fill="#f2f5e9" fill-opacity="0.5" stroke="#606060" stroke-width=".5" x="0" y="0" width="60" height="60"/>
  <use id="zoomplus" xlink:href="#zoomPlus" x="17" y="9" onmousedown="handleZoom(evt,'in')"/>
  <use id="zoomminus" xlink:href="#zoomMin" x="42" y="9" onmousedown="handleZoom(evt,'out')"/>
  <use id="reset" xlink:href="#resetDef" x="30" y="36" onmousedown="handleReset()"/>
   <use id="arrowup" xlink:href="#arrowUp" x="0" y="0" onmousedown="handlePan(0,-1)"/>
  <use id="arrowright" xlink:href="#arrowRight" x="0" y="0" onmousedown="handlePan(1,0)"/>
  <use id="arrowdown" xlink:href="#arrowDown" x="0" y="0" onmousedown="handlePan(0,1)"/>
  <use id="arrowleft" xlink:href="#arrowLeft" x="0" y="0" onmousedown="handlePan(-1,0)"/>
</g>
<svg viewBox="0 0 15 15" width="100%" height="30px" preserveAspectRatio="xMaxYMin meet">
 <g id="arrow_out" transform="scale(0.3 0.3)">
  <a xlink:href="main_8cpp_ae66f6b31b5ad750f1fe042a706a4e3d4_cgraph_org.svg" target="_base">
   <rect id="button" ry="5" rx="5" y="6" x="6" height="38" width="38"
        fill="#f2f5e9" fill-opacity="0.5" stroke="#606060" stroke-width="1.0"/>
   <path id="arrow"
     d="M 11.500037,31.436501 C 11.940474,20.09759 22.043105,11.32322 32.158766,21.979434 L 37.068811,17.246167 C 37.068811,17.246167 37.088388,32 37.088388,32 L 22.160133,31.978069 C 22.160133,31.978069 26.997745,27.140456 26.997745,27.140456 C 18.528582,18.264221 13.291696,25.230495 11.500037,31.436501 z"
     style="fill:#404040;"/>
  </a>
 </g>
</svg>

<style type='text/css'>
<![CDATA[
[data-mouse-over-selected='false'] { opacity: 0.7; }
[data-mouse-over-selected='true']  { opacity: 1.0; }
]]>
</style>
<script type="application/ecmascript"><![CDATA[
document.addEventListener('DOMContentLoaded', (event) => {
  highlightEdges();
  highlightAdjacentNodes();
});
]]></script>
</svg>
