<?xml version="1.0" encoding="UTF-8" standalone="no"?>
<!DOCTYPE svg PUBLIC "-//W3C//DTD SVG 1.1//EN"
 "http://www.w3.org/Graphics/SVG/1.1/DTD/svg11.dtd">
<!-- Generated by graphviz version 12.2.1 (20241206.2353)
 -->
<!-- Title: main Pages: 1 -->
<!--zoomable 551 -->

<svg id="main" version="1.1" xmlns="http://www.w3.org/2000/svg" xmlns:xlink="http://www.w3.org/1999/xlink" xml:space="preserve" onload="init(evt)">

<style type="text/css"><![CDATA[
.node, .edge {opacity: 0.7;}
.node.selected, .edge.selected {opacity: 1;}
.edge:hover path { stroke: red; }
.edge:hover polygon { stroke: red; fill: red; }
]]></style>

<defs>
  <circle id="rim" cx="0" cy="0" r="7"/>
  <circle id="rim2" cx="0" cy="0" r="3.5"/>
  <g id="zoomPlus">
    <use xlink:href="#rim" fill="#404040"><set attributeName="fill" to="#808080" begin="zoomplus.mouseover" end="zoomplus.mouseout"/></use>
    <path d="M-4,0h8M0,-4v8" fill="none" stroke="white" stroke-width="1.5" pointer-events="none"/>
  </g>
  <g id="zoomMin">
    <use xlink:href="#rim" fill="#404040"><set attributeName="fill" to="#808080" begin="zoomminus.mouseover" end="zoomminus.mouseout"/></use>
    <path d="M-4,0h8" fill="none" stroke="white" stroke-width="1.5" pointer-events="none"/>
  </g>
  <g id="arrowUp" transform="translate(30 24)">
    <use xlink:href="#rim"/>
    <path pointer-events="none" fill="none" stroke="white" stroke-width="1.5" d="M0,-3.0v7 M-2.5,-0.5L0,-3.0L2.5,-0.5"/>
  </g>
  <g id="arrowRight" transform="rotate(90) translate(36 -43)">
    <use xlink:href="#rim"/>
    <path pointer-events="none" fill="none" stroke="white" stroke-width="1.5" d="M0,-3.0v7 M-2.5,-0.5L0,-3.0L2.5,-0.5"/>
  </g>
  <g id="arrowDown" transform="rotate(180) translate(-30 -48)">
    <use xlink:href="#rim"/>
    <path pointer-events="none" fill="none" stroke="white" stroke-width="1.5" d="M0,-3.0v7 M-2.5,-0.5L0,-3.0L2.5,-0.5"/>
  </g>
  <g id="arrowLeft" transform="rotate(270) translate(-36 17)">
    <use xlink:href="#rim"/>
    <path pointer-events="none" fill="none" stroke="white" stroke-width="1.5" d="M0,-3.0v7 M-2.5,-0.5L0,-3.0L2.5,-0.5"/>
  </g>
  <g id="resetDef">
    <use xlink:href="#rim2" fill="#404040"><set attributeName="fill" to="#808080" begin="reset.mouseover" end="reset.mouseout"/></use>
  </g>
</defs>
<script type="application/ecmascript">
var viewWidth = 1101;
var viewHeight = 551;
var sectionId = 'dynsection-5';
</script>
<script type="application/ecmascript" xlink:href="svg.min.js"/>
<svg id="graph" class="graph">
<g id="viewport">
<title>main</title>
<!-- Node1 -->
<g id="Node000001" class="node">
<title>Node1</title>
<g id="a_Node000001"><a xlink:title=" ">
<polygon fill="#999999" stroke="#666666" points="37,-324 0,-324 0,-304 37,-304 37,-324"/>
<text text-anchor="middle" x="18.5" y="-310.5" font-family="Helvetica,sans-Serif" font-size="10.00">main</text>
</a>
</g>
</g>
<!-- Node2 -->
<g id="Node000002" class="node">
<title>Node2</title>
<g id="a_Node000002"><a xlink:href="frame_8cpp.html#a5f43260949ee244d3ee66068eb1d7fc1" target="_top" xlink:title="Builds a Frame instance.">
<polygon fill="white" stroke="#666666" points="549.5,-476 485.5,-476 485.5,-456 549.5,-456 549.5,-476"/>
<text text-anchor="middle" x="517.5" y="-462.5" font-family="Helvetica,sans-Serif" font-size="10.00">buildFrame</text>
</a>
</g>
</g>
<!-- Node1&#45;&gt;Node2 -->
<g id="edge1_Node000001_Node000002" class="edge">
<title>Node1&#45;&gt;Node2</title>
<g id="a_edge1_Node000001_Node000002"><a xlink:title=" ">
<path fill="none" stroke="#63b8ff" d="M22.44,-324.29C28.53,-343.79 44.44,-386.22 73,-409 165.88,-483.06 211.69,-467.93 329.25,-485 371.25,-491.1 382.53,-489.33 424.75,-485 441.16,-483.32 458.96,-479.99 474.48,-476.58"/>
<polygon fill="#63b8ff" stroke="#63b8ff" points="474.88,-480.08 483.85,-474.44 473.32,-473.25 474.88,-480.08"/>
</a>
</g>
</g>
<!-- Node4 -->
<g id="Node000004" class="node">
<title>Node4</title>
<g id="a_Node000004"><a xlink:href="main_8cpp.html#a9f153132b8b4afad133b952111e18bd9" target="_top" xlink:title=" ">
<polygon fill="white" stroke="#666666" points="551,-115 484,-115 484,-95 551,-95 551,-115"/>
<text text-anchor="middle" x="517.5" y="-101.5" font-family="Helvetica,sans-Serif" font-size="10.00">core1_entry</text>
</a>
</g>
</g>
<!-- Node1&#45;&gt;Node4 -->
<g id="edge3_Node000001_Node000004" class="edge">
<title>Node1&#45;&gt;Node4</title>
<g id="a_edge3_Node000001_Node000004"><a xlink:title=" ">
<path fill="none" stroke="#63b8ff" d="M19.26,-303.71C19.2,-274.03 23.47,-187.88 73,-148 190.35,-53.52 385.83,-77.91 472.65,-94.98"/>
<polygon fill="#63b8ff" stroke="#63b8ff" points="471.68,-98.36 482.18,-96.93 473.08,-91.5 471.68,-98.36"/>
</a>
</g>
</g>
<!-- Node12 -->
<g id="Node000012" class="node">
<title>Node12</title>
<g id="a_Node000012"><a xlink:href="utils_8cpp.html#aacbcecbe6b5428e3571b06ab2104e706" target="_top" xlink:title="Prints a message to the UART with a timestamp and core number.">
<polygon fill="white" stroke="#666666" points="868.38,-267 815.62,-267 815.62,-247 868.38,-247 868.38,-267"/>
<text text-anchor="middle" x="842" y="-253.5" font-family="Helvetica,sans-Serif" font-size="10.00">uartPrint</text>
</a>
</g>
</g>
<!-- Node1&#45;&gt;Node12 -->
<g id="edge44_Node000001_Node000012" class="edge">
<title>Node1&#45;&gt;Node12</title>
<g id="a_edge44_Node000001_Node000012"><a xlink:title=" ">
<path fill="none" stroke="#63b8ff" d="M27.08,-303.55C52.97,-269.21 141.85,-162 242.62,-162 242.62,-162 242.62,-162 378,-162 539.9,-162 727.25,-218.43 804.67,-244.3"/>
<polygon fill="#63b8ff" stroke="#63b8ff" points="803.25,-247.52 813.84,-247.41 805.49,-240.89 803.25,-247.52"/>
</a>
</g>
</g>
<!-- Node15 -->
<g id="Node000015" class="node">
<title>Node15</title>
<g id="a_Node000015"><a xlink:href="receive_8cpp.html#ac5e175a6a1482f700f9aee0b727b924f" target="_top" xlink:title="Handles UART input.">
<polygon fill="white" stroke="#666666" points="158,-362 73,-362 73,-342 158,-342 158,-362"/>
<text text-anchor="middle" x="115.5" y="-348.5" font-family="Helvetica,sans-Serif" font-size="10.00">handleUartInput</text>
</a>
</g>
</g>
<!-- Node1&#45;&gt;Node15 -->
<g id="edge15_Node000001_Node000015" class="edge">
<title>Node1&#45;&gt;Node15</title>
<g id="a_edge15_Node000001_Node000015"><a xlink:title=" ">
<path fill="none" stroke="#63b8ff" d="M37.37,-321.15C48.85,-325.74 64.17,-331.87 78.13,-337.45"/>
<polygon fill="#63b8ff" stroke="#63b8ff" points="76.47,-340.56 87.05,-341.02 79.07,-334.06 76.47,-340.56"/>
</a>
</g>
</g>
<!-- Node18 -->
<g id="Node000018" class="node">
<title>Node18</title>
<g id="a_Node000018"><a xlink:href="send_8cpp.html#a752e7cc27f52d4ba064e691b3e240ed8" target="_top" xlink:title="Sends a Frame using LoRa.">
<polygon fill="white" stroke="#666666" points="549.88,-362 485.12,-362 485.12,-342 549.88,-342 549.88,-362"/>
<text text-anchor="middle" x="517.5" y="-348.5" font-family="Helvetica,sans-Serif" font-size="10.00">sendFrame</text>
</a>
</g>
</g>
<!-- Node1&#45;&gt;Node18 -->
<g id="edge43_Node000001_Node000018" class="edge">
<title>Node1&#45;&gt;Node18</title>
<g id="a_edge43_Node000001_Node000018"><a xlink:title=" ">
<path fill="none" stroke="#63b8ff" d="M37.48,-315.37C108.36,-320.79 369.61,-340.77 473.49,-348.71"/>
<polygon fill="#63b8ff" stroke="#63b8ff" points="473.04,-352.19 483.27,-349.46 473.57,-345.21 473.04,-352.19"/>
</a>
</g>
</g>
<!-- Node24 -->
<g id="Node000024" class="node">
<title>Node24</title>
<g id="a_Node000024"><a xlink:href="main_8cpp.html#a21af2d50d7779336997d5f3456352431" target="_top" xlink:title=" ">
<polygon fill="white" stroke="#666666" points="410.88,-286 343.12,-286 343.12,-266 410.88,-266 410.88,-286"/>
<text text-anchor="middle" x="377" y="-272.5" font-family="Helvetica,sans-Serif" font-size="10.00">initSystems</text>
</a>
</g>
</g>
<!-- Node1&#45;&gt;Node24 -->
<g id="edge31_Node000001_Node000024" class="edge">
<title>Node1&#45;&gt;Node24</title>
<g id="a_edge31_Node000001_Node000024"><a xlink:title=" ">
<path fill="none" stroke="#63b8ff" d="M37.16,-308.54C47.51,-305.55 60.88,-302.05 73,-300 164.22,-284.58 272.6,-279.02 331.86,-277.05"/>
<polygon fill="#63b8ff" stroke="#63b8ff" points="331.64,-280.56 341.52,-276.75 331.42,-273.57 331.64,-280.56"/>
</a>
</g>
</g>
<!-- Node27 -->
<g id="Node000027" class="node">
<title>Node27</title>
<g id="a_Node000027"><a xlink:href="receive_8cpp.html#a54817002e33761dc61558b1138749dfb" target="_top" xlink:title="Callback function for handling received LoRa packets.">
<polygon fill="white" stroke="#666666" points="146.75,-400 84.25,-400 84.25,-380 146.75,-380 146.75,-400"/>
<text text-anchor="middle" x="115.5" y="-386.5" font-family="Helvetica,sans-Serif" font-size="10.00">onReceive</text>
</a>
</g>
</g>
<!-- Node1&#45;&gt;Node27 -->
<g id="edge40_Node000001_Node000027" class="edge">
<title>Node1&#45;&gt;Node27</title>
<g id="a_edge40_Node000001_Node000027"><a xlink:title=" ">
<path fill="none" stroke="#63b8ff" d="M27.21,-324.42C36.82,-336.82 54.26,-357.53 73,-371 74.55,-372.11 76.17,-373.18 77.84,-374.21"/>
<polygon fill="#63b8ff" stroke="#63b8ff" points="75.96,-377.17 86.42,-378.89 79.31,-371.03 75.96,-377.17"/>
</a>
</g>
</g>
<!-- Node3 -->
<g id="Node000003" class="node">
<title>Node3</title>
<g id="a_Node000003"><a xlink:href="utils__converters_8cpp.html#ab4cb9e6b491bd7711c69c9167a2b9286" target="_top" xlink:title="Converts a ValueUnit to a string.">
<polygon fill="white" stroke="#666666" points="724.5,-476 610.25,-476 610.25,-456 724.5,-456 724.5,-476"/>
<text text-anchor="middle" x="667.38" y="-462.5" font-family="Helvetica,sans-Serif" font-size="10.00">valueUnitTypeToString</text>
</a>
</g>
</g>
<!-- Node2&#45;&gt;Node3 -->
<g id="edge2_Node000002_Node000003" class="edge">
<title>Node2&#45;&gt;Node3</title>
<g id="a_edge2_Node000002_Node000003"><a xlink:title=" ">
<path fill="none" stroke="#63b8ff" d="M549.86,-466C564.19,-466 581.75,-466 598.85,-466"/>
<polygon fill="#63b8ff" stroke="#63b8ff" points="598.47,-469.5 608.47,-466 598.47,-462.5 598.47,-469.5"/>
</a>
</g>
</g>
<!-- Node5 -->
<g id="Node000005" class="node">
<title>Node5</title>
<g id="a_Node000005"><a xlink:href="event__manager_8cpp.html#a467714d66058f52e4ac7aeb6df46b433" target="_top" xlink:title="Checks power statuses and triggers events based on voltage trends.">
<polygon fill="white" stroke="#666666" points="717.75,-96 617,-96 617,-76 717.75,-76 717.75,-96"/>
<text text-anchor="middle" x="667.38" y="-82.5" font-family="Helvetica,sans-Serif" font-size="10.00">checkPowerEvents</text>
</a>
</g>
</g>
<!-- Node4&#45;&gt;Node5 -->
<g id="edge4_Node000004_Node000005" class="edge">
<title>Node4&#45;&gt;Node5</title>
<g id="a_edge4_Node000004_Node000005"><a xlink:title=" ">
<path fill="none" stroke="#63b8ff" d="M551.32,-100.78C567.24,-98.74 586.9,-96.21 605.43,-93.83"/>
<polygon fill="#63b8ff" stroke="#63b8ff" points="605.81,-97.31 615.28,-92.57 604.92,-90.37 605.81,-97.31"/>
</a>
</g>
</g>
<!-- Node4&#45;&gt;Node12 -->
<g id="edge14_Node000004_Node000012" class="edge">
<title>Node4&#45;&gt;Node12</title>
<g id="a_edge14_Node000004_Node000012"><a xlink:title=" ">
<path fill="none" stroke="#63b8ff" d="M551.25,-104.9C593.71,-106.1 668.89,-112.81 724.5,-143 744.95,-154.1 744.04,-164.56 760.5,-181 780.81,-201.28 804.82,-223.76 821.3,-238.98"/>
<polygon fill="#63b8ff" stroke="#63b8ff" points="818.77,-241.4 828.5,-245.6 823.51,-236.25 818.77,-241.4"/>
</a>
</g>
</g>
<!-- Node13 -->
<g id="Node000013" class="node">
<title>Node13</title>
<g id="a_Node000013"><a xlink:href="gps__collector_8cpp.html#abe46d88c89b1f730f6c9a230acac2a6a" target="_top" xlink:title=" ">
<polygon fill="white" stroke="#666666" points="710.62,-39 624.12,-39 624.12,-19 710.62,-19 710.62,-39"/>
<text text-anchor="middle" x="667.38" y="-25.5" font-family="Helvetica,sans-Serif" font-size="10.00">collectGPSData</text>
</a>
</g>
</g>
<!-- Node4&#45;&gt;Node13 -->
<g id="edge12_Node000004_Node000013" class="edge">
<title>Node4&#45;&gt;Node13</title>
<g id="a_edge12_Node000004_Node000013"><a xlink:title=" ">
<path fill="none" stroke="#63b8ff" d="M538.75,-94.59C563.97,-81.63 607.27,-59.37 636.36,-44.43"/>
<polygon fill="#63b8ff" stroke="#63b8ff" points="637.73,-47.66 645.02,-39.97 634.53,-41.43 637.73,-47.66"/>
</a>
</g>
</g>
<!-- Node6 -->
<g id="Node000006" class="node">
<title>Node6</title>
<g id="a_Node000006"><a xlink:href="class_event_emitter.html#a539d733505f9a793439a9cfc4f2af079" target="_top" xlink:title="Emits an event.">
<polygon fill="white" stroke="#666666" points="890.88,-172 793.12,-172 793.12,-152 890.88,-152 890.88,-172"/>
<text text-anchor="middle" x="842" y="-158.5" font-family="Helvetica,sans-Serif" font-size="10.00">EventEmitter::emit</text>
</a>
</g>
</g>
<!-- Node5&#45;&gt;Node6 -->
<g id="edge5_Node000005_Node000006" class="edge">
<title>Node5&#45;&gt;Node6</title>
<g id="a_edge5_Node000005_Node000006"><a xlink:title=" ">
<path fill="none" stroke="#63b8ff" d="M697.88,-96.42C706.76,-100.13 716.31,-104.71 724.5,-110 742.74,-121.77 741.32,-132.85 760.5,-143 767.15,-146.52 774.45,-149.4 781.86,-151.74"/>
<polygon fill="#63b8ff" stroke="#63b8ff" points="780.69,-155.05 791.27,-154.41 782.6,-148.31 780.69,-155.05"/>
</a>
</g>
</g>
<!-- Node7 -->
<g id="Node000007" class="node">
<title>Node7</title>
<g id="a_Node000007"><a xlink:href="class_power_manager.html#ae0e4303ddaba328047fb40d8d925c7dd" target="_top" xlink:title=" ">
<polygon fill="white" stroke="#666666" points="914.5,-58 769.5,-58 769.5,-38 914.5,-38 914.5,-58"/>
<text text-anchor="middle" x="842" y="-44.5" font-family="Helvetica,sans-Serif" font-size="10.00">PowerManager::getVoltage5V</text>
</a>
</g>
</g>
<!-- Node5&#45;&gt;Node7 -->
<g id="edge6_Node000005_Node000007" class="edge">
<title>Node5&#45;&gt;Node7</title>
<g id="a_edge6_Node000005_Node000007"><a xlink:title=" ">
<path fill="none" stroke="#63b8ff" d="M716,-75.52C736.57,-70.99 760.83,-65.65 782.48,-60.88"/>
<polygon fill="#63b8ff" stroke="#63b8ff" points="783.04,-64.34 792.05,-58.78 781.53,-57.51 783.04,-64.34"/>
</a>
</g>
</g>
<!-- Node8 -->
<g id="Node000008" class="node">
<title>Node8</title>
<g id="a_Node000008"><a xlink:href="class_power_manager.html#a33ea0aaa75b4654b0ee05250119bf083" target="_top" xlink:title=" ">
<polygon fill="white" stroke="#666666" points="914.5,-134 769.5,-134 769.5,-114 914.5,-114 914.5,-134"/>
<text text-anchor="middle" x="842" y="-120.5" font-family="Helvetica,sans-Serif" font-size="10.00">PowerManager::isSolarActive</text>
</a>
</g>
</g>
<!-- Node5&#45;&gt;Node8 -->
<g id="edge7_Node000005_Node000008" class="edge">
<title>Node5&#45;&gt;Node8</title>
<g id="a_edge7_Node000005_Node000008"><a xlink:title=" ">
<path fill="none" stroke="#63b8ff" d="M716,-96.48C736.57,-101.01 760.83,-106.35 782.48,-111.12"/>
<polygon fill="#63b8ff" stroke="#63b8ff" points="781.53,-114.49 792.05,-113.22 783.04,-107.66 781.53,-114.49"/>
</a>
</g>
</g>
<!-- Node10 -->
<g id="Node000010" class="node">
<title>Node10</title>
<g id="a_Node000010"><a xlink:href="class_power_manager.html#a0548ae14a668bb06e4cc13e0295ad5c8" target="_top" xlink:title=" ">
<polygon fill="white" stroke="#666666" points="923.5,-96 760.5,-96 760.5,-76 923.5,-76 923.5,-96"/>
<text text-anchor="middle" x="842" y="-82.5" font-family="Helvetica,sans-Serif" font-size="10.00">PowerManager::isUSBConnected</text>
</a>
</g>
</g>
<!-- Node5&#45;&gt;Node10 -->
<g id="edge9_Node000005_Node000010" class="edge">
<title>Node5&#45;&gt;Node10</title>
<g id="a_edge9_Node000005_Node000010"><a xlink:title=" ">
<path fill="none" stroke="#63b8ff" d="M717.84,-86C727.68,-86 738.3,-86 749.03,-86"/>
<polygon fill="#63b8ff" stroke="#63b8ff" points="748.72,-89.5 758.72,-86 748.72,-82.5 748.72,-89.5"/>
</a>
</g>
</g>
<!-- Node5&#45;&gt;Node12 -->
<g id="edge11_Node000005_Node000012" class="edge">
<title>Node5&#45;&gt;Node12</title>
<g id="a_edge11_Node000005_Node000012"><a xlink:title=" ">
<path fill="none" stroke="#63b8ff" d="M703.29,-96.48C710.9,-99.91 718.47,-104.35 724.5,-110 750.32,-134.19 739.32,-152.66 760.5,-181 777.29,-203.47 801.11,-225.03 818.48,-239.4"/>
<polygon fill="#63b8ff" stroke="#63b8ff" points="816.23,-242.09 826.2,-245.66 820.63,-236.65 816.23,-242.09"/>
</a>
</g>
</g>
<!-- Node9 -->
<g id="Node000009" class="node">
<title>Node9</title>
<g id="a_Node000009"><a xlink:href="class_power_manager.html#a097734aac2bcc228d6cf22c00e3acb1a" target="_top" xlink:title=" ">
<polygon fill="white" stroke="#666666" points="1092.5,-146 959.5,-146 959.5,-114 1092.5,-114 1092.5,-146"/>
<text text-anchor="start" x="967.5" y="-132.5" font-family="Helvetica,sans-Serif" font-size="10.00">PowerManager::getCurrent</text>
<text text-anchor="middle" x="1026" y="-120.5" font-family="Helvetica,sans-Serif" font-size="10.00">ChargeSolar</text>
</a>
</g>
</g>
<!-- Node8&#45;&gt;Node9 -->
<g id="edge8_Node000008_Node000009" class="edge">
<title>Node8&#45;&gt;Node9</title>
<g id="a_edge8_Node000008_Node000009"><a xlink:title=" ">
<path fill="none" stroke="#63b8ff" d="M914.93,-126.37C925.77,-126.73 936.99,-127.1 947.93,-127.46"/>
<polygon fill="#63b8ff" stroke="#63b8ff" points="947.59,-130.95 957.7,-127.78 947.82,-123.95 947.59,-130.95"/>
</a>
</g>
</g>
<!-- Node11 -->
<g id="Node000011" class="node">
<title>Node11</title>
<g id="a_Node000011"><a xlink:href="class_power_manager.html#a3f9587ee81469642a2e595ef3805e801" target="_top" xlink:title=" ">
<polygon fill="white" stroke="#666666" points="1092.5,-96 959.5,-96 959.5,-64 1092.5,-64 1092.5,-96"/>
<text text-anchor="start" x="967.5" y="-82.5" font-family="Helvetica,sans-Serif" font-size="10.00">PowerManager::getCurrent</text>
<text text-anchor="middle" x="1026" y="-70.5" font-family="Helvetica,sans-Serif" font-size="10.00">ChargeUSB</text>
</a>
</g>
</g>
<!-- Node10&#45;&gt;Node11 -->
<g id="edge10_Node000010_Node000011" class="edge">
<title>Node10&#45;&gt;Node11</title>
<g id="a_edge10_Node000010_Node000011"><a xlink:title=" ">
<path fill="none" stroke="#63b8ff" d="M923.89,-83.33C931.8,-83.07 939.81,-82.81 947.68,-82.55"/>
<polygon fill="#63b8ff" stroke="#63b8ff" points="947.7,-86.05 957.58,-82.22 947.47,-79.05 947.7,-86.05"/>
</a>
</g>
</g>
<!-- Node14 -->
<g id="Node000014" class="node">
<title>Node14</title>
<g id="a_Node000014"><a xlink:href="gps__collector_8cpp.html#a0509cbb838eb47985372ff8889e507f5" target="_top" xlink:title=" ">
<polygon fill="white" stroke="#666666" points="871.75,-20 812.25,-20 812.25,0 871.75,0 871.75,-20"/>
<text text-anchor="middle" x="842" y="-6.5" font-family="Helvetica,sans-Serif" font-size="10.00">splitString</text>
</a>
</g>
</g>
<!-- Node13&#45;&gt;Node14 -->
<g id="edge13_Node000013_Node000014" class="edge">
<title>Node13&#45;&gt;Node14</title>
<g id="a_edge13_Node000013_Node000014"><a xlink:title=" ">
<path fill="none" stroke="#63b8ff" d="M711.05,-24.3C738.36,-21.3 773.57,-17.42 800.46,-14.46"/>
<polygon fill="#63b8ff" stroke="#63b8ff" points="800.73,-17.95 810.29,-13.38 799.97,-11 800.73,-17.95"/>
</a>
</g>
</g>
<!-- Node15&#45;&gt;Node12 -->
<g id="edge30_Node000015_Node000012" class="edge">
<title>Node15&#45;&gt;Node12</title>
<g id="a_edge30_Node000015_Node000012"><a xlink:title=" ">
<path fill="none" stroke="#63b8ff" d="M129.39,-341.68C165.79,-313.62 273.4,-238 376,-238 376,-238 376,-238 518.5,-238 622.35,-238 744.68,-247.94 804.44,-253.44"/>
<polygon fill="#63b8ff" stroke="#63b8ff" points="803.74,-256.89 814.02,-254.34 804.39,-249.92 803.74,-256.89"/>
</a>
</g>
</g>
<!-- Node16 -->
<g id="Node000016" class="node">
<title>Node16</title>
<g id="a_Node000016"><a xlink:href="frame_8cpp.html#a8b9407b2f579031cf4b705f1ac03ac31" target="_top" xlink:title="Executes a command based on the command key and the parameter.">
<polygon fill="white" stroke="#666666" points="293.25,-400 194,-400 194,-380 293.25,-380 293.25,-400"/>
<text text-anchor="middle" x="243.62" y="-386.5" font-family="Helvetica,sans-Serif" font-size="10.00">processFrameData</text>
</a>
</g>
</g>
<!-- Node15&#45;&gt;Node16 -->
<g id="edge16_Node000015_Node000016" class="edge">
<title>Node15&#45;&gt;Node16</title>
<g id="a_edge16_Node000015_Node000016"><a xlink:title=" ">
<path fill="none" stroke="#63b8ff" d="M151.3,-362.48C165.5,-366.76 182.11,-371.77 197.24,-376.33"/>
<polygon fill="#63b8ff" stroke="#63b8ff" points="195.91,-379.58 206.49,-379.11 197.93,-372.88 195.91,-379.58"/>
</a>
</g>
</g>
<!-- Node16&#45;&gt;Node2 -->
<g id="edge17_Node000016_Node000002" class="edge">
<title>Node16&#45;&gt;Node2</title>
<g id="a_edge17_Node000016_Node000002"><a xlink:title=" ">
<path fill="none" stroke="#63b8ff" d="M282.14,-400.49C332.49,-414.56 421.66,-439.49 474.3,-454.2"/>
<polygon fill="#63b8ff" stroke="#63b8ff" points="473.23,-457.54 483.81,-456.86 475.12,-450.8 473.23,-457.54"/>
</a>
</g>
</g>
<!-- Node17 -->
<g id="Node000017" class="node">
<title>Node17</title>
<g id="a_Node000017"><a xlink:href="frame_8cpp.html#a8f34bc31494430539db21206f084d39d" target="_top" xlink:title="Converts a string into a Frame instance.">
<polygon fill="white" stroke="#666666" points="414.62,-400 339.38,-400 339.38,-380 414.62,-380 414.62,-400"/>
<text text-anchor="middle" x="377" y="-386.5" font-family="Helvetica,sans-Serif" font-size="10.00">decodeFrame</text>
</a>
</g>
</g>
<!-- Node16&#45;&gt;Node17 -->
<g id="edge18_Node000016_Node000017" class="edge">
<title>Node16&#45;&gt;Node17</title>
<g id="a_edge18_Node000016_Node000017"><a xlink:title=" ">
<path fill="none" stroke="#63b8ff" d="M293.54,-390C304.7,-390 316.54,-390 327.67,-390"/>
<polygon fill="#63b8ff" stroke="#63b8ff" points="327.44,-393.5 337.44,-390 327.44,-386.5 327.44,-393.5"/>
</a>
</g>
</g>
<!-- Node16&#45;&gt;Node18 -->
<g id="edge29_Node000016_Node000018" class="edge">
<title>Node16&#45;&gt;Node18</title>
<g id="a_edge29_Node000016_Node000018"><a xlink:title=" ">
<path fill="none" stroke="#63b8ff" d="M286.62,-379.53C300.16,-376.43 315.28,-373.27 329.25,-371 378.5,-363 435.62,-357.79 473.7,-354.88"/>
<polygon fill="#63b8ff" stroke="#63b8ff" points="473.65,-358.39 483.37,-354.16 473.13,-351.41 473.65,-358.39"/>
</a>
</g>
</g>
<!-- Node23 -->
<g id="Node000023" class="node">
<title>Node23</title>
<g id="a_Node000023"><a xlink:href="group___command_system.html#ga1907d400d2c8d8d054ba95bcf43276ea" target="_top" xlink:title="Executes a command based on its key.">
<polygon fill="white" stroke="#666666" points="424.75,-476 329.25,-476 329.25,-456 424.75,-456 424.75,-476"/>
<text text-anchor="middle" x="377" y="-462.5" font-family="Helvetica,sans-Serif" font-size="10.00">executeCommand</text>
</a>
</g>
</g>
<!-- Node16&#45;&gt;Node23 -->
<g id="edge27_Node000016_Node000023" class="edge">
<title>Node16&#45;&gt;Node23</title>
<g id="a_edge27_Node000016_Node000023"><a xlink:title=" ">
<path fill="none" stroke="#63b8ff" d="M260.63,-400.34C277.48,-411.11 304.91,-428.3 329.25,-442 334.29,-444.84 339.7,-447.74 344.98,-450.5"/>
<polygon fill="#63b8ff" stroke="#63b8ff" points="343.03,-453.43 353.53,-454.89 346.23,-447.21 343.03,-453.43"/>
</a>
</g>
</g>
<!-- Node17&#45;&gt;Node2 -->
<g id="edge19_Node000017_Node000002" class="edge">
<title>Node17&#45;&gt;Node2</title>
<g id="a_edge19_Node000017_Node000002"><a xlink:title=" ">
<path fill="none" stroke="#63b8ff" d="M401.06,-400.3C408.84,-404.18 417.41,-408.89 424.75,-414 442.56,-426.4 442.08,-435.93 460.75,-447 465.07,-449.56 469.79,-451.84 474.59,-453.85"/>
<polygon fill="#63b8ff" stroke="#63b8ff" points="473.11,-457.03 483.7,-457.29 475.58,-450.48 473.11,-457.03"/>
</a>
</g>
</g>
<!-- Node17&#45;&gt;Node12 -->
<g id="edge26_Node000017_Node000012" class="edge">
<title>Node17&#45;&gt;Node12</title>
<g id="a_edge26_Node000017_Node000012"><a xlink:title=" ">
<path fill="none" stroke="#63b8ff" d="M415.04,-394.08C498.73,-403 697.32,-422.41 724.5,-409 739.14,-401.77 799.91,-316.13 827.4,-276.68"/>
<polygon fill="#63b8ff" stroke="#63b8ff" points="830.22,-278.75 833.05,-268.54 824.47,-274.76 830.22,-278.75"/>
</a>
</g>
</g>
<!-- Node17&#45;&gt;Node18 -->
<g id="edge20_Node000017_Node000018" class="edge">
<title>Node17&#45;&gt;Node18</title>
<g id="a_edge20_Node000017_Node000018"><a xlink:title=" ">
<path fill="none" stroke="#63b8ff" d="M415.12,-379.82C433.25,-374.84 455.16,-368.83 473.97,-363.67"/>
<polygon fill="#63b8ff" stroke="#63b8ff" points="474.74,-367.09 483.46,-361.06 472.89,-360.34 474.74,-367.09"/>
</a>
</g>
</g>
<!-- Node22 -->
<g id="Node000022" class="node">
<title>Node22</title>
<g id="a_Node000022"><a xlink:href="utils__converters_8cpp.html#a245c34d9f7072236b66e9352a9d3466e" target="_top" xlink:title="Converts a string to an OperationType.">
<polygon fill="white" stroke="#666666" points="574.25,-438 460.75,-438 460.75,-418 574.25,-418 574.25,-438"/>
<text text-anchor="middle" x="517.5" y="-424.5" font-family="Helvetica,sans-Serif" font-size="10.00">stringToOperationType</text>
</a>
</g>
</g>
<!-- Node17&#45;&gt;Node22 -->
<g id="edge25_Node000017_Node000022" class="edge">
<title>Node17&#45;&gt;Node22</title>
<g id="a_edge25_Node000017_Node000022"><a xlink:title=" ">
<path fill="none" stroke="#63b8ff" d="M415.12,-400.18C431.15,-404.58 450.15,-409.79 467.33,-414.51"/>
<polygon fill="#63b8ff" stroke="#63b8ff" points="466.29,-417.85 476.86,-417.12 468.14,-411.1 466.29,-417.85"/>
</a>
</g>
</g>
<!-- Node19 -->
<g id="Node000019" class="node">
<title>Node19</title>
<g id="a_Node000019"><a xlink:href="frame_8cpp.html#ab53898fb6f45dfc657837a665a070959" target="_top" xlink:title="Encodes a Frame instance into a string.">
<polygon fill="white" stroke="#666666" points="705,-400 629.75,-400 629.75,-380 705,-380 705,-400"/>
<text text-anchor="middle" x="667.38" y="-386.5" font-family="Helvetica,sans-Serif" font-size="10.00">encodeFrame</text>
</a>
</g>
</g>
<!-- Node18&#45;&gt;Node19 -->
<g id="edge21_Node000018_Node000019" class="edge">
<title>Node18&#45;&gt;Node19</title>
<g id="a_edge21_Node000018_Node000019"><a xlink:title=" ">
<path fill="none" stroke="#63b8ff" d="M550.22,-360.15C570.11,-365.26 596.14,-371.95 618.51,-377.7"/>
<polygon fill="#63b8ff" stroke="#63b8ff" points="617.47,-381.05 628.02,-380.14 619.21,-374.27 617.47,-381.05"/>
</a>
</g>
</g>
<!-- Node21 -->
<g id="Node000021" class="node">
<title>Node21</title>
<g id="a_Node000021"><a xlink:href="send_8cpp.html#adcc720dc971ce8b237b26df434b65bb2" target="_top" xlink:title="Sends a message using LoRa.">
<polygon fill="white" stroke="#666666" points="705.75,-362 629,-362 629,-342 705.75,-342 705.75,-362"/>
<text text-anchor="middle" x="667.38" y="-348.5" font-family="Helvetica,sans-Serif" font-size="10.00">sendMessage</text>
</a>
</g>
</g>
<!-- Node18&#45;&gt;Node21 -->
<g id="edge23_Node000018_Node000021" class="edge">
<title>Node18&#45;&gt;Node21</title>
<g id="a_edge23_Node000018_Node000021"><a xlink:title=" ">
<path fill="none" stroke="#63b8ff" d="M550.22,-352C569.81,-352 595.33,-352 617.47,-352"/>
<polygon fill="#63b8ff" stroke="#63b8ff" points="617.17,-355.5 627.17,-352 617.17,-348.5 617.17,-355.5"/>
</a>
</g>
</g>
<!-- Node20 -->
<g id="Node000020" class="node">
<title>Node20</title>
<g id="a_Node000020"><a xlink:href="utils__converters_8cpp.html#a82a11ce999902359454fa904a13ae297" target="_top" xlink:title="Converts an OperationType to a string.">
<polygon fill="white" stroke="#666666" points="898.38,-400 785.62,-400 785.62,-380 898.38,-380 898.38,-400"/>
<text text-anchor="middle" x="842" y="-386.5" font-family="Helvetica,sans-Serif" font-size="10.00">operationTypeToString</text>
</a>
</g>
</g>
<!-- Node19&#45;&gt;Node20 -->
<g id="edge22_Node000019_Node000020" class="edge">
<title>Node19&#45;&gt;Node20</title>
<g id="a_edge22_Node000019_Node000020"><a xlink:title=" ">
<path fill="none" stroke="#63b8ff" d="M705.41,-390C725.41,-390 750.73,-390 774.06,-390"/>
<polygon fill="#63b8ff" stroke="#63b8ff" points="773.81,-393.5 783.81,-390 773.81,-386.5 773.81,-393.5"/>
</a>
</g>
</g>
<!-- Node21&#45;&gt;Node12 -->
<g id="edge24_Node000021_Node000012" class="edge">
<title>Node21&#45;&gt;Node12</title>
<g id="a_edge24_Node000021_Node000012"><a xlink:title=" ">
<path fill="none" stroke="#63b8ff" d="M695,-341.53C704.45,-337.58 715.08,-332.85 724.5,-328 757.15,-311.18 792.99,-288.69 816.17,-273.57"/>
<polygon fill="#63b8ff" stroke="#63b8ff" points="817.89,-276.63 824.32,-268.21 814.04,-270.78 817.89,-276.63"/>
</a>
</g>
</g>
<!-- Node23&#45;&gt;Node2 -->
<g id="edge28_Node000023_Node000002" class="edge">
<title>Node23&#45;&gt;Node2</title>
<g id="a_edge28_Node000023_Node000002"><a xlink:title=" ">
<path fill="none" stroke="#63b8ff" d="M424.89,-466C440.77,-466 458.42,-466 473.94,-466"/>
<polygon fill="#63b8ff" stroke="#63b8ff" points="473.83,-469.5 483.83,-466 473.83,-462.5 473.83,-469.5"/>
</a>
</g>
</g>
<!-- Node24&#45;&gt;Node2 -->
<g id="edge32_Node000024_Node000002" class="edge">
<title>Node24&#45;&gt;Node2</title>
<g id="a_edge32_Node000024_Node000002"><a xlink:title=" ">
<path fill="none" stroke="#63b8ff" d="M383.1,-286.24C391.75,-303.62 409.8,-340.05 424.75,-371 441,-404.66 432.86,-422.12 460.75,-447 464.83,-450.64 469.63,-453.58 474.68,-455.97"/>
<polygon fill="#63b8ff" stroke="#63b8ff" points="473.24,-459.17 483.83,-459.57 475.81,-452.65 473.24,-459.17"/>
</a>
</g>
</g>
<!-- Node24&#45;&gt;Node12 -->
<g id="edge39_Node000024_Node000012" class="edge">
<title>Node24&#45;&gt;Node12</title>
<g id="a_edge39_Node000024_Node000012"><a xlink:title=" ">
<path fill="none" stroke="#63b8ff" d="M411.12,-285.41C426.14,-289.2 444.2,-293.12 460.75,-295 586.63,-309.27 736.28,-281.11 804.21,-265.88"/>
<polygon fill="#63b8ff" stroke="#63b8ff" points="804.71,-269.35 813.68,-263.71 803.15,-262.53 804.71,-269.35"/>
</a>
</g>
</g>
<!-- Node24&#45;&gt;Node18 -->
<g id="edge38_Node000024_Node000018" class="edge">
<title>Node24&#45;&gt;Node18</title>
<g id="a_edge38_Node000024_Node000018"><a xlink:title=" ">
<path fill="none" stroke="#63b8ff" d="M400.35,-286.41C408.24,-290.36 417.06,-295.09 424.75,-300 441.84,-310.9 443.3,-317.69 460.75,-328 466.14,-331.18 472.02,-334.18 477.89,-336.91"/>
<polygon fill="#63b8ff" stroke="#63b8ff" points="476.36,-340.06 486.93,-340.89 479.19,-333.66 476.36,-340.06"/>
</a>
</g>
</g>
<!-- Node25 -->
<g id="Node000025" class="node">
<title>Node25</title>
<g id="a_Node000025"><a xlink:href="storage_8cpp.html#afb19e37469a751aa61de3dcd0c70b4b0" target="_top" xlink:title="Initializes the file system on the SD card.">
<polygon fill="white" stroke="#666666" points="538.62,-286 496.38,-286 496.38,-266 538.62,-266 538.62,-286"/>
<text text-anchor="middle" x="517.5" y="-272.5" font-family="Helvetica,sans-Serif" font-size="10.00">fs_init</text>
</a>
</g>
</g>
<!-- Node24&#45;&gt;Node25 -->
<g id="edge33_Node000024_Node000025" class="edge">
<title>Node24&#45;&gt;Node25</title>
<g id="a_edge33_Node000024_Node000025"><a xlink:title=" ">
<path fill="none" stroke="#63b8ff" d="M411.17,-276C433.46,-276 462.65,-276 484.65,-276"/>
<polygon fill="#63b8ff" stroke="#63b8ff" points="484.53,-279.5 494.53,-276 484.53,-272.5 484.53,-279.5"/>
</a>
</g>
</g>
<!-- Node26 -->
<g id="Node000026" class="node">
<title>Node26</title>
<g id="a_Node000026"><a xlink:href="communication_8cpp.html#a520df448c1dc359f42111ac240081975" target="_top" xlink:title="Initializes the LoRa radio module.">
<polygon fill="white" stroke="#666666" points="705.75,-172 629,-172 629,-152 705.75,-152 705.75,-172"/>
<text text-anchor="middle" x="667.38" y="-158.5" font-family="Helvetica,sans-Serif" font-size="10.00">initializeRadio</text>
</a>
</g>
</g>
<!-- Node24&#45;&gt;Node26 -->
<g id="edge35_Node000024_Node000026" class="edge">
<title>Node24&#45;&gt;Node26</title>
<g id="a_edge35_Node000024_Node000026"><a xlink:title=" ">
<path fill="none" stroke="#63b8ff" d="M404.36,-265.58C455.95,-245.18 570.39,-199.94 629.48,-176.58"/>
<polygon fill="#63b8ff" stroke="#63b8ff" points="630.76,-179.84 638.78,-172.91 628.19,-173.33 630.76,-179.84"/>
</a>
</g>
</g>
<!-- Node25&#45;&gt;Node12 -->
<g id="edge34_Node000025_Node000012" class="edge">
<title>Node25&#45;&gt;Node12</title>
<g id="a_edge34_Node000025_Node000012"><a xlink:title=" ">
<path fill="none" stroke="#63b8ff" d="M538.67,-274.81C591.62,-271.69 735.17,-263.24 803.66,-259.2"/>
<polygon fill="#63b8ff" stroke="#63b8ff" points="803.86,-262.69 813.64,-258.61 803.45,-255.71 803.86,-262.69"/>
</a>
</g>
</g>
<!-- Node26&#45;&gt;Node6 -->
<g id="edge36_Node000026_Node000006" class="edge">
<title>Node26&#45;&gt;Node6</title>
<g id="a_edge36_Node000026_Node000006"><a xlink:title=" ">
<path fill="none" stroke="#63b8ff" d="M705.83,-162C727.93,-162 756.4,-162 781.51,-162"/>
<polygon fill="#63b8ff" stroke="#63b8ff" points="781.26,-165.5 791.26,-162 781.26,-158.5 781.26,-165.5"/>
</a>
</g>
</g>
<!-- Node26&#45;&gt;Node12 -->
<g id="edge37_Node000026_Node000012" class="edge">
<title>Node26&#45;&gt;Node12</title>
<g id="a_edge37_Node000026_Node000012"><a xlink:title=" ">
<path fill="none" stroke="#63b8ff" d="M695,-172.47C704.45,-176.42 715.08,-181.15 724.5,-186 757.15,-202.82 792.99,-225.31 816.17,-240.43"/>
<polygon fill="#63b8ff" stroke="#63b8ff" points="814.04,-243.22 824.32,-245.79 817.89,-237.37 814.04,-243.22"/>
</a>
</g>
</g>
<!-- Node27&#45;&gt;Node12 -->
<g id="edge42_Node000027_Node000012" class="edge">
<title>Node27&#45;&gt;Node12</title>
<g id="a_edge42_Node000027_Node000012"><a xlink:title=" ">
<path fill="none" stroke="#63b8ff" d="M125.7,-400.45C157.01,-434.79 263.74,-542 376,-542 376,-542 376,-542 518.5,-542 613.5,-542 656.13,-550.95 724.5,-485 762.74,-448.11 736.89,-418.6 760.5,-371 778.41,-334.89 807.04,-297.56 824.89,-275.85"/>
<polygon fill="#63b8ff" stroke="#63b8ff" points="827.35,-278.38 831.07,-268.46 821.97,-273.89 827.35,-278.38"/>
</a>
</g>
</g>
<!-- Node27&#45;&gt;Node16 -->
<g id="edge41_Node000027_Node000016" class="edge">
<title>Node27&#45;&gt;Node16</title>
<g id="a_edge41_Node000027_Node000016"><a xlink:title=" ">
<path fill="none" stroke="#63b8ff" d="M147.03,-390C157.75,-390 170.19,-390 182.49,-390"/>
<polygon fill="#63b8ff" stroke="#63b8ff" points="182.17,-393.5 192.17,-390 182.17,-386.5 182.17,-393.5"/>
</a>
</g>
</g>
</g>
</svg>

<g id="navigator" transform="translate(0 0)" fill="#404254">
  <rect fill="#f2f5e9" fill-opacity="0.5" stroke="#606060" stroke-width=".5" x="0" y="0" width="60" height="60"/>
  <use id="zoomplus" xlink:href="#zoomPlus" x="17" y="9" onmousedown="handleZoom(evt,'in')"/>
  <use id="zoomminus" xlink:href="#zoomMin" x="42" y="9" onmousedown="handleZoom(evt,'out')"/>
  <use id="reset" xlink:href="#resetDef" x="30" y="36" onmousedown="handleReset()"/>
   <use id="arrowup" xlink:href="#arrowUp" x="0" y="0" onmousedown="handlePan(0,-1)"/>
  <use id="arrowright" xlink:href="#arrowRight" x="0" y="0" onmousedown="handlePan(1,0)"/>
  <use id="arrowdown" xlink:href="#arrowDown" x="0" y="0" onmousedown="handlePan(0,1)"/>
  <use id="arrowleft" xlink:href="#arrowLeft" x="0" y="0" onmousedown="handlePan(-1,0)"/>
</g>
<svg viewBox="0 0 15 15" width="100%" height="30px" preserveAspectRatio="xMaxYMin meet">
 <g id="arrow_out" transform="scale(0.3 0.3)">
  <a xlink:href="main_8cpp_ae66f6b31b5ad750f1fe042a706a4e3d4_cgraph_org.svg" target="_base">
   <rect id="button" ry="5" rx="5" y="6" x="6" height="38" width="38"
        fill="#f2f5e9" fill-opacity="0.5" stroke="#606060" stroke-width="1.0"/>
   <path id="arrow"
     d="M 11.500037,31.436501 C 11.940474,20.09759 22.043105,11.32322 32.158766,21.979434 L 37.068811,17.246167 C 37.068811,17.246167 37.088388,32 37.088388,32 L 22.160133,31.978069 C 22.160133,31.978069 26.997745,27.140456 26.997745,27.140456 C 18.528582,18.264221 13.291696,25.230495 11.500037,31.436501 z"
     style="fill:#404040;"/>
  </a>
 </g>
</svg>

<style type='text/css'>
<![CDATA[
[data-mouse-over-selected='false'] { opacity: 0.7; }
[data-mouse-over-selected='true']  { opacity: 1.0; }
]]>
</style>
<script type="application/ecmascript"><![CDATA[
document.addEventListener('DOMContentLoaded', (event) => {
  highlightEdges();
  highlightAdjacentNodes();
});
]]></script>
</svg>
