<?xml version="1.0" encoding="UTF-8" standalone="no"?>
<!DOCTYPE svg PUBLIC "-//W3C//DTD SVG 1.1//EN"
 "http://www.w3.org/Graphics/SVG/1.1/DTD/svg11.dtd">
<!-- Generated by graphviz version 12.2.1 (20241206.2353)
 -->
<!-- Title: main Pages: 1 -->
<svg width="1093pt" height="562pt"
 viewBox="0.00 0.00 1093.00 562.00" xmlns="http://www.w3.org/2000/svg" xmlns:xlink="http://www.w3.org/1999/xlink">
<g id="graph0" class="graph" transform="scale(1 1) rotate(0) translate(4 558)">
<title>main</title>
<!-- Node1 -->
<g id="Node000001" class="node">
<title>Node1</title>
<g id="a_Node000001"><a xlink:title=" ">
<polygon fill="#999999" stroke="#666666" points="37,-305 0,-305 0,-285 37,-285 37,-305"/>
<text text-anchor="middle" x="18.5" y="-291.5" font-family="Helvetica,sans-Serif" font-size="10.00">main</text>
</a>
</g>
</g>
<!-- Node2 -->
<g id="Node000002" class="node">
<title>Node2</title>
<g id="a_Node000002"><a xlink:href="main_8cpp.html#a9f153132b8b4afad133b952111e18bd9" target="_top" xlink:title=" ">
<polygon fill="white" stroke="#666666" points="547.25,-466 480.25,-466 480.25,-446 547.25,-446 547.25,-466"/>
<text text-anchor="middle" x="513.75" y="-452.5" font-family="Helvetica,sans-Serif" font-size="10.00">core1_entry</text>
</a>
</g>
</g>
<!-- Node1&#45;&gt;Node2 -->
<g id="edge1_Node000001_Node000002" class="edge">
<title>Node1&#45;&gt;Node2</title>
<g id="a_edge1_Node000001_Node000002"><a xlink:title=" ">
<path fill="none" stroke="#63b8ff" d="M21.18,-305.2C25.43,-327.34 38.76,-379.76 73,-404 194.35,-489.92 383.33,-475.7 468.5,-463.6"/>
<polygon fill="#63b8ff" stroke="#63b8ff" points="468.93,-467.08 478.31,-462.15 467.9,-460.15 468.93,-467.08"/>
</a>
</g>
</g>
<!-- Node10 -->
<g id="Node000010" class="node">
<title>Node10</title>
<g id="a_Node000010"><a xlink:href="utils_8cpp.html#acd86977d05fa330749958ace0f2798de" target="_top" xlink:title="Prints a message to the UART with a timestamp and core number.">
<polygon fill="white" stroke="#666666" points="862.38,-305 805.88,-305 805.88,-285 862.38,-285 862.38,-305"/>
<text text-anchor="middle" x="834.12" y="-291.5" font-family="Helvetica,sans-Serif" font-size="10.00">uart_print</text>
</a>
</g>
</g>
<!-- Node1&#45;&gt;Node10 -->
<g id="edge44_Node000001_Node000010" class="edge">
<title>Node1&#45;&gt;Node10</title>
<g id="a_edge44_Node000001_Node000010"><a xlink:title=" ">
<path fill="none" stroke="#63b8ff" d="M32.62,-305.17C65.61,-329.67 155.47,-390 240.75,-390 240.75,-390 240.75,-390 514.75,-390 606.03,-390 634.66,-405.31 719.25,-371 738.29,-363.28 738.42,-353.78 755.25,-342 771.12,-330.89 789.67,-319.64 804.68,-310.93"/>
<polygon fill="#63b8ff" stroke="#63b8ff" points="806.18,-314.1 813.12,-306.09 802.7,-308.03 806.18,-314.1"/>
</a>
</g>
</g>
<!-- Node13 -->
<g id="Node000013" class="node">
<title>Node13</title>
<g id="a_Node000013"><a xlink:href="frame_8cpp.html#a29170691faa10727d607a73861cacbeb" target="_top" xlink:title="Builds a Frame instance.">
<polygon fill="white" stroke="#666666" points="546.88,-210 480.62,-210 480.62,-190 546.88,-190 546.88,-210"/>
<text text-anchor="middle" x="513.75" y="-196.5" font-family="Helvetica,sans-Serif" font-size="10.00">frame_build</text>
</a>
</g>
</g>
<!-- Node1&#45;&gt;Node13 -->
<g id="edge13_Node000001_Node000013" class="edge">
<title>Node1&#45;&gt;Node13</title>
<g id="a_edge13_Node000001_Node000013"><a xlink:title=" ">
<path fill="none" stroke="#63b8ff" d="M37.1,-287.9C47.42,-283.95 60.8,-279.2 73,-276 215.87,-238.58 389.8,-214.75 469.31,-205.02"/>
<polygon fill="#63b8ff" stroke="#63b8ff" points="469.34,-208.54 478.84,-203.86 468.5,-201.59 469.34,-208.54"/>
</a>
</g>
</g>
<!-- Node15 -->
<g id="Node000015" class="node">
<title>Node15</title>
<g id="a_Node000015"><a xlink:href="receive_8cpp.html#a14ffba44d46e00b23bd72bdb3a4d58d1" target="_top" xlink:title="Handles UART input.">
<polygon fill="white" stroke="#666666" points="165.5,-305 73,-305 73,-285 165.5,-285 165.5,-305"/>
<text text-anchor="middle" x="119.25" y="-291.5" font-family="Helvetica,sans-Serif" font-size="10.00">handle_uart_input</text>
</a>
</g>
</g>
<!-- Node1&#45;&gt;Node15 -->
<g id="edge15_Node000001_Node000015" class="edge">
<title>Node1&#45;&gt;Node15</title>
<g id="a_edge15_Node000001_Node000015"><a xlink:title=" ">
<path fill="none" stroke="#63b8ff" d="M37.15,-295C44.18,-295 52.68,-295 61.51,-295"/>
<polygon fill="#63b8ff" stroke="#63b8ff" points="61.26,-298.5 71.26,-295 61.26,-291.5 61.26,-298.5"/>
</a>
</g>
</g>
<!-- Node19 -->
<g id="Node000019" class="node">
<title>Node19</title>
<g id="a_Node000019"><a xlink:href="send_8cpp.html#ae6c6f3b673e7e83306da7ea2458d3241" target="_top" xlink:title="Sends a Frame using LoRa.">
<polygon fill="white" stroke="#666666" points="547.25,-96 480.25,-96 480.25,-76 547.25,-76 547.25,-96"/>
<text text-anchor="middle" x="513.75" y="-82.5" font-family="Helvetica,sans-Serif" font-size="10.00">send_frame</text>
</a>
</g>
</g>
<!-- Node1&#45;&gt;Node19 -->
<g id="edge43_Node000001_Node000019" class="edge">
<title>Node1&#45;&gt;Node19</title>
<g id="a_edge43_Node000001_Node000019"><a xlink:title=" ">
<path fill="none" stroke="#63b8ff" d="M19.93,-284.72C21.65,-257.33 30.24,-182.05 73,-143 183.98,-41.64 381.45,-61.73 468.94,-76.98"/>
<polygon fill="#63b8ff" stroke="#63b8ff" points="468.09,-80.38 478.55,-78.72 469.34,-73.49 468.09,-80.38"/>
</a>
</g>
</g>
<!-- Node24 -->
<g id="Node000024" class="node">
<title>Node24</title>
<g id="a_Node000024"><a xlink:href="main_8cpp.html#a8fa5379b5bec497b881cec19f2b38779" target="_top" xlink:title=" ">
<polygon fill="white" stroke="#666666" points="403,-286 331.5,-286 331.5,-266 403,-266 403,-286"/>
<text text-anchor="middle" x="367.25" y="-272.5" font-family="Helvetica,sans-Serif" font-size="10.00">init_systems</text>
</a>
</g>
</g>
<!-- Node1&#45;&gt;Node24 -->
<g id="edge31_Node000001_Node000024" class="edge">
<title>Node1&#45;&gt;Node24</title>
<g id="a_edge31_Node000001_Node000024"><a xlink:title=" ">
<path fill="none" stroke="#63b8ff" d="M37.41,-303.09C47.61,-307.26 60.76,-311.89 73,-314 161.46,-329.24 265.88,-305.94 323.19,-289.63"/>
<polygon fill="#63b8ff" stroke="#63b8ff" points="323.93,-293.06 332.55,-286.9 321.97,-286.34 323.93,-293.06"/>
</a>
</g>
</g>
<!-- Node27 -->
<g id="Node000027" class="node">
<title>Node27</title>
<g id="a_Node000027"><a xlink:href="receive_8cpp.html#a3f494105dee3a08e1244febc81982517" target="_top" xlink:title="Callback function for handling received LoRa packets.">
<polygon fill="white" stroke="#666666" points="150.88,-172 87.62,-172 87.62,-152 150.88,-152 150.88,-172"/>
<text text-anchor="middle" x="119.25" y="-158.5" font-family="Helvetica,sans-Serif" font-size="10.00">on_receive</text>
</a>
</g>
</g>
<!-- Node1&#45;&gt;Node27 -->
<g id="edge40_Node000001_Node000027" class="edge">
<title>Node1&#45;&gt;Node27</title>
<g id="a_edge40_Node000001_Node000027"><a xlink:title=" ">
<path fill="none" stroke="#63b8ff" d="M27.25,-284.56C43.76,-262.32 82.64,-209.97 103.84,-181.41"/>
<polygon fill="#63b8ff" stroke="#63b8ff" points="106.48,-183.72 109.63,-173.6 100.86,-179.55 106.48,-183.72"/>
</a>
</g>
</g>
<!-- Node3 -->
<g id="Node000003" class="node">
<title>Node3</title>
<g id="a_Node000003"><a xlink:href="event__manager_8cpp.html#a3a1b3fdef7c62da5c917d3006cdc65dd" target="_top" xlink:title="Checks power statuses and triggers events based on voltage trends.">
<polygon fill="white" stroke="#666666" points="719.25,-476 611,-476 611,-456 719.25,-456 719.25,-476"/>
<text text-anchor="middle" x="665.12" y="-462.5" font-family="Helvetica,sans-Serif" font-size="10.00">check_power_events</text>
</a>
</g>
</g>
<!-- Node2&#45;&gt;Node3 -->
<g id="edge2_Node000002_Node000003" class="edge">
<title>Node2&#45;&gt;Node3</title>
<g id="a_edge2_Node000002_Node000003"><a xlink:title=" ">
<path fill="none" stroke="#63b8ff" d="M547.53,-458.19C562.75,-459.21 581.4,-460.46 599.28,-461.66"/>
<polygon fill="#63b8ff" stroke="#63b8ff" points="598.86,-465.14 609.07,-462.31 599.33,-458.15 598.86,-465.14"/>
</a>
</g>
</g>
<!-- Node2&#45;&gt;Node10 -->
<g id="edge12_Node000002_Node000010" class="edge">
<title>Node2&#45;&gt;Node10</title>
<g id="a_edge12_Node000002_Node000010"><a xlink:title=" ">
<path fill="none" stroke="#63b8ff" d="M547.39,-450.86C597.97,-442.39 692.28,-424.37 719.25,-404 744.68,-384.8 732.91,-364.72 755.25,-342 767.84,-329.19 784.62,-318.49 799.38,-310.54"/>
<polygon fill="#63b8ff" stroke="#63b8ff" points="800.56,-313.87 807.85,-306.19 797.35,-307.65 800.56,-313.87"/>
</a>
</g>
</g>
<!-- Node11 -->
<g id="Node000011" class="node">
<title>Node11</title>
<g id="a_Node000011"><a xlink:href="gps__collector_8cpp.html#ab15765c10e67396e1684c586b3f65345" target="_top" xlink:title=" ">
<polygon fill="white" stroke="#666666" points="709.88,-529 620.38,-529 620.38,-509 709.88,-509 709.88,-529"/>
<text text-anchor="middle" x="665.12" y="-515.5" font-family="Helvetica,sans-Serif" font-size="10.00">collect_gps_data</text>
</a>
</g>
</g>
<!-- Node2&#45;&gt;Node11 -->
<g id="edge10_Node000002_Node000011" class="edge">
<title>Node2&#45;&gt;Node11</title>
<g id="a_edge10_Node000002_Node000011"><a xlink:title=" ">
<path fill="none" stroke="#63b8ff" d="M539.42,-466.4C563.85,-476.71 601.5,-492.59 629.04,-504.2"/>
<polygon fill="#63b8ff" stroke="#63b8ff" points="627.45,-507.33 638.03,-507.99 630.17,-500.88 627.45,-507.33"/>
</a>
</g>
</g>
<!-- Node4 -->
<g id="Node000004" class="node">
<title>Node4</title>
<g id="a_Node000004"><a xlink:href="class_event_emitter.html#a539d733505f9a793439a9cfc4f2af079" target="_top" xlink:title="Emits an event.">
<polygon fill="white" stroke="#666666" points="883,-371 785.25,-371 785.25,-351 883,-351 883,-371"/>
<text text-anchor="middle" x="834.12" y="-357.5" font-family="Helvetica,sans-Serif" font-size="10.00">EventEmitter::emit</text>
</a>
</g>
</g>
<!-- Node3&#45;&gt;Node4 -->
<g id="edge3_Node000003_Node000004" class="edge">
<title>Node3&#45;&gt;Node4</title>
<g id="a_edge3_Node000003_Node000004"><a xlink:title=" ">
<path fill="none" stroke="#63b8ff" d="M695.57,-455.51C703.66,-451.9 712.15,-447.38 719.25,-442 739.11,-426.93 735.62,-414.36 755.25,-399 767.03,-389.78 781.41,-381.99 794.58,-375.91"/>
<polygon fill="#63b8ff" stroke="#63b8ff" points="795.7,-379.25 803.44,-372.02 792.88,-372.84 795.7,-379.25"/>
</a>
</g>
</g>
<!-- Node5 -->
<g id="Node000005" class="node">
<title>Node5</title>
<g id="a_Node000005"><a xlink:href="class_power_manager.html#a746a5447e25915240923157db1c6faf6" target="_top" xlink:title=" ">
<polygon fill="white" stroke="#666666" points="910.75,-428 757.5,-428 757.5,-408 910.75,-408 910.75,-428"/>
<text text-anchor="middle" x="834.12" y="-414.5" font-family="Helvetica,sans-Serif" font-size="10.00">PowerManager::get_voltage_5v</text>
</a>
</g>
</g>
<!-- Node3&#45;&gt;Node5 -->
<g id="edge4_Node000003_Node000005" class="edge">
<title>Node3&#45;&gt;Node5</title>
<g id="a_edge4_Node000003_Node000005"><a xlink:title=" ">
<path fill="none" stroke="#63b8ff" d="M696.07,-455.63C713.28,-449.83 735.37,-442.65 755.25,-437 762.18,-435.03 769.5,-433.08 776.76,-431.22"/>
<polygon fill="#63b8ff" stroke="#63b8ff" points="777.36,-434.68 786.21,-428.85 775.66,-427.89 777.36,-434.68"/>
</a>
</g>
</g>
<!-- Node6 -->
<g id="Node000006" class="node">
<title>Node6</title>
<g id="a_Node000006"><a xlink:href="class_power_manager.html#a3682b0fca1bb98fd44740714895cc9dd" target="_top" xlink:title=" ">
<polygon fill="white" stroke="#666666" points="902.5,-516 765.75,-516 765.75,-484 902.5,-484 902.5,-516"/>
<text text-anchor="start" x="773.75" y="-502.5" font-family="Helvetica,sans-Serif" font-size="10.00">PowerManager::is_charging</text>
<text text-anchor="middle" x="834.12" y="-490.5" font-family="Helvetica,sans-Serif" font-size="10.00">_solar</text>
</a>
</g>
</g>
<!-- Node3&#45;&gt;Node6 -->
<g id="edge5_Node000003_Node000006" class="edge">
<title>Node3&#45;&gt;Node6</title>
<g id="a_edge5_Node000003_Node000006"><a xlink:title=" ">
<path fill="none" stroke="#63b8ff" d="M717.59,-476.48C729.3,-478.86 742.01,-481.45 754.56,-484"/>
<polygon fill="#63b8ff" stroke="#63b8ff" points="753.54,-487.37 764.04,-485.94 754.94,-480.51 753.54,-487.37"/>
</a>
</g>
</g>
<!-- Node8 -->
<g id="Node000008" class="node">
<title>Node8</title>
<g id="a_Node000008"><a xlink:href="class_power_manager.html#a80bb34a3f9cd27d753252c66402c6a91" target="_top" xlink:title=" ">
<polygon fill="white" stroke="#666666" points="913,-466 755.25,-466 755.25,-446 913,-446 913,-466"/>
<text text-anchor="middle" x="834.12" y="-452.5" font-family="Helvetica,sans-Serif" font-size="10.00">PowerManager::is_charging_usb</text>
</a>
</g>
</g>
<!-- Node3&#45;&gt;Node8 -->
<g id="edge7_Node000003_Node000008" class="edge">
<title>Node3&#45;&gt;Node8</title>
<g id="a_edge7_Node000003_Node000008"><a xlink:title=" ">
<path fill="none" stroke="#63b8ff" d="M719.42,-462.81C727.17,-462.34 735.31,-461.86 743.54,-461.36"/>
<polygon fill="#63b8ff" stroke="#63b8ff" points="743.49,-464.87 753.26,-460.78 743.07,-457.89 743.49,-464.87"/>
</a>
</g>
</g>
<!-- Node3&#45;&gt;Node10 -->
<g id="edge9_Node000003_Node000010" class="edge">
<title>Node3&#45;&gt;Node10</title>
<g id="a_edge9_Node000003_Node000010"><a xlink:title=" ">
<path fill="none" stroke="#63b8ff" d="M699.96,-455.6C707.05,-452.17 713.96,-447.72 719.25,-442 751.31,-407.31 725.3,-378.53 755.25,-342 766.21,-328.63 782.03,-318.11 796.55,-310.43"/>
<polygon fill="#63b8ff" stroke="#63b8ff" points="798.05,-313.6 805.45,-306.02 794.94,-307.33 798.05,-313.6"/>
</a>
</g>
</g>
<!-- Node7 -->
<g id="Node000007" class="node">
<title>Node7</title>
<g id="a_Node000007"><a xlink:href="class_power_manager.html#a16aad5c184599bdec47218d4d774ffb1" target="_top" xlink:title=" ">
<polygon fill="white" stroke="#666666" points="1085,-519 949,-519 949,-487 1085,-487 1085,-519"/>
<text text-anchor="start" x="957" y="-505.5" font-family="Helvetica,sans-Serif" font-size="10.00">PowerManager::get_current</text>
<text text-anchor="middle" x="1017" y="-493.5" font-family="Helvetica,sans-Serif" font-size="10.00">_charge_solar</text>
</a>
</g>
</g>
<!-- Node6&#45;&gt;Node7 -->
<g id="edge6_Node000006_Node000007" class="edge">
<title>Node6&#45;&gt;Node7</title>
<g id="a_edge6_Node000006_Node000007"><a xlink:title=" ">
<path fill="none" stroke="#63b8ff" d="M902.99,-501.13C914.19,-501.31 925.89,-501.51 937.33,-501.7"/>
<polygon fill="#63b8ff" stroke="#63b8ff" points="937.09,-505.19 947.14,-501.86 937.2,-498.19 937.09,-505.19"/>
</a>
</g>
</g>
<!-- Node9 -->
<g id="Node000009" class="node">
<title>Node9</title>
<g id="a_Node000009"><a xlink:href="class_power_manager.html#a2a97c08eae2bd717d95839533a52c09f" target="_top" xlink:title=" ">
<polygon fill="white" stroke="#666666" points="1085,-469 949,-469 949,-437 1085,-437 1085,-469"/>
<text text-anchor="start" x="957" y="-455.5" font-family="Helvetica,sans-Serif" font-size="10.00">PowerManager::get_current</text>
<text text-anchor="middle" x="1017" y="-443.5" font-family="Helvetica,sans-Serif" font-size="10.00">_charge_usb</text>
</a>
</g>
</g>
<!-- Node8&#45;&gt;Node9 -->
<g id="edge8_Node000008_Node000009" class="edge">
<title>Node8&#45;&gt;Node9</title>
<g id="a_edge8_Node000008_Node000009"><a xlink:title=" ">
<path fill="none" stroke="#63b8ff" d="M913.41,-454.7C921.3,-454.57 929.31,-454.44 937.21,-454.31"/>
<polygon fill="#63b8ff" stroke="#63b8ff" points="937.21,-457.81 947.15,-454.14 937.09,-450.81 937.21,-457.81"/>
</a>
</g>
</g>
<!-- Node12 -->
<g id="Node000012" class="node">
<title>Node12</title>
<g id="a_Node000012"><a xlink:href="gps__collector_8cpp.html#a0509cbb838eb47985372ff8889e507f5" target="_top" xlink:title=" ">
<polygon fill="white" stroke="#666666" points="863.88,-554 804.38,-554 804.38,-534 863.88,-534 863.88,-554"/>
<text text-anchor="middle" x="834.12" y="-540.5" font-family="Helvetica,sans-Serif" font-size="10.00">splitString</text>
</a>
</g>
</g>
<!-- Node11&#45;&gt;Node12 -->
<g id="edge11_Node000011_Node000012" class="edge">
<title>Node11&#45;&gt;Node12</title>
<g id="a_edge11_Node000011_Node000012"><a xlink:title=" ">
<path fill="none" stroke="#63b8ff" d="M710,-525.57C735.61,-529.4 767.7,-534.21 792.7,-537.95"/>
<polygon fill="#63b8ff" stroke="#63b8ff" points="792.08,-541.39 802.49,-539.41 793.12,-534.47 792.08,-541.39"/>
</a>
</g>
</g>
<!-- Node14 -->
<g id="Node000014" class="node">
<title>Node14</title>
<g id="a_Node000014"><a xlink:href="utils__converters_8cpp.html#a29531ed9ad98ab78384a8a2f37f4e77d" target="_top" xlink:title="Converts a ValueUnit to a string.">
<polygon fill="white" stroke="#666666" points="714,-210 616.25,-210 616.25,-178 714,-178 714,-210"/>
<text text-anchor="start" x="624.25" y="-196.5" font-family="Helvetica,sans-Serif" font-size="10.00">value_unit_type_to</text>
<text text-anchor="middle" x="665.12" y="-184.5" font-family="Helvetica,sans-Serif" font-size="10.00">_string</text>
</a>
</g>
</g>
<!-- Node13&#45;&gt;Node14 -->
<g id="edge14_Node000013_Node000014" class="edge">
<title>Node13&#45;&gt;Node14</title>
<g id="a_edge14_Node000013_Node000014"><a xlink:title=" ">
<path fill="none" stroke="#63b8ff" d="M547.16,-198.7C563.95,-198.02 584.98,-197.18 604.56,-196.39"/>
<polygon fill="#63b8ff" stroke="#63b8ff" points="604.52,-199.9 614.37,-196 604.24,-192.9 604.52,-199.9"/>
</a>
</g>
</g>
<!-- Node15&#45;&gt;Node10 -->
<g id="edge30_Node000015_Node000010" class="edge">
<title>Node15&#45;&gt;Node10</title>
<g id="a_edge30_Node000015_Node000010"><a xlink:title=" ">
<path fill="none" stroke="#63b8ff" d="M165.72,-296.06C265.77,-298.21 512.59,-302.63 719.25,-299 744.23,-298.56 772.28,-297.58 794.29,-296.7"/>
<polygon fill="#63b8ff" stroke="#63b8ff" points="794.16,-300.21 804.01,-296.3 793.87,-293.22 794.16,-300.21"/>
</a>
</g>
</g>
<!-- Node16 -->
<g id="Node000016" class="node">
<title>Node16</title>
<g id="a_Node000016"><a xlink:href="frame_8cpp.html#a8b9c5fd031b899c6c7867adcde4ac11f" target="_top" xlink:title="Executes a command based on the command key and the parameter.">
<polygon fill="white" stroke="#666666" points="282,-172 201.5,-172 201.5,-152 282,-152 282,-172"/>
<text text-anchor="middle" x="241.75" y="-158.5" font-family="Helvetica,sans-Serif" font-size="10.00">frame_process</text>
</a>
</g>
</g>
<!-- Node15&#45;&gt;Node16 -->
<g id="edge16_Node000015_Node000016" class="edge">
<title>Node15&#45;&gt;Node16</title>
<g id="a_edge16_Node000015_Node000016"><a xlink:title=" ">
<path fill="none" stroke="#63b8ff" d="M129.71,-284.56C150.03,-262.13 198.12,-209.05 223.84,-180.67"/>
<polygon fill="#63b8ff" stroke="#63b8ff" points="226.2,-183.27 230.32,-173.51 221.01,-178.57 226.2,-183.27"/>
</a>
</g>
</g>
<!-- Node16&#45;&gt;Node13 -->
<g id="edge19_Node000016_Node000013" class="edge">
<title>Node16&#45;&gt;Node13</title>
<g id="a_edge19_Node000016_Node000013"><a xlink:title=" ">
<path fill="none" stroke="#63b8ff" d="M279.64,-172.49C291.77,-175.62 305.39,-178.81 318,-181 369.37,-189.94 429.15,-194.99 468.79,-197.6"/>
<polygon fill="#63b8ff" stroke="#63b8ff" points="468.45,-201.09 478.65,-198.22 468.89,-194.1 468.45,-201.09"/>
</a>
</g>
</g>
<!-- Node17 -->
<g id="Node000017" class="node">
<title>Node17</title>
<g id="a_Node000017"><a xlink:href="group___command_system.html#ga52e8963095eccdf1045309bf31b4d705" target="_top" xlink:title="Executes a command based on its key.">
<polygon fill="white" stroke="#666666" points="416.5,-172 318,-172 318,-152 416.5,-152 416.5,-172"/>
<text text-anchor="middle" x="367.25" y="-158.5" font-family="Helvetica,sans-Serif" font-size="10.00">execute_command</text>
</a>
</g>
</g>
<!-- Node16&#45;&gt;Node17 -->
<g id="edge17_Node000016_Node000017" class="edge">
<title>Node16&#45;&gt;Node17</title>
<g id="a_edge17_Node000016_Node000017"><a xlink:title=" ">
<path fill="none" stroke="#63b8ff" d="M282.17,-162C289.84,-162 298.05,-162 306.22,-162"/>
<polygon fill="#63b8ff" stroke="#63b8ff" points="306.17,-165.5 316.17,-162 306.17,-158.5 306.17,-165.5"/>
</a>
</g>
</g>
<!-- Node18 -->
<g id="Node000018" class="node">
<title>Node18</title>
<g id="a_Node000018"><a xlink:href="frame_8cpp.html#a0b3438ff642c0934321101e1f0b8d82d" target="_top" xlink:title="Converts a string into a Frame instance.">
<polygon fill="white" stroke="#666666" points="406,-134 328.5,-134 328.5,-114 406,-114 406,-134"/>
<text text-anchor="middle" x="367.25" y="-120.5" font-family="Helvetica,sans-Serif" font-size="10.00">frame_decode</text>
</a>
</g>
</g>
<!-- Node16&#45;&gt;Node18 -->
<g id="edge20_Node000016_Node000018" class="edge">
<title>Node16&#45;&gt;Node18</title>
<g id="a_edge20_Node000016_Node000018"><a xlink:title=" ">
<path fill="none" stroke="#63b8ff" d="M276.82,-151.52C290.59,-147.28 306.68,-142.33 321.38,-137.81"/>
<polygon fill="#63b8ff" stroke="#63b8ff" points="322.31,-141.18 330.84,-134.9 320.25,-134.49 322.31,-141.18"/>
</a>
</g>
</g>
<!-- Node16&#45;&gt;Node19 -->
<g id="edge29_Node000016_Node000019" class="edge">
<title>Node16&#45;&gt;Node19</title>
<g id="a_edge29_Node000016_Node000019"><a xlink:title=" ">
<path fill="none" stroke="#63b8ff" d="M252.33,-151.86C265.64,-138.51 291.14,-115.5 318,-105 366.95,-85.86 427.87,-82.91 468.41,-83.58"/>
<polygon fill="#63b8ff" stroke="#63b8ff" points="468.19,-87.08 478.28,-83.83 468.37,-80.08 468.19,-87.08"/>
</a>
</g>
</g>
<!-- Node17&#45;&gt;Node13 -->
<g id="edge18_Node000017_Node000013" class="edge">
<title>Node17&#45;&gt;Node13</title>
<g id="a_edge18_Node000017_Node000013"><a xlink:title=" ">
<path fill="none" stroke="#63b8ff" d="M408.12,-172.48C427.11,-177.48 449.87,-183.46 469.31,-188.58"/>
<polygon fill="#63b8ff" stroke="#63b8ff" points="468.29,-191.93 478.85,-191.08 470.07,-185.16 468.29,-191.93"/>
</a>
</g>
</g>
<!-- Node18&#45;&gt;Node10 -->
<g id="edge28_Node000018_Node000010" class="edge">
<title>Node18&#45;&gt;Node10</title>
<g id="a_edge28_Node000018_Node000010"><a xlink:title=" ">
<path fill="none" stroke="#63b8ff" d="M406.4,-120.09C474.05,-114.97 617.48,-112.46 719.25,-169 765.64,-194.78 803.1,-246.6 821.24,-275.1"/>
<polygon fill="#63b8ff" stroke="#63b8ff" points="818.2,-276.82 826.43,-283.49 824.15,-273.14 818.2,-276.82"/>
</a>
</g>
</g>
<!-- Node18&#45;&gt;Node13 -->
<g id="edge21_Node000018_Node000013" class="edge">
<title>Node18&#45;&gt;Node13</title>
<g id="a_edge21_Node000018_Node000013"><a xlink:title=" ">
<path fill="none" stroke="#63b8ff" d="M400.65,-134.48C406.15,-136.89 411.65,-139.73 416.5,-143 435.78,-156.02 432.78,-168.66 452.5,-181 457.73,-184.27 463.57,-187.02 469.5,-189.32"/>
<polygon fill="#63b8ff" stroke="#63b8ff" points="468.13,-192.56 478.73,-192.5 470.42,-185.94 468.13,-192.56"/>
</a>
</g>
</g>
<!-- Node18&#45;&gt;Node19 -->
<g id="edge22_Node000018_Node000019" class="edge">
<title>Node18&#45;&gt;Node19</title>
<g id="a_edge22_Node000018_Node000019"><a xlink:title=" ">
<path fill="none" stroke="#63b8ff" d="M406.22,-114.02C425.46,-108.96 448.92,-102.78 468.93,-97.52"/>
<polygon fill="#63b8ff" stroke="#63b8ff" points="469.7,-100.94 478.48,-95.01 467.92,-94.17 469.7,-100.94"/>
</a>
</g>
</g>
<!-- Node23 -->
<g id="Node000023" class="node">
<title>Node23</title>
<g id="a_Node000023"><a xlink:href="utils__converters_8cpp.html#a4e9ddea19ddd04177180c2dfae26b15b" target="_top" xlink:title="Converts a string to an OperationType.">
<polygon fill="white" stroke="#666666" points="575,-172 452.5,-172 452.5,-152 575,-152 575,-172"/>
<text text-anchor="middle" x="513.75" y="-158.5" font-family="Helvetica,sans-Serif" font-size="10.00">string_to_operation_type</text>
</a>
</g>
</g>
<!-- Node18&#45;&gt;Node23 -->
<g id="edge27_Node000018_Node000023" class="edge">
<title>Node18&#45;&gt;Node23</title>
<g id="a_edge27_Node000018_Node000023"><a xlink:title=" ">
<path fill="none" stroke="#63b8ff" d="M406.22,-133.98C423.25,-138.46 443.6,-143.81 461.92,-148.63"/>
<polygon fill="#63b8ff" stroke="#63b8ff" points="460.99,-152.01 471.56,-151.17 462.78,-145.24 460.99,-152.01"/>
</a>
</g>
</g>
<!-- Node20 -->
<g id="Node000020" class="node">
<title>Node20</title>
<g id="a_Node000020"><a xlink:href="frame_8cpp.html#a3ae6df528775be58890bf406c906a056" target="_top" xlink:title="Encodes a Frame instance into a string.">
<polygon fill="white" stroke="#666666" points="703.88,-20 626.38,-20 626.38,0 703.88,0 703.88,-20"/>
<text text-anchor="middle" x="665.12" y="-6.5" font-family="Helvetica,sans-Serif" font-size="10.00">frame_encode</text>
</a>
</g>
</g>
<!-- Node19&#45;&gt;Node20 -->
<g id="edge23_Node000019_Node000020" class="edge">
<title>Node19&#45;&gt;Node20</title>
<g id="a_edge23_Node000019_Node000020"><a xlink:title=" ">
<path fill="none" stroke="#63b8ff" d="M535.21,-75.59C560.68,-62.63 604.42,-40.37 633.8,-25.43"/>
<polygon fill="#63b8ff" stroke="#63b8ff" points="635.24,-28.62 642.57,-20.97 632.07,-22.38 635.24,-28.62"/>
</a>
</g>
</g>
<!-- Node22 -->
<g id="Node000022" class="node">
<title>Node22</title>
<g id="a_Node000022"><a xlink:href="send_8cpp.html#a42881e6476e0ce51ee9f6a99a7318d3b" target="_top" xlink:title="Sends a message using LoRa.">
<polygon fill="white" stroke="#666666" points="706.12,-96 624.12,-96 624.12,-76 706.12,-76 706.12,-96"/>
<text text-anchor="middle" x="665.12" y="-82.5" font-family="Helvetica,sans-Serif" font-size="10.00">send_message</text>
</a>
</g>
</g>
<!-- Node19&#45;&gt;Node22 -->
<g id="edge25_Node000019_Node000022" class="edge">
<title>Node19&#45;&gt;Node22</title>
<g id="a_edge25_Node000019_Node000022"><a xlink:title=" ">
<path fill="none" stroke="#63b8ff" d="M547.53,-86C566.53,-86 590.88,-86 612.41,-86"/>
<polygon fill="#63b8ff" stroke="#63b8ff" points="612.18,-89.5 622.18,-86 612.18,-82.5 612.18,-89.5"/>
</a>
</g>
</g>
<!-- Node21 -->
<g id="Node000021" class="node">
<title>Node21</title>
<g id="a_Node000021"><a xlink:href="utils__converters_8cpp.html#ab218e62029b4451e910d8caf0fd05804" target="_top" xlink:title="Converts an OperationType to a string.">
<polygon fill="white" stroke="#666666" points="895.38,-20 772.88,-20 772.88,0 895.38,0 895.38,-20"/>
<text text-anchor="middle" x="834.12" y="-6.5" font-family="Helvetica,sans-Serif" font-size="10.00">operation_type_to_string</text>
</a>
</g>
</g>
<!-- Node20&#45;&gt;Node21 -->
<g id="edge24_Node000020_Node000021" class="edge">
<title>Node20&#45;&gt;Node21</title>
<g id="a_edge24_Node000020_Node000021"><a xlink:title=" ">
<path fill="none" stroke="#63b8ff" d="M704.02,-10C720.91,-10 741.4,-10 761.03,-10"/>
<polygon fill="#63b8ff" stroke="#63b8ff" points="760.94,-13.5 770.94,-10 760.94,-6.5 760.94,-13.5"/>
</a>
</g>
</g>
<!-- Node22&#45;&gt;Node10 -->
<g id="edge26_Node000022_Node000010" class="edge">
<title>Node22&#45;&gt;Node10</title>
<g id="a_edge26_Node000022_Node000010"><a xlink:title=" ">
<path fill="none" stroke="#63b8ff" d="M697.48,-96.46C705.14,-99.98 712.94,-104.45 719.25,-110 773.16,-157.44 809.87,-236.64 825.14,-274.12"/>
<polygon fill="#63b8ff" stroke="#63b8ff" points="821.85,-275.32 828.79,-283.33 828.36,-272.74 821.85,-275.32"/>
</a>
</g>
</g>
<!-- Node24&#45;&gt;Node10 -->
<g id="edge39_Node000024_Node000010" class="edge">
<title>Node24&#45;&gt;Node10</title>
<g id="a_edge39_Node000024_Node000010"><a xlink:title=" ">
<path fill="none" stroke="#63b8ff" d="M403.21,-266.29C418.25,-262.59 436.11,-258.83 452.5,-257 577.28,-243.1 725.36,-270.46 794.26,-285.71"/>
<polygon fill="#63b8ff" stroke="#63b8ff" points="793.4,-289.11 803.93,-287.9 794.94,-282.28 793.4,-289.11"/>
</a>
</g>
</g>
<!-- Node24&#45;&gt;Node13 -->
<g id="edge32_Node000024_Node000013" class="edge">
<title>Node24&#45;&gt;Node13</title>
<g id="a_edge32_Node000024_Node000013"><a xlink:title=" ">
<path fill="none" stroke="#63b8ff" d="M391.34,-265.67C399.48,-261.73 408.58,-256.98 416.5,-252 433.66,-241.21 434.91,-234.07 452.5,-224 458.32,-220.67 464.7,-217.58 471.05,-214.82"/>
<polygon fill="#63b8ff" stroke="#63b8ff" points="472.31,-218.09 480.23,-211.05 469.65,-211.61 472.31,-218.09"/>
</a>
</g>
</g>
<!-- Node24&#45;&gt;Node19 -->
<g id="edge38_Node000024_Node000019" class="edge">
<title>Node24&#45;&gt;Node19</title>
<g id="a_edge38_Node000024_Node000019"><a xlink:title=" ">
<path fill="none" stroke="#63b8ff" d="M373.59,-265.75C385.87,-242.64 417.75,-185.2 452.5,-143 464.32,-128.65 479.54,-114.28 491.72,-103.56"/>
<polygon fill="#63b8ff" stroke="#63b8ff" points="493.91,-106.29 499.2,-97.12 489.34,-100.99 493.91,-106.29"/>
</a>
</g>
</g>
<!-- Node25 -->
<g id="Node000025" class="node">
<title>Node25</title>
<g id="a_Node000025"><a xlink:href="storage_8cpp.html#afb19e37469a751aa61de3dcd0c70b4b0" target="_top" xlink:title="Initializes the file system on the SD card.">
<polygon fill="white" stroke="#666666" points="534.88,-286 492.62,-286 492.62,-266 534.88,-266 534.88,-286"/>
<text text-anchor="middle" x="513.75" y="-272.5" font-family="Helvetica,sans-Serif" font-size="10.00">fs_init</text>
</a>
</g>
</g>
<!-- Node24&#45;&gt;Node25 -->
<g id="edge33_Node000024_Node000025" class="edge">
<title>Node24&#45;&gt;Node25</title>
<g id="a_edge33_Node000024_Node000025"><a xlink:title=" ">
<path fill="none" stroke="#63b8ff" d="M403.23,-276C426.99,-276 458.15,-276 481.15,-276"/>
<polygon fill="#63b8ff" stroke="#63b8ff" points="480.84,-279.5 490.84,-276 480.84,-272.5 480.84,-279.5"/>
</a>
</g>
</g>
<!-- Node26 -->
<g id="Node000026" class="node">
<title>Node26</title>
<g id="a_Node000026"><a xlink:href="communication_8cpp.html#a8f817ba4ed9164098cd3947f7cc3f749" target="_top" xlink:title="Initializes the LoRa radio module.">
<polygon fill="white" stroke="#666666" points="703.88,-362 626.38,-362 626.38,-342 703.88,-342 703.88,-362"/>
<text text-anchor="middle" x="665.12" y="-348.5" font-family="Helvetica,sans-Serif" font-size="10.00">initialize_radio</text>
</a>
</g>
</g>
<!-- Node24&#45;&gt;Node26 -->
<g id="edge35_Node000024_Node000026" class="edge">
<title>Node24&#45;&gt;Node26</title>
<g id="a_edge35_Node000024_Node000026"><a xlink:title=" ">
<path fill="none" stroke="#63b8ff" d="M403.35,-285.02C455.99,-298.54 555.53,-324.11 615.25,-339.44"/>
<polygon fill="#63b8ff" stroke="#63b8ff" points="614.25,-342.8 624.81,-341.9 615.99,-336.02 614.25,-342.8"/>
</a>
</g>
</g>
<!-- Node25&#45;&gt;Node10 -->
<g id="edge34_Node000025_Node000010" class="edge">
<title>Node25&#45;&gt;Node10</title>
<g id="a_edge34_Node000025_Node000010"><a xlink:title=" ">
<path fill="none" stroke="#63b8ff" d="M535.15,-277.22C587.3,-280.33 726.19,-288.62 794.33,-292.68"/>
<polygon fill="#63b8ff" stroke="#63b8ff" points="793.71,-296.15 803.9,-293.26 794.13,-289.17 793.71,-296.15"/>
</a>
</g>
</g>
<!-- Node26&#45;&gt;Node4 -->
<g id="edge36_Node000026_Node000004" class="edge">
<title>Node26&#45;&gt;Node4</title>
<g id="a_edge36_Node000026_Node000004"><a xlink:title=" ">
<path fill="none" stroke="#63b8ff" d="M704.02,-354.04C724.52,-355.15 750.31,-356.54 773.44,-357.78"/>
<polygon fill="#63b8ff" stroke="#63b8ff" points="773.21,-361.28 783.38,-358.32 773.58,-354.29 773.21,-361.28"/>
</a>
</g>
</g>
<!-- Node26&#45;&gt;Node10 -->
<g id="edge37_Node000026_Node000010" class="edge">
<title>Node26&#45;&gt;Node10</title>
<g id="a_edge37_Node000026_Node000010"><a xlink:title=" ">
<path fill="none" stroke="#63b8ff" d="M696.76,-341.55C724.31,-332.14 764.91,-318.28 794.65,-308.13"/>
<polygon fill="#63b8ff" stroke="#63b8ff" points="795.69,-311.47 804.03,-304.93 793.43,-304.85 795.69,-311.47"/>
</a>
</g>
</g>
<!-- Node27&#45;&gt;Node10 -->
<g id="edge42_Node000027_Node000010" class="edge">
<title>Node27&#45;&gt;Node10</title>
<g id="a_edge42_Node000027_Node000010"><a xlink:title=" ">
<path fill="none" stroke="#63b8ff" d="M137.45,-151.68C184.86,-123.62 317.18,-48 366.25,-48 366.25,-48 366.25,-48 514.75,-48 606.03,-48 643.92,-15.45 719.25,-67 791.83,-116.67 820.35,-226.67 829.48,-273.36"/>
<polygon fill="#63b8ff" stroke="#63b8ff" points="826,-273.82 831.25,-283.02 832.89,-272.56 826,-273.82"/>
</a>
</g>
</g>
<!-- Node27&#45;&gt;Node16 -->
<g id="edge41_Node000027_Node000016" class="edge">
<title>Node27&#45;&gt;Node16</title>
<g id="a_edge41_Node000027_Node000016"><a xlink:title=" ">
<path fill="none" stroke="#63b8ff" d="M151.28,-162C163.04,-162 176.76,-162 189.87,-162"/>
<polygon fill="#63b8ff" stroke="#63b8ff" points="189.65,-165.5 199.65,-162 189.65,-158.5 189.65,-165.5"/>
</a>
</g>
</g>
</g>
</svg>
