<?xml version="1.0" encoding="UTF-8" standalone="no"?>
<!DOCTYPE svg PUBLIC "-//W3C//DTD SVG 1.1//EN"
 "http://www.w3.org/Graphics/SVG/1.1/DTD/svg11.dtd">
<!-- Generated by graphviz version 12.2.1 (20241206.2353)
 -->
<!-- Title: core1_entry Pages: 1 -->
<svg width="580pt" height="218pt"
 viewBox="0.00 0.00 579.75 218.00" xmlns="http://www.w3.org/2000/svg" xmlns:xlink="http://www.w3.org/1999/xlink">
<g id="graph0" class="graph" transform="scale(1 1) rotate(0) translate(4 214)">
<title>core1_entry</title>
<!-- Node1 -->
<g id="Node000001" class="node">
<title>Node1</title>
<g id="a_Node000001"><a xlink:title=" ">
<polygon fill="#999999" stroke="#666666" points="67,-77 0,-77 0,-57 67,-57 67,-77"/>
<text text-anchor="middle" x="33.5" y="-63.5" font-family="Helvetica,sans-Serif" font-size="10.00">core1_entry</text>
</a>
</g>
</g>
<!-- Node2 -->
<g id="Node000002" class="node">
<title>Node2</title>
<g id="a_Node000002"><a xlink:href="event__manager_8cpp.html#a467714d66058f52e4ac7aeb6df46b433" target="_top" xlink:title="Checks power statuses and triggers events based on voltage trends.">
<polygon fill="white" stroke="#666666" points="203.75,-115 103,-115 103,-95 203.75,-95 203.75,-115"/>
<text text-anchor="middle" x="153.38" y="-101.5" font-family="Helvetica,sans-Serif" font-size="10.00">checkPowerEvents</text>
</a>
</g>
</g>
<!-- Node1&#45;&gt;Node2 -->
<g id="edge1_Node000001_Node000002" class="edge">
<title>Node1&#45;&gt;Node2</title>
<g id="a_edge1_Node000001_Node000002"><a xlink:title=" ">
<path fill="none" stroke="#63b8ff" d="M67.02,-77.48C80.03,-81.68 95.21,-86.57 109.13,-91.06"/>
<polygon fill="#63b8ff" stroke="#63b8ff" points="107.93,-94.35 118.52,-94.09 110.07,-87.69 107.93,-94.35"/>
</a>
</g>
</g>
<!-- Node10 -->
<g id="Node000010" class="node">
<title>Node10</title>
<g id="a_Node000010"><a xlink:href="gps__collector_8cpp.html#abe46d88c89b1f730f6c9a230acac2a6a" target="_top" xlink:title=" ">
<polygon fill="white" stroke="#666666" points="196.62,-58 110.12,-58 110.12,-38 196.62,-38 196.62,-58"/>
<text text-anchor="middle" x="153.38" y="-44.5" font-family="Helvetica,sans-Serif" font-size="10.00">collectGPSData</text>
</a>
</g>
</g>
<!-- Node1&#45;&gt;Node10 -->
<g id="edge9_Node000001_Node000010" class="edge">
<title>Node1&#45;&gt;Node10</title>
<g id="a_edge9_Node000001_Node000010"><a xlink:title=" ">
<path fill="none" stroke="#63b8ff" d="M67.33,-61.71C77.14,-60.13 88.16,-58.35 98.93,-56.61"/>
<polygon fill="#63b8ff" stroke="#63b8ff" points="99.19,-60.12 108.51,-55.07 98.08,-53.21 99.19,-60.12"/>
</a>
</g>
</g>
<!-- Node3 -->
<g id="Node000003" class="node">
<title>Node3</title>
<g id="a_Node000003"><a xlink:href="class_event_emitter.html#a539d733505f9a793439a9cfc4f2af079" target="_top" xlink:title="Emits an event.">
<polygon fill="white" stroke="#666666" points="370.12,-210 272.38,-210 272.38,-190 370.12,-190 370.12,-210"/>
<text text-anchor="middle" x="321.25" y="-196.5" font-family="Helvetica,sans-Serif" font-size="10.00">EventEmitter::emit</text>
</a>
</g>
</g>
<!-- Node2&#45;&gt;Node3 -->
<g id="edge2_Node000002_Node000003" class="edge">
<title>Node2&#45;&gt;Node3</title>
<g id="a_edge2_Node000002_Node000003"><a xlink:title=" ">
<path fill="none" stroke="#63b8ff" d="M162.92,-115.39C177.1,-131.91 207.18,-164.06 239.75,-181 246.43,-184.47 253.74,-187.32 261.16,-189.65"/>
<polygon fill="#63b8ff" stroke="#63b8ff" points="260,-192.96 270.57,-192.3 261.89,-186.22 260,-192.96"/>
</a>
</g>
</g>
<!-- Node4 -->
<g id="Node000004" class="node">
<title>Node4</title>
<g id="a_Node000004"><a xlink:href="class_power_manager.html#ae0e4303ddaba328047fb40d8d925c7dd" target="_top" xlink:title=" ">
<polygon fill="white" stroke="#666666" points="393.75,-172 248.75,-172 248.75,-152 393.75,-152 393.75,-172"/>
<text text-anchor="middle" x="321.25" y="-158.5" font-family="Helvetica,sans-Serif" font-size="10.00">PowerManager::getVoltage5V</text>
</a>
</g>
</g>
<!-- Node2&#45;&gt;Node4 -->
<g id="edge3_Node000002_Node000004" class="edge">
<title>Node2&#45;&gt;Node4</title>
<g id="a_edge3_Node000002_Node000004"><a xlink:title=" ">
<path fill="none" stroke="#63b8ff" d="M174.99,-115.49C192.02,-123.82 217,-135.33 239.75,-143 245.85,-145.06 252.29,-146.98 258.75,-148.74"/>
<polygon fill="#63b8ff" stroke="#63b8ff" points="257.57,-152.06 268.13,-151.19 259.34,-145.28 257.57,-152.06"/>
</a>
</g>
</g>
<!-- Node5 -->
<g id="Node000005" class="node">
<title>Node5</title>
<g id="a_Node000005"><a xlink:href="class_power_manager.html#a33ea0aaa75b4654b0ee05250119bf083" target="_top" xlink:title=" ">
<polygon fill="white" stroke="#666666" points="393.75,-134 248.75,-134 248.75,-114 393.75,-114 393.75,-134"/>
<text text-anchor="middle" x="321.25" y="-120.5" font-family="Helvetica,sans-Serif" font-size="10.00">PowerManager::isSolarActive</text>
</a>
</g>
</g>
<!-- Node2&#45;&gt;Node5 -->
<g id="edge4_Node000002_Node000005" class="edge">
<title>Node2&#45;&gt;Node5</title>
<g id="a_edge4_Node000002_Node000005"><a xlink:title=" ">
<path fill="none" stroke="#63b8ff" d="M204.14,-110.7C214.59,-111.9 225.88,-113.19 237.18,-114.48"/>
<polygon fill="#63b8ff" stroke="#63b8ff" points="236.6,-117.94 246.94,-115.6 237.4,-110.99 236.6,-117.94"/>
</a>
</g>
</g>
<!-- Node7 -->
<g id="Node000007" class="node">
<title>Node7</title>
<g id="a_Node000007"><a xlink:href="class_power_manager.html#a0548ae14a668bb06e4cc13e0295ad5c8" target="_top" xlink:title=" ">
<polygon fill="white" stroke="#666666" points="402.75,-96 239.75,-96 239.75,-76 402.75,-76 402.75,-96"/>
<text text-anchor="middle" x="321.25" y="-82.5" font-family="Helvetica,sans-Serif" font-size="10.00">PowerManager::isUSBConnected</text>
</a>
</g>
</g>
<!-- Node2&#45;&gt;Node7 -->
<g id="edge6_Node000002_Node000007" class="edge">
<title>Node2&#45;&gt;Node7</title>
<g id="a_edge6_Node000002_Node000007"><a xlink:title=" ">
<path fill="none" stroke="#63b8ff" d="M204.14,-99.3C211.82,-98.42 219.95,-97.49 228.2,-96.54"/>
<polygon fill="#63b8ff" stroke="#63b8ff" points="228.46,-100.04 237.99,-95.42 227.66,-93.08 228.46,-100.04"/>
</a>
</g>
</g>
<!-- Node9 -->
<g id="Node000009" class="node">
<title>Node9</title>
<g id="a_Node000009"><a xlink:href="utils_8cpp.html#aacbcecbe6b5428e3571b06ab2104e706" target="_top" xlink:title="Prints a message to the UART with a timestamp and core number.">
<polygon fill="white" stroke="#666666" points="347.62,-58 294.88,-58 294.88,-38 347.62,-38 347.62,-58"/>
<text text-anchor="middle" x="321.25" y="-44.5" font-family="Helvetica,sans-Serif" font-size="10.00">uartPrint</text>
</a>
</g>
</g>
<!-- Node2&#45;&gt;Node9 -->
<g id="edge8_Node000002_Node000009" class="edge">
<title>Node2&#45;&gt;Node9</title>
<g id="a_edge8_Node000002_Node000009"><a xlink:title=" ">
<path fill="none" stroke="#63b8ff" d="M174.99,-94.51C192.02,-86.18 217,-74.67 239.75,-67 253.78,-62.27 269.57,-58.26 283.43,-55.17"/>
<polygon fill="#63b8ff" stroke="#63b8ff" points="284,-58.63 293.05,-53.11 282.54,-51.78 284,-58.63"/>
</a>
</g>
</g>
<!-- Node6 -->
<g id="Node000006" class="node">
<title>Node6</title>
<g id="a_Node000006"><a xlink:href="class_power_manager.html#a097734aac2bcc228d6cf22c00e3acb1a" target="_top" xlink:title=" ">
<polygon fill="white" stroke="#666666" points="571.75,-146 438.75,-146 438.75,-114 571.75,-114 571.75,-146"/>
<text text-anchor="start" x="446.75" y="-132.5" font-family="Helvetica,sans-Serif" font-size="10.00">PowerManager::getCurrent</text>
<text text-anchor="middle" x="505.25" y="-120.5" font-family="Helvetica,sans-Serif" font-size="10.00">ChargeSolar</text>
</a>
</g>
</g>
<!-- Node5&#45;&gt;Node6 -->
<g id="edge5_Node000005_Node000006" class="edge">
<title>Node5&#45;&gt;Node6</title>
<g id="a_edge5_Node000005_Node000006"><a xlink:title=" ">
<path fill="none" stroke="#63b8ff" d="M394.18,-126.37C405.02,-126.73 416.24,-127.1 427.18,-127.46"/>
<polygon fill="#63b8ff" stroke="#63b8ff" points="426.84,-130.95 436.95,-127.78 427.07,-123.95 426.84,-130.95"/>
</a>
</g>
</g>
<!-- Node8 -->
<g id="Node000008" class="node">
<title>Node8</title>
<g id="a_Node000008"><a xlink:href="class_power_manager.html#a3f9587ee81469642a2e595ef3805e801" target="_top" xlink:title=" ">
<polygon fill="white" stroke="#666666" points="571.75,-96 438.75,-96 438.75,-64 571.75,-64 571.75,-96"/>
<text text-anchor="start" x="446.75" y="-82.5" font-family="Helvetica,sans-Serif" font-size="10.00">PowerManager::getCurrent</text>
<text text-anchor="middle" x="505.25" y="-70.5" font-family="Helvetica,sans-Serif" font-size="10.00">ChargeUSB</text>
</a>
</g>
</g>
<!-- Node7&#45;&gt;Node8 -->
<g id="edge7_Node000007_Node000008" class="edge">
<title>Node7&#45;&gt;Node8</title>
<g id="a_edge7_Node000007_Node000008"><a xlink:title=" ">
<path fill="none" stroke="#63b8ff" d="M403.14,-83.33C411.05,-83.07 419.06,-82.81 426.93,-82.55"/>
<polygon fill="#63b8ff" stroke="#63b8ff" points="426.95,-86.05 436.83,-82.22 426.72,-79.05 426.95,-86.05"/>
</a>
</g>
</g>
<!-- Node10&#45;&gt;Node9 -->
<g id="edge11_Node000010_Node000009" class="edge">
<title>Node10&#45;&gt;Node9</title>
<g id="a_edge11_Node000010_Node000009"><a xlink:title=" ">
<path fill="none" stroke="#63b8ff" d="M197.09,-48C223.78,-48 257.79,-48 283.3,-48"/>
<polygon fill="#63b8ff" stroke="#63b8ff" points="283.21,-51.5 293.21,-48 283.21,-44.5 283.21,-51.5"/>
</a>
</g>
</g>
<!-- Node11 -->
<g id="Node000011" class="node">
<title>Node11</title>
<g id="a_Node000011"><a xlink:href="gps__collector_8cpp.html#a0509cbb838eb47985372ff8889e507f5" target="_top" xlink:title=" ">
<polygon fill="white" stroke="#666666" points="351,-20 291.5,-20 291.5,0 351,0 351,-20"/>
<text text-anchor="middle" x="321.25" y="-6.5" font-family="Helvetica,sans-Serif" font-size="10.00">splitString</text>
</a>
</g>
</g>
<!-- Node10&#45;&gt;Node11 -->
<g id="edge10_Node000010_Node000011" class="edge">
<title>Node10&#45;&gt;Node11</title>
<g id="a_edge10_Node000010_Node000011"><a xlink:title=" ">
<path fill="none" stroke="#63b8ff" d="M197.09,-38.21C222.65,-32.36 254.93,-24.97 280.02,-19.22"/>
<polygon fill="#63b8ff" stroke="#63b8ff" points="280.56,-22.68 289.53,-17.04 279,-15.86 280.56,-22.68"/>
</a>
</g>
</g>
</g>
</svg>
