<?xml version="1.0" encoding="UTF-8" standalone="no"?>
<!DOCTYPE svg PUBLIC "-//W3C//DTD SVG 1.1//EN"
 "http://www.w3.org/Graphics/SVG/1.1/DTD/svg11.dtd">
<!-- Generated by graphviz version 12.2.1 (20241206.2353)
 -->
<!-- Title: init_systems Pages: 1 -->
<svg width="485pt" height="268pt"
 viewBox="0.00 0.00 485.25 268.00" xmlns="http://www.w3.org/2000/svg" xmlns:xlink="http://www.w3.org/1999/xlink">
<g id="graph0" class="graph" transform="scale(1 1) rotate(0) translate(4 264)">
<title>init_systems</title>
<!-- Node1 -->
<g id="Node000001" class="node">
<title>Node1</title>
<g id="a_Node000001"><a xlink:title=" ">
<polygon fill="#999999" stroke="#666666" points="71.5,-172 0,-172 0,-152 71.5,-152 71.5,-172"/>
<text text-anchor="middle" x="35.75" y="-158.5" font-family="Helvetica,sans-Serif" font-size="10.00">init_systems</text>
</a>
</g>
</g>
<!-- Node2 -->
<g id="Node000002" class="node">
<title>Node2</title>
<g id="a_Node000002"><a xlink:href="frame_8cpp.html#a29170691faa10727d607a73861cacbeb" target="_top" xlink:title="Builds a Frame instance.">
<polygon fill="white" stroke="#666666" points="179.38,-251 113.12,-251 113.12,-231 179.38,-231 179.38,-251"/>
<text text-anchor="middle" x="146.25" y="-237.5" font-family="Helvetica,sans-Serif" font-size="10.00">frame_build</text>
</a>
</g>
</g>
<!-- Node1&#45;&gt;Node2 -->
<g id="edge1_Node000001_Node000002" class="edge">
<title>Node1&#45;&gt;Node2</title>
<g id="a_edge1_Node000001_Node000002"><a xlink:title=" ">
<path fill="none" stroke="#63b8ff" d="M48.59,-172.46C62.31,-184.36 85.8,-204.06 107.5,-219 110.34,-220.96 113.37,-222.92 116.43,-224.81"/>
<polygon fill="#63b8ff" stroke="#63b8ff" points="114.41,-227.68 124.79,-229.8 117.99,-221.67 114.41,-227.68"/>
</a>
</g>
</g>
<!-- Node4 -->
<g id="Node000004" class="node">
<title>Node4</title>
<g id="a_Node000004"><a xlink:href="storage_8cpp.html#afb19e37469a751aa61de3dcd0c70b4b0" target="_top" xlink:title="Initializes the file system on the SD card.">
<polygon fill="white" stroke="#666666" points="167.38,-210 125.12,-210 125.12,-190 167.38,-190 167.38,-210"/>
<text text-anchor="middle" x="146.25" y="-196.5" font-family="Helvetica,sans-Serif" font-size="10.00">fs_init</text>
</a>
</g>
</g>
<!-- Node1&#45;&gt;Node4 -->
<g id="edge3_Node000001_Node000004" class="edge">
<title>Node1&#45;&gt;Node4</title>
<g id="a_edge3_Node000001_Node000004"><a xlink:title=" ">
<path fill="none" stroke="#63b8ff" d="M66.69,-172.48C81.38,-177.63 99.08,-183.83 113.95,-189.04"/>
<polygon fill="#63b8ff" stroke="#63b8ff" points="112.66,-192.29 123.25,-192.3 114.97,-185.69 112.66,-192.29"/>
</a>
</g>
</g>
<!-- Node5 -->
<g id="Node000005" class="node">
<title>Node5</title>
<g id="a_Node000005"><a xlink:href="utils_8cpp.html#acd86977d05fa330749958ace0f2798de" target="_top" xlink:title="Prints a message to the UART with a timestamp and core number.">
<polygon fill="white" stroke="#666666" points="444.25,-153 387.75,-153 387.75,-133 444.25,-133 444.25,-153"/>
<text text-anchor="middle" x="416" y="-139.5" font-family="Helvetica,sans-Serif" font-size="10.00">uart_print</text>
</a>
</g>
</g>
<!-- Node1&#45;&gt;Node5 -->
<g id="edge13_Node000001_Node000005" class="edge">
<title>Node1&#45;&gt;Node5</title>
<g id="a_edge13_Node000001_Node000005"><a xlink:title=" ">
<path fill="none" stroke="#63b8ff" d="M72,-160.23C142.94,-156.67 302.46,-148.65 376.23,-144.95"/>
<polygon fill="#63b8ff" stroke="#63b8ff" points="375.98,-148.46 385.79,-144.47 375.63,-141.47 375.98,-148.46"/>
</a>
</g>
</g>
<!-- Node6 -->
<g id="Node000006" class="node">
<title>Node6</title>
<g id="a_Node000006"><a xlink:href="communication_8cpp.html#a8f817ba4ed9164098cd3947f7cc3f749" target="_top" xlink:title="Initializes the LoRa radio module.">
<polygon fill="white" stroke="#666666" points="185,-134 107.5,-134 107.5,-114 185,-114 185,-134"/>
<text text-anchor="middle" x="146.25" y="-120.5" font-family="Helvetica,sans-Serif" font-size="10.00">initialize_radio</text>
</a>
</g>
</g>
<!-- Node1&#45;&gt;Node6 -->
<g id="edge5_Node000001_Node000006" class="edge">
<title>Node1&#45;&gt;Node6</title>
<g id="a_edge5_Node000001_Node000006"><a xlink:title=" ">
<path fill="none" stroke="#63b8ff" d="M66.69,-151.52C78.43,-147.4 92.08,-142.62 104.68,-138.21"/>
<polygon fill="#63b8ff" stroke="#63b8ff" points="105.7,-141.56 113.98,-134.95 103.39,-134.95 105.7,-141.56"/>
</a>
</g>
</g>
<!-- Node8 -->
<g id="Node000008" class="node">
<title>Node8</title>
<g id="a_Node000008"><a xlink:href="send_8cpp.html#ae6c6f3b673e7e83306da7ea2458d3241" target="_top" xlink:title="Sends a Frame using LoRa.">
<polygon fill="white" stroke="#666666" points="179.75,-58 112.75,-58 112.75,-38 179.75,-38 179.75,-58"/>
<text text-anchor="middle" x="146.25" y="-44.5" font-family="Helvetica,sans-Serif" font-size="10.00">send_frame</text>
</a>
</g>
</g>
<!-- Node1&#45;&gt;Node8 -->
<g id="edge8_Node000001_Node000008" class="edge">
<title>Node1&#45;&gt;Node8</title>
<g id="a_edge8_Node000001_Node000008"><a xlink:title=" ">
<path fill="none" stroke="#63b8ff" d="M46.38,-151.88C64.67,-132.66 104.68,-90.63 127.8,-66.33"/>
<polygon fill="#63b8ff" stroke="#63b8ff" points="130.08,-69.01 134.44,-59.35 125.01,-64.18 130.08,-69.01"/>
</a>
</g>
</g>
<!-- Node3 -->
<g id="Node000003" class="node">
<title>Node3</title>
<g id="a_Node000003"><a xlink:href="utils__converters_8cpp.html#a29531ed9ad98ab78384a8a2f37f4e77d" target="_top" xlink:title="Converts a ValueUnit to a string.">
<polygon fill="white" stroke="#666666" points="318.75,-260 221,-260 221,-228 318.75,-228 318.75,-260"/>
<text text-anchor="start" x="229" y="-246.5" font-family="Helvetica,sans-Serif" font-size="10.00">value_unit_type_to</text>
<text text-anchor="middle" x="269.88" y="-234.5" font-family="Helvetica,sans-Serif" font-size="10.00">_string</text>
</a>
</g>
</g>
<!-- Node2&#45;&gt;Node3 -->
<g id="edge2_Node000002_Node000003" class="edge">
<title>Node2&#45;&gt;Node3</title>
<g id="a_edge2_Node000002_Node000003"><a xlink:title=" ">
<path fill="none" stroke="#63b8ff" d="M179.84,-241.8C188.94,-242.03 199.13,-242.28 209.27,-242.53"/>
<polygon fill="#63b8ff" stroke="#63b8ff" points="209.04,-246.03 219.12,-242.77 209.21,-239.03 209.04,-246.03"/>
</a>
</g>
</g>
<!-- Node4&#45;&gt;Node5 -->
<g id="edge4_Node000004_Node000005" class="edge">
<title>Node4&#45;&gt;Node5</title>
<g id="a_edge4_Node000004_Node000005"><a xlink:title=" ">
<path fill="none" stroke="#63b8ff" d="M167.81,-198.4C200.24,-195.6 265.09,-188.83 318.75,-176 338.72,-171.23 360.39,-163.99 378.11,-157.5"/>
<polygon fill="#63b8ff" stroke="#63b8ff" points="379.29,-160.8 387.43,-154.02 376.84,-154.24 379.29,-160.8"/>
</a>
</g>
</g>
<!-- Node6&#45;&gt;Node5 -->
<g id="edge7_Node000006_Node000005" class="edge">
<title>Node6&#45;&gt;Node5</title>
<g id="a_edge7_Node000006_Node000005"><a xlink:title=" ">
<path fill="none" stroke="#63b8ff" d="M185.33,-126.7C235.96,-130.29 324.98,-136.61 376.05,-140.24"/>
<polygon fill="#63b8ff" stroke="#63b8ff" points="375.52,-143.71 385.74,-140.92 376.02,-136.72 375.52,-143.71"/>
</a>
</g>
</g>
<!-- Node7 -->
<g id="Node000007" class="node">
<title>Node7</title>
<g id="a_Node000007"><a xlink:href="class_event_emitter.html#a539d733505f9a793439a9cfc4f2af079" target="_top" xlink:title="Emits an event.">
<polygon fill="white" stroke="#666666" points="318.75,-96 221,-96 221,-76 318.75,-76 318.75,-96"/>
<text text-anchor="middle" x="269.88" y="-82.5" font-family="Helvetica,sans-Serif" font-size="10.00">EventEmitter::emit</text>
</a>
</g>
</g>
<!-- Node6&#45;&gt;Node7 -->
<g id="edge6_Node000006_Node000007" class="edge">
<title>Node6&#45;&gt;Node7</title>
<g id="a_edge6_Node000006_Node000007"><a xlink:title=" ">
<path fill="none" stroke="#63b8ff" d="M180.81,-113.52C194.37,-109.28 210.2,-104.33 224.68,-99.81"/>
<polygon fill="#63b8ff" stroke="#63b8ff" points="225.48,-103.22 233.98,-96.9 223.39,-96.54 225.48,-103.22"/>
</a>
</g>
</g>
<!-- Node9 -->
<g id="Node000009" class="node">
<title>Node9</title>
<g id="a_Node000009"><a xlink:href="frame_8cpp.html#a3ae6df528775be58890bf406c906a056" target="_top" xlink:title="Encodes a Frame instance into a string.">
<polygon fill="white" stroke="#666666" points="308.62,-20 231.12,-20 231.12,0 308.62,0 308.62,-20"/>
<text text-anchor="middle" x="269.88" y="-6.5" font-family="Helvetica,sans-Serif" font-size="10.00">frame_encode</text>
</a>
</g>
</g>
<!-- Node8&#45;&gt;Node9 -->
<g id="edge9_Node000008_Node000009" class="edge">
<title>Node8&#45;&gt;Node9</title>
<g id="a_edge9_Node000008_Node000009"><a xlink:title=" ">
<path fill="none" stroke="#63b8ff" d="M180.16,-37.72C193.84,-33.44 209.93,-28.42 224.61,-23.83"/>
<polygon fill="#63b8ff" stroke="#63b8ff" points="225.57,-27.2 234.07,-20.88 223.48,-20.52 225.57,-27.2"/>
</a>
</g>
</g>
<!-- Node11 -->
<g id="Node000011" class="node">
<title>Node11</title>
<g id="a_Node000011"><a xlink:href="send_8cpp.html#a42881e6476e0ce51ee9f6a99a7318d3b" target="_top" xlink:title="Sends a message using LoRa.">
<polygon fill="white" stroke="#666666" points="310.88,-58 228.88,-58 228.88,-38 310.88,-38 310.88,-58"/>
<text text-anchor="middle" x="269.88" y="-44.5" font-family="Helvetica,sans-Serif" font-size="10.00">send_message</text>
</a>
</g>
</g>
<!-- Node8&#45;&gt;Node11 -->
<g id="edge11_Node000008_Node000011" class="edge">
<title>Node8&#45;&gt;Node11</title>
<g id="a_edge11_Node000008_Node000011"><a xlink:title=" ">
<path fill="none" stroke="#63b8ff" d="M180.16,-48C191.58,-48 204.68,-48 217.24,-48"/>
<polygon fill="#63b8ff" stroke="#63b8ff" points="217.04,-51.5 227.04,-48 217.04,-44.5 217.04,-51.5"/>
</a>
</g>
</g>
<!-- Node10 -->
<g id="Node000010" class="node">
<title>Node10</title>
<g id="a_Node000010"><a xlink:href="utils__converters_8cpp.html#ab218e62029b4451e910d8caf0fd05804" target="_top" xlink:title="Converts an OperationType to a string.">
<polygon fill="white" stroke="#666666" points="477.25,-20 354.75,-20 354.75,0 477.25,0 477.25,-20"/>
<text text-anchor="middle" x="416" y="-6.5" font-family="Helvetica,sans-Serif" font-size="10.00">operation_type_to_string</text>
</a>
</g>
</g>
<!-- Node9&#45;&gt;Node10 -->
<g id="edge10_Node000009_Node000010" class="edge">
<title>Node9&#45;&gt;Node10</title>
<g id="a_edge10_Node000009_Node000010"><a xlink:title=" ">
<path fill="none" stroke="#63b8ff" d="M309.12,-10C319.61,-10 331.34,-10 343.06,-10"/>
<polygon fill="#63b8ff" stroke="#63b8ff" points="342.74,-13.5 352.74,-10 342.74,-6.5 342.74,-13.5"/>
</a>
</g>
</g>
<!-- Node11&#45;&gt;Node5 -->
<g id="edge12_Node000011_Node000005" class="edge">
<title>Node11&#45;&gt;Node5</title>
<g id="a_edge12_Node000011_Node000005"><a xlink:title=" ">
<path fill="none" stroke="#63b8ff" d="M301.13,-58.46C307.12,-60.95 313.25,-63.83 318.75,-67 347.62,-83.65 377.18,-108.36 395.78,-125.04"/>
<polygon fill="#63b8ff" stroke="#63b8ff" points="393.35,-127.56 403.1,-131.71 398.07,-122.39 393.35,-127.56"/>
</a>
</g>
</g>
</g>
</svg>
