<?xml version="1.0" encoding="UTF-8" standalone="no"?>
<!DOCTYPE svg PUBLIC "-//W3C//DTD SVG 1.1//EN"
 "http://www.w3.org/Graphics/SVG/1.1/DTD/svg11.dtd">
<!-- Generated by graphviz version 12.2.1 (20241206.2353)
 -->
<!-- Title: initSystems Pages: 1 -->
<svg width="488pt" height="218pt"
 viewBox="0.00 0.00 487.50 218.00" xmlns="http://www.w3.org/2000/svg" xmlns:xlink="http://www.w3.org/1999/xlink">

<svg id="main" version="1.1" xmlns="http://www.w3.org/2000/svg" xmlns:xlink="http://www.w3.org/1999/xlink" xml:space="preserve">

<style type="text/css"><![CDATA[
.node, .edge {opacity: 0.7;}
.node.selected, .edge.selected {opacity: 1;}
.edge:hover path { stroke: red; }
.edge:hover polygon { stroke: red; fill: red; }
]]></style>
<script type="application/ecmascript" xlink:href="svg.min.js"/>
<svg id="graph" class="graph">
<g id="graph0" class="graph" transform="scale(1 1) rotate(0) translate(4 214)">
<title>initSystems</title>
<!-- Node1 -->
<g id="Node000001" class="node">
<title>Node1</title>
<g id="a_Node000001"><a xlink:title=" ">
<polygon fill="#999999" stroke="#666666" points="67.75,-115 0,-115 0,-95 67.75,-95 67.75,-115"/>
<text text-anchor="middle" x="33.88" y="-101.5" font-family="Helvetica,sans-Serif" font-size="10.00">initSystems</text>
</a>
</g>
</g>
<!-- Node2 -->
<g id="Node000002" class="node">
<title>Node2</title>
<g id="a_Node000002"><a xlink:href="frame_8cpp.html#a5f43260949ee244d3ee66068eb1d7fc1" target="_top" xlink:title="Builds a Frame instance.">
<polygon fill="white" stroke="#666666" points="174.12,-191 110.12,-191 110.12,-171 174.12,-171 174.12,-191"/>
<text text-anchor="middle" x="142.12" y="-177.5" font-family="Helvetica,sans-Serif" font-size="10.00">buildFrame</text>
</a>
</g>
</g>
<!-- Node1&#45;&gt;Node2 -->
<g id="edge1_Node000001_Node000002" class="edge">
<title>Node1&#45;&gt;Node2</title>
<g id="a_edge1_Node000001_Node000002"><a xlink:title=" ">
<path fill="none" stroke="#63b8ff" d="M49.2,-115.25C66.71,-127.77 96.57,-149.13 117.5,-164.1"/>
<polygon fill="#63b8ff" stroke="#63b8ff" points="115.28,-166.82 125.45,-169.79 119.36,-161.12 115.28,-166.82"/>
</a>
</g>
</g>
<!-- Node4 -->
<g id="Node000004" class="node">
<title>Node4</title>
<g id="a_Node000004"><a xlink:href="communication_8cpp.html#a520df448c1dc359f42111ac240081975" target="_top" xlink:title="Initializes the LoRa radio module.">
<polygon fill="white" stroke="#666666" points="180.5,-134 103.75,-134 103.75,-114 180.5,-114 180.5,-134"/>
<text text-anchor="middle" x="142.12" y="-120.5" font-family="Helvetica,sans-Serif" font-size="10.00">initializeRadio</text>
</a>
</g>
</g>
<!-- Node1&#45;&gt;Node4 -->
<g id="edge3_Node000001_Node000004" class="edge">
<title>Node1&#45;&gt;Node4</title>
<g id="a_edge3_Node000001_Node000004"><a xlink:title=" ">
<path fill="none" stroke="#63b8ff" d="M68.2,-110.96C75.81,-112.32 84.06,-113.79 92.17,-115.25"/>
<polygon fill="#63b8ff" stroke="#63b8ff" points="91.52,-118.69 101.98,-117 92.76,-111.79 91.52,-118.69"/>
</a>
</g>
</g>
<!-- Node6 -->
<g id="Node000006" class="node">
<title>Node6</title>
<g id="a_Node000006"><a xlink:href="utils_8cpp.html#aacbcecbe6b5428e3571b06ab2104e706" target="_top" xlink:title="Prints a message to the UART with a timestamp and core number.">
<polygon fill="white" stroke="#666666" points="449.5,-96 396.75,-96 396.75,-76 449.5,-76 449.5,-96"/>
<text text-anchor="middle" x="423.12" y="-82.5" font-family="Helvetica,sans-Serif" font-size="10.00">uartPrint</text>
</a>
</g>
</g>
<!-- Node1&#45;&gt;Node6 -->
<g id="edge11_Node000001_Node000006" class="edge">
<title>Node1&#45;&gt;Node6</title>
<g id="a_edge11_Node000001_Node000006"><a xlink:title=" ">
<path fill="none" stroke="#63b8ff" d="M68.23,-103.36C140.32,-99.83 310.23,-91.49 385.33,-87.81"/>
<polygon fill="#63b8ff" stroke="#63b8ff" points="385.21,-91.32 395.03,-87.33 384.87,-84.32 385.21,-91.32"/>
</a>
</g>
</g>
<!-- Node7 -->
<g id="Node000007" class="node">
<title>Node7</title>
<g id="a_Node000007"><a xlink:href="send_8cpp.html#a752e7cc27f52d4ba064e691b3e240ed8" target="_top" xlink:title="Sends a Frame using LoRa.">
<polygon fill="white" stroke="#666666" points="174.5,-58 109.75,-58 109.75,-38 174.5,-38 174.5,-58"/>
<text text-anchor="middle" x="142.12" y="-44.5" font-family="Helvetica,sans-Serif" font-size="10.00">sendFrame</text>
</a>
</g>
</g>
<!-- Node1&#45;&gt;Node7 -->
<g id="edge6_Node000001_Node000007" class="edge">
<title>Node1&#45;&gt;Node7</title>
<g id="a_edge6_Node000001_Node000007"><a xlink:title=" ">
<path fill="none" stroke="#63b8ff" d="M54.36,-94.55C70.39,-85.95 93.35,-73.63 111.63,-63.82"/>
<polygon fill="#63b8ff" stroke="#63b8ff" points="113.27,-66.92 120.43,-59.1 109.96,-60.75 113.27,-66.92"/>
</a>
</g>
</g>
<!-- Node3 -->
<g id="Node000003" class="node">
<title>Node3</title>
<g id="a_Node000003"><a xlink:href="utils__converters_8cpp.html#ab4cb9e6b491bd7711c69c9167a2b9286" target="_top" xlink:title="Converts a ValueUnit to a string.">
<polygon fill="white" stroke="#666666" points="330.75,-210 216.5,-210 216.5,-190 330.75,-190 330.75,-210"/>
<text text-anchor="middle" x="273.62" y="-196.5" font-family="Helvetica,sans-Serif" font-size="10.00">valueUnitTypeToString</text>
</a>
</g>
</g>
<!-- Node2&#45;&gt;Node3 -->
<g id="edge2_Node000002_Node000003" class="edge">
<title>Node2&#45;&gt;Node3</title>
<g id="a_edge2_Node000002_Node000003"><a xlink:title=" ">
<path fill="none" stroke="#63b8ff" d="M174.47,-185.6C183.75,-186.96 194.29,-188.51 204.93,-190.07"/>
<polygon fill="#63b8ff" stroke="#63b8ff" points="204.12,-193.49 214.52,-191.47 205.13,-186.56 204.12,-193.49"/>
</a>
</g>
</g>
<!-- Node5 -->
<g id="Node000005" class="node">
<title>Node5</title>
<g id="a_Node000005"><a xlink:href="class_event_emitter.html#a539d733505f9a793439a9cfc4f2af079" target="_top" xlink:title="Emits an event.">
<polygon fill="white" stroke="#666666" points="322.5,-172 224.75,-172 224.75,-152 322.5,-152 322.5,-172"/>
<text text-anchor="middle" x="273.62" y="-158.5" font-family="Helvetica,sans-Serif" font-size="10.00">EventEmitter::emit</text>
</a>
</g>
</g>
<!-- Node4&#45;&gt;Node5 -->
<g id="edge4_Node000004_Node000005" class="edge">
<title>Node4&#45;&gt;Node5</title>
<g id="a_edge4_Node000004_Node000005"><a xlink:title=" ">
<path fill="none" stroke="#63b8ff" d="M178.85,-134.48C193.43,-138.76 210.49,-143.77 226.02,-148.33"/>
<polygon fill="#63b8ff" stroke="#63b8ff" points="224.98,-151.67 235.56,-151.12 226.95,-144.95 224.98,-151.67"/>
</a>
</g>
</g>
<!-- Node4&#45;&gt;Node6 -->
<g id="edge5_Node000004_Node000006" class="edge">
<title>Node4&#45;&gt;Node6</title>
<g id="a_edge5_Node000004_Node000006"><a xlink:title=" ">
<path fill="none" stroke="#63b8ff" d="M180.9,-119.45C218.81,-114.81 278.88,-107.29 330.75,-100 348.83,-97.46 368.88,-94.41 385.58,-91.81"/>
<polygon fill="#63b8ff" stroke="#63b8ff" points="385.72,-95.33 395.05,-90.33 384.63,-88.42 385.72,-95.33"/>
</a>
</g>
</g>
<!-- Node8 -->
<g id="Node000008" class="node">
<title>Node8</title>
<g id="a_Node000008"><a xlink:href="frame_8cpp.html#ab53898fb6f45dfc657837a665a070959" target="_top" xlink:title="Encodes a Frame instance into a string.">
<polygon fill="white" stroke="#666666" points="311.25,-20 236,-20 236,0 311.25,0 311.25,-20"/>
<text text-anchor="middle" x="273.62" y="-6.5" font-family="Helvetica,sans-Serif" font-size="10.00">encodeFrame</text>
</a>
</g>
</g>
<!-- Node7&#45;&gt;Node8 -->
<g id="edge7_Node000007_Node000008" class="edge">
<title>Node7&#45;&gt;Node8</title>
<g id="a_edge7_Node000007_Node000008"><a xlink:title=" ">
<path fill="none" stroke="#63b8ff" d="M174.8,-38.7C190.28,-34.16 209.21,-28.61 226.27,-23.6"/>
<polygon fill="#63b8ff" stroke="#63b8ff" points="227.1,-27.01 235.71,-20.83 225.13,-20.29 227.1,-27.01"/>
</a>
</g>
</g>
<!-- Node10 -->
<g id="Node000010" class="node">
<title>Node10</title>
<g id="a_Node000010"><a xlink:href="send_8cpp.html#adcc720dc971ce8b237b26df434b65bb2" target="_top" xlink:title="Sends a message using LoRa.">
<polygon fill="white" stroke="#666666" points="312,-58 235.25,-58 235.25,-38 312,-38 312,-58"/>
<text text-anchor="middle" x="273.62" y="-44.5" font-family="Helvetica,sans-Serif" font-size="10.00">sendMessage</text>
</a>
</g>
</g>
<!-- Node7&#45;&gt;Node10 -->
<g id="edge9_Node000007_Node000010" class="edge">
<title>Node7&#45;&gt;Node10</title>
<g id="a_edge9_Node000007_Node000010"><a xlink:title=" ">
<path fill="none" stroke="#63b8ff" d="M174.8,-48C189.53,-48 207.37,-48 223.76,-48"/>
<polygon fill="#63b8ff" stroke="#63b8ff" points="223.31,-51.5 233.31,-48 223.31,-44.5 223.31,-51.5"/>
</a>
</g>
</g>
<!-- Node9 -->
<g id="Node000009" class="node">
<title>Node9</title>
<g id="a_Node000009"><a xlink:href="utils__converters_8cpp.html#a82a11ce999902359454fa904a13ae297" target="_top" xlink:title="Converts an OperationType to a string.">
<polygon fill="white" stroke="#666666" points="479.5,-20 366.75,-20 366.75,0 479.5,0 479.5,-20"/>
<text text-anchor="middle" x="423.12" y="-6.5" font-family="Helvetica,sans-Serif" font-size="10.00">operationTypeToString</text>
</a>
</g>
</g>
<!-- Node8&#45;&gt;Node9 -->
<g id="edge8_Node000008_Node000009" class="edge">
<title>Node8&#45;&gt;Node9</title>
<g id="a_edge8_Node000008_Node000009"><a xlink:title=" ">
<path fill="none" stroke="#63b8ff" d="M311.46,-10C324.72,-10 340.13,-10 355.15,-10"/>
<polygon fill="#63b8ff" stroke="#63b8ff" points="355.01,-13.5 365.01,-10 355.01,-6.5 355.01,-13.5"/>
</a>
</g>
</g>
<!-- Node10&#45;&gt;Node6 -->
<g id="edge10_Node000010_Node000006" class="edge">
<title>Node10&#45;&gt;Node6</title>
<g id="a_edge10_Node000010_Node000006"><a xlink:title=" ">
<path fill="none" stroke="#63b8ff" d="M312.23,-57.69C334.76,-63.49 363.27,-70.84 385.61,-76.59"/>
<polygon fill="#63b8ff" stroke="#63b8ff" points="384.64,-79.96 395.19,-79.06 386.38,-73.18 384.64,-79.96"/>
</a>
</g>
</g>
</g>
</svg>
</svg>

<style type='text/css'>
<![CDATA[
[data-mouse-over-selected='false'] { opacity: 0.7; }
[data-mouse-over-selected='true']  { opacity: 1.0; }
]]>
</style>
<script type="application/ecmascript"><![CDATA[
document.addEventListener('DOMContentLoaded', (event) => {
  highlightEdges();
  highlightAdjacentNodes();
});
]]></script>
</svg>
