<?xml version="1.0" encoding="UTF-8" standalone="no"?>
<!DOCTYPE svg PUBLIC "-//W3C//DTD SVG 1.1//EN"
 "http://www.w3.org/Graphics/SVG/1.1/DTD/svg11.dtd">
<!-- Generated by graphviz version 12.2.1 (20241206.2353)
 -->
<!-- Title: lib/pin_config.h Pages: 1 -->
<!--zoomable 368 -->

<svg id="main" version="1.1" xmlns="http://www.w3.org/2000/svg" xmlns:xlink="http://www.w3.org/1999/xlink" xml:space="preserve" onload="init(evt)">

<style type="text/css"><![CDATA[
.node, .edge {opacity: 0.7;}
.node.selected, .edge.selected {opacity: 1;}
.edge:hover path { stroke: red; }
.edge:hover polygon { stroke: red; fill: red; }
]]></style>

<defs>
  <circle id="rim" cx="0" cy="0" r="7"/>
  <circle id="rim2" cx="0" cy="0" r="3.5"/>
  <g id="zoomPlus">
    <use xlink:href="#rim" fill="#404040"><set attributeName="fill" to="#808080" begin="zoomplus.mouseover" end="zoomplus.mouseout"/></use>
    <path d="M-4,0h8M0,-4v8" fill="none" stroke="white" stroke-width="1.5" pointer-events="none"/>
  </g>
  <g id="zoomMin">
    <use xlink:href="#rim" fill="#404040"><set attributeName="fill" to="#808080" begin="zoomminus.mouseover" end="zoomminus.mouseout"/></use>
    <path d="M-4,0h8" fill="none" stroke="white" stroke-width="1.5" pointer-events="none"/>
  </g>
  <g id="arrowUp" transform="translate(30 24)">
    <use xlink:href="#rim"/>
    <path pointer-events="none" fill="none" stroke="white" stroke-width="1.5" d="M0,-3.0v7 M-2.5,-0.5L0,-3.0L2.5,-0.5"/>
  </g>
  <g id="arrowRight" transform="rotate(90) translate(36 -43)">
    <use xlink:href="#rim"/>
    <path pointer-events="none" fill="none" stroke="white" stroke-width="1.5" d="M0,-3.0v7 M-2.5,-0.5L0,-3.0L2.5,-0.5"/>
  </g>
  <g id="arrowDown" transform="rotate(180) translate(-30 -48)">
    <use xlink:href="#rim"/>
    <path pointer-events="none" fill="none" stroke="white" stroke-width="1.5" d="M0,-3.0v7 M-2.5,-0.5L0,-3.0L2.5,-0.5"/>
  </g>
  <g id="arrowLeft" transform="rotate(270) translate(-36 17)">
    <use xlink:href="#rim"/>
    <path pointer-events="none" fill="none" stroke="white" stroke-width="1.5" d="M0,-3.0v7 M-2.5,-0.5L0,-3.0L2.5,-0.5"/>
  </g>
  <g id="resetDef">
    <use xlink:href="#rim2" fill="#404040"><set attributeName="fill" to="#808080" begin="reset.mouseover" end="reset.mouseout"/></use>
  </g>
</defs>
<script type="application/ecmascript">
var viewWidth = 2059;
var viewHeight = 368;
var sectionId = 'dynsection-1';
</script>
<script type="application/ecmascript" xlink:href="svg.min.js"/>
<svg id="graph" class="graph">
<g id="viewport">
<title>lib/pin_config.h</title>
<!-- Node1 -->
<g id="Node000001" class="node">
<title>Node1</title>
<g id="a_Node000001"><a xlink:title=" ">
<polygon fill="#999999" stroke="#666666" points="1588.25,-360 1507,-360 1507,-340 1588.25,-340 1588.25,-360"/>
<text text-anchor="middle" x="1547.62" y="-346.5" font-family="Helvetica,sans-Serif" font-size="10.00">lib/pin_config.h</text>
</a>
</g>
</g>
<!-- Node2 -->
<g id="Node000002" class="node">
<title>Node2</title>
<g id="a_Node000002"><a xlink:href="includes_8h.html" target="_top" xlink:title=" ">
<polygon fill="white" stroke="#666666" points="1870.75,-94 1810.5,-94 1810.5,-74 1870.75,-74 1870.75,-94"/>
<text text-anchor="middle" x="1840.62" y="-80.5" font-family="Helvetica,sans-Serif" font-size="10.00">includes.h</text>
</a>
</g>
</g>
<!-- Node1&#45;&gt;Node2 -->
<g id="edge1_Node000001_Node000002" class="edge">
<title>Node1&#45;&gt;Node2</title>
<g id="a_edge1_Node000001_Node000002"><a xlink:title=" ">
<path fill="none" stroke="#63b8ff" d="M1599.93,-344.94C1670.31,-338.76 1791.14,-325.39 1829.62,-304 1898.55,-265.7 1915.99,-209.17 1886.62,-136 1879.7,-118.74 1864.13,-103.58 1853.03,-94.36"/>
<polygon fill="#63b8ff" stroke="#63b8ff" points="1599.84,-341.44 1590.17,-345.78 1600.44,-348.41 1599.84,-341.44"/>
</a>
</g>
</g>
<!-- Node4 -->
<g id="Node000004" class="node">
<title>Node4</title>
<g id="a_Node000004"><a xlink:href="_lo_ra-_r_p2040_8h.html" target="_top" xlink:title=" ">
<polygon fill="white" stroke="#666666" points="1077.38,-304 963.88,-304 963.88,-272 1077.38,-272 1077.38,-304"/>
<text text-anchor="start" x="971.88" y="-290.5" font-family="Helvetica,sans-Serif" font-size="10.00">lib/comms/LoRa/LoRa</text>
<text text-anchor="middle" x="1020.62" y="-278.5" font-family="Helvetica,sans-Serif" font-size="10.00">&#45;RP2040.h</text>
</a>
</g>
</g>
<!-- Node1&#45;&gt;Node4 -->
<g id="edge3_Node000001_Node000004" class="edge">
<title>Node1&#45;&gt;Node4</title>
<g id="a_edge3_Node000001_Node000004"><a xlink:title=" ">
<path fill="none" stroke="#63b8ff" d="M1495.47,-343.06C1396.1,-331.75 1180.41,-307.19 1077.49,-295.47"/>
<polygon fill="#63b8ff" stroke="#63b8ff" points="1494.88,-346.52 1505.21,-344.17 1495.67,-339.56 1494.88,-346.52"/>
</a>
</g>
</g>
<!-- Node6 -->
<g id="Node000006" class="node">
<title>Node6</title>
<g id="a_Node000006"><a xlink:href="protocol_8h.html" target="_top" xlink:title=" ">
<polygon fill="white" stroke="#666666" points="1074,-230 967.25,-230 967.25,-210 1074,-210 1074,-230"/>
<text text-anchor="middle" x="1020.62" y="-216.5" font-family="Helvetica,sans-Serif" font-size="10.00">lib/comms/protocol.h</text>
</a>
</g>
</g>
<!-- Node1&#45;&gt;Node6 -->
<g id="edge30_Node000001_Node000006" class="edge">
<title>Node1&#45;&gt;Node6</title>
<g id="a_edge30_Node000001_Node000006"><a xlink:title=" ">
<path fill="none" stroke="#63b8ff" d="M1495.36,-340.21C1447.97,-331.93 1376.28,-318.63 1314.62,-304 1217.35,-280.92 1103.93,-246.83 1050.88,-230.45"/>
<polygon fill="#63b8ff" stroke="#63b8ff" points="1494.63,-343.63 1505.08,-341.89 1495.83,-336.74 1494.63,-343.63"/>
</a>
</g>
</g>
<!-- Node25 -->
<g id="Node000025" class="node">
<title>Node25</title>
<g id="a_Node000025"><a xlink:href="gps__collector_8h.html" target="_top" xlink:title=" ">
<polygon fill="white" stroke="#666666" points="1673.38,-298 1541.88,-298 1541.88,-278 1673.38,-278 1673.38,-298"/>
<text text-anchor="middle" x="1607.62" y="-284.5" font-family="Helvetica,sans-Serif" font-size="10.00">lib/location/gps_collector.h</text>
</a>
</g>
</g>
<!-- Node1&#45;&gt;Node25 -->
<g id="edge31_Node000001_Node000025" class="edge">
<title>Node1&#45;&gt;Node25</title>
<g id="a_edge31_Node000001_Node000025"><a xlink:title=" ">
<path fill="none" stroke="#63b8ff" d="M1565.05,-331.58C1575.99,-320.63 1589.66,-306.97 1598.51,-298.11"/>
<polygon fill="#63b8ff" stroke="#63b8ff" points="1562.67,-329.01 1558.07,-338.55 1567.62,-333.96 1562.67,-329.01"/>
</a>
</g>
</g>
<!-- Node27 -->
<g id="Node000027" class="node">
<title>Node27</title>
<g id="a_Node000027"><a xlink:href="pin__config_8cpp.html" target="_top" xlink:title=" ">
<polygon fill="white" stroke="#666666" points="2050.5,-298 1958.75,-298 1958.75,-278 2050.5,-278 2050.5,-298"/>
<text text-anchor="middle" x="2004.62" y="-284.5" font-family="Helvetica,sans-Serif" font-size="10.00">lib/pin_config.cpp</text>
</a>
</g>
</g>
<!-- Node1&#45;&gt;Node27 -->
<g id="edge35_Node000001_Node000027" class="edge">
<title>Node1&#45;&gt;Node27</title>
<g id="a_edge35_Node000001_Node000027"><a xlink:title=" ">
<path fill="none" stroke="#63b8ff" d="M1599.93,-345.29C1676.16,-339.37 1822.08,-326.16 1944.62,-304 1952.97,-302.49 1961.88,-300.48 1970.21,-298.43"/>
<polygon fill="#63b8ff" stroke="#63b8ff" points="1599.96,-341.77 1590.26,-346.02 1600.49,-348.75 1599.96,-341.77"/>
</a>
</g>
</g>
<!-- Node28 -->
<g id="Node000028" class="node">
<title>Node28</title>
<g id="a_Node000028"><a xlink:href="_i_n_a3221_8cpp.html" target="_top" xlink:title=" ">
<polygon fill="white" stroke="#666666" points="1494.12,-236 1379.12,-236 1379.12,-204 1494.12,-204 1494.12,-236"/>
<text text-anchor="start" x="1387.12" y="-222.5" font-family="Helvetica,sans-Serif" font-size="10.00">lib/powerman/INA3221</text>
<text text-anchor="middle" x="1436.62" y="-210.5" font-family="Helvetica,sans-Serif" font-size="10.00">/INA3221.cpp</text>
</a>
</g>
</g>
<!-- Node1&#45;&gt;Node28 -->
<g id="edge36_Node000001_Node000028" class="edge">
<title>Node1&#45;&gt;Node28</title>
<g id="a_edge36_Node000001_Node000028"><a xlink:title=" ">
<path fill="none" stroke="#63b8ff" d="M1532.19,-331.21C1510.28,-305.94 1470.52,-260.08 1449.87,-236.27"/>
<polygon fill="#63b8ff" stroke="#63b8ff" points="1529.45,-333.39 1538.65,-338.65 1534.74,-328.8 1529.45,-333.39"/>
</a>
</g>
</g>
<!-- Node29 -->
<g id="Node000029" class="node">
<title>Node29</title>
<g id="a_Node000029"><a xlink:href="storage_8h.html" target="_top" xlink:title=" ">
<polygon fill="white" stroke="#666666" points="1820.88,-298 1716.38,-298 1716.38,-278 1820.88,-278 1820.88,-298"/>
<text text-anchor="middle" x="1768.62" y="-284.5" font-family="Helvetica,sans-Serif" font-size="10.00">lib/storage/storage.h</text>
</a>
</g>
</g>
<!-- Node1&#45;&gt;Node29 -->
<g id="edge37_Node000001_Node000029" class="edge">
<title>Node1&#45;&gt;Node29</title>
<g id="a_edge37_Node000001_Node000029"><a xlink:title=" ">
<path fill="none" stroke="#63b8ff" d="M1593.14,-336.64C1634.94,-325.29 1696,-308.72 1733.97,-298.41"/>
<polygon fill="#63b8ff" stroke="#63b8ff" points="1592.35,-333.23 1583.62,-339.23 1594.18,-339.99 1592.35,-333.23"/>
</a>
</g>
</g>
<!-- Node31 -->
<g id="Node000031" class="node">
<title>Node31</title>
<g id="a_Node000031"><a xlink:href="utils_8h.html" target="_top" xlink:title=" ">
<polygon fill="white" stroke="#666666" points="1378.12,-298 1323.12,-298 1323.12,-278 1378.12,-278 1378.12,-298"/>
<text text-anchor="middle" x="1350.62" y="-284.5" font-family="Helvetica,sans-Serif" font-size="10.00">lib/utils.h</text>
</a>
</g>
</g>
<!-- Node1&#45;&gt;Node31 -->
<g id="edge40_Node000001_Node000031" class="edge">
<title>Node1&#45;&gt;Node31</title>
<g id="a_edge40_Node000001_Node000031"><a xlink:title=" ">
<path fill="none" stroke="#63b8ff" d="M1506.01,-336.33C1467.58,-324.62 1411.56,-307.56 1378.33,-297.44"/>
<polygon fill="#63b8ff" stroke="#63b8ff" points="1504.81,-339.62 1515.4,-339.18 1506.85,-332.92 1504.81,-339.62"/>
</a>
</g>
</g>
<!-- Node3 -->
<g id="Node000003" class="node">
<title>Node3</title>
<g id="a_Node000003"><a xlink:href="main_8cpp.html" target="_top" xlink:title=" ">
<polygon fill="white" stroke="#666666" points="1868.5,-26 1812.75,-26 1812.75,-6 1868.5,-6 1868.5,-26"/>
<text text-anchor="middle" x="1840.62" y="-12.5" font-family="Helvetica,sans-Serif" font-size="10.00">main.cpp</text>
</a>
</g>
</g>
<!-- Node2&#45;&gt;Node3 -->
<g id="edge2_Node000002_Node000003" class="edge">
<title>Node2&#45;&gt;Node3</title>
<g id="a_edge2_Node000002_Node000003"><a xlink:title=" ">
<path fill="none" stroke="#63b8ff" d="M1840.62,-62.28C1840.62,-50.27 1840.62,-35.74 1840.62,-26.44"/>
<polygon fill="#63b8ff" stroke="#63b8ff" points="1837.13,-62.03 1840.63,-72.03 1844.13,-62.03 1837.13,-62.03"/>
</a>
</g>
</g>
<!-- Node5 -->
<g id="Node000005" class="node">
<title>Node5</title>
<g id="a_Node000005"><a xlink:href="_lo_ra-_r_p2040_8cpp.html" target="_top" xlink:title=" ">
<polygon fill="white" stroke="#666666" points="949.38,-236 835.88,-236 835.88,-204 949.38,-204 949.38,-236"/>
<text text-anchor="start" x="843.88" y="-222.5" font-family="Helvetica,sans-Serif" font-size="10.00">lib/comms/LoRa/LoRa</text>
<text text-anchor="middle" x="892.62" y="-210.5" font-family="Helvetica,sans-Serif" font-size="10.00">&#45;RP2040.cpp</text>
</a>
</g>
</g>
<!-- Node4&#45;&gt;Node5 -->
<g id="edge4_Node000004_Node000005" class="edge">
<title>Node4&#45;&gt;Node5</title>
<g id="a_edge4_Node000004_Node000005"><a xlink:title=" ">
<path fill="none" stroke="#63b8ff" d="M980.55,-266.34C961.76,-256.65 939.75,-245.3 922.45,-236.38"/>
<polygon fill="#63b8ff" stroke="#63b8ff" points="978.78,-269.36 989.27,-270.83 981.99,-263.14 978.78,-269.36"/>
</a>
</g>
</g>
<!-- Node4&#45;&gt;Node6 -->
<g id="edge5_Node000004_Node000006" class="edge">
<title>Node4&#45;&gt;Node6</title>
<g id="a_edge5_Node000004_Node000006"><a xlink:title=" ">
<path fill="none" stroke="#63b8ff" d="M1020.62,-260.31C1020.62,-249.67 1020.62,-238.13 1020.62,-230.32"/>
<polygon fill="#63b8ff" stroke="#63b8ff" points="1017.13,-260.18 1020.63,-270.18 1024.13,-260.18 1017.13,-260.18"/>
</a>
</g>
</g>
<!-- Node6&#45;&gt;Node2 -->
<g id="edge6_Node000006_Node000002" class="edge">
<title>Node6&#45;&gt;Node2</title>
<g id="a_edge6_Node000006_Node000002"><a xlink:title=" ">
<path fill="none" stroke="#63b8ff" d="M1070.1,-206.89C1074.33,-205.89 1078.55,-204.92 1082.62,-204 1158.81,-186.82 1178.64,-186.07 1254.62,-168 1308.32,-155.23 1320.27,-145.63 1374.62,-136 1549.95,-104.95 1597.71,-127.51 1773.62,-100 1785.64,-98.12 1798.71,-95.36 1810.1,-92.71"/>
<polygon fill="#63b8ff" stroke="#63b8ff" points="1069.34,-203.47 1060.42,-209.18 1070.96,-210.28 1069.34,-203.47"/>
</a>
</g>
</g>
<!-- Node7 -->
<g id="Node000007" class="node">
<title>Node7</title>
<g id="a_Node000007"><a xlink:href="commands_8h.html" target="_top" xlink:title=" ">
<polygon fill="white" stroke="#666666" points="265.62,-168 153.62,-168 153.62,-136 265.62,-136 265.62,-168"/>
<text text-anchor="start" x="161.62" y="-154.5" font-family="Helvetica,sans-Serif" font-size="10.00">lib/comms/commands</text>
<text text-anchor="middle" x="209.62" y="-142.5" font-family="Helvetica,sans-Serif" font-size="10.00">/commands.h</text>
</a>
</g>
</g>
<!-- Node6&#45;&gt;Node7 -->
<g id="edge7_Node000006_Node000007" class="edge">
<title>Node6&#45;&gt;Node7</title>
<g id="a_edge7_Node000006_Node000007"><a xlink:title=" ">
<path fill="none" stroke="#63b8ff" d="M974.98,-207.03C969.5,-205.87 963.95,-204.82 958.62,-204 701.95,-164.5 391.1,-155.59 265.89,-153.58"/>
<polygon fill="#63b8ff" stroke="#63b8ff" points="974.07,-210.42 984.6,-209.21 975.62,-203.59 974.07,-210.42"/>
</a>
</g>
</g>
<!-- Node10 -->
<g id="Node000010" class="node">
<title>Node10</title>
<g id="a_Node000010"><a xlink:href="communication_8h.html" target="_top" xlink:title=" ">
<polygon fill="white" stroke="#666666" points="1089.75,-162 951.5,-162 951.5,-142 1089.75,-142 1089.75,-162"/>
<text text-anchor="middle" x="1020.62" y="-148.5" font-family="Helvetica,sans-Serif" font-size="10.00">lib/comms/communication.h</text>
</a>
</g>
</g>
<!-- Node6&#45;&gt;Node10 -->
<g id="edge10_Node000006_Node000010" class="edge">
<title>Node6&#45;&gt;Node10</title>
<g id="a_edge10_Node000006_Node000010"><a xlink:title=" ">
<path fill="none" stroke="#63b8ff" d="M1020.62,-198.28C1020.62,-186.27 1020.62,-171.74 1020.62,-162.44"/>
<polygon fill="#63b8ff" stroke="#63b8ff" points="1017.13,-198.03 1020.63,-208.03 1024.13,-198.03 1017.13,-198.03"/>
</a>
</g>
</g>
<!-- Node20 -->
<g id="Node000020" class="node">
<title>Node20</title>
<g id="a_Node000020"><a xlink:href="event__manager_8cpp.html" target="_top" xlink:title="Implements the event management system for the Kubisat firmware.">
<polygon fill="white" stroke="#666666" points="1634.88,-100 1536.38,-100 1536.38,-68 1634.88,-68 1634.88,-100"/>
<text text-anchor="start" x="1544.38" y="-86.5" font-family="Helvetica,sans-Serif" font-size="10.00">lib/eventman/event</text>
<text text-anchor="middle" x="1585.62" y="-74.5" font-family="Helvetica,sans-Serif" font-size="10.00">_manager.cpp</text>
</a>
</g>
</g>
<!-- Node6&#45;&gt;Node20 -->
<g id="edge28_Node000006_Node000020" class="edge">
<title>Node6&#45;&gt;Node20</title>
<g id="a_edge28_Node000006_Node000020"><a xlink:title=" ">
<path fill="none" stroke="#63b8ff" d="M1058.52,-205.92C1111.64,-187.99 1211.49,-155.76 1298.62,-136 1399.1,-113.21 1426.74,-120.92 1527.62,-100 1530.37,-99.43 1533.19,-98.81 1536.03,-98.17"/>
<polygon fill="#63b8ff" stroke="#63b8ff" points="1057.7,-202.5 1049.35,-209.03 1059.95,-209.13 1057.7,-202.5"/>
</a>
</g>
</g>
<!-- Node21 -->
<g id="Node000021" class="node">
<title>Node21</title>
<g id="a_Node000021"><a xlink:href="test__frame__common_8h.html" target="_top" xlink:title=" ">
<polygon fill="white" stroke="#666666" points="401.25,-100 284,-100 284,-68 401.25,-68 401.25,-100"/>
<text text-anchor="start" x="292" y="-86.5" font-family="Helvetica,sans-Serif" font-size="10.00">test/comms/test_frame</text>
<text text-anchor="middle" x="342.62" y="-74.5" font-family="Helvetica,sans-Serif" font-size="10.00">_common.h</text>
</a>
</g>
</g>
<!-- Node6&#45;&gt;Node21 -->
<g id="edge29_Node000006_Node000021" class="edge">
<title>Node6&#45;&gt;Node21</title>
<g id="a_edge29_Node000006_Node000021"><a xlink:title=" ">
<path fill="none" stroke="#63b8ff" d="M971.91,-206.97C967.43,-205.94 962.95,-204.93 958.62,-204 716.3,-151.73 653.47,-149.82 410.62,-100 407.66,-99.39 404.63,-98.76 401.57,-98.12"/>
<polygon fill="#63b8ff" stroke="#63b8ff" points="970.98,-210.35 981.52,-209.23 972.58,-203.53 970.98,-210.35"/>
</a>
</g>
</g>
<!-- Node8 -->
<g id="Node000008" class="node">
<title>Node8</title>
<g id="a_Node000008"><a xlink:href="commands_8cpp.html" target="_top" xlink:title=" ">
<polygon fill="white" stroke="#666666" points="265.62,-100 153.62,-100 153.62,-68 265.62,-68 265.62,-100"/>
<text text-anchor="start" x="161.62" y="-86.5" font-family="Helvetica,sans-Serif" font-size="10.00">lib/comms/commands</text>
<text text-anchor="middle" x="209.62" y="-74.5" font-family="Helvetica,sans-Serif" font-size="10.00">/commands.cpp</text>
</a>
</g>
</g>
<!-- Node7&#45;&gt;Node8 -->
<g id="edge8_Node000007_Node000008" class="edge">
<title>Node7&#45;&gt;Node8</title>
<g id="a_edge8_Node000007_Node000008"><a xlink:title=" ">
<path fill="none" stroke="#63b8ff" d="M209.62,-124.31C209.62,-116.12 209.62,-107.38 209.62,-100.22"/>
<polygon fill="#63b8ff" stroke="#63b8ff" points="206.13,-124.18 209.63,-134.18 213.13,-124.18 206.13,-124.18"/>
</a>
</g>
</g>
<!-- Node9 -->
<g id="Node000009" class="node">
<title>Node9</title>
<g id="a_Node000009"><a xlink:href="diagnostic__commands_8cpp.html" target="_top" xlink:title=" ">
<polygon fill="white" stroke="#666666" points="135.25,-100 0,-100 0,-68 135.25,-68 135.25,-100"/>
<text text-anchor="start" x="8" y="-86.5" font-family="Helvetica,sans-Serif" font-size="10.00">lib/comms/commands</text>
<text text-anchor="middle" x="67.62" y="-74.5" font-family="Helvetica,sans-Serif" font-size="10.00">/diagnostic_commands.cpp</text>
</a>
</g>
</g>
<!-- Node7&#45;&gt;Node9 -->
<g id="edge9_Node000007_Node000009" class="edge">
<title>Node7&#45;&gt;Node9</title>
<g id="a_edge9_Node000007_Node000009"><a xlink:title=" ">
<path fill="none" stroke="#63b8ff" d="M166.04,-130.74C145,-120.96 120.17,-109.42 100.71,-100.38"/>
<polygon fill="#63b8ff" stroke="#63b8ff" points="164.42,-133.85 174.96,-134.89 167.37,-127.5 164.42,-133.85"/>
</a>
</g>
</g>
<!-- Node10&#45;&gt;Node2 -->
<g id="edge11_Node000010_Node000002" class="edge">
<title>Node10&#45;&gt;Node2</title>
<g id="a_edge11_Node000010_Node000002"><a xlink:title=" ">
<path fill="none" stroke="#63b8ff" d="M1101.27,-147.1C1268,-138.78 1645.75,-118.53 1773.62,-100 1785.66,-98.26 1798.74,-95.52 1810.12,-92.86"/>
<polygon fill="#63b8ff" stroke="#63b8ff" points="1101.44,-143.59 1091.63,-147.58 1101.79,-150.58 1101.44,-143.59"/>
</a>
</g>
</g>
<!-- Node10&#45;&gt;Node8 -->
<g id="edge13_Node000010_Node000008" class="edge">
<title>Node10&#45;&gt;Node8</title>
<g id="a_edge13_Node000010_Node000008"><a xlink:title=" ">
<path fill="none" stroke="#63b8ff" d="M939.84,-149.67C802.47,-146.46 514.89,-135.71 274.62,-100 271.76,-99.57 268.84,-99.09 265.89,-98.56"/>
<polygon fill="#63b8ff" stroke="#63b8ff" points="939.48,-153.16 949.55,-149.88 939.63,-146.16 939.48,-153.16"/>
</a>
</g>
</g>
<!-- Node10&#45;&gt;Node9 -->
<g id="edge14_Node000010_Node000009" class="edge">
<title>Node10&#45;&gt;Node9</title>
<g id="a_edge14_Node000010_Node000009"><a xlink:title=" ">
<path fill="none" stroke="#63b8ff" d="M939.81,-149.91C784.93,-147.03 435.85,-136.68 144.62,-100 141.65,-99.63 138.62,-99.2 135.57,-98.75"/>
<polygon fill="#63b8ff" stroke="#63b8ff" points="939.49,-153.41 949.55,-150.09 939.62,-146.41 939.49,-153.41"/>
</a>
</g>
</g>
<!-- Node11 -->
<g id="Node000011" class="node">
<title>Node11</title>
<g id="a_Node000011"><a xlink:href="clock__commands_8cpp.html" target="_top" xlink:title=" ">
<polygon fill="white" stroke="#666666" points="825.75,-100 711.5,-100 711.5,-68 825.75,-68 825.75,-100"/>
<text text-anchor="start" x="719.5" y="-86.5" font-family="Helvetica,sans-Serif" font-size="10.00">lib/comms/commands</text>
<text text-anchor="middle" x="768.62" y="-74.5" font-family="Helvetica,sans-Serif" font-size="10.00">/clock_commands.cpp</text>
</a>
</g>
</g>
<!-- Node10&#45;&gt;Node11 -->
<g id="edge12_Node000010_Node000011" class="edge">
<title>Node10&#45;&gt;Node11</title>
<g id="a_edge12_Node000010_Node000011"><a xlink:title=" ">
<path fill="none" stroke="#63b8ff" d="M973.55,-138.67C931.8,-127.74 870.7,-111.73 826.08,-100.05"/>
<polygon fill="#63b8ff" stroke="#63b8ff" points="972.49,-142.01 983.06,-141.16 974.27,-135.24 972.49,-142.01"/>
</a>
</g>
</g>
<!-- Node12 -->
<g id="Node000012" class="node">
<title>Node12</title>
<g id="a_Node000012"><a xlink:href="event__commands_8cpp.html" target="_top" xlink:title=" ">
<polygon fill="white" stroke="#666666" points="959.12,-100 844.12,-100 844.12,-68 959.12,-68 959.12,-100"/>
<text text-anchor="start" x="852.12" y="-86.5" font-family="Helvetica,sans-Serif" font-size="10.00">lib/comms/commands</text>
<text text-anchor="middle" x="901.62" y="-74.5" font-family="Helvetica,sans-Serif" font-size="10.00">/event_commands.cpp</text>
</a>
</g>
</g>
<!-- Node10&#45;&gt;Node12 -->
<g id="edge15_Node000010_Node000012" class="edge">
<title>Node10&#45;&gt;Node12</title>
<g id="a_edge15_Node000010_Node000012"><a xlink:title=" ">
<path fill="none" stroke="#63b8ff" d="M993.64,-136.03C974.39,-125.36 948.59,-111.05 929.21,-100.3"/>
<polygon fill="#63b8ff" stroke="#63b8ff" points="991.81,-139.02 1002.25,-140.81 995.2,-132.9 991.81,-139.02"/>
</a>
</g>
</g>
<!-- Node13 -->
<g id="Node000013" class="node">
<title>Node13</title>
<g id="a_Node000013"><a xlink:href="gps__commands_8cpp.html" target="_top" xlink:title=" ">
<polygon fill="white" stroke="#666666" points="1764.62,-100 1652.62,-100 1652.62,-68 1764.62,-68 1764.62,-100"/>
<text text-anchor="start" x="1660.62" y="-86.5" font-family="Helvetica,sans-Serif" font-size="10.00">lib/comms/commands</text>
<text text-anchor="middle" x="1708.62" y="-74.5" font-family="Helvetica,sans-Serif" font-size="10.00">/gps_commands.cpp</text>
</a>
</g>
</g>
<!-- Node10&#45;&gt;Node13 -->
<g id="edge16_Node000010_Node000013" class="edge">
<title>Node10&#45;&gt;Node13</title>
<g id="a_edge16_Node000010_Node000013"><a xlink:title=" ">
<path fill="none" stroke="#63b8ff" d="M1101.34,-148.13C1220.54,-143.06 1450.4,-130.04 1643.62,-100 1646.49,-99.56 1649.41,-99.05 1652.35,-98.51"/>
<polygon fill="#63b8ff" stroke="#63b8ff" points="1101.51,-144.62 1091.67,-148.54 1101.8,-151.62 1101.51,-144.62"/>
</a>
</g>
</g>
<!-- Node14 -->
<g id="Node000014" class="node">
<title>Node14</title>
<g id="a_Node000014"><a xlink:href="power__commands_8cpp.html" target="_top" xlink:title=" ">
<polygon fill="white" stroke="#666666" points="1094.25,-100 977,-100 977,-68 1094.25,-68 1094.25,-100"/>
<text text-anchor="start" x="985" y="-86.5" font-family="Helvetica,sans-Serif" font-size="10.00">lib/comms/commands</text>
<text text-anchor="middle" x="1035.62" y="-74.5" font-family="Helvetica,sans-Serif" font-size="10.00">/power_commands.cpp</text>
</a>
</g>
</g>
<!-- Node10&#45;&gt;Node14 -->
<g id="edge17_Node000010_Node000014" class="edge">
<title>Node10&#45;&gt;Node14</title>
<g id="a_edge17_Node000010_Node000014"><a xlink:title=" ">
<path fill="none" stroke="#63b8ff" d="M1025.3,-130.43C1027.51,-120.69 1030.11,-109.26 1032.15,-100.3"/>
<polygon fill="#63b8ff" stroke="#63b8ff" points="1021.91,-129.54 1023.11,-140.07 1028.74,-131.09 1021.91,-129.54"/>
</a>
</g>
</g>
<!-- Node15 -->
<g id="Node000015" class="node">
<title>Node15</title>
<g id="a_Node000015"><a xlink:href="communication_8cpp.html" target="_top" xlink:title=" ">
<polygon fill="white" stroke="#666666" points="1261,-94 1112.25,-94 1112.25,-74 1261,-74 1261,-94"/>
<text text-anchor="middle" x="1186.62" y="-80.5" font-family="Helvetica,sans-Serif" font-size="10.00">lib/comms/communication.cpp</text>
</a>
</g>
</g>
<!-- Node10&#45;&gt;Node15 -->
<g id="edge18_Node000010_Node000015" class="edge">
<title>Node10&#45;&gt;Node15</title>
<g id="a_edge18_Node000010_Node000015"><a xlink:title=" ">
<path fill="none" stroke="#63b8ff" d="M1054.71,-137.45C1086.97,-124.62 1134.55,-105.7 1162.89,-94.44"/>
<polygon fill="#63b8ff" stroke="#63b8ff" points="1053.81,-134.04 1045.82,-140.98 1056.4,-140.54 1053.81,-134.04"/>
</a>
</g>
</g>
<!-- Node16 -->
<g id="Node000016" class="node">
<title>Node16</title>
<g id="a_Node000016"><a xlink:href="frame_8cpp.html" target="_top" xlink:title="Implements functions for encoding, decoding, building, and processing Frames.">
<polygon fill="white" stroke="#666666" points="1386.38,-94 1278.88,-94 1278.88,-74 1386.38,-74 1386.38,-94"/>
<text text-anchor="middle" x="1332.62" y="-80.5" font-family="Helvetica,sans-Serif" font-size="10.00">lib/comms/frame.cpp</text>
</a>
</g>
</g>
<!-- Node10&#45;&gt;Node16 -->
<g id="edge19_Node000010_Node000016" class="edge">
<title>Node10&#45;&gt;Node16</title>
<g id="a_edge19_Node000010_Node000016"><a xlink:title=" ">
<path fill="none" stroke="#63b8ff" d="M1079.96,-139.4C1130.48,-129.39 1204.94,-114.32 1269.62,-100 1277.42,-98.27 1285.74,-96.35 1293.69,-94.48"/>
<polygon fill="#63b8ff" stroke="#63b8ff" points="1079.54,-135.91 1070.41,-141.29 1080.9,-142.78 1079.54,-135.91"/>
</a>
</g>
</g>
<!-- Node17 -->
<g id="Node000017" class="node">
<title>Node17</title>
<g id="a_Node000017"><a xlink:href="receive_8cpp.html" target="_top" xlink:title="Implements functions for receiving and processing data, including LoRa and UART input.">
<polygon fill="white" stroke="#666666" points="1518.75,-94 1404.5,-94 1404.5,-74 1518.75,-74 1518.75,-94"/>
<text text-anchor="middle" x="1461.62" y="-80.5" font-family="Helvetica,sans-Serif" font-size="10.00">lib/comms/receive.cpp</text>
</a>
</g>
</g>
<!-- Node10&#45;&gt;Node17 -->
<g id="edge20_Node000010_Node000017" class="edge">
<title>Node10&#45;&gt;Node17</title>
<g id="a_edge20_Node000010_Node000017"><a xlink:title=" ">
<path fill="none" stroke="#63b8ff" d="M1101.43,-142.1C1177.59,-133.22 1294.78,-118.28 1395.62,-100 1404.41,-98.41 1413.8,-96.44 1422.65,-94.46"/>
<polygon fill="#63b8ff" stroke="#63b8ff" points="1101.06,-138.62 1091.53,-143.25 1101.87,-145.57 1101.06,-138.62"/>
</a>
</g>
</g>
<!-- Node18 -->
<g id="Node000018" class="node">
<title>Node18</title>
<g id="a_Node000018"><a xlink:href="send_8cpp.html" target="_top" xlink:title="Implements functions for sending data, including LoRa messages and Frames.">
<polygon fill="white" stroke="#666666" points="523.5,-94 419.75,-94 419.75,-74 523.5,-74 523.5,-94"/>
<text text-anchor="middle" x="471.62" y="-80.5" font-family="Helvetica,sans-Serif" font-size="10.00">lib/comms/send.cpp</text>
</a>
</g>
</g>
<!-- Node10&#45;&gt;Node18 -->
<g id="edge21_Node000010_Node000018" class="edge">
<title>Node10&#45;&gt;Node18</title>
<g id="a_edge21_Node000010_Node000018"><a xlink:title=" ">
<path fill="none" stroke="#63b8ff" d="M939.91,-145.97C842.76,-139.12 674.9,-124.81 532.62,-100 524.14,-98.52 515.08,-96.53 506.61,-94.47"/>
<polygon fill="#63b8ff" stroke="#63b8ff" points="939.39,-149.44 949.61,-146.64 939.87,-142.45 939.39,-149.44"/>
</a>
</g>
</g>
<!-- Node19 -->
<g id="Node000019" class="node">
<title>Node19</title>
<g id="a_Node000019"><a xlink:href="utils__converters_8cpp.html" target="_top" xlink:title="Implements utility functions for converting between different data types.">
<polygon fill="white" stroke="#666666" points="693.5,-94 541.75,-94 541.75,-74 693.5,-74 693.5,-94"/>
<text text-anchor="middle" x="617.62" y="-80.5" font-family="Helvetica,sans-Serif" font-size="10.00">lib/comms/utils_converters.cpp</text>
</a>
</g>
</g>
<!-- Node10&#45;&gt;Node19 -->
<g id="edge22_Node000010_Node000019" class="edge">
<title>Node10&#45;&gt;Node19</title>
<g id="a_edge22_Node000010_Node000019"><a xlink:title=" ">
<path fill="none" stroke="#63b8ff" d="M948.36,-139.74C883.87,-129.61 786.89,-114.19 702.62,-100 692.28,-98.26 681.24,-96.35 670.65,-94.49"/>
<polygon fill="#63b8ff" stroke="#63b8ff" points="947.7,-143.18 958.12,-141.27 948.78,-136.26 947.7,-143.18"/>
</a>
</g>
</g>
<!-- Node10&#45;&gt;Node20 -->
<g id="edge23_Node000010_Node000020" class="edge">
<title>Node10&#45;&gt;Node20</title>
<g id="a_edge23_Node000010_Node000020"><a xlink:title=" ">
<path fill="none" stroke="#63b8ff" d="M1101.52,-143.55C1234.04,-131.24 1486.82,-107.28 1527.62,-100 1530.39,-99.51 1533.22,-98.95 1536.06,-98.35"/>
<polygon fill="#63b8ff" stroke="#63b8ff" points="1101.38,-140.04 1091.75,-144.45 1102.03,-147.01 1101.38,-140.04"/>
</a>
</g>
</g>
<!-- Node10&#45;&gt;Node21 -->
<g id="edge24_Node000010_Node000021" class="edge">
<title>Node10&#45;&gt;Node21</title>
<g id="a_edge24_Node000010_Node000021"><a xlink:title=" ">
<path fill="none" stroke="#63b8ff" d="M939.86,-147.69C822.7,-142.11 599,-128.52 410.62,-100 407.64,-99.55 404.58,-99.04 401.51,-98.49"/>
<polygon fill="#63b8ff" stroke="#63b8ff" points="939.54,-151.18 949.69,-148.15 939.87,-144.19 939.54,-151.18"/>
</a>
</g>
</g>
<!-- Node22 -->
<g id="Node000022" class="node">
<title>Node22</title>
<g id="a_Node000022"><a xlink:href="test__converters_8cpp.html" target="_top" xlink:title=" ">
<polygon fill="white" stroke="#666666" points="576.12,-26 419.12,-26 419.12,-6 576.12,-6 576.12,-26"/>
<text text-anchor="middle" x="497.62" y="-12.5" font-family="Helvetica,sans-Serif" font-size="10.00">test/comms/test_converters.cpp</text>
</a>
</g>
</g>
<!-- Node21&#45;&gt;Node22 -->
<g id="edge25_Node000021_Node000022" class="edge">
<title>Node21&#45;&gt;Node22</title>
<g id="a_edge25_Node000021_Node000022"><a xlink:title=" ">
<path fill="none" stroke="#63b8ff" d="M389.52,-63.03C418.02,-50.9 453.09,-35.96 475.41,-26.46"/>
<polygon fill="#63b8ff" stroke="#63b8ff" points="388.19,-59.79 380.36,-66.93 390.93,-66.24 388.19,-59.79"/>
</a>
</g>
</g>
<!-- Node23 -->
<g id="Node000023" class="node">
<title>Node23</title>
<g id="a_Node000023"><a xlink:href="test__frame__build_8cpp.html" target="_top" xlink:title=" ">
<polygon fill="white" stroke="#666666" points="266.25,-32 149,-32 149,0 266.25,0 266.25,-32"/>
<text text-anchor="start" x="157" y="-18.5" font-family="Helvetica,sans-Serif" font-size="10.00">test/comms/test_frame</text>
<text text-anchor="middle" x="207.62" y="-6.5" font-family="Helvetica,sans-Serif" font-size="10.00">_build.cpp</text>
</a>
</g>
</g>
<!-- Node21&#45;&gt;Node23 -->
<g id="edge26_Node000021_Node000023" class="edge">
<title>Node21&#45;&gt;Node23</title>
<g id="a_edge26_Node000021_Node000023"><a xlink:title=" ">
<path fill="none" stroke="#63b8ff" d="M300.64,-62.47C280.75,-52.75 257.41,-41.34 239.08,-32.38"/>
<polygon fill="#63b8ff" stroke="#63b8ff" points="299.09,-65.61 309.61,-66.86 302.17,-59.32 299.09,-65.61"/>
</a>
</g>
</g>
<!-- Node24 -->
<g id="Node000024" class="node">
<title>Node24</title>
<g id="a_Node000024"><a xlink:href="test__frame__coding_8cpp.html" target="_top" xlink:title=" ">
<polygon fill="white" stroke="#666666" points="401.25,-32 284,-32 284,0 401.25,0 401.25,-32"/>
<text text-anchor="start" x="292" y="-18.5" font-family="Helvetica,sans-Serif" font-size="10.00">test/comms/test_frame</text>
<text text-anchor="middle" x="342.62" y="-6.5" font-family="Helvetica,sans-Serif" font-size="10.00">_coding.cpp</text>
</a>
</g>
</g>
<!-- Node21&#45;&gt;Node24 -->
<g id="edge27_Node000021_Node000024" class="edge">
<title>Node21&#45;&gt;Node24</title>
<g id="a_edge27_Node000021_Node000024"><a xlink:title=" ">
<path fill="none" stroke="#63b8ff" d="M342.62,-56.31C342.62,-48.12 342.62,-39.38 342.62,-32.22"/>
<polygon fill="#63b8ff" stroke="#63b8ff" points="339.13,-56.18 342.63,-66.18 346.13,-56.18 339.13,-56.18"/>
</a>
</g>
</g>
<!-- Node25&#45;&gt;Node2 -->
<g id="edge32_Node000025_Node000002" class="edge">
<title>Node25&#45;&gt;Node2</title>
<g id="a_edge32_Node000025_Node000002"><a xlink:title=" ">
<path fill="none" stroke="#63b8ff" d="M1678.34,-275.63C1741.44,-264.78 1825.43,-248.3 1835.62,-236 1870.6,-193.79 1851.8,-119.86 1843.72,-94.13"/>
<polygon fill="#63b8ff" stroke="#63b8ff" points="1677.98,-272.14 1668.71,-277.27 1679.16,-279.04 1677.98,-272.14"/>
</a>
</g>
</g>
<!-- Node25&#45;&gt;Node13 -->
<g id="edge33_Node000025_Node000013" class="edge">
<title>Node25&#45;&gt;Node13</title>
<g id="a_edge33_Node000025_Node000013"><a xlink:title=" ">
<path fill="none" stroke="#63b8ff" d="M1630.61,-270.85C1642,-261.78 1655.1,-249.57 1663.62,-236 1691.56,-191.53 1702.91,-128.83 1706.83,-100.25"/>
<polygon fill="#63b8ff" stroke="#63b8ff" points="1628.65,-267.94 1622.8,-276.77 1632.88,-273.52 1628.65,-267.94"/>
</a>
</g>
</g>
<!-- Node26 -->
<g id="Node000026" class="node">
<title>Node26</title>
<g id="a_Node000026"><a xlink:href="gps__collector_8cpp.html" target="_top" xlink:title=" ">
<polygon fill="white" stroke="#666666" points="1654.62,-230 1512.62,-230 1512.62,-210 1654.62,-210 1654.62,-230"/>
<text text-anchor="middle" x="1583.62" y="-216.5" font-family="Helvetica,sans-Serif" font-size="10.00">lib/location/gps_collector.cpp</text>
</a>
</g>
</g>
<!-- Node25&#45;&gt;Node26 -->
<g id="edge34_Node000025_Node000026" class="edge">
<title>Node25&#45;&gt;Node26</title>
<g id="a_edge34_Node000025_Node000026"><a xlink:title=" ">
<path fill="none" stroke="#63b8ff" d="M1600.36,-267.03C1595.95,-254.89 1590.51,-239.94 1587.06,-230.44"/>
<polygon fill="#63b8ff" stroke="#63b8ff" points="1596.96,-267.92 1603.67,-276.12 1603.54,-265.53 1596.96,-267.92"/>
</a>
</g>
</g>
<!-- Node29&#45;&gt;Node2 -->
<g id="edge38_Node000029_Node000002" class="edge">
<title>Node29&#45;&gt;Node2</title>
<g id="a_edge38_Node000029_Node000002"><a xlink:title=" ">
<path fill="none" stroke="#63b8ff" d="M1819.27,-273.55C1838.14,-265.81 1857.64,-253.93 1868.62,-236 1891.84,-198.1 1879.67,-179.05 1868.62,-136 1864.56,-120.15 1854.43,-103.94 1847.53,-94.17"/>
<polygon fill="#63b8ff" stroke="#63b8ff" points="1818.16,-270.23 1810.02,-277.01 1820.61,-276.79 1818.16,-270.23"/>
</a>
</g>
</g>
<!-- Node30 -->
<g id="Node000030" class="node">
<title>Node30</title>
<g id="a_Node000030"><a xlink:href="storage_8cpp.html" target="_top" xlink:title="Implements file system operations for the Kubisat firmware.">
<polygon fill="white" stroke="#666666" points="1826.12,-230 1711.12,-230 1711.12,-210 1826.12,-210 1826.12,-230"/>
<text text-anchor="middle" x="1768.62" y="-216.5" font-family="Helvetica,sans-Serif" font-size="10.00">lib/storage/storage.cpp</text>
</a>
</g>
</g>
<!-- Node29&#45;&gt;Node30 -->
<g id="edge39_Node000029_Node000030" class="edge">
<title>Node29&#45;&gt;Node30</title>
<g id="a_edge39_Node000029_Node000030"><a xlink:title=" ">
<path fill="none" stroke="#63b8ff" d="M1768.62,-266.28C1768.62,-254.27 1768.62,-239.74 1768.62,-230.44"/>
<polygon fill="#63b8ff" stroke="#63b8ff" points="1765.13,-266.03 1768.63,-276.03 1772.13,-266.03 1765.13,-266.03"/>
</a>
</g>
</g>
<!-- Node31&#45;&gt;Node2 -->
<g id="edge41_Node000031_Node000002" class="edge">
<title>Node31&#45;&gt;Node2</title>
<g id="a_edge41_Node000031_Node000002"><a xlink:title=" ">
<path fill="none" stroke="#63b8ff" d="M1349.96,-266.13C1350.54,-247.38 1354.45,-220.36 1370.62,-204 1386.57,-187.88 1708.72,-114.57 1810.25,-91.78"/>
<polygon fill="#63b8ff" stroke="#63b8ff" points="1346.46,-266.05 1349.99,-276.04 1353.46,-266.04 1346.46,-266.05"/>
</a>
</g>
</g>
<!-- Node31&#45;&gt;Node6 -->
<g id="edge43_Node000031_Node000006" class="edge">
<title>Node31&#45;&gt;Node6</title>
<g id="a_edge43_Node000031_Node000006"><a xlink:title=" ">
<path fill="none" stroke="#63b8ff" d="M1311.67,-280.21C1259.4,-270.95 1163.76,-253.52 1082.62,-236 1074.83,-234.32 1066.52,-232.39 1058.59,-230.5"/>
<polygon fill="#63b8ff" stroke="#63b8ff" points="1310.81,-283.61 1321.26,-281.9 1312.02,-276.72 1310.81,-283.61"/>
</a>
</g>
</g>
<!-- Node31&#45;&gt;Node20 -->
<g id="edge44_Node000031_Node000020" class="edge">
<title>Node31&#45;&gt;Node20</title>
<g id="a_edge44_Node000031_Node000020"><a xlink:title=" ">
<path fill="none" stroke="#63b8ff" d="M1343.77,-266.92C1340.95,-257.63 1338.02,-246.38 1336.62,-236 1330.28,-188.88 1336.66,-164.63 1374.62,-136 1430.4,-93.94 1459.8,-116.75 1527.62,-100 1530.35,-99.33 1533.15,-98.63 1535.97,-97.92"/>
<polygon fill="#63b8ff" stroke="#63b8ff" points="1340.41,-267.88 1346.81,-276.32 1347.07,-265.72 1340.41,-267.88"/>
</a>
</g>
</g>
<!-- Node31&#45;&gt;Node26 -->
<g id="edge45_Node000031_Node000026" class="edge">
<title>Node31&#45;&gt;Node26</title>
<g id="a_edge45_Node000031_Node000026"><a xlink:title=" ">
<path fill="none" stroke="#63b8ff" d="M1389.33,-276.04C1434.34,-263.29 1507.87,-242.46 1550.39,-230.41"/>
<polygon fill="#63b8ff" stroke="#63b8ff" points="1388.39,-272.66 1379.72,-278.76 1390.3,-279.4 1388.39,-272.66"/>
</a>
</g>
</g>
<!-- Node31&#45;&gt;Node28 -->
<g id="edge46_Node000031_Node000028" class="edge">
<title>Node31&#45;&gt;Node28</title>
<g id="a_edge46_Node000031_Node000028"><a xlink:title=" ">
<path fill="none" stroke="#63b8ff" d="M1371.69,-270.83C1385.41,-260.3 1403.2,-246.65 1416.69,-236.3"/>
<polygon fill="#63b8ff" stroke="#63b8ff" points="1369.95,-267.76 1364.15,-276.62 1374.21,-273.31 1369.95,-267.76"/>
</a>
</g>
</g>
<!-- Node31&#45;&gt;Node30 -->
<g id="edge47_Node000031_Node000030" class="edge">
<title>Node31&#45;&gt;Node30</title>
<g id="a_edge47_Node000031_Node000030"><a xlink:title=" ">
<path fill="none" stroke="#63b8ff" d="M1389.45,-280.87C1463.28,-269.21 1624.23,-243.8 1710.79,-230.13"/>
<polygon fill="#63b8ff" stroke="#63b8ff" points="1389.2,-277.37 1379.87,-282.38 1390.29,-284.28 1389.2,-277.37"/>
</a>
</g>
</g>
<!-- Node32 -->
<g id="Node000032" class="node">
<title>Node32</title>
<g id="a_Node000032"><a xlink:href="_d_s3231_8cpp.html" target="_top" xlink:title=" ">
<polygon fill="white" stroke="#666666" points="1284.12,-230 1175.12,-230 1175.12,-210 1284.12,-210 1284.12,-230"/>
<text text-anchor="middle" x="1229.62" y="-216.5" font-family="Helvetica,sans-Serif" font-size="10.00">lib/clock/DS3231.cpp</text>
</a>
</g>
</g>
<!-- Node31&#45;&gt;Node32 -->
<g id="edge42_Node000031_Node000032" class="edge">
<title>Node31&#45;&gt;Node32</title>
<g id="a_edge42_Node000031_Node000032"><a xlink:title=" ">
<path fill="none" stroke="#63b8ff" d="M1323.29,-272.09C1299.87,-259.32 1266.86,-241.31 1246.93,-230.44"/>
<polygon fill="#63b8ff" stroke="#63b8ff" points="1321.5,-275.1 1331.96,-276.82 1324.86,-268.96 1321.5,-275.1"/>
</a>
</g>
</g>
<!-- Node33 -->
<g id="Node000033" class="node">
<title>Node33</title>
<g id="a_Node000033"><a xlink:href="utils_8cpp.html" target="_top" xlink:title="Implements utility functions for the Kubisat firmware.">
<polygon fill="white" stroke="#666666" points="1157.38,-230 1091.88,-230 1091.88,-210 1157.38,-210 1157.38,-230"/>
<text text-anchor="middle" x="1124.62" y="-216.5" font-family="Helvetica,sans-Serif" font-size="10.00">lib/utils.cpp</text>
</a>
</g>
</g>
<!-- Node31&#45;&gt;Node33 -->
<g id="edge48_Node000031_Node000033" class="edge">
<title>Node31&#45;&gt;Node33</title>
<g id="a_edge48_Node000031_Node000033"><a xlink:title=" ">
<path fill="none" stroke="#63b8ff" d="M1311.78,-277.11C1274.38,-267.38 1216.31,-251.74 1166.62,-236 1161.31,-234.32 1155.66,-232.39 1150.29,-230.5"/>
<polygon fill="#63b8ff" stroke="#63b8ff" points="1310.67,-280.44 1321.23,-279.56 1312.43,-273.66 1310.67,-280.44"/>
</a>
</g>
</g>
</g>
</svg>

<g id="navigator" transform="translate(0 0)" fill="#404254">
  <rect fill="#f2f5e9" fill-opacity="0.5" stroke="#606060" stroke-width=".5" x="0" y="0" width="60" height="60"/>
  <use id="zoomplus" xlink:href="#zoomPlus" x="17" y="9" onmousedown="handleZoom(evt,'in')"/>
  <use id="zoomminus" xlink:href="#zoomMin" x="42" y="9" onmousedown="handleZoom(evt,'out')"/>
  <use id="reset" xlink:href="#resetDef" x="30" y="36" onmousedown="handleReset()"/>
   <use id="arrowup" xlink:href="#arrowUp" x="0" y="0" onmousedown="handlePan(0,-1)"/>
  <use id="arrowright" xlink:href="#arrowRight" x="0" y="0" onmousedown="handlePan(1,0)"/>
  <use id="arrowdown" xlink:href="#arrowDown" x="0" y="0" onmousedown="handlePan(0,1)"/>
  <use id="arrowleft" xlink:href="#arrowLeft" x="0" y="0" onmousedown="handlePan(-1,0)"/>
</g>
<svg viewBox="0 0 15 15" width="100%" height="30px" preserveAspectRatio="xMaxYMin meet">
 <g id="arrow_out" transform="scale(0.3 0.3)">
  <a xlink:href="pin__config_8h__dep__incl_org.svg" target="_base">
   <rect id="button" ry="5" rx="5" y="6" x="6" height="38" width="38"
        fill="#f2f5e9" fill-opacity="0.5" stroke="#606060" stroke-width="1.0"/>
   <path id="arrow"
     d="M 11.500037,31.436501 C 11.940474,20.09759 22.043105,11.32322 32.158766,21.979434 L 37.068811,17.246167 C 37.068811,17.246167 37.088388,32 37.088388,32 L 22.160133,31.978069 C 22.160133,31.978069 26.997745,27.140456 26.997745,27.140456 C 18.528582,18.264221 13.291696,25.230495 11.500037,31.436501 z"
     style="fill:#404040;"/>
  </a>
 </g>
</svg>

<style type='text/css'>
<![CDATA[
[data-mouse-over-selected='false'] { opacity: 0.7; }
[data-mouse-over-selected='true']  { opacity: 1.0; }
]]>
</style>
<script type="application/ecmascript"><![CDATA[
document.addEventListener('DOMContentLoaded', (event) => {
  highlightEdges();
  highlightAdjacentNodes();
});
]]></script>
</svg>
