<?xml version="1.0" encoding="UTF-8" standalone="no"?>
<!DOCTYPE svg PUBLIC "-//W3C//DTD SVG 1.1//EN"
 "http://www.w3.org/Graphics/SVG/1.1/DTD/svg11.dtd">
<!-- Generated by graphviz version 12.2.1 (20241206.2353)
 -->
<!-- Title: lib/pin_config.h Pages: 1 -->
<!--zoomable 368 -->

<svg id="main" version="1.1" xmlns="http://www.w3.org/2000/svg" xmlns:xlink="http://www.w3.org/1999/xlink" xml:space="preserve" onload="init(evt)">

<style type="text/css"><![CDATA[
.node, .edge {opacity: 0.7;}
.node.selected, .edge.selected {opacity: 1;}
.edge:hover path { stroke: red; }
.edge:hover polygon { stroke: red; fill: red; }
]]></style>

<defs>
  <circle id="rim" cx="0" cy="0" r="7"/>
  <circle id="rim2" cx="0" cy="0" r="3.5"/>
  <g id="zoomPlus">
    <use xlink:href="#rim" fill="#404040"><set attributeName="fill" to="#808080" begin="zoomplus.mouseover" end="zoomplus.mouseout"/></use>
    <path d="M-4,0h8M0,-4v8" fill="none" stroke="white" stroke-width="1.5" pointer-events="none"/>
  </g>
  <g id="zoomMin">
    <use xlink:href="#rim" fill="#404040"><set attributeName="fill" to="#808080" begin="zoomminus.mouseover" end="zoomminus.mouseout"/></use>
    <path d="M-4,0h8" fill="none" stroke="white" stroke-width="1.5" pointer-events="none"/>
  </g>
  <g id="arrowUp" transform="translate(30 24)">
    <use xlink:href="#rim"/>
    <path pointer-events="none" fill="none" stroke="white" stroke-width="1.5" d="M0,-3.0v7 M-2.5,-0.5L0,-3.0L2.5,-0.5"/>
  </g>
  <g id="arrowRight" transform="rotate(90) translate(36 -43)">
    <use xlink:href="#rim"/>
    <path pointer-events="none" fill="none" stroke="white" stroke-width="1.5" d="M0,-3.0v7 M-2.5,-0.5L0,-3.0L2.5,-0.5"/>
  </g>
  <g id="arrowDown" transform="rotate(180) translate(-30 -48)">
    <use xlink:href="#rim"/>
    <path pointer-events="none" fill="none" stroke="white" stroke-width="1.5" d="M0,-3.0v7 M-2.5,-0.5L0,-3.0L2.5,-0.5"/>
  </g>
  <g id="arrowLeft" transform="rotate(270) translate(-36 17)">
    <use xlink:href="#rim"/>
    <path pointer-events="none" fill="none" stroke="white" stroke-width="1.5" d="M0,-3.0v7 M-2.5,-0.5L0,-3.0L2.5,-0.5"/>
  </g>
  <g id="resetDef">
    <use xlink:href="#rim2" fill="#404040"><set attributeName="fill" to="#808080" begin="reset.mouseover" end="reset.mouseout"/></use>
  </g>
</defs>
<script type="application/ecmascript">
var viewWidth = 2439;
var viewHeight = 368;
var sectionId = 'dynsection-1';
</script>
<script type="application/ecmascript" xlink:href="svg.min.js"/>
<svg id="graph" class="graph">
<g id="viewport">
<title>lib/pin_config.h</title>
<!-- Node1 -->
<g id="Node000001" class="node">
<title>Node1</title>
<g id="a_Node000001"><a xlink:title=" ">
<polygon fill="#999999" stroke="#666666" points="1908.88,-360 1827.62,-360 1827.62,-340 1908.88,-340 1908.88,-360"/>
<text text-anchor="middle" x="1868.25" y="-346.5" font-family="Helvetica,sans-Serif" font-size="10.00">lib/pin_config.h</text>
</a>
</g>
</g>
<!-- Node2 -->
<g id="Node000002" class="node">
<title>Node2</title>
<g id="a_Node000002"><a xlink:href="includes_8h.html" target="_top" xlink:title=" ">
<polygon fill="white" stroke="#666666" points="2005.38,-94 1945.12,-94 1945.12,-74 2005.38,-74 2005.38,-94"/>
<text text-anchor="middle" x="1975.25" y="-80.5" font-family="Helvetica,sans-Serif" font-size="10.00">includes.h</text>
</a>
</g>
</g>
<!-- Node1&#45;&gt;Node2 -->
<g id="edge1_Node000001_Node000002" class="edge">
<title>Node1&#45;&gt;Node2</title>
<g id="a_edge1_Node000001_Node000002"><a xlink:title=" ">
<path fill="none" stroke="#63b8ff" d="M1816.09,-343.62C1766.73,-337.32 1697.79,-324.99 1681.25,-304 1670.15,-289.92 1677.83,-225.48 1689.25,-204 1745.16,-98.83 1822.08,-133.96 1936.25,-100 1941.53,-98.43 1947.12,-96.47 1952.36,-94.49"/>
<polygon fill="#63b8ff" stroke="#63b8ff" points="1815.38,-347.06 1825.73,-344.8 1816.23,-340.11 1815.38,-347.06"/>
</a>
</g>
</g>
<!-- Node4 -->
<g id="Node000004" class="node">
<title>Node4</title>
<g id="a_Node000004"><a xlink:href="_lo_ra-_r_p2040_8h.html" target="_top" xlink:title=" ">
<polygon fill="white" stroke="#666666" points="1482,-304 1368.5,-304 1368.5,-272 1482,-272 1482,-304"/>
<text text-anchor="start" x="1376.5" y="-290.5" font-family="Helvetica,sans-Serif" font-size="10.00">lib/comms/LoRa/LoRa</text>
<text text-anchor="middle" x="1425.25" y="-278.5" font-family="Helvetica,sans-Serif" font-size="10.00">&#45;RP2040.h</text>
</a>
</g>
</g>
<!-- Node1&#45;&gt;Node4 -->
<g id="edge3_Node000001_Node000004" class="edge">
<title>Node1&#45;&gt;Node4</title>
<g id="a_edge3_Node000001_Node000004"><a xlink:title=" ">
<path fill="none" stroke="#63b8ff" d="M1816.11,-341.94C1732.45,-330.61 1568.86,-308.45 1482.23,-296.72"/>
<polygon fill="#63b8ff" stroke="#63b8ff" points="1815.49,-345.39 1825.87,-343.26 1816.43,-338.45 1815.49,-345.39"/>
</a>
</g>
</g>
<!-- Node7 -->
<g id="Node000007" class="node">
<title>Node7</title>
<g id="a_Node000007"><a xlink:href="protocol_8h.html" target="_top" xlink:title=" ">
<polygon fill="white" stroke="#666666" points="1575.62,-230 1468.88,-230 1468.88,-210 1575.62,-210 1575.62,-230"/>
<text text-anchor="middle" x="1522.25" y="-216.5" font-family="Helvetica,sans-Serif" font-size="10.00">lib/comms/protocol.h</text>
</a>
</g>
</g>
<!-- Node1&#45;&gt;Node7 -->
<g id="edge32_Node000001_Node000007" class="edge">
<title>Node1&#45;&gt;Node7</title>
<g id="a_edge32_Node000001_Node000007"><a xlink:title=" ">
<path fill="none" stroke="#63b8ff" d="M1815.98,-346.48C1765.64,-342.41 1688.36,-331.79 1627.25,-304 1586.43,-285.44 1547.48,-247.69 1530.78,-230.23"/>
<polygon fill="#63b8ff" stroke="#63b8ff" points="1815.49,-349.95 1825.72,-347.2 1816.01,-342.97 1815.49,-349.95"/>
</a>
</g>
</g>
<!-- Node26 -->
<g id="Node000026" class="node">
<title>Node26</title>
<g id="a_Node000026"><a xlink:href="gps__collector_8h.html" target="_top" xlink:title=" ">
<polygon fill="white" stroke="#666666" points="1822,-298 1690.5,-298 1690.5,-278 1822,-278 1822,-298"/>
<text text-anchor="middle" x="1756.25" y="-284.5" font-family="Helvetica,sans-Serif" font-size="10.00">lib/location/gps_collector.h</text>
</a>
</g>
</g>
<!-- Node1&#45;&gt;Node26 -->
<g id="edge33_Node000001_Node000026" class="edge">
<title>Node1&#45;&gt;Node26</title>
<g id="a_edge33_Node000001_Node000026"><a xlink:title=" ">
<path fill="none" stroke="#63b8ff" d="M1840.83,-334.31C1819.86,-323.08 1791.58,-307.93 1773.63,-298.31"/>
<polygon fill="#63b8ff" stroke="#63b8ff" points="1838.95,-337.27 1849.42,-338.91 1842.25,-331.1 1838.95,-337.27"/>
</a>
</g>
</g>
<!-- Node28 -->
<g id="Node000028" class="node">
<title>Node28</title>
<g id="a_Node000028"><a xlink:href="pin__config_8cpp.html" target="_top" xlink:title=" ">
<polygon fill="white" stroke="#666666" points="2431.12,-298 2339.38,-298 2339.38,-278 2431.12,-278 2431.12,-298"/>
<text text-anchor="middle" x="2385.25" y="-284.5" font-family="Helvetica,sans-Serif" font-size="10.00">lib/pin_config.cpp</text>
</a>
</g>
</g>
<!-- Node1&#45;&gt;Node28 -->
<g id="edge37_Node000001_Node000028" class="edge">
<title>Node1&#45;&gt;Node28</title>
<g id="a_edge37_Node000001_Node000028"><a xlink:title=" ">
<path fill="none" stroke="#63b8ff" d="M1920.65,-346.78C2006.74,-342.5 2183.24,-331.01 2330.25,-304 2338.04,-302.57 2346.33,-300.57 2354.05,-298.49"/>
<polygon fill="#63b8ff" stroke="#63b8ff" points="1920.69,-343.28 1910.87,-347.26 1921.03,-350.27 1920.69,-343.28"/>
</a>
</g>
</g>
<!-- Node29 -->
<g id="Node000029" class="node">
<title>Node29</title>
<g id="a_Node000029"><a xlink:href="_i_n_a3221_8cpp.html" target="_top" xlink:title=" ">
<polygon fill="white" stroke="#666666" points="2269.75,-236 2154.75,-236 2154.75,-204 2269.75,-204 2269.75,-236"/>
<text text-anchor="start" x="2162.75" y="-222.5" font-family="Helvetica,sans-Serif" font-size="10.00">lib/powerman/INA3221</text>
<text text-anchor="middle" x="2212.25" y="-210.5" font-family="Helvetica,sans-Serif" font-size="10.00">/INA3221.cpp</text>
</a>
</g>
</g>
<!-- Node1&#45;&gt;Node29 -->
<g id="edge38_Node000001_Node000029" class="edge">
<title>Node1&#45;&gt;Node29</title>
<g id="a_edge38_Node000001_Node000029"><a xlink:title=" ">
<path fill="none" stroke="#63b8ff" d="M1907.06,-335.83C1932.73,-327.03 1967.09,-315.08 1997.25,-304 2059.22,-281.24 2130.62,-253.34 2173.55,-236.38"/>
<polygon fill="#63b8ff" stroke="#63b8ff" points="1906.04,-332.48 1897.71,-339.03 1908.3,-339.11 1906.04,-332.48"/>
</a>
</g>
</g>
<!-- Node30 -->
<g id="Node000030" class="node">
<title>Node30</title>
<g id="a_Node000030"><a xlink:href="storage_8h.html" target="_top" xlink:title=" ">
<polygon fill="white" stroke="#666666" points="2321.5,-298 2217,-298 2217,-278 2321.5,-278 2321.5,-298"/>
<text text-anchor="middle" x="2269.25" y="-284.5" font-family="Helvetica,sans-Serif" font-size="10.00">lib/storage/storage.h</text>
</a>
</g>
</g>
<!-- Node1&#45;&gt;Node30 -->
<g id="edge39_Node000001_Node000030" class="edge">
<title>Node1&#45;&gt;Node30</title>
<g id="a_edge39_Node000001_Node000030"><a xlink:title=" ">
<path fill="none" stroke="#63b8ff" d="M1920.56,-341.17C1997.32,-329.69 2139.67,-308.39 2216.62,-296.88"/>
<polygon fill="#63b8ff" stroke="#63b8ff" points="1920.15,-337.7 1910.78,-342.64 1921.18,-344.62 1920.15,-337.7"/>
</a>
</g>
</g>
<!-- Node32 -->
<g id="Node000032" class="node">
<title>Node32</title>
<g id="a_Node000032"><a xlink:href="utils_8h.html" target="_top" xlink:title=" ">
<polygon fill="white" stroke="#666666" points="1987.75,-298 1932.75,-298 1932.75,-278 1987.75,-278 1987.75,-298"/>
<text text-anchor="middle" x="1960.25" y="-284.5" font-family="Helvetica,sans-Serif" font-size="10.00">lib/utils.h</text>
</a>
</g>
</g>
<!-- Node1&#45;&gt;Node32 -->
<g id="edge42_Node000001_Node000032" class="edge">
<title>Node1&#45;&gt;Node32</title>
<g id="a_edge42_Node000001_Node000032"><a xlink:title=" ">
<path fill="none" stroke="#63b8ff" d="M1891.96,-333.54C1909.06,-322.39 1931.57,-307.71 1945.98,-298.31"/>
<polygon fill="#63b8ff" stroke="#63b8ff" points="1890.36,-330.4 1883.89,-338.8 1894.18,-336.27 1890.36,-330.4"/>
</a>
</g>
</g>
<!-- Node3 -->
<g id="Node000003" class="node">
<title>Node3</title>
<g id="a_Node000003"><a xlink:href="main_8cpp.html" target="_top" xlink:title=" ">
<polygon fill="white" stroke="#666666" points="2003.12,-26 1947.38,-26 1947.38,-6 2003.12,-6 2003.12,-26"/>
<text text-anchor="middle" x="1975.25" y="-12.5" font-family="Helvetica,sans-Serif" font-size="10.00">main.cpp</text>
</a>
</g>
</g>
<!-- Node2&#45;&gt;Node3 -->
<g id="edge2_Node000002_Node000003" class="edge">
<title>Node2&#45;&gt;Node3</title>
<g id="a_edge2_Node000002_Node000003"><a xlink:title=" ">
<path fill="none" stroke="#63b8ff" d="M1975.25,-62.28C1975.25,-50.27 1975.25,-35.74 1975.25,-26.44"/>
<polygon fill="#63b8ff" stroke="#63b8ff" points="1971.75,-62.03 1975.25,-72.03 1978.75,-62.03 1971.75,-62.03"/>
</a>
</g>
</g>
<!-- Node5 -->
<g id="Node000005" class="node">
<title>Node5</title>
<g id="a_Node000005"><a xlink:href="_lo_ra-_r_p2040_8cpp.html" target="_top" xlink:title=" ">
<polygon fill="white" stroke="#666666" points="1451,-236 1337.5,-236 1337.5,-204 1451,-204 1451,-236"/>
<text text-anchor="start" x="1345.5" y="-222.5" font-family="Helvetica,sans-Serif" font-size="10.00">lib/comms/LoRa/LoRa</text>
<text text-anchor="middle" x="1394.25" y="-210.5" font-family="Helvetica,sans-Serif" font-size="10.00">&#45;RP2040.cpp</text>
</a>
</g>
</g>
<!-- Node4&#45;&gt;Node5 -->
<g id="edge4_Node000004_Node000005" class="edge">
<title>Node4&#45;&gt;Node5</title>
<g id="a_edge4_Node000004_Node000005"><a xlink:title=" ">
<path fill="none" stroke="#63b8ff" d="M1413.25,-261.45C1409.25,-252.93 1404.92,-243.71 1401.4,-236.22"/>
<polygon fill="#63b8ff" stroke="#63b8ff" points="1410,-262.76 1417.42,-270.32 1416.33,-259.78 1410,-262.76"/>
</a>
</g>
</g>
<!-- Node6 -->
<g id="Node000006" class="node">
<title>Node6</title>
<g id="a_Node000006"><a xlink:href="storage__commands__utils_8cpp.html" target="_top" xlink:title=" ">
<polygon fill="white" stroke="#666666" points="146.5,-100 0,-100 0,-68 146.5,-68 146.5,-100"/>
<text text-anchor="start" x="8" y="-86.5" font-family="Helvetica,sans-Serif" font-size="10.00">lib/comms/commands</text>
<text text-anchor="middle" x="73.25" y="-74.5" font-family="Helvetica,sans-Serif" font-size="10.00">/storage_commands_utils.cpp</text>
</a>
</g>
</g>
<!-- Node4&#45;&gt;Node6 -->
<g id="edge5_Node000004_Node000006" class="edge">
<title>Node4&#45;&gt;Node6</title>
<g id="a_edge5_Node000004_Node000006"><a xlink:title=" ">
<path fill="none" stroke="#63b8ff" d="M1356.59,-285.7C1179.02,-281.05 691.05,-260.2 297.25,-168 227.39,-151.64 149.65,-119.49 106.59,-100.36"/>
<polygon fill="#63b8ff" stroke="#63b8ff" points="1356.48,-289.19 1366.57,-285.95 1356.66,-282.2 1356.48,-289.19"/>
</a>
</g>
</g>
<!-- Node4&#45;&gt;Node7 -->
<g id="edge6_Node000004_Node000007" class="edge">
<title>Node4&#45;&gt;Node7</title>
<g id="a_edge6_Node000004_Node000007"><a xlink:title=" ">
<path fill="none" stroke="#63b8ff" d="M1457.04,-265.37C1474.49,-253.5 1495.23,-239.39 1508.56,-230.32"/>
<polygon fill="#63b8ff" stroke="#63b8ff" points="1455.3,-262.32 1449,-270.84 1459.24,-268.11 1455.3,-262.32"/>
</a>
</g>
</g>
<!-- Node7&#45;&gt;Node2 -->
<g id="edge7_Node000007_Node000002" class="edge">
<title>Node7&#45;&gt;Node2</title>
<g id="a_edge7_Node000007_Node000002"><a xlink:title=" ">
<path fill="none" stroke="#63b8ff" d="M1543.65,-202.92C1570.52,-183.62 1618.76,-151.87 1665.25,-136 1780.24,-96.74 1818.51,-130.02 1936.25,-100 1941.87,-98.57 1947.79,-96.56 1953.27,-94.49"/>
<polygon fill="#63b8ff" stroke="#63b8ff" points="1541.67,-200.03 1535.66,-208.75 1545.8,-205.68 1541.67,-200.03"/>
</a>
</g>
</g>
<!-- Node8 -->
<g id="Node000008" class="node">
<title>Node8</title>
<g id="a_Node000008"><a xlink:href="commands_8h.html" target="_top" xlink:title=" ">
<polygon fill="white" stroke="#666666" points="418.25,-168 306.25,-168 306.25,-136 418.25,-136 418.25,-168"/>
<text text-anchor="start" x="314.25" y="-154.5" font-family="Helvetica,sans-Serif" font-size="10.00">lib/comms/commands</text>
<text text-anchor="middle" x="362.25" y="-142.5" font-family="Helvetica,sans-Serif" font-size="10.00">/commands.h</text>
</a>
</g>
</g>
<!-- Node7&#45;&gt;Node8 -->
<g id="edge8_Node000007_Node000008" class="edge">
<title>Node7&#45;&gt;Node8</title>
<g id="a_edge8_Node000007_Node000008"><a xlink:title=" ">
<path fill="none" stroke="#63b8ff" d="M1477.47,-207.1C1471.71,-205.88 1465.86,-204.8 1460.25,-204 1434.23,-200.28 639.34,-165.17 418.61,-155.47"/>
<polygon fill="#63b8ff" stroke="#63b8ff" points="1476.36,-210.44 1486.89,-209.23 1477.91,-203.61 1476.36,-210.44"/>
</a>
</g>
</g>
<!-- Node11 -->
<g id="Node000011" class="node">
<title>Node11</title>
<g id="a_Node000011"><a xlink:href="communication_8h.html" target="_top" xlink:title=" ">
<polygon fill="white" stroke="#666666" points="1182.38,-162 1044.12,-162 1044.12,-142 1182.38,-142 1182.38,-162"/>
<text text-anchor="middle" x="1113.25" y="-148.5" font-family="Helvetica,sans-Serif" font-size="10.00">lib/comms/communication.h</text>
</a>
</g>
</g>
<!-- Node7&#45;&gt;Node11 -->
<g id="edge11_Node000007_Node000011" class="edge">
<title>Node7&#45;&gt;Node11</title>
<g id="a_edge11_Node000007_Node000011"><a xlink:title=" ">
<path fill="none" stroke="#63b8ff" d="M1474.53,-206.99C1469.72,-205.92 1464.9,-204.9 1460.25,-204 1364.61,-185.44 1252.97,-170.16 1182.69,-161.31"/>
<polygon fill="#63b8ff" stroke="#63b8ff" points="1473.65,-210.38 1484.18,-209.22 1475.22,-203.56 1473.65,-210.38"/>
</a>
</g>
</g>
<!-- Node21 -->
<g id="Node000021" class="node">
<title>Node21</title>
<g id="a_Node000021"><a xlink:href="event__manager_8cpp.html" target="_top" xlink:title="Implements the event management system for the Kubisat firmware.">
<polygon fill="white" stroke="#666666" points="1927.5,-100 1829,-100 1829,-68 1927.5,-68 1927.5,-100"/>
<text text-anchor="start" x="1837" y="-86.5" font-family="Helvetica,sans-Serif" font-size="10.00">lib/eventman/event</text>
<text text-anchor="middle" x="1878.25" y="-74.5" font-family="Helvetica,sans-Serif" font-size="10.00">_manager.cpp</text>
</a>
</g>
</g>
<!-- Node7&#45;&gt;Node21 -->
<g id="edge30_Node000007_Node000021" class="edge">
<title>Node7&#45;&gt;Node21</title>
<g id="a_edge30_Node000007_Node000021"><a xlink:title=" ">
<path fill="none" stroke="#63b8ff" d="M1523.32,-198.08C1525.49,-178.87 1531.85,-151.16 1550.25,-136 1596.97,-97.52 1760.84,-111.6 1820.25,-100 1823.01,-99.46 1825.83,-98.87 1828.67,-98.24"/>
<polygon fill="#63b8ff" stroke="#63b8ff" points="1519.83,-197.76 1522.52,-208 1526.81,-198.31 1519.83,-197.76"/>
</a>
</g>
</g>
<!-- Node22 -->
<g id="Node000022" class="node">
<title>Node22</title>
<g id="a_Node000022"><a xlink:href="test__frame__common_8h.html" target="_top" xlink:title=" ">
<polygon fill="white" stroke="#666666" points="564.88,-100 447.62,-100 447.62,-68 564.88,-68 564.88,-100"/>
<text text-anchor="start" x="455.62" y="-86.5" font-family="Helvetica,sans-Serif" font-size="10.00">test/comms/test_frame</text>
<text text-anchor="middle" x="506.25" y="-74.5" font-family="Helvetica,sans-Serif" font-size="10.00">_common.h</text>
</a>
</g>
</g>
<!-- Node7&#45;&gt;Node22 -->
<g id="edge31_Node000007_Node000022" class="edge">
<title>Node7&#45;&gt;Node22</title>
<g id="a_edge31_Node000007_Node000022"><a xlink:title=" ">
<path fill="none" stroke="#63b8ff" d="M1476.39,-207.08C1470.98,-205.92 1465.51,-204.85 1460.25,-204 1273.13,-173.62 1223.56,-189.81 1035.25,-168 829.08,-144.12 777.32,-137.81 573.25,-100 570.55,-99.5 567.8,-98.97 565.03,-98.42"/>
<polygon fill="#63b8ff" stroke="#63b8ff" points="1475.35,-210.43 1485.88,-209.23 1476.9,-203.6 1475.35,-210.43"/>
</a>
</g>
</g>
<!-- Node9 -->
<g id="Node000009" class="node">
<title>Node9</title>
<g id="a_Node000009"><a xlink:href="commands_8cpp.html" target="_top" xlink:title=" ">
<polygon fill="white" stroke="#666666" points="276.25,-100 164.25,-100 164.25,-68 276.25,-68 276.25,-100"/>
<text text-anchor="start" x="172.25" y="-86.5" font-family="Helvetica,sans-Serif" font-size="10.00">lib/comms/commands</text>
<text text-anchor="middle" x="220.25" y="-74.5" font-family="Helvetica,sans-Serif" font-size="10.00">/commands.cpp</text>
</a>
</g>
</g>
<!-- Node8&#45;&gt;Node9 -->
<g id="edge9_Node000008_Node000009" class="edge">
<title>Node8&#45;&gt;Node9</title>
<g id="a_edge9_Node000008_Node000009"><a xlink:title=" ">
<path fill="none" stroke="#63b8ff" d="M318.66,-130.74C297.62,-120.96 272.79,-109.42 253.33,-100.38"/>
<polygon fill="#63b8ff" stroke="#63b8ff" points="317.04,-133.85 327.58,-134.89 319.99,-127.5 317.04,-133.85"/>
</a>
</g>
</g>
<!-- Node10 -->
<g id="Node000010" class="node">
<title>Node10</title>
<g id="a_Node000010"><a xlink:href="diagnostic__commands_8cpp.html" target="_top" xlink:title=" ">
<polygon fill="white" stroke="#666666" points="429.88,-100 294.62,-100 294.62,-68 429.88,-68 429.88,-100"/>
<text text-anchor="start" x="302.62" y="-86.5" font-family="Helvetica,sans-Serif" font-size="10.00">lib/comms/commands</text>
<text text-anchor="middle" x="362.25" y="-74.5" font-family="Helvetica,sans-Serif" font-size="10.00">/diagnostic_commands.cpp</text>
</a>
</g>
</g>
<!-- Node8&#45;&gt;Node10 -->
<g id="edge10_Node000008_Node000010" class="edge">
<title>Node8&#45;&gt;Node10</title>
<g id="a_edge10_Node000008_Node000010"><a xlink:title=" ">
<path fill="none" stroke="#63b8ff" d="M362.25,-124.31C362.25,-116.12 362.25,-107.38 362.25,-100.22"/>
<polygon fill="#63b8ff" stroke="#63b8ff" points="358.75,-124.18 362.25,-134.18 365.75,-124.18 358.75,-124.18"/>
</a>
</g>
</g>
<!-- Node11&#45;&gt;Node2 -->
<g id="edge12_Node000011_Node000002" class="edge">
<title>Node11&#45;&gt;Node2</title>
<g id="a_edge12_Node000011_Node000002"><a xlink:title=" ">
<path fill="none" stroke="#63b8ff" d="M1194.13,-149.12C1372.8,-144.46 1796.39,-130.47 1936.25,-100 1942.2,-98.7 1948.45,-96.64 1954.15,-94.46"/>
<polygon fill="#63b8ff" stroke="#63b8ff" points="1194.14,-145.62 1184.23,-149.37 1194.32,-152.62 1194.14,-145.62"/>
</a>
</g>
</g>
<!-- Node11&#45;&gt;Node6 -->
<g id="edge19_Node000011_Node000006" class="edge">
<title>Node11&#45;&gt;Node6</title>
<g id="a_edge19_Node000011_Node000006"><a xlink:title=" ">
<path fill="none" stroke="#63b8ff" d="M1032.85,-150.18C867.8,-147.74 479.05,-138.08 155.25,-100 152.52,-99.68 149.74,-99.32 146.94,-98.94"/>
<polygon fill="#63b8ff" stroke="#63b8ff" points="1032.3,-153.67 1042.35,-150.32 1032.4,-146.68 1032.3,-153.67"/>
</a>
</g>
</g>
<!-- Node11&#45;&gt;Node9 -->
<g id="edge14_Node000011_Node000009" class="edge">
<title>Node11&#45;&gt;Node9</title>
<g id="a_edge14_Node000011_Node000009"><a xlink:title=" ">
<path fill="none" stroke="#63b8ff" d="M1032.64,-150.45C884.07,-148.45 557.34,-139.5 285.25,-100 282.38,-99.58 279.46,-99.11 276.51,-98.58"/>
<polygon fill="#63b8ff" stroke="#63b8ff" points="1032.33,-153.94 1042.37,-150.57 1032.42,-146.94 1032.33,-153.94"/>
</a>
</g>
</g>
<!-- Node11&#45;&gt;Node10 -->
<g id="edge15_Node000011_Node000010" class="edge">
<title>Node11&#45;&gt;Node10</title>
<g id="a_edge15_Node000011_Node000010"><a xlink:title=" ">
<path fill="none" stroke="#63b8ff" d="M1032.84,-148.03C905.99,-142.65 651.89,-129.05 438.25,-100 435.58,-99.64 432.87,-99.24 430.14,-98.82"/>
<polygon fill="#63b8ff" stroke="#63b8ff" points="1032.32,-151.51 1042.46,-148.43 1032.61,-144.52 1032.32,-151.51"/>
</a>
</g>
</g>
<!-- Node12 -->
<g id="Node000012" class="node">
<title>Node12</title>
<g id="a_Node000012"><a xlink:href="clock__commands_8cpp.html" target="_top" xlink:title=" ">
<polygon fill="white" stroke="#666666" points="1246.38,-100 1132.12,-100 1132.12,-68 1246.38,-68 1246.38,-100"/>
<text text-anchor="start" x="1140.12" y="-86.5" font-family="Helvetica,sans-Serif" font-size="10.00">lib/comms/commands</text>
<text text-anchor="middle" x="1189.25" y="-74.5" font-family="Helvetica,sans-Serif" font-size="10.00">/clock_commands.cpp</text>
</a>
</g>
</g>
<!-- Node11&#45;&gt;Node12 -->
<g id="edge13_Node000011_Node000012" class="edge">
<title>Node11&#45;&gt;Node12</title>
<g id="a_edge13_Node000011_Node000012"><a xlink:title=" ">
<path fill="none" stroke="#63b8ff" d="M1132.57,-134.22C1144.59,-123.78 1159.94,-110.45 1171.63,-100.3"/>
<polygon fill="#63b8ff" stroke="#63b8ff" points="1130.54,-131.35 1125.28,-140.55 1135.13,-136.64 1130.54,-131.35"/>
</a>
</g>
</g>
<!-- Node13 -->
<g id="Node000013" class="node">
<title>Node13</title>
<g id="a_Node000013"><a xlink:href="event__commands_8cpp.html" target="_top" xlink:title=" ">
<polygon fill="white" stroke="#666666" points="1379.75,-100 1264.75,-100 1264.75,-68 1379.75,-68 1379.75,-100"/>
<text text-anchor="start" x="1272.75" y="-86.5" font-family="Helvetica,sans-Serif" font-size="10.00">lib/comms/commands</text>
<text text-anchor="middle" x="1322.25" y="-74.5" font-family="Helvetica,sans-Serif" font-size="10.00">/event_commands.cpp</text>
</a>
</g>
</g>
<!-- Node11&#45;&gt;Node13 -->
<g id="edge16_Node000011_Node000013" class="edge">
<title>Node11&#45;&gt;Node13</title>
<g id="a_edge16_Node000011_Node000013"><a xlink:title=" ">
<path fill="none" stroke="#63b8ff" d="M1153.74,-138.21C1187.94,-127.41 1237.02,-111.92 1273.4,-100.43"/>
<polygon fill="#63b8ff" stroke="#63b8ff" points="1153.12,-134.74 1144.64,-141.09 1155.23,-141.41 1153.12,-134.74"/>
</a>
</g>
</g>
<!-- Node14 -->
<g id="Node000014" class="node">
<title>Node14</title>
<g id="a_Node000014"><a xlink:href="gps__commands_8cpp.html" target="_top" xlink:title=" ">
<polygon fill="white" stroke="#666666" points="1811.25,-100 1699.25,-100 1699.25,-68 1811.25,-68 1811.25,-100"/>
<text text-anchor="start" x="1707.25" y="-86.5" font-family="Helvetica,sans-Serif" font-size="10.00">lib/comms/commands</text>
<text text-anchor="middle" x="1755.25" y="-74.5" font-family="Helvetica,sans-Serif" font-size="10.00">/gps_commands.cpp</text>
</a>
</g>
</g>
<!-- Node11&#45;&gt;Node14 -->
<g id="edge17_Node000011_Node000014" class="edge">
<title>Node11&#45;&gt;Node14</title>
<g id="a_edge17_Node000011_Node000014"><a xlink:title=" ">
<path fill="none" stroke="#63b8ff" d="M1193.64,-147.42C1305.53,-141.63 1514.29,-127.94 1690.25,-100 1693.11,-99.55 1696.03,-99.04 1698.97,-98.49"/>
<polygon fill="#63b8ff" stroke="#63b8ff" points="1193.78,-143.91 1183.98,-147.91 1194.14,-150.9 1193.78,-143.91"/>
</a>
</g>
</g>
<!-- Node15 -->
<g id="Node000015" class="node">
<title>Node15</title>
<g id="a_Node000015"><a xlink:href="power__commands_8cpp.html" target="_top" xlink:title=" ">
<polygon fill="white" stroke="#666666" points="1514.88,-100 1397.62,-100 1397.62,-68 1514.88,-68 1514.88,-100"/>
<text text-anchor="start" x="1405.62" y="-86.5" font-family="Helvetica,sans-Serif" font-size="10.00">lib/comms/commands</text>
<text text-anchor="middle" x="1456.25" y="-74.5" font-family="Helvetica,sans-Serif" font-size="10.00">/power_commands.cpp</text>
</a>
</g>
</g>
<!-- Node11&#45;&gt;Node15 -->
<g id="edge18_Node000011_Node000015" class="edge">
<title>Node11&#45;&gt;Node15</title>
<g id="a_edge18_Node000011_Node000015"><a xlink:title=" ">
<path fill="none" stroke="#63b8ff" d="M1178.5,-139.54C1234.3,-129.58 1316.68,-114.53 1388.25,-100 1391.21,-99.4 1394.24,-98.77 1397.3,-98.13"/>
<polygon fill="#63b8ff" stroke="#63b8ff" points="1178.08,-136.06 1168.85,-141.26 1179.31,-142.95 1178.08,-136.06"/>
</a>
</g>
</g>
<!-- Node16 -->
<g id="Node000016" class="node">
<title>Node16</title>
<g id="a_Node000016"><a xlink:href="communication_8cpp.html" target="_top" xlink:title=" ">
<polygon fill="white" stroke="#666666" points="1681.62,-94 1532.88,-94 1532.88,-74 1681.62,-74 1681.62,-94"/>
<text text-anchor="middle" x="1607.25" y="-80.5" font-family="Helvetica,sans-Serif" font-size="10.00">lib/comms/communication.cpp</text>
</a>
</g>
</g>
<!-- Node11&#45;&gt;Node16 -->
<g id="edge20_Node000011_Node000016" class="edge">
<title>Node11&#45;&gt;Node16</title>
<g id="a_edge20_Node000011_Node000016"><a xlink:title=" ">
<path fill="none" stroke="#63b8ff" d="M1194.24,-142.29C1277.26,-133.05 1410.03,-117.39 1524.25,-100 1534.96,-98.37 1546.42,-96.43 1557.29,-94.49"/>
<polygon fill="#63b8ff" stroke="#63b8ff" points="1193.92,-138.8 1184.36,-143.38 1194.69,-145.76 1193.92,-138.8"/>
</a>
</g>
</g>
<!-- Node17 -->
<g id="Node000017" class="node">
<title>Node17</title>
<g id="a_Node000017"><a xlink:href="frame_8cpp.html" target="_top" xlink:title="Implements functions for encoding, decoding, building, and processing Frames.">
<polygon fill="white" stroke="#666666" points="690,-94 582.5,-94 582.5,-74 690,-74 690,-94"/>
<text text-anchor="middle" x="636.25" y="-80.5" font-family="Helvetica,sans-Serif" font-size="10.00">lib/comms/frame.cpp</text>
</a>
</g>
</g>
<!-- Node11&#45;&gt;Node17 -->
<g id="edge21_Node000011_Node000017" class="edge">
<title>Node11&#45;&gt;Node17</title>
<g id="a_edge21_Node000011_Node000017"><a xlink:title=" ">
<path fill="none" stroke="#63b8ff" d="M1032.45,-143.73C948.72,-135.57 814.24,-120.71 699.25,-100 690.73,-98.47 681.64,-96.5 673.08,-94.49"/>
<polygon fill="#63b8ff" stroke="#63b8ff" points="1031.88,-147.19 1042.17,-144.67 1032.55,-140.22 1031.88,-147.19"/>
</a>
</g>
</g>
<!-- Node18 -->
<g id="Node000018" class="node">
<title>Node18</title>
<g id="a_Node000018"><a xlink:href="receive_8cpp.html" target="_top" xlink:title="Implements functions for receiving and processing data, including LoRa and UART input.">
<polygon fill="white" stroke="#666666" points="822.38,-94 708.12,-94 708.12,-74 822.38,-74 822.38,-94"/>
<text text-anchor="middle" x="765.25" y="-80.5" font-family="Helvetica,sans-Serif" font-size="10.00">lib/comms/receive.cpp</text>
</a>
</g>
</g>
<!-- Node11&#45;&gt;Node18 -->
<g id="edge22_Node000011_Node000018" class="edge">
<title>Node11&#45;&gt;Node18</title>
<g id="a_edge22_Node000011_Node000018"><a xlink:title=" ">
<path fill="none" stroke="#63b8ff" d="M1045.59,-139.63C988.36,-129.81 904.26,-114.89 831.25,-100 822.96,-98.31 814.11,-96.38 805.68,-94.49"/>
<polygon fill="#63b8ff" stroke="#63b8ff" points="1044.72,-143.04 1055.17,-141.27 1045.9,-136.14 1044.72,-143.04"/>
</a>
</g>
</g>
<!-- Node19 -->
<g id="Node000019" class="node">
<title>Node19</title>
<g id="a_Node000019"><a xlink:href="send_8cpp.html" target="_top" xlink:title="Implements functions for sending data, including LoRa messages and Frames.">
<polygon fill="white" stroke="#666666" points="944.12,-94 840.38,-94 840.38,-74 944.12,-74 944.12,-94"/>
<text text-anchor="middle" x="892.25" y="-80.5" font-family="Helvetica,sans-Serif" font-size="10.00">lib/comms/send.cpp</text>
</a>
</g>
</g>
<!-- Node11&#45;&gt;Node19 -->
<g id="edge23_Node000011_Node000019" class="edge">
<title>Node11&#45;&gt;Node19</title>
<g id="a_edge23_Node000011_Node000019"><a xlink:title=" ">
<path fill="none" stroke="#63b8ff" d="M1070.64,-138.28C1027.69,-125.45 962.39,-105.95 923.86,-94.44"/>
<polygon fill="#63b8ff" stroke="#63b8ff" points="1069.55,-141.6 1080.14,-141.11 1071.56,-134.9 1069.55,-141.6"/>
</a>
</g>
</g>
<!-- Node20 -->
<g id="Node000020" class="node">
<title>Node20</title>
<g id="a_Node000020"><a xlink:href="utils__converters_8cpp.html" target="_top" xlink:title="Implements utility functions for converting between different data types.">
<polygon fill="white" stroke="#666666" points="1114.12,-94 962.38,-94 962.38,-74 1114.12,-74 1114.12,-94"/>
<text text-anchor="middle" x="1038.25" y="-80.5" font-family="Helvetica,sans-Serif" font-size="10.00">lib/comms/utils_converters.cpp</text>
</a>
</g>
</g>
<!-- Node11&#45;&gt;Node20 -->
<g id="edge24_Node000011_Node000020" class="edge">
<title>Node11&#45;&gt;Node20</title>
<g id="a_edge24_Node000011_Node000020"><a xlink:title=" ">
<path fill="none" stroke="#63b8ff" d="M1093.9,-133.97C1079.6,-121.39 1060.66,-104.72 1048.98,-94.44"/>
<polygon fill="#63b8ff" stroke="#63b8ff" points="1091.55,-136.57 1101.37,-140.54 1096.17,-131.31 1091.55,-136.57"/>
</a>
</g>
</g>
<!-- Node11&#45;&gt;Node21 -->
<g id="edge25_Node000011_Node000021" class="edge">
<title>Node11&#45;&gt;Node21</title>
<g id="a_edge25_Node000011_Node000021"><a xlink:title=" ">
<path fill="none" stroke="#63b8ff" d="M1193.9,-149.92C1325.75,-147.09 1595.31,-136.89 1820.25,-100 1823.02,-99.55 1825.85,-99.02 1828.7,-98.44"/>
<polygon fill="#63b8ff" stroke="#63b8ff" points="1194.17,-146.41 1184.24,-150.12 1194.31,-153.41 1194.17,-146.41"/>
</a>
</g>
</g>
<!-- Node11&#45;&gt;Node22 -->
<g id="edge26_Node000011_Node000022" class="edge">
<title>Node11&#45;&gt;Node22</title>
<g id="a_edge26_Node000011_Node000022"><a xlink:title=" ">
<path fill="none" stroke="#63b8ff" d="M1032.62,-146.57C926.73,-140.02 735.22,-125.68 573.25,-100 570.66,-99.59 568.02,-99.14 565.36,-98.66"/>
<polygon fill="#63b8ff" stroke="#63b8ff" points="1032.15,-150.04 1042.34,-147.16 1032.57,-143.06 1032.15,-150.04"/>
</a>
</g>
</g>
<!-- Node23 -->
<g id="Node000023" class="node">
<title>Node23</title>
<g id="a_Node000023"><a xlink:href="test__converters_8cpp.html" target="_top" xlink:title=" ">
<polygon fill="white" stroke="#666666" points="429.75,-26 272.75,-26 272.75,-6 429.75,-6 429.75,-26"/>
<text text-anchor="middle" x="351.25" y="-12.5" font-family="Helvetica,sans-Serif" font-size="10.00">test/comms/test_converters.cpp</text>
</a>
</g>
</g>
<!-- Node22&#45;&gt;Node23 -->
<g id="edge27_Node000022_Node000023" class="edge">
<title>Node22&#45;&gt;Node23</title>
<g id="a_edge27_Node000022_Node000023"><a xlink:title=" ">
<path fill="none" stroke="#63b8ff" d="M459.35,-63.03C430.85,-50.9 395.78,-35.96 373.47,-26.46"/>
<polygon fill="#63b8ff" stroke="#63b8ff" points="457.94,-66.24 468.52,-66.93 460.69,-59.79 457.94,-66.24"/>
</a>
</g>
</g>
<!-- Node24 -->
<g id="Node000024" class="node">
<title>Node24</title>
<g id="a_Node000024"><a xlink:href="test__frame__build_8cpp.html" target="_top" xlink:title=" ">
<polygon fill="white" stroke="#666666" points="564.88,-32 447.62,-32 447.62,0 564.88,0 564.88,-32"/>
<text text-anchor="start" x="455.62" y="-18.5" font-family="Helvetica,sans-Serif" font-size="10.00">test/comms/test_frame</text>
<text text-anchor="middle" x="506.25" y="-6.5" font-family="Helvetica,sans-Serif" font-size="10.00">_build.cpp</text>
</a>
</g>
</g>
<!-- Node22&#45;&gt;Node24 -->
<g id="edge28_Node000022_Node000024" class="edge">
<title>Node22&#45;&gt;Node24</title>
<g id="a_edge28_Node000022_Node000024"><a xlink:title=" ">
<path fill="none" stroke="#63b8ff" d="M506.25,-56.31C506.25,-48.12 506.25,-39.38 506.25,-32.22"/>
<polygon fill="#63b8ff" stroke="#63b8ff" points="502.75,-56.18 506.25,-66.18 509.75,-56.18 502.75,-56.18"/>
</a>
</g>
</g>
<!-- Node25 -->
<g id="Node000025" class="node">
<title>Node25</title>
<g id="a_Node000025"><a xlink:href="test__frame__coding_8cpp.html" target="_top" xlink:title=" ">
<polygon fill="white" stroke="#666666" points="699.88,-32 582.62,-32 582.62,0 699.88,0 699.88,-32"/>
<text text-anchor="start" x="590.62" y="-18.5" font-family="Helvetica,sans-Serif" font-size="10.00">test/comms/test_frame</text>
<text text-anchor="middle" x="641.25" y="-6.5" font-family="Helvetica,sans-Serif" font-size="10.00">_coding.cpp</text>
</a>
</g>
</g>
<!-- Node22&#45;&gt;Node25 -->
<g id="edge29_Node000022_Node000025" class="edge">
<title>Node22&#45;&gt;Node25</title>
<g id="a_edge29_Node000022_Node000025"><a xlink:title=" ">
<path fill="none" stroke="#63b8ff" d="M548.24,-62.47C568.12,-52.75 591.47,-41.34 609.8,-32.38"/>
<polygon fill="#63b8ff" stroke="#63b8ff" points="546.71,-59.32 539.26,-66.86 549.78,-65.61 546.71,-59.32"/>
</a>
</g>
</g>
<!-- Node26&#45;&gt;Node2 -->
<g id="edge34_Node000026_Node000002" class="edge">
<title>Node26&#45;&gt;Node2</title>
<g id="a_edge34_Node000026_Node000002"><a xlink:title=" ">
<path fill="none" stroke="#63b8ff" d="M1729.89,-271.34C1717.85,-262.61 1704.83,-250.56 1698.25,-236 1692.39,-223.04 1690.43,-215.88 1698.25,-204 1705.77,-192.58 1885.64,-120.49 1951.43,-94.41"/>
<polygon fill="#63b8ff" stroke="#63b8ff" points="1727.69,-274.08 1737.94,-276.76 1731.6,-268.27 1727.69,-274.08"/>
</a>
</g>
</g>
<!-- Node26&#45;&gt;Node14 -->
<g id="edge35_Node000026_Node000014" class="edge">
<title>Node26&#45;&gt;Node14</title>
<g id="a_edge35_Node000026_Node000014"><a xlink:title=" ">
<path fill="none" stroke="#63b8ff" d="M1721.15,-272.92C1702.87,-264.29 1681.08,-251.85 1665.25,-236 1631.65,-202.36 1600.57,-175.35 1627.25,-136 1636.01,-123.08 1669.1,-110.08 1699.44,-100.44"/>
<polygon fill="#63b8ff" stroke="#63b8ff" points="1719.51,-276.02 1730.06,-276.93 1722.38,-269.63 1719.51,-276.02"/>
</a>
</g>
</g>
<!-- Node27 -->
<g id="Node000027" class="node">
<title>Node27</title>
<g id="a_Node000027"><a xlink:href="gps__collector_8cpp.html" target="_top" xlink:title=" ">
<polygon fill="white" stroke="#666666" points="1849.25,-230 1707.25,-230 1707.25,-210 1849.25,-210 1849.25,-230"/>
<text text-anchor="middle" x="1778.25" y="-216.5" font-family="Helvetica,sans-Serif" font-size="10.00">lib/location/gps_collector.cpp</text>
</a>
</g>
</g>
<!-- Node26&#45;&gt;Node27 -->
<g id="edge36_Node000026_Node000027" class="edge">
<title>Node26&#45;&gt;Node27</title>
<g id="a_edge36_Node000026_Node000027"><a xlink:title=" ">
<path fill="none" stroke="#63b8ff" d="M1763.03,-266.65C1767.06,-254.58 1771.97,-239.84 1775.1,-230.44"/>
<polygon fill="#63b8ff" stroke="#63b8ff" points="1759.72,-265.51 1759.88,-276.11 1766.36,-267.73 1759.72,-265.51"/>
</a>
</g>
</g>
<!-- Node30&#45;&gt;Node2 -->
<g id="edge40_Node000030_Node000002" class="edge">
<title>Node30&#45;&gt;Node2</title>
<g id="a_edge40_Node000030_Node000002"><a xlink:title=" ">
<path fill="none" stroke="#63b8ff" d="M2312.65,-274.28C2352.48,-262.17 2406.21,-244.57 2412.25,-236 2420.45,-224.38 2420.88,-215.3 2412.25,-204 2361.76,-137.93 2096.42,-99.81 2005.7,-88.55"/>
<polygon fill="#63b8ff" stroke="#63b8ff" points="2311.85,-270.87 2303.28,-277.1 2313.87,-277.57 2311.85,-270.87"/>
</a>
</g>
</g>
<!-- Node31 -->
<g id="Node000031" class="node">
<title>Node31</title>
<g id="a_Node000031"><a xlink:href="storage_8cpp.html" target="_top" xlink:title="Implements file system operations for the Kubisat firmware.">
<polygon fill="white" stroke="#666666" points="2402.75,-230 2287.75,-230 2287.75,-210 2402.75,-210 2402.75,-230"/>
<text text-anchor="middle" x="2345.25" y="-216.5" font-family="Helvetica,sans-Serif" font-size="10.00">lib/storage/storage.cpp</text>
</a>
</g>
</g>
<!-- Node30&#45;&gt;Node31 -->
<g id="edge41_Node000030_Node000031" class="edge">
<title>Node30&#45;&gt;Node31</title>
<g id="a_edge41_Node000030_Node000031"><a xlink:title=" ">
<path fill="none" stroke="#63b8ff" d="M2288.44,-270.33C2302.98,-257.71 2322.43,-240.82 2334.38,-230.44"/>
<polygon fill="#63b8ff" stroke="#63b8ff" points="2286.54,-267.35 2281.28,-276.55 2291.13,-272.64 2286.54,-267.35"/>
</a>
</g>
</g>
<!-- Node32&#45;&gt;Node2 -->
<g id="edge43_Node000032_Node000002" class="edge">
<title>Node32&#45;&gt;Node2</title>
<g id="a_edge43_Node000032_Node000002"><a xlink:title=" ">
<path fill="none" stroke="#63b8ff" d="M1990.37,-273.13C1991.34,-272.74 1992.3,-272.36 1993.25,-272 2042.86,-252.97 2075.84,-278.86 2107.25,-236 2149.03,-178.99 2041.55,-117.44 1995.25,-94.41"/>
<polygon fill="#63b8ff" stroke="#63b8ff" points="1989.2,-269.83 1981.37,-276.97 1991.94,-276.27 1989.2,-269.83"/>
</a>
</g>
</g>
<!-- Node32&#45;&gt;Node7 -->
<g id="edge45_Node000032_Node000007" class="edge">
<title>Node32&#45;&gt;Node7</title>
<g id="a_edge45_Node000032_Node000007"><a xlink:title=" ">
<path fill="none" stroke="#63b8ff" d="M1921.23,-281.12C1842.74,-269.29 1665.59,-242.6 1576.12,-229.12"/>
<polygon fill="#63b8ff" stroke="#63b8ff" points="1920.61,-284.57 1931.02,-282.6 1921.66,-277.64 1920.61,-284.57"/>
</a>
</g>
</g>
<!-- Node32&#45;&gt;Node21 -->
<g id="edge46_Node000032_Node000021" class="edge">
<title>Node32&#45;&gt;Node21</title>
<g id="a_edge46_Node000032_Node000021"><a xlink:title=" ">
<path fill="none" stroke="#63b8ff" d="M1932.86,-271.68C1919.89,-262.95 1905.48,-250.8 1897.25,-236 1872.59,-191.67 1874.23,-128.9 1876.59,-100.28"/>
<polygon fill="#63b8ff" stroke="#63b8ff" points="1930.76,-274.49 1941.08,-276.86 1934.49,-268.57 1930.76,-274.49"/>
</a>
</g>
</g>
<!-- Node32&#45;&gt;Node27 -->
<g id="edge47_Node000032_Node000027" class="edge">
<title>Node32&#45;&gt;Node27</title>
<g id="a_edge47_Node000032_Node000027"><a xlink:title=" ">
<path fill="none" stroke="#63b8ff" d="M1923.8,-273.78C1888.42,-260.95 1835.61,-241.8 1804.28,-230.44"/>
<polygon fill="#63b8ff" stroke="#63b8ff" points="1922.16,-276.91 1932.75,-277.03 1924.54,-270.33 1922.16,-276.91"/>
</a>
</g>
</g>
<!-- Node32&#45;&gt;Node29 -->
<g id="edge48_Node000032_Node000029" class="edge">
<title>Node32&#45;&gt;Node29</title>
<g id="a_edge48_Node000032_Node000029"><a xlink:title=" ">
<path fill="none" stroke="#63b8ff" d="M1999.2,-276.8C2040.7,-265.93 2106.86,-248.6 2154.44,-236.14"/>
<polygon fill="#63b8ff" stroke="#63b8ff" points="1998.43,-273.38 1989.65,-279.3 2000.21,-280.15 1998.43,-273.38"/>
</a>
</g>
</g>
<!-- Node32&#45;&gt;Node31 -->
<g id="edge49_Node000032_Node000031" class="edge">
<title>Node32&#45;&gt;Node31</title>
<g id="a_edge49_Node000032_Node000031"><a xlink:title=" ">
<path fill="none" stroke="#63b8ff" d="M1999.34,-281.59C2059.63,-273.05 2178.84,-255.42 2279.25,-236 2287.79,-234.35 2296.9,-232.4 2305.55,-230.46"/>
<polygon fill="#63b8ff" stroke="#63b8ff" points="1999,-278.1 1989.59,-282.96 1999.98,-285.03 1999,-278.1"/>
</a>
</g>
</g>
<!-- Node33 -->
<g id="Node000033" class="node">
<title>Node33</title>
<g id="a_Node000033"><a xlink:href="_d_s3231_8cpp.html" target="_top" xlink:title=" ">
<polygon fill="white" stroke="#666666" points="2014.75,-230 1905.75,-230 1905.75,-210 2014.75,-210 2014.75,-230"/>
<text text-anchor="middle" x="1960.25" y="-216.5" font-family="Helvetica,sans-Serif" font-size="10.00">lib/clock/DS3231.cpp</text>
</a>
</g>
</g>
<!-- Node32&#45;&gt;Node33 -->
<g id="edge44_Node000032_Node000033" class="edge">
<title>Node32&#45;&gt;Node33</title>
<g id="a_edge44_Node000032_Node000033"><a xlink:title=" ">
<path fill="none" stroke="#63b8ff" d="M1960.25,-266.28C1960.25,-254.27 1960.25,-239.74 1960.25,-230.44"/>
<polygon fill="#63b8ff" stroke="#63b8ff" points="1956.75,-266.03 1960.25,-276.03 1963.75,-266.03 1956.75,-266.03"/>
</a>
</g>
</g>
<!-- Node34 -->
<g id="Node000034" class="node">
<title>Node34</title>
<g id="a_Node000034"><a xlink:href="utils_8cpp.html" target="_top" xlink:title="Implements utility functions for the Kubisat firmware.">
<polygon fill="white" stroke="#666666" points="2098,-230 2032.5,-230 2032.5,-210 2098,-210 2098,-230"/>
<text text-anchor="middle" x="2065.25" y="-216.5" font-family="Helvetica,sans-Serif" font-size="10.00">lib/utils.cpp</text>
</a>
</g>
</g>
<!-- Node32&#45;&gt;Node34 -->
<g id="edge50_Node000032_Node000034" class="edge">
<title>Node32&#45;&gt;Node34</title>
<g id="a_edge50_Node000032_Node000034"><a xlink:title=" ">
<path fill="none" stroke="#63b8ff" d="M1984.8,-271.57C2005.07,-258.83 2033.17,-241.16 2050.23,-230.44"/>
<polygon fill="#63b8ff" stroke="#63b8ff" points="1983.18,-268.45 1976.58,-276.74 1986.9,-274.38 1983.18,-268.45"/>
</a>
</g>
</g>
</g>
</svg>

<g id="navigator" transform="translate(0 0)" fill="#404254">
  <rect fill="#f2f5e9" fill-opacity="0.5" stroke="#606060" stroke-width=".5" x="0" y="0" width="60" height="60"/>
  <use id="zoomplus" xlink:href="#zoomPlus" x="17" y="9" onmousedown="handleZoom(evt,'in')"/>
  <use id="zoomminus" xlink:href="#zoomMin" x="42" y="9" onmousedown="handleZoom(evt,'out')"/>
  <use id="reset" xlink:href="#resetDef" x="30" y="36" onmousedown="handleReset()"/>
   <use id="arrowup" xlink:href="#arrowUp" x="0" y="0" onmousedown="handlePan(0,-1)"/>
  <use id="arrowright" xlink:href="#arrowRight" x="0" y="0" onmousedown="handlePan(1,0)"/>
  <use id="arrowdown" xlink:href="#arrowDown" x="0" y="0" onmousedown="handlePan(0,1)"/>
  <use id="arrowleft" xlink:href="#arrowLeft" x="0" y="0" onmousedown="handlePan(-1,0)"/>
</g>
<svg viewBox="0 0 15 15" width="100%" height="30px" preserveAspectRatio="xMaxYMin meet">
 <g id="arrow_out" transform="scale(0.3 0.3)">
  <a xlink:href="pin__config_8h__dep__incl_org.svg" target="_base">
   <rect id="button" ry="5" rx="5" y="6" x="6" height="38" width="38"
        fill="#f2f5e9" fill-opacity="0.5" stroke="#606060" stroke-width="1.0"/>
   <path id="arrow"
     d="M 11.500037,31.436501 C 11.940474,20.09759 22.043105,11.32322 32.158766,21.979434 L 37.068811,17.246167 C 37.068811,17.246167 37.088388,32 37.088388,32 L 22.160133,31.978069 C 22.160133,31.978069 26.997745,27.140456 26.997745,27.140456 C 18.528582,18.264221 13.291696,25.230495 11.500037,31.436501 z"
     style="fill:#404040;"/>
  </a>
 </g>
</svg>

<style type='text/css'>
<![CDATA[
[data-mouse-over-selected='false'] { opacity: 0.7; }
[data-mouse-over-selected='true']  { opacity: 1.0; }
]]>
</style>
<script type="application/ecmascript"><![CDATA[
document.addEventListener('DOMContentLoaded', (event) => {
  highlightEdges();
  highlightAdjacentNodes();
});
]]></script>
</svg>
