<?xml version="1.0" encoding="UTF-8" standalone="no"?>
<!DOCTYPE svg PUBLIC "-//W3C//DTD SVG 1.1//EN"
 "http://www.w3.org/Graphics/SVG/1.1/DTD/svg11.dtd">
<!-- Generated by graphviz version 12.2.1 (20241206.2353)
 -->
<!-- Title: lib/pin_config.h Pages: 1 -->
<!--zoomable 356 -->

<svg id="main" version="1.1" xmlns="http://www.w3.org/2000/svg" xmlns:xlink="http://www.w3.org/1999/xlink" xml:space="preserve" onload="init(evt)">

<style type="text/css"><![CDATA[
.node, .edge {opacity: 0.7;}
.node.selected, .edge.selected {opacity: 1;}
.edge:hover path { stroke: red; }
.edge:hover polygon { stroke: red; fill: red; }
]]></style>

<defs>
  <circle id="rim" cx="0" cy="0" r="7"/>
  <circle id="rim2" cx="0" cy="0" r="3.5"/>
  <g id="zoomPlus">
    <use xlink:href="#rim" fill="#404040"><set attributeName="fill" to="#808080" begin="zoomplus.mouseover" end="zoomplus.mouseout"/></use>
    <path d="M-4,0h8M0,-4v8" fill="none" stroke="white" stroke-width="1.5" pointer-events="none"/>
  </g>
  <g id="zoomMin">
    <use xlink:href="#rim" fill="#404040"><set attributeName="fill" to="#808080" begin="zoomminus.mouseover" end="zoomminus.mouseout"/></use>
    <path d="M-4,0h8" fill="none" stroke="white" stroke-width="1.5" pointer-events="none"/>
  </g>
  <g id="arrowUp" transform="translate(30 24)">
    <use xlink:href="#rim"/>
    <path pointer-events="none" fill="none" stroke="white" stroke-width="1.5" d="M0,-3.0v7 M-2.5,-0.5L0,-3.0L2.5,-0.5"/>
  </g>
  <g id="arrowRight" transform="rotate(90) translate(36 -43)">
    <use xlink:href="#rim"/>
    <path pointer-events="none" fill="none" stroke="white" stroke-width="1.5" d="M0,-3.0v7 M-2.5,-0.5L0,-3.0L2.5,-0.5"/>
  </g>
  <g id="arrowDown" transform="rotate(180) translate(-30 -48)">
    <use xlink:href="#rim"/>
    <path pointer-events="none" fill="none" stroke="white" stroke-width="1.5" d="M0,-3.0v7 M-2.5,-0.5L0,-3.0L2.5,-0.5"/>
  </g>
  <g id="arrowLeft" transform="rotate(270) translate(-36 17)">
    <use xlink:href="#rim"/>
    <path pointer-events="none" fill="none" stroke="white" stroke-width="1.5" d="M0,-3.0v7 M-2.5,-0.5L0,-3.0L2.5,-0.5"/>
  </g>
  <g id="resetDef">
    <use xlink:href="#rim2" fill="#404040"><set attributeName="fill" to="#808080" begin="reset.mouseover" end="reset.mouseout"/></use>
  </g>
</defs>
<script type="application/ecmascript">
var viewWidth = 2276;
var viewHeight = 356;
var sectionId = 'dynsection-1';
</script>
<script type="application/ecmascript" xlink:href="svg.min.js"/>
<svg id="graph" class="graph">
<g id="viewport">
<title>lib/pin_config.h</title>
<!-- Node1 -->
<g id="Node000001" class="node">
<title>Node1</title>
<g id="a_Node000001"><a xlink:title=" ">
<polygon fill="#999999" stroke="#666666" points="1651.62,-348 1570.38,-348 1570.38,-328 1651.62,-328 1651.62,-348"/>
<text text-anchor="middle" x="1611" y="-334.5" font-family="Helvetica,sans-Serif" font-size="10.00">lib/pin_config.h</text>
</a>
</g>
</g>
<!-- Node2 -->
<g id="Node000002" class="node">
<title>Node2</title>
<g id="a_Node000002"><a xlink:href="includes_8h.html" target="_top" xlink:title=" ">
<polygon fill="white" stroke="#666666" points="1706.12,-82 1645.88,-82 1645.88,-62 1706.12,-62 1706.12,-82"/>
<text text-anchor="middle" x="1676" y="-68.5" font-family="Helvetica,sans-Serif" font-size="10.00">includes.h</text>
</a>
</g>
</g>
<!-- Node1&#45;&gt;Node2 -->
<g id="edge1_Node000001_Node000002" class="edge">
<title>Node1&#45;&gt;Node2</title>
<g id="a_edge1_Node000001_Node000002"><a xlink:title=" ">
<path fill="none" stroke="#63b8ff" d="M1559.06,-334.83C1528.09,-330.54 1491.02,-319.47 1471,-292 1462.62,-280.51 1465.81,-273.24 1471,-260 1506.52,-169.4 1613.62,-105.35 1657.22,-82.36"/>
<polygon fill="#63b8ff" stroke="#63b8ff" points="1558.3,-338.27 1568.64,-335.95 1559.11,-331.32 1558.3,-338.27"/>
</a>
</g>
</g>
<!-- Node4 -->
<g id="Node000004" class="node">
<title>Node4</title>
<g id="a_Node000004"><a xlink:href="_lo_ra-_r_p2040_8h.html" target="_top" xlink:title=" ">
<polygon fill="white" stroke="#666666" points="1385.75,-292 1272.25,-292 1272.25,-260 1385.75,-260 1385.75,-292"/>
<text text-anchor="start" x="1280.25" y="-278.5" font-family="Helvetica,sans-Serif" font-size="10.00">lib/comms/LoRa/LoRa</text>
<text text-anchor="middle" x="1329" y="-266.5" font-family="Helvetica,sans-Serif" font-size="10.00">&#45;RP2040.h</text>
</a>
</g>
</g>
<!-- Node1&#45;&gt;Node4 -->
<g id="edge3_Node000001_Node000004" class="edge">
<title>Node1&#45;&gt;Node4</title>
<g id="a_edge3_Node000001_Node000004"><a xlink:title=" ">
<path fill="none" stroke="#63b8ff" d="M1559.01,-325.94C1510.02,-315.52 1436.78,-299.93 1386.17,-289.16"/>
<polygon fill="#63b8ff" stroke="#63b8ff" points="1558,-329.3 1568.51,-327.96 1559.46,-322.46 1558,-329.3"/>
</a>
</g>
</g>
<!-- Node6 -->
<g id="Node000006" class="node">
<title>Node6</title>
<g id="a_Node000006"><a xlink:href="protocol_8h.html" target="_top" xlink:title=" ">
<polygon fill="white" stroke="#666666" points="1424.38,-218 1317.62,-218 1317.62,-198 1424.38,-198 1424.38,-218"/>
<text text-anchor="middle" x="1371" y="-204.5" font-family="Helvetica,sans-Serif" font-size="10.00">lib/comms/protocol.h</text>
</a>
</g>
</g>
<!-- Node1&#45;&gt;Node6 -->
<g id="edge25_Node000001_Node000006" class="edge">
<title>Node1&#45;&gt;Node6</title>
<g id="a_edge25_Node000001_Node000006"><a xlink:title=" ">
<path fill="none" stroke="#63b8ff" d="M1558.66,-332.1C1522.42,-326.71 1474.35,-315.46 1438,-292 1408.12,-272.72 1385.37,-235.67 1375.87,-218.35"/>
<polygon fill="#63b8ff" stroke="#63b8ff" points="1558.1,-335.55 1568.48,-333.44 1559.05,-328.62 1558.1,-335.55"/>
</a>
</g>
</g>
<!-- Node21 -->
<g id="Node000021" class="node">
<title>Node21</title>
<g id="a_Node000021"><a xlink:href="gps__collector_8h.html" target="_top" xlink:title=" ">
<polygon fill="white" stroke="#666666" points="1611.75,-286 1480.25,-286 1480.25,-266 1611.75,-266 1611.75,-286"/>
<text text-anchor="middle" x="1546" y="-272.5" font-family="Helvetica,sans-Serif" font-size="10.00">lib/location/gps_collector.h</text>
</a>
</g>
</g>
<!-- Node1&#45;&gt;Node21 -->
<g id="edge26_Node000001_Node000021" class="edge">
<title>Node1&#45;&gt;Node21</title>
<g id="a_edge26_Node000001_Node000021"><a xlink:title=" ">
<path fill="none" stroke="#63b8ff" d="M1592.48,-319.9C1580.56,-308.91 1565.56,-295.05 1555.87,-286.11"/>
<polygon fill="#63b8ff" stroke="#63b8ff" points="1590.01,-322.39 1599.73,-326.6 1594.76,-317.24 1590.01,-322.39"/>
</a>
</g>
</g>
<!-- Node23 -->
<g id="Node000023" class="node">
<title>Node23</title>
<g id="a_Node000023"><a xlink:href="pin__config_8cpp.html" target="_top" xlink:title=" ">
<polygon fill="white" stroke="#666666" points="1721.88,-286 1630.12,-286 1630.12,-266 1721.88,-266 1721.88,-286"/>
<text text-anchor="middle" x="1676" y="-272.5" font-family="Helvetica,sans-Serif" font-size="10.00">lib/pin_config.cpp</text>
</a>
</g>
</g>
<!-- Node1&#45;&gt;Node23 -->
<g id="edge30_Node000001_Node000023" class="edge">
<title>Node1&#45;&gt;Node23</title>
<g id="a_edge30_Node000001_Node000023"><a xlink:title=" ">
<path fill="none" stroke="#63b8ff" d="M1629.52,-319.9C1641.44,-308.91 1656.44,-295.05 1666.13,-286.11"/>
<polygon fill="#63b8ff" stroke="#63b8ff" points="1627.24,-317.24 1622.27,-326.6 1631.99,-322.39 1627.24,-317.24"/>
</a>
</g>
</g>
<!-- Node24 -->
<g id="Node000024" class="node">
<title>Node24</title>
<g id="a_Node000024"><a xlink:href="_i_n_a3221_8cpp.html" target="_top" xlink:title=" ">
<polygon fill="white" stroke="#666666" points="1831.5,-224 1716.5,-224 1716.5,-192 1831.5,-192 1831.5,-224"/>
<text text-anchor="start" x="1724.5" y="-210.5" font-family="Helvetica,sans-Serif" font-size="10.00">lib/powerman/INA3221</text>
<text text-anchor="middle" x="1774" y="-198.5" font-family="Helvetica,sans-Serif" font-size="10.00">/INA3221.cpp</text>
</a>
</g>
</g>
<!-- Node1&#45;&gt;Node24 -->
<g id="edge31_Node000001_Node000024" class="edge">
<title>Node1&#45;&gt;Node24</title>
<g id="a_edge31_Node000001_Node000024"><a xlink:title=" ">
<path fill="none" stroke="#63b8ff" d="M1662.86,-326.49C1685.83,-319.74 1711.91,-308.94 1731,-292 1751.76,-273.58 1763.97,-242.74 1769.79,-224.28"/>
<polygon fill="#63b8ff" stroke="#63b8ff" points="1662.06,-323.08 1653.33,-329.09 1663.9,-329.83 1662.06,-323.08"/>
</a>
</g>
</g>
<!-- Node25 -->
<g id="Node000025" class="node">
<title>Node25</title>
<g id="a_Node000025"><a xlink:href="storage_8h.html" target="_top" xlink:title=" ">
<polygon fill="white" stroke="#666666" points="2247.25,-286 2142.75,-286 2142.75,-266 2247.25,-266 2247.25,-286"/>
<text text-anchor="middle" x="2195" y="-272.5" font-family="Helvetica,sans-Serif" font-size="10.00">lib/storage/storage.h</text>
</a>
</g>
</g>
<!-- Node1&#45;&gt;Node25 -->
<g id="edge32_Node000001_Node000025" class="edge">
<title>Node1&#45;&gt;Node25</title>
<g id="a_edge32_Node000001_Node000025"><a xlink:title=" ">
<path fill="none" stroke="#63b8ff" d="M1663.26,-331.63C1774.06,-320.25 2031.45,-293.8 2142.47,-282.4"/>
<polygon fill="#63b8ff" stroke="#63b8ff" points="1663.16,-328.12 1653.57,-332.63 1663.88,-335.09 1663.16,-328.12"/>
</a>
</g>
</g>
<!-- Node27 -->
<g id="Node000027" class="node">
<title>Node27</title>
<g id="a_Node000027"><a xlink:href="utils_8h.html" target="_top" xlink:title=" ">
<polygon fill="white" stroke="#666666" points="1887.5,-286 1832.5,-286 1832.5,-266 1887.5,-266 1887.5,-286"/>
<text text-anchor="middle" x="1860" y="-272.5" font-family="Helvetica,sans-Serif" font-size="10.00">lib/utils.h</text>
</a>
</g>
</g>
<!-- Node1&#45;&gt;Node27 -->
<g id="edge35_Node000001_Node000027" class="edge">
<title>Node1&#45;&gt;Node27</title>
<g id="a_edge35_Node000001_Node000027"><a xlink:title=" ">
<path fill="none" stroke="#63b8ff" d="M1661.06,-324.94C1712.55,-312.53 1790.9,-293.65 1832.23,-283.69"/>
<polygon fill="#63b8ff" stroke="#63b8ff" points="1660.55,-321.46 1651.65,-327.2 1662.19,-328.26 1660.55,-321.46"/>
</a>
</g>
</g>
<!-- Node3 -->
<g id="Node000003" class="node">
<title>Node3</title>
<g id="a_Node000003"><a xlink:href="main_8cpp.html" target="_top" xlink:title=" ">
<polygon fill="white" stroke="#666666" points="1703.88,-20 1648.12,-20 1648.12,0 1703.88,0 1703.88,-20"/>
<text text-anchor="middle" x="1676" y="-6.5" font-family="Helvetica,sans-Serif" font-size="10.00">main.cpp</text>
</a>
</g>
</g>
<!-- Node2&#45;&gt;Node3 -->
<g id="edge2_Node000002_Node000003" class="edge">
<title>Node2&#45;&gt;Node3</title>
<g id="a_edge2_Node000002_Node000003"><a xlink:title=" ">
<path fill="none" stroke="#63b8ff" d="M1676,-50.25C1676,-39.97 1676,-28.09 1676,-20.11"/>
<polygon fill="#63b8ff" stroke="#63b8ff" points="1672.5,-50.11 1676,-60.11 1679.5,-50.11 1672.5,-50.11"/>
</a>
</g>
</g>
<!-- Node5 -->
<g id="Node000005" class="node">
<title>Node5</title>
<g id="a_Node000005"><a xlink:href="_lo_ra-_r_p2040_8cpp.html" target="_top" xlink:title=" ">
<polygon fill="white" stroke="#666666" points="1299.75,-224 1186.25,-224 1186.25,-192 1299.75,-192 1299.75,-224"/>
<text text-anchor="start" x="1194.25" y="-210.5" font-family="Helvetica,sans-Serif" font-size="10.00">lib/comms/LoRa/LoRa</text>
<text text-anchor="middle" x="1243" y="-198.5" font-family="Helvetica,sans-Serif" font-size="10.00">&#45;RP2040.cpp</text>
</a>
</g>
</g>
<!-- Node4&#45;&gt;Node5 -->
<g id="edge4_Node000004_Node000005" class="edge">
<title>Node4&#45;&gt;Node5</title>
<g id="a_edge4_Node000004_Node000005"><a xlink:title=" ">
<path fill="none" stroke="#63b8ff" d="M1300.17,-252.87C1288.01,-243.55 1274.16,-232.91 1263.14,-224.45"/>
<polygon fill="#63b8ff" stroke="#63b8ff" points="1297.79,-255.46 1307.85,-258.77 1302.05,-249.91 1297.79,-255.46"/>
</a>
</g>
</g>
<!-- Node4&#45;&gt;Node6 -->
<g id="edge5_Node000004_Node000006" class="edge">
<title>Node4&#45;&gt;Node6</title>
<g id="a_edge5_Node000004_Node000006"><a xlink:title=" ">
<path fill="none" stroke="#63b8ff" d="M1344.9,-250.02C1351.96,-238.93 1359.83,-226.55 1365.07,-218.32"/>
<polygon fill="#63b8ff" stroke="#63b8ff" points="1341.97,-248.1 1339.55,-258.42 1347.88,-251.86 1341.97,-248.1"/>
</a>
</g>
</g>
<!-- Node6&#45;&gt;Node2 -->
<g id="edge6_Node000006_Node000002" class="edge">
<title>Node6&#45;&gt;Node2</title>
<g id="a_edge6_Node000006_Node000002"><a xlink:title=" ">
<path fill="none" stroke="#63b8ff" d="M1403.3,-193.14C1427.04,-182.93 1460.06,-168.68 1489,-156 1549.35,-129.56 1620.43,-97.86 1655,-82.4"/>
<polygon fill="#63b8ff" stroke="#63b8ff" points="1401.97,-189.9 1394.17,-197.07 1404.74,-196.33 1401.97,-189.9"/>
</a>
</g>
</g>
<!-- Node7 -->
<g id="Node000007" class="node">
<title>Node7</title>
<g id="a_Node000007"><a xlink:href="commands_8h.html" target="_top" xlink:title=" ">
<polygon fill="white" stroke="#666666" points="254,-156 142,-156 142,-124 254,-124 254,-156"/>
<text text-anchor="start" x="150" y="-142.5" font-family="Helvetica,sans-Serif" font-size="10.00">lib/comms/commands</text>
<text text-anchor="middle" x="198" y="-130.5" font-family="Helvetica,sans-Serif" font-size="10.00">/commands.h</text>
</a>
</g>
</g>
<!-- Node6&#45;&gt;Node7 -->
<g id="edge7_Node000006_Node000007" class="edge">
<title>Node6&#45;&gt;Node7</title>
<g id="a_edge7_Node000006_Node000007"><a xlink:title=" ">
<path fill="none" stroke="#63b8ff" d="M1326.22,-195.1C1320.46,-193.88 1314.61,-192.8 1309,-192 1102.08,-162.5 450.54,-146.42 254.41,-142.16"/>
<polygon fill="#63b8ff" stroke="#63b8ff" points="1325.11,-198.43 1335.64,-197.23 1326.66,-191.61 1325.11,-198.43"/>
</a>
</g>
</g>
<!-- Node10 -->
<g id="Node000010" class="node">
<title>Node10</title>
<g id="a_Node000010"><a xlink:href="communication_8h.html" target="_top" xlink:title=" ">
<polygon fill="white" stroke="#666666" points="1025.12,-150 886.88,-150 886.88,-130 1025.12,-130 1025.12,-150"/>
<text text-anchor="middle" x="956" y="-136.5" font-family="Helvetica,sans-Serif" font-size="10.00">lib/comms/communication.h</text>
</a>
</g>
</g>
<!-- Node6&#45;&gt;Node10 -->
<g id="edge10_Node000006_Node000010" class="edge">
<title>Node6&#45;&gt;Node10</title>
<g id="a_edge10_Node000006_Node000010"><a xlink:title=" ">
<path fill="none" stroke="#63b8ff" d="M1323.29,-194.98C1318.47,-193.91 1313.65,-192.9 1309,-192 1211.11,-173.13 1096.73,-157.82 1025.31,-149.06"/>
<polygon fill="#63b8ff" stroke="#63b8ff" points="1322.4,-198.37 1332.93,-197.2 1323.97,-191.55 1322.4,-198.37"/>
</a>
</g>
</g>
<!-- Node20 -->
<g id="Node000020" class="node">
<title>Node20</title>
<g id="a_Node000020"><a xlink:href="event__manager_8cpp.html" target="_top" xlink:title="Implements the event management system for the Kubisat firmware.">
<polygon fill="white" stroke="#666666" points="1628.25,-88 1529.75,-88 1529.75,-56 1628.25,-56 1628.25,-88"/>
<text text-anchor="start" x="1537.75" y="-74.5" font-family="Helvetica,sans-Serif" font-size="10.00">lib/eventman/event</text>
<text text-anchor="middle" x="1579" y="-62.5" font-family="Helvetica,sans-Serif" font-size="10.00">_manager.cpp</text>
</a>
</g>
</g>
<!-- Node6&#45;&gt;Node20 -->
<g id="edge24_Node000006_Node000020" class="edge">
<title>Node6&#45;&gt;Node20</title>
<g id="a_edge24_Node000006_Node000020"><a xlink:title=" ">
<path fill="none" stroke="#63b8ff" d="M1395.14,-191.45C1435.26,-165.6 1515.16,-114.13 1555.1,-88.39"/>
<polygon fill="#63b8ff" stroke="#63b8ff" points="1393.41,-188.4 1386.9,-196.76 1397.2,-194.28 1393.41,-188.4"/>
</a>
</g>
</g>
<!-- Node8 -->
<g id="Node000008" class="node">
<title>Node8</title>
<g id="a_Node000008"><a xlink:href="commands_8cpp.html" target="_top" xlink:title=" ">
<polygon fill="white" stroke="#666666" points="112,-88 0,-88 0,-56 112,-56 112,-88"/>
<text text-anchor="start" x="8" y="-74.5" font-family="Helvetica,sans-Serif" font-size="10.00">lib/comms/commands</text>
<text text-anchor="middle" x="56" y="-62.5" font-family="Helvetica,sans-Serif" font-size="10.00">/commands.cpp</text>
</a>
</g>
</g>
<!-- Node7&#45;&gt;Node8 -->
<g id="edge8_Node000007_Node000008" class="edge">
<title>Node7&#45;&gt;Node8</title>
<g id="a_edge8_Node000007_Node000008"><a xlink:title=" ">
<path fill="none" stroke="#63b8ff" d="M154.41,-118.74C133.37,-108.96 108.54,-97.42 89.08,-88.38"/>
<polygon fill="#63b8ff" stroke="#63b8ff" points="152.79,-121.85 163.33,-122.89 155.74,-115.5 152.79,-121.85"/>
</a>
</g>
</g>
<!-- Node9 -->
<g id="Node000009" class="node">
<title>Node9</title>
<g id="a_Node000009"><a xlink:href="diagnostic__commands_8cpp.html" target="_top" xlink:title=" ">
<polygon fill="white" stroke="#666666" points="265.62,-88 130.38,-88 130.38,-56 265.62,-56 265.62,-88"/>
<text text-anchor="start" x="138.38" y="-74.5" font-family="Helvetica,sans-Serif" font-size="10.00">lib/comms/commands</text>
<text text-anchor="middle" x="198" y="-62.5" font-family="Helvetica,sans-Serif" font-size="10.00">/diagnostic_commands.cpp</text>
</a>
</g>
</g>
<!-- Node7&#45;&gt;Node9 -->
<g id="edge9_Node000007_Node000009" class="edge">
<title>Node7&#45;&gt;Node9</title>
<g id="a_edge9_Node000007_Node000009"><a xlink:title=" ">
<path fill="none" stroke="#63b8ff" d="M198,-112.31C198,-104.12 198,-95.38 198,-88.22"/>
<polygon fill="#63b8ff" stroke="#63b8ff" points="194.5,-112.18 198,-122.18 201.5,-112.18 194.5,-112.18"/>
</a>
</g>
</g>
<!-- Node10&#45;&gt;Node2 -->
<g id="edge11_Node000010_Node000002" class="edge">
<title>Node10&#45;&gt;Node2</title>
<g id="a_edge11_Node000010_Node000002"><a xlink:title=" ">
<path fill="none" stroke="#63b8ff" d="M1036.69,-135.91C1191.5,-129.5 1524.78,-113.21 1637,-88 1642.95,-86.66 1649.19,-84.59 1654.89,-82.41"/>
<polygon fill="#63b8ff" stroke="#63b8ff" points="1036.77,-132.41 1026.92,-136.31 1037.06,-139.4 1036.77,-132.41"/>
</a>
</g>
</g>
<!-- Node10&#45;&gt;Node8 -->
<g id="edge13_Node000010_Node000008" class="edge">
<title>Node10&#45;&gt;Node8</title>
<g id="a_edge13_Node000010_Node000008"><a xlink:title=" ">
<path fill="none" stroke="#63b8ff" d="M875.28,-138.5C725.72,-136.6 395.74,-127.81 121,-88 118.13,-87.58 115.21,-87.11 112.26,-86.58"/>
<polygon fill="#63b8ff" stroke="#63b8ff" points="875.04,-142 885.08,-138.62 875.13,-135 875.04,-142"/>
</a>
</g>
</g>
<!-- Node10&#45;&gt;Node9 -->
<g id="edge14_Node000010_Node000009" class="edge">
<title>Node10&#45;&gt;Node9</title>
<g id="a_edge14_Node000010_Node000009"><a xlink:title=" ">
<path fill="none" stroke="#63b8ff" d="M875.26,-136.11C747.27,-130.81 490.14,-117.3 274,-88 271.33,-87.64 268.62,-87.24 265.89,-86.82"/>
<polygon fill="#63b8ff" stroke="#63b8ff" points="874.85,-139.59 884.98,-136.5 875.13,-132.6 874.85,-139.59"/>
</a>
</g>
</g>
<!-- Node11 -->
<g id="Node000011" class="node">
<title>Node11</title>
<g id="a_Node000011"><a xlink:href="clock__commands_8cpp.html" target="_top" xlink:title=" ">
<polygon fill="white" stroke="#666666" points="947.12,-88 832.88,-88 832.88,-56 947.12,-56 947.12,-88"/>
<text text-anchor="start" x="840.88" y="-74.5" font-family="Helvetica,sans-Serif" font-size="10.00">lib/comms/commands</text>
<text text-anchor="middle" x="890" y="-62.5" font-family="Helvetica,sans-Serif" font-size="10.00">/clock_commands.cpp</text>
</a>
</g>
</g>
<!-- Node10&#45;&gt;Node11 -->
<g id="edge12_Node000010_Node000011" class="edge">
<title>Node10&#45;&gt;Node11</title>
<g id="a_edge12_Node000010_Node000011"><a xlink:title=" ">
<path fill="none" stroke="#63b8ff" d="M938.6,-121.6C928.26,-111.26 915.25,-98.25 905.3,-88.3"/>
<polygon fill="#63b8ff" stroke="#63b8ff" points="935.93,-123.88 945.47,-128.47 940.88,-118.93 935.93,-123.88"/>
</a>
</g>
</g>
<!-- Node12 -->
<g id="Node000012" class="node">
<title>Node12</title>
<g id="a_Node000012"><a xlink:href="event__commands_8cpp.html" target="_top" xlink:title=" ">
<polygon fill="white" stroke="#666666" points="1080.5,-88 965.5,-88 965.5,-56 1080.5,-56 1080.5,-88"/>
<text text-anchor="start" x="973.5" y="-74.5" font-family="Helvetica,sans-Serif" font-size="10.00">lib/comms/commands</text>
<text text-anchor="middle" x="1023" y="-62.5" font-family="Helvetica,sans-Serif" font-size="10.00">/event_commands.cpp</text>
</a>
</g>
</g>
<!-- Node10&#45;&gt;Node12 -->
<g id="edge15_Node000010_Node000012" class="edge">
<title>Node10&#45;&gt;Node12</title>
<g id="a_edge15_Node000010_Node000012"><a xlink:title=" ">
<path fill="none" stroke="#63b8ff" d="M973.66,-121.6C984.16,-111.26 997.36,-98.25 1007.47,-88.3"/>
<polygon fill="#63b8ff" stroke="#63b8ff" points="971.35,-118.97 966.68,-128.48 976.26,-123.96 971.35,-118.97"/>
</a>
</g>
</g>
<!-- Node13 -->
<g id="Node000013" class="node">
<title>Node13</title>
<g id="a_Node000013"><a xlink:href="gps__commands_8cpp.html" target="_top" xlink:title=" ">
<polygon fill="white" stroke="#666666" points="1512,-88 1400,-88 1400,-56 1512,-56 1512,-88"/>
<text text-anchor="start" x="1408" y="-74.5" font-family="Helvetica,sans-Serif" font-size="10.00">lib/comms/commands</text>
<text text-anchor="middle" x="1456" y="-62.5" font-family="Helvetica,sans-Serif" font-size="10.00">/gps_commands.cpp</text>
</a>
</g>
</g>
<!-- Node10&#45;&gt;Node13 -->
<g id="edge16_Node000010_Node000013" class="edge">
<title>Node10&#45;&gt;Node13</title>
<g id="a_edge16_Node000010_Node000013"><a xlink:title=" ">
<path fill="none" stroke="#63b8ff" d="M1036.73,-132.22C1124.35,-124.23 1268.21,-109.3 1391,-88 1393.85,-87.51 1396.77,-86.96 1399.71,-86.39"/>
<polygon fill="#63b8ff" stroke="#63b8ff" points="1036.43,-128.73 1026.78,-133.11 1037.06,-135.7 1036.43,-128.73"/>
</a>
</g>
</g>
<!-- Node14 -->
<g id="Node000014" class="node">
<title>Node14</title>
<g id="a_Node000014"><a xlink:href="power__commands_8cpp.html" target="_top" xlink:title=" ">
<polygon fill="white" stroke="#666666" points="1215.62,-88 1098.38,-88 1098.38,-56 1215.62,-56 1215.62,-88"/>
<text text-anchor="start" x="1106.38" y="-74.5" font-family="Helvetica,sans-Serif" font-size="10.00">lib/comms/commands</text>
<text text-anchor="middle" x="1157" y="-62.5" font-family="Helvetica,sans-Serif" font-size="10.00">/power_commands.cpp</text>
</a>
</g>
</g>
<!-- Node10&#45;&gt;Node14 -->
<g id="edge17_Node000010_Node000014" class="edge">
<title>Node10&#45;&gt;Node14</title>
<g id="a_edge17_Node000010_Node000014"><a xlink:title=" ">
<path fill="none" stroke="#63b8ff" d="M995.37,-126.07C1028.24,-115.28 1075.18,-99.87 1110.02,-88.43"/>
<polygon fill="#63b8ff" stroke="#63b8ff" points="994.65,-122.63 986.24,-129.07 996.83,-129.28 994.65,-122.63"/>
</a>
</g>
</g>
<!-- Node15 -->
<g id="Node000015" class="node">
<title>Node15</title>
<g id="a_Node000015"><a xlink:href="communication_8cpp.html" target="_top" xlink:title=" ">
<polygon fill="white" stroke="#666666" points="1382.38,-82 1233.62,-82 1233.62,-62 1382.38,-62 1382.38,-82"/>
<text text-anchor="middle" x="1308" y="-68.5" font-family="Helvetica,sans-Serif" font-size="10.00">lib/comms/communication.cpp</text>
</a>
</g>
</g>
<!-- Node10&#45;&gt;Node15 -->
<g id="edge18_Node000010_Node000015" class="edge">
<title>Node10&#45;&gt;Node15</title>
<g id="a_edge18_Node000010_Node000015"><a xlink:title=" ">
<path fill="none" stroke="#63b8ff" d="M1017.41,-127.49C1085.47,-114.72 1193.99,-94.38 1257.38,-82.49"/>
<polygon fill="#63b8ff" stroke="#63b8ff" points="1017.1,-123.98 1007.92,-129.26 1018.39,-130.86 1017.1,-123.98"/>
</a>
</g>
</g>
<!-- Node16 -->
<g id="Node000016" class="node">
<title>Node16</title>
<g id="a_Node000016"><a xlink:href="frame_8cpp.html" target="_top" xlink:title="Implements functions for encoding, decoding, building, and processing Frames.">
<polygon fill="white" stroke="#666666" points="390.75,-82 283.25,-82 283.25,-62 390.75,-62 390.75,-82"/>
<text text-anchor="middle" x="337" y="-68.5" font-family="Helvetica,sans-Serif" font-size="10.00">lib/comms/frame.cpp</text>
</a>
</g>
</g>
<!-- Node10&#45;&gt;Node16 -->
<g id="edge19_Node000010_Node000016" class="edge">
<title>Node10&#45;&gt;Node16</title>
<g id="a_edge19_Node000010_Node000016"><a xlink:title=" ">
<path fill="none" stroke="#63b8ff" d="M875.51,-135.22C766.97,-129.3 567.91,-115.55 400,-88 391.12,-86.54 381.64,-84.53 372.8,-82.46"/>
<polygon fill="#63b8ff" stroke="#63b8ff" points="875.01,-138.69 885.18,-135.73 875.38,-131.7 875.01,-138.69"/>
</a>
</g>
</g>
<!-- Node17 -->
<g id="Node000017" class="node">
<title>Node17</title>
<g id="a_Node000017"><a xlink:href="receive_8cpp.html" target="_top" xlink:title="Implements functions for receiving and processing data, including LoRa and UART input.">
<polygon fill="white" stroke="#666666" points="523.12,-82 408.88,-82 408.88,-62 523.12,-62 523.12,-82"/>
<text text-anchor="middle" x="466" y="-68.5" font-family="Helvetica,sans-Serif" font-size="10.00">lib/comms/receive.cpp</text>
</a>
</g>
</g>
<!-- Node10&#45;&gt;Node17 -->
<g id="edge20_Node000010_Node000017" class="edge">
<title>Node10&#45;&gt;Node17</title>
<g id="a_edge20_Node000010_Node000017"><a xlink:title=" ">
<path fill="none" stroke="#63b8ff" d="M875.19,-131.8C789.61,-123.58 650.73,-108.58 532,-88 523.08,-86.46 513.56,-84.48 504.6,-82.48"/>
<polygon fill="#63b8ff" stroke="#63b8ff" points="874.85,-135.28 885.14,-132.74 875.51,-128.31 874.85,-135.28"/>
</a>
</g>
</g>
<!-- Node18 -->
<g id="Node000018" class="node">
<title>Node18</title>
<g id="a_Node000018"><a xlink:href="send_8cpp.html" target="_top" xlink:title="Implements functions for sending data, including LoRa messages and Frames.">
<polygon fill="white" stroke="#666666" points="644.88,-82 541.12,-82 541.12,-62 644.88,-62 644.88,-82"/>
<text text-anchor="middle" x="593" y="-68.5" font-family="Helvetica,sans-Serif" font-size="10.00">lib/comms/send.cpp</text>
</a>
</g>
</g>
<!-- Node10&#45;&gt;Node18 -->
<g id="edge21_Node000010_Node000018" class="edge">
<title>Node10&#45;&gt;Node18</title>
<g id="a_edge21_Node000010_Node000018"><a xlink:title=" ">
<path fill="none" stroke="#63b8ff" d="M880.41,-127.82C819.15,-118.38 730.71,-103.89 654,-88 646.1,-86.36 637.67,-84.42 629.67,-82.48"/>
<polygon fill="#63b8ff" stroke="#63b8ff" points="879.62,-131.24 890.03,-129.29 880.68,-124.32 879.62,-131.24"/>
</a>
</g>
</g>
<!-- Node19 -->
<g id="Node000019" class="node">
<title>Node19</title>
<g id="a_Node000019"><a xlink:href="utils__converters_8cpp.html" target="_top" xlink:title="Implements utility functions for converting between different data types.">
<polygon fill="white" stroke="#666666" points="814.88,-82 663.12,-82 663.12,-62 814.88,-62 814.88,-82"/>
<text text-anchor="middle" x="739" y="-68.5" font-family="Helvetica,sans-Serif" font-size="10.00">lib/comms/utils_converters.cpp</text>
</a>
</g>
</g>
<!-- Node10&#45;&gt;Node19 -->
<g id="edge22_Node000010_Node000019" class="edge">
<title>Node10&#45;&gt;Node19</title>
<g id="a_edge22_Node000010_Node000019"><a xlink:title=" ">
<path fill="none" stroke="#63b8ff" d="M914.16,-126.28C871.99,-113.45 807.87,-93.95 770.03,-82.44"/>
<polygon fill="#63b8ff" stroke="#63b8ff" points="912.88,-129.54 923.46,-129.1 914.91,-122.84 912.88,-129.54"/>
</a>
</g>
</g>
<!-- Node10&#45;&gt;Node20 -->
<g id="edge23_Node000010_Node000020" class="edge">
<title>Node10&#45;&gt;Node20</title>
<g id="a_edge23_Node000010_Node000020"><a xlink:title=" ">
<path fill="none" stroke="#63b8ff" d="M1036.97,-135.84C1147.15,-130.6 1350.18,-117.59 1521,-88 1523.77,-87.52 1526.6,-86.98 1529.44,-86.38"/>
<polygon fill="#63b8ff" stroke="#63b8ff" points="1036.96,-132.34 1027.13,-136.3 1037.29,-139.33 1036.96,-132.34"/>
</a>
</g>
</g>
<!-- Node21&#45;&gt;Node2 -->
<g id="edge27_Node000021_Node000002" class="edge">
<title>Node21&#45;&gt;Node2</title>
<g id="a_edge27_Node000021_Node000002"><a xlink:title=" ">
<path fill="none" stroke="#63b8ff" d="M1540.68,-254.53C1537.26,-236.65 1535.36,-210.7 1547,-192 1565.7,-161.96 1591.29,-179.2 1618,-156 1643.22,-134.1 1662.95,-98.99 1671.45,-82.34"/>
<polygon fill="#63b8ff" stroke="#63b8ff" points="1537.25,-255.22 1542.88,-264.2 1544.08,-253.67 1537.25,-255.22"/>
</a>
</g>
</g>
<!-- Node21&#45;&gt;Node13 -->
<g id="edge28_Node000021_Node000013" class="edge">
<title>Node21&#45;&gt;Node13</title>
<g id="a_edge28_Node000021_Node000013"><a xlink:title=" ">
<path fill="none" stroke="#63b8ff" d="M1532.89,-256.06C1526.71,-246.67 1519.5,-235 1514,-224 1490.14,-176.27 1469.75,-116.21 1460.82,-88.42"/>
<polygon fill="#63b8ff" stroke="#63b8ff" points="1529.95,-257.96 1538.44,-264.29 1535.75,-254.05 1529.95,-257.96"/>
</a>
</g>
</g>
<!-- Node22 -->
<g id="Node000022" class="node">
<title>Node22</title>
<g id="a_Node000022"><a xlink:href="gps__collector_8cpp.html" target="_top" xlink:title=" ">
<polygon fill="white" stroke="#666666" points="1698,-218 1556,-218 1556,-198 1698,-198 1698,-218"/>
<text text-anchor="middle" x="1627" y="-204.5" font-family="Helvetica,sans-Serif" font-size="10.00">lib/location/gps_collector.cpp</text>
</a>
</g>
</g>
<!-- Node21&#45;&gt;Node22 -->
<g id="edge29_Node000021_Node000022" class="edge">
<title>Node21&#45;&gt;Node22</title>
<g id="a_edge29_Node000021_Node000022"><a xlink:title=" ">
<path fill="none" stroke="#63b8ff" d="M1566.46,-258.33C1581.95,-245.71 1602.67,-228.82 1615.42,-218.44"/>
<polygon fill="#63b8ff" stroke="#63b8ff" points="1564.32,-255.56 1558.78,-264.59 1568.74,-260.98 1564.32,-255.56"/>
</a>
</g>
</g>
<!-- Node25&#45;&gt;Node2 -->
<g id="edge33_Node000025_Node000002" class="edge">
<title>Node25&#45;&gt;Node2</title>
<g id="a_edge33_Node000025_Node000002"><a xlink:title=" ">
<path fill="none" stroke="#63b8ff" d="M2225.64,-260.05C2239.43,-251.56 2254.32,-239.49 2262,-224 2268.32,-211.26 2270.65,-203.29 2262,-192 2193.15,-102.2 1816.62,-79.05 1706.35,-74.15"/>
<polygon fill="#63b8ff" stroke="#63b8ff" points="2224.17,-256.86 2217.22,-264.86 2227.64,-262.94 2224.17,-256.86"/>
</a>
</g>
</g>
<!-- Node26 -->
<g id="Node000026" class="node">
<title>Node26</title>
<g id="a_Node000026"><a xlink:href="storage_8cpp.html" target="_top" xlink:title="Implements file system operations for the Kubisat firmware.">
<polygon fill="white" stroke="#666666" points="2252.5,-218 2137.5,-218 2137.5,-198 2252.5,-198 2252.5,-218"/>
<text text-anchor="middle" x="2195" y="-204.5" font-family="Helvetica,sans-Serif" font-size="10.00">lib/storage/storage.cpp</text>
</a>
</g>
</g>
<!-- Node25&#45;&gt;Node26 -->
<g id="edge34_Node000025_Node000026" class="edge">
<title>Node25&#45;&gt;Node26</title>
<g id="a_edge34_Node000025_Node000026"><a xlink:title=" ">
<path fill="none" stroke="#63b8ff" d="M2195,-254.28C2195,-242.27 2195,-227.74 2195,-218.44"/>
<polygon fill="#63b8ff" stroke="#63b8ff" points="2191.5,-254.03 2195,-264.03 2198.5,-254.03 2191.5,-254.03"/>
</a>
</g>
</g>
<!-- Node27&#45;&gt;Node2 -->
<g id="edge36_Node000027_Node000002" class="edge">
<title>Node27&#45;&gt;Node2</title>
<g id="a_edge36_Node000027_Node000002"><a xlink:title=" ">
<path fill="none" stroke="#63b8ff" d="M1899.16,-274.45C1977.17,-271.93 2140.28,-258.77 2090,-192 2042.71,-129.2 1793.85,-89.29 1706.41,-77.03"/>
<polygon fill="#63b8ff" stroke="#63b8ff" points="1899.28,-270.94 1889.38,-274.72 1899.47,-277.94 1899.28,-270.94"/>
</a>
</g>
</g>
<!-- Node27&#45;&gt;Node6 -->
<g id="edge38_Node000027_Node000006" class="edge">
<title>Node27&#45;&gt;Node6</title>
<g id="a_edge38_Node000027_Node000006"><a xlink:title=" ">
<path fill="none" stroke="#63b8ff" d="M1821.13,-269.75C1734.28,-258.03 1524.27,-229.69 1424.87,-216.27"/>
<polygon fill="#63b8ff" stroke="#63b8ff" points="1820.43,-273.19 1830.81,-271.06 1821.37,-266.25 1820.43,-273.19"/>
</a>
</g>
</g>
<!-- Node27&#45;&gt;Node20 -->
<g id="edge39_Node000027_Node000020" class="edge">
<title>Node27&#45;&gt;Node20</title>
<g id="a_edge39_Node000027_Node000020"><a xlink:title=" ">
<path fill="none" stroke="#63b8ff" d="M1860.21,-254.24C1859.33,-235.96 1855.36,-209.59 1841,-192 1812.33,-156.88 1692.61,-111.74 1625.37,-88.45"/>
<polygon fill="#63b8ff" stroke="#63b8ff" points="1856.7,-254.18 1860.38,-264.12 1863.7,-254.06 1856.7,-254.18"/>
</a>
</g>
</g>
<!-- Node27&#45;&gt;Node22 -->
<g id="edge40_Node000027_Node000022" class="edge">
<title>Node27&#45;&gt;Node22</title>
<g id="a_edge40_Node000027_Node000022"><a xlink:title=" ">
<path fill="none" stroke="#63b8ff" d="M1821.29,-264.04C1776.29,-251.29 1702.76,-230.46 1660.23,-218.41"/>
<polygon fill="#63b8ff" stroke="#63b8ff" points="1820.33,-267.4 1830.9,-266.76 1822.23,-260.66 1820.33,-267.4"/>
</a>
</g>
</g>
<!-- Node27&#45;&gt;Node24 -->
<g id="edge41_Node000027_Node000024" class="edge">
<title>Node27&#45;&gt;Node24</title>
<g id="a_edge41_Node000027_Node000024"><a xlink:title=" ">
<path fill="none" stroke="#63b8ff" d="M1838.93,-258.83C1825.21,-248.3 1807.43,-234.65 1793.94,-224.3"/>
<polygon fill="#63b8ff" stroke="#63b8ff" points="1836.41,-261.31 1846.48,-264.62 1840.68,-255.76 1836.41,-261.31"/>
</a>
</g>
</g>
<!-- Node27&#45;&gt;Node26 -->
<g id="edge42_Node000027_Node000026" class="edge">
<title>Node27&#45;&gt;Node26</title>
<g id="a_edge42_Node000027_Node000026"><a xlink:title=" ">
<path fill="none" stroke="#63b8ff" d="M1898.88,-267.64C1950.23,-257.87 2043.47,-239.99 2123,-224 2131.76,-222.24 2141.12,-220.32 2150.08,-218.46"/>
<polygon fill="#63b8ff" stroke="#63b8ff" points="1898.32,-264.18 1889.15,-269.48 1899.63,-271.05 1898.32,-264.18"/>
</a>
</g>
</g>
<!-- Node28 -->
<g id="Node000028" class="node">
<title>Node28</title>
<g id="a_Node000028"><a xlink:href="_d_s3231_8cpp.html" target="_top" xlink:title=" ">
<polygon fill="white" stroke="#666666" points="1997.5,-218 1888.5,-218 1888.5,-198 1997.5,-198 1997.5,-218"/>
<text text-anchor="middle" x="1943" y="-204.5" font-family="Helvetica,sans-Serif" font-size="10.00">lib/clock/DS3231.cpp</text>
</a>
</g>
</g>
<!-- Node27&#45;&gt;Node28 -->
<g id="edge37_Node000027_Node000028" class="edge">
<title>Node27&#45;&gt;Node28</title>
<g id="a_edge37_Node000027_Node000028"><a xlink:title=" ">
<path fill="none" stroke="#63b8ff" d="M1880.51,-258.69C1896.44,-246.03 1917.95,-228.92 1931.13,-218.44"/>
<polygon fill="#63b8ff" stroke="#63b8ff" points="1878.73,-255.64 1873.08,-264.6 1883.08,-261.12 1878.73,-255.64"/>
</a>
</g>
</g>
<!-- Node29 -->
<g id="Node000029" class="node">
<title>Node29</title>
<g id="a_Node000029"><a xlink:href="utils_8cpp.html" target="_top" xlink:title="Implements utility functions for the Kubisat firmware.">
<polygon fill="white" stroke="#666666" points="2080.75,-218 2015.25,-218 2015.25,-198 2080.75,-198 2080.75,-218"/>
<text text-anchor="middle" x="2048" y="-204.5" font-family="Helvetica,sans-Serif" font-size="10.00">lib/utils.cpp</text>
</a>
</g>
</g>
<!-- Node27&#45;&gt;Node29 -->
<g id="edge43_Node000027_Node000029" class="edge">
<title>Node27&#45;&gt;Node29</title>
<g id="a_edge43_Node000027_Node000029"><a xlink:title=" ">
<path fill="none" stroke="#63b8ff" d="M1898.42,-261.87C1928.12,-251.67 1970.22,-237.11 2007,-224 2012,-222.22 2017.33,-220.29 2022.43,-218.43"/>
<polygon fill="#63b8ff" stroke="#63b8ff" points="1897.44,-258.5 1889.12,-265.06 1899.71,-265.13 1897.44,-258.5"/>
</a>
</g>
</g>
</g>
</svg>

<g id="navigator" transform="translate(0 0)" fill="#404254">
  <rect fill="#f2f5e9" fill-opacity="0.5" stroke="#606060" stroke-width=".5" x="0" y="0" width="60" height="60"/>
  <use id="zoomplus" xlink:href="#zoomPlus" x="17" y="9" onmousedown="handleZoom(evt,'in')"/>
  <use id="zoomminus" xlink:href="#zoomMin" x="42" y="9" onmousedown="handleZoom(evt,'out')"/>
  <use id="reset" xlink:href="#resetDef" x="30" y="36" onmousedown="handleReset()"/>
   <use id="arrowup" xlink:href="#arrowUp" x="0" y="0" onmousedown="handlePan(0,-1)"/>
  <use id="arrowright" xlink:href="#arrowRight" x="0" y="0" onmousedown="handlePan(1,0)"/>
  <use id="arrowdown" xlink:href="#arrowDown" x="0" y="0" onmousedown="handlePan(0,1)"/>
  <use id="arrowleft" xlink:href="#arrowLeft" x="0" y="0" onmousedown="handlePan(-1,0)"/>
</g>
<svg viewBox="0 0 15 15" width="100%" height="30px" preserveAspectRatio="xMaxYMin meet">
 <g id="arrow_out" transform="scale(0.3 0.3)">
  <a xlink:href="pin__config_8h__dep__incl_org.svg" target="_base">
   <rect id="button" ry="5" rx="5" y="6" x="6" height="38" width="38"
        fill="#f2f5e9" fill-opacity="0.5" stroke="#606060" stroke-width="1.0"/>
   <path id="arrow"
     d="M 11.500037,31.436501 C 11.940474,20.09759 22.043105,11.32322 32.158766,21.979434 L 37.068811,17.246167 C 37.068811,17.246167 37.088388,32 37.088388,32 L 22.160133,31.978069 C 22.160133,31.978069 26.997745,27.140456 26.997745,27.140456 C 18.528582,18.264221 13.291696,25.230495 11.500037,31.436501 z"
     style="fill:#404040;"/>
  </a>
 </g>
</svg>

<style type='text/css'>
<![CDATA[
[data-mouse-over-selected='false'] { opacity: 0.7; }
[data-mouse-over-selected='true']  { opacity: 1.0; }
]]>
</style>
<script type="application/ecmascript"><![CDATA[
document.addEventListener('DOMContentLoaded', (event) => {
  highlightEdges();
  highlightAdjacentNodes();
});
]]></script>
</svg>
