<?xml version="1.0" encoding="UTF-8" standalone="no"?>
<!DOCTYPE svg PUBLIC "-//W3C//DTD SVG 1.1//EN"
 "http://www.w3.org/Graphics/SVG/1.1/DTD/svg11.dtd">
<!-- Generated by graphviz version 12.2.1 (20241206.2353)
 -->
<!-- Title: lib/pin_config.h Pages: 1 -->
<svg width="2322pt" height="356pt"
 viewBox="0.00 0.00 2321.63 356.00" xmlns="http://www.w3.org/2000/svg" xmlns:xlink="http://www.w3.org/1999/xlink">
<g id="graph0" class="graph" transform="scale(1 1) rotate(0) translate(4 352)">
<title>lib/pin_config.h</title>
<!-- Node1 -->
<g id="Node000001" class="node">
<title>Node1</title>
<g id="a_Node000001"><a xlink:title=" ">
<polygon fill="#999999" stroke="#666666" points="1736.25,-348 1655,-348 1655,-328 1736.25,-328 1736.25,-348"/>
<text text-anchor="middle" x="1695.62" y="-334.5" font-family="Helvetica,sans-Serif" font-size="10.00">lib/pin_config.h</text>
</a>
</g>
</g>
<!-- Node2 -->
<g id="Node000002" class="node">
<title>Node2</title>
<g id="a_Node000002"><a xlink:href="includes_8h.html" target="_top" xlink:title=" ">
<polygon fill="white" stroke="#666666" points="1706.75,-82 1646.5,-82 1646.5,-62 1706.75,-62 1706.75,-82"/>
<text text-anchor="middle" x="1676.62" y="-68.5" font-family="Helvetica,sans-Serif" font-size="10.00">includes.h</text>
</a>
</g>
</g>
<!-- Node1&#45;&gt;Node2 -->
<g id="edge1_Node000001_Node000002" class="edge">
<title>Node1&#45;&gt;Node2</title>
<g id="a_edge1_Node000001_Node000002"><a xlink:title=" ">
<path fill="none" stroke="#63b8ff" d="M1643.68,-334.83C1612.72,-330.54 1575.65,-319.47 1555.62,-292 1523.81,-248.36 1535.22,-217.94 1606.62,-124 1620.46,-105.8 1642.54,-91.24 1658.2,-82.4"/>
<polygon fill="#63b8ff" stroke="#63b8ff" points="1642.93,-338.27 1653.27,-335.95 1643.74,-331.32 1642.93,-338.27"/>
</a>
</g>
</g>
<!-- Node4 -->
<g id="Node000004" class="node">
<title>Node4</title>
<g id="a_Node000004"><a xlink:href="_lo_ra-_r_p2040_8h.html" target="_top" xlink:title=" ">
<polygon fill="white" stroke="#666666" points="1470.38,-292 1356.88,-292 1356.88,-260 1470.38,-260 1470.38,-292"/>
<text text-anchor="start" x="1364.88" y="-278.5" font-family="Helvetica,sans-Serif" font-size="10.00">lib/comms/LoRa/LoRa</text>
<text text-anchor="middle" x="1413.62" y="-266.5" font-family="Helvetica,sans-Serif" font-size="10.00">&#45;RP2040.h</text>
</a>
</g>
</g>
<!-- Node1&#45;&gt;Node4 -->
<g id="edge3_Node000001_Node000004" class="edge">
<title>Node1&#45;&gt;Node4</title>
<g id="a_edge3_Node000001_Node000004"><a xlink:title=" ">
<path fill="none" stroke="#63b8ff" d="M1643.64,-325.94C1594.65,-315.52 1521.41,-299.93 1470.8,-289.16"/>
<polygon fill="#63b8ff" stroke="#63b8ff" points="1642.63,-329.3 1653.14,-327.96 1644.09,-322.46 1642.63,-329.3"/>
</a>
</g>
</g>
<!-- Node6 -->
<g id="Node000006" class="node">
<title>Node6</title>
<g id="a_Node000006"><a xlink:href="protocol_8h.html" target="_top" xlink:title=" ">
<polygon fill="white" stroke="#666666" points="1471,-218 1364.25,-218 1364.25,-198 1471,-198 1471,-218"/>
<text text-anchor="middle" x="1417.62" y="-204.5" font-family="Helvetica,sans-Serif" font-size="10.00">lib/comms/protocol.h</text>
</a>
</g>
</g>
<!-- Node1&#45;&gt;Node6 -->
<g id="edge25_Node000001_Node000006" class="edge">
<title>Node1&#45;&gt;Node6</title>
<g id="a_edge25_Node000001_Node000006"><a xlink:title=" ">
<path fill="none" stroke="#63b8ff" d="M1643.73,-329.3C1608.28,-322.67 1560.98,-311.09 1522.62,-292 1512.22,-286.82 1453.99,-239.08 1429.01,-218.43"/>
<polygon fill="#63b8ff" stroke="#63b8ff" points="1642.84,-332.7 1653.3,-331.01 1644.07,-325.81 1642.84,-332.7"/>
</a>
</g>
</g>
<!-- Node21 -->
<g id="Node000021" class="node">
<title>Node21</title>
<g id="a_Node000021"><a xlink:href="gps__collector_8h.html" target="_top" xlink:title=" ">
<polygon fill="white" stroke="#666666" points="1696.38,-286 1564.88,-286 1564.88,-266 1696.38,-266 1696.38,-286"/>
<text text-anchor="middle" x="1630.62" y="-272.5" font-family="Helvetica,sans-Serif" font-size="10.00">lib/location/gps_collector.h</text>
</a>
</g>
</g>
<!-- Node1&#45;&gt;Node21 -->
<g id="edge26_Node000001_Node000021" class="edge">
<title>Node1&#45;&gt;Node21</title>
<g id="a_edge26_Node000001_Node000021"><a xlink:title=" ">
<path fill="none" stroke="#63b8ff" d="M1677.1,-319.9C1665.19,-308.91 1650.18,-295.05 1640.5,-286.11"/>
<polygon fill="#63b8ff" stroke="#63b8ff" points="1674.63,-322.39 1684.36,-326.6 1679.38,-317.24 1674.63,-322.39"/>
</a>
</g>
</g>
<!-- Node23 -->
<g id="Node000023" class="node">
<title>Node23</title>
<g id="a_Node000023"><a xlink:href="pin__config_8cpp.html" target="_top" xlink:title=" ">
<polygon fill="white" stroke="#666666" points="1806.5,-286 1714.75,-286 1714.75,-266 1806.5,-266 1806.5,-286"/>
<text text-anchor="middle" x="1760.62" y="-272.5" font-family="Helvetica,sans-Serif" font-size="10.00">lib/pin_config.cpp</text>
</a>
</g>
</g>
<!-- Node1&#45;&gt;Node23 -->
<g id="edge30_Node000001_Node000023" class="edge">
<title>Node1&#45;&gt;Node23</title>
<g id="a_edge30_Node000001_Node000023"><a xlink:title=" ">
<path fill="none" stroke="#63b8ff" d="M1714.15,-319.9C1726.06,-308.91 1741.07,-295.05 1750.75,-286.11"/>
<polygon fill="#63b8ff" stroke="#63b8ff" points="1711.87,-317.24 1706.89,-326.6 1716.62,-322.39 1711.87,-317.24"/>
</a>
</g>
</g>
<!-- Node24 -->
<g id="Node000024" class="node">
<title>Node24</title>
<g id="a_Node000024"><a xlink:href="_i_n_a3221_8cpp.html" target="_top" xlink:title=" ">
<polygon fill="white" stroke="#666666" points="2165.12,-224 2050.12,-224 2050.12,-192 2165.12,-192 2165.12,-224"/>
<text text-anchor="start" x="2058.12" y="-210.5" font-family="Helvetica,sans-Serif" font-size="10.00">lib/powerman/INA3221</text>
<text text-anchor="middle" x="2107.62" y="-198.5" font-family="Helvetica,sans-Serif" font-size="10.00">/INA3221.cpp</text>
</a>
</g>
</g>
<!-- Node1&#45;&gt;Node24 -->
<g id="edge31_Node000001_Node000024" class="edge">
<title>Node1&#45;&gt;Node24</title>
<g id="a_edge31_Node000001_Node000024"><a xlink:title=" ">
<path fill="none" stroke="#63b8ff" d="M1747.62,-327.05C1787.2,-318.98 1842.84,-306.58 1890.62,-292 1955.83,-272.11 2029.51,-242.31 2072.06,-224.35"/>
<polygon fill="#63b8ff" stroke="#63b8ff" points="1746.99,-323.6 1737.88,-329.01 1748.37,-330.47 1746.99,-323.6"/>
</a>
</g>
</g>
<!-- Node25 -->
<g id="Node000025" class="node">
<title>Node25</title>
<g id="a_Node000025"><a xlink:href="storage_8h.html" target="_top" xlink:title=" ">
<polygon fill="white" stroke="#666666" points="2292.88,-286 2188.38,-286 2188.38,-266 2292.88,-266 2292.88,-286"/>
<text text-anchor="middle" x="2240.62" y="-272.5" font-family="Helvetica,sans-Serif" font-size="10.00">lib/storage/storage.h</text>
</a>
</g>
</g>
<!-- Node1&#45;&gt;Node25 -->
<g id="edge32_Node000001_Node000025" class="edge">
<title>Node1&#45;&gt;Node25</title>
<g id="a_edge32_Node000001_Node000025"><a xlink:title=" ">
<path fill="none" stroke="#63b8ff" d="M1747.73,-331.26C1851.71,-319.82 2083.93,-294.25 2188.19,-282.77"/>
<polygon fill="#63b8ff" stroke="#63b8ff" points="1747.65,-327.75 1738.09,-332.32 1748.42,-334.71 1747.65,-327.75"/>
</a>
</g>
</g>
<!-- Node27 -->
<g id="Node000027" class="node">
<title>Node27</title>
<g id="a_Node000027"><a xlink:href="utils_8h.html" target="_top" xlink:title=" ">
<polygon fill="white" stroke="#666666" points="1881.12,-286 1826.12,-286 1826.12,-266 1881.12,-266 1881.12,-286"/>
<text text-anchor="middle" x="1853.62" y="-272.5" font-family="Helvetica,sans-Serif" font-size="10.00">lib/utils.h</text>
</a>
</g>
</g>
<!-- Node1&#45;&gt;Node27 -->
<g id="edge35_Node000001_Node000027" class="edge">
<title>Node1&#45;&gt;Node27</title>
<g id="a_edge35_Node000001_Node000027"><a xlink:title=" ">
<path fill="none" stroke="#63b8ff" d="M1731.64,-323.68C1755.5,-314.81 1787.48,-302.83 1815.62,-292 1820.26,-290.22 1825.2,-288.29 1829.93,-286.42"/>
<polygon fill="#63b8ff" stroke="#63b8ff" points="1730.53,-320.36 1722.38,-327.12 1732.97,-326.92 1730.53,-320.36"/>
</a>
</g>
</g>
<!-- Node3 -->
<g id="Node000003" class="node">
<title>Node3</title>
<g id="a_Node000003"><a xlink:href="main_8cpp.html" target="_top" xlink:title=" ">
<polygon fill="white" stroke="#666666" points="1704.5,-20 1648.75,-20 1648.75,0 1704.5,0 1704.5,-20"/>
<text text-anchor="middle" x="1676.62" y="-6.5" font-family="Helvetica,sans-Serif" font-size="10.00">main.cpp</text>
</a>
</g>
</g>
<!-- Node2&#45;&gt;Node3 -->
<g id="edge2_Node000002_Node000003" class="edge">
<title>Node2&#45;&gt;Node3</title>
<g id="a_edge2_Node000002_Node000003"><a xlink:title=" ">
<path fill="none" stroke="#63b8ff" d="M1676.62,-50.25C1676.62,-39.97 1676.62,-28.09 1676.62,-20.11"/>
<polygon fill="#63b8ff" stroke="#63b8ff" points="1673.13,-50.11 1676.63,-60.11 1680.13,-50.11 1673.13,-50.11"/>
</a>
</g>
</g>
<!-- Node5 -->
<g id="Node000005" class="node">
<title>Node5</title>
<g id="a_Node000005"><a xlink:href="_lo_ra-_r_p2040_8cpp.html" target="_top" xlink:title=" ">
<polygon fill="white" stroke="#666666" points="1346.38,-224 1232.88,-224 1232.88,-192 1346.38,-192 1346.38,-224"/>
<text text-anchor="start" x="1240.88" y="-210.5" font-family="Helvetica,sans-Serif" font-size="10.00">lib/comms/LoRa/LoRa</text>
<text text-anchor="middle" x="1289.62" y="-198.5" font-family="Helvetica,sans-Serif" font-size="10.00">&#45;RP2040.cpp</text>
</a>
</g>
</g>
<!-- Node4&#45;&gt;Node5 -->
<g id="edge4_Node000004_Node000005" class="edge">
<title>Node4&#45;&gt;Node5</title>
<g id="a_edge4_Node000004_Node000005"><a xlink:title=" ">
<path fill="none" stroke="#63b8ff" d="M1374.55,-254.2C1356.4,-244.54 1335.2,-233.26 1318.52,-224.38"/>
<polygon fill="#63b8ff" stroke="#63b8ff" points="1372.74,-257.21 1383.22,-258.81 1376.03,-251.03 1372.74,-257.21"/>
</a>
</g>
</g>
<!-- Node4&#45;&gt;Node6 -->
<g id="edge5_Node000004_Node000006" class="edge">
<title>Node4&#45;&gt;Node6</title>
<g id="a_edge5_Node000004_Node000006"><a xlink:title=" ">
<path fill="none" stroke="#63b8ff" d="M1415.24,-248.31C1415.89,-237.67 1416.59,-226.13 1417.06,-218.32"/>
<polygon fill="#63b8ff" stroke="#63b8ff" points="1411.76,-247.99 1414.64,-258.18 1418.74,-248.41 1411.76,-247.99"/>
</a>
</g>
</g>
<!-- Node6&#45;&gt;Node2 -->
<g id="edge6_Node000006_Node000002" class="edge">
<title>Node6&#45;&gt;Node2</title>
<g id="a_edge6_Node000006_Node000002"><a xlink:title=" ">
<path fill="none" stroke="#63b8ff" d="M1442.11,-191.66C1470.22,-174.32 1517.96,-145.67 1560.62,-124 1592.01,-108.06 1629.47,-92.12 1653.16,-82.41"/>
<polygon fill="#63b8ff" stroke="#63b8ff" points="1440.29,-188.67 1433.64,-196.92 1443.98,-194.62 1440.29,-188.67"/>
</a>
</g>
</g>
<!-- Node7 -->
<g id="Node000007" class="node">
<title>Node7</title>
<g id="a_Node000007"><a xlink:href="commands_8h.html" target="_top" xlink:title=" ">
<polygon fill="white" stroke="#666666" points="265.62,-156 153.62,-156 153.62,-124 265.62,-124 265.62,-156"/>
<text text-anchor="start" x="161.62" y="-142.5" font-family="Helvetica,sans-Serif" font-size="10.00">lib/comms/commands</text>
<text text-anchor="middle" x="209.62" y="-130.5" font-family="Helvetica,sans-Serif" font-size="10.00">/commands.h</text>
</a>
</g>
</g>
<!-- Node6&#45;&gt;Node7 -->
<g id="edge7_Node000006_Node000007" class="edge">
<title>Node6&#45;&gt;Node7</title>
<g id="a_edge7_Node000006_Node000007"><a xlink:title=" ">
<path fill="none" stroke="#63b8ff" d="M1372.85,-195.09C1367.08,-193.87 1361.24,-192.8 1355.62,-192 1141.56,-161.63 466.24,-146.09 266.07,-142.07"/>
<polygon fill="#63b8ff" stroke="#63b8ff" points="1371.74,-198.43 1382.27,-197.22 1373.29,-191.6 1371.74,-198.43"/>
</a>
</g>
</g>
<!-- Node10 -->
<g id="Node000010" class="node">
<title>Node10</title>
<g id="a_Node000010"><a xlink:href="communication_8h.html" target="_top" xlink:title=" ">
<polygon fill="white" stroke="#666666" points="1025.75,-150 887.5,-150 887.5,-130 1025.75,-130 1025.75,-150"/>
<text text-anchor="middle" x="956.62" y="-136.5" font-family="Helvetica,sans-Serif" font-size="10.00">lib/comms/communication.h</text>
</a>
</g>
</g>
<!-- Node6&#45;&gt;Node10 -->
<g id="edge10_Node000006_Node000010" class="edge">
<title>Node6&#45;&gt;Node10</title>
<g id="a_edge10_Node000006_Node000010"><a xlink:title=" ">
<path fill="none" stroke="#63b8ff" d="M1370.52,-195.03C1365.51,-193.93 1360.47,-192.89 1355.62,-192 1240.93,-170.86 1106.08,-155.6 1026.18,-147.54"/>
<polygon fill="#63b8ff" stroke="#63b8ff" points="1369.37,-198.36 1379.9,-197.18 1370.94,-191.54 1369.37,-198.36"/>
</a>
</g>
</g>
<!-- Node20 -->
<g id="Node000020" class="node">
<title>Node20</title>
<g id="a_Node000020"><a xlink:href="event__manager_8cpp.html" target="_top" xlink:title="Implements the event management system for the Kubisat firmware.">
<polygon fill="white" stroke="#666666" points="1628.88,-88 1530.38,-88 1530.38,-56 1628.88,-56 1628.88,-88"/>
<text text-anchor="start" x="1538.38" y="-74.5" font-family="Helvetica,sans-Serif" font-size="10.00">lib/eventman/event</text>
<text text-anchor="middle" x="1579.62" y="-62.5" font-family="Helvetica,sans-Serif" font-size="10.00">_manager.cpp</text>
</a>
</g>
</g>
<!-- Node6&#45;&gt;Node20 -->
<g id="edge24_Node000006_Node000020" class="edge">
<title>Node6&#45;&gt;Node20</title>
<g id="a_edge24_Node000006_Node000020"><a xlink:title=" ">
<path fill="none" stroke="#63b8ff" d="M1419.62,-186.43C1422.45,-167.89 1429.26,-141 1445.62,-124 1457.79,-111.36 1497.21,-97.17 1530.16,-86.97"/>
<polygon fill="#63b8ff" stroke="#63b8ff" points="1416.16,-185.86 1418.41,-196.21 1423.11,-186.71 1416.16,-185.86"/>
</a>
</g>
</g>
<!-- Node8 -->
<g id="Node000008" class="node">
<title>Node8</title>
<g id="a_Node000008"><a xlink:href="commands_8cpp.html" target="_top" xlink:title=" ">
<polygon fill="white" stroke="#666666" points="265.62,-88 153.62,-88 153.62,-56 265.62,-56 265.62,-88"/>
<text text-anchor="start" x="161.62" y="-74.5" font-family="Helvetica,sans-Serif" font-size="10.00">lib/comms/commands</text>
<text text-anchor="middle" x="209.62" y="-62.5" font-family="Helvetica,sans-Serif" font-size="10.00">/commands.cpp</text>
</a>
</g>
</g>
<!-- Node7&#45;&gt;Node8 -->
<g id="edge8_Node000007_Node000008" class="edge">
<title>Node7&#45;&gt;Node8</title>
<g id="a_edge8_Node000007_Node000008"><a xlink:title=" ">
<path fill="none" stroke="#63b8ff" d="M209.62,-112.31C209.62,-104.12 209.62,-95.38 209.62,-88.22"/>
<polygon fill="#63b8ff" stroke="#63b8ff" points="206.13,-112.18 209.63,-122.18 213.13,-112.18 206.13,-112.18"/>
</a>
</g>
</g>
<!-- Node9 -->
<g id="Node000009" class="node">
<title>Node9</title>
<g id="a_Node000009"><a xlink:href="diagnostic__commands_8cpp.html" target="_top" xlink:title=" ">
<polygon fill="white" stroke="#666666" points="135.25,-88 0,-88 0,-56 135.25,-56 135.25,-88"/>
<text text-anchor="start" x="8" y="-74.5" font-family="Helvetica,sans-Serif" font-size="10.00">lib/comms/commands</text>
<text text-anchor="middle" x="67.62" y="-62.5" font-family="Helvetica,sans-Serif" font-size="10.00">/diagnostic_commands.cpp</text>
</a>
</g>
</g>
<!-- Node7&#45;&gt;Node9 -->
<g id="edge9_Node000007_Node000009" class="edge">
<title>Node7&#45;&gt;Node9</title>
<g id="a_edge9_Node000007_Node000009"><a xlink:title=" ">
<path fill="none" stroke="#63b8ff" d="M166.04,-118.74C145,-108.96 120.17,-97.42 100.71,-88.38"/>
<polygon fill="#63b8ff" stroke="#63b8ff" points="164.42,-121.85 174.96,-122.89 167.37,-115.5 164.42,-121.85"/>
</a>
</g>
</g>
<!-- Node10&#45;&gt;Node2 -->
<g id="edge11_Node000010_Node000002" class="edge">
<title>Node10&#45;&gt;Node2</title>
<g id="a_edge11_Node000010_Node000002"><a xlink:title=" ">
<path fill="none" stroke="#63b8ff" d="M1037.32,-135.91C1192.12,-129.5 1525.41,-113.21 1637.62,-88 1643.57,-86.66 1649.81,-84.59 1655.52,-82.41"/>
<polygon fill="#63b8ff" stroke="#63b8ff" points="1037.4,-132.41 1027.55,-136.31 1037.68,-139.4 1037.4,-132.41"/>
</a>
</g>
</g>
<!-- Node10&#45;&gt;Node8 -->
<g id="edge13_Node000010_Node000008" class="edge">
<title>Node10&#45;&gt;Node8</title>
<g id="a_edge13_Node000010_Node000008"><a xlink:title=" ">
<path fill="none" stroke="#63b8ff" d="M875.77,-136.93C747.62,-132.76 490.27,-120.75 274.62,-88 271.76,-87.57 268.84,-87.07 265.89,-86.54"/>
<polygon fill="#63b8ff" stroke="#63b8ff" points="875.4,-140.42 885.5,-137.24 875.62,-133.42 875.4,-140.42"/>
</a>
</g>
</g>
<!-- Node10&#45;&gt;Node9 -->
<g id="edge14_Node000010_Node000009" class="edge">
<title>Node10&#45;&gt;Node9</title>
<g id="a_edge14_Node000010_Node000009"><a xlink:title=" ">
<path fill="none" stroke="#63b8ff" d="M876.01,-137.4C729.74,-133.72 411.06,-122.17 144.62,-88 141.65,-87.62 138.62,-87.19 135.57,-86.73"/>
<polygon fill="#63b8ff" stroke="#63b8ff" points="875.5,-140.88 885.58,-137.63 875.67,-133.89 875.5,-140.88"/>
</a>
</g>
</g>
<!-- Node11 -->
<g id="Node000011" class="node">
<title>Node11</title>
<g id="a_Node000011"><a xlink:href="clock__commands_8cpp.html" target="_top" xlink:title=" ">
<polygon fill="white" stroke="#666666" points="947.75,-88 833.5,-88 833.5,-56 947.75,-56 947.75,-88"/>
<text text-anchor="start" x="841.5" y="-74.5" font-family="Helvetica,sans-Serif" font-size="10.00">lib/comms/commands</text>
<text text-anchor="middle" x="890.62" y="-62.5" font-family="Helvetica,sans-Serif" font-size="10.00">/clock_commands.cpp</text>
</a>
</g>
</g>
<!-- Node10&#45;&gt;Node11 -->
<g id="edge12_Node000010_Node000011" class="edge">
<title>Node10&#45;&gt;Node11</title>
<g id="a_edge12_Node000010_Node000011"><a xlink:title=" ">
<path fill="none" stroke="#63b8ff" d="M939.23,-121.6C928.88,-111.26 915.88,-98.25 905.93,-88.3"/>
<polygon fill="#63b8ff" stroke="#63b8ff" points="936.55,-123.88 946.1,-128.47 941.5,-118.93 936.55,-123.88"/>
</a>
</g>
</g>
<!-- Node12 -->
<g id="Node000012" class="node">
<title>Node12</title>
<g id="a_Node000012"><a xlink:href="event__commands_8cpp.html" target="_top" xlink:title=" ">
<polygon fill="white" stroke="#666666" points="1081.12,-88 966.12,-88 966.12,-56 1081.12,-56 1081.12,-88"/>
<text text-anchor="start" x="974.12" y="-74.5" font-family="Helvetica,sans-Serif" font-size="10.00">lib/comms/commands</text>
<text text-anchor="middle" x="1023.62" y="-62.5" font-family="Helvetica,sans-Serif" font-size="10.00">/event_commands.cpp</text>
</a>
</g>
</g>
<!-- Node10&#45;&gt;Node12 -->
<g id="edge15_Node000010_Node000012" class="edge">
<title>Node10&#45;&gt;Node12</title>
<g id="a_edge15_Node000010_Node000012"><a xlink:title=" ">
<path fill="none" stroke="#63b8ff" d="M974.28,-121.6C984.79,-111.26 997.99,-98.25 1008.09,-88.3"/>
<polygon fill="#63b8ff" stroke="#63b8ff" points="971.97,-118.97 967.3,-128.48 976.88,-123.96 971.97,-118.97"/>
</a>
</g>
</g>
<!-- Node13 -->
<g id="Node000013" class="node">
<title>Node13</title>
<g id="a_Node000013"><a xlink:href="gps__commands_8cpp.html" target="_top" xlink:title=" ">
<polygon fill="white" stroke="#666666" points="1512.62,-88 1400.62,-88 1400.62,-56 1512.62,-56 1512.62,-88"/>
<text text-anchor="start" x="1408.62" y="-74.5" font-family="Helvetica,sans-Serif" font-size="10.00">lib/comms/commands</text>
<text text-anchor="middle" x="1456.62" y="-62.5" font-family="Helvetica,sans-Serif" font-size="10.00">/gps_commands.cpp</text>
</a>
</g>
</g>
<!-- Node10&#45;&gt;Node13 -->
<g id="edge16_Node000010_Node000013" class="edge">
<title>Node10&#45;&gt;Node13</title>
<g id="a_edge16_Node000010_Node000013"><a xlink:title=" ">
<path fill="none" stroke="#63b8ff" d="M1037.36,-132.22C1124.98,-124.23 1268.84,-109.3 1391.62,-88 1394.48,-87.51 1397.39,-86.96 1400.33,-86.39"/>
<polygon fill="#63b8ff" stroke="#63b8ff" points="1037.05,-128.73 1027.41,-133.11 1037.68,-135.7 1037.05,-128.73"/>
</a>
</g>
</g>
<!-- Node14 -->
<g id="Node000014" class="node">
<title>Node14</title>
<g id="a_Node000014"><a xlink:href="power__commands_8cpp.html" target="_top" xlink:title=" ">
<polygon fill="white" stroke="#666666" points="1216.25,-88 1099,-88 1099,-56 1216.25,-56 1216.25,-88"/>
<text text-anchor="start" x="1107" y="-74.5" font-family="Helvetica,sans-Serif" font-size="10.00">lib/comms/commands</text>
<text text-anchor="middle" x="1157.62" y="-62.5" font-family="Helvetica,sans-Serif" font-size="10.00">/power_commands.cpp</text>
</a>
</g>
</g>
<!-- Node10&#45;&gt;Node14 -->
<g id="edge17_Node000010_Node000014" class="edge">
<title>Node10&#45;&gt;Node14</title>
<g id="a_edge17_Node000010_Node000014"><a xlink:title=" ">
<path fill="none" stroke="#63b8ff" d="M995.99,-126.07C1028.87,-115.28 1075.81,-99.87 1110.64,-88.43"/>
<polygon fill="#63b8ff" stroke="#63b8ff" points="995.27,-122.63 986.86,-129.07 997.45,-129.28 995.27,-122.63"/>
</a>
</g>
</g>
<!-- Node15 -->
<g id="Node000015" class="node">
<title>Node15</title>
<g id="a_Node000015"><a xlink:href="communication_8cpp.html" target="_top" xlink:title=" ">
<polygon fill="white" stroke="#666666" points="1383,-82 1234.25,-82 1234.25,-62 1383,-62 1383,-82"/>
<text text-anchor="middle" x="1308.62" y="-68.5" font-family="Helvetica,sans-Serif" font-size="10.00">lib/comms/communication.cpp</text>
</a>
</g>
</g>
<!-- Node10&#45;&gt;Node15 -->
<g id="edge18_Node000010_Node000015" class="edge">
<title>Node10&#45;&gt;Node15</title>
<g id="a_edge18_Node000010_Node000015"><a xlink:title=" ">
<path fill="none" stroke="#63b8ff" d="M1018.03,-127.49C1086.1,-114.72 1194.61,-94.38 1258,-82.49"/>
<polygon fill="#63b8ff" stroke="#63b8ff" points="1017.73,-123.98 1008.55,-129.26 1019.02,-130.86 1017.73,-123.98"/>
</a>
</g>
</g>
<!-- Node16 -->
<g id="Node000016" class="node">
<title>Node16</title>
<g id="a_Node000016"><a xlink:href="frame_8cpp.html" target="_top" xlink:title="Implements functions for encoding, decoding, building, and processing Frames.">
<polygon fill="white" stroke="#666666" points="391.38,-82 283.88,-82 283.88,-62 391.38,-62 391.38,-82"/>
<text text-anchor="middle" x="337.62" y="-68.5" font-family="Helvetica,sans-Serif" font-size="10.00">lib/comms/frame.cpp</text>
</a>
</g>
</g>
<!-- Node10&#45;&gt;Node16 -->
<g id="edge19_Node000010_Node000016" class="edge">
<title>Node10&#45;&gt;Node16</title>
<g id="a_edge19_Node000010_Node000016"><a xlink:title=" ">
<path fill="none" stroke="#63b8ff" d="M876.14,-135.22C767.59,-129.3 568.53,-115.55 400.62,-88 391.75,-86.54 382.27,-84.53 373.43,-82.46"/>
<polygon fill="#63b8ff" stroke="#63b8ff" points="875.63,-138.69 885.8,-135.73 876,-131.7 875.63,-138.69"/>
</a>
</g>
</g>
<!-- Node17 -->
<g id="Node000017" class="node">
<title>Node17</title>
<g id="a_Node000017"><a xlink:href="receive_8cpp.html" target="_top" xlink:title="Implements functions for receiving and processing data, including LoRa and UART input.">
<polygon fill="white" stroke="#666666" points="523.75,-82 409.5,-82 409.5,-62 523.75,-62 523.75,-82"/>
<text text-anchor="middle" x="466.62" y="-68.5" font-family="Helvetica,sans-Serif" font-size="10.00">lib/comms/receive.cpp</text>
</a>
</g>
</g>
<!-- Node10&#45;&gt;Node17 -->
<g id="edge20_Node000010_Node000017" class="edge">
<title>Node10&#45;&gt;Node17</title>
<g id="a_edge20_Node000010_Node000017"><a xlink:title=" ">
<path fill="none" stroke="#63b8ff" d="M875.81,-131.8C790.23,-123.58 651.36,-108.58 532.62,-88 523.71,-86.46 514.19,-84.48 505.23,-82.48"/>
<polygon fill="#63b8ff" stroke="#63b8ff" points="875.48,-135.28 885.76,-132.74 876.14,-128.31 875.48,-135.28"/>
</a>
</g>
</g>
<!-- Node18 -->
<g id="Node000018" class="node">
<title>Node18</title>
<g id="a_Node000018"><a xlink:href="send_8cpp.html" target="_top" xlink:title="Implements functions for sending data, including LoRa messages and Frames.">
<polygon fill="white" stroke="#666666" points="645.5,-82 541.75,-82 541.75,-62 645.5,-62 645.5,-82"/>
<text text-anchor="middle" x="593.62" y="-68.5" font-family="Helvetica,sans-Serif" font-size="10.00">lib/comms/send.cpp</text>
</a>
</g>
</g>
<!-- Node10&#45;&gt;Node18 -->
<g id="edge21_Node000010_Node000018" class="edge">
<title>Node10&#45;&gt;Node18</title>
<g id="a_edge21_Node000010_Node000018"><a xlink:title=" ">
<path fill="none" stroke="#63b8ff" d="M881.04,-127.82C819.78,-118.38 731.34,-103.89 654.62,-88 646.72,-86.36 638.29,-84.42 630.3,-82.48"/>
<polygon fill="#63b8ff" stroke="#63b8ff" points="880.24,-131.24 890.66,-129.29 881.3,-124.32 880.24,-131.24"/>
</a>
</g>
</g>
<!-- Node19 -->
<g id="Node000019" class="node">
<title>Node19</title>
<g id="a_Node000019"><a xlink:href="utils__converters_8cpp.html" target="_top" xlink:title="Implements utility functions for converting between different data types.">
<polygon fill="white" stroke="#666666" points="815.5,-82 663.75,-82 663.75,-62 815.5,-62 815.5,-82"/>
<text text-anchor="middle" x="739.62" y="-68.5" font-family="Helvetica,sans-Serif" font-size="10.00">lib/comms/utils_converters.cpp</text>
</a>
</g>
</g>
<!-- Node10&#45;&gt;Node19 -->
<g id="edge22_Node000010_Node000019" class="edge">
<title>Node10&#45;&gt;Node19</title>
<g id="a_edge22_Node000010_Node000019"><a xlink:title=" ">
<path fill="none" stroke="#63b8ff" d="M914.79,-126.28C872.61,-113.45 808.5,-93.95 770.66,-82.44"/>
<polygon fill="#63b8ff" stroke="#63b8ff" points="913.5,-129.54 924.09,-129.1 915.54,-122.84 913.5,-129.54"/>
</a>
</g>
</g>
<!-- Node10&#45;&gt;Node20 -->
<g id="edge23_Node000010_Node000020" class="edge">
<title>Node10&#45;&gt;Node20</title>
<g id="a_edge23_Node000010_Node000020"><a xlink:title=" ">
<path fill="none" stroke="#63b8ff" d="M1037.59,-135.84C1147.78,-130.6 1350.81,-117.59 1521.62,-88 1524.39,-87.52 1527.22,-86.98 1530.07,-86.38"/>
<polygon fill="#63b8ff" stroke="#63b8ff" points="1037.58,-132.34 1027.76,-136.3 1037.91,-139.33 1037.58,-132.34"/>
</a>
</g>
</g>
<!-- Node21&#45;&gt;Node2 -->
<g id="edge27_Node000021_Node000002" class="edge">
<title>Node21&#45;&gt;Node2</title>
<g id="a_edge27_Node000021_Node000002"><a xlink:title=" ">
<path fill="none" stroke="#63b8ff" d="M1613.29,-257.05C1605.68,-247.93 1597.58,-236.2 1593.62,-224 1589.23,-210.47 1589.36,-205.57 1593.62,-192 1608.28,-145.38 1648.39,-101.08 1666.96,-82.36"/>
<polygon fill="#63b8ff" stroke="#63b8ff" points="1610.58,-259.27 1619.85,-264.4 1615.8,-254.61 1610.58,-259.27"/>
</a>
</g>
</g>
<!-- Node21&#45;&gt;Node13 -->
<g id="edge28_Node000021_Node000013" class="edge">
<title>Node21&#45;&gt;Node13</title>
<g id="a_edge28_Node000021_Node000013"><a xlink:title=" ">
<path fill="none" stroke="#63b8ff" d="M1614.13,-257.55C1592.62,-234.63 1554.05,-192.97 1522.62,-156 1502.95,-132.85 1481.22,-105.06 1468.26,-88.23"/>
<polygon fill="#63b8ff" stroke="#63b8ff" points="1611.29,-259.64 1620.69,-264.52 1616.39,-254.84 1611.29,-259.64"/>
</a>
</g>
</g>
<!-- Node22 -->
<g id="Node000022" class="node">
<title>Node22</title>
<g id="a_Node000022"><a xlink:href="gps__collector_8cpp.html" target="_top" xlink:title=" ">
<polygon fill="white" stroke="#666666" points="1744.62,-218 1602.62,-218 1602.62,-198 1744.62,-198 1744.62,-218"/>
<text text-anchor="middle" x="1673.62" y="-204.5" font-family="Helvetica,sans-Serif" font-size="10.00">lib/location/gps_collector.cpp</text>
</a>
</g>
</g>
<!-- Node21&#45;&gt;Node22 -->
<g id="edge29_Node000021_Node000022" class="edge">
<title>Node21&#45;&gt;Node22</title>
<g id="a_edge29_Node000021_Node000022"><a xlink:title=" ">
<path fill="none" stroke="#63b8ff" d="M1642.91,-256.15C1650.94,-243.82 1661.09,-228.23 1667.48,-218.44"/>
<polygon fill="#63b8ff" stroke="#63b8ff" points="1640.14,-253.99 1637.61,-264.28 1646,-257.81 1640.14,-253.99"/>
</a>
</g>
</g>
<!-- Node25&#45;&gt;Node2 -->
<g id="edge33_Node000025_Node000002" class="edge">
<title>Node25&#45;&gt;Node2</title>
<g id="a_edge33_Node000025_Node000002"><a xlink:title=" ">
<path fill="none" stroke="#63b8ff" d="M2267.4,-259.91C2293.63,-243.23 2327.04,-215.58 2307.62,-192 2229.94,-97.66 1822.48,-77.63 1707.1,-73.82"/>
<polygon fill="#63b8ff" stroke="#63b8ff" points="2265.84,-256.77 2259.12,-264.95 2269.48,-262.74 2265.84,-256.77"/>
</a>
</g>
</g>
<!-- Node26 -->
<g id="Node000026" class="node">
<title>Node26</title>
<g id="a_Node000026"><a xlink:href="storage_8cpp.html" target="_top" xlink:title="Implements file system operations for the Kubisat firmware.">
<polygon fill="white" stroke="#666666" points="2298.12,-218 2183.12,-218 2183.12,-198 2298.12,-198 2298.12,-218"/>
<text text-anchor="middle" x="2240.62" y="-204.5" font-family="Helvetica,sans-Serif" font-size="10.00">lib/storage/storage.cpp</text>
</a>
</g>
</g>
<!-- Node25&#45;&gt;Node26 -->
<g id="edge34_Node000025_Node000026" class="edge">
<title>Node25&#45;&gt;Node26</title>
<g id="a_edge34_Node000025_Node000026"><a xlink:title=" ">
<path fill="none" stroke="#63b8ff" d="M2240.62,-254.28C2240.62,-242.27 2240.62,-227.74 2240.62,-218.44"/>
<polygon fill="#63b8ff" stroke="#63b8ff" points="2237.13,-254.03 2240.63,-264.03 2244.13,-254.03 2237.13,-254.03"/>
</a>
</g>
</g>
<!-- Node27&#45;&gt;Node2 -->
<g id="edge36_Node000027_Node000002" class="edge">
<title>Node27&#45;&gt;Node2</title>
<g id="a_edge36_Node000027_Node000002"><a xlink:title=" ">
<path fill="none" stroke="#63b8ff" d="M1883.74,-261.13C1884.71,-260.74 1885.67,-260.36 1886.62,-260 1937.07,-240.79 1970.61,-267.46 2002.62,-224 2011.06,-212.55 2010.78,-203.65 2002.62,-192 1933.73,-93.51 1774.23,-76.26 1707.19,-73.44"/>
<polygon fill="#63b8ff" stroke="#63b8ff" points="1882.57,-257.82 1874.74,-264.96 1885.31,-264.26 1882.57,-257.82"/>
</a>
</g>
</g>
<!-- Node27&#45;&gt;Node6 -->
<g id="edge38_Node000027_Node000006" class="edge">
<title>Node27&#45;&gt;Node6</title>
<g id="a_edge38_Node000027_Node000006"><a xlink:title=" ">
<path fill="none" stroke="#63b8ff" d="M1822.04,-261.86C1819.89,-261.17 1817.74,-260.54 1815.62,-260 1751.7,-243.56 1564.33,-223.51 1471.3,-214.21"/>
<polygon fill="#63b8ff" stroke="#63b8ff" points="1820.61,-265.06 1831.2,-265.13 1822.96,-258.47 1820.61,-265.06"/>
</a>
</g>
</g>
<!-- Node27&#45;&gt;Node20 -->
<g id="edge39_Node000027_Node000020" class="edge">
<title>Node27&#45;&gt;Node20</title>
<g id="a_edge39_Node000027_Node000020"><a xlink:title=" ">
<path fill="none" stroke="#63b8ff" d="M1834.07,-258.61C1807.32,-236.2 1761.68,-198.08 1753.62,-192 1701.62,-152.77 1637.81,-110.56 1603.76,-88.48"/>
<polygon fill="#63b8ff" stroke="#63b8ff" points="1831.58,-261.09 1841.5,-264.83 1836.08,-255.72 1831.58,-261.09"/>
</a>
</g>
</g>
<!-- Node27&#45;&gt;Node22 -->
<g id="edge40_Node000027_Node000022" class="edge">
<title>Node27&#45;&gt;Node22</title>
<g id="a_edge40_Node000027_Node000022"><a xlink:title=" ">
<path fill="none" stroke="#63b8ff" d="M1819.6,-261.51C1818.26,-261 1816.93,-260.49 1815.62,-260 1775.79,-244.99 1729.31,-228.49 1700.67,-218.43"/>
<polygon fill="#63b8ff" stroke="#63b8ff" points="1817.95,-264.62 1828.54,-264.98 1820.48,-258.1 1817.95,-264.62"/>
</a>
</g>
</g>
<!-- Node27&#45;&gt;Node24 -->
<g id="edge41_Node000027_Node000024" class="edge">
<title>Node27&#45;&gt;Node24</title>
<g id="a_edge41_Node000027_Node000024"><a xlink:title=" ">
<path fill="none" stroke="#63b8ff" d="M1892.41,-264.92C1934.36,-254.02 2001.69,-236.53 2049.87,-224.01"/>
<polygon fill="#63b8ff" stroke="#63b8ff" points="1891.55,-261.53 1882.76,-267.43 1893.31,-268.3 1891.55,-261.53"/>
</a>
</g>
</g>
<!-- Node28 -->
<g id="Node000028" class="node">
<title>Node28</title>
<g id="a_Node000028"><a xlink:href="_d_s3231_8cpp.html" target="_top" xlink:title=" ">
<polygon fill="white" stroke="#666666" points="1910.12,-218 1801.12,-218 1801.12,-198 1910.12,-198 1910.12,-218"/>
<text text-anchor="middle" x="1855.62" y="-204.5" font-family="Helvetica,sans-Serif" font-size="10.00">lib/clock/DS3231.cpp</text>
</a>
</g>
</g>
<!-- Node27&#45;&gt;Node28 -->
<g id="edge37_Node000027_Node000028" class="edge">
<title>Node27&#45;&gt;Node28</title>
<g id="a_edge37_Node000027_Node000028"><a xlink:title=" ">
<path fill="none" stroke="#63b8ff" d="M1854.25,-254.28C1854.62,-242.27 1855.06,-227.74 1855.34,-218.44"/>
<polygon fill="#63b8ff" stroke="#63b8ff" points="1850.76,-253.93 1853.96,-264.03 1857.76,-254.14 1850.76,-253.93"/>
</a>
</g>
</g>
<!-- Node29 -->
<g id="Node000029" class="node">
<title>Node29</title>
<g id="a_Node000029"><a xlink:href="utils_8cpp.html" target="_top" xlink:title="Implements utility functions for the Kubisat firmware.">
<polygon fill="white" stroke="#666666" points="1993.38,-218 1927.88,-218 1927.88,-198 1993.38,-198 1993.38,-218"/>
<text text-anchor="middle" x="1960.62" y="-204.5" font-family="Helvetica,sans-Serif" font-size="10.00">lib/utils.cpp</text>
</a>
</g>
</g>
<!-- Node27&#45;&gt;Node29 -->
<g id="edge42_Node000027_Node000029" class="edge">
<title>Node27&#45;&gt;Node29</title>
<g id="a_edge42_Node000027_Node000029"><a xlink:title=" ">
<path fill="none" stroke="#63b8ff" d="M1878.64,-259.57C1899.29,-246.83 1927.93,-229.16 1945.32,-218.44"/>
<polygon fill="#63b8ff" stroke="#63b8ff" points="1876.92,-256.52 1870.24,-264.75 1880.59,-262.48 1876.92,-256.52"/>
</a>
</g>
</g>
</g>
</svg>
