<?xml version="1.0" encoding="UTF-8" standalone="no"?>
<!DOCTYPE svg PUBLIC "-//W3C//DTD SVG 1.1//EN"
 "http://www.w3.org/Graphics/SVG/1.1/DTD/svg11.dtd">
<!-- Generated by graphviz version 12.2.1 (20241206.2353)
 -->
<!-- Title: operation_type_to_string Pages: 1 -->
<!--zoomable 391 -->

<svg id="main" version="1.1" xmlns="http://www.w3.org/2000/svg" xmlns:xlink="http://www.w3.org/1999/xlink" xml:space="preserve" onload="init(evt)">

<style type="text/css"><![CDATA[
.node, .edge {opacity: 0.7;}
.node.selected, .edge.selected {opacity: 1;}
.edge:hover path { stroke: red; }
.edge:hover polygon { stroke: red; fill: red; }
]]></style>

<defs>
  <circle id="rim" cx="0" cy="0" r="7"/>
  <circle id="rim2" cx="0" cy="0" r="3.5"/>
  <g id="zoomPlus">
    <use xlink:href="#rim" fill="#404040"><set attributeName="fill" to="#808080" begin="zoomplus.mouseover" end="zoomplus.mouseout"/></use>
    <path d="M-4,0h8M0,-4v8" fill="none" stroke="white" stroke-width="1.5" pointer-events="none"/>
  </g>
  <g id="zoomMin">
    <use xlink:href="#rim" fill="#404040"><set attributeName="fill" to="#808080" begin="zoomminus.mouseover" end="zoomminus.mouseout"/></use>
    <path d="M-4,0h8" fill="none" stroke="white" stroke-width="1.5" pointer-events="none"/>
  </g>
  <g id="arrowUp" transform="translate(30 24)">
    <use xlink:href="#rim"/>
    <path pointer-events="none" fill="none" stroke="white" stroke-width="1.5" d="M0,-3.0v7 M-2.5,-0.5L0,-3.0L2.5,-0.5"/>
  </g>
  <g id="arrowRight" transform="rotate(90) translate(36 -43)">
    <use xlink:href="#rim"/>
    <path pointer-events="none" fill="none" stroke="white" stroke-width="1.5" d="M0,-3.0v7 M-2.5,-0.5L0,-3.0L2.5,-0.5"/>
  </g>
  <g id="arrowDown" transform="rotate(180) translate(-30 -48)">
    <use xlink:href="#rim"/>
    <path pointer-events="none" fill="none" stroke="white" stroke-width="1.5" d="M0,-3.0v7 M-2.5,-0.5L0,-3.0L2.5,-0.5"/>
  </g>
  <g id="arrowLeft" transform="rotate(270) translate(-36 17)">
    <use xlink:href="#rim"/>
    <path pointer-events="none" fill="none" stroke="white" stroke-width="1.5" d="M0,-3.0v7 M-2.5,-0.5L0,-3.0L2.5,-0.5"/>
  </g>
  <g id="resetDef">
    <use xlink:href="#rim2" fill="#404040"><set attributeName="fill" to="#808080" begin="reset.mouseover" end="reset.mouseout"/></use>
  </g>
</defs>
<script type="application/ecmascript">
var viewWidth = 989;
var viewHeight = 391;
var sectionId = 'dynsection-3';
</script>
<script type="application/ecmascript" xlink:href="svg.min.js"/>
<svg id="graph" class="graph">
<g id="viewport">
<title>operation_type_to_string</title>
<!-- Node1 -->
<g id="Node000001" class="node">
<title>Node1</title>
<g id="a_Node000001"><a xlink:title="Converts an OperationType to a string.">
<polygon fill="#999999" stroke="#666666" points="980.5,-48 858,-48 858,-28 980.5,-28 980.5,-48"/>
<text text-anchor="middle" x="919.25" y="-34.5" font-family="Helvetica,sans-Serif" font-size="10.00">operation_type_to_string</text>
</a>
</g>
</g>
<!-- Node2 -->
<g id="Node000002" class="node">
<title>Node2</title>
<g id="a_Node000002"><a xlink:href="frame_8cpp.html#a3ae6df528775be58890bf406c906a056" target="_top" xlink:title="Encodes a Frame instance into a string.">
<polygon fill="white" stroke="#666666" points="810,-78 732.5,-78 732.5,-58 810,-58 810,-78"/>
<text text-anchor="middle" x="771.25" y="-64.5" font-family="Helvetica,sans-Serif" font-size="10.00">frame_encode</text>
</a>
</g>
</g>
<!-- Node1&#45;&gt;Node2 -->
<g id="edge1_Node000001_Node000002" class="edge">
<title>Node1&#45;&gt;Node2</title>
<g id="a_edge1_Node000001_Node000002"><a xlink:title=" ">
<path fill="none" stroke="#63b8ff" d="M856,-50.79C840.42,-53.99 824.16,-57.33 810.17,-60.21"/>
<polygon fill="#63b8ff" stroke="#63b8ff" points="856.61,-54.24 865.7,-48.8 855.2,-47.38 856.61,-54.24"/>
</a>
</g>
</g>
<!-- Node18 -->
<g id="Node000018" class="node">
<title>Node18</title>
<g id="a_Node000018"><a xlink:href="test__converters_8cpp.html#ac5d778420db42483f7174157aadbd274" target="_top" xlink:title=" ">
<polygon fill="white" stroke="#666666" points="822,-32 720.5,-32 720.5,0 822,0 822,-32"/>
<text text-anchor="start" x="728.5" y="-18.5" font-family="Helvetica,sans-Serif" font-size="10.00">test_operation_type</text>
<text text-anchor="middle" x="771.25" y="-6.5" font-family="Helvetica,sans-Serif" font-size="10.00">_conversion</text>
</a>
</g>
</g>
<!-- Node1&#45;&gt;Node18 -->
<g id="edge24_Node000001_Node000018" class="edge">
<title>Node1&#45;&gt;Node18</title>
<g id="a_edge24_Node000001_Node000018"><a xlink:title=" ">
<path fill="none" stroke="#63b8ff" d="M846.49,-27.19C838.31,-25.95 830.11,-24.72 822.29,-23.54"/>
<polygon fill="#63b8ff" stroke="#63b8ff" points="845.69,-30.61 856.1,-28.64 846.74,-23.68 845.69,-30.61"/>
</a>
</g>
</g>
<!-- Node3 -->
<g id="Node000003" class="node">
<title>Node3</title>
<g id="a_Node000003"><a xlink:href="send_8cpp.html#ae6c6f3b673e7e83306da7ea2458d3241" target="_top" xlink:title="Sends a Frame using LoRa.">
<polygon fill="white" stroke="#666666" points="654.12,-238 587.12,-238 587.12,-218 654.12,-218 654.12,-238"/>
<text text-anchor="middle" x="620.62" y="-224.5" font-family="Helvetica,sans-Serif" font-size="10.00">send_frame</text>
</a>
</g>
</g>
<!-- Node2&#45;&gt;Node3 -->
<g id="edge2_Node000002_Node000003" class="edge">
<title>Node2&#45;&gt;Node3</title>
<g id="a_edge2_Node000002_Node000003"><a xlink:title=" ">
<path fill="none" stroke="#63b8ff" d="M752.93,-86.65C721.45,-120.54 655.83,-191.18 631.22,-217.67"/>
<polygon fill="#63b8ff" stroke="#63b8ff" points="755.23,-89.32 759.47,-79.61 750.1,-84.55 755.23,-89.32"/>
</a>
</g>
</g>
<!-- Node9 -->
<g id="Node000009" class="node">
<title>Node9</title>
<g id="a_Node000009"><a xlink:href="test__frame__coding_8cpp.html#a75deef6947cf7117a58214b4298ecec9" target="_top" xlink:title=" ">
<polygon fill="white" stroke="#666666" points="331.5,-86 203.75,-86 203.75,-66 331.5,-66 331.5,-86"/>
<text text-anchor="middle" x="267.62" y="-72.5" font-family="Helvetica,sans-Serif" font-size="10.00">test_frame_decode_basic</text>
</a>
</g>
</g>
<!-- Node2&#45;&gt;Node9 -->
<g id="edge21_Node000002_Node000009" class="edge">
<title>Node2&#45;&gt;Node9</title>
<g id="a_edge21_Node000002_Node000009"><a xlink:title=" ">
<path fill="none" stroke="#63b8ff" d="M720.68,-68.79C628.89,-70.25 432.62,-73.38 331.59,-75"/>
<polygon fill="#63b8ff" stroke="#63b8ff" points="720.68,-72.29 730.62,-68.63 720.57,-65.29 720.68,-72.29"/>
</a>
</g>
</g>
<!-- Node17 -->
<g id="Node000017" class="node">
<title>Node17</title>
<g id="a_Node000017"><a xlink:href="test__frame__coding_8cpp.html#a85d94957544c2947761ccefd9bf74540" target="_top" xlink:title=" ">
<polygon fill="white" stroke="#666666" points="684.5,-48 556.75,-48 556.75,-28 684.5,-28 684.5,-48"/>
<text text-anchor="middle" x="620.62" y="-34.5" font-family="Helvetica,sans-Serif" font-size="10.00">test_frame_encode_basic</text>
</a>
</g>
</g>
<!-- Node2&#45;&gt;Node17 -->
<g id="edge22_Node000002_Node000017" class="edge">
<title>Node2&#45;&gt;Node17</title>
<g id="a_edge22_Node000002_Node000017"><a xlink:title=" ">
<path fill="none" stroke="#63b8ff" d="M721.5,-58.16C706.11,-55.05 689.06,-51.61 673.46,-48.46"/>
<polygon fill="#63b8ff" stroke="#63b8ff" points="720.38,-61.5 730.88,-60.05 721.77,-54.64 720.38,-61.5"/>
</a>
</g>
</g>
<!-- Node4 -->
<g id="Node000004" class="node">
<title>Node4</title>
<g id="a_Node000004"><a xlink:href="frame_8cpp.html#a0b3438ff642c0934321101e1f0b8d82d" target="_top" xlink:title="Converts a string into a Frame instance.">
<polygon fill="white" stroke="#666666" points="484,-200 406.5,-200 406.5,-180 484,-180 484,-200"/>
<text text-anchor="middle" x="445.25" y="-186.5" font-family="Helvetica,sans-Serif" font-size="10.00">frame_decode</text>
</a>
</g>
</g>
<!-- Node3&#45;&gt;Node4 -->
<g id="edge3_Node000003_Node000004" class="edge">
<title>Node3&#45;&gt;Node4</title>
<g id="a_edge3_Node000003_Node000004"><a xlink:title=" ">
<path fill="none" stroke="#63b8ff" d="M575.88,-218.41C547.72,-212.24 511.46,-204.29 484.46,-198.37"/>
<polygon fill="#63b8ff" stroke="#63b8ff" points="575.02,-221.81 585.54,-220.53 576.52,-214.97 575.02,-221.81"/>
</a>
</g>
</g>
<!-- Node5 -->
<g id="Node000005" class="node">
<title>Node5</title>
<g id="a_Node000005"><a xlink:href="frame_8cpp.html#a8b9c5fd031b899c6c7867adcde4ac11f" target="_top" xlink:title="Executes a command based on the command key and the parameter.">
<polygon fill="white" stroke="#666666" points="307.88,-219 227.38,-219 227.38,-199 307.88,-199 307.88,-219"/>
<text text-anchor="middle" x="267.62" y="-205.5" font-family="Helvetica,sans-Serif" font-size="10.00">frame_process</text>
</a>
</g>
</g>
<!-- Node3&#45;&gt;Node5 -->
<g id="edge13_Node000003_Node000005" class="edge">
<title>Node3&#45;&gt;Node5</title>
<g id="a_edge13_Node000003_Node000005"><a xlink:title=" ">
<path fill="none" stroke="#63b8ff" d="M575.62,-225.62C506.72,-221.89 374.42,-214.73 308.29,-211.15"/>
<polygon fill="#63b8ff" stroke="#63b8ff" points="575.23,-229.1 585.41,-226.15 575.61,-222.11 575.23,-229.1"/>
</a>
</g>
</g>
<!-- Node7 -->
<g id="Node000007" class="node">
<title>Node7</title>
<g id="a_Node000007"><a xlink:href="main_8cpp.html#ae66f6b31b5ad750f1fe042a706a4e3d4" target="_top" xlink:title=" ">
<polygon fill="white" stroke="#666666" points="37,-257 0,-257 0,-237 37,-237 37,-257"/>
<text text-anchor="middle" x="18.5" y="-243.5" font-family="Helvetica,sans-Serif" font-size="10.00">main</text>
</a>
</g>
</g>
<!-- Node3&#45;&gt;Node7 -->
<g id="edge19_Node000003_Node000007" class="edge">
<title>Node3&#45;&gt;Node7</title>
<g id="a_edge19_Node000003_Node000007"><a xlink:title=" ">
<path fill="none" stroke="#63b8ff" d="M575.38,-230.5C494.19,-234.95 315.93,-244.04 165.5,-247 119.38,-247.91 65.04,-247.53 37.48,-247.23"/>
<polygon fill="#63b8ff" stroke="#63b8ff" points="575.57,-234 585.36,-229.95 575.18,-227.01 575.57,-234"/>
</a>
</g>
</g>
<!-- Node12 -->
<g id="Node000012" class="node">
<title>Node12</title>
<g id="a_Node000012"><a xlink:href="group___diagnostic_commands.html#ga3ab5723218b68d3ac5cd864e00ed157a" target="_top" xlink:title="Reboot system to USB firmware loader.">
<polygon fill="white" stroke="#666666" points="520.75,-162 369.75,-162 369.75,-142 520.75,-142 520.75,-162"/>
<text text-anchor="middle" x="445.25" y="-148.5" font-family="Helvetica,sans-Serif" font-size="10.00">handle_enter_bootloader_mode</text>
</a>
</g>
</g>
<!-- Node3&#45;&gt;Node12 -->
<g id="edge14_Node000003_Node000012" class="edge">
<title>Node3&#45;&gt;Node12</title>
<g id="a_edge14_Node000003_Node000012"><a xlink:title=" ">
<path fill="none" stroke="#63b8ff" d="M594.97,-211.24C575.53,-198.66 547.35,-181.82 520.75,-171 512.71,-167.73 503.95,-164.9 495.36,-162.49"/>
<polygon fill="#63b8ff" stroke="#63b8ff" points="593,-214.13 603.28,-216.71 596.85,-208.29 593,-214.13"/>
</a>
</g>
</g>
<!-- Node13 -->
<g id="Node000013" class="node">
<title>Node13</title>
<g id="a_Node000013"><a xlink:href="storage__commands_8cpp.html#a1ebbe9d6a73f10f9887975fe4f968aad" target="_top" xlink:title="Handles the file download command.">
<polygon fill="white" stroke="#666666" points="499.75,-124 390.75,-124 390.75,-104 499.75,-104 499.75,-124"/>
<text text-anchor="middle" x="445.25" y="-110.5" font-family="Helvetica,sans-Serif" font-size="10.00">handle_file_download</text>
</a>
</g>
</g>
<!-- Node3&#45;&gt;Node13 -->
<g id="edge15_Node000003_Node000013" class="edge">
<title>Node3&#45;&gt;Node13</title>
<g id="a_edge15_Node000003_Node000013"><a xlink:title=" ">
<path fill="none" stroke="#63b8ff" d="M604.8,-208.69C587.12,-187.01 555.57,-152.37 520.75,-133 514.33,-129.43 507.24,-126.52 500.05,-124.15"/>
<polygon fill="#63b8ff" stroke="#63b8ff" points="602,-210.79 610.96,-216.44 607.48,-206.44 602,-210.79"/>
</a>
</g>
</g>
<!-- Node14 -->
<g id="Node000014" class="node">
<title>Node14</title>
<g id="a_Node000014"><a xlink:href="storage__commands_8cpp.html#acc768cf94aac4e11301443f30529b738" target="_top" xlink:title="Handles the list files command.">
<polygon fill="white" stroke="#666666" points="488.12,-352 402.38,-352 402.38,-332 488.12,-332 488.12,-352"/>
<text text-anchor="middle" x="445.25" y="-338.5" font-family="Helvetica,sans-Serif" font-size="10.00">handle_list_files</text>
</a>
</g>
</g>
<!-- Node3&#45;&gt;Node14 -->
<g id="edge16_Node000003_Node000014" class="edge">
<title>Node3&#45;&gt;Node14</title>
<g id="a_edge16_Node000003_Node000014"><a xlink:title=" ">
<path fill="none" stroke="#63b8ff" d="M604.8,-247.31C587.12,-268.99 555.57,-303.63 520.75,-323 510.83,-328.51 499.29,-332.46 488.29,-335.27"/>
<polygon fill="#63b8ff" stroke="#63b8ff" points="607.48,-249.56 610.96,-239.56 602,-245.21 607.48,-249.56"/>
</a>
</g>
</g>
<!-- Node15 -->
<g id="Node000015" class="node">
<title>Node15</title>
<g id="a_Node000015"><a xlink:href="main_8cpp.html#a8fa5379b5bec497b881cec19f2b38779" target="_top" xlink:title=" ">
<polygon fill="white" stroke="#666666" points="303.38,-371 231.88,-371 231.88,-351 303.38,-351 303.38,-371"/>
<text text-anchor="middle" x="267.62" y="-357.5" font-family="Helvetica,sans-Serif" font-size="10.00">init_systems</text>
</a>
</g>
</g>
<!-- Node3&#45;&gt;Node15 -->
<g id="edge17_Node000003_Node000015" class="edge">
<title>Node3&#45;&gt;Node15</title>
<g id="a_edge17_Node000003_Node000015"><a xlink:title=" ">
<path fill="none" stroke="#63b8ff" d="M611.49,-248.68C597.99,-279.76 567.71,-337.4 520.75,-361 450.35,-396.38 354.31,-382.01 303.48,-370.36"/>
<polygon fill="#63b8ff" stroke="#63b8ff" points="614.66,-250.17 615.26,-239.59 608.2,-247.49 614.66,-250.17"/>
</a>
</g>
</g>
<!-- Node16 -->
<g id="Node000016" class="node">
<title>Node16</title>
<g id="a_Node000016"><a xlink:href="frame_8cpp.html#af49224563adb4bf0b91daa5ab78120ca" target="_top" xlink:title="Sends the event register value to the ground station.">
<polygon fill="white" stroke="#666666" points="478.38,-314 412.12,-314 412.12,-294 478.38,-294 478.38,-314"/>
<text text-anchor="middle" x="445.25" y="-300.5" font-family="Helvetica,sans-Serif" font-size="10.00">send_event</text>
</a>
</g>
</g>
<!-- Node3&#45;&gt;Node16 -->
<g id="edge20_Node000003_Node000016" class="edge">
<title>Node3&#45;&gt;Node16</title>
<g id="a_edge20_Node000003_Node000016"><a xlink:title=" ">
<path fill="none" stroke="#63b8ff" d="M592.48,-243.91C572.95,-254.94 545.76,-269.49 520.75,-280 507.22,-285.69 491.85,-290.85 478.59,-294.91"/>
<polygon fill="#63b8ff" stroke="#63b8ff" points="593.95,-247.1 600.9,-239.09 590.48,-241.02 593.95,-247.1"/>
</a>
</g>
</g>
<!-- Node4&#45;&gt;Node5 -->
<g id="edge4_Node000004_Node000005" class="edge">
<title>Node4&#45;&gt;Node5</title>
<g id="a_edge4_Node000004_Node000005"><a xlink:title=" ">
<path fill="none" stroke="#63b8ff" d="M394.82,-195.35C367.42,-198.31 333.82,-201.95 308.18,-204.72"/>
<polygon fill="#63b8ff" stroke="#63b8ff" points="395.07,-198.84 404.64,-194.29 394.32,-191.88 395.07,-198.84"/>
</a>
</g>
</g>
<!-- Node4&#45;&gt;Node9 -->
<g id="edge9_Node000004_Node000009" class="edge">
<title>Node4&#45;&gt;Node9</title>
<g id="a_edge9_Node000004_Node000009"><a xlink:title=" ">
<path fill="none" stroke="#63b8ff" d="M395.49,-182.32C386.5,-179.61 377.51,-175.95 369.75,-171 348.44,-157.42 351.81,-144.67 333.75,-127 317.95,-111.53 297.59,-96.22 283.88,-86.47"/>
<polygon fill="#63b8ff" stroke="#63b8ff" points="394.34,-185.63 404.9,-184.79 396.12,-178.86 394.34,-185.63"/>
</a>
</g>
</g>
<!-- Node11 -->
<g id="Node000011" class="node">
<title>Node11</title>
<g id="a_Node000011"><a xlink:href="test__frame__coding_8cpp.html#a054000b3d2c0abb2e13b9109ae0969ef" target="_top" xlink:title=" ">
<polygon fill="white" stroke="#666666" points="333.75,-168 201.5,-168 201.5,-136 333.75,-136 333.75,-168"/>
<text text-anchor="start" x="209.5" y="-154.5" font-family="Helvetica,sans-Serif" font-size="10.00">test_frame_decode_invalid</text>
<text text-anchor="middle" x="267.62" y="-142.5" font-family="Helvetica,sans-Serif" font-size="10.00">_header</text>
</a>
</g>
</g>
<!-- Node4&#45;&gt;Node11 -->
<g id="edge11_Node000004_Node000011" class="edge">
<title>Node4&#45;&gt;Node11</title>
<g id="a_edge11_Node000004_Node000011"><a xlink:title=" ">
<path fill="none" stroke="#63b8ff" d="M395.07,-179.36C376.13,-175.26 354.19,-170.51 333.95,-166.14"/>
<polygon fill="#63b8ff" stroke="#63b8ff" points="394.15,-182.74 404.66,-181.43 395.63,-175.9 394.15,-182.74"/>
</a>
</g>
</g>
<!-- Node6 -->
<g id="Node000006" class="node">
<title>Node6</title>
<g id="a_Node000006"><a xlink:href="receive_8cpp.html#a14ffba44d46e00b23bd72bdb3a4d58d1" target="_top" xlink:title="Handles UART input.">
<polygon fill="white" stroke="#666666" points="165.5,-200 73,-200 73,-180 165.5,-180 165.5,-200"/>
<text text-anchor="middle" x="119.25" y="-186.5" font-family="Helvetica,sans-Serif" font-size="10.00">handle_uart_input</text>
</a>
</g>
</g>
<!-- Node5&#45;&gt;Node6 -->
<g id="edge5_Node000005_Node000006" class="edge">
<title>Node5&#45;&gt;Node6</title>
<g id="a_edge5_Node000005_Node000006"><a xlink:title=" ">
<path fill="none" stroke="#63b8ff" d="M216.04,-202.43C199.73,-200.32 181.77,-197.99 165.85,-195.92"/>
<polygon fill="#63b8ff" stroke="#63b8ff" points="215.15,-205.85 225.51,-203.66 216.05,-198.91 215.15,-205.85"/>
</a>
</g>
</g>
<!-- Node8 -->
<g id="Node000008" class="node">
<title>Node8</title>
<g id="a_Node000008"><a xlink:href="receive_8cpp.html#a3f494105dee3a08e1244febc81982517" target="_top" xlink:title="Callback function for handling received LoRa packets.">
<polygon fill="white" stroke="#666666" points="150.88,-238 87.62,-238 87.62,-218 150.88,-218 150.88,-238"/>
<text text-anchor="middle" x="119.25" y="-224.5" font-family="Helvetica,sans-Serif" font-size="10.00">on_receive</text>
</a>
</g>
</g>
<!-- Node5&#45;&gt;Node8 -->
<g id="edge7_Node000005_Node000008" class="edge">
<title>Node5&#45;&gt;Node8</title>
<g id="a_edge7_Node000005_Node000008"><a xlink:title=" ">
<path fill="none" stroke="#63b8ff" d="M215.73,-215.61C194.19,-218.4 169.81,-221.57 151.07,-224"/>
<polygon fill="#63b8ff" stroke="#63b8ff" points="216.05,-219.09 225.51,-214.34 215.15,-212.15 216.05,-219.09"/>
</a>
</g>
</g>
<!-- Node6&#45;&gt;Node7 -->
<g id="edge6_Node000006_Node000007" class="edge">
<title>Node6&#45;&gt;Node7</title>
<g id="a_edge6_Node000006_Node000007"><a xlink:title=" ">
<path fill="none" stroke="#63b8ff" d="M80.72,-204.99C78.07,-206.28 75.48,-207.62 73,-209 58.26,-217.2 42.69,-228.62 32.16,-236.79"/>
<polygon fill="#63b8ff" stroke="#63b8ff" points="81.97,-208.27 89.61,-200.93 79.06,-201.9 81.97,-208.27"/>
</a>
</g>
</g>
<!-- Node8&#45;&gt;Node7 -->
<g id="edge8_Node000008_Node000007" class="edge">
<title>Node8&#45;&gt;Node7</title>
<g id="a_edge8_Node000008_Node000007"><a xlink:title=" ">
<path fill="none" stroke="#63b8ff" d="M76.15,-236.1C62.58,-238.71 48.27,-241.46 37.42,-243.55"/>
<polygon fill="#63b8ff" stroke="#63b8ff" points="76.63,-239.57 85.79,-234.25 75.31,-232.7 76.63,-239.57"/>
</a>
</g>
</g>
<!-- Node10 -->
<g id="Node000010" class="node">
<title>Node10</title>
<g id="a_Node000010"><a xlink:href="test__runner_8cpp.html#a840291bc02cba5474a4cb46a9b9566fe" target="_top" xlink:title=" ">
<polygon fill="white" stroke="#666666" points="137.75,-67 100.75,-67 100.75,-47 137.75,-47 137.75,-67"/>
<text text-anchor="middle" x="119.25" y="-53.5" font-family="Helvetica,sans-Serif" font-size="10.00">main</text>
</a>
</g>
</g>
<!-- Node9&#45;&gt;Node10 -->
<g id="edge10_Node000009_Node000010" class="edge">
<title>Node9&#45;&gt;Node10</title>
<g id="a_edge10_Node000009_Node000010"><a xlink:title=" ">
<path fill="none" stroke="#63b8ff" d="M192.05,-66.32C171.82,-63.69 151.72,-61.08 137.95,-59.3"/>
<polygon fill="#63b8ff" stroke="#63b8ff" points="191.41,-69.77 201.77,-67.58 192.31,-62.82 191.41,-69.77"/>
</a>
</g>
</g>
<!-- Node11&#45;&gt;Node10 -->
<g id="edge12_Node000011_Node000010" class="edge">
<title>Node11&#45;&gt;Node10</title>
<g id="a_edge12_Node000011_Node000010"><a xlink:title=" ">
<path fill="none" stroke="#63b8ff" d="M232.08,-129.58C201.72,-109.88 158.91,-82.09 136.07,-67.27"/>
<polygon fill="#63b8ff" stroke="#63b8ff" points="229.9,-132.34 240.19,-134.84 233.71,-126.46 229.9,-132.34"/>
</a>
</g>
</g>
<!-- Node15&#45;&gt;Node7 -->
<g id="edge18_Node000015_Node000007" class="edge">
<title>Node15&#45;&gt;Node7</title>
<g id="a_edge18_Node000015_Node000007"><a xlink:title=" ">
<path fill="none" stroke="#63b8ff" d="M227.21,-346.6C187.5,-331.6 124.85,-306.63 73,-280 59.8,-273.22 45.52,-264.33 35.04,-257.49"/>
<polygon fill="#63b8ff" stroke="#63b8ff" points="225.77,-349.79 236.36,-350.02 228.22,-343.24 225.77,-349.79"/>
</a>
</g>
</g>
<!-- Node17&#45;&gt;Node10 -->
<g id="edge23_Node000017_Node000010" class="edge">
<title>Node17&#45;&gt;Node10</title>
<g id="a_edge23_Node000017_Node000010"><a xlink:title=" ">
<path fill="none" stroke="#63b8ff" d="M544.92,-40.84C426.61,-45.34 202.91,-53.86 138.2,-56.32"/>
<polygon fill="#63b8ff" stroke="#63b8ff" points="545.01,-44.34 554.87,-40.46 544.74,-37.35 545.01,-44.34"/>
</a>
</g>
</g>
<!-- Node18&#45;&gt;Node10 -->
<g id="edge25_Node000018_Node000010" class="edge">
<title>Node18&#45;&gt;Node10</title>
<g id="a_edge25_Node000018_Node000010"><a xlink:title=" ">
<path fill="none" stroke="#63b8ff" d="M708.85,-15.9C666.17,-16.07 607.98,-16.77 556.75,-19 398.59,-25.89 358.86,-27.65 201.5,-45 179.53,-47.42 154.38,-51.31 137.95,-54"/>
<polygon fill="#63b8ff" stroke="#63b8ff" points="708.68,-19.4 718.67,-15.87 708.66,-12.4 708.68,-19.4"/>
</a>
</g>
</g>
</g>
</svg>

<g id="navigator" transform="translate(0 0)" fill="#404254">
  <rect fill="#f2f5e9" fill-opacity="0.5" stroke="#606060" stroke-width=".5" x="0" y="0" width="60" height="60"/>
  <use id="zoomplus" xlink:href="#zoomPlus" x="17" y="9" onmousedown="handleZoom(evt,'in')"/>
  <use id="zoomminus" xlink:href="#zoomMin" x="42" y="9" onmousedown="handleZoom(evt,'out')"/>
  <use id="reset" xlink:href="#resetDef" x="30" y="36" onmousedown="handleReset()"/>
   <use id="arrowup" xlink:href="#arrowUp" x="0" y="0" onmousedown="handlePan(0,-1)"/>
  <use id="arrowright" xlink:href="#arrowRight" x="0" y="0" onmousedown="handlePan(1,0)"/>
  <use id="arrowdown" xlink:href="#arrowDown" x="0" y="0" onmousedown="handlePan(0,1)"/>
  <use id="arrowleft" xlink:href="#arrowLeft" x="0" y="0" onmousedown="handlePan(-1,0)"/>
</g>
<svg viewBox="0 0 15 15" width="100%" height="30px" preserveAspectRatio="xMaxYMin meet">
 <g id="arrow_out" transform="scale(0.3 0.3)">
  <a xlink:href="protocol_8h_ab218e62029b4451e910d8caf0fd05804_icgraph_org.svg" target="_base">
   <rect id="button" ry="5" rx="5" y="6" x="6" height="38" width="38"
        fill="#f2f5e9" fill-opacity="0.5" stroke="#606060" stroke-width="1.0"/>
   <path id="arrow"
     d="M 11.500037,31.436501 C 11.940474,20.09759 22.043105,11.32322 32.158766,21.979434 L 37.068811,17.246167 C 37.068811,17.246167 37.088388,32 37.088388,32 L 22.160133,31.978069 C 22.160133,31.978069 26.997745,27.140456 26.997745,27.140456 C 18.528582,18.264221 13.291696,25.230495 11.500037,31.436501 z"
     style="fill:#404040;"/>
  </a>
 </g>
</svg>

<style type='text/css'>
<![CDATA[
[data-mouse-over-selected='false'] { opacity: 0.7; }
[data-mouse-over-selected='true']  { opacity: 1.0; }
]]>
</style>
<script type="application/ecmascript"><![CDATA[
document.addEventListener('DOMContentLoaded', (event) => {
  highlightEdges();
  highlightAdjacentNodes();
});
]]></script>
</svg>
