<?xml version="1.0" encoding="UTF-8" standalone="no"?>
<!DOCTYPE svg PUBLIC "-//W3C//DTD SVG 1.1//EN"
 "http://www.w3.org/Graphics/SVG/1.1/DTD/svg11.dtd">
<!-- Generated by graphviz version 12.2.1 (20241206.2353)
 -->
<!-- Title: lib/comms/protocol.h Pages: 1 -->
<svg width="1194pt" height="196pt"
 viewBox="0.00 0.00 1193.50 196.00" xmlns="http://www.w3.org/2000/svg" xmlns:xlink="http://www.w3.org/1999/xlink">
<g id="graph0" class="graph" transform="scale(1 1) rotate(0) translate(4 192)">
<title>lib/comms/protocol.h</title>
<!-- Node1 -->
<g id="Node000001" class="node">
<title>Node1</title>
<g id="a_Node000001"><a xlink:title=" ">
<polygon fill="#999999" stroke="#666666" points="520.75,-188 414,-188 414,-168 520.75,-168 520.75,-188"/>
<text text-anchor="middle" x="467.38" y="-174.5" font-family="Helvetica,sans-Serif" font-size="10.00">lib/comms/protocol.h</text>
</a>
</g>
</g>
<!-- Node2 -->
<g id="Node000002" class="node">
<title>Node2</title>
<g id="a_Node000002"><a xlink:title=" ">
<polygon fill="#e0e0e0" stroke="#999999" points="422.38,-20 382.38,-20 382.38,0 422.38,0 422.38,-20"/>
<text text-anchor="middle" x="402.38" y="-6.5" font-family="Helvetica,sans-Serif" font-size="10.00">string</text>
</a>
</g>
</g>
<!-- Node1&#45;&gt;Node2 -->
<g id="edge1_Node000001_Node000002" class="edge">
<title>Node1&#45;&gt;Node2</title>
<g id="a_edge1_Node000001_Node000002"><a xlink:title=" ">
<path fill="none" stroke="#63b8ff" d="M459.78,-167.51C453.08,-158.74 443.47,-145.11 437.38,-132 421.77,-98.39 411.49,-56.26 406.32,-31.61"/>
<polygon fill="#63b8ff" stroke="#63b8ff" points="409.78,-31.06 404.38,-21.94 402.91,-32.43 409.78,-31.06"/>
</a>
</g>
</g>
<!-- Node3 -->
<g id="Node000003" class="node">
<title>Node3</title>
<g id="a_Node000003"><a xlink:title=" ">
<polygon fill="#e0e0e0" stroke="#999999" points="34.75,-76 0,-76 0,-56 34.75,-56 34.75,-76"/>
<text text-anchor="middle" x="17.38" y="-62.5" font-family="Helvetica,sans-Serif" font-size="10.00">map</text>
</a>
</g>
</g>
<!-- Node1&#45;&gt;Node3 -->
<g id="edge2_Node000001_Node000003" class="edge">
<title>Node1&#45;&gt;Node3</title>
<g id="a_edge2_Node000001_Node000003"><a xlink:title=" ">
<path fill="none" stroke="#63b8ff" d="M413.76,-175.37C301.38,-171.41 49.26,-159.54 22.38,-132 11.25,-120.6 10.84,-102.08 12.74,-87.72"/>
<polygon fill="#63b8ff" stroke="#63b8ff" points="16.17,-88.41 14.51,-77.95 9.28,-87.16 16.17,-88.41"/>
</a>
</g>
</g>
<!-- Node4 -->
<g id="Node000004" class="node">
<title>Node4</title>
<g id="a_Node000004"><a xlink:title=" ">
<polygon fill="#e0e0e0" stroke="#999999" points="197.38,-132 139.38,-132 139.38,-112 197.38,-112 197.38,-132"/>
<text text-anchor="middle" x="168.38" y="-118.5" font-family="Helvetica,sans-Serif" font-size="10.00">functional</text>
</a>
</g>
</g>
<!-- Node1&#45;&gt;Node4 -->
<g id="edge3_Node000001_Node000004" class="edge">
<title>Node1&#45;&gt;Node4</title>
<g id="a_edge3_Node000001_Node000004"><a xlink:title=" ">
<path fill="none" stroke="#63b8ff" d="M413.93,-168.64C363.62,-160.57 285.92,-147.59 208.63,-132.15"/>
<polygon fill="#63b8ff" stroke="#63b8ff" points="209.7,-128.8 199.21,-130.26 208.32,-135.66 209.7,-128.8"/>
</a>
</g>
</g>
<!-- Node5 -->
<g id="Node000005" class="node">
<title>Node5</title>
<g id="a_Node000005"><a xlink:title=" ">
<polygon fill="#e0e0e0" stroke="#999999" points="258.88,-132 215.88,-132 215.88,-112 258.88,-112 258.88,-132"/>
<text text-anchor="middle" x="237.38" y="-118.5" font-family="Helvetica,sans-Serif" font-size="10.00">vector</text>
</a>
</g>
</g>
<!-- Node1&#45;&gt;Node5 -->
<g id="edge4_Node000001_Node000005" class="edge">
<title>Node1&#45;&gt;Node5</title>
<g id="a_edge4_Node000001_Node000005"><a xlink:title=" ">
<path fill="none" stroke="#63b8ff" d="M421.08,-167.55C382.86,-159.53 326.98,-147.31 270.25,-132.63"/>
<polygon fill="#63b8ff" stroke="#63b8ff" points="271.3,-129.29 260.74,-130.15 269.53,-136.06 271.3,-129.29"/>
</a>
</g>
</g>
<!-- Node6 -->
<g id="Node000006" class="node">
<title>Node6</title>
<g id="a_Node000006"><a xlink:title=" ">
<polygon fill="#e0e0e0" stroke="#999999" points="322,-132 276.75,-132 276.75,-112 322,-112 322,-132"/>
<text text-anchor="middle" x="299.38" y="-118.5" font-family="Helvetica,sans-Serif" font-size="10.00">cstdint</text>
</a>
</g>
</g>
<!-- Node1&#45;&gt;Node6 -->
<g id="edge5_Node000001_Node000006" class="edge">
<title>Node1&#45;&gt;Node6</title>
<g id="a_edge5_Node000001_Node000006"><a xlink:title=" ">
<path fill="none" stroke="#63b8ff" d="M438.11,-167.59C408.81,-158.17 363.76,-143.7 333,-133.81"/>
<polygon fill="#63b8ff" stroke="#63b8ff" points="334.4,-130.58 323.81,-130.85 332.26,-137.25 334.4,-130.58"/>
</a>
</g>
</g>
<!-- Node7 -->
<g id="Node000007" class="node">
<title>Node7</title>
<g id="a_Node000007"><a xlink:title=" ">
<polygon fill="#e0e0e0" stroke="#999999" points="390.25,-132 340.5,-132 340.5,-112 390.25,-112 390.25,-132"/>
<text text-anchor="middle" x="365.38" y="-118.5" font-family="Helvetica,sans-Serif" font-size="10.00">iomanip</text>
</a>
</g>
</g>
<!-- Node1&#45;&gt;Node7 -->
<g id="edge6_Node000001_Node000007" class="edge">
<title>Node1&#45;&gt;Node7</title>
<g id="a_edge6_Node000001_Node000007"><a xlink:title=" ">
<path fill="none" stroke="#63b8ff" d="M449.61,-167.59C434.05,-159.36 411.19,-147.26 393.21,-137.74"/>
<polygon fill="#63b8ff" stroke="#63b8ff" points="395.09,-134.77 384.62,-133.19 391.82,-140.96 395.09,-134.77"/>
</a>
</g>
</g>
<!-- Node8 -->
<g id="Node000008" class="node">
<title>Node8</title>
<g id="a_Node000008"><a xlink:href="pin__config_8h.html" target="_top" xlink:title=" ">
<polygon fill="white" stroke="#666666" points="744.62,-76 676.12,-76 676.12,-56 744.62,-56 744.62,-76"/>
<text text-anchor="middle" x="710.38" y="-62.5" font-family="Helvetica,sans-Serif" font-size="10.00">pin_config.h</text>
</a>
</g>
</g>
<!-- Node1&#45;&gt;Node8 -->
<g id="edge7_Node000001_Node000008" class="edge">
<title>Node1&#45;&gt;Node8</title>
<g id="a_edge7_Node000001_Node000008"><a xlink:title=" ">
<path fill="none" stroke="#63b8ff" d="M521.13,-171.56C576.84,-164.94 659.1,-152.09 683.38,-132 696.91,-120.8 703.76,-101.68 707.16,-87.07"/>
<polygon fill="#63b8ff" stroke="#63b8ff" points="710.53,-88.1 708.99,-77.62 703.65,-86.77 710.53,-88.1"/>
</a>
</g>
</g>
<!-- Node10 -->
<g id="Node000010" class="node">
<title>Node10</title>
<g id="a_Node000010"><a xlink:href="_power_manager_8h.html" target="_top" xlink:title=" ">
<polygon fill="white" stroke="#666666" points="121.12,-132 31.62,-132 31.62,-112 121.12,-112 121.12,-132"/>
<text text-anchor="middle" x="76.38" y="-118.5" font-family="Helvetica,sans-Serif" font-size="10.00">PowerManager.h</text>
</a>
</g>
</g>
<!-- Node1&#45;&gt;Node10 -->
<g id="edge9_Node000001_Node000010" class="edge">
<title>Node1&#45;&gt;Node10</title>
<g id="a_edge9_Node000001_Node000010"><a xlink:title=" ">
<path fill="none" stroke="#63b8ff" d="M413.6,-170.37C349.3,-162.31 238.12,-148 132.62,-132.3"/>
<polygon fill="#63b8ff" stroke="#63b8ff" points="133.34,-128.87 122.94,-130.85 132.31,-135.79 133.34,-128.87"/>
</a>
</g>
</g>
<!-- Node15 -->
<g id="Node000015" class="node">
<title>Node15</title>
<g id="a_Node000015"><a xlink:title=" ">
<polygon fill="#e0e0e0" stroke="#999999" points="548.5,-132 506.25,-132 506.25,-112 548.5,-112 548.5,-132"/>
<text text-anchor="middle" x="527.38" y="-118.5" font-family="Helvetica,sans-Serif" font-size="10.00">cstdio</text>
</a>
</g>
</g>
<!-- Node1&#45;&gt;Node15 -->
<g id="edge18_Node000001_Node000015" class="edge">
<title>Node1&#45;&gt;Node15</title>
<g id="a_edge18_Node000001_Node000015"><a xlink:title=" ">
<path fill="none" stroke="#63b8ff" d="M477.83,-167.59C486.34,-159.93 498.59,-148.91 508.77,-139.75"/>
<polygon fill="#63b8ff" stroke="#63b8ff" points="510.83,-142.6 515.92,-133.31 506.14,-137.4 510.83,-142.6"/>
</a>
</g>
</g>
<!-- Node16 -->
<g id="Node000016" class="node">
<title>Node16</title>
<g id="a_Node000016"><a xlink:title=" ">
<polygon fill="#e0e0e0" stroke="#999999" points="610.62,-132 566.12,-132 566.12,-112 610.62,-112 610.62,-132"/>
<text text-anchor="middle" x="588.38" y="-118.5" font-family="Helvetica,sans-Serif" font-size="10.00">cstdlib</text>
</a>
</g>
</g>
<!-- Node1&#45;&gt;Node16 -->
<g id="edge19_Node000001_Node000016" class="edge">
<title>Node1&#45;&gt;Node16</title>
<g id="a_edge19_Node000001_Node000016"><a xlink:title=" ">
<path fill="none" stroke="#63b8ff" d="M488.45,-167.59C507.33,-159.17 535.29,-146.69 556.84,-137.07"/>
<polygon fill="#63b8ff" stroke="#63b8ff" points="558.05,-140.37 565.75,-133.1 555.19,-133.98 558.05,-140.37"/>
</a>
</g>
</g>
<!-- Node17 -->
<g id="Node000017" class="node">
<title>Node17</title>
<g id="a_Node000017"><a xlink:title=" ">
<polygon fill="#e0e0e0" stroke="#999999" points="674,-132 628.75,-132 628.75,-112 674,-112 674,-132"/>
<text text-anchor="middle" x="651.38" y="-118.5" font-family="Helvetica,sans-Serif" font-size="10.00">cstring</text>
</a>
</g>
</g>
<!-- Node1&#45;&gt;Node17 -->
<g id="edge20_Node000001_Node000017" class="edge">
<title>Node1&#45;&gt;Node17</title>
<g id="a_edge20_Node000001_Node000017"><a xlink:title=" ">
<path fill="none" stroke="#63b8ff" d="M499.43,-167.59C532.54,-157.87 584.02,-142.77 617.71,-132.88"/>
<polygon fill="#63b8ff" stroke="#63b8ff" points="618.35,-136.34 626.96,-130.17 616.38,-129.62 618.35,-136.34"/>
</a>
</g>
</g>
<!-- Node18 -->
<g id="Node000018" class="node">
<title>Node18</title>
<g id="a_Node000018"><a xlink:href="utils_8h.html" target="_top" xlink:title=" ">
<polygon fill="white" stroke="#666666" points="488.5,-132 446.25,-132 446.25,-112 488.5,-112 488.5,-132"/>
<text text-anchor="middle" x="467.38" y="-118.5" font-family="Helvetica,sans-Serif" font-size="10.00">utils.h</text>
</a>
</g>
</g>
<!-- Node1&#45;&gt;Node18 -->
<g id="edge21_Node000001_Node000018" class="edge">
<title>Node1&#45;&gt;Node18</title>
<g id="a_edge21_Node000001_Node000018"><a xlink:title=" ">
<path fill="none" stroke="#63b8ff" d="M467.38,-167.59C467.38,-161.01 467.38,-151.96 467.38,-143.73"/>
<polygon fill="#63b8ff" stroke="#63b8ff" points="470.88,-143.81 467.38,-133.81 463.88,-143.81 470.88,-143.81"/>
</a>
</g>
</g>
<!-- Node21 -->
<g id="Node000021" class="node">
<title>Node21</title>
<g id="a_Node000021"><a xlink:title=" ">
<polygon fill="#e0e0e0" stroke="#999999" points="773.88,-132 730.88,-132 730.88,-112 773.88,-112 773.88,-132"/>
<text text-anchor="middle" x="752.38" y="-118.5" font-family="Helvetica,sans-Serif" font-size="10.00">time.h</text>
</a>
</g>
</g>
<!-- Node1&#45;&gt;Node21 -->
<g id="edge27_Node000001_Node000021" class="edge">
<title>Node1&#45;&gt;Node21</title>
<g id="a_edge27_Node000001_Node000021"><a xlink:title=" ">
<path fill="none" stroke="#63b8ff" d="M521.01,-168.36C571.57,-159.97 649.38,-146.41 716.38,-132 717.54,-131.75 718.72,-131.49 719.92,-131.22"/>
<polygon fill="#63b8ff" stroke="#63b8ff" points="720.33,-134.72 729.25,-129.01 718.72,-127.91 720.33,-134.72"/>
</a>
</g>
</g>
<!-- Node22 -->
<g id="Node000022" class="node">
<title>Node22</title>
<g id="a_Node000022"><a xlink:href="build__number_8h.html" target="_top" xlink:title=" ">
<polygon fill="white" stroke="#666666" points="874.38,-132 792.38,-132 792.38,-112 874.38,-112 874.38,-132"/>
<text text-anchor="middle" x="833.38" y="-118.5" font-family="Helvetica,sans-Serif" font-size="10.00">build_number.h</text>
</a>
</g>
</g>
<!-- Node1&#45;&gt;Node22 -->
<g id="edge28_Node000001_Node000022" class="edge">
<title>Node1&#45;&gt;Node22</title>
<g id="a_edge28_Node000001_Node000022"><a xlink:title=" ">
<path fill="none" stroke="#63b8ff" d="M521.14,-169.95C581.76,-161.87 683.56,-147.9 780.71,-132.38"/>
<polygon fill="#63b8ff" stroke="#63b8ff" points="781.11,-135.86 790.43,-130.82 780,-128.95 781.11,-135.86"/>
</a>
</g>
</g>
<!-- Node23 -->
<g id="Node000023" class="node">
<title>Node23</title>
<g id="a_Node000023"><a xlink:href="_lo_ra-_r_p2040_8h.html" target="_top" xlink:title=" ">
<polygon fill="white" stroke="#666666" points="1004.38,-132 892.38,-132 892.38,-112 1004.38,-112 1004.38,-132"/>
<text text-anchor="middle" x="948.38" y="-118.5" font-family="Helvetica,sans-Serif" font-size="10.00">LoRa/LoRa&#45;RP2040.h</text>
</a>
</g>
</g>
<!-- Node1&#45;&gt;Node23 -->
<g id="edge29_Node000001_Node000023" class="edge">
<title>Node1&#45;&gt;Node23</title>
<g id="a_edge29_Node000001_Node000023"><a xlink:title=" ">
<path fill="none" stroke="#63b8ff" d="M520.95,-171.72C598.06,-164.01 745.1,-148.88 880.62,-132.31"/>
<polygon fill="#63b8ff" stroke="#63b8ff" points="881.02,-135.79 890.52,-131.09 880.16,-128.84 881.02,-135.79"/>
</a>
</g>
</g>
<!-- Node9 -->
<g id="Node000009" class="node">
<title>Node9</title>
<g id="a_Node000009"><a xlink:title=" ">
<polygon fill="#e0e0e0" stroke="#999999" points="323.5,-20 275.25,-20 275.25,0 323.5,0 323.5,-20"/>
<text text-anchor="middle" x="299.38" y="-6.5" font-family="Helvetica,sans-Serif" font-size="10.00">stdint.h</text>
</a>
</g>
</g>
<!-- Node8&#45;&gt;Node9 -->
<g id="edge8_Node000008_Node000009" class="edge">
<title>Node8&#45;&gt;Node9</title>
<g id="a_edge8_Node000008_Node000009"><a xlink:title=" ">
<path fill="none" stroke="#63b8ff" d="M675.84,-57.66C672.64,-57.07 669.45,-56.5 666.38,-56 658.23,-54.67 426.09,-26.41 335.29,-15.37"/>
<polygon fill="#63b8ff" stroke="#63b8ff" points="335.8,-11.9 325.45,-14.17 334.95,-18.85 335.8,-11.9"/>
</a>
</g>
</g>
<!-- Node10&#45;&gt;Node2 -->
<g id="edge15_Node000010_Node000002" class="edge">
<title>Node10&#45;&gt;Node2</title>
<g id="a_edge15_Node000010_Node000002"><a xlink:title=" ">
<path fill="none" stroke="#63b8ff" d="M107.95,-111.53C137.21,-102.66 181.88,-88.88 220.38,-76 273.86,-58.1 335.59,-35.68 371.66,-22.39"/>
<polygon fill="#63b8ff" stroke="#63b8ff" points="372.41,-25.85 380.58,-19.1 369.98,-19.28 372.41,-25.85"/>
</a>
</g>
</g>
<!-- Node10&#45;&gt;Node3 -->
<g id="edge14_Node000010_Node000003" class="edge">
<title>Node10&#45;&gt;Node3</title>
<g id="a_edge14_Node000010_Node000003"><a xlink:title=" ">
<path fill="none" stroke="#63b8ff" d="M66.1,-111.59C57.81,-104.01 45.93,-93.13 35.97,-84.02"/>
<polygon fill="#63b8ff" stroke="#63b8ff" points="38.39,-81.49 28.65,-77.32 33.66,-86.65 38.39,-81.49"/>
</a>
</g>
</g>
<!-- Node11 -->
<g id="Node000011" class="node">
<title>Node11</title>
<g id="a_Node000011"><a xlink:href="_i_n_a3221_8h.html" target="_top" xlink:title=" ">
<polygon fill="white" stroke="#666666" points="211.25,-76 107.5,-76 107.5,-56 211.25,-56 211.25,-76"/>
<text text-anchor="middle" x="159.38" y="-62.5" font-family="Helvetica,sans-Serif" font-size="10.00">INA3221/INA3221.h</text>
</a>
</g>
</g>
<!-- Node10&#45;&gt;Node11 -->
<g id="edge10_Node000010_Node000011" class="edge">
<title>Node10&#45;&gt;Node11</title>
<g id="a_edge10_Node000010_Node000011"><a xlink:title=" ">
<path fill="none" stroke="#63b8ff" d="M90.83,-111.59C103.13,-103.59 121.05,-91.93 135.48,-82.54"/>
<polygon fill="#63b8ff" stroke="#63b8ff" points="137.06,-85.69 143.54,-77.3 133.25,-79.82 137.06,-85.69"/>
</a>
</g>
</g>
<!-- Node13 -->
<g id="Node000013" class="node">
<title>Node13</title>
<g id="a_Node000013"><a xlink:title=" ">
<polygon fill="#e0e0e0" stroke="#999999" points="116.25,-20 36.5,-20 36.5,0 116.25,0 116.25,-20"/>
<text text-anchor="middle" x="76.38" y="-6.5" font-family="Helvetica,sans-Serif" font-size="10.00">hardware/i2c.h</text>
</a>
</g>
</g>
<!-- Node10&#45;&gt;Node13 -->
<g id="edge16_Node000010_Node000013" class="edge">
<title>Node10&#45;&gt;Node13</title>
<g id="a_edge16_Node000010_Node000013"><a xlink:title=" ">
<path fill="none" stroke="#63b8ff" d="M76.38,-111.62C76.38,-94.01 76.38,-55.59 76.38,-31.65"/>
<polygon fill="#63b8ff" stroke="#63b8ff" points="79.88,-31.87 76.38,-21.87 72.88,-31.87 79.88,-31.87"/>
</a>
</g>
</g>
<!-- Node14 -->
<g id="Node000014" class="node">
<title>Node14</title>
<g id="a_Node000014"><a xlink:title=" ">
<polygon fill="#e0e0e0" stroke="#999999" points="657.62,-76 589.12,-76 589.12,-56 657.62,-56 657.62,-76"/>
<text text-anchor="middle" x="623.38" y="-62.5" font-family="Helvetica,sans-Serif" font-size="10.00">pico/stdlib.h</text>
</a>
</g>
</g>
<!-- Node10&#45;&gt;Node14 -->
<g id="edge17_Node000010_Node000014" class="edge">
<title>Node10&#45;&gt;Node14</title>
<g id="a_edge17_Node000010_Node000014"><a xlink:title=" ">
<path fill="none" stroke="#63b8ff" d="M121.41,-113.2C124.44,-112.76 127.45,-112.36 130.38,-112 325.82,-87.94 379.8,-103.99 577.35,-76.27"/>
<polygon fill="#63b8ff" stroke="#63b8ff" points="577.8,-79.74 587.21,-74.86 576.82,-72.81 577.8,-79.74"/>
</a>
</g>
</g>
<!-- Node11&#45;&gt;Node9 -->
<g id="edge11_Node000011_Node000009" class="edge">
<title>Node11&#45;&gt;Node9</title>
<g id="a_edge11_Node000011_Node000009"><a xlink:title=" ">
<path fill="none" stroke="#63b8ff" d="M183.76,-55.59C206.01,-47.01 239.14,-34.23 264.24,-24.55"/>
<polygon fill="#63b8ff" stroke="#63b8ff" points="265.32,-27.89 273.39,-21.02 262.8,-21.36 265.32,-27.89"/>
</a>
</g>
</g>
<!-- Node12 -->
<g id="Node000012" class="node">
<title>Node12</title>
<g id="a_Node000012"><a xlink:title=" ">
<polygon fill="#e0e0e0" stroke="#999999" points="188.12,-20 134.62,-20 134.62,0 188.12,0 188.12,-20"/>
<text text-anchor="middle" x="161.38" y="-6.5" font-family="Helvetica,sans-Serif" font-size="10.00">iostream</text>
</a>
</g>
</g>
<!-- Node11&#45;&gt;Node12 -->
<g id="edge12_Node000011_Node000012" class="edge">
<title>Node11&#45;&gt;Node12</title>
<g id="a_edge12_Node000011_Node000012"><a xlink:title=" ">
<path fill="none" stroke="#63b8ff" d="M159.72,-55.59C159.97,-49.01 160.3,-39.96 160.61,-31.73"/>
<polygon fill="#63b8ff" stroke="#63b8ff" points="164.1,-31.93 160.97,-21.81 157.11,-31.67 164.1,-31.93"/>
</a>
</g>
</g>
<!-- Node11&#45;&gt;Node13 -->
<g id="edge13_Node000011_Node000013" class="edge">
<title>Node11&#45;&gt;Node13</title>
<g id="a_edge13_Node000011_Node000013"><a xlink:title=" ">
<path fill="none" stroke="#63b8ff" d="M144.92,-55.59C132.62,-47.59 114.7,-35.93 100.27,-26.54"/>
<polygon fill="#63b8ff" stroke="#63b8ff" points="102.5,-23.82 92.21,-21.3 98.69,-29.69 102.5,-23.82"/>
</a>
</g>
</g>
<!-- Node18&#45;&gt;Node2 -->
<g id="edge23_Node000018_Node000002" class="edge">
<title>Node18&#45;&gt;Node2</title>
<g id="a_edge23_Node000018_Node000002"><a xlink:title=" ">
<path fill="none" stroke="#63b8ff" d="M461.83,-111.62C451.18,-93.6 427.67,-53.81 413.62,-30.02"/>
<polygon fill="#63b8ff" stroke="#63b8ff" points="416.77,-28.49 408.67,-21.66 410.75,-32.05 416.77,-28.49"/>
</a>
</g>
</g>
<!-- Node18&#45;&gt;Node8 -->
<g id="edge26_Node000018_Node000008" class="edge">
<title>Node18&#45;&gt;Node8</title>
<g id="a_edge26_Node000018_Node000008"><a xlink:title=" ">
<path fill="none" stroke="#63b8ff" d="M488.95,-114.29C491.77,-113.49 494.64,-112.7 497.38,-112 513.43,-107.9 607.38,-88.31 665.02,-76.37"/>
<polygon fill="#63b8ff" stroke="#63b8ff" points="665.46,-79.85 674.54,-74.4 664.04,-73 665.46,-79.85"/>
</a>
</g>
</g>
<!-- Node18&#45;&gt;Node14 -->
<g id="edge24_Node000018_Node000014" class="edge">
<title>Node18&#45;&gt;Node14</title>
<g id="a_edge24_Node000018_Node000014"><a xlink:title=" ">
<path fill="none" stroke="#63b8ff" d="M488.74,-113.6C513.56,-105.01 554.99,-90.67 585.35,-80.16"/>
<polygon fill="#63b8ff" stroke="#63b8ff" points="586.24,-83.56 594.55,-76.98 583.95,-76.94 586.24,-83.56"/>
</a>
</g>
</g>
<!-- Node19 -->
<g id="Node000019" class="node">
<title>Node19</title>
<g id="a_Node000019"><a xlink:title=" ">
<polygon fill="#e0e0e0" stroke="#999999" points="610,-20 564.75,-20 564.75,0 610,0 610,-20"/>
<text text-anchor="middle" x="587.38" y="-6.5" font-family="Helvetica,sans-Serif" font-size="10.00">stdio.h</text>
</a>
</g>
</g>
<!-- Node18&#45;&gt;Node19 -->
<g id="edge22_Node000018_Node000019" class="edge">
<title>Node18&#45;&gt;Node19</title>
<g id="a_edge22_Node000018_Node000019"><a xlink:title=" ">
<path fill="none" stroke="#63b8ff" d="M466.34,-111.93C465.3,-98.27 465.38,-72.28 478.38,-56 496.67,-33.07 528.64,-21.71 553.24,-16.15"/>
<polygon fill="#63b8ff" stroke="#63b8ff" points="553.7,-19.63 562.81,-14.22 552.31,-12.77 553.7,-19.63"/>
</a>
</g>
</g>
<!-- Node20 -->
<g id="Node000020" class="node">
<title>Node20</title>
<g id="a_Node000020"><a xlink:title=" ">
<polygon fill="#e0e0e0" stroke="#999999" points="571.12,-76 487.62,-76 487.62,-56 571.12,-56 571.12,-76"/>
<text text-anchor="middle" x="529.38" y="-62.5" font-family="Helvetica,sans-Serif" font-size="10.00">hardware/uart.h</text>
</a>
</g>
</g>
<!-- Node18&#45;&gt;Node20 -->
<g id="edge25_Node000018_Node000020" class="edge">
<title>Node18&#45;&gt;Node20</title>
<g id="a_edge25_Node000018_Node000020"><a xlink:title=" ">
<path fill="none" stroke="#63b8ff" d="M478.17,-111.59C486.98,-103.93 499.63,-92.91 510.15,-83.75"/>
<polygon fill="#63b8ff" stroke="#63b8ff" points="512.32,-86.5 517.56,-77.29 507.72,-81.22 512.32,-86.5"/>
</a>
</g>
</g>
<!-- Node23&#45;&gt;Node8 -->
<g id="edge39_Node000023_Node000008" class="edge">
<title>Node23&#45;&gt;Node8</title>
<g id="a_edge39_Node000023_Node000008"><a xlink:title=" ">
<path fill="none" stroke="#63b8ff" d="M906.65,-111.53C864.55,-101.98 799.72,-87.27 756.21,-77.4"/>
<polygon fill="#63b8ff" stroke="#63b8ff" points="757.09,-74.01 746.57,-75.21 755.54,-80.84 757.09,-74.01"/>
</a>
</g>
</g>
<!-- Node23&#45;&gt;Node14 -->
<g id="edge30_Node000023_Node000014" class="edge">
<title>Node23&#45;&gt;Node14</title>
<g id="a_edge30_Node000023_Node000014"><a xlink:title=" ">
<path fill="none" stroke="#63b8ff" d="M892.01,-112.7C837.63,-104.53 752.71,-91.35 669.18,-76.26"/>
<polygon fill="#63b8ff" stroke="#63b8ff" points="669.89,-72.83 659.42,-74.49 668.64,-79.72 669.89,-72.83"/>
</a>
</g>
</g>
<!-- Node24 -->
<g id="Node000024" class="node">
<title>Node24</title>
<g id="a_Node000024"><a xlink:title=" ">
<polygon fill="#e0e0e0" stroke="#999999" points="918.62,-76 826.12,-76 826.12,-56 918.62,-56 918.62,-76"/>
<text text-anchor="middle" x="872.38" y="-62.5" font-family="Helvetica,sans-Serif" font-size="10.00">pico/binary_info.h</text>
</a>
</g>
</g>
<!-- Node23&#45;&gt;Node24 -->
<g id="edge31_Node000023_Node000024" class="edge">
<title>Node23&#45;&gt;Node24</title>
<g id="a_edge31_Node000023_Node000024"><a xlink:title=" ">
<path fill="none" stroke="#63b8ff" d="M935.14,-111.59C924.09,-103.74 908.09,-92.38 895.02,-83.09"/>
<polygon fill="#63b8ff" stroke="#63b8ff" points="897.13,-80.3 886.95,-77.36 893.07,-86 897.13,-80.3"/>
</a>
</g>
</g>
<!-- Node25 -->
<g id="Node000025" class="node">
<title>Node25</title>
<g id="a_Node000025"><a xlink:title=" ">
<polygon fill="#e0e0e0" stroke="#999999" points="1021.88,-76 936.88,-76 936.88,-56 1021.88,-56 1021.88,-76"/>
<text text-anchor="middle" x="979.38" y="-62.5" font-family="Helvetica,sans-Serif" font-size="10.00">hardware/gpio.h</text>
</a>
</g>
</g>
<!-- Node23&#45;&gt;Node25 -->
<g id="edge32_Node000023_Node000025" class="edge">
<title>Node23&#45;&gt;Node25</title>
<g id="a_edge32_Node000023_Node000025"><a xlink:title=" ">
<path fill="none" stroke="#63b8ff" d="M953.77,-111.59C957.82,-104.55 963.49,-94.67 968.47,-86"/>
<polygon fill="#63b8ff" stroke="#63b8ff" points="971.34,-88.03 973.28,-77.61 965.27,-84.54 971.34,-88.03"/>
</a>
</g>
</g>
<!-- Node26 -->
<g id="Node000026" class="node">
<title>Node26</title>
<g id="a_Node000026"><a xlink:title=" ">
<polygon fill="#e0e0e0" stroke="#999999" points="1119.25,-76 1039.5,-76 1039.5,-56 1119.25,-56 1119.25,-76"/>
<text text-anchor="middle" x="1079.38" y="-62.5" font-family="Helvetica,sans-Serif" font-size="10.00">hardware/spi.h</text>
</a>
</g>
</g>
<!-- Node23&#45;&gt;Node26 -->
<g id="edge33_Node000023_Node000026" class="edge">
<title>Node23&#45;&gt;Node26</title>
<g id="a_edge33_Node000023_Node000026"><a xlink:title=" ">
<path fill="none" stroke="#63b8ff" d="M971.19,-111.59C991.82,-103.09 1022.46,-90.46 1045.87,-80.81"/>
<polygon fill="#63b8ff" stroke="#63b8ff" points="1047.07,-84.1 1054.98,-77.06 1044.4,-77.63 1047.07,-84.1"/>
</a>
</g>
</g>
<!-- Node27 -->
<g id="Node000027" class="node">
<title>Node27</title>
<g id="a_Node000027"><a xlink:title=" ">
<polygon fill="#e0e0e0" stroke="#999999" points="1185.5,-76 1137.25,-76 1137.25,-56 1185.5,-56 1185.5,-76"/>
<text text-anchor="middle" x="1161.38" y="-62.5" font-family="Helvetica,sans-Serif" font-size="10.00">string.h</text>
</a>
</g>
</g>
<!-- Node23&#45;&gt;Node27 -->
<g id="edge34_Node000023_Node000027" class="edge">
<title>Node23&#45;&gt;Node27</title>
<g id="a_edge34_Node000023_Node000027"><a xlink:title=" ">
<path fill="none" stroke="#63b8ff" d="M987.06,-111.58C1021.2,-103.21 1072.59,-90.48 1125.85,-76.62"/>
<polygon fill="#63b8ff" stroke="#63b8ff" points="1126.63,-80.04 1135.42,-74.12 1124.86,-73.26 1126.63,-80.04"/>
</a>
</g>
</g>
<!-- Node28 -->
<g id="Node000028" class="node">
<title>Node28</title>
<g id="a_Node000028"><a xlink:href="_print_8h.html" target="_top" xlink:title=" ">
<polygon fill="white" stroke="#666666" points="807.62,-76 763.12,-76 763.12,-56 807.62,-56 807.62,-76"/>
<text text-anchor="middle" x="785.38" y="-62.5" font-family="Helvetica,sans-Serif" font-size="10.00">Print.h</text>
</a>
</g>
</g>
<!-- Node23&#45;&gt;Node28 -->
<g id="edge35_Node000023_Node000028" class="edge">
<title>Node23&#45;&gt;Node28</title>
<g id="a_edge35_Node000023_Node000028"><a xlink:title=" ">
<path fill="none" stroke="#63b8ff" d="M919.98,-111.59C891.76,-102.24 848.47,-87.9 818.65,-78.02"/>
<polygon fill="#63b8ff" stroke="#63b8ff" points="819.97,-74.77 809.37,-74.95 817.77,-81.42 819.97,-74.77"/>
</a>
</g>
</g>
<!-- Node28&#45;&gt;Node2 -->
<g id="edge38_Node000028_Node000002" class="edge">
<title>Node28&#45;&gt;Node2</title>
<g id="a_edge38_Node000028_Node000002"><a xlink:title=" ">
<path fill="none" stroke="#63b8ff" d="M762.75,-58.19C759.62,-57.38 756.43,-56.62 753.38,-56 636.83,-32.27 495.82,-18.7 434,-13.49"/>
<polygon fill="#63b8ff" stroke="#63b8ff" points="434.49,-10.02 424.23,-12.68 433.91,-16.99 434.49,-10.02"/>
</a>
</g>
</g>
<!-- Node28&#45;&gt;Node19 -->
<g id="edge37_Node000028_Node000019" class="edge">
<title>Node28&#45;&gt;Node19</title>
<g id="a_edge37_Node000028_Node000019"><a xlink:title=" ">
<path fill="none" stroke="#63b8ff" d="M762.66,-58.58C759.54,-57.71 756.38,-56.83 753.38,-56 707.8,-43.41 655.1,-29.18 621.53,-20.16"/>
<polygon fill="#63b8ff" stroke="#63b8ff" points="622.52,-16.8 611.95,-17.58 620.7,-23.56 622.52,-16.8"/>
</a>
</g>
</g>
<!-- Node29 -->
<g id="Node000029" class="node">
<title>Node29</title>
<g id="a_Node000029"><a xlink:title=" ">
<polygon fill="#e0e0e0" stroke="#999999" points="814.75,-20 756,-20 756,0 814.75,0 814.75,-20"/>
<text text-anchor="middle" x="785.38" y="-6.5" font-family="Helvetica,sans-Serif" font-size="10.00">inttypes.h</text>
</a>
</g>
</g>
<!-- Node28&#45;&gt;Node29 -->
<g id="edge36_Node000028_Node000029" class="edge">
<title>Node28&#45;&gt;Node29</title>
<g id="a_edge36_Node000028_Node000029"><a xlink:title=" ">
<path fill="none" stroke="#63b8ff" d="M785.38,-55.59C785.38,-49.01 785.38,-39.96 785.38,-31.73"/>
<polygon fill="#63b8ff" stroke="#63b8ff" points="788.88,-31.81 785.38,-21.81 781.88,-31.81 788.88,-31.81"/>
</a>
</g>
</g>
</g>
</svg>
