<?xml version="1.0" encoding="UTF-8" standalone="no"?>
<!DOCTYPE svg PUBLIC "-//W3C//DTD SVG 1.1//EN"
 "http://www.w3.org/Graphics/SVG/1.1/DTD/svg11.dtd">
<!-- Generated by graphviz version 12.2.1 (20241206.2353)
 -->
<!-- Title: lib/comms/protocol.h Pages: 1 -->
<!--zoomable 196 -->

<svg id="main" version="1.1" xmlns="http://www.w3.org/2000/svg" xmlns:xlink="http://www.w3.org/1999/xlink" xml:space="preserve" onload="init(evt)">

<style type="text/css"><![CDATA[
.node, .edge {opacity: 0.7;}
.node.selected, .edge.selected {opacity: 1;}
.edge:hover path { stroke: red; }
.edge:hover polygon { stroke: red; fill: red; }
]]></style>

<defs>
  <circle id="rim" cx="0" cy="0" r="7"/>
  <circle id="rim2" cx="0" cy="0" r="3.5"/>
  <g id="zoomPlus">
    <use xlink:href="#rim" fill="#404040"><set attributeName="fill" to="#808080" begin="zoomplus.mouseover" end="zoomplus.mouseout"/></use>
    <path d="M-4,0h8M0,-4v8" fill="none" stroke="white" stroke-width="1.5" pointer-events="none"/>
  </g>
  <g id="zoomMin">
    <use xlink:href="#rim" fill="#404040"><set attributeName="fill" to="#808080" begin="zoomminus.mouseover" end="zoomminus.mouseout"/></use>
    <path d="M-4,0h8" fill="none" stroke="white" stroke-width="1.5" pointer-events="none"/>
  </g>
  <g id="arrowUp" transform="translate(30 24)">
    <use xlink:href="#rim"/>
    <path pointer-events="none" fill="none" stroke="white" stroke-width="1.5" d="M0,-3.0v7 M-2.5,-0.5L0,-3.0L2.5,-0.5"/>
  </g>
  <g id="arrowRight" transform="rotate(90) translate(36 -43)">
    <use xlink:href="#rim"/>
    <path pointer-events="none" fill="none" stroke="white" stroke-width="1.5" d="M0,-3.0v7 M-2.5,-0.5L0,-3.0L2.5,-0.5"/>
  </g>
  <g id="arrowDown" transform="rotate(180) translate(-30 -48)">
    <use xlink:href="#rim"/>
    <path pointer-events="none" fill="none" stroke="white" stroke-width="1.5" d="M0,-3.0v7 M-2.5,-0.5L0,-3.0L2.5,-0.5"/>
  </g>
  <g id="arrowLeft" transform="rotate(270) translate(-36 17)">
    <use xlink:href="#rim"/>
    <path pointer-events="none" fill="none" stroke="white" stroke-width="1.5" d="M0,-3.0v7 M-2.5,-0.5L0,-3.0L2.5,-0.5"/>
  </g>
  <g id="resetDef">
    <use xlink:href="#rim2" fill="#404040"><set attributeName="fill" to="#808080" begin="reset.mouseover" end="reset.mouseout"/></use>
  </g>
</defs>
<script type="application/ecmascript">
var viewWidth = 1419;
var viewHeight = 196;
var sectionId = 'dynsection-0';
</script>
<script type="application/ecmascript" xlink:href="svg.min.js"/>
<svg id="graph" class="graph">
<g id="viewport">
<title>lib/comms/protocol.h</title>
<!-- Node1 -->
<g id="Node000001" class="node">
<title>Node1</title>
<g id="a_Node000001"><a xlink:title=" ">
<polygon fill="#999999" stroke="#666666" points="964.75,-188 858,-188 858,-168 964.75,-168 964.75,-188"/>
<text text-anchor="middle" x="911.38" y="-174.5" font-family="Helvetica,sans-Serif" font-size="10.00">lib/comms/protocol.h</text>
</a>
</g>
</g>
<!-- Node2 -->
<g id="Node000002" class="node">
<title>Node2</title>
<g id="a_Node000002"><a xlink:title=" ">
<polygon fill="#e0e0e0" stroke="#999999" points="389.38,-20 349.38,-20 349.38,0 389.38,0 389.38,-20"/>
<text text-anchor="middle" x="369.38" y="-6.5" font-family="Helvetica,sans-Serif" font-size="10.00">string</text>
</a>
</g>
</g>
<!-- Node1&#45;&gt;Node2 -->
<g id="edge1_Node000001_Node000002" class="edge">
<title>Node1&#45;&gt;Node2</title>
<g id="a_edge1_Node000001_Node000002"><a xlink:title=" ">
<path fill="none" stroke="#63b8ff" d="M857.74,-174.6C784.14,-170.4 648.14,-159.38 535.38,-132 466.22,-115.21 432.69,-129.15 385.38,-76 374.61,-63.9 370.82,-45.72 369.61,-31.66"/>
<polygon fill="#63b8ff" stroke="#63b8ff" points="373.1,-31.54 369.16,-21.71 366.11,-31.85 373.1,-31.54"/>
</a>
</g>
</g>
<!-- Node3 -->
<g id="Node000003" class="node">
<title>Node3</title>
<g id="a_Node000003"><a xlink:title=" ">
<polygon fill="#e0e0e0" stroke="#999999" points="34.75,-76 0,-76 0,-56 34.75,-56 34.75,-76"/>
<text text-anchor="middle" x="17.38" y="-62.5" font-family="Helvetica,sans-Serif" font-size="10.00">map</text>
</a>
</g>
</g>
<!-- Node1&#45;&gt;Node3 -->
<g id="edge2_Node000001_Node000003" class="edge">
<title>Node1&#45;&gt;Node3</title>
<g id="a_edge2_Node000001_Node000003"><a xlink:title=" ">
<path fill="none" stroke="#63b8ff" d="M857.67,-176.15C709.87,-173.42 299.44,-163.17 168.38,-132 122.63,-121.12 73.22,-97.32 43.81,-81.74"/>
<polygon fill="#63b8ff" stroke="#63b8ff" points="45.72,-78.79 35.26,-77.13 42.4,-84.95 45.72,-78.79"/>
</a>
</g>
</g>
<!-- Node4 -->
<g id="Node000004" class="node">
<title>Node4</title>
<g id="a_Node000004"><a xlink:title=" ">
<polygon fill="#e0e0e0" stroke="#999999" points="871.38,-132 813.38,-132 813.38,-112 871.38,-112 871.38,-132"/>
<text text-anchor="middle" x="842.38" y="-118.5" font-family="Helvetica,sans-Serif" font-size="10.00">functional</text>
</a>
</g>
</g>
<!-- Node1&#45;&gt;Node4 -->
<g id="edge3_Node000001_Node000004" class="edge">
<title>Node1&#45;&gt;Node4</title>
<g id="a_edge3_Node000001_Node000004"><a xlink:title=" ">
<path fill="none" stroke="#63b8ff" d="M899.36,-167.59C889.36,-159.77 874.91,-148.46 863.07,-139.19"/>
<polygon fill="#63b8ff" stroke="#63b8ff" points="865.48,-136.64 855.45,-133.23 861.17,-142.15 865.48,-136.64"/>
</a>
</g>
</g>
<!-- Node5 -->
<g id="Node000005" class="node">
<title>Node5</title>
<g id="a_Node000005"><a xlink:title=" ">
<polygon fill="#e0e0e0" stroke="#999999" points="932.88,-132 889.88,-132 889.88,-112 932.88,-112 932.88,-132"/>
<text text-anchor="middle" x="911.38" y="-118.5" font-family="Helvetica,sans-Serif" font-size="10.00">vector</text>
</a>
</g>
</g>
<!-- Node1&#45;&gt;Node5 -->
<g id="edge4_Node000001_Node000005" class="edge">
<title>Node1&#45;&gt;Node5</title>
<g id="a_edge4_Node000001_Node000005"><a xlink:title=" ">
<path fill="none" stroke="#63b8ff" d="M911.38,-167.59C911.38,-161.01 911.38,-151.96 911.38,-143.73"/>
<polygon fill="#63b8ff" stroke="#63b8ff" points="914.88,-143.81 911.38,-133.81 907.88,-143.81 914.88,-143.81"/>
</a>
</g>
</g>
<!-- Node6 -->
<g id="Node000006" class="node">
<title>Node6</title>
<g id="a_Node000006"><a xlink:title=" ">
<polygon fill="#e0e0e0" stroke="#999999" points="996,-132 950.75,-132 950.75,-112 996,-112 996,-132"/>
<text text-anchor="middle" x="973.38" y="-118.5" font-family="Helvetica,sans-Serif" font-size="10.00">cstdint</text>
</a>
</g>
</g>
<!-- Node1&#45;&gt;Node6 -->
<g id="edge5_Node000001_Node000006" class="edge">
<title>Node1&#45;&gt;Node6</title>
<g id="a_edge5_Node000001_Node000006"><a xlink:title=" ">
<path fill="none" stroke="#63b8ff" d="M922.17,-167.59C930.98,-159.93 943.63,-148.91 954.15,-139.75"/>
<polygon fill="#63b8ff" stroke="#63b8ff" points="956.32,-142.5 961.56,-133.29 951.72,-137.22 956.32,-142.5"/>
</a>
</g>
</g>
<!-- Node7 -->
<g id="Node000007" class="node">
<title>Node7</title>
<g id="a_Node000007"><a xlink:title=" ">
<polygon fill="#e0e0e0" stroke="#999999" points="1064.25,-132 1014.5,-132 1014.5,-112 1064.25,-112 1064.25,-132"/>
<text text-anchor="middle" x="1039.38" y="-118.5" font-family="Helvetica,sans-Serif" font-size="10.00">iomanip</text>
</a>
</g>
</g>
<!-- Node1&#45;&gt;Node7 -->
<g id="edge6_Node000001_Node000007" class="edge">
<title>Node1&#45;&gt;Node7</title>
<g id="a_edge6_Node000001_Node000007"><a xlink:title=" ">
<path fill="none" stroke="#63b8ff" d="M933.67,-167.59C953.74,-159.13 983.49,-146.58 1006.33,-136.94"/>
<polygon fill="#63b8ff" stroke="#63b8ff" points="1007.66,-140.18 1015.51,-133.07 1004.94,-133.73 1007.66,-140.18"/>
</a>
</g>
</g>
<!-- Node8 -->
<g id="Node000008" class="node">
<title>Node8</title>
<g id="a_Node000008"><a xlink:href="pin__config_8h.html" target="_top" xlink:title=" ">
<polygon fill="white" stroke="#666666" points="710.62,-76 642.12,-76 642.12,-56 710.62,-56 710.62,-76"/>
<text text-anchor="middle" x="676.38" y="-62.5" font-family="Helvetica,sans-Serif" font-size="10.00">pin_config.h</text>
</a>
</g>
</g>
<!-- Node1&#45;&gt;Node8 -->
<g id="edge7_Node000001_Node000008" class="edge">
<title>Node1&#45;&gt;Node8</title>
<g id="a_edge7_Node000001_Node000008"><a xlink:title=" ">
<path fill="none" stroke="#63b8ff" d="M857.62,-174.52C795,-170.36 697.18,-159.54 674.38,-132 664.14,-119.64 665.89,-100.95 669.47,-86.79"/>
<polygon fill="#63b8ff" stroke="#63b8ff" points="672.69,-88.22 672.25,-77.63 665.99,-86.19 672.69,-88.22"/>
</a>
</g>
</g>
<!-- Node10 -->
<g id="Node000010" class="node">
<title>Node10</title>
<g id="a_Node000010"><a xlink:href="_power_manager_8h.html" target="_top" xlink:title=" ">
<polygon fill="white" stroke="#666666" points="267.12,-132 177.62,-132 177.62,-112 267.12,-112 267.12,-132"/>
<text text-anchor="middle" x="222.38" y="-118.5" font-family="Helvetica,sans-Serif" font-size="10.00">PowerManager.h</text>
</a>
</g>
</g>
<!-- Node1&#45;&gt;Node10 -->
<g id="edge9_Node000001_Node000010" class="edge">
<title>Node1&#45;&gt;Node10</title>
<g id="a_edge9_Node000001_Node000010"><a xlink:title=" ">
<path fill="none" stroke="#63b8ff" d="M857.86,-172.82C756.24,-164.89 528.29,-147.09 336.38,-132 317.7,-130.53 297.3,-128.92 278.98,-127.48"/>
<polygon fill="#63b8ff" stroke="#63b8ff" points="279.34,-123.99 269.1,-126.7 278.79,-130.97 279.34,-123.99"/>
</a>
</g>
</g>
<!-- Node16 -->
<g id="Node000016" class="node">
<title>Node16</title>
<g id="a_Node000016"><a xlink:title=" ">
<polygon fill="#e0e0e0" stroke="#999999" points="1124.5,-132 1082.25,-132 1082.25,-112 1124.5,-112 1124.5,-132"/>
<text text-anchor="middle" x="1103.38" y="-118.5" font-family="Helvetica,sans-Serif" font-size="10.00">cstdio</text>
</a>
</g>
</g>
<!-- Node1&#45;&gt;Node16 -->
<g id="edge19_Node000001_Node000016" class="edge">
<title>Node1&#45;&gt;Node16</title>
<g id="a_edge19_Node000001_Node000016"><a xlink:title=" ">
<path fill="none" stroke="#63b8ff" d="M946.19,-167.55C976.73,-159.21 1022.6,-146.57 1070.79,-132.71"/>
<polygon fill="#63b8ff" stroke="#63b8ff" points="1071.67,-136.1 1080.31,-129.96 1069.73,-129.37 1071.67,-136.1"/>
</a>
</g>
</g>
<!-- Node17 -->
<g id="Node000017" class="node">
<title>Node17</title>
<g id="a_Node000017"><a xlink:title=" ">
<polygon fill="#e0e0e0" stroke="#999999" points="1186.62,-132 1142.12,-132 1142.12,-112 1186.62,-112 1186.62,-132"/>
<text text-anchor="middle" x="1164.38" y="-118.5" font-family="Helvetica,sans-Serif" font-size="10.00">cstdlib</text>
</a>
</g>
</g>
<!-- Node1&#45;&gt;Node17 -->
<g id="edge20_Node000001_Node000017" class="edge">
<title>Node1&#45;&gt;Node17</title>
<g id="a_edge20_Node000001_Node000017"><a xlink:title=" ">
<path fill="none" stroke="#63b8ff" d="M964.13,-167.58C1006.81,-159.67 1068.68,-147.56 1130.94,-132.45"/>
<polygon fill="#63b8ff" stroke="#63b8ff" points="1131.4,-135.95 1140.28,-130.16 1129.73,-129.15 1131.4,-135.95"/>
</a>
</g>
</g>
<!-- Node18 -->
<g id="Node000018" class="node">
<title>Node18</title>
<g id="a_Node000018"><a xlink:title=" ">
<polygon fill="#e0e0e0" stroke="#999999" points="1250,-132 1204.75,-132 1204.75,-112 1250,-112 1250,-132"/>
<text text-anchor="middle" x="1227.38" y="-118.5" font-family="Helvetica,sans-Serif" font-size="10.00">cstring</text>
</a>
</g>
</g>
<!-- Node1&#45;&gt;Node18 -->
<g id="edge21_Node000001_Node000018" class="edge">
<title>Node1&#45;&gt;Node18</title>
<g id="a_edge21_Node000001_Node000018"><a xlink:title=" ">
<path fill="none" stroke="#63b8ff" d="M965.11,-170.39C1020.08,-163.21 1108.11,-150.53 1193.21,-132.25"/>
<polygon fill="#63b8ff" stroke="#63b8ff" points="1193.88,-135.69 1202.91,-130.14 1192.39,-128.85 1193.88,-135.69"/>
</a>
</g>
</g>
<!-- Node19 -->
<g id="Node000019" class="node">
<title>Node19</title>
<g id="a_Node000019"><a xlink:href="utils_8h.html" target="_top" xlink:title=" ">
<polygon fill="white" stroke="#666666" points="586.5,-132 544.25,-132 544.25,-112 586.5,-112 586.5,-132"/>
<text text-anchor="middle" x="565.38" y="-118.5" font-family="Helvetica,sans-Serif" font-size="10.00">utils.h</text>
</a>
</g>
</g>
<!-- Node1&#45;&gt;Node19 -->
<g id="edge22_Node000001_Node000019" class="edge">
<title>Node1&#45;&gt;Node19</title>
<g id="a_edge22_Node000001_Node000019"><a xlink:title=" ">
<path fill="none" stroke="#63b8ff" d="M857.69,-168.62C785.06,-157.29 657.73,-137.41 598.02,-128.09"/>
<polygon fill="#63b8ff" stroke="#63b8ff" points="598.6,-124.64 588.18,-126.56 597.52,-131.56 598.6,-124.64"/>
</a>
</g>
</g>
<!-- Node22 -->
<g id="Node000022" class="node">
<title>Node22</title>
<g id="a_Node000022"><a xlink:title=" ">
<polygon fill="#e0e0e0" stroke="#999999" points="1310.88,-132 1267.88,-132 1267.88,-112 1310.88,-112 1310.88,-132"/>
<text text-anchor="middle" x="1289.38" y="-118.5" font-family="Helvetica,sans-Serif" font-size="10.00">time.h</text>
</a>
</g>
</g>
<!-- Node1&#45;&gt;Node22 -->
<g id="edge28_Node000001_Node000022" class="edge">
<title>Node1&#45;&gt;Node22</title>
<g id="a_edge28_Node000001_Node000022"><a xlink:title=" ">
<path fill="none" stroke="#63b8ff" d="M965.19,-172.78C1031.68,-166.96 1148.37,-154.78 1256.43,-132.35"/>
<polygon fill="#63b8ff" stroke="#63b8ff" points="1256.99,-135.81 1266.05,-130.32 1255.54,-128.96 1256.99,-135.81"/>
</a>
</g>
</g>
<!-- Node23 -->
<g id="Node000023" class="node">
<title>Node23</title>
<g id="a_Node000023"><a xlink:href="build__number_8h.html" target="_top" xlink:title=" ">
<polygon fill="white" stroke="#666666" points="1411.38,-132 1329.38,-132 1329.38,-112 1411.38,-112 1411.38,-132"/>
<text text-anchor="middle" x="1370.38" y="-118.5" font-family="Helvetica,sans-Serif" font-size="10.00">build_number.h</text>
</a>
</g>
</g>
<!-- Node1&#45;&gt;Node23 -->
<g id="edge29_Node000001_Node000023" class="edge">
<title>Node1&#45;&gt;Node23</title>
<g id="a_edge29_Node000001_Node000023"><a xlink:title=" ">
<path fill="none" stroke="#63b8ff" d="M965.12,-172.27C1041.31,-165.3 1185.32,-151.18 1317.8,-132.29"/>
<polygon fill="#63b8ff" stroke="#63b8ff" points="1318.04,-135.79 1327.44,-130.9 1317.04,-128.86 1318.04,-135.79"/>
</a>
</g>
</g>
<!-- Node24 -->
<g id="Node000024" class="node">
<title>Node24</title>
<g id="a_Node000024"><a xlink:href="_lo_ra-_r_p2040_8h.html" target="_top" xlink:title=" ">
<polygon fill="white" stroke="#666666" points="795.38,-132 683.38,-132 683.38,-112 795.38,-112 795.38,-132"/>
<text text-anchor="middle" x="739.38" y="-118.5" font-family="Helvetica,sans-Serif" font-size="10.00">LoRa/LoRa&#45;RP2040.h</text>
</a>
</g>
</g>
<!-- Node1&#45;&gt;Node24 -->
<g id="edge30_Node000001_Node000024" class="edge">
<title>Node1&#45;&gt;Node24</title>
<g id="a_edge30_Node000001_Node000024"><a xlink:title=" ">
<path fill="none" stroke="#63b8ff" d="M881.41,-167.59C853.47,-158.82 811.54,-145.66 780.48,-135.9"/>
<polygon fill="#63b8ff" stroke="#63b8ff" points="781.6,-132.59 771.01,-132.93 779.51,-139.27 781.6,-132.59"/>
</a>
</g>
</g>
<!-- Node9 -->
<g id="Node000009" class="node">
<title>Node9</title>
<g id="a_Node000009"><a xlink:title=" ">
<polygon fill="#e0e0e0" stroke="#999999" points="295.5,-20 247.25,-20 247.25,0 295.5,0 295.5,-20"/>
<text text-anchor="middle" x="271.38" y="-6.5" font-family="Helvetica,sans-Serif" font-size="10.00">stdint.h</text>
</a>
</g>
</g>
<!-- Node8&#45;&gt;Node9 -->
<g id="edge8_Node000008_Node000009" class="edge">
<title>Node8&#45;&gt;Node9</title>
<g id="a_edge8_Node000008_Node000009"><a xlink:title=" ">
<path fill="none" stroke="#63b8ff" d="M641.84,-60.4C565.61,-50.23 383.59,-25.96 306.66,-15.7"/>
<polygon fill="#63b8ff" stroke="#63b8ff" points="307.55,-12.29 297.17,-14.44 306.62,-19.23 307.55,-12.29"/>
</a>
</g>
</g>
<!-- Node10&#45;&gt;Node2 -->
<g id="edge15_Node000010_Node000002" class="edge">
<title>Node10&#45;&gt;Node2</title>
<g id="a_edge15_Node000010_Node000002"><a xlink:title=" ">
<path fill="none" stroke="#63b8ff" d="M222.53,-111.74C223.26,-97.83 226.66,-71.53 241.38,-56 266.72,-29.25 308.89,-18.39 337.86,-13.99"/>
<polygon fill="#63b8ff" stroke="#63b8ff" points="338.05,-17.49 347.5,-12.71 337.13,-10.55 338.05,-17.49"/>
</a>
</g>
</g>
<!-- Node10&#45;&gt;Node3 -->
<g id="edge14_Node000010_Node000003" class="edge">
<title>Node10&#45;&gt;Node3</title>
<g id="a_edge14_Node000010_Node000003"><a xlink:title=" ">
<path fill="none" stroke="#63b8ff" d="M184.61,-111.58C149.31,-102.68 95.16,-88.84 48.38,-76 47.56,-75.78 46.74,-75.55 45.91,-75.32"/>
<polygon fill="#63b8ff" stroke="#63b8ff" points="47.09,-72.01 36.51,-72.64 45.17,-78.75 47.09,-72.01"/>
</a>
</g>
</g>
<!-- Node11 -->
<g id="Node000011" class="node">
<title>Node11</title>
<g id="a_Node000011"><a xlink:href="_i_n_a3221_8h.html" target="_top" xlink:title=" ">
<polygon fill="white" stroke="#666666" points="194.25,-76 90.5,-76 90.5,-56 194.25,-56 194.25,-76"/>
<text text-anchor="middle" x="142.38" y="-62.5" font-family="Helvetica,sans-Serif" font-size="10.00">INA3221/INA3221.h</text>
</a>
</g>
</g>
<!-- Node10&#45;&gt;Node11 -->
<g id="edge10_Node000010_Node000011" class="edge">
<title>Node10&#45;&gt;Node11</title>
<g id="a_edge10_Node000010_Node000011"><a xlink:title=" ">
<path fill="none" stroke="#63b8ff" d="M208.44,-111.59C196.7,-103.67 179.64,-92.16 165.81,-82.82"/>
<polygon fill="#63b8ff" stroke="#63b8ff" points="167.92,-80.02 157.67,-77.33 164,-85.82 167.92,-80.02"/>
</a>
</g>
</g>
<!-- Node13 -->
<g id="Node000013" class="node">
<title>Node13</title>
<g id="a_Node000013"><a xlink:title=" ">
<polygon fill="#e0e0e0" stroke="#999999" points="102.25,-20 22.5,-20 22.5,0 102.25,0 102.25,-20"/>
<text text-anchor="middle" x="62.38" y="-6.5" font-family="Helvetica,sans-Serif" font-size="10.00">hardware/i2c.h</text>
</a>
</g>
</g>
<!-- Node10&#45;&gt;Node13 -->
<g id="edge16_Node000010_Node000013" class="edge">
<title>Node10&#45;&gt;Node13</title>
<g id="a_edge16_Node000010_Node000013"><a xlink:title=" ">
<path fill="none" stroke="#63b8ff" d="M177.24,-117.51C146.31,-112.79 106.5,-101.75 81.38,-76 69.82,-64.15 65.23,-45.68 63.43,-31.45"/>
<polygon fill="#63b8ff" stroke="#63b8ff" points="66.95,-31.49 62.6,-21.82 59.97,-32.09 66.95,-31.49"/>
</a>
</g>
</g>
<!-- Node14 -->
<g id="Node000014" class="node">
<title>Node14</title>
<g id="a_Node000014"><a xlink:title=" ">
<polygon fill="#e0e0e0" stroke="#999999" points="484.62,-76 416.12,-76 416.12,-56 484.62,-56 484.62,-76"/>
<text text-anchor="middle" x="450.38" y="-62.5" font-family="Helvetica,sans-Serif" font-size="10.00">pico/stdlib.h</text>
</a>
</g>
</g>
<!-- Node10&#45;&gt;Node14 -->
<g id="edge17_Node000010_Node000014" class="edge">
<title>Node10&#45;&gt;Node14</title>
<g id="a_edge17_Node000010_Node000014"><a xlink:title=" ">
<path fill="none" stroke="#63b8ff" d="M262.35,-111.53C302.13,-102.11 363.08,-87.67 404.74,-77.81"/>
<polygon fill="#63b8ff" stroke="#63b8ff" points="405.28,-81.28 414.2,-75.57 403.66,-74.47 405.28,-81.28"/>
</a>
</g>
</g>
<!-- Node15 -->
<g id="Node000015" class="node">
<title>Node15</title>
<g id="a_Node000015"><a xlink:title=" ">
<polygon fill="#e0e0e0" stroke="#999999" points="322.5,-76 250.25,-76 250.25,-56 322.5,-56 322.5,-76"/>
<text text-anchor="middle" x="286.38" y="-62.5" font-family="Helvetica,sans-Serif" font-size="10.00">pico/mutex.h</text>
</a>
</g>
</g>
<!-- Node10&#45;&gt;Node15 -->
<g id="edge18_Node000010_Node000015" class="edge">
<title>Node10&#45;&gt;Node15</title>
<g id="a_edge18_Node000010_Node000015"><a xlink:title=" ">
<path fill="none" stroke="#63b8ff" d="M233.52,-111.59C242.7,-103.85 255.93,-92.69 266.86,-83.47"/>
<polygon fill="#63b8ff" stroke="#63b8ff" points="268.81,-86.4 274.2,-77.27 264.3,-81.05 268.81,-86.4"/>
</a>
</g>
</g>
<!-- Node11&#45;&gt;Node9 -->
<g id="edge11_Node000011_Node000009" class="edge">
<title>Node11&#45;&gt;Node9</title>
<g id="a_edge11_Node000011_Node000009"><a xlink:title=" ">
<path fill="none" stroke="#63b8ff" d="M164.85,-55.59C185.16,-47.09 215.33,-34.46 238.38,-24.81"/>
<polygon fill="#63b8ff" stroke="#63b8ff" points="239.46,-28.15 247.33,-21.06 236.76,-21.7 239.46,-28.15"/>
</a>
</g>
</g>
<!-- Node12 -->
<g id="Node000012" class="node">
<title>Node12</title>
<g id="a_Node000012"><a xlink:title=" ">
<polygon fill="#e0e0e0" stroke="#999999" points="174.12,-20 120.62,-20 120.62,0 174.12,0 174.12,-20"/>
<text text-anchor="middle" x="147.38" y="-6.5" font-family="Helvetica,sans-Serif" font-size="10.00">iostream</text>
</a>
</g>
</g>
<!-- Node11&#45;&gt;Node12 -->
<g id="edge12_Node000011_Node000012" class="edge">
<title>Node11&#45;&gt;Node12</title>
<g id="a_edge12_Node000011_Node000012"><a xlink:title=" ">
<path fill="none" stroke="#63b8ff" d="M143.25,-55.59C143.86,-49.01 144.69,-39.96 145.46,-31.73"/>
<polygon fill="#63b8ff" stroke="#63b8ff" points="148.94,-32.09 146.37,-21.81 141.97,-31.44 148.94,-32.09"/>
</a>
</g>
</g>
<!-- Node11&#45;&gt;Node13 -->
<g id="edge13_Node000011_Node000013" class="edge">
<title>Node11&#45;&gt;Node13</title>
<g id="a_edge13_Node000011_Node000013"><a xlink:title=" ">
<path fill="none" stroke="#63b8ff" d="M128.44,-55.59C116.7,-47.67 99.64,-36.16 85.81,-26.82"/>
<polygon fill="#63b8ff" stroke="#63b8ff" points="87.92,-24.02 77.67,-21.33 84,-29.82 87.92,-24.02"/>
</a>
</g>
</g>
<!-- Node19&#45;&gt;Node2 -->
<g id="edge24_Node000019_Node000002" class="edge">
<title>Node19&#45;&gt;Node2</title>
<g id="a_edge24_Node000019_Node000002"><a xlink:title=" ">
<path fill="none" stroke="#63b8ff" d="M543.95,-119.89C511.29,-117.19 448.51,-107.9 407.38,-76 392.54,-64.5 382.39,-45.44 376.34,-30.93"/>
<polygon fill="#63b8ff" stroke="#63b8ff" points="379.73,-30 372.89,-21.91 373.19,-32.5 379.73,-30"/>
</a>
</g>
</g>
<!-- Node19&#45;&gt;Node8 -->
<g id="edge27_Node000019_Node000008" class="edge">
<title>Node19&#45;&gt;Node8</title>
<g id="a_edge27_Node000019_Node000008"><a xlink:title=" ">
<path fill="none" stroke="#63b8ff" d="M584.71,-111.59C601.79,-103.28 626.98,-91.03 646.63,-81.47"/>
<polygon fill="#63b8ff" stroke="#63b8ff" points="648.07,-84.66 655.53,-77.14 645,-78.37 648.07,-84.66"/>
</a>
</g>
</g>
<!-- Node19&#45;&gt;Node14 -->
<g id="edge25_Node000019_Node000014" class="edge">
<title>Node19&#45;&gt;Node14</title>
<g id="a_edge25_Node000019_Node000014"><a xlink:title=" ">
<path fill="none" stroke="#63b8ff" d="M545.34,-111.59C527.56,-103.24 501.31,-90.92 480.91,-81.34"/>
<polygon fill="#63b8ff" stroke="#63b8ff" points="482.47,-78.21 471.93,-77.12 479.5,-84.54 482.47,-78.21"/>
</a>
</g>
</g>
<!-- Node20 -->
<g id="Node000020" class="node">
<title>Node20</title>
<g id="a_Node000020"><a xlink:title=" ">
<polygon fill="#e0e0e0" stroke="#999999" points="803,-20 757.75,-20 757.75,0 803,0 803,-20"/>
<text text-anchor="middle" x="780.38" y="-6.5" font-family="Helvetica,sans-Serif" font-size="10.00">stdio.h</text>
</a>
</g>
</g>
<!-- Node19&#45;&gt;Node20 -->
<g id="edge23_Node000019_Node000020" class="edge">
<title>Node19&#45;&gt;Node20</title>
<g id="a_edge23_Node000019_Node000020"><a xlink:title=" ">
<path fill="none" stroke="#63b8ff" d="M572.71,-111.61C584.18,-97.54 607.73,-71.02 633.38,-56 669.01,-35.12 715.27,-23.04 746.29,-16.75"/>
<polygon fill="#63b8ff" stroke="#63b8ff" points="746.74,-20.23 755.9,-14.91 745.42,-13.36 746.74,-20.23"/>
</a>
</g>
</g>
<!-- Node21 -->
<g id="Node000021" class="node">
<title>Node21</title>
<g id="a_Node000021"><a xlink:title=" ">
<polygon fill="#e0e0e0" stroke="#999999" points="586.12,-76 502.62,-76 502.62,-56 586.12,-56 586.12,-76"/>
<text text-anchor="middle" x="544.38" y="-62.5" font-family="Helvetica,sans-Serif" font-size="10.00">hardware/uart.h</text>
</a>
</g>
</g>
<!-- Node19&#45;&gt;Node21 -->
<g id="edge26_Node000019_Node000021" class="edge">
<title>Node19&#45;&gt;Node21</title>
<g id="a_edge26_Node000019_Node000021"><a xlink:title=" ">
<path fill="none" stroke="#63b8ff" d="M561.72,-111.59C559.07,-104.78 555.39,-95.32 552.1,-86.86"/>
<polygon fill="#63b8ff" stroke="#63b8ff" points="555.43,-85.76 548.54,-77.71 548.9,-88.3 555.43,-85.76"/>
</a>
</g>
</g>
<!-- Node24&#45;&gt;Node8 -->
<g id="edge40_Node000024_Node000008" class="edge">
<title>Node24&#45;&gt;Node8</title>
<g id="a_edge40_Node000024_Node000008"><a xlink:title=" ">
<path fill="none" stroke="#63b8ff" d="M728.4,-111.59C719.46,-103.93 706.6,-92.91 695.91,-83.75"/>
<polygon fill="#63b8ff" stroke="#63b8ff" points="698.24,-81.13 688.37,-77.28 693.69,-86.45 698.24,-81.13"/>
</a>
</g>
</g>
<!-- Node24&#45;&gt;Node14 -->
<g id="edge31_Node000024_Node000014" class="edge">
<title>Node24&#45;&gt;Node14</title>
<g id="a_edge31_Node000024_Node000014"><a xlink:title=" ">
<path fill="none" stroke="#63b8ff" d="M685.55,-111.56C638.1,-103.15 566.8,-90.28 495.99,-76.48"/>
<polygon fill="#63b8ff" stroke="#63b8ff" points="497.06,-73.12 486.58,-74.64 495.72,-79.99 497.06,-73.12"/>
</a>
</g>
</g>
<!-- Node25 -->
<g id="Node000025" class="node">
<title>Node25</title>
<g id="a_Node000025"><a xlink:title=" ">
<polygon fill="#e0e0e0" stroke="#999999" points="1150.62,-76 1058.12,-76 1058.12,-56 1150.62,-56 1150.62,-76"/>
<text text-anchor="middle" x="1104.38" y="-62.5" font-family="Helvetica,sans-Serif" font-size="10.00">pico/binary_info.h</text>
</a>
</g>
</g>
<!-- Node24&#45;&gt;Node25 -->
<g id="edge32_Node000024_Node000025" class="edge">
<title>Node24&#45;&gt;Node25</title>
<g id="a_edge32_Node000024_Node000025"><a xlink:title=" ">
<path fill="none" stroke="#63b8ff" d="M795.8,-113.04C855.41,-104.57 952.48,-90.61 1046.48,-76.27"/>
<polygon fill="#63b8ff" stroke="#63b8ff" points="1046.78,-79.77 1056.14,-74.79 1045.72,-72.85 1046.78,-79.77"/>
</a>
</g>
</g>
<!-- Node26 -->
<g id="Node000026" class="node">
<title>Node26</title>
<g id="a_Node000026"><a xlink:title=" ">
<polygon fill="#e0e0e0" stroke="#999999" points="813.88,-76 728.88,-76 728.88,-56 813.88,-56 813.88,-76"/>
<text text-anchor="middle" x="771.38" y="-62.5" font-family="Helvetica,sans-Serif" font-size="10.00">hardware/gpio.h</text>
</a>
</g>
</g>
<!-- Node24&#45;&gt;Node26 -->
<g id="edge33_Node000024_Node000026" class="edge">
<title>Node24&#45;&gt;Node26</title>
<g id="a_edge33_Node000024_Node000026"><a xlink:title=" ">
<path fill="none" stroke="#63b8ff" d="M744.95,-111.59C749.12,-104.55 754.98,-94.67 760.12,-86"/>
<polygon fill="#63b8ff" stroke="#63b8ff" points="763.01,-87.99 765.09,-77.6 756.98,-84.42 763.01,-87.99"/>
</a>
</g>
</g>
<!-- Node27 -->
<g id="Node000027" class="node">
<title>Node27</title>
<g id="a_Node000027"><a xlink:title=" ">
<polygon fill="#e0e0e0" stroke="#999999" points="911.25,-76 831.5,-76 831.5,-56 911.25,-56 911.25,-76"/>
<text text-anchor="middle" x="871.38" y="-62.5" font-family="Helvetica,sans-Serif" font-size="10.00">hardware/spi.h</text>
</a>
</g>
</g>
<!-- Node24&#45;&gt;Node27 -->
<g id="edge34_Node000024_Node000027" class="edge">
<title>Node24&#45;&gt;Node27</title>
<g id="a_edge34_Node000024_Node000027"><a xlink:title=" ">
<path fill="none" stroke="#63b8ff" d="M762.37,-111.59C783.16,-103.09 814.03,-90.46 837.61,-80.81"/>
<polygon fill="#63b8ff" stroke="#63b8ff" points="838.87,-84.08 846.8,-77.05 836.22,-77.6 838.87,-84.08"/>
</a>
</g>
</g>
<!-- Node28 -->
<g id="Node000028" class="node">
<title>Node28</title>
<g id="a_Node000028"><a xlink:title=" ">
<polygon fill="#e0e0e0" stroke="#999999" points="977.5,-76 929.25,-76 929.25,-56 977.5,-56 977.5,-76"/>
<text text-anchor="middle" x="953.38" y="-62.5" font-family="Helvetica,sans-Serif" font-size="10.00">string.h</text>
</a>
</g>
</g>
<!-- Node24&#45;&gt;Node28 -->
<g id="edge35_Node000024_Node000028" class="edge">
<title>Node24&#45;&gt;Node28</title>
<g id="a_edge35_Node000024_Node000028"><a xlink:title=" ">
<path fill="none" stroke="#63b8ff" d="M778.63,-111.51C812.97,-103.15 864.47,-90.47 917.83,-76.62"/>
<polygon fill="#63b8ff" stroke="#63b8ff" points="918.62,-80.03 927.42,-74.13 916.86,-73.26 918.62,-80.03"/>
</a>
</g>
</g>
<!-- Node29 -->
<g id="Node000029" class="node">
<title>Node29</title>
<g id="a_Node000029"><a xlink:href="_print_8h.html" target="_top" xlink:title=" ">
<polygon fill="white" stroke="#666666" points="1039.62,-76 995.12,-76 995.12,-56 1039.62,-56 1039.62,-76"/>
<text text-anchor="middle" x="1017.38" y="-62.5" font-family="Helvetica,sans-Serif" font-size="10.00">Print.h</text>
</a>
</g>
</g>
<!-- Node24&#45;&gt;Node29 -->
<g id="edge36_Node000024_Node000029" class="edge">
<title>Node24&#45;&gt;Node29</title>
<g id="a_edge36_Node000024_Node000029"><a xlink:title=" ">
<path fill="none" stroke="#63b8ff" d="M795.63,-112.44C843.36,-104.79 913.86,-92.61 983.58,-76.48"/>
<polygon fill="#63b8ff" stroke="#63b8ff" points="984.35,-79.89 993.29,-74.2 982.75,-73.08 984.35,-79.89"/>
</a>
</g>
</g>
<!-- Node29&#45;&gt;Node2 -->
<g id="edge39_Node000029_Node000002" class="edge">
<title>Node29&#45;&gt;Node2</title>
<g id="a_edge39_Node000029_Node000002"><a xlink:title=" ">
<path fill="none" stroke="#63b8ff" d="M994.82,-57.86C992,-57.14 989.13,-56.5 986.38,-56 765.04,-16.25 493.03,-11.42 401.29,-10.98"/>
<polygon fill="#63b8ff" stroke="#63b8ff" points="401.33,-7.48 391.32,-10.95 401.31,-14.48 401.33,-7.48"/>
</a>
</g>
</g>
<!-- Node29&#45;&gt;Node20 -->
<g id="edge38_Node000029_Node000020" class="edge">
<title>Node29&#45;&gt;Node20</title>
<g id="a_edge38_Node000029_Node000020"><a xlink:title=" ">
<path fill="none" stroke="#63b8ff" d="M994.74,-58.24C991.93,-57.45 989.09,-56.69 986.38,-56 926.31,-40.74 855.6,-25.98 814.59,-17.74"/>
<polygon fill="#63b8ff" stroke="#63b8ff" points="815.33,-14.32 804.84,-15.79 813.96,-21.18 815.33,-14.32"/>
</a>
</g>
</g>
<!-- Node30 -->
<g id="Node000030" class="node">
<title>Node30</title>
<g id="a_Node000030"><a xlink:title=" ">
<polygon fill="#e0e0e0" stroke="#999999" points="1046.75,-20 988,-20 988,0 1046.75,0 1046.75,-20"/>
<text text-anchor="middle" x="1017.38" y="-6.5" font-family="Helvetica,sans-Serif" font-size="10.00">inttypes.h</text>
</a>
</g>
</g>
<!-- Node29&#45;&gt;Node30 -->
<g id="edge37_Node000029_Node000030" class="edge">
<title>Node29&#45;&gt;Node30</title>
<g id="a_edge37_Node000029_Node000030"><a xlink:title=" ">
<path fill="none" stroke="#63b8ff" d="M1017.38,-55.59C1017.38,-49.01 1017.38,-39.96 1017.38,-31.73"/>
<polygon fill="#63b8ff" stroke="#63b8ff" points="1020.88,-31.81 1017.38,-21.81 1013.88,-31.81 1020.88,-31.81"/>
</a>
</g>
</g>
</g>
</svg>

<g id="navigator" transform="translate(0 0)" fill="#404254">
  <rect fill="#f2f5e9" fill-opacity="0.5" stroke="#606060" stroke-width=".5" x="0" y="0" width="60" height="60"/>
  <use id="zoomplus" xlink:href="#zoomPlus" x="17" y="9" onmousedown="handleZoom(evt,'in')"/>
  <use id="zoomminus" xlink:href="#zoomMin" x="42" y="9" onmousedown="handleZoom(evt,'out')"/>
  <use id="reset" xlink:href="#resetDef" x="30" y="36" onmousedown="handleReset()"/>
   <use id="arrowup" xlink:href="#arrowUp" x="0" y="0" onmousedown="handlePan(0,-1)"/>
  <use id="arrowright" xlink:href="#arrowRight" x="0" y="0" onmousedown="handlePan(1,0)"/>
  <use id="arrowdown" xlink:href="#arrowDown" x="0" y="0" onmousedown="handlePan(0,1)"/>
  <use id="arrowleft" xlink:href="#arrowLeft" x="0" y="0" onmousedown="handlePan(-1,0)"/>
</g>
<svg viewBox="0 0 15 15" width="100%" height="30px" preserveAspectRatio="xMaxYMin meet">
 <g id="arrow_out" transform="scale(0.3 0.3)">
  <a xlink:href="protocol_8h__incl_org.svg" target="_base">
   <rect id="button" ry="5" rx="5" y="6" x="6" height="38" width="38"
        fill="#f2f5e9" fill-opacity="0.5" stroke="#606060" stroke-width="1.0"/>
   <path id="arrow"
     d="M 11.500037,31.436501 C 11.940474,20.09759 22.043105,11.32322 32.158766,21.979434 L 37.068811,17.246167 C 37.068811,17.246167 37.088388,32 37.088388,32 L 22.160133,31.978069 C 22.160133,31.978069 26.997745,27.140456 26.997745,27.140456 C 18.528582,18.264221 13.291696,25.230495 11.500037,31.436501 z"
     style="fill:#404040;"/>
  </a>
 </g>
</svg>

<style type='text/css'>
<![CDATA[
[data-mouse-over-selected='false'] { opacity: 0.7; }
[data-mouse-over-selected='true']  { opacity: 1.0; }
]]>
</style>
<script type="application/ecmascript"><![CDATA[
document.addEventListener('DOMContentLoaded', (event) => {
  highlightEdges();
  highlightAdjacentNodes();
});
]]></script>
</svg>
