<?xml version="1.0" encoding="UTF-8" standalone="no"?>
<!DOCTYPE svg PUBLIC "-//W3C//DTD SVG 1.1//EN"
 "http://www.w3.org/Graphics/SVG/1.1/DTD/svg11.dtd">
<!-- Generated by graphviz version 12.2.1 (20241206.2353)
 -->
<!-- Title: operationTypeToString Pages: 1 -->
<!--zoomable 218 -->

<svg id="main" version="1.1" xmlns="http://www.w3.org/2000/svg" xmlns:xlink="http://www.w3.org/1999/xlink" xml:space="preserve" onload="init(evt)">

<style type="text/css"><![CDATA[
.node, .edge {opacity: 0.7;}
.node.selected, .edge.selected {opacity: 1;}
.edge:hover path { stroke: red; }
.edge:hover polygon { stroke: red; fill: red; }
]]></style>

<defs>
  <circle id="rim" cx="0" cy="0" r="7"/>
  <circle id="rim2" cx="0" cy="0" r="3.5"/>
  <g id="zoomPlus">
    <use xlink:href="#rim" fill="#404040"><set attributeName="fill" to="#808080" begin="zoomplus.mouseover" end="zoomplus.mouseout"/></use>
    <path d="M-4,0h8M0,-4v8" fill="none" stroke="white" stroke-width="1.5" pointer-events="none"/>
  </g>
  <g id="zoomMin">
    <use xlink:href="#rim" fill="#404040"><set attributeName="fill" to="#808080" begin="zoomminus.mouseover" end="zoomminus.mouseout"/></use>
    <path d="M-4,0h8" fill="none" stroke="white" stroke-width="1.5" pointer-events="none"/>
  </g>
  <g id="arrowUp" transform="translate(30 24)">
    <use xlink:href="#rim"/>
    <path pointer-events="none" fill="none" stroke="white" stroke-width="1.5" d="M0,-3.0v7 M-2.5,-0.5L0,-3.0L2.5,-0.5"/>
  </g>
  <g id="arrowRight" transform="rotate(90) translate(36 -43)">
    <use xlink:href="#rim"/>
    <path pointer-events="none" fill="none" stroke="white" stroke-width="1.5" d="M0,-3.0v7 M-2.5,-0.5L0,-3.0L2.5,-0.5"/>
  </g>
  <g id="arrowDown" transform="rotate(180) translate(-30 -48)">
    <use xlink:href="#rim"/>
    <path pointer-events="none" fill="none" stroke="white" stroke-width="1.5" d="M0,-3.0v7 M-2.5,-0.5L0,-3.0L2.5,-0.5"/>
  </g>
  <g id="arrowLeft" transform="rotate(270) translate(-36 17)">
    <use xlink:href="#rim"/>
    <path pointer-events="none" fill="none" stroke="white" stroke-width="1.5" d="M0,-3.0v7 M-2.5,-0.5L0,-3.0L2.5,-0.5"/>
  </g>
  <g id="resetDef">
    <use xlink:href="#rim2" fill="#404040"><set attributeName="fill" to="#808080" begin="reset.mouseover" end="reset.mouseout"/></use>
  </g>
</defs>
<script type="application/ecmascript">
var viewWidth = 836;
var viewHeight = 218;
var sectionId = 'dynsection-2';
</script>
<script type="application/ecmascript" xlink:href="svg.min.js"/>
<svg id="graph" class="graph">
<g id="viewport">
<title>operationTypeToString</title>
<!-- Node1 -->
<g id="Node000001" class="node">
<title>Node1</title>
<g id="a_Node000001"><a xlink:title="Converts an OperationType to a string.">
<polygon fill="#999999" stroke="#666666" points="828.25,-115 715.5,-115 715.5,-95 828.25,-95 828.25,-115"/>
<text text-anchor="middle" x="771.88" y="-101.5" font-family="Helvetica,sans-Serif" font-size="10.00">operationTypeToString</text>
</a>
</g>
</g>
<!-- Node2 -->
<g id="Node000002" class="node">
<title>Node2</title>
<g id="a_Node000002"><a xlink:href="frame_8cpp.html#ab53898fb6f45dfc657837a665a070959" target="_top" xlink:title="Encodes a Frame instance into a string.">
<polygon fill="white" stroke="#666666" points="679.5,-115 604.25,-115 604.25,-95 679.5,-95 679.5,-115"/>
<text text-anchor="middle" x="641.88" y="-101.5" font-family="Helvetica,sans-Serif" font-size="10.00">encodeFrame</text>
</a>
</g>
</g>
<!-- Node1&#45;&gt;Node2 -->
<g id="edge1_Node000001_Node000002" class="edge">
<title>Node1&#45;&gt;Node2</title>
<g id="a_edge1_Node000001_Node000002"><a xlink:title=" ">
<path fill="none" stroke="#63b8ff" d="M703.8,-105C695.5,-105 687.27,-105 679.68,-105"/>
<polygon fill="#63b8ff" stroke="#63b8ff" points="703.59,-108.5 713.59,-105 703.59,-101.5 703.59,-108.5"/>
</a>
</g>
</g>
<!-- Node3 -->
<g id="Node000003" class="node">
<title>Node3</title>
<g id="a_Node000003"><a xlink:href="send_8cpp.html#a752e7cc27f52d4ba064e691b3e240ed8" target="_top" xlink:title="Sends a Frame using LoRa.">
<polygon fill="white" stroke="#666666" points="568.25,-115 503.5,-115 503.5,-95 568.25,-95 568.25,-115"/>
<text text-anchor="middle" x="535.88" y="-101.5" font-family="Helvetica,sans-Serif" font-size="10.00">sendFrame</text>
</a>
</g>
</g>
<!-- Node2&#45;&gt;Node3 -->
<g id="edge2_Node000002_Node000003" class="edge">
<title>Node2&#45;&gt;Node3</title>
<g id="a_edge2_Node000002_Node000003"><a xlink:title=" ">
<path fill="none" stroke="#63b8ff" d="M592.56,-105C584.41,-105 576.14,-105 568.55,-105"/>
<polygon fill="#63b8ff" stroke="#63b8ff" points="592.4,-108.5 602.4,-105 592.4,-101.5 592.4,-108.5"/>
</a>
</g>
</g>
<!-- Node4 -->
<g id="Node000004" class="node">
<title>Node4</title>
<g id="a_Node000004"><a xlink:href="frame_8cpp.html#a8f34bc31494430539db21206f084d39d" target="_top" xlink:title="Converts a string into a Frame instance.">
<polygon fill="white" stroke="#666666" points="436,-210 360.75,-210 360.75,-190 436,-190 436,-210"/>
<text text-anchor="middle" x="398.38" y="-196.5" font-family="Helvetica,sans-Serif" font-size="10.00">decodeFrame</text>
</a>
</g>
</g>
<!-- Node3&#45;&gt;Node4 -->
<g id="edge3_Node000003_Node000004" class="edge">
<title>Node3&#45;&gt;Node4</title>
<g id="a_edge3_Node000003_Node000004"><a xlink:title=" ">
<path fill="none" stroke="#63b8ff" d="M520.76,-124.34C508.32,-140.17 488.87,-162.14 467.5,-176 458.03,-182.14 446.8,-186.93 436.21,-190.56"/>
<polygon fill="#63b8ff" stroke="#63b8ff" points="523.37,-126.69 526.64,-116.61 517.8,-122.45 523.37,-126.69"/>
</a>
</g>
</g>
<!-- Node5 -->
<g id="Node000005" class="node">
<title>Node5</title>
<g id="a_Node000005"><a xlink:href="frame_8cpp.html#a8b9407b2f579031cf4b705f1ac03ac31" target="_top" xlink:title="Executes a command based on the command key and the parameter.">
<polygon fill="white" stroke="#666666" points="293.25,-191 194,-191 194,-171 293.25,-171 293.25,-191"/>
<text text-anchor="middle" x="243.62" y="-177.5" font-family="Helvetica,sans-Serif" font-size="10.00">processFrameData</text>
</a>
</g>
</g>
<!-- Node3&#45;&gt;Node5 -->
<g id="edge13_Node000003_Node000005" class="edge">
<title>Node3&#45;&gt;Node5</title>
<g id="a_edge13_Node000003_Node000005"><a xlink:title=" ">
<path fill="none" stroke="#63b8ff" d="M506.72,-120.87C494.9,-126.97 480.83,-133.54 467.5,-138 409.2,-157.51 339.19,-169.21 293.39,-175.38"/>
<polygon fill="#63b8ff" stroke="#63b8ff" points="508.33,-123.97 515.51,-116.18 505.04,-117.79 508.33,-123.97"/>
</a>
</g>
</g>
<!-- Node7 -->
<g id="Node000007" class="node">
<title>Node7</title>
<g id="a_Node000007"><a xlink:href="main_8cpp.html#ae66f6b31b5ad750f1fe042a706a4e3d4" target="_top" xlink:title=" ">
<polygon fill="white" stroke="#666666" points="37,-153 0,-153 0,-133 37,-133 37,-153"/>
<text text-anchor="middle" x="18.5" y="-139.5" font-family="Helvetica,sans-Serif" font-size="10.00">main</text>
</a>
</g>
</g>
<!-- Node3&#45;&gt;Node7 -->
<g id="edge12_Node000003_Node000007" class="edge">
<title>Node3&#45;&gt;Node7</title>
<g id="a_edge12_Node000003_Node000007"><a xlink:title=" ">
<path fill="none" stroke="#63b8ff" d="M491.71,-108.18C384.61,-116.08 110.14,-136.32 37.41,-141.68"/>
<polygon fill="#63b8ff" stroke="#63b8ff" points="491.8,-111.69 501.52,-107.46 491.29,-104.7 491.8,-111.69"/>
</a>
</g>
</g>
<!-- Node9 -->
<g id="Node000009" class="node">
<title>Node9</title>
<g id="a_Node000009"><a xlink:href="group___diagnostic_commands.html#ga3a6c6092cd01fd9c13ab429f4a34326d" target="_top" xlink:title="Reboot system to USB firmware loader.">
<polygon fill="white" stroke="#666666" points="467.5,-96 329.25,-96 329.25,-76 467.5,-76 467.5,-96"/>
<text text-anchor="middle" x="398.38" y="-82.5" font-family="Helvetica,sans-Serif" font-size="10.00">handleEnterBootloaderMode</text>
</a>
</g>
</g>
<!-- Node3&#45;&gt;Node9 -->
<g id="edge9_Node000003_Node000009" class="edge">
<title>Node3&#45;&gt;Node9</title>
<g id="a_edge9_Node000003_Node000009"><a xlink:title=" ">
<path fill="none" stroke="#63b8ff" d="M491.88,-98.97C484.2,-97.89 476.02,-96.75 467.83,-95.6"/>
<polygon fill="#63b8ff" stroke="#63b8ff" points="491.22,-102.41 501.61,-100.34 492.19,-95.48 491.22,-102.41"/>
</a>
</g>
</g>
<!-- Node10 -->
<g id="Node000010" class="node">
<title>Node10</title>
<g id="a_Node000010"><a xlink:href="main_8cpp.html#a21af2d50d7779336997d5f3456352431" target="_top" xlink:title=" ">
<polygon fill="white" stroke="#666666" points="277.5,-77 209.75,-77 209.75,-57 277.5,-57 277.5,-77"/>
<text text-anchor="middle" x="243.62" y="-63.5" font-family="Helvetica,sans-Serif" font-size="10.00">initSystems</text>
</a>
</g>
</g>
<!-- Node3&#45;&gt;Node10 -->
<g id="edge10_Node000003_Node000010" class="edge">
<title>Node3&#45;&gt;Node10</title>
<g id="a_edge10_Node000003_Node000010"><a xlink:title=" ">
<path fill="none" stroke="#63b8ff" d="M512.18,-88.3C499.68,-80.14 483.49,-71.2 467.5,-67 402.01,-49.8 321.91,-56.12 277.77,-61.84"/>
<polygon fill="#63b8ff" stroke="#63b8ff" points="509.86,-90.96 520.09,-93.72 513.81,-85.18 509.86,-90.96"/>
</a>
</g>
</g>
<!-- Node11 -->
<g id="Node000011" class="node">
<title>Node11</title>
<g id="a_Node000011"><a xlink:href="frame_8cpp.html#a6005ddd6320bebe2a680fa6b8efff6dd" target="_top" xlink:title="Sends the event register value to the ground station.">
<polygon fill="white" stroke="#666666" points="448,-20 348.75,-20 348.75,0 448,0 448,-20"/>
<text text-anchor="middle" x="398.38" y="-6.5" font-family="Helvetica,sans-Serif" font-size="10.00">sendEventRegister</text>
</a>
</g>
</g>
<!-- Node3&#45;&gt;Node11 -->
<g id="edge14_Node000003_Node000011" class="edge">
<title>Node3&#45;&gt;Node11</title>
<g id="a_edge14_Node000003_Node000011"><a xlink:title=" ">
<path fill="none" stroke="#63b8ff" d="M520.76,-85.66C508.32,-69.83 488.87,-47.86 467.5,-34 458.87,-28.41 448.78,-23.93 439.05,-20.44"/>
<polygon fill="#63b8ff" stroke="#63b8ff" points="517.8,-87.55 526.64,-93.39 523.37,-83.31 517.8,-87.55"/>
</a>
</g>
</g>
<!-- Node4&#45;&gt;Node5 -->
<g id="edge4_Node000004_Node000005" class="edge">
<title>Node4&#45;&gt;Node5</title>
<g id="a_edge4_Node000004_Node000005"><a xlink:title=" ">
<path fill="none" stroke="#63b8ff" d="M349.16,-194C331.47,-191.8 311.44,-189.31 293.68,-187.1"/>
<polygon fill="#63b8ff" stroke="#63b8ff" points="348.54,-197.45 358.9,-195.21 349.41,-190.51 348.54,-197.45"/>
</a>
</g>
</g>
<!-- Node6 -->
<g id="Node000006" class="node">
<title>Node6</title>
<g id="a_Node000006"><a xlink:href="receive_8cpp.html#ac5e175a6a1482f700f9aee0b727b924f" target="_top" xlink:title="Handles UART input.">
<polygon fill="white" stroke="#666666" points="158,-210 73,-210 73,-190 158,-190 158,-210"/>
<text text-anchor="middle" x="115.5" y="-196.5" font-family="Helvetica,sans-Serif" font-size="10.00">handleUartInput</text>
</a>
</g>
</g>
<!-- Node5&#45;&gt;Node6 -->
<g id="edge5_Node000005_Node000006" class="edge">
<title>Node5&#45;&gt;Node6</title>
<g id="a_edge5_Node000005_Node000006"><a xlink:title=" ">
<path fill="none" stroke="#63b8ff" d="M182.19,-190.1C174.12,-191.32 165.99,-192.54 158.33,-193.7"/>
<polygon fill="#63b8ff" stroke="#63b8ff" points="182.64,-193.58 192,-188.63 181.59,-186.65 182.64,-193.58"/>
</a>
</g>
</g>
<!-- Node8 -->
<g id="Node000008" class="node">
<title>Node8</title>
<g id="a_Node000008"><a xlink:href="receive_8cpp.html#a54817002e33761dc61558b1138749dfb" target="_top" xlink:title="Callback function for handling received LoRa packets.">
<polygon fill="white" stroke="#666666" points="146.75,-172 84.25,-172 84.25,-152 146.75,-152 146.75,-172"/>
<text text-anchor="middle" x="115.5" y="-158.5" font-family="Helvetica,sans-Serif" font-size="10.00">onReceive</text>
</a>
</g>
</g>
<!-- Node5&#45;&gt;Node8 -->
<g id="edge7_Node000005_Node000008" class="edge">
<title>Node5&#45;&gt;Node8</title>
<g id="a_edge7_Node000005_Node000008"><a xlink:title=" ">
<path fill="none" stroke="#63b8ff" d="M182.36,-171.92C170.14,-170.08 157.77,-168.22 147.1,-166.61"/>
<polygon fill="#63b8ff" stroke="#63b8ff" points="181.59,-175.35 192,-173.37 182.64,-168.42 181.59,-175.35"/>
</a>
</g>
</g>
<!-- Node6&#45;&gt;Node7 -->
<g id="edge6_Node000006_Node000007" class="edge">
<title>Node6&#45;&gt;Node7</title>
<g id="a_edge6_Node000006_Node000007"><a xlink:title=" ">
<path fill="none" stroke="#63b8ff" d="M79.76,-184.69C77.45,-183.49 75.17,-182.26 73,-181 58.59,-172.69 43.22,-161.49 32.67,-153.41"/>
<polygon fill="#63b8ff" stroke="#63b8ff" points="78.1,-187.77 88.62,-189.03 81.18,-181.49 78.1,-187.77"/>
</a>
</g>
</g>
<!-- Node8&#45;&gt;Node7 -->
<g id="edge8_Node000008_Node000007" class="edge">
<title>Node8&#45;&gt;Node7</title>
<g id="a_edge8_Node000008_Node000007"><a xlink:title=" ">
<path fill="none" stroke="#63b8ff" d="M72.74,-153.65C60.29,-151.16 47.31,-148.56 37.28,-146.56"/>
<polygon fill="#63b8ff" stroke="#63b8ff" points="71.94,-157.06 82.43,-155.59 73.31,-150.19 71.94,-157.06"/>
</a>
</g>
</g>
<!-- Node10&#45;&gt;Node7 -->
<g id="edge11_Node000010_Node000007" class="edge">
<title>Node10&#45;&gt;Node7</title>
<g id="a_edge11_Node000010_Node000007"><a xlink:title=" ">
<path fill="none" stroke="#63b8ff" d="M198.21,-74.42C163.27,-81.15 113.84,-92.71 73,-110 58.73,-116.04 43.83,-125.53 33.39,-132.79"/>
<polygon fill="#63b8ff" stroke="#63b8ff" points="198.79,-77.87 207.98,-72.59 197.5,-70.99 198.79,-77.87"/>
</a>
</g>
</g>
</g>
</svg>

<g id="navigator" transform="translate(0 0)" fill="#404254">
  <rect fill="#f2f5e9" fill-opacity="0.5" stroke="#606060" stroke-width=".5" x="0" y="0" width="60" height="60"/>
  <use id="zoomplus" xlink:href="#zoomPlus" x="17" y="9" onmousedown="handleZoom(evt,'in')"/>
  <use id="zoomminus" xlink:href="#zoomMin" x="42" y="9" onmousedown="handleZoom(evt,'out')"/>
  <use id="reset" xlink:href="#resetDef" x="30" y="36" onmousedown="handleReset()"/>
   <use id="arrowup" xlink:href="#arrowUp" x="0" y="0" onmousedown="handlePan(0,-1)"/>
  <use id="arrowright" xlink:href="#arrowRight" x="0" y="0" onmousedown="handlePan(1,0)"/>
  <use id="arrowdown" xlink:href="#arrowDown" x="0" y="0" onmousedown="handlePan(0,1)"/>
  <use id="arrowleft" xlink:href="#arrowLeft" x="0" y="0" onmousedown="handlePan(-1,0)"/>
</g>
<svg viewBox="0 0 15 15" width="100%" height="30px" preserveAspectRatio="xMaxYMin meet">
 <g id="arrow_out" transform="scale(0.3 0.3)">
  <a xlink:href="protocol_8h_a82a11ce999902359454fa904a13ae297_icgraph_org.svg" target="_base">
   <rect id="button" ry="5" rx="5" y="6" x="6" height="38" width="38"
        fill="#f2f5e9" fill-opacity="0.5" stroke="#606060" stroke-width="1.0"/>
   <path id="arrow"
     d="M 11.500037,31.436501 C 11.940474,20.09759 22.043105,11.32322 32.158766,21.979434 L 37.068811,17.246167 C 37.068811,17.246167 37.088388,32 37.088388,32 L 22.160133,31.978069 C 22.160133,31.978069 26.997745,27.140456 26.997745,27.140456 C 18.528582,18.264221 13.291696,25.230495 11.500037,31.436501 z"
     style="fill:#404040;"/>
  </a>
 </g>
</svg>

<style type='text/css'>
<![CDATA[
[data-mouse-over-selected='false'] { opacity: 0.7; }
[data-mouse-over-selected='true']  { opacity: 1.0; }
]]>
</style>
<script type="application/ecmascript"><![CDATA[
document.addEventListener('DOMContentLoaded', (event) => {
  highlightEdges();
  highlightAdjacentNodes();
});
]]></script>
</svg>
