<?xml version="1.0" encoding="UTF-8" standalone="no"?>
<!DOCTYPE svg PUBLIC "-//W3C//DTD SVG 1.1//EN"
 "http://www.w3.org/Graphics/SVG/1.1/DTD/svg11.dtd">
<!-- Generated by graphviz version 12.2.1 (20241206.2353)
 -->
<!-- Title: lib/comms/protocol.h Pages: 1 -->
<svg width="1716pt" height="220pt"
 viewBox="0.00 0.00 1716.38 220.00" xmlns="http://www.w3.org/2000/svg" xmlns:xlink="http://www.w3.org/1999/xlink">
<g id="graph0" class="graph" transform="scale(1 1) rotate(0) translate(4 216)">
<title>lib/comms/protocol.h</title>
<!-- Node1 -->
<g id="Node000001" class="node">
<title>Node1</title>
<g id="a_Node000001"><a xlink:title=" ">
<polygon fill="#999999" stroke="#666666" points="556.5,-212 449.75,-212 449.75,-192 556.5,-192 556.5,-212"/>
<text text-anchor="middle" x="503.12" y="-198.5" font-family="Helvetica,sans-Serif" font-size="10.00">lib/comms/protocol.h</text>
</a>
</g>
</g>
<!-- Node2 -->
<g id="Node000002" class="node">
<title>Node2</title>
<g id="a_Node000002"><a xlink:href="includes_8h.html" target="_top" xlink:title=" ">
<polygon fill="white" stroke="#666666" points="60.25,-82 0,-82 0,-62 60.25,-62 60.25,-82"/>
<text text-anchor="middle" x="30.12" y="-68.5" font-family="Helvetica,sans-Serif" font-size="10.00">includes.h</text>
</a>
</g>
</g>
<!-- Node1&#45;&gt;Node2 -->
<g id="edge1_Node000001_Node000002" class="edge">
<title>Node1&#45;&gt;Node2</title>
<g id="a_edge1_Node000001_Node000002"><a xlink:title=" ">
<path fill="none" stroke="#63b8ff" d="M438.27,-195.16C380.88,-188.92 295.26,-176.96 223.12,-156 156.05,-136.51 81.33,-99.74 47.93,-82.44"/>
<polygon fill="#63b8ff" stroke="#63b8ff" points="437.55,-198.61 447.86,-196.18 438.28,-191.64 437.55,-198.61"/>
</a>
</g>
</g>
<!-- Node4 -->
<g id="Node000004" class="node">
<title>Node4</title>
<g id="a_Node000004"><a xlink:href="commands_8h.html" target="_top" xlink:title=" ">
<polygon fill="white" stroke="#666666" points="344.12,-156 232.12,-156 232.12,-124 344.12,-124 344.12,-156"/>
<text text-anchor="start" x="240.12" y="-142.5" font-family="Helvetica,sans-Serif" font-size="10.00">lib/comms/commands</text>
<text text-anchor="middle" x="288.12" y="-130.5" font-family="Helvetica,sans-Serif" font-size="10.00">/commands.h</text>
</a>
</g>
</g>
<!-- Node1&#45;&gt;Node4 -->
<g id="edge3_Node000001_Node000004" class="edge">
<title>Node1&#45;&gt;Node4</title>
<g id="a_edge3_Node000001_Node000004"><a xlink:title=" ">
<path fill="none" stroke="#63b8ff" d="M458.73,-188.61C425.36,-179.3 379.43,-166.48 343.63,-156.49"/>
<polygon fill="#63b8ff" stroke="#63b8ff" points="457.5,-191.9 468.07,-191.22 459.38,-185.16 457.5,-191.9"/>
</a>
</g>
</g>
<!-- Node7 -->
<g id="Node000007" class="node">
<title>Node7</title>
<g id="a_Node000007"><a xlink:href="communication_8h.html" target="_top" xlink:title=" ">
<polygon fill="white" stroke="#666666" points="851.25,-150 713,-150 713,-130 851.25,-130 851.25,-150"/>
<text text-anchor="middle" x="782.12" y="-136.5" font-family="Helvetica,sans-Serif" font-size="10.00">lib/comms/communication.h</text>
</a>
</g>
</g>
<!-- Node1&#45;&gt;Node7 -->
<g id="edge6_Node000001_Node000007" class="edge">
<title>Node1&#45;&gt;Node7</title>
<g id="a_edge6_Node000001_Node000007"><a xlink:title=" ">
<path fill="none" stroke="#63b8ff" d="M558.19,-189.16C610.87,-177.83 689.33,-160.96 738.02,-150.48"/>
<polygon fill="#63b8ff" stroke="#63b8ff" points="557.55,-185.72 548.51,-191.24 559.02,-192.56 557.55,-185.72"/>
</a>
</g>
</g>
<!-- Node17 -->
<g id="Node000017" class="node">
<title>Node17</title>
<g id="a_Node000017"><a xlink:href="event__manager_8cpp.html" target="_top" xlink:title="Implements the event management system for the Kubisat firmware.">
<polygon fill="white" stroke="#666666" points="1708.38,-88 1609.88,-88 1609.88,-56 1708.38,-56 1708.38,-88"/>
<text text-anchor="start" x="1617.88" y="-74.5" font-family="Helvetica,sans-Serif" font-size="10.00">lib/eventman/event</text>
<text text-anchor="middle" x="1659.12" y="-62.5" font-family="Helvetica,sans-Serif" font-size="10.00">_manager.cpp</text>
</a>
</g>
</g>
<!-- Node1&#45;&gt;Node17 -->
<g id="edge20_Node000001_Node000017" class="edge">
<title>Node1&#45;&gt;Node17</title>
<g id="a_edge20_Node000001_Node000017"><a xlink:title=" ">
<path fill="none" stroke="#63b8ff" d="M568.22,-197.73C738.86,-188.41 1212.79,-157.79 1601.12,-88 1603.89,-87.5 1606.72,-86.94 1609.56,-86.34"/>
<polygon fill="#63b8ff" stroke="#63b8ff" points="568.25,-194.22 558.45,-198.26 568.63,-201.21 568.25,-194.22"/>
</a>
</g>
</g>
<!-- Node3 -->
<g id="Node000003" class="node">
<title>Node3</title>
<g id="a_Node000003"><a xlink:href="main_8cpp.html" target="_top" xlink:title=" ">
<polygon fill="white" stroke="#666666" points="58,-20 2.25,-20 2.25,0 58,0 58,-20"/>
<text text-anchor="middle" x="30.12" y="-6.5" font-family="Helvetica,sans-Serif" font-size="10.00">main.cpp</text>
</a>
</g>
</g>
<!-- Node2&#45;&gt;Node3 -->
<g id="edge2_Node000002_Node000003" class="edge">
<title>Node2&#45;&gt;Node3</title>
<g id="a_edge2_Node000002_Node000003"><a xlink:title=" ">
<path fill="none" stroke="#63b8ff" d="M30.12,-50.25C30.12,-39.97 30.12,-28.09 30.12,-20.11"/>
<polygon fill="#63b8ff" stroke="#63b8ff" points="26.63,-50.11 30.13,-60.11 33.63,-50.11 26.63,-50.11"/>
</a>
</g>
</g>
<!-- Node5 -->
<g id="Node000005" class="node">
<title>Node5</title>
<g id="a_Node000005"><a xlink:href="commands_8cpp.html" target="_top" xlink:title=" ">
<polygon fill="white" stroke="#666666" points="344.12,-88 232.12,-88 232.12,-56 344.12,-56 344.12,-88"/>
<text text-anchor="start" x="240.12" y="-74.5" font-family="Helvetica,sans-Serif" font-size="10.00">lib/comms/commands</text>
<text text-anchor="middle" x="288.12" y="-62.5" font-family="Helvetica,sans-Serif" font-size="10.00">/commands.cpp</text>
</a>
</g>
</g>
<!-- Node4&#45;&gt;Node5 -->
<g id="edge4_Node000004_Node000005" class="edge">
<title>Node4&#45;&gt;Node5</title>
<g id="a_edge4_Node000004_Node000005"><a xlink:title=" ">
<path fill="none" stroke="#63b8ff" d="M288.12,-112.31C288.12,-104.12 288.12,-95.38 288.12,-88.22"/>
<polygon fill="#63b8ff" stroke="#63b8ff" points="284.63,-112.18 288.13,-122.18 291.63,-112.18 284.63,-112.18"/>
</a>
</g>
</g>
<!-- Node6 -->
<g id="Node000006" class="node">
<title>Node6</title>
<g id="a_Node000006"><a xlink:href="diagnostic__commands_8cpp.html" target="_top" xlink:title=" ">
<polygon fill="white" stroke="#666666" points="213.75,-88 78.5,-88 78.5,-56 213.75,-56 213.75,-88"/>
<text text-anchor="start" x="86.5" y="-74.5" font-family="Helvetica,sans-Serif" font-size="10.00">lib/comms/commands</text>
<text text-anchor="middle" x="146.12" y="-62.5" font-family="Helvetica,sans-Serif" font-size="10.00">/diagnostic_commands.cpp</text>
</a>
</g>
</g>
<!-- Node4&#45;&gt;Node6 -->
<g id="edge5_Node000004_Node000006" class="edge">
<title>Node4&#45;&gt;Node6</title>
<g id="a_edge5_Node000004_Node000006"><a xlink:title=" ">
<path fill="none" stroke="#63b8ff" d="M244.54,-118.74C223.5,-108.96 198.67,-97.42 179.21,-88.38"/>
<polygon fill="#63b8ff" stroke="#63b8ff" points="242.92,-121.85 253.46,-122.89 245.87,-115.5 242.92,-121.85"/>
</a>
</g>
</g>
<!-- Node7&#45;&gt;Node2 -->
<g id="edge7_Node000007_Node000002" class="edge">
<title>Node7&#45;&gt;Node2</title>
<g id="a_edge7_Node000007_Node000002"><a xlink:title=" ">
<path fill="none" stroke="#63b8ff" d="M701.46,-136.23C541.11,-130.23 187.56,-114.4 69.12,-88 63.18,-86.67 56.93,-84.6 51.23,-82.42"/>
<polygon fill="#63b8ff" stroke="#63b8ff" points="701.03,-139.71 711.15,-136.59 701.29,-132.72 701.03,-139.71"/>
</a>
</g>
</g>
<!-- Node7&#45;&gt;Node5 -->
<g id="edge9_Node000007_Node000005" class="edge">
<title>Node7&#45;&gt;Node5</title>
<g id="a_edge9_Node000007_Node000005"><a xlink:title=" ">
<path fill="none" stroke="#63b8ff" d="M701.37,-132.04C614.85,-123.96 473.69,-109.01 353.12,-88 350.27,-87.5 347.36,-86.96 344.42,-86.38"/>
<polygon fill="#63b8ff" stroke="#63b8ff" points="700.9,-135.51 711.18,-132.94 701.55,-128.54 700.9,-135.51"/>
</a>
</g>
</g>
<!-- Node7&#45;&gt;Node6 -->
<g id="edge10_Node000007_Node000006" class="edge">
<title>Node7&#45;&gt;Node6</title>
<g id="a_edge10_Node000007_Node000006"><a xlink:title=" ">
<path fill="none" stroke="#63b8ff" d="M701.36,-134.21C592.41,-127.16 392.48,-112.16 223.12,-88 220.16,-87.58 217.13,-87.12 214.08,-86.63"/>
<polygon fill="#63b8ff" stroke="#63b8ff" points="700.87,-137.69 711.07,-134.83 701.31,-130.7 700.87,-137.69"/>
</a>
</g>
</g>
<!-- Node8 -->
<g id="Node000008" class="node">
<title>Node8</title>
<g id="a_Node000008"><a xlink:href="clock__commands_8cpp.html" target="_top" xlink:title=" ">
<polygon fill="white" stroke="#666666" points="1328.25,-88 1214,-88 1214,-56 1328.25,-56 1328.25,-88"/>
<text text-anchor="start" x="1222" y="-74.5" font-family="Helvetica,sans-Serif" font-size="10.00">lib/comms/commands</text>
<text text-anchor="middle" x="1271.12" y="-62.5" font-family="Helvetica,sans-Serif" font-size="10.00">/clock_commands.cpp</text>
</a>
</g>
</g>
<!-- Node7&#45;&gt;Node8 -->
<g id="edge8_Node000007_Node000008" class="edge">
<title>Node7&#45;&gt;Node8</title>
<g id="a_edge8_Node000007_Node000008"><a xlink:title=" ">
<path fill="none" stroke="#63b8ff" d="M863.12,-131.75C948.53,-123.52 1086.85,-108.51 1205.12,-88 1207.9,-87.52 1210.74,-86.99 1213.6,-86.44"/>
<polygon fill="#63b8ff" stroke="#63b8ff" points="862.82,-128.26 853.19,-132.7 863.48,-135.23 862.82,-128.26"/>
</a>
</g>
</g>
<!-- Node9 -->
<g id="Node000009" class="node">
<title>Node9</title>
<g id="a_Node000009"><a xlink:href="event__commands_8cpp.html" target="_top" xlink:title=" ">
<polygon fill="white" stroke="#666666" points="1461.62,-88 1346.62,-88 1346.62,-56 1461.62,-56 1461.62,-88"/>
<text text-anchor="start" x="1354.62" y="-74.5" font-family="Helvetica,sans-Serif" font-size="10.00">lib/comms/commands</text>
<text text-anchor="middle" x="1404.12" y="-62.5" font-family="Helvetica,sans-Serif" font-size="10.00">/event_commands.cpp</text>
</a>
</g>
</g>
<!-- Node7&#45;&gt;Node9 -->
<g id="edge11_Node000007_Node000009" class="edge">
<title>Node7&#45;&gt;Node9</title>
<g id="a_edge11_Node000007_Node000009"><a xlink:title=" ">
<path fill="none" stroke="#63b8ff" d="M863.19,-134.83C971.65,-128.49 1169.74,-114.32 1337.12,-88 1340.19,-87.52 1343.32,-86.98 1346.47,-86.4"/>
<polygon fill="#63b8ff" stroke="#63b8ff" points="862.99,-131.33 853.21,-135.4 863.39,-138.32 862.99,-131.33"/>
</a>
</g>
</g>
<!-- Node10 -->
<g id="Node000010" class="node">
<title>Node10</title>
<g id="a_Node000010"><a xlink:href="gps__commands_8cpp.html" target="_top" xlink:title=" ">
<polygon fill="white" stroke="#666666" points="1592.12,-88 1480.12,-88 1480.12,-56 1592.12,-56 1592.12,-88"/>
<text text-anchor="start" x="1488.12" y="-74.5" font-family="Helvetica,sans-Serif" font-size="10.00">lib/comms/commands</text>
<text text-anchor="middle" x="1536.12" y="-62.5" font-family="Helvetica,sans-Serif" font-size="10.00">/gps_commands.cpp</text>
</a>
</g>
</g>
<!-- Node7&#45;&gt;Node10 -->
<g id="edge12_Node000007_Node000010" class="edge">
<title>Node7&#45;&gt;Node10</title>
<g id="a_edge12_Node000007_Node000010"><a xlink:title=" ">
<path fill="none" stroke="#63b8ff" d="M862.79,-137.02C991.9,-132.97 1252.69,-121.09 1471.12,-88 1473.99,-87.57 1476.91,-87.07 1479.86,-86.54"/>
<polygon fill="#63b8ff" stroke="#63b8ff" points="862.86,-133.52 852.97,-137.32 863.08,-140.52 862.86,-133.52"/>
</a>
</g>
</g>
<!-- Node11 -->
<g id="Node000011" class="node">
<title>Node11</title>
<g id="a_Node000011"><a xlink:href="power__commands_8cpp.html" target="_top" xlink:title=" ">
<polygon fill="white" stroke="#666666" points="479.75,-88 362.5,-88 362.5,-56 479.75,-56 479.75,-88"/>
<text text-anchor="start" x="370.5" y="-74.5" font-family="Helvetica,sans-Serif" font-size="10.00">lib/comms/commands</text>
<text text-anchor="middle" x="421.12" y="-62.5" font-family="Helvetica,sans-Serif" font-size="10.00">/power_commands.cpp</text>
</a>
</g>
</g>
<!-- Node7&#45;&gt;Node11 -->
<g id="edge13_Node000007_Node000011" class="edge">
<title>Node7&#45;&gt;Node11</title>
<g id="a_edge13_Node000007_Node000011"><a xlink:title=" ">
<path fill="none" stroke="#63b8ff" d="M711.92,-127.69C652.46,-117.89 565.03,-102.97 489.12,-88 486.16,-87.42 483.13,-86.8 480.06,-86.17"/>
<polygon fill="#63b8ff" stroke="#63b8ff" points="711.13,-131.1 721.56,-129.27 712.26,-124.2 711.13,-131.1"/>
</a>
</g>
</g>
<!-- Node12 -->
<g id="Node000012" class="node">
<title>Node12</title>
<g id="a_Node000012"><a xlink:href="communication_8cpp.html" target="_top" xlink:title=" ">
<polygon fill="white" stroke="#666666" points="646.5,-82 497.75,-82 497.75,-62 646.5,-62 646.5,-82"/>
<text text-anchor="middle" x="572.12" y="-68.5" font-family="Helvetica,sans-Serif" font-size="10.00">lib/comms/communication.cpp</text>
</a>
</g>
</g>
<!-- Node7&#45;&gt;Node12 -->
<g id="edge14_Node000007_Node000012" class="edge">
<title>Node7&#45;&gt;Node12</title>
<g id="a_edge14_Node000007_Node000012"><a xlink:title=" ">
<path fill="none" stroke="#63b8ff" d="M741.12,-126.11C700.3,-113.28 638.62,-93.9 602.16,-82.44"/>
<polygon fill="#63b8ff" stroke="#63b8ff" points="740,-129.43 750.59,-129.09 742.1,-122.75 740,-129.43"/>
</a>
</g>
</g>
<!-- Node13 -->
<g id="Node000013" class="node">
<title>Node13</title>
<g id="a_Node000013"><a xlink:href="frame_8cpp.html" target="_top" xlink:title="Implements functions for encoding, decoding, building, and processing Frames.">
<polygon fill="white" stroke="#666666" points="771.88,-82 664.38,-82 664.38,-62 771.88,-62 771.88,-82"/>
<text text-anchor="middle" x="718.12" y="-68.5" font-family="Helvetica,sans-Serif" font-size="10.00">lib/comms/frame.cpp</text>
</a>
</g>
</g>
<!-- Node7&#45;&gt;Node13 -->
<g id="edge15_Node000007_Node000013" class="edge">
<title>Node7&#45;&gt;Node13</title>
<g id="a_edge15_Node000007_Node000013"><a xlink:title=" ">
<path fill="none" stroke="#63b8ff" d="M765.26,-121.61C753.1,-109.07 737.16,-92.63 727.28,-82.44"/>
<polygon fill="#63b8ff" stroke="#63b8ff" points="762.43,-123.71 771.9,-128.46 767.45,-118.84 762.43,-123.71"/>
</a>
</g>
</g>
<!-- Node14 -->
<g id="Node000014" class="node">
<title>Node14</title>
<g id="a_Node000014"><a xlink:href="receive_8cpp.html" target="_top" xlink:title="Implements functions for receiving and processing data, including LoRa and UART input.">
<polygon fill="white" stroke="#666666" points="904.25,-82 790,-82 790,-62 904.25,-62 904.25,-82"/>
<text text-anchor="middle" x="847.12" y="-68.5" font-family="Helvetica,sans-Serif" font-size="10.00">lib/comms/receive.cpp</text>
</a>
</g>
</g>
<!-- Node7&#45;&gt;Node14 -->
<g id="edge16_Node000007_Node000014" class="edge">
<title>Node7&#45;&gt;Node14</title>
<g id="a_edge16_Node000007_Node000014"><a xlink:title=" ">
<path fill="none" stroke="#63b8ff" d="M799.25,-121.61C811.6,-109.07 827.8,-92.63 837.83,-82.44"/>
<polygon fill="#63b8ff" stroke="#63b8ff" points="797.02,-118.88 792.5,-128.47 802.01,-123.8 797.02,-118.88"/>
</a>
</g>
</g>
<!-- Node15 -->
<g id="Node000015" class="node">
<title>Node15</title>
<g id="a_Node000015"><a xlink:href="send_8cpp.html" target="_top" xlink:title="Implements functions for sending data, including LoRa messages and Frames.">
<polygon fill="white" stroke="#666666" points="1026,-82 922.25,-82 922.25,-62 1026,-62 1026,-82"/>
<text text-anchor="middle" x="974.12" y="-68.5" font-family="Helvetica,sans-Serif" font-size="10.00">lib/comms/send.cpp</text>
</a>
</g>
</g>
<!-- Node7&#45;&gt;Node15 -->
<g id="edge17_Node000007_Node000015" class="edge">
<title>Node7&#45;&gt;Node15</title>
<g id="a_edge17_Node000007_Node000015"><a xlink:title=" ">
<path fill="none" stroke="#63b8ff" d="M820.1,-125.95C857.42,-113.12 913.47,-93.85 946.67,-82.44"/>
<polygon fill="#63b8ff" stroke="#63b8ff" points="819.38,-122.49 811.07,-129.05 821.66,-129.11 819.38,-122.49"/>
</a>
</g>
</g>
<!-- Node16 -->
<g id="Node000016" class="node">
<title>Node16</title>
<g id="a_Node000016"><a xlink:href="utils__converters_8cpp.html" target="_top" xlink:title="Implements utility functions for converting between different data types.">
<polygon fill="white" stroke="#666666" points="1196,-82 1044.25,-82 1044.25,-62 1196,-62 1196,-82"/>
<text text-anchor="middle" x="1120.12" y="-68.5" font-family="Helvetica,sans-Serif" font-size="10.00">lib/comms/utils_converters.cpp</text>
</a>
</g>
</g>
<!-- Node7&#45;&gt;Node16 -->
<g id="edge18_Node000007_Node000016" class="edge">
<title>Node7&#45;&gt;Node16</title>
<g id="a_edge18_Node000007_Node000016"><a xlink:title=" ">
<path fill="none" stroke="#63b8ff" d="M841.5,-127.41C906.88,-114.64 1010.77,-94.35 1071.51,-82.49"/>
<polygon fill="#63b8ff" stroke="#63b8ff" points="841.18,-123.9 832.04,-129.25 842.52,-130.77 841.18,-123.9"/>
</a>
</g>
</g>
<!-- Node7&#45;&gt;Node17 -->
<g id="edge19_Node000007_Node000017" class="edge">
<title>Node7&#45;&gt;Node17</title>
<g id="a_edge19_Node000007_Node000017"><a xlink:title=" ">
<path fill="none" stroke="#63b8ff" d="M862.81,-139.06C1010.33,-138.04 1333.05,-130.61 1601.12,-88 1603.9,-87.56 1606.73,-87.04 1609.58,-86.48"/>
<polygon fill="#63b8ff" stroke="#63b8ff" points="863.14,-135.56 853.16,-139.12 863.18,-142.56 863.14,-135.56"/>
</a>
</g>
</g>
</g>
</svg>
