<?xml version="1.0" encoding="UTF-8" standalone="no"?>
<!DOCTYPE svg PUBLIC "-//W3C//DTD SVG 1.1//EN"
 "http://www.w3.org/Graphics/SVG/1.1/DTD/svg11.dtd">
<!-- Generated by graphviz version 12.2.1 (20241206.2353)
 -->
<!-- Title: handleUartInput Pages: 1 -->
<svg width="808pt" height="173pt"
 viewBox="0.00 0.00 808.25 172.59" xmlns="http://www.w3.org/2000/svg" xmlns:xlink="http://www.w3.org/1999/xlink">
<g id="graph0" class="graph" transform="scale(1 1) rotate(0) translate(4 168.59)">
<title>handleUartInput</title>
<!-- Node1 -->
<g id="Node000001" class="node">
<title>Node1</title>
<g id="a_Node000001"><a xlink:title="Handles UART input.">
<polygon fill="#999999" stroke="#666666" points="85,-50.59 0,-50.59 0,-30.59 85,-30.59 85,-50.59"/>
<text text-anchor="middle" x="42.5" y="-37.09" font-family="Helvetica,sans-Serif" font-size="10.00">handleUartInput</text>
</a>
</g>
</g>
<!-- Node2 -->
<g id="Node000002" class="node">
<title>Node2</title>
<g id="a_Node000002"><a xlink:href="frame_8cpp.html#a8b9407b2f579031cf4b705f1ac03ac31" target="_top" xlink:title="Executes a command based on the command key and the parameter.">
<polygon fill="white" stroke="#666666" points="220.25,-88.59 121,-88.59 121,-68.59 220.25,-68.59 220.25,-88.59"/>
<text text-anchor="middle" x="170.62" y="-75.09" font-family="Helvetica,sans-Serif" font-size="10.00">processFrameData</text>
</a>
</g>
</g>
<!-- Node1&#45;&gt;Node2 -->
<g id="edge1_Node000001_Node000002" class="edge">
<title>Node1&#45;&gt;Node2</title>
<g id="a_edge1_Node000001_Node000002"><a xlink:title=" ">
<path fill="none" stroke="#63b8ff" d="M78.3,-51.07C92.5,-55.35 109.11,-60.35 124.24,-64.91"/>
<polygon fill="#63b8ff" stroke="#63b8ff" points="122.91,-68.17 133.49,-67.7 124.93,-61.46 122.91,-68.17"/>
</a>
</g>
</g>
<!-- Node10 -->
<g id="Node000010" class="node">
<title>Node10</title>
<g id="a_Node000010"><a xlink:href="utils_8cpp.html#aacbcecbe6b5428e3571b06ab2104e706" target="_top" xlink:title="Prints a message to the UART with a timestamp and core number.">
<polygon fill="white" stroke="#666666" points="770.25,-88.59 717.5,-88.59 717.5,-68.59 770.25,-68.59 770.25,-88.59"/>
<text text-anchor="middle" x="743.88" y="-75.09" font-family="Helvetica,sans-Serif" font-size="10.00">uartPrint</text>
</a>
</g>
</g>
<!-- Node1&#45;&gt;Node10 -->
<g id="edge16_Node000001_Node000010" class="edge">
<title>Node1&#45;&gt;Node10</title>
<g id="a_edge16_Node000001_Node000010"><a xlink:title=" ">
<path fill="none" stroke="#63b8ff" d="M85.47,-30.6C136.56,-19.34 225.59,-2.59 303,-2.59 303,-2.59 303,-2.59 445.5,-2.59 537.44,-2.59 564.36,7.76 651.5,-21.59 677.66,-30.4 704.04,-48.01 721.69,-61.33"/>
<polygon fill="#63b8ff" stroke="#63b8ff" points="719.3,-63.91 729.34,-67.29 723.59,-58.38 719.3,-63.91"/>
</a>
</g>
</g>
<!-- Node3 -->
<g id="Node000003" class="node">
<title>Node3</title>
<g id="a_Node000003"><a xlink:href="frame_8cpp.html#a5f43260949ee244d3ee66068eb1d7fc1" target="_top" xlink:title="Builds a Frame instance.">
<polygon fill="white" stroke="#666666" points="476.5,-50.59 412.5,-50.59 412.5,-30.59 476.5,-30.59 476.5,-50.59"/>
<text text-anchor="middle" x="444.5" y="-37.09" font-family="Helvetica,sans-Serif" font-size="10.00">buildFrame</text>
</a>
</g>
</g>
<!-- Node2&#45;&gt;Node3 -->
<g id="edge2_Node000002_Node000003" class="edge">
<title>Node2&#45;&gt;Node3</title>
<g id="a_edge2_Node000002_Node000003"><a xlink:title=" ">
<path fill="none" stroke="#63b8ff" d="M220.72,-74.73C257.04,-71.56 307.63,-66.46 351.75,-59.59 368.05,-57.05 385.83,-53.54 401.36,-50.23"/>
<polygon fill="#63b8ff" stroke="#63b8ff" points="401.71,-53.73 410.74,-48.19 400.22,-46.89 401.71,-53.73"/>
</a>
</g>
</g>
<!-- Node5 -->
<g id="Node000005" class="node">
<title>Node5</title>
<g id="a_Node000005"><a xlink:href="frame_8cpp.html#a8f34bc31494430539db21206f084d39d" target="_top" xlink:title="Converts a string into a Frame instance.">
<polygon fill="white" stroke="#666666" points="341.62,-126.59 266.38,-126.59 266.38,-106.59 341.62,-106.59 341.62,-126.59"/>
<text text-anchor="middle" x="304" y="-113.09" font-family="Helvetica,sans-Serif" font-size="10.00">decodeFrame</text>
</a>
</g>
</g>
<!-- Node2&#45;&gt;Node5 -->
<g id="edge4_Node000002_Node000005" class="edge">
<title>Node2&#45;&gt;Node5</title>
<g id="a_edge4_Node000002_Node000005"><a xlink:title=" ">
<path fill="none" stroke="#63b8ff" d="M207.87,-89.07C222.81,-93.39 240.3,-98.45 256.18,-103.04"/>
<polygon fill="#63b8ff" stroke="#63b8ff" points="254.84,-106.3 265.42,-105.72 256.78,-99.58 254.84,-106.3"/>
</a>
</g>
</g>
<!-- Node6 -->
<g id="Node000006" class="node">
<title>Node6</title>
<g id="a_Node000006"><a xlink:href="send_8cpp.html#a752e7cc27f52d4ba064e691b3e240ed8" target="_top" xlink:title="Sends a Frame using LoRa.">
<polygon fill="white" stroke="#666666" points="476.88,-164.59 412.12,-164.59 412.12,-144.59 476.88,-144.59 476.88,-164.59"/>
<text text-anchor="middle" x="444.5" y="-151.09" font-family="Helvetica,sans-Serif" font-size="10.00">sendFrame</text>
</a>
</g>
</g>
<!-- Node2&#45;&gt;Node6 -->
<g id="edge15_Node000002_Node000006" class="edge">
<title>Node2&#45;&gt;Node6</title>
<g id="a_edge15_Node000002_Node000006"><a xlink:title=" ">
<path fill="none" stroke="#63b8ff" d="M182.92,-88.93C198.26,-102.28 227.1,-125.05 256.25,-135.59 303.45,-152.65 361.43,-156.08 400.25,-156.09"/>
<polygon fill="#63b8ff" stroke="#63b8ff" points="400.17,-159.59 410.14,-156.01 400.11,-152.59 400.17,-159.59"/>
</a>
</g>
</g>
<!-- Node12 -->
<g id="Node000012" class="node">
<title>Node12</title>
<g id="a_Node000012"><a xlink:href="group___command_system.html#ga1907d400d2c8d8d054ba95bcf43276ea" target="_top" xlink:title="Executes a command based on its key.">
<polygon fill="white" stroke="#666666" points="351.75,-50.59 256.25,-50.59 256.25,-30.59 351.75,-30.59 351.75,-50.59"/>
<text text-anchor="middle" x="304" y="-37.09" font-family="Helvetica,sans-Serif" font-size="10.00">executeCommand</text>
</a>
</g>
</g>
<!-- Node2&#45;&gt;Node12 -->
<g id="edge13_Node000002_Node000012" class="edge">
<title>Node2&#45;&gt;Node12</title>
<g id="a_edge13_Node000002_Node000012"><a xlink:title=" ">
<path fill="none" stroke="#63b8ff" d="M207.87,-68.1C222.81,-63.78 240.3,-58.72 256.18,-54.13"/>
<polygon fill="#63b8ff" stroke="#63b8ff" points="256.78,-57.6 265.42,-51.46 254.84,-50.87 256.78,-57.6"/>
</a>
</g>
</g>
<!-- Node4 -->
<g id="Node000004" class="node">
<title>Node4</title>
<g id="a_Node000004"><a xlink:href="utils__converters_8cpp.html#ab4cb9e6b491bd7711c69c9167a2b9286" target="_top" xlink:title="Converts a ValueUnit to a string.">
<polygon fill="white" stroke="#666666" points="651.5,-50.59 537.25,-50.59 537.25,-30.59 651.5,-30.59 651.5,-50.59"/>
<text text-anchor="middle" x="594.38" y="-37.09" font-family="Helvetica,sans-Serif" font-size="10.00">valueUnitTypeToString</text>
</a>
</g>
</g>
<!-- Node3&#45;&gt;Node4 -->
<g id="edge3_Node000003_Node000004" class="edge">
<title>Node3&#45;&gt;Node4</title>
<g id="a_edge3_Node000003_Node000004"><a xlink:title=" ">
<path fill="none" stroke="#63b8ff" d="M476.86,-40.59C491.19,-40.59 508.75,-40.59 525.85,-40.59"/>
<polygon fill="#63b8ff" stroke="#63b8ff" points="525.47,-44.09 535.47,-40.59 525.47,-37.09 525.47,-44.09"/>
</a>
</g>
</g>
<!-- Node5&#45;&gt;Node3 -->
<g id="edge5_Node000005_Node000003" class="edge">
<title>Node5&#45;&gt;Node3</title>
<g id="a_edge5_Node000005_Node000003"><a xlink:title=" ">
<path fill="none" stroke="#63b8ff" d="M327.35,-106.18C335.24,-102.23 344.06,-97.49 351.75,-92.59 368.84,-81.69 370.3,-74.9 387.75,-64.59 393.14,-61.4 399.02,-58.41 404.89,-55.68"/>
<polygon fill="#63b8ff" stroke="#63b8ff" points="406.19,-58.93 413.93,-51.69 403.36,-52.53 406.19,-58.93"/>
</a>
</g>
</g>
<!-- Node5&#45;&gt;Node6 -->
<g id="edge6_Node000005_Node000006" class="edge">
<title>Node5&#45;&gt;Node6</title>
<g id="a_edge6_Node000005_Node000006"><a xlink:title=" ">
<path fill="none" stroke="#63b8ff" d="M342.12,-126.77C360.25,-131.75 382.16,-137.76 400.97,-142.92"/>
<polygon fill="#63b8ff" stroke="#63b8ff" points="399.89,-146.25 410.46,-145.52 401.74,-139.5 399.89,-146.25"/>
</a>
</g>
</g>
<!-- Node5&#45;&gt;Node10 -->
<g id="edge12_Node000005_Node000010" class="edge">
<title>Node5&#45;&gt;Node10</title>
<g id="a_edge12_Node000005_Node000010"><a xlink:title=" ">
<path fill="none" stroke="#63b8ff" d="M341.82,-106.7C356.07,-103.25 372.57,-99.72 387.75,-97.59 503.16,-81.37 641.44,-78.74 706.12,-78.47"/>
<polygon fill="#63b8ff" stroke="#63b8ff" points="705.82,-81.98 715.81,-78.45 705.8,-74.98 705.82,-81.98"/>
</a>
</g>
</g>
<!-- Node11 -->
<g id="Node000011" class="node">
<title>Node11</title>
<g id="a_Node000011"><a xlink:href="utils__converters_8cpp.html#a245c34d9f7072236b66e9352a9d3466e" target="_top" xlink:title="Converts a string to an OperationType.">
<polygon fill="white" stroke="#666666" points="501.25,-126.59 387.75,-126.59 387.75,-106.59 501.25,-106.59 501.25,-126.59"/>
<text text-anchor="middle" x="444.5" y="-113.09" font-family="Helvetica,sans-Serif" font-size="10.00">stringToOperationType</text>
</a>
</g>
</g>
<!-- Node5&#45;&gt;Node11 -->
<g id="edge11_Node000005_Node000011" class="edge">
<title>Node5&#45;&gt;Node11</title>
<g id="a_edge11_Node000005_Node000011"><a xlink:title=" ">
<path fill="none" stroke="#63b8ff" d="M342.12,-116.59C352.68,-116.59 364.53,-116.59 376.3,-116.59"/>
<polygon fill="#63b8ff" stroke="#63b8ff" points="376,-120.09 386,-116.59 376,-113.09 376,-120.09"/>
</a>
</g>
</g>
<!-- Node7 -->
<g id="Node000007" class="node">
<title>Node7</title>
<g id="a_Node000007"><a xlink:href="frame_8cpp.html#ab53898fb6f45dfc657837a665a070959" target="_top" xlink:title="Encodes a Frame instance into a string.">
<polygon fill="white" stroke="#666666" points="632,-164.59 556.75,-164.59 556.75,-144.59 632,-144.59 632,-164.59"/>
<text text-anchor="middle" x="594.38" y="-151.09" font-family="Helvetica,sans-Serif" font-size="10.00">encodeFrame</text>
</a>
</g>
</g>
<!-- Node6&#45;&gt;Node7 -->
<g id="edge7_Node000006_Node000007" class="edge">
<title>Node6&#45;&gt;Node7</title>
<g id="a_edge7_Node000006_Node000007"><a xlink:title=" ">
<path fill="none" stroke="#63b8ff" d="M477.22,-154.59C497.02,-154.59 522.9,-154.59 545.2,-154.59"/>
<polygon fill="#63b8ff" stroke="#63b8ff" points="544.97,-158.09 554.97,-154.59 544.97,-151.09 544.97,-158.09"/>
</a>
</g>
</g>
<!-- Node9 -->
<g id="Node000009" class="node">
<title>Node9</title>
<g id="a_Node000009"><a xlink:href="send_8cpp.html#adcc720dc971ce8b237b26df434b65bb2" target="_top" xlink:title="Sends a message using LoRa.">
<polygon fill="white" stroke="#666666" points="632.75,-126.59 556,-126.59 556,-106.59 632.75,-106.59 632.75,-126.59"/>
<text text-anchor="middle" x="594.38" y="-113.09" font-family="Helvetica,sans-Serif" font-size="10.00">sendMessage</text>
</a>
</g>
</g>
<!-- Node6&#45;&gt;Node9 -->
<g id="edge9_Node000006_Node000009" class="edge">
<title>Node6&#45;&gt;Node9</title>
<g id="a_edge9_Node000006_Node000009"><a xlink:title=" ">
<path fill="none" stroke="#63b8ff" d="M477.22,-146.43C496.9,-141.38 522.57,-134.78 544.77,-129.08"/>
<polygon fill="#63b8ff" stroke="#63b8ff" points="545.4,-132.53 554.22,-126.65 543.66,-125.75 545.4,-132.53"/>
</a>
</g>
</g>
<!-- Node8 -->
<g id="Node000008" class="node">
<title>Node8</title>
<g id="a_Node000008"><a xlink:href="utils__converters_8cpp.html#a82a11ce999902359454fa904a13ae297" target="_top" xlink:title="Converts an OperationType to a string.">
<polygon fill="white" stroke="#666666" points="800.25,-164.59 687.5,-164.59 687.5,-144.59 800.25,-144.59 800.25,-164.59"/>
<text text-anchor="middle" x="743.88" y="-151.09" font-family="Helvetica,sans-Serif" font-size="10.00">operationTypeToString</text>
</a>
</g>
</g>
<!-- Node7&#45;&gt;Node8 -->
<g id="edge8_Node000007_Node000008" class="edge">
<title>Node7&#45;&gt;Node8</title>
<g id="a_edge8_Node000007_Node000008"><a xlink:title=" ">
<path fill="none" stroke="#63b8ff" d="M632.21,-154.59C645.47,-154.59 660.88,-154.59 675.9,-154.59"/>
<polygon fill="#63b8ff" stroke="#63b8ff" points="675.76,-158.09 685.76,-154.59 675.76,-151.09 675.76,-158.09"/>
</a>
</g>
</g>
<!-- Node9&#45;&gt;Node10 -->
<g id="edge10_Node000009_Node000010" class="edge">
<title>Node9&#45;&gt;Node10</title>
<g id="a_edge10_Node000009_Node000010"><a xlink:title=" ">
<path fill="none" stroke="#63b8ff" d="M632.98,-106.9C655.51,-101.09 684.02,-93.75 706.36,-87.99"/>
<polygon fill="#63b8ff" stroke="#63b8ff" points="707.13,-91.41 715.94,-85.52 705.39,-84.63 707.13,-91.41"/>
</a>
</g>
</g>
<!-- Node12&#45;&gt;Node3 -->
<g id="edge14_Node000012_Node000003" class="edge">
<title>Node12&#45;&gt;Node3</title>
<g id="a_edge14_Node000012_Node000003"><a xlink:title=" ">
<path fill="none" stroke="#63b8ff" d="M351.89,-40.59C367.77,-40.59 385.42,-40.59 400.94,-40.59"/>
<polygon fill="#63b8ff" stroke="#63b8ff" points="400.83,-44.09 410.83,-40.59 400.83,-37.09 400.83,-44.09"/>
</a>
</g>
</g>
</g>
</svg>
