<?xml version="1.0" encoding="UTF-8" standalone="no"?>
<!DOCTYPE svg PUBLIC "-//W3C//DTD SVG 1.1//EN"
 "http://www.w3.org/Graphics/SVG/1.1/DTD/svg11.dtd">
<!-- Generated by graphviz version 12.2.1 (20241206.2353)
 -->
<!-- Title: send_frame Pages: 1 -->
<svg width="632pt" height="344pt"
 viewBox="0.00 0.00 631.75 344.00" xmlns="http://www.w3.org/2000/svg" xmlns:xlink="http://www.w3.org/1999/xlink">
<g id="graph0" class="graph" transform="scale(1 1) rotate(0) translate(4 340)">
<title>send_frame</title>
<!-- Node1 -->
<g id="Node000001" class="node">
<title>Node1</title>
<g id="a_Node000001"><a xlink:title="Sends a Frame using LoRa.">
<polygon fill="#999999" stroke="#666666" points="623.75,-153 556.75,-153 556.75,-133 623.75,-133 623.75,-153"/>
<text text-anchor="middle" x="590.25" y="-139.5" font-family="Helvetica,sans-Serif" font-size="10.00">send_frame</text>
</a>
</g>
</g>
<!-- Node2 -->
<g id="Node000002" class="node">
<title>Node2</title>
<g id="a_Node000002"><a xlink:href="frame_8cpp.html#a0b3438ff642c0934321101e1f0b8d82d" target="_top" xlink:title="Converts a string into a Frame instance.">
<polygon fill="white" stroke="#666666" points="484,-276 406.5,-276 406.5,-256 484,-256 484,-276"/>
<text text-anchor="middle" x="445.25" y="-262.5" font-family="Helvetica,sans-Serif" font-size="10.00">frame_decode</text>
</a>
</g>
</g>
<!-- Node1&#45;&gt;Node2 -->
<g id="edge1_Node000001_Node000002" class="edge">
<title>Node1&#45;&gt;Node2</title>
<g id="a_edge1_Node000001_Node000002"><a xlink:title=" ">
<path fill="none" stroke="#63b8ff" d="M573.1,-161.64C559.76,-176.56 539.96,-197.61 520.75,-214 502.15,-229.87 478.76,-245.58 463.2,-255.51"/>
<polygon fill="#63b8ff" stroke="#63b8ff" points="575.51,-164.19 579.51,-154.38 570.26,-159.56 575.51,-164.19"/>
</a>
</g>
</g>
<!-- Node3 -->
<g id="Node000003" class="node">
<title>Node3</title>
<g id="a_Node000003"><a xlink:href="frame_8cpp.html#a8b9c5fd031b899c6c7867adcde4ac11f" target="_top" xlink:title="Executes a command based on the command key and the parameter.">
<polygon fill="white" stroke="#666666" points="307.88,-336 227.38,-336 227.38,-316 307.88,-316 307.88,-336"/>
<text text-anchor="middle" x="267.62" y="-322.5" font-family="Helvetica,sans-Serif" font-size="10.00">frame_process</text>
</a>
</g>
</g>
<!-- Node1&#45;&gt;Node3 -->
<g id="edge11_Node000001_Node000003" class="edge">
<title>Node1&#45;&gt;Node3</title>
<g id="a_edge11_Node000001_Node000003"><a xlink:title=" ">
<path fill="none" stroke="#63b8ff" d="M585.38,-164.34C578.42,-196.09 560.64,-255.22 520.75,-285 458.03,-331.82 361.95,-333.57 308.32,-330.14"/>
<polygon fill="#63b8ff" stroke="#63b8ff" points="588.76,-165.25 587.3,-154.76 581.9,-163.87 588.76,-165.25"/>
</a>
</g>
</g>
<!-- Node5 -->
<g id="Node000005" class="node">
<title>Node5</title>
<g id="a_Node000005"><a xlink:href="main_8cpp.html#ae66f6b31b5ad750f1fe042a706a4e3d4" target="_top" xlink:title=" ">
<polygon fill="white" stroke="#666666" points="37,-252 0,-252 0,-232 37,-232 37,-252"/>
<text text-anchor="middle" x="18.5" y="-238.5" font-family="Helvetica,sans-Serif" font-size="10.00">main</text>
</a>
</g>
</g>
<!-- Node1&#45;&gt;Node5 -->
<g id="edge17_Node000001_Node000005" class="edge">
<title>Node1&#45;&gt;Node5</title>
<g id="a_edge17_Node000001_Node000005"><a xlink:title=" ">
<path fill="none" stroke="#63b8ff" d="M565.2,-159.48C552.53,-167.33 536.41,-176.06 520.75,-181 329.92,-241.19 269.85,-192.13 73,-228 60.91,-230.2 47.53,-233.7 37.18,-236.65"/>
<polygon fill="#63b8ff" stroke="#63b8ff" points="566.76,-162.64 573.27,-154.28 562.97,-156.75 566.76,-162.64"/>
</a>
</g>
</g>
<!-- Node10 -->
<g id="Node000010" class="node">
<title>Node10</title>
<g id="a_Node000010"><a xlink:href="group___diagnostic_commands.html#ga3ab5723218b68d3ac5cd864e00ed157a" target="_top" xlink:title="Reboot system to USB firmware loader.">
<polygon fill="white" stroke="#666666" points="520.75,-172 369.75,-172 369.75,-152 520.75,-152 520.75,-172"/>
<text text-anchor="middle" x="445.25" y="-158.5" font-family="Helvetica,sans-Serif" font-size="10.00">handle_enter_bootloader_mode</text>
</a>
</g>
</g>
<!-- Node1&#45;&gt;Node10 -->
<g id="edge12_Node000001_Node000010" class="edge">
<title>Node1&#45;&gt;Node10</title>
<g id="a_edge12_Node000001_Node000010"><a xlink:title=" ">
<path fill="none" stroke="#63b8ff" d="M545.23,-148.85C537.55,-149.87 529.37,-150.96 521.13,-152.05"/>
<polygon fill="#63b8ff" stroke="#63b8ff" points="545.49,-152.35 554.94,-147.56 544.57,-145.41 545.49,-152.35"/>
</a>
</g>
</g>
<!-- Node11 -->
<g id="Node000011" class="node">
<title>Node11</title>
<g id="a_Node000011"><a xlink:href="storage__commands_8cpp.html#a1ebbe9d6a73f10f9887975fe4f968aad" target="_top" xlink:title="Handles the file download command.">
<polygon fill="white" stroke="#666666" points="499.75,-134 390.75,-134 390.75,-114 499.75,-114 499.75,-134"/>
<text text-anchor="middle" x="445.25" y="-120.5" font-family="Helvetica,sans-Serif" font-size="10.00">handle_file_download</text>
</a>
</g>
</g>
<!-- Node1&#45;&gt;Node11 -->
<g id="edge13_Node000001_Node000011" class="edge">
<title>Node1&#45;&gt;Node11</title>
<g id="a_edge13_Node000001_Node000011"><a xlink:title=" ">
<path fill="none" stroke="#63b8ff" d="M545.42,-137.18C531.15,-135.28 515.13,-133.15 500.2,-131.17"/>
<polygon fill="#63b8ff" stroke="#63b8ff" points="544.57,-140.59 554.94,-138.44 545.49,-133.65 544.57,-140.59"/>
</a>
</g>
</g>
<!-- Node12 -->
<g id="Node000012" class="node">
<title>Node12</title>
<g id="a_Node000012"><a xlink:href="storage__commands_8cpp.html#acc768cf94aac4e11301443f30529b738" target="_top" xlink:title="Handles the list files command.">
<polygon fill="white" stroke="#666666" points="488.12,-96 402.38,-96 402.38,-76 488.12,-76 488.12,-96"/>
<text text-anchor="middle" x="445.25" y="-82.5" font-family="Helvetica,sans-Serif" font-size="10.00">handle_list_files</text>
</a>
</g>
</g>
<!-- Node1&#45;&gt;Node12 -->
<g id="edge14_Node000001_Node000012" class="edge">
<title>Node1&#45;&gt;Node12</title>
<g id="a_edge14_Node000001_Node000012"><a xlink:title=" ">
<path fill="none" stroke="#63b8ff" d="M563.48,-126.64C550.96,-119.23 535.46,-110.84 520.75,-105 510.58,-100.96 499.28,-97.56 488.62,-94.8"/>
<polygon fill="#63b8ff" stroke="#63b8ff" points="561.57,-129.57 571.93,-131.77 565.2,-123.59 561.57,-129.57"/>
</a>
</g>
</g>
<!-- Node13 -->
<g id="Node000013" class="node">
<title>Node13</title>
<g id="a_Node000013"><a xlink:href="main_8cpp.html#a8fa5379b5bec497b881cec19f2b38779" target="_top" xlink:title=" ">
<polygon fill="white" stroke="#666666" points="303.38,-86 231.88,-86 231.88,-66 303.38,-66 303.38,-86"/>
<text text-anchor="middle" x="267.62" y="-72.5" font-family="Helvetica,sans-Serif" font-size="10.00">init_systems</text>
</a>
</g>
</g>
<!-- Node1&#45;&gt;Node13 -->
<g id="edge15_Node000001_Node000013" class="edge">
<title>Node1&#45;&gt;Node13</title>
<g id="a_edge15_Node000001_Node000013"><a xlink:title=" ">
<path fill="none" stroke="#63b8ff" d="M577.91,-122.83C566.26,-104.4 546.25,-78.35 520.75,-67 448.92,-35.04 353.86,-52.32 303.47,-65.51"/>
<polygon fill="#63b8ff" stroke="#63b8ff" points="574.86,-124.56 583,-131.34 580.86,-120.96 574.86,-124.56"/>
</a>
</g>
</g>
<!-- Node14 -->
<g id="Node000014" class="node">
<title>Node14</title>
<g id="a_Node000014"><a xlink:href="frame_8cpp.html#af49224563adb4bf0b91daa5ab78120ca" target="_top" xlink:title="Sends the event register value to the ground station.">
<polygon fill="white" stroke="#666666" points="478.38,-20 412.12,-20 412.12,0 478.38,0 478.38,-20"/>
<text text-anchor="middle" x="445.25" y="-6.5" font-family="Helvetica,sans-Serif" font-size="10.00">send_event</text>
</a>
</g>
</g>
<!-- Node1&#45;&gt;Node14 -->
<g id="edge18_Node000001_Node000014" class="edge">
<title>Node1&#45;&gt;Node14</title>
<g id="a_edge18_Node000001_Node000014"><a xlink:title=" ">
<path fill="none" stroke="#63b8ff" d="M581.28,-121.95C570.94,-97.4 550.63,-57.22 520.75,-34 508.63,-24.58 492.69,-18.8 478.67,-15.28"/>
<polygon fill="#63b8ff" stroke="#63b8ff" points="578.02,-123.22 584.99,-131.2 584.52,-120.62 578.02,-123.22"/>
</a>
</g>
</g>
<!-- Node2&#45;&gt;Node3 -->
<g id="edge2_Node000002_Node000003" class="edge">
<title>Node2&#45;&gt;Node3</title>
<g id="a_edge2_Node000002_Node000003"><a xlink:title=" ">
<path fill="none" stroke="#63b8ff" d="M407.09,-280.54C385.76,-288.7 358.4,-298.84 333.75,-307 324.92,-309.92 315.33,-312.85 306.3,-315.5"/>
<polygon fill="#63b8ff" stroke="#63b8ff" points="408.16,-283.88 416.23,-277.02 405.64,-277.35 408.16,-283.88"/>
</a>
</g>
</g>
<!-- Node7 -->
<g id="Node000007" class="node">
<title>Node7</title>
<g id="a_Node000007"><a xlink:href="test__frame__coding_8cpp.html#a75deef6947cf7117a58214b4298ecec9" target="_top" xlink:title=" ">
<polygon fill="white" stroke="#666666" points="331.5,-298 203.75,-298 203.75,-278 331.5,-278 331.5,-298"/>
<text text-anchor="middle" x="267.62" y="-284.5" font-family="Helvetica,sans-Serif" font-size="10.00">test_frame_decode_basic</text>
</a>
</g>
</g>
<!-- Node2&#45;&gt;Node7 -->
<g id="edge7_Node000002_Node000007" class="edge">
<title>Node2&#45;&gt;Node7</title>
<g id="a_edge7_Node000002_Node000007"><a xlink:title=" ">
<path fill="none" stroke="#63b8ff" d="M394.74,-272.2C375.22,-274.65 352.55,-277.49 331.86,-280.08"/>
<polygon fill="#63b8ff" stroke="#63b8ff" points="395.15,-275.68 404.64,-270.96 394.28,-268.73 395.15,-275.68"/>
</a>
</g>
</g>
<!-- Node9 -->
<g id="Node000009" class="node">
<title>Node9</title>
<g id="a_Node000009"><a xlink:href="test__frame__coding_8cpp.html#a054000b3d2c0abb2e13b9109ae0969ef" target="_top" xlink:title=" ">
<polygon fill="white" stroke="#666666" points="333.75,-260 201.5,-260 201.5,-228 333.75,-228 333.75,-260"/>
<text text-anchor="start" x="209.5" y="-246.5" font-family="Helvetica,sans-Serif" font-size="10.00">test_frame_decode_invalid</text>
<text text-anchor="middle" x="267.62" y="-234.5" font-family="Helvetica,sans-Serif" font-size="10.00">_header</text>
</a>
</g>
</g>
<!-- Node2&#45;&gt;Node9 -->
<g id="edge9_Node000002_Node000009" class="edge">
<title>Node2&#45;&gt;Node9</title>
<g id="a_edge9_Node000002_Node000009"><a xlink:title=" ">
<path fill="none" stroke="#63b8ff" d="M394.81,-259.81C375.92,-257.44 354.09,-254.71 333.95,-252.18"/>
<polygon fill="#63b8ff" stroke="#63b8ff" points="394.28,-263.27 404.64,-261.04 395.15,-256.32 394.28,-263.27"/>
</a>
</g>
</g>
<!-- Node4 -->
<g id="Node000004" class="node">
<title>Node4</title>
<g id="a_Node000004"><a xlink:href="receive_8cpp.html#a14ffba44d46e00b23bd72bdb3a4d58d1" target="_top" xlink:title="Handles UART input.">
<polygon fill="white" stroke="#666666" points="165.5,-335 73,-335 73,-315 165.5,-315 165.5,-335"/>
<text text-anchor="middle" x="119.25" y="-321.5" font-family="Helvetica,sans-Serif" font-size="10.00">handle_uart_input</text>
</a>
</g>
</g>
<!-- Node3&#45;&gt;Node4 -->
<g id="edge3_Node000003_Node000004" class="edge">
<title>Node3&#45;&gt;Node4</title>
<g id="a_edge3_Node000003_Node000004"><a xlink:title=" ">
<path fill="none" stroke="#63b8ff" d="M215.57,-325.65C199.39,-325.54 181.62,-325.42 165.85,-325.31"/>
<polygon fill="#63b8ff" stroke="#63b8ff" points="215.48,-329.15 225.5,-325.72 215.52,-322.15 215.48,-329.15"/>
</a>
</g>
</g>
<!-- Node6 -->
<g id="Node000006" class="node">
<title>Node6</title>
<g id="a_Node000006"><a xlink:href="receive_8cpp.html#a3f494105dee3a08e1244febc81982517" target="_top" xlink:title="Callback function for handling received LoRa packets.">
<polygon fill="white" stroke="#666666" points="150.88,-296 87.62,-296 87.62,-276 150.88,-276 150.88,-296"/>
<text text-anchor="middle" x="119.25" y="-282.5" font-family="Helvetica,sans-Serif" font-size="10.00">on_receive</text>
</a>
</g>
</g>
<!-- Node3&#45;&gt;Node6 -->
<g id="edge5_Node000003_Node000006" class="edge">
<title>Node3&#45;&gt;Node6</title>
<g id="a_edge5_Node000003_Node000006"><a xlink:title=" ">
<path fill="none" stroke="#63b8ff" d="M217.45,-312.56C195.56,-306.58 170.45,-299.72 151.24,-294.47"/>
<polygon fill="#63b8ff" stroke="#63b8ff" points="216.52,-315.94 227.09,-315.2 218.37,-309.18 216.52,-315.94"/>
</a>
</g>
</g>
<!-- Node4&#45;&gt;Node5 -->
<g id="edge4_Node000004_Node000005" class="edge">
<title>Node4&#45;&gt;Node5</title>
<g id="a_edge4_Node000004_Node000005"><a xlink:title=" ">
<path fill="none" stroke="#63b8ff" d="M79.37,-309.26C77.16,-307.92 75.01,-306.5 73,-305 52.77,-289.89 35.07,-265.78 25.98,-252.18"/>
<polygon fill="#63b8ff" stroke="#63b8ff" points="77.59,-312.28 88.07,-313.88 80.88,-306.1 77.59,-312.28"/>
</a>
</g>
</g>
<!-- Node6&#45;&gt;Node5 -->
<g id="edge6_Node000006_Node000005" class="edge">
<title>Node6&#45;&gt;Node5</title>
<g id="a_edge6_Node000006_Node000005"><a xlink:title=" ">
<path fill="none" stroke="#63b8ff" d="M84.24,-270.99C80.45,-269.31 76.64,-267.62 73,-266 61.1,-260.7 47.72,-254.7 37.32,-250.02"/>
<polygon fill="#63b8ff" stroke="#63b8ff" points="82.81,-274.19 93.37,-275.03 85.64,-267.78 82.81,-274.19"/>
</a>
</g>
</g>
<!-- Node8 -->
<g id="Node000008" class="node">
<title>Node8</title>
<g id="a_Node000008"><a xlink:href="test__runner_8cpp.html#a840291bc02cba5474a4cb46a9b9566fe" target="_top" xlink:title=" ">
<polygon fill="white" stroke="#666666" points="137.75,-257 100.75,-257 100.75,-237 137.75,-237 137.75,-257"/>
<text text-anchor="middle" x="119.25" y="-243.5" font-family="Helvetica,sans-Serif" font-size="10.00">main</text>
</a>
</g>
</g>
<!-- Node7&#45;&gt;Node8 -->
<g id="edge8_Node000007_Node000008" class="edge">
<title>Node7&#45;&gt;Node8</title>
<g id="a_edge8_Node000007_Node000008"><a xlink:title=" ">
<path fill="none" stroke="#63b8ff" d="M218.26,-274.45C190.68,-266.73 157.77,-257.51 137.97,-251.96"/>
<polygon fill="#63b8ff" stroke="#63b8ff" points="217.28,-277.81 227.85,-277.14 219.17,-271.07 217.28,-277.81"/>
</a>
</g>
</g>
<!-- Node9&#45;&gt;Node8 -->
<g id="edge10_Node000009_Node000008" class="edge">
<title>Node9&#45;&gt;Node8</title>
<g id="a_edge10_Node000009_Node000008"><a xlink:title=" ">
<path fill="none" stroke="#63b8ff" d="M189.71,-245.58C170.29,-245.97 151.23,-246.37 138,-246.64"/>
<polygon fill="#63b8ff" stroke="#63b8ff" points="189.7,-249.08 199.63,-245.37 189.56,-242.08 189.7,-249.08"/>
</a>
</g>
</g>
<!-- Node13&#45;&gt;Node5 -->
<g id="edge16_Node000013_Node000005" class="edge">
<title>Node13&#45;&gt;Node5</title>
<g id="a_edge16_Node000013_Node000005"><a xlink:title=" ">
<path fill="none" stroke="#63b8ff" d="M233.24,-91.24C193.14,-110.37 124.8,-145.6 73,-186 55.19,-199.89 37.71,-219.67 27.81,-231.62"/>
<polygon fill="#63b8ff" stroke="#63b8ff" points="234.6,-94.47 242.16,-87.04 231.62,-88.14 234.6,-94.47"/>
</a>
</g>
</g>
</g>
</svg>
