<?xml version="1.0" encoding="UTF-8" standalone="no"?>
<!DOCTYPE svg PUBLIC "-//W3C//DTD SVG 1.1//EN"
 "http://www.w3.org/Graphics/SVG/1.1/DTD/svg11.dtd">
<!-- Generated by graphviz version 12.2.1 (20241206.2353)
 -->
<!-- Title: send_frame Pages: 1 -->
<svg width="632pt" height="268pt"
 viewBox="0.00 0.00 631.75 268.00" xmlns="http://www.w3.org/2000/svg" xmlns:xlink="http://www.w3.org/1999/xlink">
<g id="graph0" class="graph" transform="scale(1 1) rotate(0) translate(4 264)">
<title>send_frame</title>
<!-- Node1 -->
<g id="Node000001" class="node">
<title>Node1</title>
<g id="a_Node000001"><a xlink:title="Sends a Frame using LoRa.">
<polygon fill="#999999" stroke="#666666" points="623.75,-115 556.75,-115 556.75,-95 623.75,-95 623.75,-115"/>
<text text-anchor="middle" x="590.25" y="-101.5" font-family="Helvetica,sans-Serif" font-size="10.00">send_frame</text>
</a>
</g>
</g>
<!-- Node2 -->
<g id="Node000002" class="node">
<title>Node2</title>
<g id="a_Node000002"><a xlink:href="frame_8cpp.html#a0b3438ff642c0934321101e1f0b8d82d" target="_top" xlink:title="Converts a string into a Frame instance.">
<polygon fill="white" stroke="#666666" points="484,-200 406.5,-200 406.5,-180 484,-180 484,-200"/>
<text text-anchor="middle" x="445.25" y="-186.5" font-family="Helvetica,sans-Serif" font-size="10.00">frame_decode</text>
</a>
</g>
</g>
<!-- Node1&#45;&gt;Node2 -->
<g id="edge1_Node000001_Node000002" class="edge">
<title>Node1&#45;&gt;Node2</title>
<g id="a_edge1_Node000001_Node000002"><a xlink:title=" ">
<path fill="none" stroke="#63b8ff" d="M562.19,-121.09C533.18,-138.33 488,-165.19 463.48,-179.76"/>
<polygon fill="#63b8ff" stroke="#63b8ff" points="563.61,-124.31 570.41,-116.2 560.03,-118.3 563.61,-124.31"/>
</a>
</g>
</g>
<!-- Node3 -->
<g id="Node000003" class="node">
<title>Node3</title>
<g id="a_Node000003"><a xlink:href="frame_8cpp.html#a8b9c5fd031b899c6c7867adcde4ac11f" target="_top" xlink:title="Executes a command based on the command key and the parameter.">
<polygon fill="white" stroke="#666666" points="307.88,-260 227.38,-260 227.38,-240 307.88,-240 307.88,-260"/>
<text text-anchor="middle" x="267.62" y="-246.5" font-family="Helvetica,sans-Serif" font-size="10.00">frame_process</text>
</a>
</g>
</g>
<!-- Node1&#45;&gt;Node3 -->
<g id="edge11_Node000001_Node000003" class="edge">
<title>Node1&#45;&gt;Node3</title>
<g id="a_edge11_Node000001_Node000003"><a xlink:title=" ">
<path fill="none" stroke="#63b8ff" d="M581.57,-125.86C571.52,-150.04 551.47,-189.1 520.75,-209 455.43,-251.31 361.18,-254.88 308.36,-252.94"/>
<polygon fill="#63b8ff" stroke="#63b8ff" points="584.75,-127.33 585.15,-116.74 578.24,-124.77 584.75,-127.33"/>
</a>
</g>
</g>
<!-- Node5 -->
<g id="Node000005" class="node">
<title>Node5</title>
<g id="a_Node000005"><a xlink:href="main_8cpp.html#ae66f6b31b5ad750f1fe042a706a4e3d4" target="_top" xlink:title=" ">
<polygon fill="white" stroke="#666666" points="37,-176 0,-176 0,-156 37,-156 37,-176"/>
<text text-anchor="middle" x="18.5" y="-162.5" font-family="Helvetica,sans-Serif" font-size="10.00">main</text>
</a>
</g>
</g>
<!-- Node1&#45;&gt;Node5 -->
<g id="edge15_Node000001_Node000005" class="edge">
<title>Node1&#45;&gt;Node5</title>
<g id="a_edge15_Node000001_Node000005"><a xlink:title=" ">
<path fill="none" stroke="#63b8ff" d="M545.05,-106.56C455.42,-110.28 246.07,-121.69 73,-152 60.9,-154.12 47.52,-157.62 37.17,-160.59"/>
<polygon fill="#63b8ff" stroke="#63b8ff" points="545.02,-110.07 554.87,-106.17 544.74,-103.07 545.02,-110.07"/>
</a>
</g>
</g>
<!-- Node10 -->
<g id="Node000010" class="node">
<title>Node10</title>
<g id="a_Node000010"><a xlink:href="group___diagnostic_commands.html#ga3ab5723218b68d3ac5cd864e00ed157a" target="_top" xlink:title="Reboot system to USB firmware loader.">
<polygon fill="white" stroke="#666666" points="520.75,-96 369.75,-96 369.75,-76 520.75,-76 520.75,-96"/>
<text text-anchor="middle" x="445.25" y="-82.5" font-family="Helvetica,sans-Serif" font-size="10.00">handle_enter_bootloader_mode</text>
</a>
</g>
</g>
<!-- Node1&#45;&gt;Node10 -->
<g id="edge12_Node000001_Node000010" class="edge">
<title>Node1&#45;&gt;Node10</title>
<g id="a_edge12_Node000001_Node000010"><a xlink:title=" ">
<path fill="none" stroke="#63b8ff" d="M545.23,-99.15C537.55,-98.13 529.37,-97.04 521.13,-95.95"/>
<polygon fill="#63b8ff" stroke="#63b8ff" points="544.57,-102.59 554.94,-100.44 545.49,-95.65 544.57,-102.59"/>
</a>
</g>
</g>
<!-- Node11 -->
<g id="Node000011" class="node">
<title>Node11</title>
<g id="a_Node000011"><a xlink:href="main_8cpp.html#a8fa5379b5bec497b881cec19f2b38779" target="_top" xlink:title=" ">
<polygon fill="white" stroke="#666666" points="303.38,-67 231.88,-67 231.88,-47 303.38,-47 303.38,-67"/>
<text text-anchor="middle" x="267.62" y="-53.5" font-family="Helvetica,sans-Serif" font-size="10.00">init_systems</text>
</a>
</g>
</g>
<!-- Node1&#45;&gt;Node11 -->
<g id="edge13_Node000001_Node000011" class="edge">
<title>Node1&#45;&gt;Node11</title>
<g id="a_edge13_Node000001_Node000011"><a xlink:title=" ">
<path fill="none" stroke="#63b8ff" d="M565.82,-88.4C553.11,-80.36 536.77,-71.49 520.75,-67 445.66,-45.97 353.1,-49.35 303.67,-53.36"/>
<polygon fill="#63b8ff" stroke="#63b8ff" points="563.62,-91.14 573.89,-93.74 567.48,-85.31 563.62,-91.14"/>
</a>
</g>
</g>
<!-- Node12 -->
<g id="Node000012" class="node">
<title>Node12</title>
<g id="a_Node000012"><a xlink:href="frame_8cpp.html#af49224563adb4bf0b91daa5ab78120ca" target="_top" xlink:title="Sends the event register value to the ground station.">
<polygon fill="white" stroke="#666666" points="478.38,-20 412.12,-20 412.12,0 478.38,0 478.38,-20"/>
<text text-anchor="middle" x="445.25" y="-6.5" font-family="Helvetica,sans-Serif" font-size="10.00">send_event</text>
</a>
</g>
</g>
<!-- Node1&#45;&gt;Node12 -->
<g id="edge16_Node000001_Node000012" class="edge">
<title>Node1&#45;&gt;Node12</title>
<g id="a_edge16_Node000001_Node000012"><a xlink:title=" ">
<path fill="none" stroke="#63b8ff" d="M574.93,-85.52C562.29,-69.6 542.54,-47.58 520.75,-34 507.95,-26.02 492.24,-20.45 478.56,-16.7"/>
<polygon fill="#63b8ff" stroke="#63b8ff" points="572.04,-87.51 580.91,-93.31 577.6,-83.25 572.04,-87.51"/>
</a>
</g>
</g>
<!-- Node2&#45;&gt;Node3 -->
<g id="edge2_Node000002_Node000003" class="edge">
<title>Node2&#45;&gt;Node3</title>
<g id="a_edge2_Node000002_Node000003"><a xlink:title=" ">
<path fill="none" stroke="#63b8ff" d="M407.09,-204.54C385.76,-212.7 358.4,-222.84 333.75,-231 324.92,-233.92 315.33,-236.85 306.3,-239.5"/>
<polygon fill="#63b8ff" stroke="#63b8ff" points="408.16,-207.88 416.23,-201.02 405.64,-201.35 408.16,-207.88"/>
</a>
</g>
</g>
<!-- Node7 -->
<g id="Node000007" class="node">
<title>Node7</title>
<g id="a_Node000007"><a xlink:href="test__frame__coding_8cpp.html#a75deef6947cf7117a58214b4298ecec9" target="_top" xlink:title=" ">
<polygon fill="white" stroke="#666666" points="331.5,-222 203.75,-222 203.75,-202 331.5,-202 331.5,-222"/>
<text text-anchor="middle" x="267.62" y="-208.5" font-family="Helvetica,sans-Serif" font-size="10.00">test_frame_decode_basic</text>
</a>
</g>
</g>
<!-- Node2&#45;&gt;Node7 -->
<g id="edge7_Node000002_Node000007" class="edge">
<title>Node2&#45;&gt;Node7</title>
<g id="a_edge7_Node000002_Node000007"><a xlink:title=" ">
<path fill="none" stroke="#63b8ff" d="M394.74,-196.2C375.22,-198.65 352.55,-201.49 331.86,-204.08"/>
<polygon fill="#63b8ff" stroke="#63b8ff" points="395.15,-199.68 404.64,-194.96 394.28,-192.73 395.15,-199.68"/>
</a>
</g>
</g>
<!-- Node9 -->
<g id="Node000009" class="node">
<title>Node9</title>
<g id="a_Node000009"><a xlink:href="test__frame__coding_8cpp.html#a054000b3d2c0abb2e13b9109ae0969ef" target="_top" xlink:title=" ">
<polygon fill="white" stroke="#666666" points="333.75,-184 201.5,-184 201.5,-152 333.75,-152 333.75,-184"/>
<text text-anchor="start" x="209.5" y="-170.5" font-family="Helvetica,sans-Serif" font-size="10.00">test_frame_decode_invalid</text>
<text text-anchor="middle" x="267.62" y="-158.5" font-family="Helvetica,sans-Serif" font-size="10.00">_header</text>
</a>
</g>
</g>
<!-- Node2&#45;&gt;Node9 -->
<g id="edge9_Node000002_Node000009" class="edge">
<title>Node2&#45;&gt;Node9</title>
<g id="a_edge9_Node000002_Node000009"><a xlink:title=" ">
<path fill="none" stroke="#63b8ff" d="M394.81,-183.81C375.92,-181.44 354.09,-178.71 333.95,-176.18"/>
<polygon fill="#63b8ff" stroke="#63b8ff" points="394.28,-187.27 404.64,-185.04 395.15,-180.32 394.28,-187.27"/>
</a>
</g>
</g>
<!-- Node4 -->
<g id="Node000004" class="node">
<title>Node4</title>
<g id="a_Node000004"><a xlink:href="receive_8cpp.html#a14ffba44d46e00b23bd72bdb3a4d58d1" target="_top" xlink:title="Handles UART input.">
<polygon fill="white" stroke="#666666" points="165.5,-259 73,-259 73,-239 165.5,-239 165.5,-259"/>
<text text-anchor="middle" x="119.25" y="-245.5" font-family="Helvetica,sans-Serif" font-size="10.00">handle_uart_input</text>
</a>
</g>
</g>
<!-- Node3&#45;&gt;Node4 -->
<g id="edge3_Node000003_Node000004" class="edge">
<title>Node3&#45;&gt;Node4</title>
<g id="a_edge3_Node000003_Node000004"><a xlink:title=" ">
<path fill="none" stroke="#63b8ff" d="M215.57,-249.65C199.39,-249.54 181.62,-249.42 165.85,-249.31"/>
<polygon fill="#63b8ff" stroke="#63b8ff" points="215.48,-253.15 225.5,-249.72 215.52,-246.15 215.48,-253.15"/>
</a>
</g>
</g>
<!-- Node6 -->
<g id="Node000006" class="node">
<title>Node6</title>
<g id="a_Node000006"><a xlink:href="receive_8cpp.html#a3f494105dee3a08e1244febc81982517" target="_top" xlink:title="Callback function for handling received LoRa packets.">
<polygon fill="white" stroke="#666666" points="150.88,-220 87.62,-220 87.62,-200 150.88,-200 150.88,-220"/>
<text text-anchor="middle" x="119.25" y="-206.5" font-family="Helvetica,sans-Serif" font-size="10.00">on_receive</text>
</a>
</g>
</g>
<!-- Node3&#45;&gt;Node6 -->
<g id="edge5_Node000003_Node000006" class="edge">
<title>Node3&#45;&gt;Node6</title>
<g id="a_edge5_Node000003_Node000006"><a xlink:title=" ">
<path fill="none" stroke="#63b8ff" d="M217.45,-236.56C195.56,-230.58 170.45,-223.72 151.24,-218.47"/>
<polygon fill="#63b8ff" stroke="#63b8ff" points="216.52,-239.94 227.09,-239.2 218.37,-233.18 216.52,-239.94"/>
</a>
</g>
</g>
<!-- Node4&#45;&gt;Node5 -->
<g id="edge4_Node000004_Node000005" class="edge">
<title>Node4&#45;&gt;Node5</title>
<g id="a_edge4_Node000004_Node000005"><a xlink:title=" ">
<path fill="none" stroke="#63b8ff" d="M79.37,-233.26C77.16,-231.92 75.01,-230.5 73,-229 52.77,-213.89 35.07,-189.78 25.98,-176.18"/>
<polygon fill="#63b8ff" stroke="#63b8ff" points="77.59,-236.28 88.07,-237.88 80.88,-230.1 77.59,-236.28"/>
</a>
</g>
</g>
<!-- Node6&#45;&gt;Node5 -->
<g id="edge6_Node000006_Node000005" class="edge">
<title>Node6&#45;&gt;Node5</title>
<g id="a_edge6_Node000006_Node000005"><a xlink:title=" ">
<path fill="none" stroke="#63b8ff" d="M84.24,-194.99C80.45,-193.31 76.64,-191.62 73,-190 61.1,-184.7 47.72,-178.7 37.32,-174.02"/>
<polygon fill="#63b8ff" stroke="#63b8ff" points="82.81,-198.19 93.37,-199.03 85.64,-191.78 82.81,-198.19"/>
</a>
</g>
</g>
<!-- Node8 -->
<g id="Node000008" class="node">
<title>Node8</title>
<g id="a_Node000008"><a xlink:href="test__runner_8cpp.html#a840291bc02cba5474a4cb46a9b9566fe" target="_top" xlink:title=" ">
<polygon fill="white" stroke="#666666" points="137.75,-181 100.75,-181 100.75,-161 137.75,-161 137.75,-181"/>
<text text-anchor="middle" x="119.25" y="-167.5" font-family="Helvetica,sans-Serif" font-size="10.00">main</text>
</a>
</g>
</g>
<!-- Node7&#45;&gt;Node8 -->
<g id="edge8_Node000007_Node000008" class="edge">
<title>Node7&#45;&gt;Node8</title>
<g id="a_edge8_Node000007_Node000008"><a xlink:title=" ">
<path fill="none" stroke="#63b8ff" d="M218.26,-198.45C190.68,-190.73 157.77,-181.51 137.97,-175.96"/>
<polygon fill="#63b8ff" stroke="#63b8ff" points="217.28,-201.81 227.85,-201.14 219.17,-195.07 217.28,-201.81"/>
</a>
</g>
</g>
<!-- Node9&#45;&gt;Node8 -->
<g id="edge10_Node000009_Node000008" class="edge">
<title>Node9&#45;&gt;Node8</title>
<g id="a_edge10_Node000009_Node000008"><a xlink:title=" ">
<path fill="none" stroke="#63b8ff" d="M189.71,-169.58C170.29,-169.97 151.23,-170.37 138,-170.64"/>
<polygon fill="#63b8ff" stroke="#63b8ff" points="189.7,-173.08 199.63,-169.37 189.56,-166.08 189.7,-173.08"/>
</a>
</g>
</g>
<!-- Node11&#45;&gt;Node5 -->
<g id="edge14_Node000011_Node000005" class="edge">
<title>Node11&#45;&gt;Node5</title>
<g id="a_edge14_Node000011_Node000005"><a xlink:title=" ">
<path fill="none" stroke="#63b8ff" d="M220.25,-62.54C179.2,-69.05 118.87,-82.65 73,-110 53.14,-121.84 35.81,-143.05 26.58,-155.69"/>
<polygon fill="#63b8ff" stroke="#63b8ff" points="220.67,-66.02 230.05,-61.08 219.64,-59.09 220.67,-66.02"/>
</a>
</g>
</g>
</g>
</svg>
