<?xml version="1.0" encoding="UTF-8" standalone="no"?>
<!DOCTYPE svg PUBLIC "-//W3C//DTD SVG 1.1//EN"
 "http://www.w3.org/Graphics/SVG/1.1/DTD/svg11.dtd">
<!-- Generated by graphviz version 12.2.1 (20241206.2353)
 -->
<!-- Title: lib/storage/storage.cpp Pages: 1 -->
<svg width="925pt" height="196pt"
 viewBox="0.00 0.00 925.00 196.00" xmlns="http://www.w3.org/2000/svg" xmlns:xlink="http://www.w3.org/1999/xlink">
<g id="graph0" class="graph" transform="scale(1 1) rotate(0) translate(4 192)">
<title>lib/storage/storage.cpp</title>
<!-- Node1 -->
<g id="Node000001" class="node">
<title>Node1</title>
<g id="a_Node000001"><a xlink:title="Implements file system operations for the Kubisat firmware.">
<polygon fill="#999999" stroke="#666666" points="547.12,-188 432.12,-188 432.12,-168 547.12,-168 547.12,-188"/>
<text text-anchor="middle" x="489.62" y="-174.5" font-family="Helvetica,sans-Serif" font-size="10.00">lib/storage/storage.cpp</text>
</a>
</g>
</g>
<!-- Node2 -->
<g id="Node000002" class="node">
<title>Node2</title>
<g id="a_Node000002"><a xlink:href="storage_8h.html" target="_top" xlink:title=" ">
<polygon fill="white" stroke="#666666" points="483.88,-132 427.38,-132 427.38,-112 483.88,-112 483.88,-132"/>
<text text-anchor="middle" x="455.62" y="-118.5" font-family="Helvetica,sans-Serif" font-size="10.00">storage.h</text>
</a>
</g>
</g>
<!-- Node1&#45;&gt;Node2 -->
<g id="edge1_Node000001_Node000002" class="edge">
<title>Node1&#45;&gt;Node2</title>
<g id="a_edge1_Node000001_Node000002"><a xlink:title=" ">
<path fill="none" stroke="#63b8ff" d="M483.7,-167.59C479.27,-160.55 473.05,-150.67 467.59,-142"/>
<polygon fill="#63b8ff" stroke="#63b8ff" points="470.58,-140.18 462.29,-133.58 464.65,-143.91 470.58,-140.18"/>
</a>
</g>
</g>
<!-- Node14 -->
<g id="Node000014" class="node">
<title>Node14</title>
<g id="a_Node000014"><a xlink:title=" ">
<polygon fill="#e0e0e0" stroke="#999999" points="547.62,-132 501.62,-132 501.62,-112 547.62,-112 547.62,-132"/>
<text text-anchor="middle" x="524.62" y="-118.5" font-family="Helvetica,sans-Serif" font-size="10.00">errno.h</text>
</a>
</g>
</g>
<!-- Node1&#45;&gt;Node14 -->
<g id="edge13_Node000001_Node000014" class="edge">
<title>Node1&#45;&gt;Node14</title>
<g id="a_edge13_Node000001_Node000014"><a xlink:title=" ">
<path fill="none" stroke="#63b8ff" d="M495.72,-167.59C500.34,-160.47 506.83,-150.45 512.49,-141.72"/>
<polygon fill="#63b8ff" stroke="#63b8ff" points="515.27,-143.86 517.78,-133.57 509.4,-140.06 515.27,-143.86"/>
</a>
</g>
</g>
<!-- Node3 -->
<g id="Node000003" class="node">
<title>Node3</title>
<g id="a_Node000003"><a xlink:title=" ">
<polygon fill="#e0e0e0" stroke="#999999" points="45.25,-76 0,-76 0,-56 45.25,-56 45.25,-76"/>
<text text-anchor="middle" x="22.62" y="-62.5" font-family="Helvetica,sans-Serif" font-size="10.00">stdio.h</text>
</a>
</g>
</g>
<!-- Node2&#45;&gt;Node3 -->
<g id="edge2_Node000002_Node000003" class="edge">
<title>Node2&#45;&gt;Node3</title>
<g id="a_edge2_Node000002_Node000003"><a xlink:title=" ">
<path fill="none" stroke="#63b8ff" d="M427.19,-119.4C362.89,-115.45 201.31,-103.62 56.84,-76.12"/>
<polygon fill="#63b8ff" stroke="#63b8ff" points="57.56,-72.7 47.08,-74.23 56.23,-79.57 57.56,-72.7"/>
</a>
</g>
</g>
<!-- Node4 -->
<g id="Node000004" class="node">
<title>Node4</title>
<g id="a_Node000004"><a xlink:title=" ">
<polygon fill="#e0e0e0" stroke="#999999" points="111.75,-76 63.5,-76 63.5,-56 111.75,-56 111.75,-76"/>
<text text-anchor="middle" x="87.62" y="-62.5" font-family="Helvetica,sans-Serif" font-size="10.00">string.h</text>
</a>
</g>
</g>
<!-- Node2&#45;&gt;Node4 -->
<g id="edge3_Node000002_Node000004" class="edge">
<title>Node2&#45;&gt;Node4</title>
<g id="a_edge3_Node000002_Node000004"><a xlink:title=" ">
<path fill="none" stroke="#63b8ff" d="M427.18,-118.46C370.9,-113.18 241.23,-99.63 123.08,-76.27"/>
<polygon fill="#63b8ff" stroke="#63b8ff" points="124.02,-72.89 113.53,-74.35 122.64,-79.75 124.02,-72.89"/>
</a>
</g>
</g>
<!-- Node5 -->
<g id="Node000005" class="node">
<title>Node5</title>
<g id="a_Node000005"><a xlink:title=" ">
<polygon fill="#e0e0e0" stroke="#999999" points="225.38,-76 129.88,-76 129.88,-56 225.38,-56 225.38,-76"/>
<text text-anchor="middle" x="177.62" y="-62.5" font-family="Helvetica,sans-Serif" font-size="10.00">hardware/clocks.h</text>
</a>
</g>
</g>
<!-- Node2&#45;&gt;Node5 -->
<g id="edge4_Node000002_Node000005" class="edge">
<title>Node2&#45;&gt;Node5</title>
<g id="a_edge4_Node000002_Node000005"><a xlink:title=" ">
<path fill="none" stroke="#63b8ff" d="M426.92,-115.42C382.31,-106.76 295.4,-89.88 236.92,-78.52"/>
<polygon fill="#63b8ff" stroke="#63b8ff" points="237.59,-75.08 227.11,-76.61 236.26,-81.96 237.59,-75.08"/>
</a>
</g>
</g>
<!-- Node6 -->
<g id="Node000006" class="node">
<title>Node6</title>
<g id="a_Node000006"><a xlink:title=" ">
<polygon fill="#e0e0e0" stroke="#999999" points="331.62,-76 243.62,-76 243.62,-56 331.62,-56 331.62,-76"/>
<text text-anchor="middle" x="287.62" y="-62.5" font-family="Helvetica,sans-Serif" font-size="10.00">hardware/flash.h</text>
</a>
</g>
</g>
<!-- Node2&#45;&gt;Node6 -->
<g id="edge5_Node000002_Node000006" class="edge">
<title>Node2&#45;&gt;Node6</title>
<g id="a_edge5_Node000002_Node000006"><a xlink:title=" ">
<path fill="none" stroke="#63b8ff" d="M427.13,-111.84C399.86,-103.08 358.48,-89.77 327.86,-79.93"/>
<polygon fill="#63b8ff" stroke="#63b8ff" points="329.14,-76.67 318.55,-76.94 327,-83.33 329.14,-76.67"/>
</a>
</g>
</g>
<!-- Node7 -->
<g id="Node000007" class="node">
<title>Node7</title>
<g id="a_Node000007"><a xlink:title=" ">
<polygon fill="#e0e0e0" stroke="#999999" points="449.62,-76 349.62,-76 349.62,-56 449.62,-56 449.62,-76"/>
<text text-anchor="middle" x="399.62" y="-62.5" font-family="Helvetica,sans-Serif" font-size="10.00">blockdevice/flash.h</text>
</a>
</g>
</g>
<!-- Node2&#45;&gt;Node7 -->
<g id="edge6_Node000002_Node000007" class="edge">
<title>Node2&#45;&gt;Node7</title>
<g id="a_edge6_Node000002_Node000007"><a xlink:title=" ">
<path fill="none" stroke="#63b8ff" d="M445.87,-111.59C438,-104.01 426.73,-93.13 417.28,-84.02"/>
<polygon fill="#63b8ff" stroke="#63b8ff" points="419.99,-81.77 410.36,-77.35 415.13,-86.81 419.99,-81.77"/>
</a>
</g>
</g>
<!-- Node8 -->
<g id="Node000008" class="node">
<title>Node8</title>
<g id="a_Node000008"><a xlink:title=" ">
<polygon fill="#e0e0e0" stroke="#999999" points="557.38,-76 467.88,-76 467.88,-56 557.38,-56 557.38,-76"/>
<text text-anchor="middle" x="512.62" y="-62.5" font-family="Helvetica,sans-Serif" font-size="10.00">blockdevice/sd.h</text>
</a>
</g>
</g>
<!-- Node2&#45;&gt;Node8 -->
<g id="edge7_Node000002_Node000008" class="edge">
<title>Node2&#45;&gt;Node8</title>
<g id="a_edge7_Node000002_Node000008"><a xlink:title=" ">
<path fill="none" stroke="#63b8ff" d="M465.55,-111.59C473.56,-104.01 485.04,-93.13 494.66,-84.02"/>
<polygon fill="#63b8ff" stroke="#63b8ff" points="496.86,-86.76 501.71,-77.34 492.04,-81.68 496.86,-86.76"/>
</a>
</g>
</g>
<!-- Node9 -->
<g id="Node000009" class="node">
<title>Node9</title>
<g id="a_Node000009"><a xlink:title=" ">
<polygon fill="#e0e0e0" stroke="#999999" points="673.88,-76 575.38,-76 575.38,-56 673.88,-56 673.88,-76"/>
<text text-anchor="middle" x="624.62" y="-62.5" font-family="Helvetica,sans-Serif" font-size="10.00">filesystem/littlefs.h</text>
</a>
</g>
</g>
<!-- Node2&#45;&gt;Node9 -->
<g id="edge8_Node000002_Node000009" class="edge">
<title>Node2&#45;&gt;Node9</title>
<g id="a_edge8_Node000002_Node000009"><a xlink:title=" ">
<path fill="none" stroke="#63b8ff" d="M484.29,-111.84C511.72,-103.08 553.35,-89.77 584.15,-79.93"/>
<polygon fill="#63b8ff" stroke="#63b8ff" points="585.06,-83.32 593.52,-76.94 582.93,-76.65 585.06,-83.32"/>
</a>
</g>
</g>
<!-- Node10 -->
<g id="Node000010" class="node">
<title>Node10</title>
<g id="a_Node000010"><a xlink:title=" ">
<polygon fill="#e0e0e0" stroke="#999999" points="777.5,-76 691.75,-76 691.75,-56 777.5,-56 777.5,-76"/>
<text text-anchor="middle" x="734.62" y="-62.5" font-family="Helvetica,sans-Serif" font-size="10.00">filesystem/vfs.h</text>
</a>
</g>
</g>
<!-- Node2&#45;&gt;Node10 -->
<g id="edge9_Node000002_Node000010" class="edge">
<title>Node2&#45;&gt;Node10</title>
<g id="a_edge9_Node000002_Node000010"><a xlink:title=" ">
<path fill="none" stroke="#63b8ff" d="M484.27,-113.87C487.09,-113.22 489.91,-112.58 492.62,-112 527.56,-104.51 620.11,-87.6 680.11,-76.78"/>
<polygon fill="#63b8ff" stroke="#63b8ff" points="680.56,-80.25 689.78,-75.03 679.32,-73.36 680.56,-80.25"/>
</a>
</g>
</g>
<!-- Node11 -->
<g id="Node000011" class="node">
<title>Node11</title>
<g id="a_Node000011"><a xlink:href="pin__config_8h.html" target="_top" xlink:title=" ">
<polygon fill="white" stroke="#666666" points="863.88,-76 795.38,-76 795.38,-56 863.88,-56 863.88,-76"/>
<text text-anchor="middle" x="829.62" y="-62.5" font-family="Helvetica,sans-Serif" font-size="10.00">pin_config.h</text>
</a>
</g>
</g>
<!-- Node2&#45;&gt;Node11 -->
<g id="edge10_Node000002_Node000011" class="edge">
<title>Node2&#45;&gt;Node11</title>
<g id="a_edge10_Node000002_Node000011"><a xlink:title=" ">
<path fill="none" stroke="#63b8ff" d="M484.24,-113.69C487.06,-113.07 489.89,-112.5 492.62,-112 618.59,-89.05 654.79,-97.03 783.83,-76.34"/>
<polygon fill="#63b8ff" stroke="#63b8ff" points="784.14,-79.83 793.44,-74.77 783.01,-72.92 784.14,-79.83"/>
</a>
</g>
</g>
<!-- Node13 -->
<g id="Node000013" class="node">
<title>Node13</title>
<g id="a_Node000013"><a xlink:title=" ">
<polygon fill="#e0e0e0" stroke="#999999" points="917,-76 882.25,-76 882.25,-56 917,-56 917,-76"/>
<text text-anchor="middle" x="899.62" y="-62.5" font-family="Helvetica,sans-Serif" font-size="10.00">lfs.h</text>
</a>
</g>
</g>
<!-- Node2&#45;&gt;Node13 -->
<g id="edge12_Node000002_Node000013" class="edge">
<title>Node2&#45;&gt;Node13</title>
<g id="a_edge12_Node000002_Node000013"><a xlink:title=" ">
<path fill="none" stroke="#63b8ff" d="M484.22,-113.61C487.05,-113.01 489.89,-112.46 492.62,-112 656.33,-84.48 704.58,-109.91 870.66,-75.91"/>
<polygon fill="#63b8ff" stroke="#63b8ff" points="871.22,-79.37 880.29,-73.89 869.79,-72.52 871.22,-79.37"/>
</a>
</g>
</g>
<!-- Node12 -->
<g id="Node000012" class="node">
<title>Node12</title>
<g id="a_Node000012"><a xlink:title=" ">
<polygon fill="#e0e0e0" stroke="#999999" points="853.75,-20 805.5,-20 805.5,0 853.75,0 853.75,-20"/>
<text text-anchor="middle" x="829.62" y="-6.5" font-family="Helvetica,sans-Serif" font-size="10.00">stdint.h</text>
</a>
</g>
</g>
<!-- Node11&#45;&gt;Node12 -->
<g id="edge11_Node000011_Node000012" class="edge">
<title>Node11&#45;&gt;Node12</title>
<g id="a_edge11_Node000011_Node000012"><a xlink:title=" ">
<path fill="none" stroke="#63b8ff" d="M829.62,-55.59C829.62,-49.01 829.62,-39.96 829.62,-31.73"/>
<polygon fill="#63b8ff" stroke="#63b8ff" points="833.13,-31.81 829.63,-21.81 826.13,-31.81 833.13,-31.81"/>
</a>
</g>
</g>
</g>
</svg>
