<?xml version="1.0" encoding="UTF-8" standalone="no"?>
<!DOCTYPE svg PUBLIC "-//W3C//DTD SVG 1.1//EN"
 "http://www.w3.org/Graphics/SVG/1.1/DTD/svg11.dtd">
<!-- Generated by graphviz version 12.2.1 (20241206.2353)
 -->
<!-- Title: lib/storage/storage.h Pages: 1 -->
<svg width="925pt" height="140pt"
 viewBox="0.00 0.00 925.00 140.00" xmlns="http://www.w3.org/2000/svg" xmlns:xlink="http://www.w3.org/1999/xlink">
<g id="graph0" class="graph" transform="scale(1 1) rotate(0) translate(4 136)">
<title>lib/storage/storage.h</title>
<!-- Node1 -->
<g id="Node000001" class="node">
<title>Node1</title>
<g id="a_Node000001"><a xlink:title=" ">
<polygon fill="#999999" stroke="#666666" points="507.88,-132 403.38,-132 403.38,-112 507.88,-112 507.88,-132"/>
<text text-anchor="middle" x="455.62" y="-118.5" font-family="Helvetica,sans-Serif" font-size="10.00">lib/storage/storage.h</text>
</a>
</g>
</g>
<!-- Node2 -->
<g id="Node000002" class="node">
<title>Node2</title>
<g id="a_Node000002"><a xlink:title=" ">
<polygon fill="#e0e0e0" stroke="#999999" points="45.25,-76 0,-76 0,-56 45.25,-56 45.25,-76"/>
<text text-anchor="middle" x="22.62" y="-62.5" font-family="Helvetica,sans-Serif" font-size="10.00">stdio.h</text>
</a>
</g>
</g>
<!-- Node1&#45;&gt;Node2 -->
<g id="edge1_Node000001_Node000002" class="edge">
<title>Node1&#45;&gt;Node2</title>
<g id="a_edge1_Node000001_Node000002"><a xlink:title=" ">
<path fill="none" stroke="#63b8ff" d="M402.98,-117.83C328.13,-112.72 186.52,-100.85 56.89,-76.13"/>
<polygon fill="#63b8ff" stroke="#63b8ff" points="57.56,-72.7 47.08,-74.23 56.23,-79.57 57.56,-72.7"/>
</a>
</g>
</g>
<!-- Node3 -->
<g id="Node000003" class="node">
<title>Node3</title>
<g id="a_Node000003"><a xlink:title=" ">
<polygon fill="#e0e0e0" stroke="#999999" points="111.75,-76 63.5,-76 63.5,-56 111.75,-56 111.75,-76"/>
<text text-anchor="middle" x="87.62" y="-62.5" font-family="Helvetica,sans-Serif" font-size="10.00">string.h</text>
</a>
</g>
</g>
<!-- Node1&#45;&gt;Node3 -->
<g id="edge2_Node000001_Node000003" class="edge">
<title>Node1&#45;&gt;Node3</title>
<g id="a_edge2_Node000001_Node000003"><a xlink:title=" ">
<path fill="none" stroke="#63b8ff" d="M403.04,-116.12C339.03,-109.69 227.5,-96.95 123.1,-76.27"/>
<polygon fill="#63b8ff" stroke="#63b8ff" points="124.02,-72.89 113.53,-74.35 122.64,-79.75 124.02,-72.89"/>
</a>
</g>
</g>
<!-- Node4 -->
<g id="Node000004" class="node">
<title>Node4</title>
<g id="a_Node000004"><a xlink:title=" ">
<polygon fill="#e0e0e0" stroke="#999999" points="225.38,-76 129.88,-76 129.88,-56 225.38,-56 225.38,-76"/>
<text text-anchor="middle" x="177.62" y="-62.5" font-family="Helvetica,sans-Serif" font-size="10.00">hardware/clocks.h</text>
</a>
</g>
</g>
<!-- Node1&#45;&gt;Node4 -->
<g id="edge3_Node000001_Node000004" class="edge">
<title>Node1&#45;&gt;Node4</title>
<g id="a_edge3_Node000001_Node000004"><a xlink:title=" ">
<path fill="none" stroke="#63b8ff" d="M406.88,-111.53C359.54,-102.34 287.59,-88.36 236.95,-78.52"/>
<polygon fill="#63b8ff" stroke="#63b8ff" points="237.81,-75.13 227.33,-76.66 236.48,-82 237.81,-75.13"/>
</a>
</g>
</g>
<!-- Node5 -->
<g id="Node000005" class="node">
<title>Node5</title>
<g id="a_Node000005"><a xlink:title=" ">
<polygon fill="#e0e0e0" stroke="#999999" points="331.62,-76 243.62,-76 243.62,-56 331.62,-56 331.62,-76"/>
<text text-anchor="middle" x="287.62" y="-62.5" font-family="Helvetica,sans-Serif" font-size="10.00">hardware/flash.h</text>
</a>
</g>
</g>
<!-- Node1&#45;&gt;Node5 -->
<g id="edge4_Node000001_Node000005" class="edge">
<title>Node1&#45;&gt;Node5</title>
<g id="a_edge4_Node000001_Node000005"><a xlink:title=" ">
<path fill="none" stroke="#63b8ff" d="M426.36,-111.59C399.07,-102.82 358.11,-89.66 327.77,-79.9"/>
<polygon fill="#63b8ff" stroke="#63b8ff" points="329.15,-76.67 318.56,-76.94 327.01,-83.33 329.15,-76.67"/>
</a>
</g>
</g>
<!-- Node6 -->
<g id="Node000006" class="node">
<title>Node6</title>
<g id="a_Node000006"><a xlink:title=" ">
<polygon fill="#e0e0e0" stroke="#999999" points="449.62,-76 349.62,-76 349.62,-56 449.62,-56 449.62,-76"/>
<text text-anchor="middle" x="399.62" y="-62.5" font-family="Helvetica,sans-Serif" font-size="10.00">blockdevice/flash.h</text>
</a>
</g>
</g>
<!-- Node1&#45;&gt;Node6 -->
<g id="edge5_Node000001_Node000006" class="edge">
<title>Node1&#45;&gt;Node6</title>
<g id="a_edge5_Node000001_Node000006"><a xlink:title=" ">
<path fill="none" stroke="#63b8ff" d="M445.87,-111.59C438,-104.01 426.73,-93.13 417.28,-84.02"/>
<polygon fill="#63b8ff" stroke="#63b8ff" points="419.99,-81.77 410.36,-77.35 415.13,-86.81 419.99,-81.77"/>
</a>
</g>
</g>
<!-- Node7 -->
<g id="Node000007" class="node">
<title>Node7</title>
<g id="a_Node000007"><a xlink:title=" ">
<polygon fill="#e0e0e0" stroke="#999999" points="557.38,-76 467.88,-76 467.88,-56 557.38,-56 557.38,-76"/>
<text text-anchor="middle" x="512.62" y="-62.5" font-family="Helvetica,sans-Serif" font-size="10.00">blockdevice/sd.h</text>
</a>
</g>
</g>
<!-- Node1&#45;&gt;Node7 -->
<g id="edge6_Node000001_Node000007" class="edge">
<title>Node1&#45;&gt;Node7</title>
<g id="a_edge6_Node000001_Node000007"><a xlink:title=" ">
<path fill="none" stroke="#63b8ff" d="M465.55,-111.59C473.56,-104.01 485.04,-93.13 494.66,-84.02"/>
<polygon fill="#63b8ff" stroke="#63b8ff" points="496.86,-86.76 501.71,-77.34 492.04,-81.68 496.86,-86.76"/>
</a>
</g>
</g>
<!-- Node8 -->
<g id="Node000008" class="node">
<title>Node8</title>
<g id="a_Node000008"><a xlink:title=" ">
<polygon fill="#e0e0e0" stroke="#999999" points="673.88,-76 575.38,-76 575.38,-56 673.88,-56 673.88,-76"/>
<text text-anchor="middle" x="624.62" y="-62.5" font-family="Helvetica,sans-Serif" font-size="10.00">filesystem/littlefs.h</text>
</a>
</g>
</g>
<!-- Node1&#45;&gt;Node8 -->
<g id="edge7_Node000001_Node000008" class="edge">
<title>Node1&#45;&gt;Node8</title>
<g id="a_edge7_Node000001_Node000008"><a xlink:title=" ">
<path fill="none" stroke="#63b8ff" d="M485.06,-111.59C512.52,-102.82 553.72,-89.66 584.24,-79.9"/>
<polygon fill="#63b8ff" stroke="#63b8ff" points="585.06,-83.32 593.52,-76.94 582.93,-76.65 585.06,-83.32"/>
</a>
</g>
</g>
<!-- Node9 -->
<g id="Node000009" class="node">
<title>Node9</title>
<g id="a_Node000009"><a xlink:title=" ">
<polygon fill="#e0e0e0" stroke="#999999" points="777.5,-76 691.75,-76 691.75,-56 777.5,-56 777.5,-76"/>
<text text-anchor="middle" x="734.62" y="-62.5" font-family="Helvetica,sans-Serif" font-size="10.00">filesystem/vfs.h</text>
</a>
</g>
</g>
<!-- Node1&#45;&gt;Node9 -->
<g id="edge8_Node000001_Node000009" class="edge">
<title>Node1&#45;&gt;Node9</title>
<g id="a_edge8_Node000001_Node000009"><a xlink:title=" ">
<path fill="none" stroke="#63b8ff" d="M504.54,-111.53C553.65,-102.03 629.15,-87.42 680.14,-77.55"/>
<polygon fill="#63b8ff" stroke="#63b8ff" points="680.63,-81.02 689.78,-75.68 679.3,-74.14 680.63,-81.02"/>
</a>
</g>
</g>
<!-- Node10 -->
<g id="Node000010" class="node">
<title>Node10</title>
<g id="a_Node000010"><a xlink:href="pin__config_8h.html" target="_top" xlink:title=" ">
<polygon fill="white" stroke="#666666" points="863.88,-76 795.38,-76 795.38,-56 863.88,-56 863.88,-76"/>
<text text-anchor="middle" x="829.62" y="-62.5" font-family="Helvetica,sans-Serif" font-size="10.00">pin_config.h</text>
</a>
</g>
</g>
<!-- Node1&#45;&gt;Node10 -->
<g id="edge9_Node000001_Node000010" class="edge">
<title>Node1&#45;&gt;Node10</title>
<g id="a_edge9_Node000001_Node000010"><a xlink:title=" ">
<path fill="none" stroke="#63b8ff" d="M508.26,-115.02C571.4,-107.58 680.73,-93.88 783.7,-76.41"/>
<polygon fill="#63b8ff" stroke="#63b8ff" points="784.18,-79.88 793.44,-74.74 782.99,-72.98 784.18,-79.88"/>
</a>
</g>
</g>
<!-- Node12 -->
<g id="Node000012" class="node">
<title>Node12</title>
<g id="a_Node000012"><a xlink:title=" ">
<polygon fill="#e0e0e0" stroke="#999999" points="917,-76 882.25,-76 882.25,-56 917,-56 917,-76"/>
<text text-anchor="middle" x="899.62" y="-62.5" font-family="Helvetica,sans-Serif" font-size="10.00">lfs.h</text>
</a>
</g>
</g>
<!-- Node1&#45;&gt;Node12 -->
<g id="edge11_Node000001_Node000012" class="edge">
<title>Node1&#45;&gt;Node12</title>
<g id="a_edge11_Node000001_Node000012"><a xlink:title=" ">
<path fill="none" stroke="#63b8ff" d="M508.21,-118.94C585.76,-115.11 735.34,-104.72 870.79,-75.93"/>
<polygon fill="#63b8ff" stroke="#63b8ff" points="871.26,-79.41 880.29,-73.87 869.77,-72.57 871.26,-79.41"/>
</a>
</g>
</g>
<!-- Node11 -->
<g id="Node000011" class="node">
<title>Node11</title>
<g id="a_Node000011"><a xlink:title=" ">
<polygon fill="#e0e0e0" stroke="#999999" points="853.75,-20 805.5,-20 805.5,0 853.75,0 853.75,-20"/>
<text text-anchor="middle" x="829.62" y="-6.5" font-family="Helvetica,sans-Serif" font-size="10.00">stdint.h</text>
</a>
</g>
</g>
<!-- Node10&#45;&gt;Node11 -->
<g id="edge10_Node000010_Node000011" class="edge">
<title>Node10&#45;&gt;Node11</title>
<g id="a_edge10_Node000010_Node000011"><a xlink:title=" ">
<path fill="none" stroke="#63b8ff" d="M829.62,-55.59C829.62,-49.01 829.62,-39.96 829.62,-31.73"/>
<polygon fill="#63b8ff" stroke="#63b8ff" points="833.13,-31.81 829.63,-21.81 826.13,-31.81 833.13,-31.81"/>
</a>
</g>
</g>
</g>
</svg>
