<?xml version="1.0" encoding="UTF-8" standalone="no"?>
<!DOCTYPE svg PUBLIC "-//W3C//DTD SVG 1.1//EN"
 "http://www.w3.org/Graphics/SVG/1.1/DTD/svg11.dtd">
<!-- Generated by graphviz version 12.2.1 (20241206.2353)
 -->
<!-- Title: lib/storage/storage.cpp Pages: 1 -->
<svg width="1271pt" height="196pt"
 viewBox="0.00 0.00 1271.25 196.00" xmlns="http://www.w3.org/2000/svg" xmlns:xlink="http://www.w3.org/1999/xlink">
<g id="graph0" class="graph" transform="scale(1 1) rotate(0) translate(4 192)">
<title>lib/storage/storage.cpp</title>
<!-- Node1 -->
<g id="Node000001" class="node">
<title>Node1</title>
<g id="a_Node000001"><a xlink:title="Implements file system operations for the Kubisat firmware.">
<polygon fill="#999999" stroke="#666666" points="692.5,-188 577.5,-188 577.5,-168 692.5,-168 692.5,-188"/>
<text text-anchor="middle" x="635" y="-174.5" font-family="Helvetica,sans-Serif" font-size="10.00">lib/storage/storage.cpp</text>
</a>
</g>
</g>
<!-- Node2 -->
<g id="Node000002" class="node">
<title>Node2</title>
<g id="a_Node000002"><a xlink:href="storage_8h.html" target="_top" xlink:title=" ">
<polygon fill="white" stroke="#666666" points="663.25,-132 606.75,-132 606.75,-112 663.25,-112 663.25,-132"/>
<text text-anchor="middle" x="635" y="-118.5" font-family="Helvetica,sans-Serif" font-size="10.00">storage.h</text>
</a>
</g>
</g>
<!-- Node1&#45;&gt;Node2 -->
<g id="edge1_Node000001_Node000002" class="edge">
<title>Node1&#45;&gt;Node2</title>
<g id="a_edge1_Node000001_Node000002"><a xlink:title=" ">
<path fill="none" stroke="#63b8ff" d="M635,-167.59C635,-161.01 635,-151.96 635,-143.73"/>
<polygon fill="#63b8ff" stroke="#63b8ff" points="638.5,-143.81 635,-133.81 631.5,-143.81 638.5,-143.81"/>
</a>
</g>
</g>
<!-- Node15 -->
<g id="Node000015" class="node">
<title>Node15</title>
<g id="a_Node000015"><a xlink:title=" ">
<polygon fill="#e0e0e0" stroke="#999999" points="727,-132 681,-132 681,-112 727,-112 727,-132"/>
<text text-anchor="middle" x="704" y="-118.5" font-family="Helvetica,sans-Serif" font-size="10.00">errno.h</text>
</a>
</g>
</g>
<!-- Node1&#45;&gt;Node15 -->
<g id="edge14_Node000001_Node000015" class="edge">
<title>Node1&#45;&gt;Node15</title>
<g id="a_edge14_Node000001_Node000015"><a xlink:title=" ">
<path fill="none" stroke="#63b8ff" d="M647.02,-167.59C657.01,-159.77 671.46,-148.46 683.31,-139.19"/>
<polygon fill="#63b8ff" stroke="#63b8ff" points="685.21,-142.15 690.93,-133.23 680.89,-136.64 685.21,-142.15"/>
</a>
</g>
</g>
<!-- Node16 -->
<g id="Node000016" class="node">
<title>Node16</title>
<g id="a_Node000016"><a xlink:href="utils_8h.html" target="_top" xlink:title=" ">
<polygon fill="white" stroke="#666666" points="248.12,-132 205.88,-132 205.88,-112 248.12,-112 248.12,-132"/>
<text text-anchor="middle" x="227" y="-118.5" font-family="Helvetica,sans-Serif" font-size="10.00">utils.h</text>
</a>
</g>
</g>
<!-- Node1&#45;&gt;Node16 -->
<g id="edge15_Node000001_Node000016" class="edge">
<title>Node1&#45;&gt;Node16</title>
<g id="a_edge15_Node000001_Node000016"><a xlink:title=" ">
<path fill="none" stroke="#63b8ff" d="M577.41,-169.38C490.41,-157.86 328.31,-136.41 259.37,-127.28"/>
<polygon fill="#63b8ff" stroke="#63b8ff" points="260.25,-123.87 249.87,-126.03 259.33,-130.81 260.25,-123.87"/>
</a>
</g>
</g>
<!-- Node3 -->
<g id="Node000003" class="node">
<title>Node3</title>
<g id="a_Node000003"><a xlink:title=" ">
<polygon fill="#e0e0e0" stroke="#999999" points="290.62,-76 245.38,-76 245.38,-56 290.62,-56 290.62,-76"/>
<text text-anchor="middle" x="268" y="-62.5" font-family="Helvetica,sans-Serif" font-size="10.00">stdio.h</text>
</a>
</g>
</g>
<!-- Node2&#45;&gt;Node3 -->
<g id="edge2_Node000002_Node000003" class="edge">
<title>Node2&#45;&gt;Node3</title>
<g id="a_edge2_Node000002_Node000003"><a xlink:title=" ">
<path fill="none" stroke="#63b8ff" d="M606.54,-118.54C550.23,-113.38 420.52,-100.06 302.04,-76.15"/>
<polygon fill="#63b8ff" stroke="#63b8ff" points="302.96,-72.77 292.46,-74.18 301.55,-79.62 302.96,-72.77"/>
</a>
</g>
</g>
<!-- Node4 -->
<g id="Node000004" class="node">
<title>Node4</title>
<g id="a_Node000004"><a xlink:title=" ">
<polygon fill="#e0e0e0" stroke="#999999" points="701.12,-76 652.88,-76 652.88,-56 701.12,-56 701.12,-76"/>
<text text-anchor="middle" x="677" y="-62.5" font-family="Helvetica,sans-Serif" font-size="10.00">string.h</text>
</a>
</g>
</g>
<!-- Node2&#45;&gt;Node4 -->
<g id="edge3_Node000002_Node000004" class="edge">
<title>Node2&#45;&gt;Node4</title>
<g id="a_edge3_Node000002_Node000004"><a xlink:title=" ">
<path fill="none" stroke="#63b8ff" d="M642.32,-111.59C647.98,-104.32 655.99,-94.02 662.89,-85.15"/>
<polygon fill="#63b8ff" stroke="#63b8ff" points="665.46,-87.54 668.84,-77.49 659.94,-83.24 665.46,-87.54"/>
</a>
</g>
</g>
<!-- Node5 -->
<g id="Node000005" class="node">
<title>Node5</title>
<g id="a_Node000005"><a xlink:title=" ">
<polygon fill="#e0e0e0" stroke="#999999" points="814.75,-76 719.25,-76 719.25,-56 814.75,-56 814.75,-76"/>
<text text-anchor="middle" x="767" y="-62.5" font-family="Helvetica,sans-Serif" font-size="10.00">hardware/clocks.h</text>
</a>
</g>
</g>
<!-- Node2&#45;&gt;Node5 -->
<g id="edge4_Node000002_Node000005" class="edge">
<title>Node2&#45;&gt;Node5</title>
<g id="a_edge4_Node000002_Node000005"><a xlink:title=" ">
<path fill="none" stroke="#63b8ff" d="M657.99,-111.59C678.78,-103.09 709.65,-90.46 733.24,-80.81"/>
<polygon fill="#63b8ff" stroke="#63b8ff" points="734.5,-84.08 742.43,-77.05 731.85,-77.6 734.5,-84.08"/>
</a>
</g>
</g>
<!-- Node6 -->
<g id="Node000006" class="node">
<title>Node6</title>
<g id="a_Node000006"><a xlink:title=" ">
<polygon fill="#e0e0e0" stroke="#999999" points="921,-76 833,-76 833,-56 921,-56 921,-76"/>
<text text-anchor="middle" x="877" y="-62.5" font-family="Helvetica,sans-Serif" font-size="10.00">hardware/flash.h</text>
</a>
</g>
</g>
<!-- Node2&#45;&gt;Node6 -->
<g id="edge5_Node000002_Node000006" class="edge">
<title>Node2&#45;&gt;Node6</title>
<g id="a_edge5_Node000002_Node000006"><a xlink:title=" ">
<path fill="none" stroke="#63b8ff" d="M663.67,-113.96C666.48,-113.29 669.29,-112.63 672,-112 722.46,-100.33 780.08,-87.74 821.36,-78.86"/>
<polygon fill="#63b8ff" stroke="#63b8ff" points="822.03,-82.3 831.07,-76.77 820.56,-75.45 822.03,-82.3"/>
</a>
</g>
</g>
<!-- Node7 -->
<g id="Node000007" class="node">
<title>Node7</title>
<g id="a_Node000007"><a xlink:title=" ">
<polygon fill="#e0e0e0" stroke="#999999" points="1039,-76 939,-76 939,-56 1039,-56 1039,-76"/>
<text text-anchor="middle" x="989" y="-62.5" font-family="Helvetica,sans-Serif" font-size="10.00">blockdevice/flash.h</text>
</a>
</g>
</g>
<!-- Node2&#45;&gt;Node7 -->
<g id="edge6_Node000002_Node000007" class="edge">
<title>Node2&#45;&gt;Node7</title>
<g id="a_edge6_Node000002_Node000007"><a xlink:title=" ">
<path fill="none" stroke="#63b8ff" d="M663.62,-113.74C666.44,-113.11 669.27,-112.52 672,-112 782.17,-90.97 813.5,-92.6 927.5,-76.33"/>
<polygon fill="#63b8ff" stroke="#63b8ff" points="927.9,-79.81 937.3,-74.92 926.9,-72.88 927.9,-79.81"/>
</a>
</g>
</g>
<!-- Node8 -->
<g id="Node000008" class="node">
<title>Node8</title>
<g id="a_Node000008"><a xlink:title=" ">
<polygon fill="#e0e0e0" stroke="#999999" points="1146.75,-76 1057.25,-76 1057.25,-56 1146.75,-56 1146.75,-76"/>
<text text-anchor="middle" x="1102" y="-62.5" font-family="Helvetica,sans-Serif" font-size="10.00">blockdevice/sd.h</text>
</a>
</g>
</g>
<!-- Node2&#45;&gt;Node8 -->
<g id="edge7_Node000002_Node000008" class="edge">
<title>Node2&#45;&gt;Node8</title>
<g id="a_edge7_Node000002_Node000008"><a xlink:title=" ">
<path fill="none" stroke="#63b8ff" d="M663.6,-113.61C666.43,-113.01 669.26,-112.46 672,-112 833.98,-84.69 879.6,-97.24 1045.83,-76.19"/>
<polygon fill="#63b8ff" stroke="#63b8ff" points="1045.98,-79.69 1055.45,-74.94 1045.09,-72.75 1045.98,-79.69"/>
</a>
</g>
</g>
<!-- Node9 -->
<g id="Node000009" class="node">
<title>Node9</title>
<g id="a_Node000009"><a xlink:title=" ">
<polygon fill="#e0e0e0" stroke="#999999" points="1263.25,-76 1164.75,-76 1164.75,-56 1263.25,-56 1263.25,-76"/>
<text text-anchor="middle" x="1214" y="-62.5" font-family="Helvetica,sans-Serif" font-size="10.00">filesystem/littlefs.h</text>
</a>
</g>
</g>
<!-- Node2&#45;&gt;Node9 -->
<g id="edge8_Node000002_Node000009" class="edge">
<title>Node2&#45;&gt;Node9</title>
<g id="a_edge8_Node000002_Node000009"><a xlink:title=" ">
<path fill="none" stroke="#63b8ff" d="M663.59,-113.55C666.42,-112.97 669.26,-112.43 672,-112 881.43,-78.97 939.72,-99.82 1153.09,-76.24"/>
<polygon fill="#63b8ff" stroke="#63b8ff" points="1153.31,-79.74 1162.86,-75.14 1152.53,-72.78 1153.31,-79.74"/>
</a>
</g>
</g>
<!-- Node10 -->
<g id="Node000010" class="node">
<title>Node10</title>
<g id="a_Node000010"><a xlink:title=" ">
<polygon fill="#e0e0e0" stroke="#999999" points="480.88,-76 395.12,-76 395.12,-56 480.88,-56 480.88,-76"/>
<text text-anchor="middle" x="438" y="-62.5" font-family="Helvetica,sans-Serif" font-size="10.00">filesystem/vfs.h</text>
</a>
</g>
</g>
<!-- Node2&#45;&gt;Node10 -->
<g id="edge9_Node000002_Node000010" class="edge">
<title>Node2&#45;&gt;Node10</title>
<g id="a_edge9_Node000002_Node000010"><a xlink:title=" ">
<path fill="none" stroke="#63b8ff" d="M606.35,-113.15C574.11,-104.31 521.28,-89.83 483.4,-79.45"/>
<polygon fill="#63b8ff" stroke="#63b8ff" points="484.69,-76.17 474.12,-76.9 482.84,-82.92 484.69,-76.17"/>
</a>
</g>
</g>
<!-- Node11 -->
<g id="Node000011" class="node">
<title>Node11</title>
<g id="a_Node000011"><a xlink:href="pin__config_8h.html" target="_top" xlink:title=" ">
<polygon fill="white" stroke="#666666" points="377.25,-76 308.75,-76 308.75,-56 377.25,-56 377.25,-76"/>
<text text-anchor="middle" x="343" y="-62.5" font-family="Helvetica,sans-Serif" font-size="10.00">pin_config.h</text>
</a>
</g>
</g>
<!-- Node2&#45;&gt;Node11 -->
<g id="edge10_Node000002_Node000011" class="edge">
<title>Node2&#45;&gt;Node11</title>
<g id="a_edge10_Node000002_Node000011"><a xlink:title=" ">
<path fill="none" stroke="#63b8ff" d="M606.57,-116.12C562.23,-108.46 473.62,-92.93 388.84,-76.51"/>
<polygon fill="#63b8ff" stroke="#63b8ff" points="389.69,-73.11 379.2,-74.64 388.35,-79.99 389.69,-73.11"/>
</a>
</g>
</g>
<!-- Node13 -->
<g id="Node000013" class="node">
<title>Node13</title>
<g id="a_Node000013"><a xlink:title=" ">
<polygon fill="#e0e0e0" stroke="#999999" points="533.38,-76 498.62,-76 498.62,-56 533.38,-56 533.38,-76"/>
<text text-anchor="middle" x="516" y="-62.5" font-family="Helvetica,sans-Serif" font-size="10.00">lfs.h</text>
</a>
</g>
</g>
<!-- Node2&#45;&gt;Node13 -->
<g id="edge12_Node000002_Node000013" class="edge">
<title>Node2&#45;&gt;Node13</title>
<g id="a_edge12_Node000002_Node000013"><a xlink:title=" ">
<path fill="none" stroke="#63b8ff" d="M614.27,-111.59C594.88,-102.79 565.75,-89.58 544.24,-79.81"/>
<polygon fill="#63b8ff" stroke="#63b8ff" points="545.71,-76.64 535.15,-75.69 542.81,-83.01 545.71,-76.64"/>
</a>
</g>
</g>
<!-- Node14 -->
<g id="Node000014" class="node">
<title>Node14</title>
<g id="a_Node000014"><a xlink:title=" ">
<polygon fill="#e0e0e0" stroke="#999999" points="634.75,-76 551.25,-76 551.25,-56 634.75,-56 634.75,-76"/>
<text text-anchor="middle" x="593" y="-62.5" font-family="Helvetica,sans-Serif" font-size="10.00">filesystem/fat.h</text>
</a>
</g>
</g>
<!-- Node2&#45;&gt;Node14 -->
<g id="edge13_Node000002_Node000014" class="edge">
<title>Node2&#45;&gt;Node14</title>
<g id="a_edge13_Node000002_Node000014"><a xlink:title=" ">
<path fill="none" stroke="#63b8ff" d="M627.68,-111.59C622.02,-104.32 614.01,-94.02 607.11,-85.15"/>
<polygon fill="#63b8ff" stroke="#63b8ff" points="610.06,-83.24 601.16,-77.49 604.54,-87.54 610.06,-83.24"/>
</a>
</g>
</g>
<!-- Node12 -->
<g id="Node000012" class="node">
<title>Node12</title>
<g id="a_Node000012"><a xlink:title=" ">
<polygon fill="#e0e0e0" stroke="#999999" points="367.12,-20 318.88,-20 318.88,0 367.12,0 367.12,-20"/>
<text text-anchor="middle" x="343" y="-6.5" font-family="Helvetica,sans-Serif" font-size="10.00">stdint.h</text>
</a>
</g>
</g>
<!-- Node11&#45;&gt;Node12 -->
<g id="edge11_Node000011_Node000012" class="edge">
<title>Node11&#45;&gt;Node12</title>
<g id="a_edge11_Node000011_Node000012"><a xlink:title=" ">
<path fill="none" stroke="#63b8ff" d="M343,-55.59C343,-49.01 343,-39.96 343,-31.73"/>
<polygon fill="#63b8ff" stroke="#63b8ff" points="346.5,-31.81 343,-21.81 339.5,-31.81 346.5,-31.81"/>
</a>
</g>
</g>
<!-- Node16&#45;&gt;Node3 -->
<g id="edge16_Node000016_Node000003" class="edge">
<title>Node16&#45;&gt;Node3</title>
<g id="a_edge16_Node000016_Node000003"><a xlink:title=" ">
<path fill="none" stroke="#63b8ff" d="M234.14,-111.59C239.61,-104.39 247.32,-94.23 254.01,-85.43"/>
<polygon fill="#63b8ff" stroke="#63b8ff" points="256.77,-87.58 260.02,-77.5 251.19,-83.35 256.77,-87.58"/>
</a>
</g>
</g>
<!-- Node16&#45;&gt;Node11 -->
<g id="edge20_Node000016_Node000011" class="edge">
<title>Node16&#45;&gt;Node11</title>
<g id="a_edge20_Node000016_Node000011"><a xlink:title=" ">
<path fill="none" stroke="#63b8ff" d="M247.21,-111.59C265.23,-103.21 291.87,-90.8 312.48,-81.21"/>
<polygon fill="#63b8ff" stroke="#63b8ff" points="313.68,-84.51 321.26,-77.12 310.72,-78.17 313.68,-84.51"/>
</a>
</g>
</g>
<!-- Node17 -->
<g id="Node000017" class="node">
<title>Node17</title>
<g id="a_Node000017"><a xlink:title=" ">
<polygon fill="#e0e0e0" stroke="#999999" points="40,-76 0,-76 0,-56 40,-56 40,-76"/>
<text text-anchor="middle" x="20" y="-62.5" font-family="Helvetica,sans-Serif" font-size="10.00">string</text>
</a>
</g>
</g>
<!-- Node16&#45;&gt;Node17 -->
<g id="edge17_Node000016_Node000017" class="edge">
<title>Node16&#45;&gt;Node17</title>
<g id="a_edge17_Node000016_Node000017"><a xlink:title=" ">
<path fill="none" stroke="#63b8ff" d="M205.53,-115.96C173.88,-108.46 112.61,-93.61 51.28,-76.53"/>
<polygon fill="#63b8ff" stroke="#63b8ff" points="52.27,-73.17 41.7,-73.84 50.38,-79.91 52.27,-73.17"/>
</a>
</g>
</g>
<!-- Node18 -->
<g id="Node000018" class="node">
<title>Node18</title>
<g id="a_Node000018"><a xlink:title=" ">
<polygon fill="#e0e0e0" stroke="#999999" points="126.25,-76 57.75,-76 57.75,-56 126.25,-56 126.25,-76"/>
<text text-anchor="middle" x="92" y="-62.5" font-family="Helvetica,sans-Serif" font-size="10.00">pico/stdlib.h</text>
</a>
</g>
</g>
<!-- Node16&#45;&gt;Node18 -->
<g id="edge18_Node000016_Node000018" class="edge">
<title>Node16&#45;&gt;Node18</title>
<g id="a_edge18_Node000016_Node000018"><a xlink:title=" ">
<path fill="none" stroke="#63b8ff" d="M205.61,-112.44C184.24,-103.89 151.05,-90.62 126.05,-80.62"/>
<polygon fill="#63b8ff" stroke="#63b8ff" points="127.55,-77.45 116.97,-76.99 124.95,-83.95 127.55,-77.45"/>
</a>
</g>
</g>
<!-- Node19 -->
<g id="Node000019" class="node">
<title>Node19</title>
<g id="a_Node000019"><a xlink:title=" ">
<polygon fill="#e0e0e0" stroke="#999999" points="227.75,-76 144.25,-76 144.25,-56 227.75,-56 227.75,-76"/>
<text text-anchor="middle" x="186" y="-62.5" font-family="Helvetica,sans-Serif" font-size="10.00">hardware/uart.h</text>
</a>
</g>
</g>
<!-- Node16&#45;&gt;Node19 -->
<g id="edge19_Node000016_Node000019" class="edge">
<title>Node16&#45;&gt;Node19</title>
<g id="a_edge19_Node000016_Node000019"><a xlink:title=" ">
<path fill="none" stroke="#63b8ff" d="M219.86,-111.59C214.39,-104.39 206.68,-94.23 199.99,-85.43"/>
<polygon fill="#63b8ff" stroke="#63b8ff" points="202.81,-83.35 193.98,-77.5 197.23,-87.58 202.81,-83.35"/>
</a>
</g>
</g>
</g>
</svg>
