<?xml version="1.0" encoding="UTF-8" standalone="no"?>
<!DOCTYPE svg PUBLIC "-//W3C//DTD SVG 1.1//EN"
 "http://www.w3.org/Graphics/SVG/1.1/DTD/svg11.dtd">
<!-- Generated by graphviz version 12.2.1 (20241206.2353)
 -->
<!-- Title: lib/storage/storage.h Pages: 1 -->
<svg width="1026pt" height="140pt"
 viewBox="0.00 0.00 1026.38 140.00" xmlns="http://www.w3.org/2000/svg" xmlns:xlink="http://www.w3.org/1999/xlink">
<g id="graph0" class="graph" transform="scale(1 1) rotate(0) translate(4 136)">
<title>lib/storage/storage.h</title>
<!-- Node1 -->
<g id="Node000001" class="node">
<title>Node1</title>
<g id="a_Node000001"><a xlink:title=" ">
<polygon fill="#999999" stroke="#666666" points="564.88,-132 460.38,-132 460.38,-112 564.88,-112 564.88,-132"/>
<text text-anchor="middle" x="512.62" y="-118.5" font-family="Helvetica,sans-Serif" font-size="10.00">lib/storage/storage.h</text>
</a>
</g>
</g>
<!-- Node2 -->
<g id="Node000002" class="node">
<title>Node2</title>
<g id="a_Node000002"><a xlink:title=" ">
<polygon fill="#e0e0e0" stroke="#999999" points="45.25,-76 0,-76 0,-56 45.25,-56 45.25,-76"/>
<text text-anchor="middle" x="22.62" y="-62.5" font-family="Helvetica,sans-Serif" font-size="10.00">stdio.h</text>
</a>
</g>
</g>
<!-- Node1&#45;&gt;Node2 -->
<g id="edge1_Node000001_Node000002" class="edge">
<title>Node1&#45;&gt;Node2</title>
<g id="a_edge1_Node000001_Node000002"><a xlink:title=" ">
<path fill="none" stroke="#63b8ff" d="M460,-118.85C376.39,-114.76 208.01,-103.87 56.46,-76.01"/>
<polygon fill="#63b8ff" stroke="#63b8ff" points="57.54,-72.66 47.07,-74.26 56.26,-79.54 57.54,-72.66"/>
</a>
</g>
</g>
<!-- Node3 -->
<g id="Node000003" class="node">
<title>Node3</title>
<g id="a_Node000003"><a xlink:title=" ">
<polygon fill="#e0e0e0" stroke="#999999" points="111.75,-76 63.5,-76 63.5,-56 111.75,-56 111.75,-76"/>
<text text-anchor="middle" x="87.62" y="-62.5" font-family="Helvetica,sans-Serif" font-size="10.00">string.h</text>
</a>
</g>
</g>
<!-- Node1&#45;&gt;Node3 -->
<g id="edge2_Node000001_Node000003" class="edge">
<title>Node1&#45;&gt;Node3</title>
<g id="a_edge2_Node000001_Node000003"><a xlink:title=" ">
<path fill="none" stroke="#63b8ff" d="M459.93,-117.51C386.45,-112.07 248.93,-99.88 123.01,-76.2"/>
<polygon fill="#63b8ff" stroke="#63b8ff" points="124,-72.83 113.52,-74.39 122.69,-79.7 124,-72.83"/>
</a>
</g>
</g>
<!-- Node4 -->
<g id="Node000004" class="node">
<title>Node4</title>
<g id="a_Node000004"><a xlink:title=" ">
<polygon fill="#e0e0e0" stroke="#999999" points="225.38,-76 129.88,-76 129.88,-56 225.38,-56 225.38,-76"/>
<text text-anchor="middle" x="177.62" y="-62.5" font-family="Helvetica,sans-Serif" font-size="10.00">hardware/clocks.h</text>
</a>
</g>
</g>
<!-- Node1&#45;&gt;Node4 -->
<g id="edge3_Node000001_Node000004" class="edge">
<title>Node1&#45;&gt;Node4</title>
<g id="a_edge3_Node000001_Node000004"><a xlink:title=" ">
<path fill="none" stroke="#63b8ff" d="M459.91,-112.5C399.25,-102.72 299.88,-86.71 236.67,-76.52"/>
<polygon fill="#63b8ff" stroke="#63b8ff" points="237.61,-73.12 227.18,-74.99 236.5,-80.04 237.61,-73.12"/>
</a>
</g>
</g>
<!-- Node5 -->
<g id="Node000005" class="node">
<title>Node5</title>
<g id="a_Node000005"><a xlink:title=" ">
<polygon fill="#e0e0e0" stroke="#999999" points="331.62,-76 243.62,-76 243.62,-56 331.62,-56 331.62,-76"/>
<text text-anchor="middle" x="287.62" y="-62.5" font-family="Helvetica,sans-Serif" font-size="10.00">hardware/flash.h</text>
</a>
</g>
</g>
<!-- Node1&#45;&gt;Node5 -->
<g id="edge4_Node000001_Node000005" class="edge">
<title>Node1&#45;&gt;Node5</title>
<g id="a_edge4_Node000001_Node000005"><a xlink:title=" ">
<path fill="none" stroke="#63b8ff" d="M473.18,-111.53C435.62,-102.52 378.93,-88.91 338.1,-79.11"/>
<polygon fill="#63b8ff" stroke="#63b8ff" points="339.04,-75.74 328.5,-76.81 337.41,-82.55 339.04,-75.74"/>
</a>
</g>
</g>
<!-- Node6 -->
<g id="Node000006" class="node">
<title>Node6</title>
<g id="a_Node000006"><a xlink:title=" ">
<polygon fill="#e0e0e0" stroke="#999999" points="449.62,-76 349.62,-76 349.62,-56 449.62,-56 449.62,-76"/>
<text text-anchor="middle" x="399.62" y="-62.5" font-family="Helvetica,sans-Serif" font-size="10.00">blockdevice/flash.h</text>
</a>
</g>
</g>
<!-- Node1&#45;&gt;Node6 -->
<g id="edge5_Node000001_Node000006" class="edge">
<title>Node1&#45;&gt;Node6</title>
<g id="a_edge5_Node000001_Node000006"><a xlink:title=" ">
<path fill="none" stroke="#63b8ff" d="M492.94,-111.59C475.47,-103.24 449.67,-90.92 429.63,-81.34"/>
<polygon fill="#63b8ff" stroke="#63b8ff" points="431.36,-78.29 420.83,-77.13 428.34,-84.6 431.36,-78.29"/>
</a>
</g>
</g>
<!-- Node7 -->
<g id="Node000007" class="node">
<title>Node7</title>
<g id="a_Node000007"><a xlink:title=" ">
<polygon fill="#e0e0e0" stroke="#999999" points="557.38,-76 467.88,-76 467.88,-56 557.38,-56 557.38,-76"/>
<text text-anchor="middle" x="512.62" y="-62.5" font-family="Helvetica,sans-Serif" font-size="10.00">blockdevice/sd.h</text>
</a>
</g>
</g>
<!-- Node1&#45;&gt;Node7 -->
<g id="edge6_Node000001_Node000007" class="edge">
<title>Node1&#45;&gt;Node7</title>
<g id="a_edge6_Node000001_Node000007"><a xlink:title=" ">
<path fill="none" stroke="#63b8ff" d="M512.62,-111.59C512.62,-105.01 512.62,-95.96 512.62,-87.73"/>
<polygon fill="#63b8ff" stroke="#63b8ff" points="516.13,-87.81 512.63,-77.81 509.13,-87.81 516.13,-87.81"/>
</a>
</g>
</g>
<!-- Node8 -->
<g id="Node000008" class="node">
<title>Node8</title>
<g id="a_Node000008"><a xlink:title=" ">
<polygon fill="#e0e0e0" stroke="#999999" points="673.88,-76 575.38,-76 575.38,-56 673.88,-56 673.88,-76"/>
<text text-anchor="middle" x="624.62" y="-62.5" font-family="Helvetica,sans-Serif" font-size="10.00">filesystem/littlefs.h</text>
</a>
</g>
</g>
<!-- Node1&#45;&gt;Node8 -->
<g id="edge7_Node000001_Node000008" class="edge">
<title>Node1&#45;&gt;Node8</title>
<g id="a_edge7_Node000001_Node000008"><a xlink:title=" ">
<path fill="none" stroke="#63b8ff" d="M532.13,-111.59C549.37,-103.28 574.78,-91.03 594.61,-81.47"/>
<polygon fill="#63b8ff" stroke="#63b8ff" points="596.11,-84.63 603.6,-77.14 593.07,-78.33 596.11,-84.63"/>
</a>
</g>
</g>
<!-- Node9 -->
<g id="Node000009" class="node">
<title>Node9</title>
<g id="a_Node000009"><a xlink:title=" ">
<polygon fill="#e0e0e0" stroke="#999999" points="777.5,-76 691.75,-76 691.75,-56 777.5,-56 777.5,-76"/>
<text text-anchor="middle" x="734.62" y="-62.5" font-family="Helvetica,sans-Serif" font-size="10.00">filesystem/vfs.h</text>
</a>
</g>
</g>
<!-- Node1&#45;&gt;Node9 -->
<g id="edge8_Node000001_Node000009" class="edge">
<title>Node1&#45;&gt;Node9</title>
<g id="a_edge8_Node000001_Node000009"><a xlink:title=" ">
<path fill="none" stroke="#63b8ff" d="M551.55,-111.53C588.52,-102.54 644.3,-88.97 684.57,-79.18"/>
<polygon fill="#63b8ff" stroke="#63b8ff" points="685.39,-82.58 694.28,-76.81 683.73,-75.78 685.39,-82.58"/>
</a>
</g>
</g>
<!-- Node10 -->
<g id="Node000010" class="node">
<title>Node10</title>
<g id="a_Node000010"><a xlink:href="pin__config_8h.html" target="_top" xlink:title=" ">
<polygon fill="white" stroke="#666666" points="863.88,-76 795.38,-76 795.38,-56 863.88,-56 863.88,-76"/>
<text text-anchor="middle" x="829.62" y="-62.5" font-family="Helvetica,sans-Serif" font-size="10.00">pin_config.h</text>
</a>
</g>
</g>
<!-- Node1&#45;&gt;Node10 -->
<g id="edge9_Node000001_Node000010" class="edge">
<title>Node1&#45;&gt;Node10</title>
<g id="a_edge9_Node000001_Node000010"><a xlink:title=" ">
<path fill="none" stroke="#63b8ff" d="M565.27,-113.05C618.1,-104.92 702.07,-91.57 783.68,-76.49"/>
<polygon fill="#63b8ff" stroke="#63b8ff" points="784.24,-79.95 793.43,-74.68 782.96,-73.06 784.24,-79.95"/>
</a>
</g>
</g>
<!-- Node12 -->
<g id="Node000012" class="node">
<title>Node12</title>
<g id="a_Node000012"><a xlink:title=" ">
<polygon fill="#e0e0e0" stroke="#999999" points="917,-76 882.25,-76 882.25,-56 917,-56 917,-76"/>
<text text-anchor="middle" x="899.62" y="-62.5" font-family="Helvetica,sans-Serif" font-size="10.00">lfs.h</text>
</a>
</g>
</g>
<!-- Node1&#45;&gt;Node12 -->
<g id="edge11_Node000001_Node000012" class="edge">
<title>Node1&#45;&gt;Node12</title>
<g id="a_edge11_Node000001_Node000012"><a xlink:title=" ">
<path fill="none" stroke="#63b8ff" d="M565.35,-117.68C633.8,-112.65 756.97,-101.17 870.77,-75.98"/>
<polygon fill="#63b8ff" stroke="#63b8ff" points="871.3,-79.45 880.28,-73.84 869.75,-72.63 871.3,-79.45"/>
</a>
</g>
</g>
<!-- Node13 -->
<g id="Node000013" class="node">
<title>Node13</title>
<g id="a_Node000013"><a xlink:title=" ">
<polygon fill="#e0e0e0" stroke="#999999" points="1018.38,-76 934.88,-76 934.88,-56 1018.38,-56 1018.38,-76"/>
<text text-anchor="middle" x="976.62" y="-62.5" font-family="Helvetica,sans-Serif" font-size="10.00">filesystem/fat.h</text>
</a>
</g>
</g>
<!-- Node1&#45;&gt;Node13 -->
<g id="edge12_Node000001_Node000013" class="edge">
<title>Node1&#45;&gt;Node13</title>
<g id="a_edge12_Node000001_Node000013"><a xlink:title=" ">
<path fill="none" stroke="#63b8ff" d="M565.25,-116.39C641.71,-109.44 788.27,-95.2 923.28,-76.25"/>
<polygon fill="#63b8ff" stroke="#63b8ff" points="923.73,-79.72 933.14,-74.85 922.74,-72.79 923.73,-79.72"/>
</a>
</g>
</g>
<!-- Node11 -->
<g id="Node000011" class="node">
<title>Node11</title>
<g id="a_Node000011"><a xlink:title=" ">
<polygon fill="#e0e0e0" stroke="#999999" points="853.75,-20 805.5,-20 805.5,0 853.75,0 853.75,-20"/>
<text text-anchor="middle" x="829.62" y="-6.5" font-family="Helvetica,sans-Serif" font-size="10.00">stdint.h</text>
</a>
</g>
</g>
<!-- Node10&#45;&gt;Node11 -->
<g id="edge10_Node000010_Node000011" class="edge">
<title>Node10&#45;&gt;Node11</title>
<g id="a_edge10_Node000010_Node000011"><a xlink:title=" ">
<path fill="none" stroke="#63b8ff" d="M829.62,-55.59C829.62,-49.01 829.62,-39.96 829.62,-31.73"/>
<polygon fill="#63b8ff" stroke="#63b8ff" points="833.13,-31.81 829.63,-21.81 826.13,-31.81 833.13,-31.81"/>
</a>
</g>
</g>
</g>
</svg>
