<?xml version="1.0" encoding="UTF-8" standalone="no"?>
<!DOCTYPE svg PUBLIC "-//W3C//DTD SVG 1.1//EN"
 "http://www.w3.org/Graphics/SVG/1.1/DTD/svg11.dtd">
<!-- Generated by graphviz version 12.2.1 (20241206.2353)
 -->
<!-- Title: valueUnitTypeToString Pages: 1 -->
<!--zoomable 978 -->

<svg id="main" version="1.1" xmlns="http://www.w3.org/2000/svg" xmlns:xlink="http://www.w3.org/1999/xlink" xml:space="preserve" onload="init(evt)">

<style type="text/css"><![CDATA[
.node, .edge {opacity: 0.7;}
.node.selected, .edge.selected {opacity: 1;}
.edge:hover path { stroke: red; }
.edge:hover polygon { stroke: red; fill: red; }
]]></style>

<defs>
  <circle id="rim" cx="0" cy="0" r="7"/>
  <circle id="rim2" cx="0" cy="0" r="3.5"/>
  <g id="zoomPlus">
    <use xlink:href="#rim" fill="#404040"><set attributeName="fill" to="#808080" begin="zoomplus.mouseover" end="zoomplus.mouseout"/></use>
    <path d="M-4,0h8M0,-4v8" fill="none" stroke="white" stroke-width="1.5" pointer-events="none"/>
  </g>
  <g id="zoomMin">
    <use xlink:href="#rim" fill="#404040"><set attributeName="fill" to="#808080" begin="zoomminus.mouseover" end="zoomminus.mouseout"/></use>
    <path d="M-4,0h8" fill="none" stroke="white" stroke-width="1.5" pointer-events="none"/>
  </g>
  <g id="arrowUp" transform="translate(30 24)">
    <use xlink:href="#rim"/>
    <path pointer-events="none" fill="none" stroke="white" stroke-width="1.5" d="M0,-3.0v7 M-2.5,-0.5L0,-3.0L2.5,-0.5"/>
  </g>
  <g id="arrowRight" transform="rotate(90) translate(36 -43)">
    <use xlink:href="#rim"/>
    <path pointer-events="none" fill="none" stroke="white" stroke-width="1.5" d="M0,-3.0v7 M-2.5,-0.5L0,-3.0L2.5,-0.5"/>
  </g>
  <g id="arrowDown" transform="rotate(180) translate(-30 -48)">
    <use xlink:href="#rim"/>
    <path pointer-events="none" fill="none" stroke="white" stroke-width="1.5" d="M0,-3.0v7 M-2.5,-0.5L0,-3.0L2.5,-0.5"/>
  </g>
  <g id="arrowLeft" transform="rotate(270) translate(-36 17)">
    <use xlink:href="#rim"/>
    <path pointer-events="none" fill="none" stroke="white" stroke-width="1.5" d="M0,-3.0v7 M-2.5,-0.5L0,-3.0L2.5,-0.5"/>
  </g>
  <g id="resetDef">
    <use xlink:href="#rim2" fill="#404040"><set attributeName="fill" to="#808080" begin="reset.mouseover" end="reset.mouseout"/></use>
  </g>
</defs>
<script type="application/ecmascript">
var viewWidth = 759;
var viewHeight = 978;
var sectionId = 'dynsection-1';
</script>
<script type="application/ecmascript" xlink:href="svg.min.js"/>
<svg id="graph" class="graph">
<g id="viewport">
<title>valueUnitTypeToString</title>
<!-- Node1 -->
<g id="Node000001" class="node">
<title>Node1</title>
<g id="a_Node000001"><a xlink:title="Converts a ValueUnit to a string.">
<polygon fill="#999999" stroke="#666666" points="750.75,-495 636.5,-495 636.5,-475 750.75,-475 750.75,-495"/>
<text text-anchor="middle" x="693.62" y="-481.5" font-family="Helvetica,sans-Serif" font-size="10.00">valueUnitTypeToString</text>
</a>
</g>
</g>
<!-- Node2 -->
<g id="Node000002" class="node">
<title>Node2</title>
<g id="a_Node000002"><a xlink:href="frame_8cpp.html#a5f43260949ee244d3ee66068eb1d7fc1" target="_top" xlink:title="Builds a Frame instance.">
<polygon fill="white" stroke="#666666" points="600.5,-495 536.5,-495 536.5,-475 600.5,-475 600.5,-495"/>
<text text-anchor="middle" x="568.5" y="-481.5" font-family="Helvetica,sans-Serif" font-size="10.00">buildFrame</text>
</a>
</g>
</g>
<!-- Node1&#45;&gt;Node2 -->
<g id="edge1_Node000001_Node000002" class="edge">
<title>Node1&#45;&gt;Node2</title>
<g id="a_edge1_Node000001_Node000002"><a xlink:title=" ">
<path fill="none" stroke="#63b8ff" d="M624.71,-485C616.38,-485 608.21,-485 600.81,-485"/>
<polygon fill="#63b8ff" stroke="#63b8ff" points="624.59,-488.5 634.59,-485 624.59,-481.5 624.59,-488.5"/>
</a>
</g>
</g>
<!-- Node3 -->
<g id="Node000003" class="node">
<title>Node3</title>
<g id="a_Node000003"><a xlink:href="frame_8cpp.html#a8f34bc31494430539db21206f084d39d" target="_top" xlink:title="Converts a string into a Frame instance.">
<polygon fill="white" stroke="#666666" points="452.5,-970 377.25,-970 377.25,-950 452.5,-950 452.5,-970"/>
<text text-anchor="middle" x="414.88" y="-956.5" font-family="Helvetica,sans-Serif" font-size="10.00">decodeFrame</text>
</a>
</g>
</g>
<!-- Node2&#45;&gt;Node3 -->
<g id="edge2_Node000002_Node000003" class="edge">
<title>Node2&#45;&gt;Node3</title>
<g id="a_edge2_Node000002_Node000003"><a xlink:title=" ">
<path fill="none" stroke="#63b8ff" d="M567.28,-506.94C566.04,-588.24 557.6,-871.02 500.5,-936 488.6,-949.54 469.7,-955.69 452.77,-958.4"/>
<polygon fill="#63b8ff" stroke="#63b8ff" points="570.78,-507.05 567.41,-497.01 563.78,-506.96 570.78,-507.05"/>
</a>
</g>
</g>
<!-- Node4 -->
<g id="Node000004" class="node">
<title>Node4</title>
<g id="a_Node000004"><a xlink:href="frame_8cpp.html#a8b9407b2f579031cf4b705f1ac03ac31" target="_top" xlink:title="Executes a command based on the command key and the parameter.">
<polygon fill="white" stroke="#666666" points="293.25,-932 194,-932 194,-912 293.25,-912 293.25,-932"/>
<text text-anchor="middle" x="243.62" y="-918.5" font-family="Helvetica,sans-Serif" font-size="10.00">processFrameData</text>
</a>
</g>
</g>
<!-- Node2&#45;&gt;Node4 -->
<g id="edge33_Node000002_Node000004" class="edge">
<title>Node2&#45;&gt;Node4</title>
<g id="a_edge33_Node000002_Node000004"><a xlink:title=" ">
<path fill="none" stroke="#63b8ff" d="M567.41,-506.45C566.59,-584.11 559.46,-848.84 500.5,-903 471.34,-929.78 359.32,-928.53 293.56,-925.27"/>
<polygon fill="#63b8ff" stroke="#63b8ff" points="570.9,-506.83 567.48,-496.8 563.91,-506.78 570.9,-506.83"/>
</a>
</g>
</g>
<!-- Node6 -->
<g id="Node000006" class="node">
<title>Node6</title>
<g id="a_Node000006"><a xlink:href="main_8cpp.html#ae66f6b31b5ad750f1fe042a706a4e3d4" target="_top" xlink:title=" ">
<polygon fill="white" stroke="#666666" points="37,-875 0,-875 0,-855 37,-855 37,-875"/>
<text text-anchor="middle" x="18.5" y="-861.5" font-family="Helvetica,sans-Serif" font-size="10.00">main</text>
</a>
</g>
</g>
<!-- Node2&#45;&gt;Node6 -->
<g id="edge32_Node000002_Node000006" class="edge">
<title>Node2&#45;&gt;Node6</title>
<g id="a_edge32_Node000002_Node000006"><a xlink:title=" ">
<path fill="none" stroke="#63b8ff" d="M566.55,-506.83C563.08,-575.34 548.66,-784.07 500.5,-827 465.33,-858.36 120.42,-863.95 37.4,-864.84"/>
<polygon fill="#63b8ff" stroke="#63b8ff" points="570.04,-507.08 567.02,-496.92 563.05,-506.75 570.04,-507.08"/>
</a>
</g>
</g>
<!-- Node8 -->
<g id="Node000008" class="node">
<title>Node8</title>
<g id="a_Node000008"><a xlink:href="group___command_system.html#ga1907d400d2c8d8d054ba95bcf43276ea" target="_top" xlink:title="Executes a command based on its key.">
<polygon fill="white" stroke="#666666" points="462.62,-894 367.12,-894 367.12,-874 462.62,-874 462.62,-894"/>
<text text-anchor="middle" x="414.88" y="-880.5" font-family="Helvetica,sans-Serif" font-size="10.00">executeCommand</text>
</a>
</g>
</g>
<!-- Node2&#45;&gt;Node8 -->
<g id="edge8_Node000002_Node000008" class="edge">
<title>Node2&#45;&gt;Node8</title>
<g id="a_edge8_Node000002_Node000008"><a xlink:title=" ">
<path fill="none" stroke="#63b8ff" d="M566.57,-506.63C563.05,-578.43 548.23,-807.27 500.5,-860 490.87,-870.64 476.9,-876.71 463.08,-880.12"/>
<polygon fill="#63b8ff" stroke="#63b8ff" points="570.05,-507.13 567.02,-496.98 563.06,-506.81 570.05,-507.13"/>
</a>
</g>
</g>
<!-- Node9 -->
<g id="Node000009" class="node">
<title>Node9</title>
<g id="a_Node000009"><a xlink:href="group___clock_commands.html#gad92a65bf7ca7a1c1ed7b29e5e9e75fa0" target="_top" xlink:title="Handler for getting and setting clock synchronization interval.">
<polygon fill="white" stroke="#666666" points="477.25,-818 352.5,-818 352.5,-798 477.25,-798 477.25,-818"/>
<text text-anchor="middle" x="414.88" y="-804.5" font-family="Helvetica,sans-Serif" font-size="10.00">handleClockSyncInterval</text>
</a>
</g>
</g>
<!-- Node2&#45;&gt;Node9 -->
<g id="edge10_Node000002_Node000009" class="edge">
<title>Node2&#45;&gt;Node9</title>
<g id="a_edge10_Node000002_Node000009"><a xlink:title=" ">
<path fill="none" stroke="#63b8ff" d="M565.71,-506.58C560.07,-569.14 540.64,-748.7 500.5,-789 494.12,-795.4 486.09,-799.85 477.52,-802.9"/>
<polygon fill="#63b8ff" stroke="#63b8ff" points="569.17,-507.17 566.55,-496.91 562.19,-506.57 569.17,-507.17"/>
</a>
</g>
</g>
<!-- Node10 -->
<g id="Node000010" class="node">
<title>Node10</title>
<g id="a_Node000010"><a xlink:href="group___g_p_s_commands.html#gad12f2e18bdfecbd5b6e8d8a84bb9cd77" target="_top" xlink:title="Handler for enabling GPS transparent mode (UART pass&#45;through)">
<polygon fill="white" stroke="#666666" points="500.5,-780 329.25,-780 329.25,-760 500.5,-760 500.5,-780"/>
<text text-anchor="middle" x="414.88" y="-766.5" font-family="Helvetica,sans-Serif" font-size="10.00">handleEnableGPSTransparentMode</text>
</a>
</g>
</g>
<!-- Node2&#45;&gt;Node10 -->
<g id="edge11_Node000002_Node000010" class="edge">
<title>Node2&#45;&gt;Node10</title>
<g id="a_edge11_Node000002_Node000010"><a xlink:title=" ">
<path fill="none" stroke="#63b8ff" d="M564.99,-506.46C557.89,-563.44 535.86,-716.55 500.5,-751 497.05,-754.36 493.14,-757.18 488.94,-759.54"/>
<polygon fill="#63b8ff" stroke="#63b8ff" points="568.43,-507.12 566.16,-496.78 561.48,-506.28 568.43,-507.12"/>
</a>
</g>
</g>
<!-- Node11 -->
<g id="Node000011" class="node">
<title>Node11</title>
<g id="a_Node000011"><a xlink:href="group___diagnostic_commands.html#ga3a6c6092cd01fd9c13ab429f4a34326d" target="_top" xlink:title="Reboot system to USB firmware loader.">
<polygon fill="white" stroke="#666666" points="484,-742 345.75,-742 345.75,-722 484,-722 484,-742"/>
<text text-anchor="middle" x="414.88" y="-728.5" font-family="Helvetica,sans-Serif" font-size="10.00">handleEnterBootloaderMode</text>
</a>
</g>
</g>
<!-- Node2&#45;&gt;Node11 -->
<g id="edge12_Node000002_Node000011" class="edge">
<title>Node2&#45;&gt;Node11</title>
<g id="a_edge12_Node000002_Node000011"><a xlink:title=" ">
<path fill="none" stroke="#63b8ff" d="M567.91,-506.88C567.51,-552.35 559.81,-657.42 500.5,-713 495.78,-717.43 490.25,-720.9 484.33,-723.62"/>
<polygon fill="#63b8ff" stroke="#63b8ff" points="571.42,-507 567.87,-497.01 564.42,-507.02 571.42,-507"/>
</a>
</g>
</g>
<!-- Node12 -->
<g id="Node000012" class="node">
<title>Node12</title>
<g id="a_Node000012"><a xlink:href="group___diagnostic_commands.html#ga5ebac5711334cb3584974b2b74556543" target="_top" xlink:title="Get firmware build version.">
<polygon fill="white" stroke="#666666" points="472,-704 357.75,-704 357.75,-684 472,-684 472,-704"/>
<text text-anchor="middle" x="414.88" y="-690.5" font-family="Helvetica,sans-Serif" font-size="10.00">handleGetBuildVersion</text>
</a>
</g>
</g>
<!-- Node2&#45;&gt;Node12 -->
<g id="edge13_Node000002_Node000012" class="edge">
<title>Node2&#45;&gt;Node12</title>
<g id="a_edge13_Node000002_Node000012"><a xlink:title=" ">
<path fill="none" stroke="#63b8ff" d="M566.43,-506.46C563.26,-546.02 550.65,-630.45 500.5,-675 492.62,-682 482.72,-686.59 472.5,-689.57"/>
<polygon fill="#63b8ff" stroke="#63b8ff" points="569.92,-506.81 567.08,-496.6 562.93,-506.35 569.92,-506.81"/>
</a>
</g>
</g>
<!-- Node13 -->
<g id="Node000013" class="node">
<title>Node13</title>
<g id="a_Node000013"><a xlink:href="group___power_commands.html#ga6fbaf484e68c9561ad7fabef21def37b" target="_top" xlink:title="Handler for getting solar panel charge current.">
<polygon fill="white" stroke="#666666" points="488.12,-666 341.62,-666 341.62,-646 488.12,-646 488.12,-666"/>
<text text-anchor="middle" x="414.88" y="-652.5" font-family="Helvetica,sans-Serif" font-size="10.00">handleGetCurrentChargeSolar</text>
</a>
</g>
</g>
<!-- Node2&#45;&gt;Node13 -->
<g id="edge14_Node000002_Node000013" class="edge">
<title>Node2&#45;&gt;Node13</title>
<g id="a_edge14_Node000002_Node000013"><a xlink:title=" ">
<path fill="none" stroke="#63b8ff" d="M564.26,-506.55C558.08,-539.83 541.38,-603.38 500.5,-637 496.31,-640.44 491.63,-643.29 486.67,-645.65"/>
<polygon fill="#63b8ff" stroke="#63b8ff" points="567.68,-507.34 565.89,-496.9 560.78,-506.18 567.68,-507.34"/>
</a>
</g>
</g>
<!-- Node14 -->
<g id="Node000014" class="node">
<title>Node14</title>
<g id="a_Node000014"><a xlink:href="group___power_commands.html#ga83596ea837df6cf7b15e673b95bf524f" target="_top" xlink:title="Handler for getting total charge current.">
<polygon fill="white" stroke="#666666" points="487.38,-628 342.38,-628 342.38,-608 487.38,-608 487.38,-628"/>
<text text-anchor="middle" x="414.88" y="-614.5" font-family="Helvetica,sans-Serif" font-size="10.00">handleGetCurrentChargeTotal</text>
</a>
</g>
</g>
<!-- Node2&#45;&gt;Node14 -->
<g id="edge15_Node000002_Node000014" class="edge">
<title>Node2&#45;&gt;Node14</title>
<g id="a_edge15_Node000002_Node000014"><a xlink:title=" ">
<path fill="none" stroke="#63b8ff" d="M560.86,-506.35C551.63,-532.37 532.36,-575.76 500.5,-599 495.76,-602.46 490.49,-605.31 484.98,-607.65"/>
<polygon fill="#63b8ff" stroke="#63b8ff" points="564.18,-507.46 564.02,-496.87 557.54,-505.25 564.18,-507.46"/>
</a>
</g>
</g>
<!-- Node15 -->
<g id="Node000015" class="node">
<title>Node15</title>
<g id="a_Node000015"><a xlink:href="group___power_commands.html#ga3f38c538065bf67dbec1142fdb866d16" target="_top" xlink:title="Handler for getting USB charge current.">
<polygon fill="white" stroke="#666666" points="487.38,-590 342.38,-590 342.38,-570 487.38,-570 487.38,-590"/>
<text text-anchor="middle" x="414.88" y="-576.5" font-family="Helvetica,sans-Serif" font-size="10.00">handleGetCurrentChargeUSB</text>
</a>
</g>
</g>
<!-- Node2&#45;&gt;Node15 -->
<g id="edge16_Node000002_Node000015" class="edge">
<title>Node2&#45;&gt;Node15</title>
<g id="a_edge16_Node000002_Node000015"><a xlink:title=" ">
<path fill="none" stroke="#63b8ff" d="M555.32,-504.79C543.48,-522.29 523.91,-547.14 500.5,-561 494.67,-564.45 488.27,-567.28 481.69,-569.59"/>
<polygon fill="#63b8ff" stroke="#63b8ff" points="558.03,-507.03 560.54,-496.74 552.16,-503.23 558.03,-507.03"/>
</a>
</g>
</g>
<!-- Node16 -->
<g id="Node000016" class="node">
<title>Node16</title>
<g id="a_Node000016"><a xlink:href="group___power_commands.html#gabd6610f557fe9deaa9f80d9405738226" target="_top" xlink:title="Handler for getting system current draw.">
<polygon fill="white" stroke="#666666" points="472.75,-552 357,-552 357,-532 472.75,-532 472.75,-552"/>
<text text-anchor="middle" x="414.88" y="-538.5" font-family="Helvetica,sans-Serif" font-size="10.00">handleGetCurrentDraw</text>
</a>
</g>
</g>
<!-- Node2&#45;&gt;Node16 -->
<g id="edge17_Node000002_Node000016" class="edge">
<title>Node2&#45;&gt;Node16</title>
<g id="a_edge17_Node000002_Node000016"><a xlink:title=" ">
<path fill="none" stroke="#63b8ff" d="M542.66,-501.42C530.39,-508.92 515.12,-517.36 500.5,-523 491.79,-526.36 482.34,-529.21 473.01,-531.6"/>
<polygon fill="#63b8ff" stroke="#63b8ff" points="544.3,-504.53 550.9,-496.24 540.57,-498.61 544.3,-504.53"/>
</a>
</g>
</g>
<!-- Node17 -->
<g id="Node000017" class="node">
<title>Node17</title>
<g id="a_Node000017"><a xlink:href="group___event_commands.html#ga6f817db327c7b16cf49575635e595004" target="_top" xlink:title="Handler for getting total number of events in the log.">
<polygon fill="white" stroke="#666666" points="470.88,-514 358.88,-514 358.88,-494 470.88,-494 470.88,-514"/>
<text text-anchor="middle" x="414.88" y="-500.5" font-family="Helvetica,sans-Serif" font-size="10.00">handleGetEventCount</text>
</a>
</g>
</g>
<!-- Node2&#45;&gt;Node17 -->
<g id="edge18_Node000002_Node000017" class="edge">
<title>Node2&#45;&gt;Node17</title>
<g id="a_edge18_Node000002_Node000017"><a xlink:title=" ">
<path fill="none" stroke="#63b8ff" d="M525.01,-490.32C508.31,-492.42 488.93,-494.85 471.16,-497.07"/>
<polygon fill="#63b8ff" stroke="#63b8ff" points="525.09,-493.84 534.58,-489.13 524.22,-486.9 525.09,-493.84"/>
</a>
</g>
</g>
<!-- Node18 -->
<g id="Node000018" class="node">
<title>Node18</title>
<g id="a_Node000018"><a xlink:href="group___g_p_s_commands.html#gaf1f6c0fb4266518353e088e8781ed143" target="_top" xlink:title="Handler for retrieving GPS GGA (Global Positioning System Fix Data) data.">
<polygon fill="white" stroke="#666666" points="466.38,-476 363.38,-476 363.38,-456 466.38,-456 466.38,-476"/>
<text text-anchor="middle" x="414.88" y="-462.5" font-family="Helvetica,sans-Serif" font-size="10.00">handleGetGGAData</text>
</a>
</g>
</g>
<!-- Node2&#45;&gt;Node18 -->
<g id="edge19_Node000002_Node000018" class="edge">
<title>Node2&#45;&gt;Node18</title>
<g id="a_edge19_Node000002_Node000018"><a xlink:title=" ">
<path fill="none" stroke="#63b8ff" d="M524.72,-479.64C506.66,-477.38 485.49,-474.72 466.65,-472.36"/>
<polygon fill="#63b8ff" stroke="#63b8ff" points="524.22,-483.1 534.58,-480.87 525.09,-476.16 524.22,-483.1"/>
</a>
</g>
</g>
<!-- Node19 -->
<g id="Node000019" class="node">
<title>Node19</title>
<g id="a_Node000019"><a xlink:href="group___event_commands.html#gad921fe7254d7ec43f16a6fb21f5c385a" target="_top" xlink:title="Handler for retrieving last N events from the event log.">
<polygon fill="white" stroke="#666666" points="469.75,-438 360,-438 360,-418 469.75,-418 469.75,-438"/>
<text text-anchor="middle" x="414.88" y="-424.5" font-family="Helvetica,sans-Serif" font-size="10.00">handleGetLastEvents</text>
</a>
</g>
</g>
<!-- Node2&#45;&gt;Node19 -->
<g id="edge20_Node000002_Node000019" class="edge">
<title>Node2&#45;&gt;Node19</title>
<g id="a_edge20_Node000002_Node000019"><a xlink:title=" ">
<path fill="none" stroke="#63b8ff" d="M542.66,-468.58C530.39,-461.08 515.12,-452.64 500.5,-447 490.81,-443.26 480.19,-440.15 469.86,-437.61"/>
<polygon fill="#63b8ff" stroke="#63b8ff" points="540.57,-471.39 550.9,-473.76 544.3,-465.47 540.57,-471.39"/>
</a>
</g>
</g>
<!-- Node20 -->
<g id="Node000020" class="node">
<title>Node20</title>
<g id="a_Node000020"><a xlink:href="group___clock_commands.html#ga17274560343c34119630b27d88ef475e" target="_top" xlink:title="Handler for getting last clock sync time.">
<polygon fill="white" stroke="#666666" points="476.5,-400 353.25,-400 353.25,-380 476.5,-380 476.5,-400"/>
<text text-anchor="middle" x="414.88" y="-386.5" font-family="Helvetica,sans-Serif" font-size="10.00">handleGetLastSyncTime</text>
</a>
</g>
</g>
<!-- Node2&#45;&gt;Node20 -->
<g id="edge21_Node000002_Node000020" class="edge">
<title>Node2&#45;&gt;Node20</title>
<g id="a_edge21_Node000002_Node000020"><a xlink:title=" ">
<path fill="none" stroke="#63b8ff" d="M555.32,-465.21C543.48,-447.71 523.91,-422.86 500.5,-409 493.24,-404.7 485.11,-401.38 476.84,-398.8"/>
<polygon fill="#63b8ff" stroke="#63b8ff" points="552.16,-466.77 560.54,-473.26 558.03,-462.97 552.16,-466.77"/>
</a>
</g>
</g>
<!-- Node21 -->
<g id="Node000021" class="node">
<title>Node21</title>
<g id="a_Node000021"><a xlink:href="group___power_commands.html#gafef922e13071e5fb67da78207a9f22a4" target="_top" xlink:title="Handler for retrieving Power Manager IDs.">
<polygon fill="white" stroke="#666666" points="485.5,-362 344.25,-362 344.25,-342 485.5,-342 485.5,-362"/>
<text text-anchor="middle" x="414.88" y="-348.5" font-family="Helvetica,sans-Serif" font-size="10.00">handleGetPowerManagerIDs</text>
</a>
</g>
</g>
<!-- Node2&#45;&gt;Node21 -->
<g id="edge22_Node000002_Node000021" class="edge">
<title>Node2&#45;&gt;Node21</title>
<g id="a_edge22_Node000002_Node000021"><a xlink:title=" ">
<path fill="none" stroke="#63b8ff" d="M560.86,-463.65C551.63,-437.63 532.36,-394.24 500.5,-371 495.76,-367.54 490.49,-364.69 484.98,-362.35"/>
<polygon fill="#63b8ff" stroke="#63b8ff" points="557.54,-464.75 564.02,-473.13 564.18,-462.54 557.54,-464.75"/>
</a>
</g>
</g>
<!-- Node22 -->
<g id="Node000022" class="node">
<title>Node22</title>
<g id="a_Node000022"><a xlink:href="group___g_p_s_commands.html#ga71881bd1a0a285e4149db732a3f1b533" target="_top" xlink:title="Handler for retrieving GPS RMC (Recommended Minimum Navigation) data.">
<polygon fill="white" stroke="#666666" points="467.12,-324 362.62,-324 362.62,-304 467.12,-304 467.12,-324"/>
<text text-anchor="middle" x="414.88" y="-310.5" font-family="Helvetica,sans-Serif" font-size="10.00">handleGetRMCData</text>
</a>
</g>
</g>
<!-- Node2&#45;&gt;Node22 -->
<g id="edge23_Node000002_Node000022" class="edge">
<title>Node2&#45;&gt;Node22</title>
<g id="a_edge23_Node000002_Node000022"><a xlink:title=" ">
<path fill="none" stroke="#63b8ff" d="M564.26,-463.45C558.08,-430.17 541.38,-366.62 500.5,-333 491.08,-325.25 479.15,-320.51 467.24,-317.64"/>
<polygon fill="#63b8ff" stroke="#63b8ff" points="560.78,-463.82 565.89,-473.1 567.68,-462.66 560.78,-463.82"/>
</a>
</g>
</g>
<!-- Node23 -->
<g id="Node000023" class="node">
<title>Node23</title>
<g id="a_Node000023"><a xlink:href="group___power_commands.html#ga9f2b608f46080fcdae38a1a8454938b8" target="_top" xlink:title="Handler for getting 5V rail voltage.">
<polygon fill="white" stroke="#666666" points="467.12,-286 362.62,-286 362.62,-266 467.12,-266 467.12,-286"/>
<text text-anchor="middle" x="414.88" y="-272.5" font-family="Helvetica,sans-Serif" font-size="10.00">handleGetVoltage5V</text>
</a>
</g>
</g>
<!-- Node2&#45;&gt;Node23 -->
<g id="edge24_Node000002_Node000023" class="edge">
<title>Node2&#45;&gt;Node23</title>
<g id="a_edge24_Node000002_Node000023"><a xlink:title=" ">
<path fill="none" stroke="#63b8ff" d="M566.43,-463.54C563.26,-423.98 550.65,-339.55 500.5,-295 491.27,-286.8 479.27,-281.9 467.22,-279.04"/>
<polygon fill="#63b8ff" stroke="#63b8ff" points="562.93,-463.65 567.08,-473.4 569.92,-463.19 562.93,-463.65"/>
</a>
</g>
</g>
<!-- Node24 -->
<g id="Node000024" class="node">
<title>Node24</title>
<g id="a_Node000024"><a xlink:href="group___power_commands.html#gad301b8c13cafa148a6f3e80e9b0bcf1a" target="_top" xlink:title="Handler for getting battery voltage.">
<polygon fill="white" stroke="#666666" points="476.88,-248 352.88,-248 352.88,-228 476.88,-228 476.88,-248"/>
<text text-anchor="middle" x="414.88" y="-234.5" font-family="Helvetica,sans-Serif" font-size="10.00">handleGetVoltageBattery</text>
</a>
</g>
</g>
<!-- Node2&#45;&gt;Node24 -->
<g id="edge25_Node000002_Node000024" class="edge">
<title>Node2&#45;&gt;Node24</title>
<g id="a_edge25_Node000002_Node000024"><a xlink:title=" ">
<path fill="none" stroke="#63b8ff" d="M567.91,-463.12C567.51,-417.65 559.81,-312.58 500.5,-257 493.91,-250.82 485.76,-246.5 477.14,-243.49"/>
<polygon fill="#63b8ff" stroke="#63b8ff" points="564.42,-462.98 567.87,-472.99 571.42,-463 564.42,-462.98"/>
</a>
</g>
</g>
<!-- Node25 -->
<g id="Node000025" class="node">
<title>Node25</title>
<g id="a_Node000025"><a xlink:href="group___g_p_s_commands.html#gaa4c13d7d324ffb354badf45e9ceffb1c" target="_top" xlink:title="Handler for controlling GPS module power state.">
<polygon fill="white" stroke="#666666" points="475.75,-210 354,-210 354,-190 475.75,-190 475.75,-210"/>
<text text-anchor="middle" x="414.88" y="-196.5" font-family="Helvetica,sans-Serif" font-size="10.00">handleGPSPowerStatus</text>
</a>
</g>
</g>
<!-- Node2&#45;&gt;Node25 -->
<g id="edge26_Node000002_Node000025" class="edge">
<title>Node2&#45;&gt;Node25</title>
<g id="a_edge26_Node000002_Node000025"><a xlink:title=" ">
<path fill="none" stroke="#63b8ff" d="M564.99,-463.54C557.89,-406.56 535.86,-253.45 500.5,-219 493.71,-212.38 485.13,-207.87 476.06,-204.83"/>
<polygon fill="#63b8ff" stroke="#63b8ff" points="561.48,-463.72 566.16,-473.22 568.43,-462.88 561.48,-463.72"/>
</a>
</g>
</g>
<!-- Node26 -->
<g id="Node000026" class="node">
<title>Node26</title>
<g id="a_Node000026"><a xlink:href="group___diagnostic_commands.html#gade74b82cf2c20d93c5e0ce624cd7ca77" target="_top" xlink:title="Handler for listing all available commands on UART.">
<polygon fill="white" stroke="#666666" points="470.12,-172 359.62,-172 359.62,-152 470.12,-152 470.12,-172"/>
<text text-anchor="middle" x="414.88" y="-158.5" font-family="Helvetica,sans-Serif" font-size="10.00">handleListCommands</text>
</a>
</g>
</g>
<!-- Node2&#45;&gt;Node26 -->
<g id="edge27_Node000002_Node000026" class="edge">
<title>Node2&#45;&gt;Node26</title>
<g id="a_edge27_Node000002_Node000026"><a xlink:title=" ">
<path fill="none" stroke="#63b8ff" d="M565.71,-463.42C560.07,-400.86 540.64,-221.3 500.5,-181 492.42,-172.89 481.68,-167.92 470.58,-164.95"/>
<polygon fill="#63b8ff" stroke="#63b8ff" points="562.19,-463.43 566.55,-473.09 569.17,-462.83 562.19,-463.43"/>
</a>
</g>
</g>
<!-- Node27 -->
<g id="Node000027" class="node">
<title>Node27</title>
<g id="a_Node000027"><a xlink:href="group___clock_commands.html#ga1eefb8c4d539d50c787b4db3f6ebb093" target="_top" xlink:title="Handler for getting and setting system time.">
<polygon fill="white" stroke="#666666" points="448,-134 381.75,-134 381.75,-114 448,-114 448,-134"/>
<text text-anchor="middle" x="414.88" y="-120.5" font-family="Helvetica,sans-Serif" font-size="10.00">handleTime</text>
</a>
</g>
</g>
<!-- Node2&#45;&gt;Node27 -->
<g id="edge28_Node000002_Node000027" class="edge">
<title>Node2&#45;&gt;Node27</title>
<g id="a_edge28_Node000002_Node000027"><a xlink:title=" ">
<path fill="none" stroke="#63b8ff" d="M566.28,-463.45C562.02,-395.77 545.49,-189.24 500.5,-143 487.06,-129.19 465.9,-124.44 448.11,-123.14"/>
<polygon fill="#63b8ff" stroke="#63b8ff" points="562.78,-463.44 566.87,-473.21 569.76,-463.02 562.78,-463.44"/>
</a>
</g>
</g>
<!-- Node28 -->
<g id="Node000028" class="node">
<title>Node28</title>
<g id="a_Node000028"><a xlink:href="group___clock_commands.html#ga9378f580aefefb566c6f7d49975afeba" target="_top" xlink:title="Handler for getting and setting timezone offset.">
<polygon fill="white" stroke="#666666" points="471.62,-96 358.12,-96 358.12,-76 471.62,-76 471.62,-96"/>
<text text-anchor="middle" x="414.88" y="-82.5" font-family="Helvetica,sans-Serif" font-size="10.00">handleTimezoneOffset</text>
</a>
</g>
</g>
<!-- Node2&#45;&gt;Node28 -->
<g id="edge29_Node000002_Node000028" class="edge">
<title>Node2&#45;&gt;Node28</title>
<g id="a_edge29_Node000002_Node000028"><a xlink:title=" ">
<path fill="none" stroke="#63b8ff" d="M566.74,-463.46C563.76,-390.92 550.36,-157.22 500.5,-105 492.81,-96.94 482.49,-91.95 471.71,-88.93"/>
<polygon fill="#63b8ff" stroke="#63b8ff" points="563.24,-463.33 567.12,-473.19 570.23,-463.06 563.24,-463.33"/>
</a>
</g>
</g>
<!-- Node29 -->
<g id="Node000029" class="node">
<title>Node29</title>
<g id="a_Node000029"><a xlink:href="main_8cpp.html#a21af2d50d7779336997d5f3456352431" target="_top" xlink:title=" ">
<polygon fill="white" stroke="#666666" points="277.5,-438 209.75,-438 209.75,-418 277.5,-418 277.5,-438"/>
<text text-anchor="middle" x="243.62" y="-424.5" font-family="Helvetica,sans-Serif" font-size="10.00">initSystems</text>
</a>
</g>
</g>
<!-- Node2&#45;&gt;Node29 -->
<g id="edge30_Node000002_Node000029" class="edge">
<title>Node2&#45;&gt;Node29</title>
<g id="a_edge30_Node000002_Node000029"><a xlink:title=" ">
<path fill="none" stroke="#63b8ff" d="M567.54,-463.4C567.18,-385.23 561.43,-118.94 500.5,-67 442.58,-17.62 388.89,-19.72 329.25,-67 271.74,-112.59 249.54,-363.32 245.38,-417.62"/>
<polygon fill="#63b8ff" stroke="#63b8ff" points="564.04,-463.13 567.55,-473.12 571.04,-463.12 564.04,-463.13"/>
</a>
</g>
</g>
<!-- Node30 -->
<g id="Node000030" class="node">
<title>Node30</title>
<g id="a_Node000030"><a xlink:href="frame_8cpp.html#a6005ddd6320bebe2a680fa6b8efff6dd" target="_top" xlink:title="Sends the event register value to the ground station.">
<polygon fill="white" stroke="#666666" points="464.5,-20 365.25,-20 365.25,0 464.5,0 464.5,-20"/>
<text text-anchor="middle" x="414.88" y="-6.5" font-family="Helvetica,sans-Serif" font-size="10.00">sendEventRegister</text>
</a>
</g>
</g>
<!-- Node2&#45;&gt;Node30 -->
<g id="edge34_Node000002_Node000030" class="edge">
<title>Node2&#45;&gt;Node30</title>
<g id="a_edge34_Node000002_Node000030"><a xlink:title=" ">
<path fill="none" stroke="#63b8ff" d="M567.28,-463.06C566.04,-381.76 557.6,-98.98 500.5,-34 491.33,-23.56 477.98,-17.51 464.59,-14.05"/>
<polygon fill="#63b8ff" stroke="#63b8ff" points="563.78,-463.04 567.41,-472.99 570.78,-462.95 563.78,-463.04"/>
</a>
</g>
</g>
<!-- Node3&#45;&gt;Node4 -->
<g id="edge3_Node000003_Node000004" class="edge">
<title>Node3&#45;&gt;Node4</title>
<g id="a_edge3_Node000003_Node000004"><a xlink:title=" ">
<path fill="none" stroke="#63b8ff" d="M366.07,-949.27C342.64,-944.01 314.55,-937.7 291.28,-932.47"/>
<polygon fill="#63b8ff" stroke="#63b8ff" points="365.15,-952.65 375.67,-951.42 366.68,-945.82 365.15,-952.65"/>
</a>
</g>
</g>
<!-- Node5 -->
<g id="Node000005" class="node">
<title>Node5</title>
<g id="a_Node000005"><a xlink:href="receive_8cpp.html#ac5e175a6a1482f700f9aee0b727b924f" target="_top" xlink:title="Handles UART input.">
<polygon fill="white" stroke="#666666" points="158,-932 73,-932 73,-912 158,-912 158,-932"/>
<text text-anchor="middle" x="115.5" y="-918.5" font-family="Helvetica,sans-Serif" font-size="10.00">handleUartInput</text>
</a>
</g>
</g>
<!-- Node4&#45;&gt;Node5 -->
<g id="edge4_Node000004_Node000005" class="edge">
<title>Node4&#45;&gt;Node5</title>
<g id="a_edge4_Node000004_Node000005"><a xlink:title=" ">
<path fill="none" stroke="#63b8ff" d="M182.19,-922C174.12,-922 165.99,-922 158.33,-922"/>
<polygon fill="#63b8ff" stroke="#63b8ff" points="181.99,-925.5 191.99,-922 181.99,-918.5 181.99,-925.5"/>
</a>
</g>
</g>
<!-- Node7 -->
<g id="Node000007" class="node">
<title>Node7</title>
<g id="a_Node000007"><a xlink:href="receive_8cpp.html#a54817002e33761dc61558b1138749dfb" target="_top" xlink:title="Callback function for handling received LoRa packets.">
<polygon fill="white" stroke="#666666" points="146.75,-894 84.25,-894 84.25,-874 146.75,-874 146.75,-894"/>
<text text-anchor="middle" x="115.5" y="-880.5" font-family="Helvetica,sans-Serif" font-size="10.00">onReceive</text>
</a>
</g>
</g>
<!-- Node4&#45;&gt;Node7 -->
<g id="edge6_Node000004_Node000007" class="edge">
<title>Node4&#45;&gt;Node7</title>
<g id="a_edge6_Node000004_Node000007"><a xlink:title=" ">
<path fill="none" stroke="#63b8ff" d="M197.16,-908.3C180.45,-903.27 161.96,-897.7 146.89,-893.16"/>
<polygon fill="#63b8ff" stroke="#63b8ff" points="195.79,-911.55 206.38,-911.08 197.81,-904.84 195.79,-911.55"/>
</a>
</g>
</g>
<!-- Node5&#45;&gt;Node6 -->
<g id="edge5_Node000005_Node000006" class="edge">
<title>Node5&#45;&gt;Node6</title>
<g id="a_edge5_Node000005_Node000006"><a xlink:title=" ">
<path fill="none" stroke="#63b8ff" d="M79.76,-906.69C77.45,-905.49 75.17,-904.26 73,-903 58.59,-894.69 43.22,-883.49 32.67,-875.41"/>
<polygon fill="#63b8ff" stroke="#63b8ff" points="78.1,-909.77 88.62,-911.03 81.18,-903.49 78.1,-909.77"/>
</a>
</g>
</g>
<!-- Node7&#45;&gt;Node6 -->
<g id="edge7_Node000007_Node000006" class="edge">
<title>Node7&#45;&gt;Node6</title>
<g id="a_edge7_Node000007_Node000006"><a xlink:title=" ">
<path fill="none" stroke="#63b8ff" d="M72.74,-875.65C60.29,-873.16 47.31,-870.56 37.28,-868.56"/>
<polygon fill="#63b8ff" stroke="#63b8ff" points="71.94,-879.06 82.43,-877.59 73.31,-872.19 71.94,-879.06"/>
</a>
</g>
</g>
<!-- Node8&#45;&gt;Node4 -->
<g id="edge9_Node000008_Node000004" class="edge">
<title>Node8&#45;&gt;Node4</title>
<g id="a_edge9_Node000008_Node000004"><a xlink:title=" ">
<path fill="none" stroke="#63b8ff" d="M356.04,-896.98C334.88,-901.74 311.22,-907.05 291.17,-911.55"/>
<polygon fill="#63b8ff" stroke="#63b8ff" points="356.71,-900.42 365.7,-894.82 355.18,-893.59 356.71,-900.42"/>
</a>
</g>
</g>
<!-- Node29&#45;&gt;Node6 -->
<g id="edge31_Node000029_Node000006" class="edge">
<title>Node29&#45;&gt;Node6</title>
<g id="a_edge31_Node000029_Node000006"><a xlink:title=" ">
<path fill="none" stroke="#63b8ff" d="M232.29,-448.25C193.02,-525.15 53.9,-797.62 24.84,-854.53"/>
<polygon fill="#63b8ff" stroke="#63b8ff" points="235.21,-450.22 236.64,-439.72 228.98,-447.03 235.21,-450.22"/>
</a>
</g>
</g>
</g>
</svg>

<g id="navigator" transform="translate(0 0)" fill="#404254">
  <rect fill="#f2f5e9" fill-opacity="0.5" stroke="#606060" stroke-width=".5" x="0" y="0" width="60" height="60"/>
  <use id="zoomplus" xlink:href="#zoomPlus" x="17" y="9" onmousedown="handleZoom(evt,'in')"/>
  <use id="zoomminus" xlink:href="#zoomMin" x="42" y="9" onmousedown="handleZoom(evt,'out')"/>
  <use id="reset" xlink:href="#resetDef" x="30" y="36" onmousedown="handleReset()"/>
   <use id="arrowup" xlink:href="#arrowUp" x="0" y="0" onmousedown="handlePan(0,-1)"/>
  <use id="arrowright" xlink:href="#arrowRight" x="0" y="0" onmousedown="handlePan(1,0)"/>
  <use id="arrowdown" xlink:href="#arrowDown" x="0" y="0" onmousedown="handlePan(0,1)"/>
  <use id="arrowleft" xlink:href="#arrowLeft" x="0" y="0" onmousedown="handlePan(-1,0)"/>
</g>
<svg viewBox="0 0 15 15" width="100%" height="30px" preserveAspectRatio="xMaxYMin meet">
 <g id="arrow_out" transform="scale(0.3 0.3)">
  <a xlink:href="utils__converters_8cpp_ab4cb9e6b491bd7711c69c9167a2b9286_icgraph_org.svg" target="_base">
   <rect id="button" ry="5" rx="5" y="6" x="6" height="38" width="38"
        fill="#f2f5e9" fill-opacity="0.5" stroke="#606060" stroke-width="1.0"/>
   <path id="arrow"
     d="M 11.500037,31.436501 C 11.940474,20.09759 22.043105,11.32322 32.158766,21.979434 L 37.068811,17.246167 C 37.068811,17.246167 37.088388,32 37.088388,32 L 22.160133,31.978069 C 22.160133,31.978069 26.997745,27.140456 26.997745,27.140456 C 18.528582,18.264221 13.291696,25.230495 11.500037,31.436501 z"
     style="fill:#404040;"/>
  </a>
 </g>
</svg>

<style type='text/css'>
<![CDATA[
[data-mouse-over-selected='false'] { opacity: 0.7; }
[data-mouse-over-selected='true']  { opacity: 1.0; }
]]>
</style>
<script type="application/ecmascript"><![CDATA[
document.addEventListener('DOMContentLoaded', (event) => {
  highlightEdges();
  highlightAdjacentNodes();
});
]]></script>
</svg>
