<?xml version="1.0" encoding="UTF-8" standalone="no"?>
<!DOCTYPE svg PUBLIC "-//W3C//DTD SVG 1.1//EN"
 "http://www.w3.org/Graphics/SVG/1.1/DTD/svg11.dtd">
<!-- Generated by graphviz version 12.2.1 (20241206.2353)
 -->
<!-- Title: hex_string_to_bytes Pages: 1 -->
<svg width="356pt" height="28pt"
 viewBox="0.00 0.00 356.00 28.00" xmlns="http://www.w3.org/2000/svg" xmlns:xlink="http://www.w3.org/1999/xlink">
<g id="graph0" class="graph" transform="scale(1 1) rotate(0) translate(4 24)">
<title>hex_string_to_bytes</title>
<!-- Node1 -->
<g id="Node000001" class="node">
<title>Node1</title>
<g id="a_Node000001"><a xlink:title="Converts a hex string to a vector of bytes.">
<polygon fill="#999999" stroke="#666666" points="348,-20 244.25,-20 244.25,0 348,0 348,-20"/>
<text text-anchor="middle" x="296.12" y="-6.5" font-family="Helvetica,sans-Serif" font-size="10.00">hex_string_to_bytes</text>
</a>
</g>
</g>
<!-- Node2 -->
<g id="Node000002" class="node">
<title>Node2</title>
<g id="a_Node000002"><a xlink:href="test__converters_8cpp.html#ad2d60ef4ab9bcd7adf10127705269acf" target="_top" xlink:title=" ">
<polygon fill="white" stroke="#666666" points="208.25,-20 73,-20 73,0 208.25,0 208.25,-20"/>
<text text-anchor="middle" x="140.62" y="-6.5" font-family="Helvetica,sans-Serif" font-size="10.00">test_hex_string_conversion</text>
</a>
</g>
</g>
<!-- Node1&#45;&gt;Node2 -->
<g id="edge1_Node000001_Node000002" class="edge">
<title>Node1&#45;&gt;Node2</title>
<g id="a_edge1_Node000001_Node000002"><a xlink:title=" ">
<path fill="none" stroke="#63b8ff" d="M232.62,-10C224.71,-10 216.6,-10 208.63,-10"/>
<polygon fill="#63b8ff" stroke="#63b8ff" points="232.5,-13.5 242.5,-10 232.5,-6.5 232.5,-13.5"/>
</a>
</g>
</g>
<!-- Node3 -->
<g id="Node000003" class="node">
<title>Node3</title>
<g id="a_Node000003"><a xlink:href="test__runner_8cpp.html#a840291bc02cba5474a4cb46a9b9566fe" target="_top" xlink:title=" ">
<polygon fill="white" stroke="#666666" points="37,-20 0,-20 0,0 37,0 37,-20"/>
<text text-anchor="middle" x="18.5" y="-6.5" font-family="Helvetica,sans-Serif" font-size="10.00">main</text>
</a>
</g>
</g>
<!-- Node2&#45;&gt;Node3 -->
<g id="edge2_Node000002_Node000003" class="edge">
<title>Node2&#45;&gt;Node3</title>
<g id="a_edge2_Node000002_Node000003"><a xlink:title=" ">
<path fill="none" stroke="#63b8ff" d="M61.05,-10C52.17,-10 43.9,-10 37.1,-10"/>
<polygon fill="#63b8ff" stroke="#63b8ff" points="61.02,-13.5 71.02,-10 61.02,-6.5 61.02,-13.5"/>
</a>
</g>
</g>
</g>
</svg>
