<?xml version="1.0" encoding="UTF-8" standalone="no"?>
<!DOCTYPE svg PUBLIC "-//W3C//DTD SVG 1.1//EN"
 "http://www.w3.org/Graphics/SVG/1.1/DTD/svg11.dtd">
<!-- Generated by graphviz version 12.2.1 (20241206.2353)
 -->
<!-- Title: uartPrint Pages: 1 -->
<!--zoomable 978 -->

<svg id="main" version="1.1" xmlns="http://www.w3.org/2000/svg" xmlns:xlink="http://www.w3.org/1999/xlink" xml:space="preserve" onload="init(evt)">

<style type="text/css"><![CDATA[
.node, .edge {opacity: 0.7;}
.node.selected, .edge.selected {opacity: 1;}
.edge:hover path { stroke: red; }
.edge:hover polygon { stroke: red; fill: red; }
]]></style>

<defs>
  <circle id="rim" cx="0" cy="0" r="7"/>
  <circle id="rim2" cx="0" cy="0" r="3.5"/>
  <g id="zoomPlus">
    <use xlink:href="#rim" fill="#404040"><set attributeName="fill" to="#808080" begin="zoomplus.mouseover" end="zoomplus.mouseout"/></use>
    <path d="M-4,0h8M0,-4v8" fill="none" stroke="white" stroke-width="1.5" pointer-events="none"/>
  </g>
  <g id="zoomMin">
    <use xlink:href="#rim" fill="#404040"><set attributeName="fill" to="#808080" begin="zoomminus.mouseover" end="zoomminus.mouseout"/></use>
    <path d="M-4,0h8" fill="none" stroke="white" stroke-width="1.5" pointer-events="none"/>
  </g>
  <g id="arrowUp" transform="translate(30 24)">
    <use xlink:href="#rim"/>
    <path pointer-events="none" fill="none" stroke="white" stroke-width="1.5" d="M0,-3.0v7 M-2.5,-0.5L0,-3.0L2.5,-0.5"/>
  </g>
  <g id="arrowRight" transform="rotate(90) translate(36 -43)">
    <use xlink:href="#rim"/>
    <path pointer-events="none" fill="none" stroke="white" stroke-width="1.5" d="M0,-3.0v7 M-2.5,-0.5L0,-3.0L2.5,-0.5"/>
  </g>
  <g id="arrowDown" transform="rotate(180) translate(-30 -48)">
    <use xlink:href="#rim"/>
    <path pointer-events="none" fill="none" stroke="white" stroke-width="1.5" d="M0,-3.0v7 M-2.5,-0.5L0,-3.0L2.5,-0.5"/>
  </g>
  <g id="arrowLeft" transform="rotate(270) translate(-36 17)">
    <use xlink:href="#rim"/>
    <path pointer-events="none" fill="none" stroke="white" stroke-width="1.5" d="M0,-3.0v7 M-2.5,-0.5L0,-3.0L2.5,-0.5"/>
  </g>
  <g id="resetDef">
    <use xlink:href="#rim2" fill="#404040"><set attributeName="fill" to="#808080" begin="reset.mouseover" end="reset.mouseout"/></use>
  </g>
</defs>
<script type="application/ecmascript">
var viewWidth = 920;
var viewHeight = 978;
var sectionId = 'dynsection-2';
</script>
<script type="application/ecmascript" xlink:href="svg.min.js"/>
<svg id="graph" class="graph">
<g id="viewport">
<title>uartPrint</title>
<!-- Node1 -->
<g id="Node000001" class="node">
<title>Node1</title>
<g id="a_Node000001"><a xlink:title="Prints a message to the UART with a timestamp and core number.">
<polygon fill="#999999" stroke="#666666" points="912.25,-495 859.5,-495 859.5,-475 912.25,-475 912.25,-495"/>
<text text-anchor="middle" x="885.88" y="-481.5" font-family="Helvetica,sans-Serif" font-size="10.00">uartPrint</text>
</a>
</g>
</g>
<!-- Node2 -->
<g id="Node000002" class="node">
<title>Node2</title>
<g id="a_Node000002"><a xlink:href="class_i_n_a3221.html#a868af24425b042f330a0e7fae8210936" target="_top" xlink:title=" ">
<polygon fill="white" stroke="#666666" points="779.62,-970 696.12,-970 696.12,-950 779.62,-950 779.62,-970"/>
<text text-anchor="middle" x="737.88" y="-956.5" font-family="Helvetica,sans-Serif" font-size="10.00">INA3221::begin</text>
</a>
</g>
</g>
<!-- Node1&#45;&gt;Node2 -->
<g id="edge1_Node000001_Node000002" class="edge">
<title>Node1&#45;&gt;Node2</title>
<g id="a_edge1_Node000001_Node000002"><a xlink:title=" ">
<path fill="none" stroke="#63b8ff" d="M885.1,-506.73C885.5,-588.53 882.61,-876.5 823.5,-941 812.51,-952.99 795.73,-958.24 780.01,-960.31"/>
<polygon fill="#63b8ff" stroke="#63b8ff" points="888.6,-506.74 885.03,-496.76 881.6,-506.79 888.6,-506.74"/>
</a>
</g>
</g>
<!-- Node3 -->
<g id="Node000003" class="node">
<title>Node3</title>
<g id="a_Node000003"><a xlink:href="event__manager_8cpp.html#a467714d66058f52e4ac7aeb6df46b433" target="_top" xlink:title="Checks power statuses and triggers events based on voltage trends.">
<polygon fill="white" stroke="#666666" points="788.25,-932 687.5,-932 687.5,-912 788.25,-912 788.25,-932"/>
<text text-anchor="middle" x="737.88" y="-918.5" font-family="Helvetica,sans-Serif" font-size="10.00">checkPowerEvents</text>
</a>
</g>
</g>
<!-- Node1&#45;&gt;Node3 -->
<g id="edge2_Node000001_Node000003" class="edge">
<title>Node1&#45;&gt;Node3</title>
<g id="a_edge2_Node000001_Node000003"><a xlink:title=" ">
<path fill="none" stroke="#63b8ff" d="M884.65,-506.78C883.41,-583.37 875.41,-838.94 823.5,-898 814.53,-908.21 801.57,-914.22 788.47,-917.72"/>
<polygon fill="#63b8ff" stroke="#63b8ff" points="888.15,-506.91 884.78,-496.87 881.15,-506.82 888.15,-506.91"/>
</a>
</g>
</g>
<!-- Node4 -->
<g id="Node000004" class="node">
<title>Node4</title>
<g id="a_Node000004"><a xlink:href="main_8cpp.html#a9f153132b8b4afad133b952111e18bd9" target="_top" xlink:title=" ">
<polygon fill="white" stroke="#666666" points="593.38,-894 526.38,-894 526.38,-874 593.38,-874 593.38,-894"/>
<text text-anchor="middle" x="559.88" y="-880.5" font-family="Helvetica,sans-Serif" font-size="10.00">core1_entry</text>
</a>
</g>
</g>
<!-- Node1&#45;&gt;Node4 -->
<g id="edge5_Node000001_Node000004" class="edge">
<title>Node1&#45;&gt;Node4</title>
<g id="a_edge5_Node000001_Node000004"><a xlink:title=" ">
<path fill="none" stroke="#63b8ff" d="M884.66,-506.49C883.45,-578.81 875.53,-811.54 823.5,-860 790.92,-890.35 656.25,-888.43 593.42,-885.76"/>
<polygon fill="#63b8ff" stroke="#63b8ff" points="888.16,-506.83 884.79,-496.79 881.16,-506.74 888.16,-506.83"/>
</a>
</g>
</g>
<!-- Node5 -->
<g id="Node000005" class="node">
<title>Node5</title>
<g id="a_Node000005"><a xlink:href="main_8cpp.html#ae66f6b31b5ad750f1fe042a706a4e3d4" target="_top" xlink:title=" ">
<polygon fill="white" stroke="#666666" points="37,-666 0,-666 0,-646 37,-646 37,-666"/>
<text text-anchor="middle" x="18.5" y="-652.5" font-family="Helvetica,sans-Serif" font-size="10.00">main</text>
</a>
</g>
</g>
<!-- Node1&#45;&gt;Node5 -->
<g id="edge33_Node000001_Node000005" class="edge">
<title>Node1&#45;&gt;Node5</title>
<g id="a_edge33_Node000001_Node000005"><a xlink:title=" ">
<path fill="none" stroke="#63b8ff" d="M884.02,-506.61C880.93,-572.65 868.08,-769.88 823.5,-812 737.95,-892.83 678.57,-846 560.88,-846 560.88,-846 560.88,-846 242.62,-846 130.95,-846 46.74,-706.32 25,-666.49"/>
<polygon fill="#63b8ff" stroke="#63b8ff" points="887.51,-506.89 884.45,-496.75 880.52,-506.59 887.51,-506.89"/>
</a>
</g>
</g>
<!-- Node6 -->
<g id="Node000006" class="node">
<title>Node6</title>
<g id="a_Node000006"><a xlink:href="frame_8cpp.html#a8f34bc31494430539db21206f084d39d" target="_top" xlink:title="Converts a string into a Frame instance.">
<polygon fill="white" stroke="#666666" points="436,-780 360.75,-780 360.75,-760 436,-760 436,-780"/>
<text text-anchor="middle" x="398.38" y="-766.5" font-family="Helvetica,sans-Serif" font-size="10.00">decodeFrame</text>
</a>
</g>
</g>
<!-- Node1&#45;&gt;Node6 -->
<g id="edge6_Node000001_Node000006" class="edge">
<title>Node1&#45;&gt;Node6</title>
<g id="a_edge6_Node000001_Node000006"><a xlink:title=" ">
<path fill="none" stroke="#63b8ff" d="M882.95,-506.84C877.48,-563.39 859.83,-712.37 823.5,-743 765.68,-791.74 528.49,-779.74 436.28,-773.02"/>
<polygon fill="#63b8ff" stroke="#63b8ff" points="886.43,-507.19 883.87,-496.91 879.46,-506.54 886.43,-507.19"/>
</a>
</g>
</g>
<!-- Node8 -->
<g id="Node000008" class="node">
<title>Node8</title>
<g id="a_Node000008"><a xlink:href="receive_8cpp.html#ac5e175a6a1482f700f9aee0b727b924f" target="_top" xlink:title="Handles UART input.">
<polygon fill="white" stroke="#666666" points="158,-704 73,-704 73,-684 158,-684 158,-704"/>
<text text-anchor="middle" x="115.5" y="-690.5" font-family="Helvetica,sans-Serif" font-size="10.00">handleUartInput</text>
</a>
</g>
</g>
<!-- Node1&#45;&gt;Node8 -->
<g id="edge28_Node000001_Node000008" class="edge">
<title>Node1&#45;&gt;Node8</title>
<g id="a_edge28_Node000001_Node000008"><a xlink:title=" ">
<path fill="none" stroke="#63b8ff" d="M883.47,-506.54C879.03,-567.38 863.19,-738.49 823.5,-775 736.91,-854.64 678.52,-808 560.88,-808 560.88,-808 560.88,-808 397.38,-808 287.65,-808 170.34,-732.38 130.59,-704.32"/>
<polygon fill="#63b8ff" stroke="#63b8ff" points="886.94,-507.04 884.14,-496.83 879.96,-506.56 886.94,-507.04"/>
</a>
</g>
</g>
<!-- Node9 -->
<g id="Node000009" class="node">
<title>Node9</title>
<g id="a_Node000009"><a xlink:href="receive_8cpp.html#a54817002e33761dc61558b1138749dfb" target="_top" xlink:title="Callback function for handling received LoRa packets.">
<polygon fill="white" stroke="#666666" points="146.75,-590 84.25,-590 84.25,-570 146.75,-570 146.75,-590"/>
<text text-anchor="middle" x="115.5" y="-576.5" font-family="Helvetica,sans-Serif" font-size="10.00">onReceive</text>
</a>
</g>
</g>
<!-- Node1&#45;&gt;Node9 -->
<g id="edge34_Node000001_Node000009" class="edge">
<title>Node1&#45;&gt;Node9</title>
<g id="a_edge34_Node000001_Node000009"><a xlink:title=" ">
<path fill="none" stroke="#63b8ff" d="M880.39,-506.28C873.42,-533.33 857.14,-578.91 823.5,-599 707.41,-668.34 267.75,-604.3 147.22,-585.06"/>
<polygon fill="#63b8ff" stroke="#63b8ff" points="883.74,-507.33 882.62,-496.79 876.92,-505.72 883.74,-507.33"/>
</a>
</g>
</g>
<!-- Node10 -->
<g id="Node000010" class="node">
<title>Node10</title>
<g id="a_Node000010"><a xlink:href="storage_8cpp.html#a1ed8daa820da91b458072334ecec9618" target="_top" xlink:title="Closes a file.">
<polygon fill="white" stroke="#666666" points="773.25,-704 702.5,-704 702.5,-684 773.25,-684 773.25,-704"/>
<text text-anchor="middle" x="737.88" y="-690.5" font-family="Helvetica,sans-Serif" font-size="10.00">fs_close_file</text>
</a>
</g>
</g>
<!-- Node1&#45;&gt;Node10 -->
<g id="edge12_Node000001_Node000010" class="edge">
<title>Node1&#45;&gt;Node10</title>
<g id="a_edge12_Node000001_Node000010"><a xlink:title=" ">
<path fill="none" stroke="#63b8ff" d="M884.5,-506.41C882.58,-545.89 872.61,-630.19 823.5,-675 810.04,-687.28 790.4,-692.2 773.43,-693.97"/>
<polygon fill="#63b8ff" stroke="#63b8ff" points="887.99,-506.69 884.83,-496.58 880.99,-506.46 887.99,-506.69"/>
</a>
</g>
</g>
<!-- Node11 -->
<g id="Node000011" class="node">
<title>Node11</title>
<g id="a_Node000011"><a xlink:href="storage_8cpp.html#afb19e37469a751aa61de3dcd0c70b4b0" target="_top" xlink:title="Initializes the file system on the SD card.">
<polygon fill="white" stroke="#666666" points="581,-267 538.75,-267 538.75,-247 581,-247 581,-267"/>
<text text-anchor="middle" x="559.88" y="-253.5" font-family="Helvetica,sans-Serif" font-size="10.00">fs_init</text>
</a>
</g>
</g>
<!-- Node1&#45;&gt;Node11 -->
<g id="edge13_Node000001_Node000011" class="edge">
<title>Node1&#45;&gt;Node11</title>
<g id="a_edge13_Node000001_Node000011"><a xlink:title=" ">
<path fill="none" stroke="#63b8ff" d="M884.44,-463.03C882.57,-394.11 872.84,-184.27 823.5,-143 765.12,-94.17 720.86,-110.06 652.25,-143 606.29,-165.06 576.17,-222.76 565.35,-246.53"/>
<polygon fill="#63b8ff" stroke="#63b8ff" points="880.94,-463.09 884.68,-473.01 887.94,-462.93 880.94,-463.09"/>
</a>
</g>
</g>
<!-- Node12 -->
<g id="Node000012" class="node">
<title>Node12</title>
<g id="a_Node000012"><a xlink:href="main_8cpp.html#a21af2d50d7779336997d5f3456352431" target="_top" xlink:title=" ">
<polygon fill="white" stroke="#666666" points="432.25,-438 364.5,-438 364.5,-418 432.25,-418 432.25,-438"/>
<text text-anchor="middle" x="398.38" y="-424.5" font-family="Helvetica,sans-Serif" font-size="10.00">initSystems</text>
</a>
</g>
</g>
<!-- Node1&#45;&gt;Node12 -->
<g id="edge31_Node000001_Node000012" class="edge">
<title>Node1&#45;&gt;Node12</title>
<g id="a_edge31_Node000001_Node000012"><a xlink:title=" ">
<path fill="none" stroke="#63b8ff" d="M885.22,-463.42C885.97,-385.32 883.96,-119.23 823.5,-67 765.9,-17.24 721.51,-35.45 652.25,-67 494.52,-138.85 417.95,-366.15 402.39,-417.59"/>
<polygon fill="#63b8ff" stroke="#63b8ff" points="881.72,-463.09 885.1,-473.13 888.72,-463.18 881.72,-463.09"/>
</a>
</g>
</g>
<!-- Node13 -->
<g id="Node000013" class="node">
<title>Node13</title>
<g id="a_Node000013"><a xlink:href="storage_8cpp.html#a921d0d7089c0c7731762035e7feeb27a" target="_top" xlink:title="Opens a file.">
<polygon fill="white" stroke="#666666" points="772.12,-590 703.62,-590 703.62,-570 772.12,-570 772.12,-590"/>
<text text-anchor="middle" x="737.88" y="-576.5" font-family="Helvetica,sans-Serif" font-size="10.00">fs_open_file</text>
</a>
</g>
</g>
<!-- Node1&#45;&gt;Node13 -->
<g id="edge16_Node000001_Node000013" class="edge">
<title>Node1&#45;&gt;Node13</title>
<g id="a_edge16_Node000001_Node000013"><a xlink:title=" ">
<path fill="none" stroke="#63b8ff" d="M873.81,-505.29C863.2,-522.77 845.57,-547.28 823.5,-561 808.28,-570.46 788.93,-575.23 772.57,-577.63"/>
<polygon fill="#63b8ff" stroke="#63b8ff" points="876.75,-507.19 878.72,-496.78 870.69,-503.69 876.75,-507.19"/>
</a>
</g>
</g>
<!-- Node14 -->
<g id="Node000014" class="node">
<title>Node14</title>
<g id="a_Node000014"><a xlink:href="storage_8cpp.html#a259e40f946e1178329ed6cdf18c35b0c" target="_top" xlink:title="Reads data from a file.">
<polygon fill="white" stroke="#666666" points="771,-552 704.75,-552 704.75,-532 771,-532 771,-552"/>
<text text-anchor="middle" x="737.88" y="-538.5" font-family="Helvetica,sans-Serif" font-size="10.00">fs_read_file</text>
</a>
</g>
</g>
<!-- Node1&#45;&gt;Node14 -->
<g id="edge17_Node000001_Node000014" class="edge">
<title>Node1&#45;&gt;Node14</title>
<g id="a_edge17_Node000001_Node000014"><a xlink:title=" ">
<path fill="none" stroke="#63b8ff" d="M861.63,-501.96C850.55,-509.35 836.82,-517.56 823.5,-523 806.91,-529.77 787.46,-534.35 771.39,-537.32"/>
<polygon fill="#63b8ff" stroke="#63b8ff" points="863.49,-504.92 869.73,-496.36 859.51,-499.16 863.49,-504.92"/>
</a>
</g>
</g>
<!-- Node15 -->
<g id="Node000015" class="node">
<title>Node15</title>
<g id="a_Node000015"><a xlink:href="storage_8cpp.html#aab35cc4af25dd4a32624e51bf0fcda5b" target="_top" xlink:title="Writes data to a file.">
<polygon fill="white" stroke="#666666" points="772.12,-514 703.62,-514 703.62,-494 772.12,-494 772.12,-514"/>
<text text-anchor="middle" x="737.88" y="-500.5" font-family="Helvetica,sans-Serif" font-size="10.00">fs_write_file</text>
</a>
</g>
</g>
<!-- Node1&#45;&gt;Node15 -->
<g id="edge18_Node000001_Node000015" class="edge">
<title>Node1&#45;&gt;Node15</title>
<g id="a_edge18_Node000001_Node000015"><a xlink:title=" ">
<path fill="none" stroke="#63b8ff" d="M847.99,-489.8C824.82,-492.82 795.16,-496.68 772.62,-499.61"/>
<polygon fill="#63b8ff" stroke="#63b8ff" points="848.14,-493.31 857.61,-488.55 847.24,-486.37 848.14,-493.31"/>
</a>
</g>
</g>
<!-- Node16 -->
<g id="Node000016" class="node">
<title>Node16</title>
<g id="a_Node000016"><a xlink:href="group___g_p_s_commands.html#gad12f2e18bdfecbd5b6e8d8a84bb9cd77" target="_top" xlink:title="Handler for enabling GPS transparent mode (UART pass&#45;through)">
<polygon fill="white" stroke="#666666" points="823.5,-476 652.25,-476 652.25,-456 823.5,-456 823.5,-476"/>
<text text-anchor="middle" x="737.88" y="-462.5" font-family="Helvetica,sans-Serif" font-size="10.00">handleEnableGPSTransparentMode</text>
</a>
</g>
</g>
<!-- Node1&#45;&gt;Node16 -->
<g id="edge19_Node000001_Node000016" class="edge">
<title>Node1&#45;&gt;Node16</title>
<g id="a_edge19_Node000001_Node000016"><a xlink:title=" ">
<path fill="none" stroke="#63b8ff" d="M847.81,-480.18C839.06,-479.04 829.39,-477.78 819.53,-476.5"/>
<polygon fill="#63b8ff" stroke="#63b8ff" points="847.24,-483.63 857.61,-481.45 848.14,-476.69 847.24,-483.63"/>
</a>
</g>
</g>
<!-- Node17 -->
<g id="Node000017" class="node">
<title>Node17</title>
<g id="a_Node000017"><a xlink:href="group___diagnostic_commands.html#ga3a6c6092cd01fd9c13ab429f4a34326d" target="_top" xlink:title="Reboot system to USB firmware loader.">
<polygon fill="white" stroke="#666666" points="467.5,-742 329.25,-742 329.25,-722 467.5,-722 467.5,-742"/>
<text text-anchor="middle" x="398.38" y="-728.5" font-family="Helvetica,sans-Serif" font-size="10.00">handleEnterBootloaderMode</text>
</a>
</g>
</g>
<!-- Node1&#45;&gt;Node17 -->
<g id="edge20_Node000001_Node000017" class="edge">
<title>Node1&#45;&gt;Node17</title>
<g id="a_edge20_Node000001_Node000017"><a xlink:title=" ">
<path fill="none" stroke="#63b8ff" d="M882.27,-506.71C875.58,-558.51 855.99,-686.92 823.5,-713 770.47,-755.56 573.58,-746.64 467.74,-738.34"/>
<polygon fill="#63b8ff" stroke="#63b8ff" points="885.74,-507.16 883.51,-496.81 878.8,-506.3 885.74,-507.16"/>
</a>
</g>
</g>
<!-- Node18 -->
<g id="Node000018" class="node">
<title>Node18</title>
<g id="a_Node000018"><a xlink:href="group___power_commands.html#ga6fbaf484e68c9561ad7fabef21def37b" target="_top" xlink:title="Handler for getting solar panel charge current.">
<polygon fill="white" stroke="#666666" points="811.12,-400 664.62,-400 664.62,-380 811.12,-380 811.12,-400"/>
<text text-anchor="middle" x="737.88" y="-386.5" font-family="Helvetica,sans-Serif" font-size="10.00">handleGetCurrentChargeSolar</text>
</a>
</g>
</g>
<!-- Node1&#45;&gt;Node18 -->
<g id="edge21_Node000001_Node000018" class="edge">
<title>Node1&#45;&gt;Node18</title>
<g id="a_edge21_Node000001_Node000018"><a xlink:title=" ">
<path fill="none" stroke="#63b8ff" d="M872.47,-465.09C861.48,-449.04 844.02,-427.07 823.5,-414 814.36,-408.17 803.77,-403.73 793.26,-400.36"/>
<polygon fill="#63b8ff" stroke="#63b8ff" points="869.48,-466.92 877.89,-473.36 875.34,-463.08 869.48,-466.92"/>
</a>
</g>
</g>
<!-- Node19 -->
<g id="Node000019" class="node">
<title>Node19</title>
<g id="a_Node000019"><a xlink:href="group___power_commands.html#ga83596ea837df6cf7b15e673b95bf524f" target="_top" xlink:title="Handler for getting total charge current.">
<polygon fill="white" stroke="#666666" points="810.38,-362 665.38,-362 665.38,-342 810.38,-342 810.38,-362"/>
<text text-anchor="middle" x="737.88" y="-348.5" font-family="Helvetica,sans-Serif" font-size="10.00">handleGetCurrentChargeTotal</text>
</a>
</g>
</g>
<!-- Node1&#45;&gt;Node19 -->
<g id="edge22_Node000001_Node000019" class="edge">
<title>Node1&#45;&gt;Node19</title>
<g id="a_edge22_Node000001_Node000019"><a xlink:title=" ">
<path fill="none" stroke="#63b8ff" d="M879.31,-463.69C871.38,-437.69 854.27,-394.34 823.5,-371 818.94,-367.54 813.87,-364.69 808.54,-362.35"/>
<polygon fill="#63b8ff" stroke="#63b8ff" points="875.89,-464.46 881.99,-473.13 882.62,-462.55 875.89,-464.46"/>
</a>
</g>
</g>
<!-- Node20 -->
<g id="Node000020" class="node">
<title>Node20</title>
<g id="a_Node000020"><a xlink:href="group___power_commands.html#ga3f38c538065bf67dbec1142fdb866d16" target="_top" xlink:title="Handler for getting USB charge current.">
<polygon fill="white" stroke="#666666" points="810.38,-324 665.38,-324 665.38,-304 810.38,-304 810.38,-324"/>
<text text-anchor="middle" x="737.88" y="-310.5" font-family="Helvetica,sans-Serif" font-size="10.00">handleGetCurrentChargeUSB</text>
</a>
</g>
</g>
<!-- Node1&#45;&gt;Node20 -->
<g id="edge23_Node000001_Node000020" class="edge">
<title>Node1&#45;&gt;Node20</title>
<g id="a_edge23_Node000001_Node000020"><a xlink:title=" ">
<path fill="none" stroke="#63b8ff" d="M882.48,-463.49C877.59,-430.28 863.32,-366.81 823.5,-333 819.48,-329.59 814.98,-326.76 810.21,-324.41"/>
<polygon fill="#63b8ff" stroke="#63b8ff" points="878.97,-463.65 883.73,-473.12 885.91,-462.75 878.97,-463.65"/>
</a>
</g>
</g>
<!-- Node21 -->
<g id="Node000021" class="node">
<title>Node21</title>
<g id="a_Node000021"><a xlink:href="group___power_commands.html#gabd6610f557fe9deaa9f80d9405738226" target="_top" xlink:title="Handler for getting system current draw.">
<polygon fill="white" stroke="#666666" points="795.75,-286 680,-286 680,-266 795.75,-266 795.75,-286"/>
<text text-anchor="middle" x="737.88" y="-272.5" font-family="Helvetica,sans-Serif" font-size="10.00">handleGetCurrentDraw</text>
</a>
</g>
</g>
<!-- Node1&#45;&gt;Node21 -->
<g id="edge24_Node000001_Node000021" class="edge">
<title>Node1&#45;&gt;Node21</title>
<g id="a_edge24_Node000001_Node000021"><a xlink:title=" ">
<path fill="none" stroke="#63b8ff" d="M884.5,-463.59C882.58,-424.11 872.61,-339.81 823.5,-295 815.82,-288 806.14,-283.39 796.08,-280.39"/>
<polygon fill="#63b8ff" stroke="#63b8ff" points="880.99,-463.54 884.83,-473.42 887.99,-463.31 880.99,-463.54"/>
</a>
</g>
</g>
<!-- Node22 -->
<g id="Node000022" class="node">
<title>Node22</title>
<g id="a_Node000022"><a xlink:href="group___power_commands.html#ga9f2b608f46080fcdae38a1a8454938b8" target="_top" xlink:title="Handler for getting 5V rail voltage.">
<polygon fill="white" stroke="#666666" points="790.12,-248 685.62,-248 685.62,-228 790.12,-228 790.12,-248"/>
<text text-anchor="middle" x="737.88" y="-234.5" font-family="Helvetica,sans-Serif" font-size="10.00">handleGetVoltage5V</text>
</a>
</g>
</g>
<!-- Node1&#45;&gt;Node22 -->
<g id="edge25_Node000001_Node000022" class="edge">
<title>Node1&#45;&gt;Node22</title>
<g id="a_edge25_Node000001_Node000022"><a xlink:title=" ">
<path fill="none" stroke="#63b8ff" d="M881.91,-463.29C874.49,-412.06 853.51,-285.77 823.5,-257 814.48,-248.35 802.41,-243.31 790.22,-240.45"/>
<polygon fill="#63b8ff" stroke="#63b8ff" points="878.43,-463.68 883.3,-473.09 885.37,-462.7 878.43,-463.68"/>
</a>
</g>
</g>
<!-- Node23 -->
<g id="Node000023" class="node">
<title>Node23</title>
<g id="a_Node000023"><a xlink:href="group___power_commands.html#gad301b8c13cafa148a6f3e80e9b0bcf1a" target="_top" xlink:title="Handler for getting battery voltage.">
<polygon fill="white" stroke="#666666" points="799.88,-210 675.88,-210 675.88,-190 799.88,-190 799.88,-210"/>
<text text-anchor="middle" x="737.88" y="-196.5" font-family="Helvetica,sans-Serif" font-size="10.00">handleGetVoltageBattery</text>
</a>
</g>
</g>
<!-- Node1&#45;&gt;Node23 -->
<g id="edge26_Node000001_Node000023" class="edge">
<title>Node1&#45;&gt;Node23</title>
<g id="a_edge26_Node000001_Node000023"><a xlink:title=" ">
<path fill="none" stroke="#63b8ff" d="M882.84,-463.56C877,-406.63 858.34,-253.64 823.5,-219 816.99,-212.52 808.77,-208.06 800.04,-205.01"/>
<polygon fill="#63b8ff" stroke="#63b8ff" points="879.33,-463.62 883.8,-473.23 886.3,-462.93 879.33,-463.62"/>
</a>
</g>
</g>
<!-- Node24 -->
<g id="Node000024" class="node">
<title>Node24</title>
<g id="a_Node000024"><a xlink:href="group___diagnostic_commands.html#gade74b82cf2c20d93c5e0ce624cd7ca77" target="_top" xlink:title="Handler for listing all available commands on UART.">
<polygon fill="white" stroke="#666666" points="793.12,-172 682.62,-172 682.62,-152 793.12,-152 793.12,-172"/>
<text text-anchor="middle" x="737.88" y="-158.5" font-family="Helvetica,sans-Serif" font-size="10.00">handleListCommands</text>
</a>
</g>
</g>
<!-- Node1&#45;&gt;Node24 -->
<g id="edge27_Node000001_Node000024" class="edge">
<title>Node1&#45;&gt;Node24</title>
<g id="a_edge27_Node000001_Node000024"><a xlink:title=" ">
<path fill="none" stroke="#63b8ff" d="M883.5,-463.44C879.09,-400.93 863.13,-221.5 823.5,-181 815.39,-172.71 804.5,-167.69 793.24,-164.72"/>
<polygon fill="#63b8ff" stroke="#63b8ff" points="879.99,-463.36 884.15,-473.1 886.97,-462.89 879.99,-463.36"/>
</a>
</g>
</g>
<!-- Node25 -->
<g id="Node000025" class="node">
<title>Node25</title>
<g id="a_Node000025"><a xlink:href="communication_8cpp.html#a520df448c1dc359f42111ac240081975" target="_top" xlink:title="Initializes the LoRa radio module.">
<polygon fill="white" stroke="#666666" points="598.25,-438 521.5,-438 521.5,-418 598.25,-418 598.25,-438"/>
<text text-anchor="middle" x="559.88" y="-424.5" font-family="Helvetica,sans-Serif" font-size="10.00">initializeRadio</text>
</a>
</g>
</g>
<!-- Node1&#45;&gt;Node25 -->
<g id="edge29_Node000001_Node000025" class="edge">
<title>Node1&#45;&gt;Node25</title>
<g id="a_edge29_Node000001_Node000025"><a xlink:title=" ">
<path fill="none" stroke="#63b8ff" d="M863.18,-467.97C851.97,-460.15 837.7,-451.6 823.5,-447 746.53,-422.06 650.45,-422.53 598.48,-425.19"/>
<polygon fill="#63b8ff" stroke="#63b8ff" points="860.8,-470.56 870.93,-473.65 864.93,-464.92 860.8,-470.56"/>
</a>
</g>
</g>
<!-- Node26 -->
<g id="Node000026" class="node">
<title>Node26</title>
<g id="a_Node000026"><a xlink:href="class_event_manager.html#ae73a56091dc8713bb86a11abb6742a14" target="_top" xlink:title="Logs an event.">
<polygon fill="white" stroke="#666666" points="799.5,-96 676.25,-96 676.25,-76 799.5,-76 799.5,-96"/>
<text text-anchor="middle" x="737.88" y="-82.5" font-family="Helvetica,sans-Serif" font-size="10.00">EventManager::logEvent</text>
</a>
</g>
</g>
<!-- Node1&#45;&gt;Node26 -->
<g id="edge32_Node000001_Node000026" class="edge">
<title>Node1&#45;&gt;Node26</title>
<g id="a_edge32_Node000001_Node000026"><a xlink:title=" ">
<path fill="none" stroke="#63b8ff" d="M884.29,-463.38C881.92,-391.64 870.72,-162.95 823.5,-110 817.1,-102.82 808.72,-97.72 799.73,-94.11"/>
<polygon fill="#63b8ff" stroke="#63b8ff" points="880.78,-463.14 884.58,-473.02 887.78,-462.92 880.78,-463.14"/>
</a>
</g>
</g>
<!-- Node27 -->
<g id="Node000027" class="node">
<title>Node27</title>
<g id="a_Node000027"><a xlink:href="send_8cpp.html#adcc720dc971ce8b237b26df434b65bb2" target="_top" xlink:title="Sends a message using LoRa.">
<polygon fill="white" stroke="#666666" points="776.25,-666 699.5,-666 699.5,-646 776.25,-646 776.25,-666"/>
<text text-anchor="middle" x="737.88" y="-652.5" font-family="Helvetica,sans-Serif" font-size="10.00">sendMessage</text>
</a>
</g>
</g>
<!-- Node1&#45;&gt;Node27 -->
<g id="edge35_Node000001_Node000027" class="edge">
<title>Node1&#45;&gt;Node27</title>
<g id="a_edge35_Node000001_Node000027"><a xlink:title=" ">
<path fill="none" stroke="#63b8ff" d="M881.88,-506.45C876.26,-538.48 861.12,-598.62 823.5,-632 810.59,-643.45 792.59,-649.47 776.51,-652.62"/>
<polygon fill="#63b8ff" stroke="#63b8ff" points="885.3,-507.22 883.41,-496.8 878.39,-506.13 885.3,-507.22"/>
</a>
</g>
</g>
<!-- Node30 -->
<g id="Node000030" class="node">
<title>Node30</title>
<g id="a_Node000030"><a xlink:href="class_d_s3231.html#a6ead725bcb29001cfbf4279f249d6983" target="_top" xlink:title=" ">
<polygon fill="white" stroke="#666666" points="784.12,-20 691.62,-20 691.62,0 784.12,0 784.12,-20"/>
<text text-anchor="middle" x="737.88" y="-6.5" font-family="Helvetica,sans-Serif" font-size="10.00">DS3231::setTime</text>
</a>
</g>
</g>
<!-- Node1&#45;&gt;Node30 -->
<g id="edge43_Node000001_Node000030" class="edge">
<title>Node1&#45;&gt;Node30</title>
<g id="a_edge43_Node000001_Node000030"><a xlink:title=" ">
<path fill="none" stroke="#63b8ff" d="M884.95,-463.08C884.79,-381.83 880.11,-99.22 823.5,-34 813.69,-22.7 798.99,-16.53 784.58,-13.23"/>
<polygon fill="#63b8ff" stroke="#63b8ff" points="881.45,-463 884.95,-473 888.45,-463 881.45,-463"/>
</a>
</g>
</g>
<!-- Node3&#45;&gt;Node4 -->
<g id="edge3_Node000003_Node000004" class="edge">
<title>Node3&#45;&gt;Node4</title>
<g id="a_edge3_Node000003_Node000004"><a xlink:title=" ">
<path fill="none" stroke="#63b8ff" d="M677.07,-909.09C649.19,-903.07 617.09,-896.14 593.7,-891.09"/>
<polygon fill="#63b8ff" stroke="#63b8ff" points="676.32,-912.51 686.84,-911.2 677.8,-905.66 676.32,-912.51"/>
</a>
</g>
</g>
<!-- Node4&#45;&gt;Node5 -->
<g id="edge4_Node000004_Node000005" class="edge">
<title>Node4&#45;&gt;Node5</title>
<g id="a_edge4_Node000004_Node000005"><a xlink:title=" ">
<path fill="none" stroke="#63b8ff" d="M515,-897.19C421.93,-922.22 202.67,-965.26 73,-860 42.01,-834.85 25,-704.6 20.64,-666.49"/>
<polygon fill="#63b8ff" stroke="#63b8ff" points="515.8,-900.59 524.51,-894.56 513.94,-893.85 515.8,-900.59"/>
</a>
</g>
</g>
<!-- Node7 -->
<g id="Node000007" class="node">
<title>Node7</title>
<g id="a_Node000007"><a xlink:href="frame_8cpp.html#a8b9407b2f579031cf4b705f1ac03ac31" target="_top" xlink:title="Executes a command based on the command key and the parameter.">
<polygon fill="white" stroke="#666666" points="293.25,-704 194,-704 194,-684 293.25,-684 293.25,-704"/>
<text text-anchor="middle" x="243.62" y="-690.5" font-family="Helvetica,sans-Serif" font-size="10.00">processFrameData</text>
</a>
</g>
</g>
<!-- Node6&#45;&gt;Node7 -->
<g id="edge7_Node000006_Node000007" class="edge">
<title>Node6&#45;&gt;Node7</title>
<g id="a_edge7_Node000006_Node000007"><a xlink:title=" ">
<path fill="none" stroke="#63b8ff" d="M349.67,-758.81C342.69,-756.57 335.69,-753.97 329.25,-751 301.75,-738.31 273.23,-717.14 257.32,-704.48"/>
<polygon fill="#63b8ff" stroke="#63b8ff" points="348.51,-762.12 359.09,-761.61 350.5,-755.41 348.51,-762.12"/>
</a>
</g>
</g>
<!-- Node7&#45;&gt;Node8 -->
<g id="edge8_Node000007_Node000008" class="edge">
<title>Node7&#45;&gt;Node8</title>
<g id="a_edge8_Node000007_Node000008"><a xlink:title=" ">
<path fill="none" stroke="#63b8ff" d="M182.19,-694C174.12,-694 165.99,-694 158.33,-694"/>
<polygon fill="#63b8ff" stroke="#63b8ff" points="181.99,-697.5 191.99,-694 181.99,-690.5 181.99,-697.5"/>
</a>
</g>
</g>
<!-- Node7&#45;&gt;Node9 -->
<g id="edge10_Node000007_Node000009" class="edge">
<title>Node7&#45;&gt;Node9</title>
<g id="a_edge10_Node000007_Node000009"><a xlink:title=" ">
<path fill="none" stroke="#63b8ff" d="M222.89,-676.16C196.16,-652 149.33,-609.67 127.85,-590.26"/>
<polygon fill="#63b8ff" stroke="#63b8ff" points="220.54,-678.76 230.31,-682.87 225.24,-673.57 220.54,-678.76"/>
</a>
</g>
</g>
<!-- Node8&#45;&gt;Node5 -->
<g id="edge9_Node000008_Node000005" class="edge">
<title>Node8&#45;&gt;Node5</title>
<g id="a_edge9_Node000008_Node000005"><a xlink:title=" ">
<path fill="none" stroke="#63b8ff" d="M77.95,-679.38C63.98,-673.79 48.66,-667.67 37.22,-663.09"/>
<polygon fill="#63b8ff" stroke="#63b8ff" points="76.3,-682.49 86.88,-682.95 78.9,-675.99 76.3,-682.49"/>
</a>
</g>
</g>
<!-- Node9&#45;&gt;Node5 -->
<g id="edge11_Node000009_Node000005" class="edge">
<title>Node9&#45;&gt;Node5</title>
<g id="a_edge11_Node000009_Node000005"><a xlink:title=" ">
<path fill="none" stroke="#63b8ff" d="M84.61,-596.09C80.6,-598.59 76.63,-601.25 73,-604 56.06,-616.82 38.87,-634.55 28.7,-645.65"/>
<polygon fill="#63b8ff" stroke="#63b8ff" points="86.31,-599.15 93.14,-591.05 82.75,-593.12 86.31,-599.15"/>
</a>
</g>
</g>
<!-- Node11&#45;&gt;Node12 -->
<g id="edge14_Node000011_Node000012" class="edge">
<title>Node11&#45;&gt;Node12</title>
<g id="a_edge14_Node000011_Node000012"><a xlink:title=" ">
<path fill="none" stroke="#63b8ff" d="M541.5,-275.63C507.93,-311.62 435.15,-389.65 408.98,-417.7"/>
<polygon fill="#63b8ff" stroke="#63b8ff" points="543.84,-278.25 548.11,-268.55 538.72,-273.47 543.84,-278.25"/>
</a>
</g>
</g>
<!-- Node12&#45;&gt;Node5 -->
<g id="edge15_Node000012_Node000005" class="edge">
<title>Node12&#45;&gt;Node5</title>
<g id="a_edge15_Node000012_Node000005"><a xlink:title=" ">
<path fill="none" stroke="#63b8ff" d="M353.04,-436.42C285.58,-451.2 156.23,-487.49 73,-561 45.76,-585.06 29.29,-626.47 22.75,-645.67"/>
<polygon fill="#63b8ff" stroke="#63b8ff" points="353.57,-439.89 362.62,-434.39 352.12,-433.04 353.57,-439.89"/>
</a>
</g>
</g>
<!-- Node25&#45;&gt;Node12 -->
<g id="edge30_Node000025_Node000012" class="edge">
<title>Node25&#45;&gt;Node12</title>
<g id="a_edge30_Node000025_Node000012"><a xlink:title=" ">
<path fill="none" stroke="#63b8ff" d="M509.59,-428C484.57,-428 454.85,-428 432.57,-428"/>
<polygon fill="#63b8ff" stroke="#63b8ff" points="509.56,-431.5 519.56,-428 509.56,-424.5 509.56,-431.5"/>
</a>
</g>
</g>
<!-- Node28 -->
<g id="Node000028" class="node">
<title>Node28</title>
<g id="a_Node000028"><a xlink:href="send_8cpp.html#a752e7cc27f52d4ba064e691b3e240ed8" target="_top" xlink:title="Sends a Frame using LoRa.">
<polygon fill="white" stroke="#666666" points="592.25,-666 527.5,-666 527.5,-646 592.25,-646 592.25,-666"/>
<text text-anchor="middle" x="559.88" y="-652.5" font-family="Helvetica,sans-Serif" font-size="10.00">sendFrame</text>
</a>
</g>
</g>
<!-- Node27&#45;&gt;Node28 -->
<g id="edge36_Node000027_Node000028" class="edge">
<title>Node27&#45;&gt;Node28</title>
<g id="a_edge36_Node000027_Node000028"><a xlink:title=" ">
<path fill="none" stroke="#63b8ff" d="M687.88,-656C657.44,-656 619.2,-656 592.68,-656"/>
<polygon fill="#63b8ff" stroke="#63b8ff" points="687.61,-659.5 697.61,-656 687.61,-652.5 687.61,-659.5"/>
</a>
</g>
</g>
<!-- Node28&#45;&gt;Node5 -->
<g id="edge40_Node000028_Node000005" class="edge">
<title>Node28&#45;&gt;Node5</title>
<g id="a_edge40_Node000028_Node000005"><a xlink:title=" ">
<path fill="none" stroke="#63b8ff" d="M516.21,-645.24C500.95,-641.89 483.56,-638.65 467.5,-637 301.01,-619.87 98.18,-644.92 37.48,-653.38"/>
<polygon fill="#63b8ff" stroke="#63b8ff" points="515.41,-648.65 525.93,-647.46 516.96,-641.82 515.41,-648.65"/>
</a>
</g>
</g>
<!-- Node28&#45;&gt;Node6 -->
<g id="edge37_Node000028_Node000006" class="edge">
<title>Node28&#45;&gt;Node6</title>
<g id="a_edge37_Node000028_Node000006"><a xlink:title=" ">
<path fill="none" stroke="#63b8ff" d="M545.21,-675.51C529.06,-697.11 500.23,-731.45 467.5,-751 458.01,-756.67 446.78,-760.7 436.19,-763.54"/>
<polygon fill="#63b8ff" stroke="#63b8ff" points="547.95,-677.69 551,-667.54 542.29,-673.57 547.95,-677.69"/>
</a>
</g>
</g>
<!-- Node28&#45;&gt;Node7 -->
<g id="edge41_Node000028_Node000007" class="edge">
<title>Node28&#45;&gt;Node7</title>
<g id="a_edge41_Node000028_Node000007"><a xlink:title=" ">
<path fill="none" stroke="#63b8ff" d="M516.12,-666C500.85,-669.27 483.47,-672.67 467.5,-675 407.94,-683.7 338.8,-688.83 293.51,-691.52"/>
<polygon fill="#63b8ff" stroke="#63b8ff" points="516.83,-669.42 525.85,-663.86 515.33,-662.59 516.83,-669.42"/>
</a>
</g>
</g>
<!-- Node28&#45;&gt;Node12 -->
<g id="edge39_Node000028_Node000012" class="edge">
<title>Node28&#45;&gt;Node12</title>
<g id="a_edge39_Node000028_Node000012"><a xlink:title=" ">
<path fill="none" stroke="#63b8ff" d="M545.08,-636.28C512.46,-589.65 431.45,-473.85 406.69,-438.45"/>
<polygon fill="#63b8ff" stroke="#63b8ff" points="542.14,-638.18 550.74,-644.37 547.88,-634.17 542.14,-638.18"/>
</a>
</g>
</g>
<!-- Node28&#45;&gt;Node17 -->
<g id="edge38_Node000028_Node000017" class="edge">
<title>Node28&#45;&gt;Node17</title>
<g id="a_edge38_Node000028_Node000017"><a xlink:title=" ">
<path fill="none" stroke="#63b8ff" d="M533.11,-672.31C515.15,-683.27 490.4,-697.55 467.5,-708 456.43,-713.05 443.97,-717.72 432.76,-721.57"/>
<polygon fill="#63b8ff" stroke="#63b8ff" points="534.88,-675.33 541.54,-667.1 531.2,-669.38 534.88,-675.33"/>
</a>
</g>
</g>
<!-- Node29 -->
<g id="Node000029" class="node">
<title>Node29</title>
<g id="a_Node000029"><a xlink:href="frame_8cpp.html#a6005ddd6320bebe2a680fa6b8efff6dd" target="_top" xlink:title="Sends the event register value to the ground station.">
<polygon fill="white" stroke="#666666" points="448,-666 348.75,-666 348.75,-646 448,-646 448,-666"/>
<text text-anchor="middle" x="398.38" y="-652.5" font-family="Helvetica,sans-Serif" font-size="10.00">sendEventRegister</text>
</a>
</g>
</g>
<!-- Node28&#45;&gt;Node29 -->
<g id="edge42_Node000028_Node000029" class="edge">
<title>Node28&#45;&gt;Node29</title>
<g id="a_edge42_Node000028_Node000029"><a xlink:title=" ">
<path fill="none" stroke="#63b8ff" d="M515.97,-656C495.13,-656 470,-656 448.41,-656"/>
<polygon fill="#63b8ff" stroke="#63b8ff" points="515.85,-659.5 525.85,-656 515.85,-652.5 515.85,-659.5"/>
</a>
</g>
</g>
<!-- Node31 -->
<g id="Node000031" class="node">
<title>Node31</title>
<g id="a_Node000031"><a xlink:href="class_d_s3231.html#a569f69050349e21823276ef29ff07a76" target="_top" xlink:title=" ">
<polygon fill="white" stroke="#666666" points="616.25,-20 503.5,-20 503.5,0 616.25,0 616.25,-20"/>
<text text-anchor="middle" x="559.88" y="-6.5" font-family="Helvetica,sans-Serif" font-size="10.00">DS3231::setTimeUnix</text>
</a>
</g>
</g>
<!-- Node30&#45;&gt;Node31 -->
<g id="edge44_Node000030_Node000031" class="edge">
<title>Node30&#45;&gt;Node31</title>
<g id="a_edge44_Node000030_Node000031"><a xlink:title=" ">
<path fill="none" stroke="#63b8ff" d="M680.24,-10C659.91,-10 637.01,-10 616.74,-10"/>
<polygon fill="#63b8ff" stroke="#63b8ff" points="680.04,-13.5 690.04,-10 680.04,-6.5 680.04,-13.5"/>
</a>
</g>
</g>
</g>
</svg>

<g id="navigator" transform="translate(0 0)" fill="#404254">
  <rect fill="#f2f5e9" fill-opacity="0.5" stroke="#606060" stroke-width=".5" x="0" y="0" width="60" height="60"/>
  <use id="zoomplus" xlink:href="#zoomPlus" x="17" y="9" onmousedown="handleZoom(evt,'in')"/>
  <use id="zoomminus" xlink:href="#zoomMin" x="42" y="9" onmousedown="handleZoom(evt,'out')"/>
  <use id="reset" xlink:href="#resetDef" x="30" y="36" onmousedown="handleReset()"/>
   <use id="arrowup" xlink:href="#arrowUp" x="0" y="0" onmousedown="handlePan(0,-1)"/>
  <use id="arrowright" xlink:href="#arrowRight" x="0" y="0" onmousedown="handlePan(1,0)"/>
  <use id="arrowdown" xlink:href="#arrowDown" x="0" y="0" onmousedown="handlePan(0,1)"/>
  <use id="arrowleft" xlink:href="#arrowLeft" x="0" y="0" onmousedown="handlePan(-1,0)"/>
</g>
<svg viewBox="0 0 15 15" width="100%" height="30px" preserveAspectRatio="xMaxYMin meet">
 <g id="arrow_out" transform="scale(0.3 0.3)">
  <a xlink:href="utils_8h_a581207ee5c53ce94cdf3279a0f66f564_icgraph_org.svg" target="_base">
   <rect id="button" ry="5" rx="5" y="6" x="6" height="38" width="38"
        fill="#f2f5e9" fill-opacity="0.5" stroke="#606060" stroke-width="1.0"/>
   <path id="arrow"
     d="M 11.500037,31.436501 C 11.940474,20.09759 22.043105,11.32322 32.158766,21.979434 L 37.068811,17.246167 C 37.068811,17.246167 37.088388,32 37.088388,32 L 22.160133,31.978069 C 22.160133,31.978069 26.997745,27.140456 26.997745,27.140456 C 18.528582,18.264221 13.291696,25.230495 11.500037,31.436501 z"
     style="fill:#404040;"/>
  </a>
 </g>
</svg>

<style type='text/css'>
<![CDATA[
[data-mouse-over-selected='false'] { opacity: 0.7; }
[data-mouse-over-selected='true']  { opacity: 1.0; }
]]>
</style>
<script type="application/ecmascript"><![CDATA[
document.addEventListener('DOMContentLoaded', (event) => {
  highlightEdges();
  highlightAdjacentNodes();
});
]]></script>
</svg>
