<?xml version="1.0" encoding="UTF-8" standalone="no"?>
<!DOCTYPE svg PUBLIC "-//W3C//DTD SVG 1.1//EN"
 "http://www.w3.org/Graphics/SVG/1.1/DTD/svg11.dtd">
<!-- Generated by graphviz version 12.2.1 (20241206.2353)
 -->
<!-- Title: lib/utils.h Pages: 1 -->
<svg width="2036pt" height="300pt"
 viewBox="0.00 0.00 2035.75 300.00" xmlns="http://www.w3.org/2000/svg" xmlns:xlink="http://www.w3.org/1999/xlink">
<g id="graph0" class="graph" transform="scale(1 1) rotate(0) translate(4 296)">
<title>lib/utils.h</title>
<!-- Node1 -->
<g id="Node000001" class="node">
<title>Node1</title>
<g id="a_Node000001"><a xlink:title=" ">
<polygon fill="#999999" stroke="#666666" points="1216.62,-292 1161.62,-292 1161.62,-272 1216.62,-272 1216.62,-292"/>
<text text-anchor="middle" x="1189.12" y="-278.5" font-family="Helvetica,sans-Serif" font-size="10.00">lib/utils.h</text>
</a>
</g>
</g>
<!-- Node2 -->
<g id="Node000002" class="node">
<title>Node2</title>
<g id="a_Node000002"><a xlink:href="includes_8h.html" target="_top" xlink:title=" ">
<polygon fill="white" stroke="#666666" points="60.25,-94 0,-94 0,-74 60.25,-74 60.25,-94"/>
<text text-anchor="middle" x="30.12" y="-80.5" font-family="Helvetica,sans-Serif" font-size="10.00">includes.h</text>
</a>
</g>
</g>
<!-- Node1&#45;&gt;Node2 -->
<g id="edge1_Node000001_Node000002" class="edge">
<title>Node1&#45;&gt;Node2</title>
<g id="a_edge1_Node000001_Node000002"><a xlink:title=" ">
<path fill="none" stroke="#63b8ff" d="M1150.19,-280.14C981.03,-275.9 309.81,-253.88 120.12,-168 82.56,-150.99 50.24,-112.1 36.79,-94.25"/>
<polygon fill="#63b8ff" stroke="#63b8ff" points="1149.9,-283.63 1159.98,-280.38 1150.07,-276.63 1149.9,-283.63"/>
</a>
</g>
</g>
<!-- Node4 -->
<g id="Node000004" class="node">
<title>Node4</title>
<g id="a_Node000004"><a xlink:href="_d_s3231_8cpp.html" target="_top" xlink:title=" ">
<polygon fill="white" stroke="#666666" points="987.62,-230 878.62,-230 878.62,-210 987.62,-210 987.62,-230"/>
<text text-anchor="middle" x="933.12" y="-216.5" font-family="Helvetica,sans-Serif" font-size="10.00">lib/clock/DS3231.cpp</text>
</a>
</g>
</g>
<!-- Node1&#45;&gt;Node4 -->
<g id="edge3_Node000001_Node000004" class="edge">
<title>Node1&#45;&gt;Node4</title>
<g id="a_edge3_Node000001_Node000004"><a xlink:title=" ">
<path fill="none" stroke="#63b8ff" d="M1150.14,-271.86C1102.4,-260.67 1021.95,-241.82 973.56,-230.48"/>
<polygon fill="#63b8ff" stroke="#63b8ff" points="1149.23,-275.25 1159.77,-274.12 1150.83,-268.43 1149.23,-275.25"/>
</a>
</g>
</g>
<!-- Node5 -->
<g id="Node000005" class="node">
<title>Node5</title>
<g id="a_Node000005"><a xlink:href="protocol_8h.html" target="_top" xlink:title=" ">
<polygon fill="white" stroke="#666666" points="1112.5,-230 1005.75,-230 1005.75,-210 1112.5,-210 1112.5,-230"/>
<text text-anchor="middle" x="1059.12" y="-216.5" font-family="Helvetica,sans-Serif" font-size="10.00">lib/comms/protocol.h</text>
</a>
</g>
</g>
<!-- Node1&#45;&gt;Node5 -->
<g id="edge4_Node000001_Node000005" class="edge">
<title>Node1&#45;&gt;Node5</title>
<g id="a_edge4_Node000001_Node000005"><a xlink:title=" ">
<path fill="none" stroke="#63b8ff" d="M1158.62,-266.92C1134.16,-255.63 1100.51,-240.1 1079.29,-230.31"/>
<polygon fill="#63b8ff" stroke="#63b8ff" points="1156.89,-269.98 1167.44,-270.99 1159.83,-263.62 1156.89,-269.98"/>
</a>
</g>
</g>
<!-- Node20 -->
<g id="Node000020" class="node">
<title>Node20</title>
<g id="a_Node000020"><a xlink:href="event__manager_8cpp.html" target="_top" xlink:title="Implements the event management system for the Kubisat firmware.">
<polygon fill="white" stroke="#666666" points="2009.38,-100 1910.88,-100 1910.88,-68 2009.38,-68 2009.38,-100"/>
<text text-anchor="start" x="1918.88" y="-86.5" font-family="Helvetica,sans-Serif" font-size="10.00">lib/eventman/event</text>
<text text-anchor="middle" x="1960.12" y="-74.5" font-family="Helvetica,sans-Serif" font-size="10.00">_manager.cpp</text>
</a>
</g>
</g>
<!-- Node1&#45;&gt;Node20 -->
<g id="edge30_Node000001_Node000020" class="edge">
<title>Node1&#45;&gt;Node20</title>
<g id="a_edge30_Node000001_Node000020"><a xlink:title=" ">
<path fill="none" stroke="#63b8ff" d="M1172.71,-263.24C1159.12,-246.36 1144.27,-221.08 1159.12,-204 1268.54,-78.2 1738.6,-132.48 1902.12,-100 1904.88,-99.45 1907.7,-98.85 1910.54,-98.22"/>
<polygon fill="#63b8ff" stroke="#63b8ff" points="1169.77,-265.19 1178.94,-270.5 1175.08,-260.63 1169.77,-265.19"/>
</a>
</g>
</g>
<!-- Node25 -->
<g id="Node000025" class="node">
<title>Node25</title>
<g id="a_Node000025"><a xlink:href="gps__collector_8cpp.html" target="_top" xlink:title=" ">
<polygon fill="white" stroke="#666666" points="1310.12,-230 1168.12,-230 1168.12,-210 1310.12,-210 1310.12,-230"/>
<text text-anchor="middle" x="1239.12" y="-216.5" font-family="Helvetica,sans-Serif" font-size="10.00">lib/location/gps_collector.cpp</text>
</a>
</g>
</g>
<!-- Node1&#45;&gt;Node25 -->
<g id="edge31_Node000001_Node000025" class="edge">
<title>Node1&#45;&gt;Node25</title>
<g id="a_edge31_Node000001_Node000025"><a xlink:title=" ">
<path fill="none" stroke="#63b8ff" d="M1204.19,-262.92C1213.21,-252.1 1224.3,-238.79 1231.53,-230.11"/>
<polygon fill="#63b8ff" stroke="#63b8ff" points="1201.62,-260.54 1197.91,-270.46 1207,-265.02 1201.62,-260.54"/>
</a>
</g>
</g>
<!-- Node26 -->
<g id="Node000026" class="node">
<title>Node26</title>
<g id="a_Node000026"><a xlink:href="_i_n_a3221_8cpp.html" target="_top" xlink:title=" ">
<polygon fill="white" stroke="#666666" points="1443.62,-236 1328.62,-236 1328.62,-204 1443.62,-204 1443.62,-236"/>
<text text-anchor="start" x="1336.62" y="-222.5" font-family="Helvetica,sans-Serif" font-size="10.00">lib/powerman/INA3221</text>
<text text-anchor="middle" x="1386.12" y="-210.5" font-family="Helvetica,sans-Serif" font-size="10.00">/INA3221.cpp</text>
</a>
</g>
</g>
<!-- Node1&#45;&gt;Node26 -->
<g id="edge32_Node000001_Node000026" class="edge">
<title>Node1&#45;&gt;Node26</title>
<g id="a_edge32_Node000001_Node000026"><a xlink:title=" ">
<path fill="none" stroke="#63b8ff" d="M1227.64,-269.27C1258.37,-259.91 1301.66,-246.72 1335.24,-236.5"/>
<polygon fill="#63b8ff" stroke="#63b8ff" points="1226.93,-265.83 1218.38,-272.09 1228.97,-272.52 1226.93,-265.83"/>
</a>
</g>
</g>
<!-- Node27 -->
<g id="Node000027" class="node">
<title>Node27</title>
<g id="a_Node000027"><a xlink:href="storage_8cpp.html" target="_top" xlink:title="Implements file system operations for the Kubisat firmware.">
<polygon fill="white" stroke="#666666" points="1576.62,-230 1461.62,-230 1461.62,-210 1576.62,-210 1576.62,-230"/>
<text text-anchor="middle" x="1519.12" y="-216.5" font-family="Helvetica,sans-Serif" font-size="10.00">lib/storage/storage.cpp</text>
</a>
</g>
</g>
<!-- Node1&#45;&gt;Node27 -->
<g id="edge33_Node000001_Node000027" class="edge">
<title>Node1&#45;&gt;Node27</title>
<g id="a_edge33_Node000001_Node000027"><a xlink:title=" ">
<path fill="none" stroke="#63b8ff" d="M1228.24,-275.02C1279.89,-266.96 1373.59,-251.8 1453.12,-236 1461.54,-234.33 1470.52,-232.39 1479.06,-230.47"/>
<polygon fill="#63b8ff" stroke="#63b8ff" points="1227.8,-271.54 1218.46,-276.54 1228.88,-278.46 1227.8,-271.54"/>
</a>
</g>
</g>
<!-- Node28 -->
<g id="Node000028" class="node">
<title>Node28</title>
<g id="a_Node000028"><a xlink:href="utils_8cpp.html" target="_top" xlink:title="Implements utility functions for the Kubisat firmware.">
<polygon fill="white" stroke="#666666" points="1659.88,-230 1594.38,-230 1594.38,-210 1659.88,-210 1659.88,-230"/>
<text text-anchor="middle" x="1627.12" y="-216.5" font-family="Helvetica,sans-Serif" font-size="10.00">lib/utils.cpp</text>
</a>
</g>
</g>
<!-- Node1&#45;&gt;Node28 -->
<g id="edge34_Node000001_Node000028" class="edge">
<title>Node1&#45;&gt;Node28</title>
<g id="a_edge34_Node000001_Node000028"><a xlink:title=" ">
<path fill="none" stroke="#63b8ff" d="M1228.11,-279.65C1299.86,-276.49 1457.27,-266.42 1586.12,-236 1592.17,-234.57 1598.55,-232.52 1604.43,-230.39"/>
<polygon fill="#63b8ff" stroke="#63b8ff" points="1228.3,-276.14 1218.46,-280.05 1228.6,-283.13 1228.3,-276.14"/>
</a>
</g>
</g>
<!-- Node3 -->
<g id="Node000003" class="node">
<title>Node3</title>
<g id="a_Node000003"><a xlink:href="main_8cpp.html" target="_top" xlink:title=" ">
<polygon fill="white" stroke="#666666" points="58,-26 2.25,-26 2.25,-6 58,-6 58,-26"/>
<text text-anchor="middle" x="30.12" y="-12.5" font-family="Helvetica,sans-Serif" font-size="10.00">main.cpp</text>
</a>
</g>
</g>
<!-- Node2&#45;&gt;Node3 -->
<g id="edge2_Node000002_Node000003" class="edge">
<title>Node2&#45;&gt;Node3</title>
<g id="a_edge2_Node000002_Node000003"><a xlink:title=" ">
<path fill="none" stroke="#63b8ff" d="M30.12,-62.28C30.12,-50.27 30.12,-35.74 30.12,-26.44"/>
<polygon fill="#63b8ff" stroke="#63b8ff" points="26.63,-62.03 30.13,-72.03 33.63,-62.03 26.63,-62.03"/>
</a>
</g>
</g>
<!-- Node5&#45;&gt;Node2 -->
<g id="edge5_Node000005_Node000002" class="edge">
<title>Node5&#45;&gt;Node2</title>
<g id="a_edge5_Node000005_Node000002"><a xlink:title=" ">
<path fill="none" stroke="#63b8ff" d="M1014.35,-207.1C1008.58,-205.88 1002.74,-204.8 997.12,-204 650.92,-154.66 550.98,-250.4 211.12,-168 145.95,-152.2 75.61,-112.68 45.36,-94.47"/>
<polygon fill="#63b8ff" stroke="#63b8ff" points="1013.24,-210.43 1023.77,-209.23 1014.79,-203.61 1013.24,-210.43"/>
</a>
</g>
</g>
<!-- Node6 -->
<g id="Node000006" class="node">
<title>Node6</title>
<g id="a_Node000006"><a xlink:href="commands_8h.html" target="_top" xlink:title=" ">
<polygon fill="white" stroke="#666666" points="332.12,-168 220.12,-168 220.12,-136 332.12,-136 332.12,-168"/>
<text text-anchor="start" x="228.12" y="-154.5" font-family="Helvetica,sans-Serif" font-size="10.00">lib/comms/commands</text>
<text text-anchor="middle" x="276.12" y="-142.5" font-family="Helvetica,sans-Serif" font-size="10.00">/commands.h</text>
</a>
</g>
</g>
<!-- Node5&#45;&gt;Node6 -->
<g id="edge6_Node000005_Node000006" class="edge">
<title>Node5&#45;&gt;Node6</title>
<g id="a_edge6_Node000005_Node000006"><a xlink:title=" ">
<path fill="none" stroke="#63b8ff" d="M1013.48,-207.05C1008,-205.88 1002.45,-204.83 997.12,-204 751.6,-165.89 454.57,-156.22 332.57,-153.8"/>
<polygon fill="#63b8ff" stroke="#63b8ff" points="1012.57,-210.43 1023.09,-209.23 1014.12,-203.6 1012.57,-210.43"/>
</a>
</g>
</g>
<!-- Node9 -->
<g id="Node000009" class="node">
<title>Node9</title>
<g id="a_Node000009"><a xlink:href="communication_8h.html" target="_top" xlink:title=" ">
<polygon fill="white" stroke="#666666" points="1036.25,-162 898,-162 898,-142 1036.25,-142 1036.25,-162"/>
<text text-anchor="middle" x="967.12" y="-148.5" font-family="Helvetica,sans-Serif" font-size="10.00">lib/comms/communication.h</text>
</a>
</g>
</g>
<!-- Node5&#45;&gt;Node9 -->
<g id="edge9_Node000005_Node000009" class="edge">
<title>Node5&#45;&gt;Node9</title>
<g id="a_edge9_Node000005_Node000009"><a xlink:title=" ">
<path fill="none" stroke="#63b8ff" d="M1036.88,-203.04C1019.18,-190.35 995.03,-173.02 980.28,-162.44"/>
<polygon fill="#63b8ff" stroke="#63b8ff" points="1034.55,-205.68 1044.71,-208.66 1038.63,-199.99 1034.55,-205.68"/>
</a>
</g>
</g>
<!-- Node5&#45;&gt;Node20 -->
<g id="edge28_Node000005_Node000020" class="edge">
<title>Node5&#45;&gt;Node20</title>
<g id="a_edge28_Node000005_Node000020"><a xlink:title=" ">
<path fill="none" stroke="#63b8ff" d="M1068.58,-199.47C1079.42,-179.54 1099.21,-149.64 1126.12,-136 1203.12,-96.99 1816.78,-112.87 1902.12,-100 1904.9,-99.58 1907.74,-99.08 1910.59,-98.53"/>
<polygon fill="#63b8ff" stroke="#63b8ff" points="1065.52,-197.77 1064.06,-208.26 1071.75,-200.97 1065.52,-197.77"/>
</a>
</g>
</g>
<!-- Node21 -->
<g id="Node000021" class="node">
<title>Node21</title>
<g id="a_Node000021"><a xlink:href="test__frame__common_8h.html" target="_top" xlink:title=" ">
<polygon fill="white" stroke="#666666" points="1892.75,-100 1775.5,-100 1775.5,-68 1892.75,-68 1892.75,-100"/>
<text text-anchor="start" x="1783.5" y="-86.5" font-family="Helvetica,sans-Serif" font-size="10.00">test/comms/test_frame</text>
<text text-anchor="middle" x="1834.12" y="-74.5" font-family="Helvetica,sans-Serif" font-size="10.00">_common.h</text>
</a>
</g>
</g>
<!-- Node5&#45;&gt;Node21 -->
<g id="edge29_Node000005_Node000021" class="edge">
<title>Node5&#45;&gt;Node21</title>
<g id="a_edge29_Node000005_Node000021"><a xlink:title=" ">
<path fill="none" stroke="#63b8ff" d="M1060.13,-198.31C1062.28,-178.81 1068.8,-150.51 1088.12,-136 1148.46,-90.72 1691.37,-110.16 1766.12,-100 1769.12,-99.59 1772.18,-99.12 1775.26,-98.6"/>
<polygon fill="#63b8ff" stroke="#63b8ff" points="1056.65,-197.86 1059.37,-208.1 1063.63,-198.4 1056.65,-197.86"/>
</a>
</g>
</g>
<!-- Node7 -->
<g id="Node000007" class="node">
<title>Node7</title>
<g id="a_Node000007"><a xlink:href="commands_8cpp.html" target="_top" xlink:title=" ">
<polygon fill="white" stroke="#666666" points="190.12,-100 78.12,-100 78.12,-68 190.12,-68 190.12,-100"/>
<text text-anchor="start" x="86.12" y="-86.5" font-family="Helvetica,sans-Serif" font-size="10.00">lib/comms/commands</text>
<text text-anchor="middle" x="134.12" y="-74.5" font-family="Helvetica,sans-Serif" font-size="10.00">/commands.cpp</text>
</a>
</g>
</g>
<!-- Node6&#45;&gt;Node7 -->
<g id="edge7_Node000006_Node000007" class="edge">
<title>Node6&#45;&gt;Node7</title>
<g id="a_edge7_Node000006_Node000007"><a xlink:title=" ">
<path fill="none" stroke="#63b8ff" d="M232.54,-130.74C211.5,-120.96 186.67,-109.42 167.21,-100.38"/>
<polygon fill="#63b8ff" stroke="#63b8ff" points="230.92,-133.85 241.46,-134.89 233.87,-127.5 230.92,-133.85"/>
</a>
</g>
</g>
<!-- Node8 -->
<g id="Node000008" class="node">
<title>Node8</title>
<g id="a_Node000008"><a xlink:href="diagnostic__commands_8cpp.html" target="_top" xlink:title=" ">
<polygon fill="white" stroke="#666666" points="343.75,-100 208.5,-100 208.5,-68 343.75,-68 343.75,-100"/>
<text text-anchor="start" x="216.5" y="-86.5" font-family="Helvetica,sans-Serif" font-size="10.00">lib/comms/commands</text>
<text text-anchor="middle" x="276.12" y="-74.5" font-family="Helvetica,sans-Serif" font-size="10.00">/diagnostic_commands.cpp</text>
</a>
</g>
</g>
<!-- Node6&#45;&gt;Node8 -->
<g id="edge8_Node000006_Node000008" class="edge">
<title>Node6&#45;&gt;Node8</title>
<g id="a_edge8_Node000006_Node000008"><a xlink:title=" ">
<path fill="none" stroke="#63b8ff" d="M276.12,-124.31C276.12,-116.12 276.12,-107.38 276.12,-100.22"/>
<polygon fill="#63b8ff" stroke="#63b8ff" points="272.63,-124.18 276.13,-134.18 279.63,-124.18 272.63,-124.18"/>
</a>
</g>
</g>
<!-- Node9&#45;&gt;Node2 -->
<g id="edge10_Node000009_Node000002" class="edge">
<title>Node9&#45;&gt;Node2</title>
<g id="a_edge10_Node000009_Node000002"><a xlink:title=" ">
<path fill="none" stroke="#63b8ff" d="M886.42,-149.61C696.13,-145.83 223.78,-133.28 69.12,-100 63.17,-98.72 56.92,-96.66 51.22,-94.48"/>
<polygon fill="#63b8ff" stroke="#63b8ff" points="886.15,-153.11 896.21,-149.8 886.28,-146.11 886.15,-153.11"/>
</a>
</g>
</g>
<!-- Node9&#45;&gt;Node7 -->
<g id="edge12_Node000009_Node000007" class="edge">
<title>Node9&#45;&gt;Node7</title>
<g id="a_edge12_Node000009_Node000007"><a xlink:title=" ">
<path fill="none" stroke="#63b8ff" d="M886.15,-149.89C745.62,-147 447.77,-136.7 199.12,-100 196.26,-99.58 193.34,-99.09 190.39,-98.57"/>
<polygon fill="#63b8ff" stroke="#63b8ff" points="886.05,-153.38 896.11,-150.08 886.18,-146.39 886.05,-153.38"/>
</a>
</g>
</g>
<!-- Node9&#45;&gt;Node8 -->
<g id="edge13_Node000009_Node000008" class="edge">
<title>Node9&#45;&gt;Node8</title>
<g id="a_edge13_Node000009_Node000008"><a xlink:title=" ">
<path fill="none" stroke="#63b8ff" d="M886.4,-147.12C768.71,-140.82 543.33,-126.35 353.12,-100 350.16,-99.59 347.13,-99.14 344.08,-98.66"/>
<polygon fill="#63b8ff" stroke="#63b8ff" points="886.11,-150.61 896.28,-147.64 886.48,-143.62 886.11,-150.61"/>
</a>
</g>
</g>
<!-- Node10 -->
<g id="Node000010" class="node">
<title>Node10</title>
<g id="a_Node000010"><a xlink:href="clock__commands_8cpp.html" target="_top" xlink:title=" ">
<polygon fill="white" stroke="#666666" points="476.25,-100 362,-100 362,-68 476.25,-68 476.25,-100"/>
<text text-anchor="start" x="370" y="-86.5" font-family="Helvetica,sans-Serif" font-size="10.00">lib/comms/commands</text>
<text text-anchor="middle" x="419.12" y="-74.5" font-family="Helvetica,sans-Serif" font-size="10.00">/clock_commands.cpp</text>
</a>
</g>
</g>
<!-- Node9&#45;&gt;Node10 -->
<g id="edge11_Node000009_Node000010" class="edge">
<title>Node9&#45;&gt;Node10</title>
<g id="a_edge11_Node000009_Node000010"><a xlink:title=" ">
<path fill="none" stroke="#63b8ff" d="M886.37,-145.38C790.31,-138.03 625.32,-123.26 485.12,-100 482.34,-99.54 479.5,-99.03 476.64,-98.49"/>
<polygon fill="#63b8ff" stroke="#63b8ff" points="885.99,-148.87 896.23,-146.13 886.52,-141.89 885.99,-148.87"/>
</a>
</g>
</g>
<!-- Node11 -->
<g id="Node000011" class="node">
<title>Node11</title>
<g id="a_Node000011"><a xlink:href="event__commands_8cpp.html" target="_top" xlink:title=" ">
<polygon fill="white" stroke="#666666" points="609.62,-100 494.62,-100 494.62,-68 609.62,-68 609.62,-100"/>
<text text-anchor="start" x="502.62" y="-86.5" font-family="Helvetica,sans-Serif" font-size="10.00">lib/comms/commands</text>
<text text-anchor="middle" x="552.12" y="-74.5" font-family="Helvetica,sans-Serif" font-size="10.00">/event_commands.cpp</text>
</a>
</g>
</g>
<!-- Node9&#45;&gt;Node11 -->
<g id="edge14_Node000009_Node000011" class="edge">
<title>Node9&#45;&gt;Node11</title>
<g id="a_edge14_Node000009_Node000011"><a xlink:title=" ">
<path fill="none" stroke="#63b8ff" d="M886.5,-140.92C815.79,-131.67 710.32,-116.87 619.12,-100 616.08,-99.44 612.96,-98.83 609.81,-98.2"/>
<polygon fill="#63b8ff" stroke="#63b8ff" points="885.68,-144.34 896.04,-142.16 886.58,-137.4 885.68,-144.34"/>
</a>
</g>
</g>
<!-- Node12 -->
<g id="Node000012" class="node">
<title>Node12</title>
<g id="a_Node000012"><a xlink:href="gps__commands_8cpp.html" target="_top" xlink:title=" ">
<polygon fill="white" stroke="#666666" points="740.12,-100 628.12,-100 628.12,-68 740.12,-68 740.12,-100"/>
<text text-anchor="start" x="636.12" y="-86.5" font-family="Helvetica,sans-Serif" font-size="10.00">lib/comms/commands</text>
<text text-anchor="middle" x="684.12" y="-74.5" font-family="Helvetica,sans-Serif" font-size="10.00">/gps_commands.cpp</text>
</a>
</g>
</g>
<!-- Node9&#45;&gt;Node12 -->
<g id="edge15_Node000009_Node000012" class="edge">
<title>Node9&#45;&gt;Node12</title>
<g id="a_edge15_Node000009_Node000012"><a xlink:title=" ">
<path fill="none" stroke="#63b8ff" d="M915.49,-138.96C865.99,-127.41 791.47,-110.04 740.46,-98.14"/>
<polygon fill="#63b8ff" stroke="#63b8ff" points="914.57,-142.34 925.1,-141.2 916.16,-135.52 914.57,-142.34"/>
</a>
</g>
</g>
<!-- Node13 -->
<g id="Node000013" class="node">
<title>Node13</title>
<g id="a_Node000013"><a xlink:href="power__commands_8cpp.html" target="_top" xlink:title=" ">
<polygon fill="white" stroke="#666666" points="875.75,-100 758.5,-100 758.5,-68 875.75,-68 875.75,-100"/>
<text text-anchor="start" x="766.5" y="-86.5" font-family="Helvetica,sans-Serif" font-size="10.00">lib/comms/commands</text>
<text text-anchor="middle" x="817.12" y="-74.5" font-family="Helvetica,sans-Serif" font-size="10.00">/power_commands.cpp</text>
</a>
</g>
</g>
<!-- Node9&#45;&gt;Node13 -->
<g id="edge16_Node000009_Node000013" class="edge">
<title>Node9&#45;&gt;Node13</title>
<g id="a_edge16_Node000009_Node000013"><a xlink:title=" ">
<path fill="none" stroke="#63b8ff" d="M935.15,-136.93C910.79,-126.21 877.28,-111.47 852.19,-100.43"/>
<polygon fill="#63b8ff" stroke="#63b8ff" points="933.69,-140.11 944.25,-140.93 936.5,-133.7 933.69,-140.11"/>
</a>
</g>
</g>
<!-- Node14 -->
<g id="Node000014" class="node">
<title>Node14</title>
<g id="a_Node000014"><a xlink:href="storage__commands__utils_8cpp.html" target="_top" xlink:title=" ">
<polygon fill="white" stroke="#666666" points="1040.38,-100 893.88,-100 893.88,-68 1040.38,-68 1040.38,-100"/>
<text text-anchor="start" x="901.88" y="-86.5" font-family="Helvetica,sans-Serif" font-size="10.00">lib/comms/commands</text>
<text text-anchor="middle" x="967.12" y="-74.5" font-family="Helvetica,sans-Serif" font-size="10.00">/storage_commands_utils.cpp</text>
</a>
</g>
</g>
<!-- Node9&#45;&gt;Node14 -->
<g id="edge17_Node000009_Node000014" class="edge">
<title>Node9&#45;&gt;Node14</title>
<g id="a_edge17_Node000009_Node000014"><a xlink:title=" ">
<path fill="none" stroke="#63b8ff" d="M967.12,-130.1C967.12,-120.43 967.12,-109.16 967.12,-100.3"/>
<polygon fill="#63b8ff" stroke="#63b8ff" points="963.63,-130.03 967.13,-140.03 970.63,-130.03 963.63,-130.03"/>
</a>
</g>
</g>
<!-- Node15 -->
<g id="Node000015" class="node">
<title>Node15</title>
<g id="a_Node000015"><a xlink:href="communication_8cpp.html" target="_top" xlink:title=" ">
<polygon fill="white" stroke="#666666" points="1207.5,-94 1058.75,-94 1058.75,-74 1207.5,-74 1207.5,-94"/>
<text text-anchor="middle" x="1133.12" y="-80.5" font-family="Helvetica,sans-Serif" font-size="10.00">lib/comms/communication.cpp</text>
</a>
</g>
</g>
<!-- Node9&#45;&gt;Node15 -->
<g id="edge18_Node000009_Node000015" class="edge">
<title>Node9&#45;&gt;Node15</title>
<g id="a_edge18_Node000009_Node000015"><a xlink:title=" ">
<path fill="none" stroke="#63b8ff" d="M1001.21,-137.45C1033.47,-124.62 1081.05,-105.7 1109.39,-94.44"/>
<polygon fill="#63b8ff" stroke="#63b8ff" points="1000.31,-134.04 992.32,-140.98 1002.9,-140.54 1000.31,-134.04"/>
</a>
</g>
</g>
<!-- Node16 -->
<g id="Node000016" class="node">
<title>Node16</title>
<g id="a_Node000016"><a xlink:href="frame_8cpp.html" target="_top" xlink:title="Implements functions for encoding, decoding, building, and processing Frames.">
<polygon fill="white" stroke="#666666" points="1332.88,-94 1225.38,-94 1225.38,-74 1332.88,-74 1332.88,-94"/>
<text text-anchor="middle" x="1279.12" y="-80.5" font-family="Helvetica,sans-Serif" font-size="10.00">lib/comms/frame.cpp</text>
</a>
</g>
</g>
<!-- Node9&#45;&gt;Node16 -->
<g id="edge19_Node000009_Node000016" class="edge">
<title>Node9&#45;&gt;Node16</title>
<g id="a_edge19_Node000009_Node000016"><a xlink:title=" ">
<path fill="none" stroke="#63b8ff" d="M1026.46,-139.4C1076.98,-129.39 1151.44,-114.32 1216.12,-100 1223.92,-98.27 1232.24,-96.35 1240.19,-94.48"/>
<polygon fill="#63b8ff" stroke="#63b8ff" points="1026.04,-135.91 1016.91,-141.29 1027.4,-142.78 1026.04,-135.91"/>
</a>
</g>
</g>
<!-- Node17 -->
<g id="Node000017" class="node">
<title>Node17</title>
<g id="a_Node000017"><a xlink:href="receive_8cpp.html" target="_top" xlink:title="Implements functions for receiving and processing data, including LoRa and UART input.">
<polygon fill="white" stroke="#666666" points="1465.25,-94 1351,-94 1351,-74 1465.25,-74 1465.25,-94"/>
<text text-anchor="middle" x="1408.12" y="-80.5" font-family="Helvetica,sans-Serif" font-size="10.00">lib/comms/receive.cpp</text>
</a>
</g>
</g>
<!-- Node9&#45;&gt;Node17 -->
<g id="edge20_Node000009_Node000017" class="edge">
<title>Node9&#45;&gt;Node17</title>
<g id="a_edge20_Node000009_Node000017"><a xlink:title=" ">
<path fill="none" stroke="#63b8ff" d="M1028.19,-139.56C1035.57,-138.3 1043.01,-137.08 1050.12,-136 1179.4,-116.36 1213.32,-122.52 1342.12,-100 1351.04,-98.44 1360.56,-96.46 1369.52,-94.46"/>
<polygon fill="#63b8ff" stroke="#63b8ff" points="1027.82,-136.07 1018.58,-141.24 1029.03,-142.97 1027.82,-136.07"/>
</a>
</g>
</g>
<!-- Node18 -->
<g id="Node000018" class="node">
<title>Node18</title>
<g id="a_Node000018"><a xlink:href="send_8cpp.html" target="_top" xlink:title="Implements functions for sending data, including LoRa messages and Frames.">
<polygon fill="white" stroke="#666666" points="1587,-94 1483.25,-94 1483.25,-74 1587,-74 1587,-94"/>
<text text-anchor="middle" x="1535.12" y="-80.5" font-family="Helvetica,sans-Serif" font-size="10.00">lib/comms/send.cpp</text>
</a>
</g>
</g>
<!-- Node9&#45;&gt;Node18 -->
<g id="edge21_Node000009_Node000018" class="edge">
<title>Node9&#45;&gt;Node18</title>
<g id="a_edge21_Node000009_Node000018"><a xlink:title=" ">
<path fill="none" stroke="#63b8ff" d="M1026.41,-139.59C1034.36,-138.26 1042.43,-137.02 1050.12,-136 1237.61,-111.16 1287.51,-130.67 1474.12,-100 1482.84,-98.57 1492.15,-96.54 1500.8,-94.44"/>
<polygon fill="#63b8ff" stroke="#63b8ff" points="1026.03,-136.1 1016.77,-141.25 1027.22,-143 1026.03,-136.1"/>
</a>
</g>
</g>
<!-- Node19 -->
<g id="Node000019" class="node">
<title>Node19</title>
<g id="a_Node000019"><a xlink:href="utils__converters_8cpp.html" target="_top" xlink:title="Implements utility functions for converting between different data types.">
<polygon fill="white" stroke="#666666" points="1757,-94 1605.25,-94 1605.25,-74 1757,-74 1757,-94"/>
<text text-anchor="middle" x="1681.12" y="-80.5" font-family="Helvetica,sans-Serif" font-size="10.00">lib/comms/utils_converters.cpp</text>
</a>
</g>
</g>
<!-- Node9&#45;&gt;Node19 -->
<g id="edge22_Node000009_Node000019" class="edge">
<title>Node9&#45;&gt;Node19</title>
<g id="a_edge22_Node000009_Node000019"><a xlink:title=" ">
<path fill="none" stroke="#63b8ff" d="M1025.49,-139.6C1033.74,-138.24 1042.13,-136.98 1050.12,-136 1291.5,-106.33 1354.69,-129.17 1596.12,-100 1608.03,-98.56 1620.79,-96.56 1632.72,-94.48"/>
<polygon fill="#63b8ff" stroke="#63b8ff" points="1025.14,-136.11 1015.88,-141.25 1026.33,-143 1025.14,-136.11"/>
</a>
</g>
</g>
<!-- Node9&#45;&gt;Node20 -->
<g id="edge23_Node000009_Node000020" class="edge">
<title>Node9&#45;&gt;Node20</title>
<g id="a_edge23_Node000009_Node000020"><a xlink:title=" ">
<path fill="none" stroke="#63b8ff" d="M1047.16,-140.17C1060.81,-138.59 1074.86,-137.11 1088.12,-136 1448.99,-105.7 1543.99,-153.63 1902.12,-100 1904.9,-99.58 1907.74,-99.09 1910.59,-98.54"/>
<polygon fill="#63b8ff" stroke="#63b8ff" points="1046.83,-136.69 1037.32,-141.35 1047.66,-143.64 1046.83,-136.69"/>
</a>
</g>
</g>
<!-- Node9&#45;&gt;Node21 -->
<g id="edge24_Node000009_Node000021" class="edge">
<title>Node9&#45;&gt;Node21</title>
<g id="a_edge24_Node000009_Node000021"><a xlink:title=" ">
<path fill="none" stroke="#63b8ff" d="M1024.57,-139.63C1033.11,-138.23 1041.83,-136.95 1050.12,-136 1366.66,-99.59 1450.34,-142.47 1766.12,-100 1769.12,-99.6 1772.18,-99.13 1775.26,-98.61"/>
<polygon fill="#63b8ff" stroke="#63b8ff" points="1024.26,-136.13 1014.99,-141.28 1025.44,-143.03 1024.26,-136.13"/>
</a>
</g>
</g>
<!-- Node22 -->
<g id="Node000022" class="node">
<title>Node22</title>
<g id="a_Node000022"><a xlink:href="test__converters_8cpp.html" target="_top" xlink:title=" ">
<polygon fill="white" stroke="#666666" points="1757.62,-26 1600.62,-26 1600.62,-6 1757.62,-6 1757.62,-26"/>
<text text-anchor="middle" x="1679.12" y="-12.5" font-family="Helvetica,sans-Serif" font-size="10.00">test/comms/test_converters.cpp</text>
</a>
</g>
</g>
<!-- Node21&#45;&gt;Node22 -->
<g id="edge25_Node000021_Node000022" class="edge">
<title>Node21&#45;&gt;Node22</title>
<g id="a_edge25_Node000021_Node000022"><a xlink:title=" ">
<path fill="none" stroke="#63b8ff" d="M1787.23,-63.03C1758.73,-50.9 1723.66,-35.96 1701.34,-26.46"/>
<polygon fill="#63b8ff" stroke="#63b8ff" points="1785.82,-66.24 1796.39,-66.93 1788.56,-59.79 1785.82,-66.24"/>
</a>
</g>
</g>
<!-- Node23 -->
<g id="Node000023" class="node">
<title>Node23</title>
<g id="a_Node000023"><a xlink:href="test__frame__build_8cpp.html" target="_top" xlink:title=" ">
<polygon fill="white" stroke="#666666" points="1892.75,-32 1775.5,-32 1775.5,0 1892.75,0 1892.75,-32"/>
<text text-anchor="start" x="1783.5" y="-18.5" font-family="Helvetica,sans-Serif" font-size="10.00">test/comms/test_frame</text>
<text text-anchor="middle" x="1834.12" y="-6.5" font-family="Helvetica,sans-Serif" font-size="10.00">_build.cpp</text>
</a>
</g>
</g>
<!-- Node21&#45;&gt;Node23 -->
<g id="edge26_Node000021_Node000023" class="edge">
<title>Node21&#45;&gt;Node23</title>
<g id="a_edge26_Node000021_Node000023"><a xlink:title=" ">
<path fill="none" stroke="#63b8ff" d="M1834.12,-56.31C1834.12,-48.12 1834.12,-39.38 1834.12,-32.22"/>
<polygon fill="#63b8ff" stroke="#63b8ff" points="1830.63,-56.18 1834.13,-66.18 1837.63,-56.18 1830.63,-56.18"/>
</a>
</g>
</g>
<!-- Node24 -->
<g id="Node000024" class="node">
<title>Node24</title>
<g id="a_Node000024"><a xlink:href="test__frame__coding_8cpp.html" target="_top" xlink:title=" ">
<polygon fill="white" stroke="#666666" points="2027.75,-32 1910.5,-32 1910.5,0 2027.75,0 2027.75,-32"/>
<text text-anchor="start" x="1918.5" y="-18.5" font-family="Helvetica,sans-Serif" font-size="10.00">test/comms/test_frame</text>
<text text-anchor="middle" x="1969.12" y="-6.5" font-family="Helvetica,sans-Serif" font-size="10.00">_coding.cpp</text>
</a>
</g>
</g>
<!-- Node21&#45;&gt;Node24 -->
<g id="edge27_Node000021_Node000024" class="edge">
<title>Node21&#45;&gt;Node24</title>
<g id="a_edge27_Node000021_Node000024"><a xlink:title=" ">
<path fill="none" stroke="#63b8ff" d="M1876.11,-62.47C1896,-52.75 1919.34,-41.34 1937.67,-32.38"/>
<polygon fill="#63b8ff" stroke="#63b8ff" points="1874.58,-59.32 1867.14,-66.86 1877.66,-65.61 1874.58,-59.32"/>
</a>
</g>
</g>
</g>
</svg>
