<?xml version="1.0" encoding="UTF-8" standalone="no"?>
<!DOCTYPE svg PUBLIC "-//W3C//DTD SVG 1.1//EN"
 "http://www.w3.org/Graphics/SVG/1.1/DTD/svg11.dtd">
<!-- Generated by graphviz version 12.2.1 (20241206.2353)
 -->
<!-- Title: uart_print Pages: 1 -->
<!--zoomable 963 -->

<svg id="main" version="1.1" xmlns="http://www.w3.org/2000/svg" xmlns:xlink="http://www.w3.org/1999/xlink" xml:space="preserve" onload="init(evt)">

<style type="text/css"><![CDATA[
.node, .edge {opacity: 0.7;}
.node.selected, .edge.selected {opacity: 1;}
.edge:hover path { stroke: red; }
.edge:hover polygon { stroke: red; fill: red; }
]]></style>

<defs>
  <circle id="rim" cx="0" cy="0" r="7"/>
  <circle id="rim2" cx="0" cy="0" r="3.5"/>
  <g id="zoomPlus">
    <use xlink:href="#rim" fill="#404040"><set attributeName="fill" to="#808080" begin="zoomplus.mouseover" end="zoomplus.mouseout"/></use>
    <path d="M-4,0h8M0,-4v8" fill="none" stroke="white" stroke-width="1.5" pointer-events="none"/>
  </g>
  <g id="zoomMin">
    <use xlink:href="#rim" fill="#404040"><set attributeName="fill" to="#808080" begin="zoomminus.mouseover" end="zoomminus.mouseout"/></use>
    <path d="M-4,0h8" fill="none" stroke="white" stroke-width="1.5" pointer-events="none"/>
  </g>
  <g id="arrowUp" transform="translate(30 24)">
    <use xlink:href="#rim"/>
    <path pointer-events="none" fill="none" stroke="white" stroke-width="1.5" d="M0,-3.0v7 M-2.5,-0.5L0,-3.0L2.5,-0.5"/>
  </g>
  <g id="arrowRight" transform="rotate(90) translate(36 -43)">
    <use xlink:href="#rim"/>
    <path pointer-events="none" fill="none" stroke="white" stroke-width="1.5" d="M0,-3.0v7 M-2.5,-0.5L0,-3.0L2.5,-0.5"/>
  </g>
  <g id="arrowDown" transform="rotate(180) translate(-30 -48)">
    <use xlink:href="#rim"/>
    <path pointer-events="none" fill="none" stroke="white" stroke-width="1.5" d="M0,-3.0v7 M-2.5,-0.5L0,-3.0L2.5,-0.5"/>
  </g>
  <g id="arrowLeft" transform="rotate(270) translate(-36 17)">
    <use xlink:href="#rim"/>
    <path pointer-events="none" fill="none" stroke="white" stroke-width="1.5" d="M0,-3.0v7 M-2.5,-0.5L0,-3.0L2.5,-0.5"/>
  </g>
  <g id="resetDef">
    <use xlink:href="#rim2" fill="#404040"><set attributeName="fill" to="#808080" begin="reset.mouseover" end="reset.mouseout"/></use>
  </g>
</defs>
<script type="application/ecmascript">
var viewWidth = 946;
var viewHeight = 963;
var sectionId = 'dynsection-1';
</script>
<script type="application/ecmascript" xlink:href="svg.min.js"/>
<svg id="graph" class="graph">
<g id="viewport">
<title>uart_print</title>
<!-- Node1 -->
<g id="Node000001" class="node">
<title>Node1</title>
<g id="a_Node000001"><a xlink:title="Prints a message to the UART with a timestamp and core number.">
<polygon fill="#999999" stroke="#666666" points="937.75,-505 881.25,-505 881.25,-485 937.75,-485 937.75,-505"/>
<text text-anchor="middle" x="909.5" y="-491.5" font-family="Helvetica,sans-Serif" font-size="10.00">uart_print</text>
</a>
</g>
</g>
<!-- Node2 -->
<g id="Node000002" class="node">
<title>Node2</title>
<g id="a_Node000002"><a xlink:href="class_i_n_a3221.html#a868af24425b042f330a0e7fae8210936" target="_top" xlink:title=" ">
<polygon fill="white" stroke="#666666" points="819.75,-955 736.25,-955 736.25,-935 819.75,-935 819.75,-955"/>
<text text-anchor="middle" x="778" y="-941.5" font-family="Helvetica,sans-Serif" font-size="10.00">INA3221::begin</text>
</a>
</g>
</g>
<!-- Node1&#45;&gt;Node2 -->
<g id="edge1_Node000001_Node000002" class="edge">
<title>Node1&#45;&gt;Node2</title>
<g id="a_edge1_Node000001_Node000002"><a xlink:title=" ">
<path fill="none" stroke="#63b8ff" d="M908.32,-516.71C907.22,-595.35 899.49,-863.99 845.25,-926 838.71,-933.48 829.45,-938.1 819.92,-940.94"/>
<polygon fill="#63b8ff" stroke="#63b8ff" points="911.82,-516.96 908.43,-506.92 904.82,-516.88 911.82,-516.96"/>
</a>
</g>
</g>
<!-- Node3 -->
<g id="Node000003" class="node">
<title>Node3</title>
<g id="a_Node000003"><a xlink:href="event__manager_8cpp.html#a3a1b3fdef7c62da5c917d3006cdc65dd" target="_top" xlink:title="Checks power statuses and triggers events based on voltage trends.">
<polygon fill="white" stroke="#666666" points="832.12,-917 723.88,-917 723.88,-897 832.12,-897 832.12,-917"/>
<text text-anchor="middle" x="778" y="-903.5" font-family="Helvetica,sans-Serif" font-size="10.00">check_power_events</text>
</a>
</g>
</g>
<!-- Node1&#45;&gt;Node3 -->
<g id="edge2_Node000001_Node000003" class="edge">
<title>Node1&#45;&gt;Node3</title>
<g id="a_edge2_Node000001_Node000003"><a xlink:title=" ">
<path fill="none" stroke="#63b8ff" d="M907.78,-516.75C904.93,-590.02 892.21,-826.38 845.25,-883 840.41,-888.84 834.03,-893.26 827.13,-896.6"/>
<polygon fill="#63b8ff" stroke="#63b8ff" points="911.27,-517.02 908.14,-506.9 904.28,-516.77 911.27,-517.02"/>
</a>
</g>
</g>
<!-- Node4 -->
<g id="Node000004" class="node">
<title>Node4</title>
<g id="a_Node000004"><a xlink:href="main_8cpp.html#a9f153132b8b4afad133b952111e18bd9" target="_top" xlink:title=" ">
<polygon fill="white" stroke="#666666" points="649.25,-890 582.25,-890 582.25,-870 649.25,-870 649.25,-890"/>
<text text-anchor="middle" x="615.75" y="-876.5" font-family="Helvetica,sans-Serif" font-size="10.00">core1_entry</text>
</a>
</g>
</g>
<!-- Node1&#45;&gt;Node4 -->
<g id="edge5_Node000001_Node000004" class="edge">
<title>Node1&#45;&gt;Node4</title>
<g id="a_edge5_Node000001_Node000004"><a xlink:title=" ">
<path fill="none" stroke="#63b8ff" d="M907.76,-516.72C904.95,-585.85 892.53,-798.97 845.25,-845 818,-871.53 705.89,-877.96 649.48,-879.51"/>
<polygon fill="#63b8ff" stroke="#63b8ff" points="911.26,-516.86 908.14,-506.74 904.26,-516.6 911.26,-516.86"/>
</a>
</g>
</g>
<!-- Node5 -->
<g id="Node000005" class="node">
<title>Node5</title>
<g id="a_Node000005"><a xlink:href="main_8cpp.html#ae66f6b31b5ad750f1fe042a706a4e3d4" target="_top" xlink:title=" ">
<polygon fill="white" stroke="#666666" points="37,-669 0,-669 0,-649 37,-649 37,-669"/>
<text text-anchor="middle" x="18.5" y="-655.5" font-family="Helvetica,sans-Serif" font-size="10.00">main</text>
</a>
</g>
</g>
<!-- Node1&#45;&gt;Node5 -->
<g id="edge36_Node000001_Node000005" class="edge">
<title>Node1&#45;&gt;Node5</title>
<g id="a_edge36_Node000001_Node000005"><a xlink:title=" ">
<path fill="none" stroke="#63b8ff" d="M907.2,-516.73C902.97,-579.7 887.31,-760.19 845.25,-798 781.43,-855.36 139.18,-855.62 73,-801 31.15,-766.45 22.01,-695.56 20.04,-669.18"/>
<polygon fill="#63b8ff" stroke="#63b8ff" points="910.68,-517.19 907.82,-506.99 903.69,-516.74 910.68,-517.19"/>
</a>
</g>
</g>
<!-- Node6 -->
<g id="Node000006" class="node">
<title>Node6</title>
<g id="a_Node000006"><a xlink:href="frame_8cpp.html#a0b3438ff642c0934321101e1f0b8d82d" target="_top" xlink:title="Converts a string into a Frame instance.">
<polygon fill="white" stroke="#666666" points="484,-802 406.5,-802 406.5,-782 484,-782 484,-802"/>
<text text-anchor="middle" x="445.25" y="-788.5" font-family="Helvetica,sans-Serif" font-size="10.00">frame_decode</text>
</a>
</g>
</g>
<!-- Node1&#45;&gt;Node6 -->
<g id="edge6_Node000001_Node000006" class="edge">
<title>Node1&#45;&gt;Node6</title>
<g id="a_edge6_Node000001_Node000006"><a xlink:title=" ">
<path fill="none" stroke="#63b8ff" d="M906.76,-516.56C901.53,-575.19 883.94,-735.31 845.25,-768 791.58,-813.35 573.16,-801.97 484.21,-795.24"/>
<polygon fill="#63b8ff" stroke="#63b8ff" points="910.22,-517.16 907.58,-506.89 903.24,-516.56 910.22,-517.16"/>
</a>
</g>
</g>
<!-- Node8 -->
<g id="Node000008" class="node">
<title>Node8</title>
<g id="a_Node000008"><a xlink:href="receive_8cpp.html#a14ffba44d46e00b23bd72bdb3a4d58d1" target="_top" xlink:title="Handles UART input.">
<polygon fill="white" stroke="#666666" points="165.5,-688 73,-688 73,-668 165.5,-668 165.5,-688"/>
<text text-anchor="middle" x="119.25" y="-674.5" font-family="Helvetica,sans-Serif" font-size="10.00">handle_uart_input</text>
</a>
</g>
</g>
<!-- Node1&#45;&gt;Node8 -->
<g id="edge31_Node000001_Node000008" class="edge">
<title>Node1&#45;&gt;Node8</title>
<g id="a_edge31_Node000001_Node000008"><a xlink:title=" ">
<path fill="none" stroke="#63b8ff" d="M906.14,-516.52C899.76,-570.28 880.24,-708.03 845.25,-735 761.55,-799.5 474.77,-746.71 369.75,-735 291.59,-726.28 202.24,-702.37 154.54,-688.44"/>
<polygon fill="#63b8ff" stroke="#63b8ff" points="909.59,-517.15 907.25,-506.82 902.64,-516.36 909.59,-517.15"/>
</a>
</g>
</g>
<!-- Node9 -->
<g id="Node000009" class="node">
<title>Node9</title>
<g id="a_Node000009"><a xlink:href="receive_8cpp.html#a3f494105dee3a08e1244febc81982517" target="_top" xlink:title="Callback function for handling received LoRa packets.">
<polygon fill="white" stroke="#666666" points="150.88,-612 87.62,-612 87.62,-592 150.88,-592 150.88,-612"/>
<text text-anchor="middle" x="119.25" y="-598.5" font-family="Helvetica,sans-Serif" font-size="10.00">on_receive</text>
</a>
</g>
</g>
<!-- Node1&#45;&gt;Node9 -->
<g id="edge37_Node000001_Node000009" class="edge">
<title>Node1&#45;&gt;Node9</title>
<g id="a_edge37_Node000001_Node000009"><a xlink:title=" ">
<path fill="none" stroke="#63b8ff" d="M904.84,-516.34C898.51,-545.85 882.43,-598.06 845.25,-621 790.69,-654.66 615.64,-646.33 556.75,-621 535.38,-611.81 542.12,-592.19 520.75,-583 459.1,-556.48 436.81,-580.45 369.75,-583 290.96,-586 198.48,-594.29 151.32,-598.87"/>
<polygon fill="#63b8ff" stroke="#63b8ff" points="908.24,-517.21 906.7,-506.73 901.37,-515.88 908.24,-517.21"/>
</a>
</g>
</g>
<!-- Node13 -->
<g id="Node000013" class="node">
<title>Node13</title>
<g id="a_Node000013"><a xlink:href="storage_8cpp.html#afb19e37469a751aa61de3dcd0c70b4b0" target="_top" xlink:title="Initializes the file system on the SD card.">
<polygon fill="white" stroke="#666666" points="636.88,-310 594.62,-310 594.62,-290 636.88,-290 636.88,-310"/>
<text text-anchor="middle" x="615.75" y="-296.5" font-family="Helvetica,sans-Serif" font-size="10.00">fs_init</text>
</a>
</g>
</g>
<!-- Node1&#45;&gt;Node13 -->
<g id="edge16_Node000001_Node000013" class="edge">
<title>Node1&#45;&gt;Node13</title>
<g id="a_edge16_Node000001_Node000013"><a xlink:title=" ">
<path fill="none" stroke="#63b8ff" d="M908.07,-473.29C906.19,-403.31 896.25,-185.66 845.25,-143 799.4,-104.65 762.75,-113.52 710.75,-143 652.71,-175.9 626.64,-260.47 619.14,-289.8"/>
<polygon fill="#63b8ff" stroke="#63b8ff" points="904.57,-473.14 908.3,-483.05 911.56,-472.98 904.57,-473.14"/>
</a>
</g>
</g>
<!-- Node14 -->
<g id="Node000014" class="node">
<title>Node14</title>
<g id="a_Node000014"><a xlink:href="main_8cpp.html#a8fa5379b5bec497b881cec19f2b38779" target="_top" xlink:title=" ">
<polygon fill="white" stroke="#666666" points="481,-524 409.5,-524 409.5,-504 481,-504 481,-524"/>
<text text-anchor="middle" x="445.25" y="-510.5" font-family="Helvetica,sans-Serif" font-size="10.00">init_systems</text>
</a>
</g>
</g>
<!-- Node1&#45;&gt;Node14 -->
<g id="edge32_Node000001_Node000014" class="edge">
<title>Node1&#45;&gt;Node14</title>
<g id="a_edge32_Node000001_Node000014"><a xlink:title=" ">
<path fill="none" stroke="#63b8ff" d="M908.83,-473.42C909.52,-394.11 907.33,-120.58 845.25,-67 659.21,93.57 476.73,-422.91 449.69,-503.56"/>
<polygon fill="#63b8ff" stroke="#63b8ff" points="905.33,-473.24 908.71,-483.28 912.33,-473.32 905.33,-473.24"/>
</a>
</g>
</g>
<!-- Node15 -->
<g id="Node000015" class="node">
<title>Node15</title>
<g id="a_Node000015"><a xlink:href="class_d_s3231.html#ad5a93c1afc0e44f96e08ce99258c5228" target="_top" xlink:title=" ">
<polygon fill="white" stroke="#666666" points="825.38,-612 730.62,-612 730.62,-592 825.38,-592 825.38,-612"/>
<text text-anchor="middle" x="778" y="-598.5" font-family="Helvetica,sans-Serif" font-size="10.00">DS3231::get_time</text>
</a>
</g>
</g>
<!-- Node1&#45;&gt;Node15 -->
<g id="edge19_Node000001_Node000015" class="edge">
<title>Node1&#45;&gt;Node15</title>
<g id="a_edge19_Node000001_Node000015"><a xlink:title=" ">
<path fill="none" stroke="#63b8ff" d="M898.79,-515.69C888.32,-535.79 869.8,-565.72 845.25,-583 839.38,-587.13 832.62,-590.37 825.72,-592.91"/>
<polygon fill="#63b8ff" stroke="#63b8ff" points="901.9,-517.3 903.21,-506.78 895.63,-514.18 901.9,-517.3"/>
</a>
</g>
</g>
<!-- Node17 -->
<g id="Node000017" class="node">
<title>Node17</title>
<g id="a_Node000017"><a xlink:href="group___g_p_s_commands.html#ga3e4c6db6e933a1ff77f3ac52ce1c44be" target="_top" xlink:title="Handler for enabling GPS transparent mode (UART pass&#45;through)">
<polygon fill="white" stroke="#666666" points="838.5,-574 717.5,-574 717.5,-542 838.5,-542 838.5,-574"/>
<text text-anchor="start" x="725.5" y="-560.5" font-family="Helvetica,sans-Serif" font-size="10.00">handle_enable_gps_uart</text>
<text text-anchor="middle" x="778" y="-548.5" font-family="Helvetica,sans-Serif" font-size="10.00">_passthrough</text>
</a>
</g>
</g>
<!-- Node1&#45;&gt;Node17 -->
<g id="edge21_Node000001_Node000017" class="edge">
<title>Node1&#45;&gt;Node17</title>
<g id="a_edge21_Node000001_Node000017"><a xlink:title=" ">
<path fill="none" stroke="#63b8ff" d="M879.23,-510.7C868.59,-516.3 856.44,-522.55 845.25,-528 835.94,-532.53 825.8,-537.24 816.31,-541.54"/>
<polygon fill="#63b8ff" stroke="#63b8ff" points="880.73,-513.87 887.93,-506.1 877.45,-507.69 880.73,-513.87"/>
</a>
</g>
</g>
<!-- Node18 -->
<g id="Node000018" class="node">
<title>Node18</title>
<g id="a_Node000018"><a xlink:href="group___diagnostic_commands.html#ga3ab5723218b68d3ac5cd864e00ed157a" target="_top" xlink:title="Reboot system to USB firmware loader.">
<polygon fill="white" stroke="#666666" points="520.75,-612 369.75,-612 369.75,-592 520.75,-592 520.75,-612"/>
<text text-anchor="middle" x="445.25" y="-598.5" font-family="Helvetica,sans-Serif" font-size="10.00">handle_enter_bootloader_mode</text>
</a>
</g>
</g>
<!-- Node1&#45;&gt;Node18 -->
<g id="edge22_Node000001_Node000018" class="edge">
<title>Node1&#45;&gt;Node18</title>
<g id="a_edge22_Node000001_Node000018"><a xlink:title=" ">
<path fill="none" stroke="#63b8ff" d="M907.21,-516.61C903.79,-552.32 891.23,-622.81 845.25,-654 792.2,-689.99 617.39,-674.81 556.75,-654 537.58,-647.42 538.67,-635.47 520.75,-626 510.42,-620.54 498.62,-616.04 487.51,-612.47"/>
<polygon fill="#63b8ff" stroke="#63b8ff" points="910.7,-516.91 907.99,-506.67 903.72,-516.37 910.7,-516.91"/>
</a>
</g>
</g>
<!-- Node19 -->
<g id="Node000019" class="node">
<title>Node19</title>
<g id="a_Node000019"><a xlink:href="group___diagnostic_commands.html#ga74736b8d0e49df14f97e3e20cd3418c7" target="_top" xlink:title="Handler for listing all available commands on UART.">
<polygon fill="white" stroke="#666666" points="845.25,-486 710.75,-486 710.75,-466 845.25,-466 845.25,-486"/>
<text text-anchor="middle" x="778" y="-472.5" font-family="Helvetica,sans-Serif" font-size="10.00">handle_get_commands_list</text>
</a>
</g>
</g>
<!-- Node1&#45;&gt;Node19 -->
<g id="edge23_Node000001_Node000019" class="edge">
<title>Node1&#45;&gt;Node19</title>
<g id="a_edge23_Node000001_Node000019"><a xlink:title=" ">
<path fill="none" stroke="#63b8ff" d="M869.89,-489.34C862.2,-488.21 853.92,-486.99 845.59,-485.77"/>
<polygon fill="#63b8ff" stroke="#63b8ff" points="869.14,-492.76 879.54,-490.75 870.15,-485.84 869.14,-492.76"/>
</a>
</g>
</g>
<!-- Node20 -->
<g id="Node000020" class="node">
<title>Node20</title>
<g id="a_Node000020"><a xlink:href="group___power_commands.html#gacda455c78e43fa4ad2a93215b440c0ef" target="_top" xlink:title="Handler for getting solar panel charge current.">
<polygon fill="white" stroke="#666666" points="827.25,-448 728.75,-448 728.75,-416 827.25,-416 827.25,-448"/>
<text text-anchor="start" x="736.75" y="-434.5" font-family="Helvetica,sans-Serif" font-size="10.00">handle_get_current</text>
<text text-anchor="middle" x="778" y="-422.5" font-family="Helvetica,sans-Serif" font-size="10.00">_charge_solar</text>
</a>
</g>
</g>
<!-- Node1&#45;&gt;Node20 -->
<g id="edge24_Node000001_Node000020" class="edge">
<title>Node1&#45;&gt;Node20</title>
<g id="a_edge24_Node000001_Node000020"><a xlink:title=" ">
<path fill="none" stroke="#63b8ff" d="M883.4,-478.49C872.02,-471.39 858.23,-463.28 845.25,-457 839.05,-454 832.4,-451.12 825.78,-448.44"/>
<polygon fill="#63b8ff" stroke="#63b8ff" points="881.49,-481.43 891.81,-483.85 885.25,-475.52 881.49,-481.43"/>
</a>
</g>
</g>
<!-- Node21 -->
<g id="Node000021" class="node">
<title>Node21</title>
<g id="a_Node000021"><a xlink:href="group___power_commands.html#gaf14f25e1c7a2f89881a0f9fbcb7f1807" target="_top" xlink:title="Handler for getting total charge current.">
<polygon fill="white" stroke="#666666" points="827.25,-398 728.75,-398 728.75,-366 827.25,-366 827.25,-398"/>
<text text-anchor="start" x="736.75" y="-384.5" font-family="Helvetica,sans-Serif" font-size="10.00">handle_get_current</text>
<text text-anchor="middle" x="778" y="-372.5" font-family="Helvetica,sans-Serif" font-size="10.00">_charge_total</text>
</a>
</g>
</g>
<!-- Node1&#45;&gt;Node21 -->
<g id="edge25_Node000001_Node000021" class="edge">
<title>Node1&#45;&gt;Node21</title>
<g id="a_edge25_Node000001_Node000021"><a xlink:title=" ">
<path fill="none" stroke="#63b8ff" d="M898.31,-474.41C887.58,-454.64 868.95,-425.17 845.25,-407 839.88,-402.89 833.77,-399.38 827.47,-396.42"/>
<polygon fill="#63b8ff" stroke="#63b8ff" points="895.15,-475.92 902.87,-483.18 901.36,-472.69 895.15,-475.92"/>
</a>
</g>
</g>
<!-- Node22 -->
<g id="Node000022" class="node">
<title>Node22</title>
<g id="a_Node000022"><a xlink:href="group___power_commands.html#ga6e5a897c92aaeae8b2fb25faa50bb19d" target="_top" xlink:title="Handler for getting USB charge current.">
<polygon fill="white" stroke="#666666" points="827.25,-348 728.75,-348 728.75,-316 827.25,-316 827.25,-348"/>
<text text-anchor="start" x="736.75" y="-334.5" font-family="Helvetica,sans-Serif" font-size="10.00">handle_get_current</text>
<text text-anchor="middle" x="778" y="-322.5" font-family="Helvetica,sans-Serif" font-size="10.00">_charge_usb</text>
</a>
</g>
</g>
<!-- Node1&#45;&gt;Node22 -->
<g id="edge26_Node000001_Node000022" class="edge">
<title>Node1&#45;&gt;Node22</title>
<g id="a_edge26_Node000001_Node000022"><a xlink:title=" ">
<path fill="none" stroke="#63b8ff" d="M904.08,-473.54C896.82,-443.53 879.64,-389.1 845.25,-357 840.13,-352.22 834,-348.33 827.57,-345.17"/>
<polygon fill="#63b8ff" stroke="#63b8ff" points="900.66,-474.3 906.26,-483.3 907.49,-472.77 900.66,-474.3"/>
</a>
</g>
</g>
<!-- Node23 -->
<g id="Node000023" class="node">
<title>Node23</title>
<g id="a_Node000023"><a xlink:href="group___power_commands.html#ga31c33c0ee51185939be5c642affdb6b8" target="_top" xlink:title="Handler for getting system current draw.">
<polygon fill="white" stroke="#666666" points="840.38,-298 715.62,-298 715.62,-278 840.38,-278 840.38,-298"/>
<text text-anchor="middle" x="778" y="-284.5" font-family="Helvetica,sans-Serif" font-size="10.00">handle_get_current_draw</text>
</a>
</g>
</g>
<!-- Node1&#45;&gt;Node23 -->
<g id="edge27_Node000001_Node000023" class="edge">
<title>Node1&#45;&gt;Node23</title>
<g id="a_edge27_Node000001_Node000023"><a xlink:title=" ">
<path fill="none" stroke="#63b8ff" d="M907.51,-473.26C904.54,-434.27 892.67,-352.32 845.25,-307 841.62,-303.53 837.39,-300.68 832.87,-298.35"/>
<polygon fill="#63b8ff" stroke="#63b8ff" points="904.01,-473.44 908.12,-483.21 911,-473.01 904.01,-473.44"/>
</a>
</g>
</g>
<!-- Node24 -->
<g id="Node000024" class="node">
<title>Node24</title>
<g id="a_Node000024"><a xlink:href="group___power_commands.html#ga24497d675dc02a7ec46ed0327a9de54a" target="_top" xlink:title="Handler for getting 5V rail voltage.">
<polygon fill="white" stroke="#666666" points="835.88,-260 720.12,-260 720.12,-240 835.88,-240 835.88,-260"/>
<text text-anchor="middle" x="778" y="-246.5" font-family="Helvetica,sans-Serif" font-size="10.00">handle_get_voltage_5v</text>
</a>
</g>
</g>
<!-- Node1&#45;&gt;Node24 -->
<g id="edge28_Node000001_Node000024" class="edge">
<title>Node1&#45;&gt;Node24</title>
<g id="a_edge28_Node000001_Node000024"><a xlink:title=" ">
<path fill="none" stroke="#63b8ff" d="M908.98,-473.32C908.75,-428.65 901.71,-325.82 845.25,-269 841.79,-265.52 837.74,-262.67 833.38,-260.33"/>
<polygon fill="#63b8ff" stroke="#63b8ff" points="905.48,-473.2 908.91,-483.23 912.48,-473.26 905.48,-473.2"/>
</a>
</g>
</g>
<!-- Node25 -->
<g id="Node000025" class="node">
<title>Node25</title>
<g id="a_Node000025"><a xlink:href="group___power_commands.html#ga06487ba124c57bc39009eb235ec8cab4" target="_top" xlink:title="Handler for getting battery voltage.">
<polygon fill="white" stroke="#666666" points="828,-222 728,-222 728,-190 828,-190 828,-222"/>
<text text-anchor="start" x="736" y="-208.5" font-family="Helvetica,sans-Serif" font-size="10.00">handle_get_voltage</text>
<text text-anchor="middle" x="778" y="-196.5" font-family="Helvetica,sans-Serif" font-size="10.00">_battery</text>
</a>
</g>
</g>
<!-- Node1&#45;&gt;Node25 -->
<g id="edge29_Node000001_Node000025" class="edge">
<title>Node1&#45;&gt;Node25</title>
<g id="a_edge29_Node000001_Node000025"><a xlink:title=" ">
<path fill="none" stroke="#63b8ff" d="M905.92,-473.24C898.83,-416.78 877.42,-267.49 845.25,-231 840.62,-225.74 834.76,-221.59 828.46,-218.31"/>
<polygon fill="#63b8ff" stroke="#63b8ff" points="902.44,-473.64 907.13,-483.14 909.39,-472.79 902.44,-473.64"/>
</a>
</g>
</g>
<!-- Node26 -->
<g id="Node000026" class="node">
<title>Node26</title>
<g id="a_Node000026"><a xlink:href="group___clock_commands.html#gaece0975a9dd699742e1db5a411bcc93c" target="_top" xlink:title="Handler for getting and setting system time.">
<polygon fill="white" stroke="#666666" points="812.25,-172 743.75,-172 743.75,-152 812.25,-152 812.25,-172"/>
<text text-anchor="middle" x="778" y="-158.5" font-family="Helvetica,sans-Serif" font-size="10.00">handle_time</text>
</a>
</g>
</g>
<!-- Node1&#45;&gt;Node26 -->
<g id="edge30_Node000001_Node000026" class="edge">
<title>Node1&#45;&gt;Node26</title>
<g id="a_edge30_Node000001_Node000026"><a xlink:title=" ">
<path fill="none" stroke="#63b8ff" d="M907.01,-473.27C902.2,-409.41 885.02,-224.11 845.25,-181 836.81,-171.85 824.3,-167 812.41,-164.47"/>
<polygon fill="#63b8ff" stroke="#63b8ff" points="903.51,-473.42 907.72,-483.14 910.49,-472.92 903.51,-473.42"/>
</a>
</g>
</g>
<!-- Node27 -->
<g id="Node000027" class="node">
<title>Node27</title>
<g id="a_Node000027"><a xlink:href="communication_8cpp.html#a8f817ba4ed9164098cd3947f7cc3f749" target="_top" xlink:title="Initializes the LoRa radio module.">
<polygon fill="white" stroke="#666666" points="654.5,-524 577,-524 577,-504 654.5,-504 654.5,-524"/>
<text text-anchor="middle" x="615.75" y="-510.5" font-family="Helvetica,sans-Serif" font-size="10.00">initialize_radio</text>
</a>
</g>
</g>
<!-- Node1&#45;&gt;Node27 -->
<g id="edge33_Node000001_Node000027" class="edge">
<title>Node1&#45;&gt;Node27</title>
<g id="a_edge33_Node000001_Node000027"><a xlink:title=" ">
<path fill="none" stroke="#63b8ff" d="M869.55,-497.54C813.41,-501.19 710.37,-507.9 654.75,-511.53"/>
<polygon fill="#63b8ff" stroke="#63b8ff" points="869.53,-501.05 879.28,-496.9 869.07,-494.06 869.53,-501.05"/>
</a>
</g>
</g>
<!-- Node28 -->
<g id="Node000028" class="node">
<title>Node28</title>
<g id="a_Node000028"><a xlink:href="class_event_manager.html#a741f96e4376a42712561ceca16646c1b" target="_top" xlink:title="Logs an event.">
<polygon fill="white" stroke="#666666" points="841.5,-96 714.5,-96 714.5,-76 841.5,-76 841.5,-96"/>
<text text-anchor="middle" x="778" y="-82.5" font-family="Helvetica,sans-Serif" font-size="10.00">EventManager::log_event</text>
</a>
</g>
</g>
<!-- Node1&#45;&gt;Node28 -->
<g id="edge35_Node000001_Node000028" class="edge">
<title>Node1&#45;&gt;Node28</title>
<g id="a_edge35_Node000001_Node000028"><a xlink:title=" ">
<path fill="none" stroke="#63b8ff" d="M907.76,-473.42C904.83,-400.71 891.89,-166.16 845.25,-110 840.4,-104.17 834.02,-99.75 827.13,-96.41"/>
<polygon fill="#63b8ff" stroke="#63b8ff" points="904.25,-473.31 908.12,-483.17 911.24,-473.05 904.25,-473.31"/>
</a>
</g>
</g>
<!-- Node29 -->
<g id="Node000029" class="node">
<title>Node29</title>
<g id="a_Node000029"><a xlink:href="send_8cpp.html#a42881e6476e0ce51ee9f6a99a7318d3b" target="_top" xlink:title="Sends a message using LoRa.">
<polygon fill="white" stroke="#666666" points="819,-726 737,-726 737,-706 819,-706 819,-726"/>
<text text-anchor="middle" x="778" y="-712.5" font-family="Helvetica,sans-Serif" font-size="10.00">send_message</text>
</a>
</g>
</g>
<!-- Node1&#45;&gt;Node29 -->
<g id="edge38_Node000001_Node000029" class="edge">
<title>Node1&#45;&gt;Node29</title>
<g id="a_edge38_Node000001_Node000029"><a xlink:title=" ">
<path fill="none" stroke="#63b8ff" d="M907.58,-516.61C904.73,-556.55 893.06,-642.4 845.25,-692 838.2,-699.31 828.76,-704.4 819.22,-707.95"/>
<polygon fill="#63b8ff" stroke="#63b8ff" points="911.07,-516.84 908.15,-506.66 904.09,-516.44 911.07,-516.84"/>
</a>
</g>
</g>
<!-- Node32 -->
<g id="Node000032" class="node">
<title>Node32</title>
<g id="a_Node000032"><a xlink:href="class_d_s3231.html#af68ef517aa7ff25393490211abc99fa8" target="_top" xlink:title=" ">
<polygon fill="white" stroke="#666666" points="825.38,-20 730.62,-20 730.62,0 825.38,0 825.38,-20"/>
<text text-anchor="middle" x="778" y="-6.5" font-family="Helvetica,sans-Serif" font-size="10.00">DS3231::set_time</text>
</a>
</g>
</g>
<!-- Node1&#45;&gt;Node32 -->
<g id="edge46_Node000001_Node000032" class="edge">
<title>Node1&#45;&gt;Node32</title>
<g id="a_edge46_Node000001_Node000032"><a xlink:title=" ">
<path fill="none" stroke="#63b8ff" d="M908.4,-473.25C907.62,-391.37 900.87,-102.81 845.25,-34 840.1,-27.63 833.1,-22.94 825.59,-19.51"/>
<polygon fill="#63b8ff" stroke="#63b8ff" points="904.9,-473.26 908.48,-483.23 911.9,-473.21 904.9,-473.26"/>
</a>
</g>
</g>
<!-- Node3&#45;&gt;Node4 -->
<g id="edge3_Node000003_Node000004" class="edge">
<title>Node3&#45;&gt;Node4</title>
<g id="a_edge3_Node000003_Node000004"><a xlink:title=" ">
<path fill="none" stroke="#63b8ff" d="M712.48,-896.13C690.79,-892.47 667.51,-888.55 649.34,-885.49"/>
<polygon fill="#63b8ff" stroke="#63b8ff" points="711.7,-899.55 722.15,-897.76 712.87,-892.65 711.7,-899.55"/>
</a>
</g>
</g>
<!-- Node4&#45;&gt;Node5 -->
<g id="edge4_Node000004_Node000005" class="edge">
<title>Node4&#45;&gt;Node5</title>
<g id="a_edge4_Node000004_Node000005"><a xlink:title=" ">
<path fill="none" stroke="#63b8ff" d="M570.94,-893.52C470.46,-921.6 220.74,-974.25 73,-856 42.91,-831.92 25.33,-706.55 20.72,-669.39"/>
<polygon fill="#63b8ff" stroke="#63b8ff" points="571.77,-896.93 580.42,-890.82 569.85,-890.2 571.77,-896.93"/>
</a>
</g>
</g>
<!-- Node7 -->
<g id="Node000007" class="node">
<title>Node7</title>
<g id="a_Node000007"><a xlink:href="frame_8cpp.html#a8b9c5fd031b899c6c7867adcde4ac11f" target="_top" xlink:title="Executes a command based on the command key and the parameter.">
<polygon fill="white" stroke="#666666" points="307.88,-688 227.38,-688 227.38,-668 307.88,-668 307.88,-688"/>
<text text-anchor="middle" x="267.62" y="-674.5" font-family="Helvetica,sans-Serif" font-size="10.00">frame_process</text>
</a>
</g>
</g>
<!-- Node6&#45;&gt;Node7 -->
<g id="edge7_Node000006_Node000007" class="edge">
<title>Node6&#45;&gt;Node7</title>
<g id="a_edge7_Node000006_Node000007"><a xlink:title=" ">
<path fill="none" stroke="#63b8ff" d="M418.85,-775.51C382.1,-751.66 315.17,-708.21 284.61,-688.38"/>
<polygon fill="#63b8ff" stroke="#63b8ff" points="416.79,-778.35 427.09,-780.86 420.6,-772.48 416.79,-778.35"/>
</a>
</g>
</g>
<!-- Node10 -->
<g id="Node000010" class="node">
<title>Node10</title>
<g id="a_Node000010"><a xlink:href="test__frame__coding_8cpp.html#a75deef6947cf7117a58214b4298ecec9" target="_top" xlink:title=" ">
<polygon fill="white" stroke="#666666" points="331.5,-814 203.75,-814 203.75,-794 331.5,-794 331.5,-814"/>
<text text-anchor="middle" x="267.62" y="-800.5" font-family="Helvetica,sans-Serif" font-size="10.00">test_frame_decode_basic</text>
</a>
</g>
</g>
<!-- Node6&#45;&gt;Node10 -->
<g id="edge12_Node000006_Node000010" class="edge">
<title>Node6&#45;&gt;Node10</title>
<g id="a_edge12_Node000006_Node000010"><a xlink:title=" ">
<path fill="none" stroke="#63b8ff" d="M394.74,-795.38C375.22,-796.72 352.55,-798.27 331.86,-799.68"/>
<polygon fill="#63b8ff" stroke="#63b8ff" points="394.89,-798.88 404.63,-794.71 394.42,-791.9 394.89,-798.88"/>
</a>
</g>
</g>
<!-- Node12 -->
<g id="Node000012" class="node">
<title>Node12</title>
<g id="a_Node000012"><a xlink:href="test__frame__coding_8cpp.html#a054000b3d2c0abb2e13b9109ae0969ef" target="_top" xlink:title=" ">
<polygon fill="white" stroke="#666666" points="333.75,-776 201.5,-776 201.5,-744 333.75,-744 333.75,-776"/>
<text text-anchor="start" x="209.5" y="-762.5" font-family="Helvetica,sans-Serif" font-size="10.00">test_frame_decode_invalid</text>
<text text-anchor="middle" x="267.62" y="-750.5" font-family="Helvetica,sans-Serif" font-size="10.00">_header</text>
</a>
</g>
</g>
<!-- Node6&#45;&gt;Node12 -->
<g id="edge14_Node000006_Node000012" class="edge">
<title>Node6&#45;&gt;Node12</title>
<g id="a_edge14_Node000006_Node000012"><a xlink:title=" ">
<path fill="none" stroke="#63b8ff" d="M395.07,-783.04C376.13,-779.59 354.19,-775.59 333.95,-771.9"/>
<polygon fill="#63b8ff" stroke="#63b8ff" points="394.19,-786.44 404.65,-784.79 395.44,-779.55 394.19,-786.44"/>
</a>
</g>
</g>
<!-- Node7&#45;&gt;Node8 -->
<g id="edge8_Node000007_Node000008" class="edge">
<title>Node7&#45;&gt;Node8</title>
<g id="a_edge8_Node000007_Node000008"><a xlink:title=" ">
<path fill="none" stroke="#63b8ff" d="M215.57,-678C199.39,-678 181.62,-678 165.85,-678"/>
<polygon fill="#63b8ff" stroke="#63b8ff" points="215.5,-681.5 225.5,-678 215.5,-674.5 215.5,-681.5"/>
</a>
</g>
</g>
<!-- Node7&#45;&gt;Node9 -->
<g id="edge10_Node000007_Node000009" class="edge">
<title>Node7&#45;&gt;Node9</title>
<g id="a_edge10_Node000007_Node000009"><a xlink:title=" ">
<path fill="none" stroke="#63b8ff" d="M236.63,-662.43C207.75,-647.43 164.9,-625.18 140.05,-612.28"/>
<polygon fill="#63b8ff" stroke="#63b8ff" points="234.75,-665.39 245.24,-666.89 237.97,-659.18 234.75,-665.39"/>
</a>
</g>
</g>
<!-- Node8&#45;&gt;Node5 -->
<g id="edge9_Node000008_Node000005" class="edge">
<title>Node8&#45;&gt;Node5</title>
<g id="a_edge9_Node000008_Node000005"><a xlink:title=" ">
<path fill="none" stroke="#63b8ff" d="M61.47,-667.08C52.72,-665.39 44.3,-663.77 37.31,-662.43"/>
<polygon fill="#63b8ff" stroke="#63b8ff" points="60.67,-670.48 71.15,-668.94 61.99,-663.61 60.67,-670.48"/>
</a>
</g>
</g>
<!-- Node9&#45;&gt;Node5 -->
<g id="edge11_Node000009_Node000005" class="edge">
<title>Node9&#45;&gt;Node5</title>
<g id="a_edge11_Node000009_Node000005"><a xlink:title=" ">
<path fill="none" stroke="#63b8ff" d="M87.86,-617.77C82.86,-620.46 77.76,-623.27 73,-626 60.31,-633.27 46.25,-641.97 35.72,-648.61"/>
<polygon fill="#63b8ff" stroke="#63b8ff" points="89.3,-620.97 96.49,-613.18 86.01,-614.79 89.3,-620.97"/>
</a>
</g>
</g>
<!-- Node11 -->
<g id="Node000011" class="node">
<title>Node11</title>
<g id="a_Node000011"><a xlink:href="test__runner_8cpp.html#a840291bc02cba5474a4cb46a9b9566fe" target="_top" xlink:title=" ">
<polygon fill="white" stroke="#666666" points="137.75,-792 100.75,-792 100.75,-772 137.75,-772 137.75,-792"/>
<text text-anchor="middle" x="119.25" y="-778.5" font-family="Helvetica,sans-Serif" font-size="10.00">main</text>
</a>
</g>
</g>
<!-- Node10&#45;&gt;Node11 -->
<g id="edge13_Node000010_Node000011" class="edge">
<title>Node10&#45;&gt;Node11</title>
<g id="a_edge13_Node000010_Node000011"><a xlink:title=" ">
<path fill="none" stroke="#63b8ff" d="M192.05,-792.79C171.82,-789.75 151.72,-786.73 137.95,-784.66"/>
<polygon fill="#63b8ff" stroke="#63b8ff" points="191.37,-796.23 201.78,-794.25 192.41,-789.31 191.37,-796.23"/>
</a>
</g>
</g>
<!-- Node12&#45;&gt;Node11 -->
<g id="edge15_Node000012_Node000011" class="edge">
<title>Node12&#45;&gt;Node11</title>
<g id="a_edge15_Node000012_Node000011"><a xlink:title=" ">
<path fill="none" stroke="#63b8ff" d="M189.98,-771.52C170.47,-774.45 151.29,-777.33 138,-779.33"/>
<polygon fill="#63b8ff" stroke="#63b8ff" points="190.28,-775.01 199.65,-770.07 189.24,-768.09 190.28,-775.01"/>
</a>
</g>
</g>
<!-- Node13&#45;&gt;Node14 -->
<g id="edge17_Node000013_Node000014" class="edge">
<title>Node13&#45;&gt;Node14</title>
<g id="a_edge17_Node000013_Node000014"><a xlink:title=" ">
<path fill="none" stroke="#63b8ff" d="M599.66,-319.17C565.01,-363.17 480.7,-470.25 454.3,-503.78"/>
<polygon fill="#63b8ff" stroke="#63b8ff" points="602.25,-321.53 605.69,-311.51 596.75,-317.2 602.25,-321.53"/>
</a>
</g>
</g>
<!-- Node14&#45;&gt;Node5 -->
<g id="edge18_Node000014_Node000005" class="edge">
<title>Node14&#45;&gt;Node5</title>
<g id="a_edge18_Node000014_Node000005"><a xlink:title=" ">
<path fill="none" stroke="#63b8ff" d="M397.86,-511.09C322.77,-508.72 172.98,-513.96 73,-583 48.44,-599.96 31.44,-632.1 23.89,-648.62"/>
<polygon fill="#63b8ff" stroke="#63b8ff" points="397.61,-514.58 407.73,-511.47 397.88,-507.59 397.61,-514.58"/>
</a>
</g>
</g>
<!-- Node16 -->
<g id="Node000016" class="node">
<title>Node16</title>
<g id="a_Node000016"><a xlink:href="class_d_s3231.html#a2de3663610d5d17f9b6e6354b72cc1b4" target="_top" xlink:title=" ">
<polygon fill="white" stroke="#666666" points="674.75,-612 556.75,-612 556.75,-592 674.75,-592 674.75,-612"/>
<text text-anchor="middle" x="615.75" y="-598.5" font-family="Helvetica,sans-Serif" font-size="10.00">DS3231::get_unix_time</text>
</a>
</g>
</g>
<!-- Node15&#45;&gt;Node16 -->
<g id="edge20_Node000015_Node000016" class="edge">
<title>Node15&#45;&gt;Node16</title>
<g id="a_edge20_Node000015_Node000016"><a xlink:title=" ">
<path fill="none" stroke="#63b8ff" d="M718.99,-602C704.67,-602 689.32,-602 674.98,-602"/>
<polygon fill="#63b8ff" stroke="#63b8ff" points="718.7,-605.5 728.7,-602 718.7,-598.5 718.7,-605.5"/>
</a>
</g>
</g>
<!-- Node27&#45;&gt;Node14 -->
<g id="edge34_Node000027_Node000014" class="edge">
<title>Node27&#45;&gt;Node14</title>
<g id="a_edge34_Node000027_Node000014"><a xlink:title=" ">
<path fill="none" stroke="#63b8ff" d="M565.01,-514C538.17,-514 505.67,-514 481.46,-514"/>
<polygon fill="#63b8ff" stroke="#63b8ff" points="565,-517.5 575,-514 565,-510.5 565,-517.5"/>
</a>
</g>
</g>
<!-- Node30 -->
<g id="Node000030" class="node">
<title>Node30</title>
<g id="a_Node000030"><a xlink:href="send_8cpp.html#ae6c6f3b673e7e83306da7ea2458d3241" target="_top" xlink:title="Sends a Frame using LoRa.">
<polygon fill="white" stroke="#666666" points="649.25,-726 582.25,-726 582.25,-706 649.25,-706 649.25,-726"/>
<text text-anchor="middle" x="615.75" y="-712.5" font-family="Helvetica,sans-Serif" font-size="10.00">send_frame</text>
</a>
</g>
</g>
<!-- Node29&#45;&gt;Node30 -->
<g id="edge39_Node000029_Node000030" class="edge">
<title>Node29&#45;&gt;Node30</title>
<g id="a_edge39_Node000029_Node000030"><a xlink:title=" ">
<path fill="none" stroke="#63b8ff" d="M725.13,-716C700.32,-716 671.36,-716 649.63,-716"/>
<polygon fill="#63b8ff" stroke="#63b8ff" points="725.05,-719.5 735.05,-716 725.05,-712.5 725.05,-719.5"/>
</a>
</g>
</g>
<!-- Node30&#45;&gt;Node5 -->
<g id="edge44_Node000030_Node000005" class="edge">
<title>Node30&#45;&gt;Node5</title>
<g id="a_edge44_Node000030_Node000005"><a xlink:title=" ">
<path fill="none" stroke="#63b8ff" d="M582.84,-700.97C564.97,-693.18 542.05,-684.23 520.75,-679 336.37,-633.73 102.53,-651.06 37.17,-657.2"/>
<polygon fill="#63b8ff" stroke="#63b8ff" points="581.32,-704.12 591.88,-705 584.18,-697.73 581.32,-704.12"/>
</a>
</g>
</g>
<!-- Node30&#45;&gt;Node6 -->
<g id="edge40_Node000030_Node000006" class="edge">
<title>Node30&#45;&gt;Node6</title>
<g id="a_edge40_Node000030_Node000006"><a xlink:title=" ">
<path fill="none" stroke="#63b8ff" d="M581.56,-730.97C548.41,-745.92 498.35,-768.5 469.32,-781.6"/>
<polygon fill="#63b8ff" stroke="#63b8ff" points="582.62,-734.33 590.29,-727.03 579.74,-727.95 582.62,-734.33"/>
</a>
</g>
</g>
<!-- Node30&#45;&gt;Node7 -->
<g id="edge41_Node000030_Node000007" class="edge">
<title>Node30&#45;&gt;Node7</title>
<g id="a_edge41_Node000030_Node000007"><a xlink:title=" ">
<path fill="none" stroke="#63b8ff" d="M570.84,-705.95C555.12,-702.66 537.21,-699.27 520.75,-697 445.96,-686.66 357.86,-681.64 308.09,-679.46"/>
<polygon fill="#63b8ff" stroke="#63b8ff" points="569.87,-709.32 580.38,-707.99 571.33,-702.48 569.87,-709.32"/>
</a>
</g>
</g>
<!-- Node30&#45;&gt;Node14 -->
<g id="edge43_Node000030_Node000014" class="edge">
<title>Node30&#45;&gt;Node14</title>
<g id="a_edge43_Node000030_Node000014"><a xlink:title=" ">
<path fill="none" stroke="#63b8ff" d="M602.72,-696.38C585.88,-669.57 553.65,-620.55 520.75,-583 501,-560.46 474.63,-537.43 459.14,-524.5"/>
<polygon fill="#63b8ff" stroke="#63b8ff" points="599.52,-697.87 607.77,-704.51 605.47,-694.17 599.52,-697.87"/>
</a>
</g>
</g>
<!-- Node30&#45;&gt;Node18 -->
<g id="edge42_Node000030_Node000018" class="edge">
<title>Node30&#45;&gt;Node18</title>
<g id="a_edge42_Node000030_Node000018"><a xlink:title=" ">
<path fill="none" stroke="#63b8ff" d="M571.47,-702.04C566.17,-699.23 561.1,-695.91 556.75,-692 531.89,-669.67 546.49,-647.31 520.75,-626 513.74,-620.19 505.29,-615.78 496.65,-612.43"/>
<polygon fill="#63b8ff" stroke="#63b8ff" points="569.9,-705.17 580.44,-706.2 572.84,-698.82 569.9,-705.17"/>
</a>
</g>
</g>
<!-- Node31 -->
<g id="Node000031" class="node">
<title>Node31</title>
<g id="a_Node000031"><a xlink:href="frame_8cpp.html#af49224563adb4bf0b91daa5ab78120ca" target="_top" xlink:title="Sends the event register value to the ground station.">
<polygon fill="white" stroke="#666666" points="478.38,-726 412.12,-726 412.12,-706 478.38,-706 478.38,-726"/>
<text text-anchor="middle" x="445.25" y="-712.5" font-family="Helvetica,sans-Serif" font-size="10.00">send_event</text>
</a>
</g>
</g>
<!-- Node30&#45;&gt;Node31 -->
<g id="edge45_Node000030_Node000031" class="edge">
<title>Node30&#45;&gt;Node31</title>
<g id="a_edge45_Node000030_Node000031"><a xlink:title=" ">
<path fill="none" stroke="#63b8ff" d="M570.48,-716C541.71,-716 504.85,-716 478.77,-716"/>
<polygon fill="#63b8ff" stroke="#63b8ff" points="570.35,-719.5 580.35,-716 570.35,-712.5 570.35,-719.5"/>
</a>
</g>
</g>
<!-- Node33 -->
<g id="Node000033" class="node">
<title>Node33</title>
<g id="a_Node000033"><a xlink:href="class_d_s3231.html#ac1d01626660a57e9cc969dc35155f246" target="_top" xlink:title=" ">
<polygon fill="white" stroke="#666666" points="674.75,-20 556.75,-20 556.75,0 674.75,0 674.75,-20"/>
<text text-anchor="middle" x="615.75" y="-6.5" font-family="Helvetica,sans-Serif" font-size="10.00">DS3231::set_unix_time</text>
</a>
</g>
</g>
<!-- Node32&#45;&gt;Node33 -->
<g id="edge47_Node000032_Node000033" class="edge">
<title>Node32&#45;&gt;Node33</title>
<g id="a_edge47_Node000032_Node000033"><a xlink:title=" ">
<path fill="none" stroke="#63b8ff" d="M718.99,-10C704.67,-10 689.32,-10 674.98,-10"/>
<polygon fill="#63b8ff" stroke="#63b8ff" points="718.7,-13.5 728.7,-10 718.7,-6.5 718.7,-13.5"/>
</a>
</g>
</g>
</g>
</svg>

<g id="navigator" transform="translate(0 0)" fill="#404254">
  <rect fill="#f2f5e9" fill-opacity="0.5" stroke="#606060" stroke-width=".5" x="0" y="0" width="60" height="60"/>
  <use id="zoomplus" xlink:href="#zoomPlus" x="17" y="9" onmousedown="handleZoom(evt,'in')"/>
  <use id="zoomminus" xlink:href="#zoomMin" x="42" y="9" onmousedown="handleZoom(evt,'out')"/>
  <use id="reset" xlink:href="#resetDef" x="30" y="36" onmousedown="handleReset()"/>
   <use id="arrowup" xlink:href="#arrowUp" x="0" y="0" onmousedown="handlePan(0,-1)"/>
  <use id="arrowright" xlink:href="#arrowRight" x="0" y="0" onmousedown="handlePan(1,0)"/>
  <use id="arrowdown" xlink:href="#arrowDown" x="0" y="0" onmousedown="handlePan(0,1)"/>
  <use id="arrowleft" xlink:href="#arrowLeft" x="0" y="0" onmousedown="handlePan(-1,0)"/>
</g>
<svg viewBox="0 0 15 15" width="100%" height="30px" preserveAspectRatio="xMaxYMin meet">
 <g id="arrow_out" transform="scale(0.3 0.3)">
  <a xlink:href="utils_8cpp_acd86977d05fa330749958ace0f2798de_icgraph_org.svg" target="_base">
   <rect id="button" ry="5" rx="5" y="6" x="6" height="38" width="38"
        fill="#f2f5e9" fill-opacity="0.5" stroke="#606060" stroke-width="1.0"/>
   <path id="arrow"
     d="M 11.500037,31.436501 C 11.940474,20.09759 22.043105,11.32322 32.158766,21.979434 L 37.068811,17.246167 C 37.068811,17.246167 37.088388,32 37.088388,32 L 22.160133,31.978069 C 22.160133,31.978069 26.997745,27.140456 26.997745,27.140456 C 18.528582,18.264221 13.291696,25.230495 11.500037,31.436501 z"
     style="fill:#404040;"/>
  </a>
 </g>
</svg>

<style type='text/css'>
<![CDATA[
[data-mouse-over-selected='false'] { opacity: 0.7; }
[data-mouse-over-selected='true']  { opacity: 1.0; }
]]>
</style>
<script type="application/ecmascript"><![CDATA[
document.addEventListener('DOMContentLoaded', (event) => {
  highlightEdges();
  highlightAdjacentNodes();
});
]]></script>
</svg>
