<?xml version="1.0" encoding="UTF-8" standalone="no"?>
<!DOCTYPE svg PUBLIC "-//W3C//DTD SVG 1.1//EN"
 "http://www.w3.org/Graphics/SVG/1.1/DTD/svg11.dtd">
<!-- Generated by graphviz version 12.2.1 (20241206.2353)
 -->
<!-- Title: lib/comms/utils_converters.cpp Pages: 1 -->
<svg width="1195pt" height="308pt"
 viewBox="0.00 0.00 1194.56 308.00" xmlns="http://www.w3.org/2000/svg" xmlns:xlink="http://www.w3.org/1999/xlink">
<g id="graph0" class="graph" transform="scale(1 1) rotate(0) translate(4 304)">
<title>lib/comms/utils_converters.cpp</title>
<!-- Node1 -->
<g id="Node000001" class="node">
<title>Node1</title>
<g id="a_Node000001"><a xlink:title="Implements utility functions for converting between different data types.">
<polygon fill="#999999" stroke="#666666" points="262.6,-300 110.85,-300 110.85,-280 262.6,-280 262.6,-300"/>
<text text-anchor="middle" x="186.73" y="-286.5" font-family="Helvetica,sans-Serif" font-size="10.00">lib/comms/utils_converters.cpp</text>
</a>
</g>
</g>
<!-- Node2 -->
<g id="Node000002" class="node">
<title>Node2</title>
<g id="a_Node000002"><a xlink:href="communication_8h.html" target="_top" xlink:title=" ">
<polygon fill="white" stroke="#666666" points="231.85,-244 141.6,-244 141.6,-224 231.85,-224 231.85,-244"/>
<text text-anchor="middle" x="186.73" y="-230.5" font-family="Helvetica,sans-Serif" font-size="10.00">communication.h</text>
</a>
</g>
</g>
<!-- Node1&#45;&gt;Node2 -->
<g id="edge1_Node000001_Node000002" class="edge">
<title>Node1&#45;&gt;Node2</title>
<g id="a_edge1_Node000001_Node000002"><a xlink:title=" ">
<path fill="none" stroke="#63b8ff" d="M186.73,-279.59C186.73,-273.01 186.73,-263.96 186.73,-255.73"/>
<polygon fill="#63b8ff" stroke="#63b8ff" points="190.23,-255.81 186.73,-245.81 183.23,-255.81 190.23,-255.81"/>
</a>
</g>
</g>
<!-- Node3 -->
<g id="Node000003" class="node">
<title>Node3</title>
<g id="a_Node000003"><a xlink:title=" ">
<polygon fill="#e0e0e0" stroke="#999999" points="375.73,-20 335.73,-20 335.73,0 375.73,0 375.73,-20"/>
<text text-anchor="middle" x="355.73" y="-6.5" font-family="Helvetica,sans-Serif" font-size="10.00">string</text>
</a>
</g>
</g>
<!-- Node2&#45;&gt;Node3 -->
<g id="edge2_Node000002_Node000003" class="edge">
<title>Node2&#45;&gt;Node3</title>
<g id="a_edge2_Node000002_Node000003"><a xlink:title=" ">
<path fill="none" stroke="#63b8ff" d="M141.11,-228.78C111.17,-223.71 73.18,-212.55 48.73,-188 6.35,-145.44 -19.83,-101.2 19.73,-56 29.74,-44.56 242.46,-22.27 324.16,-14.1"/>
<polygon fill="#63b8ff" stroke="#63b8ff" points="324.33,-17.6 333.94,-13.13 323.64,-10.64 324.33,-17.6"/>
</a>
</g>
</g>
<!-- Node4 -->
<g id="Node000004" class="node">
<title>Node4</title>
<g id="a_Node000004"><a xlink:title=" ">
<polygon fill="#e0e0e0" stroke="#999999" points="293.23,-132 250.23,-132 250.23,-112 293.23,-112 293.23,-132"/>
<text text-anchor="middle" x="271.73" y="-118.5" font-family="Helvetica,sans-Serif" font-size="10.00">vector</text>
</a>
</g>
</g>
<!-- Node2&#45;&gt;Node4 -->
<g id="edge3_Node000002_Node000004" class="edge">
<title>Node2&#45;&gt;Node4</title>
<g id="a_edge3_Node000002_Node000004"><a xlink:title=" ">
<path fill="none" stroke="#63b8ff" d="M193.98,-223.62C208.03,-205.44 239.2,-165.09 257.52,-141.38"/>
<polygon fill="#63b8ff" stroke="#63b8ff" points="260.23,-143.61 263.57,-133.55 254.69,-139.33 260.23,-143.61"/>
</a>
</g>
</g>
<!-- Node5 -->
<g id="Node000005" class="node">
<title>Node5</title>
<g id="a_Node000005"><a xlink:href="protocol_8h.html" target="_top" xlink:title=" ">
<polygon fill="white" stroke="#666666" points="560.1,-188 501.35,-188 501.35,-168 560.1,-168 560.1,-188"/>
<text text-anchor="middle" x="530.73" y="-174.5" font-family="Helvetica,sans-Serif" font-size="10.00">protocol.h</text>
</a>
</g>
</g>
<!-- Node2&#45;&gt;Node5 -->
<g id="edge4_Node000002_Node000005" class="edge">
<title>Node2&#45;&gt;Node5</title>
<g id="a_edge4_Node000002_Node000005"><a xlink:title=" ">
<path fill="none" stroke="#63b8ff" d="M232.05,-225.88C299.38,-215.32 424.82,-195.63 489.62,-185.45"/>
<polygon fill="#63b8ff" stroke="#63b8ff" points="490.15,-188.91 499.49,-183.9 489.07,-182 490.15,-188.91"/>
</a>
</g>
</g>
<!-- Node33 -->
<g id="Node000033" class="node">
<title>Node33</title>
<g id="a_Node000033"><a xlink:href="event__manager_8h.html" target="_top" xlink:title=" ">
<polygon fill="white" stroke="#666666" points="148.23,-188 57.23,-188 57.23,-168 148.23,-168 148.23,-188"/>
<text text-anchor="middle" x="102.73" y="-174.5" font-family="Helvetica,sans-Serif" font-size="10.00">event_manager.h</text>
</a>
</g>
</g>
<!-- Node2&#45;&gt;Node33 -->
<g id="edge45_Node000002_Node000033" class="edge">
<title>Node2&#45;&gt;Node33</title>
<g id="a_edge45_Node000002_Node000033"><a xlink:title=" ">
<path fill="none" stroke="#63b8ff" d="M172.1,-223.59C159.65,-215.59 141.51,-203.93 126.91,-194.54"/>
<polygon fill="#63b8ff" stroke="#63b8ff" points="129.05,-191.76 118.75,-189.3 125.27,-197.65 129.05,-191.76"/>
</a>
</g>
</g>
<!-- Node5&#45;&gt;Node3 -->
<g id="edge5_Node000005_Node000003" class="edge">
<title>Node5&#45;&gt;Node3</title>
<g id="a_edge5_Node000005_Node000003"><a xlink:title=" ">
<path fill="none" stroke="#63b8ff" d="M560.58,-177.68C633.61,-178.42 811.35,-174.08 755.73,-112 706.95,-57.55 495.52,-105.71 428.73,-76 404.85,-65.38 383.28,-44 369.88,-28.67"/>
<polygon fill="#63b8ff" stroke="#63b8ff" points="372.73,-26.62 363.62,-21.2 367.37,-31.11 372.73,-26.62"/>
</a>
</g>
</g>
<!-- Node5&#45;&gt;Node4 -->
<g id="edge8_Node000005_Node000004" class="edge">
<title>Node5&#45;&gt;Node4</title>
<g id="a_edge8_Node000005_Node000004"><a xlink:title=" ">
<path fill="none" stroke="#63b8ff" d="M501.06,-171.46C458.24,-163.37 376.69,-147.57 307.73,-132 306.57,-131.74 305.38,-131.47 304.19,-131.19"/>
<polygon fill="#63b8ff" stroke="#63b8ff" points="305.41,-127.88 294.86,-128.94 303.77,-134.69 305.41,-127.88"/>
</a>
</g>
</g>
<!-- Node6 -->
<g id="Node000006" class="node">
<title>Node6</title>
<g id="a_Node000006"><a xlink:title=" ">
<polygon fill="#e0e0e0" stroke="#999999" points="364.1,-76 329.35,-76 329.35,-56 364.1,-56 364.1,-76"/>
<text text-anchor="middle" x="346.73" y="-62.5" font-family="Helvetica,sans-Serif" font-size="10.00">map</text>
</a>
</g>
</g>
<!-- Node5&#45;&gt;Node6 -->
<g id="edge6_Node000005_Node000006" class="edge">
<title>Node5&#45;&gt;Node6</title>
<g id="a_edge6_Node000005_Node000006"><a xlink:title=" ">
<path fill="none" stroke="#63b8ff" d="M501.05,-174.37C452.71,-169.41 360.39,-156.86 340.73,-132 330.73,-119.36 333.69,-100.71 338.3,-86.62"/>
<polygon fill="#63b8ff" stroke="#63b8ff" points="341.48,-88.1 341.77,-77.51 334.94,-85.61 341.48,-88.1"/>
</a>
</g>
</g>
<!-- Node7 -->
<g id="Node000007" class="node">
<title>Node7</title>
<g id="a_Node000007"><a xlink:title=" ">
<polygon fill="#e0e0e0" stroke="#999999" points="1088.73,-132 1030.73,-132 1030.73,-112 1088.73,-112 1088.73,-132"/>
<text text-anchor="middle" x="1059.73" y="-118.5" font-family="Helvetica,sans-Serif" font-size="10.00">functional</text>
</a>
</g>
</g>
<!-- Node5&#45;&gt;Node7 -->
<g id="edge7_Node000005_Node000007" class="edge">
<title>Node5&#45;&gt;Node7</title>
<g id="a_edge7_Node000005_Node000007"><a xlink:title=" ">
<path fill="none" stroke="#63b8ff" d="M560.46,-175.43C636.64,-171.15 844.95,-157.84 1016.73,-132 1017.72,-131.85 1018.72,-131.69 1019.73,-131.53"/>
<polygon fill="#63b8ff" stroke="#63b8ff" points="1019.96,-135.04 1029.18,-129.82 1018.71,-128.16 1019.96,-135.04"/>
</a>
</g>
</g>
<!-- Node8 -->
<g id="Node000008" class="node">
<title>Node8</title>
<g id="a_Node000008"><a xlink:title=" ">
<polygon fill="#e0e0e0" stroke="#999999" points="125.35,-132 80.1,-132 80.1,-112 125.35,-112 125.35,-132"/>
<text text-anchor="middle" x="102.73" y="-118.5" font-family="Helvetica,sans-Serif" font-size="10.00">cstdint</text>
</a>
</g>
</g>
<!-- Node5&#45;&gt;Node8 -->
<g id="edge9_Node000005_Node000008" class="edge">
<title>Node5&#45;&gt;Node8</title>
<g id="a_edge9_Node000005_Node000008"><a xlink:title=" ">
<path fill="none" stroke="#63b8ff" d="M501.08,-175.36C436.41,-171.43 277.75,-159.79 136.64,-132.3"/>
<polygon fill="#63b8ff" stroke="#63b8ff" points="137.62,-128.93 127.13,-130.42 136.26,-135.8 137.62,-128.93"/>
</a>
</g>
</g>
<!-- Node9 -->
<g id="Node000009" class="node">
<title>Node9</title>
<g id="a_Node000009"><a xlink:title=" ">
<polygon fill="#e0e0e0" stroke="#999999" points="399.6,-132 349.85,-132 349.85,-112 399.6,-112 399.6,-132"/>
<text text-anchor="middle" x="374.73" y="-118.5" font-family="Helvetica,sans-Serif" font-size="10.00">iomanip</text>
</a>
</g>
</g>
<!-- Node5&#45;&gt;Node9 -->
<g id="edge10_Node000005_Node000009" class="edge">
<title>Node5&#45;&gt;Node9</title>
<g id="a_edge10_Node000005_Node000009"><a xlink:title=" ">
<path fill="none" stroke="#63b8ff" d="M503.56,-167.59C477.82,-158.68 439,-145.25 410.7,-135.45"/>
<polygon fill="#63b8ff" stroke="#63b8ff" points="412.07,-132.22 401.47,-132.26 409.78,-138.84 412.07,-132.22"/>
</a>
</g>
</g>
<!-- Node10 -->
<g id="Node000010" class="node">
<title>Node10</title>
<g id="a_Node000010"><a xlink:href="pin__config_8h.html" target="_top" xlink:title=" ">
<polygon fill="white" stroke="#666666" points="1070.98,-76 1002.48,-76 1002.48,-56 1070.98,-56 1070.98,-76"/>
<text text-anchor="middle" x="1036.73" y="-62.5" font-family="Helvetica,sans-Serif" font-size="10.00">pin_config.h</text>
</a>
</g>
</g>
<!-- Node5&#45;&gt;Node10 -->
<g id="edge11_Node000005_Node000010" class="edge">
<title>Node5&#45;&gt;Node10</title>
<g id="a_edge11_Node000005_Node000010"><a xlink:title=" ">
<path fill="none" stroke="#63b8ff" d="M560.36,-176.98C648.93,-176.46 910.1,-171.55 983.73,-132 1002.93,-121.69 1017.79,-101.22 1026.83,-85.99"/>
<polygon fill="#63b8ff" stroke="#63b8ff" points="1029.82,-87.81 1031.62,-77.37 1023.7,-84.41 1029.82,-87.81"/>
</a>
</g>
</g>
<!-- Node12 -->
<g id="Node000012" class="node">
<title>Node12</title>
<g id="a_Node000012"><a xlink:href="_power_manager_8h.html" target="_top" xlink:title=" ">
<polygon fill="white" stroke="#666666" points="232.48,-132 142.98,-132 142.98,-112 232.48,-112 232.48,-132"/>
<text text-anchor="middle" x="187.73" y="-118.5" font-family="Helvetica,sans-Serif" font-size="10.00">PowerManager.h</text>
</a>
</g>
</g>
<!-- Node5&#45;&gt;Node12 -->
<g id="edge13_Node000005_Node000012" class="edge">
<title>Node5&#45;&gt;Node12</title>
<g id="a_edge13_Node000005_Node000012"><a xlink:title=" ">
<path fill="none" stroke="#63b8ff" d="M501.17,-172.5C450.74,-164.81 344.52,-148.51 244.07,-132.36"/>
<polygon fill="#63b8ff" stroke="#63b8ff" points="244.73,-128.92 234.3,-130.79 243.61,-135.84 244.73,-128.92"/>
</a>
</g>
</g>
<!-- Node18 -->
<g id="Node000018" class="node">
<title>Node18</title>
<g id="a_Node000018"><a xlink:title=" ">
<polygon fill="#e0e0e0" stroke="#999999" points="459.85,-132 417.6,-132 417.6,-112 459.85,-112 459.85,-132"/>
<text text-anchor="middle" x="438.73" y="-118.5" font-family="Helvetica,sans-Serif" font-size="10.00">cstdio</text>
</a>
</g>
</g>
<!-- Node5&#45;&gt;Node18 -->
<g id="edge23_Node000005_Node000018" class="edge">
<title>Node5&#45;&gt;Node18</title>
<g id="a_edge23_Node000005_Node000018"><a xlink:title=" ">
<path fill="none" stroke="#63b8ff" d="M514.7,-167.59C500.94,-159.51 480.82,-147.71 464.75,-138.27"/>
<polygon fill="#63b8ff" stroke="#63b8ff" points="466.58,-135.29 456.18,-133.25 463.04,-141.33 466.58,-135.29"/>
</a>
</g>
</g>
<!-- Node19 -->
<g id="Node000019" class="node">
<title>Node19</title>
<g id="a_Node000019"><a xlink:title=" ">
<polygon fill="#e0e0e0" stroke="#999999" points="521.98,-132 477.48,-132 477.48,-112 521.98,-112 521.98,-132"/>
<text text-anchor="middle" x="499.73" y="-118.5" font-family="Helvetica,sans-Serif" font-size="10.00">cstdlib</text>
</a>
</g>
</g>
<!-- Node5&#45;&gt;Node19 -->
<g id="edge24_Node000005_Node000019" class="edge">
<title>Node5&#45;&gt;Node19</title>
<g id="a_edge24_Node000005_Node000019"><a xlink:title=" ">
<path fill="none" stroke="#63b8ff" d="M525.33,-167.59C521.28,-160.55 515.61,-150.67 510.64,-142"/>
<polygon fill="#63b8ff" stroke="#63b8ff" points="513.83,-140.54 505.82,-133.61 507.76,-144.03 513.83,-140.54"/>
</a>
</g>
</g>
<!-- Node20 -->
<g id="Node000020" class="node">
<title>Node20</title>
<g id="a_Node000020"><a xlink:title=" ">
<polygon fill="#e0e0e0" stroke="#999999" points="585.35,-132 540.1,-132 540.1,-112 585.35,-112 585.35,-132"/>
<text text-anchor="middle" x="562.73" y="-118.5" font-family="Helvetica,sans-Serif" font-size="10.00">cstring</text>
</a>
</g>
</g>
<!-- Node5&#45;&gt;Node20 -->
<g id="edge25_Node000005_Node000020" class="edge">
<title>Node5&#45;&gt;Node20</title>
<g id="a_edge25_Node000005_Node000020"><a xlink:title=" ">
<path fill="none" stroke="#63b8ff" d="M536.3,-167.59C540.48,-160.55 546.33,-150.67 551.47,-142"/>
<polygon fill="#63b8ff" stroke="#63b8ff" points="554.36,-143.99 556.45,-133.6 548.34,-140.42 554.36,-143.99"/>
</a>
</g>
</g>
<!-- Node21 -->
<g id="Node000021" class="node">
<title>Node21</title>
<g id="a_Node000021"><a xlink:href="utils_8h.html" target="_top" xlink:title=" ">
<polygon fill="white" stroke="#666666" points="974.85,-132 932.6,-132 932.6,-112 974.85,-112 974.85,-132"/>
<text text-anchor="middle" x="953.73" y="-118.5" font-family="Helvetica,sans-Serif" font-size="10.00">utils.h</text>
</a>
</g>
</g>
<!-- Node5&#45;&gt;Node21 -->
<g id="edge26_Node000005_Node000021" class="edge">
<title>Node5&#45;&gt;Node21</title>
<g id="a_edge26_Node000005_Node000021"><a xlink:title=" ">
<path fill="none" stroke="#63b8ff" d="M560.59,-175.39C624.96,-171.55 781.64,-160.12 921.33,-132.17"/>
<polygon fill="#63b8ff" stroke="#63b8ff" points="921.63,-135.68 930.73,-130.25 920.23,-128.82 921.63,-135.68"/>
</a>
</g>
</g>
<!-- Node24 -->
<g id="Node000024" class="node">
<title>Node24</title>
<g id="a_Node000024"><a xlink:title=" ">
<polygon fill="#e0e0e0" stroke="#999999" points="646.23,-132 603.23,-132 603.23,-112 646.23,-112 646.23,-132"/>
<text text-anchor="middle" x="624.73" y="-118.5" font-family="Helvetica,sans-Serif" font-size="10.00">time.h</text>
</a>
</g>
</g>
<!-- Node5&#45;&gt;Node24 -->
<g id="edge32_Node000005_Node000024" class="edge">
<title>Node5&#45;&gt;Node24</title>
<g id="a_edge32_Node000005_Node000024"><a xlink:title=" ">
<path fill="none" stroke="#63b8ff" d="M547.1,-167.59C561.3,-159.44 582.11,-147.48 598.61,-138"/>
<polygon fill="#63b8ff" stroke="#63b8ff" points="599.99,-141.25 606.91,-133.23 596.5,-135.18 599.99,-141.25"/>
</a>
</g>
</g>
<!-- Node25 -->
<g id="Node000025" class="node">
<title>Node25</title>
<g id="a_Node000025"><a xlink:href="build__number_8h.html" target="_top" xlink:title=" ">
<polygon fill="white" stroke="#666666" points="746.73,-132 664.73,-132 664.73,-112 746.73,-112 746.73,-132"/>
<text text-anchor="middle" x="705.73" y="-118.5" font-family="Helvetica,sans-Serif" font-size="10.00">build_number.h</text>
</a>
</g>
</g>
<!-- Node5&#45;&gt;Node25 -->
<g id="edge33_Node000005_Node000025" class="edge">
<title>Node5&#45;&gt;Node25</title>
<g id="a_edge33_Node000005_Node000025"><a xlink:title=" ">
<path fill="none" stroke="#63b8ff" d="M560.41,-167.84C588.94,-159.04 632.3,-145.66 664.24,-135.8"/>
<polygon fill="#63b8ff" stroke="#63b8ff" points="665.04,-139.22 673.57,-132.92 662.98,-132.53 665.04,-139.22"/>
</a>
</g>
</g>
<!-- Node26 -->
<g id="Node000026" class="node">
<title>Node26</title>
<g id="a_Node000026"><a xlink:href="_lo_ra-_r_p2040_8h.html" target="_top" xlink:title=" ">
<polygon fill="white" stroke="#666666" points="914.73,-132 802.73,-132 802.73,-112 914.73,-112 914.73,-132"/>
<text text-anchor="middle" x="858.73" y="-118.5" font-family="Helvetica,sans-Serif" font-size="10.00">LoRa/LoRa&#45;RP2040.h</text>
</a>
</g>
</g>
<!-- Node5&#45;&gt;Node26 -->
<g id="edge34_Node000005_Node000026" class="edge">
<title>Node5&#45;&gt;Node26</title>
<g id="a_edge34_Node000005_Node000026"><a xlink:title=" ">
<path fill="none" stroke="#63b8ff" d="M560.41,-172.11C612.28,-163.57 720.61,-145.74 791.46,-134.07"/>
<polygon fill="#63b8ff" stroke="#63b8ff" points="791.71,-137.58 801.01,-132.5 790.57,-130.67 791.71,-137.58"/>
</a>
</g>
</g>
<!-- Node11 -->
<g id="Node000011" class="node">
<title>Node11</title>
<g id="a_Node000011"><a xlink:title=" ">
<polygon fill="#e0e0e0" stroke="#999999" points="659.85,-20 611.6,-20 611.6,0 659.85,0 659.85,-20"/>
<text text-anchor="middle" x="635.73" y="-6.5" font-family="Helvetica,sans-Serif" font-size="10.00">stdint.h</text>
</a>
</g>
</g>
<!-- Node10&#45;&gt;Node11 -->
<g id="edge12_Node000010_Node000011" class="edge">
<title>Node10&#45;&gt;Node11</title>
<g id="a_edge12_Node000010_Node000011"><a xlink:title=" ">
<path fill="none" stroke="#63b8ff" d="M1002.19,-57.68C999,-57.08 995.81,-56.51 992.73,-56 875.52,-36.65 735.45,-21.22 671.16,-14.56"/>
<polygon fill="#63b8ff" stroke="#63b8ff" points="671.87,-11.11 661.57,-13.57 671.16,-18.08 671.87,-11.11"/>
</a>
</g>
</g>
<!-- Node12&#45;&gt;Node3 -->
<g id="edge19_Node000012_Node000003" class="edge">
<title>Node12&#45;&gt;Node3</title>
<g id="a_edge19_Node000012_Node000003"><a xlink:title=" ">
<path fill="none" stroke="#63b8ff" d="M212.57,-111.53C232.36,-103.45 260.36,-90.81 282.73,-76 303.82,-62.03 325.1,-42.29 339.2,-28.24"/>
<polygon fill="#63b8ff" stroke="#63b8ff" points="341.4,-30.99 345.92,-21.4 336.41,-26.08 341.4,-30.99"/>
</a>
</g>
</g>
<!-- Node12&#45;&gt;Node6 -->
<g id="edge18_Node000012_Node000006" class="edge">
<title>Node12&#45;&gt;Node6</title>
<g id="a_edge18_Node000012_Node000006"><a xlink:title=" ">
<path fill="none" stroke="#63b8ff" d="M215.42,-111.59C244.33,-101.78 289.42,-86.46 318.52,-76.58"/>
<polygon fill="#63b8ff" stroke="#63b8ff" points="319.41,-79.98 327.75,-73.45 317.15,-73.35 319.41,-79.98"/>
</a>
</g>
</g>
<!-- Node13 -->
<g id="Node000013" class="node">
<title>Node13</title>
<g id="a_Node000013"><a xlink:href="_i_n_a3221_8h.html" target="_top" xlink:title=" ">
<polygon fill="white" stroke="#666666" points="273.6,-76 169.85,-76 169.85,-56 273.6,-56 273.6,-76"/>
<text text-anchor="middle" x="221.73" y="-62.5" font-family="Helvetica,sans-Serif" font-size="10.00">INA3221/INA3221.h</text>
</a>
</g>
</g>
<!-- Node12&#45;&gt;Node13 -->
<g id="edge14_Node000012_Node000013" class="edge">
<title>Node12&#45;&gt;Node13</title>
<g id="a_edge14_Node000012_Node000013"><a xlink:title=" ">
<path fill="none" stroke="#63b8ff" d="M193.65,-111.59C198.09,-104.55 204.31,-94.67 209.77,-86"/>
<polygon fill="#63b8ff" stroke="#63b8ff" points="212.7,-87.91 215.07,-77.58 206.78,-84.18 212.7,-87.91"/>
</a>
</g>
</g>
<!-- Node15 -->
<g id="Node000015" class="node">
<title>Node15</title>
<g id="a_Node000015"><a xlink:title=" ">
<polygon fill="#e0e0e0" stroke="#999999" points="181.6,-20 101.85,-20 101.85,0 181.6,0 181.6,-20"/>
<text text-anchor="middle" x="141.73" y="-6.5" font-family="Helvetica,sans-Serif" font-size="10.00">hardware/i2c.h</text>
</a>
</g>
</g>
<!-- Node12&#45;&gt;Node15 -->
<g id="edge20_Node000012_Node000015" class="edge">
<title>Node12&#45;&gt;Node15</title>
<g id="a_edge20_Node000012_Node000015"><a xlink:title=" ">
<path fill="none" stroke="#63b8ff" d="M181.2,-111.73C175.21,-102.88 166.43,-89.02 160.73,-76 154.37,-61.47 149.44,-44.21 146.19,-31.12"/>
<polygon fill="#63b8ff" stroke="#63b8ff" points="149.64,-30.5 143.95,-21.56 142.83,-32.09 149.64,-30.5"/>
</a>
</g>
</g>
<!-- Node16 -->
<g id="Node000016" class="node">
<title>Node16</title>
<g id="a_Node000016"><a xlink:title=" ">
<polygon fill="#e0e0e0" stroke="#999999" points="603.98,-76 535.48,-76 535.48,-56 603.98,-56 603.98,-76"/>
<text text-anchor="middle" x="569.73" y="-62.5" font-family="Helvetica,sans-Serif" font-size="10.00">pico/stdlib.h</text>
</a>
</g>
</g>
<!-- Node12&#45;&gt;Node16 -->
<g id="edge21_Node000012_Node000016" class="edge">
<title>Node12&#45;&gt;Node16</title>
<g id="a_edge21_Node000012_Node000016"><a xlink:title=" ">
<path fill="none" stroke="#63b8ff" d="M232.79,-113.35C235.81,-112.88 238.81,-112.43 241.73,-112 364.48,-94.03 398.88,-96.91 523.88,-76.37"/>
<polygon fill="#63b8ff" stroke="#63b8ff" points="524.26,-79.85 533.55,-74.76 523.11,-72.95 524.26,-79.85"/>
</a>
</g>
</g>
<!-- Node17 -->
<g id="Node000017" class="node">
<title>Node17</title>
<g id="a_Node000017"><a xlink:title=" ">
<polygon fill="#e0e0e0" stroke="#999999" points="113.85,-76 41.6,-76 41.6,-56 113.85,-56 113.85,-76"/>
<text text-anchor="middle" x="77.73" y="-62.5" font-family="Helvetica,sans-Serif" font-size="10.00">pico/mutex.h</text>
</a>
</g>
</g>
<!-- Node12&#45;&gt;Node17 -->
<g id="edge22_Node000012_Node000017" class="edge">
<title>Node12&#45;&gt;Node17</title>
<g id="a_edge22_Node000012_Node000017"><a xlink:title=" ">
<path fill="none" stroke="#63b8ff" d="M168.57,-111.59C151.64,-103.28 126.68,-91.03 107.21,-81.47"/>
<polygon fill="#63b8ff" stroke="#63b8ff" points="108.92,-78.41 98.4,-77.15 105.83,-84.7 108.92,-78.41"/>
</a>
</g>
</g>
<!-- Node13&#45;&gt;Node11 -->
<g id="edge15_Node000013_Node000011" class="edge">
<title>Node13&#45;&gt;Node11</title>
<g id="a_edge15_Node000013_Node000011"><a xlink:title=" ">
<path fill="none" stroke="#63b8ff" d="M273.74,-58.22C359.12,-47.08 526.79,-25.21 600.05,-15.65"/>
<polygon fill="#63b8ff" stroke="#63b8ff" points="600.41,-19.14 609.88,-14.37 599.51,-12.19 600.41,-19.14"/>
</a>
</g>
</g>
<!-- Node14 -->
<g id="Node000014" class="node">
<title>Node14</title>
<g id="a_Node000014"><a xlink:title=" ">
<polygon fill="#e0e0e0" stroke="#999999" points="253.48,-20 199.98,-20 199.98,0 253.48,0 253.48,-20"/>
<text text-anchor="middle" x="226.73" y="-6.5" font-family="Helvetica,sans-Serif" font-size="10.00">iostream</text>
</a>
</g>
</g>
<!-- Node13&#45;&gt;Node14 -->
<g id="edge16_Node000013_Node000014" class="edge">
<title>Node13&#45;&gt;Node14</title>
<g id="a_edge16_Node000013_Node000014"><a xlink:title=" ">
<path fill="none" stroke="#63b8ff" d="M222.6,-55.59C223.21,-49.01 224.05,-39.96 224.81,-31.73"/>
<polygon fill="#63b8ff" stroke="#63b8ff" points="228.29,-32.09 225.73,-21.81 221.32,-31.44 228.29,-32.09"/>
</a>
</g>
</g>
<!-- Node13&#45;&gt;Node15 -->
<g id="edge17_Node000013_Node000015" class="edge">
<title>Node13&#45;&gt;Node15</title>
<g id="a_edge17_Node000013_Node000015"><a xlink:title=" ">
<path fill="none" stroke="#63b8ff" d="M207.79,-55.59C196.05,-47.67 179,-36.16 165.16,-26.82"/>
<polygon fill="#63b8ff" stroke="#63b8ff" points="167.27,-24.02 157.03,-21.33 163.36,-29.82 167.27,-24.02"/>
</a>
</g>
</g>
<!-- Node21&#45;&gt;Node3 -->
<g id="edge28_Node000021_Node000003" class="edge">
<title>Node21&#45;&gt;Node3</title>
<g id="a_edge28_Node000021_Node000003"><a xlink:title=" ">
<path fill="none" stroke="#63b8ff" d="M948.35,-111.89C939.1,-97.17 918.64,-68.53 892.73,-56 847.21,-33.99 495.67,-17.07 387.38,-12.33"/>
<polygon fill="#63b8ff" stroke="#63b8ff" points="387.63,-8.84 377.48,-11.9 387.32,-15.83 387.63,-8.84"/>
</a>
</g>
</g>
<!-- Node21&#45;&gt;Node10 -->
<g id="edge31_Node000021_Node000010" class="edge">
<title>Node21&#45;&gt;Node10</title>
<g id="a_edge31_Node000021_Node000010"><a xlink:title=" ">
<path fill="none" stroke="#63b8ff" d="M968.19,-111.59C980.49,-103.59 998.41,-91.93 1012.84,-82.54"/>
<polygon fill="#63b8ff" stroke="#63b8ff" points="1014.42,-85.69 1020.89,-77.3 1010.6,-79.82 1014.42,-85.69"/>
</a>
</g>
</g>
<!-- Node21&#45;&gt;Node16 -->
<g id="edge29_Node000021_Node000016" class="edge">
<title>Node21&#45;&gt;Node16</title>
<g id="a_edge29_Node000021_Node000016"><a xlink:title=" ">
<path fill="none" stroke="#63b8ff" d="M932.21,-114.05C929.38,-113.28 926.5,-112.57 923.73,-112 791.04,-84.64 752.12,-97.55 615.71,-76.34"/>
<polygon fill="#63b8ff" stroke="#63b8ff" points="616.33,-72.9 605.91,-74.78 615.23,-79.81 616.33,-72.9"/>
</a>
</g>
</g>
<!-- Node22 -->
<g id="Node000022" class="node">
<title>Node22</title>
<g id="a_Node000022"><a xlink:title=" ">
<polygon fill="#e0e0e0" stroke="#999999" points="1138.35,-20 1093.1,-20 1093.1,0 1138.35,0 1138.35,-20"/>
<text text-anchor="middle" x="1115.73" y="-6.5" font-family="Helvetica,sans-Serif" font-size="10.00">stdio.h</text>
</a>
</g>
</g>
<!-- Node21&#45;&gt;Node22 -->
<g id="edge27_Node000021_Node000022" class="edge">
<title>Node21&#45;&gt;Node22</title>
<g id="a_edge27_Node000021_Node000022"><a xlink:title=" ">
<path fill="none" stroke="#63b8ff" d="M975.31,-118.31C1029.62,-111.31 1168.57,-92.01 1181.73,-76 1197.03,-57.39 1171.81,-38.29 1148.26,-25.66"/>
<polygon fill="#63b8ff" stroke="#63b8ff" points="1149.91,-22.57 1139.41,-21.18 1146.75,-28.82 1149.91,-22.57"/>
</a>
</g>
</g>
<!-- Node23 -->
<g id="Node000023" class="node">
<title>Node23</title>
<g id="a_Node000023"><a xlink:title=" ">
<polygon fill="#e0e0e0" stroke="#999999" points="1172.48,-76 1088.98,-76 1088.98,-56 1172.48,-56 1172.48,-76"/>
<text text-anchor="middle" x="1130.73" y="-62.5" font-family="Helvetica,sans-Serif" font-size="10.00">hardware/uart.h</text>
</a>
</g>
</g>
<!-- Node21&#45;&gt;Node23 -->
<g id="edge30_Node000021_Node000023" class="edge">
<title>Node21&#45;&gt;Node23</title>
<g id="a_edge30_Node000021_Node000023"><a xlink:title=" ">
<path fill="none" stroke="#63b8ff" d="M975.08,-114.49C1003.24,-105.89 1053.42,-90.59 1089.19,-79.67"/>
<polygon fill="#63b8ff" stroke="#63b8ff" points="1089.79,-83.15 1098.34,-76.88 1087.75,-76.45 1089.79,-83.15"/>
</a>
</g>
</g>
<!-- Node26&#45;&gt;Node10 -->
<g id="edge44_Node000026_Node000010" class="edge">
<title>Node26&#45;&gt;Node10</title>
<g id="a_edge44_Node000026_Node000010"><a xlink:title=" ">
<path fill="none" stroke="#63b8ff" d="M889.73,-111.59C918.78,-102.78 962.43,-89.54 994.62,-79.78"/>
<polygon fill="#63b8ff" stroke="#63b8ff" points="995.48,-83.17 1004.03,-76.92 993.45,-76.47 995.48,-83.17"/>
</a>
</g>
</g>
<!-- Node26&#45;&gt;Node16 -->
<g id="edge35_Node000026_Node000016" class="edge">
<title>Node26&#45;&gt;Node16</title>
<g id="a_edge35_Node000026_Node000016"><a xlink:title=" ">
<path fill="none" stroke="#63b8ff" d="M804.91,-111.56C757.45,-103.15 686.15,-90.28 615.34,-76.48"/>
<polygon fill="#63b8ff" stroke="#63b8ff" points="616.42,-73.12 605.93,-74.64 615.07,-79.99 616.42,-73.12"/>
</a>
</g>
</g>
<!-- Node27 -->
<g id="Node000027" class="node">
<title>Node27</title>
<g id="a_Node000027"><a xlink:title=" ">
<polygon fill="#e0e0e0" stroke="#999999" points="779.98,-76 687.48,-76 687.48,-56 779.98,-56 779.98,-76"/>
<text text-anchor="middle" x="733.73" y="-62.5" font-family="Helvetica,sans-Serif" font-size="10.00">pico/binary_info.h</text>
</a>
</g>
</g>
<!-- Node26&#45;&gt;Node27 -->
<g id="edge36_Node000026_Node000027" class="edge">
<title>Node26&#45;&gt;Node27</title>
<g id="a_edge36_Node000026_Node000027"><a xlink:title=" ">
<path fill="none" stroke="#63b8ff" d="M836.96,-111.59C817.36,-103.13 788.3,-90.58 766,-80.94"/>
<polygon fill="#63b8ff" stroke="#63b8ff" points="767.63,-77.83 757.06,-77.08 764.85,-84.26 767.63,-77.83"/>
</a>
</g>
</g>
<!-- Node28 -->
<g id="Node000028" class="node">
<title>Node28</title>
<g id="a_Node000028"><a xlink:title=" ">
<polygon fill="#e0e0e0" stroke="#999999" points="883.23,-76 798.23,-76 798.23,-56 883.23,-56 883.23,-76"/>
<text text-anchor="middle" x="840.73" y="-62.5" font-family="Helvetica,sans-Serif" font-size="10.00">hardware/gpio.h</text>
</a>
</g>
</g>
<!-- Node26&#45;&gt;Node28 -->
<g id="edge37_Node000026_Node000028" class="edge">
<title>Node26&#45;&gt;Node28</title>
<g id="a_edge37_Node000026_Node000028"><a xlink:title=" ">
<path fill="none" stroke="#63b8ff" d="M855.59,-111.59C853.35,-104.86 850.24,-95.53 847.45,-87.15"/>
<polygon fill="#63b8ff" stroke="#63b8ff" points="850.79,-86.11 844.31,-77.73 844.15,-88.33 850.79,-86.11"/>
</a>
</g>
</g>
<!-- Node29 -->
<g id="Node000029" class="node">
<title>Node29</title>
<g id="a_Node000029"><a xlink:title=" ">
<polygon fill="#e0e0e0" stroke="#999999" points="517.6,-76 437.85,-76 437.85,-56 517.6,-56 517.6,-76"/>
<text text-anchor="middle" x="477.73" y="-62.5" font-family="Helvetica,sans-Serif" font-size="10.00">hardware/spi.h</text>
</a>
</g>
</g>
<!-- Node26&#45;&gt;Node29 -->
<g id="edge38_Node000026_Node000029" class="edge">
<title>Node26&#45;&gt;Node29</title>
<g id="a_edge38_Node000026_Node000029"><a xlink:title=" ">
<path fill="none" stroke="#63b8ff" d="M802.32,-113.68C726.51,-103.79 594.55,-86.38 529.12,-76.3"/>
<polygon fill="#63b8ff" stroke="#63b8ff" points="530,-72.89 519.57,-74.8 528.91,-79.81 530,-72.89"/>
</a>
</g>
</g>
<!-- Node30 -->
<g id="Node000030" class="node">
<title>Node30</title>
<g id="a_Node000030"><a xlink:title=" ">
<polygon fill="#e0e0e0" stroke="#999999" points="669.85,-76 621.6,-76 621.6,-56 669.85,-56 669.85,-76"/>
<text text-anchor="middle" x="645.73" y="-62.5" font-family="Helvetica,sans-Serif" font-size="10.00">string.h</text>
</a>
</g>
</g>
<!-- Node26&#45;&gt;Node30 -->
<g id="edge39_Node000026_Node000030" class="edge">
<title>Node26&#45;&gt;Node30</title>
<g id="a_edge39_Node000026_Node000030"><a xlink:title=" ">
<path fill="none" stroke="#63b8ff" d="M820.04,-111.58C785.9,-103.21 734.51,-90.48 681.25,-76.62"/>
<polygon fill="#63b8ff" stroke="#63b8ff" points="682.25,-73.26 671.69,-74.12 680.48,-80.04 682.25,-73.26"/>
</a>
</g>
</g>
<!-- Node31 -->
<g id="Node000031" class="node">
<title>Node31</title>
<g id="a_Node000031"><a xlink:href="_print_8h.html" target="_top" xlink:title=" ">
<polygon fill="white" stroke="#666666" points="983.98,-76 939.48,-76 939.48,-56 983.98,-56 983.98,-76"/>
<text text-anchor="middle" x="961.73" y="-62.5" font-family="Helvetica,sans-Serif" font-size="10.00">Print.h</text>
</a>
</g>
</g>
<!-- Node26&#45;&gt;Node31 -->
<g id="edge40_Node000026_Node000031" class="edge">
<title>Node26&#45;&gt;Node31</title>
<g id="a_edge40_Node000026_Node000031"><a xlink:title=" ">
<path fill="none" stroke="#63b8ff" d="M876.67,-111.59C892.38,-103.36 915.46,-91.26 933.62,-81.74"/>
<polygon fill="#63b8ff" stroke="#63b8ff" points="935.08,-84.93 942.31,-77.18 931.83,-78.73 935.08,-84.93"/>
</a>
</g>
</g>
<!-- Node31&#45;&gt;Node3 -->
<g id="edge43_Node000031_Node000003" class="edge">
<title>Node31&#45;&gt;Node3</title>
<g id="a_edge43_Node000031_Node000003"><a xlink:title=" ">
<path fill="none" stroke="#63b8ff" d="M938.99,-58.71C934.62,-57.67 930.05,-56.71 925.73,-56 722.43,-22.8 474.18,-13.86 387.44,-11.66"/>
<polygon fill="#63b8ff" stroke="#63b8ff" points="387.66,-8.16 377.58,-11.42 387.5,-15.16 387.66,-8.16"/>
</a>
</g>
</g>
<!-- Node31&#45;&gt;Node22 -->
<g id="edge42_Node000031_Node000022" class="edge">
<title>Node31&#45;&gt;Node22</title>
<g id="a_edge42_Node000031_Node000022"><a xlink:title=" ">
<path fill="none" stroke="#63b8ff" d="M984.45,-57.03C1010.2,-48.01 1052.41,-33.2 1082,-22.83"/>
<polygon fill="#63b8ff" stroke="#63b8ff" points="1082.95,-26.2 1091.23,-19.59 1080.64,-19.6 1082.95,-26.2"/>
</a>
</g>
</g>
<!-- Node32 -->
<g id="Node000032" class="node">
<title>Node32</title>
<g id="a_Node000032"><a xlink:title=" ">
<polygon fill="#e0e0e0" stroke="#999999" points="991.1,-20 932.35,-20 932.35,0 991.1,0 991.1,-20"/>
<text text-anchor="middle" x="961.73" y="-6.5" font-family="Helvetica,sans-Serif" font-size="10.00">inttypes.h</text>
</a>
</g>
</g>
<!-- Node31&#45;&gt;Node32 -->
<g id="edge41_Node000031_Node000032" class="edge">
<title>Node31&#45;&gt;Node32</title>
<g id="a_edge41_Node000031_Node000032"><a xlink:title=" ">
<path fill="none" stroke="#63b8ff" d="M961.73,-55.59C961.73,-49.01 961.73,-39.96 961.73,-31.73"/>
<polygon fill="#63b8ff" stroke="#63b8ff" points="965.23,-31.81 961.73,-21.81 958.23,-31.81 965.23,-31.81"/>
</a>
</g>
</g>
<!-- Node33&#45;&gt;Node3 -->
<g id="edge48_Node000033_Node000003" class="edge">
<title>Node33&#45;&gt;Node3</title>
<g id="a_edge48_Node000033_Node000003"><a xlink:title=" ">
<path fill="none" stroke="#63b8ff" d="M89.99,-167.74C62.12,-146.4 0.7,-92.8 32.73,-56 42.27,-45.03 244.54,-22.68 324.04,-14.29"/>
<polygon fill="#63b8ff" stroke="#63b8ff" points="324.19,-17.79 333.77,-13.27 323.45,-10.83 324.19,-17.79"/>
</a>
</g>
</g>
<!-- Node33&#45;&gt;Node8 -->
<g id="edge47_Node000033_Node000008" class="edge">
<title>Node33&#45;&gt;Node8</title>
<g id="a_edge47_Node000033_Node000008"><a xlink:title=" ">
<path fill="none" stroke="#63b8ff" d="M102.73,-167.59C102.73,-161.01 102.73,-151.96 102.73,-143.73"/>
<polygon fill="#63b8ff" stroke="#63b8ff" points="106.23,-143.81 102.73,-133.81 99.23,-143.81 106.23,-143.81"/>
</a>
</g>
</g>
<!-- Node33&#45;&gt;Node12 -->
<g id="edge46_Node000033_Node000012" class="edge">
<title>Node33&#45;&gt;Node12</title>
<g id="a_edge46_Node000033_Node000012"><a xlink:title=" ">
<path fill="none" stroke="#63b8ff" d="M117.53,-167.59C130.13,-159.59 148.48,-147.93 163.26,-138.54"/>
<polygon fill="#63b8ff" stroke="#63b8ff" points="164.97,-141.61 171.53,-133.29 161.21,-135.7 164.97,-141.61"/>
</a>
</g>
</g>
<!-- Node33&#45;&gt;Node17 -->
<g id="edge49_Node000033_Node000017" class="edge">
<title>Node33&#45;&gt;Node17</title>
<g id="a_edge49_Node000033_Node000017"><a xlink:title=" ">
<path fill="none" stroke="#63b8ff" d="M93.37,-167.63C85.61,-159.14 75.16,-145.88 70.73,-132 66.07,-117.42 68.27,-100.15 71.38,-87.09"/>
<polygon fill="#63b8ff" stroke="#63b8ff" points="74.74,-88.1 74.06,-77.52 67.99,-86.21 74.74,-88.1"/>
</a>
</g>
</g>
</g>
</svg>
