<?xml version="1.0" encoding="UTF-8" standalone="no"?>
<!DOCTYPE svg PUBLIC "-//W3C//DTD SVG 1.1//EN"
 "http://www.w3.org/Graphics/SVG/1.1/DTD/svg11.dtd">
<!-- Generated by graphviz version 12.2.1 (20241206.2353)
 -->
<!-- Title: string_to_operation_type Pages: 1 -->
<svg width="638pt" height="157pt"
 viewBox="0.00 0.00 637.75 157.00" xmlns="http://www.w3.org/2000/svg" xmlns:xlink="http://www.w3.org/1999/xlink">
<g id="graph0" class="graph" transform="scale(1 1) rotate(0) translate(4 153)">
<title>string_to_operation_type</title>
<!-- Node1 -->
<g id="Node000001" class="node">
<title>Node1</title>
<g id="a_Node000001"><a xlink:title="Converts a string to an OperationType.">
<polygon fill="#999999" stroke="#666666" points="629.75,-48 507.25,-48 507.25,-28 629.75,-28 629.75,-48"/>
<text text-anchor="middle" x="568.5" y="-34.5" font-family="Helvetica,sans-Serif" font-size="10.00">string_to_operation_type</text>
</a>
</g>
</g>
<!-- Node2 -->
<g id="Node000002" class="node">
<title>Node2</title>
<g id="a_Node000002"><a xlink:href="frame_8cpp.html#a0b3438ff642c0934321101e1f0b8d82d" target="_top" xlink:title="Converts a string into a Frame instance.">
<polygon fill="white" stroke="#666666" points="459.25,-81 381.75,-81 381.75,-61 459.25,-61 459.25,-81"/>
<text text-anchor="middle" x="420.5" y="-67.5" font-family="Helvetica,sans-Serif" font-size="10.00">frame_decode</text>
</a>
</g>
</g>
<!-- Node1&#45;&gt;Node2 -->
<g id="edge1_Node000001_Node000002" class="edge">
<title>Node1&#45;&gt;Node2</title>
<g id="a_edge1_Node000001_Node000002"><a xlink:title=" ">
<path fill="none" stroke="#63b8ff" d="M510.33,-50.92C493.3,-54.77 475.06,-58.89 459.57,-62.39"/>
<polygon fill="#63b8ff" stroke="#63b8ff" points="510.85,-54.39 519.83,-48.78 509.3,-47.57 510.85,-54.39"/>
</a>
</g>
</g>
<!-- Node10 -->
<g id="Node000010" class="node">
<title>Node10</title>
<g id="a_Node000010"><a xlink:href="test__converters_8cpp.html#ac5d778420db42483f7174157aadbd274" target="_top" xlink:title=" ">
<polygon fill="white" stroke="#666666" points="471.25,-32 369.75,-32 369.75,0 471.25,0 471.25,-32"/>
<text text-anchor="start" x="377.75" y="-18.5" font-family="Helvetica,sans-Serif" font-size="10.00">test_operation_type</text>
<text text-anchor="middle" x="420.5" y="-6.5" font-family="Helvetica,sans-Serif" font-size="10.00">_conversion</text>
</a>
</g>
</g>
<!-- Node1&#45;&gt;Node10 -->
<g id="edge11_Node000001_Node000010" class="edge">
<title>Node1&#45;&gt;Node10</title>
<g id="a_edge11_Node000001_Node000010"><a xlink:title=" ">
<path fill="none" stroke="#63b8ff" d="M495.74,-27.19C487.56,-25.95 479.36,-24.72 471.54,-23.54"/>
<polygon fill="#63b8ff" stroke="#63b8ff" points="494.94,-30.61 505.35,-28.64 495.99,-23.68 494.94,-30.61"/>
</a>
</g>
</g>
<!-- Node3 -->
<g id="Node000003" class="node">
<title>Node3</title>
<g id="a_Node000003"><a xlink:href="frame_8cpp.html#a8b9c5fd031b899c6c7867adcde4ac11f" target="_top" xlink:title="Executes a command based on the command key and the parameter.">
<polygon fill="white" stroke="#666666" points="307.88,-130 227.38,-130 227.38,-110 307.88,-110 307.88,-130"/>
<text text-anchor="middle" x="267.62" y="-116.5" font-family="Helvetica,sans-Serif" font-size="10.00">frame_process</text>
</a>
</g>
</g>
<!-- Node2&#45;&gt;Node3 -->
<g id="edge2_Node000002_Node000003" class="edge">
<title>Node2&#45;&gt;Node3</title>
<g id="a_edge2_Node000002_Node000003"><a xlink:title=" ">
<path fill="none" stroke="#63b8ff" d="M380.37,-85.18C365.79,-90.33 349.07,-96.09 333.75,-101 324.67,-103.91 314.81,-106.88 305.58,-109.59"/>
<polygon fill="#63b8ff" stroke="#63b8ff" points="381.37,-88.54 389.62,-81.89 379.02,-81.94 381.37,-88.54"/>
</a>
</g>
</g>
<!-- Node7 -->
<g id="Node000007" class="node">
<title>Node7</title>
<g id="a_Node000007"><a xlink:href="test__frame__coding_8cpp.html#a75deef6947cf7117a58214b4298ecec9" target="_top" xlink:title=" ">
<polygon fill="white" stroke="#666666" points="331.5,-92 203.75,-92 203.75,-72 331.5,-72 331.5,-92"/>
<text text-anchor="middle" x="267.62" y="-78.5" font-family="Helvetica,sans-Serif" font-size="10.00">test_frame_decode_basic</text>
</a>
</g>
</g>
<!-- Node2&#45;&gt;Node7 -->
<g id="edge7_Node000002_Node000007" class="edge">
<title>Node2&#45;&gt;Node7</title>
<g id="a_edge7_Node000002_Node000007"><a xlink:title=" ">
<path fill="none" stroke="#63b8ff" d="M370.1,-74.6C357.91,-75.49 344.68,-76.45 331.93,-77.38"/>
<polygon fill="#63b8ff" stroke="#63b8ff" points="370.2,-78.1 379.92,-73.89 369.69,-71.12 370.2,-78.1"/>
</a>
</g>
</g>
<!-- Node9 -->
<g id="Node000009" class="node">
<title>Node9</title>
<g id="a_Node000009"><a xlink:href="test__frame__coding_8cpp.html#a054000b3d2c0abb2e13b9109ae0969ef" target="_top" xlink:title=" ">
<polygon fill="white" stroke="#666666" points="333.75,-54 201.5,-54 201.5,-22 333.75,-22 333.75,-54"/>
<text text-anchor="start" x="209.5" y="-40.5" font-family="Helvetica,sans-Serif" font-size="10.00">test_frame_decode_invalid</text>
<text text-anchor="middle" x="267.62" y="-28.5" font-family="Helvetica,sans-Serif" font-size="10.00">_header</text>
</a>
</g>
</g>
<!-- Node2&#45;&gt;Node9 -->
<g id="edge9_Node000002_Node000009" class="edge">
<title>Node2&#45;&gt;Node9</title>
<g id="a_edge9_Node000002_Node000009"><a xlink:title=" ">
<path fill="none" stroke="#63b8ff" d="M370.22,-60.22C358.65,-57.69 346.14,-54.95 333.99,-52.3"/>
<polygon fill="#63b8ff" stroke="#63b8ff" points="369.43,-63.63 379.95,-62.35 370.93,-56.79 369.43,-63.63"/>
</a>
</g>
</g>
<!-- Node4 -->
<g id="Node000004" class="node">
<title>Node4</title>
<g id="a_Node000004"><a xlink:href="receive_8cpp.html#a14ffba44d46e00b23bd72bdb3a4d58d1" target="_top" xlink:title="Handles UART input.">
<polygon fill="white" stroke="#666666" points="165.5,-149 73,-149 73,-129 165.5,-129 165.5,-149"/>
<text text-anchor="middle" x="119.25" y="-135.5" font-family="Helvetica,sans-Serif" font-size="10.00">handle_uart_input</text>
</a>
</g>
</g>
<!-- Node3&#45;&gt;Node4 -->
<g id="edge3_Node000003_Node000004" class="edge">
<title>Node3&#45;&gt;Node4</title>
<g id="a_edge3_Node000003_Node000004"><a xlink:title=" ">
<path fill="none" stroke="#63b8ff" d="M216.04,-126.57C199.73,-128.68 181.77,-131.01 165.85,-133.08"/>
<polygon fill="#63b8ff" stroke="#63b8ff" points="216.05,-130.09 225.51,-125.34 215.15,-123.15 216.05,-130.09"/>
</a>
</g>
</g>
<!-- Node6 -->
<g id="Node000006" class="node">
<title>Node6</title>
<g id="a_Node000006"><a xlink:href="receive_8cpp.html#a3f494105dee3a08e1244febc81982517" target="_top" xlink:title="Callback function for handling received LoRa packets.">
<polygon fill="white" stroke="#666666" points="150.88,-111 87.62,-111 87.62,-91 150.88,-91 150.88,-111"/>
<text text-anchor="middle" x="119.25" y="-97.5" font-family="Helvetica,sans-Serif" font-size="10.00">on_receive</text>
</a>
</g>
</g>
<!-- Node3&#45;&gt;Node6 -->
<g id="edge5_Node000003_Node000006" class="edge">
<title>Node3&#45;&gt;Node6</title>
<g id="a_edge5_Node000003_Node000006"><a xlink:title=" ">
<path fill="none" stroke="#63b8ff" d="M215.73,-113.39C194.19,-110.6 169.81,-107.43 151.07,-105"/>
<polygon fill="#63b8ff" stroke="#63b8ff" points="215.15,-116.85 225.51,-114.66 216.05,-109.91 215.15,-116.85"/>
</a>
</g>
</g>
<!-- Node5 -->
<g id="Node000005" class="node">
<title>Node5</title>
<g id="a_Node000005"><a xlink:href="main_8cpp.html#ae66f6b31b5ad750f1fe042a706a4e3d4" target="_top" xlink:title=" ">
<polygon fill="white" stroke="#666666" points="37,-130 0,-130 0,-110 37,-110 37,-130"/>
<text text-anchor="middle" x="18.5" y="-116.5" font-family="Helvetica,sans-Serif" font-size="10.00">main</text>
</a>
</g>
</g>
<!-- Node4&#45;&gt;Node5 -->
<g id="edge4_Node000004_Node000005" class="edge">
<title>Node4&#45;&gt;Node5</title>
<g id="a_edge4_Node000004_Node000005"><a xlink:title=" ">
<path fill="none" stroke="#63b8ff" d="M61.47,-128.08C52.72,-126.39 44.3,-124.77 37.31,-123.43"/>
<polygon fill="#63b8ff" stroke="#63b8ff" points="60.67,-131.48 71.15,-129.94 61.99,-124.61 60.67,-131.48"/>
</a>
</g>
</g>
<!-- Node6&#45;&gt;Node5 -->
<g id="edge6_Node000006_Node000005" class="edge">
<title>Node6&#45;&gt;Node5</title>
<g id="a_edge6_Node000006_Node000005"><a xlink:title=" ">
<path fill="none" stroke="#63b8ff" d="M76.15,-109.1C62.58,-111.71 48.27,-114.46 37.42,-116.55"/>
<polygon fill="#63b8ff" stroke="#63b8ff" points="76.63,-112.57 85.79,-107.25 75.31,-105.7 76.63,-112.57"/>
</a>
</g>
</g>
<!-- Node8 -->
<g id="Node000008" class="node">
<title>Node8</title>
<g id="a_Node000008"><a xlink:href="test__runner_8cpp.html#a840291bc02cba5474a4cb46a9b9566fe" target="_top" xlink:title=" ">
<polygon fill="white" stroke="#666666" points="137.75,-48 100.75,-48 100.75,-28 137.75,-28 137.75,-48"/>
<text text-anchor="middle" x="119.25" y="-34.5" font-family="Helvetica,sans-Serif" font-size="10.00">main</text>
</a>
</g>
</g>
<!-- Node7&#45;&gt;Node8 -->
<g id="edge8_Node000007_Node000008" class="edge">
<title>Node7&#45;&gt;Node8</title>
<g id="a_edge8_Node000007_Node000008"><a xlink:title=" ">
<path fill="none" stroke="#63b8ff" d="M219.6,-68.37C213.51,-66.58 207.35,-64.75 201.5,-63 179.59,-56.43 154.42,-48.65 137.98,-43.54"/>
<polygon fill="#63b8ff" stroke="#63b8ff" points="218.39,-71.66 228.97,-71.12 220.36,-64.95 218.39,-71.66"/>
</a>
</g>
</g>
<!-- Node9&#45;&gt;Node8 -->
<g id="edge10_Node000009_Node000008" class="edge">
<title>Node9&#45;&gt;Node8</title>
<g id="a_edge10_Node000009_Node000008"><a xlink:title=" ">
<path fill="none" stroke="#63b8ff" d="M189.71,-38C170.29,-38 151.23,-38 138,-38"/>
<polygon fill="#63b8ff" stroke="#63b8ff" points="189.63,-41.5 199.63,-38 189.63,-34.5 189.63,-41.5"/>
</a>
</g>
</g>
<!-- Node10&#45;&gt;Node8 -->
<g id="edge12_Node000010_Node000008" class="edge">
<title>Node10&#45;&gt;Node8</title>
<g id="a_edge12_Node000010_Node000008"><a xlink:title=" ">
<path fill="none" stroke="#63b8ff" d="M358.05,-9.86C314.18,-6.76 253.9,-5.12 201.5,-13 179.02,-16.38 154.19,-24.74 137.96,-30.87"/>
<polygon fill="#63b8ff" stroke="#63b8ff" points="357.66,-13.34 367.89,-10.6 358.19,-6.36 357.66,-13.34"/>
</a>
</g>
</g>
</g>
</svg>
