<?xml version="1.0" encoding="UTF-8" standalone="no"?>
<!DOCTYPE svg PUBLIC "-//W3C//DTD SVG 1.1//EN"
 "http://www.w3.org/Graphics/SVG/1.1/DTD/svg11.dtd">
<!-- Generated by graphviz version 12.2.1 (20241206.2353)
 -->
<!-- Title: value_unit_type_to_string Pages: 1 -->
<!--zoomable 1243 -->

<svg id="main" version="1.1" xmlns="http://www.w3.org/2000/svg" xmlns:xlink="http://www.w3.org/1999/xlink" xml:space="preserve" onload="init(evt)">

<style type="text/css"><![CDATA[
.node, .edge {opacity: 0.7;}
.node.selected, .edge.selected {opacity: 1;}
.edge:hover path { stroke: red; }
.edge:hover polygon { stroke: red; fill: red; }
]]></style>

<defs>
  <circle id="rim" cx="0" cy="0" r="7"/>
  <circle id="rim2" cx="0" cy="0" r="3.5"/>
  <g id="zoomPlus">
    <use xlink:href="#rim" fill="#404040"><set attributeName="fill" to="#808080" begin="zoomplus.mouseover" end="zoomplus.mouseout"/></use>
    <path d="M-4,0h8M0,-4v8" fill="none" stroke="white" stroke-width="1.5" pointer-events="none"/>
  </g>
  <g id="zoomMin">
    <use xlink:href="#rim" fill="#404040"><set attributeName="fill" to="#808080" begin="zoomminus.mouseover" end="zoomminus.mouseout"/></use>
    <path d="M-4,0h8" fill="none" stroke="white" stroke-width="1.5" pointer-events="none"/>
  </g>
  <g id="arrowUp" transform="translate(30 24)">
    <use xlink:href="#rim"/>
    <path pointer-events="none" fill="none" stroke="white" stroke-width="1.5" d="M0,-3.0v7 M-2.5,-0.5L0,-3.0L2.5,-0.5"/>
  </g>
  <g id="arrowRight" transform="rotate(90) translate(36 -43)">
    <use xlink:href="#rim"/>
    <path pointer-events="none" fill="none" stroke="white" stroke-width="1.5" d="M0,-3.0v7 M-2.5,-0.5L0,-3.0L2.5,-0.5"/>
  </g>
  <g id="arrowDown" transform="rotate(180) translate(-30 -48)">
    <use xlink:href="#rim"/>
    <path pointer-events="none" fill="none" stroke="white" stroke-width="1.5" d="M0,-3.0v7 M-2.5,-0.5L0,-3.0L2.5,-0.5"/>
  </g>
  <g id="arrowLeft" transform="rotate(270) translate(-36 17)">
    <use xlink:href="#rim"/>
    <path pointer-events="none" fill="none" stroke="white" stroke-width="1.5" d="M0,-3.0v7 M-2.5,-0.5L0,-3.0L2.5,-0.5"/>
  </g>
  <g id="resetDef">
    <use xlink:href="#rim2" fill="#404040"><set attributeName="fill" to="#808080" begin="reset.mouseover" end="reset.mouseout"/></use>
  </g>
</defs>
<script type="application/ecmascript">
var viewWidth = 809;
var viewHeight = 1243;
var sectionId = 'dynsection-2';
</script>
<script type="application/ecmascript" xlink:href="svg.min.js"/>
<svg id="graph" class="graph">
<g id="viewport">
<title>value_unit_type_to_string</title>
<!-- Node1 -->
<g id="Node000001" class="node">
<title>Node1</title>
<g id="a_Node000001"><a xlink:title="Converts a ValueUnit to a string.">
<polygon fill="#999999" stroke="#666666" points="801,-347.17 703.25,-347.17 703.25,-315.17 801,-315.17 801,-347.17"/>
<text text-anchor="start" x="711.25" y="-333.67" font-family="Helvetica,sans-Serif" font-size="10.00">value_unit_type_to</text>
<text text-anchor="middle" x="752.12" y="-321.67" font-family="Helvetica,sans-Serif" font-size="10.00">_string</text>
</a>
</g>
</g>
<!-- Node2 -->
<g id="Node000002" class="node">
<title>Node2</title>
<g id="a_Node000002"><a xlink:href="frame_8cpp.html#a29170691faa10727d607a73861cacbeb" target="_top" xlink:title="Builds a Frame instance.">
<polygon fill="white" stroke="#666666" points="647.38,-613.17 581.12,-613.17 581.12,-593.17 647.38,-593.17 647.38,-613.17"/>
<text text-anchor="middle" x="614.25" y="-599.67" font-family="Helvetica,sans-Serif" font-size="10.00">frame_build</text>
</a>
</g>
</g>
<!-- Node1&#45;&gt;Node2 -->
<g id="edge1_Node000001_Node000002" class="edge">
<title>Node1&#45;&gt;Node2</title>
<g id="a_edge1_Node000001_Node000002"><a xlink:title=" ">
<path fill="none" stroke="#63b8ff" d="M737.91,-357.61C708.77,-415.96 639.99,-553.65 620.49,-592.69"/>
<polygon fill="#63b8ff" stroke="#63b8ff" points="741.02,-359.23 742.36,-348.72 734.76,-356.11 741.02,-359.23"/>
</a>
</g>
</g>
<!-- Node37 -->
<g id="Node000037" class="node">
<title>Node37</title>
<g id="a_Node000037"><a xlink:href="test__converters_8cpp.html#a6e6f514b17b431b344cc576f52e2c086" target="_top" xlink:title=" ">
<polygon fill="white" stroke="#666666" points="667.25,-325.17 561.25,-325.17 561.25,-293.17 667.25,-293.17 667.25,-325.17"/>
<text text-anchor="start" x="569.25" y="-311.67" font-family="Helvetica,sans-Serif" font-size="10.00">test_value_unit_type</text>
<text text-anchor="middle" x="614.25" y="-299.67" font-family="Helvetica,sans-Serif" font-size="10.00">_conversion</text>
</a>
</g>
</g>
<!-- Node1&#45;&gt;Node37 -->
<g id="edge45_Node000001_Node000037" class="edge">
<title>Node1&#45;&gt;Node37</title>
<g id="a_edge45_Node000001_Node000037"><a xlink:title=" ">
<path fill="none" stroke="#63b8ff" d="M691.64,-321.54C683.61,-320.24 675.42,-318.91 667.53,-317.63"/>
<polygon fill="#63b8ff" stroke="#63b8ff" points="690.91,-324.97 701.34,-323.11 692.03,-318.06 690.91,-324.97"/>
</a>
</g>
</g>
<!-- Node3 -->
<g id="Node000003" class="node">
<title>Node3</title>
<g id="a_Node000003"><a xlink:href="group___command_system.html#ga52e8963095eccdf1045309bf31b4d705" target="_top" xlink:title="Executes a command based on its key.">
<polygon fill="white" stroke="#666666" points="496.75,-1133.17 398.25,-1133.17 398.25,-1113.17 496.75,-1113.17 496.75,-1133.17"/>
<text text-anchor="middle" x="447.5" y="-1119.67" font-family="Helvetica,sans-Serif" font-size="10.00">execute_command</text>
</a>
</g>
</g>
<!-- Node2&#45;&gt;Node3 -->
<g id="edge2_Node000002_Node000003" class="edge">
<title>Node2&#45;&gt;Node3</title>
<g id="a_edge2_Node000002_Node000003"><a xlink:title=" ">
<path fill="none" stroke="#63b8ff" d="M612.33,-624.76C608.23,-710.63 589,-1026.73 525.25,-1099.17 517.87,-1107.55 507.61,-1113.04 496.99,-1116.62"/>
<polygon fill="#63b8ff" stroke="#63b8ff" points="615.82,-625.08 612.77,-614.93 608.82,-624.76 615.82,-625.08"/>
</a>
</g>
</g>
<!-- Node4 -->
<g id="Node000004" class="node">
<title>Node4</title>
<g id="a_Node000004"><a xlink:href="frame_8cpp.html#a8b9c5fd031b899c6c7867adcde4ac11f" target="_top" xlink:title="Executes a command based on the command key and the parameter.">
<polygon fill="white" stroke="#666666" points="307.88,-1095.17 227.38,-1095.17 227.38,-1075.17 307.88,-1075.17 307.88,-1095.17"/>
<text text-anchor="middle" x="267.62" y="-1081.67" font-family="Helvetica,sans-Serif" font-size="10.00">frame_process</text>
</a>
</g>
</g>
<!-- Node2&#45;&gt;Node4 -->
<g id="edge14_Node000002_Node000004" class="edge">
<title>Node2&#45;&gt;Node4</title>
<g id="a_edge14_Node000002_Node000004"><a xlink:title=" ">
<path fill="none" stroke="#63b8ff" d="M612.49,-624.8C609.09,-708.08 592.33,-1006.32 525.25,-1066.17 494.16,-1093.9 372.17,-1091.31 308.22,-1087.86"/>
<polygon fill="#63b8ff" stroke="#63b8ff" points="615.99,-624.99 612.87,-614.86 608.99,-624.72 615.99,-624.99"/>
</a>
</g>
</g>
<!-- Node6 -->
<g id="Node000006" class="node">
<title>Node6</title>
<g id="a_Node000006"><a xlink:href="main_8cpp.html#ae66f6b31b5ad750f1fe042a706a4e3d4" target="_top" xlink:title=" ">
<polygon fill="white" stroke="#666666" points="37,-1152.17 0,-1152.17 0,-1132.17 37,-1132.17 37,-1152.17"/>
<text text-anchor="middle" x="18.5" y="-1138.67" font-family="Helvetica,sans-Serif" font-size="10.00">main</text>
</a>
</g>
</g>
<!-- Node2&#45;&gt;Node6 -->
<g id="edge37_Node000002_Node000006" class="edge">
<title>Node2&#45;&gt;Node6</title>
<g id="a_edge37_Node000002_Node000006"><a xlink:title=" ">
<path fill="none" stroke="#63b8ff" d="M613.44,-624.67C613.81,-719.86 609.91,-1101.97 525.25,-1176.17 378.99,-1304.36 108.34,-1185.88 37.07,-1151.09"/>
<polygon fill="#63b8ff" stroke="#63b8ff" points="616.95,-624.91 613.38,-614.93 609.95,-624.95 616.95,-624.91"/>
</a>
</g>
</g>
<!-- Node8 -->
<g id="Node000008" class="node">
<title>Node8</title>
<g id="a_Node000008"><a xlink:href="frame_8cpp.html#a0b3438ff642c0934321101e1f0b8d82d" target="_top" xlink:title="Converts a string into a Frame instance.">
<polygon fill="white" stroke="#666666" points="486.25,-1057.17 408.75,-1057.17 408.75,-1037.17 486.25,-1037.17 486.25,-1057.17"/>
<text text-anchor="middle" x="447.5" y="-1043.67" font-family="Helvetica,sans-Serif" font-size="10.00">frame_decode</text>
</a>
</g>
</g>
<!-- Node2&#45;&gt;Node8 -->
<g id="edge8_Node000002_Node000008" class="edge">
<title>Node2&#45;&gt;Node8</title>
<g id="a_edge8_Node000002_Node000008"><a xlink:title=" ">
<path fill="none" stroke="#63b8ff" d="M611.61,-624.35C605.24,-701.06 579.8,-963.08 525.25,-1023.17 515.3,-1034.13 500.43,-1040.12 486.43,-1043.39"/>
<polygon fill="#63b8ff" stroke="#63b8ff" points="615.06,-625.08 612.37,-614.83 608.08,-624.52 615.06,-625.08"/>
</a>
</g>
</g>
<!-- Node12 -->
<g id="Node000012" class="node">
<title>Node12</title>
<g id="a_Node000012"><a xlink:href="group___event_commands.html#gaaa3951cee1a13c3f497c96c0f3be9f95" target="_top" xlink:title="Handler for getting total number of events in the log.">
<polygon fill="white" stroke="#666666" points="508.38,-981.17 386.62,-981.17 386.62,-961.17 508.38,-961.17 508.38,-981.17"/>
<text text-anchor="middle" x="447.5" y="-967.67" font-family="Helvetica,sans-Serif" font-size="10.00">hadnle_get_event_count</text>
</a>
</g>
</g>
<!-- Node2&#45;&gt;Node12 -->
<g id="edge15_Node000002_Node000012" class="edge">
<title>Node2&#45;&gt;Node12</title>
<g id="a_edge15_Node000002_Node000012"><a xlink:title=" ">
<path fill="none" stroke="#63b8ff" d="M610.71,-624.75C602.21,-693.41 572.56,-905.06 525.25,-952.17 520.48,-956.91 514.73,-960.54 508.54,-963.3"/>
<polygon fill="#63b8ff" stroke="#63b8ff" points="614.14,-625.51 611.87,-615.17 607.19,-624.67 614.14,-625.51"/>
</a>
</g>
</g>
<!-- Node13 -->
<g id="Node000013" class="node">
<title>Node13</title>
<g id="a_Node000013"><a xlink:href="group___clock_commands.html#gae0bd51ede980e34daf37928a625bd170" target="_top" xlink:title="Handler for getting and setting clock synchronization interval.">
<polygon fill="white" stroke="#666666" points="515.5,-943.17 379.5,-943.17 379.5,-923.17 515.5,-923.17 515.5,-943.17"/>
<text text-anchor="middle" x="447.5" y="-929.67" font-family="Helvetica,sans-Serif" font-size="10.00">handle_clock_sync_interval</text>
</a>
</g>
</g>
<!-- Node2&#45;&gt;Node13 -->
<g id="edge16_Node000002_Node000013" class="edge">
<title>Node2&#45;&gt;Node13</title>
<g id="a_edge16_Node000002_Node000013"><a xlink:title=" ">
<path fill="none" stroke="#63b8ff" d="M614,-624.96C614.68,-681.46 608.31,-833.81 525.25,-914.17 521.7,-917.61 517.63,-920.45 513.25,-922.8"/>
<polygon fill="#63b8ff" stroke="#63b8ff" points="617.5,-625.02 613.78,-615.1 610.5,-625.17 617.5,-625.02"/>
</a>
</g>
</g>
<!-- Node14 -->
<g id="Node000014" class="node">
<title>Node14</title>
<g id="a_Node000014"><a xlink:href="group___g_p_s_commands.html#ga3e4c6db6e933a1ff77f3ac52ce1c44be" target="_top" xlink:title="Handler for enabling GPS transparent mode (UART pass&#45;through)">
<polygon fill="white" stroke="#666666" points="508,-905.17 387,-905.17 387,-873.17 508,-873.17 508,-905.17"/>
<text text-anchor="start" x="395" y="-891.67" font-family="Helvetica,sans-Serif" font-size="10.00">handle_enable_gps_uart</text>
<text text-anchor="middle" x="447.5" y="-879.67" font-family="Helvetica,sans-Serif" font-size="10.00">_passthrough</text>
</a>
</g>
</g>
<!-- Node2&#45;&gt;Node14 -->
<g id="edge17_Node000002_Node000014" class="edge">
<title>Node2&#45;&gt;Node14</title>
<g id="a_edge17_Node000002_Node000014"><a xlink:title=" ">
<path fill="none" stroke="#63b8ff" d="M612.25,-625.09C608.79,-674.73 593.42,-796.7 525.25,-864.17 520.37,-869 514.55,-872.9 508.32,-876.04"/>
<polygon fill="#63b8ff" stroke="#63b8ff" points="615.74,-625.3 612.83,-615.11 608.75,-624.89 615.74,-625.3"/>
</a>
</g>
</g>
<!-- Node15 -->
<g id="Node000015" class="node">
<title>Node15</title>
<g id="a_Node000015"><a xlink:href="group___diagnostic_commands.html#ga3ab5723218b68d3ac5cd864e00ed157a" target="_top" xlink:title="Reboot system to USB firmware loader.">
<polygon fill="white" stroke="#666666" points="523,-855.17 372,-855.17 372,-835.17 523,-835.17 523,-855.17"/>
<text text-anchor="middle" x="447.5" y="-841.67" font-family="Helvetica,sans-Serif" font-size="10.00">handle_enter_bootloader_mode</text>
</a>
</g>
</g>
<!-- Node2&#45;&gt;Node15 -->
<g id="edge18_Node000002_Node000015" class="edge">
<title>Node2&#45;&gt;Node15</title>
<g id="a_edge18_Node000002_Node000015"><a xlink:title=" ">
<path fill="none" stroke="#63b8ff" d="M611.22,-624.63C605.81,-669.21 586.96,-772.17 525.25,-826.17 521.32,-829.6 516.87,-832.44 512.14,-834.77"/>
<polygon fill="#63b8ff" stroke="#63b8ff" points="614.66,-625.29 612.27,-614.97 607.71,-624.53 614.66,-625.29"/>
</a>
</g>
</g>
<!-- Node16 -->
<g id="Node000016" class="node">
<title>Node16</title>
<g id="a_Node000016"><a xlink:href="group___diagnostic_commands.html#ga517fbfd05cbec86489314348cb3f9995" target="_top" xlink:title="Get firmware build version.">
<polygon fill="white" stroke="#666666" points="510.25,-817.17 384.75,-817.17 384.75,-797.17 510.25,-797.17 510.25,-817.17"/>
<text text-anchor="middle" x="447.5" y="-803.67" font-family="Helvetica,sans-Serif" font-size="10.00">handle_get_build_version</text>
</a>
</g>
</g>
<!-- Node2&#45;&gt;Node16 -->
<g id="edge19_Node000002_Node000016" class="edge">
<title>Node2&#45;&gt;Node16</title>
<g id="a_edge19_Node000002_Node000016"><a xlink:title=" ">
<path fill="none" stroke="#63b8ff" d="M609.27,-624.65C600.93,-663.47 577.84,-745.23 525.25,-788.17 520.78,-791.82 515.72,-794.78 510.37,-797.18"/>
<polygon fill="#63b8ff" stroke="#63b8ff" points="612.69,-625.44 611.22,-614.94 605.82,-624.06 612.69,-625.44"/>
</a>
</g>
</g>
<!-- Node17 -->
<g id="Node000017" class="node">
<title>Node17</title>
<g id="a_Node000017"><a xlink:href="group___diagnostic_commands.html#ga74736b8d0e49df14f97e3e20cd3418c7" target="_top" xlink:title="Handler for listing all available commands on UART.">
<polygon fill="white" stroke="#666666" points="514.75,-779.17 380.25,-779.17 380.25,-759.17 514.75,-759.17 514.75,-779.17"/>
<text text-anchor="middle" x="447.5" y="-765.67" font-family="Helvetica,sans-Serif" font-size="10.00">handle_get_commands_list</text>
</a>
</g>
</g>
<!-- Node2&#45;&gt;Node17 -->
<g id="edge20_Node000002_Node000017" class="edge">
<title>Node2&#45;&gt;Node17</title>
<g id="a_edge20_Node000002_Node000017"><a xlink:title=" ">
<path fill="none" stroke="#63b8ff" d="M606.48,-624.49C595.08,-656.81 568.93,-717.85 525.25,-750.17 520.62,-753.6 515.44,-756.41 510.01,-758.72"/>
<polygon fill="#63b8ff" stroke="#63b8ff" points="609.78,-625.66 609.64,-615.07 603.14,-623.43 609.78,-625.66"/>
</a>
</g>
</g>
<!-- Node18 -->
<g id="Node000018" class="node">
<title>Node18</title>
<g id="a_Node000018"><a xlink:href="group___power_commands.html#gacda455c78e43fa4ad2a93215b440c0ef" target="_top" xlink:title="Handler for getting solar panel charge current.">
<polygon fill="white" stroke="#666666" points="496.75,-741.17 398.25,-741.17 398.25,-709.17 496.75,-709.17 496.75,-741.17"/>
<text text-anchor="start" x="406.25" y="-727.67" font-family="Helvetica,sans-Serif" font-size="10.00">handle_get_current</text>
<text text-anchor="middle" x="447.5" y="-715.67" font-family="Helvetica,sans-Serif" font-size="10.00">_charge_solar</text>
</a>
</g>
</g>
<!-- Node2&#45;&gt;Node18 -->
<g id="edge21_Node000002_Node000018" class="edge">
<title>Node2&#45;&gt;Node18</title>
<g id="a_edge21_Node000002_Node000018"><a xlink:title=" ">
<path fill="none" stroke="#63b8ff" d="M600.19,-622.86C584.73,-644.71 557.05,-679.58 525.25,-700.17 516.66,-705.73 506.73,-710.15 496.92,-713.63"/>
<polygon fill="#63b8ff" stroke="#63b8ff" points="602.94,-625.04 605.72,-614.82 597.17,-621.07 602.94,-625.04"/>
</a>
</g>
</g>
<!-- Node19 -->
<g id="Node000019" class="node">
<title>Node19</title>
<g id="a_Node000019"><a xlink:href="group___power_commands.html#gaf14f25e1c7a2f89881a0f9fbcb7f1807" target="_top" xlink:title="Handler for getting total charge current.">
<polygon fill="white" stroke="#666666" points="496.75,-691.17 398.25,-691.17 398.25,-659.17 496.75,-659.17 496.75,-691.17"/>
<text text-anchor="start" x="406.25" y="-677.67" font-family="Helvetica,sans-Serif" font-size="10.00">handle_get_current</text>
<text text-anchor="middle" x="447.5" y="-665.67" font-family="Helvetica,sans-Serif" font-size="10.00">_charge_total</text>
</a>
</g>
</g>
<!-- Node2&#45;&gt;Node19 -->
<g id="edge22_Node000002_Node000019" class="edge">
<title>Node2&#45;&gt;Node19</title>
<g id="a_edge22_Node000002_Node000019"><a xlink:title=" ">
<path fill="none" stroke="#63b8ff" d="M585.99,-619.33C568.91,-629.05 546.23,-641.23 525.25,-650.17 516.23,-654.01 506.4,-657.63 496.88,-660.84"/>
<polygon fill="#63b8ff" stroke="#63b8ff" points="587.61,-622.44 594.52,-614.41 584.11,-616.38 587.61,-622.44"/>
</a>
</g>
</g>
<!-- Node20 -->
<g id="Node000020" class="node">
<title>Node20</title>
<g id="a_Node000020"><a xlink:href="group___power_commands.html#ga6e5a897c92aaeae8b2fb25faa50bb19d" target="_top" xlink:title="Handler for getting USB charge current.">
<polygon fill="white" stroke="#666666" points="496.75,-641.17 398.25,-641.17 398.25,-609.17 496.75,-609.17 496.75,-641.17"/>
<text text-anchor="start" x="406.25" y="-627.67" font-family="Helvetica,sans-Serif" font-size="10.00">handle_get_current</text>
<text text-anchor="middle" x="447.5" y="-615.67" font-family="Helvetica,sans-Serif" font-size="10.00">_charge_usb</text>
</a>
</g>
</g>
<!-- Node2&#45;&gt;Node20 -->
<g id="edge23_Node000002_Node000020" class="edge">
<title>Node2&#45;&gt;Node20</title>
<g id="a_edge23_Node000002_Node000020"><a xlink:title=" ">
<path fill="none" stroke="#63b8ff" d="M569.55,-609C547.29,-611.98 520.16,-615.6 497.23,-618.66"/>
<polygon fill="#63b8ff" stroke="#63b8ff" points="569.75,-612.51 579.2,-607.72 568.83,-605.57 569.75,-612.51"/>
</a>
</g>
</g>
<!-- Node21 -->
<g id="Node000021" class="node">
<title>Node21</title>
<g id="a_Node000021"><a xlink:href="group___power_commands.html#ga31c33c0ee51185939be5c642affdb6b8" target="_top" xlink:title="Handler for getting system current draw.">
<polygon fill="white" stroke="#666666" points="509.88,-591.17 385.12,-591.17 385.12,-571.17 509.88,-571.17 509.88,-591.17"/>
<text text-anchor="middle" x="447.5" y="-577.67" font-family="Helvetica,sans-Serif" font-size="10.00">handle_get_current_draw</text>
</a>
</g>
</g>
<!-- Node2&#45;&gt;Node21 -->
<g id="edge24_Node000002_Node000021" class="edge">
<title>Node2&#45;&gt;Node21</title>
<g id="a_edge24_Node000002_Node000021"><a xlink:title=" ">
<path fill="none" stroke="#63b8ff" d="M569.32,-597.3C551.23,-594.89 529.95,-592.05 510.33,-589.43"/>
<polygon fill="#63b8ff" stroke="#63b8ff" points="568.83,-600.77 579.2,-598.62 569.75,-593.83 568.83,-600.77"/>
</a>
</g>
</g>
<!-- Node22 -->
<g id="Node000022" class="node">
<title>Node22</title>
<g id="a_Node000022"><a xlink:href="group___g_p_s_commands.html#ga617ca7e129f14b0ca4f0d6eb333cbf27" target="_top" xlink:title="Handler for retrieving GPS GGA (Global Positioning System Fix Data) data.">
<polygon fill="white" stroke="#666666" points="501.62,-553.17 393.38,-553.17 393.38,-533.17 501.62,-533.17 501.62,-553.17"/>
<text text-anchor="middle" x="447.5" y="-539.67" font-family="Helvetica,sans-Serif" font-size="10.00">handle_get_gga_data</text>
</a>
</g>
</g>
<!-- Node2&#45;&gt;Node22 -->
<g id="edge25_Node000002_Node000022" class="edge">
<title>Node2&#45;&gt;Node22</title>
<g id="a_edge25_Node000002_Node000022"><a xlink:title=" ">
<path fill="none" stroke="#63b8ff" d="M583.99,-587.8C567.15,-579.39 545.39,-569.28 525.25,-562.17 516.19,-558.97 506.34,-556.1 496.82,-553.62"/>
<polygon fill="#63b8ff" stroke="#63b8ff" points="581.93,-590.68 592.44,-592.08 585.1,-584.44 581.93,-590.68"/>
</a>
</g>
</g>
<!-- Node23 -->
<g id="Node000023" class="node">
<title>Node23</title>
<g id="a_Node000023"><a xlink:href="group___event_commands.html#ga9a7182db399c2b40ea66db5989d10471" target="_top" xlink:title="Handler for retrieving last N events from the event log.">
<polygon fill="white" stroke="#666666" points="506.88,-515.17 388.12,-515.17 388.12,-495.17 506.88,-495.17 506.88,-515.17"/>
<text text-anchor="middle" x="447.5" y="-501.67" font-family="Helvetica,sans-Serif" font-size="10.00">handle_get_last_events</text>
</a>
</g>
</g>
<!-- Node2&#45;&gt;Node23 -->
<g id="edge26_Node000002_Node000023" class="edge">
<title>Node2&#45;&gt;Node23</title>
<g id="a_edge26_Node000002_Node000023"><a xlink:title=" ">
<path fill="none" stroke="#63b8ff" d="M597.16,-584.11C580.85,-566.02 553.99,-539.39 525.25,-524.17 518.82,-520.76 511.76,-517.95 504.62,-515.64"/>
<polygon fill="#63b8ff" stroke="#63b8ff" points="594.46,-586.34 603.68,-591.55 599.72,-581.72 594.46,-586.34"/>
</a>
</g>
</g>
<!-- Node24 -->
<g id="Node000024" class="node">
<title>Node24</title>
<g id="a_Node000024"><a xlink:href="group___clock_commands.html#ga8fad2991aef05583a47a5b1072ffece0" target="_top" xlink:title="Handler for getting last clock sync time.">
<polygon fill="white" stroke="#666666" points="514.75,-477.17 380.25,-477.17 380.25,-457.17 514.75,-457.17 514.75,-477.17"/>
<text text-anchor="middle" x="447.5" y="-463.67" font-family="Helvetica,sans-Serif" font-size="10.00">handle_get_last_sync_time</text>
</a>
</g>
</g>
<!-- Node2&#45;&gt;Node24 -->
<g id="edge27_Node000002_Node000024" class="edge">
<title>Node2&#45;&gt;Node24</title>
<g id="a_edge27_Node000002_Node000024"><a xlink:title=" ">
<path fill="none" stroke="#63b8ff" d="M603.54,-582.81C589.85,-556.37 562.35,-510.7 525.25,-486.17 519.98,-482.69 514.13,-479.84 508.07,-477.52"/>
<polygon fill="#63b8ff" stroke="#63b8ff" points="600.27,-584.11 607.87,-591.49 606.54,-580.98 600.27,-584.11"/>
</a>
</g>
</g>
<!-- Node25 -->
<g id="Node000025" class="node">
<title>Node25</title>
<g id="a_Node000025"><a xlink:href="group___power_commands.html#ga847b0ed9bf4c252edb1440831739e1ca" target="_top" xlink:title="Handler for retrieving Power Manager IDs.">
<polygon fill="white" stroke="#666666" points="525.25,-439.17 369.75,-439.17 369.75,-419.17 525.25,-419.17 525.25,-439.17"/>
<text text-anchor="middle" x="447.5" y="-425.67" font-family="Helvetica,sans-Serif" font-size="10.00">handle_get_power_manager_ids</text>
</a>
</g>
</g>
<!-- Node2&#45;&gt;Node25 -->
<g id="edge28_Node000002_Node000025" class="edge">
<title>Node2&#45;&gt;Node25</title>
<g id="a_edge28_Node000002_Node000025"><a xlink:title=" ">
<path fill="none" stroke="#63b8ff" d="M607.27,-582.13C596.58,-548.47 570.93,-482.79 525.25,-448.17 520.66,-444.69 515.5,-441.84 510.1,-439.5"/>
<polygon fill="#63b8ff" stroke="#63b8ff" points="603.86,-582.95 610.1,-591.52 610.56,-580.93 603.86,-582.95"/>
</a>
</g>
</g>
<!-- Node26 -->
<g id="Node000026" class="node">
<title>Node26</title>
<g id="a_Node000026"><a xlink:href="group___g_p_s_commands.html#ga8e18759b90b7902e535f50aceae81f2e" target="_top" xlink:title="Handler for retrieving GPS RMC (Recommended Minimum Navigation) data.">
<polygon fill="white" stroke="#666666" points="502,-401.17 393,-401.17 393,-381.17 502,-381.17 502,-401.17"/>
<text text-anchor="middle" x="447.5" y="-387.67" font-family="Helvetica,sans-Serif" font-size="10.00">handle_get_rmc_data</text>
</a>
</g>
</g>
<!-- Node2&#45;&gt;Node26 -->
<g id="edge29_Node000002_Node000026" class="edge">
<title>Node2&#45;&gt;Node26</title>
<g id="a_edge29_Node000002_Node000026"><a xlink:title=" ">
<path fill="none" stroke="#63b8ff" d="M609.72,-581.61C602,-541.49 579.71,-455.38 525.25,-410.17 518.6,-404.65 510.57,-400.69 502.25,-397.86"/>
<polygon fill="#63b8ff" stroke="#63b8ff" points="606.27,-582.19 611.48,-591.41 613.16,-580.95 606.27,-582.19"/>
</a>
</g>
</g>
<!-- Node27 -->
<g id="Node000027" class="node">
<title>Node27</title>
<g id="a_Node000027"><a xlink:href="group___power_commands.html#ga24497d675dc02a7ec46ed0327a9de54a" target="_top" xlink:title="Handler for getting 5V rail voltage.">
<polygon fill="white" stroke="#666666" points="505.38,-363.17 389.62,-363.17 389.62,-343.17 505.38,-343.17 505.38,-363.17"/>
<text text-anchor="middle" x="447.5" y="-349.67" font-family="Helvetica,sans-Serif" font-size="10.00">handle_get_voltage_5v</text>
</a>
</g>
</g>
<!-- Node2&#45;&gt;Node27 -->
<g id="edge30_Node000002_Node000027" class="edge">
<title>Node2&#45;&gt;Node27</title>
<g id="a_edge30_Node000002_Node000027"><a xlink:title=" ">
<path fill="none" stroke="#63b8ff" d="M611.54,-581.59C606.71,-535.8 588.84,-428.48 525.25,-372.17 519.6,-367.16 512.83,-363.43 505.69,-360.66"/>
<polygon fill="#63b8ff" stroke="#63b8ff" points="608.05,-581.88 612.46,-591.51 615.02,-581.23 608.05,-581.88"/>
</a>
</g>
</g>
<!-- Node28 -->
<g id="Node000028" class="node">
<title>Node28</title>
<g id="a_Node000028"><a xlink:href="group___power_commands.html#ga06487ba124c57bc39009eb235ec8cab4" target="_top" xlink:title="Handler for getting battery voltage.">
<polygon fill="white" stroke="#666666" points="497.5,-325.17 397.5,-325.17 397.5,-293.17 497.5,-293.17 497.5,-325.17"/>
<text text-anchor="start" x="405.5" y="-311.67" font-family="Helvetica,sans-Serif" font-size="10.00">handle_get_voltage</text>
<text text-anchor="middle" x="447.5" y="-299.67" font-family="Helvetica,sans-Serif" font-size="10.00">_battery</text>
</a>
</g>
</g>
<!-- Node2&#45;&gt;Node28 -->
<g id="edge31_Node000002_Node000028" class="edge">
<title>Node2&#45;&gt;Node28</title>
<g id="a_edge31_Node000002_Node000028"><a xlink:title=" ">
<path fill="none" stroke="#63b8ff" d="M612.51,-581.27C609.59,-530.57 595.29,-404.12 525.25,-334.17 517.71,-326.64 507.89,-321.38 497.8,-317.7"/>
<polygon fill="#63b8ff" stroke="#63b8ff" points="609.01,-581.36 612.97,-591.19 616,-581.04 609.01,-581.36"/>
</a>
</g>
</g>
<!-- Node29 -->
<g id="Node000029" class="node">
<title>Node29</title>
<g id="a_Node000029"><a xlink:href="group___g_p_s_commands.html#ga926ab365cf351bb507a8c38066ee2eeb" target="_top" xlink:title="Handler for controlling GPS module power state.">
<polygon fill="white" stroke="#666666" points="512.12,-275.17 382.88,-275.17 382.88,-255.17 512.12,-255.17 512.12,-275.17"/>
<text text-anchor="middle" x="447.5" y="-261.67" font-family="Helvetica,sans-Serif" font-size="10.00">handle_gps_power_status</text>
</a>
</g>
</g>
<!-- Node2&#45;&gt;Node29 -->
<g id="edge32_Node000002_Node000029" class="edge">
<title>Node2&#45;&gt;Node29</title>
<g id="a_edge32_Node000002_Node000029"><a xlink:title=" ">
<path fill="none" stroke="#63b8ff" d="M610.19,-581.79C600.56,-517.32 568.85,-326.63 525.25,-284.17 521.51,-280.53 517.19,-277.55 512.55,-275.12"/>
<polygon fill="#63b8ff" stroke="#63b8ff" points="606.69,-582.03 611.6,-591.42 613.62,-581.02 606.69,-582.03"/>
</a>
</g>
</g>
<!-- Node30 -->
<g id="Node000030" class="node">
<title>Node30</title>
<g id="a_Node000030"><a xlink:href="group___clock_commands.html#gaece0975a9dd699742e1db5a411bcc93c" target="_top" xlink:title="Handler for getting and setting system time.">
<polygon fill="white" stroke="#666666" points="481.75,-237.17 413.25,-237.17 413.25,-217.17 481.75,-217.17 481.75,-237.17"/>
<text text-anchor="middle" x="447.5" y="-223.67" font-family="Helvetica,sans-Serif" font-size="10.00">handle_time</text>
</a>
</g>
</g>
<!-- Node2&#45;&gt;Node30 -->
<g id="edge33_Node000002_Node000030" class="edge">
<title>Node2&#45;&gt;Node30</title>
<g id="a_edge33_Node000002_Node000030"><a xlink:title=" ">
<path fill="none" stroke="#63b8ff" d="M609.35,-582.02C595.71,-508.99 549.67,-270.61 525.25,-246.17 514,-234.9 497.18,-229.95 482.16,-227.89"/>
<polygon fill="#63b8ff" stroke="#63b8ff" points="605.84,-582.27 611.11,-591.47 612.72,-581 605.84,-582.27"/>
</a>
</g>
</g>
<!-- Node31 -->
<g id="Node000031" class="node">
<title>Node31</title>
<g id="a_Node000031"><a xlink:href="group___clock_commands.html#ga026ff03f9aa86d2bd305090836f4a79a" target="_top" xlink:title="Handler for getting and setting timezone offset.">
<polygon fill="white" stroke="#666666" points="506.88,-199.17 388.12,-199.17 388.12,-179.17 506.88,-179.17 506.88,-199.17"/>
<text text-anchor="middle" x="447.5" y="-185.67" font-family="Helvetica,sans-Serif" font-size="10.00">handle_timezone_offset</text>
</a>
</g>
</g>
<!-- Node2&#45;&gt;Node31 -->
<g id="edge34_Node000002_Node000031" class="edge">
<title>Node2&#45;&gt;Node31</title>
<g id="a_edge34_Node000002_Node000031"><a xlink:title=" ">
<path fill="none" stroke="#63b8ff" d="M609.17,-581.96C593.67,-501.91 538.71,-221.94 525.25,-208.17 520.17,-202.96 513.9,-199.1 507.15,-196.25"/>
<polygon fill="#63b8ff" stroke="#63b8ff" points="605.68,-582.38 611.01,-591.53 612.56,-581.05 605.68,-582.38"/>
</a>
</g>
</g>
<!-- Node32 -->
<g id="Node000032" class="node">
<title>Node32</title>
<g id="a_Node000032"><a xlink:href="main_8cpp.html#a8fa5379b5bec497b881cec19f2b38779" target="_top" xlink:title=" ">
<polygon fill="white" stroke="#666666" points="303.38,-1171.17 231.88,-1171.17 231.88,-1151.17 303.38,-1151.17 303.38,-1171.17"/>
<text text-anchor="middle" x="267.62" y="-1157.67" font-family="Helvetica,sans-Serif" font-size="10.00">init_systems</text>
</a>
</g>
</g>
<!-- Node2&#45;&gt;Node32 -->
<g id="edge35_Node000002_Node000032" class="edge">
<title>Node2&#45;&gt;Node32</title>
<g id="a_edge35_Node000002_Node000032"><a xlink:title=" ">
<path fill="none" stroke="#63b8ff" d="M613.12,-625.02C612.07,-716.98 602.98,-1070.99 525.25,-1142.17 464.63,-1197.68 358.58,-1183.21 303.72,-1170.68"/>
<polygon fill="#63b8ff" stroke="#63b8ff" points="616.62,-625.18 613.21,-615.15 609.62,-625.11 616.62,-625.18"/>
</a>
</g>
</g>
<!-- Node33 -->
<g id="Node000033" class="node">
<title>Node33</title>
<g id="a_Node000033"><a xlink:href="frame_8cpp.html#af49224563adb4bf0b91daa5ab78120ca" target="_top" xlink:title="Sends the event register value to the ground station.">
<polygon fill="white" stroke="#666666" points="480.62,-123.17 414.38,-123.17 414.38,-103.17 480.62,-103.17 480.62,-123.17"/>
<text text-anchor="middle" x="447.5" y="-109.67" font-family="Helvetica,sans-Serif" font-size="10.00">send_event</text>
</a>
</g>
</g>
<!-- Node2&#45;&gt;Node33 -->
<g id="edge38_Node000002_Node000033" class="edge">
<title>Node2&#45;&gt;Node33</title>
<g id="a_edge38_Node000002_Node000033"><a xlink:title=" ">
<path fill="none" stroke="#63b8ff" d="M609.06,-581.87C600.12,-536.4 578.6,-426.46 561.25,-334.17 544.8,-246.7 584.22,-203.83 525.25,-137.17 514.15,-124.62 496.59,-118.56 481.07,-115.67"/>
<polygon fill="#63b8ff" stroke="#63b8ff" points="605.57,-582.29 610.94,-591.43 612.44,-580.94 605.57,-582.29"/>
</a>
</g>
</g>
<!-- Node34 -->
<g id="Node000034" class="node">
<title>Node34</title>
<g id="a_Node000034"><a xlink:href="test__frame__build_8cpp.html#a6293acd10886f2f4dfd46c0f9b4d3bb9" target="_top" xlink:title=" ">
<polygon fill="white" stroke="#666666" points="324,-793.17 211.25,-793.17 211.25,-773.17 324,-773.17 324,-793.17"/>
<text text-anchor="middle" x="267.62" y="-779.67" font-family="Helvetica,sans-Serif" font-size="10.00">test_frame_build_error</text>
</a>
</g>
</g>
<!-- Node2&#45;&gt;Node34 -->
<g id="edge39_Node000002_Node000034" class="edge">
<title>Node2&#45;&gt;Node34</title>
<g id="a_edge39_Node000002_Node000034"><a xlink:title=" ">
<path fill="none" stroke="#63b8ff" d="M611.77,-624.67C606.17,-699.08 583.54,-943.65 525.25,-990.17 471.23,-1033.28 427.21,-1028.58 369.75,-990.17 334.96,-966.91 351.75,-940.94 333.75,-903.17 313.96,-861.66 286.77,-814.15 274.75,-793.57"/>
<polygon fill="#63b8ff" stroke="#63b8ff" points="615.24,-625.27 612.47,-615.04 608.26,-624.76 615.24,-625.27"/>
</a>
</g>
</g>
<!-- Node35 -->
<g id="Node000035" class="node">
<title>Node35</title>
<g id="a_Node000035"><a xlink:href="test__frame__build_8cpp.html#a9fb40fc4c0a9cb36690dd62d5f497c22" target="_top" xlink:title=" ">
<polygon fill="white" stroke="#666666" points="322.12,-553.17 213.12,-553.17 213.12,-533.17 322.12,-533.17 322.12,-553.17"/>
<text text-anchor="middle" x="267.62" y="-539.67" font-family="Helvetica,sans-Serif" font-size="10.00">test_frame_build_info</text>
</a>
</g>
</g>
<!-- Node2&#45;&gt;Node35 -->
<g id="edge41_Node000002_Node000035" class="edge">
<title>Node2&#45;&gt;Node35</title>
<g id="a_edge41_Node000002_Node000035"><a xlink:title=" ">
<path fill="none" stroke="#63b8ff" d="M609.08,-581.73C592.17,-494.87 529.36,-173.53 525.25,-170.17 471.74,-126.44 424.64,-128.18 369.75,-170.17 308.87,-216.74 276.1,-477.34 269.77,-532.79"/>
<polygon fill="#63b8ff" stroke="#63b8ff" points="605.64,-582.35 610.98,-591.5 612.51,-581.01 605.64,-582.35"/>
</a>
</g>
</g>
<!-- Node36 -->
<g id="Node000036" class="node">
<title>Node36</title>
<g id="a_Node000036"><a xlink:href="test__frame__build_8cpp.html#a8b9d79d3ab4010e537ada45e554dcd5b" target="_top" xlink:title=" ">
<polygon fill="white" stroke="#666666" points="332.62,-111.17 202.62,-111.17 202.62,-91.17 332.62,-91.17 332.62,-111.17"/>
<text text-anchor="middle" x="267.62" y="-97.67" font-family="Helvetica,sans-Serif" font-size="10.00">test_frame_build_success</text>
</a>
</g>
</g>
<!-- Node2&#45;&gt;Node36 -->
<g id="edge43_Node000002_Node000036" class="edge">
<title>Node2&#45;&gt;Node36</title>
<g id="a_edge43_Node000002_Node000036"><a xlink:title=" ">
<path fill="none" stroke="#63b8ff" d="M608.76,-581.59C599.34,-536.01 577.09,-426.52 561.25,-334.17 552.13,-281.02 566.11,-129.36 525.25,-94.17 459.06,-37.16 343.79,-71.55 293.4,-90.8"/>
<polygon fill="#63b8ff" stroke="#63b8ff" points="605.29,-582.12 610.75,-591.21 612.15,-580.7 605.29,-582.12"/>
</a>
</g>
</g>
<!-- Node3&#45;&gt;Node4 -->
<g id="edge3_Node000003_Node000004" class="edge">
<title>Node3&#45;&gt;Node4</title>
<g id="a_edge3_Node000003_Node000004"><a xlink:title=" ">
<path fill="none" stroke="#63b8ff" d="M386.69,-1110.39C360.82,-1104.86 331.26,-1098.55 308.18,-1093.62"/>
<polygon fill="#63b8ff" stroke="#63b8ff" points="385.9,-1113.8 396.41,-1112.47 387.37,-1106.96 385.9,-1113.8"/>
</a>
</g>
</g>
<!-- Node5 -->
<g id="Node000005" class="node">
<title>Node5</title>
<g id="a_Node000005"><a xlink:href="receive_8cpp.html#a14ffba44d46e00b23bd72bdb3a4d58d1" target="_top" xlink:title="Handles UART input.">
<polygon fill="white" stroke="#666666" points="165.5,-1133.17 73,-1133.17 73,-1113.17 165.5,-1113.17 165.5,-1133.17"/>
<text text-anchor="middle" x="119.25" y="-1119.67" font-family="Helvetica,sans-Serif" font-size="10.00">handle_uart_input</text>
</a>
</g>
</g>
<!-- Node4&#45;&gt;Node5 -->
<g id="edge4_Node000004_Node000005" class="edge">
<title>Node4&#45;&gt;Node5</title>
<g id="a_edge4_Node000004_Node000005"><a xlink:title=" ">
<path fill="none" stroke="#63b8ff" d="M216.05,-1098.3C197.94,-1103 177.79,-1108.23 160.66,-1112.68"/>
<polygon fill="#63b8ff" stroke="#63b8ff" points="216.75,-1101.73 225.55,-1095.83 214.99,-1094.96 216.75,-1101.73"/>
</a>
</g>
</g>
<!-- Node7 -->
<g id="Node000007" class="node">
<title>Node7</title>
<g id="a_Node000007"><a xlink:href="receive_8cpp.html#a3f494105dee3a08e1244febc81982517" target="_top" xlink:title="Callback function for handling received LoRa packets.">
<polygon fill="white" stroke="#666666" points="150.88,-1095.17 87.62,-1095.17 87.62,-1075.17 150.88,-1075.17 150.88,-1095.17"/>
<text text-anchor="middle" x="119.25" y="-1081.67" font-family="Helvetica,sans-Serif" font-size="10.00">on_receive</text>
</a>
</g>
</g>
<!-- Node4&#45;&gt;Node7 -->
<g id="edge6_Node000004_Node000007" class="edge">
<title>Node4&#45;&gt;Node7</title>
<g id="a_edge6_Node000004_Node000007"><a xlink:title=" ">
<path fill="none" stroke="#63b8ff" d="M215.73,-1085.17C194.19,-1085.17 169.81,-1085.17 151.07,-1085.17"/>
<polygon fill="#63b8ff" stroke="#63b8ff" points="215.5,-1088.67 225.5,-1085.17 215.5,-1081.67 215.5,-1088.67"/>
</a>
</g>
</g>
<!-- Node5&#45;&gt;Node6 -->
<g id="edge5_Node000005_Node000006" class="edge">
<title>Node5&#45;&gt;Node6</title>
<g id="a_edge5_Node000005_Node000006"><a xlink:title=" ">
<path fill="none" stroke="#63b8ff" d="M61.47,-1134.09C52.72,-1135.78 44.3,-1137.4 37.31,-1138.74"/>
<polygon fill="#63b8ff" stroke="#63b8ff" points="61.99,-1137.56 71.15,-1132.23 60.67,-1130.68 61.99,-1137.56"/>
</a>
</g>
</g>
<!-- Node7&#45;&gt;Node6 -->
<g id="edge7_Node000007_Node000006" class="edge">
<title>Node7&#45;&gt;Node6</title>
<g id="a_edge7_Node000007_Node000006"><a xlink:title=" ">
<path fill="none" stroke="#63b8ff" d="M80.72,-1100.16C78.07,-1101.45 75.48,-1102.79 73,-1104.17 58.26,-1112.36 42.69,-1123.78 32.16,-1131.96"/>
<polygon fill="#63b8ff" stroke="#63b8ff" points="81.97,-1103.44 89.61,-1096.1 79.06,-1097.07 81.97,-1103.44"/>
</a>
</g>
</g>
<!-- Node8&#45;&gt;Node4 -->
<g id="edge9_Node000008_Node000004" class="edge">
<title>Node8&#45;&gt;Node4</title>
<g id="a_edge9_Node000008_Node000004"><a xlink:title=" ">
<path fill="none" stroke="#63b8ff" d="M397.17,-1057.71C369.14,-1063.7 334.51,-1071.09 308.26,-1076.7"/>
<polygon fill="#63b8ff" stroke="#63b8ff" points="397.81,-1061.15 406.86,-1055.64 396.35,-1054.3 397.81,-1061.15"/>
</a>
</g>
</g>
<!-- Node9 -->
<g id="Node000009" class="node">
<title>Node9</title>
<g id="a_Node000009"><a xlink:href="test__frame__coding_8cpp.html#a75deef6947cf7117a58214b4298ecec9" target="_top" xlink:title=" ">
<polygon fill="white" stroke="#666666" points="331.5,-932.17 203.75,-932.17 203.75,-912.17 331.5,-912.17 331.5,-932.17"/>
<text text-anchor="middle" x="267.62" y="-918.67" font-family="Helvetica,sans-Serif" font-size="10.00">test_frame_decode_basic</text>
</a>
</g>
</g>
<!-- Node8&#45;&gt;Node9 -->
<g id="edge10_Node000008_Node000009" class="edge">
<title>Node8&#45;&gt;Node9</title>
<g id="a_edge10_Node000008_Node000009"><a xlink:title=" ">
<path fill="none" stroke="#63b8ff" d="M397.56,-1035.75C387.97,-1032.45 378.26,-1028.31 369.75,-1023.17 358.97,-1016.65 301.7,-956.96 278.45,-932.53"/>
<polygon fill="#63b8ff" stroke="#63b8ff" points="396.23,-1039 406.82,-1038.66 398.33,-1032.32 396.23,-1039"/>
</a>
</g>
</g>
<!-- Node11 -->
<g id="Node000011" class="node">
<title>Node11</title>
<g id="a_Node000011"><a xlink:href="test__frame__coding_8cpp.html#a054000b3d2c0abb2e13b9109ae0969ef" target="_top" xlink:title=" ">
<polygon fill="white" stroke="#666666" points="333.75,-1032.17 201.5,-1032.17 201.5,-1000.17 333.75,-1000.17 333.75,-1032.17"/>
<text text-anchor="start" x="209.5" y="-1018.67" font-family="Helvetica,sans-Serif" font-size="10.00">test_frame_decode_invalid</text>
<text text-anchor="middle" x="267.62" y="-1006.67" font-family="Helvetica,sans-Serif" font-size="10.00">_header</text>
</a>
</g>
</g>
<!-- Node8&#45;&gt;Node11 -->
<g id="edge12_Node000008_Node000011" class="edge">
<title>Node8&#45;&gt;Node11</title>
<g id="a_edge12_Node000008_Node000011"><a xlink:title=" ">
<path fill="none" stroke="#63b8ff" d="M397.24,-1038.58C377.69,-1035.18 354.92,-1031.21 334.03,-1027.57"/>
<polygon fill="#63b8ff" stroke="#63b8ff" points="396.4,-1041.99 406.85,-1040.26 397.6,-1035.09 396.4,-1041.99"/>
</a>
</g>
</g>
<!-- Node10 -->
<g id="Node000010" class="node">
<title>Node10</title>
<g id="a_Node000010"><a xlink:href="test__runner_8cpp.html#a840291bc02cba5474a4cb46a9b9566fe" target="_top" xlink:title=" ">
<polygon fill="white" stroke="#666666" points="137.75,-774.17 100.75,-774.17 100.75,-754.17 137.75,-754.17 137.75,-774.17"/>
<text text-anchor="middle" x="119.25" y="-760.67" font-family="Helvetica,sans-Serif" font-size="10.00">main</text>
</a>
</g>
</g>
<!-- Node9&#45;&gt;Node10 -->
<g id="edge11_Node000009_Node000010" class="edge">
<title>Node9&#45;&gt;Node10</title>
<g id="a_edge11_Node000009_Node000010"><a xlink:title=" ">
<path fill="none" stroke="#63b8ff" d="M249.57,-903.76C218.56,-870.29 153.93,-800.53 129.7,-774.37"/>
<polygon fill="#63b8ff" stroke="#63b8ff" points="246.63,-905.73 255.99,-910.69 251.76,-900.98 246.63,-905.73"/>
</a>
</g>
</g>
<!-- Node11&#45;&gt;Node10 -->
<g id="edge13_Node000011_Node000010" class="edge">
<title>Node11&#45;&gt;Node10</title>
<g id="a_edge13_Node000011_Node000010"><a xlink:title=" ">
<path fill="none" stroke="#63b8ff" d="M242.11,-991.6C228.99,-977.61 213.19,-959.29 201.5,-941.17 163.39,-882.06 133.57,-802.16 123.73,-774.27"/>
<polygon fill="#63b8ff" stroke="#63b8ff" points="239.38,-993.81 248.82,-998.62 244.44,-988.97 239.38,-993.81"/>
</a>
</g>
</g>
<!-- Node32&#45;&gt;Node6 -->
<g id="edge36_Node000032_Node000006" class="edge">
<title>Node32&#45;&gt;Node6</title>
<g id="a_edge36_Node000032_Node000006"><a xlink:title=" ">
<path fill="none" stroke="#63b8ff" d="M220.22,-1157.6C164.88,-1153.35 75.09,-1146.44 37.23,-1143.53"/>
<polygon fill="#63b8ff" stroke="#63b8ff" points="219.73,-1161.07 229.97,-1158.35 220.27,-1154.09 219.73,-1161.07"/>
</a>
</g>
</g>
<!-- Node34&#45;&gt;Node10 -->
<g id="edge40_Node000034_Node000010" class="edge">
<title>Node34&#45;&gt;Node10</title>
<g id="a_edge40_Node000034_Node000010"><a xlink:title=" ">
<path fill="none" stroke="#63b8ff" d="M199.51,-774.46C176.88,-771.52 153.47,-768.48 138.02,-766.48"/>
<polygon fill="#63b8ff" stroke="#63b8ff" points="199,-777.92 209.37,-775.74 199.9,-770.98 199,-777.92"/>
</a>
</g>
</g>
<!-- Node35&#45;&gt;Node10 -->
<g id="edge42_Node000035_Node000010" class="edge">
<title>Node35&#45;&gt;Node10</title>
<g id="a_edge42_Node000035_Node000010"><a xlink:title=" ">
<path fill="none" stroke="#63b8ff" d="M253.55,-562.91C223.41,-608.41 149.89,-719.42 127.1,-753.83"/>
<polygon fill="#63b8ff" stroke="#63b8ff" points="256.32,-565.06 258.93,-554.79 250.49,-561.2 256.32,-565.06"/>
</a>
</g>
</g>
<!-- Node36&#45;&gt;Node10 -->
<g id="edge44_Node000036_Node000010" class="edge">
<title>Node36&#45;&gt;Node10</title>
<g id="a_edge44_Node000036_Node000010"><a xlink:title=" ">
<path fill="none" stroke="#63b8ff" d="M261.84,-122.82C238.73,-227.53 138.97,-679.37 122.54,-753.78"/>
<polygon fill="#63b8ff" stroke="#63b8ff" points="265.26,-123.58 264,-113.06 258.43,-122.07 265.26,-123.58"/>
</a>
</g>
</g>
<!-- Node37&#45;&gt;Node10 -->
<g id="edge46_Node000037_Node000010" class="edge">
<title>Node37&#45;&gt;Node10</title>
<g id="a_edge46_Node000037_Node000010"><a xlink:title=" ">
<path fill="none" stroke="#63b8ff" d="M613.1,-281.66C611.12,-228.16 598.23,-110.85 525.25,-59.17 407.53,24.2 302.62,20.71 201.5,-82.17 152.08,-132.45 124.63,-671.89 120.73,-753.78"/>
<polygon fill="#63b8ff" stroke="#63b8ff" points="609.59,-281.51 613.34,-291.42 616.59,-281.34 609.59,-281.51"/>
</a>
</g>
</g>
</g>
</svg>

<g id="navigator" transform="translate(0 0)" fill="#404254">
  <rect fill="#f2f5e9" fill-opacity="0.5" stroke="#606060" stroke-width=".5" x="0" y="0" width="60" height="60"/>
  <use id="zoomplus" xlink:href="#zoomPlus" x="17" y="9" onmousedown="handleZoom(evt,'in')"/>
  <use id="zoomminus" xlink:href="#zoomMin" x="42" y="9" onmousedown="handleZoom(evt,'out')"/>
  <use id="reset" xlink:href="#resetDef" x="30" y="36" onmousedown="handleReset()"/>
   <use id="arrowup" xlink:href="#arrowUp" x="0" y="0" onmousedown="handlePan(0,-1)"/>
  <use id="arrowright" xlink:href="#arrowRight" x="0" y="0" onmousedown="handlePan(1,0)"/>
  <use id="arrowdown" xlink:href="#arrowDown" x="0" y="0" onmousedown="handlePan(0,1)"/>
  <use id="arrowleft" xlink:href="#arrowLeft" x="0" y="0" onmousedown="handlePan(-1,0)"/>
</g>
<svg viewBox="0 0 15 15" width="100%" height="30px" preserveAspectRatio="xMaxYMin meet">
 <g id="arrow_out" transform="scale(0.3 0.3)">
  <a xlink:href="utils__converters_8cpp_a29531ed9ad98ab78384a8a2f37f4e77d_icgraph_org.svg" target="_base">
   <rect id="button" ry="5" rx="5" y="6" x="6" height="38" width="38"
        fill="#f2f5e9" fill-opacity="0.5" stroke="#606060" stroke-width="1.0"/>
   <path id="arrow"
     d="M 11.500037,31.436501 C 11.940474,20.09759 22.043105,11.32322 32.158766,21.979434 L 37.068811,17.246167 C 37.068811,17.246167 37.088388,32 37.088388,32 L 22.160133,31.978069 C 22.160133,31.978069 26.997745,27.140456 26.997745,27.140456 C 18.528582,18.264221 13.291696,25.230495 11.500037,31.436501 z"
     style="fill:#404040;"/>
  </a>
 </g>
</svg>

<style type='text/css'>
<![CDATA[
[data-mouse-over-selected='false'] { opacity: 0.7; }
[data-mouse-over-selected='true']  { opacity: 1.0; }
]]>
</style>
<script type="application/ecmascript"><![CDATA[
document.addEventListener('DOMContentLoaded', (event) => {
  highlightEdges();
  highlightAdjacentNodes();
});
]]></script>
</svg>
