<?xml version="1.0" encoding="UTF-8" standalone="no"?>
<!DOCTYPE svg PUBLIC "-//W3C//DTD SVG 1.1//EN"
 "http://www.w3.org/Graphics/SVG/1.1/DTD/svg11.dtd">
<!-- Generated by graphviz version 12.2.1 (20241206.2353)
 -->
<!-- Title: uartPrint Pages: 1 -->
<!--zoomable 750 -->

<svg id="main" version="1.1" xmlns="http://www.w3.org/2000/svg" xmlns:xlink="http://www.w3.org/1999/xlink" xml:space="preserve" onload="init(evt)">

<style type="text/css"><![CDATA[
.node, .edge {opacity: 0.7;}
.node.selected, .edge.selected {opacity: 1;}
.edge:hover path { stroke: red; }
.edge:hover polygon { stroke: red; fill: red; }
]]></style>

<defs>
  <circle id="rim" cx="0" cy="0" r="7"/>
  <circle id="rim2" cx="0" cy="0" r="3.5"/>
  <g id="zoomPlus">
    <use xlink:href="#rim" fill="#404040"><set attributeName="fill" to="#808080" begin="zoomplus.mouseover" end="zoomplus.mouseout"/></use>
    <path d="M-4,0h8M0,-4v8" fill="none" stroke="white" stroke-width="1.5" pointer-events="none"/>
  </g>
  <g id="zoomMin">
    <use xlink:href="#rim" fill="#404040"><set attributeName="fill" to="#808080" begin="zoomminus.mouseover" end="zoomminus.mouseout"/></use>
    <path d="M-4,0h8" fill="none" stroke="white" stroke-width="1.5" pointer-events="none"/>
  </g>
  <g id="arrowUp" transform="translate(30 24)">
    <use xlink:href="#rim"/>
    <path pointer-events="none" fill="none" stroke="white" stroke-width="1.5" d="M0,-3.0v7 M-2.5,-0.5L0,-3.0L2.5,-0.5"/>
  </g>
  <g id="arrowRight" transform="rotate(90) translate(36 -43)">
    <use xlink:href="#rim"/>
    <path pointer-events="none" fill="none" stroke="white" stroke-width="1.5" d="M0,-3.0v7 M-2.5,-0.5L0,-3.0L2.5,-0.5"/>
  </g>
  <g id="arrowDown" transform="rotate(180) translate(-30 -48)">
    <use xlink:href="#rim"/>
    <path pointer-events="none" fill="none" stroke="white" stroke-width="1.5" d="M0,-3.0v7 M-2.5,-0.5L0,-3.0L2.5,-0.5"/>
  </g>
  <g id="arrowLeft" transform="rotate(270) translate(-36 17)">
    <use xlink:href="#rim"/>
    <path pointer-events="none" fill="none" stroke="white" stroke-width="1.5" d="M0,-3.0v7 M-2.5,-0.5L0,-3.0L2.5,-0.5"/>
  </g>
  <g id="resetDef">
    <use xlink:href="#rim2" fill="#404040"><set attributeName="fill" to="#808080" begin="reset.mouseover" end="reset.mouseout"/></use>
  </g>
</defs>
<script type="application/ecmascript">
var viewWidth = 875;
var viewHeight = 750;
var sectionId = 'dynsection-2';
</script>
<script type="application/ecmascript" xlink:href="svg.min.js"/>
<svg id="graph" class="graph">
<g id="viewport">
<title>uartPrint</title>
<!-- Node1 -->
<g id="Node000001" class="node">
<title>Node1</title>
<g id="a_Node000001"><a xlink:title="Prints a message to the UART with a timestamp and core number.">
<polygon fill="#999999" stroke="#666666" points="866.5,-381 813.75,-381 813.75,-361 866.5,-361 866.5,-381"/>
<text text-anchor="middle" x="840.12" y="-367.5" font-family="Helvetica,sans-Serif" font-size="10.00">uartPrint</text>
</a>
</g>
</g>
<!-- Node2 -->
<g id="Node000002" class="node">
<title>Node2</title>
<g id="a_Node000002"><a xlink:href="class_i_n_a3221.html#a868af24425b042f330a0e7fae8210936" target="_top" xlink:title=" ">
<polygon fill="white" stroke="#666666" points="733.88,-742 650.38,-742 650.38,-722 733.88,-722 733.88,-742"/>
<text text-anchor="middle" x="692.12" y="-728.5" font-family="Helvetica,sans-Serif" font-size="10.00">INA3221::begin</text>
</a>
</g>
</g>
<!-- Node1&#45;&gt;Node2 -->
<g id="edge1_Node000001_Node000002" class="edge">
<title>Node1&#45;&gt;Node2</title>
<g id="a_edge1_Node000001_Node000002"><a xlink:title=" ">
<path fill="none" stroke="#63b8ff" d="M838.11,-392.56C834.51,-459.36 820.29,-661.16 777.75,-708 766.66,-720.21 749.87,-726.39 734.16,-729.45"/>
<polygon fill="#63b8ff" stroke="#63b8ff" points="841.58,-393.08 838.59,-382.92 834.59,-392.73 841.58,-393.08"/>
</a>
</g>
</g>
<!-- Node3 -->
<g id="Node000003" class="node">
<title>Node3</title>
<g id="a_Node000003"><a xlink:href="event__manager_8cpp.html#a467714d66058f52e4ac7aeb6df46b433" target="_top" xlink:title="Checks power statuses and triggers events based on voltage trends.">
<polygon fill="white" stroke="#666666" points="742.5,-666 641.75,-666 641.75,-646 742.5,-646 742.5,-666"/>
<text text-anchor="middle" x="692.12" y="-652.5" font-family="Helvetica,sans-Serif" font-size="10.00">checkPowerEvents</text>
</a>
</g>
</g>
<!-- Node1&#45;&gt;Node3 -->
<g id="edge2_Node000001_Node000003" class="edge">
<title>Node1&#45;&gt;Node3</title>
<g id="a_edge2_Node000001_Node000003"><a xlink:title=" ">
<path fill="none" stroke="#63b8ff" d="M837.09,-392.44C831.25,-449.37 812.59,-602.36 777.75,-637 768.46,-646.24 755.71,-651.39 742.93,-654.17"/>
<polygon fill="#63b8ff" stroke="#63b8ff" points="840.55,-393.07 838.05,-382.77 833.58,-392.38 840.55,-393.07"/>
</a>
</g>
</g>
<!-- Node5 -->
<g id="Node000005" class="node">
<title>Node5</title>
<g id="a_Node000005"><a xlink:href="main_8cpp.html#ae66f6b31b5ad750f1fe042a706a4e3d4" target="_top" xlink:title=" ">
<polygon fill="white" stroke="#666666" points="37,-552 0,-552 0,-532 37,-532 37,-552"/>
<text text-anchor="middle" x="18.5" y="-538.5" font-family="Helvetica,sans-Serif" font-size="10.00">main</text>
</a>
</g>
</g>
<!-- Node1&#45;&gt;Node5 -->
<g id="edge28_Node000001_Node000005" class="edge">
<title>Node1&#45;&gt;Node5</title>
<g id="a_edge28_Node000001_Node000005"><a xlink:title=" ">
<path fill="none" stroke="#63b8ff" d="M838.04,-392.42C834.38,-455.29 820.25,-637.32 777.75,-675 697.77,-745.91 644.89,-694 538,-694 538,-694 538,-694 242.62,-694 158.3,-694 138.53,-662.07 73,-609 52.41,-592.32 34.59,-566.45 25.64,-552.23"/>
<polygon fill="#63b8ff" stroke="#63b8ff" points="841.52,-392.89 838.57,-382.71 834.53,-392.51 841.52,-392.89"/>
</a>
</g>
</g>
<!-- Node6 -->
<g id="Node000006" class="node">
<title>Node6</title>
<g id="a_Node000006"><a xlink:href="gps__collector_8cpp.html#abe46d88c89b1f730f6c9a230acac2a6a" target="_top" xlink:title=" ">
<polygon fill="white" stroke="#666666" points="735.38,-628 648.88,-628 648.88,-608 735.38,-608 735.38,-628"/>
<text text-anchor="middle" x="692.12" y="-614.5" font-family="Helvetica,sans-Serif" font-size="10.00">collectGPSData</text>
</a>
</g>
</g>
<!-- Node1&#45;&gt;Node6 -->
<g id="edge5_Node000001_Node000006" class="edge">
<title>Node1&#45;&gt;Node6</title>
<g id="a_edge5_Node000001_Node000006"><a xlink:title=" ">
<path fill="none" stroke="#63b8ff" d="M839.73,-392.71C839.72,-436.95 833.22,-538.09 777.75,-594 766.67,-605.17 750.81,-611.23 735.8,-614.49"/>
<polygon fill="#63b8ff" stroke="#63b8ff" points="843.23,-392.83 839.6,-382.88 836.23,-392.92 843.23,-392.83"/>
</a>
</g>
</g>
<!-- Node7 -->
<g id="Node000007" class="node">
<title>Node7</title>
<g id="a_Node000007"><a xlink:href="frame_8cpp.html#a8f34bc31494430539db21206f084d39d" target="_top" xlink:title="Converts a string into a Frame instance.">
<polygon fill="white" stroke="#666666" points="436,-514 360.75,-514 360.75,-494 436,-494 436,-514"/>
<text text-anchor="middle" x="398.38" y="-500.5" font-family="Helvetica,sans-Serif" font-size="10.00">decodeFrame</text>
</a>
</g>
</g>
<!-- Node1&#45;&gt;Node7 -->
<g id="edge7_Node000001_Node000007" class="edge">
<title>Node1&#45;&gt;Node7</title>
<g id="a_edge7_Node000001_Node000007"><a xlink:title=" ">
<path fill="none" stroke="#63b8ff" d="M833.83,-392.18C826.18,-417.86 809.35,-460.16 777.75,-480 669.74,-547.81 508.49,-526.73 436.45,-512.46"/>
<polygon fill="#63b8ff" stroke="#63b8ff" points="837.12,-393.42 836.39,-382.85 830.37,-391.56 837.12,-393.42"/>
</a>
</g>
</g>
<!-- Node9 -->
<g id="Node000009" class="node">
<title>Node9</title>
<g id="a_Node000009"><a xlink:href="receive_8cpp.html#ac5e175a6a1482f700f9aee0b727b924f" target="_top" xlink:title="Handles UART input.">
<polygon fill="white" stroke="#666666" points="158,-552 73,-552 73,-532 158,-532 158,-552"/>
<text text-anchor="middle" x="115.5" y="-538.5" font-family="Helvetica,sans-Serif" font-size="10.00">handleUartInput</text>
</a>
</g>
</g>
<!-- Node1&#45;&gt;Node9 -->
<g id="edge22_Node000001_Node000009" class="edge">
<title>Node1&#45;&gt;Node9</title>
<g id="a_edge22_Node000001_Node000009"><a xlink:title=" ">
<path fill="none" stroke="#63b8ff" d="M836.84,-392.67C832.12,-425.47 818.1,-487.06 777.75,-517 691.71,-580.84 645.13,-542 538,-542 538,-542 538,-542 397.38,-542 312.53,-542 213.26,-542 158.38,-542"/>
<polygon fill="#63b8ff" stroke="#63b8ff" points="840.31,-393.13 838.08,-382.77 833.36,-392.26 840.31,-393.13"/>
</a>
</g>
</g>
<!-- Node10 -->
<g id="Node000010" class="node">
<title>Node10</title>
<g id="a_Node000010"><a xlink:href="receive_8cpp.html#a54817002e33761dc61558b1138749dfb" target="_top" xlink:title="Callback function for handling received LoRa packets.">
<polygon fill="white" stroke="#666666" points="146.75,-514 84.25,-514 84.25,-494 146.75,-494 146.75,-514"/>
<text text-anchor="middle" x="115.5" y="-500.5" font-family="Helvetica,sans-Serif" font-size="10.00">onReceive</text>
</a>
</g>
</g>
<!-- Node1&#45;&gt;Node10 -->
<g id="edge29_Node000001_Node000010" class="edge">
<title>Node1&#45;&gt;Node10</title>
<g id="a_edge29_Node000001_Node000010"><a xlink:title=" ">
<path fill="none" stroke="#63b8ff" d="M828.83,-391.48C818.57,-409.51 800.98,-434.75 777.75,-447 683.2,-496.86 644.89,-466 538,-466 538,-466 538,-466 397.38,-466 306.59,-466 283.52,-469.93 194,-485 178.43,-487.62 161.35,-491.68 147.21,-495.37"/>
<polygon fill="#63b8ff" stroke="#63b8ff" points="831.9,-393.16 833.55,-382.7 825.73,-389.85 831.9,-393.16"/>
</a>
</g>
</g>
<!-- Node11 -->
<g id="Node000011" class="node">
<title>Node11</title>
<g id="a_Node000011"><a xlink:href="group___g_p_s_commands.html#gad12f2e18bdfecbd5b6e8d8a84bb9cd77" target="_top" xlink:title="Handler for enabling GPS transparent mode (UART pass&#45;through)">
<polygon fill="white" stroke="#666666" points="777.75,-324 606.5,-324 606.5,-304 777.75,-304 777.75,-324"/>
<text text-anchor="middle" x="692.12" y="-310.5" font-family="Helvetica,sans-Serif" font-size="10.00">handleEnableGPSTransparentMode</text>
</a>
</g>
</g>
<!-- Node1&#45;&gt;Node11 -->
<g id="edge13_Node000001_Node000011" class="edge">
<title>Node1&#45;&gt;Node11</title>
<g id="a_edge13_Node000001_Node000011"><a xlink:title=" ">
<path fill="none" stroke="#63b8ff" d="M812.32,-354.95C801.79,-349.09 789.44,-342.73 777.75,-338 764.73,-332.73 750.14,-328.14 736.78,-324.44"/>
<polygon fill="#63b8ff" stroke="#63b8ff" points="810.42,-357.9 820.84,-359.83 813.9,-351.82 810.42,-357.9"/>
</a>
</g>
</g>
<!-- Node12 -->
<g id="Node000012" class="node">
<title>Node12</title>
<g id="a_Node000012"><a xlink:href="group___diagnostic_commands.html#ga3a6c6092cd01fd9c13ab429f4a34326d" target="_top" xlink:title="Reboot system to USB firmware loader.">
<polygon fill="white" stroke="#666666" points="467.5,-286 329.25,-286 329.25,-266 467.5,-266 467.5,-286"/>
<text text-anchor="middle" x="398.38" y="-272.5" font-family="Helvetica,sans-Serif" font-size="10.00">handleEnterBootloaderMode</text>
</a>
</g>
</g>
<!-- Node1&#45;&gt;Node12 -->
<g id="edge14_Node000001_Node000012" class="edge">
<title>Node1&#45;&gt;Node12</title>
<g id="a_edge14_Node000001_Node000012"><a xlink:title=" ">
<path fill="none" stroke="#63b8ff" d="M802.28,-366.22C756.22,-359.96 675.09,-347.99 606.5,-333 598.1,-331.16 494.22,-302.37 436.85,-286.43"/>
<polygon fill="#63b8ff" stroke="#63b8ff" points="801.61,-369.66 811.98,-367.52 802.54,-362.72 801.61,-369.66"/>
</a>
</g>
</g>
<!-- Node13 -->
<g id="Node000013" class="node">
<title>Node13</title>
<g id="a_Node000013"><a xlink:href="group___power_commands.html#ga6fbaf484e68c9561ad7fabef21def37b" target="_top" xlink:title="Handler for getting solar panel charge current.">
<polygon fill="white" stroke="#666666" points="765.38,-286 618.88,-286 618.88,-266 765.38,-266 765.38,-286"/>
<text text-anchor="middle" x="692.12" y="-272.5" font-family="Helvetica,sans-Serif" font-size="10.00">handleGetCurrentChargeSolar</text>
</a>
</g>
</g>
<!-- Node1&#45;&gt;Node13 -->
<g id="edge15_Node000001_Node000013" class="edge">
<title>Node1&#45;&gt;Node13</title>
<g id="a_edge15_Node000001_Node000013"><a xlink:title=" ">
<path fill="none" stroke="#63b8ff" d="M828.06,-350.71C817.45,-333.23 799.82,-308.72 777.75,-295 772.25,-291.58 766.21,-288.78 759.97,-286.47"/>
<polygon fill="#63b8ff" stroke="#63b8ff" points="824.94,-352.31 832.97,-359.22 831,-348.81 824.94,-352.31"/>
</a>
</g>
</g>
<!-- Node14 -->
<g id="Node000014" class="node">
<title>Node14</title>
<g id="a_Node000014"><a xlink:href="group___power_commands.html#ga83596ea837df6cf7b15e673b95bf524f" target="_top" xlink:title="Handler for getting total charge current.">
<polygon fill="white" stroke="#666666" points="764.62,-248 619.62,-248 619.62,-228 764.62,-228 764.62,-248"/>
<text text-anchor="middle" x="692.12" y="-234.5" font-family="Helvetica,sans-Serif" font-size="10.00">handleGetCurrentChargeTotal</text>
</a>
</g>
</g>
<!-- Node1&#45;&gt;Node14 -->
<g id="edge16_Node000001_Node000014" class="edge">
<title>Node1&#45;&gt;Node14</title>
<g id="a_edge16_Node000001_Node000014"><a xlink:title=" ">
<path fill="none" stroke="#63b8ff" d="M833.56,-349.69C825.63,-323.69 808.52,-280.34 777.75,-257 773.19,-253.54 768.12,-250.69 762.79,-248.35"/>
<polygon fill="#63b8ff" stroke="#63b8ff" points="830.14,-350.46 836.24,-359.13 836.87,-348.55 830.14,-350.46"/>
</a>
</g>
</g>
<!-- Node15 -->
<g id="Node000015" class="node">
<title>Node15</title>
<g id="a_Node000015"><a xlink:href="group___power_commands.html#ga3f38c538065bf67dbec1142fdb866d16" target="_top" xlink:title="Handler for getting USB charge current.">
<polygon fill="white" stroke="#666666" points="764.62,-210 619.62,-210 619.62,-190 764.62,-190 764.62,-210"/>
<text text-anchor="middle" x="692.12" y="-196.5" font-family="Helvetica,sans-Serif" font-size="10.00">handleGetCurrentChargeUSB</text>
</a>
</g>
</g>
<!-- Node1&#45;&gt;Node15 -->
<g id="edge17_Node000001_Node000015" class="edge">
<title>Node1&#45;&gt;Node15</title>
<g id="a_edge17_Node000001_Node000015"><a xlink:title=" ">
<path fill="none" stroke="#63b8ff" d="M836.73,-349.49C831.84,-316.28 817.57,-252.81 777.75,-219 773.73,-215.59 769.23,-212.76 764.46,-210.41"/>
<polygon fill="#63b8ff" stroke="#63b8ff" points="833.22,-349.65 837.98,-359.12 840.16,-348.75 833.22,-349.65"/>
</a>
</g>
</g>
<!-- Node16 -->
<g id="Node000016" class="node">
<title>Node16</title>
<g id="a_Node000016"><a xlink:href="group___power_commands.html#gabd6610f557fe9deaa9f80d9405738226" target="_top" xlink:title="Handler for getting system current draw.">
<polygon fill="white" stroke="#666666" points="750,-172 634.25,-172 634.25,-152 750,-152 750,-172"/>
<text text-anchor="middle" x="692.12" y="-158.5" font-family="Helvetica,sans-Serif" font-size="10.00">handleGetCurrentDraw</text>
</a>
</g>
</g>
<!-- Node1&#45;&gt;Node16 -->
<g id="edge18_Node000001_Node000016" class="edge">
<title>Node1&#45;&gt;Node16</title>
<g id="a_edge18_Node000001_Node000016"><a xlink:title=" ">
<path fill="none" stroke="#63b8ff" d="M838.75,-349.59C836.83,-310.11 826.86,-225.81 777.75,-181 770.07,-174 760.39,-169.39 750.33,-166.39"/>
<polygon fill="#63b8ff" stroke="#63b8ff" points="835.24,-349.54 839.08,-359.42 842.24,-349.31 835.24,-349.54"/>
</a>
</g>
</g>
<!-- Node17 -->
<g id="Node000017" class="node">
<title>Node17</title>
<g id="a_Node000017"><a xlink:href="group___power_commands.html#ga9f2b608f46080fcdae38a1a8454938b8" target="_top" xlink:title="Handler for getting 5V rail voltage.">
<polygon fill="white" stroke="#666666" points="744.38,-134 639.88,-134 639.88,-114 744.38,-114 744.38,-134"/>
<text text-anchor="middle" x="692.12" y="-120.5" font-family="Helvetica,sans-Serif" font-size="10.00">handleGetVoltage5V</text>
</a>
</g>
</g>
<!-- Node1&#45;&gt;Node17 -->
<g id="edge19_Node000001_Node000017" class="edge">
<title>Node1&#45;&gt;Node17</title>
<g id="a_edge19_Node000001_Node000017"><a xlink:title=" ">
<path fill="none" stroke="#63b8ff" d="M836.16,-349.29C828.74,-298.06 807.76,-171.77 777.75,-143 768.73,-134.35 756.66,-129.31 744.47,-126.45"/>
<polygon fill="#63b8ff" stroke="#63b8ff" points="832.68,-349.68 837.55,-359.09 839.62,-348.7 832.68,-349.68"/>
</a>
</g>
</g>
<!-- Node18 -->
<g id="Node000018" class="node">
<title>Node18</title>
<g id="a_Node000018"><a xlink:href="group___power_commands.html#gad301b8c13cafa148a6f3e80e9b0bcf1a" target="_top" xlink:title="Handler for getting battery voltage.">
<polygon fill="white" stroke="#666666" points="754.12,-96 630.12,-96 630.12,-76 754.12,-76 754.12,-96"/>
<text text-anchor="middle" x="692.12" y="-82.5" font-family="Helvetica,sans-Serif" font-size="10.00">handleGetVoltageBattery</text>
</a>
</g>
</g>
<!-- Node1&#45;&gt;Node18 -->
<g id="edge20_Node000001_Node000018" class="edge">
<title>Node1&#45;&gt;Node18</title>
<g id="a_edge20_Node000001_Node000018"><a xlink:title=" ">
<path fill="none" stroke="#63b8ff" d="M837.09,-349.56C831.25,-292.63 812.59,-139.64 777.75,-105 771.24,-98.52 763.02,-94.06 754.29,-91.01"/>
<polygon fill="#63b8ff" stroke="#63b8ff" points="833.58,-349.62 838.05,-359.23 840.55,-348.93 833.58,-349.62"/>
</a>
</g>
</g>
<!-- Node19 -->
<g id="Node000019" class="node">
<title>Node19</title>
<g id="a_Node000019"><a xlink:href="group___diagnostic_commands.html#gade74b82cf2c20d93c5e0ce624cd7ca77" target="_top" xlink:title="Handler for listing all available commands on UART.">
<polygon fill="white" stroke="#666666" points="747.38,-58 636.88,-58 636.88,-38 747.38,-38 747.38,-58"/>
<text text-anchor="middle" x="692.12" y="-44.5" font-family="Helvetica,sans-Serif" font-size="10.00">handleListCommands</text>
</a>
</g>
</g>
<!-- Node1&#45;&gt;Node19 -->
<g id="edge21_Node000001_Node000019" class="edge">
<title>Node1&#45;&gt;Node19</title>
<g id="a_edge21_Node000001_Node000019"><a xlink:title=" ">
<path fill="none" stroke="#63b8ff" d="M837.75,-349.44C833.34,-286.93 817.38,-107.5 777.75,-67 769.64,-58.71 758.75,-53.69 747.49,-50.72"/>
<polygon fill="#63b8ff" stroke="#63b8ff" points="834.24,-349.36 838.4,-359.1 841.22,-348.89 834.24,-349.36"/>
</a>
</g>
</g>
<!-- Node20 -->
<g id="Node000020" class="node">
<title>Node20</title>
<g id="a_Node000020"><a xlink:href="communication_8cpp.html#a520df448c1dc359f42111ac240081975" target="_top" xlink:title="Initializes the LoRa radio module.">
<polygon fill="white" stroke="#666666" points="282,-590 205.25,-590 205.25,-570 282,-570 282,-590"/>
<text text-anchor="middle" x="243.62" y="-576.5" font-family="Helvetica,sans-Serif" font-size="10.00">initializeRadio</text>
</a>
</g>
</g>
<!-- Node1&#45;&gt;Node20 -->
<g id="edge23_Node000001_Node000020" class="edge">
<title>Node1&#45;&gt;Node20</title>
<g id="a_edge23_Node000001_Node000020"><a xlink:title=" ">
<path fill="none" stroke="#63b8ff" d="M839.25,-392.69C838.16,-432.53 829.5,-516.84 777.75,-556 700.08,-614.77 390.39,-593.19 282.18,-583.61"/>
<polygon fill="#63b8ff" stroke="#63b8ff" points="842.75,-392.78 839.36,-382.74 835.75,-392.7 842.75,-392.78"/>
</a>
</g>
</g>
<!-- Node21 -->
<g id="Node000021" class="node">
<title>Node21</title>
<g id="a_Node000021"><a xlink:href="main_8cpp.html#a21af2d50d7779336997d5f3456352431" target="_top" xlink:title=" ">
<polygon fill="white" stroke="#666666" points="432.25,-324 364.5,-324 364.5,-304 432.25,-304 432.25,-324"/>
<text text-anchor="middle" x="398.38" y="-310.5" font-family="Helvetica,sans-Serif" font-size="10.00">initSystems</text>
</a>
</g>
</g>
<!-- Node1&#45;&gt;Node21 -->
<g id="edge25_Node000001_Node000021" class="edge">
<title>Node1&#45;&gt;Node21</title>
<g id="a_edge25_Node000001_Node000021"><a xlink:title=" ">
<path fill="none" stroke="#63b8ff" d="M802.35,-377.85C739.15,-388.02 606.75,-402.29 503.5,-366 484.38,-359.28 485.29,-347.72 467.5,-338 456.6,-332.05 443.95,-327.11 432.52,-323.29"/>
<polygon fill="#63b8ff" stroke="#63b8ff" points="802.55,-381.36 811.83,-376.26 801.39,-374.46 802.55,-381.36"/>
</a>
</g>
</g>
<!-- Node22 -->
<g id="Node000022" class="node">
<title>Node22</title>
<g id="a_Node000022"><a xlink:href="class_event_manager.html#ae73a56091dc8713bb86a11abb6742a14" target="_top" xlink:title="Logs an event.">
<polygon fill="white" stroke="#666666" points="753.75,-20 630.5,-20 630.5,0 753.75,0 753.75,-20"/>
<text text-anchor="middle" x="692.12" y="-6.5" font-family="Helvetica,sans-Serif" font-size="10.00">EventManager::logEvent</text>
</a>
</g>
</g>
<!-- Node1&#45;&gt;Node22 -->
<g id="edge27_Node000001_Node000022" class="edge">
<title>Node1&#45;&gt;Node22</title>
<g id="a_edge27_Node000001_Node000022"><a xlink:title=" ">
<path fill="none" stroke="#63b8ff" d="M838.28,-349.47C835.2,-281.84 822.24,-75.46 777.75,-29 771.29,-22.26 763,-17.67 754.14,-14.58"/>
<polygon fill="#63b8ff" stroke="#63b8ff" points="834.78,-349.38 838.7,-359.22 841.77,-349.08 834.78,-349.38"/>
</a>
</g>
</g>
<!-- Node23 -->
<g id="Node000023" class="node">
<title>Node23</title>
<g id="a_Node000023"><a xlink:href="send_8cpp.html#adcc720dc971ce8b237b26df434b65bb2" target="_top" xlink:title="Sends a message using LoRa.">
<polygon fill="white" stroke="#666666" points="730.5,-438 653.75,-438 653.75,-418 730.5,-418 730.5,-438"/>
<text text-anchor="middle" x="692.12" y="-424.5" font-family="Helvetica,sans-Serif" font-size="10.00">sendMessage</text>
</a>
</g>
</g>
<!-- Node1&#45;&gt;Node23 -->
<g id="edge30_Node000001_Node000023" class="edge">
<title>Node1&#45;&gt;Node23</title>
<g id="a_edge30_Node000001_Node000023"><a xlink:title=" ">
<path fill="none" stroke="#63b8ff" d="M812.32,-387.05C801.79,-392.91 789.44,-399.27 777.75,-404 762.75,-410.08 745.66,-415.24 730.79,-419.2"/>
<polygon fill="#63b8ff" stroke="#63b8ff" points="813.9,-390.18 820.84,-382.17 810.42,-384.1 813.9,-390.18"/>
</a>
</g>
</g>
<!-- Node4 -->
<g id="Node000004" class="node">
<title>Node4</title>
<g id="a_Node000004"><a xlink:href="main_8cpp.html#a9f153132b8b4afad133b952111e18bd9" target="_top" xlink:title=" ">
<polygon fill="white" stroke="#666666" points="570.5,-628 503.5,-628 503.5,-608 570.5,-608 570.5,-628"/>
<text text-anchor="middle" x="537" y="-614.5" font-family="Helvetica,sans-Serif" font-size="10.00">core1_entry</text>
</a>
</g>
</g>
<!-- Node3&#45;&gt;Node4 -->
<g id="edge3_Node000003_Node000004" class="edge">
<title>Node3&#45;&gt;Node4</title>
<g id="a_edge3_Node000003_Node000004"><a xlink:title=" ">
<path fill="none" stroke="#63b8ff" d="M631.68,-643.05C623.21,-641.09 614.62,-639.04 606.5,-637 594.77,-634.06 581.98,-630.58 570.66,-627.42"/>
<polygon fill="#63b8ff" stroke="#63b8ff" points="630.69,-646.41 641.22,-645.22 632.25,-639.59 630.69,-646.41"/>
</a>
</g>
</g>
<!-- Node4&#45;&gt;Node5 -->
<g id="edge4_Node000004_Node000005" class="edge">
<title>Node4&#45;&gt;Node5</title>
<g id="a_edge4_Node000004_Node000005"><a xlink:title=" ">
<path fill="none" stroke="#63b8ff" d="M492.04,-623.28C407.29,-631.62 217,-641.32 73,-582 56.27,-575.11 40.06,-561.76 29.96,-552.39"/>
<polygon fill="#63b8ff" stroke="#63b8ff" points="492.18,-626.78 501.77,-622.28 491.47,-619.82 492.18,-626.78"/>
</a>
</g>
</g>
<!-- Node6&#45;&gt;Node4 -->
<g id="edge6_Node000006_Node000004" class="edge">
<title>Node6&#45;&gt;Node4</title>
<g id="a_edge6_Node000006_Node000004"><a xlink:title=" ">
<path fill="none" stroke="#63b8ff" d="M637.17,-618C615,-618 590.05,-618 570.72,-618"/>
<polygon fill="#63b8ff" stroke="#63b8ff" points="636.96,-621.5 646.96,-618 636.96,-614.5 636.96,-621.5"/>
</a>
</g>
</g>
<!-- Node8 -->
<g id="Node000008" class="node">
<title>Node8</title>
<g id="a_Node000008"><a xlink:href="frame_8cpp.html#a8b9407b2f579031cf4b705f1ac03ac31" target="_top" xlink:title="Executes a command based on the command key and the parameter.">
<polygon fill="white" stroke="#666666" points="293.25,-514 194,-514 194,-494 293.25,-494 293.25,-514"/>
<text text-anchor="middle" x="243.62" y="-500.5" font-family="Helvetica,sans-Serif" font-size="10.00">processFrameData</text>
</a>
</g>
</g>
<!-- Node7&#45;&gt;Node8 -->
<g id="edge8_Node000007_Node000008" class="edge">
<title>Node7&#45;&gt;Node8</title>
<g id="a_edge8_Node000007_Node000008"><a xlink:title=" ">
<path fill="none" stroke="#63b8ff" d="M348.91,-504C331.28,-504 311.35,-504 293.68,-504"/>
<polygon fill="#63b8ff" stroke="#63b8ff" points="348.88,-507.5 358.88,-504 348.88,-500.5 348.88,-507.5"/>
</a>
</g>
</g>
<!-- Node8&#45;&gt;Node9 -->
<g id="edge9_Node000008_Node000009" class="edge">
<title>Node8&#45;&gt;Node9</title>
<g id="a_edge9_Node000008_Node000009"><a xlink:title=" ">
<path fill="none" stroke="#63b8ff" d="M197.12,-517.71C181.98,-522.27 165.37,-527.28 151.18,-531.55"/>
<polygon fill="#63b8ff" stroke="#63b8ff" points="197.81,-521.16 206.38,-514.92 195.79,-514.45 197.81,-521.16"/>
</a>
</g>
</g>
<!-- Node8&#45;&gt;Node10 -->
<g id="edge11_Node000008_Node000010" class="edge">
<title>Node8&#45;&gt;Node10</title>
<g id="a_edge11_Node000008_Node000010"><a xlink:title=" ">
<path fill="none" stroke="#63b8ff" d="M181.99,-504C169.88,-504 157.66,-504 147.1,-504"/>
<polygon fill="#63b8ff" stroke="#63b8ff" points="181.99,-507.5 191.99,-504 181.99,-500.5 181.99,-507.5"/>
</a>
</g>
</g>
<!-- Node9&#45;&gt;Node5 -->
<g id="edge10_Node000009_Node000005" class="edge">
<title>Node9&#45;&gt;Node5</title>
<g id="a_edge10_Node000009_Node000005"><a xlink:title=" ">
<path fill="none" stroke="#63b8ff" d="M61.24,-542C52.68,-542 44.36,-542 37.44,-542"/>
<polygon fill="#63b8ff" stroke="#63b8ff" points="61.04,-545.5 71.04,-542 61.04,-538.5 61.04,-545.5"/>
</a>
</g>
</g>
<!-- Node10&#45;&gt;Node5 -->
<g id="edge12_Node000010_Node000005" class="edge">
<title>Node10&#45;&gt;Node5</title>
<g id="a_edge12_Node000010_Node000005"><a xlink:title=" ">
<path fill="none" stroke="#63b8ff" d="M77.95,-518.62C63.98,-524.21 48.66,-530.33 37.22,-534.91"/>
<polygon fill="#63b8ff" stroke="#63b8ff" points="78.9,-522.01 86.88,-515.05 76.3,-515.51 78.9,-522.01"/>
</a>
</g>
</g>
<!-- Node20&#45;&gt;Node5 -->
<g id="edge24_Node000020_Node000005" class="edge">
<title>Node20&#45;&gt;Node5</title>
<g id="a_edge24_Node000020_Node000005"><a xlink:title=" ">
<path fill="none" stroke="#63b8ff" d="M193.73,-577.51C159.57,-575.04 113.08,-570.23 73,-561 60.71,-558.17 47.33,-553.42 37.03,-549.38"/>
<polygon fill="#63b8ff" stroke="#63b8ff" points="193.09,-580.97 203.3,-578.15 193.56,-573.99 193.09,-580.97"/>
</a>
</g>
</g>
<!-- Node21&#45;&gt;Node5 -->
<g id="edge26_Node000021_Node000005" class="edge">
<title>Node21&#45;&gt;Node5</title>
<g id="a_edge26_Node000021_Node000005"><a xlink:title=" ">
<path fill="none" stroke="#63b8ff" d="M353.26,-302.74C284.82,-288.13 152.66,-271.7 73,-338 42.32,-363.53 25.1,-493.51 20.66,-531.54"/>
<polygon fill="#63b8ff" stroke="#63b8ff" points="352.08,-306.07 362.6,-304.82 353.6,-299.23 352.08,-306.07"/>
</a>
</g>
</g>
<!-- Node24 -->
<g id="Node000024" class="node">
<title>Node24</title>
<g id="a_Node000024"><a xlink:href="send_8cpp.html#a752e7cc27f52d4ba064e691b3e240ed8" target="_top" xlink:title="Sends a Frame using LoRa.">
<polygon fill="white" stroke="#666666" points="569.38,-438 504.62,-438 504.62,-418 569.38,-418 569.38,-438"/>
<text text-anchor="middle" x="537" y="-424.5" font-family="Helvetica,sans-Serif" font-size="10.00">sendFrame</text>
</a>
</g>
</g>
<!-- Node23&#45;&gt;Node24 -->
<g id="edge31_Node000023_Node000024" class="edge">
<title>Node23&#45;&gt;Node24</title>
<g id="a_edge31_Node000023_Node000024"><a xlink:title=" ">
<path fill="none" stroke="#63b8ff" d="M642.02,-428C618.33,-428 590.6,-428 569.74,-428"/>
<polygon fill="#63b8ff" stroke="#63b8ff" points="641.76,-431.5 651.76,-428 641.76,-424.5 641.76,-431.5"/>
</a>
</g>
</g>
<!-- Node24&#45;&gt;Node5 -->
<g id="edge35_Node000024_Node000005" class="edge">
<title>Node24&#45;&gt;Node5</title>
<g id="a_edge35_Node000024_Node000005"><a xlink:title=" ">
<path fill="none" stroke="#63b8ff" d="M520.7,-409.73C508.04,-396.14 488.74,-378.68 467.5,-371 409.72,-350.1 389.35,-358.23 329.25,-371 207.32,-396.9 174.61,-412.79 73,-485 54.19,-498.36 36.77,-519.12 27.19,-531.55"/>
<polygon fill="#63b8ff" stroke="#63b8ff" points="517.74,-411.68 527,-416.83 522.98,-407.03 517.74,-411.68"/>
</a>
</g>
</g>
<!-- Node24&#45;&gt;Node7 -->
<g id="edge32_Node000024_Node000007" class="edge">
<title>Node24&#45;&gt;Node7</title>
<g id="a_edge32_Node000024_Node000007"><a xlink:title=" ">
<path fill="none" stroke="#63b8ff" d="M507.29,-443.97C480.35,-458.96 440.85,-480.93 417.86,-493.72"/>
<polygon fill="#63b8ff" stroke="#63b8ff" points="508.93,-447.06 515.97,-439.14 505.53,-440.95 508.93,-447.06"/>
</a>
</g>
</g>
<!-- Node24&#45;&gt;Node8 -->
<g id="edge36_Node000024_Node000008" class="edge">
<title>Node24&#45;&gt;Node8</title>
<g id="a_edge36_Node000024_Node000008"><a xlink:title=" ">
<path fill="none" stroke="#63b8ff" d="M493.29,-439.14C437.19,-453.77 339.42,-479.28 284.67,-493.55"/>
<polygon fill="#63b8ff" stroke="#63b8ff" points="494.01,-442.57 502.8,-436.66 492.24,-435.8 494.01,-442.57"/>
</a>
</g>
</g>
<!-- Node24&#45;&gt;Node12 -->
<g id="edge33_Node000024_Node000012" class="edge">
<title>Node24&#45;&gt;Node12</title>
<g id="a_edge33_Node000024_Node000012"><a xlink:title=" ">
<path fill="none" stroke="#63b8ff" d="M525.42,-407.98C519.03,-395.85 510.75,-380.06 503.5,-366 487.29,-334.55 494.86,-317.43 467.5,-295 463.32,-291.57 458.57,-288.77 453.56,-286.46"/>
<polygon fill="#63b8ff" stroke="#63b8ff" points="522.2,-409.38 529.96,-416.59 528.39,-406.11 522.2,-409.38"/>
</a>
</g>
</g>
<!-- Node24&#45;&gt;Node21 -->
<g id="edge34_Node000024_Node000021" class="edge">
<title>Node24&#45;&gt;Node21</title>
<g id="a_edge34_Node000024_Node000021"><a xlink:title=" ">
<path fill="none" stroke="#63b8ff" d="M510.39,-410.81C507.92,-408.66 505.57,-406.38 503.5,-404 481.54,-378.81 492.95,-359.66 467.5,-338 457.66,-329.63 444.71,-324.11 432.75,-320.5"/>
<polygon fill="#63b8ff" stroke="#63b8ff" points="507.75,-413.19 517.78,-416.61 512.07,-407.68 507.75,-413.19"/>
</a>
</g>
</g>
<!-- Node25 -->
<g id="Node000025" class="node">
<title>Node25</title>
<g id="a_Node000025"><a xlink:href="frame_8cpp.html#a6005ddd6320bebe2a680fa6b8efff6dd" target="_top" xlink:title="Sends the event register value to the ground station.">
<polygon fill="white" stroke="#666666" points="448,-400 348.75,-400 348.75,-380 448,-380 448,-400"/>
<text text-anchor="middle" x="398.38" y="-386.5" font-family="Helvetica,sans-Serif" font-size="10.00">sendEventRegister</text>
</a>
</g>
</g>
<!-- Node24&#45;&gt;Node25 -->
<g id="edge37_Node000024_Node000025" class="edge">
<title>Node24&#45;&gt;Node25</title>
<g id="a_edge37_Node000024_Node000025"><a xlink:title=" ">
<path fill="none" stroke="#63b8ff" d="M493.43,-416.16C475.26,-411.11 454.26,-405.26 436.71,-400.38"/>
<polygon fill="#63b8ff" stroke="#63b8ff" points="492.28,-419.47 502.85,-418.78 494.16,-412.73 492.28,-419.47"/>
</a>
</g>
</g>
</g>
</svg>

<g id="navigator" transform="translate(0 0)" fill="#404254">
  <rect fill="#f2f5e9" fill-opacity="0.5" stroke="#606060" stroke-width=".5" x="0" y="0" width="60" height="60"/>
  <use id="zoomplus" xlink:href="#zoomPlus" x="17" y="9" onmousedown="handleZoom(evt,'in')"/>
  <use id="zoomminus" xlink:href="#zoomMin" x="42" y="9" onmousedown="handleZoom(evt,'out')"/>
  <use id="reset" xlink:href="#resetDef" x="30" y="36" onmousedown="handleReset()"/>
   <use id="arrowup" xlink:href="#arrowUp" x="0" y="0" onmousedown="handlePan(0,-1)"/>
  <use id="arrowright" xlink:href="#arrowRight" x="0" y="0" onmousedown="handlePan(1,0)"/>
  <use id="arrowdown" xlink:href="#arrowDown" x="0" y="0" onmousedown="handlePan(0,1)"/>
  <use id="arrowleft" xlink:href="#arrowLeft" x="0" y="0" onmousedown="handlePan(-1,0)"/>
</g>
<svg viewBox="0 0 15 15" width="100%" height="30px" preserveAspectRatio="xMaxYMin meet">
 <g id="arrow_out" transform="scale(0.3 0.3)">
  <a xlink:href="utils_8h_a581207ee5c53ce94cdf3279a0f66f564_icgraph_org.svg" target="_base">
   <rect id="button" ry="5" rx="5" y="6" x="6" height="38" width="38"
        fill="#f2f5e9" fill-opacity="0.5" stroke="#606060" stroke-width="1.0"/>
   <path id="arrow"
     d="M 11.500037,31.436501 C 11.940474,20.09759 22.043105,11.32322 32.158766,21.979434 L 37.068811,17.246167 C 37.068811,17.246167 37.088388,32 37.088388,32 L 22.160133,31.978069 C 22.160133,31.978069 26.997745,27.140456 26.997745,27.140456 C 18.528582,18.264221 13.291696,25.230495 11.500037,31.436501 z"
     style="fill:#404040;"/>
  </a>
 </g>
</svg>

<style type='text/css'>
<![CDATA[
[data-mouse-over-selected='false'] { opacity: 0.7; }
[data-mouse-over-selected='true']  { opacity: 1.0; }
]]>
</style>
<script type="application/ecmascript"><![CDATA[
document.addEventListener('DOMContentLoaded', (event) => {
  highlightEdges();
  highlightAdjacentNodes();
});
]]></script>
</svg>
