<?xml version="1.0" encoding="UTF-8" standalone="no"?>
<!DOCTYPE svg PUBLIC "-//W3C//DTD SVG 1.1//EN"
 "http://www.w3.org/Graphics/SVG/1.1/DTD/svg11.dtd">
<!-- Generated by graphviz version 12.2.1 (20241206.2353)
 -->
<!-- Title: uartPrint Pages: 1 -->
<!--zoomable 788 -->

<svg id="main" version="1.1" xmlns="http://www.w3.org/2000/svg" xmlns:xlink="http://www.w3.org/1999/xlink" xml:space="preserve" onload="init(evt)">

<style type="text/css"><![CDATA[
.node, .edge {opacity: 0.7;}
.node.selected, .edge.selected {opacity: 1;}
.edge:hover path { stroke: red; }
.edge:hover polygon { stroke: red; fill: red; }
]]></style>

<defs>
  <circle id="rim" cx="0" cy="0" r="7"/>
  <circle id="rim2" cx="0" cy="0" r="3.5"/>
  <g id="zoomPlus">
    <use xlink:href="#rim" fill="#404040"><set attributeName="fill" to="#808080" begin="zoomplus.mouseover" end="zoomplus.mouseout"/></use>
    <path d="M-4,0h8M0,-4v8" fill="none" stroke="white" stroke-width="1.5" pointer-events="none"/>
  </g>
  <g id="zoomMin">
    <use xlink:href="#rim" fill="#404040"><set attributeName="fill" to="#808080" begin="zoomminus.mouseover" end="zoomminus.mouseout"/></use>
    <path d="M-4,0h8" fill="none" stroke="white" stroke-width="1.5" pointer-events="none"/>
  </g>
  <g id="arrowUp" transform="translate(30 24)">
    <use xlink:href="#rim"/>
    <path pointer-events="none" fill="none" stroke="white" stroke-width="1.5" d="M0,-3.0v7 M-2.5,-0.5L0,-3.0L2.5,-0.5"/>
  </g>
  <g id="arrowRight" transform="rotate(90) translate(36 -43)">
    <use xlink:href="#rim"/>
    <path pointer-events="none" fill="none" stroke="white" stroke-width="1.5" d="M0,-3.0v7 M-2.5,-0.5L0,-3.0L2.5,-0.5"/>
  </g>
  <g id="arrowDown" transform="rotate(180) translate(-30 -48)">
    <use xlink:href="#rim"/>
    <path pointer-events="none" fill="none" stroke="white" stroke-width="1.5" d="M0,-3.0v7 M-2.5,-0.5L0,-3.0L2.5,-0.5"/>
  </g>
  <g id="arrowLeft" transform="rotate(270) translate(-36 17)">
    <use xlink:href="#rim"/>
    <path pointer-events="none" fill="none" stroke="white" stroke-width="1.5" d="M0,-3.0v7 M-2.5,-0.5L0,-3.0L2.5,-0.5"/>
  </g>
  <g id="resetDef">
    <use xlink:href="#rim2" fill="#404040"><set attributeName="fill" to="#808080" begin="reset.mouseover" end="reset.mouseout"/></use>
  </g>
</defs>
<script type="application/ecmascript">
var viewWidth = 920;
var viewHeight = 788;
var sectionId = 'dynsection-2';
</script>
<script type="application/ecmascript" xlink:href="svg.min.js"/>
<svg id="graph" class="graph">
<g id="viewport">
<title>uartPrint</title>
<!-- Node1 -->
<g id="Node000001" class="node">
<title>Node1</title>
<g id="a_Node000001"><a xlink:title="Prints a message to the UART with a timestamp and core number.">
<polygon fill="#999999" stroke="#666666" points="912.25,-400 859.5,-400 859.5,-380 912.25,-380 912.25,-400"/>
<text text-anchor="middle" x="885.88" y="-386.5" font-family="Helvetica,sans-Serif" font-size="10.00">uartPrint</text>
</a>
</g>
</g>
<!-- Node2 -->
<g id="Node000002" class="node">
<title>Node2</title>
<g id="a_Node000002"><a xlink:href="class_i_n_a3221.html#a868af24425b042f330a0e7fae8210936" target="_top" xlink:title=" ">
<polygon fill="white" stroke="#666666" points="779.62,-780 696.12,-780 696.12,-760 779.62,-760 779.62,-780"/>
<text text-anchor="middle" x="737.88" y="-766.5" font-family="Helvetica,sans-Serif" font-size="10.00">INA3221::begin</text>
</a>
</g>
</g>
<!-- Node1&#45;&gt;Node2 -->
<g id="edge1_Node000001_Node000002" class="edge">
<title>Node1&#45;&gt;Node2</title>
<g id="a_edge1_Node000001_Node000002"><a xlink:title=" ">
<path fill="none" stroke="#63b8ff" d="M884.25,-411.81C881.77,-482.2 870.36,-701.62 823.5,-751 812.31,-762.8 795.5,-768.02 779.8,-770.12"/>
<polygon fill="#63b8ff" stroke="#63b8ff" points="887.74,-412.1 884.56,-401.99 880.74,-411.87 887.74,-412.1"/>
</a>
</g>
</g>
<!-- Node3 -->
<g id="Node000003" class="node">
<title>Node3</title>
<g id="a_Node000003"><a xlink:href="event__manager_8cpp.html#a467714d66058f52e4ac7aeb6df46b433" target="_top" xlink:title="Checks power statuses and triggers events based on voltage trends.">
<polygon fill="white" stroke="#666666" points="788.25,-742 687.5,-742 687.5,-722 788.25,-722 788.25,-742"/>
<text text-anchor="middle" x="737.88" y="-728.5" font-family="Helvetica,sans-Serif" font-size="10.00">checkPowerEvents</text>
</a>
</g>
</g>
<!-- Node1&#45;&gt;Node3 -->
<g id="edge2_Node000001_Node000003" class="edge">
<title>Node1&#45;&gt;Node3</title>
<g id="a_edge2_Node000001_Node000003"><a xlink:title=" ">
<path fill="none" stroke="#63b8ff" d="M883.6,-411.6C879.36,-475.88 863.69,-664.21 823.5,-708 814.41,-717.9 801.57,-723.83 788.64,-727.35"/>
<polygon fill="#63b8ff" stroke="#63b8ff" points="887.06,-412.19 884.2,-401.99 880.08,-411.75 887.06,-412.19"/>
</a>
</g>
</g>
<!-- Node4 -->
<g id="Node000004" class="node">
<title>Node4</title>
<g id="a_Node000004"><a xlink:href="main_8cpp.html#a9f153132b8b4afad133b952111e18bd9" target="_top" xlink:title=" ">
<polygon fill="white" stroke="#666666" points="593.38,-704 526.38,-704 526.38,-684 593.38,-684 593.38,-704"/>
<text text-anchor="middle" x="559.88" y="-690.5" font-family="Helvetica,sans-Serif" font-size="10.00">core1_entry</text>
</a>
</g>
</g>
<!-- Node1&#45;&gt;Node4 -->
<g id="edge5_Node000001_Node000004" class="edge">
<title>Node1&#45;&gt;Node4</title>
<g id="a_edge5_Node000001_Node000004"><a xlink:title=" ">
<path fill="none" stroke="#63b8ff" d="M883.35,-411.64C878.68,-471.23 862.43,-635.64 823.5,-670 759.31,-726.65 648.76,-713.35 593.84,-702.06"/>
<polygon fill="#63b8ff" stroke="#63b8ff" points="886.83,-412.04 884.08,-401.81 879.85,-411.52 886.83,-412.04"/>
</a>
</g>
</g>
<!-- Node5 -->
<g id="Node000005" class="node">
<title>Node5</title>
<g id="a_Node000005"><a xlink:href="main_8cpp.html#ae66f6b31b5ad750f1fe042a706a4e3d4" target="_top" xlink:title=" ">
<polygon fill="white" stroke="#666666" points="37,-533 0,-533 0,-513 37,-513 37,-533"/>
<text text-anchor="middle" x="18.5" y="-519.5" font-family="Helvetica,sans-Serif" font-size="10.00">main</text>
</a>
</g>
</g>
<!-- Node1&#45;&gt;Node5 -->
<g id="edge27_Node000001_Node000005" class="edge">
<title>Node1&#45;&gt;Node5</title>
<g id="a_edge27_Node000001_Node000005"><a xlink:title=" ">
<path fill="none" stroke="#63b8ff" d="M882.34,-411.52C875.68,-464.08 855.96,-596.73 823.5,-625 734.86,-702.18 678.41,-656 560.88,-656 560.88,-656 560.88,-656 242.62,-656 147.02,-656 56.74,-564.79 28.54,-533.44"/>
<polygon fill="#63b8ff" stroke="#63b8ff" points="885.79,-412.11 883.53,-401.76 878.84,-411.26 885.79,-412.11"/>
</a>
</g>
</g>
<!-- Node6 -->
<g id="Node000006" class="node">
<title>Node6</title>
<g id="a_Node000006"><a xlink:href="frame_8cpp.html#a8f34bc31494430539db21206f084d39d" target="_top" xlink:title="Converts a string into a Frame instance.">
<polygon fill="white" stroke="#666666" points="436,-438 360.75,-438 360.75,-418 436,-418 436,-438"/>
<text text-anchor="middle" x="398.38" y="-424.5" font-family="Helvetica,sans-Serif" font-size="10.00">decodeFrame</text>
</a>
</g>
</g>
<!-- Node1&#45;&gt;Node6 -->
<g id="edge6_Node000001_Node000006" class="edge">
<title>Node1&#45;&gt;Node6</title>
<g id="a_edge6_Node000001_Node000006"><a xlink:title=" ">
<path fill="none" stroke="#63b8ff" d="M870.55,-409.46C859.41,-422.83 842.67,-439.47 823.5,-447 753.61,-474.45 526.31,-446.17 436.43,-433.48"/>
<polygon fill="#63b8ff" stroke="#63b8ff" points="873.25,-411.69 876.68,-401.67 867.75,-407.36 873.25,-411.69"/>
</a>
</g>
</g>
<!-- Node8 -->
<g id="Node000008" class="node">
<title>Node8</title>
<g id="a_Node000008"><a xlink:href="receive_8cpp.html#ac5e175a6a1482f700f9aee0b727b924f" target="_top" xlink:title="Handles UART input.">
<polygon fill="white" stroke="#666666" points="158,-514 73,-514 73,-494 158,-494 158,-514"/>
<text text-anchor="middle" x="115.5" y="-500.5" font-family="Helvetica,sans-Serif" font-size="10.00">handleUartInput</text>
</a>
</g>
</g>
<!-- Node1&#45;&gt;Node8 -->
<g id="edge21_Node000001_Node000008" class="edge">
<title>Node1&#45;&gt;Node8</title>
<g id="a_edge21_Node000001_Node000008"><a xlink:title=" ">
<path fill="none" stroke="#63b8ff" d="M885.38,-411.66C885.07,-453.49 877.84,-545.18 823.5,-590 732.94,-664.69 678.26,-618 560.88,-618 560.88,-618 560.88,-618 397.38,-618 287.65,-618 170.34,-542.38 130.59,-514.32"/>
<polygon fill="#63b8ff" stroke="#63b8ff" points="888.89,-411.88 885.31,-401.9 881.89,-411.93 888.89,-411.88"/>
</a>
</g>
</g>
<!-- Node9 -->
<g id="Node000009" class="node">
<title>Node9</title>
<g id="a_Node000009"><a xlink:href="receive_8cpp.html#a54817002e33761dc61558b1138749dfb" target="_top" xlink:title="Callback function for handling received LoRa packets.">
<polygon fill="white" stroke="#666666" points="146.75,-476 84.25,-476 84.25,-456 146.75,-456 146.75,-476"/>
<text text-anchor="middle" x="115.5" y="-462.5" font-family="Helvetica,sans-Serif" font-size="10.00">onReceive</text>
</a>
</g>
</g>
<!-- Node1&#45;&gt;Node9 -->
<g id="edge28_Node000001_Node000009" class="edge">
<title>Node1&#45;&gt;Node9</title>
<g id="a_edge28_Node000001_Node000009"><a xlink:title=" ">
<path fill="none" stroke="#63b8ff" d="M881.64,-368.2C873.96,-319.61 853.02,-204.81 823.5,-181 777.95,-144.27 619.39,-162 560.88,-162 560.88,-162 560.88,-162 397.38,-162 233.9,-162 139.16,-402.08 120.09,-455.54"/>
<polygon fill="#63b8ff" stroke="#63b8ff" points="878.17,-368.68 883.15,-378.03 885.09,-367.62 878.17,-368.68"/>
</a>
</g>
</g>
<!-- Node10 -->
<g id="Node000010" class="node">
<title>Node10</title>
<g id="a_Node000010"><a xlink:href="group___g_p_s_commands.html#gad12f2e18bdfecbd5b6e8d8a84bb9cd77" target="_top" xlink:title="Handler for enabling GPS transparent mode (UART pass&#45;through)">
<polygon fill="white" stroke="#666666" points="823.5,-514 652.25,-514 652.25,-494 823.5,-494 823.5,-514"/>
<text text-anchor="middle" x="737.88" y="-500.5" font-family="Helvetica,sans-Serif" font-size="10.00">handleEnableGPSTransparentMode</text>
</a>
</g>
</g>
<!-- Node1&#45;&gt;Node10 -->
<g id="edge12_Node000001_Node000010" class="edge">
<title>Node1&#45;&gt;Node10</title>
<g id="a_edge12_Node000001_Node000010"><a xlink:title=" ">
<path fill="none" stroke="#63b8ff" d="M876.03,-410.57C866.15,-431.13 848.23,-462.18 823.5,-480 815.45,-485.8 806.03,-490.21 796.45,-493.55"/>
<polygon fill="#63b8ff" stroke="#63b8ff" points="879.08,-412.3 880.05,-401.75 872.72,-409.4 879.08,-412.3"/>
</a>
</g>
</g>
<!-- Node11 -->
<g id="Node000011" class="node">
<title>Node11</title>
<g id="a_Node000011"><a xlink:href="group___diagnostic_commands.html#ga3a6c6092cd01fd9c13ab429f4a34326d" target="_top" xlink:title="Reboot system to USB firmware loader.">
<polygon fill="white" stroke="#666666" points="467.5,-590 329.25,-590 329.25,-570 467.5,-570 467.5,-590"/>
<text text-anchor="middle" x="398.38" y="-576.5" font-family="Helvetica,sans-Serif" font-size="10.00">handleEnterBootloaderMode</text>
</a>
</g>
</g>
<!-- Node1&#45;&gt;Node11 -->
<g id="edge13_Node000001_Node000011" class="edge">
<title>Node1&#45;&gt;Node11</title>
<g id="a_edge13_Node000001_Node000011"><a xlink:title=" ">
<path fill="none" stroke="#63b8ff" d="M884.34,-411.4C882.13,-448.81 871.62,-525.51 823.5,-561 768.85,-601.3 573.17,-593.43 467.77,-585.86"/>
<polygon fill="#63b8ff" stroke="#63b8ff" points="887.82,-411.98 884.75,-401.84 880.83,-411.68 887.82,-411.98"/>
</a>
</g>
</g>
<!-- Node12 -->
<g id="Node000012" class="node">
<title>Node12</title>
<g id="a_Node000012"><a xlink:href="group___power_commands.html#ga6fbaf484e68c9561ad7fabef21def37b" target="_top" xlink:title="Handler for getting solar panel charge current.">
<polygon fill="white" stroke="#666666" points="811.12,-438 664.62,-438 664.62,-418 811.12,-418 811.12,-438"/>
<text text-anchor="middle" x="737.88" y="-424.5" font-family="Helvetica,sans-Serif" font-size="10.00">handleGetCurrentChargeSolar</text>
</a>
</g>
</g>
<!-- Node1&#45;&gt;Node12 -->
<g id="edge14_Node000001_Node000012" class="edge">
<title>Node1&#45;&gt;Node12</title>
<g id="a_edge14_Node000001_Node000012"><a xlink:title=" ">
<path fill="none" stroke="#63b8ff" d="M848.04,-401.92C839.99,-404.38 831.48,-406.87 823.5,-409 812.3,-411.99 800.18,-414.9 788.71,-417.5"/>
<polygon fill="#63b8ff" stroke="#63b8ff" points="849.07,-405.27 857.58,-398.95 846.99,-398.58 849.07,-405.27"/>
</a>
</g>
</g>
<!-- Node13 -->
<g id="Node000013" class="node">
<title>Node13</title>
<g id="a_Node000013"><a xlink:href="group___power_commands.html#ga83596ea837df6cf7b15e673b95bf524f" target="_top" xlink:title="Handler for getting total charge current.">
<polygon fill="white" stroke="#666666" points="810.38,-400 665.38,-400 665.38,-380 810.38,-380 810.38,-400"/>
<text text-anchor="middle" x="737.88" y="-386.5" font-family="Helvetica,sans-Serif" font-size="10.00">handleGetCurrentChargeTotal</text>
</a>
</g>
</g>
<!-- Node1&#45;&gt;Node13 -->
<g id="edge15_Node000001_Node000013" class="edge">
<title>Node1&#45;&gt;Node13</title>
<g id="a_edge15_Node000001_Node000013"><a xlink:title=" ">
<path fill="none" stroke="#63b8ff" d="M847.9,-390C836.55,-390 823.64,-390 810.77,-390"/>
<polygon fill="#63b8ff" stroke="#63b8ff" points="847.6,-393.5 857.6,-390 847.6,-386.5 847.6,-393.5"/>
</a>
</g>
</g>
<!-- Node14 -->
<g id="Node000014" class="node">
<title>Node14</title>
<g id="a_Node000014"><a xlink:href="group___power_commands.html#ga3f38c538065bf67dbec1142fdb866d16" target="_top" xlink:title="Handler for getting USB charge current.">
<polygon fill="white" stroke="#666666" points="810.38,-362 665.38,-362 665.38,-342 810.38,-342 810.38,-362"/>
<text text-anchor="middle" x="737.88" y="-348.5" font-family="Helvetica,sans-Serif" font-size="10.00">handleGetCurrentChargeUSB</text>
</a>
</g>
</g>
<!-- Node1&#45;&gt;Node14 -->
<g id="edge16_Node000001_Node000014" class="edge">
<title>Node1&#45;&gt;Node14</title>
<g id="a_edge16_Node000001_Node000014"><a xlink:title=" ">
<path fill="none" stroke="#63b8ff" d="M848.04,-378.08C839.99,-375.62 831.48,-373.13 823.5,-371 812.3,-368.01 800.18,-365.1 788.71,-362.5"/>
<polygon fill="#63b8ff" stroke="#63b8ff" points="846.99,-381.42 857.58,-381.05 849.07,-374.73 846.99,-381.42"/>
</a>
</g>
</g>
<!-- Node15 -->
<g id="Node000015" class="node">
<title>Node15</title>
<g id="a_Node000015"><a xlink:href="group___power_commands.html#gabd6610f557fe9deaa9f80d9405738226" target="_top" xlink:title="Handler for getting system current draw.">
<polygon fill="white" stroke="#666666" points="795.75,-324 680,-324 680,-304 795.75,-304 795.75,-324"/>
<text text-anchor="middle" x="737.88" y="-310.5" font-family="Helvetica,sans-Serif" font-size="10.00">handleGetCurrentDraw</text>
</a>
</g>
</g>
<!-- Node1&#45;&gt;Node15 -->
<g id="edge17_Node000001_Node000015" class="edge">
<title>Node1&#45;&gt;Node15</title>
<g id="a_edge17_Node000001_Node000015"><a xlink:title=" ">
<path fill="none" stroke="#63b8ff" d="M869.59,-371.34C858.18,-358.65 841.52,-342.49 823.5,-333 814.97,-328.51 805.42,-325.08 795.89,-322.45"/>
<polygon fill="#63b8ff" stroke="#63b8ff" points="866.74,-373.4 875.92,-378.68 872.04,-368.83 866.74,-373.4"/>
</a>
</g>
</g>
<!-- Node16 -->
<g id="Node000016" class="node">
<title>Node16</title>
<g id="a_Node000016"><a xlink:href="group___power_commands.html#ga9f2b608f46080fcdae38a1a8454938b8" target="_top" xlink:title="Handler for getting 5V rail voltage.">
<polygon fill="white" stroke="#666666" points="790.12,-286 685.62,-286 685.62,-266 790.12,-266 790.12,-286"/>
<text text-anchor="middle" x="737.88" y="-272.5" font-family="Helvetica,sans-Serif" font-size="10.00">handleGetVoltage5V</text>
</a>
</g>
</g>
<!-- Node1&#45;&gt;Node16 -->
<g id="edge18_Node000001_Node000016" class="edge">
<title>Node1&#45;&gt;Node16</title>
<g id="a_edge18_Node000001_Node000016"><a xlink:title=" ">
<path fill="none" stroke="#63b8ff" d="M876.96,-368.99C867.59,-347.06 849.85,-313.38 823.5,-295 813.74,-288.19 801.95,-283.78 790.3,-280.93"/>
<polygon fill="#63b8ff" stroke="#63b8ff" points="873.65,-370.14 880.63,-378.11 880.14,-367.52 873.65,-370.14"/>
</a>
</g>
</g>
<!-- Node17 -->
<g id="Node000017" class="node">
<title>Node17</title>
<g id="a_Node000017"><a xlink:href="group___power_commands.html#gad301b8c13cafa148a6f3e80e9b0bcf1a" target="_top" xlink:title="Handler for getting battery voltage.">
<polygon fill="white" stroke="#666666" points="799.88,-248 675.88,-248 675.88,-228 799.88,-228 799.88,-248"/>
<text text-anchor="middle" x="737.88" y="-234.5" font-family="Helvetica,sans-Serif" font-size="10.00">handleGetVoltageBattery</text>
</a>
</g>
</g>
<!-- Node1&#45;&gt;Node17 -->
<g id="edge19_Node000001_Node000017" class="edge">
<title>Node1&#45;&gt;Node17</title>
<g id="a_edge19_Node000001_Node000017"><a xlink:title=" ">
<path fill="none" stroke="#63b8ff" d="M881.11,-368.66C874.72,-338.94 858.81,-285.53 823.5,-257 816.71,-251.51 808.65,-247.53 800.25,-244.67"/>
<polygon fill="#63b8ff" stroke="#63b8ff" points="877.65,-369.18 883.01,-378.32 884.52,-367.83 877.65,-369.18"/>
</a>
</g>
</g>
<!-- Node18 -->
<g id="Node000018" class="node">
<title>Node18</title>
<g id="a_Node000018"><a xlink:href="group___diagnostic_commands.html#gade74b82cf2c20d93c5e0ce624cd7ca77" target="_top" xlink:title="Handler for listing all available commands on UART.">
<polygon fill="white" stroke="#666666" points="793.12,-210 682.62,-210 682.62,-190 793.12,-190 793.12,-210"/>
<text text-anchor="middle" x="737.88" y="-196.5" font-family="Helvetica,sans-Serif" font-size="10.00">handleListCommands</text>
</a>
</g>
</g>
<!-- Node1&#45;&gt;Node18 -->
<g id="edge20_Node000001_Node000018" class="edge">
<title>Node1&#45;&gt;Node18</title>
<g id="a_edge20_Node000001_Node000018"><a xlink:title=" ">
<path fill="none" stroke="#63b8ff" d="M883.58,-368.44C880.19,-331.96 867.91,-258.23 823.5,-219 815.04,-211.52 804.27,-206.8 793.27,-203.85"/>
<polygon fill="#63b8ff" stroke="#63b8ff" points="880.07,-368.46 884.33,-378.16 887.05,-367.92 880.07,-368.46"/>
</a>
</g>
</g>
<!-- Node19 -->
<g id="Node000019" class="node">
<title>Node19</title>
<g id="a_Node000019"><a xlink:href="communication_8cpp.html#a520df448c1dc359f42111ac240081975" target="_top" xlink:title="Initializes the LoRa radio module.">
<polygon fill="white" stroke="#666666" points="598.25,-77 521.5,-77 521.5,-57 598.25,-57 598.25,-77"/>
<text text-anchor="middle" x="559.88" y="-63.5" font-family="Helvetica,sans-Serif" font-size="10.00">initializeRadio</text>
</a>
</g>
</g>
<!-- Node1&#45;&gt;Node19 -->
<g id="edge22_Node000001_Node000019" class="edge">
<title>Node1&#45;&gt;Node19</title>
<g id="a_edge22_Node000001_Node000019"><a xlink:title=" ">
<path fill="none" stroke="#63b8ff" d="M884.2,-368.4C881.65,-302.41 870.18,-105.65 823.5,-67 756.07,-11.17 642.06,-39.09 589.27,-56.53"/>
<polygon fill="#63b8ff" stroke="#63b8ff" points="880.7,-368.38 884.55,-378.25 887.69,-368.13 880.7,-368.38"/>
</a>
</g>
</g>
<!-- Node20 -->
<g id="Node000020" class="node">
<title>Node20</title>
<g id="a_Node000020"><a xlink:href="main_8cpp.html#a21af2d50d7779336997d5f3456352431" target="_top" xlink:title=" ">
<polygon fill="white" stroke="#666666" points="432.25,-134 364.5,-134 364.5,-114 432.25,-114 432.25,-134"/>
<text text-anchor="middle" x="398.38" y="-120.5" font-family="Helvetica,sans-Serif" font-size="10.00">initSystems</text>
</a>
</g>
</g>
<!-- Node1&#45;&gt;Node20 -->
<g id="edge25_Node000001_Node000020" class="edge">
<title>Node1&#45;&gt;Node20</title>
<g id="a_edge25_Node000001_Node000020"><a xlink:title=" ">
<path fill="none" stroke="#63b8ff" d="M882.62,-368.43C876.53,-314.52 857.79,-176.27 823.5,-148 764.39,-99.27 521.9,-113.82 432.6,-121.04"/>
<polygon fill="#63b8ff" stroke="#63b8ff" points="879.12,-368.6 883.69,-378.16 886.08,-367.84 879.12,-368.6"/>
</a>
</g>
</g>
<!-- Node21 -->
<g id="Node000021" class="node">
<title>Node21</title>
<g id="a_Node000021"><a xlink:href="class_event_manager.html#ae73a56091dc8713bb86a11abb6742a14" target="_top" xlink:title="Logs an event.">
<polygon fill="white" stroke="#666666" points="799.5,-96 676.25,-96 676.25,-76 799.5,-76 799.5,-96"/>
<text text-anchor="middle" x="737.88" y="-82.5" font-family="Helvetica,sans-Serif" font-size="10.00">EventManager::logEvent</text>
</a>
</g>
</g>
<!-- Node1&#45;&gt;Node21 -->
<g id="edge26_Node000001_Node000021" class="edge">
<title>Node1&#45;&gt;Node21</title>
<g id="a_edge26_Node000001_Node000021"><a xlink:title=" ">
<path fill="none" stroke="#63b8ff" d="M882.97,-368.32C877.36,-309.32 859.01,-147.73 823.5,-110 817.01,-103.11 808.7,-98.14 799.83,-94.58"/>
<polygon fill="#63b8ff" stroke="#63b8ff" points="879.46,-368.42 883.86,-378.06 886.43,-367.78 879.46,-368.42"/>
</a>
</g>
</g>
<!-- Node22 -->
<g id="Node000022" class="node">
<title>Node22</title>
<g id="a_Node000022"><a xlink:href="send_8cpp.html#adcc720dc971ce8b237b26df434b65bb2" target="_top" xlink:title="Sends a message using LoRa.">
<polygon fill="white" stroke="#666666" points="776.25,-552 699.5,-552 699.5,-532 776.25,-532 776.25,-552"/>
<text text-anchor="middle" x="737.88" y="-538.5" font-family="Helvetica,sans-Serif" font-size="10.00">sendMessage</text>
</a>
</g>
</g>
<!-- Node1&#45;&gt;Node22 -->
<g id="edge29_Node000001_Node000022" class="edge">
<title>Node1&#45;&gt;Node22</title>
<g id="a_edge29_Node000001_Node000022"><a xlink:title=" ">
<path fill="none" stroke="#63b8ff" d="M881.11,-411.34C874.72,-441.06 858.81,-494.47 823.5,-523 810.38,-533.6 792.55,-538.56 776.63,-540.79"/>
<polygon fill="#63b8ff" stroke="#63b8ff" points="884.52,-412.17 883.01,-401.68 877.65,-410.82 884.52,-412.17"/>
</a>
</g>
</g>
<!-- Node25 -->
<g id="Node000025" class="node">
<title>Node25</title>
<g id="a_Node000025"><a xlink:href="class_d_s3231.html#a6ead725bcb29001cfbf4279f249d6983" target="_top" xlink:title=" ">
<polygon fill="white" stroke="#666666" points="784.12,-20 691.62,-20 691.62,0 784.12,0 784.12,-20"/>
<text text-anchor="middle" x="737.88" y="-6.5" font-family="Helvetica,sans-Serif" font-size="10.00">DS3231::setTime</text>
</a>
</g>
</g>
<!-- Node1&#45;&gt;Node25 -->
<g id="edge37_Node000001_Node000025" class="edge">
<title>Node1&#45;&gt;Node25</title>
<g id="a_edge37_Node000001_Node000025"><a xlink:title=" ">
<path fill="none" stroke="#63b8ff" d="M884.09,-368.59C881.14,-299.48 868.42,-83.93 823.5,-34 813.49,-22.87 798.74,-16.75 784.35,-13.43"/>
<polygon fill="#63b8ff" stroke="#63b8ff" points="880.58,-368.35 884.48,-378.21 887.57,-368.07 880.58,-368.35"/>
</a>
</g>
</g>
<!-- Node3&#45;&gt;Node4 -->
<g id="edge3_Node000003_Node000004" class="edge">
<title>Node3&#45;&gt;Node4</title>
<g id="a_edge3_Node000003_Node000004"><a xlink:title=" ">
<path fill="none" stroke="#63b8ff" d="M677.07,-719.09C649.19,-713.07 617.09,-706.14 593.7,-701.09"/>
<polygon fill="#63b8ff" stroke="#63b8ff" points="676.32,-722.51 686.84,-721.2 677.8,-715.66 676.32,-722.51"/>
</a>
</g>
</g>
<!-- Node4&#45;&gt;Node5 -->
<g id="edge4_Node000004_Node000005" class="edge">
<title>Node4&#45;&gt;Node5</title>
<g id="a_edge4_Node000004_Node000005"><a xlink:title=" ">
<path fill="none" stroke="#63b8ff" d="M514.78,-706.48C422.6,-729.71 206.94,-768.8 73,-670 27.76,-636.63 20.7,-561.11 19.66,-533.43"/>
<polygon fill="#63b8ff" stroke="#63b8ff" points="515.65,-709.87 524.45,-703.97 513.89,-703.09 515.65,-709.87"/>
</a>
</g>
</g>
<!-- Node7 -->
<g id="Node000007" class="node">
<title>Node7</title>
<g id="a_Node000007"><a xlink:href="frame_8cpp.html#a8b9407b2f579031cf4b705f1ac03ac31" target="_top" xlink:title="Executes a command based on the command key and the parameter.">
<polygon fill="white" stroke="#666666" points="293.25,-495 194,-495 194,-475 293.25,-475 293.25,-495"/>
<text text-anchor="middle" x="243.62" y="-481.5" font-family="Helvetica,sans-Serif" font-size="10.00">processFrameData</text>
</a>
</g>
</g>
<!-- Node6&#45;&gt;Node7 -->
<g id="edge7_Node000006_Node000007" class="edge">
<title>Node6&#45;&gt;Node7</title>
<g id="a_edge7_Node000006_Node000007"><a xlink:title=" ">
<path fill="none" stroke="#63b8ff" d="M349.6,-440.34C342.72,-442.4 335.77,-444.64 329.25,-447 306.99,-455.05 282.39,-466.39 265.48,-474.58"/>
<polygon fill="#63b8ff" stroke="#63b8ff" points="350.19,-443.81 358.83,-437.68 348.25,-437.09 350.19,-443.81"/>
</a>
</g>
</g>
<!-- Node7&#45;&gt;Node8 -->
<g id="edge8_Node000007_Node000008" class="edge">
<title>Node7&#45;&gt;Node8</title>
<g id="a_edge8_Node000007_Node000008"><a xlink:title=" ">
<path fill="none" stroke="#63b8ff" d="M182.19,-494.1C174.12,-495.32 165.99,-496.54 158.33,-497.7"/>
<polygon fill="#63b8ff" stroke="#63b8ff" points="182.64,-497.58 192,-492.63 181.59,-490.65 182.64,-497.58"/>
</a>
</g>
</g>
<!-- Node7&#45;&gt;Node9 -->
<g id="edge10_Node000007_Node000009" class="edge">
<title>Node7&#45;&gt;Node9</title>
<g id="a_edge10_Node000007_Node000009"><a xlink:title=" ">
<path fill="none" stroke="#63b8ff" d="M182.36,-475.92C170.14,-474.08 157.77,-472.22 147.1,-470.61"/>
<polygon fill="#63b8ff" stroke="#63b8ff" points="181.59,-479.35 192,-477.37 182.64,-472.42 181.59,-479.35"/>
</a>
</g>
</g>
<!-- Node8&#45;&gt;Node5 -->
<g id="edge9_Node000008_Node000005" class="edge">
<title>Node8&#45;&gt;Node5</title>
<g id="a_edge9_Node000008_Node000005"><a xlink:title=" ">
<path fill="none" stroke="#63b8ff" d="M61.53,-514.59C52.86,-516.33 44.44,-518.01 37.44,-519.41"/>
<polygon fill="#63b8ff" stroke="#63b8ff" points="61.95,-518.08 71.07,-512.69 60.58,-511.22 61.95,-518.08"/>
</a>
</g>
</g>
<!-- Node9&#45;&gt;Node5 -->
<g id="edge11_Node000009_Node000005" class="edge">
<title>Node9&#45;&gt;Node5</title>
<g id="a_edge11_Node000009_Node000005"><a xlink:title=" ">
<path fill="none" stroke="#63b8ff" d="M79.76,-481.31C77.45,-482.51 75.17,-483.74 73,-485 58.59,-493.31 43.22,-504.51 32.67,-512.59"/>
<polygon fill="#63b8ff" stroke="#63b8ff" points="81.18,-484.51 88.62,-476.97 78.1,-478.23 81.18,-484.51"/>
</a>
</g>
</g>
<!-- Node19&#45;&gt;Node20 -->
<g id="edge23_Node000019_Node000020" class="edge">
<title>Node19&#45;&gt;Node20</title>
<g id="a_edge23_Node000019_Node000020"><a xlink:title=" ">
<path fill="none" stroke="#63b8ff" d="M518.97,-81.26C490.94,-91.28 454.07,-104.46 428.71,-113.52"/>
<polygon fill="#63b8ff" stroke="#63b8ff" points="519.96,-84.63 528.19,-77.96 517.6,-78.03 519.96,-84.63"/>
</a>
</g>
</g>
<!-- Node20&#45;&gt;Node5 -->
<g id="edge24_Node000020_Node000005" class="edge">
<title>Node20&#45;&gt;Node5</title>
<g id="a_edge24_Node000020_Node000005"><a xlink:title=" ">
<path fill="none" stroke="#63b8ff" d="M353,-117.57C308.56,-113.61 240.27,-114.52 194,-148 62.52,-243.13 27.19,-462.56 20.71,-512.68"/>
<polygon fill="#63b8ff" stroke="#63b8ff" points="352.51,-121.04 362.81,-118.58 353.22,-114.08 352.51,-121.04"/>
</a>
</g>
</g>
<!-- Node23 -->
<g id="Node000023" class="node">
<title>Node23</title>
<g id="a_Node000023"><a xlink:href="send_8cpp.html#a752e7cc27f52d4ba064e691b3e240ed8" target="_top" xlink:title="Sends a Frame using LoRa.">
<polygon fill="white" stroke="#666666" points="592.25,-514 527.5,-514 527.5,-494 592.25,-494 592.25,-514"/>
<text text-anchor="middle" x="559.88" y="-500.5" font-family="Helvetica,sans-Serif" font-size="10.00">sendFrame</text>
</a>
</g>
</g>
<!-- Node22&#45;&gt;Node23 -->
<g id="edge30_Node000022_Node000023" class="edge">
<title>Node22&#45;&gt;Node23</title>
<g id="a_edge30_Node000022_Node000023"><a xlink:title=" ">
<path fill="none" stroke="#63b8ff" d="M687.88,-531.42C657.44,-524.85 619.2,-516.59 592.68,-510.87"/>
<polygon fill="#63b8ff" stroke="#63b8ff" points="687.13,-534.84 697.64,-533.53 688.6,-528 687.13,-534.84"/>
</a>
</g>
</g>
<!-- Node23&#45;&gt;Node5 -->
<g id="edge34_Node000023_Node000005" class="edge">
<title>Node23&#45;&gt;Node5</title>
<g id="a_edge34_Node000023_Node000005"><a xlink:title=" ">
<path fill="none" stroke="#63b8ff" d="M516.15,-506.72C442.89,-511.23 288.59,-520.05 158,-523 114.73,-523.98 63.84,-523.58 37.43,-523.26"/>
<polygon fill="#63b8ff" stroke="#63b8ff" points="515.92,-510.24 525.68,-506.13 515.49,-503.26 515.92,-510.24"/>
</a>
</g>
</g>
<!-- Node23&#45;&gt;Node6 -->
<g id="edge31_Node000023_Node000006" class="edge">
<title>Node23&#45;&gt;Node6</title>
<g id="a_edge31_Node000023_Node000006"><a xlink:title=" ">
<path fill="none" stroke="#63b8ff" d="M519.32,-488.8C513.85,-486.14 508.43,-483.2 503.5,-480 485.29,-468.19 486.48,-457.54 467.5,-447 457.95,-441.69 446.8,-437.78 436.33,-434.93"/>
<polygon fill="#63b8ff" stroke="#63b8ff" points="517.84,-491.97 528.39,-492.91 520.73,-485.59 517.84,-491.97"/>
</a>
</g>
</g>
<!-- Node23&#45;&gt;Node7 -->
<g id="edge35_Node000023_Node000007" class="edge">
<title>Node23&#45;&gt;Node7</title>
<g id="a_edge35_Node000023_Node000007"><a xlink:title=" ">
<path fill="none" stroke="#63b8ff" d="M515.67,-501.39C457.52,-497.87 354.38,-491.64 293.47,-487.95"/>
<polygon fill="#63b8ff" stroke="#63b8ff" points="515.31,-504.87 525.5,-501.98 515.73,-497.89 515.31,-504.87"/>
</a>
</g>
</g>
<!-- Node23&#45;&gt;Node11 -->
<g id="edge32_Node000023_Node000011" class="edge">
<title>Node23&#45;&gt;Node11</title>
<g id="a_edge32_Node000023_Node000011"><a xlink:title=" ">
<path fill="none" stroke="#63b8ff" d="M533.11,-520.31C515.15,-531.27 490.4,-545.55 467.5,-556 456.43,-561.05 443.97,-565.72 432.76,-569.57"/>
<polygon fill="#63b8ff" stroke="#63b8ff" points="534.88,-523.33 541.54,-515.1 531.2,-517.38 534.88,-523.33"/>
</a>
</g>
</g>
<!-- Node23&#45;&gt;Node20 -->
<g id="edge33_Node000023_Node000020" class="edge">
<title>Node23&#45;&gt;Node20</title>
<g id="a_edge33_Node000023_Node000020"><a xlink:title=" ">
<path fill="none" stroke="#63b8ff" d="M550.19,-483.3C520.73,-413.12 425.29,-185.73 403.73,-134.37"/>
<polygon fill="#63b8ff" stroke="#63b8ff" points="546.93,-484.57 554.02,-492.44 553.38,-481.87 546.93,-484.57"/>
</a>
</g>
</g>
<!-- Node24 -->
<g id="Node000024" class="node">
<title>Node24</title>
<g id="a_Node000024"><a xlink:href="frame_8cpp.html#a6005ddd6320bebe2a680fa6b8efff6dd" target="_top" xlink:title="Sends the event register value to the ground station.">
<polygon fill="white" stroke="#666666" points="448,-476 348.75,-476 348.75,-456 448,-456 448,-476"/>
<text text-anchor="middle" x="398.38" y="-462.5" font-family="Helvetica,sans-Serif" font-size="10.00">sendEventRegister</text>
</a>
</g>
</g>
<!-- Node23&#45;&gt;Node24 -->
<g id="edge36_Node000023_Node000024" class="edge">
<title>Node23&#45;&gt;Node24</title>
<g id="a_edge36_Node000023_Node000024"><a xlink:title=" ">
<path fill="none" stroke="#63b8ff" d="M516.39,-493.88C493.78,-488.49 466.01,-481.88 443.2,-476.44"/>
<polygon fill="#63b8ff" stroke="#63b8ff" points="515.35,-497.23 525.89,-496.14 516.97,-490.42 515.35,-497.23"/>
</a>
</g>
</g>
<!-- Node26 -->
<g id="Node000026" class="node">
<title>Node26</title>
<g id="a_Node000026"><a xlink:href="class_d_s3231.html#a569f69050349e21823276ef29ff07a76" target="_top" xlink:title=" ">
<polygon fill="white" stroke="#666666" points="616.25,-20 503.5,-20 503.5,0 616.25,0 616.25,-20"/>
<text text-anchor="middle" x="559.88" y="-6.5" font-family="Helvetica,sans-Serif" font-size="10.00">DS3231::setTimeUnix</text>
</a>
</g>
</g>
<!-- Node25&#45;&gt;Node26 -->
<g id="edge38_Node000025_Node000026" class="edge">
<title>Node25&#45;&gt;Node26</title>
<g id="a_edge38_Node000025_Node000026"><a xlink:title=" ">
<path fill="none" stroke="#63b8ff" d="M680.24,-10C659.91,-10 637.01,-10 616.74,-10"/>
<polygon fill="#63b8ff" stroke="#63b8ff" points="680.04,-13.5 690.04,-10 680.04,-6.5 680.04,-13.5"/>
</a>
</g>
</g>
</g>
</svg>

<g id="navigator" transform="translate(0 0)" fill="#404254">
  <rect fill="#f2f5e9" fill-opacity="0.5" stroke="#606060" stroke-width=".5" x="0" y="0" width="60" height="60"/>
  <use id="zoomplus" xlink:href="#zoomPlus" x="17" y="9" onmousedown="handleZoom(evt,'in')"/>
  <use id="zoomminus" xlink:href="#zoomMin" x="42" y="9" onmousedown="handleZoom(evt,'out')"/>
  <use id="reset" xlink:href="#resetDef" x="30" y="36" onmousedown="handleReset()"/>
   <use id="arrowup" xlink:href="#arrowUp" x="0" y="0" onmousedown="handlePan(0,-1)"/>
  <use id="arrowright" xlink:href="#arrowRight" x="0" y="0" onmousedown="handlePan(1,0)"/>
  <use id="arrowdown" xlink:href="#arrowDown" x="0" y="0" onmousedown="handlePan(0,1)"/>
  <use id="arrowleft" xlink:href="#arrowLeft" x="0" y="0" onmousedown="handlePan(-1,0)"/>
</g>
<svg viewBox="0 0 15 15" width="100%" height="30px" preserveAspectRatio="xMaxYMin meet">
 <g id="arrow_out" transform="scale(0.3 0.3)">
  <a xlink:href="utils_8h_a581207ee5c53ce94cdf3279a0f66f564_icgraph_org.svg" target="_base">
   <rect id="button" ry="5" rx="5" y="6" x="6" height="38" width="38"
        fill="#f2f5e9" fill-opacity="0.5" stroke="#606060" stroke-width="1.0"/>
   <path id="arrow"
     d="M 11.500037,31.436501 C 11.940474,20.09759 22.043105,11.32322 32.158766,21.979434 L 37.068811,17.246167 C 37.068811,17.246167 37.088388,32 37.088388,32 L 22.160133,31.978069 C 22.160133,31.978069 26.997745,27.140456 26.997745,27.140456 C 18.528582,18.264221 13.291696,25.230495 11.500037,31.436501 z"
     style="fill:#404040;"/>
  </a>
 </g>
</svg>

<style type='text/css'>
<![CDATA[
[data-mouse-over-selected='false'] { opacity: 0.7; }
[data-mouse-over-selected='true']  { opacity: 1.0; }
]]>
</style>
<script type="application/ecmascript"><![CDATA[
document.addEventListener('DOMContentLoaded', (event) => {
  highlightEdges();
  highlightAdjacentNodes();
});
]]></script>
</svg>
