<?xml version="1.0" encoding="UTF-8" standalone="no"?>
<!DOCTYPE svg PUBLIC "-//W3C//DTD SVG 1.1//EN"
 "http://www.w3.org/Graphics/SVG/1.1/DTD/svg11.dtd">
<!-- Generated by graphviz version 12.2.1 (20241206.2353)
 -->
<!-- Title: lib/utils.h Pages: 1 -->
<svg width="1871pt" height="300pt"
 viewBox="0.00 0.00 1870.75 300.00" xmlns="http://www.w3.org/2000/svg" xmlns:xlink="http://www.w3.org/1999/xlink">
<g id="graph0" class="graph" transform="scale(1 1) rotate(0) translate(4 296)">
<title>lib/utils.h</title>
<!-- Node1 -->
<g id="Node000001" class="node">
<title>Node1</title>
<g id="a_Node000001"><a xlink:title=" ">
<polygon fill="#999999" stroke="#666666" points="1141.62,-292 1086.62,-292 1086.62,-272 1141.62,-272 1141.62,-292"/>
<text text-anchor="middle" x="1114.12" y="-278.5" font-family="Helvetica,sans-Serif" font-size="10.00">lib/utils.h</text>
</a>
</g>
</g>
<!-- Node2 -->
<g id="Node000002" class="node">
<title>Node2</title>
<g id="a_Node000002"><a xlink:href="includes_8h.html" target="_top" xlink:title=" ">
<polygon fill="white" stroke="#666666" points="60.25,-94 0,-94 0,-74 60.25,-74 60.25,-94"/>
<text text-anchor="middle" x="30.12" y="-80.5" font-family="Helvetica,sans-Serif" font-size="10.00">includes.h</text>
</a>
</g>
</g>
<!-- Node1&#45;&gt;Node2 -->
<g id="edge1_Node000001_Node000002" class="edge">
<title>Node1&#45;&gt;Node2</title>
<g id="a_edge1_Node000001_Node000002"><a xlink:title=" ">
<path fill="none" stroke="#63b8ff" d="M1075.34,-279.79C913.89,-274.27 295.39,-248.19 120.12,-168 82.63,-150.84 50.28,-112.03 36.81,-94.23"/>
<polygon fill="#63b8ff" stroke="#63b8ff" points="1074.96,-283.28 1085.08,-280.12 1075.2,-276.28 1074.96,-283.28"/>
</a>
</g>
</g>
<!-- Node4 -->
<g id="Node000004" class="node">
<title>Node4</title>
<g id="a_Node000004"><a xlink:href="_d_s3231_8cpp.html" target="_top" xlink:title=" ">
<polygon fill="white" stroke="#666666" points="912.62,-230 803.62,-230 803.62,-210 912.62,-210 912.62,-230"/>
<text text-anchor="middle" x="858.12" y="-216.5" font-family="Helvetica,sans-Serif" font-size="10.00">lib/clock/DS3231.cpp</text>
</a>
</g>
</g>
<!-- Node1&#45;&gt;Node4 -->
<g id="edge3_Node000001_Node000004" class="edge">
<title>Node1&#45;&gt;Node4</title>
<g id="a_edge3_Node000001_Node000004"><a xlink:title=" ">
<path fill="none" stroke="#63b8ff" d="M1075.14,-271.86C1027.4,-260.67 946.95,-241.82 898.56,-230.48"/>
<polygon fill="#63b8ff" stroke="#63b8ff" points="1074.23,-275.25 1084.77,-274.12 1075.83,-268.43 1074.23,-275.25"/>
</a>
</g>
</g>
<!-- Node5 -->
<g id="Node000005" class="node">
<title>Node5</title>
<g id="a_Node000005"><a xlink:href="protocol_8h.html" target="_top" xlink:title=" ">
<polygon fill="white" stroke="#666666" points="1037.5,-230 930.75,-230 930.75,-210 1037.5,-210 1037.5,-230"/>
<text text-anchor="middle" x="984.12" y="-216.5" font-family="Helvetica,sans-Serif" font-size="10.00">lib/comms/protocol.h</text>
</a>
</g>
</g>
<!-- Node1&#45;&gt;Node5 -->
<g id="edge4_Node000001_Node000005" class="edge">
<title>Node1&#45;&gt;Node5</title>
<g id="a_edge4_Node000001_Node000005"><a xlink:title=" ">
<path fill="none" stroke="#63b8ff" d="M1083.62,-266.92C1059.16,-255.63 1025.51,-240.1 1004.29,-230.31"/>
<polygon fill="#63b8ff" stroke="#63b8ff" points="1081.89,-269.98 1092.44,-270.99 1084.83,-263.62 1081.89,-269.98"/>
</a>
</g>
</g>
<!-- Node19 -->
<g id="Node000019" class="node">
<title>Node19</title>
<g id="a_Node000019"><a xlink:href="event__manager_8cpp.html" target="_top" xlink:title="Implements the event management system for the Kubisat firmware.">
<polygon fill="white" stroke="#666666" points="1844.38,-100 1745.88,-100 1745.88,-68 1844.38,-68 1844.38,-100"/>
<text text-anchor="start" x="1753.88" y="-86.5" font-family="Helvetica,sans-Serif" font-size="10.00">lib/eventman/event</text>
<text text-anchor="middle" x="1795.12" y="-74.5" font-family="Helvetica,sans-Serif" font-size="10.00">_manager.cpp</text>
</a>
</g>
</g>
<!-- Node1&#45;&gt;Node19 -->
<g id="edge29_Node000001_Node000019" class="edge">
<title>Node1&#45;&gt;Node19</title>
<g id="a_edge29_Node000001_Node000019"><a xlink:title=" ">
<path fill="none" stroke="#63b8ff" d="M1097.78,-263.3C1084.25,-246.46 1069.43,-221.22 1084.12,-204 1179.51,-92.22 1593.28,-129.99 1737.12,-100 1739.87,-99.43 1742.69,-98.81 1745.52,-98.16"/>
<polygon fill="#63b8ff" stroke="#63b8ff" points="1094.81,-265.22 1103.98,-270.53 1100.13,-260.66 1094.81,-265.22"/>
</a>
</g>
</g>
<!-- Node24 -->
<g id="Node000024" class="node">
<title>Node24</title>
<g id="a_Node000024"><a xlink:href="gps__collector_8cpp.html" target="_top" xlink:title=" ">
<polygon fill="white" stroke="#666666" points="1235.12,-230 1093.12,-230 1093.12,-210 1235.12,-210 1235.12,-230"/>
<text text-anchor="middle" x="1164.12" y="-216.5" font-family="Helvetica,sans-Serif" font-size="10.00">lib/location/gps_collector.cpp</text>
</a>
</g>
</g>
<!-- Node1&#45;&gt;Node24 -->
<g id="edge30_Node000001_Node000024" class="edge">
<title>Node1&#45;&gt;Node24</title>
<g id="a_edge30_Node000001_Node000024"><a xlink:title=" ">
<path fill="none" stroke="#63b8ff" d="M1129.19,-262.92C1138.21,-252.1 1149.3,-238.79 1156.53,-230.11"/>
<polygon fill="#63b8ff" stroke="#63b8ff" points="1126.62,-260.54 1122.91,-270.46 1132,-265.02 1126.62,-260.54"/>
</a>
</g>
</g>
<!-- Node25 -->
<g id="Node000025" class="node">
<title>Node25</title>
<g id="a_Node000025"><a xlink:href="_i_n_a3221_8cpp.html" target="_top" xlink:title=" ">
<polygon fill="white" stroke="#666666" points="1368.62,-236 1253.62,-236 1253.62,-204 1368.62,-204 1368.62,-236"/>
<text text-anchor="start" x="1261.62" y="-222.5" font-family="Helvetica,sans-Serif" font-size="10.00">lib/powerman/INA3221</text>
<text text-anchor="middle" x="1311.12" y="-210.5" font-family="Helvetica,sans-Serif" font-size="10.00">/INA3221.cpp</text>
</a>
</g>
</g>
<!-- Node1&#45;&gt;Node25 -->
<g id="edge31_Node000001_Node000025" class="edge">
<title>Node1&#45;&gt;Node25</title>
<g id="a_edge31_Node000001_Node000025"><a xlink:title=" ">
<path fill="none" stroke="#63b8ff" d="M1152.64,-269.27C1183.37,-259.91 1226.66,-246.72 1260.24,-236.5"/>
<polygon fill="#63b8ff" stroke="#63b8ff" points="1151.93,-265.83 1143.38,-272.09 1153.97,-272.52 1151.93,-265.83"/>
</a>
</g>
</g>
<!-- Node26 -->
<g id="Node000026" class="node">
<title>Node26</title>
<g id="a_Node000026"><a xlink:href="storage_8cpp.html" target="_top" xlink:title="Implements file system operations for the Kubisat firmware.">
<polygon fill="white" stroke="#666666" points="1501.62,-230 1386.62,-230 1386.62,-210 1501.62,-210 1501.62,-230"/>
<text text-anchor="middle" x="1444.12" y="-216.5" font-family="Helvetica,sans-Serif" font-size="10.00">lib/storage/storage.cpp</text>
</a>
</g>
</g>
<!-- Node1&#45;&gt;Node26 -->
<g id="edge32_Node000001_Node000026" class="edge">
<title>Node1&#45;&gt;Node26</title>
<g id="a_edge32_Node000001_Node000026"><a xlink:title=" ">
<path fill="none" stroke="#63b8ff" d="M1153.24,-275.02C1204.89,-266.96 1298.59,-251.8 1378.12,-236 1386.54,-234.33 1395.52,-232.39 1404.06,-230.47"/>
<polygon fill="#63b8ff" stroke="#63b8ff" points="1152.8,-271.54 1143.46,-276.54 1153.88,-278.46 1152.8,-271.54"/>
</a>
</g>
</g>
<!-- Node27 -->
<g id="Node000027" class="node">
<title>Node27</title>
<g id="a_Node000027"><a xlink:href="utils_8cpp.html" target="_top" xlink:title="Implements utility functions for the Kubisat firmware.">
<polygon fill="white" stroke="#666666" points="1584.88,-230 1519.38,-230 1519.38,-210 1584.88,-210 1584.88,-230"/>
<text text-anchor="middle" x="1552.12" y="-216.5" font-family="Helvetica,sans-Serif" font-size="10.00">lib/utils.cpp</text>
</a>
</g>
</g>
<!-- Node1&#45;&gt;Node27 -->
<g id="edge33_Node000001_Node000027" class="edge">
<title>Node1&#45;&gt;Node27</title>
<g id="a_edge33_Node000001_Node000027"><a xlink:title=" ">
<path fill="none" stroke="#63b8ff" d="M1153.11,-279.65C1224.86,-276.49 1382.27,-266.42 1511.12,-236 1517.17,-234.57 1523.55,-232.52 1529.43,-230.39"/>
<polygon fill="#63b8ff" stroke="#63b8ff" points="1153.3,-276.14 1143.46,-280.05 1153.6,-283.13 1153.3,-276.14"/>
</a>
</g>
</g>
<!-- Node3 -->
<g id="Node000003" class="node">
<title>Node3</title>
<g id="a_Node000003"><a xlink:href="main_8cpp.html" target="_top" xlink:title=" ">
<polygon fill="white" stroke="#666666" points="58,-26 2.25,-26 2.25,-6 58,-6 58,-26"/>
<text text-anchor="middle" x="30.12" y="-12.5" font-family="Helvetica,sans-Serif" font-size="10.00">main.cpp</text>
</a>
</g>
</g>
<!-- Node2&#45;&gt;Node3 -->
<g id="edge2_Node000002_Node000003" class="edge">
<title>Node2&#45;&gt;Node3</title>
<g id="a_edge2_Node000002_Node000003"><a xlink:title=" ">
<path fill="none" stroke="#63b8ff" d="M30.12,-62.28C30.12,-50.27 30.12,-35.74 30.12,-26.44"/>
<polygon fill="#63b8ff" stroke="#63b8ff" points="26.63,-62.03 30.13,-72.03 33.63,-62.03 26.63,-62.03"/>
</a>
</g>
</g>
<!-- Node5&#45;&gt;Node2 -->
<g id="edge5_Node000005_Node000002" class="edge">
<title>Node5&#45;&gt;Node2</title>
<g id="a_edge5_Node000005_Node000002"><a xlink:title=" ">
<path fill="none" stroke="#63b8ff" d="M938.7,-206.99C933.15,-205.82 927.53,-204.78 922.12,-204 608.99,-158.6 518.44,-243.29 211.12,-168 145.99,-152.04 75.63,-112.6 45.37,-94.44"/>
<polygon fill="#63b8ff" stroke="#63b8ff" points="937.91,-210.4 948.44,-209.18 939.45,-203.57 937.91,-210.4"/>
</a>
</g>
</g>
<!-- Node6 -->
<g id="Node000006" class="node">
<title>Node6</title>
<g id="a_Node000006"><a xlink:href="commands_8h.html" target="_top" xlink:title=" ">
<polygon fill="white" stroke="#666666" points="332.12,-168 220.12,-168 220.12,-136 332.12,-136 332.12,-168"/>
<text text-anchor="start" x="228.12" y="-154.5" font-family="Helvetica,sans-Serif" font-size="10.00">lib/comms/commands</text>
<text text-anchor="middle" x="276.12" y="-142.5" font-family="Helvetica,sans-Serif" font-size="10.00">/commands.h</text>
</a>
</g>
</g>
<!-- Node5&#45;&gt;Node6 -->
<g id="edge6_Node000005_Node000006" class="edge">
<title>Node5&#45;&gt;Node6</title>
<g id="a_edge6_Node000005_Node000006"><a xlink:title=" ">
<path fill="none" stroke="#63b8ff" d="M938.27,-207.05C932.86,-205.89 927.38,-204.84 922.12,-204 705.76,-169.51 444.73,-157.98 332.21,-154.44"/>
<polygon fill="#63b8ff" stroke="#63b8ff" points="937.23,-210.4 947.76,-209.2 938.78,-203.57 937.23,-210.4"/>
</a>
</g>
</g>
<!-- Node9 -->
<g id="Node000009" class="node">
<title>Node9</title>
<g id="a_Node000009"><a xlink:href="communication_8h.html" target="_top" xlink:title=" ">
<polygon fill="white" stroke="#666666" points="961.25,-162 823,-162 823,-142 961.25,-142 961.25,-162"/>
<text text-anchor="middle" x="892.12" y="-148.5" font-family="Helvetica,sans-Serif" font-size="10.00">lib/comms/communication.h</text>
</a>
</g>
</g>
<!-- Node5&#45;&gt;Node9 -->
<g id="edge9_Node000005_Node000009" class="edge">
<title>Node5&#45;&gt;Node9</title>
<g id="a_edge9_Node000005_Node000009"><a xlink:title=" ">
<path fill="none" stroke="#63b8ff" d="M961.88,-203.04C944.18,-190.35 920.03,-173.02 905.28,-162.44"/>
<polygon fill="#63b8ff" stroke="#63b8ff" points="959.55,-205.68 969.71,-208.66 963.63,-199.99 959.55,-205.68"/>
</a>
</g>
</g>
<!-- Node5&#45;&gt;Node19 -->
<g id="edge27_Node000005_Node000019" class="edge">
<title>Node5&#45;&gt;Node19</title>
<g id="a_edge27_Node000005_Node000019"><a xlink:title=" ">
<path fill="none" stroke="#63b8ff" d="M993.6,-199.51C1004.45,-179.6 1024.25,-149.72 1051.12,-136 1119.1,-101.29 1661.69,-111.61 1737.12,-100 1739.9,-99.57 1742.74,-99.07 1745.59,-98.51"/>
<polygon fill="#63b8ff" stroke="#63b8ff" points="990.54,-197.79 989.07,-208.28 996.77,-201 990.54,-197.79"/>
</a>
</g>
</g>
<!-- Node20 -->
<g id="Node000020" class="node">
<title>Node20</title>
<g id="a_Node000020"><a xlink:href="test__frame__common_8h.html" target="_top" xlink:title=" ">
<polygon fill="white" stroke="#666666" points="1727.75,-100 1610.5,-100 1610.5,-68 1727.75,-68 1727.75,-100"/>
<text text-anchor="start" x="1618.5" y="-86.5" font-family="Helvetica,sans-Serif" font-size="10.00">test/comms/test_frame</text>
<text text-anchor="middle" x="1669.12" y="-74.5" font-family="Helvetica,sans-Serif" font-size="10.00">_common.h</text>
</a>
</g>
</g>
<!-- Node5&#45;&gt;Node20 -->
<g id="edge28_Node000005_Node000020" class="edge">
<title>Node5&#45;&gt;Node20</title>
<g id="a_edge28_Node000005_Node000020"><a xlink:title=" ">
<path fill="none" stroke="#63b8ff" d="M985.15,-198.34C987.33,-178.87 993.86,-150.58 1013.12,-136 1065.32,-96.5 1536.3,-109.08 1601.12,-100 1604.12,-99.58 1607.18,-99.1 1610.26,-98.57"/>
<polygon fill="#63b8ff" stroke="#63b8ff" points="981.68,-197.87 984.38,-208.12 988.66,-198.42 981.68,-197.87"/>
</a>
</g>
</g>
<!-- Node7 -->
<g id="Node000007" class="node">
<title>Node7</title>
<g id="a_Node000007"><a xlink:href="commands_8cpp.html" target="_top" xlink:title=" ">
<polygon fill="white" stroke="#666666" points="190.12,-100 78.12,-100 78.12,-68 190.12,-68 190.12,-100"/>
<text text-anchor="start" x="86.12" y="-86.5" font-family="Helvetica,sans-Serif" font-size="10.00">lib/comms/commands</text>
<text text-anchor="middle" x="134.12" y="-74.5" font-family="Helvetica,sans-Serif" font-size="10.00">/commands.cpp</text>
</a>
</g>
</g>
<!-- Node6&#45;&gt;Node7 -->
<g id="edge7_Node000006_Node000007" class="edge">
<title>Node6&#45;&gt;Node7</title>
<g id="a_edge7_Node000006_Node000007"><a xlink:title=" ">
<path fill="none" stroke="#63b8ff" d="M232.54,-130.74C211.5,-120.96 186.67,-109.42 167.21,-100.38"/>
<polygon fill="#63b8ff" stroke="#63b8ff" points="230.92,-133.85 241.46,-134.89 233.87,-127.5 230.92,-133.85"/>
</a>
</g>
</g>
<!-- Node8 -->
<g id="Node000008" class="node">
<title>Node8</title>
<g id="a_Node000008"><a xlink:href="diagnostic__commands_8cpp.html" target="_top" xlink:title=" ">
<polygon fill="white" stroke="#666666" points="343.75,-100 208.5,-100 208.5,-68 343.75,-68 343.75,-100"/>
<text text-anchor="start" x="216.5" y="-86.5" font-family="Helvetica,sans-Serif" font-size="10.00">lib/comms/commands</text>
<text text-anchor="middle" x="276.12" y="-74.5" font-family="Helvetica,sans-Serif" font-size="10.00">/diagnostic_commands.cpp</text>
</a>
</g>
</g>
<!-- Node6&#45;&gt;Node8 -->
<g id="edge8_Node000006_Node000008" class="edge">
<title>Node6&#45;&gt;Node8</title>
<g id="a_edge8_Node000006_Node000008"><a xlink:title=" ">
<path fill="none" stroke="#63b8ff" d="M276.12,-124.31C276.12,-116.12 276.12,-107.38 276.12,-100.22"/>
<polygon fill="#63b8ff" stroke="#63b8ff" points="272.63,-124.18 276.13,-134.18 279.63,-124.18 272.63,-124.18"/>
</a>
</g>
</g>
<!-- Node9&#45;&gt;Node2 -->
<g id="edge10_Node000009_Node000002" class="edge">
<title>Node9&#45;&gt;Node2</title>
<g id="a_edge10_Node000009_Node000002"><a xlink:title=" ">
<path fill="none" stroke="#63b8ff" d="M811.25,-149.12C632.57,-144.46 208.99,-130.47 69.12,-100 63.17,-98.7 56.93,-96.64 51.22,-94.46"/>
<polygon fill="#63b8ff" stroke="#63b8ff" points="811.06,-152.62 821.14,-149.37 811.24,-145.62 811.06,-152.62"/>
</a>
</g>
</g>
<!-- Node9&#45;&gt;Node7 -->
<g id="edge12_Node000009_Node000007" class="edge">
<title>Node9&#45;&gt;Node7</title>
<g id="a_edge12_Node000009_Node000007"><a xlink:title=" ">
<path fill="none" stroke="#63b8ff" d="M811.51,-149.07C681.82,-145.08 419.12,-133.28 199.12,-100 196.26,-99.57 193.34,-99.08 190.39,-98.54"/>
<polygon fill="#63b8ff" stroke="#63b8ff" points="811.27,-152.57 821.37,-149.37 811.48,-145.57 811.27,-152.57"/>
</a>
</g>
</g>
<!-- Node9&#45;&gt;Node8 -->
<g id="edge13_Node000009_Node000008" class="edge">
<title>Node9&#45;&gt;Node8</title>
<g id="a_edge13_Node000009_Node000008"><a xlink:title=" ">
<path fill="none" stroke="#63b8ff" d="M811.31,-145.84C705.64,-138.52 514.92,-123.36 353.12,-100 350.16,-99.57 347.14,-99.11 344.08,-98.61"/>
<polygon fill="#63b8ff" stroke="#63b8ff" points="810.8,-149.31 821.01,-146.5 811.27,-142.32 810.8,-149.31"/>
</a>
</g>
</g>
<!-- Node10 -->
<g id="Node000010" class="node">
<title>Node10</title>
<g id="a_Node000010"><a xlink:href="clock__commands_8cpp.html" target="_top" xlink:title=" ">
<polygon fill="white" stroke="#666666" points="476.25,-100 362,-100 362,-68 476.25,-68 476.25,-100"/>
<text text-anchor="start" x="370" y="-86.5" font-family="Helvetica,sans-Serif" font-size="10.00">lib/comms/commands</text>
<text text-anchor="middle" x="419.12" y="-74.5" font-family="Helvetica,sans-Serif" font-size="10.00">/clock_commands.cpp</text>
</a>
</g>
</g>
<!-- Node9&#45;&gt;Node10 -->
<g id="edge11_Node000009_Node000010" class="edge">
<title>Node9&#45;&gt;Node10</title>
<g id="a_edge11_Node000009_Node000010"><a xlink:title=" ">
<path fill="none" stroke="#63b8ff" d="M811.39,-143.26C729.01,-134.81 597.66,-119.79 485.12,-100 482.35,-99.51 479.51,-98.98 476.65,-98.43"/>
<polygon fill="#63b8ff" stroke="#63b8ff" points="810.87,-146.73 821.17,-144.26 811.58,-139.76 810.87,-146.73"/>
</a>
</g>
</g>
<!-- Node11 -->
<g id="Node000011" class="node">
<title>Node11</title>
<g id="a_Node000011"><a xlink:href="event__commands_8cpp.html" target="_top" xlink:title=" ">
<polygon fill="white" stroke="#666666" points="609.62,-100 494.62,-100 494.62,-68 609.62,-68 609.62,-100"/>
<text text-anchor="start" x="502.62" y="-86.5" font-family="Helvetica,sans-Serif" font-size="10.00">lib/comms/commands</text>
<text text-anchor="middle" x="552.12" y="-74.5" font-family="Helvetica,sans-Serif" font-size="10.00">/event_commands.cpp</text>
</a>
</g>
</g>
<!-- Node9&#45;&gt;Node11 -->
<g id="edge14_Node000009_Node000011" class="edge">
<title>Node9&#45;&gt;Node11</title>
<g id="a_edge14_Node000009_Node000011"><a xlink:title=" ">
<path fill="none" stroke="#63b8ff" d="M827.34,-139.57C771.94,-129.63 690.16,-114.58 619.12,-100 616.09,-99.38 612.98,-98.73 609.84,-98.06"/>
<polygon fill="#63b8ff" stroke="#63b8ff" points="826.45,-142.96 836.91,-141.28 827.68,-136.07 826.45,-142.96"/>
</a>
</g>
</g>
<!-- Node12 -->
<g id="Node000012" class="node">
<title>Node12</title>
<g id="a_Node000012"><a xlink:href="gps__commands_8cpp.html" target="_top" xlink:title=" ">
<polygon fill="white" stroke="#666666" points="740.12,-100 628.12,-100 628.12,-68 740.12,-68 740.12,-100"/>
<text text-anchor="start" x="636.12" y="-86.5" font-family="Helvetica,sans-Serif" font-size="10.00">lib/comms/commands</text>
<text text-anchor="middle" x="684.12" y="-74.5" font-family="Helvetica,sans-Serif" font-size="10.00">/gps_commands.cpp</text>
</a>
</g>
</g>
<!-- Node9&#45;&gt;Node12 -->
<g id="edge15_Node000009_Node000012" class="edge">
<title>Node9&#45;&gt;Node12</title>
<g id="a_edge15_Node000009_Node000012"><a xlink:title=" ">
<path fill="none" stroke="#63b8ff" d="M851.39,-138.07C817.37,-127.28 768.79,-111.87 732.75,-100.43"/>
<polygon fill="#63b8ff" stroke="#63b8ff" points="850.29,-141.4 860.88,-141.09 852.41,-134.73 850.29,-141.4"/>
</a>
</g>
</g>
<!-- Node13 -->
<g id="Node000013" class="node">
<title>Node13</title>
<g id="a_Node000013"><a xlink:href="power__commands_8cpp.html" target="_top" xlink:title=" ">
<polygon fill="white" stroke="#666666" points="875.75,-100 758.5,-100 758.5,-68 875.75,-68 875.75,-100"/>
<text text-anchor="start" x="766.5" y="-86.5" font-family="Helvetica,sans-Serif" font-size="10.00">lib/comms/commands</text>
<text text-anchor="middle" x="817.12" y="-74.5" font-family="Helvetica,sans-Serif" font-size="10.00">/power_commands.cpp</text>
</a>
</g>
</g>
<!-- Node9&#45;&gt;Node13 -->
<g id="edge16_Node000009_Node000013" class="edge">
<title>Node9&#45;&gt;Node13</title>
<g id="a_edge16_Node000009_Node000013"><a xlink:title=" ">
<path fill="none" stroke="#63b8ff" d="M873.06,-134.22C861.19,-123.78 846.05,-110.45 834.51,-100.3"/>
<polygon fill="#63b8ff" stroke="#63b8ff" points="870.42,-136.57 880.24,-140.54 875.05,-131.31 870.42,-136.57"/>
</a>
</g>
</g>
<!-- Node14 -->
<g id="Node000014" class="node">
<title>Node14</title>
<g id="a_Node000014"><a xlink:href="communication_8cpp.html" target="_top" xlink:title=" ">
<polygon fill="white" stroke="#666666" points="1042.5,-94 893.75,-94 893.75,-74 1042.5,-74 1042.5,-94"/>
<text text-anchor="middle" x="968.12" y="-80.5" font-family="Helvetica,sans-Serif" font-size="10.00">lib/comms/communication.cpp</text>
</a>
</g>
</g>
<!-- Node9&#45;&gt;Node14 -->
<g id="edge17_Node000009_Node000014" class="edge">
<title>Node9&#45;&gt;Node14</title>
<g id="a_edge17_Node000009_Node000014"><a xlink:title=" ">
<path fill="none" stroke="#63b8ff" d="M911.32,-134.33C925.86,-121.71 945.3,-104.82 957.26,-94.44"/>
<polygon fill="#63b8ff" stroke="#63b8ff" points="909.41,-131.35 904.16,-140.55 914,-136.64 909.41,-131.35"/>
</a>
</g>
</g>
<!-- Node15 -->
<g id="Node000015" class="node">
<title>Node15</title>
<g id="a_Node000015"><a xlink:href="frame_8cpp.html" target="_top" xlink:title="Implements functions for encoding, decoding, building, and processing Frames.">
<polygon fill="white" stroke="#666666" points="1167.88,-94 1060.38,-94 1060.38,-74 1167.88,-74 1167.88,-94"/>
<text text-anchor="middle" x="1114.12" y="-80.5" font-family="Helvetica,sans-Serif" font-size="10.00">lib/comms/frame.cpp</text>
</a>
</g>
</g>
<!-- Node9&#45;&gt;Node15 -->
<g id="edge18_Node000009_Node000015" class="edge">
<title>Node9&#45;&gt;Node15</title>
<g id="a_edge18_Node000009_Node000015"><a xlink:title=" ">
<path fill="none" stroke="#63b8ff" d="M934.93,-138.28C978.07,-125.45 1043.66,-105.95 1082.38,-94.44"/>
<polygon fill="#63b8ff" stroke="#63b8ff" points="933.97,-134.91 925.38,-141.11 935.97,-141.62 933.97,-134.91"/>
</a>
</g>
</g>
<!-- Node16 -->
<g id="Node000016" class="node">
<title>Node16</title>
<g id="a_Node000016"><a xlink:href="receive_8cpp.html" target="_top" xlink:title="Implements functions for receiving and processing data, including LoRa and UART input.">
<polygon fill="white" stroke="#666666" points="1300.25,-94 1186,-94 1186,-74 1300.25,-74 1300.25,-94"/>
<text text-anchor="middle" x="1243.12" y="-80.5" font-family="Helvetica,sans-Serif" font-size="10.00">lib/comms/receive.cpp</text>
</a>
</g>
</g>
<!-- Node9&#45;&gt;Node16 -->
<g id="edge19_Node000009_Node000016" class="edge">
<title>Node9&#45;&gt;Node16</title>
<g id="a_edge19_Node000009_Node000016"><a xlink:title=" ">
<path fill="none" stroke="#63b8ff" d="M955.47,-139.54C962.11,-138.34 968.75,-137.14 975.12,-136 1064.88,-119.89 1087.75,-118.11 1177.12,-100 1185.53,-98.3 1194.51,-96.34 1203.05,-94.43"/>
<polygon fill="#63b8ff" stroke="#63b8ff" points="955.08,-136.05 945.86,-141.27 956.32,-142.94 955.08,-136.05"/>
</a>
</g>
</g>
<!-- Node17 -->
<g id="Node000017" class="node">
<title>Node17</title>
<g id="a_Node000017"><a xlink:href="send_8cpp.html" target="_top" xlink:title="Implements functions for sending data, including LoRa messages and Frames.">
<polygon fill="white" stroke="#666666" points="1422,-94 1318.25,-94 1318.25,-74 1422,-74 1422,-94"/>
<text text-anchor="middle" x="1370.12" y="-80.5" font-family="Helvetica,sans-Serif" font-size="10.00">lib/comms/send.cpp</text>
</a>
</g>
</g>
<!-- Node9&#45;&gt;Node17 -->
<g id="edge20_Node000009_Node000017" class="edge">
<title>Node9&#45;&gt;Node17</title>
<g id="a_edge20_Node000009_Node000017"><a xlink:title=" ">
<path fill="none" stroke="#63b8ff" d="M952.31,-139.6C959.97,-138.3 967.72,-137.07 975.12,-136 1122.9,-114.71 1162.08,-125.88 1309.12,-100 1317.61,-98.51 1326.67,-96.51 1335.14,-94.45"/>
<polygon fill="#63b8ff" stroke="#63b8ff" points="951.93,-136.12 942.68,-141.28 953.13,-143.01 951.93,-136.12"/>
</a>
</g>
</g>
<!-- Node18 -->
<g id="Node000018" class="node">
<title>Node18</title>
<g id="a_Node000018"><a xlink:href="utils__converters_8cpp.html" target="_top" xlink:title="Implements utility functions for converting between different data types.">
<polygon fill="white" stroke="#666666" points="1592,-94 1440.25,-94 1440.25,-74 1592,-74 1592,-94"/>
<text text-anchor="middle" x="1516.12" y="-80.5" font-family="Helvetica,sans-Serif" font-size="10.00">lib/comms/utils_converters.cpp</text>
</a>
</g>
</g>
<!-- Node9&#45;&gt;Node18 -->
<g id="edge21_Node000009_Node000018" class="edge">
<title>Node9&#45;&gt;Node18</title>
<g id="a_edge21_Node000009_Node000018"><a xlink:title=" ">
<path fill="none" stroke="#63b8ff" d="M951.09,-139.59C959.15,-138.26 967.33,-137.01 975.12,-136 1176.74,-109.89 1229.46,-125.69 1431.12,-100 1442.87,-98.5 1455.46,-96.5 1467.25,-94.45"/>
<polygon fill="#63b8ff" stroke="#63b8ff" points="950.59,-136.13 941.33,-141.28 951.78,-143.03 950.59,-136.13"/>
</a>
</g>
</g>
<!-- Node9&#45;&gt;Node19 -->
<g id="edge22_Node000009_Node000019" class="edge">
<title>Node9&#45;&gt;Node19</title>
<g id="a_edge22_Node000009_Node000019"><a xlink:title=" ">
<path fill="none" stroke="#63b8ff" d="M972.67,-140.18C986.16,-138.6 1000.03,-137.14 1013.12,-136 1334.1,-108.16 1418.63,-148.58 1737.12,-100 1739.9,-99.58 1742.74,-99.08 1745.59,-98.52"/>
<polygon fill="#63b8ff" stroke="#63b8ff" points="972.47,-136.67 962.96,-141.34 973.3,-143.62 972.47,-136.67"/>
</a>
</g>
</g>
<!-- Node9&#45;&gt;Node20 -->
<g id="edge23_Node000009_Node000020" class="edge">
<title>Node9&#45;&gt;Node20</title>
<g id="a_edge23_Node000009_Node000020"><a xlink:title=" ">
<path fill="none" stroke="#63b8ff" d="M950.18,-139.59C958.53,-138.21 967.03,-136.96 975.12,-136 1251.87,-103.16 1325.06,-138.14 1601.12,-100 1604.12,-99.59 1607.18,-99.11 1610.26,-98.59"/>
<polygon fill="#63b8ff" stroke="#63b8ff" points="949.7,-136.12 940.43,-141.26 950.88,-143.02 949.7,-136.12"/>
</a>
</g>
</g>
<!-- Node21 -->
<g id="Node000021" class="node">
<title>Node21</title>
<g id="a_Node000021"><a xlink:href="test__converters_8cpp.html" target="_top" xlink:title=" ">
<polygon fill="white" stroke="#666666" points="1592.62,-26 1435.62,-26 1435.62,-6 1592.62,-6 1592.62,-26"/>
<text text-anchor="middle" x="1514.12" y="-12.5" font-family="Helvetica,sans-Serif" font-size="10.00">test/comms/test_converters.cpp</text>
</a>
</g>
</g>
<!-- Node20&#45;&gt;Node21 -->
<g id="edge24_Node000020_Node000021" class="edge">
<title>Node20&#45;&gt;Node21</title>
<g id="a_edge24_Node000020_Node000021"><a xlink:title=" ">
<path fill="none" stroke="#63b8ff" d="M1622.23,-63.03C1593.73,-50.9 1558.66,-35.96 1536.34,-26.46"/>
<polygon fill="#63b8ff" stroke="#63b8ff" points="1620.82,-66.24 1631.39,-66.93 1623.56,-59.79 1620.82,-66.24"/>
</a>
</g>
</g>
<!-- Node22 -->
<g id="Node000022" class="node">
<title>Node22</title>
<g id="a_Node000022"><a xlink:href="test__frame__build_8cpp.html" target="_top" xlink:title=" ">
<polygon fill="white" stroke="#666666" points="1727.75,-32 1610.5,-32 1610.5,0 1727.75,0 1727.75,-32"/>
<text text-anchor="start" x="1618.5" y="-18.5" font-family="Helvetica,sans-Serif" font-size="10.00">test/comms/test_frame</text>
<text text-anchor="middle" x="1669.12" y="-6.5" font-family="Helvetica,sans-Serif" font-size="10.00">_build.cpp</text>
</a>
</g>
</g>
<!-- Node20&#45;&gt;Node22 -->
<g id="edge25_Node000020_Node000022" class="edge">
<title>Node20&#45;&gt;Node22</title>
<g id="a_edge25_Node000020_Node000022"><a xlink:title=" ">
<path fill="none" stroke="#63b8ff" d="M1669.12,-56.31C1669.12,-48.12 1669.12,-39.38 1669.12,-32.22"/>
<polygon fill="#63b8ff" stroke="#63b8ff" points="1665.63,-56.18 1669.13,-66.18 1672.63,-56.18 1665.63,-56.18"/>
</a>
</g>
</g>
<!-- Node23 -->
<g id="Node000023" class="node">
<title>Node23</title>
<g id="a_Node000023"><a xlink:href="test__frame__coding_8cpp.html" target="_top" xlink:title=" ">
<polygon fill="white" stroke="#666666" points="1862.75,-32 1745.5,-32 1745.5,0 1862.75,0 1862.75,-32"/>
<text text-anchor="start" x="1753.5" y="-18.5" font-family="Helvetica,sans-Serif" font-size="10.00">test/comms/test_frame</text>
<text text-anchor="middle" x="1804.12" y="-6.5" font-family="Helvetica,sans-Serif" font-size="10.00">_coding.cpp</text>
</a>
</g>
</g>
<!-- Node20&#45;&gt;Node23 -->
<g id="edge26_Node000020_Node000023" class="edge">
<title>Node20&#45;&gt;Node23</title>
<g id="a_edge26_Node000020_Node000023"><a xlink:title=" ">
<path fill="none" stroke="#63b8ff" d="M1711.11,-62.47C1731,-52.75 1754.34,-41.34 1772.67,-32.38"/>
<polygon fill="#63b8ff" stroke="#63b8ff" points="1709.58,-59.32 1702.14,-66.86 1712.66,-65.61 1709.58,-59.32"/>
</a>
</g>
</g>
</g>
</svg>
