<?xml version="1.0" encoding="UTF-8" standalone="no"?>
<!DOCTYPE svg PUBLIC "-//W3C//DTD SVG 1.1//EN"
 "http://www.w3.org/Graphics/SVG/1.1/DTD/svg11.dtd">
<!-- Generated by graphviz version 12.2.1 (20241206.2353)
 -->
<!-- Title: lib/utils.h Pages: 1 -->
<!--zoomable 288 -->

<svg id="main" version="1.1" xmlns="http://www.w3.org/2000/svg" xmlns:xlink="http://www.w3.org/1999/xlink" xml:space="preserve" onload="init(evt)">

<style type="text/css"><![CDATA[
.node, .edge {opacity: 0.7;}
.node.selected, .edge.selected {opacity: 1;}
.edge:hover path { stroke: red; }
.edge:hover polygon { stroke: red; fill: red; }
]]></style>

<defs>
  <circle id="rim" cx="0" cy="0" r="7"/>
  <circle id="rim2" cx="0" cy="0" r="3.5"/>
  <g id="zoomPlus">
    <use xlink:href="#rim" fill="#404040"><set attributeName="fill" to="#808080" begin="zoomplus.mouseover" end="zoomplus.mouseout"/></use>
    <path d="M-4,0h8M0,-4v8" fill="none" stroke="white" stroke-width="1.5" pointer-events="none"/>
  </g>
  <g id="zoomMin">
    <use xlink:href="#rim" fill="#404040"><set attributeName="fill" to="#808080" begin="zoomminus.mouseover" end="zoomminus.mouseout"/></use>
    <path d="M-4,0h8" fill="none" stroke="white" stroke-width="1.5" pointer-events="none"/>
  </g>
  <g id="arrowUp" transform="translate(30 24)">
    <use xlink:href="#rim"/>
    <path pointer-events="none" fill="none" stroke="white" stroke-width="1.5" d="M0,-3.0v7 M-2.5,-0.5L0,-3.0L2.5,-0.5"/>
  </g>
  <g id="arrowRight" transform="rotate(90) translate(36 -43)">
    <use xlink:href="#rim"/>
    <path pointer-events="none" fill="none" stroke="white" stroke-width="1.5" d="M0,-3.0v7 M-2.5,-0.5L0,-3.0L2.5,-0.5"/>
  </g>
  <g id="arrowDown" transform="rotate(180) translate(-30 -48)">
    <use xlink:href="#rim"/>
    <path pointer-events="none" fill="none" stroke="white" stroke-width="1.5" d="M0,-3.0v7 M-2.5,-0.5L0,-3.0L2.5,-0.5"/>
  </g>
  <g id="arrowLeft" transform="rotate(270) translate(-36 17)">
    <use xlink:href="#rim"/>
    <path pointer-events="none" fill="none" stroke="white" stroke-width="1.5" d="M0,-3.0v7 M-2.5,-0.5L0,-3.0L2.5,-0.5"/>
  </g>
  <g id="resetDef">
    <use xlink:href="#rim2" fill="#404040"><set attributeName="fill" to="#808080" begin="reset.mouseover" end="reset.mouseout"/></use>
  </g>
</defs>
<script type="application/ecmascript">
var viewWidth = 1716;
var viewHeight = 288;
var sectionId = 'dynsection-1';
</script>
<script type="application/ecmascript" xlink:href="svg.min.js"/>
<svg id="graph" class="graph">
<g id="viewport">
<title>lib/utils.h</title>
<!-- Node1 -->
<g id="Node000001" class="node">
<title>Node1</title>
<g id="a_Node000001"><a xlink:title=" ">
<polygon fill="#999999" stroke="#666666" points="1067.62,-280 1012.62,-280 1012.62,-260 1067.62,-260 1067.62,-280"/>
<text text-anchor="middle" x="1040.12" y="-266.5" font-family="Helvetica,sans-Serif" font-size="10.00">lib/utils.h</text>
</a>
</g>
</g>
<!-- Node2 -->
<g id="Node000002" class="node">
<title>Node2</title>
<g id="a_Node000002"><a xlink:href="includes_8h.html" target="_top" xlink:title=" ">
<polygon fill="white" stroke="#666666" points="60.25,-82 0,-82 0,-62 60.25,-62 60.25,-82"/>
<text text-anchor="middle" x="30.12" y="-68.5" font-family="Helvetica,sans-Serif" font-size="10.00">includes.h</text>
</a>
</g>
</g>
<!-- Node1&#45;&gt;Node2 -->
<g id="edge1_Node000001_Node000002" class="edge">
<title>Node1&#45;&gt;Node2</title>
<g id="a_edge1_Node000001_Node000002"><a xlink:title=" ">
<path fill="none" stroke="#63b8ff" d="M1001.02,-267.22C847.41,-259.74 286.05,-227.96 125.12,-156 86.54,-138.75 52.14,-100.33 37.54,-82.47"/>
<polygon fill="#63b8ff" stroke="#63b8ff" points="1000.51,-270.69 1010.66,-267.68 1000.84,-263.7 1000.51,-270.69"/>
</a>
</g>
</g>
<!-- Node4 -->
<g id="Node000004" class="node">
<title>Node4</title>
<g id="a_Node000004"><a xlink:href="_d_s3231_8cpp.html" target="_top" xlink:title=" ">
<polygon fill="white" stroke="#666666" points="1022.62,-218 913.62,-218 913.62,-198 1022.62,-198 1022.62,-218"/>
<text text-anchor="middle" x="968.12" y="-204.5" font-family="Helvetica,sans-Serif" font-size="10.00">lib/clock/DS3231.cpp</text>
</a>
</g>
</g>
<!-- Node1&#45;&gt;Node4 -->
<g id="edge3_Node000001_Node000004" class="edge">
<title>Node1&#45;&gt;Node4</title>
<g id="a_edge3_Node000001_Node000004"><a xlink:title=" ">
<path fill="none" stroke="#63b8ff" d="M1020.38,-252.55C1007.07,-241.45 990,-227.23 979.06,-218.11"/>
<polygon fill="#63b8ff" stroke="#63b8ff" points="1017.79,-254.94 1027.71,-258.66 1022.27,-249.57 1017.79,-254.94"/>
</a>
</g>
</g>
<!-- Node5 -->
<g id="Node000005" class="node">
<title>Node5</title>
<g id="a_Node000005"><a xlink:href="protocol_8h.html" target="_top" xlink:title=" ">
<polygon fill="white" stroke="#666666" points="803.5,-218 696.75,-218 696.75,-198 803.5,-198 803.5,-218"/>
<text text-anchor="middle" x="750.12" y="-204.5" font-family="Helvetica,sans-Serif" font-size="10.00">lib/comms/protocol.h</text>
</a>
</g>
</g>
<!-- Node1&#45;&gt;Node5 -->
<g id="edge4_Node000001_Node000005" class="edge">
<title>Node1&#45;&gt;Node5</title>
<g id="a_edge4_Node000001_Node000005"><a xlink:title=" ">
<path fill="none" stroke="#63b8ff" d="M1001.31,-260.97C948.04,-249.95 852.45,-230.17 795.8,-218.45"/>
<polygon fill="#63b8ff" stroke="#63b8ff" points="1000.33,-264.34 1010.84,-262.94 1001.75,-257.49 1000.33,-264.34"/>
</a>
</g>
</g>
<!-- Node19 -->
<g id="Node000019" class="node">
<title>Node19</title>
<g id="a_Node000019"><a xlink:href="event__manager_8cpp.html" target="_top" xlink:title="Implements the event management system for the Kubisat firmware.">
<polygon fill="white" stroke="#666666" points="1708.38,-88 1609.88,-88 1609.88,-56 1708.38,-56 1708.38,-88"/>
<text text-anchor="start" x="1617.88" y="-74.5" font-family="Helvetica,sans-Serif" font-size="10.00">lib/eventman/event</text>
<text text-anchor="middle" x="1659.12" y="-62.5" font-family="Helvetica,sans-Serif" font-size="10.00">_manager.cpp</text>
</a>
</g>
</g>
<!-- Node1&#45;&gt;Node19 -->
<g id="edge24_Node000001_Node000019" class="edge">
<title>Node1&#45;&gt;Node19</title>
<g id="a_edge24_Node000001_Node000019"><a xlink:title=" ">
<path fill="none" stroke="#63b8ff" d="M1001.15,-261.98C950.99,-251.31 873.83,-228.31 905.12,-192 1007.21,-73.53 1447.88,-119.18 1601.12,-88 1603.88,-87.44 1606.69,-86.83 1609.53,-86.19"/>
<polygon fill="#63b8ff" stroke="#63b8ff" points="1000.33,-265.39 1010.83,-263.95 1001.73,-258.53 1000.33,-265.39"/>
</a>
</g>
</g>
<!-- Node20 -->
<g id="Node000020" class="node">
<title>Node20</title>
<g id="a_Node000020"><a xlink:href="gps__collector_8cpp.html" target="_top" xlink:title=" ">
<polygon fill="white" stroke="#666666" points="1183.12,-218 1041.12,-218 1041.12,-198 1183.12,-198 1183.12,-218"/>
<text text-anchor="middle" x="1112.12" y="-204.5" font-family="Helvetica,sans-Serif" font-size="10.00">lib/location/gps_collector.cpp</text>
</a>
</g>
</g>
<!-- Node1&#45;&gt;Node20 -->
<g id="edge25_Node000001_Node000020" class="edge">
<title>Node1&#45;&gt;Node20</title>
<g id="a_edge25_Node000001_Node000020"><a xlink:title=" ">
<path fill="none" stroke="#63b8ff" d="M1059.87,-252.55C1073.18,-241.45 1090.25,-227.23 1101.19,-218.11"/>
<polygon fill="#63b8ff" stroke="#63b8ff" points="1057.98,-249.57 1052.54,-258.66 1062.46,-254.94 1057.98,-249.57"/>
</a>
</g>
</g>
<!-- Node21 -->
<g id="Node000021" class="node">
<title>Node21</title>
<g id="a_Node000021"><a xlink:href="_i_n_a3221_8cpp.html" target="_top" xlink:title=" ">
<polygon fill="white" stroke="#666666" points="1316.62,-224 1201.62,-224 1201.62,-192 1316.62,-192 1316.62,-224"/>
<text text-anchor="start" x="1209.62" y="-210.5" font-family="Helvetica,sans-Serif" font-size="10.00">lib/powerman/INA3221</text>
<text text-anchor="middle" x="1259.12" y="-198.5" font-family="Helvetica,sans-Serif" font-size="10.00">/INA3221.cpp</text>
</a>
</g>
</g>
<!-- Node1&#45;&gt;Node21 -->
<g id="edge26_Node000001_Node000021" class="edge">
<title>Node1&#45;&gt;Node21</title>
<g id="a_edge26_Node000001_Node000021"><a xlink:title=" ">
<path fill="none" stroke="#63b8ff" d="M1078.84,-258.39C1113.17,-248.99 1163.74,-235.13 1202.59,-224.49"/>
<polygon fill="#63b8ff" stroke="#63b8ff" points="1078.04,-254.98 1069.32,-261 1079.89,-261.73 1078.04,-254.98"/>
</a>
</g>
</g>
<!-- Node22 -->
<g id="Node000022" class="node">
<title>Node22</title>
<g id="a_Node000022"><a xlink:href="storage_8cpp.html" target="_top" xlink:title="Implements file system operations for the Kubisat firmware.">
<polygon fill="white" stroke="#666666" points="1449.62,-218 1334.62,-218 1334.62,-198 1449.62,-198 1449.62,-218"/>
<text text-anchor="middle" x="1392.12" y="-204.5" font-family="Helvetica,sans-Serif" font-size="10.00">lib/storage/storage.cpp</text>
</a>
</g>
</g>
<!-- Node1&#45;&gt;Node22 -->
<g id="edge27_Node000001_Node000022" class="edge">
<title>Node1&#45;&gt;Node22</title>
<g id="a_edge27_Node000001_Node000022"><a xlink:title=" ">
<path fill="none" stroke="#63b8ff" d="M1079.18,-263.71C1134.38,-256.03 1238.29,-240.87 1326.12,-224 1334.66,-222.36 1343.78,-220.41 1352.43,-218.48"/>
<polygon fill="#63b8ff" stroke="#63b8ff" points="1078.77,-260.23 1069.34,-265.07 1079.73,-267.16 1078.77,-260.23"/>
</a>
</g>
</g>
<!-- Node23 -->
<g id="Node000023" class="node">
<title>Node23</title>
<g id="a_Node000023"><a xlink:href="utils_8cpp.html" target="_top" xlink:title="Implements utility functions for the Kubisat firmware.">
<polygon fill="white" stroke="#666666" points="1532.88,-218 1467.38,-218 1467.38,-198 1532.88,-198 1532.88,-218"/>
<text text-anchor="middle" x="1500.12" y="-204.5" font-family="Helvetica,sans-Serif" font-size="10.00">lib/utils.cpp</text>
</a>
</g>
</g>
<!-- Node1&#45;&gt;Node23 -->
<g id="edge28_Node000001_Node000023" class="edge">
<title>Node1&#45;&gt;Node23</title>
<g id="a_edge28_Node000001_Node000023"><a xlink:title=" ">
<path fill="none" stroke="#63b8ff" d="M1079.13,-267.97C1153.83,-265.31 1321.83,-255.98 1459.12,-224 1465.18,-222.59 1471.56,-220.54 1477.44,-218.41"/>
<polygon fill="#63b8ff" stroke="#63b8ff" points="1079.36,-264.46 1069.48,-268.29 1079.59,-271.46 1079.36,-264.46"/>
</a>
</g>
</g>
<!-- Node3 -->
<g id="Node000003" class="node">
<title>Node3</title>
<g id="a_Node000003"><a xlink:href="main_8cpp.html" target="_top" xlink:title=" ">
<polygon fill="white" stroke="#666666" points="58,-20 2.25,-20 2.25,0 58,0 58,-20"/>
<text text-anchor="middle" x="30.12" y="-6.5" font-family="Helvetica,sans-Serif" font-size="10.00">main.cpp</text>
</a>
</g>
</g>
<!-- Node2&#45;&gt;Node3 -->
<g id="edge2_Node000002_Node000003" class="edge">
<title>Node2&#45;&gt;Node3</title>
<g id="a_edge2_Node000002_Node000003"><a xlink:title=" ">
<path fill="none" stroke="#63b8ff" d="M30.12,-50.25C30.12,-39.97 30.12,-28.09 30.12,-20.11"/>
<polygon fill="#63b8ff" stroke="#63b8ff" points="26.63,-50.11 30.13,-60.11 33.63,-50.11 26.63,-50.11"/>
</a>
</g>
</g>
<!-- Node5&#45;&gt;Node2 -->
<g id="edge5_Node000005_Node000002" class="edge">
<title>Node5&#45;&gt;Node2</title>
<g id="a_edge5_Node000005_Node000002"><a xlink:title=" ">
<path fill="none" stroke="#63b8ff" d="M684.89,-207.8C582.26,-207.52 377.65,-200.68 211.12,-156 146.68,-138.71 76.53,-100.31 45.91,-82.46"/>
<polygon fill="#63b8ff" stroke="#63b8ff" points="684.77,-211.3 694.78,-207.81 684.78,-204.3 684.77,-211.3"/>
</a>
</g>
</g>
<!-- Node6 -->
<g id="Node000006" class="node">
<title>Node6</title>
<g id="a_Node000006"><a xlink:href="commands_8h.html" target="_top" xlink:title=" ">
<polygon fill="white" stroke="#666666" points="332.12,-156 220.12,-156 220.12,-124 332.12,-124 332.12,-156"/>
<text text-anchor="start" x="228.12" y="-142.5" font-family="Helvetica,sans-Serif" font-size="10.00">lib/comms/commands</text>
<text text-anchor="middle" x="276.12" y="-130.5" font-family="Helvetica,sans-Serif" font-size="10.00">/commands.h</text>
</a>
</g>
</g>
<!-- Node5&#45;&gt;Node6 -->
<g id="edge6_Node000005_Node000006" class="edge">
<title>Node5&#45;&gt;Node6</title>
<g id="a_edge6_Node000005_Node000006"><a xlink:title=" ">
<path fill="none" stroke="#63b8ff" d="M685.4,-197.99C591.94,-184.97 420.75,-161.14 332.31,-148.82"/>
<polygon fill="#63b8ff" stroke="#63b8ff" points="684.79,-201.44 695.17,-199.35 685.75,-194.5 684.79,-201.44"/>
</a>
</g>
</g>
<!-- Node9 -->
<g id="Node000009" class="node">
<title>Node9</title>
<g id="a_Node000009"><a xlink:href="communication_8h.html" target="_top" xlink:title=" ">
<polygon fill="white" stroke="#666666" points="819.25,-150 681,-150 681,-130 819.25,-130 819.25,-150"/>
<text text-anchor="middle" x="750.12" y="-136.5" font-family="Helvetica,sans-Serif" font-size="10.00">lib/comms/communication.h</text>
</a>
</g>
</g>
<!-- Node5&#45;&gt;Node9 -->
<g id="edge9_Node000005_Node000009" class="edge">
<title>Node5&#45;&gt;Node9</title>
<g id="a_edge9_Node000005_Node000009"><a xlink:title=" ">
<path fill="none" stroke="#63b8ff" d="M750.12,-186.28C750.12,-174.27 750.12,-159.74 750.12,-150.44"/>
<polygon fill="#63b8ff" stroke="#63b8ff" points="746.63,-186.03 750.13,-196.03 753.63,-186.03 746.63,-186.03"/>
</a>
</g>
</g>
<!-- Node5&#45;&gt;Node19 -->
<g id="edge23_Node000005_Node000019" class="edge">
<title>Node5&#45;&gt;Node19</title>
<g id="a_edge23_Node000005_Node000019"><a xlink:title=" ">
<path fill="none" stroke="#63b8ff" d="M774.37,-191.68C789.9,-181.74 810.39,-168.38 828.12,-156 847.66,-142.36 848.7,-132.05 871.12,-124 1024,-69.14 1440.56,-112.46 1601.12,-88 1603.9,-87.58 1606.74,-87.08 1609.59,-86.52"/>
<polygon fill="#63b8ff" stroke="#63b8ff" points="772.8,-188.54 766.24,-196.86 776.56,-194.44 772.8,-188.54"/>
</a>
</g>
</g>
<!-- Node7 -->
<g id="Node000007" class="node">
<title>Node7</title>
<g id="a_Node000007"><a xlink:href="commands_8cpp.html" target="_top" xlink:title=" ">
<polygon fill="white" stroke="#666666" points="190.12,-88 78.12,-88 78.12,-56 190.12,-56 190.12,-88"/>
<text text-anchor="start" x="86.12" y="-74.5" font-family="Helvetica,sans-Serif" font-size="10.00">lib/comms/commands</text>
<text text-anchor="middle" x="134.12" y="-62.5" font-family="Helvetica,sans-Serif" font-size="10.00">/commands.cpp</text>
</a>
</g>
</g>
<!-- Node6&#45;&gt;Node7 -->
<g id="edge7_Node000006_Node000007" class="edge">
<title>Node6&#45;&gt;Node7</title>
<g id="a_edge7_Node000006_Node000007"><a xlink:title=" ">
<path fill="none" stroke="#63b8ff" d="M232.54,-118.74C211.5,-108.96 186.67,-97.42 167.21,-88.38"/>
<polygon fill="#63b8ff" stroke="#63b8ff" points="230.92,-121.85 241.46,-122.89 233.87,-115.5 230.92,-121.85"/>
</a>
</g>
</g>
<!-- Node8 -->
<g id="Node000008" class="node">
<title>Node8</title>
<g id="a_Node000008"><a xlink:href="diagnostic__commands_8cpp.html" target="_top" xlink:title=" ">
<polygon fill="white" stroke="#666666" points="343.75,-88 208.5,-88 208.5,-56 343.75,-56 343.75,-88"/>
<text text-anchor="start" x="216.5" y="-74.5" font-family="Helvetica,sans-Serif" font-size="10.00">lib/comms/commands</text>
<text text-anchor="middle" x="276.12" y="-62.5" font-family="Helvetica,sans-Serif" font-size="10.00">/diagnostic_commands.cpp</text>
</a>
</g>
</g>
<!-- Node6&#45;&gt;Node8 -->
<g id="edge8_Node000006_Node000008" class="edge">
<title>Node6&#45;&gt;Node8</title>
<g id="a_edge8_Node000006_Node000008"><a xlink:title=" ">
<path fill="none" stroke="#63b8ff" d="M276.12,-112.31C276.12,-104.12 276.12,-95.38 276.12,-88.22"/>
<polygon fill="#63b8ff" stroke="#63b8ff" points="272.63,-112.18 276.13,-122.18 279.63,-112.18 272.63,-112.18"/>
</a>
</g>
</g>
<!-- Node9&#45;&gt;Node2 -->
<g id="edge10_Node000009_Node000002" class="edge">
<title>Node9&#45;&gt;Node2</title>
<g id="a_edge10_Node000009_Node000002"><a xlink:title=" ">
<path fill="none" stroke="#63b8ff" d="M669.43,-135.91C514.63,-129.5 181.34,-113.21 69.12,-88 63.18,-86.66 56.94,-84.59 51.23,-82.41"/>
<polygon fill="#63b8ff" stroke="#63b8ff" points="669.07,-139.4 679.2,-136.31 669.35,-132.41 669.07,-139.4"/>
</a>
</g>
</g>
<!-- Node9&#45;&gt;Node7 -->
<g id="edge12_Node000009_Node000007" class="edge">
<title>Node9&#45;&gt;Node7</title>
<g id="a_edge12_Node000009_Node000007"><a xlink:title=" ">
<path fill="none" stroke="#63b8ff" d="M669.17,-134.92C561.37,-128.71 364.99,-114.69 199.12,-88 196.27,-87.54 193.35,-87.03 190.4,-86.48"/>
<polygon fill="#63b8ff" stroke="#63b8ff" points="668.9,-138.41 679.09,-135.48 669.3,-131.42 668.9,-138.41"/>
</a>
</g>
</g>
<!-- Node9&#45;&gt;Node8 -->
<g id="edge13_Node000009_Node000008" class="edge">
<title>Node9&#45;&gt;Node8</title>
<g id="a_edge13_Node000009_Node000008"><a xlink:title=" ">
<path fill="none" stroke="#63b8ff" d="M669.7,-130.21C589.34,-121.07 462.38,-105.64 353.12,-88 350.17,-87.52 347.15,-87.02 344.1,-86.49"/>
<polygon fill="#63b8ff" stroke="#63b8ff" points="668.89,-133.64 679.22,-131.29 669.68,-126.69 668.89,-133.64"/>
</a>
</g>
</g>
<!-- Node10 -->
<g id="Node000010" class="node">
<title>Node10</title>
<g id="a_Node000010"><a xlink:href="clock__commands_8cpp.html" target="_top" xlink:title=" ">
<polygon fill="white" stroke="#666666" points="476.25,-88 362,-88 362,-56 476.25,-56 476.25,-88"/>
<text text-anchor="start" x="370" y="-74.5" font-family="Helvetica,sans-Serif" font-size="10.00">lib/comms/commands</text>
<text text-anchor="middle" x="419.12" y="-62.5" font-family="Helvetica,sans-Serif" font-size="10.00">/clock_commands.cpp</text>
</a>
</g>
</g>
<!-- Node9&#45;&gt;Node10 -->
<g id="edge11_Node000009_Node000010" class="edge">
<title>Node9&#45;&gt;Node10</title>
<g id="a_edge11_Node000009_Node000010"><a xlink:title=" ">
<path fill="none" stroke="#63b8ff" d="M687.91,-127.51C634.34,-117.5 555.03,-102.36 486.12,-88 482.97,-87.34 479.74,-86.66 476.48,-85.96"/>
<polygon fill="#63b8ff" stroke="#63b8ff" points="686.97,-130.9 697.44,-129.29 688.26,-124.02 686.97,-130.9"/>
</a>
</g>
</g>
<!-- Node11 -->
<g id="Node000011" class="node">
<title>Node11</title>
<g id="a_Node000011"><a xlink:href="event__commands_8cpp.html" target="_top" xlink:title=" ">
<polygon fill="white" stroke="#666666" points="609.62,-88 494.62,-88 494.62,-56 609.62,-56 609.62,-88"/>
<text text-anchor="start" x="502.62" y="-74.5" font-family="Helvetica,sans-Serif" font-size="10.00">lib/comms/commands</text>
<text text-anchor="middle" x="552.12" y="-62.5" font-family="Helvetica,sans-Serif" font-size="10.00">/event_commands.cpp</text>
</a>
</g>
</g>
<!-- Node9&#45;&gt;Node11 -->
<g id="edge14_Node000009_Node000011" class="edge">
<title>Node9&#45;&gt;Node11</title>
<g id="a_edge14_Node000009_Node000011"><a xlink:title=" ">
<path fill="none" stroke="#63b8ff" d="M710.92,-125.93C678.56,-115.15 632.57,-99.82 598.41,-88.43"/>
<polygon fill="#63b8ff" stroke="#63b8ff" points="709.73,-129.22 720.32,-129.07 711.94,-122.58 709.73,-129.22"/>
</a>
</g>
</g>
<!-- Node12 -->
<g id="Node000012" class="node">
<title>Node12</title>
<g id="a_Node000012"><a xlink:href="gps__commands_8cpp.html" target="_top" xlink:title=" ">
<polygon fill="white" stroke="#666666" points="740.12,-88 628.12,-88 628.12,-56 740.12,-56 740.12,-88"/>
<text text-anchor="start" x="636.12" y="-74.5" font-family="Helvetica,sans-Serif" font-size="10.00">lib/comms/commands</text>
<text text-anchor="middle" x="684.12" y="-62.5" font-family="Helvetica,sans-Serif" font-size="10.00">/gps_commands.cpp</text>
</a>
</g>
</g>
<!-- Node9&#45;&gt;Node12 -->
<g id="edge15_Node000009_Node000012" class="edge">
<title>Node9&#45;&gt;Node12</title>
<g id="a_edge15_Node000009_Node000012"><a xlink:title=" ">
<path fill="none" stroke="#63b8ff" d="M732.73,-121.6C722.38,-111.26 709.38,-98.25 699.43,-88.3"/>
<polygon fill="#63b8ff" stroke="#63b8ff" points="730.05,-123.88 739.6,-128.47 735,-118.93 730.05,-123.88"/>
</a>
</g>
</g>
<!-- Node13 -->
<g id="Node000013" class="node">
<title>Node13</title>
<g id="a_Node000013"><a xlink:href="power__commands_8cpp.html" target="_top" xlink:title=" ">
<polygon fill="white" stroke="#666666" points="875.75,-88 758.5,-88 758.5,-56 875.75,-56 875.75,-88"/>
<text text-anchor="start" x="766.5" y="-74.5" font-family="Helvetica,sans-Serif" font-size="10.00">lib/comms/commands</text>
<text text-anchor="middle" x="817.12" y="-62.5" font-family="Helvetica,sans-Serif" font-size="10.00">/power_commands.cpp</text>
</a>
</g>
</g>
<!-- Node9&#45;&gt;Node13 -->
<g id="edge16_Node000009_Node000013" class="edge">
<title>Node9&#45;&gt;Node13</title>
<g id="a_edge16_Node000009_Node000013"><a xlink:title=" ">
<path fill="none" stroke="#63b8ff" d="M767.78,-121.6C778.29,-111.26 791.49,-98.25 801.59,-88.3"/>
<polygon fill="#63b8ff" stroke="#63b8ff" points="765.47,-118.97 760.8,-128.48 770.38,-123.96 765.47,-118.97"/>
</a>
</g>
</g>
<!-- Node14 -->
<g id="Node000014" class="node">
<title>Node14</title>
<g id="a_Node000014"><a xlink:href="communication_8cpp.html" target="_top" xlink:title=" ">
<polygon fill="white" stroke="#666666" points="1042.5,-82 893.75,-82 893.75,-62 1042.5,-62 1042.5,-82"/>
<text text-anchor="middle" x="968.12" y="-68.5" font-family="Helvetica,sans-Serif" font-size="10.00">lib/comms/communication.cpp</text>
</a>
</g>
</g>
<!-- Node9&#45;&gt;Node14 -->
<g id="edge17_Node000009_Node000014" class="edge">
<title>Node9&#45;&gt;Node14</title>
<g id="a_edge17_Node000009_Node000014"><a xlink:title=" ">
<path fill="none" stroke="#63b8ff" d="M792.15,-126.28C834.52,-113.45 898.93,-93.95 936.95,-82.44"/>
<polygon fill="#63b8ff" stroke="#63b8ff" points="791.36,-122.86 782.81,-129.11 793.39,-129.56 791.36,-122.86"/>
</a>
</g>
</g>
<!-- Node15 -->
<g id="Node000015" class="node">
<title>Node15</title>
<g id="a_Node000015"><a xlink:href="frame_8cpp.html" target="_top" xlink:title="Implements functions for encoding, decoding, building, and processing Frames.">
<polygon fill="white" stroke="#666666" points="1167.88,-82 1060.38,-82 1060.38,-62 1167.88,-62 1167.88,-82"/>
<text text-anchor="middle" x="1114.12" y="-68.5" font-family="Helvetica,sans-Serif" font-size="10.00">lib/comms/frame.cpp</text>
</a>
</g>
</g>
<!-- Node9&#45;&gt;Node15 -->
<g id="edge18_Node000009_Node000015" class="edge">
<title>Node9&#45;&gt;Node15</title>
<g id="a_edge18_Node000009_Node000015"><a xlink:title=" ">
<path fill="none" stroke="#63b8ff" d="M813.17,-127.5C819.9,-126.31 826.65,-125.12 833.12,-124 929.89,-107.27 954.86,-107.38 1051.12,-88 1059.28,-86.36 1067.99,-84.41 1076.24,-82.47"/>
<polygon fill="#63b8ff" stroke="#63b8ff" points="812.62,-124.05 803.4,-129.25 813.86,-130.94 812.62,-124.05"/>
</a>
</g>
</g>
<!-- Node16 -->
<g id="Node000016" class="node">
<title>Node16</title>
<g id="a_Node000016"><a xlink:href="receive_8cpp.html" target="_top" xlink:title="Implements functions for receiving and processing data, including LoRa and UART input.">
<polygon fill="white" stroke="#666666" points="1300.25,-82 1186,-82 1186,-62 1300.25,-62 1300.25,-82"/>
<text text-anchor="middle" x="1243.12" y="-68.5" font-family="Helvetica,sans-Serif" font-size="10.00">lib/comms/receive.cpp</text>
</a>
</g>
</g>
<!-- Node9&#45;&gt;Node16 -->
<g id="edge19_Node000009_Node000016" class="edge">
<title>Node9&#45;&gt;Node16</title>
<g id="a_edge19_Node000009_Node000016"><a xlink:title=" ">
<path fill="none" stroke="#63b8ff" d="M810.3,-127.58C817.97,-126.29 825.72,-125.05 833.12,-124 985.31,-102.32 1025.46,-113.08 1177.12,-88 1186.28,-86.49 1196.07,-84.48 1205.24,-82.42"/>
<polygon fill="#63b8ff" stroke="#63b8ff" points="809.93,-124.09 800.67,-129.25 811.12,-130.99 809.93,-124.09"/>
</a>
</g>
</g>
<!-- Node17 -->
<g id="Node000017" class="node">
<title>Node17</title>
<g id="a_Node000017"><a xlink:href="send_8cpp.html" target="_top" xlink:title="Implements functions for sending data, including LoRa messages and Frames.">
<polygon fill="white" stroke="#666666" points="1422,-82 1318.25,-82 1318.25,-62 1422,-62 1422,-82"/>
<text text-anchor="middle" x="1370.12" y="-68.5" font-family="Helvetica,sans-Serif" font-size="10.00">lib/comms/send.cpp</text>
</a>
</g>
</g>
<!-- Node9&#45;&gt;Node17 -->
<g id="edge20_Node000009_Node000017" class="edge">
<title>Node9&#45;&gt;Node17</title>
<g id="a_edge20_Node000009_Node000017"><a xlink:title=" ">
<path fill="none" stroke="#63b8ff" d="M809.09,-127.57C817.15,-126.24 825.33,-125 833.12,-124 1043.57,-97.1 1099.62,-121.45 1309.12,-88 1317.85,-86.61 1327.16,-84.59 1335.81,-82.49"/>
<polygon fill="#63b8ff" stroke="#63b8ff" points="808.59,-124.11 799.33,-129.25 809.78,-131 808.59,-124.11"/>
</a>
</g>
</g>
<!-- Node18 -->
<g id="Node000018" class="node">
<title>Node18</title>
<g id="a_Node000018"><a xlink:href="utils__converters_8cpp.html" target="_top" xlink:title="Implements utility functions for converting between different data types.">
<polygon fill="white" stroke="#666666" points="1592,-82 1440.25,-82 1440.25,-62 1592,-62 1592,-82"/>
<text text-anchor="middle" x="1516.12" y="-68.5" font-family="Helvetica,sans-Serif" font-size="10.00">lib/comms/utils_converters.cpp</text>
</a>
</g>
</g>
<!-- Node9&#45;&gt;Node18 -->
<g id="edge21_Node000009_Node000018" class="edge">
<title>Node9&#45;&gt;Node18</title>
<g id="a_edge21_Node000009_Node000018"><a xlink:title=" ">
<path fill="none" stroke="#63b8ff" d="M808.18,-127.61C816.53,-126.23 825.03,-124.97 833.12,-124 1097.49,-92.27 1166.7,-119.19 1431.12,-88 1443.18,-86.58 1456.12,-84.55 1468.17,-82.45"/>
<polygon fill="#63b8ff" stroke="#63b8ff" points="807.7,-124.14 798.44,-129.28 808.89,-131.04 807.7,-124.14"/>
</a>
</g>
</g>
<!-- Node9&#45;&gt;Node19 -->
<g id="edge22_Node000009_Node000019" class="edge">
<title>Node9&#45;&gt;Node19</title>
<g id="a_edge22_Node000009_Node000019"><a xlink:title=" ">
<path fill="none" stroke="#63b8ff" d="M807.57,-127.6C816.11,-126.21 824.83,-124.94 833.12,-124 1172.66,-85.53 1263.25,-139.05 1601.12,-88 1603.9,-87.58 1606.74,-87.08 1609.59,-86.53"/>
<polygon fill="#63b8ff" stroke="#63b8ff" points="807.25,-124.11 797.99,-129.25 808.44,-131.01 807.25,-124.11"/>
</a>
</g>
</g>
</g>
</svg>

<g id="navigator" transform="translate(0 0)" fill="#404254">
  <rect fill="#f2f5e9" fill-opacity="0.5" stroke="#606060" stroke-width=".5" x="0" y="0" width="60" height="60"/>
  <use id="zoomplus" xlink:href="#zoomPlus" x="17" y="9" onmousedown="handleZoom(evt,'in')"/>
  <use id="zoomminus" xlink:href="#zoomMin" x="42" y="9" onmousedown="handleZoom(evt,'out')"/>
  <use id="reset" xlink:href="#resetDef" x="30" y="36" onmousedown="handleReset()"/>
   <use id="arrowup" xlink:href="#arrowUp" x="0" y="0" onmousedown="handlePan(0,-1)"/>
  <use id="arrowright" xlink:href="#arrowRight" x="0" y="0" onmousedown="handlePan(1,0)"/>
  <use id="arrowdown" xlink:href="#arrowDown" x="0" y="0" onmousedown="handlePan(0,1)"/>
  <use id="arrowleft" xlink:href="#arrowLeft" x="0" y="0" onmousedown="handlePan(-1,0)"/>
</g>
<svg viewBox="0 0 15 15" width="100%" height="30px" preserveAspectRatio="xMaxYMin meet">
 <g id="arrow_out" transform="scale(0.3 0.3)">
  <a xlink:href="utils_8h__dep__incl_org.svg" target="_base">
   <rect id="button" ry="5" rx="5" y="6" x="6" height="38" width="38"
        fill="#f2f5e9" fill-opacity="0.5" stroke="#606060" stroke-width="1.0"/>
   <path id="arrow"
     d="M 11.500037,31.436501 C 11.940474,20.09759 22.043105,11.32322 32.158766,21.979434 L 37.068811,17.246167 C 37.068811,17.246167 37.088388,32 37.088388,32 L 22.160133,31.978069 C 22.160133,31.978069 26.997745,27.140456 26.997745,27.140456 C 18.528582,18.264221 13.291696,25.230495 11.500037,31.436501 z"
     style="fill:#404040;"/>
  </a>
 </g>
</svg>

<style type='text/css'>
<![CDATA[
[data-mouse-over-selected='false'] { opacity: 0.7; }
[data-mouse-over-selected='true']  { opacity: 1.0; }
]]>
</style>
<script type="application/ecmascript"><![CDATA[
document.addEventListener('DOMContentLoaded', (event) => {
  highlightEdges();
  highlightAdjacentNodes();
});
]]></script>
</svg>
