<?xml version="1.0" encoding="UTF-8" standalone="no"?>
<!DOCTYPE svg PUBLIC "-//W3C//DTD SVG 1.1//EN"
 "http://www.w3.org/Graphics/SVG/1.1/DTD/svg11.dtd">
<!-- Generated by graphviz version 12.2.1 (20241206.2353)
 -->
<!-- Title: uart_print Pages: 1 -->
<!--zoomable 963 -->

<svg id="main" version="1.1" xmlns="http://www.w3.org/2000/svg" xmlns:xlink="http://www.w3.org/1999/xlink" xml:space="preserve" onload="init(evt)">

<style type="text/css"><![CDATA[
.node, .edge {opacity: 0.7;}
.node.selected, .edge.selected {opacity: 1;}
.edge:hover path { stroke: red; }
.edge:hover polygon { stroke: red; fill: red; }
]]></style>

<defs>
  <circle id="rim" cx="0" cy="0" r="7"/>
  <circle id="rim2" cx="0" cy="0" r="3.5"/>
  <g id="zoomPlus">
    <use xlink:href="#rim" fill="#404040"><set attributeName="fill" to="#808080" begin="zoomplus.mouseover" end="zoomplus.mouseout"/></use>
    <path d="M-4,0h8M0,-4v8" fill="none" stroke="white" stroke-width="1.5" pointer-events="none"/>
  </g>
  <g id="zoomMin">
    <use xlink:href="#rim" fill="#404040"><set attributeName="fill" to="#808080" begin="zoomminus.mouseover" end="zoomminus.mouseout"/></use>
    <path d="M-4,0h8" fill="none" stroke="white" stroke-width="1.5" pointer-events="none"/>
  </g>
  <g id="arrowUp" transform="translate(30 24)">
    <use xlink:href="#rim"/>
    <path pointer-events="none" fill="none" stroke="white" stroke-width="1.5" d="M0,-3.0v7 M-2.5,-0.5L0,-3.0L2.5,-0.5"/>
  </g>
  <g id="arrowRight" transform="rotate(90) translate(36 -43)">
    <use xlink:href="#rim"/>
    <path pointer-events="none" fill="none" stroke="white" stroke-width="1.5" d="M0,-3.0v7 M-2.5,-0.5L0,-3.0L2.5,-0.5"/>
  </g>
  <g id="arrowDown" transform="rotate(180) translate(-30 -48)">
    <use xlink:href="#rim"/>
    <path pointer-events="none" fill="none" stroke="white" stroke-width="1.5" d="M0,-3.0v7 M-2.5,-0.5L0,-3.0L2.5,-0.5"/>
  </g>
  <g id="arrowLeft" transform="rotate(270) translate(-36 17)">
    <use xlink:href="#rim"/>
    <path pointer-events="none" fill="none" stroke="white" stroke-width="1.5" d="M0,-3.0v7 M-2.5,-0.5L0,-3.0L2.5,-0.5"/>
  </g>
  <g id="resetDef">
    <use xlink:href="#rim2" fill="#404040"><set attributeName="fill" to="#808080" begin="reset.mouseover" end="reset.mouseout"/></use>
  </g>
</defs>
<script type="application/ecmascript">
var viewWidth = 946;
var viewHeight = 963;
var sectionId = 'dynsection-2';
</script>
<script type="application/ecmascript" xlink:href="svg.min.js"/>
<svg id="graph" class="graph">
<g id="viewport">
<title>uart_print</title>
<!-- Node1 -->
<g id="Node000001" class="node">
<title>Node1</title>
<g id="a_Node000001"><a xlink:title="Prints a message to the UART with a timestamp and core number.">
<polygon fill="#999999" stroke="#666666" points="937.75,-505 881.25,-505 881.25,-485 937.75,-485 937.75,-505"/>
<text text-anchor="middle" x="909.5" y="-491.5" font-family="Helvetica,sans-Serif" font-size="10.00">uart_print</text>
</a>
</g>
</g>
<!-- Node2 -->
<g id="Node000002" class="node">
<title>Node2</title>
<g id="a_Node000002"><a xlink:href="class_i_n_a3221.html#a868af24425b042f330a0e7fae8210936" target="_top" xlink:title=" ">
<polygon fill="white" stroke="#666666" points="819.75,-955 736.25,-955 736.25,-935 819.75,-935 819.75,-955"/>
<text text-anchor="middle" x="778" y="-941.5" font-family="Helvetica,sans-Serif" font-size="10.00">INA3221::begin</text>
</a>
</g>
</g>
<!-- Node1&#45;&gt;Node2 -->
<g id="edge1_Node000001_Node000002" class="edge">
<title>Node1&#45;&gt;Node2</title>
<g id="a_edge1_Node000001_Node000002"><a xlink:title=" ">
<path fill="none" stroke="#63b8ff" d="M908.32,-516.71C907.22,-595.35 899.49,-863.99 845.25,-926 838.71,-933.48 829.45,-938.1 819.92,-940.94"/>
<polygon fill="#63b8ff" stroke="#63b8ff" points="911.82,-516.96 908.43,-506.92 904.82,-516.88 911.82,-516.96"/>
</a>
</g>
</g>
<!-- Node3 -->
<g id="Node000003" class="node">
<title>Node3</title>
<g id="a_Node000003"><a xlink:href="event__manager_8cpp.html#a3a1b3fdef7c62da5c917d3006cdc65dd" target="_top" xlink:title="Checks power statuses and triggers events based on voltage trends.">
<polygon fill="white" stroke="#666666" points="832.12,-917 723.88,-917 723.88,-897 832.12,-897 832.12,-917"/>
<text text-anchor="middle" x="778" y="-903.5" font-family="Helvetica,sans-Serif" font-size="10.00">check_power_events</text>
</a>
</g>
</g>
<!-- Node1&#45;&gt;Node3 -->
<g id="edge2_Node000001_Node000003" class="edge">
<title>Node1&#45;&gt;Node3</title>
<g id="a_edge2_Node000001_Node000003"><a xlink:title=" ">
<path fill="none" stroke="#63b8ff" d="M907.78,-516.75C904.93,-590.02 892.21,-826.38 845.25,-883 840.41,-888.84 834.03,-893.26 827.13,-896.6"/>
<polygon fill="#63b8ff" stroke="#63b8ff" points="911.27,-517.02 908.14,-506.9 904.28,-516.77 911.27,-517.02"/>
</a>
</g>
</g>
<!-- Node4 -->
<g id="Node000004" class="node">
<title>Node4</title>
<g id="a_Node000004"><a xlink:href="main_8cpp.html#a9f153132b8b4afad133b952111e18bd9" target="_top" xlink:title=" ">
<polygon fill="white" stroke="#666666" points="649.25,-890 582.25,-890 582.25,-870 649.25,-870 649.25,-890"/>
<text text-anchor="middle" x="615.75" y="-876.5" font-family="Helvetica,sans-Serif" font-size="10.00">core1_entry</text>
</a>
</g>
</g>
<!-- Node1&#45;&gt;Node4 -->
<g id="edge5_Node000001_Node000004" class="edge">
<title>Node1&#45;&gt;Node4</title>
<g id="a_edge5_Node000001_Node000004"><a xlink:title=" ">
<path fill="none" stroke="#63b8ff" d="M907.76,-516.72C904.95,-585.85 892.53,-798.97 845.25,-845 818,-871.53 705.89,-877.96 649.48,-879.51"/>
<polygon fill="#63b8ff" stroke="#63b8ff" points="911.26,-516.86 908.14,-506.74 904.26,-516.6 911.26,-516.86"/>
</a>
</g>
</g>
<!-- Node5 -->
<g id="Node000005" class="node">
<title>Node5</title>
<g id="a_Node000005"><a xlink:href="main_8cpp.html#ae66f6b31b5ad750f1fe042a706a4e3d4" target="_top" xlink:title=" ">
<polygon fill="white" stroke="#666666" points="37,-707 0,-707 0,-687 37,-687 37,-707"/>
<text text-anchor="middle" x="18.5" y="-693.5" font-family="Helvetica,sans-Serif" font-size="10.00">main</text>
</a>
</g>
</g>
<!-- Node1&#45;&gt;Node5 -->
<g id="edge36_Node000001_Node000005" class="edge">
<title>Node1&#45;&gt;Node5</title>
<g id="a_edge36_Node000001_Node000005"><a xlink:title=" ">
<path fill="none" stroke="#63b8ff" d="M907.2,-516.73C902.97,-579.7 887.31,-760.19 845.25,-798 792.01,-845.85 272.67,-830.66 201.5,-823 143.38,-816.74 119.78,-830.04 73,-795 42.9,-772.46 27.7,-727.8 22.1,-707.49"/>
<polygon fill="#63b8ff" stroke="#63b8ff" points="910.68,-517.19 907.82,-506.99 903.69,-516.74 910.68,-517.19"/>
</a>
</g>
</g>
<!-- Node6 -->
<g id="Node000006" class="node">
<title>Node6</title>
<g id="a_Node000006"><a xlink:href="frame_8cpp.html#a0b3438ff642c0934321101e1f0b8d82d" target="_top" xlink:title="Converts a string into a Frame instance.">
<polygon fill="white" stroke="#666666" points="484,-802 406.5,-802 406.5,-782 484,-782 484,-802"/>
<text text-anchor="middle" x="445.25" y="-788.5" font-family="Helvetica,sans-Serif" font-size="10.00">frame_decode</text>
</a>
</g>
</g>
<!-- Node1&#45;&gt;Node6 -->
<g id="edge6_Node000001_Node000006" class="edge">
<title>Node1&#45;&gt;Node6</title>
<g id="a_edge6_Node000001_Node000006"><a xlink:title=" ">
<path fill="none" stroke="#63b8ff" d="M906.76,-516.56C901.53,-575.19 883.94,-735.31 845.25,-768 791.58,-813.35 573.16,-801.97 484.21,-795.24"/>
<polygon fill="#63b8ff" stroke="#63b8ff" points="910.22,-517.16 907.58,-506.89 903.24,-516.56 910.22,-517.16"/>
</a>
</g>
</g>
<!-- Node8 -->
<g id="Node000008" class="node">
<title>Node8</title>
<g id="a_Node000008"><a xlink:href="receive_8cpp.html#a14ffba44d46e00b23bd72bdb3a4d58d1" target="_top" xlink:title="Handles UART input.">
<polygon fill="white" stroke="#666666" points="165.5,-726 73,-726 73,-706 165.5,-706 165.5,-726"/>
<text text-anchor="middle" x="119.25" y="-712.5" font-family="Helvetica,sans-Serif" font-size="10.00">handle_uart_input</text>
</a>
</g>
</g>
<!-- Node1&#45;&gt;Node8 -->
<g id="edge31_Node000001_Node000008" class="edge">
<title>Node1&#45;&gt;Node8</title>
<g id="a_edge31_Node000001_Node000008"><a xlink:title=" ">
<path fill="none" stroke="#63b8ff" d="M905.72,-516.49C898.53,-568.33 877.64,-697.99 845.25,-725 764.08,-792.69 475.3,-740.43 369.75,-735 298.38,-731.33 215.71,-724.53 165.74,-720.14"/>
<polygon fill="#63b8ff" stroke="#63b8ff" points="909.15,-517.23 907.01,-506.86 902.21,-516.3 909.15,-517.23"/>
</a>
</g>
</g>
<!-- Node9 -->
<g id="Node000009" class="node">
<title>Node9</title>
<g id="a_Node000009"><a xlink:href="receive_8cpp.html#a3f494105dee3a08e1244febc81982517" target="_top" xlink:title="Callback function for handling received LoRa packets.">
<polygon fill="white" stroke="#666666" points="150.88,-688 87.62,-688 87.62,-668 150.88,-668 150.88,-688"/>
<text text-anchor="middle" x="119.25" y="-674.5" font-family="Helvetica,sans-Serif" font-size="10.00">on_receive</text>
</a>
</g>
</g>
<!-- Node1&#45;&gt;Node9 -->
<g id="edge37_Node000001_Node000009" class="edge">
<title>Node1&#45;&gt;Node9</title>
<g id="a_edge37_Node000001_Node000009"><a xlink:title=" ">
<path fill="none" stroke="#63b8ff" d="M904.84,-516.34C898.51,-545.85 882.43,-598.06 845.25,-621 794.38,-652.39 770.42,-624.67 710.75,-621 641.92,-616.77 610.99,-644.59 556.75,-602 521.24,-574.11 557.91,-532.65 520.75,-507 465.52,-468.87 433.86,-487.14 369.75,-507 263.41,-539.94 162.09,-635.59 130.4,-667.5"/>
<polygon fill="#63b8ff" stroke="#63b8ff" points="908.24,-517.21 906.7,-506.73 901.37,-515.88 908.24,-517.21"/>
</a>
</g>
</g>
<!-- Node13 -->
<g id="Node000013" class="node">
<title>Node13</title>
<g id="a_Node000013"><a xlink:href="storage_8cpp.html#afb19e37469a751aa61de3dcd0c70b4b0" target="_top" xlink:title="Initializes the file system on the SD card.">
<polygon fill="white" stroke="#666666" points="636.88,-297 594.62,-297 594.62,-277 636.88,-277 636.88,-297"/>
<text text-anchor="middle" x="615.75" y="-283.5" font-family="Helvetica,sans-Serif" font-size="10.00">fs_init</text>
</a>
</g>
</g>
<!-- Node1&#45;&gt;Node13 -->
<g id="edge16_Node000001_Node000013" class="edge">
<title>Node1&#45;&gt;Node13</title>
<g id="a_edge16_Node000001_Node000013"><a xlink:title=" ">
<path fill="none" stroke="#63b8ff" d="M908.07,-473.29C906.19,-403.31 896.25,-185.66 845.25,-143 799.4,-104.65 763.32,-114.54 710.75,-143 656.14,-172.57 628.22,-249.15 619.67,-276.83"/>
<polygon fill="#63b8ff" stroke="#63b8ff" points="904.57,-473.14 908.3,-483.05 911.56,-472.98 904.57,-473.14"/>
</a>
</g>
</g>
<!-- Node14 -->
<g id="Node000014" class="node">
<title>Node14</title>
<g id="a_Node000014"><a xlink:href="main_8cpp.html#a8fa5379b5bec497b881cec19f2b38779" target="_top" xlink:title=" ">
<polygon fill="white" stroke="#666666" points="481,-460 409.5,-460 409.5,-440 481,-440 481,-460"/>
<text text-anchor="middle" x="445.25" y="-446.5" font-family="Helvetica,sans-Serif" font-size="10.00">init_systems</text>
</a>
</g>
</g>
<!-- Node1&#45;&gt;Node14 -->
<g id="edge32_Node000001_Node000014" class="edge">
<title>Node1&#45;&gt;Node14</title>
<g id="a_edge32_Node000001_Node000014"><a xlink:title=" ">
<path fill="none" stroke="#63b8ff" d="M908.83,-473.42C909.52,-394.11 907.33,-120.58 845.25,-67 674.43,80.43 481,-365.55 450.42,-439.71"/>
<polygon fill="#63b8ff" stroke="#63b8ff" points="905.33,-473.24 908.71,-483.28 912.33,-473.32 905.33,-473.24"/>
</a>
</g>
</g>
<!-- Node15 -->
<g id="Node000015" class="node">
<title>Node15</title>
<g id="a_Node000015"><a xlink:href="class_d_s3231.html#ad5a93c1afc0e44f96e08ce99258c5228" target="_top" xlink:title=" ">
<polygon fill="white" stroke="#666666" points="825.38,-612 730.62,-612 730.62,-592 825.38,-592 825.38,-612"/>
<text text-anchor="middle" x="778" y="-598.5" font-family="Helvetica,sans-Serif" font-size="10.00">DS3231::get_time</text>
</a>
</g>
</g>
<!-- Node1&#45;&gt;Node15 -->
<g id="edge19_Node000001_Node000015" class="edge">
<title>Node1&#45;&gt;Node15</title>
<g id="a_edge19_Node000001_Node000015"><a xlink:title=" ">
<path fill="none" stroke="#63b8ff" d="M898.79,-515.69C888.32,-535.79 869.8,-565.72 845.25,-583 839.38,-587.13 832.62,-590.37 825.72,-592.91"/>
<polygon fill="#63b8ff" stroke="#63b8ff" points="901.9,-517.3 903.21,-506.78 895.63,-514.18 901.9,-517.3"/>
</a>
</g>
</g>
<!-- Node17 -->
<g id="Node000017" class="node">
<title>Node17</title>
<g id="a_Node000017"><a xlink:href="group___g_p_s_commands.html#ga3e4c6db6e933a1ff77f3ac52ce1c44be" target="_top" xlink:title="Handler for enabling GPS transparent mode (UART pass&#45;through)">
<polygon fill="white" stroke="#666666" points="838.5,-574 717.5,-574 717.5,-542 838.5,-542 838.5,-574"/>
<text text-anchor="start" x="725.5" y="-560.5" font-family="Helvetica,sans-Serif" font-size="10.00">handle_enable_gps_uart</text>
<text text-anchor="middle" x="778" y="-548.5" font-family="Helvetica,sans-Serif" font-size="10.00">_passthrough</text>
</a>
</g>
</g>
<!-- Node1&#45;&gt;Node17 -->
<g id="edge21_Node000001_Node000017" class="edge">
<title>Node1&#45;&gt;Node17</title>
<g id="a_edge21_Node000001_Node000017"><a xlink:title=" ">
<path fill="none" stroke="#63b8ff" d="M879.23,-510.7C868.59,-516.3 856.44,-522.55 845.25,-528 835.94,-532.53 825.8,-537.24 816.31,-541.54"/>
<polygon fill="#63b8ff" stroke="#63b8ff" points="880.73,-513.87 887.93,-506.1 877.45,-507.69 880.73,-513.87"/>
</a>
</g>
</g>
<!-- Node18 -->
<g id="Node000018" class="node">
<title>Node18</title>
<g id="a_Node000018"><a xlink:href="group___diagnostic_commands.html#ga3ab5723218b68d3ac5cd864e00ed157a" target="_top" xlink:title="Reboot system to USB firmware loader.">
<polygon fill="white" stroke="#666666" points="520.75,-726 369.75,-726 369.75,-706 520.75,-706 520.75,-726"/>
<text text-anchor="middle" x="445.25" y="-712.5" font-family="Helvetica,sans-Serif" font-size="10.00">handle_enter_bootloader_mode</text>
</a>
</g>
</g>
<!-- Node1&#45;&gt;Node18 -->
<g id="edge22_Node000001_Node000018" class="edge">
<title>Node1&#45;&gt;Node18</title>
<g id="a_edge22_Node000001_Node000018"><a xlink:title=" ">
<path fill="none" stroke="#63b8ff" d="M909.1,-516.58C908.97,-559.08 901.93,-653.24 845.25,-697 796.4,-734.72 622.58,-729.17 521.19,-722.29"/>
<polygon fill="#63b8ff" stroke="#63b8ff" points="912.6,-516.64 908.98,-506.68 905.6,-516.72 912.6,-516.64"/>
</a>
</g>
</g>
<!-- Node19 -->
<g id="Node000019" class="node">
<title>Node19</title>
<g id="a_Node000019"><a xlink:href="group___diagnostic_commands.html#ga74736b8d0e49df14f97e3e20cd3418c7" target="_top" xlink:title="Handler for listing all available commands on UART.">
<polygon fill="white" stroke="#666666" points="845.25,-486 710.75,-486 710.75,-466 845.25,-466 845.25,-486"/>
<text text-anchor="middle" x="778" y="-472.5" font-family="Helvetica,sans-Serif" font-size="10.00">handle_get_commands_list</text>
</a>
</g>
</g>
<!-- Node1&#45;&gt;Node19 -->
<g id="edge23_Node000001_Node000019" class="edge">
<title>Node1&#45;&gt;Node19</title>
<g id="a_edge23_Node000001_Node000019"><a xlink:title=" ">
<path fill="none" stroke="#63b8ff" d="M869.89,-489.34C862.2,-488.21 853.92,-486.99 845.59,-485.77"/>
<polygon fill="#63b8ff" stroke="#63b8ff" points="869.14,-492.76 879.54,-490.75 870.15,-485.84 869.14,-492.76"/>
</a>
</g>
</g>
<!-- Node20 -->
<g id="Node000020" class="node">
<title>Node20</title>
<g id="a_Node000020"><a xlink:href="group___power_commands.html#gacda455c78e43fa4ad2a93215b440c0ef" target="_top" xlink:title="Handler for getting solar panel charge current.">
<polygon fill="white" stroke="#666666" points="827.25,-448 728.75,-448 728.75,-416 827.25,-416 827.25,-448"/>
<text text-anchor="start" x="736.75" y="-434.5" font-family="Helvetica,sans-Serif" font-size="10.00">handle_get_current</text>
<text text-anchor="middle" x="778" y="-422.5" font-family="Helvetica,sans-Serif" font-size="10.00">_charge_solar</text>
</a>
</g>
</g>
<!-- Node1&#45;&gt;Node20 -->
<g id="edge24_Node000001_Node000020" class="edge">
<title>Node1&#45;&gt;Node20</title>
<g id="a_edge24_Node000001_Node000020"><a xlink:title=" ">
<path fill="none" stroke="#63b8ff" d="M883.4,-478.49C872.02,-471.39 858.23,-463.28 845.25,-457 839.05,-454 832.4,-451.12 825.78,-448.44"/>
<polygon fill="#63b8ff" stroke="#63b8ff" points="881.49,-481.43 891.81,-483.85 885.25,-475.52 881.49,-481.43"/>
</a>
</g>
</g>
<!-- Node21 -->
<g id="Node000021" class="node">
<title>Node21</title>
<g id="a_Node000021"><a xlink:href="group___power_commands.html#gaf14f25e1c7a2f89881a0f9fbcb7f1807" target="_top" xlink:title="Handler for getting total charge current.">
<polygon fill="white" stroke="#666666" points="827.25,-398 728.75,-398 728.75,-366 827.25,-366 827.25,-398"/>
<text text-anchor="start" x="736.75" y="-384.5" font-family="Helvetica,sans-Serif" font-size="10.00">handle_get_current</text>
<text text-anchor="middle" x="778" y="-372.5" font-family="Helvetica,sans-Serif" font-size="10.00">_charge_total</text>
</a>
</g>
</g>
<!-- Node1&#45;&gt;Node21 -->
<g id="edge25_Node000001_Node000021" class="edge">
<title>Node1&#45;&gt;Node21</title>
<g id="a_edge25_Node000001_Node000021"><a xlink:title=" ">
<path fill="none" stroke="#63b8ff" d="M898.31,-474.41C887.58,-454.64 868.95,-425.17 845.25,-407 839.88,-402.89 833.77,-399.38 827.47,-396.42"/>
<polygon fill="#63b8ff" stroke="#63b8ff" points="895.15,-475.92 902.87,-483.18 901.36,-472.69 895.15,-475.92"/>
</a>
</g>
</g>
<!-- Node22 -->
<g id="Node000022" class="node">
<title>Node22</title>
<g id="a_Node000022"><a xlink:href="group___power_commands.html#ga6e5a897c92aaeae8b2fb25faa50bb19d" target="_top" xlink:title="Handler for getting USB charge current.">
<polygon fill="white" stroke="#666666" points="827.25,-348 728.75,-348 728.75,-316 827.25,-316 827.25,-348"/>
<text text-anchor="start" x="736.75" y="-334.5" font-family="Helvetica,sans-Serif" font-size="10.00">handle_get_current</text>
<text text-anchor="middle" x="778" y="-322.5" font-family="Helvetica,sans-Serif" font-size="10.00">_charge_usb</text>
</a>
</g>
</g>
<!-- Node1&#45;&gt;Node22 -->
<g id="edge26_Node000001_Node000022" class="edge">
<title>Node1&#45;&gt;Node22</title>
<g id="a_edge26_Node000001_Node000022"><a xlink:title=" ">
<path fill="none" stroke="#63b8ff" d="M904.08,-473.54C896.82,-443.53 879.64,-389.1 845.25,-357 840.13,-352.22 834,-348.33 827.57,-345.17"/>
<polygon fill="#63b8ff" stroke="#63b8ff" points="900.66,-474.3 906.26,-483.3 907.49,-472.77 900.66,-474.3"/>
</a>
</g>
</g>
<!-- Node23 -->
<g id="Node000023" class="node">
<title>Node23</title>
<g id="a_Node000023"><a xlink:href="group___power_commands.html#ga31c33c0ee51185939be5c642affdb6b8" target="_top" xlink:title="Handler for getting system current draw.">
<polygon fill="white" stroke="#666666" points="840.38,-298 715.62,-298 715.62,-278 840.38,-278 840.38,-298"/>
<text text-anchor="middle" x="778" y="-284.5" font-family="Helvetica,sans-Serif" font-size="10.00">handle_get_current_draw</text>
</a>
</g>
</g>
<!-- Node1&#45;&gt;Node23 -->
<g id="edge27_Node000001_Node000023" class="edge">
<title>Node1&#45;&gt;Node23</title>
<g id="a_edge27_Node000001_Node000023"><a xlink:title=" ">
<path fill="none" stroke="#63b8ff" d="M907.51,-473.26C904.54,-434.27 892.67,-352.32 845.25,-307 841.62,-303.53 837.39,-300.68 832.87,-298.35"/>
<polygon fill="#63b8ff" stroke="#63b8ff" points="904.01,-473.44 908.12,-483.21 911,-473.01 904.01,-473.44"/>
</a>
</g>
</g>
<!-- Node24 -->
<g id="Node000024" class="node">
<title>Node24</title>
<g id="a_Node000024"><a xlink:href="group___power_commands.html#ga24497d675dc02a7ec46ed0327a9de54a" target="_top" xlink:title="Handler for getting 5V rail voltage.">
<polygon fill="white" stroke="#666666" points="835.88,-260 720.12,-260 720.12,-240 835.88,-240 835.88,-260"/>
<text text-anchor="middle" x="778" y="-246.5" font-family="Helvetica,sans-Serif" font-size="10.00">handle_get_voltage_5v</text>
</a>
</g>
</g>
<!-- Node1&#45;&gt;Node24 -->
<g id="edge28_Node000001_Node000024" class="edge">
<title>Node1&#45;&gt;Node24</title>
<g id="a_edge28_Node000001_Node000024"><a xlink:title=" ">
<path fill="none" stroke="#63b8ff" d="M908.98,-473.32C908.75,-428.65 901.71,-325.82 845.25,-269 841.79,-265.52 837.74,-262.67 833.38,-260.33"/>
<polygon fill="#63b8ff" stroke="#63b8ff" points="905.48,-473.2 908.91,-483.23 912.48,-473.26 905.48,-473.2"/>
</a>
</g>
</g>
<!-- Node25 -->
<g id="Node000025" class="node">
<title>Node25</title>
<g id="a_Node000025"><a xlink:href="group___power_commands.html#ga06487ba124c57bc39009eb235ec8cab4" target="_top" xlink:title="Handler for getting battery voltage.">
<polygon fill="white" stroke="#666666" points="828,-222 728,-222 728,-190 828,-190 828,-222"/>
<text text-anchor="start" x="736" y="-208.5" font-family="Helvetica,sans-Serif" font-size="10.00">handle_get_voltage</text>
<text text-anchor="middle" x="778" y="-196.5" font-family="Helvetica,sans-Serif" font-size="10.00">_battery</text>
</a>
</g>
</g>
<!-- Node1&#45;&gt;Node25 -->
<g id="edge29_Node000001_Node000025" class="edge">
<title>Node1&#45;&gt;Node25</title>
<g id="a_edge29_Node000001_Node000025"><a xlink:title=" ">
<path fill="none" stroke="#63b8ff" d="M905.92,-473.24C898.83,-416.78 877.42,-267.49 845.25,-231 840.62,-225.74 834.76,-221.59 828.46,-218.31"/>
<polygon fill="#63b8ff" stroke="#63b8ff" points="902.44,-473.64 907.13,-483.14 909.39,-472.79 902.44,-473.64"/>
</a>
</g>
</g>
<!-- Node26 -->
<g id="Node000026" class="node">
<title>Node26</title>
<g id="a_Node000026"><a xlink:href="group___clock_commands.html#gaece0975a9dd699742e1db5a411bcc93c" target="_top" xlink:title="Handler for getting and setting system time.">
<polygon fill="white" stroke="#666666" points="812.25,-172 743.75,-172 743.75,-152 812.25,-152 812.25,-172"/>
<text text-anchor="middle" x="778" y="-158.5" font-family="Helvetica,sans-Serif" font-size="10.00">handle_time</text>
</a>
</g>
</g>
<!-- Node1&#45;&gt;Node26 -->
<g id="edge30_Node000001_Node000026" class="edge">
<title>Node1&#45;&gt;Node26</title>
<g id="a_edge30_Node000001_Node000026"><a xlink:title=" ">
<path fill="none" stroke="#63b8ff" d="M907.01,-473.27C902.2,-409.41 885.02,-224.11 845.25,-181 836.81,-171.85 824.3,-167 812.41,-164.47"/>
<polygon fill="#63b8ff" stroke="#63b8ff" points="903.51,-473.42 907.72,-483.14 910.49,-472.92 903.51,-473.42"/>
</a>
</g>
</g>
<!-- Node27 -->
<g id="Node000027" class="node">
<title>Node27</title>
<g id="a_Node000027"><a xlink:href="communication_8cpp.html#a8f817ba4ed9164098cd3947f7cc3f749" target="_top" xlink:title="Initializes the LoRa radio module.">
<polygon fill="white" stroke="#666666" points="654.5,-511 577,-511 577,-491 654.5,-491 654.5,-511"/>
<text text-anchor="middle" x="615.75" y="-497.5" font-family="Helvetica,sans-Serif" font-size="10.00">initialize_radio</text>
</a>
</g>
</g>
<!-- Node1&#45;&gt;Node27 -->
<g id="edge33_Node000001_Node000027" class="edge">
<title>Node1&#45;&gt;Node27</title>
<g id="a_edge33_Node000001_Node000027"><a xlink:title=" ">
<path fill="none" stroke="#63b8ff" d="M869.55,-495.8C813.41,-496.96 710.37,-499.07 654.75,-500.22"/>
<polygon fill="#63b8ff" stroke="#63b8ff" points="869.35,-499.31 879.28,-495.6 869.21,-492.31 869.35,-499.31"/>
</a>
</g>
</g>
<!-- Node28 -->
<g id="Node000028" class="node">
<title>Node28</title>
<g id="a_Node000028"><a xlink:href="class_event_manager.html#a741f96e4376a42712561ceca16646c1b" target="_top" xlink:title="Logs an event.">
<polygon fill="white" stroke="#666666" points="841.5,-96 714.5,-96 714.5,-76 841.5,-76 841.5,-96"/>
<text text-anchor="middle" x="778" y="-82.5" font-family="Helvetica,sans-Serif" font-size="10.00">EventManager::log_event</text>
</a>
</g>
</g>
<!-- Node1&#45;&gt;Node28 -->
<g id="edge35_Node000001_Node000028" class="edge">
<title>Node1&#45;&gt;Node28</title>
<g id="a_edge35_Node000001_Node000028"><a xlink:title=" ">
<path fill="none" stroke="#63b8ff" d="M907.76,-473.42C904.83,-400.71 891.89,-166.16 845.25,-110 840.4,-104.17 834.02,-99.75 827.13,-96.41"/>
<polygon fill="#63b8ff" stroke="#63b8ff" points="904.25,-473.31 908.12,-483.17 911.24,-473.05 904.25,-473.31"/>
</a>
</g>
</g>
<!-- Node29 -->
<g id="Node000029" class="node">
<title>Node29</title>
<g id="a_Node000029"><a xlink:href="send_8cpp.html#a42881e6476e0ce51ee9f6a99a7318d3b" target="_top" xlink:title="Sends a message using LoRa.">
<polygon fill="white" stroke="#666666" points="819,-688 737,-688 737,-668 819,-668 819,-688"/>
<text text-anchor="middle" x="778" y="-674.5" font-family="Helvetica,sans-Serif" font-size="10.00">send_message</text>
</a>
</g>
</g>
<!-- Node1&#45;&gt;Node29 -->
<g id="edge38_Node000001_Node000029" class="edge">
<title>Node1&#45;&gt;Node29</title>
<g id="a_edge38_Node000001_Node000029"><a xlink:title=" ">
<path fill="none" stroke="#63b8ff" d="M905.66,-516.39C900.08,-550.15 884.59,-615.86 845.25,-654 838.05,-660.98 828.66,-665.95 819.23,-669.49"/>
<polygon fill="#63b8ff" stroke="#63b8ff" points="909.1,-517.04 907.12,-506.63 902.18,-516.01 909.1,-517.04"/>
</a>
</g>
</g>
<!-- Node34 -->
<g id="Node000034" class="node">
<title>Node34</title>
<g id="a_Node000034"><a xlink:href="class_d_s3231.html#af68ef517aa7ff25393490211abc99fa8" target="_top" xlink:title=" ">
<polygon fill="white" stroke="#666666" points="825.38,-20 730.62,-20 730.62,0 825.38,0 825.38,-20"/>
<text text-anchor="middle" x="778" y="-6.5" font-family="Helvetica,sans-Serif" font-size="10.00">DS3231::set_time</text>
</a>
</g>
</g>
<!-- Node1&#45;&gt;Node34 -->
<g id="edge48_Node000001_Node000034" class="edge">
<title>Node1&#45;&gt;Node34</title>
<g id="a_edge48_Node000001_Node000034"><a xlink:title=" ">
<path fill="none" stroke="#63b8ff" d="M908.4,-473.25C907.62,-391.37 900.87,-102.81 845.25,-34 840.1,-27.63 833.1,-22.94 825.59,-19.51"/>
<polygon fill="#63b8ff" stroke="#63b8ff" points="904.9,-473.26 908.48,-483.23 911.9,-473.21 904.9,-473.26"/>
</a>
</g>
</g>
<!-- Node3&#45;&gt;Node4 -->
<g id="edge3_Node000003_Node000004" class="edge">
<title>Node3&#45;&gt;Node4</title>
<g id="a_edge3_Node000003_Node000004"><a xlink:title=" ">
<path fill="none" stroke="#63b8ff" d="M712.48,-896.13C690.79,-892.47 667.51,-888.55 649.34,-885.49"/>
<polygon fill="#63b8ff" stroke="#63b8ff" points="711.7,-899.55 722.15,-897.76 712.87,-892.65 711.7,-899.55"/>
</a>
</g>
</g>
<!-- Node4&#45;&gt;Node5 -->
<g id="edge4_Node000004_Node000005" class="edge">
<title>Node4&#45;&gt;Node5</title>
<g id="a_edge4_Node000004_Node000005"><a xlink:title=" ">
<path fill="none" stroke="#63b8ff" d="M571.06,-893.01C471.35,-919.81 224.01,-969.67 73,-856 24.37,-819.39 19.48,-736.58 19.33,-707.41"/>
<polygon fill="#63b8ff" stroke="#63b8ff" points="571.74,-896.45 580.46,-890.42 569.89,-889.7 571.74,-896.45"/>
</a>
</g>
</g>
<!-- Node7 -->
<g id="Node000007" class="node">
<title>Node7</title>
<g id="a_Node000007"><a xlink:href="frame_8cpp.html#a8b9c5fd031b899c6c7867adcde4ac11f" target="_top" xlink:title="Executes a command based on the command key and the parameter.">
<polygon fill="white" stroke="#666666" points="307.88,-688 227.38,-688 227.38,-668 307.88,-668 307.88,-688"/>
<text text-anchor="middle" x="267.62" y="-674.5" font-family="Helvetica,sans-Serif" font-size="10.00">frame_process</text>
</a>
</g>
</g>
<!-- Node6&#45;&gt;Node7 -->
<g id="edge7_Node000006_Node000007" class="edge">
<title>Node6&#45;&gt;Node7</title>
<g id="a_edge7_Node000006_Node000007"><a xlink:title=" ">
<path fill="none" stroke="#63b8ff" d="M418.85,-775.51C382.1,-751.66 315.17,-708.21 284.61,-688.38"/>
<polygon fill="#63b8ff" stroke="#63b8ff" points="416.79,-778.35 427.09,-780.86 420.6,-772.48 416.79,-778.35"/>
</a>
</g>
</g>
<!-- Node10 -->
<g id="Node000010" class="node">
<title>Node10</title>
<g id="a_Node000010"><a xlink:href="test__frame__coding_8cpp.html#a75deef6947cf7117a58214b4298ecec9" target="_top" xlink:title=" ">
<polygon fill="white" stroke="#666666" points="331.5,-764 203.75,-764 203.75,-744 331.5,-744 331.5,-764"/>
<text text-anchor="middle" x="267.62" y="-750.5" font-family="Helvetica,sans-Serif" font-size="10.00">test_frame_decode_basic</text>
</a>
</g>
</g>
<!-- Node6&#45;&gt;Node10 -->
<g id="edge12_Node000006_Node000010" class="edge">
<title>Node6&#45;&gt;Node10</title>
<g id="a_edge12_Node000006_Node000010"><a xlink:title=" ">
<path fill="none" stroke="#63b8ff" d="M394.97,-781.34C370.6,-776.06 341.29,-769.72 317.03,-764.47"/>
<polygon fill="#63b8ff" stroke="#63b8ff" points="394.15,-784.74 404.66,-783.43 395.63,-777.9 394.15,-784.74"/>
</a>
</g>
</g>
<!-- Node12 -->
<g id="Node000012" class="node">
<title>Node12</title>
<g id="a_Node000012"><a xlink:href="test__frame__coding_8cpp.html#a054000b3d2c0abb2e13b9109ae0969ef" target="_top" xlink:title=" ">
<polygon fill="white" stroke="#666666" points="333.75,-814 201.5,-814 201.5,-782 333.75,-782 333.75,-814"/>
<text text-anchor="start" x="209.5" y="-800.5" font-family="Helvetica,sans-Serif" font-size="10.00">test_frame_decode_invalid</text>
<text text-anchor="middle" x="267.62" y="-788.5" font-family="Helvetica,sans-Serif" font-size="10.00">_header</text>
</a>
</g>
</g>
<!-- Node6&#45;&gt;Node12 -->
<g id="edge14_Node000006_Node000012" class="edge">
<title>Node6&#45;&gt;Node12</title>
<g id="a_edge14_Node000006_Node000012"><a xlink:title=" ">
<path fill="none" stroke="#63b8ff" d="M394.81,-793.69C375.92,-794.33 354.09,-795.08 333.95,-795.77"/>
<polygon fill="#63b8ff" stroke="#63b8ff" points="394.75,-797.19 404.63,-793.35 394.52,-790.2 394.75,-797.19"/>
</a>
</g>
</g>
<!-- Node7&#45;&gt;Node8 -->
<g id="edge8_Node000007_Node000008" class="edge">
<title>Node7&#45;&gt;Node8</title>
<g id="a_edge8_Node000007_Node000008"><a xlink:title=" ">
<path fill="none" stroke="#63b8ff" d="M216.05,-691.13C197.94,-695.83 177.79,-701.06 160.66,-705.51"/>
<polygon fill="#63b8ff" stroke="#63b8ff" points="216.75,-694.56 225.55,-688.66 214.99,-687.79 216.75,-694.56"/>
</a>
</g>
</g>
<!-- Node7&#45;&gt;Node9 -->
<g id="edge10_Node000007_Node000009" class="edge">
<title>Node7&#45;&gt;Node9</title>
<g id="a_edge10_Node000007_Node000009"><a xlink:title=" ">
<path fill="none" stroke="#63b8ff" d="M215.73,-678C194.19,-678 169.81,-678 151.07,-678"/>
<polygon fill="#63b8ff" stroke="#63b8ff" points="215.5,-681.5 225.5,-678 215.5,-674.5 215.5,-681.5"/>
</a>
</g>
</g>
<!-- Node8&#45;&gt;Node5 -->
<g id="edge9_Node000008_Node000005" class="edge">
<title>Node8&#45;&gt;Node5</title>
<g id="a_edge9_Node000008_Node000005"><a xlink:title=" ">
<path fill="none" stroke="#63b8ff" d="M61.47,-705.08C52.72,-703.39 44.3,-701.77 37.31,-700.43"/>
<polygon fill="#63b8ff" stroke="#63b8ff" points="60.67,-708.48 71.15,-706.94 61.99,-701.61 60.67,-708.48"/>
</a>
</g>
</g>
<!-- Node9&#45;&gt;Node5 -->
<g id="edge11_Node000009_Node000005" class="edge">
<title>Node9&#45;&gt;Node5</title>
<g id="a_edge11_Node000009_Node000005"><a xlink:title=" ">
<path fill="none" stroke="#63b8ff" d="M76.15,-686.1C62.58,-688.71 48.27,-691.46 37.42,-693.55"/>
<polygon fill="#63b8ff" stroke="#63b8ff" points="76.63,-689.57 85.79,-684.25 75.31,-682.7 76.63,-689.57"/>
</a>
</g>
</g>
<!-- Node11 -->
<g id="Node000011" class="node">
<title>Node11</title>
<g id="a_Node000011"><a xlink:href="test__runner_8cpp.html#a840291bc02cba5474a4cb46a9b9566fe" target="_top" xlink:title=" ">
<polygon fill="white" stroke="#666666" points="137.75,-786 100.75,-786 100.75,-766 137.75,-766 137.75,-786"/>
<text text-anchor="middle" x="119.25" y="-772.5" font-family="Helvetica,sans-Serif" font-size="10.00">main</text>
</a>
</g>
</g>
<!-- Node10&#45;&gt;Node11 -->
<g id="edge13_Node000010_Node000011" class="edge">
<title>Node10&#45;&gt;Node11</title>
<g id="a_edge13_Node000010_Node000011"><a xlink:title=" ">
<path fill="none" stroke="#63b8ff" d="M192.05,-765.21C171.82,-768.25 151.72,-771.27 137.95,-773.34"/>
<polygon fill="#63b8ff" stroke="#63b8ff" points="192.41,-768.69 201.78,-763.75 191.37,-761.77 192.41,-768.69"/>
</a>
</g>
</g>
<!-- Node12&#45;&gt;Node11 -->
<g id="edge15_Node000012_Node000011" class="edge">
<title>Node12&#45;&gt;Node11</title>
<g id="a_edge15_Node000012_Node000011"><a xlink:title=" ">
<path fill="none" stroke="#63b8ff" d="M189.98,-786.48C170.47,-783.55 151.29,-780.67 138,-778.67"/>
<polygon fill="#63b8ff" stroke="#63b8ff" points="189.24,-789.91 199.65,-787.93 190.28,-782.99 189.24,-789.91"/>
</a>
</g>
</g>
<!-- Node13&#45;&gt;Node14 -->
<g id="edge17_Node000013_Node000014" class="edge">
<title>Node13&#45;&gt;Node14</title>
<g id="a_edge17_Node000013_Node000014"><a xlink:title=" ">
<path fill="none" stroke="#63b8ff" d="M595.83,-305.3C560.26,-339.71 484.52,-412.98 456.74,-439.85"/>
<polygon fill="#63b8ff" stroke="#63b8ff" points="598.11,-307.97 602.87,-298.5 593.24,-302.93 598.11,-307.97"/>
</a>
</g>
</g>
<!-- Node14&#45;&gt;Node5 -->
<g id="edge18_Node000014_Node000005" class="edge">
<title>Node14&#45;&gt;Node5</title>
<g id="a_edge18_Node000014_Node000005"><a xlink:title=" ">
<path fill="none" stroke="#63b8ff" d="M398.04,-444.66C346.93,-440.92 263.58,-441.38 201.5,-474 105.5,-524.44 41.48,-649.6 24.2,-686.56"/>
<polygon fill="#63b8ff" stroke="#63b8ff" points="397.61,-448.14 407.87,-445.48 398.19,-441.16 397.61,-448.14"/>
</a>
</g>
</g>
<!-- Node16 -->
<g id="Node000016" class="node">
<title>Node16</title>
<g id="a_Node000016"><a xlink:href="class_d_s3231.html#a2de3663610d5d17f9b6e6354b72cc1b4" target="_top" xlink:title=" ">
<polygon fill="white" stroke="#666666" points="674.75,-593 556.75,-593 556.75,-573 674.75,-573 674.75,-593"/>
<text text-anchor="middle" x="615.75" y="-579.5" font-family="Helvetica,sans-Serif" font-size="10.00">DS3231::get_unix_time</text>
</a>
</g>
</g>
<!-- Node15&#45;&gt;Node16 -->
<g id="edge20_Node000015_Node000016" class="edge">
<title>Node15&#45;&gt;Node16</title>
<g id="a_edge20_Node000015_Node000016"><a xlink:title=" ">
<path fill="none" stroke="#63b8ff" d="M718.99,-595.12C704.67,-593.42 689.32,-591.6 674.98,-589.9"/>
<polygon fill="#63b8ff" stroke="#63b8ff" points="718.37,-598.57 728.72,-596.28 719.2,-591.62 718.37,-598.57"/>
</a>
</g>
</g>
<!-- Node27&#45;&gt;Node14 -->
<g id="edge34_Node000027_Node000014" class="edge">
<title>Node27&#45;&gt;Node14</title>
<g id="a_edge34_Node000027_Node000014"><a xlink:title=" ">
<path fill="none" stroke="#63b8ff" d="M569.55,-487.32C541.64,-478.87 506.37,-468.2 480.71,-460.43"/>
<polygon fill="#63b8ff" stroke="#63b8ff" points="568.21,-490.57 578.8,-490.12 570.24,-483.87 568.21,-490.57"/>
</a>
</g>
</g>
<!-- Node30 -->
<g id="Node000030" class="node">
<title>Node30</title>
<g id="a_Node000030"><a xlink:href="send_8cpp.html#ae6c6f3b673e7e83306da7ea2458d3241" target="_top" xlink:title="Sends a Frame using LoRa.">
<polygon fill="white" stroke="#666666" points="649.25,-669 582.25,-669 582.25,-649 649.25,-649 649.25,-669"/>
<text text-anchor="middle" x="615.75" y="-655.5" font-family="Helvetica,sans-Serif" font-size="10.00">send_frame</text>
</a>
</g>
</g>
<!-- Node29&#45;&gt;Node30 -->
<g id="edge39_Node000029_Node000030" class="edge">
<title>Node29&#45;&gt;Node30</title>
<g id="a_edge39_Node000029_Node000030"><a xlink:title=" ">
<path fill="none" stroke="#63b8ff" d="M725.13,-671.85C700.32,-668.91 671.36,-665.48 649.63,-662.9"/>
<polygon fill="#63b8ff" stroke="#63b8ff" points="724.72,-675.33 735.06,-673.03 725.54,-668.37 724.72,-675.33"/>
</a>
</g>
</g>
<!-- Node30&#45;&gt;Node5 -->
<g id="edge46_Node000030_Node000005" class="edge">
<title>Node30&#45;&gt;Node5</title>
<g id="a_edge46_Node000030_Node000005"><a xlink:title=" ">
<path fill="none" stroke="#63b8ff" d="M570.89,-650.22C476.9,-633.28 250.2,-602.47 73,-659 56.07,-664.4 39.91,-677.33 29.86,-686.61"/>
<polygon fill="#63b8ff" stroke="#63b8ff" points="569.99,-653.61 580.46,-651.99 571.26,-646.73 569.99,-653.61"/>
</a>
</g>
</g>
<!-- Node30&#45;&gt;Node6 -->
<g id="edge40_Node000030_Node000006" class="edge">
<title>Node30&#45;&gt;Node6</title>
<g id="a_edge40_Node000030_Node000006"><a xlink:title=" ">
<path fill="none" stroke="#63b8ff" d="M593.33,-676.59C574.36,-692.1 545.87,-715.24 520.75,-735 499.76,-751.51 475.09,-770.26 460.07,-781.6"/>
<polygon fill="#63b8ff" stroke="#63b8ff" points="595.38,-679.44 600.89,-670.39 590.94,-674.02 595.38,-679.44"/>
</a>
</g>
</g>
<!-- Node30&#45;&gt;Node7 -->
<g id="edge41_Node000030_Node000007" class="edge">
<title>Node30&#45;&gt;Node7</title>
<g id="a_edge41_Node000030_Node000007"><a xlink:title=" ">
<path fill="none" stroke="#63b8ff" d="M570.72,-661.42C502.72,-665.15 373.24,-672.26 308.11,-675.83"/>
<polygon fill="#63b8ff" stroke="#63b8ff" points="570.57,-664.93 580.36,-660.89 570.19,-657.94 570.57,-664.93"/>
</a>
</g>
</g>
<!-- Node30&#45;&gt;Node14 -->
<g id="edge45_Node000030_Node000014" class="edge">
<title>Node30&#45;&gt;Node14</title>
<g id="a_edge45_Node000030_Node000014"><a xlink:title=" ">
<path fill="none" stroke="#63b8ff" d="M592.56,-641.33C580.65,-630.92 566.46,-616.89 556.75,-602 532.08,-564.19 547.71,-543.22 520.75,-507 505.77,-486.88 481.86,-470.34 465.17,-460.36"/>
<polygon fill="#63b8ff" stroke="#63b8ff" points="590.06,-643.8 599.96,-647.57 594.57,-638.45 590.06,-643.8"/>
</a>
</g>
</g>
<!-- Node30&#45;&gt;Node18 -->
<g id="edge42_Node000030_Node000018" class="edge">
<title>Node30&#45;&gt;Node18</title>
<g id="a_edge42_Node000030_Node000018"><a xlink:title=" ">
<path fill="none" stroke="#63b8ff" d="M575.08,-673.18C558.35,-679.1 538.63,-685.98 520.75,-692 507.23,-696.55 492.26,-701.41 479.32,-705.55"/>
<polygon fill="#63b8ff" stroke="#63b8ff" points="575.92,-676.6 584.17,-669.96 573.58,-670 575.92,-676.6"/>
</a>
</g>
</g>
<!-- Node31 -->
<g id="Node000031" class="node">
<title>Node31</title>
<g id="a_Node000031"><a xlink:href="storage__commands_8cpp.html#a1ebbe9d6a73f10f9887975fe4f968aad" target="_top" xlink:title="Handles the file download command.">
<polygon fill="white" stroke="#666666" points="499.75,-536 390.75,-536 390.75,-516 499.75,-516 499.75,-536"/>
<text text-anchor="middle" x="445.25" y="-522.5" font-family="Helvetica,sans-Serif" font-size="10.00">handle_file_download</text>
</a>
</g>
</g>
<!-- Node30&#45;&gt;Node31 -->
<g id="edge43_Node000030_Node000031" class="edge">
<title>Node30&#45;&gt;Node31</title>
<g id="a_edge43_Node000030_Node000031"><a xlink:title=" ">
<path fill="none" stroke="#63b8ff" d="M571.79,-645.93C566.27,-642.96 561.06,-639.36 556.75,-635 526.47,-604.36 553.14,-573.41 520.75,-545 514.83,-539.81 507.68,-536 500.18,-533.21"/>
<polygon fill="#63b8ff" stroke="#63b8ff" points="569.99,-648.96 580.54,-649.98 572.93,-642.6 569.99,-648.96"/>
</a>
</g>
</g>
<!-- Node32 -->
<g id="Node000032" class="node">
<title>Node32</title>
<g id="a_Node000032"><a xlink:href="storage__commands_8cpp.html#acc768cf94aac4e11301443f30529b738" target="_top" xlink:title="Handles the list files command.">
<polygon fill="white" stroke="#666666" points="488.12,-612 402.38,-612 402.38,-592 488.12,-592 488.12,-612"/>
<text text-anchor="middle" x="445.25" y="-598.5" font-family="Helvetica,sans-Serif" font-size="10.00">handle_list_files</text>
</a>
</g>
</g>
<!-- Node30&#45;&gt;Node32 -->
<g id="edge44_Node000030_Node000032" class="edge">
<title>Node30&#45;&gt;Node32</title>
<g id="a_edge44_Node000030_Node000032"><a xlink:title=" ">
<path fill="none" stroke="#63b8ff" d="M575.08,-644.82C558.35,-638.9 538.63,-632.02 520.75,-626 507.23,-621.45 492.26,-616.59 479.32,-612.45"/>
<polygon fill="#63b8ff" stroke="#63b8ff" points="573.58,-648 584.17,-648.04 575.92,-641.4 573.58,-648"/>
</a>
</g>
</g>
<!-- Node33 -->
<g id="Node000033" class="node">
<title>Node33</title>
<g id="a_Node000033"><a xlink:href="frame_8cpp.html#af49224563adb4bf0b91daa5ab78120ca" target="_top" xlink:title="Sends the event register value to the ground station.">
<polygon fill="white" stroke="#666666" points="478.38,-574 412.12,-574 412.12,-554 478.38,-554 478.38,-574"/>
<text text-anchor="middle" x="445.25" y="-560.5" font-family="Helvetica,sans-Serif" font-size="10.00">send_event</text>
</a>
</g>
</g>
<!-- Node30&#45;&gt;Node33 -->
<g id="edge47_Node000030_Node000033" class="edge">
<title>Node30&#45;&gt;Node33</title>
<g id="a_edge47_Node000030_Node000033"><a xlink:title=" ">
<path fill="none" stroke="#63b8ff" d="M571.66,-644.5C566.37,-641.78 561.25,-638.63 556.75,-635 534.87,-617.35 543.83,-599.04 520.75,-583 508.47,-574.47 492.68,-569.76 478.8,-567.17"/>
<polygon fill="#63b8ff" stroke="#63b8ff" points="570.02,-647.6 580.56,-648.58 572.93,-641.23 570.02,-647.6"/>
</a>
</g>
</g>
<!-- Node35 -->
<g id="Node000035" class="node">
<title>Node35</title>
<g id="a_Node000035"><a xlink:href="class_d_s3231.html#ac1d01626660a57e9cc969dc35155f246" target="_top" xlink:title=" ">
<polygon fill="white" stroke="#666666" points="674.75,-20 556.75,-20 556.75,0 674.75,0 674.75,-20"/>
<text text-anchor="middle" x="615.75" y="-6.5" font-family="Helvetica,sans-Serif" font-size="10.00">DS3231::set_unix_time</text>
</a>
</g>
</g>
<!-- Node34&#45;&gt;Node35 -->
<g id="edge49_Node000034_Node000035" class="edge">
<title>Node34&#45;&gt;Node35</title>
<g id="a_edge49_Node000034_Node000035"><a xlink:title=" ">
<path fill="none" stroke="#63b8ff" d="M718.99,-10C704.67,-10 689.32,-10 674.98,-10"/>
<polygon fill="#63b8ff" stroke="#63b8ff" points="718.7,-13.5 728.7,-10 718.7,-6.5 718.7,-13.5"/>
</a>
</g>
</g>
</g>
</svg>

<g id="navigator" transform="translate(0 0)" fill="#404254">
  <rect fill="#f2f5e9" fill-opacity="0.5" stroke="#606060" stroke-width=".5" x="0" y="0" width="60" height="60"/>
  <use id="zoomplus" xlink:href="#zoomPlus" x="17" y="9" onmousedown="handleZoom(evt,'in')"/>
  <use id="zoomminus" xlink:href="#zoomMin" x="42" y="9" onmousedown="handleZoom(evt,'out')"/>
  <use id="reset" xlink:href="#resetDef" x="30" y="36" onmousedown="handleReset()"/>
   <use id="arrowup" xlink:href="#arrowUp" x="0" y="0" onmousedown="handlePan(0,-1)"/>
  <use id="arrowright" xlink:href="#arrowRight" x="0" y="0" onmousedown="handlePan(1,0)"/>
  <use id="arrowdown" xlink:href="#arrowDown" x="0" y="0" onmousedown="handlePan(0,1)"/>
  <use id="arrowleft" xlink:href="#arrowLeft" x="0" y="0" onmousedown="handlePan(-1,0)"/>
</g>
<svg viewBox="0 0 15 15" width="100%" height="30px" preserveAspectRatio="xMaxYMin meet">
 <g id="arrow_out" transform="scale(0.3 0.3)">
  <a xlink:href="utils_8h_a1742e86aa0036799f971dea15081f283_icgraph_org.svg" target="_base">
   <rect id="button" ry="5" rx="5" y="6" x="6" height="38" width="38"
        fill="#f2f5e9" fill-opacity="0.5" stroke="#606060" stroke-width="1.0"/>
   <path id="arrow"
     d="M 11.500037,31.436501 C 11.940474,20.09759 22.043105,11.32322 32.158766,21.979434 L 37.068811,17.246167 C 37.068811,17.246167 37.088388,32 37.088388,32 L 22.160133,31.978069 C 22.160133,31.978069 26.997745,27.140456 26.997745,27.140456 C 18.528582,18.264221 13.291696,25.230495 11.500037,31.436501 z"
     style="fill:#404040;"/>
  </a>
 </g>
</svg>

<style type='text/css'>
<![CDATA[
[data-mouse-over-selected='false'] { opacity: 0.7; }
[data-mouse-over-selected='true']  { opacity: 1.0; }
]]>
</style>
<script type="application/ecmascript"><![CDATA[
document.addEventListener('DOMContentLoaded', (event) => {
  highlightEdges();
  highlightAdjacentNodes();
});
]]></script>
</svg>
